<svg xmlns="http://www.w3.org/2000/svg" viewBox="0 0 18 14" width="18" height="14"><path d="m15.257 0 .209.959a1.4 1.4 0 0 0 1.068 1.069l.96.209-.96.209a1.4 1.4 0 0 0-1.068 1.068l-.21.96-.208-.96a1.4 1.4 0 0 0-1.07-1.068l-.958-.21.959-.208a1.4 1.4 0 0 0 1.069-1.07L15.257 0ZM11.483.607l.107.5c.062.279.277.494.557.556l.499.107-.5.108a.728.728 0 0 0-.556.557l-.107.499-.108-.5a.728.728 0 0 0-.557-.556l-.499-.108.5-.107a.728.728 0 0 0 .556-.557l.108-.499ZM16.563 7.546 14.126 4.55a2.455 2.455 0 0 0-1.915-.91c-1.432 0-2.53 1.21-2.457 2.604a1.94 1.94 0 0 0-1.043-.297c-.274 0-.547.055-.8.167 0-1.34-1.08-2.474-2.457-2.474-.743 0-1.447.334-1.915.91l-2.42 2.996a3.772 3.772 0 1 0 6.27 3.758c.368.335.845.52 1.34.522.592 0 1.153-.267 1.526-.726a3.771 3.771 0 0 0 3.662 2.883 3.749 3.749 0 0 0 3.779-3.719c.008-1.023-.416-1.988-1.135-2.718h.002ZM5.802 10.187a2.02 2.02 0 0 1-2.017 2.017 2.02 2.02 0 0 1-2.017-2.017A2.02 2.02 0 0 1 3.785 8.17a2.02 2.02 0 0 1 2.017 2.017Zm2.93.396a.749.749 0 1 1 .751-.75.772.772 0 0 1-.75.75h-.002Zm3.188-.396a2.02 2.02 0 0 1 2.017-2.017 2.02 2.02 0 0 1 2.017 2.017 2.02 2.02 0 0 1-2.017 2.017 2.02 2.02 0 0 1-2.017-2.017Z"/></svg>
