<svg width="21" height="17" viewBox="0 0 21 17" xmlns="http://www.w3.org/2000/svg"><path d="M4.27 0h.05c.173.045.336.123.48.23.147.098.27.228.36.38.089.154.147.324.17.5a1.35 1.35 0 0 1 0 .53.07.07 0 0 1 0 .05l.79.09a5.93 5.93 0 0 1 2 .56c.25.14.25.14.21.42l-.63 3.8-.24 1.71a.44.44 0 0 1 0 .1H5.38v7.16h10.55v1.24H0v-1.24h2.88V8.38h-2l-.13-1C.57 6.56.45 5.69.33 4.82L0 2.71v-.22c.12-.07.24-.14.37-.2a6.49 6.49 0 0 1 2-.5l.6-.07v-.1a1.2 1.2 0 0 1 0-.5A1.36 1.36 0 0 1 3 .65a1.18 1.18 0 0 1 .35-.38 1.17 1.17 0 0 1 .43-.22h.13L4.27 0zm2.58 3.79H1.46c.1.7.2 1.39.29 2.08h4.72c.09 0 .1 0 .1-.11 0-.39.11-.77.16-1.15l.12-.82z"/><path d="M14.32 9.23l-2.75.93a1.74 1.74 0 0 1-.82.07.769.769 0 0 1-.25-.1.55.55 0 0 1-.19-.18c-.45-.64-.91-1.27-1.37-1.9L8.88 8l.71-.64 1.62 1.25c.11.09.22.22.34.23.12.01.25-.1.37-.15l1.69-.82.12-.06a4.251 4.251 0 0 0-.21-.49c-.64-1.16-1.29-2.26-1.94-3.32l-.08-.2.5-.49.53.48 3.26 2.93a.08.08 0 0 0 .07 0 .11.11 0 0 0 .08 0c.76-.32 1.51-.64 2.28-.93a4.74 4.74 0 0 1 1-.2.73.73 0 0 1 .36 0 .63.63 0 0 1 .3.21.75.75 0 0 1-.12 1.08 3.71 3.71 0 0 1-1.06.64c-.66.29-1.34.57-2 .84a.21.21 0 0 0-.1.06.21.21 0 0 0 0 .11c0 .64-.1 1.28-.14 1.92-.04.64-.13 1.51-.19 2.27l-.06.79c0 .09 0 .11-.12.1h-.56c-.08-.37-.17-.72-.25-1.07-.23-1-.45-1.92-.68-2.88a4 4 0 0 0-.28-.43z"/></svg>
