<svg width="18" height="17" viewBox="0 0 18 17" xmlns="http://www.w3.org/2000/svg">
<path fill-rule="evenodd" clip-rule="evenodd" d="M9 17H18V15.45H9V17ZM9.42 9.14L6 15.45L5.16 15.06L6.16 9.5V8.89C4.54 8.76 3.08 8.61 2.35 8.53C0.76 8.34 0.68 7.64 0.68 7.62L0 4.2L1.26 3.82L2.91 6.82L6.29 6.73V6.12L5.65 0.490004L6.51 0.160004L9.51 6.69C10.38 6.69 11.19 6.69 11.82 6.69C14.36 6.77 15.2 7.21 15.18 8.07C15.18 8.94 14.28 9.32 11.74 9.23C11.1 9.24 10.3 9.2 9.43 9.14H9.42ZM13.28 9.71C13.4279 9.71002 13.5725 9.75376 13.6956 9.83574C13.8187 9.91772 13.9149 10.0343 13.9719 10.1707C14.0289 10.3072 14.0444 10.4575 14.0162 10.6027C13.9881 10.7479 13.9177 10.8815 13.8138 10.9868C13.7099 11.0921 13.5772 11.1643 13.4324 11.1944C13.2875 11.2244 13.1371 11.211 12.9998 11.1557C12.8626 11.1005 12.7448 11.0059 12.6612 10.8839C12.5776 10.7619 12.532 10.6179 12.53 10.47C12.5287 10.3698 12.5474 10.2704 12.5851 10.1776C12.6228 10.0848 12.6788 10.0004 12.7496 9.92961C12.8204 9.85876 12.9048 9.80283 12.9976 9.76512C13.0904 9.7274 13.1898 9.70866 13.29 9.71H13.28Z" />
</svg>
