<svg xmlns="http://www.w3.org/2000/svg" width="14" height="20" viewBox="0 0 14 20"><path fill-rule="evenodd" d="M2 15.49l1.994-3.498 2.524 1.993-1.993 1.555 1.462 2.433c.234.398.32 1.006-.142 1.276-.476.289-1.087.12-1.32-.28L2 15.491zm9.968 0l-1.994-3.498-2.523 1.993 1.992 1.555-1.462 2.433c-.233.398-.32 1.006.142 1.276.476.289 1.087.12 1.32-.28l2.525-3.478zm-2.525-4.495H4.525V8.533l-2.92 1.774a.864.864 0 0 1-1.108-.09.863.863 0 0 1 0-1.216c.03-.03 3.982-2.99 3.982-2.99h5.012c.006.01 3.922 2.96 3.954 2.99a.863.863 0 0 1 0 1.216.864.864 0 0 1-1.107.09L9.443 8.533v2.462zM6.984.03a2.464 2.464 0 0 1 2.46 2.462 2.456 2.456 0 0 1-2.46 2.452 2.456 2.456 0 0 1-2.46-2.452A2.464 2.464 0 0 1 6.985.03z"/></svg>