<svg width="13" height="19" viewBox="0 0 13 19" xmlns="http://www.w3.org/2000/svg"><path fill-rule="evenodd" clip-rule="evenodd" d="M12.564 0H.496A.504.504 0 0 0 0 .495V17.52a.495.495 0 0 0 .496.488h12.023a.482.482 0 0 0 .481-.473V.495A.502.502 0 0 0 12.564 0zM2.352 5.747h8.386V2.326H2.352v3.421zM9.822 9.5a.925.925 0 0 1-.916-1.098.922.922 0 0 1 1.26-.678.924.924 0 0 1 .572.853.92.92 0 0 1-.917.968V9.5zm0 3.046a.925.925 0 0 1-.915-1.1.922.922 0 0 1 1.264-.674.924.924 0 0 1-.35 1.774zm0 3.054a.925.925 0 0 1-.916-1.098.922.922 0 0 1 1.26-.678.924.924 0 0 1 .505 1.207.922.922 0 0 1-.85.577v-.008zM6.544 9.5a.925.925 0 0 1-.915-1.098.922.922 0 0 1 1.26-.678.924.924 0 0 1 .572.853.922.922 0 0 1-.917.968V9.5zm0 3.046a.925.925 0 0 1-.914-1.1.922.922 0 0 1 1.264-.674.924.924 0 0 1 0 1.705.918.918 0 0 1-.35.07zm0 3.054a.925.925 0 0 1-.915-1.098.922.922 0 0 1 1.26-.678.924.924 0 0 1 .504 1.207.922.922 0 0 1-.849.577v-.008zM3.27 9.5a.925.925 0 0 1-.915-1.098.922.922 0 0 1 1.26-.678.924.924 0 0 1 .572.853.914.914 0 0 1-.917.968V9.5zm0 3.046a.925.925 0 0 1-.915-1.1.922.922 0 0 1 1.264-.674.924.924 0 0 1 .002 1.705.918.918 0 0 1-.351.07zm0 3.054a.925.925 0 0 1-.915-1.098.922.922 0 0 1 1.26-.678.924.924 0 0 1 .572.853.914.914 0 0 1-.917.93V15.6z" /></svg>
