<svg xmlns="http://www.w3.org/2000/svg" width="20" height="20" viewBox="0 0 20 20"><path fill-rule="evenodd" d="M20 20H0V8.235h20V20zM7.716 14.082c-.519-.376-.835-.94-.835-1.753C6.881 10.612 8.28 10 10 10c1.721 0 3.119.67 3.119 2.33 0 .846-.304 1.411-.803 1.764.873.482 1.434 1.235 1.434 2.082 0 1.46-1.68 2.648-3.75 2.648-2.07 0-3.75-1.189-3.75-2.648 0-.847.575-1.611 1.466-2.094zM10 14.66c.69 0 1.25.317 1.25 1.494 0 1.165-.56 1.494-1.25 1.494s-1.25-.33-1.25-1.494c0-1.165.56-1.494 1.25-1.494zm0-3.53c.521 0 .944.26.944 1.2 0 .942-.423 1.2-.944 1.2-.521 0-.944-.258-.944-1.2 0-.929.423-1.2.944-1.2zm10-4.07H0V5.647c0-1.494 1.055-2.753 2.5-3.153V3.53c0 1.295 1.12 2.353 2.5 2.353S7.5 4.824 7.5 3.53V2.353h5v1.176c0 1.295 1.12 2.353 2.5 2.353s2.5-1.058 2.5-2.353V2.494c1.445.4 2.5 1.659 2.5 3.153V7.06zM6.25 1.176C6.25.53 5.69 0 5 0S3.75.53 3.75 1.176V3.53c0 .647.56 1.177 1.25 1.177s1.25-.53 1.25-1.177V1.176zm10 0C16.25.53 15.69 0 15 0s-1.25.53-1.25 1.176V3.53c0 .647.56 1.177 1.25 1.177s1.25-.53 1.25-1.177V1.176z"/></svg>