<svg xmlns="http://www.w3.org/2000/svg" width="20" height="20" viewBox="0 0 20 20"><path fill-rule="evenodd" d="M20 20H0V8.235h20V20zm-7.5-8.518V9.894h-5v4.224h1.561c.672.023 2.189.117 2.189 1.176 0 1.353-.986 1.659-3.75 1.659v1.318s6.496 1.235 5.741-3.671c0 0-.301-2.012-3.817-1.659v-1.459H12.5zM20 7.06H0V5.647c0-1.494 1.055-2.753 2.5-3.153V3.53c0 1.295 1.12 2.353 2.5 2.353S7.5 4.824 7.5 3.53V2.353h5v1.176c0 1.295 1.12 2.353 2.5 2.353s2.5-1.058 2.5-2.353V2.494c1.445.4 2.5 1.659 2.5 3.153V7.06zM6.25 1.176C6.25.53 5.69 0 5 0S3.75.53 3.75 1.176V3.53c0 .647.56 1.177 1.25 1.177s1.25-.53 1.25-1.177V1.176zm10 0C16.25.53 15.69 0 15 0s-1.25.53-1.25 1.176V3.53c0 .647.56 1.177 1.25 1.177s1.25-.53 1.25-1.177V1.176z"/></svg>