<svg height="20" viewBox="0 0 17 20" width="17" xmlns="http://www.w3.org/2000/svg"><path d="m6.968 11.368h2.064a62.823 62.823 0 0 0 3.88-.143l-.026-.123-.032-.122a6.454 6.454 0 0 0 -1.154-2.29l-.016-.021c-.678-.1-1.36-.18-2.042-.244a24.361 24.361 0 0 0 -.937-.069c-.233-.013-.467-.02-.701-.02-.209 0-.415.008-.622.018-.284.014-.566.034-.849.058-.734.066-1.466.151-2.195.255l-.02.003a6.14 6.14 0 0 0 -.86 1.428c-.144.323-.258.66-.342 1.003l-.01.04-.016.083c1.441.106 2.925.135 3.879.143zm7.862-.048c.065.05.128.105.186.164.237.244.399.552.48.881.033.13.055.264.059.397v5.682a.556.556 0 0 1 -.556.556h-1.111a.556.556 0 0 1 -.556-.556v-1.666h-10.665v1.666a.556.556 0 0 1 -.556.556h-1.11a.556.556 0 0 1 -.556-.556v-5.7c.014-.224.064-.443.146-.651.115-.29.302-.547.543-.746l.035-.027-1.169-.102.114-1.292 1.923.165a7.843 7.843 0 0 1 1.452-2.571l.033-.037.034-.038c.87-.139 1.743-.252 2.62-.338a20.238 20.238 0 0 1 1.824-.107c.235-.001.471.007.707.019.373.018.747.048 1.12.083.875.084 1.748.2 2.617.342.055.062.11.125.162.189a7.942 7.942 0 0 1 1.348 2.425l1.937-.162.109 1.322zm-4.102 2.821 3.542-.337-.128-1.304-3.542.337c.035.369.093.935.128 1.304zm-5.459.003c.035-.369.096-.938.13-1.307l-3.542-.337-.13 1.307zm10.731-11.353-1.393-1.284h-6.54c-.561-.9-1.611-1.509-2.815-1.507-1.794-.004-3.248 1.34-3.252 2.995.004 1.66 1.458 3.002 3.253 3.005 1.202-.002 2.249-.608 2.809-1.507h1.316l1.042-.953.797.729.766-.7.786.719.798-.73.797.73 1.636-1.498zm-12.172.96a.908.908 0 0 1 -.61-.236.76.76 0 0 1 -.003-1.126.9.9 0 0 1 .613-.233c.472-.003.858.355.861.797-.002.436-.384.79-.86.798z"/></svg>