<svg xmlns="http://www.w3.org/2000/svg" width="18" height="14" viewBox="0 0 18 14"><path fill-rule="evenodd" d="M12.24 9.863a17.46 17.46 0 0 1-.638.209 7.521 7.521 0 0 1-.472.13 2.335 2.335 0 0 1-.35.062c-.086.006-.171 0-.256-.003a8.264 8.264 0 0 1-.589-.05c-.528-.06-1.05-.153-1.57-.254-.165-.034-.328-.067-.491-.103-.077-.017-.152-.035-.229-.05a.513.513 0 0 0-.243.03.467.467 0 0 0-.225.68c.06.095.15.158.255.197l.04.01a25.21 25.21 0 0 0 1.678.325c.523.082 1.05.147 1.58.153.042 0 .042 0 .083-.002.325-.022.644-.109.956-.2.462-.136.917-.297 1.368-.465a62.262 62.262 0 0 0 2.8-1.132c.453-.196.93-.156 1.116-.067.635.31.868.712.929 1.402-.3.192-4.344 2.75-7.522 3.258l-.04.007c-1.424 0-4.342-1.075-6.113-1.785.291-1.652.61-3.3.866-4.957 1.955.364 5.379 1 6.194 1.142.195.034.374.077.539.13.263.093.57.248.627.67.06.46-.298.663-.298.663h.003zM0 5.6v7h3.28l1.045-6.067S3.126 6.06 0 5.6zm13.737.933C9.47 5.477 9.474 2.177 9.474 2.177S9.468 0 11.605 0c2.135 0 2.132 2.172 2.132 2.177 0-.005-.003-2.177 2.131-2.177C18.006 0 18 2.177 18 2.177s.004 3.3-4.263 4.356z"/></svg>