<svg xmlns="http://www.w3.org/2000/svg" xmlns:xlink="http://www.w3.org/1999/xlink" width="20" height="16" viewBox="0 0 20 16"><defs><path id="children-a" d="M311.68 450.745v-2.304l-.617-.078-.201 1.128c-.145.528-.644.782-1.183.64-.539-.14-.783-.623-.638-1.152l.439-1.653c.115-.436.518-.741.979-.741h4.693l2.616 1.348c.166.085.27.254.27.438l.003 1.674c0 .547-.453.992-1.011.992a1.002 1.002 0 0 1-1.011-.992l.143-.981-.942-.423v2.822l.517 2.571v2.974c0 .548-.453.992-1.011.992a1.002 1.002 0 0 1-1.011-.992v-2.735l-.452-2.276-1.327 1.302.478 1.753a.99.99 0 0 1-.715 1.215 1.014 1.014 0 0 1-1.239-.701l-.78-2.86 2-1.96zm12.136-4.16h3.747c.454 0 .851.295.973.724l.43 1.498a.99.99 0 0 1-.716 1.213 1.014 1.014 0 0 1-1.239-.7l-.12-.938-1.061.078 2.032 4.57-1.012.07v3.908c0 .548-.453.992-1.01.992-.56 0-1.012-.444-1.012-.992v-3.766l-1.012.071v3.695c0 .548-.453.992-1.011.992a1.002 1.002 0 0 1-1.011-.992v-3.553l-1.012.07 1.1-4.885-1.298.247.005.656c0 .547-.453.992-1.011.992a1.003 1.003 0 0 1-1.012-.992l.04-1.247a.993.993 0 0 1 .75-.927l2.985-.784h1.475zm-1.504-2.937c.106-.859.853-1.525 1.757-1.525.904 0 1.652.666 1.757 1.526.355.393.709.457.709.457-.24.605-.694.702-.981.696a1.778 1.778 0 0 1-1.485.791 1.778 1.778 0 0 1-1.485-.791c-.287.006-.74-.09-.982-.696 0 0 .355-.064.71-.458zm-8-1.305l1.242-.326c.27-.07.547.086.62.35a.497.497 0 0 1-.358.608l-.741.195a1.7 1.7 0 0 1 .145.688c0 .958-.793 1.735-1.77 1.735s-1.77-.777-1.77-1.735c0-.958.793-1.735 1.77-1.735.313 0 .607.08.862.22z"/></defs><use xlink:href="#children-a" fill-rule="evenodd" transform="translate(-309 -442)"/></svg>
