<svg xmlns="http://www.w3.org/2000/svg" width="10" height="19" viewBox="0 0 10 19"><path fill-rule="evenodd" d="M6.49 1.5H3.5c-.002 0 0 .01 0 .01V7h3V1.51s.002-.01 0-.01h-.01zM8.5 17h-7A1.5 1.5 0 0 1 0 15.5v-7C0 7.67.672 7 1.5 7h.502V1.42c.01-.15.038-.29.089-.44.146-.39.464-.72.859-.88.152-.06.311-.09.473-.1h3.116c.175.01.347.04.511.1.396.16.713.49.859.88.056.16.084.32.09.48L7.998 7H8.5c.828 0 1.5.67 1.5 1.5v7A1.5 1.5 0 0 1 8.5 17zm-.25.5c.414 0 .75.34.75.75s-.336.75-.75.75a.752.752 0 0 1-.749-.75c0-.41.335-.75.749-.75zm-6.501 0c.414 0 .75.34.75.75s-.336.75-.75.75a.753.753 0 0 1-.75-.75.754.754 0 0 1 .75-.75zm5.604-5.595c.098.268.16.554.16.855a2.497 2.497 0 0 1-4.994 0c0-.302.062-.588.16-.855a1.18 1.18 0 1 1 1.482-1.482c.268-.098.554-.16.855-.16.302 0 .588.062.855.16a1.18 1.18 0 1 1 1.482 1.482z"/></svg>