<svg xmlns="http://www.w3.org/2000/svg" width="14" height="16" viewBox="0 0 14 16"><path fill-rule="evenodd" d="M3.272 9.42c.238.183.408.427.523.67.224.49.239.983.165 1.305-.03.165-.168.462-.232.525a3.4 3.4 0 0 1-.395.067c-.303.038-.745 0-1.204-.21a2.426 2.426 0 0 1-.66-.525c-.21-.226-.385-.509-.571-.813-.18-.3-.435-.64-.802-.757A.58.58 0 0 0 0 9.65l.016-.009a4.734 4.734 0 0 1 1.447-.582c.335-.057.668-.09.977-.017a2 2 0 0 1 .832.38m.418 6.18s.181-3.218.575-5.036c.094-.435.2-.872.303-1.288.076-.427.232-1.156.538-1.984.087-.303.145-.374.145-.374.324-.787.783-1.632 1.435-2.368 1.367-1.55 3.119-2.87 3.119-2.87s-1.618.444-3.568 2.491c-1.904 2-2.148 5.068-2.176 5.2-.008-.016-.013-.022-.025-.04a5.08 5.08 0 0 1-.543-.962c-.415-.853-.683-2.238-.327-3.78.186-.76.533-1.565 1.112-2.247A6.402 6.402 0 0 1 6.477.676c.86-.43 1.857-.578 2.87-.662a13.66 13.66 0 0 1 3.084.217c.513.09 1.02.212 1.518.357L14 .603c-.088.05-.178.095-.26.157-1.002.596-1.536 1.737-1.878 2.703-.35.99-.69 1.904-1.162 2.69-.462.772-1.02 1.483-1.604 1.95C7.88 9.027 6.61 9.454 5.7 9.566c-.319.05-.384.048-.624.06a42.832 42.832 0 0 0-.34 1.63C4.45 12.8 4.237 16 4.237 16l-.547-.4v.001z"/></svg>