<svg xmlns="http://www.w3.org/2000/svg" width="20" height="14" viewBox="0 0 20 14">
    <path fill-rule="nonzero" d="M20 14H0V0h20v14zM2.5 11h-1v1.5H3v-1h-.5V11zm3.625.5H4.5v1h1.625v-1zm3.125 0H7.625v1H9.25v-1zm3.125 0H10.75v1h1.625v-1zm3.125 0h-1.625v1H15.5v-1zm3-.5h-1v.5H17v1h1.5V11zM13 7a2 2 0 1 0 .001 4.001A2 2 0 0 0 13 7zm-5 3.5l6-7h-2l-6 7h2zm5-2.25a.75.75 0 1 1 0 1.5.75.75 0 0 1 0-1.5zm5.5-.5h-1V9.5h1V7.75zm-16 0h-1V9.5h1V7.75zM7 3a2 2 0 1 0 .001 4.001A2 2 0 0 0 7 3zm11.5 1.5h-1v1.75h1V4.5zm-16 0h-1v1.75h1V4.5zM7 4.25a.75.75 0 1 1 0 1.5.75.75 0 0 1 0-1.5zM18.5 1.5H17v1h.5V3h1V1.5zM3 1.5H1.5V3h1v-.5H3v-1zm3.125 0H4.5v1h1.625v-1zm3.125 0H7.625v1H9.25v-1zm3.125 0H10.75v1h1.625v-1zm3.125 0h-1.625v1H15.5v-1z"/>
</svg>
