<svg width="20" height="20" viewBox="0 0 20 20" xmlns="http://www.w3.org/2000/svg"><path d="M11.167 0L0 11.724 7.88 20 19.049 8.275V0h-7.881zM7.902 12.236c1.119 0 2.027.953 2.027 2.127 0 1.175-.908 2.128-2.027 2.128-1.118 0-2.026-.953-2.026-2.127 0-1.175.908-2.128 2.026-2.128zm0 1.33c-.42 0-.76.357-.76.797 0 .441.34.798.76.798s.76-.357.76-.797c0-.44-.34-.798-.76-.798zm-3.04-3.99l9.12 1.097-1.52 1.563-9.12-1.064 1.52-1.596zM8.915 5.32c1.119 0 2.027.954 2.027 2.128 0 1.175-.908 2.128-2.027 2.128-1.118 0-2.026-.953-2.026-2.128 0-1.174.908-2.128 2.026-2.128zm0 1.33c-.42 0-.76.358-.76.798 0 .44.34.798.76.798s.76-.357.76-.798c0-.44-.34-.798-.76-.798zm6.838-4.522c.7 0 1.268.596 1.268 1.33 0 .736-.568 1.333-1.268 1.333-.7 0-1.268-.597-1.268-1.332 0-.735.569-1.331 1.268-1.331z" /></svg>
