<svg width="18" height="16" viewBox="0 0 18 16" xmlns="http://www.w3.org/2000/svg"><path fill-rule="evenodd" clip-rule="evenodd" d="M8.284 11.972c0 .401.32.729.716.729a.724.724 0 0 0 .716-.73.723.723 0 0 0-.716-.728.722.722 0 0 0-.716.729zm4.612 3.433h.003c.16 0 .291.134.291.297 0 .165-.13.298-.291.298H5.104a.295.295 0 0 1-.29-.298c0-.163.13-.295.29-.297 1.559 0 1.753-1.587 1.753-1.587h4.286s.194 1.587 1.753 1.587zM16.589 0H1.41C.634 0 0 .646 0 1.438v10.347c0 .791.634 1.438 1.411 1.438H16.59c.776 0 1.411-.647 1.411-1.438V1.438C18 .646 17.365 0 16.589 0zM1.353 10.646h15.294V1.56H1.353v9.086z" /></svg>
