<svg width="12" height="20" viewBox="0 0 12 20" xmlns="http://www.w3.org/2000/svg"><path fill-rule="evenodd" clip-rule="evenodd" d="M11.484.293a.424.424 0 0 0-.534-.272L8.248.899a.424.424 0 0 0-.292.369l-.29 3.548H.776A.777.777 0 0 0 0 5.59l1.054 13.545c.01.418.354.756.775.756h7.465c.421 0 .765-.338.775-.756l1.053-13.511.002-.034a.777.777 0 0 0-.776-.775h-1.83l.262-3.197 2.432-.791a.424.424 0 0 0 .272-.535zM2.71 15.087l-.007.004c.186.025.34.21.426.338.087.131.17.252.27.349.097.095.21.17.312.225.18.097.49.106.758.061a.615.615 0 0 0 .11-.224.833.833 0 0 0-.326-.847 1 1 0 0 0-.394-.163 1.293 1.293 0 0 0-.463.007 2.274 2.274 0 0 0-.686.25zm4.31-3.814c-.434.034-.86.095-1.229.268a2.728 2.728 0 0 0-.941.676 2.176 2.176 0 0 0-.476.912c-.152.625-.038 1.187.14 1.533.052.105.092.171.113.204l.016.024c.262-.916.651-1.56 1.198-2.079.734-.696 1.375-.861 1.375-.861s-1.719 1.337-2.242 3.08c-.173.58-.344 1.49-.448 2.526.04.03.302.131.403.199.112-1.555.336-2.408.384-2.607.036.003.058.007.175 0 .39-.025.904-.22 1.425-.594.25-.19.488-.478.685-.79.203-.32.349-.69.499-1.092.145-.392.268-.741.915-1.16a6.895 6.895 0 0 0-.672-.151 6.199 6.199 0 0 0-1.32-.088zm.578-5.609H.855l.251 3.222h6.229l.263-3.222zm2.67 0H8.45l-.263 3.222h1.831l.251-3.222z" /></svg>
