<svg xmlns="http://www.w3.org/2000/svg" width="19" height="17" viewBox="0 0 19 17"><path d="M1.586 17c-.02-.609-.037-1.218-.058-1.826-.038-1.119-.079-2.237-.118-3.356-.001-.032.003-.064-.003-.095-.071-.312.026-.571.264-.788.023-.022.037-.053.06-.074.221-.195.258-.436.247-.716-.043-1.047-.063-2.095-.089-3.143a.235.235 0 0 0-.092-.192C1.25 6.338.704 5.862.16 5.388c-.166-.144-.207-.265-.1-.451.075-.13.184-.254.307-.343.187-.136.398-.121.58.024.264.213.522.434.773.661.28.255.549.523.828.78.044.04.119.074.178.073 1.9-.05 3.801-.105 5.701-.16.378-.01.756-.032 1.133-.03.304 0 .559-.1.761-.306.202-.207.384-.432.574-.65.039-.045.074-.094.117-.148l.097.08 3.15 2.8a.231.231 0 0 1 .09.182c.049 2.93.1 5.861.152 8.791v.16h-2.41v-5.408h-.144c-1.885 0-3.77 0-5.655-.002-.09 0-.15.025-.212.09-.784.819-1.571 1.636-2.355 2.455a.231.231 0 0 0-.062.143c.02.957.044 1.914.068 2.871H1.586zM19 4.889c-.033.027-.07.05-.1.08-.51.53-1.022 1.058-1.533 1.587-.265.275-.524.296-.83.07l-.822-.61-1 .984L11.5 4.153c.085-.098.16-.191.242-.277L15.375.117c.02-.02.035-.047.06-.059.05-.025.116-.07.153-.055.038.015.07.091.07.14 0 .454-.005.907-.015 1.36a.262.262 0 0 0 .089.216c.766.729 1.53 1.46 2.293 2.192.294.282.58.57.872.855.03.03.068.051.103.076v.047z" fill-rule="evenodd"/></svg>