<svg xmlns="http://www.w3.org/2000/svg" width="17" height="20" viewBox="0 0 17 20"><path fill-rule="evenodd" d="M10.63 1.657c-.202-.086-.439-.1-1.344-.1h-4.21c-.964 0-1.612.002-2.095.067-.461.062-.659.169-.79.3-.13.13-.237.327-.299.789-.065.483-.066 1.13-.066 2.094v10c0 .964.001 1.612.066 2.095.062.461.17.659.3.789s.328.238.79.3c.482.064 1.13.066 2.094.066H12c.964 0 1.612-.002 2.095-.066.461-.062.659-.17.789-.3s.237-.328.3-.79c.064-.482.066-1.13.066-2.094V7.62c0-.863-.013-1.09-.092-1.284-.08-.195-.228-.366-.83-.984l-1.165-1.196-1.53-1.597c-.626-.653-.8-.814-1.003-.9M9.41.057c.72 0 1.289-.001 1.809.22.52.223.914.634 1.41 1.153l.087.09 1.528 1.595 1.158 1.19.083.084c.48.491.859.88 1.063 1.381s.203 1.044.202 1.73v7.359c0 .899 0 1.648-.08 2.243-.084.627-.27 1.194-.726 1.65s-1.022.64-1.65.725c-.594.08-1.344.08-2.242.08H5.024c-.899 0-1.648 0-2.243-.08-.628-.084-1.194-.27-1.65-.725-.455-.456-.641-1.023-.725-1.65-.08-.595-.08-1.344-.08-2.243V4.755c0-.898 0-1.648.08-2.242.084-.628.27-1.195.725-1.65C1.587.407 2.153.22 2.781.137c.595-.08 1.344-.08 2.243-.08H9.41" clip-rule="evenodd"/><path fill-rule="evenodd" d="M5.25 6.75H11v1.5H6.75v2.25h3.75V12H6.75v2.25H11v1.5H5.25z" clip-rule="evenodd"/></svg>
