<svg height="15" viewBox="0 0 19 15" width="19" xmlns="http://www.w3.org/2000/svg"><path d="m14.091 15.83h-10.279a.812.812 0 0 1 -.812-.812v-9.206c0-.449.363-.812.812-.812h11.228c.449 0 .812.363.812.812v4.356l-.937.2a1.04 1.04 0 0 0 -.824 1.016zm-2.833-5.303c.09-.06.09-.17 0-.229l-2.452-1.593c-.12-.077-.298-.01-.298.114v3.186c0 .124.178.192.298.114zm3.872.857 6.247-1.325v7.387c0 .658-.72 1.191-1.606 1.191-.888 0-1.607-.533-1.607-1.192 0-.658.72-1.192 1.607-1.192.35 0 .673.084.937.225v-4.636l-4.906 1.04v5.62c0 .658-.72 1.192-1.607 1.192s-1.606-.534-1.606-1.192.72-1.192 1.606-1.192c.35 0 .674.084.938.225l-.003-6.15z" fill-rule="evenodd" transform="translate(-3 -5)"/></svg>