<svg width="24" height="19" viewBox="0 0 24 19" xmlns="http://www.w3.org/2000/svg"><path d="M21.167 1.744h-3.682c-.761-.005-1.741.306-2.323.887L11.75 6.042 8.607 9.117h.012L5.656 12.08c-.283.28-.317.292-.864.292H2.973c-1.82 0-2.914 1.64-2.918 3.03.004 1.389 1.098 3.144 3.086 3.143h3.222c.767.001 1.69-.29 2.458-1.01l9.45-9.417c.198-.183.31-.24.662-.235 0 0 1.299-.004 2.334 0 1.12-.004 2.71-1.278 2.705-3.109.005-1.82-1.597-3.031-2.805-3.03z"/><circle cx="10.706" cy="1.674" r="1.249"/><path d="M12.53 3.923H8.8l-.733 4.423 4.464-4.423z"/></svg>