<svg width="18" height="12" viewBox="0 0 18 12" xmlns="http://www.w3.org/2000/svg"><path fill-rule="evenodd" clip-rule="evenodd" d="M.797 10.775L1.077 12l5.534-1.225H.797zm16.421-9.571L16.944 0l-5.443 1.204h5.717zM9.556 9.247c-1.352 0-2.303-.855-2.66-2.133h-.83v-.773h.703c-.01-.108-.01-.226-.01-.343 0-.134 0-.278.019-.413h-.713V4.82h.86c.364-1.215 1.297-2.088 2.594-2.088 1.114 0 1.745.504 2.23 1.187l-.85.62c-.392-.53-.768-.817-1.407-.817-.649 0-1.152.422-1.407 1.098h1.964v.764H7.911c-.018.126-.018.26-.018.396 0 .126 0 .243.009.36h2.147v.773H8.075c.256.711.777 1.143 1.49 1.143.611 0 .978-.315 1.397-.864l.805.585c-.52.747-1.17 1.269-2.21 1.269zM0 10.097h18V1.883H0v8.214z"/></svg>
