<svg xmlns="http://www.w3.org/2000/svg" width="18" height="18" viewBox="0 0 18 18"><path d="M17.4 14.3c1.3-3.2.1-13.3 0-13.8h-.1V.4c-.1-.1-.4-.1-.5 0L5.5 11.7c-.7-.4-1.6-.4-2.2.2-.5.5-.6 1.3-.4 1.9L.2 16.5c-.2.2-.2.6 0 .9l.2.2c.2.2.6.2.9 0L4 14.9c.6.2 1.4.1 1.9-.4.3-.3.5-.7.5-1.1.5-.1.9-.3 1.4-.7.9-.7 1.3-1.9 1.4-3.4.6 0 1.9 0 2.9-.9.8-.7 1.3-1.8 1.4-3.2.6 0 1.8-.1 2.7-.9.5-.4.8-.9 1-1.5.3 3.2.7 9.1-.2 11.3-.1.1-.1.2-.1.2-.3.2-.6-.6-.6-.6s-.2.7.1 1c.1.1.3.2.5.2.1 0 .3-.2.5-.6zM6.3 12.7c0-.2-.1-.4-.2-.5l2.4-2.4c-.1 1-.5 1.8-1.1 2.3-.4.3-.8.5-1.1.6zm3.3-4.1l3.1-3.1c-.1 1-.5 1.8-1.1 2.3-.7.6-1.4.8-2 .8zm4.1-4.1l3.1-3.1c-.1 1-.5 1.8-1.1 2.3-.7.7-1.4.8-2 .8z"/></svg>