<svg xmlns="http://www.w3.org/2000/svg" width="15" height="19" viewBox="0 0 15 19"><path fill-rule="evenodd" d="M6.112 7.315C8.506 5.76 10.174 3.091 10.457 0c1.567 1.738 2.528 4.083 2.528 6.661 0 1.343-.261 2.622-.731 3.784a6.883 6.883 0 0 0 2.313-1.956c.28.826.433 1.715.433 2.64C15 15.474 11.639 19 7.5 19 3.361 19 0 15.473 0 11.13A8.13 8.13 0 0 1 1.057 7.1c.078.656.237 1.287.464 1.88.202-2.737 1.837-5.055 4.117-6.13A7.76 7.76 0 0 0 5.5 4.31c0 1.07.219 2.088.612 3.006zm-1.293 5.729a4.642 4.642 0 0 1-.003-.167c0-2.138 1.431-3.927 3.341-4.37a4.612 4.612 0 0 0-.627 2.335c0 .62.121 1.212.339 1.75a4.452 4.452 0 0 0 1.695-2.153c.435.702.688 1.539.688 2.438a4.67 4.67 0 0 1-.313 1.684 4.294 4.294 0 0 0 1.409-1.013c-.323 1.905-1.911 3.353-3.818 3.353-2.14 0-3.878-1.823-3.878-4.068 0-.65.146-1.264.404-1.808.093.747.363 1.435.763 2.019z"/></svg>