<svg width="18" height="17" viewBox="0 0 18 17" xmlns="http://www.w3.org/2000/svg"><path fill-rule="evenodd" clip-rule="evenodd" d="M18 13.523c0 .829-.785 1.613-1.751 1.751-.967.139-1.751-.422-1.751-1.25 0-.829.784-1.614 1.75-1.752.174-.025.342-.027.501-.009V7.842l-5.254 1.356v5.326c0 .829-.784 1.613-1.75 1.751-.968.138-1.752-.422-1.752-1.25 0-.83.784-1.614 1.751-1.752a1.96 1.96 0 0 1 .5-.009V7.519L18 5.517v8.006zM9.494 8.441l-1.397.36a4.254 4.254 0 0 1-7.952-.719 4.255 4.255 0 0 1 3.008-5.207L7.02 1.838 6.63.388 8.08 0l.39 1.45 3.383-.907.026-.007a4.255 4.255 0 0 1 5.317 4.414l-2.938.758a.751.751 0 0 0-1.424.367l-3.34.862v1.504zm-5.34-3.763l-1.208.324.356 1.329-1.329.356.324 1.209 1.329-.357.356 1.33 1.208-.324-.356-1.33 1.329-.356-.324-1.208-1.329.356-.356-1.329zm7.09-.605a.75.75 0 1 0 .39 1.45.75.75 0 0 0-.39-1.45zm3.384-.906a.751.751 0 1 0 .39 1.45.751.751 0 0 0-.39-1.45zm-1.226-.708a.75.75 0 1 0-1.45.39.75.75 0 0 0 1.45-.39z" /></svg>
