<svg width="18" height="15" viewBox="0 0 18 15" xmlns="http://www.w3.org/2000/svg"><path d="M9.225.003a7.632 7.632 0 0 1 5.204 2.242.781.781 0 0 1-.01 1.114.804.804 0 0 1-1.128-.01 6.03 6.03 0 0 0-4.113-1.772 6.03 6.03 0 0 0-3.865 1.241l.847.06a.54.54 0 0 1 .507.575.542.542 0 0 1-.544.502l-.037-.002h-.002L3.69 3.786a.547.547 0 0 1-.375-.185.535.535 0 0 1-.132-.39L3.353.85a.545.545 0 0 1 .583-.5c.302.02.529.279.507.576l-.043.6A7.625 7.625 0 0 1 9.225.003zM3.708 6.639a20.782 20.782 0 0 1 1.613.02c.302.02.674.2.686.445-.012.244-.384.425-.686.444-.398.028-.974.032-1.613.021L2.54 9.492h-.56l.436-1.96A62.635 62.635 0 0 1 .808 7.45v.006l-.356.576H0V6.176h.452l.356.576v.008a62.635 62.635 0 0 1 1.608-.084l-.436-1.96h.56l1.168 1.923zM14.9 12.075a.781.781 0 0 1-1.032-.373.76.76 0 0 1 .378-1.018.78.78 0 0 1 1.032.374c.181.383.012.84-.378 1.017zM2.653 11.448a.77.77 0 0 1 .705-.832.775.775 0 0 1 .844.695.77.77 0 0 1-.706.832.773.773 0 0 1-.843-.695zM5.442 12.83a.76.76 0 0 0-.236 1.06.784.784 0 0 0 1.073.233.761.761 0 0 0 .237-1.059.784.784 0 0 0-1.074-.233zM8.327 13.849a.762.762 0 0 0 .284 1.048.784.784 0 0 0 1.062-.28.763.763 0 0 0-.284-1.049.784.784 0 0 0-1.062.28zM11.363 13.443a.77.77 0 0 0 .742.8.773.773 0 0 0 .81-.732.77.77 0 0 0-.74-.8.773.773 0 0 0-.812.732zM17.313 6.66a20.774 20.774 0 0 0-1.612-.021l-1.169-1.924h-.56l.436 1.961c-.563.022-1.121.052-1.607.084v-.008l-.357-.576h-.451v1.855h.451l.357-.576v-.006c.486.032 1.044.06 1.607.083l-.435 1.96h.56L15.7 7.57c.64.011 1.215.007 1.612-.02.303-.02.674-.2.687-.445-.013-.245-.384-.424-.687-.445z"/></svg>
