<svg xmlns="http://www.w3.org/2000/svg" width="16" height="20" viewBox="0 0 16 20"><path fill-rule="evenodd" d="M4.796 8.814L6.66 5.52l4.616 2.717L4.616 20 0 17.283l.533-.94 2.77 1.63.532-.942-2.77-1.63.015-.023a1.38 1.38 0 0 1-.271-1.696l1.865-3.294c.323-.569.988-.81 1.576-.61l.013-.023 2.77 1.63.532-.941-2.77-1.63zm6.89-3.473l.922.543-.8 1.412-4.615-2.717.8-1.411.923.543.533-.941-1.385-.815a.55.55 0 0 1-.195-.742l.533-.941a.527.527 0 0 1 .728-.2l1.846 1.087a.55.55 0 0 1 .195.743L9.84 4.254l.923.544L13.16.563a.527.527 0 0 1 .728-.199l1.846 1.087a.55.55 0 0 1 .195.742l-.533.94a.527.527 0 0 1-.728.2l-1.384-.815-1.599 2.823z"/></svg>