<svg height="20" viewBox="0 0 11 20" width="11" xmlns="http://www.w3.org/2000/svg"><path d="m11 8.945v-2.219c0-.874-.74-1.579-1.65-1.579h-.55v-3.61a1.706 1.706 0 0 0 -.1-.507c-.16-.411-.51-.76-.944-.925a2.094 2.094 0 0 0 -.566-.105h-3.426a1.659 1.659 0 0 0 -.519.106 1.68 1.68 0 0 0 -.944.925 1.57 1.57 0 0 0 -.097.463v3.653h-.555c-.909 0-1.649.705-1.649 1.58v9.585c0 .875.74 1.579 1.65 1.579h7.696c.91 0 1.65-.704 1.65-1.579zm-7.147-7.365h3.299v3.568h-3.3v-3.56c0 .004-.004-.008 0-.008zm-1.924 16.84c.452 0 .824.357.824.79s-.372.789-.824.789c-.457 0-.825-.356-.825-.79 0-.432.368-.789.825-.789zm7.147 0c.456 0 .824.357.824.79s-.368.789-.824.789c-.452 0-.825-.356-.825-.79 0-.432.373-.789.825-.789z"/></svg>
