<svg width="13" height="18" viewBox="0 0 13 18" xmlns="http://www.w3.org/2000/svg"><path fill-rule="evenodd" clip-rule="evenodd" d="M.045 0h12.626v2.18c0 1.786-.62 3.523-1.708 4.381l-.004.003L8.1 8.788l-.006.004a.203.203 0 0 0-.023.043.609.609 0 0 0-.04.207.593.593 0 0 0 .025.205l2.309 1.776c1.466 1.09 2.26 3.384 2.26 5.7V18H0v-1.277c0-2.273.796-4.565 2.261-5.654L4.59 9.277a.24.24 0 0 0 .018-.04.63.63 0 0 0 .033-.21.562.562 0 0 0-.034-.202L1.761 6.613C.61 5.745.045 3.99.045 2.226V0Zm1.381 1.38v.846c0 1.575.518 2.798 1.169 3.286l.005.004L5.434 7.72c.47.33.587.918.587 1.308 0 .41-.127.984-.571 1.33l-.003.002-2.354 1.81-.005.004c-.954.707-1.682 2.43-1.707 4.445h9.864c-.024-2.062-.754-3.784-1.708-4.49l-.005-.004-2.35-1.808a1.313 1.313 0 0 1-.44-.642c-.072-.22-.1-.457-.092-.683.015-.409.162-.977.628-1.313l2.831-2.203c.629-.497 1.181-1.74 1.181-3.295v-.8H1.426Z" /><path d="m10.336 12.573-4.063-1.042-4.305 1.488-1.26 3.716H11.99l-1.653-4.162ZM10.232 5.976H2.454l3.434 3.258a.56.56 0 0 0 .237.133.69.69 0 0 0 .376 0 .56.56 0 0 0 .234-.131l3.497-3.26Z" /></svg>
