<svg xmlns="http://www.w3.org/2000/svg" width="18" height="12" viewBox="0 0 18 12"><path fill-rule="evenodd" d="M16.824 0H1.176C.526 0 0 .53 0 1.183v9.634A1.18 1.18 0 0 0 1.176 12h15.648c.65 0 1.176-.53 1.176-1.183V1.183A1.18 1.18 0 0 0 16.824 0zm-4.525 1.982a2.32 2.32 0 0 1 2.313 2.326A2.32 2.32 0 0 1 12.3 6.634a2.321 2.321 0 0 1-2.314-2.326A2.321 2.321 0 0 1 12.3 1.982zm-5.237 6.03H2.238V7.008h4.824v1.006zm.115-2.519H2.24V4.487h4.94v1.006h-.002zm1.32-2.51H2.238V1.975h6.257v1.006zm.106 7.056l.416-1.563c.078-.35.338-.588.634-.588h5.275c.308 0 .579.252.66.613l.432 1.538H8.603z"/></svg>