<svg xmlns="http://www.w3.org/2000/svg" width="16" height="18" viewBox="0 0 16 18"><path fill-rule="evenodd" d="M8 0l.542.46.145.117a17.623 17.623 0 0 0 2.014 1.369c1.334.773 2.643 1.286 3.831 1.423.21.026.414.037.613.037H16v.886c0 5.347-1.43 9.079-3.842 11.431a8.95 8.95 0 0 1-2.714 1.839c-.57.246-1.027.371-1.316.416L8 18l-.189-.032a5.976 5.976 0 0 1-1.256-.406c-.929-.4-1.854-1-2.714-1.839C1.43 13.371 0 9.64 0 4.293v-.887h.855c.199 0 .404-.011.614-.037 1.187-.138 2.496-.651 3.829-1.423.566-.329 1.095-.68 1.574-1.032l.097-.072.182-.137.161-.128c.038-.03.07-.054.093-.074L8 0zm.254 4.722c-.14-.296-.368-.296-.508 0l-.814 1.73c-.14.297-.51.579-.823.627l-1.82.277c-.312.048-.383.276-.157.506L5.45 9.21c.226.232.367.687.314 1.014l-.31 1.902c-.055.325.13.466.41.311l1.628-.896c.28-.154.737-.154 1.016 0l1.628.896c.28.155.465.014.412-.311l-.312-1.902c-.053-.327.09-.782.314-1.014l1.317-1.347c.227-.23.156-.458-.156-.506L9.89 7.08c-.313-.048-.683-.33-.824-.627z"/></svg>
