<svg height="20" viewBox="0 0 20 20" width="20" xmlns="http://www.w3.org/2000/svg"><path d="m5.426 12.632-1.24-6.295c-.084-.421.01-.863.257-1.21a1.574 1.574 0 0 1 1.049-.643l.516-.063a1.52 1.52 0 0 1 1.715 1.305l.677 4.8h3.301a1.02 1.02 0 0 1 1.012 1.021v7.4c0 .58-.466 1.053-1.04 1.053a1.05 1.05 0 0 1 -1.042-1.032v-6.336zm8.328.726 2.306 4.031a1.065 1.065 0 0 1 -.381 1.443 1.04 1.04 0 0 1 -1.422-.39l-.503-.874zm-12.503-11.253c.279 0 .547.116.744.316s.308.463.308.747v3.148l2.082 7.368h4.396c.317 0 .616.148.811.4.197.253.268.58.193.884l-.098.421a.528.528 0 0 1 -.509.4h-6.428a.563.563 0 0 1 -.55-.442c-.42-1.79-1.978-8.463-1.978-8.463l-.222-4.21a.538.538 0 0 1 .534-.569h.716zm4.175-2.105a1.57 1.57 0 0 1 1.562 1.579c0 .874-.7 1.579-1.562 1.579a1.57 1.57 0 0 1 -1.561-1.579c0-.874.7-1.579 1.561-1.579zm5.941 6.316 2.603-2.632 1.346 1.238 1.346-1.238 2.602 2.632zm1.831-3.34-2.567 2.596v-4.956zm6.802-2.36v4.956l-2.567-2.596zm-4.684 2.883-3.807-3.499h7.613z"/></svg>