<svg xmlns="http://www.w3.org/2000/svg" width="16" height="19" viewBox="0 0 16 19">
    <path fill-rule="evenodd" d="M6.245 12.826c-.29-.518-.572-1.04-.847-1.568v1.158c.247 1.89.536 3.774.73 5.664.013.054.02.11.02.167 0 .4-.333.723-.743.723a.736.736 0 0 1-.735-.63c-.237-1.713-.497-3.428-.69-5.15h-.148c-.187 1.671-.437 3.335-.655 4.999a.733.733 0 0 1-.74.781.733.733 0 0 1-.74-.766c.19-1.932.488-3.857.74-5.788V11.25c-.264.509-.535 1.01-.806 1.51a.743.743 0 0 1-.678.429.733.733 0 0 1-.742-.723c0-.103.022-.2.06-.288a92.65 92.65 0 0 1 2.07-4.046H5.5a87.388 87.388 0 0 1 2.009 3.936c.077.114.122.25.122.398a.733.733 0 0 1-.742.723.745.745 0 0 1-.645-.364zM3.921 7.402c-.614 0-1.113-.485-1.113-1.085 0-.599.499-1.085 1.113-1.085.615 0 1.113.486 1.113 1.085 0 .6-.498 1.085-1.113 1.085zm10.595 1.026l.02-6.48H9.961v6.48h4.555zm-2.305 3.011l1.045-1.15h-3.46l-1.085 1.15h3.5zM8.711.487h7.175v8.448c0 .307-.11.599-.315.833l-1.545 2.065a1.253 1.253 0 0 0-.315.834v5.315H7.126c-.005-.015-.005-.034-.01-.049-.13-1.272-.305-2.548-.475-3.785.08.01.165.015.25.015.96 0 1.74-.76 1.74-1.696 0-.302-.08-.599-.24-.862-.19-.395-.385-.794-.585-1.19l.595-.628c.2-.234.31-.53.31-.833V.487z"/>
</svg>
