<svg xmlns="http://www.w3.org/2000/svg" width="18" height="18" viewBox="0 0 18 18">
    <path fill-rule="nonzero" d="M8.082 5.812c.203.002.405.02.605.054.077.011.153.024.228.04l.06.01a4.255 4.255 0 0 1 2.005 1.077c.219.22.405.47.553.741L10.064 9.19a2.185 2.185 0 0 0-2.039-1.365h-.033c-.08.004-.159.013-.237.026l-.178.029-.175.042-.032.01a2.23 2.23 0 0 0-.302.114c-.038.019-.074.041-.112.062a2.104 2.104 0 0 0-.208.122c-.109.075-.21.16-.303.252l-.606.614-3.195 3.24c-.832.86-.805 2.22.06 3.047a2.225 2.225 0 0 0 3.097-.03l2.393-2.425a5.315 5.315 0 0 0 1.74.308h.087c.27-.01.54-.04.805-.09l-3.56 3.609a4.29 4.29 0 0 1-5.98.065 4.132 4.132 0 0 1-.107-5.886L4.98 7.08a4.22 4.22 0 0 1 1.561-.99c.158-.06.319-.11.482-.151.083-.02.167-.035.251-.05a4.022 4.022 0 0 1 .808-.077zM14.786.125a4.213 4.213 0 0 1 3.056 2.922 4.132 4.132 0 0 1-1.062 4.061l-3.801 3.854a4.22 4.22 0 0 1-1.56.99c-.159.06-.32.11-.483.151-.083.02-.167.035-.252.05-.226.045-.456.07-.687.076h-.064a3.897 3.897 0 0 1-.637-.06 4.223 4.223 0 0 1-2.317-1.12 3.785 3.785 0 0 1-.522-.629l1.438-1.567c.139.27.31.522.508.753.415.406.98.627 1.565.612l.119-.01.118-.016a2.34 2.34 0 0 0 .352-.071l.032-.01c.104-.03.204-.069.302-.114.039-.019.075-.04.112-.062.072-.036.142-.077.209-.122.108-.075.21-.16.302-.252l.606-.615 3.196-3.239c.615-.624.792-1.55.448-2.352a2.201 2.201 0 0 0-2.026-1.323h-.033a2.2 2.2 0 0 0-1.546.656L9.77 5.11a5.12 5.12 0 0 0-1.688-.304l-.15.002c-.268.01-.535.039-.799.089l3.56-3.61A4.287 4.287 0 0 1 14.786.126z"/>
</svg>
