<svg xmlns="http://www.w3.org/2000/svg" width="16" height="20" viewBox="0 0 16 20"><path d="M8.654 13.85a1.5 1.5 0 1 0-1.308 0L6.25 17h3.5l-1.096-3.15zm-6.52-5.317V4.632a4.542 4.542 0 0 1 .3-1.55C2.937 1.78 4.06.727 5.443.265A5.3 5.3 0 0 1 7.023 0l2.083.004a5.246 5.246 0 0 1 1.621.32c1.287.481 2.327 1.48 2.82 2.704.19.475.294.975.317 1.481l.002 4.024H16V20H0V8.533h2.135zm8.73-3.937a1.505 1.505 0 0 0-.1-.448c-.175-.434-.581-.824-1.09-1.014a2.222 2.222 0 0 0-.645-.13l-1.951-.005c-.25.005-.48.043-.684.11-.544.183-.984.595-1.165 1.06a1.478 1.478 0 0 0-.096.461l.002 3.87h5.73V4.596z"/></svg>