<svg xmlns="http://www.w3.org/2000/svg" width="20" height="15" viewBox="0 0 20 15">
    <path fill-rule="nonzero" d="M16.574 4.615l.339.041c.274.041.52.19.682.416.16.226.22.507.17.78-.298 1.497-.811 4.06-.811 4.06h-3.395v4.103H12.2V9.231a.667.667 0 0 1 .662-.662h2.153c.113-.825.308-2.184.441-3.107a.995.995 0 0 1 1.118-.847zM4.97 5.462c.16.923.328 2.282.446 3.092h2.15c.362.011.649.313.64.677v4.774H6.846V9.903H3.472s-.513-2.565-.81-4.062a1.026 1.026 0 0 1 .856-1.185l.333-.04a.995.995 0 0 1 1.118.846zm-3.046.733l.872 4.4H5.64a.677.677 0 0 1 .656.826c-.025.097-.046.19-.066.271a.344.344 0 0 1-.334.257H1.728a.37.37 0 0 1-.359-.282c-.225-.96-.713-4.19-.856-5.257a.364.364 0 0 1 .302-.405l.682-.113c.2-.03.39.103.426.303zm17.005-.303l.677.113c.196.03.332.21.308.405-.139 1.067-.626 4.298-.857 5.257a.359.359 0 0 1-.359.282h-4.19a.344.344 0 0 1-.333-.257c0-.082-.04-.174-.061-.271a.667.667 0 0 1 .636-.826h2.866l.877-4.4a.364.364 0 0 1 .436-.303zM9.113 3.108l.6 1.446.256-.846-.21-.6h.949l-.21.6.261.846.595-1.446h.8l1.41 4.615-6.543-.015 1.282-4.6h.81zM3.472 1.764a1.02 1.02 0 1 1 0 2.041 1.02 1.02 0 0 1 0-2.04zm13.482 0a1.02 1.02 0 1 1 0 2.041 1.02 1.02 0 0 1 0-2.04zM10.236 0c.586 0 1.061.47 1.061 1.051 0 .58-.475 1.052-1.061 1.052S9.174 1.632 9.174 1.05C9.174.471 9.65 0 10.236 0z"/>
</svg>
