<svg height="20" viewBox="0 0 11 20" width="11" xmlns="http://www.w3.org/2000/svg"><path d="m8.945 11.055-.013.003c-.418-.758-.836-1.516-1.243-2.285v1.685c.366 2.752.795 5.494 1.081 8.245.02.078.03.16.03.244 0 .581-.492 1.053-1.1 1.053-.56 0-1.02-.4-1.09-.916h-.021c-.33-2.496-.715-4.992-1.001-7.499h-.22c-.278 2.432-.648 4.855-.972 7.277a.794.794 0 0 1 .004.085c0 .581-.492 1.053-1.1 1.053s-1.1-.472-1.1-1.053c0-.021 0-.042.002-.063h-.002c.286-2.812.726-5.614 1.1-8.426v-1.695c-.392.74-.793 1.47-1.196 2.199a1.103 1.103 0 0 1 -1.004.623c-.608 0-1.1-.471-1.1-1.053 0-.15.032-.291.09-.42l-.002-.001a137.01 137.01 0 0 1 3.069-5.888h4.686a125.753 125.753 0 0 1 2.977 5.73c.114.167.18.365.18.579 0 .582-.492 1.053-1.1 1.053-.409 0-.765-.213-.955-.53zm-3.445-7.895c-.911 0-1.65-.708-1.65-1.58 0-.873.739-1.58 1.65-1.58s1.65.707 1.65 1.58c0 .872-.739 1.58-1.65 1.58z"/></svg>