<svg height="13" viewBox="0 0 21 13" width="21" xmlns="http://www.w3.org/2000/svg"><path d="m15.129 10.38c.028.354.124.69.274.995h-14.56a.842.842 0 0 1 -.843-.836v-9.703c0-.462.386-.836.842-.836h16.796c.465 0 .842.378.842.836v6.505a3.064 3.064 0 0 0 -.42-.029 2.974 2.974 0 0 0 -.58.056v-5.768a.605.605 0 0 0 -.606-.6h-15.268a.596.596 0 0 0 -.606.601v8.178c0 .33.271.601.606.601h13.524z"/><path d="m3.64 7.438v-2.375h.04l.905 2.17h.494l.904-2.17h.039v2.375h.689v-3.553h-.874l-.984 2.387h-.044l-.982-2.387h-.877v3.551h.689zm3.866 0h.716v-2.715h-.716zm.36-3.094c.255 0 .422-.15.422-.362 0-.214-.167-.361-.423-.361-.258 0-.423.147-.423.361 0 .212.165.362.423.362zm1.104 3.093h.716v-3.75h-.716zm2.633-2.224c.335 0 .552.224.566.583h-1.156c.024-.352.258-.583.59-.583zm.581 1.452c-.076.18-.27.28-.554.28-.374 0-.61-.25-.62-.654v-.037h1.863v-.22c0-.86-.472-1.37-1.272-1.37-.807 0-1.304.546-1.304 1.43 0 .88.487 1.403 1.314 1.403.664 0 1.132-.32 1.24-.832zm1.213-1.145c0 .419.256.67.783.785l.492.111c.239.052.342.133.342.266 0 .175-.192.29-.47.29-.285 0-.46-.105-.514-.29h-.7c.05.522.483.815 1.2.815.71 0 1.195-.355 1.195-.896 0-.406-.236-.628-.762-.743l-.51-.111c-.25-.057-.367-.138-.367-.27 0-.173.19-.289.446-.289.266 0 .43.108.467.283h.662c-.039-.519-.445-.807-1.134-.807-.677 0-1.13.342-1.13.856zm4.663 7.48c-1.624 0-2.94-1.273-2.94-2.844 0-1.57 1.316-2.844 2.94-2.844s2.94 1.274 2.94 2.844-1.316 2.844-2.94 2.844zm.298-2.557h.965v-.583h-.965v-.922h-.595v.922h-.963v.583h.963v.924h.595z"/></svg>