<svg width="21" height="17" viewBox="0 0 21 17" xmlns="http://www.w3.org/2000/svg"><path fill-rule="evenodd" clip-rule="evenodd" d="M17.713 16.57H16.19v-1.428h1.524v1.429zm-2.666 0h-1.524v-1.428h1.524v1.429zm-2.667 0h-1.524v-1.428h1.524v1.429zm-2.666 0H8.19v-1.428h1.524v1.429zm-2.667 0H5.523v-1.428h1.524v1.429zm-2.666 0H2.857v-1.428H4.38v1.429zm16.167-1.706a1.94 1.94 0 0 1-.116.44c-.208.528-.641.951-1.174 1.146a1.97 1.97 0 0 1-.402.1v-1.484a.575.575 0 0 0 .205-.202h1.487zm-20.526 0H1.51c.05.083.12.153.205.202v1.483a1.971 1.971 0 0 1-.402-.099 2.017 2.017 0 0 1-1.174-1.146 1.942 1.942 0 0 1-.116-.44zM1.43 13.72H0v-1.714h1.43v1.714zm19.141 0h-1.429v-1.714h1.429v1.714zM1.43 10.864H0V9.15h1.43v1.714zm19.14 0h-1.429V9.15h1.429v1.714zM1.43 8.007H0V6.292h1.43v1.715zm19.14 0h-1.429V6.292h1.429v1.715zm0-2.857h-1.43v-.317a.566.566 0 0 0-.284-.464V2.886c.153.021.303.06.448.117.527.207.95.64 1.145 1.174.075.204.112.418.121.636v.337zm-19.14 0H0v-.338c.01-.234.052-.463.138-.681.208-.528.641-.951 1.174-1.146.13-.047.265-.08.402-.1V4.37a.578.578 0 0 0-.252.298 1.05 1.05 0 0 0-.033.166v.317zm16.284-2.285v1.428H16.19V2.865h1.523zm-4.19 0H12.38v-.001h2.667v1.429h-1.524V2.865zm-1.144 0v1.428h-1.524V2.865h1.524zm-4.19 0H7.047v-.001h2.667v1.429H8.19V2.865zm-1.143 0v1.428H5.523V2.865h1.524zm-2.666 0v1.428H2.857V2.865H4.38zM11.999 0h.573c.63 0 1.142.511 1.142 1.141v1.152h-1.429v-.868h-.286V0zM8.571 0v1.425h-.286v.868H6.856V1.14C6.856.511 7.368 0 7.998 0h.573zm2.285 1.425H9.714V0h1.142v1.425z" /></svg>
