<svg height="20" viewBox="0 0 16 20" width="16" xmlns="http://www.w3.org/2000/svg"><path d="m6.357 16.677-3.762-2.172-.543.942 3.762 2.172zm.835-5.789a1.363 1.363 0 0 1 -1.362 2.36 1.363 1.363 0 0 1 1.362-2.36zm1.772-1.473c1.073.966 1.44 2.427.796 3.541-.151.262-.346.485-.576.667a2.815 2.815 0 0 0 -.784 2.247c.126.798 0 1.613-.415 2.332-1.058 1.834-3.604 2.35-5.68 1.152-2.078-1.199-2.903-3.662-1.845-5.496a3.523 3.523 0 0 1 1.812-1.525 2.776 2.776 0 0 0 1.554-1.803c.044-.293.142-.575.29-.832.643-1.114 2.092-1.527 3.466-1.081l3.262-5.651-.25-.145 1.631-2.821 1.88 1.086-1.629 2.822-.25-.145z" fill-rule="evenodd"/></svg>