<svg width="16" height="16" viewBox="0 0 16 16" xmlns="http://www.w3.org/2000/svg"><path fill-rule="evenodd" clip-rule="evenodd" d="M15.499 6.435V1.564C15.499.7 14.792 0 13.919 0c-.873 0-1.58.7-1.58 1.564v4.871h-.016v1.112A1.952 1.952 0 0 0 11.56 6.5L2.953.378C2.599.127 2.238 0 1.885 0 1.217 0 .5.508.5 1.626v12.747C.5 15.491 1.218 16 1.885 16c.353 0 .714-.127 1.07-.38L11.559 9.5c.388-.275.65-.641.765-1.046v1.112h.015v4.87c0 .865.708 1.565 1.581 1.565s1.58-.7 1.58-1.565v-4.87h.001v-3.13h-.001z" /></svg>
