<svg width="10" height="18" viewBox="0 0 10 18" xmlns="http://www.w3.org/2000/svg"><path d="M8.426 3.718v-2.44h.073a.633.633 0 0 0 .636-.64A.612.612 0 0 0 8.5 0H1.536A.633.633 0 0 0 .9.639c0 .374.263.638.636.638h.073v2.441C.673 4.17 0 5.11 0 6.236v5.899h9.999V6.236c.036-1.09-.637-2.066-1.573-2.518ZM6.129 9.936a.342.342 0 0 1-.34.341.34.34 0 0 1-.285-.154l-1.05-1.615c-.01-.018-.04-.026-.058-.01a.045.045 0 0 0-.018.036v1.475a.274.274 0 1 1-.549 0V7.745c0-.187.154-.342.34-.342.113 0 .223.06.285.155l1.05 1.622c.01.018.04.026.058.01a.045.045 0 0 0 .019-.036V7.675a.274.274 0 1 1 .548 0v2.261Zm1.324-6.482H5.581v-.79h.413c.15 0 .263-.113.263-.263a.258.258 0 0 0-.263-.265H4.085a.258.258 0 0 0-.263.265c0 .15.113.264.263.264h.373v.789H2.622V1.277h4.831v2.177ZM0 14.469c0 1.164.713 2.144 1.686 2.555v.488c0 .264.223.488.486.488H7.79a.494.494 0 0 0 .486-.488v-.488c1.01-.415 1.686-1.428 1.686-2.555v-1.464H0v1.464Z"/></svg>
