<svg xmlns="http://www.w3.org/2000/svg" width="24" height="24" viewBox="0 0 24 24"><path d="M17.67 22.46 14 12.91l-2.98 2.98v4.41l-2.16 2.16-2.03-5.29-5.29-2.03 2.16-2.16h4.41L11.09 10 1.54 6.33l2.19-2.19 11.75 1.47 2.76-2.76c.31-.31 1.13-.91 1.99-.91.49 0 .93.19 1.28.54.35.35.54.8.54 1.28 0 .86-.59 1.68-.91 2l-2.76 2.76 1.47 11.75-2.19 2.19h.01Zm-14.33-7.7L7.6 16.4l1.64 4.26.78-.78v-4.41l4.36-4.36 3.67 9.55.75-.75-1.47-11.75 3.11-3.11c.2-.2.61-.78.61-1.29 0-.22-.08-.41-.25-.58a.773.773 0 0 0-.58-.25c-.51 0-1.09.41-1.29.61l-3.11 3.11L4.07 5.18l-.75.75 9.55 3.67-4.36 4.36H4.1l-.78.78.02.02Z"/></svg>
