<svg xmlns="http://www.w3.org/2000/svg" width="24" height="24" viewBox="0 0 24 24"><path d="M14 2c0 1.1-.9 2-2 2s-2-.9-2-2H4v20h6c0-1.1.9-2 2-2s2 .9 2 2h6V2h-6Zm5 19h-4.17a3.004 3.004 0 0 0-5.66 0H5V3h4.17a3.004 3.004 0 0 0 5.66 0H19v18Z"/><path d="m7.05 10.06.71.71a5.905 5.905 0 0 1 4.23-1.76c1.6 0 3.11.63 4.23 1.76l.71-.71A6.91 6.91 0 0 0 11.98 8c-1.88 0-3.63.73-4.95 2.06h.02ZM9.17 12.18l.71.7c1.12-1.14 3.11-1.14 4.23 0l.71-.7A3.938 3.938 0 0 0 11.99 11c-1.08 0-2.08.42-2.83 1.18h.01ZM12 16a1 1 0 1 0 0-2 1 1 0 0 0 0 2Z"/></svg>
