<svg xmlns="http://www.w3.org/2000/svg" width="24" height="24" viewBox="0 0 24 24"><path d="M20.84 9.16A12.42 12.42 0 0 0 12 5.5c-3.34 0-6.47 1.3-8.84 3.66l-.71-.71C5 5.9 8.39 4.49 11.99 4.49c3.6 0 6.99 1.41 9.54 3.96l-.71.71h.02Z"/><path d="M18.01 11.99A8.433 8.433 0 0 0 12 9.5c-2.27 0-4.4.89-6.01 2.49l-.71-.71c1.8-1.8 4.18-2.79 6.71-2.79 2.53 0 4.92.99 6.71 2.79l-.71.71h.02Z"/><path d="M15.19 14.82a4.512 4.512 0 0 0-6.38 0l-.7-.71a5.528 5.528 0 0 1 7.78 0l-.7.71ZM12 19.75a1.75 1.75 0 1 0 0-3.5 1.75 1.75 0 0 0 0 3.5Z"/></svg>
