<svg width="24" height="24" viewBox="0 0 24 24" fill="none" xmlns="http://www.w3.org/2000/svg">
<g clip-path="url(#clip0_11521_74)">
<path d="M12 24C18.6274 24 24 18.6274 24 12C24 5.37258 18.6274 0 12 0C5.37258 0 0 5.37258 0 12C0 18.6274 5.37258 24 12 24Z" fill="black"/>
<path d="M10.3299 9.97735V9.32239C10.1053 9.29169 9.87719 9.27243 9.64423 9.27243C6.83897 9.27243 4.55684 11.5546 4.55684 14.3598C4.55684 16.0809 5.41708 17.6039 6.7288 18.525C5.88181 17.616 5.36229 16.3981 5.36229 15.0611C5.36229 12.2962 7.58001 10.0418 10.3299 9.97735Z" fill="#25F4EE"/>
<path d="M10.4497 17.3854C11.7012 17.3854 12.7222 16.3897 12.7685 15.1496L12.7728 4.07245H14.7966C14.7545 3.8449 14.7316 3.61072 14.7316 3.37113H11.9673L11.9631 14.4483C11.9167 15.689 10.8958 16.6841 9.64424 16.6841C9.25535 16.6841 8.88874 16.5865 8.56668 16.4174C8.98928 17.0025 9.67434 17.3854 10.4497 17.3854Z" fill="#25F4EE"/>
<path d="M18.5773 7.83186V7.21602C17.8056 7.21602 17.0862 6.98667 16.483 6.59357C17.02 7.21 17.7496 7.65487 18.5773 7.83186Z" fill="#25F4EE"/>
<path d="M16.483 6.59357C15.8949 5.91814 15.5377 5.03565 15.5377 4.07187L14.7966 4.07245C14.9917 5.12532 15.6167 6.02891 16.483 6.59357Z" fill="#FE2C55"/>
<path d="M9.64437 12.0367C8.36335 12.0367 7.3207 13.0788 7.3207 14.3604C7.3207 15.2526 7.82744 16.0285 8.56668 16.4174C8.29097 16.0357 8.12616 15.5674 8.12616 15.0617C8.12616 13.7807 9.1688 12.7381 10.4498 12.7381C10.6888 12.7381 10.9182 12.7778 11.1355 12.8452V10.0237C10.911 9.993 10.6828 9.97373 10.4498 9.97373C10.4095 9.97373 10.3702 9.97675 10.3299 9.97735L10.3294 12.1439C10.1127 12.0759 9.88336 12.0367 9.64437 12.0367Z" fill="#FE2C55"/>
<path d="M18.5773 7.83186L18.5772 9.98037C17.1439 9.98037 15.8159 9.52166 14.7317 8.74389V14.361C14.7317 17.1663 12.4496 19.4484 9.64433 19.4484C8.56015 19.4484 7.55483 19.1065 6.72891 18.5262C7.65837 19.5237 8.98214 20.1497 10.4504 20.1497C13.2556 20.1497 15.5378 17.8676 15.5378 15.0623V9.4452C16.622 10.2236 17.9499 10.6817 19.3833 10.6817V7.91736C19.107 7.91736 18.8368 7.88724 18.5773 7.83186Z" fill="#FE2C55"/>
<path d="M14.7317 14.361V8.74389C15.8159 9.52166 17.1439 9.98037 18.5772 9.98037L18.5773 7.83186C17.7496 7.65487 17.02 7.21 16.483 6.59357C15.6167 6.02891 14.9917 5.12532 14.7966 4.07245H12.7728L12.7685 15.1496C12.7222 16.3897 11.7012 17.3854 10.4497 17.3854C9.67434 17.3854 8.98887 17.0019 8.56627 16.4162C7.82643 16.0267 7.3207 15.2526 7.3207 14.3604C7.3207 13.0788 8.36335 12.0367 9.64437 12.0367C9.88336 12.0367 10.1127 12.0759 10.3294 12.1439L10.3301 9.97616C7.58022 10.0406 5.36229 12.2962 5.36229 15.0611C5.36229 16.3981 5.88181 17.616 6.7288 18.525C7.55533 19.1053 8.56025 19.4466 9.64443 19.4466C12.4497 19.4466 14.7318 17.1645 14.7318 14.3592L14.7317 14.361Z" fill="white"/>
</g>
<defs>
<clipPath id="clip0_11521_74">
<rect width="24" height="24" fill="white"/>
</clipPath>
</defs>
</svg>
