<svg width="9" height="20" viewBox="0 0 9 20" xmlns="http://www.w3.org/2000/svg"><path d="M3.74 18.564C3.74 19.212 2.504 20 1.614 20 .724 20 0 19.472 0 18.832c0-.64.724-1.168 1.615-1.168.89 0 2.124.26 2.124.909v-.01ZM4.788 18.564c0 .648 1.234 1.436 2.125 1.436.89 0 1.614-.528 1.614-1.168 0-.64-.723-1.168-1.614-1.168-.891 0-2.125.26-2.125.909v-.01ZM8.332 6.043c0 1.538-2.57.64-4.054.463a.133.133 0 0 1-.13-.13V2.623c0-.074.065-.13.157-.13h1.17s.083.019.12.046C6.84 3.781 8.351 4.921 8.351 6.043h-.019Z"/><path d="M4.37 2.623v3.753c0 .065-.055.12-.13.13C2.765 6.673.213 7.581.213 6.043c0-1.131 1.504-2.271 2.738-3.504a.171.171 0 0 1 .111-.046h1.16c.083 0 .158.056.158.13h-.01ZM5.623 0h-2.7a.427.427 0 0 0-.427.426v1.4c0 .235.191.426.427.426h2.7c.236 0 .427-.19.427-.426v-1.4A.427.427 0 0 0 5.623 0Z"/><path d="M7.553 9.11c0 .584.315 1.085.798 1.353a.321.321 0 0 1 .176.278v1.372c0 .12-.074.223-.176.278a1.54 1.54 0 0 0-.798 1.363c0 .593.315 1.084.798 1.353a.321.321 0 0 1 .176.278v3.494a.348.348 0 0 1-.343.342H.353a.348.348 0 0 1-.344-.342v-3.494c0-.12.075-.223.177-.278.482-.27.798-.77.798-1.353 0-.584-.316-1.094-.798-1.363a.321.321 0 0 1-.177-.278v-1.372c0-.12.075-.222.177-.278.482-.268.798-.769.798-1.353S.668 8.017.186 7.748a.321.321 0 0 1-.177-.278v-.213C0 4.94 1.893 3.058 4.213 3.058h.11a4.203 4.203 0 0 1 4.204 4.199v.213c0 .12-.074.222-.176.278a1.54 1.54 0 0 0-.798 1.362Z"/></svg>
