<svg width="16" height="16" viewBox="0 0 16 16" xmlns="http://www.w3.org/2000/svg">
<path fill-rule="evenodd" clip-rule="evenodd" d="M8.00046 0C3.58184 0 0 3.58184 0 7.99954C0 12.4182 3.58184 16 8.00046 16C12.4182 16 16 12.4182 16 7.99954C16 3.58184 12.4182 0 8.00046 0Z"/>
<path fill-rule="evenodd" clip-rule="evenodd" d="M11.1804 8.68833L7.27148 11.4983C7.10979 11.6134 6.94628 11.6727 6.7855 11.6727C6.48222 11.6727 6.1561 11.4389 6.1561 10.9255V5.07452C6.1561 4.56113 6.4813 4.32819 6.7855 4.32819C6.94628 4.32819 7.10979 4.38665 7.27057 4.50175L11.1813 7.31169C11.4206 7.48434 11.5586 7.73464 11.5586 7.99955C11.5586 8.26538 11.4215 8.5166 11.1804 8.68833Z" fill="white"/>
</svg>
