<svg width="20" height="12" viewBox="0 0 20 12" xmlns="http://www.w3.org/2000/svg"><path fill-rule="evenodd" clip-rule="evenodd" d="M19.04.25v6.5a.25.25 0 0 1-.25.25h-4.91v3.56A1.44 1.44 0 0 1 12.44 12h-11A1.44 1.44 0 0 1 0 10.56V4.42a1.43 1.43 0 0 1 1.44-1.44h1.95V.25A.25.25 0 0 1 3.64 0h15.15a.25.25 0 0 1 .25.25zm-4.19 2.11h3V.93h-3v1.43zm0 .69h3v-.34h-3v.34zm0 .7h3V3.4h-3v.35zm0 .69h3v-.35h-3v.35zm0 1h3v-.67h-3v.67zm-4 3.28h-2a.46.46 0 0 0 0 .92h2a.47.47 0 0 0 0-.93v.01zm-9.06 2.31a.75.75 0 0 1-.26-.05.71.71 0 0 1-.44-.66V6.93h11.62v3.37a.71.71 0 0 1-.71.7l-10.21.03zm-.7-6.41a.7.7 0 0 1 .7-.7H12a.58.58 0 0 1 .26 0 .69.69 0 0 1 .44.65v.49H1.14l-.05-.44z" /></svg>
