<svg width="20" height="20" viewBox="0 0 20 20" xmlns="http://www.w3.org/2000/svg">
<path fill-rule="evenodd" clip-rule="evenodd" d="M4.44431 18.3147C6.08879 19.4135 8.02219 20 10 20C12.6522 20 15.1957 18.9464 17.071 17.071C18.9465 15.1957 20 12.6522 20 10C20 8.02219 19.4135 6.0888 18.3147 4.4443C17.2159 2.79981 15.6541 1.51808 13.8269 0.761207C11.9996 0.00433058 9.98895 -0.193698 8.04911 0.19215C6.1093 0.578007 4.32746 1.53041 2.92893 2.92894C1.53041 4.32746 0.578002 6.10929 0.192154 8.0491C-0.193703 9.98886 0.00433481 11.9995 0.761211 13.8269C1.51809 15.6541 2.79981 17.2159 4.44431 18.3147ZM1.76244 5.71431C1.63844 5.95265 1.52451 6.19691 1.42113 6.44651C0.718306 8.14324 0.534421 10.0103 0.892716 11.8115C1.251 13.6128 2.13538 15.2673 3.43401 16.566C4.47688 17.6089 5.74927 18.3846 7.14285 18.8352V18.5714L8.21428 17.5V16.0714L9.64285 14.6429V13.775L8.37143 12.5H6.73576L4.28576 10.0394V7.21431L2.78576 5.71431H1.76244ZM17.5494 15.4065C17.6078 15.325 17.6649 15.2424 17.7208 15.1589C18.7411 13.6318 19.2857 11.8366 19.2857 10C19.2857 7.53728 18.3074 5.17542 16.566 3.43402C15.3602 2.22821 13.8569 1.38828 12.2286 0.98567L11.4286 1.78574H9.28572V3.21431L10.7143 4.64288H12.2608L13.5714 5.92502V6.83931L12.1679 8.2143H9.64286L7.72862 10.0929L9.64286 11.9678V13.5714L11.0714 15H12.8571L13.5714 14.2857H16.4286L17.5494 15.4065Z" />
</svg>
