<svg width="22" height="24" viewBox="0 0 22 24" xmlns="http://www.w3.org/2000/svg"><path fill-rule="evenodd" clip-rule="evenodd" d="M10.7088 22.2183C11.0181 22.9393 11.4731 24.0001 12.5225 24C12.6102 24 12.7022 23.9925 12.7987 23.977C13.8534 23.8057 15.284 22.5538 15.7154 21.6492C15.8157 21.4387 15.8442 21.1994 15.8694 20.9881C15.8816 20.8855 15.8997 20.7337 15.9205 20.6783C15.9528 20.6491 16.0318 20.5984 16.087 20.5631L16.0896 20.5613C16.2225 20.4763 16.3731 20.3798 16.4866 20.2415C16.795 19.8655 16.874 19.4612 16.9438 19.1045C17.0158 18.7363 17.0707 18.5007 17.2826 18.303C17.3651 18.2259 17.4495 18.1543 17.5388 18.0785L17.5389 18.0784C17.8636 17.8027 18.2318 17.4901 18.4223 16.9412C18.6764 16.2089 18.4361 15.6604 18.243 15.2196H18.2429C18.147 15.0008 18.0565 14.7941 18.0191 14.5695C17.9275 14.019 18.267 13.6275 18.8372 13.0482L18.8398 13.0456L18.8399 13.0454C18.9282 12.9558 19.0193 12.8632 19.1068 12.7696C19.3053 12.5572 19.5108 12.3505 19.7283 12.1318C20.1659 11.6917 20.6184 11.2365 21.0034 10.7376C21.3185 10.3292 21.5271 9.69793 21.2829 9.20785C21.1817 9.0047 20.9185 8.6663 20.289 8.6663L20.2698 8.66645C19.3949 8.6754 19.0189 8.58657 18.5133 8.03869C18.0581 7.54554 17.7603 6.86594 17.4723 6.20866V6.20863L17.472 6.20804C17.3893 6.01913 17.3037 5.8238 17.2153 5.63504C17.1105 5.41098 17.0105 5.1621 16.9046 4.89868L16.903 4.89469L16.9029 4.89443V4.89441C16.6332 4.2232 16.3544 3.5292 15.9069 2.98955C15.491 2.48794 14.9617 2.38402 14.5364 2.30054L14.5354 2.30033C14.3754 2.26891 14.2243 2.23922 14.0816 2.19226C13.7835 2.09423 13.4791 1.9777 13.1846 1.86496L13.1834 1.86451C13.0293 1.80549 12.8753 1.74657 12.721 1.68957C12.6171 1.65118 12.5 1.65198 12.3959 1.68962C12.377 1.69655 12.3153 1.71333 12.2703 1.72557C11.9354 1.81679 11.7054 1.89033 11.5644 2.07502C11.4284 2.25315 11.4215 2.43188 11.4522 2.57401L11.447 2.57213C10.9403 2.38819 10.4199 2.07868 9.9167 1.77933L9.9123 1.77675C9.7972 1.70831 9.6804 1.63883 9.5629 1.57037C9.6536 1.31269 9.6507 1.03679 9.5464 0.774661C9.3645 0.317395 8.90492 0.0135979 8.37575 0.000801044C8.113 -0.00608284 7.85736 0.0362787 7.61019 0.0772348L7.60442 0.0781916C7.49497 0.0963323 7.39161 0.113442 7.29476 0.124973C7.05153 0.153989 6.78922 0.170864 6.51153 0.188723C5.86672 0.230208 5.19992 0.273145 4.60184 0.475505C4.05167 0.661706 3.83903 1.05399 3.66814 1.36924L3.66804 1.36941C3.61578 1.46598 3.56633 1.55715 3.50951 1.63974C3.34273 1.88218 3.12753 2.11271 2.89967 2.35679C2.7845 2.48012 2.66534 2.60776 2.55308 2.73713C2.44559 2.86093 2.33136 2.98665 2.22087 3.10819C1.80687 3.56377 1.37881 4.03487 1.088 4.62755C0.627593 5.56613 0.415763 6.48273 0.458513 7.35193C0.471223 7.61068 0.691253 7.80948 0.950093 7.79743C0.959483 7.79697 0.968803 7.79623 0.978033 7.79523C1.02894 8.0899 1.11558 8.3826 1.24234 8.67123C1.23433 8.67534 1.2264 8.67969 1.21854 8.6843C0.995143 8.81555 0.920423 9.10299 1.05162 9.3264L1.07018 9.35771C1.15807 9.50466 1.31361 9.58613 1.47322 9.58613C1.55511 9.58613 1.63812 9.56467 1.71354 9.51952C1.72141 9.51482 1.72909 9.50992 1.73658 9.50484C1.96864 9.80565 2.23677 10.0619 2.53262 10.2742C2.52769 10.2821 2.52296 10.2901 2.51843 10.2984C2.39379 10.5255 2.47686 10.8106 2.70401 10.9353C3.47337 11.3574 4.38636 11.5582 5.34411 11.5166C5.69279 11.5014 6.02763 11.419 6.35152 11.3393H6.35153L6.35156 11.3392L6.35248 11.339C6.89895 11.2045 7.37098 11.0883 7.78189 11.3097C8.0225 11.4393 8.20794 11.6604 8.29076 11.9163C8.32925 12.0352 8.31711 12.1639 8.30169 12.3269C8.28678 12.4846 8.26991 12.6635 8.29695 12.8658C8.36595 13.3814 8.68512 13.726 8.9667 14.03C9.1261 14.2021 9.2765 14.3646 9.3476 14.5256C9.4734 14.8111 9.5412 15.2857 9.5906 15.6322L9.5995 15.6945C9.646 16.0187 9.5546 16.1767 9.3886 16.4636V16.4637L9.3879 16.4648C9.2966 16.6227 9.1931 16.8017 9.1068 17.0281C8.82645 17.7635 9.1754 18.4022 9.4558 18.9153C9.5357 19.0615 9.6111 19.1996 9.668 19.3299C9.8159 19.6693 9.9198 20.0297 10.0297 20.4111V20.4112L10.0304 20.4136C10.1622 20.871 10.2985 21.344 10.5198 21.7955C10.5812 21.9209 10.6426 22.0642 10.7077 22.2158L10.7086 22.218L10.7088 22.2183ZM18.6869 21.2613C18.9584 21.4485 19.1999 21.5093 19.3987 21.5093C19.5285 21.5093 19.6402 21.4834 19.7305 21.4499C20.3974 21.2025 20.6386 20.2842 20.7982 19.6763L20.7983 19.6761C20.822 19.5857 20.8425 19.5077 20.8609 19.4458L21.5275 17.1989C21.552 17.1162 21.5533 17.0284 21.5312 16.9451L21.2381 15.8405C21.1888 15.6547 21.0312 15.5178 20.8403 15.495C20.6495 15.4726 20.464 15.5681 20.3724 15.7372C20.3059 15.8598 20.2441 15.9869 20.1844 16.1099L20.1841 16.1104C20.0702 16.3449 19.9626 16.5663 19.8331 16.7413C19.7636 16.8351 19.6187 16.899 19.451 16.9729C19.1402 17.1098 18.7146 17.2974 18.5272 17.8258C18.3913 18.2093 18.5054 18.4736 18.5737 18.6314C18.601 18.6945 18.6154 18.7292 18.6199 18.7657C18.6262 18.8169 18.6078 18.8548 18.5039 19.0043L18.5038 19.0044C18.4115 19.1372 18.2966 19.3025 18.2377 19.5294C18.0934 20.0859 18.1244 20.8734 18.6869 21.2613Z"/></svg>
