<svg width="20" height="24" viewBox="0 0 20 24" xmlns="http://www.w3.org/2000/svg"><path fill-rule="evenodd" clip-rule="evenodd" d="M15.9402 15.4344L14.777 14.92C14.7422 14.6505 14.5846 14.407 14.3521 14.2653L14.1557 14.1457C13.5773 13.7932 12.952 13.5262 12.2973 13.3523C11.9269 13.2538 11.526 13.3531 11.2424 13.6108L9.8343 11.8247C9.8289 11.8178 9.8259 11.8094 9.8259 11.8008C9.8259 11.7967 9.8259 11.7842 9.8379 11.7729C9.8499 11.7615 9.8622 11.7621 9.8664 11.7624C10.4318 11.7919 10.9734 11.5671 11.3512 11.1448L13.3385 8.92375C13.9444 8.2466 13.8885 7.20045 13.2138 6.59168L12.5547 5.99693C12.3649 5.8257 12.1196 5.73134 11.8615 5.73134C11.3073 5.73134 10.8548 6.16508 10.8314 6.71862C10.8298 6.75771 10.8036 6.79198 10.7663 6.80384L10.5822 6.86248C10.5517 6.87214 10.5187 6.86576 10.4939 6.84523C10.3307 6.7092 10.2324 6.51753 10.2175 6.30547C10.2025 6.0934 10.2728 5.88978 10.4154 5.73219L10.6993 5.41836C10.7779 5.33145 10.8455 5.23508 10.9002 5.13214C10.9614 5.0173 11.1025 4.96845 11.2216 5.02119L12.4136 5.54919C12.8176 5.72816 13.3006 5.59953 13.562 5.24309C13.7152 5.03417 13.7756 4.77852 13.732 4.52314C13.6884 4.26772 13.5467 4.04647 13.3328 3.90013L11.7974 2.84976C11.6818 2.77064 11.6366 2.61923 11.6898 2.48986C11.7124 2.43478 11.7506 2.38818 11.8001 2.35514L12.829 1.6672C13.0812 1.49859 13.2167 1.20666 13.1826 0.905253C13.1485 0.603801 12.9513 0.349505 12.6679 0.241412L12.4268 0.149491C11.8762 -0.0604147 11.2741 -0.0492117 10.7317 0.181037L10.4983 0.280084C10.26 0.38124 10.1488 0.656395 10.25 0.894706C10.3512 1.13302 10.6264 1.24425 10.8646 1.14305L11.098 1.044C11.4163 0.908816 11.7696 0.902347 12.0927 1.02544L12.0987 1.02774L11.279 1.57594C11.0744 1.71272 10.9167 1.90537 10.8229 2.13323C10.6023 2.66948 10.7895 3.29624 11.2681 3.62362L12.8034 4.67403C12.8034 4.67403 12.8071 4.67657 12.8079 4.68092C12.8086 4.68533 12.806 4.68885 12.806 4.68885C12.8031 4.69274 12.7978 4.69419 12.7933 4.69222L11.6012 4.16422C11.035 3.91354 10.3635 4.14529 10.0724 4.69227C10.0538 4.72738 10.0307 4.76024 10.004 4.78981L9.7201 5.10355C9.4047 5.4523 9.2492 5.90272 9.2823 6.37179C9.3155 6.84087 9.5327 7.26485 9.894 7.56579C10.1658 7.79229 10.5297 7.8633 10.8668 7.75601L11.0508 7.69737C11.4615 7.56659 11.7498 7.18934 11.7681 6.75865C11.7702 6.7084 11.8113 6.66907 11.8639 6.66907C11.8871 6.66907 11.9094 6.67765 11.9266 6.69321L12.5858 7.28796C12.8783 7.55191 12.9025 8.00543 12.6399 8.29891L10.6526 10.5199C10.4651 10.7296 10.1951 10.8408 9.9156 10.8264C9.6491 10.8126 9.3862 10.9095 9.1929 11.0928C8.9996 11.276 8.8887 11.5338 8.8884 11.8002C8.8882 12.0187 8.9626 12.2336 9.0979 12.4053L9.6009 13.0432L8.6259 12.5689L7.24261 10.6744C7.17253 10.5784 7.06856 10.5127 6.95184 10.4904C6.64008 10.431 6.40669 10.1683 6.38428 9.85173L6.28997 8.51885C6.28379 8.4311 6.25299 8.34686 6.20115 8.27575L5.0964 6.76067C5.06898 6.72307 5.03612 6.68974 4.9989 6.66185C4.91204 6.5967 4.13233 6.02243 3.50186 5.91551C3.01474 5.83306 2.6607 6.01564 2.44606 6.2209H1.76014C1.67023 6.09612 1.54077 5.83934 1.54077 5.39553C1.54077 4.91183 1.66123 4.63747 1.77401 4.54194C1.80908 4.51218 1.8582 4.48386 1.95772 4.50064C2.50023 4.59106 4.17864 4.85633 4.31969 4.87862L4.32902 4.8801C4.38025 4.88816 4.43247 4.88774 4.48361 4.87869L5.55681 4.68927C5.72119 4.66025 5.85774 4.54597 5.9153 4.38932L6.19997 3.61443C6.33568 3.24506 6.62119 2.94506 6.98339 2.79126L7.36486 2.62931C7.60317 2.52815 7.71435 2.25295 7.6132 2.01464C7.51209 1.77637 7.23684 1.66523 6.99858 1.76634L6.61702 1.92834C6.0173 2.18301 5.54457 2.67965 5.31999 3.29113L5.12828 3.81299L4.39783 3.9419C4.04711 3.88644 2.60445 3.65807 2.11184 3.57595C1.76258 3.51782 1.42752 3.60679 1.16807 3.82668C0.798551 4.13971 0.603271 4.68219 0.603271 5.39563C0.603271 6.55132 1.21972 7.02213 1.29003 7.07206C1.3693 7.12831 1.46413 7.15854 1.5613 7.15854H2.66599C2.83713 7.15854 2.99473 7.06526 3.07704 6.91517C3.07704 6.91517 3.14646 6.80604 3.34521 6.83998C3.63232 6.88868 4.1095 7.17677 4.38194 7.3721L5.36438 8.71952L5.44923 9.91806C5.4969 10.5917 5.95318 11.1609 6.58425 11.3626L7.93748 13.2159C7.98262 13.2777 8.0422 13.3275 8.111 13.361L10.6989 14.62C10.6842 14.6818 10.6527 14.725 10.6016 14.795L10.6014 14.7951C10.4926 14.9439 10.3283 15.1687 10.278 15.5909C10.2063 16.1933 10.4583 16.5699 10.6424 16.8449V16.845L10.6426 16.8453C10.7257 16.9694 10.7975 17.0767 10.8389 17.1936C10.9738 17.5738 11.2436 17.7461 11.4048 17.849H11.4049C11.4394 17.8711 11.4848 17.9001 11.5057 17.9177C11.5062 17.9221 11.5067 17.9282 11.5069 17.936C11.5143 18.1779 11.3183 19.4942 11.1752 20.4553L11.175 20.4569C11.0395 21.3672 10.9225 22.1532 10.9074 22.4317C10.8623 23.2666 11.7645 23.8624 11.8675 23.9276C11.9438 23.9758 12.0308 24.0002 12.1182 24.0002C12.191 24.0002 12.264 23.9833 12.331 23.949C12.4785 23.8739 12.5754 23.7264 12.586 23.5613L12.6308 22.8588C12.7143 22.5114 12.8192 22.1075 12.8659 21.9646C13.0047 21.8004 13.2443 21.4769 13.7395 20.8082L13.7403 20.8071C14.2048 20.1801 14.7226 19.4751 14.99 19.1107C15.0436 19.0376 15.1155 18.9788 15.1978 18.9403C15.5514 18.7753 15.8117 18.4645 15.912 18.0873L16.1204 17.3035L16.3593 16.9698C16.5398 16.7177 16.5965 16.4016 16.5148 16.1025C16.4331 15.8031 16.2237 15.5597 15.9402 15.4344ZM9.0482 1.87383C9.1715 1.87383 9.2924 1.82367 9.3796 1.73649C9.4668 1.6493 9.517 1.52836 9.517 1.40508C9.517 1.2818 9.4668 1.16086 9.3796 1.07368C9.2924 0.986537 9.1715 0.936334 9.0482 0.936334C8.9249 0.936334 8.804 0.98649 8.7168 1.07368C8.6296 1.16086 8.5795 1.2818 8.5795 1.40508C8.5795 1.52836 8.6296 1.6493 8.7168 1.73649C8.804 1.82367 8.9249 1.87383 9.0482 1.87383ZM17.7556 0.551532C18.3099 0.67772 18.78 1.01325 19.0795 1.49639C19.379 1.97958 19.4704 2.54991 19.337 3.10238L19.163 3.82261C19.0174 4.42481 18.6195 4.93538 18.0711 5.22347C17.4815 5.53336 17.0246 6.04613 16.7846 6.66741L16.7808 6.67692C16.6736 6.95438 16.4013 7.14113 16.1033 7.14113C15.845 7.14113 15.6042 7.00238 15.4747 6.77902L14.8452 5.69395C14.6656 5.38406 14.6667 4.99988 14.8483 4.6912C14.8578 4.67517 14.8587 4.65553 14.8509 4.63875L14.5062 3.90253C14.4491 3.78056 14.3365 3.69028 14.205 3.66103C13.6181 3.53058 13.2081 3.01955 13.2081 2.41833C13.2081 1.88095 13.5483 1.39889 14.0546 1.21884L14.851 0.93572C14.8732 0.927845 14.896 0.92161 14.9191 0.917157L16.8879 0.537095C17.1767 0.481313 17.4686 0.486141 17.7556 0.551532ZM18.2516 3.60249L18.4256 2.88225C18.4998 2.57541 18.449 2.25867 18.2828 1.99031C18.1164 1.72205 17.8553 1.53567 17.5475 1.46555C17.3882 1.42931 17.226 1.42659 17.0656 1.45753L15.1316 1.83094L14.3687 2.10216C14.2353 2.14964 14.1456 2.27672 14.1456 2.41838C14.1456 2.57686 14.2536 2.71158 14.4084 2.74594C14.8217 2.83777 15.1757 3.12155 15.3552 3.50513L15.6998 4.24125C15.8388 4.53797 15.8225 4.88395 15.6563 5.16652C15.6459 5.18414 15.6459 5.20599 15.6561 5.22361L16.0797 5.95392C16.4254 5.29055 16.9666 4.74483 17.635 4.3936C17.9447 4.23094 18.1694 3.94261 18.2516 3.60249Z"/></svg>
