<svg width="23" height="19" viewBox="0 0 23 19" xmlns="http://www.w3.org/2000/svg"><path fill-rule="evenodd" clip-rule="evenodd" d="M6.84263 14.7643C6.8726 14.7709 6.90277 14.7742 6.93277 14.7742C7.04193 14.7742 7.14817 14.7311 7.22679 14.6521C7.58853 14.2903 7.78778 13.9065 7.94791 13.5981L7.94794 13.598L7.94808 13.5978C8.0456 13.4099 8.16688 13.1764 8.24425 13.1542C8.27071 13.1466 8.42852 13.1231 8.91734 13.4115C9.08802 13.5122 9.27613 13.6657 9.45805 13.8142L9.45826 13.8144L9.45898 13.815C9.89252 14.1687 10.3406 14.5344 10.8113 14.366C11.2622 14.2046 11.3736 13.6525 11.4101 13.4711H11.4102C11.4834 13.1082 11.3462 12.8821 11.2302 12.751C11.3321 12.7202 11.5125 12.695 11.6305 12.6785L11.631 12.6784C11.9973 12.6273 12.4123 12.5694 12.6815 12.2998C13.0875 11.893 13.0403 11.2458 13.0024 10.7257C12.9984 10.6709 12.9938 10.6086 12.99 10.545C13.1378 10.7825 13.3767 11.0358 13.7582 10.9218C14.289 10.7633 14.2478 10.1605 14.2279 9.8708L14.2278 9.8692L14.2277 9.8691V9.869V9.8689C14.2244 9.8195 14.2198 9.7526 14.2194 9.7073C14.2964 9.6225 14.4572 9.5015 14.5904 9.4012L14.5909 9.4009L14.591 9.4008C14.8053 9.2395 15.0268 9.0728 15.1842 8.8767L15.1868 8.8737C15.6848 8.306 15.734 8.1139 15.7549 8.0318C15.8797 7.54373 15.7203 7.30752 15.5463 7.10739L15.5412 7.10151C15.5265 7.08466 15.5113 7.06722 15.4965 7.04826C15.4512 6.99049 15.3995 6.94892 15.3574 6.91542C15.3857 6.87489 15.4366 6.81288 15.527 6.72798C15.6783 6.61071 16.3101 6.48977 16.4826 6.54429C16.5512 6.5884 16.5706 6.67559 16.5799 6.96232C16.5864 7.1679 16.5939 7.40095 16.7081 7.60948C16.8113 7.79821 17.0331 8.0215 17.504 8.0215L17.5222 8.0214C18.1823 8.0134 18.4631 7.45018 18.6308 7.11359C18.6835 7.00772 18.7558 6.86273 18.7986 6.82495C18.9889 6.65677 19.2144 6.5453 19.4755 6.41624L19.4757 6.41616L19.4769 6.41556C19.6482 6.33085 19.8254 6.24323 20.0104 6.13084C20.9792 5.54206 21.3871 5.02087 21.294 4.49073C21.1696 3.78164 20.1742 3.5812 19.8469 3.51529L19.8468 3.51526C18.8919 3.32303 17.9208 3.16065 16.9605 3.03256C16.7325 3.00243 16.5233 3.16223 16.493 3.39004L16.4927 3.39218C16.14 3.34878 15.7893 3.31039 15.4435 3.27774L15.4437 3.27482C15.4623 3.04577 15.2916 2.84497 15.0626 2.82641L14.9941 2.82088C14.7703 2.80298 14.5727 2.96689 14.5477 3.18905C14.2994 3.15366 14.0569 3.10753 13.8148 3.06148C13.6593 3.0319 13.504 3.00235 13.3473 2.97569L13.3488 2.96489C13.3766 2.73671 13.2141 2.52922 12.986 2.50142C12.6132 2.45597 12.3767 2.46049 12.235 2.46319L12.2339 2.46321C12.2185 2.43302 12.2015 2.39868 12.1853 2.366L12.1852 2.3658L12.1838 2.36296C12.1687 2.3325 12.1523 2.29933 12.1342 2.26321C12.1067 2.20824 12.1054 2.17095 12.1058 2.07124C12.1071 1.78542 12.0711 1.4753 11.6256 1.10355C11.3354 0.861431 10.5408 0.391711 10.1559 0.260831C10.0975 0.241011 10.0308 0.211461 9.9601 0.180181L9.96008 0.180171L9.96007 0.180161L9.96005 0.180151H9.96004L9.95852 0.179471L9.95841 0.179431C9.66158 0.0479112 9.10938 -0.196759 8.63219 0.288471C8.40193 0.522641 8.29398 0.753731 8.30226 0.994891C8.31404 1.3378 8.55269 1.54933 8.72698 1.70381H8.72699L8.72716 1.70397C8.78055 1.75128 8.85997 1.82167 8.88134 1.85667C8.8979 1.93049 8.91729 1.99292 8.93839 2.04639L8.90173 2.09496C8.68138 2.2799 7.44007 2.62722 7.02374 2.68519C6.38449 2.77421 5.9377 2.93484 5.46462 3.10497C5.21559 3.19453 4.95807 3.28712 4.65869 3.37322C4.4613 3.42999 4.25743 3.49591 4.04157 3.56574C3.65346 3.69133 3.25225 3.82113 2.90126 3.89051C2.73802 3.92304 2.28197 3.79214 1.97937 3.70528L1.97789 3.70486C1.4532 3.55433 1.03884 3.43548 0.737207 3.57535C0.341193 3.75904 0.234282 4.03857 0.214348 4.24066C0.192791 4.45922 0.264287 4.66135 0.327418 4.83967L0.32743 4.83971C0.375783 4.97628 0.421469 5.10531 0.415934 5.20593C0.408485 5.34247 0.329499 5.51172 0.245851 5.69092L0.245823 5.69098C0.104293 5.99431 -0.071794 6.3717 0.030532 6.79627C0.164475 7.35177 0.606707 7.68634 0.99694 7.98158L0.997096 7.98169C1.2599 8.1805 1.50809 8.3683 1.56611 8.5543C1.73702 9.1027 1.4448 9.3622 0.629006 9.912C0.561922 9.9572 0.494172 10.0029 0.426296 10.0494L0.424257 10.0508C0.333577 10.113 0.271778 10.2082 0.251095 10.3149L0.251012 10.3153L0.25097 10.3157L0.250928 10.3158C0.248098 10.3305 0.246059 10.3454 0.244852 10.3605C0.24377 10.3742 0.243354 10.3878 0.243604 10.4014C0.24556 10.512 0.291545 10.6178 0.372321 10.695C0.755476 11.0608 0.920107 11.511 1.09439 11.9876C1.2718 12.4729 1.45528 12.9747 1.86732 13.4363C2.08967 13.6854 2.43983 14.019 2.91183 14.0391C3.43128 14.0609 3.8841 13.7035 4.29721 13.3134C4.5653 13.0604 4.7043 12.7474 4.79627 12.5402C4.8207 12.4852 4.85403 12.4102 4.86951 12.3863C4.9398 12.2951 4.97384 12.2027 4.99028 12.1238C5.00672 12.1216 5.02507 12.1195 5.0455 12.1173C5.73803 12.0429 6.1767 13.3901 6.41166 14.1133C6.45765 14.2549 6.50113 14.3887 6.54171 14.5002C6.59027 14.6339 6.70376 14.7335 6.84263 14.7643ZM14.5375 12.2003C14.3934 12.2003 14.2533 12.1253 14.1763 11.9915C14.0617 11.7923 14.1304 11.5379 14.3297 11.4233C14.926 11.0804 15.0952 10.8021 15.4022 10.2969V10.2968L15.4024 10.2965C15.4934 10.1469 15.5965 9.9773 15.7219 9.7892C15.8494 9.5979 16.1077 9.5462 16.2989 9.6738C16.4902 9.8012 16.5418 10.0596 16.4143 10.2508C16.2985 10.4245 16.2044 10.5794 16.1135 10.729L16.1132 10.7295C15.7852 11.2691 15.5261 11.6955 14.7445 12.1448C14.6791 12.1824 14.6078 12.2003 14.5375 12.2003ZM18.0555 10.3877C18.1325 10.5216 18.2725 10.5965 18.4166 10.5965C18.487 10.5965 18.5583 10.5786 18.6236 10.541C19.4054 10.0916 21.8831 7.61751 22.2112 7.07768C22.3022 6.92799 22.3963 6.77318 22.5121 6.59944C22.6396 6.40826 22.5879 6.14987 22.3967 6.02241C22.2055 5.89486 21.9471 5.9465 21.8196 6.13781C21.6942 6.32596 21.5911 6.49556 21.5001 6.64525L21.5 6.64542C21.1929 7.15071 18.8052 9.4766 18.2088 9.8196C18.0095 9.9341 17.9409 10.1885 18.0555 10.3877ZM11.5968 18.1232C11.5591 18.1232 11.5208 18.118 11.4827 18.1072C10.3978 17.7984 9.70945 17.1204 8.88713 16.0537C8.74681 15.8717 8.7806 15.6104 8.96262 15.4701C9.1446 15.3298 9.40595 15.3635 9.54623 15.5456C10.3917 16.6424 10.9378 17.0868 11.7105 17.3067C11.9315 17.3696 12.0597 17.5998 11.9968 17.8208C11.9447 18.0038 11.7781 18.1232 11.5968 18.1232ZM13.323 18.3146L13.3355 18.3148C13.5654 18.3148 13.7516 18.1284 13.7516 17.8986C13.7516 17.6688 13.5653 17.4825 13.3355 17.4825H13.3311L13.3205 17.4823C13.0916 17.4823 12.9054 17.6675 12.9044 17.8967C12.9035 18.1265 13.0889 18.3137 13.3188 18.3147H13.323V18.3146ZM12.0377 16.6494C11.8884 16.6494 11.7413 16.6191 11.6055 16.557C11.1974 16.3702 10.9634 15.9372 10.9634 15.3689C10.9634 15.172 11.1014 15.0021 11.2941 14.9616C11.523 14.9137 11.7216 14.7157 11.8968 14.541L11.8971 14.5408C12.112 14.3266 12.3556 14.0837 12.6973 14.1716C13.0604 14.265 13.1815 14.6806 13.2332 14.8581V14.8582C13.3995 15.4294 13.252 15.9837 12.8386 16.3409C12.6048 16.543 12.3174 16.6494 12.0377 16.6494ZM15.448 17.4036C15.4964 17.5913 15.6654 17.7158 15.8507 17.7158C15.885 17.7158 15.9201 17.7116 15.9549 17.7026C16.1774 17.6452 16.3113 17.4182 16.2539 17.1957C16.0319 16.3353 15.5567 16.0694 15.0065 15.7615L15.0063 15.7614C14.9231 15.7149 14.8371 15.6668 14.7471 15.6141C14.5488 15.4981 14.2939 15.5649 14.1779 15.7632C14.0618 15.9616 14.1285 16.2165 14.327 16.3325C14.4238 16.3892 14.5134 16.4393 14.5999 16.4877L14.6002 16.4879C15.1056 16.7707 15.3149 16.8878 15.448 17.4036ZM4.04586 2.8537C3.91119 2.8537 3.77906 2.78845 3.69891 2.66785C3.51522 2.39144 3.47627 2.08648 3.5893 1.80899C3.81065 1.2655 4.5896 0.867871 6.04064 0.557591L6.05701 0.554101C6.0879 0.547521 6.11089 0.542621 6.12445 0.539281C6.3473 0.483351 6.57335 0.619011 6.62912 0.842031C6.68488 1.065 6.5493 1.29093 6.32637 1.34669C6.30527 1.35198 6.26698 1.3603 6.21472 1.3715C4.56609 1.72406 4.37633 2.0832 4.36014 2.12298C4.35223 2.1425 4.37674 2.18415 4.3921 2.20721C4.51936 2.39864 4.4673 2.65694 4.27587 2.78408C4.205 2.83119 4.12497 2.8537 4.04586 2.8537ZM13.7394 14.6522C13.8168 14.7297 13.9241 14.7742 14.0336 14.7742C14.143 14.7742 14.2504 14.7296 14.3278 14.6522C14.4056 14.5748 14.4497 14.4675 14.4497 14.358C14.4497 14.2486 14.4056 14.1412 14.3278 14.0638C14.2504 13.9864 14.143 13.9419 14.0336 13.9419C13.9241 13.9419 13.8168 13.9864 13.7394 14.0638C13.662 14.1412 13.6174 14.2486 13.6174 14.358C13.6174 14.4675 13.662 14.5748 13.7394 14.6522Z"/></svg>
