<svg width="24" height="24" viewBox="0 0 24 24" xmlns="http://www.w3.org/2000/svg"><path fill-rule="evenodd" clip-rule="evenodd" d="M17.9529 19.6345C17.8447 19.6345 17.7332 19.6098 17.6234 19.5598C17.3609 19.4406 17.24 19.1954 17.1518 19.0163V19.0162L17.1511 19.0148L17.151 19.0146C17.1307 18.9734 17.1013 18.9139 17.0848 18.8897C17.0743 18.8803 17.0671 18.8744 17.0625 18.8709C17.0453 18.8671 17.0124 18.8619 16.9845 18.8575L16.9822 18.8571H16.9818C16.9418 18.8507 16.8965 18.8435 16.8438 18.8337C16.2315 18.7195 15.7462 18.4407 15.4014 18.0048C15.2285 17.7861 15.1523 17.5148 15.0851 17.2754L15.085 17.2748L15.0849 17.2747C15.0534 17.1624 15.0036 16.9853 14.9586 16.9096C14.9314 16.9162 14.8975 16.926 14.8718 16.9334C14.7032 16.9824 14.4212 17.0642 14.1311 16.9056C13.8618 16.7583 13.7943 16.5276 13.7748 16.3765C13.7134 16.3607 13.6377 16.3409 13.5578 16.3068C13.134 16.1262 12.807 15.8763 12.4642 15.4717C11.7818 14.6659 11.1626 14.2707 10.3936 14.1502C9.60102 14.0259 8.77438 14.2295 7.93715 14.7554C7.24734 15.1887 6.62545 15.4278 5.97998 15.508C5.80679 15.5295 5.64048 15.5396 5.4796 15.5494L5.47735 15.5495H5.47702H5.47701C5.17784 15.5676 4.8952 15.5848 4.63243 15.675C4.43968 15.7412 4.25663 15.8261 4.07963 15.9083C3.53551 16.1609 2.91878 16.4469 2.05652 16.1268C2.0017 16.1065 1.9448 16.0871 1.88764 16.0677L1.87581 16.0637C1.53433 15.9479 1.10936 15.8038 0.928145 15.4199C0.857504 15.2702 0.799145 15.0237 0.92191 14.6997C0.982613 14.5396 1.07543 14.4047 1.15736 14.2857L1.15757 14.2854C1.21549 14.2012 1.29467 14.0862 1.30272 14.0327C1.31008 13.9838 1.26533 13.8879 1.21793 13.7862L1.21783 13.786C1.1591 13.66 1.08602 13.5031 1.0555 13.317C1.0045 13.0058 1.00183 12.7201 0.999582 12.468L0.999579 12.4677C0.995596 12.0391 0.992449 11.7004 0.779505 11.3105C0.718099 11.1982 0.637662 11.077 0.552396 10.9487C0.303819 10.5747 0.0221951 10.1508 0.00152329 9.63436C-0.0189009 9.12507 0.170167 8.5655 0.322179 8.1156L0.322475 8.11473L0.323361 8.11211C0.348548 8.03761 0.372989 7.96532 0.395506 7.8961C0.812781 6.61184 2.08855 6.18452 3.11364 5.84117L3.11368 5.84116L3.12041 5.8389L3.12044 5.83889C3.3241 5.77064 3.51666 5.7061 3.6984 5.63725C3.81488 5.59314 3.9399 5.5532 4.06074 5.51467L4.06098 5.5146L4.06099 5.51459C4.34113 5.42513 4.6307 5.33266 4.79893 5.19691C4.89132 5.12233 4.90791 5.06636 4.94485 4.83803C4.96927 4.68672 4.99979 4.49833 5.09063 4.29827C5.2111 4.03291 5.40108 3.86637 5.5538 3.73259C5.57794 3.71145 5.60217 3.69016 5.62631 3.66832L5.76178 3.5457C6.16111 3.18382 6.57398 2.80972 7.00331 2.46598C7.28536 2.24023 7.63954 2.00408 8.12882 1.96442C8.46594 1.93747 8.73308 2.04655 8.94791 2.13439C9.0778 2.18755 9.19068 2.23339 9.27514 2.23109C9.44014 2.22659 9.73953 1.83298 9.90036 1.62149C10.0077 1.48035 10.109 1.34703 10.2154 1.23599C10.8689 0.553817 11.5829 0.536568 12.2569 0.619255C12.3756 0.633881 12.5303 0.639749 12.6941 0.645962L12.6956 0.64602C13.1578 0.663551 13.6816 0.683426 14.0736 0.903738C14.3195 1.04188 14.4765 1.22849 14.5405 1.45831C14.6484 1.84639 14.4461 2.20305 14.2834 2.48976L14.2832 2.49017C14.2169 2.60689 14.0942 2.82317 14.0992 2.89728C14.1844 3.1129 14.6208 3.3739 14.9101 3.54682L14.912 3.548C15.0407 3.62495 15.1622 3.69767 15.2691 3.77135C15.5536 3.96738 15.8023 4.0346 15.9013 3.9994C15.9597 3.97868 15.9999 3.86088 16.0145 3.81115C16.1167 3.46254 16.0936 3.07015 16.0692 2.65479V2.65458C16.0379 2.12251 16.0024 1.51936 16.2435 0.925769C16.4914 0.315459 16.8787 0.234553 17.0877 0.236991C17.4938 0.246131 17.8541 0.583583 18.0513 1.13966C18.0869 1.23992 18.1183 1.34178 18.1485 1.44027L18.1491 1.44191C18.2049 1.62331 18.2577 1.79463 18.3281 1.93217C18.3699 2.01392 18.4093 2.03975 18.5396 2.11676L18.5404 2.11722C18.6575 2.18652 18.8032 2.27273 18.9457 2.42815C19.2695 2.78117 19.3774 3.28371 19.4725 3.72706C19.5093 3.89862 19.5441 4.06066 19.5859 4.18502C19.7789 4.75844 20.1065 4.99727 20.6493 5.39294L20.7129 5.43934C21.1694 5.77277 21.3315 6.18934 21.4618 6.52403L21.4619 6.52442C21.5446 6.73688 21.6161 6.92036 21.751 7.0742L22.7757 8.24279C22.8061 8.27743 22.9505 8.30644 23.0462 8.32566L23.0464 8.32569C23.2759 8.37177 23.5902 8.43485 23.7976 8.71688C24.033 9.0371 23.9438 9.42705 23.8787 9.71185L23.8786 9.71203L23.8785 9.71241C23.8585 9.79993 23.8285 9.9311 23.8314 9.97936C23.9495 10.5319 23.9733 10.984 23.9733 11.5336C23.9733 11.6209 23.9791 11.7224 23.9853 11.8298C24.0031 12.1398 24.0232 12.4912 23.9252 12.8086C23.8488 13.0558 23.5864 13.1945 23.339 13.118C23.3224 13.1129 23.3062 13.1069 23.2906 13.1001C23.2055 13.2588 23.1072 13.4163 23.0112 13.5704L23.0111 13.5705C22.9879 13.6077 22.9649 13.6447 22.9422 13.6814C23.1357 13.7935 23.2519 14.0553 23.1189 14.3121L23.1154 14.3188L23.1137 14.3218L23.1135 14.3222L23.1119 14.3251L23.1082 14.3318H23.1081C23.0115 14.5014 22.8513 14.5769 22.6961 14.5769C22.6172 14.5769 22.5397 14.5574 22.4724 14.521L22.066 15.2693C22.2934 15.3928 22.3775 15.6773 22.2541 15.9048L22.2214 15.9647C22.0567 16.2668 22.0175 16.3386 22.0175 16.6092C22.0175 16.6428 22.0179 16.6763 22.0182 16.7098V16.7099C22.0212 17.0238 22.0248 17.4146 21.7784 17.7799C21.4607 18.2511 21.0588 18.3068 20.7654 18.3474H20.7653C20.6873 18.3582 20.6137 18.3684 20.5408 18.3852C20.4886 18.3972 20.4546 18.4302 20.3563 18.546C20.2165 18.7105 19.9824 18.9859 19.5371 19.0097C19.3381 19.0207 19.174 18.9806 19.0422 18.9485L19.0403 18.9481C18.8602 18.9041 18.842 18.9055 18.7825 18.9434C18.7584 18.9679 18.7145 19.0444 18.6849 19.0959L18.6844 19.0967L18.6842 19.097C18.6114 19.2238 18.529 19.3674 18.3889 19.4794C18.2604 19.5823 18.1101 19.6345 17.9529 19.6345ZM18.4934 23.134C18.7677 23.5314 19.2119 23.7631 19.6716 23.7631C19.7537 23.7631 19.8362 23.7557 19.9184 23.7405C20.4439 23.6438 20.8371 23.2608 20.9702 22.7163C21.0093 22.5564 20.9942 22.4121 20.9832 22.3068V22.3065L20.9826 22.3013C20.9796 22.2719 20.9759 22.2355 20.9755 22.2178C20.9804 22.2074 20.988 22.1925 20.9941 22.1807C21.0307 22.1095 21.0861 22.0018 21.1085 21.8589C21.1671 21.4841 21.0863 20.9735 20.774 20.6777C20.568 20.4827 20.2955 20.4087 20.006 20.4687C19.6926 20.529 19.4617 20.4683 19.1427 20.3844L19.1405 20.3838C18.9976 20.3463 18.8358 20.3038 18.6575 20.2721C18.1262 20.1773 17.8381 20.3959 17.7135 20.5345C17.5918 20.6699 17.4091 20.9714 17.5535 21.4689C17.7072 21.9988 18.1228 22.5988 18.4264 23.0371L18.427 23.0379L18.4934 23.134Z"/></svg>
