<svg width="20" height="24" viewBox="0 0 20 24" xmlns="http://www.w3.org/2000/svg"><path fill-rule="evenodd" clip-rule="evenodd" d="M15.9402 15.4344L14.777 14.92C14.7422 14.6505 14.5846 14.407 14.3521 14.2653L14.1557 14.1457C13.5773 13.7932 12.952 13.5262 12.2973 13.3523C11.9269 13.2538 11.526 13.3531 11.2424 13.6108L9.8343 11.8247C9.8289 11.8178 9.8259 11.8094 9.8259 11.8008C9.8259 11.7967 9.8259 11.7842 9.8379 11.7729C9.8499 11.7615 9.8622 11.7621 9.8664 11.7624C10.4318 11.7919 10.9734 11.5671 11.3512 11.1448L13.3385 8.92375C13.9444 8.2466 13.8885 7.20045 13.2138 6.59168L12.5547 5.99693C12.3649 5.8257 12.1196 5.73134 11.8615 5.73134C11.3073 5.73134 10.8548 6.16508 10.8314 6.71862C10.8298 6.75771 10.8036 6.79198 10.7663 6.80384L10.5822 6.86248C10.5517 6.87214 10.5187 6.86576 10.4939 6.84523C10.3307 6.7092 10.2324 6.51753 10.2175 6.30547C10.2025 6.0934 10.2728 5.88978 10.4154 5.73219L10.6993 5.41836C10.7779 5.33145 10.8455 5.23508 10.9002 5.13214C10.9614 5.0173 11.1025 4.96845 11.2216 5.02119L12.4136 5.54919C12.8176 5.72816 13.3006 5.59953 13.562 5.24309C13.7152 5.03417 13.7756 4.77852 13.732 4.52314C13.6884 4.26772 13.5467 4.04647 13.3328 3.90013L11.7974 2.84976C11.6818 2.77064 11.6366 2.61923 11.6898 2.48986C11.7124 2.43478 11.7506 2.38818 11.8001 2.35514L12.829 1.6672C13.0812 1.49859 13.2167 1.20666 13.1826 0.905253C13.1485 0.603801 12.9513 0.349505 12.6679 0.241412L12.4268 0.149491C11.8762 -0.0604147 11.2741 -0.0492117 10.7317 0.181037L10.4983 0.280084C10.26 0.38124 10.1488 0.656395 10.25 0.894706C10.25 0.894786 10.25 0.894865 10.2501 0.894945L7.61312 2.01444C7.51194 1.77631 7.23678 1.66526 6.99858 1.76634L6.61702 1.92834C6.0173 2.18301 5.54457 2.67965 5.31999 3.29113L5.12828 3.81299L4.39783 3.9419C4.04711 3.88644 2.60445 3.65807 2.11184 3.57595C1.76258 3.51782 1.42752 3.60679 1.16807 3.82668C0.798551 4.13971 0.603271 4.68219 0.603271 5.39563C0.603271 6.55132 1.21972 7.02213 1.29003 7.07206C1.3693 7.12831 1.46413 7.15854 1.5613 7.15854H2.66599C2.83713 7.15854 2.99473 7.06526 3.07704 6.91517C3.07704 6.91517 3.14646 6.80604 3.34521 6.83998C3.63232 6.88868 4.1095 7.17677 4.38194 7.3721L5.36438 8.71952L5.44923 9.91806C5.4969 10.5917 5.95318 11.1609 6.58425 11.3626L7.93748 13.2159C7.98262 13.2777 8.0422 13.3275 8.111 13.361L10.6989 14.62C10.6842 14.6818 10.6527 14.725 10.6016 14.795L10.6014 14.7951C10.4926 14.9439 10.3283 15.1687 10.278 15.5909C10.2063 16.1933 10.4583 16.5699 10.6424 16.8449V16.845L10.6426 16.8453C10.7257 16.9694 10.7975 17.0767 10.8389 17.1936C10.9738 17.5738 11.2436 17.7461 11.4048 17.849H11.4049C11.4394 17.8711 11.4848 17.9001 11.5057 17.9177C11.5062 17.9221 11.5067 17.9282 11.5069 17.936C11.5143 18.1779 11.3183 19.4942 11.1752 20.4553L11.175 20.4569C11.0395 21.3672 10.9225 22.1532 10.9074 22.4317C10.8623 23.2666 11.7645 23.8624 11.8675 23.9276C11.9438 23.9758 12.0308 24.0002 12.1182 24.0002C12.191 24.0002 12.264 23.9833 12.331 23.949C12.4785 23.8739 12.5754 23.7264 12.586 23.5613L12.6308 22.8588C12.7143 22.5114 12.8192 22.1075 12.8659 21.9646C13.0047 21.8004 13.2443 21.4769 13.7395 20.8082L13.7403 20.8071C14.2048 20.1801 14.7226 19.4751 14.99 19.1107C15.0436 19.0376 15.1155 18.9788 15.1978 18.9403C15.5514 18.7753 15.8117 18.4645 15.912 18.0873L16.1204 17.3035L16.3593 16.9698C16.5398 16.7177 16.5965 16.4016 16.5148 16.1025C16.4331 15.8031 16.2237 15.5597 15.9402 15.4344ZM19.0795 1.49639C18.78 1.01325 18.3099 0.67772 17.7556 0.551533C17.4686 0.486142 17.1767 0.481314 16.8879 0.537095L14.9191 0.917158C14.896 0.921611 14.8732 0.927846 14.851 0.935721L14.0546 1.21885C13.5483 1.39889 13.2081 1.88095 13.2081 2.41833C13.2081 3.01955 13.6181 3.53058 14.205 3.66103C14.3365 3.69028 14.4491 3.78056 14.5062 3.90253L14.8509 4.63875C14.8587 4.65553 14.8578 4.67517 14.8483 4.69121C14.6667 4.99988 14.6656 5.38406 14.8452 5.69396L15.4747 6.77902C15.6042 7.00238 15.845 7.14113 16.1033 7.14113C16.4013 7.14113 16.6736 6.95438 16.7808 6.67692L16.7846 6.66741C17.0246 6.04613 17.4815 5.53336 18.0711 5.22347C18.6195 4.93538 19.0174 4.42481 19.163 3.82261L19.337 3.10238C19.4704 2.54991 19.379 1.97958 19.0795 1.49639Z"/></svg>
