<svg width="24" height="22" viewBox="0 0 24 22" xmlns="http://www.w3.org/2000/svg"><path fill-rule="evenodd" clip-rule="evenodd" d="M13.1065 20.8765C13.273 20.9868 13.4527 21.0415 13.6296 21.0415C13.8347 21.0415 14.0358 20.9679 14.2074 20.8222C14.6305 20.4626 14.8111 19.7242 14.5938 19.2421C14.5143 19.0658 14.3938 18.9188 14.2875 18.7892L14.2801 18.78C14.3728 18.7553 14.4817 18.7343 14.5953 18.7124H14.5955C14.9525 18.6435 15.357 18.5655 15.6716 18.3014C16.2759 17.7938 15.981 17.3207 15.855 17.1186L15.8538 17.1167C15.8213 17.0645 15.7905 17.0151 15.7676 16.9644C15.6847 16.7818 15.8429 16.4211 15.97 16.1313L15.9701 16.1312C16.0146 16.0297 16.0606 15.9247 16.0988 15.8237C16.1152 15.78 16.1309 15.7374 16.1461 15.6961C16.1722 15.6252 16.2041 15.5385 16.2327 15.4715C16.2497 15.4805 16.2691 15.4916 16.2912 15.505C17.0457 15.9637 17.4798 15.7275 17.8287 15.5377L17.8288 15.5376L17.8297 15.5372C17.9551 15.4689 18.0736 15.4045 18.2254 15.3566C18.4406 15.2887 18.8295 15.4496 19.173 15.5916L19.1742 15.5921C19.5219 15.736 19.8814 15.8847 20.2482 15.9074C20.6095 15.9298 20.9727 15.8715 21.3239 15.8151L21.3259 15.8148C21.4818 15.7898 21.629 15.7662 21.7667 15.7514C21.8981 15.7374 22.0481 15.7311 22.2068 15.7245C22.5655 15.7095 22.9721 15.6925 23.3262 15.5732C23.6512 15.4637 23.8849 15.2455 23.9675 14.9745C24.041 14.7335 23.9883 14.4793 23.8191 14.2587C23.5857 13.9542 23.2064 13.8958 22.9293 13.8531L22.9253 13.8525C22.8572 13.842 22.7873 13.8312 22.7474 13.82C22.4061 13.7253 22.1586 13.5534 22.0318 13.3228C21.9173 13.1149 21.9039 12.8621 21.9919 12.5715C22.0203 12.4775 22.0695 12.3696 22.1216 12.2553C22.2764 11.916 22.4688 11.4937 22.2758 11.0437C22.112 10.6617 21.7776 10.3184 21.4826 10.0155L21.4825 10.0154L21.4732 10.0058L21.5005 9.983L21.501 9.9826C21.7637 9.763 22.0354 9.5359 22.3076 9.3321C22.3338 9.3124 22.3804 9.2835 22.4257 9.2554L22.427 9.2546C22.5298 9.1909 22.6463 9.1187 22.7392 9.0277C23.0397 8.73329 23.1669 8.29543 23.0557 7.9381C22.9564 7.61893 22.6903 7.3996 22.3255 7.33632C22.2246 7.31876 22.107 7.30875 21.971 7.29718L21.9671 7.29685C21.8138 7.28386 21.4887 7.2563 21.3246 7.2046C21.3679 7.03589 21.4448 6.70331 21.1701 6.3885C21.0305 6.22861 20.864 6.17962 20.7437 6.1613C20.7384 6.10247 20.7299 6.02803 20.709 5.9408C20.5769 5.38781 20.2438 4.96073 19.9499 4.58385L19.9413 4.57286L19.9412 4.5727C19.8864 4.50236 19.8316 4.43206 19.7782 4.36091C19.6919 4.24588 19.5894 4.12987 19.4809 4.0071C19.2987 3.80104 19.072 3.54454 19.0148 3.3733C18.9702 3.23985 18.9947 3.03158 19.0207 2.81103C19.0542 2.52692 19.0921 2.20494 19.0013 1.88412C18.8444 1.32968 18.3627 0.95853 17.8012 0.95853H17.7944C17.0264 0.9626 16.7278 1.55913 16.5302 1.95377V1.95383C16.2691 2.47521 16.0121 3.0078 15.7637 3.52287L15.7625 3.52527L15.7621 3.52608C15.6366 3.78639 15.511 4.0467 15.3845 4.30649C15.33 4.41846 15.2734 4.56016 15.2079 4.72425L15.2078 4.72452L15.2071 4.72631C15.0974 5.00074 14.9612 5.34174 14.8046 5.60784C14.6202 5.92138 14.5093 5.95933 14.5023 5.96175V5.96176C14.5021 5.96182 14.502 5.96186 14.5019 5.96187C14.5019 5.96188 14.5019 5.96189 14.5019 5.96189C14.43 5.96034 14.3958 5.94712 14.3902 5.94319C14.3236 5.87363 14.3344 5.48661 14.3391 5.32086V5.32085V5.32045V5.32011C14.3486 4.98248 14.3583 4.63345 14.2015 4.35102C13.9032 3.81388 13.1365 3.64279 12.5766 3.51786C12.4818 3.49672 12.3922 3.47671 12.3242 3.45875L12.3239 3.45867C12.1074 3.40153 11.9511 3.36025 11.7708 3.40672C11.5409 3.46601 11.4283 3.62771 11.329 3.77034L11.3289 3.77038L11.3268 3.77346C11.3057 3.80378 11.2814 3.83872 11.2522 3.87857L10.1957 5.32429C10.0606 5.50912 9.93314 5.70858 9.79819 5.91975L9.79759 5.92068C9.45203 6.46119 9.09485 7.01985 8.65237 7.25161C8.61176 7.27288 8.57368 7.29256 8.53792 7.31103L8.51803 7.32132C7.90631 7.63716 7.75181 7.79082 7.63823 8.57687L7.62899 8.64001C7.56609 9.0656 7.47112 9.7088 7.86168 10.1047C8.01004 10.2551 8.28482 10.4212 8.75039 10.3589C8.8807 10.3414 8.98739 10.2954 9.07308 10.251C9.10401 10.3208 9.14986 10.3978 9.222 10.4698C9.4312 10.6786 9.70955 10.7881 10.0069 10.7785C10.3484 10.7673 10.6823 10.6037 10.9231 10.3295C11.2161 9.9958 11.4716 9.3977 11.3929 8.90017C11.3529 8.64741 11.267 8.49202 11.2102 8.38923L11.1952 8.36204C11.1972 8.35524 11.2 8.34685 11.2036 8.33677C11.3424 7.95033 11.7252 7.47872 11.8836 7.44263C11.9881 7.50327 12.1151 7.84329 12.1844 8.02876V8.02879L12.1845 8.0289C12.2568 8.22254 12.3316 8.42279 12.4356 8.5898C12.4403 8.5973 12.4517 8.61943 12.4599 8.63555C12.4967 8.70723 12.5685 8.84663 12.6951 8.95388C12.6078 8.99359 12.5169 9.0403 12.431 9.1019C12.0242 9.3933 11.7043 9.7951 11.5534 10.2041C11.4969 10.3572 11.4721 10.5019 11.4502 10.6296L11.4501 10.6299C11.4286 10.7559 11.4099 10.8646 11.3659 10.948C11.2696 11.1306 11.1394 11.2615 10.9562 11.3601C10.8829 11.3996 10.7994 11.4342 10.708 11.4631C10.4739 11.537 10.3384 11.7772 10.3907 12.0124C10.0793 12.0575 9.75277 12.0665 9.43959 12.075H9.43956H9.43954L9.37277 12.0769L9.37185 12.0616C9.35221 11.803 9.1252 11.609 8.86579 11.6289L8.85895 11.6294C8.6002 11.649 8.40834 11.8746 8.42803 12.1333C8.42892 12.1452 8.43026 12.1569 8.43202 12.1685C8.08145 12.2479 7.72879 12.3832 7.38459 12.5514L7.37769 12.5389C7.24921 12.3134 6.96238 12.2348 6.73682 12.3632C6.10564 12.7229 5.53812 13.1503 5.16622 13.4406L5.10172 13.4906H5.10168C4.82128 13.7072 4.47232 13.9769 4.33395 14.4402C4.27593 14.6345 4.28626 14.8083 4.2938 14.9352L4.29382 14.9356C4.29734 14.9935 4.30085 15.0533 4.29481 15.0807C4.25056 15.2812 4.11978 15.5245 3.99129 15.7612L3.89763 15.716L3.89499 15.7147H3.89494C3.56104 15.5536 3.21593 15.3871 2.86877 15.2327C2.059 14.8726 1.45337 15.0895 1.01748 15.8959C0.938169 16.0425 0.854637 16.1897 0.766184 16.3455C0.520605 16.7781 0.266729 17.2253 0.088556 17.6934C-0.205618 18.4666 0.304554 18.8345 0.57869 19.0323H0.57873L0.579382 19.0327L0.579416 19.0328C0.678209 19.1041 0.771557 19.1714 0.845122 19.2509C0.910747 19.3218 0.958325 19.3849 1.00431 19.4459C1.21581 19.7265 1.42572 19.9379 2.03224 19.8989C2.17769 19.8894 2.313 19.9106 2.4694 19.9352L2.47211 19.9356C2.61241 19.9577 2.77141 19.9827 2.95249 19.987C3.64677 20.0037 4.12539 19.4195 4.47505 18.9927L4.47532 18.9923C4.556 18.8938 4.63226 18.8007 4.69976 18.7284L4.74636 18.6784L4.74657 18.6782H4.74659H4.7466C4.92528 18.4861 5.07963 18.3202 5.27145 18.2235C5.37612 18.1708 5.45755 18.14 5.5363 18.1102C5.81089 18.0062 6.00894 17.9098 6.25002 17.5305C6.31649 17.4259 6.3553 17.3825 6.37269 17.3658C6.44743 17.3677 6.64207 17.4213 6.72936 17.4453L6.7294 17.4454H6.72944L6.72993 17.4455C7.27302 17.5951 7.58221 17.4514 7.90963 17.2992C7.9491 17.2808 7.99068 17.2615 8.03521 17.2415C8.12076 17.203 8.17303 17.1905 8.19946 17.1865C8.23889 17.2387 8.29634 17.3636 8.33621 17.4503L8.33662 17.4512C8.44129 17.6792 8.57165 17.9629 8.8215 18.1899C8.84191 18.2084 8.89982 18.2655 8.96405 18.3289L8.98214 18.3467C9.16059 18.5229 9.43027 18.7892 9.67706 19.0103C10.0579 19.3513 10.331 19.5673 10.6504 19.4649C10.7746 19.4251 10.8783 19.3346 10.9349 19.2166C11.0428 18.9915 10.9941 18.8642 10.6767 18.0359C10.5647 17.7437 10.3686 17.2319 10.2579 16.8754C10.4149 16.9678 10.6354 17.127 10.9152 17.3907C11.358 17.8078 11.6191 18.1778 11.6632 18.287C11.6666 18.3205 11.6623 18.3889 11.659 18.4401C11.6497 18.5876 11.6382 18.771 11.7032 18.9621C11.7715 19.163 11.9105 19.3294 12.0331 19.4762C12.0722 19.523 12.1091 19.5672 12.1313 19.5984C12.1923 19.6843 12.2608 19.7992 12.3333 19.9208L12.3334 19.9209V19.921C12.5382 20.2644 12.7702 20.6536 13.1065 20.8765ZM4.19563 12.982C4.3318 12.9849 4.47345 12.9878 4.61764 12.9878C5.33131 12.9878 6.10442 12.9144 6.55227 12.39C6.84683 12.045 6.94255 11.5726 6.83675 10.986C6.79302 10.7433 6.71539 10.5032 6.6403 10.271L6.64023 10.2708C6.54219 9.9675 6.44961 9.6811 6.44474 9.4362C6.44338 9.3699 6.48343 9.2232 6.51579 9.1046L6.51627 9.1028L6.51629 9.1027C6.62124 8.71842 6.77982 8.13773 6.33931 7.71687C5.95883 7.35321 5.24713 7.29317 4.77064 7.42137C4.37431 7.52796 4.10422 7.76529 4.01 8.08962C3.90866 8.43842 3.9688 8.76514 4.02186 9.0534C4.06386 9.2815 4.10005 9.4784 4.05144 9.6388C3.96186 9.9342 3.82456 10.2306 3.6792 10.5443C3.60589 10.7025 3.53014 10.866 3.46109 11.0295C3.45228 11.0502 3.42964 11.0968 3.40775 11.1418C3.15013 11.6713 2.92063 12.2233 3.18238 12.6417C3.2607 12.7669 3.45055 12.9769 3.84224 12.9769C3.95195 12.9769 4.06998 12.9793 4.19492 12.982H4.19563Z"/></svg>
