<svg width="23" height="20" viewBox="0 0 23 20" xmlns="http://www.w3.org/2000/svg"><path fill-rule="evenodd" clip-rule="evenodd" d="M4.413 2.942a1.471 1.471 0 1 1 0-2.942 1.471 1.471 0 0 1 0 2.942zm-.606 8.237l-.573 8.136a.733.733 0 0 1-.785.683.736.736 0 0 1-.681-.783l.586-8.342V8.179c-.305 1.017-.616 2.035-.912 3.059a.831.831 0 0 1-.07.164.767.767 0 0 1-.32.295.916.916 0 0 1-.214.065c-.045.006-.043.006-.088.006a.776.776 0 0 1-.304-.06.75.75 0 0 1-.44-.57.846.846 0 0 1 .011-.27C.603 8.602 1.322 6.367 1.976 4.12H6.85c.653 2.247 1.373 4.483 1.958 6.748a.847.847 0 0 1 .011.27.749.749 0 0 1-.44.57.771.771 0 0 1-.303.06c-.045 0-.044 0-.089-.006a.774.774 0 0 1-.535-.36.918.918 0 0 1-.069-.164c-.297-1.024-.606-2.042-.912-3.06v2.695l.586 8.342a.734.734 0 1 1-1.466.1l-.572-8.136H3.807zM11.03.024h.346V19.88h-.346V.024zm9.184 4.315l1.772 6.62a.725.725 0 1 1-1.398.379L19.55 7.53l-.166 1.446 1.01 5.813h-.777l.202 4.414a.724.724 0 0 1-.207.549.731.731 0 0 1-.518.233.7.7 0 0 1-.694-.669l-.233-4.527h-.722l-.191 4.49a.762.762 0 0 1-.751.69.692.692 0 0 1-.71-.73l.207-4.45h-.844l1.035-5.818-.13-1.502-1.035 3.864a.736.736 0 1 1-1.425-.373L15.4 4.34l4.813-.001zM17.809.282a1.445 1.445 0 1 1-.01 2.891 1.445 1.445 0 0 1 .01-2.89z"/></svg>
