<svg width="24" height="24" viewBox="0 0 24 24" xmlns="http://www.w3.org/2000/svg">
<path d="M18.67 3.63001L16.2 2.20002C15.32 1.69001 14.21 2.19001 14 3.18L13.64 4.85999C13.507 5.4585 13.7706 6.06617 14.2766 6.40064L10.05 13.73L8.20001 16.93L8.83001 13.03L8.32 12.74C7.84997 12.46 7.23998 12.62 6.96996 13.1L4.97997 16.54C4.43999 17.47 4.45 18.62 4.98998 19.55L6.12999 21.48C6.30998 21.78 6.62999 21.96 6.96996 21.97L9.24999 22C10.33 22.01 11.33 21.44 11.87 20.51L13.85 17.07C14.13 16.6 13.96 15.99 13.49 15.72L11.77 14.72L15.9952 7.39308C16.5411 7.66981 17.2031 7.58931 17.66 7.18001L18.93 6.02999C19.68 5.35 19.55 4.14002 18.67 3.63001ZM16.66 6.06L15.1 5.15998L15.46 3.49L17.92 4.93L16.66 6.06Z"/>
</svg>
