<svg width="24" height="18" viewBox="0 0 24 18" xmlns="http://www.w3.org/2000/svg"><path fill-rule="evenodd" clip-rule="evenodd" d="M0 .792V0h6.66s-.006.357 0 .792v.792H1.584V6.66H.792c-.435-.006-.792 0-.792 0V.792zm5.496 2.532h2.04v11.232h-2.04V3.324zm2.916 0h3.384v11.232H8.412V3.324zM0 11.232h1.584v5.052H6.66v1.584H0v-6.636zm3.372-7.908h.876v11.232h-.876V3.324zm16.38 0h.876v11.232h-.876V3.324zM17.34.792V0H24v6.66h-1.584V1.584H17.34s.006-.357 0-.792zm.9 2.532h.432v11.232h-.432V3.324zm-3.876 0h-1.452v11.232h1.452V3.324zm2.976 12.96v1.608H24v-6.684h-1.584v5.076H17.34zm.36-12.96h-2.304v11.232H17.7V3.324z"/></svg>