<svg width="16" height="20" viewBox="0 0 16 20" xmlns="http://www.w3.org/2000/svg"><path d="M.355 5.216S.11 1.999.001.618C-.01.454.073.3.237.182.401.064.628 0 .865 0h1.154c.455 0 .882.127 1.2.345.319.218.5.51.5.818v3.435l3.365 8.042h7.102c.509 0 .99.163 1.31.436.317.272.435.636.308.963-.054.164-.109.318-.154.463-.091.255-.437.437-.819.437H4.438c-.418 0-.791-.191-.891-.482-.682-1.954-3.2-9.241-3.2-9.241h.008Z"/><path d="M10.303 9.614H4.274a.736.736 0 0 0-.736.736v.045c0 .407.33.736.736.736h6.029c.407 0 .736-.33.736-.736v-.045a.736.736 0 0 0-.736-.736ZM11.458 19.964a.259.259 0 0 1-.173-.082l-4.992-6.206.91-.818L12.948 20l-1.491-.027v-.01ZM5.984 14.357h-1.2a.082.082 0 0 0-.082.082V19.9c0 .045.036.082.082.082h1.2a.082.082 0 0 0 .082-.082v-5.461a.082.082 0 0 0-.082-.082Z"/></svg>
