<svg height="21" viewBox="0 0 16 21" width="16" xmlns="http://www.w3.org/2000/svg"><path d="m11.226 1.738h-6.316v1.053h6.316zm-3.158 3.422a1.317 1.317 0 1 1 0 2.633 1.317 1.317 0 0 1 0-2.633zm1.557 3.684 1.064-1.053v-2.754a.664.664 0 1 1 1.328.005v3.276l-2.105 2.122v3.921l.525 5.882a.659.659 0 0 1 -1.313.092l-.512-5.701h-1.084l-.512 5.701a.658.658 0 0 1 -1.313-.092l.525-5.882v-3.941l-2.107-2.105v-3.273a.664.664 0 0 1 1.328 0v2.749l1.075 1.053zm5.548 12.105h-1.579v-17.368h-11.052v17.365h-1.579v-19.997h14.211v20z" fill-rule="evenodd"/></svg>