<svg xmlns="http://www.w3.org/2000/svg" width="18" height="18" viewBox="0 0 18 18"><path fill-rule="evenodd" d="M7.42 2.436L7.882 0h2.236l.462 2.436c.695.168 1.35.442 1.943.807l2.05-1.398 1.582 1.581-1.398 2.05c.365.595.64 1.249.807 1.944L18 7.882v2.236l-2.436.462a6.721 6.721 0 0 1-.807 1.944l1.398 2.05-1.581 1.581-2.05-1.398a6.721 6.721 0 0 1-1.944.807L10.118 18H7.882l-.462-2.436a6.721 6.721 0 0 1-1.943-.807l-2.05 1.398-1.582-1.581 1.398-2.05a6.721 6.721 0 0 1-.807-1.944L0 10.118V7.882l2.436-.462c.168-.695.442-1.35.807-1.944l-1.398-2.05 1.581-1.581 2.05 1.398a6.721 6.721 0 0 1 1.944-.807zM9 5.85a3.151 3.151 0 0 1 0 6.3 3.151 3.151 0 0 1 0-6.3z"/></svg>