<svg width="18" height="17" viewBox="0 0 18 17" xmlns="http://www.w3.org/2000/svg"><path fill-rule="evenodd" clip-rule="evenodd" d="M15.275 17h-.55c-.4 0-.725-.419-.725-.931v-.319h2v.319c0 .512-.325.931-.725.931Zm.662-2H14l.077-9.5H16c.01 1.165-.063 8.433-.062 9.5ZM18 1.75v3h-5.765a.726.726 0 0 1-.524-.207.702.702 0 0 1-.21-.516l.003-.286c.731-1.537.922-1.954 1.525-1.959L18 1.75ZM14.5 0h1a.5.5 0 0 1 .5.5V1h-2V.5a.5.5 0 0 1 .5-.5ZM5.582 11.26c-.453 1.143-.64 2.478-.67 2.713a2.622 2.622 0 0 1-.213 1.452 2.709 2.709 0 0 1-.703.945c-.244.208-.527.376-.834.486a2.47 2.47 0 0 1-.837.144 2.34 2.34 0 0 1-1.301-.402 2.291 2.291 0 0 1-.627-.642 2.493 2.493 0 0 1-.39-1.535 2.705 2.705 0 0 1 1.656-2.302 2.503 2.503 0 0 1 .764-.181 2.345 2.345 0 0 1 1.494.402c.127-.986.433-1.909.433-1.909l.382-.97C3.878 7.689 2.588 5.018 1.73 2.845c0 0-.847-2.178.967-2.845l2.884 7.314L8.467 0c1.814.667.967 2.845.967 2.845C8.578 5.018 7.287 7.689 6.43 9.46l.383.97s.305.923.431 1.909a2.286 2.286 0 0 1 1.001-.387 2.39 2.39 0 0 1 .914.053c.118.029.233.067.345.113a2.705 2.705 0 0 1 1.656 2.302 2.496 2.496 0 0 1-.39 1.535 2.32 2.32 0 0 1-.629.642 2.336 2.336 0 0 1-1.3.402c-.286.001-.57-.05-.836-.145a2.637 2.637 0 0 1-.834-.486 2.711 2.711 0 0 1-.93-2.283c.003-.038.008-.076.013-.113-.03-.236-.217-1.57-.67-2.712Zm1.763 3.75a1.78 1.78 0 0 0 .451.638c.15.136.327.247.52.321.157.06.324.095.493.099a1.335 1.335 0 0 0 .741-.208 1.302 1.302 0 0 0 .373-.363c.041-.06.078-.122.11-.186.206-.423.202-.92.032-1.35-.195-.494-.618-.917-1.163-1.054a1.413 1.413 0 0 0-.529-.031 1.317 1.317 0 0 0-.695.321 1.384 1.384 0 0 0-.3.39c-.094.18-.149.377-.168.575a1.717 1.717 0 0 0 .135.848Zm-3.525 0c.017-.04.017-.04.032-.081a1.717 1.717 0 0 0 .102-.766 1.573 1.573 0 0 0-.166-.575 1.393 1.393 0 0 0-.3-.391 1.292 1.292 0 0 0-.696-.321 1.4 1.4 0 0 0-.53.031c-.544.137-.967.56-1.162 1.055-.17.43-.174.926.033 1.349a1.367 1.367 0 0 0 .482.55 1.296 1.296 0 0 0 .74.207c.17-.004.337-.04.494-.099.193-.074.369-.185.52-.321a1.768 1.768 0 0 0 .451-.638Z"/></svg>
