<svg xmlns="http://www.w3.org/2000/svg" width="18" height="13" viewBox="0 0 18 13"><path fill-rule="evenodd" d="M6.942 6.5a12.602 12.602 0 0 0-2.923-.756 3.618 3.618 0 0 1-1.366-.093l-.1.003.027-.022a3.914 3.914 0 0 1-.46-.16C1.26 5.105.523 4.42.187 3.54a2.705 2.705 0 0 1-.184-.9 2.48 2.48 0 0 1 .255-1.169 2.46 2.46 0 0 1 .451-.63c.234-.235.513-.424.815-.56A3.258 3.258 0 0 1 2.675.004a3.781 3.781 0 0 1 2.172.563c.315.194.6.435.842.713.26.3.466.645.6 1.019.11.31.168.641.159.972a2.414 2.414 0 0 1-.45 1.351c1.216.347 2.296.846 2.296.846l.393.19c1.799-1.022 3.225-2.276 5.115-3.076 1.756-.744 3.564-1.229 4.198.257L10.427 6.5 18 10.16c-.634 1.486-2.442 1.001-4.198.257-1.89-.8-3.316-2.054-5.115-3.076l-.393.19s-1.08.499-2.296.846a2.41 2.41 0 0 1 .45 1.351 2.69 2.69 0 0 1-.16.972c-.133.374-.34.718-.599 1.019-.241.278-.527.52-.842.713a4.13 4.13 0 0 1-.676.33c-.48.173-.985.261-1.496.233a3.258 3.258 0 0 1-1.152-.276 2.751 2.751 0 0 1-.815-.561 2.443 2.443 0 0 1-.707-1.798 2.705 2.705 0 0 1 .185-.9c.336-.88 1.073-1.566 1.935-1.931.149-.063.302-.117.459-.16l-.027-.023.1.003c.445-.116.911-.15 1.366-.093A12.602 12.602 0 0 0 6.942 6.5zm-3.216 4.927a2.37 2.37 0 0 1-.88.168 1.876 1.876 0 0 1-.632-.111 1.45 1.45 0 0 1-.407-.227 1.043 1.043 0 0 1-.346-.496c-.158-.485.073-1.009.399-1.369a2.15 2.15 0 0 1 .399-.346 2.432 2.432 0 0 1 1.156-.407c.077-.006.155-.008.234-.005.478.016 1.003.206 1.252.638a1.024 1.024 0 0 1 .135.587 1.382 1.382 0 0 1-.105.444c-.08.197-.2.376-.342.533a2.32 2.32 0 0 1-.863.591zm0-9.854a2.37 2.37 0 0 0-.88-.168c-.214.002-.43.037-.632.111a1.45 1.45 0 0 0-.407.227 1.043 1.043 0 0 0-.346.496c-.158.485.073 1.009.399 1.369a2.15 2.15 0 0 0 .399.346 2.432 2.432 0 0 0 1.156.407c.077.006.155.008.234.005.478-.016 1.003-.206 1.252-.638a1.024 1.024 0 0 0 .135-.587 1.382 1.382 0 0 0-.105-.444 1.847 1.847 0 0 0-.342-.533 2.32 2.32 0 0 0-.863-.591z"/></svg>