<svg xmlns="http://www.w3.org/2000/svg" width="17" height="18" viewBox="0 0 17 18"><path fill-rule="evenodd" d="M12.208 13.151a2.83 2.83 0 0 1 1.959-.776A2.824 2.824 0 0 1 17 15.188C17 16.74 15.73 18 14.167 18c-1.564 0-2.834-1.26-2.834-2.813 0-.19.02-.37.056-.55l-6.597-3.6a2.83 2.83 0 0 1-1.959.775A2.823 2.823 0 0 1 0 9c0-1.553 1.27-2.813 2.833-2.813.76 0 1.45.293 1.959.777l6.597-3.6a2.756 2.756 0 0 1-.056-.551C11.333 1.26 12.603 0 14.167 0S17 1.26 17 2.813c0 1.552-1.27 2.812-2.833 2.812a2.83 2.83 0 0 1-1.959-.776l-6.597 3.6a2.756 2.756 0 0 1 0 1.102l6.597 3.6z"/></svg>