<svg xmlns="http://www.w3.org/2000/svg" width="16" height="16" viewBox="0 0 16 16"><path fill-rule="evenodd" d="M0 14.991l.667-5.994H4v1.998h1.489l.009-1.998H10.5v1.998h1.487L12 8.997h3.333L16 14.99S16.07 16 14.99 16H1.011C-.068 16 0 14.991 0 14.991zm1.012-8.992h2.977V4.001a3.925 3.925 0 0 1 .353-1.648c.212-.47.515-.9.887-1.249a4.1 4.1 0 0 1 1.203-.79c.396-.169.82-.269 1.249-.299.438-.04.882 0 1.307.11.408.11.8.28 1.155.5a4.024 4.024 0 0 1 1.798 2.757c.026.17.04.34.045.51.01.709.003 1.398.002 2.107H15l.222 1.999H.778L1 5.999h.012zm4.477 0h5c-.003-.689.006-1.378-.002-2.068a2.535 2.535 0 0 0-.22-.959 2.507 2.507 0 0 0-3.96-.829 2.57 2.57 0 0 0-.572.77c-.154.32-.232.669-.246 1.018-.008.68 0 1.36 0 2.029V6z"/></svg>