<svg height="18" viewBox="0 0 18 18" width="18" xmlns="http://www.w3.org/2000/svg"><path d="m5.41 5.04-.205-.335c-.252-.41-.515-.82-.803-1.215l-.205-.29c-.798-1.235-2.058-1.5-3.904-1.5h-.267v-1.7h.231c3.39 0 4.413.67 5.4 2.27l.18.25c.298.425.592.865.859 1.305l.206.335zm5.873-.834.855 1.513-8.151 4.61-.856-1.513z"/><path d="m4.522 5.158 2.943-1.64c.849-.473 1.91-.188 2.369.637l-6.02 3.355c-.458-.827-.14-1.88.708-2.352zm6.612 4.215-1.048.754-1.063-1.477 1.048-.754zm-2.148 1.352-1.191.5-.703-1.68 1.19-.498zm-2.189 1.261-1.25.324-.457-1.761 1.25-.324zm6.396-3.927-.916.91-1.283-1.292.916-.91zm-.446 3.587-1.047.754-1.063-1.477 1.048-.754zm-2.568 1.629-1.191.498-.703-1.679 1.19-.498zm-2.69 1.509-1.253.312-.44-1.766 1.252-.312zm7.888-4.697-.916.91-1.283-1.292.916-.91zm-.991 3.875-1.048.754-1.062-1.477 1.048-.754zm-3.034 1.821-1.19.499-.704-1.679 1.191-.498zm-3.17 1.84-1.25.325-.457-1.762 1.25-.324zm9.321-5.52-.916.91-1.282-1.291.916-.91z"/></svg>