<svg xmlns="http://www.w3.org/2000/svg" width="18" height="18" viewBox="0 0 18 18">
    <path fill="#002776" fill-rule="nonzero" d="M2.65 12.93c.221.546.101.961-.33 1.136l-.1-.266c.297-.13.37-.408.21-.81-.13-.323-.338-.465-.552-.377-.177.068-.218.232-.154.6l.027.157.024.135c.045.274.052.373.026.488a.442.442 0 0 1-.284.313c-.334.14-.66-.063-.843-.522-.198-.495-.09-.866.287-1.038l.106.268c-.252.143-.31.356-.176.687.118.298.308.429.504.347.163-.063.19-.203.122-.565l-.027-.14c-.064-.355-.079-.505-.034-.662a.461.461 0 0 1 .293-.341c.358-.144.697.077.9.59zM2.053 9.1l.007.376-1.02.854.332.37.718-.019.005.3-2.06.044-.002-.298.806-.014h.114l.104-.004-.068-.072-.07-.074-.909-.986L0 9.185l.843.938L2.053 9.1zM.906 5.712l.847 1.214.793.278-.1.283-.79-.283-1.421.43.12-.341.881-.246.11-.03c.042-.015.07-.02.148-.039-.068-.08-.085-.098-.158-.2l-.544-.739.114-.327zm1.943-2.824l.296.243-.435.534 1.298 1.066-.31.381-1.3-1.064-.432.533-.293-.244L2.85 2.888zM5.726.844l.196.331-1.04.609.223.382.95-.56.182.308-.956.557.257.435 1.056-.621.19.33-1.484.87-1.033-1.783 1.46-.858zM11.38 0l.692.133.095.957c.024.224.029.41.022.679.077-.155.107-.205.19-.345.062-.097.116-.172.166-.242l.538-.78.655.222-.53 2.01-.436-.16.166-.614c.014-.072.042-.171.083-.299a4.29 4.29 0 0 1 .085-.303c.024-.083.053-.168.078-.26l.048-.146c-.121.212-.17.284-.283.453-.044.075-.09.136-.126.188l-.582.823-.376-.102-.116-.986a2.216 2.216 0 0 1-.016-.22l-.02-.297a2.284 2.284 0 0 1 0-.25l-.052.25c-.061.271-.09.39-.172.713l-.168.665-.46-.07L11.38 0zM8.69.003L9.902 1.98l-.538.031-.267-.444-.829.133-.115.506-.512.132.54-2.253.509-.08zm-.186.49a3.71 3.71 0 0 1-.087.468l-.085.395.599-.096-.206-.345a3.142 3.142 0 0 1-.221-.422zm-.448 7.28l-.545.521a7.108 7.108 0 0 0-1.324-.12c-1.003 0-1.917.278-2.34.71-.16.167-.237.34-.234.528.013.487.563.733.734.797.89.332 1.636.237 2.42-.317.434-.302.956-.793 1.359-1.185.32.071.68.168 1.064.285l.359.103c-.461.457-.936.938-1.376 1.325l-.036.029c-.612.537-1.05.935-1.689 1.078-.448.096-.768 0-.875-.062-.01 0-.021.022-.021.022.37.304.718.477 1.321.425.57-.05 1.233-.414 1.911-1.05l.91-.898.644-.639c0 .004 1.293.38 1.293.38.013.008-.777.79-.777.79l-.689.69c-.705.685-1.085 1.04-1.498 1.33-.683.486-1.266.739-1.777.775-.262.013-.65-.004-.969-.193-.017-.001-.035.015-.035.015.35.3.775.657 1.508.636.832-.022 1.566-.423 2.71-1.475.52-.481 1.04-1.021 1.496-1.492l.848-.87c.563.127 1.06.18 1.614.167.806-.016 1.495-.403 1.503-.848.012-.33-.257-.503-.422-.604a1.787 1.787 0 0 0-.987-.288c-.604 0-1.236.268-1.877.791l-.423.38-.156-.042-1.181-.338c.347-.325.643-.604.91-.844.65-.582 1.365-.818 1.785-.846.302-.02.834.01 1.053.162.011 0 .027-.02.027-.02-.583-.5-1.086-.57-1.5-.57-.414 0-1.067.132-1.875.758-.327.254-.754.683-1.2 1.137 0-.005-.597-.187-.597-.187l-.144-.043-.632-.193c.013 0 .362-.338.362-.338.421-.424.822-.815 1.135-1.082 1.135-.955 1.85-1.082 2.346-1.086.546 0 .977.11 1.285.336.009-.001.023-.02.023-.02-.638-.58-1.097-.767-1.888-.774-.694-.005-1.522.386-2.335 1.097-.251.22-.745.697-1.218 1.157zm6.495.927c.18.005.4.058.4.287 0 .23-.22.425-.647.58-.381.131-.959.17-1.591.096.175-.154.322-.279.446-.358.59-.404 1.088-.616 1.392-.605zm-10.284.877c0-.033.023-.943 2.085-1.044.236-.012.499-.023.897.022-.017.004-.234.203-.234.203l-.127.12c-.498.45-1.332 1.212-2.077 1.16-.367-.025-.544-.174-.544-.46zM14.37 1.082c.04.022.104.066.133.018.019-.033-.022-.065-.056-.087l-.09-.048-.041.087.054.03zm.045.279l-.058-.034-.012-.202-.05-.026-.086.15-.048-.027.18-.325.14.075c.06.033.109.082.065.154-.032.064-.088.061-.149.032l.018.203zm.084-.487a.286.286 0 0 0-.39.108.29.29 0 0 0 .115.391c.133.076.31.026.392-.114a.285.285 0 0 0-.117-.385zm.703 3.033a8.012 8.012 0 0 1 2.78 5.536c.304 4.404-3.007 8.232-7.404 8.537a7.878 7.878 0 0 1-5.984-2.14 7.921 7.921 0 0 0 5.503 1.706c4.396-.304 7.707-4.13 7.4-8.54A8.05 8.05 0 0 0 15.2 3.907zM14.49.813a.336.336 0 1 1-.264.618.34.34 0 0 1-.18-.446.337.337 0 0 1 .445-.172z"/>
</svg>
