<svg width="16" height="22" viewBox="0 0 16 22" xmlns="http://www.w3.org/2000/svg"><path d="M9.442 1.654l5.723 1.838.495-1.552L9.904.103a2.355 2.355 0 0 0-2.894 1.43L5.668 5.186H0v15.02A1.794 1.794 0 0 0 1.794 22h8.11a1.794 1.794 0 0 0 1.794-1.794V5.186H7.406l1.1-3.092a.726.726 0 0 1 .936-.44zM2.52 16.344a1.024 1.024 0 1 1 0-2.048 1.024 1.024 0 0 1 0 2.048zm1.464-6.602H1.629V6.815h3.433L3.984 9.742zm3.103 2.97a1.023 1.023 0 1 1 0 .023v-.022zm1.871 7.626a1.023 1.023 0 1 1 1.012-1.023 1.012 1.012 0 0 1-1.012 1.045v-.022zm1.1-13.545v2.97H5.658l1.1-2.948 3.302-.022z" /></svg>
