<svg xmlns="http://www.w3.org/2000/svg" width="18" height="15" viewBox="0 0 18 15">
    <path fill-rule="evenodd" d="M12.99 7.734c.001.222-.057 2.694-3.793 4.362a.519.519 0 0 1-.416 0C4.865 10.348 4.99 7.718 4.99 7.718v-.014c.007-1.115.899-2.018 2-2.018 1.311 0 1.763.933 1.919 1.534.025.097.158.1.188.004.184-.6.668-1.538 1.892-1.538 1.105 0 2 .91 2 2.032v.016zM7.5 3.016h3V1.518h-3v1.498zm8.7 0h-4.18c0-.589-.01-1.188-.02-1.777 0-.13-.02-.25-.07-.37-.1-.32-.34-.58-.64-.729-.15-.07-.31-.11-.48-.12-1.19-.04-2.39-.01-3.59 0-.13.01-.25.03-.37.07-.32.1-.58.34-.73.64-.07.15-.11.309-.12.479-.02.599-.02 1.208-.01 1.807H1.8c-.99 0-1.8.81-1.8 1.798v8.389C0 14.19.81 15 1.8 15h14.4c.99 0 1.8-.809 1.8-1.797v-8.39c0-.987-.81-1.797-1.8-1.797z"/>
</svg>
