<svg height="15" viewBox="0 0 14 15" width="14" xmlns="http://www.w3.org/2000/svg"><path d="m6.606 1.3c.245-.504.645-.504.89 0l1.426 2.93c.245.503.893.981 1.441 1.062l3.188.47c.548.08.672.467.274.859l-2.305 2.281c-.396.392-.644 1.165-.55 1.718l.545 3.221c.093.553-.231.793-.72.531l-2.852-1.521c-.49-.26-1.292-.26-1.78 0l-2.853 1.521c-.49.262-.813.022-.72-.53l.544-3.222c.094-.553-.154-1.326-.55-1.718l-2.308-2.281c-.396-.392-.272-.778.275-.859l3.189-.47c.548-.08 1.195-.559 1.44-1.062z" fill-rule="evenodd"/></svg>