<svg xmlns="http://www.w3.org/2000/svg" width="17" height="18" viewBox="0 0 17 18"><path d="M1.196.195l5.856 6.882 9.91-.047v2.622c0 1.269-.753 1.973-2.076 1.973h-3.964L13.6 14.77a1.59 1.59 0 0 1 1.327.457 1.634 1.634 0 0 1 0 2.296 1.597 1.597 0 0 1-2.274 0 1.631 1.631 0 0 1-.174-2.08l-2.633-3.056-2.612 2.288s-.08-.18-.252-.374c-.17-.193-.73-.662-.73-.662l2.283-2.011h-3.76c-1.335 0-2.075-.688-2.075-1.951V7.099l2.58-.012L.098 1.07C-.072.88-.018.392.232.17c.316-.284.795-.166.964.026zM5.076 18c-1.05 0-1.901-.86-1.901-1.92s.851-1.92 1.902-1.92c1.05 0 1.902.86 1.902 1.92S6.127 18 5.077 18zm8.748-16.832C16.758 2.852 17 6.051 17 6.051h-6.353V.311c1.787 0 3.177.857 3.177.857z"/></svg>