<svg width="18" height="16" viewBox="0 0 18 16" xmlns="http://www.w3.org/2000/svg"><path d="M7.179 10.577h-.033c-.352 0-.664.155-.868.401L5.95 9.602l-1.966-8.39a.204.204 0 0 0-.254-.156l-.852.197-.721.172-1.663.393a.383.383 0 0 1-.46-.287L.01 1.417a.418.418 0 0 1 .312-.5l1.63-.385.72-.172 1.45-.344a.574.574 0 0 1 .69.426L6.883 9.29l.303 1.279-.008.008Z"/><path d="m2.302.076-.16.038a.287.287 0 0 0-.213.345l.236 1.005c.036.154.19.25.344.213l.16-.037a.287.287 0 0 0 .214-.345L2.647.29a.287.287 0 0 0-.345-.214ZM17.82 11.265l-7.119 1.672v-.131c0-.361-.163-.68-.426-.894L17.56 10.2c.13-.033.27.05.303.188l.13.574a.252.252 0 0 1-.188.303h.017ZM10.284 13.248a2.416 2.416 0 0 0-.32-1.049 2.458 2.458 0 0 0-2.122-1.229c-.09 0-.18 0-.262.016a2.433 2.433 0 0 0-2.18 2.425 2.442 2.442 0 0 0 2.442 2.442 2.448 2.448 0 0 0 2.442-2.441v-.172.008Zm-2.442 1.32a1.154 1.154 0 0 1-.876-1.91c.213-.246.524-.401.868-.401h.033c.262 0 .508.106.696.262.254.213.426.532.426.893v.13a1.147 1.147 0 0 1-1.147 1.017v.008ZM16.338 9.864l-6.333 1.483a2.451 2.451 0 0 0-1.925-.934c-.09 0-.18 0-.262.016H7.76L5.852 2.301 14.11.36l2.228 9.496v.008Z"/></svg>
