<svg width="21" height="19" viewBox="0 0 21 19" xmlns="http://www.w3.org/2000/svg"><path d="M13.429.4v2.532c.88.096 1.76.228 2.617.408l.137.036.103.024c.045.06.103.108.148.168.366.444.64.948.88 1.476a11.5 11.5 0 0 1 .572 1.596l2.834-.24.137 1.8-1.428.12c.148.312.24.648.274.996l.011.06v8.268c0 .42-.32.756-.731.756h-1.44c-.4 0-.72-.336-.72-.756V15.4H4.32v2.244c0 .42-.32.756-.72.756H2.149c-.4 0-.72-.336-.72-.756v-.753l.001-.21V16.2c.005-2.41.013-6.993.021-7.028.035-.216.092-.432.172-.648a1.09 1.09 0 0 1 .091-.204L.286 8.2l.137-1.8 2.823.24.011-.036c.194-.636.423-1.26.709-1.86.228-.468.491-.912.834-1.284l.057-.06c.572-.144 1.154-.24 1.737-.324.377-.06.743-.108 1.12-.144V.4h5.715zm5.074 9.6l-4.594.18c.011.6.034 1.2.057 1.8l4.605-.18-.068-1.8zM2.629 10l-.058 1.8 4.595.18.068-1.8L2.63 10zM8.57 4.672c-.925.06-1.851.18-2.765.36h-.012a7.115 7.115 0 0 0-.525 1.02c-.172.432-.32.876-.446 1.332l-.206.792h11.897c-.068-.3-.148-.6-.228-.9-.046-.132-.08-.276-.126-.408-.206-.624-.446-1.236-.789-1.788l-.022-.048a20.24 20.24 0 0 0-1.452-.228 23.969 23.969 0 0 0-2.446-.192c-.96-.036-1.92-.012-2.88.06z"/></svg>