<svg xmlns="http://www.w3.org/2000/svg" width="18" height="20" viewBox="0 0 18 20"><path fill-rule="evenodd" d="M15.05 14.383L16.49 9.5c.098-.334.474-.532.842-.443.367.09.584.434.486.767l-1.653 5.614a.65.65 0 0 1-.04.102v4.29h-1.312v-3.91h-2.326v3.91h-1.313v-3.928a.774.774 0 0 1-.616-.752c0-.367.263-.675.616-.75v-.018h1.313l-1.313.018a.81.81 0 0 1 .17-.018h3.708zm-12.257 0H6.5a.8.8 0 0 1 .17.018l-1.311-.018H6.67v.018a.773.773 0 0 1 .618.75.774.774 0 0 1-.618.752v3.927H5.36v-3.91H3.032v3.91H1.72v-4.29a.585.585 0 0 1-.04-.101L.027 9.825c-.099-.333.12-.677.486-.767.367-.089.745.11.843.443l1.437 4.882zm6.586-1.291v5.712h.976v1.026H7.353v-1.026h.977v-5.712H4.132a.519.519 0 0 1-.525-.512c0-.284.235-.513.525-.513H8.33V5.983H0c.988-2.664 3.764-4.05 8.33-4.158v-.368c0-.283.234-.513.523-.513.29 0 .526.23.526.513v.365c4.644.085 7.465 1.472 8.462 4.161H9.379v6.084h4.197c.29 0 .525.23.525.513a.518.518 0 0 1-.525.512H9.38z"/></svg>