<svg xmlns="http://www.w3.org/2000/svg" width="20" height="20" viewBox="0 0 20 20"><path fill-rule="evenodd" d="M17.879 16.383l1.48 2.435a.767.767 0 0 1-.304 1.076.855.855 0 0 1-1.134-.288L16.36 17.04a.754.754 0 0 1-.142-.44v-2.55l-.864.22-1.282 2.107v2.812c0 .435-.372.788-.83.788-.46 0-.831-.353-.831-.788v-2.964a.75.75 0 0 1 .11-.449l1.744-2.87-.35-1.238-1.414 1.453a.863.863 0 0 1-1.174.044.826.826 0 0 1-.136-.154h-.002l-1.283-2.108a.763.763 0 0 1-.11-.402L7.98 7.518v.361l1.103 10.928c.058.577-.388 1.092-.997 1.146-.608.056-1.15-.368-1.207-.946l-.751-7.442H5.67l-.75 7.442c-.058.578-.6 1.002-1.207.946-.61-.054-1.056-.569-.998-1.146l.837-8.297V8.03l-1.448 2.84c-.266.522-.928.74-1.479.487-.55-.253-.78-.882-.515-1.405l2.888-5.661v-.085h5.537v.017l3.327 5.47c.227.374.185.827-.071 1.153l.254.419 1.361-1.398.003.001-.002-.002 3.182-.81.001.004.002-.003 2.711 1.486a.786.786 0 0 1 .412.611l.278 2c.06.433-.261.828-.716.885-.455.057-.872-.247-.932-.678l-.228-1.648-.92-.504.68 2.416h.002v2.758zM14.902 6.308c.766 0 1.385.59 1.385 1.315s-.62 1.314-1.385 1.314c-.764 0-1.384-.589-1.384-1.314 0-.726.62-1.315 1.384-1.315zM5.767 0c.918 0 1.66.707 1.66 1.577s-.742 1.577-1.66 1.577c-.917 0-1.661-.706-1.661-1.577C4.106.707 4.85 0 5.766 0z"/></svg>