<svg height="18" viewBox="0 0 18 18" width="18" xmlns="http://www.w3.org/2000/svg"><path d="m10.384 10.46-.734 1.186 1.706.719.97-1.982-2.072-1.675.273 1.008a.865.865 0 0 1 -.143.744zm-2.256 3.64 5.246 2.19c.47.218.665.757.436 1.204s-.796.633-1.266.415l-12.544-5.281.014-.028 1.782-1.142 4.586 1.914.575-.928-2.21-.939 1.813-1.162 1.347.568.688-1.11-.767-2.824-.004-.002 1.314-2.165-2.933.611c-.511.107-1.016-.201-1.127-.686a.872.872 0 0 1 -.018-.275l-5.046-2.365.419-.807 5.185 2.432a.918.918 0 0 1 .182-.057l4.62-.962v-.001h.003l.001.003 2.865 1.572-1.843 3.036 2.659 2.146a.87.87 0 0 1 .212 1.129l-1.23 2.509 4.38 1.846c.47.217.666.756.437 1.203-.23.447-.796.633-1.266.415l-7.942-3.375zm4.665-14.1c.784 0 1.42.605 1.42 1.35s-.636 1.35-1.42 1.35c-.783 0-1.42-.605-1.42-1.35s.637-1.35 1.42-1.35z" fill-rule="evenodd"/></svg>