<svg xmlns="http://www.w3.org/2000/svg" width="17" height="19" viewBox="0 0 17 19"><path fill-rule="evenodd" d="M9.8 5.004C10.449 12.619 14.57 19 14.57 19h-3.885C8.585 14.397 8.24 8.326 8.219 5.158c-3.255 2.132-5.34 5.234-5.34 5.234-.574-1.588-.117-3.27.34-4.277a5.082 5.082 0 0 1 1.98-2.244C2.335 3.687 0 4.261 0 4.261c.687-1.54 2.167-2.398 3.182-2.778 2.185-.82 4.143.175 5.176.901.78-.97 2.458-2.582 4.868-2.364C14.302.118 15.949.552 17 1.857c0 0-2.295.153-4.968 1.162a4.966 4.966 0 0 1 2.348 1.6c.694.85 1.56 2.354 1.404 4.041 0 0-2.482-2.414-5.984-3.656z"/></svg>