<svg width="16" height="20" viewBox="0 0 16 20" xmlns="http://www.w3.org/2000/svg"><path d="M16 6.29c0-1.727-1.58-3.135-3.61-3.324l1.72-1.728-.35-.35c-1.31-1.307-3.67-1.088-5.26.5a4.763 4.763 0 0 0-.5.64 4.764 4.764 0 0 0-.51-.6A4.612 4.612 0 0 0 4.8.03 3.094 3.094 0 0 0 2.22.87l-.35.35 1.72 1.747C1.56 3.156 0 4.563 0 6.29v.499h2.42a4.44 4.44 0 0 0-1 2.336 3.09 3.09 0 0 0 .84 2.577l.35.349 4.05-4.034L6 19.001H4V20h8v-.998h-2L9.36 8.018l4.04 3.994.35-.35a3.055 3.055 0 0 0 .84-2.576 4.44 4.44 0 0 0-1-2.336H16v-.46ZM9.21 2.098a3.462 3.462 0 0 1 2.38-1.068c.37-.008.736.081 1.06.26l-1.76 1.737a4.162 4.162 0 0 0-2.07 1.068v-.07a4.149 4.149 0 0 0-.28-.998c.18-.339.406-.651.67-.929Zm-5.88-.809c.413-.232.89-.323 1.36-.26.794.1 1.528.47 2.08 1.049.266.262.492.561.67.889.205.367.338.77.39 1.188.046.254.046.514 0 .769a3.305 3.305 0 0 0-.63-.829 4.162 4.162 0 0 0-2.11-1.068L3.33 1.288ZM1.05 5.791a2.997 2.997 0 0 1 3-1.857c.186.014.37.044.55.09a3.153 3.153 0 0 1 2.2 1.248 3.235 3.235 0 0 0-1.09-.13H5.4a4.214 4.214 0 0 0-1.86.68l-2.49-.03Zm5.38.999-3.8 3.804a2.204 2.204 0 0 1-.24-1.358A3.513 3.513 0 0 1 3.44 7.15c.13-.13.271-.25.42-.36a3.273 3.273 0 0 1 1.66-.688h.3c.325 0 .646.071.94.21v.18l-.33.299ZM9 18.932H7L7.69 6.95h.54L9 18.932Zm4.62-9.696c.067.467-.017.943-.24 1.358L9.58 6.79l-.3-.29v-.22a2.894 2.894 0 0 1 2.88.51 3.513 3.513 0 0 1 1.43 2.446h.03Zm-1.19-3.445a4.214 4.214 0 0 0-2.18-.689 3.004 3.004 0 0 0-1.09.14 3.119 3.119 0 0 1 2.75-1.218 3.003 3.003 0 0 1 3 1.857l-2.48-.09Z"/></svg>
