<svg width="18" height="18" viewBox="0 0 18 18" xmlns="http://www.w3.org/2000/svg"><path fill-rule="evenodd" clip-rule="evenodd" d="M4 1.517a9 9 0 1 1 10 14.966A9 9 0 0 1 4 1.517Zm.555 14.135a8 8 0 1 0 8.89-13.305 8 8 0 0 0-8.89 13.305ZM7.23 7.23 14 4l-3.24 6.77L4 14l3.23-6.77ZM8 8l-2 4 4-2 2-4-4 2Zm1 6.5a.75.75 0 1 0 .75.75.76.76 0 0 0-.75-.75ZM8.583 2.126A.75.75 0 0 1 9 2a.76.76 0 0 1 .75.75.75.75 0 1 1-1.167-.624ZM2.75 8.25A.75.75 0 1 0 3.5 9a.76.76 0 0 0-.75-.75Zm12.083.126a.75.75 0 0 1 .417-.126A.76.76 0 0 1 16 9a.75.75 0 1 1-1.167-.624Z"/></svg>
