<svg width="20" height="16" viewBox="0 0 20 16" xmlns="http://www.w3.org/2000/svg"><path fill-rule="evenodd" clip-rule="evenodd" d="M6.932 13.255a1.979 1.979 0 0 1-1.31.48c-.477-.001-.937-.174-1.297-.487a1.966 1.966 0 0 1-.657-1.216H2V7.674h.987l.346-.531 1.43-2.224h-.226V0h3.948v1.456h4.175V4.92h-.227l1.48 2.224.297.53H18v4.36h-2.635c0 .521-.208 1.022-.579 1.39a1.977 1.977 0 0 1-2.791 0 1.965 1.965 0 0 1-.579-1.39h-3.82c-.064.474-.3.909-.664 1.222Zm-.678-.711a.984.984 0 0 0 .356-.512h-.04a.785.785 0 0 0 .118-.265.982.982 0 0 0-.987-.984.988.988 0 0 0-.987.984.785.785 0 0 0 0 .265.984.984 0 0 0 .948.709.99.99 0 0 0 .592-.197Zm7.729 0a.983.983 0 0 0 .355-.512h-.04a.785.785 0 0 0 .119-.265.982.982 0 0 0-.987-.984.988.988 0 0 0-.987.984.784.784 0 0 0 0 .265.983.983 0 0 0 .947.709.99.99 0 0 0 .593-.197ZM11.673 2.44H8.475v1.495h3.198V2.44ZM7.488.984H5.514v2.951h1.974V.984Zm3.76 3.935h-5.32L4.142 7.664h8.883L11.25 4.92Zm5.706 3.729H2.967l.02 2.39h.8a1.968 1.968 0 0 1 1.835-1.244 1.979 1.979 0 0 1 1.836 1.245h4.047a1.97 1.97 0 0 1 1.841-1.257 1.98 1.98 0 0 1 1.84 1.257h1.768V8.648ZM0 15h20v1H0v-1Z"/></svg>
