<svg width="20" height="14" viewBox="0 0 20 14" xmlns="http://www.w3.org/2000/svg"><path fill-rule="evenodd" clip-rule="evenodd" d="M18.35 1.63a3 3 0 0 0-4.71 0 2 2 0 0 1-3.29 0A3.11 3.11 0 0 0 8 .48a3.1 3.1 0 0 0-2.36 1.15A2.12 2.12 0 0 1 4 2.48a2.14 2.14 0 0 1-1.65-.85A3.09 3.09 0 0 0 0 .48v1a2.12 2.12 0 0 1 1.64.85A3.11 3.11 0 0 0 4 3.48a3.1 3.1 0 0 0 2.35-1.15A2.14 2.14 0 0 1 8 1.48a2.14 2.14 0 0 1 1.65.85 3 3 0 0 0 4.71 0 2 2 0 0 1 3.29 0A3.13 3.13 0 0 0 20 3.48v-1a2.16 2.16 0 0 1-1.65-.85ZM16 5.48a3.11 3.11 0 0 0-2.36 1.15 2 2 0 0 1-3.29 0A3.11 3.11 0 0 0 8 5.48a3.1 3.1 0 0 0-2.35 1.15A2.12 2.12 0 0 1 4 7.48a2.14 2.14 0 0 1-1.65-.85A3.09 3.09 0 0 0 0 5.48v1a2.12 2.12 0 0 1 1.64.85A3.11 3.11 0 0 0 4 8.48a3.1 3.1 0 0 0 2.35-1.15A2.14 2.14 0 0 1 8 6.48a2.14 2.14 0 0 1 1.65.85 3 3 0 0 0 4.71 0 2 2 0 0 1 3.29 0A3.13 3.13 0 0 0 20 8.48v-1a2.16 2.16 0 0 1-1.65-.85A3.1 3.1 0 0 0 16 5.48Zm-1.307 5.314A3.11 3.11 0 0 1 16 10.48a3.101 3.101 0 0 1 2.35 1.15 2.16 2.16 0 0 0 1.65.85v1a3.13 3.13 0 0 1-2.35-1.15 2 2 0 0 0-3.29 0 3 3 0 0 1-4.71 0A2.14 2.14 0 0 0 8 11.48a2.139 2.139 0 0 0-1.65.85A3.1 3.1 0 0 1 4 13.48a3.109 3.109 0 0 1-2.36-1.15A2.12 2.12 0 0 0 0 11.48v-1a3.09 3.09 0 0 1 2.35 1.15 2.141 2.141 0 0 0 1.65.85 2.12 2.12 0 0 0 1.65-.85A3.1 3.1 0 0 1 8 10.48a3.11 3.11 0 0 1 2.35 1.15 2 2 0 0 0 3.29 0 3.108 3.108 0 0 1 1.053-.836Z"/></svg>
