<svg width="14" height="20" viewBox="0 0 14 20" xmlns="http://www.w3.org/2000/svg"><path d="M12.5 4.51H9V8H7V2.74l2.14.69c.12.031.245.048.37.05a1.61 1.61 0 0 0 .92-.31A1.55 1.55 0 0 0 11 2v-.51A1.488 1.488 0 0 0 9.5 0H6v8H5V2H1.5A1.5 1.5 0 0 0 0 3.51V4a1.48 1.48 0 0 0 1.9 1.45L4 4.77V8H2.5v10a2 2 0 0 0 2 2h4a2 2 0 0 0 1.94-1.51H12A1.5 1.5 0 0 0 13.5 17v-6.59a1.5 1.5 0 0 0-1.5-1.5h-1.5V8H10v-.73l2.14.69c.123.015.247.015.37 0 .334 0 .658-.113.92-.32A1.47 1.47 0 0 0 14 6.51V6a1.5 1.5 0 0 0-1.5-1.49ZM7 1h2.5a.49.49 0 0 1 .5.5V2a.51.51 0 0 1-.58.5L7 1.68V1ZM1.62 4.49a.41.41 0 0 1-.42-.09A.46.46 0 0 1 1 4v-.5a.51.51 0 0 1 .5-.5H4v.72l-2.38.77ZM8.5 19h-4a1 1 0 0 1-1-1V9h6v9a1 1 0 0 1-1 1ZM12 9.9a.5.5 0 0 1 .5.5V17a.5.5 0 0 1-.5.5h-1.5V9.91L12 9.9Zm1-3.4a.48.48 0 0 1-.19.39.43.43 0 0 1-.39.1L10 6.23v-.72h2.5A.5.5 0 0 1 13 6v.5Z"/></svg>
