<svg width="16" height="16" viewBox="0 0 16 16" xmlns="http://www.w3.org/2000/svg"><path fill-rule="evenodd" clip-rule="evenodd" d="M13.77 11.64c-.575 0-1.04-.479-1.04-1.07 0-.592.465-1.071 1.04-1.071.574 0 1.039.48 1.039 1.07 0 .592-.465 1.07-1.039 1.07zm0 3.137c-.575 0-1.04-.48-1.04-1.07 0-.591.465-1.07 1.04-1.07.574 0 1.039.479 1.039 1.07 0 .59-.465 1.07-1.039 1.07zm-12.518-.113h10.429V5.182H1.252v9.482zM15.602 4.08a.91.91 0 0 0-.536-.177h-5.02l1.484-1.527a.411.411 0 0 0 0-.57.382.382 0 0 0-.554 0L8.938 3.904h-.235L5.024.118a.384.384 0 0 0-.554 0 .411.411 0 0 0 0 .57l3.125 3.216H.934a.912.912 0 0 0-.536.177.97.97 0 0 0-.398.784V15.04c0 .528.42.96.934.96h14.132c.515 0 .934-.432.934-.96V4.865a.97.97 0 0 0-.398-.784z" /></svg>
