<svg xmlns="http://www.w3.org/2000/svg" width="15" height="18" viewBox="0 0 15 18"><path fill-rule="evenodd" d="M4.597 10.421c-.242 2.255-.575 4.5-.852 6.745a.937.937 0 0 1-.582.758.806.806 0 0 1-.256.067C2.855 18 2.855 18 2.802 18a1.13 1.13 0 0 1-.308-.057.959.959 0 0 1-.615-.957c.242-2.53.62-5.04.934-7.57V7.883c-.347.692-.7 1.374-1.058 2.056a1.04 1.04 0 0 1-.134.18.942.942 0 0 1-.597.303H.933A.954.954 0 0 1 0 9.493a.958.958 0 0 1 .08-.398c.83-1.79 1.7-3.562 2.61-5.306h3.994a127.23 127.23 0 0 1 2.611 5.306.958.958 0 0 1 .08.398.954.954 0 0 1-.934.928h-.09a.942.942 0 0 1-.597-.303 1.04 1.04 0 0 1-.134-.18 124.28 124.28 0 0 1-1.057-2.056v1.516c.313 2.53.693 5.05.936 7.588a.958.958 0 0 1-.615.957c-.1.038-.203.048-.31.057-.052 0-.05 0-.104-.01a.807.807 0 0 1-.254-.066.935.935 0 0 1-.582-.758c-.279-2.245-.61-4.49-.853-6.745h-.184zM15 11.368v1.895H8.012c-.079-.587-.194-1.402-.259-1.895H15zm0-3.789v1.895h-4.687a1.925 1.925 0 0 0-.118-.654l-.038-.104c-.177-.38-.356-.758-.537-1.137H15zm0-3.79v1.895H8.666c-.092-.18-.378-.824-.472-1.013-.15-.294-.3-.588-.452-.882H15zM4.688 0c.776 0 1.406.637 1.406 1.421s-.63 1.421-1.406 1.421A1.414 1.414 0 0 1 3.28 1.421 1.416 1.416 0 0 1 4.688 0z"/></svg>