<svg xmlns="http://www.w3.org/2000/svg" width="18" height="18" viewBox="0 0 18 18"><path d="M9 0c.654 0 1.184.318 1.184.71 0 .294-.296.546-.72.654v1.233a6.368 6.368 0 0 1 3.703 1.552l.884-.885c-.213-.37-.24-.75-.036-.954.277-.277.877-.127 1.34.335.462.463.612 1.062.334 1.34-.207.207-.594.176-.97-.046l-.885.883a6.364 6.364 0 0 1 1.514 3.694h1.293c.111-.413.36-.7.649-.7.392 0 .71.53.71 1.184 0 .654-.318 1.184-.71 1.184-.294 0-.546-.296-.654-.72h-1.29a6.37 6.37 0 0 1-1.525 3.673l.918.918c.365-.204.735-.227.936-.026.277.277.127.877-.335 1.34-.463.462-1.063.612-1.34.334-.21-.21-.175-.608.057-.989l-.905-.905a6.362 6.362 0 0 1-3.688 1.538v1.289c.424.108.72.36.72.654 0 .392-.53.71-1.184.71-.654 0-1.184-.318-1.184-.71 0-.29.287-.538.7-.649v-1.29a6.371 6.371 0 0 1-3.695-1.514l-.892.892c.222.375.254.763.046.97-.277.277-.877.127-1.34-.335-.462-.462-.612-1.062-.334-1.34.204-.204.583-.176.953.037l.893-.89a6.371 6.371 0 0 1-1.553-3.707h-1.23c-.108.424-.36.72-.654.72C.318 10.184 0 9.654 0 9c0-.654.318-1.184.71-1.184.29 0 .538.287.649.7h1.233c.1-1.42.664-2.713 1.542-3.727l-.845-.843c-.376.222-.764.254-.972.046-.277-.277-.127-.877.335-1.34.463-.462 1.062-.612 1.34-.334.204.204.177.583-.036.953l.849.85a6.36 6.36 0 0 1 3.711-1.527V1.359c-.413-.111-.7-.36-.7-.649C7.816.318 8.346 0 9 0zm.526 9.33a.71.71 0 1 0 0 1.419.71.71 0 0 0 0-1.418zM7.052 6.069a1.184 1.184 0 1 0 0 2.368 1.184 1.184 0 0 0 0-2.368z" fill-rule="nonzero"/></svg>
