<svg width="14" height="12" viewBox="0 0 14 12" xmlns="http://www.w3.org/2000/svg"><path fill-rule="evenodd" clip-rule="evenodd" d="M8.907.049a.41.41 0 0 0-.427.025L4.95 2.568a1.074 1.074 0 0 1-.62.197H1.593C.989 2.765.5 3.267.5 3.885v4.367c0 .619.49 1.12 1.092 1.12H4.35c.212 0 .42.064.598.183l3.54 2.375a.404.404 0 0 0 .424.019.427.427 0 0 0 .217-.374V.425a.423.423 0 0 0-.222-.376zm3.304 2.754a.68.68 0 0 0-1.005.031c-.25.287-.197.73.063 1.005a3.167 3.167 0 0 1 .004 4.317c-.283.3-.31.797-.005 1.071a.677.677 0 0 0 .943-.032c1.719-1.762 1.719-4.63 0-6.392z" /></svg>
