<svg width="18" height="15" viewBox="0 0 18 15" xmlns="http://www.w3.org/2000/svg"><path d="M11.075 5.053c.378 1.362 1.613 2.364 3.076 2.364.866 0 1.652-.353 2.229-.918l-5.305-1.446zM2.126 2.614L18 6.934 15.874 15 0 10.68l2.126-8.066zM12.65 7.843c-.974-.269-1.857-.13-2.237 1.307-.379 1.437.318 2.012 1.291 2.271.974.27 1.852.149 2.237-1.307.385-1.455-.318-2.002-1.291-2.271zm-.128.482c.364.102.594.427.305 1.52-.29 1.094-.65 1.27-1.014 1.169-.364-.102-.589-.445-.304-1.52.284-1.085.649-1.27 1.013-1.169zM8.6 6.74c-.973-.26-1.857-.13-2.236 1.316-.38 1.437.318 2.003 1.291 2.262.973.27 1.852.149 2.236-1.307.385-1.455-.318-2.002-1.29-2.271zm-.128.482c.365.102.594.426.305 1.53-.288 1.093-.65 1.26-1.013 1.158-.364-.102-.59-.445-.305-1.52.285-1.085.65-1.26 1.013-1.168zM4.575 5.868l-.183.696.443.12-.707 2.68.881.24.89-3.374-1.324-.362zm6.413-2.16h-.032c-1.008 0-1.826-.834-1.826-1.854C9.13.831 9.948 0 10.956 0c.811 0 1.5.54 1.738 1.284a3.248 3.248 0 0 0-1.706 2.424zm3.163 2.781c-1.26 0-2.283-1.037-2.283-2.317 0-1.28 1.022-2.318 2.283-2.318 1.26 0 2.282 1.038 2.282 2.318s-1.021 2.317-2.282 2.317z" /></svg>
