<svg xmlns="http://www.w3.org/2000/svg" width="12" height="20" viewBox="0 0 12 20"><path d="M2.975 12.638l1.63 2.873-.104.547a.952.952 0 0 1-.165.422l-1.69 2.988a1.033 1.033 0 0 1-1.424.39 1.079 1.079 0 0 1-.38-1.452l1.64-2.905.493-2.863zm1.897-8.471a1.07 1.07 0 0 1 .485-.031c.289.052.598.105.897.168.422.074.794.326 1.031.695.042.052.072.116.104.179L8.77 7.629l2.464.674c.546.147.876.726.732 1.294a1.036 1.036 0 0 1-1.268.737l-2.93-.799a1.018 1.018 0 0 1-.566-.473l-.289-.505-.743 3.02 3.65 6.84a1.076 1.076 0 0 1-.38 1.442 1.031 1.031 0 0 1-1.414-.39L3.15 10.851l.732-4.23-1.31.357-.546 2.084a1.032 1.032 0 0 1-1.258.747 1.06 1.06 0 0 1-.732-1.294l.69-2.641c.083-.358.36-.663.743-.768l3.404-.939zM6.347 0c.856 0 1.547.705 1.547 1.578 0 .873-.691 1.578-1.547 1.578s-1.546-.705-1.546-1.578C4.8.706 5.49 0 6.347 0z"/></svg>