<svg width="19" height="14" viewBox="0 0 19 14" xmlns="http://www.w3.org/2000/svg"><path d="M18.042.483h.36c.33 0 .598.268.598.598v1.196c0 .33-.268.598-.598.598h-.36v.994a.919.919 0 0 1-.922.922h-3.87l-.867 3.47c-.01.037-.01.036-.024.071a.539.539 0 0 1-.078.127.494.494 0 0 1-.363.165H6.365l-1.184 3.898c-.12.498-.54.886-1.04.886-.876.008-2.097.008-3.155.008a.988.988 0 0 1-.9-1.393c.707-1.448 1.665-3.731 1.665-5.315 0-2.49-.958-2.875-.958-2.875V0h17.249v.483zM7.5 4.791l-.852 2.875h4.895l.718-2.875H9.416a3.023 3.023 0 0 0-.061.248c-.058.301-.07.665.15.907a.794.794 0 0 0 .149.128c.112.073.239.122.367.16l.042.012-.255.924a2.195 2.195 0 0 1-.765-.355 1.607 1.607 0 0 1-.483-.562c-.235-.45-.238-.97-.132-1.462h-.927z" fill-rule="evenodd"/></svg>