<svg width="18" height="18" viewBox="0 0 18 18" xmlns="http://www.w3.org/2000/svg"><path d="M4.014 16.198a.75.75 0 1 1 0 1.5.75.75 0 0 1 0-1.5zm5 0a.75.75 0 1 1 0 1.5.75.75 0 0 1 0-1.5zm5 0a.75.75 0 1 1 0 1.5.75.75 0 0 1 0-1.5zm-9.5-3.56v2.65a1.43 1.43 0 0 0-1 0v-2.65h1zm5 0v2.65a1.43 1.43 0 0 0-1 0v-2.65h1zm5 0v2.65a1.43 1.43 0 0 0-1 0v-2.65h1zM9.114 0l.26.008c6.53 0 6.25 6.59 6.25 6.59a2.39 2.39 0 0 1 2.39 2.41 2.48 2.48 0 0 1-2.25 2.63H3.074a3.11 3.11 0 0 1-3.06-3.4c0-3.03 3.17-3.23 3.87-3.23h.13a5.07 5.07 0 0 1 5.36-5zm.52.999l-.26.01a4.29 4.29 0 0 0-3.16 1.16 4.25 4.25 0 0 0-1.2 2.84v1.09l-1-.09h-.13c-.87 0-2.87.25-2.87 2.19 0 2.19 1.59 2.4 2.07 2.4h12.62v.04a1.45 1.45 0 0 0 1.31-1.63 1.35 1.35 0 0 0-1.44-1.43h-1l.05-1a6.45 6.45 0 0 0-1.48-4.19 5 5 0 0 0-3.77-1.38z"/></svg>