<svg width="20" height="13" viewBox="0 0 20 13" xmlns="http://www.w3.org/2000/svg"><path d="M3.63 9.6c.208.25.45.469.72.65l-1.95 2-.71-.71zm13.42.94v1H6.04v-1h11.01zM6.5 3.68a2.52 2.52 0 0 1 1 0 3 3 0 0 1 1.47.62c.274.193.511.433.7.71.109.141.2.296.27.46H8.77A2.36 2.36 0 0 0 7 4.63a2.07 2.07 0 0 0-.57.09 2.36 2.36 0 0 0-1.27.78 1.88 1.88 0 0 0-.16.23l-.078.145a2.08 2.08 0 0 0-.192.625 2.3 2.3 0 0 0-.05.45 2 2 0 0 0 .1.52c.057.238.155.465.29.67v1.43a2.83 2.83 0 0 1-.7-.68 3.24 3.24 0 0 1-.61-1.42 3.31 3.31 0 0 1-.05-.55 2.28 2.28 0 0 1 0-.45 3 3 0 0 1 .58-1.46A2.53 2.53 0 0 1 5 4.3a3 3 0 0 1 1.5-.62zm12.55 4.86v1H8.04v-1h11.01zm-2-2v1H6.04v-1h11.01zM2.68 6.5v.45a3.31 3.31 0 0 0 .04.55H0v-1h2.68zm8.86-4.81l.71.71-1.9 1.9a3.41 3.41 0 0 0-.7-.72l1.89-1.89zm-9.14 0l1.89 1.89a4 4 0 0 0-.7.72l-1.9-1.9.71-.71zM7.47 0v2.66a4.069 4.069 0 0 0-.5 0 4.191 4.191 0 0 0-.5 0V0h1z"/></svg>