<svg width="18" height="19" viewBox="0 0 18 19" xmlns="http://www.w3.org/2000/svg"><path d="M10.744 8.488l-.84 2.19h2.47l-4.55 8.33.61-5.91h-2.78l2.17-4.61h2.92zm-1.45 1h-.83l-1.23 2.61h2.31l-.22 2.07 1.36-2.49h-2.23l.84-2.19zM9.114 0l.26.008c6.53 0 6.25 6.61 6.25 6.61a2.39 2.39 0 0 1 2.39 2.45 2.48 2.48 0 0 1-2.25 2.59h-2.77l.26-.48.28-.52h2.17a1.46 1.46 0 0 0 1.31-1.59 1.35 1.35 0 0 0-1.44-1.5h-1l.05-1a6.48 6.48 0 0 0-1.48-4.19 5 5 0 0 0-3.77-1.37 4.28 4.28 0 0 0-3.16 1.17 4.25 4.25 0 0 0-1.2 2.88v1.06l-1-.06h-.13c-.87 0-2.87.19-2.87 2.19 0 2.2 1.59 2.41 2.07 2.41h2.63l-.48 1h-2.16a3.12 3.12 0 0 1-3.06-3.41c0-3.02 3.17-3.19 3.87-3.19h.13a5.07 5.07 0 0 1 5.36-5.05z"/></svg>