<svg width="18" height="18" viewBox="0 0 18 18" xmlns="http://www.w3.org/2000/svg"><path d="M9.5 14.86V18h-1v-3.14h1zM4.49 12.8a6.8 6.8 0 0 0 .71.71L3 15.7l-.71-.7zm9.03.01L15.71 15l-.71.7-2.2-2.19a6 6 0 0 0 .72-.7zM9 4a4.95 4.95 0 0 1 5 4.93A5 5 0 1 1 9 4zm1.469 1.21A4 4 0 1 0 9 12.91v-.02a4 4 0 0 0 3.95-3.98 4 4 0 0 0-2.481-3.7zM3.05 8.5v.43c0 .19.01.38.03.57H0v-1h3.05zM18 8.5v1h-3.06c.01-.19.01-.38 0-.57V8.5H18zM3 2.29l2.12 2.12a6 6 0 0 0-.7.72L2.29 3 3 2.29zm12 0l.71.71-2.13 2.12a6.7 6.7 0 0 0-.7-.71L15 2.29zM9.5 0v3h-1V0h1z"/></svg>