<svg width="18" height="17" viewBox="0 0 18 17" xmlns="http://www.w3.org/2000/svg"><path d="M6.514 15.028a1 1 0 1 1 0 2 1 1 0 0 1 0-2zm5 0a1 1 0 1 1 0 2 1 1 0 0 1 0-2zm-7.5-2.38a1 1 0 1 1 0 2 1 1 0 0 1 0-2zm5 0a1 1 0 1 1 0 2 1 1 0 0 1 0-2zm5 0a1 1 0 1 1 0 2 1 1 0 0 1 0-2zM9.114 0l.26.008c6.53 0 6.25 6.6 6.25 6.6a2.39 2.39 0 0 1 2.39 2.45 2.48 2.48 0 0 1-2.25 2.59H3.074a3.11 3.11 0 0 1-3.06-3.4c0-3.03 3.17-3.24 3.87-3.19h.13a5.07 5.07 0 0 1 5.36-5.05zm.52.998l-.26.01a4.25 4.25 0 0 0-3.16 1.13 4.21 4.21 0 0 0-1.2 2.87v1.1l-1-.1h-.13c-.87 0-2.87.26-2.87 2.2 0 2.19 1.59 2.4 2.07 2.4h12.62v.04a1.45 1.45 0 0 0 1.31-1.59 1.35 1.35 0 0 0-1.44-1.48h-1l.05-1a6.49 6.49 0 0 0-1.48-4.2 5 5 0 0 0-3.77-1.37z"/></svg>