<svg width="18" height="17" viewBox="0 0 18 17" xmlns="http://www.w3.org/2000/svg"><path d="M17.014 15.519v1h-16v-1h16zm0-2v1h-16v-1h16zM9.112 0l.262.009v.02c6.53 0 6.25 6.6 6.25 6.6a2.39 2.39 0 0 1 2.39 2.45 2.48 2.48 0 0 1-2.25 2.57H3.074a3.11 3.11 0 0 1-3.06-3.4c0-3.03 3.17-3.17 3.87-3.17h.13a5.06 5.06 0 0 1 5.36-5.07zm.522 1l-.26.01a4.24 4.24 0 0 0-3.15 1.17 4.21 4.21 0 0 0-1.21 2.9v1h-1.13c-.87 0-2.87.19-2.87 2.19 0 2.19 1.59 2.4 2.07 2.4h12.62a1.45 1.45 0 0 0 1.31-1.59 1.35 1.35 0 0 0-1.44-1.51h-1l.05-1a6.46 6.46 0 0 0-1.48-4.19 5 5 0 0 0-3.77-1.37z"/></svg>