<svg xmlns="http://www.w3.org/2000/svg" width="18" height="14" viewBox="0 0 18 14"><path d="M5.143 8.804A5.432 5.432 0 0 1 8.79 7.22a5.957 5.957 0 0 1 1.041.059 5.462 5.462 0 0 1 3.027 1.524l-1.286 1.275a3.658 3.658 0 0 0-.918-.664 3.684 3.684 0 0 0-1.7-.394c-.514.01-1.022.12-1.488.337a3.67 3.67 0 0 0-1.036.721L5.143 8.804zm-2.57-2.55a9.098 9.098 0 0 1 6.31-2.644c.118-.002.117-.002.234 0a9.098 9.098 0 0 1 6.31 2.644l-1.285 1.275a7.268 7.268 0 0 0-5.236-2.116A7.255 7.255 0 0 0 3.858 7.53L2.572 6.253zM0 3.7A12.768 12.768 0 0 1 7.062.145C7.65.057 8.242.012 8.835.001h.33A12.734 12.734 0 0 1 18 3.7l-1.287 1.277a10.904 10.904 0 0 0-7.572-3.173h-.282a10.904 10.904 0 0 0-7.48 3.08l-.093.092L0 3.7zM9 11a1.501 1.501 0 0 1 0 3 1.501 1.501 0 0 1 0-3z"/></svg>