<svg xmlns="http://www.w3.org/2000/svg" width="11" height="20" viewBox="0 0 11 20"><path d="M7.832 4.443C8.92 6.5 9.91 8.566 10.9 10.672c.064.148.099.309.099.471-.01.443-.28.836-.683 1.003a1.074 1.074 0 0 1-.416.08h-.307a1.023 1.023 0 0 1-.673-.572L7.693 8.888l-.366.581 1.455 5.577h-.99l.287 3.771a1.11 1.11 0 0 1-.287.833 1.1 1.1 0 0 1-.802.35 1.104 1.104 0 0 1-1.099-1.003l-.267-3.952h-.258l-.297 3.842a1.21 1.21 0 0 1-.376.792c-.22.2-.506.314-.802.321a.997.997 0 0 1-.99-1.113l.267-3.842h-.99l1.485-5.577-.366-.581-1.238 2.768a1.086 1.086 0 0 1-.653.522h-.307a1.074 1.074 0 0 1-.416-.08A1.133 1.133 0 0 1 0 11.092c0-.162.035-.323.099-.471.99-2.096 1.98-4.173 3.05-6.229l4.683.05zM5.495 0c.908 0 1.644.745 1.644 1.665S6.403 3.33 5.495 3.33a1.654 1.654 0 0 1-1.644-1.665A1.664 1.664 0 0 1 5.495 0z"/></svg>