<svg xmlns="http://www.w3.org/2000/svg" width="18" height="20" viewBox="0 0 18 20"><path fill-rule="evenodd" d="M14.796 14.66a.398.398 0 0 1-.371.252H6.538l.267.972h8.267a.398.398 0 1 1 0 .798h-8.57a.399.399 0 0 1-.385-.293L3.382 6.44H.621a.398.398 0 1 1 0-.798h3.065a.4.4 0 0 1 .384.295l.666 2.422h11.956a.4.4 0 0 1 .371.544l-2.267 5.756zm-6.8 2.919a1.046 1.046 0 1 1 0 2.092 1.046 1.046 0 0 1 0-2.092zm5.145 0a1.046 1.046 0 1 1 0 2.092 1.046 1.046 0 0 1 0-2.092zm1.033-10.027H7.3a4.544 4.544 0 0 1-1.125-2.99A4.568 4.568 0 0 1 10.737 0a4.567 4.567 0 0 1 4.561 4.562 4.543 4.543 0 0 1-1.124 2.99zM8.35 2.234v4.161a.399.399 0 0 0 .797 0V3.364L10.467 5c.024.03.059.044.09.064.018.013.034.03.054.039a.719.719 0 0 0 .17.045.4.4 0 0 0 .312-.155L12.325 3.4v2.994a.399.399 0 0 0 .797 0v-4.16a.4.4 0 0 0-.27-.379.4.4 0 0 0-.444.134l-1.637 2.118L9.06 1.984a.4.4 0 0 0-.444-.126.4.4 0 0 0-.265.376z"/></svg>