<svg xmlns="http://www.w3.org/2000/svg" width="18" height="16" viewBox="0 0 18 16"><path fill-rule="evenodd" d="M10.892 8.43S5.906 5.267 5.906 2.678a2.678 2.678 0 0 1 4.986-1.352 2.675 2.675 0 0 1 4.986 1.352c0 2.589-4.986 5.754-4.986 5.754zm1.183 2.416c.388-.2.749-.39 1.072-.564 1.645-.88 2.285-1.178 2.73-.74-1.09.644-2.658 1.576-3.32 1.969a2.203 2.203 0 0 0-.482-.665zm5.78-.988c.148.201.21.506.054.65-.539.492-4.033 3.478-6.388 4.63-1.372.674-3.927-.135-5.618-.67-1.39-.44-2.02-.623-2.387-.394-.662.415-1.833 1.327-1.842 1.336L0 13.067c.007-.004.015-.004.022-.008.65-.412 1.25-.924 1.829-1.418.912-.778 1.774-1.514 2.72-1.788 1.568-.402 3.003-.128 4.264.814a.37.37 0 0 0 .162.069c.017.003 1.725.279 2.164.397.43.131.724.57.816.921.055.213.021.332.003.35a.197.197 0 0 1-.083.005c-.95-.099-4.619-.438-4.619-.438v.006c-.01 0-.02-.006-.03-.006a.37.37 0 0 0-.37.37c0 .192.146.344.333.364v.005s3.662.338 4.61.437a.994.994 0 0 0 .109.005.777.777 0 0 0 .796-.654c.015-.074.018-.154.018-.235.587-.35 3.308-1.967 4.297-2.544.434-.253.697-.021.815.14z"/></svg>