<svg xmlns="http://www.w3.org/2000/svg" width="18" height="16" viewBox="0 0 18 16"><path fill-rule="evenodd" d="M17.255 8.76c0 .675-.55 1.225-1.226 1.225h-.771l-.047 2.997-2.896-2.997H7.643c-.676 0-1.226-.55-1.226-1.225V1.97c0-.676.55-1.225 1.226-1.225h8.386c.677 0 1.226.55 1.226 1.225v6.79zM16.03 0C17.116 0 18 .884 18 1.97v6.79c0 1.086-.884 1.97-1.97 1.97h-.028v2.234a.768.768 0 0 1-.773.772.768.768 0 0 1-.553-.236l-2.677-2.77h-1.216v.48c0 .882-.715 1.598-1.597 1.598H5.47l-2.787 2.884a.4.4 0 0 1-.687-.278v-2.606h-.4A1.598 1.598 0 0 1 0 11.21V4.82c0-.883.715-1.598 1.598-1.598h4.075V1.97C5.673.884 6.557 0 7.643 0h8.386zM8.441 3.54h6.79v-.745H8.44v.745zm0 1.998h6.79v-.745H8.44v.745zm0 1.996h3.195v-.745H8.441v.745z"/></svg>