<svg height="16" viewBox="0 0 19 16" width="19" xmlns="http://www.w3.org/2000/svg"><path d="m7.918 5.648c.267-.102.29-.463.05-.621a2.73 2.73 0 0 1 -1.23-2.282c0-1.68 1.51-3.008 3.247-2.7a2.756 2.756 0 0 1 2.202 2.221 2.733 2.733 0 0 1 -1.196 2.766c-.235.155-.208.515.057.615a4.41 4.41 0 0 1 2.866 4.128c-2.954.899-5.908.899-8.862 0a4.409 4.409 0 0 1 2.866-4.127zm-1.982.343a5.221 5.221 0 0 0 -1.596 3.009 11.011 11.011 0 0 1 -3.545-.48c0-1.372.86-2.533 2.074-2.993.194-.07.206-.33.035-.447a1.973 1.973 0 0 1 -.89-1.65c0-1.22 1.096-2.18 2.352-1.956a2.01 2.01 0 0 1 1.596 1.608 1.982 1.982 0 0 1 -.866 2.003c-.171.113-.153.372.035.442.295.113.562.273.805.463zm8.086-.463c.195-.07.206-.33.036-.447a1.986 1.986 0 1 1 3.052-1.997 1.98 1.98 0 0 1 -.86 2.002c-.177.112-.154.372.035.442a3.202 3.202 0 0 1 2.08 2.993 11.078 11.078 0 0 1 -3.741.47 5.213 5.213 0 0 0 -1.506-2.92c.27-.228.57-.418.904-.543zm-3.73 6.944 1.595.231-1.154 1.125.273 1.588-1.426-.75-1.426.75.272-1.588-1.153-1.125 1.594-.231.713-1.444.713 1.444zm4.058-.775 1.337.193-.967.944.228 1.331-1.195-.628-1.196.628.227-1.331-.967-.944 1.337-.193.599-1.212zm-7.008.193-.968.944.229 1.331-1.196-.628-1.195.628.228-1.331-.968-.944 1.337-.193.598-1.212.598 1.212zm11.167-1.208-.718.7.17.987-.887-.467-.886.467.169-.988-.717-.699.991-.145.443-.897.444.897zm-14.972 0-.718.7.17.987-.888-.467-.886.467.17-.988-.718-.699.992-.145.442-.897.445.897.99.145z" fill-rule="evenodd"/></svg>