<svg xmlns="http://www.w3.org/2000/svg" width="18" height="18" viewBox="0 0 18 18"><path fill-rule="evenodd" d="M9 15.683c-3.154 0-5.907-2.24-6.544-5.324a.395.395 0 1 1 .775-.16A5.91 5.91 0 0 0 9 14.892a5.909 5.909 0 0 0 5.772-4.704.395.395 0 1 1 .775.158C14.915 13.44 12.16 15.684 9 15.684zM3.824 4.575a.396.396 0 0 1 .712-.237l1.26 1.684 1.22-1.68a.396.396 0 0 1 .715.233v3.302a.395.395 0 1 1-.791 0V5.792L6.12 6.92a.453.453 0 0 1-.32.163.393.393 0 0 1-.317-.16l-.868-1.16v2.113a.396.396 0 0 1-.791 0V4.575zm6.445 0a.396.396 0 0 1 .712-.236l1.26 1.683 1.22-1.68a.396.396 0 0 1 .715.233v3.302a.396.396 0 0 1-.79 0V5.792l-.821 1.129a.46.46 0 0 1-.32.163.394.394 0 0 1-.317-.16l-.868-1.16v2.113a.396.396 0 0 1-.791 0V4.575zM9 0a9 9 0 0 0-9 9 9 9 0 0 0 9 9 9 9 0 0 0 9-9 9 9 0 0 0-9-9z"/></svg>