<svg xmlns="http://www.w3.org/2000/svg" width="16" height="18" viewBox="0 0 16 18"><path fill-rule="evenodd" d="M9.043 10.032h5.494v-.72H9.043v.72zm-.533-6.78c.15-.278.335-.607.54-.93A12.505 12.505 0 0 1 10.072.984c.351-.353.956-.345 1.317.019a.937.937 0 0 1 .277.668.936.936 0 0 1-.277.667l-.817.817a.346.346 0 0 0-.065.098H8.51zm-2.976 0a.346.346 0 0 0-.065-.097l-.818-.818a.935.935 0 0 1-.277-.667c0-.252.098-.49.278-.668.36-.362.965-.37 1.306-.03.006.007.613.69 1.033 1.35.176.278.356.596.536.93H5.534zm-4.18 6.78h5.494v-.72H1.355v.72zm14.177-6.78h-4.038l.406-.405a1.65 1.65 0 0 0 .488-1.176 1.65 1.65 0 0 0-.488-1.179c-.65-.649-1.697-.657-2.337-.018-.005.005-.655.729-1.119 1.461-.154.241-.297.486-.423.713a14.104 14.104 0 0 0-.422-.712C7.133 1.203 6.483.48 6.478.474c-.639-.638-1.687-.63-2.336.018a1.653 1.653 0 0 0-.488 1.179c0 .444.173.862.488 1.176l.406.406H.36a.36.36 0 0 0-.36.36V8.96c0 .199.161.36.36.36h.27v8.32c0 .2.162.361.36.361h6.585l.005-13.77-2.395 2.395a.36.36 0 1 1-.51-.51l2.867-2.865h.962l1.892 1.891a.36.36 0 0 1-.51.51L8.301 4.065 8.296 18h6.602a.36.36 0 0 0 .36-.36V9.319h.273a.36.36 0 0 0 .36-.36V3.613a.36.36 0 0 0-.36-.36z"/></svg>