<svg xmlns="http://www.w3.org/2000/svg" width="19" height="18" viewBox="0 0 19 18"><path fill-rule="evenodd" d="M9.223 5.161a.389.389 0 0 1 .698-.233l2.353 3.146 2.284-3.14a.389.389 0 0 1 .433-.142.39.39 0 0 1 .268.369v5.573a.388.388 0 0 1-.775 0v-4.38l-1.892 2.601c-.073.1-.185.178-.314.16a.386.386 0 0 1-.31-.155l-1.97-2.634v4.408a.388.388 0 0 1-.775 0V5.16zm-2.985 2.87a6.055 6.055 0 0 1 6.048-6.047 6.055 6.055 0 0 1 6.047 6.047 6.054 6.054 0 0 1-6.047 6.048 6.054 6.054 0 0 1-6.048-6.048zm1.034-4.53A6.77 6.77 0 0 0 5.871 5.89C2.342 5.816.417 4.965.417 4.539V2.46c1.203.727 3.629 1.07 5.935 1.07.313 0 .616-.016.92-.03zM6.27 2.716c-3.84 0-5.936-.897-5.936-1.358C.333.898 2.428 0 6.27 0c3.604 0 5.671.79 5.911 1.268a6.722 6.722 0 0 0-3.952 1.36 21.51 21.51 0 0 1-1.96.088zM9.342 16.82c.196 0 .363.16.363.358 0 .12-.06.217-.131.277-.318.278-.692.445-1.257.445-1.04 0-1.812-.803-1.812-1.818v-.01c0-1.004.757-1.827 1.842-1.827.53 0 .889.142 1.182.359.08.06.15.171.15.308a.38.38 0 0 1-.383.378.405.405 0 0 1-.232-.076 1.162 1.162 0 0 0-.722-.252c-.596 0-1.024.495-1.024 1.1v.01c0 .606.418 1.11 1.024 1.11.328 0 .545-.1.768-.277a.363.363 0 0 1 .232-.085zm1.996-1.716c.42 0 .722.11.914.302.202.202.293.5.293.864v1.23a.369.369 0 0 1-.374.37c-.221 0-.368-.158-.368-.32v-.004c-.187.207-.444.344-.818.344-.51 0-.929-.293-.929-.828v-.01c0-.59.45-.863 1.09-.863.273 0 .47.045.662.11v-.045c0-.318-.197-.495-.58-.495-.212 0-.385.03-.531.076a.324.324 0 0 1-.11.02.312.312 0 0 1-.319-.313c0-.136.086-.252.207-.297a2.36 2.36 0 0 1 .863-.141zm2.946 1.1c.378.126.818.307.818.802v.01c0 .6-.45.873-1.035.873-.333 0-.692-.096-1.02-.307a.307.307 0 0 1-.146-.263c0-.171.132-.303.303-.303.055 0 .11.015.151.041.258.161.515.242.733.242.22 0 .322-.08.322-.202v-.01c0-.167-.262-.222-.56-.313-.379-.111-.808-.288-.808-.812v-.011c0-.55.445-.858.99-.858.282 0 .574.076.837.207a.312.312 0 0 1 .182.288.301.301 0 0 1-.308.302.284.284 0 0 1-.142-.034c-.216-.106-.423-.173-.585-.173-.186 0-.282.082-.282.188v.01c0 .151.257.222.55.323zm2.84-1.121c.582 0 .919.383.919 1.005v1.398a.383.383 0 1 1-.767 0V16.33c0-.364-.172-.55-.465-.55-.292 0-.479.186-.479.55v1.156a.383.383 0 1 1-.767 0v-2.978a.384.384 0 1 1 .767 0v1.01c.177-.228.404-.435.793-.435zM5.053 16.438l.823.841c.08.088.148.163.148.31a.372.372 0 0 1-.38.381c-.138 0-.222-.05-.319-.137l-.002-.003-.765-.797c-.606.637-1.27.947-2.03.947-1.157 0-1.996-.75-1.996-1.785v-.017c0-.788.503-1.411 1.456-1.805-.418-.501-.582-.88-.582-1.337v-.018c0-.88.709-1.518 1.687-1.518.871 0 1.554.635 1.554 1.447v.018c0 .741-.462 1.274-1.413 1.629l1.307 1.331c.22-.34.424-.713.603-1.11.026-.054.125-.218.331-.218.206 0 .373.166.373.372a.449.449 0 0 1-.05.182 7.99 7.99 0 0 1-.745 1.287zm-1.96-5.66c-.695 0-1.302.248-1.733.658-.632-.225-.942-.454-.942-.61V8.747c1.1.666 3.225 1.005 5.345 1.059a6.733 6.733 0 0 0 1.187 2.373 30.725 30.725 0 0 1-1.758-.073c-.34-.79-1.141-1.327-2.1-1.327zM.417 5.592c1.093.657 3.186 1.005 5.241 1.068-.092.443-.14.902-.14 1.373 0 .333.032.657.079.977C2.36 8.865.417 8.087.417 7.682V5.59zM2.58 17.28c.526 0 1.011-.247 1.479-.757l-1.6-1.632c-.718.272-1.114.718-1.114 1.261v.017c0 .644.52 1.11 1.235 1.11zm9.238-.395v-.136a1.19 1.19 0 0 0-.49-.101c-.328 0-.53.131-.53.373v.01c0 .207.171.328.42.328.358 0 .6-.197.6-.474zm-9.634-3.867v.018c0 .34.136.595.58 1.076.764-.264 1.121-.618 1.121-1.111v-.018c0-.464-.344-.802-.82-.802-.51 0-.881.352-.881.837z"/></svg>