<svg xmlns="http://www.w3.org/2000/svg" width="19" height="17" viewBox="0 0 19 17"><path fill-rule="evenodd" d="M15.964 9.048c.324.018.573.29.556.61l-.036.66-.287-.015-.3 3.855.289.017-.037.672a.57.57 0 0 1-.573.537l-.032-.002-13.736-.737a.572.572 0 0 1-.545-.597l.036-.673.287.015.3-3.855-.288-.015.036-.673a.572.572 0 0 1 .606-.535l.234.012.868 2.517a.34.34 0 0 0-.17.414l.228.665a.92.92 0 0 0 .188.307l.004.003a.92.92 0 0 0 .577.311.927.927 0 0 0 .416-.044l10.212-3.512 1.167.063zM7.63 6.005l.108-.034c.089-.027.187.007.274.043l.021.008a.127.127 0 0 1 .029.013l.342.227c.22-.07.436-.145.643-.218.182-.065.368-.131.56-.194-.3-.43-.607-.838-.93-1.267L8.62 4.51c-.017-.024-.04-.051-.064-.081-.167-.209-.282-.366-.242-.498a.18.18 0 0 1 .124-.118l.276-.086c.115-.035.302.034.404.12l.465.394.92.778.515.435 1.663-.514a.621.621 0 0 1 .199-.029.555.555 0 0 1 .185.037.428.428 0 0 1 .153.098.37.37 0 0 1 .106.342.456.456 0 0 1-.071.168.538.538 0 0 1-.133.134.627.627 0 0 1-.18.09l-1.664.514-.178.647-.31 1.122-.01.04-.162.587c-.007.028-.024.044-.034.07-.052.126-.131.227-.231.257l-.277.086a.183.183 0 0 1-.168-.027c-.08-.064-.097-.19-.093-.358.002-.058.006-.121.01-.19a1.52 1.52 0 0 0 .008-.102l.005-.103c.005-.106.008-.207.014-.31.018-.425.035-.84.039-1.263-.34.072-.661.173-.998.28l-.228.073-.154.38a.392.392 0 0 1-.231.235l-.108.035c-.094.028-.19.047-.263-.013-.074-.06-.074-.163-.066-.247l.059-.615-.396-.474c-.054-.064-.112-.15-.085-.241.026-.09.116-.129.21-.158zm10.9.804c-.008-.03-.003-.06-.012-.088l-.23-.664a.338.338 0 0 0-.171-.196c-.017-.008-.037-.001-.054-.006a.309.309 0 0 0-.107-.014c-.02 0-.037-.011-.056-.007l-1.424-4.13a.34.34 0 0 0 .17-.415L16.42.637a.94.94 0 0 0-1.2-.585L1.878 4.64c-.03.01-.05.032-.079.045a.936.936 0 0 0-.29.21.909.909 0 0 0-.11.144c-.017.026-.041.045-.055.072-.014.029-.013.06-.024.089a.891.891 0 0 0-.057.354.88.88 0 0 0 .024.178c.008.03.002.061.013.091l.228.664a.341.341 0 0 0 .39.223l.308.893h-.018c-.682 0-1.243.53-1.28 1.205l-.036.673a.703.703 0 0 0 .245.573l-.211 2.72a.703.703 0 0 0-.332.562l-.037.673a1.28 1.28 0 0 0 1.213 1.34l13.736.738.07.002c.68 0 1.243-.53 1.28-1.205l.035-.673a.704.704 0 0 0-.244-.573l.211-2.72a.706.706 0 0 0 .332-.562l.035-.66a1.269 1.269 0 0 0-.823-1.263l1.537-.529c.03-.01.051-.033.08-.046a.892.892 0 0 0 .4-.353c.016-.027.04-.045.055-.074.014-.027.013-.06.024-.088a.93.93 0 0 0 .031-.535z"/></svg>