<svg xmlns="http://www.w3.org/2000/svg" width="18" height="18" viewBox="0 0 18 18"><path fill-rule="evenodd" d="M17.035 10.753c-.167-.292-.46-.487-.872-.58h-.003a2.434 2.434 0 0 0-.455-.052h-5.092s-.076 0-.128.013c-.064-.001-.127-.002-.194.003l-3.994.292-.75-1.766h5.848c.597 0 1.08-.243 1.327-.668a1.24 1.24 0 0 0-.007-1.237c-.254-.44-.736-.693-1.323-.693H4.377l-.683-1.6V1.603C3.694 1.048 3.308 0 1.847 0 1.208 0 0 .335 0 1.602v3.097c0 .01.003.06.01.122.01.105.036.256.102.409.023.099.054.202.102.31l3.447 7.91c.012.025.12.26.334.477.227.28.668.612 1.478.612h2.795v2.736H4.567a.363.363 0 0 0 0 .725h10.086a.362.362 0 1 0 0-.725h-3.7v-2.736h4.171c.679.022 1.17-.288 1.354-.86l.651-2.029c.008-.024.044-.145.049-.311a1.114 1.114 0 0 0-.143-.586"/></svg>