<svg xmlns="http://www.w3.org/2000/svg" width="19" height="18" viewBox="0 0 19 18"><path fill-rule="evenodd" d="M1.035 9.036a.368.368 0 0 1-.368-.368c0-3.186 3.58-5.81 8.14-6.107l-.815-.815a.906.906 0 0 1-.32.064.905.905 0 1 1 .905-.905c0 .113-.026.22-.064.32L9.667 2.38l1.154-1.154a.887.887 0 0 1-.065-.32.905.905 0 1 1 .905.905.906.906 0 0 1-.32-.064l-.815.815c4.56.296 8.14 2.921 8.14 6.107a.368.368 0 1 1-.736 0c0-2.978-3.706-5.4-8.263-5.4s-8.264 2.422-8.264 5.4a.368.368 0 0 1-.368.368zm17.264.73c.088 0 .174-.014.256-.034.008.132.018.264.018.392v1.556a5.574 5.574 0 0 1-5.575 5.574H6.335A5.574 5.574 0 0 1 .761 11.68v-1.556c0-.128.01-.261.017-.392.083.02.168.033.257.033.605 0 1.097-.492 1.097-1.097 0-2.532 3.45-4.67 7.535-4.67 4.084 0 7.534 2.138 7.534 4.67 0 .605.492 1.097 1.098 1.097zM6.547 7.825v5.694a.396.396 0 0 0 .793 0V9.016l2.013 2.691c.075.1.192.16.317.16.131.018.246-.062.32-.164l1.933-2.659v4.476a.396.396 0 1 0 .793 0V7.825a.398.398 0 0 0-.274-.377.398.398 0 0 0-.443.145l-2.334 3.209-2.404-3.215a.398.398 0 0 0-.714.238z"/></svg>