<svg xmlns="http://www.w3.org/2000/svg" width="15" height="18" viewBox="0 0 15 18"><path fill-rule="evenodd" d="M10.408 12.27l1.433.038a.745.745 0 0 0 .426-.129l1.726 3.891-2.852-.442L9.397 18l-2.206-4.974.162-.081 1.25.682c.336.183.759.09.98-.216l.825-1.142zm-3.43 2.117l-1.712 2.785-1.229-2.375-2.835.01 1.64-2.667c.017 0 .032.01.05.01l1.433.012.782 1.17c.21.313.63.422.971.25l.444-.222.456 1.027zm.239-2.194l-1.482.74-.908-1.358-.001-.003a.32.32 0 0 0-.263-.138l-1.665-.014-.155-1.613a.308.308 0 0 0-.166-.244L1.11 8.797l.633-1.5a.3.3 0 0 0-.03-.287v-.003L.777 5.665l1.276-1.04a.306.306 0 0 0 .112-.272l-.187-1.611 1.628-.343a.317.317 0 0 0 .23-.19L4.44.698l1.605.43a.324.324 0 0 0 .293-.065L7.596 0 8.81 1.108a.323.323 0 0 0 .291.075l1.62-.374.548 1.531a.318.318 0 0 0 .22.198l1.615.402-.247 1.602a.309.309 0 0 0 .102.276l1.237 1.085-.984 1.308a.304.304 0 0 0-.042.29l.577 1.52-1.495.713a.312.312 0 0 0-.176.237l-.215 1.608-1.665-.045a.32.32 0 0 0-.268.131l-.959 1.326-1.452-.793a.325.325 0 0 0-.301-.005zM4.214 9.825a4.717 4.717 0 0 0 3.336 1.26 4.702 4.702 0 0 0 3.273-1.404 4.43 4.43 0 0 0 1.295-3.246 4.468 4.468 0 0 0-1.443-3.185 4.72 4.72 0 0 0-3.336-1.26 4.705 4.705 0 0 0-3.273 1.404 4.456 4.456 0 0 0-1.297 3.141l.002.106a4.465 4.465 0 0 0 1.443 3.184zM11.37 6.54c0 .987-.385 1.921-1.088 2.637a3.95 3.95 0 0 1-2.75 1.178 3.958 3.958 0 0 1-2.8-1.057 3.747 3.747 0 0 1-.125-5.4 3.952 3.952 0 0 1 2.75-1.179 3.962 3.962 0 0 1 2.8 1.058 3.747 3.747 0 0 1 1.211 2.675l.002.088z"/></svg>