<svg xmlns="http://www.w3.org/2000/svg" width="151" height="32" fill="none"><g clip-path="url(#a)"><path fill="#ED1C24" d="m26.873 15.839-3.075 5.33 5.449-3.146 2.112 7.884V13.608H18.542l8.331 2.23ZM28.588 10.835l2.772 2.773V.489l-2.772 10.347ZM27.056 11.808l1.532-.974-4.955-4.954 3.423 5.928ZM38.734 6.232l-4.86 4.862 1.814.415 3.046-5.277ZM33.155 17.678l5.388 3.111-4.4-4.4-.988 1.29Z"/><path fill="#ED1C24" d="m31.36 13.608 2.783 2.782 10.253-2.783-13.036.002Z"/><path fill="#0072BC" d="M30.318.962 11.753 8.345l17.893-5.358.672-2.025ZM22.552 6.334 5.31 13.727l18.302-5.553-1.06-1.84ZM23.991 8.825 7.128 15.763l17.858-5.209-.995-1.73ZM16.057 14.13 0 20.73l19.684-5.63-3.627-.97ZM24.206 16.312l-3.456-.926-15.82 6.579 19.276-5.653ZM24.875 16.777l-16.433 6.78 14.97-4.247 1.463-2.533ZM22.76 20.44 3.64 28.538 21.21 23.13l1.55-2.69ZM28.935 21.682l-.494-1.844-14.718 8.22 15.212-6.376ZM29.229 22.785 9.781 31.366l19.885-6.963-.437-1.618ZM29.86 25.133 12.888 32l17.464-5.027-.494-1.84Z"/><path fill="#939598" d="M55.816 0h-6.9a2.863 2.863 0 0 0-2.864 2.864v4.53a2.863 2.863 0 0 0 2.865 2.863h6.899a2.863 2.863 0 0 0 2.864-2.864v-1.16h-2.943v.802a.716.716 0 0 1-.716.716h-5.388a.718.718 0 0 1-.716-.716V3.222c0-.397.322-.716.716-.716h5.388c.397 0 .716.319.716.716v.326h2.943v-.684A2.863 2.863 0 0 0 55.816 0ZM125.294 0h-3.213v10.257h3.213V0ZM71.303 3.719h-6.988V0h-3.212v10.257h3.212V6.48h6.988v3.777h3.213V0h-3.213v3.719ZM81.904 0l-5.636 10.257h3.438l1.052-1.915h6.687l1.053 1.915h3.437L86.3 0h-4.396Zm0 6.255 2.198-3.998 2.197 3.998h-4.394ZM110.303 0l-5.635 10.257h3.437l1.053-1.915h6.687l1.052 1.915h3.438L114.699 0h-4.396Zm.001 6.255 2.197-3.998 2.197 3.998h-4.394ZM96.89 0h-3.213v10.257h10.151V7.734h-6.939V0ZM138.87 6.329c1.362-.282 1.785-1.2 1.785-2.937 0-2.369-1.278-3.392-2.969-3.392h-9.856v10.257h3.212V7.652h5.685c.395 0 .716.32.716.716v1.89h3.212V8.1c0-1.71-1.785-1.772-1.785-1.772Zm-1.427-1.916a.716.716 0 0 1-.716.716h-5.685V2.523h5.685c.395 0 .716.32.716.716v1.174Z"/><path fill="#ED1C24" d="M140.655 16.916H46.052v6.797h94.603v-6.797Z"/><path fill="#fff" d="M121.967 18.366h-2.953c-.601 0-1.088.487-1.088 1.088v1.721c0 .601.487 1.088 1.088 1.088h2.953c.601 0 1.088-.487 1.088-1.088v-1.721c0-.601-.487-1.088-1.088-1.088Zm-.03 2.673c0 .15-.121.272-.272.272h-2.379a.273.273 0 0 1-.272-.272V19.59c0-.151.123-.272.272-.272h2.379c.151 0 .272.121.272.272v1.449ZM76.699 18.366h-1.22v3.897h1.22v-3.897ZM110.305 18.366h-1.221v3.897h1.221v-3.897ZM51.734 18.366l-2.142 3.897H50.9l.4-.728h2.54l.4.728h1.307l-2.142-3.897h-1.67Zm0 2.377.835-1.52.835 1.52h-1.67ZM65.326 21.406l-1.67-3.04H62.35l2.141 3.897h1.67l2.142-3.897h-1.306l-1.67 3.04ZM86.243 18.366l-2.141 3.897h1.306l.4-.728h2.54l.4.728h1.307l-2.141-3.897h-1.67Zm0 2.377.836-1.52.834 1.52h-1.67ZM97.034 18.366v.959h1.759v2.938h1.22v-2.939h1.759v-.958h-4.738ZM134.966 18.366v2.79l-2.34-2.79h-1.844v3.897h1.22v-2.79l2.34 2.79h1.845v-3.897h-1.221Z"/><path fill="#ED1C24" d="M46.053 13.607v.867h97.285l-1.003-.867H46.053ZM150.753 9.29c-.303-.452-1.393.143-3.107 1.27l-3.362-1.445-.757.507 2.834 1.81c-.38.255-1.266.966-1.575 1.254l-1.335-.26-.476.319 1.276.9.347 1.523.476-.319.267-1.334a18.934 18.934 0 0 0 1.758-.98l.597 3.31.757-.507-.057-3.658c1.694-1.157 2.659-1.939 2.357-2.39Z"/></g><defs><clipPath id="a"><path fill="#fff" d="M0 0h150.808v32H0z"/></clipPath></defs></svg>