<svg xmlns="http://www.w3.org/2000/svg" width="153" height="20" fill="none"><path fill="#fff" d="m43.21 11.9-3.89-7.04h-2.18l-5.34 9.77H6.27c-.44 0-.79.35-.79.79 0 .44.35.79.79.79h26.6l.03-.05 1.45-2.73H42l1.45 2.78h2.14l-1.54-2.78-.84-1.52v-.01Zm-8.05 0 3.05-5.73 2.99 5.73h-6.04ZM49.18 16.2h1.92v-4.6h5.05v-1.52H51.1v-3.7h8.89V4.86H49.18V16.2ZM72.3 11.79c1.63 0 2.4-.63 2.4-1.91V6.77c0-1.53-.89-1.92-2.25-1.92h-9.2v11.34h1.8v-4.41h3.46l4.57 4.41h2.85l-5.17-4.41h1.54v.01Zm-7.25-5.41h7.03c.4 0 .72.32.72.72v2.46c0 .4-.32.72-.72.72h-7.03v-3.9ZM81.81 4.86h-1.87V16.2h1.87V4.86ZM94.95 14.58h-6.1v-3.74l-1.86.36v2.57c0 1.91.63 2.43 2.51 2.43h4.79c1.88 0 2.51-.52 2.51-2.43V4.86h-1.86v9.73l.01-.01ZM146.66 4.86h-31.3v1.52h5.21v9.82h1.87V6.38h24.22a.76.76 0 1 0 0-1.52ZM104.43 11.03h5.52V9.51h-5.52V6.38h9.05V4.86h-10.9V16.2h10.97v-1.61h-9.12v-3.56Z"/></svg>