<svg xmlns="http://www.w3.org/2000/svg" width="187" height="17" fill="none"><path fill="#000" d="M185.822 10.175c-.901 2.342-4.01 3.067-7.366 3.067-3.357 0-5.512-.728-5.01-3.067h4.266c-.11.624.268 1.023 1.529 1.023 1.262 0 2.075-.408 2.313-1.023.587-1.53-7.855-.036-6.511-3.535.752-1.96 3.714-2.88 7.056-2.88s5.238.722 4.838 2.878h-4.185c.066-.577-.111-1.015-1.368-1.015s-1.933.445-2.153 1.017c-.6 1.562 7.932.041 6.591 3.535M111.136 12.977h-4.266l3.434-8.946h4.267zM143.417 12.977h-4.266l3.434-8.946h4.267zM170.908 12.977h-10.373l3.435-8.946h10.374l-.66 1.717h-6.107l-.692 1.803h5.079l-.658 1.715h-5.081l-.695 1.813h6.106zM86.11 12.977h-3.45l-2.896-5.284-2.028 5.284h-3.442L77.73 4.03h4.008l2.555 4.703 1.805-4.703h3.452zM157.888 12.977h-3.451l-2.897-5.284-2.028 5.284h-3.444l3.434-8.946h4.008l2.556 4.703 1.805-4.703h3.451zM34.29 9.981c-1.169 3.043-4.05 3.295-6.101 3.295a13.8 13.8 0 0 1-2.967-.299l.729-1.898c1.955.227 3.626.057 4.282-1.648l2.074-5.4h4.267L34.29 9.98M58.47 4.03h-6.636l-3.433 8.947h4.266l1.247-3.248h2.372c3.943 0 6.066-1.054 6.755-2.847s-.623-2.851-4.571-2.851m.304 2.852a2.01 2.01 0 0 1-1.832 1.13h-2.37l.87-2.267h2.374c.777 0 1.209.483.958 1.134M123.856 4.03h-6.636l-3.435 8.947h4.266l1.247-3.248h1.29l.843 3.248h4.658l-1.14-3.574c1.889-.439 3.012-1.31 3.478-2.52.687-1.795-.624-2.853-4.572-2.853m.303 2.852a2.01 2.01 0 0 1-1.832 1.13h-2.369l.87-2.267h2.373c.778 0 1.209.483.958 1.134M133.203 11.08l2.714-7.05h-4.269l-3.435 8.947h9.689l.728-1.896zM46.464 4.03h-3.816a1.85 1.85 0 0 0-1.312.665l-7.149 8.282h3.525l1.42-1.76h3.853l.068 1.76h4.267zm-5.945 5.466 2.297-2.86.106 2.86zM72.353 4.03h-3.816a1.85 1.85 0 0 0-1.312.665l-7.15 8.282H63.6l1.422-1.76h3.853l.068 1.76h4.266zm-5.945 5.466 2.297-2.86.106 2.86zM104.931 4.03h-3.816a1.85 1.85 0 0 0-1.311.665l-7.15 8.283h3.525l1.42-1.761h3.853l.068 1.76h4.266zm-5.944 5.467 2.296-2.86.105 2.86z"/><path fill="#C00" d="M8.63 13.765h.653l-.029-.778z"/><path fill="#C00" d="M16.972 9.25a8.6 8.6 0 0 0-.042-1.882c0-.01-.012-.01-.015 0a5.08 5.08 0 0 1-1.87 2.865l-.007.002-.007-.003-.003-.008.004-.007a6.2 6.2 0 0 0 1.714-3.796 8.4 8.4 0 0 0-.861-2.138c-.006-.008-.016-.006-.014.005a5.83 5.83 0 0 1-1.48 4.72h-.008l-.002-.004L14.379 9v-.004l.003-.004a6.62 6.62 0 0 0 .957-5.541 8.5 8.5 0 0 0-13.674 0 6.62 6.62 0 0 0 .959 5.545l-.002.007-.002.003-.007.002-.007-.004a5.83 5.83 0 0 1-1.473-4.716c0-.01-.009-.013-.014-.005a8.4 8.4 0 0 0-.862 2.138 6.2 6.2 0 0 0 1.719 3.803.01.01 0 0 1-.01.011l-.007-.002a5.08 5.08 0 0 1-1.87-2.865c0-.01-.014-.01-.015 0A8.6 8.6 0 0 0 .033 9.25a5.1 5.1 0 0 0 1.555 2.235c.011.01 0 .025-.012.019A4.6 4.6 0 0 1 .192 10.24c-.005-.008-.014-.005-.012.005a8.5 8.5 0 0 0 16.636 0q-.002-.016-.012-.005c-.37.511-.842.94-1.385 1.262-.013.006-.023-.009-.011-.019a5.1 5.1 0 0 0 1.555-2.235m-11.62 5.542a3.8 3.8 0 0 1-.805-.08l.198-.516c.53.062.985.016 1.163-.448l.563-1.467H7.62L7 13.896a1.555 1.555 0 0 1-1.657.895m3.968-.08-.018-.48H8.246l-.385.48h-.957l1.941-2.25a.5.5 0 0 1 .356-.18h1.037l.232 2.43zm4.1 0h-2.63l.933-2.43h1.158l-.736 1.915h1.473zm-1.069-5.134c-1.738 1.692-4.334.611-4.07-1.466.202-1.601 2.166-3.197 3.653-4.062l.003-.004.001-.005v-.006l-.005-.004c-.194-.186-.599-.604-.86-.918a1.71 1.71 0 0 0-2.73.047l-4.275.397a.013.013 0 0 0 0 .027l4.583.265c.812.046 1.076.783.293 1.376-2.91 2.206-3.43 4.54-2.776 6.39a.012.012 0 0 1-.007.015h-.008l-.007-.005a3.8 3.8 0 0 1-.577-1.329 5.471 5.471 0 1 1 6.783-.72"/></svg>