<svg xmlns="http://www.w3.org/2000/svg" width="99" height="24" fill="none"><path fill="#005450" d="M22.501 4.638h2.595l5.873 11.524h.126l5.76-11.524h2.549v15.025h-2.55V7.346h-.08l-6.192 12.317h-.523l-6.26-12.215h-.171v12.215H22.5V4.638Zm32.958 0v.975h-7.956v4.464h5.327v.975h-5.327v7.636h7.956v.975H44.965V4.638h10.494Zm4.446 0h2.538v14.05h7.604v.975H59.905V4.638Zm13.87 0h2.538v15.025h-2.538V4.638Zm-59.61 10.237L9.226 4.3h2.615l6.423 13.895c.278.46.509.952.686 1.469h-3.625a5.465 5.465 0 0 0-5.066-3.4 5.465 5.465 0 0 0-5.067 3.4H4.3a7.74 7.74 0 0 1 7.325-5.212c.89 0 1.745.15 2.54.424ZM7.877 4.37l.018-.07h.015l-.033.07Zm81.725 10.506L84.664 4.3h2.614l6.424 13.895c.278.46.509.952.686 1.469h-3.625a5.465 5.465 0 0 0-5.067-3.4 5.465 5.465 0 0 0-5.066 3.4h-.894a7.74 7.74 0 0 1 7.326-5.212c.89 0 1.745.15 2.54.424ZM83.315 4.37l.018-.07h.015l-.033.07Z"/></svg>