<svg xmlns="http://www.w3.org/2000/svg" width="201" height="15"><path fill="#008CD5" fill-rule="evenodd" d="M32.718 12.212c-3.258.146-6.122-1.092-4.53-4.22 1.587-3.131 9.378-6.73 11.938-7.873L25.768.116c-.492 0-1.102-.084-1.475 1.031-.277.83-1.566 4.046-4.43 5.052-3.547 1.247-6.505-.792-11.013-4.36C7.17.503 6.895.383 5.269.651 4.435.786 2.626.344 2.096.22 1.565.077.743.135.743.144c0 .061 3.267.533 9.572 5.044 2.399 1.717 6.675 5.06 11.123 6.992 4.808 2.09 11.787 3.205 18.177-1.242.008-.086.014-.175.02-.262 0 .117-3.654 1.454-6.917 1.535" clip-rule="evenodd"/><path fill="#004384" fill-rule="evenodd" d="M61.162 11.855h1.202v-9.21h-1.202v9.21ZM66.023.215h5.283c.268 0 .525.085.744.244.281.212.429.525.429.903v9.441c0 .76-.492 1.052-1.174 1.052H69.69l-.472-.973h1.766c.183 0 .292-.121.292-.324V1.507a.32.32 0 0 0-.317-.321h-4.935V.215Zm-4.86.004h1.203v.652c0 .157.16.265.32.265H65.2v.895H62.34c-.88 0-1.177-.58-1.177-1.093V.22Zm18.243 9.274c-.238-.771-.365-1.45-.458-2.305h1.003c.091.849.258 1.6.484 2.305h-1.03Zm6.81-5.611c.882 0 1.175.666 1.175 1.147v5.56c0 .138.111.248.27.248h1.137l-.436 1.022h-.936c-.466 0-.789-.13-.98-.402-.166-.223-.247-.54-.247-.962V5.103c0-.078-.058-.217-.243-.217h-1.52c-.164 0-.253.106-.253.23v2.868c0 1.261-.243 2.704-.828 3.875H81.91c.813-1.097 1.064-2.548 1.064-4.466V5.029c0-.663.492-1.147 1.092-1.147h2.15ZM78.73 5.544h2.02l-.002-3.248c0-.108-.068-.233-.236-.233h-1.55c-.083 0-.232.058-.232.23v3.251Zm.308-4.483c.137-.284.25-.61.332-.95h1.285a5.695 5.695 0 0 1-.329.95h.559c.569 0 1.034.357 1.034 1.05v8.775c0 .503-.28.973-1.034.973h-1.093l-.407-.968h1.077c.163 0 .288-.105.288-.261V6.533h-2.02c-.017 2.024-.184 3.8-.542 5.326h-1.27c.558-1.742.656-3.588.68-5.325h-.674v-.99h.675V2.153c0-.655.404-1.092.99-1.092h.449Zm.422 3.828a14.848 14.848 0 0 1-.447-2.02h.96c.098.718.302 1.376.5 2.02H79.46Zm5.12-3.218c-.168-.436-.361-.859-.572-1.559h1.288c.132.392.378.917.681 1.559h2.594v.986H82.26V1.67h2.32ZM54.525 6.798v-.335H48.91v.317c0 .153.094.24.25.24h5.141a.227.227 0 0 0 .223-.222Zm-.27 2.302h-4.653c-.142.148-.286.294-.433.438l1.819.001s.78.39 1.007.49c.757-.29 1.491-.586 2.26-.929ZM48.91 5.735h5.615v-.558H48.91v.558Zm0-1.608v.332h5.615v-.315c0-.155-.095-.242-.25-.242h-5.141a.228.228 0 0 0-.224.225Zm-1.869-2.309h9.343v.79h-3.802l-.26.55h2.328c.665 0 1.05.553 1.05 1.034v2.515c0 .623-.5 1.059-1.018 1.059h-3.916c-.11.147-.225.283-.443.541h4.762c.372 0 .689.198.776.508a.642.642 0 0 1 .026.194c0 .293-.183.564-.499.713-.456.216-1.63.68-2.127.886 0 0 2.246.99 3.12 1.285l-2.797-.001c-.296-.085-1.67-.741-1.67-.741s-1.412.566-1.858.742c0 0-.013-.008-3.226-.008 1.045-.292 3.831-1.346 3.831-1.346a77.473 77.473 0 0 1-1.651-.85c-.15.139-.325.29-.522.454h-1.68c1.102-.749 2.152-1.945 2.48-2.377h-.533c-.562 0-1.034-.487-1.034-1.043V4.22c0-.53.385-1.063 1.064-1.063h2.246c.099-.2.175-.368.252-.55h-4.242v-.79Zm-.393-1.36h9.735v.894H46.87c-.174 0-.279.094-.279.251v6.469c0 1.206-.15 2.636-.42 3.821h-1.295c.384-1.638.525-2.901.525-4.586V1.692c0-.802.401-1.235 1.247-1.235Zm56.998 5.882v.986h-4.23v3.486h5.202v.969H93.034v-.97h5.2V7.327h-4.227V6.34h9.639ZM98.107.113h1.423c.083.255.25.634.43.932h3.054c1.098 0 1.519.733 1.519 1.424v1.306h-1.171l-.001-1.348c0-.233-.119-.386-.376-.386h-2.269v2.03c0 .198.142.317.267.317l3.157-.001-.41 1.002h-3.124c-.316 0-.7-.15-.919-.415-.181-.208-.274-.547-.274-.833v-2.1h-1.135c-.38 1.308-1.338 2.672-2.668 3.688H93.33s2.786-1.36 3.568-3.688h-2.226c-.265 0-.383.127-.383.386v1.348h-1.172V2.469c0-.672.372-1.424 1.487-1.424h3.893a5.806 5.806 0 0 1-.389-.932ZM58.541 11.902h.435V.115h-.435v11.787Zm16.027 0h.437V.115h-.437v11.787Zm16.028 0h.435V.115h-.435v11.787Zm102.967-6.36h2.803c1.239 0 2.114-.856 2.117-1.934-.003-1.075-.878-1.946-2.117-1.946h-2.803v3.88Zm2.636.966h-2.636V11.9h-1.286V.696h4.233c1.856 0 3.145 1.3 3.149 2.912-.003 1.334-.884 2.446-2.239 2.79l3.314 5.502h-1.284l-3.251-5.392ZM178.165 7.86h4.563l-2.282-5.652-2.281 5.652Zm4.952.967h-5.343l-1.24 3.073h-1.284L179.768.697h1.287l4.588 11.203h-1.286l-1.24-3.073Zm4.714 3.073h1.285V.697h-1.285V11.9ZM147.054.697h2.481l1.071 11.203h-2.285l-.746-7.785-3.766 7.785h-.139l-3.829-7.787-.746 7.787h-2.283L137.887.697h2.478l3.344 6.951 3.345-6.951Zm8.221 9.699h5.192V11.9h-7.477V.697h7.1v1.502h-4.815v3.21h4.106V6.91h-4.106v3.486Zm-27.25-2.272h3.645l-1.823-4.632-1.822 4.632Zm4.236 1.502h-4.829l-.895 2.275h-2.282L128.663.697h2.285l4.494 11.203h-2.287l-.894-2.274ZM107.218 11.9l4.255-6.061-3.612-5.143h2.562l2.329 3.32 2.33-3.32h2.564l-3.613 5.143 4.257 6.06h-2.562l-2.975-4.236-2.975 4.236h-2.56Zm66.065 0h-1.438L165.06 4.09v7.81h-2.286V.697h2.146l6.076 7.03V.697h2.287V11.9Zm-53.139-.001h2.285V.697h-2.285V11.9Z" clip-rule="evenodd"/></svg>
