<svg xmlns="http://www.w3.org/2000/svg" width="141" height="44" viewBox="0 0 141 44"><g fill-rule="nonzero" fill="none"><path fill="#223D75" d="M58.54 19.24l.525-1.277c.082-.205.295-.423.5-.423h14.323c.304 0 .483.312.38.519l-.584 1.406c-.14.327-.357.552-.754.575h-2.885c-.17 0-.526.3-.602.508l-4.375 10.554c-.067.23-.467.63-.748.63h-5.752c-.283 0-.581-.3-.459-.603l4.604-10.809c.046-.105-.202-.28-.255-.28h-3.343c-.4 0-.775-.373-.576-.8h.001zm19.396 7.509l-1.566 2.34h1.607l-.318 1.914c-.08.528-.03.73.417.73h4.113c.406 0 .882-.327.964-.73l2.195-12.941c.05-.356-.173-.522-.459-.522h-7.967c-.251 0-.576.166-.707.373l-8.923 13.11c-.146.228.073.71.503.71h4.939c.737 0 .988-.08 1.47-.71l4.662-7.169-.45 2.895h-.48zm15.2 1.021l1.094-2.56h.286c.254 0 .558-.253.663-.504l1.684-3.974c.079-.175-.073-.505-.249-.505h-1.058l-4.842 11.506h-5.778c-.398 0-.906-.327-.751-.756l5.447-12.892c.246-.572.623-.545.88-.545h11.541c1.137 0 2.002 1.105 1.517 2.337l-2.423 5.643c-.248.695-1.134 1.354-2.013 1.354.602.5.841 2.11.549 2.842l-.503 1.287c-.149.35-.672.73-1.058.73h-4.76c-.377 0-.754-.505-.582-.879l.862-2.013c.222-.554-.181-1.033-.327-1.033l-.179-.038zm35.086-4.088l-.126-5.62c0-.251-.4-.522-.605-.522h-4.79c-.348 0-.654 0-.885.499L116.4 30.854c-.248.578.152.879.582.879h4.989c.485 0 1.031-.356 1.236-.835l2.113-5.08.435 5.185c.018.803.906.43 1.242 0l4.133-5.462-2.142 5.357c-.263.706.47.835.874.835h4.567c.421 0 .883-.38 1.053-.782l4.892-12.664c.126-.374-.129-.747-.456-.747h-6.48c-.368 0-.753.204-.981.522l-4.235 5.62zm-8.648-4.085l-4.407 10.475c-.357.879-1.608 1.66-2.572 1.66h-9.53c-1.012 0-1.994-1.788-1.587-2.792l4.506-10.653c.254-.543 1.014-.747 1.643-.747h10.813c.783 0 1.412 1.432 1.134 2.057zm-7.631.706c-.385 0-.763.33-.885.654l-3.127 7.33c-.103.221.201.653.403.653h.505c.357 0 .754-.28.88-.581l3.107-7.402c.09-.196-.111-.654-.31-.654h-.573zM58.285 36.78l-.298.062v-3.411h.552c.327 0 .576.09.78.271.193.172.287.418.287.715 0 .26-.064.473-.214.642a.94.94 0 0 1-.578.321l1.031 1.278-.268.175-1.292-1.695.23.009c.252 0 .436-.067.57-.196.138-.125.205-.3.205-.52 0-.224-.067-.402-.204-.522-.135-.137-.319-.195-.57-.195h-.231v3.067-.001zm2.823-.988c.1.233.234.431.403.595.161.16.348.268.556.35.198.082.418.12.657.12.448.007.882-.162 1.207-.47.351-.332.55-.795.547-1.278a1.719 1.719 0 0 0-.547-1.278 1.743 1.743 0 0 0-.546-.353 1.75 1.75 0 0 0-.66-.12 1.717 1.717 0 0 0-1.617 1.059c-.1.225-.143.45-.143.692 0 .236.044.467.143.683zm.579-1.734a1.42 1.42 0 0 1 1.037-.423c.406 0 .745.137 1.035.423.277.278.415.63.415 1.05 0 .412-.138.762-.421 1.042a1.4 1.4 0 0 1-1.04.42 1.41 1.41 0 0 1-1.026-.42 1.433 1.433 0 0 1-.421-1.041c0-.42.146-.773.42-1.05l.001-.001zm4.252 2.799l-.286-.067.701-3.47 1.134 2.795 1.143-2.795.695 3.47-.289.067-.503-2.548-1.046 2.548-1.04-2.548-.509 2.548zm5.281-1.418h1.496l.696 1.374.286-.085-1.712-3.396-1.76 3.4.281.08.713-1.373zm1.353-.28H71.36l.608-1.209.605 1.208v.001zm2.613 1.621l-.301.068V33.37l2.268 2.699v-2.638l.295-.061v3.478l-2.262-2.71v2.643-.001zm4.174 0l-.307.053v-3.402l.306-.04v3.39l.001-.001zm2.197-1.341h1.494l.698 1.374.287-.085-1.713-3.396-1.765 3.4.286.08.713-1.373zm1.36-.28h-1.214l.611-1.209.602 1.208.001.001zm2.6 1.621l-.292.068V33.37l2.262 2.699v-2.638l.304-.061v3.478l-2.274-2.71v2.643-.001zm6.778-1.341h1.49l.699 1.374.286-.085-1.715-3.396-1.76 3.4.278.08.722-1.373zm1.356-.28h-1.213l.596-1.209.617 1.208v.001zm2.63 1.621l-.304.053v-3.402l.304-.04v3.39-.001zm1.917 0l-.304.062v-3.411h.556c.327 0 .584.09.78.271.193.172.292.418.292.715 0 .26-.07.473-.213.642a.954.954 0 0 1-.585.321l1.038 1.278-.275.175-1.289-1.695.231.009c.243 0 .439-.067.573-.196a.691.691 0 0 0 .202-.52c0-.224-.07-.402-.202-.522-.134-.137-.33-.195-.573-.195h-.23v3.067l-.001-.001zm6.094 0l-.301.053v-3.11h-.93l.08-.292h2.004v.292h-.853v3.058-.001zm2.51 0l-.292.062v-3.411h.555c.322 0 .585.09.778.271.193.172.292.418.292.715 0 .26-.079.473-.222.642a.92.92 0 0 1-.579.321l1.032 1.278-.266.175-1.298-1.695.234.009c.246 0 .436-.067.57-.196.14-.125.208-.3.208-.52 0-.224-.068-.402-.208-.522-.134-.137-.324-.195-.57-.195h-.234v3.067-.001zm3.502-1.341h1.49l.699 1.374.292-.085-1.721-3.396-1.76 3.4.28.08.72-1.373zm1.356-.28h-1.21l.608-1.209.602 1.208v.001zm2.598 1.621l-.29.068V33.37l2.274 2.699v-2.638l.296-.061v3.478l-2.28-2.71v2.643-.001zm3.732-.527l.248-.178c.1.157.214.289.345.367.14.084.3.126.462.123.21 0 .395-.061.538-.187a.614.614 0 0 0 .207-.47c0-.32-.269-.557-.806-.723a.613.613 0 0 1-.126-.032c-.275-.08-.47-.196-.6-.336a.792.792 0 0 1-.195-.552c0-.248.094-.47.29-.641a1.02 1.02 0 0 1 .715-.266c.176 0 .334.032.48.1.152.055.28.157.438.294l-.204.236c-.103-.11-.225-.2-.36-.265a.98.98 0 0 0-.377-.076.667.667 0 0 0-.476.184.577.577 0 0 0-.193.44c0 .108.026.205.076.286a.51.51 0 0 0 .222.202c.085.046.234.096.432.157.112.03.193.056.252.076.251.085.432.193.558.344a.822.822 0 0 1 .187.54c0 .274-.102.51-.298.695-.208.19-.468.286-.766.286-.213 0-.412-.059-.599-.158a1.281 1.281 0 0 1-.45-.446zm3.881-.584h.263c.357 0 .646-.1.862-.3.22-.205.33-.48.33-.82 0-.33-.11-.605-.33-.812-.216-.201-.505-.306-.862-.306h-.558v3.411l.295-.061v-1.112zm.91-1.733c.157.151.236.356.236.613 0 .265-.08.472-.237.618-.155.143-.374.222-.646.222h-.263v-1.675h.263c.272 0 .491.076.646.222h.001zm1.986 1.856c.091.233.226.431.404.595.163.16.348.268.552.35.196.082.421.12.66.12.234 0 .442-.038.65-.12.207-.082.391-.19.549-.35.175-.164.307-.356.403-.584a1.68 1.68 0 0 0 0-1.398 1.466 1.466 0 0 0-.403-.574 1.576 1.576 0 0 0-.552-.353 1.703 1.703 0 0 0-.646-.12 1.717 1.717 0 0 0-1.213.473c-.178.16-.313.353-.404.586-.105.225-.154.45-.154.692 0 .236.05.467.154.683zm.576-1.734c.273-.278.65-.432 1.04-.423a1.442 1.442 0 0 1 1.447 1.474c0 .411-.143.761-.418 1.041-.286.284-.63.42-1.034.42s-.754-.136-1.035-.42c-.28-.274-.412-.63-.412-1.041 0-.42.132-.773.412-1.05v-.001zm4.53 2.722l-.295.062v-3.411h.558c.316 0 .576.09.775.271.193.172.286.418.286.715 0 .26-.067.473-.204.642a.995.995 0 0 1-.59.321l1.04 1.278-.28.175-1.29-1.695.237.009c.248 0 .432-.067.564-.196.14-.125.207-.3.207-.52 0-.224-.067-.402-.207-.522-.132-.137-.316-.195-.564-.195h-.237v3.067-.001zm3.762 0l-.299.053v-3.11h-.929l.067-.292h2.017v.292h-.856v3.058-.001zM39.914.47l-.29.104c-.003.003-.286.155-.286.155 0 .006-.263.207-.263.207l-.512.461c0 .003-.485.52-.485.52L.245 41.902l-.16.262L0 42.43c0 .012.026.245.026.245.006.009.111.242.111.242 0 .01.19.207.19.207 0 .01.231.184.231.184.006.006.263.108.263.108.012.006.319.032.319.032H35.8l.342-.026c.006-.003.31-.082.31-.082l.316-.151.31-.181.28-.207c.009-.003.237-.257.237-.257 0-.003.21-.283.21-.283l16.884-40.31.108-.315.024-.26-.024-.256c0-.006-.079-.233-.079-.233-.006-.02-.155-.199-.155-.199l-.21-.134-.243-.105-.321-.032H40.197l-.283.052V.47z"/><path fill="#FCEE21" d="M54.532.466c-.026.05-.049.104-.067.158.044.035.09.058.1.064 0 0 .148.178.154.199 0 0 .08.227.08.233l.023.257-.024.26-.108.315-16.884 40.309s-.21.28-.21.283c0 0-.228.254-.237.257l-.28.207-.31.18s-.266.126-.295.147a.497.497 0 0 0-.038.081l-.027.059h3.487c.035-.024 18.09-42.947 18.09-42.947L54.532.466"/><path fill="#EC2427" d="M57.978.466c0 .003-.012.024-.023.062h.032S39.93 43.45 39.896 43.475h2.475C42.407 43.451 60.518.528 60.518.528l-2.54-.062"/><path fill="#FFFFFE" d="M31.257 30.425l4.395 3.598-8.15-4.015c-.746-.201-1.465-.248-2.16-.28-.795-.02-1.52.102-2.341.23 1.592 3.059 4.787 5.16 8.487 5.16 3.232 0 6.143-1.667 7.844-4.234l-8.075-.459zm-.441-1.462l8.744 1.588a9.313 9.313 0 0 0 1.359-4.905c0-2.749-1.225-5.264-3.133-7.003l-6.97 10.32zm.672-13.527c5.629 0 10.202 4.59 10.202 10.21 0 5.646-4.573 10.248-10.202 10.248-5.667 0-10.29-4.602-10.29-10.248 0-5.62 4.623-10.21 10.29-10.21zm-6.126 12.748c.675-.07 1.14.059 1.958.156l10.136-9.987c-1.625-1.33-3.735-2.15-5.968-2.15-5.247 0-9.487 4.26-9.487 9.443a9.348 9.348 0 0 0 .877 4.006c.66-.724 1.715-1.409 2.484-1.468z"/></g></svg>