<svg width="159" height="24" viewBox="0 0 159 24" fill="none" xmlns="http://www.w3.org/2000/svg">
<path d="M76.4388 11.4263C76.2603 11.3954 76.0816 11.3653 75.9028 11.3359C75.7317 11.3086 75.5401 11.2839 75.3416 11.2668C74.8225 11.2269 74.3021 11.2078 73.7816 11.2092C73.3305 11.2092 72.8753 11.249 72.4221 11.3257C71.9573 11.4071 71.5432 11.5495 71.1825 11.7596C70.8238 11.9669 70.5172 12.2532 70.2858 12.5968C70.0462 12.9568 69.9312 13.4018 69.9312 13.9213C69.9333 14.7338 70.4822 15.4478 71.4967 16.0625L73.1279 17.0399C73.5447 17.2829 73.8165 17.4869 73.9246 17.6313C74.0478 17.7874 74.0957 17.9298 74.0978 18.0763C74.0957 18.3165 74.0478 18.5075 73.9534 18.6554C73.8589 18.8113 73.7263 18.9406 73.568 19.0312C73.3807 19.1338 73.178 19.2053 72.9677 19.2427C72.7363 19.2906 72.4954 19.3159 72.2428 19.3159C72.0922 19.3159 71.8998 19.3098 71.6705 19.2968C71.4266 19.2883 71.1828 19.2746 70.9395 19.2557C70.6848 19.2427 70.433 19.2215 70.1838 19.2009C69.9333 19.177 69.7019 19.1557 69.4897 19.1345H69.3644C69.129 19.1195 68.899 19.279 68.8606 19.5144L68.7545 20.0976L68.7532 20.1113V20.1763C68.747 20.2996 68.8031 20.4365 68.9175 20.5056C68.9941 20.5556 69.0824 20.5925 69.1776 20.6172C69.3932 20.6637 69.6204 20.7062 69.8689 20.7363C70.1181 20.7712 70.3686 20.7965 70.6232 20.8116C70.8738 20.8287 71.1188 20.8444 71.3577 20.8561C71.5987 20.8656 71.8191 20.8711 72.0114 20.8711H72.0231C72.5186 20.8711 73.0005 20.8232 73.4749 20.7274C73.9257 20.6402 74.3586 20.4773 74.7549 20.2455C75.1273 20.0196 75.4394 19.7075 75.664 19.3351C75.8953 18.9483 76.0048 18.4781 76.0048 17.9257C76.0041 17.5253 75.8803 17.1349 75.6503 16.8072C75.4073 16.4533 74.9733 16.0967 74.3504 15.7154L72.7363 14.7414C72.4303 14.5565 72.1969 14.3834 72.0422 14.2335C71.8985 14.089 71.8362 13.9528 71.8362 13.7885C71.8362 13.5729 71.8903 13.4189 71.9806 13.3053C72.0833 13.1786 72.212 13.076 72.3797 12.9972C72.5571 12.9126 72.7464 12.8556 72.941 12.8282C73.1511 12.7974 73.3558 12.7816 73.5502 12.7816C74.0458 12.7816 74.5297 12.7953 74.9966 12.8227C75.4648 12.8473 75.8542 12.8774 76.1609 12.9124H76.2328C76.4888 12.93 76.715 12.7468 76.751 12.4928L76.844 11.9479L76.8454 11.9342V11.8541C76.855 11.6282 76.6544 11.4516 76.4388 11.4263ZM66.1034 18.4185C65.6311 18.706 65.2047 18.9271 64.8309 19.0811C64.4582 19.2344 64.0593 19.3142 63.6563 19.3159C63.2614 19.3159 62.941 19.2002 62.6659 18.9737C62.4167 18.769 62.2688 18.3781 62.2688 17.76C62.2688 17.643 62.2723 17.5232 62.2859 17.3945C62.2955 17.2672 62.3147 17.146 62.338 17.0324L62.6597 15.3246C62.8219 14.4662 63.1361 13.8323 63.5934 13.4079C64.0403 12.9856 64.7036 12.7645 65.6079 12.7645C65.9857 12.7645 66.302 12.7816 66.5628 12.8124C66.7667 12.8377 66.9618 12.8665 67.1487 12.8973L66.1034 18.4185ZM69.2275 12.002C69.2214 11.7576 69.0016 11.6323 68.7703 11.594C68.3171 11.4804 67.812 11.3921 67.2568 11.3147C66.7099 11.2452 66.1592 11.2098 65.6079 11.2086C65.0582 11.2086 64.5243 11.2743 64.0095 11.403C63.4989 11.532 63.0165 11.754 62.5864 12.0581C62.1566 12.3641 61.7863 12.7679 61.4775 13.2649C61.1654 13.7653 60.9395 14.3834 60.7951 15.1151L60.4734 16.7531C60.4015 17.0893 60.3648 17.432 60.3639 17.7758C60.3639 18.2994 60.4364 18.7615 60.5986 19.1544C60.7527 19.5432 60.9683 19.8663 61.2352 20.1223C61.507 20.3776 61.8308 20.5706 62.1853 20.6884C62.5481 20.8116 62.9287 20.8732 63.3113 20.8712H63.3196C63.6255 20.8712 63.8993 20.852 64.1519 20.8116C64.3977 20.7719 64.6379 20.7075 64.8713 20.6192C65.0972 20.5364 65.3265 20.4303 65.5538 20.3016C65.6873 20.2338 65.8221 20.1496 65.9706 20.0607L65.9453 20.1976L65.9433 20.2113V20.3228C65.9433 20.4248 65.9665 20.5282 66.0282 20.6117C66.1171 20.7287 66.2479 20.7541 66.3772 20.7541H67.0926C67.2273 20.753 67.3572 20.7037 67.4588 20.6151C67.5583 20.5346 67.6301 20.425 67.6641 20.3016L69.2043 12.1697C69.2212 12.1154 69.229 12.0588 69.2275 12.002ZM58.0317 15.2287H53.6338C53.7146 14.9015 53.8248 14.6031 53.9692 14.3279C54.1222 14.0327 54.3201 13.763 54.5558 13.5284C54.7872 13.2998 55.0473 13.1246 55.3519 12.9993C55.6725 12.8714 56.0151 12.8079 56.3602 12.8124C57.6019 12.8377 58.1036 13.3053 58.1283 14.4005C58.1283 14.649 58.0947 14.9241 58.0317 15.2287ZM59.1797 12.1519C58.8881 11.8555 58.526 11.6282 58.1036 11.4591C57.6737 11.2914 57.1699 11.2086 56.5936 11.2086C55.2882 11.2072 54.2026 11.5666 53.3641 12.3004C52.5249 13.0301 51.9697 14.0774 51.6939 15.4272L51.4612 16.5861C51.3884 16.9338 51.3501 17.2878 51.3468 17.643C51.3468 18.2262 51.4529 18.7286 51.6706 19.1421C51.8716 19.5369 52.1614 19.8797 52.5174 20.1435C52.8723 20.4026 53.2736 20.5915 53.6995 20.7C54.1364 20.8139 54.5862 20.8714 55.0377 20.8711C55.651 20.8711 56.1945 20.8465 56.6744 20.7958C57.1821 20.7413 57.6882 20.6722 58.1919 20.5884C58.3596 20.5631 58.4951 20.5268 58.6006 20.4207C58.6875 20.3317 58.732 20.2126 58.7587 20.0764L58.8689 19.5124V19.4138C58.8717 19.312 58.8241 19.2154 58.7416 19.1557C58.6587 19.0962 58.5704 19.0846 58.4698 19.0832H58.3637C57.9277 19.1407 57.4424 19.1927 56.8831 19.2427C56.347 19.2893 55.8092 19.3137 55.2711 19.3159C54.5983 19.3159 54.089 19.1811 53.7262 18.9305C53.3812 18.6882 53.2019 18.309 53.1998 17.7101C53.1998 17.5622 53.2094 17.4082 53.2272 17.2501C53.2422 17.094 53.2772 16.9304 53.3347 16.7518L53.3559 16.6689H59.2221C59.3782 16.6689 59.5301 16.6265 59.6266 16.5088C59.7031 16.4107 59.7547 16.2956 59.7772 16.1733L59.9217 15.4772C59.9949 15.1144 60.0298 14.7722 60.0298 14.4504C60.0298 14.0041 59.9621 13.5811 59.8272 13.1882C59.6931 12.798 59.4716 12.4435 59.1797 12.1519ZM50.136 12.0061C49.8856 11.7463 49.5807 11.5453 49.2434 11.4174C48.8771 11.2764 48.4493 11.2086 47.9551 11.2086C47.3302 11.2086 46.7908 11.288 46.326 11.4496C45.9748 11.5728 45.6319 11.7131 45.2903 11.8767L45.2944 11.8459L45.2965 11.8343V11.7535C45.2972 11.6517 45.2631 11.5527 45.2 11.4728C45.1186 11.3722 44.9938 11.3169 44.8646 11.3243H43.985C43.8498 11.3246 43.7195 11.3746 43.6188 11.4646C43.5192 11.5452 43.4476 11.6552 43.4141 11.7788L41.8158 20.2393V20.3228C41.8149 20.425 41.8481 20.5244 41.9102 20.6055C41.9876 20.7116 42.1163 20.7541 42.2381 20.7541H43.1252C43.2621 20.7561 43.3895 20.7062 43.4969 20.6192C43.6024 20.54 43.6791 20.4284 43.7153 20.3016L45.0261 13.3922C45.5566 13.1608 45.9961 13.0089 46.3451 12.9336C46.6921 12.8554 47.0464 12.8148 47.402 12.8124C48.04 12.809 48.4452 12.9302 48.6109 13.0972C48.7957 13.282 48.8984 13.538 48.8997 13.9076C48.8997 14.0308 48.8888 14.1698 48.871 14.3238C48.8539 14.4812 48.8347 14.6373 48.8094 14.7893L47.8784 20.2284V20.3091C47.8717 20.429 47.9166 20.5461 48.0017 20.6309C48.092 20.7157 48.2097 20.7404 48.3295 20.7404H49.1872C49.3233 20.7404 49.4551 20.6926 49.5596 20.6055C49.6638 20.5257 49.7394 20.4143 49.7752 20.2879L50.7109 14.8461C50.7712 14.5417 50.8021 14.2323 50.8033 13.922C50.8071 13.567 50.753 13.2137 50.6432 12.8761C50.5395 12.5527 50.366 12.2558 50.136 12.0061ZM40.3352 10.4481H41.3003C41.4188 10.4481 41.5283 10.429 41.6227 10.3578C41.7063 10.295 41.7863 10.2276 41.8623 10.1558L43.6626 8.64856C43.742 8.57532 43.8063 8.49455 43.8118 8.37271C43.8077 8.1653 43.59 8.10917 43.4682 8.1037H42.286C42.1608 8.10917 42.043 8.12834 41.9472 8.1961C41.8629 8.25952 41.7822 8.32762 41.7056 8.40009L40.1846 9.87862C40.1018 9.96076 40.0306 10.0497 40.0244 10.1825C40.0244 10.3578 40.2195 10.4481 40.3352 10.4481ZM41.353 11.3243H40.4974C40.3616 11.3256 40.2302 11.3731 40.125 11.4591C40.0203 11.5399 39.9438 11.6519 39.9067 11.7788L38.3104 20.2393V20.3228C38.3104 20.4419 38.3433 20.5631 38.4336 20.6459C38.5226 20.7267 38.6403 20.7541 38.7553 20.7541H39.6199C39.7568 20.7541 39.8855 20.7062 39.9916 20.6192C40.0967 20.5394 40.1737 20.4282 40.2113 20.3016L41.8082 11.8363V11.7542C41.8082 11.6399 41.7754 11.5146 41.683 11.4338C41.5919 11.3517 41.4742 11.3243 41.353 11.3243ZM38.6924 8.87171C38.6989 8.7601 38.6593 8.6507 38.5828 8.56916C38.5 8.49301 38.3899 8.45352 38.2776 8.45964H37.348C37.0718 8.43686 36.8264 8.63519 36.7908 8.91004L34.6449 20.24V20.3221C34.6449 20.4385 34.6695 20.5515 34.753 20.6384C34.8316 20.7162 34.9389 20.7581 35.0494 20.7541H35.9906C36.1249 20.754 36.2543 20.7037 36.3534 20.6131C36.4446 20.5287 36.5111 20.421 36.5457 20.3016L38.6924 8.95659V8.87171ZM32.477 14.9015C32.4647 15.0617 32.4428 15.2212 32.412 15.3786L32.1806 16.6395C32.1169 17.0117 31.9986 17.3724 31.8295 17.7101C31.6638 18.0318 31.4633 18.307 31.2278 18.5342C30.9951 18.7635 30.7247 18.9401 30.416 19.0716C30.0947 19.2041 29.7498 19.2703 29.4022 19.2659C28.7212 19.2659 28.266 19.1195 28.012 18.8689C27.7498 18.6109 27.6081 18.2145 27.6081 17.6464C27.6109 17.3281 27.6458 17.0112 27.7108 16.6997L27.9442 15.4423C28.0948 14.6161 28.409 13.9795 28.8875 13.512C29.3598 13.0472 29.9533 12.8145 30.7014 12.8124C31.3805 12.8124 31.8357 12.9664 32.0896 13.2286C32.3566 13.4956 32.4969 13.898 32.4969 14.4676C32.4969 14.6045 32.4887 14.7509 32.477 14.9015ZM33.5209 12.1327C33.2073 11.8313 32.8343 11.5986 32.4257 11.4496C31.9917 11.288 31.4961 11.2086 30.9294 11.2086C28.2105 11.1915 26.5211 12.6338 26.0256 15.3807L25.7942 16.6402C25.7696 16.7997 25.7463 16.9537 25.7285 17.1036C25.7134 17.2597 25.7011 17.4178 25.7011 17.5793C25.7011 18.0605 25.7764 18.5014 25.927 18.9018C26.0755 19.3043 26.2973 19.6547 26.591 19.9457C26.8839 20.24 27.246 20.4673 27.678 20.6302C28.1099 20.7924 28.6055 20.8711 29.1592 20.8711C29.8766 20.8711 30.5187 20.7773 31.0813 20.5809C31.6426 20.3865 32.1286 20.1086 32.5352 19.7451C32.9443 19.373 33.2782 18.9259 33.5189 18.4281C33.7818 17.8796 33.9699 17.2983 34.0781 16.6997L34.3095 15.4423C34.3368 15.2808 34.3574 15.1226 34.3765 14.9666C34.3928 14.806 34.4013 14.6447 34.4019 14.4833C34.4019 14.0158 34.3327 13.5804 34.1876 13.1786C34.0485 12.7835 33.8204 12.4256 33.5209 12.1327ZM26.2802 12.3969L26.4055 11.7015L26.4096 11.6864V11.6056C26.4131 11.4855 26.3576 11.3712 26.261 11.2997C26.1602 11.2345 26.0414 11.2027 25.9215 11.2086H25.8852C25.4547 11.2086 25.0173 11.2606 24.5792 11.3626C24.2212 11.4434 23.8564 11.6056 23.4744 11.8404V11.7535C23.4744 11.6399 23.447 11.5228 23.3587 11.4379C23.2717 11.3601 23.1577 11.3193 23.0411 11.3243H22.1985C22.0631 11.3242 21.9324 11.3742 21.8316 11.4646C21.7331 11.5461 21.6619 11.6557 21.6276 11.7788L20.0307 20.2393V20.3228C20.0307 20.4419 20.0615 20.5576 20.1484 20.6404C20.2312 20.7253 20.3469 20.7541 20.4605 20.7541H21.3401C21.4763 20.7541 21.6078 20.7062 21.7125 20.6192C21.8178 20.5392 21.8954 20.4281 21.9343 20.3016L23.2239 13.4305C23.6312 13.2033 24.0049 13.0472 24.3444 12.9569C24.7031 12.8624 25.1316 12.8131 25.6327 12.8131H25.6881C25.9715 12.8282 26.2357 12.6721 26.2802 12.3969ZM17.9888 15.2287H13.5888C13.6695 14.9015 13.7818 14.6031 13.9242 14.3279C14.0763 14.0323 14.2741 13.7625 14.5101 13.5284C14.7374 13.3012 15.0075 13.1214 15.3048 12.9993C15.606 12.8761 15.9414 12.8124 16.3151 12.8124C17.5568 12.8377 18.0586 13.3053 18.0812 14.4005C18.0812 14.649 18.0524 14.9241 17.9888 15.2287ZM19.1339 12.1519C18.843 11.8555 18.4823 11.6282 18.0586 11.4591C17.628 11.2914 17.1249 11.2073 16.5506 11.2073C15.2432 11.2073 14.1555 11.5666 13.3191 12.3004C12.4799 13.0301 11.9247 14.0774 11.6489 15.4272L11.412 16.5861C11.3428 16.9356 11.3066 17.2908 11.3039 17.6471C11.3039 18.2282 11.41 18.7286 11.6276 19.1427C11.8262 19.5377 12.115 19.8806 12.4703 20.1435C12.8262 20.4043 13.2287 20.5939 13.6565 20.7C14.0897 20.8131 14.5354 20.8706 14.9831 20.8711H14.9927C15.6053 20.8711 16.1516 20.8465 16.6273 20.7958C17.1372 20.7411 17.6451 20.6726 18.151 20.5884C18.3187 20.5631 18.4522 20.5268 18.5555 20.4207C18.6425 20.3345 18.687 20.2126 18.7157 20.0744L18.8218 19.5124L18.8239 19.4966V19.4159C18.828 19.3137 18.781 19.2162 18.6986 19.1557C18.6158 19.0962 18.5227 19.0846 18.4269 19.0832H18.3208C17.8827 19.1407 17.3967 19.1927 16.8374 19.2427C16.283 19.2885 15.7463 19.3159 15.224 19.3159C14.5532 19.3159 14.0474 19.1811 13.6832 18.9305C13.3382 18.6882 13.1589 18.309 13.1561 17.7101C13.1561 17.5622 13.1644 17.4082 13.1801 17.248C13.2017 17.0797 13.2384 16.9136 13.2896 16.7518L13.3108 16.6689H19.1784C19.3345 16.6689 19.4865 16.6265 19.5857 16.5088C19.6593 16.4092 19.71 16.2947 19.7343 16.1733L19.8766 15.4772C19.9499 15.1144 19.9882 14.7722 19.9882 14.4504C19.9882 14.0041 19.9191 13.5811 19.7801 13.1896C19.6474 12.7986 19.4263 12.4435 19.1339 12.1519ZM4.59776 15.1596L6.87443 11.0587C6.96136 10.8972 7.17903 10.8684 7.31046 10.8739C7.58974 10.8876 7.62123 11.0587 7.62123 11.0587L8.10038 15.1589H4.59844L4.59776 15.1596ZM9.03268 9.92996C8.92338 9.75713 8.77701 9.61076 8.60418 9.50146C8.439 9.3959 8.25525 9.32273 8.06273 9.28584C7.88526 9.25294 7.7052 9.23598 7.52471 9.23519C7.34537 9.23519 7.15439 9.2564 6.95383 9.29679C6.74426 9.34114 6.54133 9.41246 6.3501 9.50899C6.14269 9.61509 5.95308 9.75404 5.7888 9.91901C5.5988 10.1151 5.44081 10.3399 5.3206 10.585L0.0505783 20.136C0.0155334 20.2106 -0.00157811 20.2924 0.000609302 20.3749C-0.00572501 20.4834 0.0375908 20.5889 0.118344 20.6617C0.203223 20.7253 0.306584 20.7575 0.412682 20.7541H1.50652C1.61747 20.7518 1.72557 20.7186 1.81866 20.6582C1.91456 20.5998 1.98954 20.5126 2.03291 20.4091L3.84685 16.7011H8.22633L8.6562 20.3632C8.67537 20.459 8.70822 20.5419 8.75888 20.6117C8.83006 20.7062 8.94369 20.7589 9.06143 20.7541H10.145C10.2723 20.7541 10.4031 20.7198 10.492 20.6268C10.5824 20.5323 10.6153 20.4057 10.6153 20.2742V20.1976L9.26199 10.6234C9.22502 10.3496 9.14973 10.1189 9.03268 9.93064V9.92996ZM80.6807 15.1438L82.9601 11.0437C83.045 10.8794 83.2647 10.8527 83.3955 10.8588C83.6754 10.8725 83.7062 11.0437 83.7062 11.0437L84.1847 15.1438H80.6807ZM85.1177 9.91695C85.0093 9.7423 84.8631 9.59422 84.6899 9.48366C84.5245 9.37965 84.3411 9.30767 84.1491 9.27146C83.7821 9.19966 83.4044 9.20315 83.0388 9.28173C82.8328 9.3228 82.6302 9.39536 82.4337 9.49393C82.2254 9.59945 82.0358 9.73842 81.8724 9.90532C81.6992 10.0785 81.5411 10.3023 81.4042 10.5679L76.1383 20.1188C76.0993 20.192 76.0804 20.2742 76.0836 20.3571C76.0795 20.4662 76.1233 20.5717 76.2033 20.6459C76.2881 20.7098 76.3923 20.7425 76.4984 20.7383H77.5915C77.7031 20.7367 77.8118 20.7027 77.9043 20.6404C77.9995 20.5823 78.0743 20.4963 78.1186 20.394L79.9325 16.686H84.312L84.7398 20.3461C84.759 20.4419 84.7919 20.5248 84.8439 20.5959C84.9165 20.6898 85.0299 20.7428 85.1485 20.7383H86.23C86.3573 20.7383 86.4846 20.7041 86.5791 20.6096C86.6701 20.5172 86.6989 20.3906 86.6989 20.2592V20.1805L85.349 10.6063C85.3121 10.3324 85.2354 10.1038 85.1177 9.91695ZM127.976 11.7206H127.116C126.999 11.7227 126.886 11.7642 126.796 11.8384C126.704 11.9061 126.638 12.0025 126.607 12.1122L125.074 20.3167V20.392C125.074 20.6021 125.228 20.7363 125.444 20.7363H126.307C126.542 20.7296 126.746 20.572 126.812 20.3461L128.344 12.1464V12.0677C128.344 11.8555 128.19 11.7206 127.976 11.7206ZM108.308 15.3615L108.305 15.3786H103.734C103.81 15.0234 103.933 14.6797 104.099 14.3567C104.263 14.0445 104.465 13.7714 104.701 13.5325C104.937 13.2992 105.217 13.1141 105.524 12.9877C105.856 12.8576 106.209 12.7933 106.565 12.7974C107.828 12.809 108.403 13.3326 108.414 14.4676C108.414 14.7359 108.38 15.0357 108.308 15.3615ZM109.327 12.2751C109.027 11.981 108.67 11.753 108.277 11.6056C107.861 11.4379 107.366 11.3571 106.8 11.3571C105.506 11.3551 104.445 11.7131 103.623 12.4318C102.801 13.1458 102.256 14.1739 101.978 15.5121L101.746 16.6689C101.676 17.0129 101.639 17.363 101.637 17.7142C101.637 18.2837 101.737 18.7711 101.951 19.1756C102.146 19.5562 102.425 19.8875 102.768 20.1435C103.115 20.3978 103.507 20.5821 103.924 20.6863C104.352 20.7958 104.786 20.854 105.233 20.854H105.242C105.851 20.854 106.394 20.8266 106.868 20.7808C107.376 20.7261 107.882 20.6567 108.385 20.5727C108.546 20.5501 108.667 20.5131 108.744 20.4303C108.815 20.3591 108.86 20.2571 108.883 20.1284L108.991 19.5623V19.4836C108.991 19.3193 108.844 19.2331 108.676 19.2331H108.569C108.079 19.2953 107.589 19.3478 107.097 19.3905C106.536 19.4412 105.997 19.4638 105.476 19.4638C104.795 19.4638 104.265 19.3269 103.885 19.0654C103.511 18.8094 103.324 18.3898 103.324 17.7778C103.324 17.6272 103.33 17.4698 103.349 17.3055C103.366 17.1481 103.403 16.9749 103.462 16.7935L103.497 16.6511H109.427C109.571 16.6511 109.693 16.6149 109.768 16.5245C109.833 16.4437 109.876 16.3417 109.903 16.2233L110.045 15.5251C110.117 15.1705 110.154 14.8338 110.154 14.5162C110.154 14.0794 110.086 13.6694 109.955 13.282C109.824 12.9035 109.609 12.5589 109.327 12.2751ZM118.537 12.1293C118.314 11.8863 118.027 11.698 117.674 11.5591C117.326 11.4222 116.904 11.3572 116.421 11.3572C115.805 11.3572 115.273 11.4338 114.818 11.596C114.423 11.733 114.035 11.8979 113.649 12.0889L113.677 11.902V11.8213C113.679 11.737 113.651 11.6547 113.597 11.5899C113.538 11.5077 113.44 11.4708 113.328 11.4728H112.45C112.334 11.4731 112.222 11.5163 112.135 11.594C112.048 11.6645 111.987 11.7609 111.959 11.8692L110.364 20.3167V20.392C110.364 20.4748 110.392 20.5576 110.444 20.6247C110.505 20.7041 110.603 20.7363 110.713 20.7363H111.592C111.708 20.7344 111.82 20.6953 111.912 20.6247C112.002 20.5537 112.067 20.4563 112.099 20.3461L113.418 13.4018C113.968 13.1574 114.428 12.9979 114.793 12.9206C115.146 12.8409 115.506 12.7996 115.867 12.7974C116.515 12.7974 116.935 12.9124 117.133 13.1054C117.34 13.3094 117.446 13.59 117.448 13.9733C117.448 14.1027 117.438 14.243 117.421 14.4005C117.402 14.5606 117.383 14.7188 117.359 14.8687L116.322 20.3174V20.3926C116.322 20.6021 116.474 20.7363 116.689 20.7363H117.546C117.663 20.7363 117.777 20.6952 117.867 20.6192C117.96 20.5523 118.027 20.4558 118.058 20.3454L119.097 14.8995C119.155 14.5853 119.187 14.2814 119.186 13.9891C119.19 13.6427 119.138 13.2979 119.031 12.9685C118.929 12.6565 118.761 12.3702 118.538 12.1293H118.537ZM136.753 12.1293C136.53 11.8863 136.242 11.698 135.891 11.5611C135.541 11.4229 135.122 11.3572 134.636 11.3572C134.019 11.3572 133.489 11.4338 133.037 11.596C132.638 11.733 132.249 11.8979 131.863 12.0889L131.894 11.9V11.8213C131.894 11.7369 131.865 11.655 131.813 11.5885C131.753 11.5071 131.651 11.4722 131.543 11.4722H130.664C130.548 11.4734 130.437 11.5167 130.351 11.594C130.265 11.6649 130.203 11.7611 130.174 11.8692L128.578 20.3167V20.392C128.578 20.4748 128.611 20.5535 128.658 20.6247C128.717 20.7041 128.815 20.7363 128.923 20.7363H129.808C129.925 20.7363 130.038 20.6952 130.128 20.6192C130.22 20.5508 130.287 20.4549 130.319 20.3454L131.632 13.4018C132.184 13.1588 132.644 12.9993 133.011 12.9206C133.362 12.8407 133.722 12.7994 134.083 12.7974C134.731 12.7974 135.153 12.9124 135.345 13.1054C135.556 13.3094 135.66 13.59 135.662 13.9733C135.662 14.1007 135.655 14.243 135.634 14.4005C135.619 14.5572 135.599 14.7134 135.573 14.8687L134.536 20.3174V20.3926C134.536 20.6021 134.688 20.7363 134.902 20.7363H135.764C135.88 20.7356 135.992 20.6963 136.082 20.6247C136.178 20.5494 136.246 20.4536 136.271 20.3461L137.311 14.8995C137.374 14.5853 137.401 14.2814 137.401 13.987C137.401 13.627 137.349 13.2881 137.245 12.9705C137.147 12.6563 136.979 12.3685 136.753 12.1286V12.1293ZM154.178 11.9191C154.184 11.7343 154.04 11.6015 153.843 11.5728C153.663 11.5439 153.484 11.5138 153.305 11.4824C153.121 11.4531 152.937 11.4312 152.752 11.4167C152.531 11.3969 152.31 11.3825 152.088 11.3743C151.791 11.3626 151.495 11.3575 151.198 11.3592C150.747 11.3581 150.296 11.3961 149.852 11.4728C149.425 11.543 149.013 11.6875 148.637 11.9C148.289 12.0999 147.992 12.3772 147.769 12.7104C147.541 13.0513 147.432 13.4805 147.432 13.987C147.432 14.7571 147.954 15.4478 148.957 16.0604L150.586 17.0399C151.005 17.2809 151.282 17.4869 151.406 17.645C151.535 17.8141 151.598 17.9722 151.598 18.1393C151.598 18.3973 151.543 18.6013 151.442 18.769C151.333 18.9388 151.196 19.0716 151.022 19.1674C150.829 19.2747 150.62 19.3503 150.403 19.3912C150.164 19.4412 149.917 19.4638 149.658 19.4638C149.508 19.4638 149.316 19.4604 149.084 19.4501L148.352 19.4083C148.098 19.3931 147.845 19.3726 147.592 19.3467C147.36 19.3281 147.129 19.3069 146.898 19.2831H146.781C146.568 19.2755 146.396 19.3946 146.36 19.5966L146.252 20.1763L146.25 20.1839V20.2421C146.245 20.3454 146.294 20.4439 146.379 20.5022C146.448 20.546 146.525 20.5788 146.619 20.6035C146.824 20.65 147.052 20.6904 147.295 20.7198C147.541 20.7561 147.793 20.7814 148.045 20.7965C148.298 20.8136 148.538 20.8273 148.778 20.8389C149.021 20.8499 149.235 20.854 149.429 20.854C149.921 20.854 150.403 20.8095 150.876 20.7137C151.318 20.6298 151.742 20.4695 152.129 20.24C152.489 20.0229 152.79 19.7209 153.006 19.3604C153.23 18.9908 153.338 18.5342 153.338 17.9935C153.338 17.6122 153.222 17.2521 152.997 16.9208C152.767 16.582 152.341 16.2315 151.726 15.8544L150.11 14.8783C149.799 14.6914 149.563 14.5162 149.4 14.358C149.242 14.2047 149.173 14.0432 149.173 13.8563C149.173 13.627 149.225 13.4517 149.331 13.321C149.441 13.1821 149.584 13.0725 149.759 12.9877C149.934 12.9055 150.129 12.8439 150.343 12.8124C150.561 12.7816 150.767 12.7645 150.966 12.7645C151.45 12.7635 151.934 12.7763 152.418 12.8028C152.808 12.8288 153.198 12.8603 153.587 12.8973H153.651C153.866 12.9131 154.057 12.7612 154.09 12.5482L154.177 12.002L154.178 11.9869V11.9191ZM143.591 18.5363C143.108 18.8347 142.669 19.0654 142.277 19.2235C141.897 19.3809 141.488 19.4631 141.076 19.4638C140.663 19.4638 140.316 19.3426 140.027 19.1037C139.752 18.8771 139.603 18.4534 139.603 17.8257C139.603 17.7066 139.609 17.5814 139.619 17.452C139.631 17.3276 139.648 17.2039 139.671 17.081L139.995 15.3786C140.159 14.5066 140.481 13.8542 140.953 13.4114C141.422 12.9726 142.108 12.7474 143.022 12.7474C143.406 12.7474 143.726 12.7645 143.986 12.7974H143.988C144.225 12.8261 144.451 12.859 144.663 12.8973L143.591 18.5363ZM146.558 12.0697C146.556 11.8849 146.391 11.7822 146.171 11.7418C145.674 11.6221 145.17 11.5295 144.663 11.4646C144.113 11.3934 143.568 11.3571 143.022 11.3571C142.491 11.356 141.962 11.4213 141.448 11.5516C140.946 11.6754 140.472 11.893 140.051 12.1929C139.615 12.5114 139.246 12.9129 138.965 13.3744C138.661 13.8638 138.435 14.4737 138.29 15.1959L137.97 16.8346C137.9 17.1662 137.864 17.504 137.862 17.8429C137.862 18.3569 137.937 18.8094 138.092 19.1886C138.246 19.5699 138.45 19.8841 138.708 20.1305C138.971 20.3749 139.275 20.5576 139.626 20.6767C139.984 20.7966 140.359 20.8567 140.737 20.8547C141.036 20.8547 141.307 20.8369 141.555 20.7945C141.794 20.7568 142.029 20.6952 142.256 20.6096C142.482 20.5248 142.706 20.4228 142.931 20.2975C143.107 20.2017 143.297 20.088 143.498 19.9552L143.442 20.2804V20.392C143.439 20.4754 143.463 20.5577 143.51 20.6268C143.573 20.7137 143.676 20.7363 143.795 20.7383H144.512C144.627 20.7377 144.736 20.6945 144.82 20.6172C144.909 20.5487 144.972 20.4543 145 20.3461L146.541 12.2176C146.554 12.1695 146.56 12.1196 146.558 12.0697ZM123.152 12.8665H125.014C125.13 12.8644 125.242 12.8215 125.329 12.7453C125.415 12.674 125.476 12.5778 125.504 12.4702L125.614 11.902V11.8213C125.614 11.6091 125.463 11.4722 125.248 11.4722H123.412L123.665 10.0867V10.0285C123.665 9.84782 123.545 9.71297 123.366 9.71297H123.315L122.354 9.84577C122.108 9.87657 121.927 10.021 121.888 10.2462L121.672 11.4728L120.483 11.5071C120.375 11.5046 120.27 11.5383 120.184 11.6029C120.1 11.6688 120.039 11.7599 120.01 11.863L119.92 12.3162L119.918 12.323V12.3812C119.913 12.5722 120.071 12.7008 120.275 12.7145L121.412 12.8528L120.333 18.5397C120.314 18.6725 120.292 18.7861 120.281 18.8826C120.271 18.988 120.265 19.0948 120.265 19.2002C120.261 19.793 120.479 20.238 120.917 20.4885C121.337 20.7349 121.858 20.854 122.475 20.854C122.642 20.854 122.831 20.8465 123.034 20.8266C123.241 20.8177 123.43 20.7945 123.612 20.7719C123.751 20.7479 123.855 20.7137 123.927 20.65C123.988 20.5878 124.032 20.5116 124.056 20.4282L124.164 19.8279L124.166 19.8225V19.7492C124.172 19.6568 124.133 19.5562 124.041 19.5274C123.974 19.5044 123.903 19.494 123.832 19.4966H122.743C122.463 19.4966 122.261 19.4692 122.149 19.4213C122.06 19.3871 122.002 19.2844 122.002 19.0538C122.002 18.9401 122.02 18.7827 122.054 18.5883L123.152 12.8658V12.8665ZM93.0443 12.7974C93.3126 12.8028 93.5166 12.6796 93.5536 12.4503L93.6809 11.7535L93.6829 11.746V11.6727C93.6829 11.4646 93.505 11.3592 93.2797 11.3592H93.2435C92.8095 11.3592 92.3762 11.4092 91.9532 11.5071C91.5616 11.5995 91.1475 11.7925 90.7135 12.0827L90.7498 11.902V11.8213C90.7498 11.6132 90.6054 11.4722 90.3973 11.4722H89.5567C89.4413 11.4725 89.3302 11.5165 89.2459 11.5954C89.157 11.6638 89.0954 11.7603 89.068 11.8692L87.4717 20.3167V20.392C87.4717 20.6001 87.6148 20.7363 87.8229 20.7363H88.7024C88.8177 20.7349 88.9293 20.6957 89.0201 20.6247C89.1108 20.5539 89.1772 20.4565 89.2097 20.3461L90.5089 13.4442C90.9312 13.2046 91.3227 13.0376 91.6814 12.9432C92.0476 12.8473 92.4816 12.7974 92.9943 12.7974H93.0443ZM128.84 9.67259V9.59729C128.84 9.38783 128.687 9.25093 128.47 9.25093H127.558C127.441 9.25065 127.328 9.29245 127.24 9.36866C127.147 9.43728 127.08 9.53482 127.049 9.64589L126.958 10.3639V10.4392C126.958 10.6507 127.11 10.787 127.326 10.787H128.242C128.358 10.7843 128.469 10.7431 128.559 10.6699C128.651 10.6012 128.717 10.5036 128.747 10.3927L128.84 9.67259ZM98.5094 19.2947C98.368 19.3264 98.2249 19.3502 98.0809 19.3659C97.894 19.3864 97.7112 19.4083 97.5278 19.4234C97.343 19.4412 97.165 19.4508 96.9939 19.4542C96.82 19.4624 96.6694 19.4638 96.5421 19.4638C95.8692 19.4638 95.3832 19.3426 95.0786 19.1195C94.7816 18.9004 94.6234 18.4918 94.6221 17.8778C94.6221 17.7162 94.6289 17.5328 94.6467 17.337C94.6645 17.1426 94.6987 16.9379 94.7432 16.7189L94.9787 15.5073C95.1676 14.549 95.4934 13.8508 95.9445 13.4114C96.4018 12.9726 97.0281 12.7488 97.8475 12.7474C98.4752 12.746 99.1008 12.8022 99.7182 12.9144L98.5094 19.2947ZM101.206 11.7405C100.72 11.6362 100.23 11.5501 99.7374 11.4824C99.1829 11.4003 98.6237 11.3578 98.0638 11.3572C97.3888 11.3572 96.7837 11.4283 96.2512 11.5748C95.7373 11.7107 95.2578 11.9532 94.8438 12.2867C94.44 12.6139 94.1032 13.0376 93.841 13.5613C93.5707 14.0829 93.3687 14.7201 93.2223 15.4786L92.9909 16.686C92.9207 17.0562 92.8838 17.4319 92.8807 17.8086C92.8807 18.3378 92.9635 18.7977 93.1374 19.1831C93.3105 19.5699 93.5481 19.8882 93.8506 20.136C94.1532 20.3783 94.516 20.5597 94.9363 20.6788C95.5331 20.8396 96.1547 20.8896 96.7701 20.8273C97.2591 20.7892 97.7461 20.7282 98.2294 20.6445L98.2144 20.7233C98.1581 21.0395 98.0695 21.3492 97.9501 21.6474C97.8475 21.8938 97.7037 22.0861 97.5278 22.2305C97.3293 22.3852 97.0986 22.492 96.8529 22.5427C96.5825 22.6098 96.2512 22.6426 95.8617 22.6426C95.6242 22.6426 95.3661 22.633 95.0882 22.6173C94.8076 22.5981 94.5269 22.5831 94.2463 22.5673C93.9888 22.5525 93.7316 22.5334 93.4748 22.5098C93.2353 22.4845 93.0408 22.4653 92.8861 22.4462H92.8211C92.7193 22.4404 92.6183 22.4681 92.5336 22.5249C92.4489 22.5826 92.389 22.6701 92.3659 22.7699L92.2537 23.3531C92.2578 23.5297 92.4084 23.642 92.6206 23.6974C92.867 23.7652 93.2572 23.8323 93.7965 23.898C94.3346 23.9665 94.9499 24 95.6303 24C96.2765 24 96.8433 23.948 97.3272 23.848C97.8132 23.7474 98.2335 23.5688 98.584 23.3128C98.9351 23.0581 99.2267 22.7083 99.452 22.275C99.6778 21.8417 99.8476 21.2989 99.9667 20.6555L101.577 12.2121V12.2025C101.577 12.1868 101.581 12.1772 101.581 12.1772C101.591 12.148 101.596 12.1176 101.598 12.0868C101.598 11.8979 101.432 11.7822 101.206 11.7405ZM145.124 4.46896C141.616 5.07544 136.851 5.5279 133.263 6.59983C133.211 6.61558 133.217 6.64433 133.279 6.64227C141.937 6.38216 151.309 6.42665 158.313 6.66144C158.33 6.66144 158.353 6.63064 158.349 6.61352C158.183 5.78527 157.539 4.8516 155.597 4.85776H154.473C154.473 4.85776 154.446 4.8783 154.451 4.88857C154.765 5.6778 153.88 6.20282 153.308 5.72366C153.066 5.52379 152.827 5.02341 153.442 4.59423C153.961 4.23441 154.487 3.88569 155.021 3.5483C156.504 2.60916 156.298 1.26136 154.33 1.11146C149.572 0.753459 141.078 0.26609 137.717 0.000501692C137.64 -0.00565887 137.6 0.0463637 137.65 0.0771665C140.431 1.57897 142.954 1.71382 145.733 2.74743C147.312 3.33473 146.999 4.14382 145.124 4.46896Z" fill="white"/>
</svg>
