<svg xmlns="http://www.w3.org/2000/svg" width="193" height="33" viewBox="0 0 193 33"><g fill-rule="nonzero" fill="none"><path fill="#EFA92C" d="M188.19 7.163c.098-2.072-.345-3.855-1.4-5.108-3.202-3.797-10.822-1.268-17.012 5.658-6.197 6.924-8.615 15.615-5.415 19.42 3.204 3.794 10.82 1.263 17.016-5.658a32.181 32.181 0 0 0 2.679-3.444l-10.216-1.038 14.773-1.888-16.294-2.326 19.74-2.048-16.116-1.653 12.245-1.915z"/><path fill="#070927" d="M6.576 7.694c0-.1-.058-.174-.171-.174h-3.52c-.368 0-.523.103-.523.414 0 .235.12.36.357.383 1.14.108 1.387.469 1.425 1.962.055 1.998.064 3.515.064 5.12 0 2.959-.004 5.098-.047 7.145-.066 3.064-.216 4.988-.982 6.466C1.755 31.766 0 31.78 0 32.307c0 .214.186.369.391.336.776-.135 6.17-2.136 6.17-9.521 0-2.596-.043-4.81-.043-7.723 0-.934.034-4.847.058-7.705zm9.329 14.177c-.02-2.19-.037-4.17-.04-6.06 1.043.03 2.879.186 4.349.274.1.006.168-.047.191-.163l.301-1.372c.024-.113-.033-.177-.134-.172-1.699.057-3.081.11-4.702.124.005-1.323.027-3.612.042-5.663 1.334.036 2.809.189 4.704.327.098.009.165-.049.19-.163l.3-1.37c.025-.113-.031-.175-.132-.172-2.133.016-3.867.06-5.74.06h-2.863c-.366 0-.519.102-.519.413 0 .235.122.36.356.383 1.107.104 1.256.598 1.294 1.962.053 1.998.049 3.515.049 5.12 0 2.085-.024 4.79-.114 7.7-.004.102.059.173.175.173h2.13c1.79 0 3.554.037 5.426.063.104.003.171-.045.195-.16l.301-1.378c.026-.115-.032-.18-.134-.173-2.183.138-4.145.228-5.625.247zm64.835-4.947c1.743 2.632 2.737 4.057 4.008 5.181 1.018.907 2.248 1.301 3.712 1.301 1.094 0 2.277-.167 2.277-.515 0-.226-.185-.272-.817-.372-1.174-.183-2.002-.534-3.393-1.78-1.135-1.011-2.4-2.659-3.642-4.492 1.545-.843 2.84-2.413 2.84-4.46 0-3.378-3.284-4.267-5.786-4.267h-5.42c-.366 0-.521.103-.521.414 0 .235.123.36.355.383 1.109.104 1.258.598 1.295 1.962.054 1.998.05 3.515.05 5.12 0 2.085-.023 4.79-.116 7.7-.003.102.058.173.177.173h2.13c.113 0 .17-.071.17-.173-.019-2.3-.042-4.357-.046-6.307.776.12 1.561.17 2.346.151.123 0 .251-.008.38-.02l.001.001zm-2.685-8.198c.391-.042.954-.082 1.504-.082 2.312 0 3.828 1.075 3.828 3.608 0 1.966-1.072 3.511-3.459 3.511-.769 0-1.521-.097-1.917-.227.006-1.322.023-3.594.044-6.81zM51.364 17.89l.682-1.695c.572-1.42 1.146-2.79 2.026-4.929.916 2.136 1.498 3.512 2.1 4.93.233.55.471 1.114.713 1.694-1.84.018-3.68.018-5.521 0zm7.695 5.208c.041.1.116.173.232.173h2.354c.117 0 .17-.066.125-.166a305.571 305.571 0 0 1-3.467-7.813c-1.538-3.622-2.246-5.479-3.004-7.599-.035-.1-.11-.174-.227-.174h-2.611c-.367 0-.52.103-.52.414 0 .235.121.349.355.383.546.075.928.299.928.975 0 .368-.16.803-.344 1.269-.733 1.86-1.33 3.255-1.958 4.732a341.318 341.318 0 0 1-3.456 7.806c-.046.1.005.173.121.173h1.498c.112 0 .188-.071.23-.173.567-1.433 1.061-2.705 1.537-3.913a133.605 133.605 0 0 1 6.571 0c.545 1.31 1.098 2.642 1.636 3.913zM30.282 7.52c-2.367 0-3.535-.032-6.392-.057-.101 0-.138.044-.164.16l-.303 1.333c-.028.13.04.22.176.214 1.678-.072 3.7-.161 5.532-.212.05 1.998.03 4.868.03 6.44 0 2.086-.025 4.79-.116 7.7-.002.103.06.174.179.174h2.128c.119 0 .174-.071.174-.173-.024-2.853-.05-5.34-.05-7.7 0-.806.025-3.815.047-6.454 1.764.045 3.533.13 5.36.22.099.005.168-.048.193-.162l.301-1.37c.023-.113-.034-.175-.138-.172-2.854.021-4.59.06-6.957.06V7.52zm79.161 0c-.364 0-.534.094-.534.403 0 .235.139.346.37.394.68.14.841.686.611 1.357-.612 1.768-1.142 3.317-1.704 4.925-.474 1.35-.943 2.686-1.644 4.66-.776-2.044-1.227-3.249-1.774-4.66-.839-2.178-1.51-3.97-2.509-6.625-.107-.28-.196-.454-.487-.454-.267 0-.36.174-.46.454-.969 2.655-1.618 4.447-2.431 6.625-.496 1.35-.996 2.686-1.73 4.66-.738-2.044-1.165-3.249-1.678-4.66-.8-2.178-1.534-4.25-2.482-6.905-.038-.1-.116-.174-.231-.174h-2.267c-.119 0-.163.064-.125.166 1.033 2.593 2.031 5.2 2.995 7.819 1.33 3.617 1.97 5.26 2.755 7.5.136.381.227.553.502.553.318 0 .437-.315.525-.554.922-2.51 1.87-5.01 2.84-7.5.407-1.042.843-2.13 1.352-3.378.563 1.363.792 1.94 1.345 3.379 1.397 3.617 2.071 5.26 2.906 7.5.142.381.237.553.514.553.316 0 .42-.303.51-.554.64-1.861 2.14-6.029 2.68-7.5a383.042 383.042 0 0 1 3.035-7.81c.042-.1-.008-.174-.121-.174h-2.763zm7.966 10.37c.22-.564.447-1.127.675-1.694.576-1.42 1.148-2.79 2.023-4.929.92 2.136 1.501 3.512 2.105 4.93.235.55.474 1.114.713 1.694-1.839.018-3.677.018-5.516 0v-.001zm7.687 5.209c.043.1.114.173.23.173h2.36c.116 0 .168-.066.126-.166a284.916 284.916 0 0 1-3.468-7.813c-1.54-3.622-2.244-5.479-3.005-7.599-.034-.1-.112-.174-.23-.174H118.5c-.364 0-.52.103-.52.414 0 .235.123.349.354.383.547.075.93.299.93.975 0 .368-.157.803-.343 1.269-.733 1.86-1.331 3.255-1.954 4.732a366.467 366.467 0 0 1-3.458 7.806c-.049.1.002.173.122.173h1.494c.119 0 .192-.071.232-.173.563-1.433 1.061-2.705 1.54-3.913 1.313-.032 2.319-.04 3.28-.04.968 0 1.976.008 3.288.04.543 1.31 1.094 2.642 1.63 3.913h.001zm7.703-8.15c.418.65.797 1.223 1.138 1.747a239.73 239.73 0 0 1-.11 6.403c-.002.102.058.173.177.173h2.127c.117 0 .176-.071.176-.173-.025-2.14-.041-4.281-.048-6.422a349.859 349.859 0 0 1 5.81-8.948c.076-.115.023-.209-.1-.209h-3.038c-.365 0-.517.103-.517.414 0 .235.121.342.353.383.65.11.803.539.441 1.142a369.225 369.225 0 0 1-3.561 5.754c-.333-.52-.644-1.007-.978-1.525-1.29-1.991-2.57-3.99-3.84-5.994-.086-.133-.124-.174-.293-.174h-2.494c-.125 0-.18.094-.101.21a321.552 321.552 0 0 1 4.858 7.219zm-64.134.45c0-.934.036-4.847.057-7.705.003-.1-.057-.174-.171-.174h-3.374c-.367 0-.52.103-.52.414 0 .235.118.36.352.383 1.108.104 1.259.598 1.292 1.962.056 1.998.052 3.515.052 5.12 0 2.085-.024 4.79-.115 7.7-.003.102.059.173.174.173h2.13c.119 0 .174-.071.174-.173-.023-2.853-.051-5.34-.051-7.7zm81.068-8.227c1.181 0 2.248.36 2.966.335.19-.009.36.01.36.315 0 .066-.022.101-.022.198 0 .358.171 1.132.174 2.152 0 .383-.095.52-.41.52-.296 0-.364-.19-.406-.457-.088-.597-.197-.878-.501-1.207-.507-.542-1.284-.787-2.374-.787-1.814 0-2.788 1.094-2.719 2.41.08 1.501 1.29 2.3 3.402 3.57 2.937 1.781 3.796 2.929 3.796 4.893 0 2.141-1.652 4.504-5.818 4.504-1.058 0-2.095-.166-2.993-.557-.388-.172-.416-.264-.434-.952-.024-.83-.035-1.946.037-2.349.043-.239.103-.382.402-.382.245 0 .37.11.402.423.017.197.047.616.14.95.443 1.598 1.953 1.814 3.002 1.814 2.076 0 3.262-1.285 3.262-2.643 0-1.727-.983-2.642-3.794-4.224-2.774-1.572-3.347-3.195-3.306-4.627.066-2.366 1.864-3.899 4.834-3.899z"/></g></svg>