<svg width="143" height="24" viewBox="0 0 143 24" fill="none" xmlns="http://www.w3.org/2000/svg">
<path d="M139.582 5.09802C139.654 3.56121 139.326 2.23874 138.543 1.30938C136.168 -1.50688 130.517 0.3689 125.925 5.50596C121.329 10.6415 119.536 17.0877 121.909 19.9099C124.286 22.7239 129.934 20.8467 134.53 15.7133C135.249 14.9079 135.913 14.0544 136.517 13.1589L128.94 12.389L139.897 10.9887L127.812 9.26345L142.453 7.74443L130.5 6.51839L139.582 5.09802Z" fill="white"/>
<path d="M4.87746 5.49187C4.87746 5.4177 4.83444 5.36281 4.75063 5.36281H2.13982C1.86688 5.36281 1.75191 5.43921 1.75191 5.66988C1.75191 5.84418 1.84092 5.93689 2.0167 5.95395C2.86225 6.03406 3.04545 6.30181 3.07363 7.40918C3.11443 8.89111 3.1211 10.0163 3.1211 11.2067C3.1211 13.4014 3.11813 14.9879 3.08624 16.5062C3.03729 18.7788 2.92603 20.2058 2.35789 21.3021C1.3017 23.3462 0 23.3566 0 23.7475C0 23.9062 0.137957 24.0212 0.290007 23.9967C0.865572 23.8966 4.86634 22.4124 4.86634 16.9349C4.86634 15.0094 4.83444 13.3673 4.83444 11.2067C4.83444 10.514 4.85966 7.61167 4.87746 5.49187ZM11.7968 16.007C11.782 14.3827 11.7694 12.9141 11.7672 11.5123C12.5408 11.5346 13.9026 11.6503 14.9929 11.7155C15.067 11.72 15.1175 11.6807 15.1345 11.5946L15.3578 10.577C15.3756 10.4932 15.3333 10.4457 15.2584 10.4494C13.9982 10.4917 12.9732 10.531 11.7709 10.5414C11.7746 9.56013 11.7909 7.86236 11.802 6.34112C12.7915 6.36783 13.8855 6.48131 15.291 6.58366C15.3637 6.59034 15.4134 6.54732 15.4319 6.46276L15.6545 5.44663C15.673 5.36281 15.6315 5.31683 15.5566 5.31898C13.9745 5.33092 12.6884 5.36355 11.2992 5.36355H9.17565C8.90419 5.36355 8.79071 5.43921 8.79071 5.66988C8.79071 5.84418 8.8812 5.93689 9.05476 5.95395C9.87582 6.03109 9.98634 6.39749 10.0145 7.40918C10.0538 8.89111 10.0509 10.0163 10.0509 11.2067C10.0509 12.7532 10.0331 14.7595 9.96631 16.9179C9.96335 16.9935 10.0101 17.0462 10.0961 17.0462H11.6759C13.0036 17.0462 14.312 17.0736 15.7004 17.093C15.7776 17.0951 15.8273 17.0595 15.8451 16.9742L16.0683 15.9522C16.0876 15.8669 16.0446 15.8187 15.9689 15.8238C14.3498 15.9262 12.8946 15.993 11.7968 16.007ZM59.8854 12.3378C61.1782 14.29 61.9154 15.3469 62.8582 16.1806C63.6132 16.8533 64.5255 17.1456 65.6114 17.1456C66.4228 17.1456 67.3002 17.0217 67.3002 16.7636C67.3002 16.596 67.163 16.5618 66.6943 16.4877C65.8235 16.3519 65.2094 16.0916 64.1777 15.1674C63.3358 14.4176 62.3976 13.1952 61.4764 11.8357C62.6223 11.2104 63.5828 10.0459 63.5828 8.52767C63.5828 6.02219 61.147 5.36281 59.2913 5.36281H55.2712C54.9998 5.36281 54.8848 5.43921 54.8848 5.66988C54.8848 5.84418 54.976 5.93689 55.1481 5.95395C55.9707 6.03109 56.0812 6.39749 56.1086 7.40918C56.1487 8.89111 56.1457 10.0163 56.1457 11.2067C56.1457 12.7532 56.1287 14.7595 56.0597 16.9179C56.0574 16.9935 56.1027 17.0462 56.191 17.0462H57.7708C57.8546 17.0462 57.8969 16.9935 57.8969 16.9179C57.8828 15.2119 57.8657 13.6862 57.8628 12.2399C58.4383 12.3289 59.0206 12.366 59.6028 12.3519C59.694 12.3519 59.789 12.346 59.8847 12.3371L59.8854 12.3378ZM57.8939 6.25731C58.1839 6.22616 58.6015 6.19649 59.0094 6.19649C60.7243 6.19649 61.8487 6.99383 61.8487 8.87257C61.8487 10.3308 61.0536 11.4767 59.2831 11.4767C58.7128 11.4767 58.155 11.4048 57.8613 11.3083C57.8657 10.3278 57.8783 8.64264 57.8939 6.25731ZM38.097 13.0543L38.6029 11.7971C39.0271 10.7439 39.4529 9.72776 40.1056 8.14125C40.785 9.72553 41.2166 10.7461 41.6631 11.7979C41.836 12.2058 42.0125 12.6241 42.192 13.0543C40.8272 13.0677 39.4625 13.0677 38.097 13.0543ZM43.8045 16.9171C43.8349 16.9913 43.8905 17.0454 43.9765 17.0454H45.7225C45.8093 17.0454 45.8486 16.9965 45.8152 16.9223C44.931 15.0028 44.0737 13.071 43.2437 11.1274C42.103 8.4409 41.5779 7.06355 41.0156 5.49113C40.9897 5.41696 40.934 5.36207 40.8473 5.36207H38.9107C38.6385 5.36207 38.525 5.43847 38.525 5.66914C38.525 5.84344 38.6147 5.92799 38.7883 5.95321C39.1933 6.00884 39.4766 6.17498 39.4766 6.67638C39.4766 6.94932 39.3579 7.27197 39.2215 7.6176C38.6778 8.99718 38.235 10.0319 37.7692 11.1274C36.939 13.0679 36.0845 14.998 35.2058 16.9171C35.1717 16.9913 35.2096 17.0454 35.2956 17.0454H36.4067C36.4897 17.0454 36.5461 16.9928 36.5773 16.9171C36.9978 15.8543 37.3642 14.9108 37.7173 14.0148C38.5305 13.9945 39.344 13.9846 40.1575 13.9852C40.871 13.9852 41.6186 13.9911 42.591 14.0148C42.9953 14.9865 43.4054 15.9744 43.8045 16.9171ZM22.4604 5.36281C20.7047 5.36281 19.8384 5.33908 17.7194 5.32054C17.6445 5.32054 17.617 5.35317 17.5977 5.43921L17.373 6.4279C17.3522 6.52433 17.4027 6.59108 17.5035 6.58663C18.7481 6.53323 20.2479 6.46721 21.6067 6.42939C21.6437 7.91132 21.6289 10.04 21.6289 11.206C21.6289 12.7532 21.6104 14.7588 21.5429 16.9171C21.5414 16.9935 21.5874 17.0462 21.6756 17.0462H23.254C23.3423 17.0462 23.383 16.9935 23.383 16.9179C23.3652 14.8018 23.346 12.9571 23.346 11.2067C23.346 10.6089 23.3645 8.37711 23.3808 6.41974C24.6892 6.45312 26.0013 6.51617 27.3564 6.58292C27.4298 6.58663 27.481 6.54732 27.4995 6.46276L27.7228 5.44663C27.7398 5.36281 27.6976 5.31683 27.6204 5.31898C25.5036 5.33463 24.216 5.36281 22.4604 5.36281ZM81.1746 5.36281C80.9046 5.36281 80.7785 5.43253 80.7785 5.66172C80.7785 5.83602 80.8816 5.91835 81.053 5.95395C81.5573 6.05779 81.6767 6.46276 81.5061 6.96045C81.0522 8.27179 80.6591 9.42069 80.2423 10.6134C79.8907 11.6147 79.5428 12.6056 79.0229 14.0697C78.4473 12.5537 78.1128 11.6599 77.7071 10.6134C77.0848 8.99792 76.5872 7.66878 75.8462 5.69955C75.7668 5.49187 75.7008 5.36281 75.485 5.36281C75.2869 5.36281 75.218 5.49187 75.1438 5.69955C74.4251 7.66878 73.9437 8.99792 73.3407 10.6134C72.9728 11.6147 72.602 12.6056 72.0575 14.0697C71.5102 12.5537 71.1935 11.6599 70.813 10.6134C70.2196 8.99792 69.6752 7.4611 68.972 5.49187C68.9439 5.4177 68.886 5.36281 68.8007 5.36281H67.1193C67.031 5.36281 66.9984 5.41028 67.0265 5.48594C67.7927 7.40918 68.533 9.34281 69.248 11.2853C70.2344 13.9681 70.7091 15.1867 71.2914 16.8481C71.3922 17.1307 71.4597 17.2583 71.6637 17.2583C71.8996 17.2583 71.9878 17.0247 72.0531 16.8474C72.7369 14.9857 73.4401 13.1314 74.1595 11.2846C74.4614 10.5117 74.7848 9.70476 75.1623 8.77911C75.5799 9.79006 75.7498 10.218 76.1599 11.2853C77.1961 13.9681 77.696 15.1867 78.3153 16.8481C78.4206 17.1307 78.4911 17.2583 78.6966 17.2583C78.9309 17.2583 79.0081 17.0336 79.0748 16.8474C79.5495 15.4671 80.6621 12.3756 81.0626 11.2846C81.7918 9.34552 82.5422 7.4145 83.3137 5.49187C83.3448 5.4177 83.3078 5.36281 83.2239 5.36281H81.1746ZM87.083 13.0543C87.2462 12.636 87.4146 12.2184 87.5837 11.7979C88.0109 10.7446 88.4352 9.7285 89.0842 8.14199C89.7665 9.72627 90.1975 10.7469 90.6455 11.7986C90.8198 12.2065 90.997 12.6249 91.1743 13.0551C89.8106 13.068 88.4468 13.068 87.083 13.0551V13.0543ZM92.7845 16.9179C92.8164 16.992 92.8691 17.0462 92.9551 17.0462H94.7056C94.7916 17.0462 94.8302 16.9972 94.799 16.9231C93.9125 15.0044 93.055 13.0726 92.2268 11.1281C91.0845 8.44164 90.5624 7.06429 89.9979 5.49187C89.9727 5.4177 89.9149 5.36281 89.8274 5.36281H87.8922C87.6223 5.36281 87.5066 5.43921 87.5066 5.66988C87.5066 5.84418 87.5978 5.92874 87.7691 5.95395C88.1748 6.00958 88.4589 6.17572 88.4589 6.67712C88.4589 6.95007 88.3425 7.27271 88.2045 7.61834C87.6608 8.99792 87.2173 10.0326 86.7552 11.1281C85.9227 13.0679 85.0677 14.9979 84.1904 16.9179C84.154 16.992 84.1919 17.0462 84.2809 17.0462H85.389C85.4772 17.0462 85.5314 16.9935 85.5611 16.9179C85.9786 15.855 86.348 14.9115 86.7033 14.0156C87.6771 13.9918 88.4233 13.9859 89.1361 13.9859C89.8541 13.9859 90.6017 13.9918 91.5748 14.0156C91.9776 14.9872 92.387 15.9752 92.7845 16.9179ZM98.4979 10.873C98.8079 11.3551 99.089 11.7801 99.342 12.1687C99.336 13.7523 99.3086 15.3358 99.2604 16.9179C99.2589 16.9935 99.3034 17.0462 99.3917 17.0462H100.969C101.056 17.0462 101.1 16.9935 101.1 16.9179C101.081 15.3306 101.069 13.7426 101.064 12.1546C102.467 9.92062 103.903 7.7081 105.374 5.51783C105.43 5.43253 105.391 5.36281 105.299 5.36281H103.046C102.775 5.36281 102.663 5.43921 102.663 5.66988C102.663 5.84418 102.752 5.92354 102.924 5.95395C103.407 6.03554 103.52 6.35373 103.251 6.80098C102.384 8.23173 101.504 9.65438 100.61 11.0688C100.363 10.6831 100.133 10.3219 99.8849 9.93766C98.9281 8.46092 97.9787 6.97825 97.0367 5.49187C96.973 5.39322 96.9448 5.36281 96.8194 5.36281H94.9696C94.8769 5.36281 94.8361 5.43253 94.8947 5.51857C96.1197 7.28711 97.3209 9.07207 98.4979 10.873ZM50.9293 11.2067C50.9293 10.514 50.956 7.61167 50.9716 5.49187C50.9738 5.4177 50.9293 5.36281 50.8447 5.36281H48.3422C48.07 5.36281 47.9565 5.43921 47.9565 5.66988C47.9565 5.84418 48.0441 5.93689 48.2176 5.95395C49.0394 6.03109 49.1514 6.39749 49.1759 7.40918C49.2174 8.89111 49.2145 10.0163 49.2145 11.2067C49.2145 12.7532 49.1967 14.7595 49.1292 16.9179C49.1269 16.9935 49.1729 17.0462 49.2582 17.0462H50.8381C50.9263 17.0462 50.9671 16.9935 50.9671 16.9179C50.9501 14.8018 50.9293 12.9571 50.9293 11.2067ZM111.058 5.1047C111.934 5.1047 112.725 5.37171 113.258 5.35317C113.399 5.3465 113.525 5.36059 113.525 5.58681C113.525 5.63576 113.509 5.66172 113.509 5.73367C113.509 5.9992 113.635 6.57328 113.638 7.32982C113.638 7.61389 113.567 7.71551 113.334 7.71551C113.114 7.71551 113.064 7.57458 113.032 7.37655C112.967 6.93375 112.886 6.72533 112.661 6.48131C112.285 6.0793 111.708 5.89758 110.9 5.89758C109.555 5.89758 108.832 6.70901 108.883 7.6851C108.943 8.7984 109.84 9.39102 111.407 10.333C113.585 11.654 114.222 12.5054 114.222 13.9622C114.222 15.5502 112.997 17.3028 109.907 17.3028C109.122 17.3028 108.353 17.1797 107.687 16.8897C107.399 16.7621 107.378 16.6939 107.365 16.1836C107.347 15.568 107.339 14.7402 107.392 14.4413C107.424 14.264 107.469 14.158 107.691 14.158C107.872 14.158 107.965 14.2396 107.989 14.4717C108.001 14.6178 108.024 14.9286 108.093 15.1763C108.421 16.3616 109.541 16.5218 110.319 16.5218C111.859 16.5218 112.739 15.5687 112.739 14.5615C112.739 13.2805 112.01 12.6019 109.925 11.4285C107.867 10.2625 107.442 9.05874 107.473 7.99661C107.522 6.24174 108.855 5.1047 111.058 5.1047Z" fill="white"/>
</svg>
