<svg xmlns="http://www.w3.org/2000/svg" width="122" height="32" fill="none" viewBox="0 0 122 32"><path fill="#262626" d="M17.43 5.028a19.3 19.3 0 0 0-3.817-.42c-3.36-.015-6.713 0-10.073-.015-.45 0-.54.135-.54.555.015 3.63.007 7.26.007 10.89s.008 7.26-.007 10.89c0 .434.112.547.547.54 3.173-.023 6.353-.015 9.526 0 1.177 0 2.34-.083 3.51-.248 3.525-.502 5.52-2.377 6.27-5.887.21-.968.307-1.958.367-2.94.15-2.618.172-5.243-.397-7.823-.653-2.94-2.34-4.912-5.385-5.542zm1.485 15.84c-.517 2.04-1.988 2.97-3.96 3.285-.742.12-1.492.15-2.242.157-1.815.015-3.63-.008-5.445.015-.443 0-.593-.098-.585-.57.022-2.565.014-5.137.014-7.703 0-2.587.008-5.167-.007-7.754 0-.435.112-.555.547-.548 2.31.06 4.62-.075 6.93.09.57.038 1.126.143 1.68.27 1.658.398 2.753 1.38 3.158 3.068a20 20 0 0 1-.075 9.674zM85.478 4c-6.795-.007-12.173 5.258-12.203 11.955C73.245 22.578 78.652 28 85.297 28A11.98 11.98 0 0 0 97.29 16.008c-.008-6.585-5.333-12-11.812-12.008m-.195 20.385c-4.62-.015-8.378-3.758-8.378-8.355 0-4.68 3.742-8.43 8.415-8.415a8.375 8.375 0 0 1 8.348 8.378c0 4.635-3.766 8.407-8.386 8.392M37.328 4C30.57 4 25.162 9.355 25.192 16.023c.03 6.63 5.4 11.977 12.03 11.977s11.993-5.37 11.993-12C49.2 9.4 43.86 4 37.327 4m-.136 20.385c-4.71-.015-8.384-3.78-8.37-8.573.015-4.492 3.826-8.204 8.415-8.197 4.62.015 8.386 3.803 8.37 8.43-.014 4.575-3.825 8.355-8.407 8.34zM70.485 4.593c-.9.037-1.8.03-2.7 0-.405-.015-.472.127-.472.495.014 2.752 0 5.504.014 8.257 0 .397-.082.518-.502.518a916 916 0 0 0-11.123 0c-.487 0-.607-.12-.607-.608.023-2.715 0-5.43.023-8.145 0-.412-.098-.532-.518-.517-.878.03-1.763.03-2.64 0-.405-.015-.517.09-.517.51.022 3.652.007 7.297.007 10.95s0 7.23-.008 10.837c0 .427.053.615.548.585a27 27 0 0 1 2.587 0c.436.015.54-.105.54-.54-.022-3.097 0-6.202-.022-9.3 0-.48.083-.645.615-.645 3.667.03 7.343.023 11.01 0 .472 0 .608.09.608.593-.03 3.135 0 6.27-.023 9.412 0 .39.097.495.48.48.915-.03 1.838-.03 2.752 0 .42.015.518-.113.51-.518-.022-2.145-.007-4.29-.007-6.434 0-5.115 0-10.238.007-15.353 0-.457-.12-.592-.577-.577zM118.432 8.568c-.54-1.845-1.732-3.053-3.6-3.585a9.8 9.8 0 0 0-2.715-.375c-3.93-.008-7.86 0-11.782-.015-.405 0-.517.082-.517.51.022 3.652.014 7.305.014 10.95s0 7.267-.007 10.897c0 .383.045.547.495.525q1.35-.057 2.7 0c.412.015.525-.098.517-.518-.022-2.565 0-5.137-.022-7.702 0-.397.082-.525.502-.517q2.948.031 5.895.007c1.23 0 2.453.045 3.683-.105 2.617-.323 4.29-1.657 4.92-4.103.51-1.987.502-3.997-.075-5.977zm-3.48 4.784c-.427 1.433-1.515 2.19-3.232 2.205-1.268.015-2.535 0-3.803 0-1.342 0-2.677-.007-4.02 0-.307 0-.405-.075-.405-.39a708 708 0 0 0 0-6.99c0-.232-.022-.434.323-.427 2.767.053 5.542-.112 8.31.09 1.845.135 2.857 1.208 2.985 3.045.052.825.067 1.65-.173 2.453z"/></svg>