<svg xmlns="http://www.w3.org/2000/svg" width="234" height="111" viewBox="0 0 234 111"><g fill-rule="evenodd"><path fill="#2E304F" d="M.606.606v110.21h110.21V69.448l13.738-13.737-13.738-13.738V.606z"/><path fill="#FFF" fill-rule="nonzero" d="M40.45 37.436v3.163H28.145V23.25h3.426v14.187h8.879zm-24.704-3.713v6.876H12.32V23.25h13.03v3.164h-9.604v4.146h8.515v3.164h-8.515zm16.278 29.913c0 4.272-3.41 6.91-8.903 6.91h-10.8v-24.58h10.383c2.722 0 4.935.773 6.408 2.229a5.768 5.768 0 0 1 1.618 4.11v.069a5.99 5.99 0 0 1-3.014 5.396c2.86 1.149 4.308 3.094 4.308 5.796v.07zm36.22-34.61V40.6h-3.382V23.25h3.095l8.705 11.234V23.25h3.378V40.6h-2.828l-8.968-11.574zM44.912 40.6v-6.82L38.01 23.25h4.053l4.6 7.282 4.651-7.281h3.956l-6.905 10.456V40.6h-3.454zm12.475-17.35h3.426V40.6h-3.426V23.25zM36.34 45.972h3.536v21.2h13.11v3.374H36.34V45.971zm39.873 14.013c0 6.848-3.802 10.933-10.17 10.933-6.253 0-10.137-4.11-10.137-10.731V45.97h3.536v14.045c0 4.785 2.431 7.528 6.666 7.528 4.236 0 6.57-2.613 6.57-7.358V45.97h3.535v14.013zm15.574-29.291h7.641v7.443l-.08.069a10.97 10.97 0 0 1-7.193 2.65c-5.291 0-8.988-3.642-8.988-8.9v-.049a8.855 8.855 0 0 1 8.964-8.948c2.746 0 4.672.68 6.638 2.347l.174.15-2.173 2.604-.178-.15a6.359 6.359 0 0 0-4.579-1.755c-2.904 0-5.258 2.569-5.258 5.728v.049c0 3.414 2.273 5.8 5.51 5.8a6.751 6.751 0 0 0 3.846-1.165v-2.831h-4.324v-3.042zm-6.723 29.133v7.378h14.372v3.341H81.528V45.971H99.27v3.341H85.064v7.172h12.71v3.342h-12.71zM12.268 76.9h2.868l3.18 5.113 3.179-5.113h2.864v12.087h-2.646v-7.892l-3.402 5.162h-.069l-3.37-5.113v7.839h-2.604V76.9zm17.398 0h9.117v2.367h-6.472v2.451h5.696v2.37h-5.7v2.54h6.565v2.367h-9.206V76.9zm13.98 0h2.868l3.18 5.113 3.179-5.113h2.864v12.087h-2.642v-7.892l-3.402 5.162h-.069l-3.37-5.113v7.839h-2.608V76.9zm17.398 0h5.614c1.38 0 2.472.38 3.16 1.072.55.54.85 1.285.829 2.055v.016a2.832 2.832 0 0 1-1.59 2.61c1.4.533 2.261 1.346 2.261 2.969v.036c0 2.209-1.796 3.317-4.522 3.317h-5.752V76.9zm14.878 0h9.118v2.367h-6.473v2.451h5.7v2.37h-5.7v2.54h6.561v2.367h-9.206V76.9zm13.984 0h5.525c1.538 0 2.73.433 3.524 1.214a3.794 3.794 0 0 1 1.035 2.763v.036a3.754 3.754 0 0 1-2.589 3.746l2.953 4.316h-3.11l-2.59-3.867h-2.087v3.867h-2.661V76.9zm5.352 5.874c1.294 0 2.022-.692 2.022-1.711v-.037c0-1.14-.809-1.727-2.087-1.727H92.55v3.47l2.707.005zM15.819 49.276v7.245h6.436c3.07 0 4.903-1.412 4.903-3.774v-.069c0-2.164-1.715-3.402-4.705-3.402H15.82zm0 10.517v7.44h7.379c3.288 0 5.258-1.412 5.258-3.775v-.06c0-2.978-3.119-3.605-5.736-3.605h-6.9zm50.27 21.994c1.172 0 1.916-.38 1.916-1.279v-.036c0-.809-.618-1.246-1.743-1.246h-2.625v2.557l2.451.004zm.707 4.854c1.173 0 1.88-.405 1.88-1.315v-.024c0-.809-.602-1.31-1.969-1.31h-3.074v2.657l3.163-.008z"/><path fill="#CFAD9A" fill-rule="nonzero" d="M201.604 58.69a1.605 1.605 0 0 0-1.642 1.59 1.652 1.652 0 1 0 3.304 0 1.588 1.588 0 0 0-1.662-1.59zm.792 1.602a.784.784 0 0 1-.792.82.82.82 0 0 1-.821-.845.784.784 0 0 1 .792-.82.82.82 0 0 1 .821.84v.005zm1.576-.805l-.037-.004a.353.353 0 0 1-.357-.353c0-.197.16-.357.357-.357h.033v-.193a1.01 1.01 0 0 1 .246-.743.948.948 0 0 1 .702-.238c.118-.001.236.007.353.025.17.028.296.176.296.349a.361.361 0 0 1-.353.357h-.074c-.197 0-.312.102-.312.332v.12h.378a.353.353 0 1 1 0 .705h-.366v1.917a.435.435 0 1 1-.866 0v-1.917zm5.016 0l-.378-.012v1.305c0 .197.086.296.28.296h.102a.36.36 0 0 1 .357.357.353.353 0 0 1-.222.324c-.158.061-.327.09-.496.086-.53 0-.89-.213-.89-.92v-1.448h-.03a.371.371 0 0 1 0-.743h.03v-.37a.435.435 0 0 1 .865 0v.382h.382a.371.371 0 0 1 0 .743zm2.676-.796c.657 0 1.038.451 1.038 1.133v1.58a.435.435 0 1 1-.866 0v-1.305c0-.41-.193-.62-.525-.62s-.542.21-.542.62v1.305a.435.435 0 1 1-.866 0v-3.362a.435.435 0 0 1 .866 0v1.141a1.08 1.08 0 0 1 .895-.492zm3.095 0a1.445 1.445 0 0 1 1.47 1.477.41.41 0 0 1-.411.41h-1.716a.71.71 0 0 0 .755.588c.223.002.44-.07.616-.205a.324.324 0 0 1 .21-.07.332.332 0 0 1 .336.34.34.34 0 0 1-.115.26 1.59 1.59 0 0 1-1.059.369 1.527 1.527 0 0 1-1.597-1.58 1.523 1.523 0 0 1 1.51-1.59zm-.657 1.346h1.305a.657.657 0 0 0-.644-.648.681.681 0 0 0-.66.648zm7.466-1.995v3.362a.435.435 0 1 1-.866 0v-3.362a.435.435 0 0 1 .866 0zm-2.951 1.445a.353.353 0 0 1-.361-.357.357.357 0 0 1 .361-.357h-.004v-.193a1.01 1.01 0 0 1 .246-.743.948.948 0 0 1 .702-.238c.118-.001.236.007.353.025.17.028.296.176.296.349a.361.361 0 0 1-.353.357h-.074c-.197 0-.312.102-.312.332v.12h.377a.353.353 0 0 1 0 .705h-.365v1.917a.435.435 0 1 1-.866 0v-1.917zm4.601 2.258l-1.014-2.438a.636.636 0 0 1-.045-.202.41.41 0 0 1 .41-.41.41.41 0 0 1 .411.324l.66 1.777.641-1.773a.44.44 0 0 1 .41-.328.41.41 0 0 1 .411.41.657.657 0 0 1-.041.206l-1.067 2.56c-.255.62-.513.855-1.03.855a1.33 1.33 0 0 1-.472-.078.374.374 0 0 1-.275-.358.345.345 0 0 1 .34-.352.41.41 0 0 1 .144.024c.058.02.119.032.18.033a.283.283 0 0 0 .308-.18l.03-.07zm2.865-3.013c.23 0 .42.18.431.41v2.278a.435.435 0 1 1-.866 0v-2.257a.431.431 0 0 1 .435-.431zm0-.292a.435.435 0 0 1-.484-.41.493.493 0 0 1 .968 0 .435.435 0 0 1-.484.41zm2.951.25c.665 0 1.039.452 1.039 1.13v1.58a.435.435 0 1 1-.866 0v-1.305c0-.41-.193-.62-.526-.62-.332 0-.542.21-.542.62V61.4a.435.435 0 1 1-.866 0v-2.258a.435.435 0 0 1 .866 0v.041a1.08 1.08 0 0 1 .895-.492zm4.36.042c.23 0 .42.18.43.41v1.95c.037.436-.102.87-.386 1.203a1.79 1.79 0 0 1-1.317.41 2.935 2.935 0 0 1-1.117-.21.353.353 0 1 1 .25-.66c.266.122.554.184.846.18.591 0 .87-.275.87-.82v-.156c-.23.32-.603.505-.997.496a1.342 1.342 0 0 1-1.359-1.424 1.346 1.346 0 0 1 1.359-1.424c.381-.01.745.16.985.455a.431.431 0 0 1 .435-.41zm-.411 1.412h-.004a.743.743 0 1 0-1.486 0 .698.698 0 0 0 .743.706.706.706 0 0 0 .747-.706zm-30.25 3.464a.435.435 0 0 1 .43.423v3.361a.435.435 0 1 1-.865 0v-.04a1.12 1.12 0 0 1-.953.496c-.714 0-1.391-.558-1.391-1.58s.669-1.58 1.391-1.58c.372-.008.725.161.953.455V64.04a.435.435 0 0 1 .435-.431zm-.41 2.672a.751.751 0 1 0-1.487 0 .751.751 0 1 0 1.486 0zm3.903-1.564a.431.431 0 0 1 .435.431v2.258a.435.435 0 1 1-.866 0v-.033a1.08 1.08 0 0 1-.895.488c-.657 0-1.039-.43-1.039-1.133v-1.58a.435.435 0 0 1 .866 0v1.305c0 .41.193.62.526.62.332 0 .542-.21.542-.62v-1.305a.431.431 0 0 1 .43-.43zm2.54.772l-.361.004v1.305c0 .197.086.296.28.296h.102a.36.36 0 0 1 .357.357.353.353 0 0 1-.222.324c-.158.062-.327.09-.496.086-.53 0-.891-.213-.891-.92v-1.452h-.045a.371.371 0 0 1 0-.743h.028v-.382a.435.435 0 0 1 .867 0v.382h.381a.371.371 0 0 1 0 .743zm3.12 1.346l.004-.012a.37.37 0 0 1 .238.644 1.502 1.502 0 0 1-1.084.41 1.56 1.56 0 0 1-1.588-1.58 1.568 1.568 0 0 1 1.6-1.588c.378-.02.75.102 1.043.34a.39.39 0 0 1-.259.686.41.41 0 0 1-.25-.086.82.82 0 0 0-.542-.193.78.78 0 0 0-.743.82.784.784 0 0 0 .776.846.878.878 0 0 0 .57-.209.41.41 0 0 1 .235-.078zm2.676-2.142c.652 0 1.034.435 1.038 1.132v1.58a.435.435 0 1 1-.866 0V66.1c0-.41-.193-.62-.525-.62-.333 0-.542.21-.542.62v1.306a.435.435 0 1 1-.866 0v-3.362a.435.435 0 0 1 .866 0v1.141a1.08 1.08 0 0 1 .895-.492zm5.36 0c.645 0 1.03.39 1.039 1.128v1.589a.435.435 0 1 1-.866 0v-1.305c0-.41-.185-.62-.51-.62-.324 0-.525.21-.525.62v1.305a.435.435 0 1 1-.866 0v-1.305c0-.41-.184-.62-.509-.62-.324 0-.525.21-.525.62v1.305a.435.435 0 1 1-.866 0V65.15a.435.435 0 0 1 .866 0v.033a1.09 1.09 0 0 1 .899-.492.915.915 0 0 1 .862.484c.24-.309.61-.488 1.001-.484zm2.992.024c.369-.03.735.087 1.018.324.238.268.357.62.333.977v1.392a.41.41 0 0 1-.41.41.41.41 0 0 1-.411-.361c-.235.26-.574.401-.924.386a.944.944 0 0 1-1.05-.936c0-.665.509-.973 1.23-.973.255-.001.508.042.748.127v-.049c0-.357-.226-.558-.657-.558a1.982 1.982 0 0 0-.599.086.353.353 0 0 1-.484-.328c0-.15.093-.285.234-.337a2.66 2.66 0 0 1 .972-.16zm.542 2.011l.004-.127a1.35 1.35 0 0 0-.554-.115c-.37 0-.6.136-.6.41 0 .235.194.37.473.37.402 0 .677-.226.677-.538zm3.271-2.035c.657 0 1.039.435 1.039 1.137v1.58a.435.435 0 1 1-.866 0v-1.305c0-.41-.193-.62-.526-.62-.332 0-.541.21-.541.62v1.305a.435.435 0 1 1-.866 0V65.15a.435.435 0 0 1 .866 0v.033a1.08 1.08 0 0 1 .894-.492zm-76.56-12.749a.595.595 0 0 1 .562.558.575.575 0 0 1-.164.41 4.281 4.281 0 0 1-3.206 1.368A4.367 4.367 0 0 1 143 49.87v-.032a4.42 4.42 0 0 1 7.483-3.206.595.595 0 0 1 .197.443.607.607 0 0 1-.608.608.657.657 0 0 1-.41-.148 3.284 3.284 0 0 0-2.295-1.014c-1.724 0-3.041 1.457-3.041 3.284v.032a3.177 3.177 0 0 0 3.111 3.305 3.399 3.399 0 0 0 2.368-1.035.5.5 0 0 1 .362-.164zm2.7 2.22a.632.632 0 0 1-.644-.64V42.634a.634.634 0 0 1 1.268 0v10.89a.62.62 0 0 1-.624.64zm9.408-8.668a.628.628 0 0 1 .607.657v7.388a.624.624 0 1 1-1.231 0v-.924a3.238 3.238 0 0 1-2.91 1.642c-2.052 0-3.255-1.38-3.255-3.403v-4.72a.62.62 0 0 1 .624-.64.64.64 0 0 1 .64.64v4.408c0 1.58.854 2.566 2.352 2.566a2.512 2.512 0 0 0 2.549-2.664v-4.31a.62.62 0 0 1 .624-.64zm7.17-.099c2.04 0 4.064 1.614 4.06 4.409v.032c0 2.783-2.012 4.425-4.064 4.425a3.838 3.838 0 0 1-3.255-1.81v1.071a.628.628 0 0 1-.623.64.64.64 0 0 1-.64-.64V42.634a.634.634 0 0 1 1.267 0v4.655c.69-1.022 1.692-1.893 3.255-1.893zm8.012 8.686a.612.612 0 0 1-.652-.612c0-.241.116-.467.312-.608l3.932-3.468c1.777-1.568 2.4-2.467 2.4-3.62a2.2 2.2 0 0 0-2.318-2.204c-1.232 0-2.052.595-2.873 1.679a.6.6 0 0 1-1.068-.361.57.57 0 0 1 .132-.362c.956-1.334 2.007-2.122 3.9-2.122 2.068 0 3.566 1.38 3.566 3.255v.033c0 1.679-.887 2.713-2.91 4.474l-3.074 2.73h5.578a.593.593 0 0 1 0 1.186h-6.925zm13.52.197c-2.975 0-4.851-2.697-4.851-5.923v-.033c0-3.226 1.925-5.956 4.884-5.956 2.96 0 4.835 2.701 4.835 5.923v.033c0 3.226-1.908 5.956-4.868 5.956zm15.807-5.956c0 3.226-1.892 5.956-4.868 5.956-2.976 0-4.852-2.701-4.852-5.923v-.033c0-3.226 1.925-5.956 4.885-5.956 2.959 0 4.835 2.701 4.835 5.923v.033zm6.087 5.956c-2.992 0-4.868-2.697-4.852-5.923v-.033c0-3.226 1.925-5.956 4.885-5.956 2.959 0 4.835 2.701 4.835 5.923v.033c0 3.226-1.909 5.956-4.868 5.956zm-65.064 8.557c1.317.41 2.729.916 2.737 2.463v.012c0 1.613-1.33 2.55-3.025 2.55a5.882 5.882 0 0 1-3.283-1.072.57.57 0 0 1-.23-.46.55.55 0 0 1 .558-.541.505.505 0 0 1 .312.098 4.778 4.778 0 0 0 2.697.903c1.022 0 1.76-.53 1.76-1.35v-.033c0-.858-1.005-1.186-2.122-1.498-1.33-.378-2.811-.838-2.811-2.401v-.033c0-1.466 1.215-2.434 2.893-2.434.95.02 1.88.267 2.714.722a.61.61 0 0 1 .311.525.55.55 0 0 1-.558.542.632.632 0 0 1-.279-.065 4.605 4.605 0 0 0-2.22-.657c-1.002 0-1.642.525-1.642 1.231v.033c0 .809 1.055 1.12 2.188 1.465zm8.176.095l3.037 3.817c.102.113.16.258.164.41a.583.583 0 0 1-.607.591.62.62 0 0 1-.542-.295l-2.943-3.719-1.76 1.745v1.641a.62.62 0 0 1-.625.64.632.632 0 0 1-.64-.603V56.27a.634.634 0 0 1 1.268 0v7.778l4.605-4.683a.632.632 0 0 1 .493-.246.575.575 0 0 1 .575.59.653.653 0 0 1-.247.493l-2.778 2.73zm5.348-7.072a.69.69 0 0 1 .76.673v.213a.751.751 0 0 1-1.499 0v-.213a.685.685 0 0 1 .739-.673zm0 3.255a.632.632 0 0 1 .644.636v7.388a.62.62 0 0 1-.628.624.632.632 0 0 1-.64-.62v-7.388a.64.64 0 0 1 .624-.64zm7.285-.099c2.04 0 4.064 1.61 4.06 4.412v.033c0 2.783-2.012 4.425-4.064 4.425a3.838 3.838 0 0 1-3.255-1.81v3.694a.62.62 0 0 1-.624.64.632.632 0 0 1-.64-.64V59.754a.634.634 0 1 1 1.268 0v1.153c.69-1.022 1.691-1.892 3.255-1.892zm10.097 0c2.04 0 4.064 1.61 4.06 4.412v.033c0 2.783-2.012 4.425-4.064 4.425a3.838 3.838 0 0 1-3.255-1.81v3.694a.62.62 0 0 1-.624.64.632.632 0 0 1-.64-.64V59.754a.634.634 0 1 1 1.268 0v1.153c.69-1.022 1.691-1.892 3.255-1.892zm9.12 0c2.529 0 3.961 2.056 3.945 4.318a.591.591 0 0 1-.591.591h-6.157c.18 1.839 1.478 2.873 2.992 2.873a3.476 3.476 0 0 0 2.463-.985.558.558 0 0 1 .361-.148.538.538 0 0 1 .361.953 4.326 4.326 0 0 1-3.21 1.28c-2.335 0-4.243-1.793-4.243-4.424v-.033c0-2.45 1.728-4.425 4.08-4.425zm9.568.066a.607.607 0 0 1 .628.644.628.628 0 0 1-.558.64c-1.642.19-2.992 1.42-2.992 3.883v2.894a.634.634 0 1 1-1.269 0v-7.388a.64.64 0 0 1 .624-.64.632.632 0 0 1 .64.64v1.597c.624-1.416 1.856-2.27 2.927-2.27zm-26.022 4.392v-.033c0-2-1.38-3.284-2.993-3.284a3.173 3.173 0 0 0-3.074 3.284v.033a3.165 3.165 0 0 0 3.074 3.283c1.642 0 2.993-1.231 2.993-3.283zm10.097 0v-.033c0-2-1.38-3.284-2.993-3.284a3.173 3.173 0 0 0-3.074 3.284v.033a3.165 3.165 0 0 0 3.074 3.283c1.642 0 2.993-1.231 2.993-3.283zm-9.268-13.62v-.032c0-2.003-1.38-3.283-2.993-3.283a3.169 3.169 0 0 0-3.074 3.283v.033a3.165 3.165 0 0 0 3.074 3.284c1.642 0 2.993-1.232 2.993-3.284zm12.83 13.127h5.476c-.132-1.543-1.018-2.894-2.713-2.894-1.478 0-2.599 1.252-2.763 2.894zm2.434-14.686v.033c0 2.516 1.38 4.77 3.534 4.77 2.155 0 3.489-2.221 3.489-4.737v-.033c0-2.516-1.363-4.77-3.518-4.77-2.154 0-3.505 2.205-3.505 4.737zm10.939.029h.004c0 2.516 1.375 4.77 3.53 4.77 2.154 0 3.488-2.221 3.488-4.737v-.033c0-2.516-1.362-4.77-3.517-4.77s-3.505 2.205-3.505 4.737v.033zm10.954-.029v.033c0 2.516 1.38 4.77 3.534 4.77 2.155 0 3.49-2.221 3.49-4.737v-.033c0-2.516-1.363-4.77-3.518-4.77s-3.506 2.205-3.506 4.737z"/></g></svg>