<svg width="70" height="21" viewBox="0 0 70 21" fill="none" xmlns="http://www.w3.org/2000/svg">
<path d="M65.7985 0H3.42369C1.53284 0 0 1.5294 0 3.416V17.584C0 19.4706 1.53284 21 3.42369 21H65.7985C67.6894 21 69.2222 19.4706 69.2222 17.584V3.416C69.2222 1.5294 67.6894 0 65.7985 0Z" fill="#002244"/>
<path d="M12.605 10.4533C12.301 10.2666 11.9689 10.1126 11.6041 9.99127C11.2439 9.86994 10.8744 9.76727 10.5049 9.68327C10.1354 9.59927 9.79868 9.51994 9.49467 9.43594C9.19065 9.3566 8.94744 9.23994 8.76035 9.0906C8.57326 8.94127 8.47972 8.74527 8.47972 8.5026C8.47972 8.31127 8.54052 8.1386 8.65278 7.97994C8.76503 7.82127 8.94744 7.69994 9.19065 7.6066C9.43386 7.51794 9.7753 7.47127 10.1635 7.47127C10.5517 7.47127 10.9586 7.53194 11.3796 7.6486C11.8005 7.76527 12.2074 7.9426 12.605 8.17594L13.2504 6.57994C12.8482 6.3186 12.3711 6.11794 11.8286 5.97794C11.286 5.83794 10.7341 5.76794 10.1775 5.76794C9.345 5.76794 8.6481 5.8986 8.09619 6.15527C7.54428 6.41194 7.13269 6.75727 6.86142 7.1866C6.59014 7.6206 6.4545 8.0966 6.4545 8.61927C6.4545 9.09527 6.54337 9.4966 6.72578 9.81394C6.90819 10.1313 7.15608 10.3879 7.46009 10.5839C7.76411 10.7799 8.10555 10.9386 8.47037 11.0553C8.83519 11.1719 9.20001 11.2699 9.56483 11.3539C9.92497 11.4379 10.2617 11.5219 10.5704 11.6153C10.8791 11.7086 11.1223 11.8253 11.3094 11.9699C11.4918 12.1146 11.5854 12.3106 11.5854 12.5533C11.5854 12.7446 11.5246 12.9126 11.4076 13.0573C11.286 13.2019 11.1083 13.3139 10.8557 13.4026C10.6032 13.4913 10.2804 13.5333 9.87352 13.5333C9.345 13.5333 8.81648 13.4446 8.29263 13.2673C7.76879 13.0899 7.31978 12.8613 6.95028 12.5813L6.25338 14.1773C6.65094 14.4899 7.17479 14.7466 7.82959 14.9426C8.4844 15.1386 9.16727 15.2366 9.87352 15.2366L9.88755 15.2226C10.7201 15.2226 11.417 15.0919 11.9736 14.8306C12.5302 14.5693 12.9417 14.2239 13.2177 13.7993C13.4937 13.3746 13.6293 12.9033 13.6293 12.3899C13.6293 11.9233 13.5357 11.5266 13.344 11.2093C13.1569 10.8919 12.909 10.6399 12.605 10.4533Z" fill="white"/>
<path d="M23.2643 5.93127H20.9865L17.067 10.1966V5.93127H15.0278V15.0779H17.067V12.7539C17.3664 12.4319 18.1615 11.5779 18.241 11.4893L21.0894 15.0779H23.4935L19.6067 10.0146L23.2643 5.93127Z" fill="white"/>
<path d="M26.4541 5.93127H24.3915V15.0779H26.4541V5.93127Z" fill="white"/>
<path d="M34.424 6.32794C33.8534 6.06194 33.1659 5.93127 32.3754 5.93127H28.5401V15.0779H30.6028V12.5533H32.3754C33.1659 12.5533 33.8487 12.4179 34.424 12.1473C34.9993 11.8766 35.439 11.4939 35.7523 11.0039C36.0657 10.5139 36.2201 9.9166 36.2201 9.23527C36.2201 8.55394 36.0657 7.96594 35.7523 7.47127C35.439 6.9766 34.9993 6.59394 34.424 6.32794ZM33.6804 10.4113C33.3576 10.6913 32.8852 10.8313 32.2632 10.8313H30.6028V7.65327H32.2632C32.8852 7.65327 33.3576 7.7886 33.6804 8.06394C34.0031 8.33927 34.1621 8.73127 34.1621 9.23527C34.1621 9.73927 34.0031 10.1313 33.6804 10.4113Z" fill="white"/>
<path d="M43.6895 6.32794C43.1189 6.06194 42.436 5.93127 41.6409 5.93127H37.8056V15.0779H39.8683V12.5533H41.6409C42.4313 12.5533 43.1142 12.4179 43.6895 12.1473C44.2648 11.8766 44.7045 11.4939 45.0178 11.0039C45.3312 10.5139 45.4855 9.9166 45.4855 9.23527C45.4855 8.55394 45.3312 7.96594 45.0178 7.47127C44.7045 6.9766 44.2601 6.59394 43.6895 6.32794ZM42.9458 10.4113C42.6231 10.6913 42.1507 10.8313 41.5287 10.8313H39.8683V7.65327H41.5287C42.1507 7.65327 42.6231 7.7886 42.9458 8.06394C43.2686 8.33927 43.4276 8.73127 43.4276 9.23527C43.4276 9.73927 43.2639 10.1313 42.9458 10.4113Z" fill="white"/>
<path d="M49.1057 11.2653H53.2169V9.60394H49.1057V7.62994H53.7641V5.93127H47.0711V15.0779H53.9278V13.3793H49.1057V11.2653Z" fill="white"/>
<path d="M61.43 12.1333H61.4394C62.0147 11.8766 62.4543 11.4986 62.7677 11.0086C63.0811 10.5186 63.2354 9.92127 63.2354 9.23994C63.2354 8.5586 63.0811 7.9706 62.7677 7.47594C62.4543 6.98127 62.0147 6.5986 61.4394 6.3326C60.8688 6.0666 60.1812 5.93594 59.3908 5.93594H55.5555V15.0826H57.6181V12.5206H59.3908C59.4235 12.5206 59.4469 12.5206 59.4797 12.5206L61.2009 15.0873H63.4038L61.43 12.1426V12.1333ZM60.6957 8.06394C61.0184 8.33927 61.1775 8.73127 61.1775 9.23527C61.1775 9.73927 61.0184 10.1313 60.6957 10.4113C60.373 10.6913 59.9006 10.8313 59.2785 10.8313H57.6181V7.65327H59.2785C59.9006 7.65327 60.373 7.7886 60.6957 8.06394Z" fill="white"/>
</svg>
