<svg width="44" height="15" viewBox="0 0 44 15" fill="none" xmlns="http://www.w3.org/2000/svg"><path d="M41.333 0H2.293A2.293 2.293 0 0 0 0 2.293v10.414A2.293 2.293 0 0 0 2.293 15h39.04a2.293 2.293 0 0 0 2.294-2.293V2.293A2.293 2.293 0 0 0 41.333 0Z" fill="#656868"/><path d="M7.147 10.853a5.36 5.36 0 0 1-1.507-.21c-.483-.14-.87-.323-1.16-.546l.513-1.14c.274.2.604.363.99.49.387.126.774.19 1.167.19.3 0 .54-.03.723-.094.184-.063.32-.143.407-.246a.543.543 0 0 0 .13-.36.498.498 0 0 0-.207-.417 1.704 1.704 0 0 0-.546-.253 11.494 11.494 0 0 0-.744-.187c-.27-.06-.536-.13-.806-.213a3.231 3.231 0 0 1-.747-.337 1.58 1.58 0 0 1-.54-.55c-.133-.227-.2-.513-.2-.853 0-.374.1-.714.3-1.024.2-.306.503-.553.91-.736.407-.184.92-.277 1.533-.277.41 0 .817.05 1.217.15.4.1.75.243 1.05.43l-.477 1.14a3.846 3.846 0 0 0-.903-.377 3.461 3.461 0 0 0-.897-.126c-.286 0-.536.033-.72.096-.18.067-.313.154-.396.267a.616.616 0 0 0-.127.373c0 .174.07.314.207.42.136.107.316.187.54.247.223.06.473.117.746.177.274.06.544.133.814.22.266.086.513.196.736.33.224.133.407.313.547.54.14.226.21.51.21.843 0 .367-.1.703-.303 1.007-.204.303-.51.55-.92.736-.41.187-.924.28-1.54.28v.01ZM10.943 10.743V4.21h1.52v6.533h-1.52ZM14.007 10.743V4.21h1.52v5.3h3.256v1.233h-4.776ZM21.6 10.743 18.773 4.21h1.644l2.463 5.787h-.96l2.5-5.787h1.503l-2.826 6.533H21.6ZM28.103 9.53h3.557v1.213h-5.057V4.21h4.937v1.213h-3.433V9.53h-.004Zm-.11-2.697h3.144V8.02h-3.144V6.833ZM32.86 10.743V4.21h2.827c.583 0 1.09.093 1.513.283.423.19.75.464.98.817.23.353.347.773.347 1.26s-.117.913-.347 1.263c-.23.354-.557.62-.98.804-.423.183-.927.276-1.513.276H33.69l.69-.653v2.483h-1.52Zm1.52-2.313-.69-.72h1.913c.46 0 .81-.1 1.047-.3.237-.2.353-.48.353-.84s-.116-.64-.353-.837c-.237-.196-.583-.293-1.047-.293H33.69l.69-.72v3.71Zm2.64 2.313-1.643-2.37H37l1.643 2.37H37.02Z" fill="#fff"/></svg>
