<svg width="116" height="8" viewBox="0 0 116 8" fill="none" xmlns="http://www.w3.org/2000/svg"><path d="M0 7.865V.111h3.355c.692 0 1.294.11 1.796.336.503.226.89.55 1.164.97.273.419.411.917.411 1.495 0 .578-.138 1.084-.411 1.5-.273.415-.661.74-1.164.969-.502.23-1.1.344-1.796.344H.985l.82-.807v2.947H0ZM1.804 5.12l-.819-.855h2.271c.546 0 .962-.119 1.243-.356.28-.237.419-.57.419-.997 0-.427-.139-.76-.42-.993-.28-.234-.692-.348-1.242-.348H.986l.818-.855V5.12ZM8.107 7.865V.111H9.91V6.4h3.866v1.464h-5.67Z" fill="#28334A"/><path d="M13.777 7.865 17.218.111h1.772l3.478 7.754h-1.883L17.74 1.021h.72l-2.845 6.844h-1.84Zm1.736-1.661.455-1.361h4.008l.463 1.36h-4.93.004ZM24.882 7.865v-6.29h-2.48V.11h6.753v1.464h-2.48v6.29h-1.793ZM30.12 7.865V.111h1.805v7.754H30.12ZM33.753 7.865V.111h1.483l4.574 5.582h-.72V.111h1.772v7.754H39.38l-4.574-5.582h.72v5.582h-1.772ZM46.144 8c-1.1 0-1.958-.305-2.58-.918-.62-.613-.929-1.492-.929-2.635V.111h1.804V4.4c0 .732.15 1.262.455 1.59.3.329.724.495 1.262.495s.97-.167 1.274-.495c.305-.328.455-.858.455-1.59V.11h1.76v4.333c0 1.144-.308 2.022-.929 2.635s-1.476.918-2.568.918L46.144 8ZM51.43 7.865V.111h1.484l3.3 5.472h-.788L58.66.11h1.495v7.754h-1.673l-.024-5.175h.332l-2.615 4.345h-.8L52.729 2.69h.364v5.175h-1.674.012ZM66.698 1.318v2.358h3.743v1.218h-3.743v2.968h-1.44V.11h5.658v1.207h-4.218ZM73.796 7.462a3.82 3.82 0 0 1-1.495-1.428c-.364-.61-.542-1.29-.542-2.046 0-.756.182-1.436.542-2.045.36-.61.858-1.084 1.495-1.429C74.43.17 75.146 0 75.933 0c.787 0 1.503.17 2.136.514a3.865 3.865 0 0 1 1.496 1.425c.36.605.542 1.29.542 2.05 0 .759-.182 1.443-.542 2.049a3.839 3.839 0 0 1-1.496 1.424c-.637.344-1.349.514-2.136.514-.788 0-1.504-.17-2.137-.514Zm3.533-1.096c.412-.233.74-.558.974-.973.237-.416.356-.887.356-1.4 0-.515-.119-.986-.356-1.402a2.528 2.528 0 0 0-.974-.973 2.824 2.824 0 0 0-1.396-.348c-.519 0-.982.115-1.397.348-.415.234-.74.558-.973.973a2.783 2.783 0 0 0-.356 1.401c0 .514.118.985.356 1.4.237.416.562.744.973.974.412.23.879.348 1.397.348s.981-.115 1.396-.348ZM86.71 7.865l-1.582-2.27a2.783 2.783 0 0 1-.301.011h-1.749v2.26h-1.44V.11h3.189c.672 0 1.258.11 1.757.332.498.222.878.538 1.147.954.265.415.4.906.4 1.471 0 .566-.143 1.085-.428 1.508-.285.42-.692.736-1.222.942l1.784 2.547H86.71Zm-.522-6.136c-.325-.265-.8-.4-1.428-.4h-1.682v3.09h1.682c.629 0 1.103-.134 1.428-.403.324-.27.487-.653.487-1.148 0-.494-.163-.874-.487-1.139ZM92.791.11h1.44v6.537h4.052v1.218H92.79V.111ZM99.422.11h1.441v7.755h-1.44V.111ZM104.396 1.318v2.358h3.742v1.218h-3.742v2.968h-1.441V.11h5.658v1.207h-4.217ZM115.826 6.659v1.206h-5.816V.111h5.658v1.207h-4.218v2.017h3.743v1.187h-3.743V6.66h4.376Z" fill="#28334A"/></svg>
