<svg xmlns="http://www.w3.org/2000/svg" width="58" height="8" viewBox="0 0 58 8" fill="none"><path fill="#C17C51" d="M3.604 6.218c.91 0 1.505-.594 1.505-1.624V.08h2.02v4.515c0 2.06-1.386 3.366-3.565 3.366C1.386 7.96 0 6.653 0 4.594V.08h2.02v4.515c0 1.03.673 1.624 1.584 1.624ZM10.574.08v6.059h3.287V7.88H8.515V.08h2.06ZM20.753.08v1.663h-2.337v6.099h-2.02v-6.06h-2.297V.08h6.654ZM23.604.08v7.762h-2.02V.079h2.02ZM27.327.08l2.06 4.514L31.444.08h2.218v7.763h-1.782V2.93L30.06 7.089h-1.346L26.93 2.931v4.91h-1.822V.08h2.218ZM40.356 6.495H36.99l-.554 1.386h-2.1L37.664.12h2.1L43.01 7.88h-2.178c.079 0-.476-1.386-.476-1.386Zm-.594-1.545-1.069-2.772-1.07 2.772h2.14ZM49.743.08v1.663h-2.337v6.099h-2.02v-6.06H43.09V.08h6.654ZM56.673.08v1.623h-4.119v1.465h3.723v1.624h-3.723v1.465h4.198v1.624h-6.257V.08h6.178Z"/></svg>
