<svg xmlns="http://www.w3.org/2000/svg" width="122" height="12" viewBox="0 0 122 12" fill="none"><g fill="#C17C51" clip-path="url(#a)"><path d="M68.016 7.72c.908 0 1.532-.616 1.532-1.636V1.528h2.048v4.56c0 2.072-1.388 3.384-3.592 3.384s-3.636-1.312-3.636-3.384v-4.56h2.048v4.56c0 1.008.672 1.636 1.6 1.636V7.72ZM75.036 1.528v6.104h3.324V9.38h-5.372V1.528h2.048ZM85.336 1.528V3.22h-2.352v6.16h-2.048V3.22h-2.328V1.528h6.728ZM88.212 1.528V9.38h-2.048V1.528h2.048ZM91.976 1.528l2.084 4.58 2.084-4.58h2.24V9.38h-1.812l-.012-4.972-1.824 4.188h-1.344l-1.824-4.188V9.38h-1.824V1.528h2.24-.008ZM105.132 7.988h-3.392l-.548 1.388h-2.104l3.368-7.852h2.104l3.292 7.852h-2.184l-.536-1.388Zm-.604-1.568-1.076-2.8-1.096 2.8h2.172ZM114.6 1.528V3.22h-2.352v6.16H110.2V3.22h-2.328V1.528h6.728ZM121.62 1.528v1.636h-4.14v1.468h3.74v1.624l-3.74.012v1.48h4.252v1.636h-6.3V1.528h6.192-.004ZM14.36 2.82v3.124a2.055 2.055 0 1 1-4.112 0V2.82H9.012v3.124A3.29 3.29 0 0 0 12.3 9.232c.36 0 .708-.06 1.032-.168a1.916 1.916 0 0 0 1.024-.84v.484c0 1.112-1.048 2.056-2.288 2.056-.704 0-1.312-.284-1.976-.92l-.04-.04-.728.976.052.056c.66.724 1.636 1.012 1.644 1.016.336.096.692.148 1.048.148 1.944 0 3.524-1.476 3.524-3.288V2.82h-1.236.004ZM17.664.324a.838.838 0 0 0-.836.836c0 .46.376.836.836.836.46 0 .836-.376.836-.836a.838.838 0 0 0-.836-.836ZM30.336 2.652a3.293 3.293 0 0 0-3.288 3.288 3.293 3.293 0 0 0 3.288 3.288c.36 0 .708-.06 1.032-.168a1.916 1.916 0 0 0 1.024-.84v.484c0 1.112-1.048 2.056-2.288 2.056-.704 0-1.312-.284-1.972-.92l-.04-.04-.728.976.052.056c.66.724 1.636 1.012 1.644 1.016.34.1.692.148 1.048.148 1.944 0 3.524-1.476 3.524-3.288V5.94a3.293 3.293 0 0 0-3.288-3.288m0 5.344a2.055 2.055 0 1 1-.001-4.113 2.055 2.055 0 0 1 .001 4.113ZM37.948 9.232a3.293 3.293 0 0 0 3.288-3.288 3.293 3.293 0 0 0-3.288-3.288c-.36 0-.708.06-1.032.168a1.916 1.916 0 0 0-1.024.84v-3.5h-1.236v5.78a3.293 3.293 0 0 0 3.288 3.288m0-5.344a2.055 2.055 0 1 1 .001 4.113 2.055 2.055 0 0 1-.001-4.113ZM51.28 2.816h-1.244V5.94c0 1.132-.92 2.052-2.052 2.052a2.054 2.054 0 0 1-2.052-2.052V2.816h-1.244v3.212c.024.86.376 1.664.996 2.268.62.604 1.436.936 2.296.936a3.295 3.295 0 0 0 3.292-3.292V2.816h.008ZM56.984 7.276a2.07 2.07 0 0 1-1.588.744 2.08 2.08 0 0 1-2-1.52h5.24c.032-.18.052-.364.052-.556A3.288 3.288 0 0 0 55.4 2.656a3.291 3.291 0 0 0-3.292 3.288A3.292 3.292 0 0 0 55.4 9.236a3.286 3.286 0 0 0 3.008-1.96h-1.424Zm-1.588-3.408c.936 0 1.728.62 1.988 1.472h-3.972A2.08 2.08 0 0 1 55.4 3.868M1.24 9.112V5.964h3.528v-1.24H1.24V3.292c0-1.132.92-2.052 2.052-2.052.796 0 1.288.368 1.784.916l.044.048.732-.984-.048-.056C5.188.44 4.28.152 4.272.148A3.296 3.296 0 0 0 0 3.288v5.824h1.24ZM7.712.164H6.468v8.952h1.244V.164ZM18.288 2.82h-1.244v6.296h1.244V2.82ZM20.868 9.112V5.944c0-1.132.92-2.052 2.052-2.052 1.132 0 2.052.92 2.052 2.052v3.168h1.244V5.944a3.295 3.295 0 0 0-3.292-3.292 3.295 3.295 0 0 0-3.292 3.292v3.168h1.244-.008ZM43.428.164h-1.244v8.952h1.244V.164Z"/></g><defs><clipPath id="a"><path fill="#fff" d="M0 0h121.732v12H0z"/></clipPath></defs></svg>
