<svg xmlns="http://www.w3.org/2000/svg" width="49" height="22" viewBox="0 0 49 22" fill="none"><g clip-path="url(#a)"><path fill="#C17C51" d="M45.233 0H2.917A2.917 2.917 0 0 0 0 2.917v16.166A2.917 2.917 0 0 0 2.917 22h42.316a2.917 2.917 0 0 0 2.917-2.917V2.917A2.917 2.917 0 0 0 45.233 0Z"/><path fill="#fff" d="M6.843 17.44c.628 0 1.059-.425 1.059-1.13v-3.152h1.416v3.152c0 1.432-.96 2.339-2.483 2.339-1.524 0-2.514-.907-2.514-2.34v-3.151h1.416v3.152c0 .697.465 1.13 1.106 1.13ZM11.695 13.16v4.22h2.298v1.208H10.28v-5.427h1.415ZM18.815 13.16v1.17h-1.626v4.258h-1.415V14.33h-1.61v-1.17h4.65ZM20.803 13.16v5.428h-1.416v-5.427h1.416ZM23.402 13.16l1.44 3.166 1.44-3.165h1.55v5.427h-1.253l-.009-3.437-1.26 2.895h-.93l-1.26-2.895v3.437h-1.261v-5.427h1.548-.005ZM32.495 17.629h-2.344l-.379.96h-1.454l2.328-5.428H32.1l2.276 5.427h-1.51l-.37-.96Zm-.417-1.084-.744-1.936-.757 1.936h1.5ZM39.043 13.16v1.17h-1.626v4.258H36V14.33h-1.609v-1.17h4.65ZM43.895 13.16v1.132h-2.862v1.014h2.585v1.123l-2.585.008v1.023h2.94v1.13h-4.355v-5.426h4.28l-.003-.003ZM13.97 5.267v2.16a1.42 1.42 0 0 1-2.842 0v-2.16h-.854v2.16a2.274 2.274 0 0 0 2.986 2.156c.26-.094.52-.265.708-.58v.334c0 .769-.724 1.421-1.581 1.421-.487 0-.907-.196-1.366-.636l-.028-.027-.503.674.036.039c.456.5 1.13.7 1.136.702.232.066.478.102.725.102 1.343 0 2.435-1.02 2.435-2.272V5.267h-.854.003ZM16.255 3.542a.58.58 0 0 0-.578.578c0 .318.26.577.578.577a.58.58 0 0 0 .578-.577.58.58 0 0 0-.578-.578ZM25.014 5.154a2.276 2.276 0 0 0-2.273 2.272 2.276 2.276 0 0 0 2.986 2.157c.26-.094.52-.265.708-.58v.334c0 .769-.725 1.421-1.582 1.421-.486 0-.907-.196-1.363-.636l-.027-.027-.504.674.036.039c.457.5 1.131.7 1.137.702.235.07.478.102.724.102 1.344 0 2.436-1.02 2.436-2.272V7.426a2.276 2.276 0 0 0-2.273-2.272m0 3.694a1.42 1.42 0 1 1 0-2.843 1.42 1.42 0 0 1 0 2.843ZM30.275 9.702a2.276 2.276 0 0 0 2.273-2.273 2.276 2.276 0 0 0-2.986-2.156c-.26.094-.52.265-.708.58V3.434H28v3.995a2.276 2.276 0 0 0 2.273 2.273m0-3.694a1.42 1.42 0 1 1 0 2.843 1.42 1.42 0 0 1 0-2.843ZM39.49 5.264h-.86v2.16a1.42 1.42 0 0 1-2.836 0v-2.16h-.86v2.22c.017.595.26 1.15.689 1.568.428.418.992.647 1.587.647a2.277 2.277 0 0 0 2.275-2.275v-2.16h.005ZM43.433 8.347a1.43 1.43 0 0 1-2.48-.536h3.622c.022-.125.036-.252.036-.385a2.275 2.275 0 1 0-.194.92h-.984Zm-1.097-2.356c.647 0 1.194.429 1.374 1.018h-2.746a1.438 1.438 0 0 1 1.374-1.018M4.902 9.619V7.443h2.439v-.857H4.902v-.99A1.42 1.42 0 0 1 6.32 4.178c.55 0 .89.254 1.234.633l.03.033.506-.68-.033-.039c-.426-.5-1.054-.7-1.06-.702a2.279 2.279 0 0 0-2.953 2.17V9.62h.858ZM9.376 3.431h-.86V9.62h.86V3.431ZM16.686 5.267h-.86V9.62h.86V5.267ZM18.746 9.619v-2.19a1.42 1.42 0 0 1 2.837 0v2.19h.86v-2.19a2.277 2.277 0 0 0-2.276-2.275 2.277 2.277 0 0 0-2.276 2.275v2.19h.86-.005ZM34.063 3.431h-.86V9.62h.86V3.431Z"/></g><defs><clipPath id="a"><path fill="#fff" d="M0 0h48.15v22H0z"/></clipPath></defs></svg>
