<svg width="55" height="22" viewBox="0 0 55 22" fill="none" xmlns="http://www.w3.org/2000/svg"><g clip-path="url(#a)"><path d="M52.357 0H2.492A2.492 2.492 0 0 0 0 2.492v17.016A2.492 2.492 0 0 0 2.492 22h49.865a2.492 2.492 0 0 0 2.492-2.492V2.492A2.492 2.492 0 0 0 52.357 0Z" fill="#28334A"/><path d="M4.554 9.55V3.64h2.555c.528 0 .986.088 1.369.257.382.171.678.419.886.738.208.32.313.7.313 1.14 0 .44-.105.825-.313 1.141-.208.32-.504.564-.886.739-.383.175-.838.262-1.369.262H5.304l.624-.615v2.245H4.554v.003ZM5.928 7.46l-.624-.651h1.73c.416 0 .732-.09.946-.271.214-.181.32-.434.32-.76 0-.325-.106-.578-.32-.756-.214-.178-.527-.265-.946-.265h-1.73l.624-.651v3.354ZM10.729 9.55V3.64h1.374v4.792h2.944v1.115H10.73v.003ZM15.047 9.55l2.625-5.906h1.35l2.65 5.906h-1.435L18.07 4.337h.549L16.452 9.55h-1.405Zm1.323-1.265.347-1.037h3.053l.352 1.037h-3.755.003ZM23.507 9.55V4.76h-1.89V3.644h5.145v1.115h-1.89V9.55h-1.365ZM27.497 9.55V3.64h1.374v5.907h-1.374v.003ZM30.264 9.55V3.64h1.13l3.483 4.253h-.548V3.64h1.35v5.906h-1.13l-3.484-4.252h.549v4.252h-1.35v.003ZM39.703 9.65c-.838 0-1.492-.232-1.966-.7-.473-.466-.708-1.135-.708-2.006v-3.3h1.375V6.91c0 .558.114.962.346 1.212.23.25.552.377.962.377.41 0 .738-.127.97-.377.232-.25.346-.654.346-1.212V3.644h1.342v3.3c0 .87-.235 1.543-.709 2.007-.473.467-1.124.699-1.956.699h-.002ZM43.726 9.55V3.64h1.13l2.513 4.168h-.6l2.463-4.167h1.139v5.906h-1.275l-.018-3.942h.253l-1.992 3.31h-.609l-2.016-3.31h.278v3.942h-1.275l.009.003ZM10.771 13.917v1.67h2.646v.862h-2.646v2.1H9.752v-5.485h4.002v.853h-2.983ZM15.792 18.26a2.705 2.705 0 0 1-1.058-1.01 2.776 2.776 0 0 1-.383-1.446c0-.534.127-1.016.383-1.447.256-.43.609-.768 1.058-1.01a3.11 3.11 0 0 1 1.513-.364c.56 0 1.064.12 1.512.365.45.244.802.578 1.058 1.006.256.428.383.913.383 1.45 0 .536-.127 1.022-.383 1.45a2.698 2.698 0 0 1-1.058 1.006 3.112 3.112 0 0 1-1.512.365c-.56 0-1.064-.12-1.513-.365Zm2.498-.775c.293-.165.521-.394.69-.69.169-.295.25-.627.25-.991 0-.365-.084-.696-.25-.992a1.787 1.787 0 0 0-.69-.69 1.96 1.96 0 0 0-.985-.247 1.98 1.98 0 0 0-.989.247 1.787 1.787 0 0 0-.69.69c-.169.296-.25.627-.25.992s.084.696.25.991c.166.296.398.525.69.69.293.166.621.248.989.248.367 0 .693-.082.985-.248ZM24.926 18.546l-1.12-1.606a1.83 1.83 0 0 1-.212.009h-1.238v1.597h-1.019v-5.485h2.257c.476 0 .89.079 1.242.235.353.157.624.383.81.676.187.292.284.638.284 1.042s-.1.769-.302 1.067a1.798 1.798 0 0 1-.864.666l1.26 1.802h-1.098v-.003Zm-.367-4.34c-.23-.186-.567-.283-1.01-.283h-1.19v2.185h1.19c.443 0 .78-.096 1.01-.286.229-.19.343-.461.343-.81 0-.35-.114-.619-.343-.809v.004ZM29.227 13.061h1.018v4.623h2.866v.862h-3.884v-5.485ZM33.92 13.061h1.018v5.485h-1.019v-5.485ZM37.436 13.917v1.67h2.646v.862h-2.646v2.1h-1.019v-5.485h4.003v.853h-2.984ZM45.519 17.693v.853h-4.11v-5.485h4.001v.853h-2.983v1.426h2.646v.837h-2.646v1.513h3.095l-.003.003Z" fill="#fff"/></g><defs><clipPath id="a"><path fill="#fff" d="M0 0h54.849v22H0z"/></clipPath></defs></svg>
