<svg width="18" height="16" viewBox="0 0 18 16" xmlns="http://www.w3.org/2000/svg"><path d="M16.293 12.695c0 .95-.77 1.72-1.72 1.72H2.945a1.764 1.764 0 0 1-1.765-1.763V5.895h15.113v6.8zM14.978 1.864h-1.156v1.219c0 .735-.598 1.332-1.333 1.332h-.063a1.334 1.334 0 0 1-1.333-1.332v-1.22H6.381v1.22c0 .735-.598 1.332-1.333 1.332h-.063a1.334 1.334 0 0 1-1.333-1.332v-1.22H2.497A2.504 2.504 0 0 0 0 4.36v8.732a2.504 2.504 0 0 0 2.496 2.496h12.482a2.504 2.504 0 0 0 2.496-2.496V4.36a2.504 2.504 0 0 0-2.496-2.496z"/><path d="M4.992 0a.522.522 0 0 0-.522.522v2.56c0 .288.234.522.522.522h.063a.522.522 0 0 0 .522-.522V.522A.522.522 0 0 0 5.055 0h-.063zm7.441 0a.522.522 0 0 0-.522.522v2.56c0 .288.234.522.522.522h.063a.522.522 0 0 0 .522-.522V.522A.522.522 0 0 0 12.496 0h-.063zM4.467 13.609a1.478 1.478 0 1 1 0-2.956 1.478 1.478 0 0 1 0 2.956zm4.27 0a1.478 1.478 0 1 1 0-2.955 1.478 1.478 0 0 1 0 2.955zm0-3.634a1.477 1.477 0 1 1 0-2.955 1.477 1.477 0 0 1 0 2.955zm4.27 3.634a1.478 1.478 0 1 1 0-2.955 1.478 1.478 0 0 1 0 2.955zm0-3.634a1.478 1.478 0 1 1 0-2.955 1.478 1.478 0 0 1 0 2.955z"/></svg>