<svg xmlns="http://www.w3.org/2000/svg" width="20" height="10" viewBox="0 0 20 10"><path fill-rule="evenodd" d="M1.824 8.054a1.584 1.584 0 1 1 3.167 0 1.584 1.584 0 0 1-3.167 0zm13.34 0a1.584 1.584 0 1 1 3.168 0 1.584 1.584 0 0 1-3.168 0zm4.327-2.52c1.104 1.318.17 2.492-.511 2.517a2.234 2.234 0 0 0-2.232-2.228 2.234 2.234 0 0 0-2.231 2.23H5.639a2.234 2.234 0 0 0-2.231-2.23 2.234 2.234 0 0 0-2.232 2.23H.704c-1.656 0-.036-6.118 1.242-6.477C4.514.852 8.838.64 11.176.892c2.34.252 7.45 3.612 8.315 4.643zm-3.957-1.258l.672-.012-.57-.355c-1.435-.895-3.43-1.992-4.778-2.138-.373-.04-.878-.06-1.503-.06-2.027 0-5.221.237-6.147.53l-.313.099.234.232c.03.03.764.74 2.712 1.193 1.82.423 7.052.517 8.914.517.303 0 .567-.003.779-.006z"/></svg>