<svg xmlns="http://www.w3.org/2000/svg" width="16" height="16" viewBox="0 0 16 16"><path fill-rule="evenodd" d="M8 16A8 8 0 1 1 8 0a8 8 0 0 1 0 16zm0-1.2A6.8 6.8 0 1 0 8 1.2a6.8 6.8 0 0 0 0 13.6zm4.569-8.15a.69.69 0 0 1-.322.422L8.36 9.316a.31.31 0 0 1-.04.018.532.532 0 0 1-.128.048c-.022.006-.043.012-.067.016a.978.978 0 0 1-.14.008c-.017 0-.034-.003-.058-.006a.826.826 0 0 1-.077-.013.967.967 0 0 1-.125-.043 1.554 1.554 0 0 1-.065-.035l-.046-.03a.58.58 0 0 1-.07-.057.63.63 0 0 1-.084-.092.546.546 0 0 0-.034-.048l-.01-.016-.003-.004a.346.346 0 0 1-.02-.042l-.027-.06a.616.616 0 0 1-.02-.066.494.494 0 0 1-.024-.144.274.274 0 0 1-.003-.036v-6.01a.695.695 0 0 1 1.389 0v4.809l2.844-1.643a.693.693 0 0 1 1.017.78z"/></svg>