<svg width="20" height="20" viewBox="0 0 20 20" xmlns="http://www.w3.org/2000/svg"><path d="M8.283 13.044c.187.13.32.302.41.475.177.35.189.7.13.929a1.001 1.001 0 0 1-.183.374 2.822 2.822 0 0 1-.31.047 1.976 1.976 0 0 1-.945-.15 1.862 1.862 0 0 1-.518-.374 3.51 3.51 0 0 1-.448-.577c-.143-.213-.342-.455-.63-.539a.489.489 0 0 0-.076-.023l.012-.006c.117-.065.24-.124.366-.177.25-.106.51-.188.772-.237.262-.04.524-.064.767-.012.242.045.467.139.653.27M14.907 1A5.092 5.092 0 0 0 10 4.742a5.09 5.09 0 0 0-10 1.35c0 5.324 6.16 10.22 8.81 12.08-.067-1.126.156-2.616.494-4.095.08-.354.17-.71.26-1.048a9.3 9.3 0 0 1 .46-1.614c.076-.247.122-.389.119-.379l.007.074c.278-.64.673-1.327 1.231-1.926 1.177-1.26 2.68-2.335 2.68-2.335s-1.39.36-3.063 2.027c-1.636 1.628-1.846 4.123-1.87 4.23a.358.358 0 0 0-.02-.032 4.076 4.076 0 0 1-.467-.784c-.357-.693-.586-1.82-.281-3.074a4.37 4.37 0 0 1 .955-1.83 5.461 5.461 0 0 1 1.888-1.355c.737-.35 1.594-.47 2.463-.539.876-.04 1.77.026 2.65.176.44.074.876.172 1.303.29l.044.013c-.076.039-.152.076-.224.127-.86.485-1.318 1.414-1.612 2.2-.302.805-.592 1.549-.999 2.189-.395.627-.874 1.206-1.376 1.587-1.044.75-2.135 1.098-2.916 1.19-.274.039-.33.037-.536.05-.097.399-.197.848-.29 1.322-.249 1.258-.66 2.711-.43 3.863.45.303.72.467.72.467s10-6.092 10-12.873A5.093 5.093 0 0 0 14.907 1" fill-rule="evenodd"/></svg>