<svg xmlns="http://www.w3.org/2000/svg" width="17" height="14" viewBox="0 0 17 14"><path fill-rule="evenodd" d="M9.052 2.044h5.99a1.173 1.173 0 1 1 0 2.344h-5.99A3.214 3.214 0 0 1 6.06 6.432a3.216 3.216 0 0 1-2.992-2.044H1.173a1.172 1.172 0 1 1 0-2.344h1.895A3.216 3.216 0 0 1 6.06 0c1.362 0 2.524.848 2.992 2.044zm-7.88 9.912a1.172 1.172 0 1 1 0-2.346h5.991a3.214 3.214 0 0 1 2.992-2.043c1.362 0 2.523.848 2.992 2.043h1.895a1.173 1.173 0 0 1 0 2.346h-1.895A3.213 3.213 0 0 1 10.155 14a3.213 3.213 0 0 1-2.992-2.044h-5.99zm4.888-7.28a1.46 1.46 0 1 0 0-2.922 1.46 1.46 0 0 0 0 2.921zm5.556 6.106a1.461 1.461 0 1 0-2.922.002 1.461 1.461 0 0 0 2.922-.002z"/></svg>