<svg width="20" height="20" viewBox="0 0 20 20" xmlns="http://www.w3.org/2000/svg"><path d="M16.231 10.637v1.275h-1.275v-1.275H13.68V9.362h1.276V8.087h1.275v1.275h1.274v1.275h-1.274zm-8.287 3.825A4.459 4.459 0 0 1 3.482 10a4.46 4.46 0 0 1 4.462-4.463c1.205 0 2.212.44 2.989 1.167L9.722 7.87c-.331-.318-.911-.688-1.778-.688-1.524 0-2.767 1.262-2.767 2.818 0 1.555 1.243 2.817 2.767 2.817 1.766 0 2.429-1.268 2.53-1.925h-2.53v-1.53h4.213c.039.223.07.446.07.739 0 2.55-1.708 4.361-4.283 4.361zM10 0C4.477 0 0 4.477 0 10c0 5.522 4.477 10 10 10 5.522 0 10-4.478 10-10 0-5.523-4.478-10-10-10z"/></svg>