<svg width="20" height="17" viewBox="0 0 20 17" xmlns="http://www.w3.org/2000/svg"><g fill-rule="evenodd"><path d="M10.013 8.357a3.146 3.146 0 0 0 0-6.292 3.148 3.148 0 0 0-3.14 3.146 3.144 3.144 0 0 0 3.14 3.146z" fill-rule="nonzero"/><path d="M4.16 16.068V13.17a3.968 3.968 0 0 1 3.957-3.957h3.796a3.968 3.968 0 0 1 3.957 3.957v2.898H4.16z"/><path d="M13.894 5.212c0 .364-.052.718-.147 1.053A3.145 3.145 0 1 0 14.143 0a3.143 3.143 0 0 0-2.728 1.594 3.886 3.886 0 0 1 2.479 3.617m2.149 1.937h-2.672c-.315.542-.756 1-1.285 1.337a4.696 4.696 0 0 1 4.52 4.684v.835H20v-2.9a3.968 3.968 0 0 0-3.957-3.956M6.106 5.212c0 .364.051.718.147 1.053A3.145 3.145 0 1 1 5.857 0a3.143 3.143 0 0 1 2.728 1.595 3.886 3.886 0 0 0-2.48 3.617M3.956 7.148h2.672c.315.542.756 1 1.285 1.337a4.696 4.696 0 0 0-4.52 4.684v.835H0v-2.9a3.968 3.968 0 0 1 3.956-3.956" fill-rule="nonzero"/></g></svg>