<svg height="20" viewBox="0 0 12 20" width="12" xmlns="http://www.w3.org/2000/svg"><path d="m8.058 15.304h-4.418c-.331 0-.623.253-.623.564 0 .331.292.584.623.584h4.418c.33 0 .623-.253.623-.584 0-.292-.273-.564-.623-.564m-1.986 3.192c.616-.075 1.128-.324 1.526-.729.146-.149.044-.4-.164-.4h-3.157c-.206 0-.315.253-.166.395.493.47 1.24.826 1.961.734m5.275-13.818c-.778-2.239-3.018-3.679-5.47-3.679-.232 0-.446.02-.68.04-1.557.154-2.862.816-3.873 1.907-1.674 1.828-1.674 4.534-.487 6.46.369.623.818 1.188 1.245 1.771.527.76.837 1.597.837 2.492 0 .388.37.72.838.72l1.426.007c-.003-.024-.007-.047-.007-.072v-4.933a.66.66 0 1 1 1.318 0v4.931c0 .027-.004.053-.007.08l1.297.005h.06c.545 0 .895-.33.895-.817 0-.117.02-.233.02-.35.078-.838.446-1.597.953-2.277.33-.449.68-.877.973-1.363 1.012-1.556 1.265-3.21.662-4.923"/></svg>