<svg height="16" viewBox="0 0 16 16" width="16" xmlns="http://www.w3.org/2000/svg"><path d="m4.15 11.77h1.811v-5.447h-1.81v5.447zm3.85 4.23a8 8 0 1 1 0-16 8 8 0 0 1 0 16zm-2.944-10.421c.631 0 1.024-.418 1.024-.941-.011-.534-.393-.941-1.013-.941-.619 0-1.024.406-1.024.94 0 .524.393.942 1.002.942h.01zm7.434 6.191v-3.123c0-1.674-.893-2.453-2.085-2.453-.96 0-1.391.53-1.631.9v-.772h-1.811c.024.512 0 5.448 0 5.448h1.811v-3.043c0-.162.012-.325.06-.44.13-.326.428-.663.928-.663.655 0 .918.5.918 1.231v2.915z"/></svg>