<svg width="19" height="18" viewBox="0 0 19 18" xmlns="http://www.w3.org/2000/svg"><path d="M9.586 17.422a8.534 8.534 0 0 1-6.074-2.516c-3.35-3.35-3.35-8.798 0-12.15a1.368 1.368 0 0 1 1.933 1.936 5.861 5.861 0 0 0 0 8.28 5.816 5.816 0 0 0 4.141 1.717 5.82 5.82 0 0 0 4.141-1.716 5.862 5.862 0 0 0 0-8.281 1.368 1.368 0 0 1 1.933-1.935c3.35 3.35 3.35 8.8 0 12.149a8.536 8.536 0 0 1-6.074 2.516"/><path d="M9.586 9.535a1.367 1.367 0 0 1-1.367-1.367v-6.8a1.367 1.367 0 1 1 2.734 0v6.8c0 .755-.612 1.367-1.367 1.367"/></svg>