<svg xmlns="http://www.w3.org/2000/svg" width="18" height="19" viewBox="0 0 18 19"><path fill-rule="evenodd" d="M8.347 14.873c.001.067.006.142.011.223.03.463.075 1.163-.284 1.902-.22.455-.706.786-1.368.93-.262.058-.54.086-.83.086-1.639 0-3.682-.899-5.649-2.515a.623.623 0 1 1 .792-.963c2.38 1.958 4.36 2.407 5.42 2.174.358-.077.493-.21.514-.256.215-.443.187-.887.161-1.278a2.84 2.84 0 0 1 .202-1.38c-1.579-.442-2.623-1.204-2.698-1.262a.622.622 0 0 1 .745-.998c.016.011.91.661 2.262 1.043-.039-.62.03-1.34.597-1.626.269-.137.54-.15.758-.158.246-.012.392-.025.555-.134.122-.083.249-.167-.12-.905l-.036-.073c-.287-.566-1.16-2.288-1.04-4.12a9.236 9.236 0 0 0-.197-2.487c-.268-1.28-.729-2.225-.738-2.25A.624.624 0 0 1 8.551.345c.05.099 1.214 2.465 1.031 5.297-.096 1.494.66 2.987.909 3.478l.04.08c.211.424.855 1.716-.3 2.495-.46.31-.901.33-1.193.344-.048.001-.11.005-.162.01-.019.115-.024.34.024.773a6.21 6.21 0 0 0 2.567-.28.624.624 0 0 1 .392 1.183 7.471 7.471 0 0 1-3.288.322c-.12.238-.233.539-.224.826zm9.592-9.123c.228 1.499-.22 4.015-.696 4.592a2.058 2.058 0 0 1-.78.588c-.092 1.01-.429 3.463-1.571 4.91-1.151 1.457-2.54 2.2-4.079 2.2a5.46 5.46 0 0 1-1.675-.277.624.624 0 0 1 .383-1.186c1.715.553 3.152.059 4.393-1.51.985-1.247 1.3-3.774 1.337-4.641a.558.558 0 0 1 .26-.461c.26-.167.455-.042.772-.418.23-.326.6-2.457.423-3.609-.023-.15-.06-.196-.06-.196-.06-.015-.298.053-.42.125a.622.622 0 1 1-.935-.545c.007-1.192-.082-2.104-.196-2.777-.187-1.096-.479-1.632-.49-1.668a.626.626 0 0 1 .273-.745.62.62 0 0 1 .846.215c.079.13.715 1.277.804 4.156a1.36 1.36 0 0 1 .67.125c.28.135.637.439.74 1.122zM5.572 5.668c.67 0 1.212.543 1.212 1.212H4.36c0-.67.543-1.212 1.212-1.212zm6.818 0c.668 0 1.211.543 1.211 1.212h-2.423c0-.67.543-1.212 1.212-1.212z"/></svg>