<svg xmlns="http://www.w3.org/2000/svg" width="11" height="18" viewBox="0 0 11 18"><path fill-rule="evenodd" d="M1.197 14.117h8.289V2.123H1.197v11.994zm4.145 2.737a.81.81 0 1 1-.002-1.62.81.81 0 0 1 .002 1.62zM8.727 0c1.076 0 1.957.881 1.957 1.957v14.086A1.963 1.963 0 0 1 8.727 18h-6.77A1.963 1.963 0 0 1 0 16.043V1.957C0 .881.881 0 1.957 0h6.77zM2.89 6.912V5.468h1.444v1.444H2.889zm3.294 3.269V8.737h1.444v1.444H6.183zm-.925.926H8.55V7.813H5.258v-3.27H1.964v3.294h3.294v3.27zm.925-4.2h1.444V5.473H6.183v1.434zm-3.295 3.27h1.444V8.742H2.888v1.433z"/></svg>