<svg width="24" height="24" viewBox="0 0 24 24" fill="none" xmlns="http://www.w3.org/2000/svg">
<g clip-path="url(#clip0_11521_95)">
<path d="M24 5.625V18.375C24 21.4815 21.4815 24 18.375 24H5.625C2.5185 24 0 21.4815 0 18.375V5.625C0 2.5185 2.5185 0 5.625 0H18.375C21.4815 0 24 2.5185 24 5.625Z" fill="url(#paint0_linear_11521_95)"/>
<path d="M12.0018 6.36694C10.681 6.36694 9.45908 6.70784 8.44026 7.29539C8.26763 7.39488 8.09802 7.49474 7.93818 7.60775C7.78398 7.71737 7.64257 7.83714 7.50117 7.9584C7.4959 7.96253 7.48763 7.96328 7.48236 7.96779C6.32552 8.9578 5.60381 10.3221 5.60381 11.8325C5.60381 13.3211 6.30859 14.6636 7.4361 15.6495C7.44137 15.6897 7.44513 15.7332 7.44513 15.7633C7.44513 16.635 6.77344 17.3453 5.9201 17.3547C6.35012 17.5346 6.81152 17.6278 7.27777 17.6292C8.1014 17.6292 8.84342 17.3236 9.44478 16.843C10.2626 17.1491 11.1288 17.3063 12.0022 17.307C15.5329 17.307 18.3911 14.8536 18.3911 11.8321C18.3911 8.81063 15.5325 6.36694 12.0018 6.36694Z" fill="url(#paint1_linear_11521_95)"/>
</g>
<defs>
<linearGradient id="paint0_linear_11521_95" x1="12" y1="0" x2="12" y2="24" gradientUnits="userSpaceOnUse">
<stop stop-color="#00EA66"/>
<stop offset="1" stop-color="#00D50F"/>
</linearGradient>
<linearGradient id="paint1_linear_11521_95" x1="11.9876" y1="17.513" x2="11.9876" y2="11.2581" gradientUnits="userSpaceOnUse">
<stop stop-color="#E5F5D9"/>
<stop offset="1" stop-color="white"/>
</linearGradient>
<clipPath id="clip0_11521_95">
<rect width="24" height="24" fill="white"/>
</clipPath>
</defs>
</svg>
