<svg width="24" height="24" viewBox="0 0 24 24" fill="none" xmlns="http://www.w3.org/2000/svg">
<g clip-path="url(#clip0_11521_86)">
<path d="M19.6597 2.28217e-06H4.37436C1.97497 -0.00243073 0.00365346 1.94082 5.1253e-06 4.34131V19.6246C-0.00364321 22.0251 1.94092 23.9964 4.34153 24H19.6256C22.0262 24.0024 23.9963 22.0592 24 19.6587V4.37414C24.0036 1.97365 22.0603 0.00365066 19.6585 2.28217e-06" fill="#00B900"/>
<path d="M20.6982 10.9432C20.6982 7.0348 16.7787 3.85361 11.9605 3.85361C7.14224 3.85361 3.22149 7.0348 3.22149 10.9432C3.22149 14.4491 6.33109 17.3846 10.5303 17.9404C10.8149 18.0012 11.2016 18.1276 11.3001 18.3708C11.3877 18.5922 11.3573 18.9375 11.3281 19.1613L11.2028 19.9091C11.1664 20.1292 11.0277 20.7725 11.9605 20.3798C12.8932 19.987 16.9928 17.4175 18.8254 15.3064C20.0914 13.9189 20.6982 12.5095 20.6982 10.9444" fill="white"/>
<path d="M10.1849 13.2015C10.2786 13.2015 10.3552 13.1249 10.3552 13.0313V9.22505C10.3552 9.1302 10.2786 9.0548 10.1849 9.0548H9.57203C9.47839 9.0548 9.40177 9.1302 9.40177 9.22505V13.0301C9.40177 13.1237 9.47839 13.2003 9.57203 13.2003H10.1849V13.2015ZM11.7343 13.2015C11.8279 13.2015 11.9045 13.1249 11.9045 13.0313V10.7694L13.6509 13.1286L13.6715 13.1529L13.6947 13.1711L13.6959 13.1724L13.7068 13.1784L13.7117 13.1821L13.7202 13.1857L13.7275 13.1894L13.7336 13.1906C13.7372 13.193 13.7409 13.193 13.7457 13.1942H13.7469C13.7615 13.1991 13.7761 13.2015 13.7907 13.2015H14.4036C14.4973 13.2015 14.5739 13.1249 14.5739 13.0313V9.22505C14.5739 9.1302 14.4973 9.0548 14.4036 9.0548H13.7907C13.6971 9.0548 13.6205 9.1302 13.6205 9.22505V11.4869L11.8753 9.12898L11.8632 9.11074L11.851 9.09858C11.851 9.09858 11.8486 9.09858 11.8474 9.09615L11.8389 9.08885L11.834 9.0852L11.8255 9.07912L11.8012 9.06696L11.7902 9.06331L11.7805 9.05967L11.7744 9.05845L11.7647 9.05602H11.7574L11.7537 9.05359H11.1201C11.0277 9.05359 10.9499 9.12898 10.9499 9.22383V13.0301C10.9499 13.1237 11.0277 13.2003 11.1201 13.2003H11.7343V13.2015ZM8.70737 13.2015C8.80101 13.2015 8.87763 13.1249 8.87763 13.0313V12.4184C8.87763 12.3235 8.80101 12.2482 8.70737 12.2482H7.0413V9.22383C7.0413 9.1302 6.9659 9.05359 6.87104 9.05359H6.26055C6.1657 9.05359 6.0903 9.1302 6.0903 9.22383V13.0301C6.08908 13.0787 6.10611 13.1201 6.13651 13.1505L6.13894 13.1517L6.14138 13.1541C6.16205 13.1736 6.18637 13.1882 6.21434 13.1955L6.25934 13.2015H8.70737ZM17.7881 13.2015C17.8829 13.2015 17.9583 13.1249 17.9583 13.0313V12.4184C17.9583 12.3235 17.8829 12.2482 17.7881 12.2482H16.1232V11.6036H17.7893C17.8829 11.6036 17.9583 11.5283 17.9583 11.4334V10.8217C17.9583 10.7269 17.8829 10.6515 17.7881 10.6515H16.1232V10.007H17.7893C17.8829 10.007 17.9583 9.93157 17.9583 9.83672V9.22383C17.9583 9.1302 17.8829 9.05359 17.7881 9.05359H15.3401C15.3084 9.05359 15.2805 9.0621 15.2549 9.07669L15.2209 9.10344L15.2172 9.10709C15.1978 9.12776 15.1832 9.15209 15.1759 9.18006L15.1698 9.22383V13.0301C15.1698 13.0775 15.188 13.1188 15.2184 13.1492L15.2221 13.1541C15.2525 13.1833 15.2951 13.2015 15.3401 13.2015H17.7881Z" fill="#00B900"/>
</g>
<defs>
<clipPath id="clip0_11521_86">
<rect width="24" height="24" fill="white"/>
</clipPath>
</defs>
</svg>
