<svg width="24" height="24" viewBox="0 0 24 24" fill="none" xmlns="http://www.w3.org/2000/svg">
<g clip-path="url(#clip0_11521_77)">
<path d="M11.995 0C5.36071 0 -3.05176e-05 5.37064 -3.05176e-05 11.9951C-3.05176e-05 17.0794 3.15916 21.4233 7.62151 23.1707C7.51293 22.223 7.42408 20.7618 7.66101 19.7252C7.87821 18.7873 9.0629 13.7622 9.0629 13.7622C9.0629 13.7622 8.70751 13.0415 8.70751 11.9852C8.70751 10.3168 9.67499 9.07279 10.8795 9.07279C11.9062 9.07279 12.3998 9.84285 12.3998 10.761C12.3998 11.7878 11.7482 13.3278 11.4027 14.7593C11.1164 15.9539 12.0049 16.9313 13.1797 16.9313C15.3122 16.9313 16.951 14.6804 16.951 11.4422C16.951 8.56932 14.8876 6.56522 11.9358 6.56522C8.51992 6.56522 6.51583 9.12218 6.51583 11.768C6.51583 12.7948 6.91072 13.9004 7.40435 14.5027C7.50304 14.6212 7.51293 14.7297 7.48331 14.8482C7.39447 15.2234 7.18715 16.0428 7.14765 16.2106C7.09831 16.4278 6.96995 16.4772 6.74287 16.3686C5.26202 15.6578 4.33399 13.4661 4.33399 11.7088C4.33399 7.9276 7.07853 4.45249 12.2616 4.45249C16.4179 4.45249 19.6561 7.41424 19.6561 11.383C19.6561 15.5195 17.0498 18.8465 13.4364 18.8465C12.2221 18.8465 11.0769 18.2147 10.6919 17.4644C10.6919 17.4644 10.0897 19.7549 9.94154 20.3176C9.67499 21.3641 8.94443 22.6672 8.4508 23.4669C9.57626 23.8124 10.761 24 12.0049 24C18.6293 24 24 18.6293 24 12.0049C23.9901 5.37064 18.6195 0 11.995 0Z" fill="#E60023"/>
</g>
<defs>
<clipPath id="clip0_11521_77">
<rect width="24" height="24" fill="white"/>
</clipPath>
</defs>
</svg>
