<svg xmlns="http://www.w3.org/2000/svg" width="16" height="13" viewBox="0 0 16 13"><path fill-rule="evenodd" d="M2.068 11.217a1.212 1.212 0 0 1-1.211-1.211v-7.94c0-.666.543-1.21 1.211-1.21h11.864c.667 0 1.21.544 1.21 1.21v7.94c0 .668-.543 1.21-1.21 1.21H2.068zM13.932 0A2.07 2.07 0 0 1 16 2.067v7.94a2.07 2.07 0 0 1-2.068 2.067H2.068A2.07 2.07 0 0 1 0 10.006V2.067A2.07 2.07 0 0 1 2.068 0h11.864zm-5.83 6.851c-.181.777-.45 1.297-.624 1.455.022-.25.24-.848.624-1.455zm1.656 1.195c.16-.13.433-.74.488-1.35-.14.146-.239.31-.304.44-.208.418-.222.79-.184.91zm3.47-.632a.318.318 0 1 1-.616.146c-.01-.042-.264-1.038-1.46-1.114a1.009 1.009 0 0 0-.388.05c0 .135-.011.28-.033.43-.098.676-.48 1.721-1.048 1.645-.087-.01-.514-.104-.443-.837.05-.508.334-1.183.857-1.584-.088-.395-.32-.432-.423-.448-.256-.04-.59.148-.946.53-.025.21-.058.4-.084.523-.063.313-.413 1.882-1.089 2.083a.496.496 0 0 1-.149.024.418.418 0 0 1-.33-.16c-.346-.441.287-1.601.49-1.946.119-.202.31-.5.552-.79.036-.519-.048-.728-.086-.768-.002.003-.023.005-.062.021-1.032.427-1.728 2.706-1.736 2.729a.316.316 0 1 1-.606-.18c.031-.106.778-2.586 2.1-3.134.357-.146.593-.018.702.072.162.133.265.359.308.67.352-.251.699-.352 1.035-.298.439.07.755.346.9.786.166-.045.341-.062.519-.05 1.64.105 2.02 1.537 2.034 1.598l.001.002zm-11.16 3.178h11.864a.587.587 0 0 0 .586-.586V2.067a.586.586 0 0 0-.586-.585H2.068a.586.586 0 0 0-.586.585v7.939c0 .324.264.586.586.586z"/></svg>