<svg xmlns="http://www.w3.org/2000/svg" width="18" height="14" viewBox="0 0 18 14"><path fill-rule="evenodd" d="M7.456 12.443a1.556 1.556 0 1 1 3.113 0 1.556 1.556 0 0 1-3.113 0zm5.556-3.048a1.11 1.11 0 0 1-.787-.326 4.548 4.548 0 0 0-6.425 0 1.113 1.113 0 1 1-1.575-1.575 6.778 6.778 0 0 1 9.575 0 1.113 1.113 0 0 1-.788 1.901zm3.4-4.102c-.285 0-.57-.11-.788-.327a9.288 9.288 0 0 0-6.61-2.739A9.287 9.287 0 0 0 2.4 4.967 1.113 1.113 0 1 1 .826 3.391 11.499 11.499 0 0 1 9.013 0c3.092 0 6 1.205 8.186 3.392a1.113 1.113 0 0 1-.787 1.9z"/></svg>