<svg xmlns="http://www.w3.org/2000/svg" width="9" height="22" viewBox="0 0 9 22"><path fill-rule="evenodd" d="M3.999 4.313a1.908 1.908 0 0 1 0-3.813 1.906 1.906 0 1 1 0 3.813zm1.78.35a1.256 1.256 0 1 1 2.512.001 1.256 1.256 0 0 1-2.513 0zm1.617 1.901c1.056.145 1.301 3.14.422 3.397-.531.157-2.678.688-2.854-.117-.181-.824 1.888-.849 1.682-1.66-.119-.467-1.115-.296-1.131-.875-.013-.463 1.269-.829 1.88-.745zm-1.478 4.302c.452 0 .95-.08 1.346-.162V12.1h-.002a.925.925 0 0 1-.922.902l-.001 7.538c0 .53-.433.962-.962.962H5.3a.965.965 0 0 1-.962-.962v-5.948h-.004A.336.336 0 0 0 4 14.278c-.178 0-.32.14-.333.315h-.004v5.948c0 .53-.434.962-.962.962h-.078a.965.965 0 0 1-.962-.962v-7.538c-.5 0-.91-.404-.923-.902H.736V7.485s.018-.402.043-.486c.208-1.23 1.187-2.167 2.356-2.167h1.731c.115 0 .227.012.337.028.06.552.36 1.03.795 1.328-.307.11-.594.263-.788.462a.923.923 0 0 0-.283.675c.019.677.592.908.924 1.02-.094.047-.197.092-.277.128-.515.231-1.377.619-1.185 1.497.172.78 1.032.896 1.53.896z"/></svg>