<svg width="18" height="17" viewBox="0 0 18 17" xmlns="http://www.w3.org/2000/svg"><path fill-rule="evenodd" clip-rule="evenodd" d="M11.159 1.717v1.057h3.087A1.982 1.982 0 0 1 16.2 4.749l-.014 2.265a5.4 5.4 0 0 0-6.809 8.173H1.978A1.982 1.982 0 0 1 0 13.212L.052 4.75c0-1.079.878-1.961 1.954-1.975h3.087V1.717C5.093.77 5.864 0 6.812 0H9.44c.948 0 1.719.77 1.719 1.717zm-4.347-.8a.801.801 0 0 0-.801.8v1.057h4.23V1.717c0-.442-.359-.8-.8-.8H6.811z" /><path d="M13.5 7.2c2.483 0 4.5 2.015 4.5 4.5s-2.017 4.5-4.5 4.5A4.501 4.501 0 0 1 9 11.7c0-2.485 2.017-4.5 4.5-4.5zm.514 2.25a.562.562 0 1 0-1.125 0v1.676H11.25a.562.562 0 1 0 0 1.125h1.639v1.693a.563.563 0 0 0 1.125 0V12.25H15.7a.563.563 0 0 0 0-1.124h-1.686V9.45z" /></svg>
