<svg width="10" height="17" viewBox="0 0 10 17" xmlns="http://www.w3.org/2000/svg"><path fill-rule="evenodd" clip-rule="evenodd" d="M3.748 12.842A4.504 4.504 0 0 1 1.5 11.725a4.512 4.512 0 0 1-1.05-1.4A4.57 4.57 0 0 1 0 8.45v-.117h1.248a3.353 3.353 0 0 0 .295 1.375c.177.392.43.742.74 1.042.29.275.631.5 1.002.658.33.142.682.225 1.04.25.365.034.735 0 1.09-.091A3.388 3.388 0 0 0 7.62 9.708a3.328 3.328 0 0 0 .294-1.283v-.092h1.251v.009a4.504 4.504 0 0 1-.36 1.775 4.638 4.638 0 0 1-.832 1.3 4.593 4.593 0 0 1-2.138 1.333 6.985 6.985 0 0 1-.42.092V15l3.333.833v.834H.415v-.834L3.748 15v-2.158zM7.082 2.5c0-1.375-1.12-2.5-2.5-2.5s-2.5 1.125-2.5 2.5v5.833c0 1.384 1.12 2.5 2.5 2.5s2.5-1.116 2.5-2.5V2.5z" /></svg>
