<svg width="15" height="20" viewBox="0 0 15 20" xmlns="http://www.w3.org/2000/svg"><path d="M7.247 15.847v-4.142c0-.542.21-1.052.595-1.437.31-.31.7-.505 1.121-.568v-.553c0-1.105-.9-2.005-2.005-2.005H2.005C.9 7.142 0 8.042 0 9.147v8.848C0 19.1.9 20 2.005 20h4.953c1.105 0 2.005-.9 2.005-2.005v-.137a2.03 2.03 0 0 1-1.716-2.01ZM.768 6.363h7.427c.384 0 .7-.316.7-.7 0-.384-.316-.7-.7-.7H8c-.095-1.51-1.679-2.552-2.816-2.895V.7a.7.7 0 1 0-1.4 0v1.368c-1.137.343-2.72 1.385-2.816 2.895h-.2a.7.7 0 1 0 0 1.4ZM14.116 10.626a1.528 1.528 0 0 0-2.158 0 1.528 1.528 0 0 0-.447 1.08v4.141a1.528 1.528 0 0 0 2.605 1.08c.274-.274.447-.659.447-1.08v-4.142c0-.42-.174-.8-.447-1.079Zm-.021 5.221c0 .295-.116.558-.31.748-.196.195-.459.31-.753.31-.295 0-.558-.12-.753-.31a1.05 1.05 0 0 1-.31-.748V13.79h2.12l.006 2.057Z"/><path d="M9.279 10.179a1.353 1.353 0 0 0-.637.147 1.697 1.697 0 0 0-.168.09c-.021.016-.048.026-.069.042a1.528 1.528 0 0 0-.647 1.247v4.142a1.528 1.528 0 0 0 .647 1.248c.021.015.042.031.069.042.052.031.11.063.168.09.026.01.047.026.074.036.079.032.163.058.247.08.1.02.21.03.316.03a1.528 1.528 0 0 0 1.526-1.526v-4.142A1.528 1.528 0 0 0 9.28 10.18Zm1.063 3.584H8.221v-2.058c0-.237.079-.452.205-.626.032-.042.069-.084.106-.126a1.058 1.058 0 0 1 .753-.31c.257 0 .489.089.673.241.026.021.053.042.074.069.194.194.31.458.31.752v2.058Z"/></svg>
