<svg xmlns="http://www.w3.org/2000/svg" width="22" height="14" viewBox="0 0 22 14">
    <path fill-rule="evenodd" d="M17.514 12.539a3.502 3.502 0 0 1-3.499-3.498c0-1.395.822-2.598 2.007-3.159l1.062 3.322a.499.499 0 1 0 .952-.305l-1.058-3.31c.174-.028.353-.046.536-.046a3.502 3.502 0 0 1 3.498 3.498 3.502 3.502 0 0 1-3.498 3.498zm-6.891-5.31L8.419 3.274l.016-.01h5.943l-3.755 3.965zM7.962 8.552H5.306l1.15-2.411a3.497 3.497 0 0 1 1.506 2.41zm-3.46 3.987A3.502 3.502 0 0 1 1.004 9.04a3.502 3.502 0 0 1 4.552-3.335l-1.494 3.13a.5.5 0 0 0 .452.716h3.445a3.5 3.5 0 0 1-3.457 2.987zm13.012-8c-.29 0-.572.03-.846.082L15.51 1h1.38a.5.5 0 1 0 0-1h-2.065a.502.502 0 0 0-.476.653l.515 1.611H8.071v-.668h.294a.5.5 0 0 0 0-1H6.882a.5.5 0 0 0 0 1h.189v.936L5.99 4.797a4.463 4.463 0 0 0-1.488-.258A4.507 4.507 0 0 0 0 9.04a4.507 4.507 0 0 0 4.502 4.502A4.507 4.507 0 0 0 9.004 9.04 4.498 4.498 0 0 0 6.89 5.23l.68-1.425 2.51 4.505a.5.5 0 0 0 .8.1l4.449-4.696.383 1.202a4.508 4.508 0 0 0-2.7 4.124 4.507 4.507 0 0 0 4.502 4.502 4.507 4.507 0 0 0 4.501-4.502 4.507 4.507 0 0 0-4.501-4.502z"/>
</svg>
