<svg width="12" height="12" viewBox="0 0 12 12" xmlns="http://www.w3.org/2000/svg"><path d="M6.134 2.82a2.973 2.973 0 1 1-.605 5.915 2.982 2.982 0 0 1-2.654-2.654A2.975 2.975 0 0 1 6.134 2.82zm-.246-.855a.746.746 0 0 1-.745-.745V.745a.746.746 0 0 1 1.49 0v.475c0 .41-.333.744-.744.745h-.001zm5.031 3.024a.746.746 0 0 1 0 1.491h-.476a.746.746 0 0 1 0-1.49h.476v-.001zM9.656 8.446l.375.375a.745.745 0 0 1-1.054 1.055l-.375-.375a.745.745 0 0 1 .527-1.273h.001c.2 0 .385.077.526.218zM5.91 9.59c.411 0 .745.334.745.745v.476a.746.746 0 0 1-1.49 0v-.476c0-.411.334-.745.745-.745zM2.627 8.295a.744.744 0 0 1 .526 1.272l-.375.374a.741.741 0 0 1-1.212-.243.746.746 0 0 1 .159-.81l.375-.375a.736.736 0 0 1 .526-.218h.001zm6.456-5.033a.74.74 0 0 1-.527-.218.735.735 0 0 1-.218-.528c0-.2.077-.386.218-.525l.376-.375a.744.744 0 1 1 1.052 1.053l-.375.375a.739.739 0 0 1-.526.218zM1.965 5.8a.746.746 0 0 1-.745.746H.745a.746.746 0 0 1 0-1.491h.475c.411 0 .745.334.745.745zm.023-2.756l-.375-.375a.746.746 0 0 1 1.055-1.055l.375.376a.746.746 0 1 1-1.055 1.054z"/></svg>