<svg width="18" height="14" viewBox="0 0 18 14" xmlns="http://www.w3.org/2000/svg"><path d="M0 13.566h18V3.842H0v9.724Zm12.837-6.83h1.255V5.48H15.2v1.255h1.256v1.108h-1.25V9.1h-1.11V7.844h-1.26V6.736Zm-11.298 0h3.624v1.108H1.54V6.736ZM17.389 1.369h-1.184V.61A.613.613 0 0 0 15.594 0h-1.848a.613.613 0 0 0-.61.611v.758H4.622V.61A.613.613 0 0 0 4.013 0H2.164a.613.613 0 0 0-.611.611v.758H.61A.613.613 0 0 0 0 1.98v.54c0 .336.275.611.611.611H17.39A.613.613 0 0 0 18 2.52v-.54a.613.613 0 0 0-.611-.611Z"/></svg>
