<svg width="17" height="20" viewBox="0 0 17 20" xmlns="http://www.w3.org/2000/svg">
<path d="M8.09 11.48C8.47 11.12 8.92 10.81 9.4 10.57C10.13 10.2 10.95 10 11.82 10C12.79 10 13.7 10.25 14.49 10.71V0.91C14.49 0.41 14.09 0 13.58 0H0.91C0.41 0 0 0.41 0 0.91V17.27C0 17.77 0.41 18.18 0.91 18.18H7.1C6.63 17.38 6.36 16.45 6.36 15.45C6.36 13.89 7.02 12.47 8.09 11.48ZM2.71 3.55H11.75C12 3.55 12.2 3.75 12.2 4C12.2 4.25 12 4.45 11.75 4.45H2.71C2.46 4.45 2.26 4.25 2.26 4C2.26 3.75 2.46 3.55 2.71 3.55ZM2.26 7.51C2.26 7.26 2.46 7.06 2.71 7.06H11.75C12 7.06 12.2 7.26 12.2 7.51C12.2 7.76 12 7.96 11.75 7.96H2.71C2.46 7.96 2.26 7.76 2.26 7.51Z"/>
<path d="M12.19 10.93C12.07 10.93 11.94 10.91 11.82 10.91C11.02 10.91 10.27 11.12 9.61 11.48C8.22 12.26 7.27 13.74 7.27 15.45C7.27 17.96 9.31 20 11.82 20C14.33 20 16.37 17.96 16.37 15.45C16.37 12.94 14.53 11.11 12.2 10.92L12.19 10.93ZM14.59 14.41L11.55 17.46C11.46 17.54 11.34 17.59 11.22 17.59C11.11 17.59 10.99 17.54 10.9 17.46L9.24 15.8C9.06 15.62 9.06 15.33 9.24 15.15C9.41 14.97 9.7 14.97 9.89 15.15L11.23 16.49L13.95 13.78C14.13 13.6 14.42 13.6 14.6 13.78C14.78 13.95 14.78 14.24 14.6 14.42L14.59 14.41Z"/>
</svg>
