<svg width="16" height="20" viewBox="0 0 16 20" xmlns="http://www.w3.org/2000/svg"><path fill-rule="evenodd" clip-rule="evenodd" d="M13.556 0a2 2 0 0 1 2 2v16a2 2 0 0 1-2 2H2a2 2 0 0 1-2-2V2a2 2 0 0 1 2-2h11.556zM6.92 8.111H5.886l.805 3.786c-1.043.044-2.075.1-2.973.162v-.014l-.659-1.111h-.836v3.58h.836l.659-1.113v-.014c.898.063 1.93.12 2.973.162l-.805 3.786H6.92l2.161-3.713c1.183.02 2.246.012 2.982-.04.56-.04 1.246-.387 1.27-.86-.024-.471-.71-.816-1.27-.856-.736-.053-1.8-.061-2.982-.042L6.921 8.11zm6.435-5.775a.497.497 0 0 0-.713.083l-2.485 3.218L8.683 3.73a.499.499 0 0 0-.712-.083.533.533 0 0 0-.082.734L9.76 6.8a.505.505 0 0 0 .398.198c.154 0 .3-.073.396-.197l2.883-3.732a.533.533 0 0 0-.081-.733z"/></svg>