<svg width="20" height="13" viewBox="0 0 20 13" xmlns="http://www.w3.org/2000/svg"><path d="M19.3 2.662H.645a.357.357 0 0 0-.357.357v.357c0 .197.16.356.357.356H19.3c.197 0 .357-.16.357-.356v-.357a.357.357 0 0 0-.357-.357zM3.294 0h13.398a2.664 2.664 0 0 1 2.663 2.662H.63A2.662 2.662 0 0 1 3.294 0zM18.82 4.638H.975a.522.522 0 0 0-.536.535v5.777h18.614c.11 0 .206.26.206.165V5.077a.535.535 0 0 0-.44-.439zm-1.016 3.609a.686.686 0 0 1-.687.686h-1.043a.315.315 0 0 0-.288.178.356.356 0 0 1-.316.179h-.453a.343.343 0 0 1-.316-.179.357.357 0 0 0-.288-.178H5.326a.316.316 0 0 0-.288.178.357.357 0 0 1-.316.179h-.467a.343.343 0 0 1-.302-.179.357.357 0 0 0-.302-.178h-.974a.686.686 0 0 1-.687-.686v-.275a.357.357 0 0 1 .344-.356h1.372a.37.37 0 0 0 .302-.165.343.343 0 0 1 .302-.178h.467a.357.357 0 0 1 .316.178.33.33 0 0 0 .288.165h9.087a.37.37 0 0 0 .288-.165.343.343 0 0 1 .316-.178h.453a.357.357 0 0 1 .316.178.33.33 0 0 0 .288.165h1.373a.357.357 0 0 1 .357.356l-.055.275z"/><path d="M19.602 11.06H.398a.398.398 0 0 0-.398.398v.535c0 .22.178.398.398.398h19.204c.22 0 .398-.178.398-.398v-.535a.398.398 0 0 0-.398-.398z"/></svg>
