<svg xmlns="http://www.w3.org/2000/svg" xmlns:xlink="http://www.w3.org/1999/xlink" width="16" height="16" viewBox="0 0 16 16"><defs><path id="cross-round-a" d="M82 487c4.415 0 8 3.582 8 8s-3.585 8-8 8-8-3.582-8-8 3.585-8 8-8zm3.524 4.453a1.003 1.003 0 0 0-1.416 0l-2.144 2.144-2.103-2.102a1.01 1.01 0 0 0-1.427 1.427l2.103 2.102-2.084 2.084a1.001 1.001 0 0 0 1.416 1.416l2.084-2.084 2.125 2.126a1.01 1.01 0 0 0 1.427-1.427l-2.125-2.126 2.144-2.144a1.001 1.001 0 0 0 0-1.416z"/></defs><use xlink:href="#cross-round-a" transform="translate(-74 -487)" fill-rule="evenodd"/></svg>
