<svg height="18" viewBox="0 0 19 18" width="19" xmlns="http://www.w3.org/2000/svg"><path d="m10.915 10.544c-.568.536-.741.867-.741 1.324v.584h-1.53v-.568c0-.804.206-1.277.883-1.94.678-.677 1.451-1.276 1.451-1.94 0-.708-.473-1.197-1.592-1.197-.789 0-1.609.489-2.161 1.072l-.898-1.04c.662-.71 1.829-1.42 3.106-1.42 1.939 0 3.185 1.073 3.185 2.476 0 1.072-.883 1.845-1.703 2.649zm-1.498 4.946c-.719 0-1.24-.515-1.24-1.225 0-.678.544-1.21 1.24-1.21.687 0 1.225.532 1.225 1.21 0 .698-.527 1.225-1.225 1.225zm-2.475-13.488c0-.515.418-.933.933-.933h3.061c.515 0 .934.418.934.933v1.233h-4.928zm9.593 1.233h-3.596v-1.233a2.005 2.005 0 0 0 -2.003-2.002h-3.061c-1.105.001-2 .897-2.002 2.002v1.233h-3.596a2.31 2.31 0 0 0 -2.277 2.303v9.63a2.311 2.311 0 0 0 2.304 2.306h14.203a2.311 2.311 0 0 0 2.304-2.305v-9.631a2.31 2.31 0 0 0 -2.276-2.303z"/></svg>