<svg xmlns="http://www.w3.org/2000/svg" width="24" height="24" viewBox="0 0 24 24"><path d="M3.145 13.997c.447.672 1.06 1.151 1.752 1.151l4.494.004c.525 0 .951.426.951.951v4.848c0 .579.47 1.049 1.049 1.049.765 0 1.43-.527 1.604-1.272l.459-1.959a11.575 11.575 0 0 1 1.898-4.15l.678-.937c.3-.415.463-.915.463-1.428V2.74a.74.74 0 0 0-.74-.74H9.195a3.497 3.497 0 0 0-3.107 1.894L2.956 9.969c-.66 1.28-.61 2.828.187 4.027l.002.001ZM21.67 12.174V2.87A.87.87 0 0 0 20.8 2h-2.614a.87.87 0 0 0-.87.87v9.303c0 .48.39.87.87.87H20.8a.87.87 0 0 0 .87-.87Z"/></svg>
