<svg xmlns="http://www.w3.org/2000/svg" width="16" height="20" viewBox="0 0 16 20"><path d="M10.71.5H1.5C.67.5 0 1.17 0 2v16.01c0 .83.67 1.5 1.5 1.5h13c.83 0 1.5-.67 1.5-1.5V5.79zm.64 10.22v.2H5.78c.04.31.12.61.27.88.22.35.52.63.9.83s.82.3 1.31.3c.4 0 .77-.07 1.1-.21.33-.13.63-.34.88-.62l.69.81c-.31.36-.7.64-1.17.83-.46.19-.98.29-1.55.29q-1.11 0-1.95-.45c-.55-.31-.99-.72-1.3-1.25s-.46-1.14-.46-1.82.15-1.29.44-1.82c.3-.53.71-.95 1.23-1.24C6.7 7.15 7.28 7 7.95 7s1.26.15 1.77.44c.52.3.9.71 1.19 1.24s.44 1.15.44 1.86c0 .05-.01.11-.01.18z"/><path d="M9.12 8.35c-.33-.2-.72-.3-1.16-.3s-.82.1-1.16.3c-.33.19-.6.46-.79.82-.14.26-.21.55-.25.86h4.39c-.03-.31-.1-.61-.24-.87-.19-.35-.45-.62-.79-.81"/></svg>
