<svg xmlns="http://www.w3.org/2000/svg" width="20" height="20" viewBox="0 0 20 20"><path d="M9.858 3.016c4.262 0 6.589-.995 6.589-1.506C16.447 1 14.12 0 9.857 0 5.596 0 3.269.995 3.269 1.505c0 .51 2.327 1.51 6.59 1.51Z"/><path d="M9.42 6.331a7.452 7.452 0 0 1 5.332-.92c.442-.106.893-.171 1.347-.195a.6.6 0 0 0 .31-.364V2.684c-1.299.81-3.988 1.19-6.551 1.19-2.564 0-5.263-.38-6.59-1.19v2.147c0 .495 2.18 1.437 6.153 1.5ZM5.249 8.617a1.779 1.779 0 0 0-1.87-.117.332.332 0 0 1-.105-.195V6c1.068.647 3.005 1.015 5.047 1.136a7.542 7.542 0 0 0-1.832 2.442l-.584-.105a1.8 1.8 0 0 0-.656-.856Z"/><path fill-rule="evenodd" d="M13.278 6.084a6.72 6.72 0 0 0-6.583 5.405h.726a1.799 1.799 0 1 1 0 3.6h-.437a6.71 6.71 0 1 0 6.294-9.005Zm3.3 9.69a.432.432 0 0 1-.857 0V10.91l-2.106 2.89a.379.379 0 0 1-.347.178.431.431 0 0 1-.342-.173l-2.19-2.921v4.894a.432.432 0 0 1-.857 0V9.59a.432.432 0 0 1 .773-.258l2.632 3.49 2.536-3.484a.432.432 0 0 1 .78.252v6.184h-.022Z" clip-rule="evenodd"/><path d="M8.345 12.906a1 1 0 0 1-.924 1.383h-2.2v2.2a1 1 0 1 1-2 0v-2.2H1a1 1 0 1 1 0-2h2.21v-2.2a1 1 0 1 1 2 0v2.2h2.21a1 1 0 0 1 .925.617Z"/></svg>
