<svg xmlns="http://www.w3.org/2000/svg" width="24" height="24" viewBox="0 0 24 24"><path d="M21.954 11.597a7.642 7.642 0 0 0-.742-2.476l-.012-.024A7.474 7.474 0 0 0 14.538 5a7.418 7.418 0 0 0-4.1 1.231l-.61-.205a1.193 1.193 0 0 0-1.32.39 12.412 12.412 0 0 0-5.085-.108.327.327 0 0 0-.246.437l.42 1.106a.327.327 0 0 0 .361.206 10.617 10.617 0 0 1 4.05.081c.027.154.084.3.167.43a7.416 7.416 0 0 0-1.099 3.893c0 4.115 3.348 7.462 7.462 7.462a7.413 7.413 0 0 0 5.276-2.185c.01-.01.018-.022.026-.033v1.237a.35.35 0 0 0 .699 0v-2.387h-2.387a.35.35 0 0 0 0 .699h1.168a6.726 6.726 0 0 1-4.782 1.978 6.778 6.778 0 0 1-6.77-6.77c0-1.254.343-2.428.939-3.436.032.014.065.028.1.04l3.03 1.019c.19.064.32.243.321.445l.008 1.517a1.2 1.2 0 0 0 .819 1.131l1.637.551a1.203 1.203 0 0 0 1.521-.755l.394-1.172c.225.124.41.276.528.44.13.177.19.41.253.656.058.222.117.451.232.675a2.403 2.403 0 0 0 2.123 1.298h.023a2.28 2.28 0 0 0 1.909-1.093c.466-.745.423-1.602.35-2.181Zm-2.114 5.657v.027c-.007-.01-.014-.019-.022-.027h.022Zm-4.625-4.24a.47.47 0 0 1-.36.025l-1.638-.551a.472.472 0 0 1-.322-.445l-.008-1.518a1.201 1.201 0 0 0-.819-1.131l-3.03-1.02a.47.47 0 0 1-.296-.597l.256-.763a.469.469 0 0 1 .598-.297l6.634 2.231a.47.47 0 0 1 .297.599l-1.074 3.194a.469.469 0 0 1-.238.273ZM4.113 7.37l-.184-.485a11.836 11.836 0 0 1 4.298.136l-.156.462c-1.292-.27-2.65-.31-3.958-.113Zm16.906 6.042a1.593 1.593 0 0 1-1.33.768 1.728 1.728 0 0 1-1.524-.922c-.08-.156-.128-.34-.178-.534-.074-.284-.157-.605-.363-.888-.248-.341-.593-.563-.864-.697l.458-1.36c.102-.304.08-.63-.063-.917a1.193 1.193 0 0 0-.693-.604L11.295 6.52a6.729 6.729 0 0 1 3.243-.829 6.719 6.719 0 0 1 3.274.843 6.79 6.79 0 0 1 2.77 2.875l.012.022c.346.69.573 1.448.675 2.252.097.765.02 1.298-.25 1.729ZM2 13.741a1.905 1.905 0 0 0 3.81 0c0-1.052-1.905-4.145-1.905-4.145S2 12.69 2 13.741Z"/></svg>
