<svg xmlns="http://www.w3.org/2000/svg" width="15" height="18" viewBox="0 0 15 18"><path fill-rule="evenodd" d="M10.524 3.269a1.635 1.635 0 0 1 0-3.268 1.635 1.635 0 0 1 0 3.268zm.29 9.54h-.578v4.367c0 .452-.37.824-.824.824h-.066a.827.827 0 0 1-.824-.824V12.81H7.399s.064-.971.154-2.209c-.423-.106-.673-.571-.557-1.032L8.028 5.48c.22-1.084.776-1.766 1.68-1.766h1.633c.906 0 1.461.682 1.682 1.766l1.032 4.09c.115.46-.135.925-.558 1.031.09 1.238.155 2.209.155 2.209h-1.124v4.366a.828.828 0 0 1-.824.824h-.066a.827.827 0 0 1-.824-.824V12.81zM3.296 3.27a1.633 1.633 0 0 1 0-3.269 1.635 1.635 0 0 1 0 3.269zm1.526.3a1.076 1.076 0 1 1 2.153 0 1.076 1.076 0 0 1-2.153 0zm1.385 1.628c.905.124 1.115 2.692.362 2.912-.456.134-2.295.589-2.445-.1-.155-.707 1.617-.728 1.44-1.423-.101-.4-.954-.254-.968-.75-.012-.398 1.086-.71 1.611-.639zM4.941 8.884c.387 0 .814-.068 1.153-.139v1.198h-.002a.794.794 0 0 1-.79.773v6.459a.827.827 0 0 1-.825.825h-.066a.827.827 0 0 1-.824-.825V12.08h-.005a.287.287 0 0 0-.284-.27.288.288 0 0 0-.286.27h-.004v5.096a.827.827 0 0 1-.824.825h-.067a.827.827 0 0 1-.824-.825v-6.459a.795.795 0 0 1-.791-.774H.5V5.794a.8.8 0 0 1 .036-.224c.18-1.054 1.018-1.857 2.02-1.857H4.04c.098 0 .194.01.288.025.05.471.308.883.682 1.137-.264.094-.51.225-.676.396a.784.784 0 0 0-.241.578c.015.58.506.779.792.874-.082.04-.171.08-.239.11-.44.198-1.18.53-1.015 1.283.146.669.884.768 1.31.768z"/></svg>