<svg width="16" height="16" viewBox="0 0 16 16" xmlns="http://www.w3.org/2000/svg"><path d="M7.569 4.053V4.05c-3.21.004-3.514.064-3.514 3.946 0 3.881.11 3.946 3.946 3.946 2.104 0 3.815.247 3.918-2 .289-6.354-.235-5.897-4.35-5.89zM8 10.47a2.472 2.472 0 1 1 0-4.944 2.472 2.472 0 0 1 0 4.944zm2.57-4.464a.578.578 0 1 1 0-1.155.578.578 0 0 1 0 1.155zM8 6.395c-2.125 0-2.121 3.209 0 3.209s2.121-3.21 0-3.21zM8 0a8 8 0 1 0 0 16A8 8 0 0 0 8 0zm4.56 11.152c-.724 1.858-2.672 1.661-4.561 1.661-1.89 0-3.847.176-4.561-1.661-.292-.753-.253-1.915-.253-3.153 0-1.41-.042-2.395.253-3.153.715-1.836 2.588-1.66 4.56-1.66 1.834 0 3.083-.116 4.006.807.912.912.809 2.126.809 4.006 0 1.417.043 2.387-.253 3.153z" /></svg>
