<svg width="16" height="16" viewBox="0 0 16 16" xmlns="http://www.w3.org/2000/svg"><path d="M9.6 8.409h-.717V6.51a.3.3 0 1 0-.6 0V8.71a.3.3 0 0 0 .3.3h1.018a.3.3 0 1 0 0-.6zm-1.939-.93l-.008-.02-.496-1.074a.299.299 0 0 0-.272-.174.3.3 0 0 0-.272.173L6.104 7.47l-.01.023-.41 1.112a.3.3 0 0 0 .563.207l.118-.32H7.4l.12.322a.3.3 0 1 0 .562-.21L7.66 7.478h.001zm-1.074.414l.066-.18.21-.572a.02.02 0 0 1 .038 0l.202.56.072.192h-.588zm4.621-.432l.716-.74a.3.3 0 0 0-.43-.418l-.874.903v-.694a.3.3 0 1 0-.6 0v2.197a.3.3 0 1 0 .6 0v-.64l.165-.17.719.987a.3.3 0 0 0 .42.066.3.3 0 0 0 .065-.42l-.78-1.071h-.001zm-5.377-.649a.3.3 0 0 0 .002-.6l-1.702-.011a.3.3 0 0 0-.004.6l.553.003v1.905a.3.3 0 1 0 .6 0V6.808l.55.003h.001v.001zM8 .001a8 8 0 1 0 8 8A8 8 0 0 0 8 0zm.055 11.826c-.326 0-.644-.024-.954-.066l-2.295 1.548a.155.155 0 0 1-.237-.167l.521-1.985a.02.02 0 0 0-.01-.024c-1.504-.77-2.5-2.104-2.5-3.623 0-2.385 2.452-4.318 5.476-4.318s5.475 1.933 5.475 4.318-2.451 4.318-5.475 4.318z"/></svg>
