<svg height="15" viewBox="0 0 20 15" width="20" xmlns="http://www.w3.org/2000/svg"><path d="m3.272 5.968.048-.227c.024-.109.598-2.727 1.973-3.863.867-.717 3.404-.795 4.455-.795.155 0 .249.003.249.003.007 0 .1-.003.256-.003 1.05 0 3.587.078 4.455.794 1.374 1.137 1.948 3.755 1.972 3.865l.048.226zm12.056 4.36c-.773 0-1.4-.646-1.4-1.443 0-.798.627-1.444 1.4-1.444s1.4.646 1.4 1.443c0 .798-.627 1.444-1.4 1.444zm-10.658 0c-.773 0-1.4-.646-1.4-1.443 0-.798.627-1.444 1.4-1.444s1.4.646 1.4 1.443c0 .798-.627 1.444-1.4 1.444zm14.034-6.035c-.4 0-.752.136-.99.345-.11-.285-.18-.454-.18-.454s-1.24-2.92-2.554-3.61c-.545-.291-1.477-.467-2.314-.574h-5.332c-.838.108-1.77.286-2.315.573-1.313.691-2.553 3.613-2.553 3.613s-.071.169-.18.453c-.238-.21-.59-.345-.99-.345-.716-.001-1.296.426-1.296.956 0 .525.58.955 1.296.955.166 0 .323-.024.469-.067-.566 1.813-1.185 4.396-.297 5.548v2.717c0 .348.387.597.724.597h1.288c.338 0 .5-.249.5-.598v-1.623c1.677.302 5.273.319 6.019.319s4.342-.017 6.019-.32v1.625c0 .348.162.597.5.597h1.289c.338 0 .725-.249.725-.598v-2.715c.887-1.153.268-3.736-.298-5.549.146.042.303.067.469.067.715 0 1.296-.429 1.296-.955 0-.53-.581-.957-1.296-.957z"/></svg>