<svg width="18" height="18" viewBox="0 0 18 18" xmlns="http://www.w3.org/2000/svg"><path d="M11.293 7.692a3.267 3.267 0 0 0-.542-.737 4.087 4.087 0 0 0-1.968-1.067l.005-.005-.059-.01a3.933 3.933 0 0 0-.223-.04 3.713 3.713 0 0 0-1.383.024 4.13 4.13 0 0 0-.246.049c-.16.041-.318.091-.472.15a4.125 4.125 0 0 0-1.529.985l-3.722 3.832a4.155 4.155 0 0 0 5.96 5.789l3.486-3.59c-.26.05-.524.08-.788.09h-.086a5.13 5.13 0 0 1-1.703-.306L5.68 15.268a2.154 2.154 0 0 1-3.091-3.001L6.31 8.434a2.18 2.18 0 0 1 .296-.25c.065-.045.134-.086.204-.122.037-.02.072-.043.11-.061.095-.045.194-.083.295-.114l.032-.01a2.26 2.26 0 0 1 .345-.07c.077-.013.154-.022.232-.026h.033a2.14 2.14 0 0 1 1.996 1.358l1.439-1.447z"/><path d="M7.73 8.804c.136.268.303.52.497.75a2.097 2.097 0 0 0 1.533.608c.078-.005.155-.014.232-.026a2.26 2.26 0 0 0 .345-.07l.031-.01c.101-.031.2-.07.296-.114.038-.018.073-.04.11-.061.07-.037.138-.077.204-.122a2.14 2.14 0 0 0 .296-.25l3.722-3.833a2.155 2.155 0 0 0-1.545-3.655h-.032a2.138 2.138 0 0 0-1.514.653L9.566 5.082a4.945 4.945 0 0 0-1.652-.303l-.147.002c-.263.01-.524.04-.783.089l3.486-3.59a4.154 4.154 0 1 1 5.96 5.79l-3.722 3.832c-.43.438-.952.774-1.528.984a4.23 4.23 0 0 1-.473.15c-.08.02-.163.035-.246.05-.221.045-.447.07-.673.076h-.062a3.744 3.744 0 0 1-.624-.06 4.11 4.11 0 0 1-2.268-1.114 3.747 3.747 0 0 1-.512-.625l1.409-1.56z"/></svg>