<svg width="8" height="20" viewBox="0 0 8 20" xmlns="http://www.w3.org/2000/svg"><path d="M5.932 1.205H5.32c.005-.016.005-.042.005-.058V.411A.411.411 0 0 0 4.916 0H2.663a.411.411 0 0 0-.41.41v.737c0 .016 0 .042.005.058h-.71A1.55 1.55 0 0 0 0 2.753v15.7A1.55 1.55 0 0 0 1.547 20h4.39a1.55 1.55 0 0 0 1.547-1.547v-15.7a1.561 1.561 0 0 0-1.552-1.548ZM1.026 4.758h2.095v-2.1h1.221v2.095h2.095v1.231H4.342v2.09h-1.22v-2.09H1.025V4.758Zm5.421 12.505c0 .105-.09.195-.194.195H1.21a.198.198 0 0 1-.195-.195v-.847c0-.105.09-.195.195-.195h5.042c.105 0 .194.09.194.195v.847Z"/></svg>
