<svg height="16" viewBox="0 0 20 16" width="20" xmlns="http://www.w3.org/2000/svg"><path d="m19.12 0 .88 3.048h-2.543v4.028a1.312 1.312 0 0 0 -.631-.195v-3.833h-2.544l.881-3.048zm-18.426 13.452a.694.694 0 0 1 -.694-.692v-4.556c0-.36.278-.659.631-.69.021-.002 1.231 0 1.231 0 .383 0 .698.306.698.69v2.057h12.337v-2.058c0-.383.315-.689.698-.689 0 0 1.21-.002 1.231 0 .353.031.63.33.63.69v4.556c0 .382-.31.693-.693.693h-16.069zm2.493-5.25v1.426h11.083v-1.426c0-.73.594-1.324 1.325-1.324h.632v-.366c0-.824-.659-1.644-1.478-1.789a34.396 34.396 0 0 0 -12.041 0c-.819.145-1.479.965-1.478 1.79v.365h.632c.73 0 1.325.594 1.325 1.324m-1.872 6.891h.66c.05-.196.32-.856.382-1.114h-.975c-.03.29-.055.958-.067 1.114m14.827 0h-.66c-.05-.196-.32-.856-.382-1.114h.975c.03.29.055.958.067 1.114"/></svg>