<svg width="15" height="18" viewBox="0 0 15 18" xmlns="http://www.w3.org/2000/svg"><path d="M2.723 17.502l11.859-.252-.44-1.276c-1.591.55-5.588 1.232-11.42 1.527m1.679-.569c3.45-.34 8.151-.988 10.182-1.912l-.713-1.865c-2.2 1.587-6.38 2.933-9.469 3.777M10.831 0s-.727 1.762-3.54 3.403C5.365 4.524 2.3 5.286 2.3 5.286L0 17.252s5.304-1.563 9.317-4.313c3.813-2.611 4.358-4.008 4.358-4.008L10.831 0zM9.727 13.54c-1.315.903-3.589 2.028-4.94 2.664 2.837-.82 7.67-2.613 9.31-4.176l-.656-1.563c-.667.732-1.8 1.765-3.714 3.076"/></svg>