<svg xmlns="http://www.w3.org/2000/svg" width="24" height="24" viewBox="0 0 24 24"><path d="M14 2c0 1.1-.9 2-2 2s-2-.9-2-2H4v20h6c0-1.1.9-2 2-2s2 .9 2 2h6V2h-6Zm5 19h-4.17a3.004 3.004 0 0 0-5.66 0H5V3h4.17a3.004 3.004 0 0 0 5.66 0H19v18Z"/><path d="M7.05 10.06c-.19.2-.19.51 0 .71.2.2.51.19.71 0a5.905 5.905 0 0 1 4.23-1.76c1.6 0 3.11.63 4.23 1.76a.508.508 0 0 0 .71.01c.2-.2.2-.51 0-.71a6.91 6.91 0 0 0-4.95-2.06c-1.88 0-3.63.73-4.95 2.06l.02-.01ZM12 11c-1.07 0-2.08.42-2.83 1.18-.19.2-.19.51 0 .71.2.19.51.19.71 0 1.12-1.14 3.11-1.14 4.23 0a.508.508 0 0 0 .71.01c.2-.19.2-.51 0-.71a3.938 3.938 0 0 0-2.83-1.18L12 11ZM12 16a1 1 0 1 0 0-2 1 1 0 0 0 0 2Z"/></svg>
