<svg xmlns="http://www.w3.org/2000/svg" width="24" height="24" viewBox="0 0 24 24"><path d="M17.5 2h-9A2.5 2.5 0 0 0 6 4.5V7h1V4.5C7 3.67 7.67 3 8.5 3h9c.83 0 1.5.67 1.5 1.5v15c0 .83-.67 1.5-1.5 1.5h-9c-.83 0-1.5-.67-1.5-1.5V17H6v2.5A2.5 2.5 0 0 0 8.5 22h9a2.5 2.5 0 0 0 2.5-2.5v-15A2.5 2.5 0 0 0 17.5 2Z"/><path d="M15.65 12.19c.03-.06.04-.13.04-.19s-.01-.13-.04-.19-.06-.12-.11-.16l-4.51-4.51c-.2-.2-.51-.2-.71 0-.2.2-.2.51 0 .71l3.65 3.65H2.1c-.28 0-.5.22-.5.5s.22.5.5.5h11.88l-3.65 3.65c-.2.2-.2.51 0 .71a.485.485 0 0 0 .7 0l4.51-4.51s.08-.1.11-.16Z"/></svg>
