<svg width="24" height="24" viewBox="0 0 24 24" xmlns="http://www.w3.org/2000/svg">
<path d="M22 12C22 11.8511 21.9321 11.7213 21.8289 11.6297L13.8457 3.64648C13.6504 3.45117 13.334 3.45117 13.1387 3.64648C12.9434 3.84179 12.9434 4.1582 13.1387 4.35351L20.2852 11.5H2.5C2.22363 11.5 2 11.7236 2 12C2 12.2764 2.22363 12.5 2.5 12.5H20.2852L13.1387 19.6465C12.9434 19.8418 12.9434 20.1582 13.1387 20.3535C13.2363 20.4512 13.3643 20.5 13.4922 20.5C13.6201 20.5 13.7481 20.4512 13.8457 20.3535L21.8289 12.3703C21.9321 12.2787 22 12.1489 22 12Z"/>
</svg>
