<svg width="24" height="24" viewBox="0 0 24 24" fill="none" xmlns="http://www.w3.org/2000/svg">
<g clip-path="url(#clip0_11521_65)">
<path fill-rule="evenodd" clip-rule="evenodd" d="M0 9.43697C0 11.6681 1.17958 13.7063 3.00258 15.056C3.16343 15.1662 3.24386 15.3315 3.24386 15.5518C3.24386 15.6069 3.21705 15.6895 3.21705 15.7446C3.083 16.2955 2.84172 17.2045 2.81492 17.232C2.78811 17.3146 2.7613 17.3697 2.7613 17.4524C2.7613 17.6176 2.89534 17.7554 3.05619 17.7554C3.10981 17.7554 3.16343 17.7278 3.21705 17.7003L5.12047 16.571C5.25451 16.4883 5.41536 16.4332 5.57621 16.4332C5.65664 16.4332 5.76388 16.4332 5.8443 16.4608C6.72899 16.7362 7.6941 16.8739 8.68603 16.8739C13.4848 16.8739 17.3721 13.5411 17.3721 9.43697C17.3721 5.33286 13.4848 2 8.68603 2C3.88727 2 0 5.33286 0 9.43697Z" fill="url(#paint0_linear_11521_65)"/>
<path fill-rule="evenodd" clip-rule="evenodd" d="M16.7791 21.2538C17.6081 21.2538 18.4105 21.1428 19.1326 20.9208C19.1861 20.8931 19.2663 20.8931 19.3465 20.8931C19.4802 20.8931 19.614 20.9486 19.7209 21.0041L21.2988 21.9476C21.3523 21.9754 21.3791 22.0031 21.4326 22.0031C21.5663 22.0031 21.6733 21.8921 21.6733 21.7534C21.6733 21.6979 21.6465 21.6424 21.6465 21.5591C21.6465 21.5314 21.4326 20.7821 21.3256 20.3103C21.2988 20.2548 21.2988 20.1993 21.2988 20.1438C21.2988 19.9773 21.3791 19.8385 21.5128 19.7275C23.0372 18.5897 24 16.8969 24 15.0098C24 11.5686 20.764 8.76575 16.7791 8.76575C12.7942 8.76575 9.55817 11.5409 9.55817 15.0098C9.55817 18.451 12.7942 21.2538 16.7791 21.2538Z" fill="url(#paint1_linear_11521_65)"/>
<path fill-rule="evenodd" clip-rule="evenodd" d="M18.2789 13.0803C18.2789 13.6399 18.713 14.0875 19.2556 14.0875C19.7982 14.0875 20.2324 13.6399 20.2324 13.0803C20.2324 12.5208 19.7982 12.0731 19.2556 12.0731C18.713 12.0731 18.2789 12.5208 18.2789 13.0803Z" fill="#858C8C"/>
<path fill-rule="evenodd" clip-rule="evenodd" d="M13.4651 13.0803C13.4651 13.6399 13.8992 14.0875 14.4418 14.0875C14.9845 14.0875 15.4186 13.6399 15.4186 13.0803C15.4186 12.5208 14.9845 12.0731 14.4418 12.0731C13.8992 12.0731 13.4651 12.5208 13.4651 13.0803Z" fill="#858C8C"/>
<path fill-rule="evenodd" clip-rule="evenodd" d="M12.6976 7.03651C12.6976 7.67897 12.2044 8.18759 11.5814 8.18759C10.9583 8.18759 10.4651 7.67897 10.4651 7.03651C10.4651 6.39405 10.9583 5.88544 11.5814 5.88544C12.2044 5.88544 12.6976 6.39405 12.6976 7.03651Z" fill="#187E28"/>
<path fill-rule="evenodd" clip-rule="evenodd" d="M6.90699 7.03651C6.90699 7.67897 6.41375 8.18759 5.79072 8.18759C5.16768 8.18759 4.67444 7.67897 4.67444 7.03651C4.67444 6.39405 5.16768 5.88544 5.79072 5.88544C6.41375 5.88544 6.90699 6.39405 6.90699 7.03651Z" fill="#187E28"/>
</g>
<defs>
<linearGradient id="paint0_linear_11521_65" x1="8.69568" y1="16.8337" x2="8.69568" y2="2.06878" gradientUnits="userSpaceOnUse">
<stop stop-color="#78D431"/>
<stop offset="1" stop-color="#9EEE69"/>
</linearGradient>
<linearGradient id="paint1_linear_11521_65" x1="16.7919" y1="21.1473" x2="16.7919" y2="8.76097" gradientUnits="userSpaceOnUse">
<stop stop-color="#E4E6E6"/>
<stop offset="1" stop-color="#F5F5FF"/>
</linearGradient>
<clipPath id="clip0_11521_65">
<rect width="24" height="24" fill="white"/>
</clipPath>
</defs>
</svg>
