<svg width="24" height="24" viewBox="0 0 24 24" fill="none" xmlns="http://www.w3.org/2000/svg">
<path d="M22.8693 0H1.1307C0.506234 0 0 0.506234 0 1.1307V22.8693C0 23.4938 0.506234 24 1.1307 24H22.8693C23.4938 24 24 23.4938 24 22.8693V1.1307C24 0.506234 23.4938 0 22.8693 0Z" fill="url(#paint0_linear_11521_101)"/>
<path d="M3.60513 14.9842C3.60513 17.271 6.58316 19.1251 10.2558 19.1251C13.9285 19.1251 16.9065 17.271 16.9065 14.9842C16.9065 12.6974 13.9285 10.8434 10.2558 10.8434C6.58316 10.8434 3.60513 12.6974 3.60513 14.9842Z" fill="white"/>
<path d="M10.4129 18.7907C7.16112 19.1135 4.35379 17.6414 4.14253 15.5085C3.93126 13.3721 6.39717 11.3845 9.64732 11.0617C12.8991 10.7389 15.7065 12.211 15.916 14.344C16.1307 16.4803 13.6648 18.4713 10.4146 18.7907M16.9132 11.704C16.636 11.6195 16.4468 11.5654 16.5904 11.202C16.9048 10.4127 16.9369 9.73327 16.5955 9.24482C15.9583 8.33383 14.2141 8.38284 12.2129 9.22115C12.2129 9.22115 11.5842 9.49496 11.7465 8.99975C12.0524 8.01101 12.0068 7.18453 11.5301 6.70453C10.4468 5.61777 7.55999 6.7451 5.08563 9.21947C3.23492 11.0702 2.1583 13.0358 2.1583 14.7344C2.1583 17.9812 6.32281 19.9569 10.396 19.9569C15.7369 19.9569 19.2896 16.8538 19.2896 14.3913C19.293 12.9006 18.0372 12.0555 16.9099 11.7057" fill="#E6162D"/>
<path d="M20.4609 5.7595C19.1713 4.32795 17.2682 3.78372 15.5121 4.15724C15.1048 4.24344 14.8479 4.64569 14.9341 5.04964C15.0203 5.45696 15.4192 5.71386 15.8265 5.62767C17.0755 5.36231 18.4276 5.74936 19.3437 6.76513C20.2597 7.78091 20.5082 9.16682 20.1161 10.3803C19.9893 10.7758 20.2057 11.1984 20.6011 11.3268C20.9966 11.4536 21.4192 11.2372 21.5476 10.8451V10.8418C22.1003 9.1364 21.7504 7.18936 20.4609 5.76119" fill="#FF9933"/>
<path d="M18.48 7.54909C17.8512 6.85275 16.925 6.5874 16.0715 6.77162C15.7217 6.8443 15.5003 7.19247 15.5729 7.54064C15.649 7.8905 15.9938 8.11191 16.3403 8.03585C16.7577 7.94627 17.2124 8.07641 17.5183 8.41444C17.8242 8.75585 17.9087 9.21895 17.7752 9.62627C17.667 9.9643 17.8512 10.3311 18.1926 10.4426C18.5341 10.5508 18.8974 10.3666 19.009 10.0251C19.2777 9.19359 19.1087 8.24543 18.48 7.5474" fill="#FF9933"/>
<path d="M10.5921 14.925C10.4789 15.1194 10.2271 15.2124 10.031 15.1312C9.83665 15.0535 9.77581 14.8338 9.88735 14.6428C10.0006 14.4535 10.2423 14.3605 10.435 14.4366C10.6293 14.5076 10.7003 14.7273 10.5921 14.925ZM9.55271 16.2535C9.23834 16.7555 8.56397 16.9752 8.05693 16.7436C7.55834 16.5155 7.40961 15.9341 7.72397 15.4422C8.03496 14.9538 8.68567 14.7374 9.18933 14.9487C9.69806 15.1684 9.862 15.7448 9.55271 16.2518M10.7358 12.7025C9.18764 12.2986 7.44003 13.071 6.76904 14.4349C6.08285 15.8259 6.74707 17.3707 8.30876 17.8743C9.92961 18.3966 11.8378 17.5955 12.502 16.0963C13.1578 14.6276 12.3397 13.1183 10.7375 12.7025" fill="black"/>
<defs>
<linearGradient id="paint0_linear_11521_101" x1="12" y1="-5.55718" x2="12" y2="25.9792" gradientUnits="userSpaceOnUse">
<stop offset="0.19" stop-color="#FCF0C3"/>
<stop offset="1" stop-color="#F8D55A"/>
</linearGradient>
</defs>
</svg>
