<svg width="24" height="24" viewBox="0 0 24 24" fill="none" xmlns="http://www.w3.org/2000/svg">
<g clip-path="url(#clip0_11521_98)">
<path d="M23.9999 11.9999C23.9999 5.37305 18.6268 0 11.9999 0C5.37305 0 0 5.37305 0 11.9999C0 17.9889 4.38754 22.9536 10.1251 23.8547V15.4695H7.07744V11.9999H10.1251V9.35559C10.1251 6.34844 11.9172 4.68623 14.6578 4.68623C15.9707 4.68623 17.3443 4.9208 17.3443 4.9208V7.87395H15.8306C14.3405 7.87395 13.8748 8.79871 13.8748 9.74878V11.9999H17.2025L16.671 15.4695H13.8748V23.8547C19.6123 22.9553 23.9999 17.9906 23.9999 11.9999Z" fill="#1977F3"/>
<path d="M16.671 15.4695L17.2025 11.9999H13.8748V9.74878C13.8748 8.8004 14.3388 7.87395 15.8306 7.87395H17.3443V4.9208C17.3443 4.9208 15.9707 4.68623 14.6578 4.68623C11.9172 4.68623 10.1251 6.34675 10.1251 9.35559V11.9999H7.07744V15.4695H10.1251V23.8547C10.736 23.9509 11.362 24 11.9999 24C12.6378 24 13.2639 23.9492 13.8748 23.8547V15.4695H16.671Z" fill="#FEFEFE"/>
</g>
<defs>
<clipPath id="clip0_11521_98">
<rect width="24" height="24" fill="white"/>
</clipPath>
</defs>
</svg>
