<svg width="24" height="24" viewBox="0 0 24 24" fill="none" xmlns="http://www.w3.org/2000/svg">
<g clip-path="url(#clip0_11521_107)">
<path d="M24 12C24 18.6274 18.6274 24 12 24C5.37258 24 0 18.6274 0 12C0 5.37258 5.37258 0 12 0C18.6274 0 24 5.37258 24 12Z" fill="black"/>
<path d="M13.4966 10.39L18.4111 4.8H17.2467L12.9772 9.65283L9.57008 4.8H5.63906L10.7929 12.1385L5.63906 18H6.80352L11.309 12.8744L14.908 18H18.8391L13.4966 10.39ZM7.22366 5.65901H9.01249L12.3665 10.3518L12.8871 11.0832L17.246 17.1831H15.4572L7.22366 5.65901Z" fill="white"/>
</g>
<defs>
<clipPath id="clip0_11521_107">
<rect width="24" height="24" fill="white"/>
</clipPath>
</defs>
</svg>
