<svg width="16" height="15" viewBox="0 0 16 15" xmlns="http://www.w3.org/2000/svg">
<path fill-rule="evenodd" clip-rule="evenodd" d="M3.12855 13.6754L4.71409 7.87129H6.47826C6.1916 7.52361 6.01808 7.07806 6.01808 6.59303C6.01808 5.4899 6.90696 4.5928 8 4.5928C9.09304 4.5928 9.98192 5.4899 9.98192 6.59303C9.98192 7.07806 9.80925 7.52361 9.52259 7.87129H11.0554L12.8715 13.6754H3.12855ZM8 7.79231C8.65582 7.79231 9.18915 7.25405 9.18915 6.59303C9.18915 5.93115 8.65582 5.39289 8 5.39289C7.34503 5.39289 6.81085 5.93115 6.81085 6.59303C6.81085 7.25405 7.34503 7.79231 8 7.79231ZM5.88453 1.69891C5.88453 1.25765 6.24094 0.897957 6.67815 0.897957H9.32185C9.75906 0.897957 10.1155 1.25765 10.1155 1.69891V2.77714H5.88453V1.69891ZM14.064 2.77714H11.0052V1.71865C11.0052 0.770904 10.2414 0 9.30229 0H6.69771C5.75864 0 4.99479 0.770904 4.99479 1.71865V2.77714H1.93599C0.869325 2.79002 0 3.67424 0 4.75333V13.0221C0 14.1098 0.881233 15 1.95981 15H14.0402C15.1188 15 16 14.1098 16 13.0221V4.75333C16 3.67424 15.1315 2.79002 14.064 2.77714Z" />
</svg>
