<svg xmlns="http://www.w3.org/2000/svg" width="20" height="18" viewBox="0 0 20 18"><path fill-rule="evenodd" d="M2.611 13.7c0 1.099.438 2.094 1.146 2.824-.685.397-1.316.656-1.856.745-.206.019-.519-.062-1.099-.501-.58-.44-.742-.72-.781-.921-.225-2 1.371-5.76 4.182-9.474C9.275-.331 13.486.003 13.486.003s1.1 2.978-1.91 8.136H8.861c-.275 0-.394.113-.479.284l-.694 1.356a4.04 4.04 0 0 0-1.02-.135A4.057 4.057 0 0 0 2.611 13.7zm6.19-4.81l.001-.003a.398.398 0 0 1 .37-.225h5.266l-.352-1.054a.415.415 0 0 1 .395-.547h1.517a.415.415 0 1 1 0 .832h-.94l.807 2.414A3.45 3.45 0 0 1 20 13.684a3.45 3.45 0 0 1-3.446 3.445 3.45 3.45 0 0 1-3.445-3.445c0-1.37.806-2.554 1.968-3.109l-.26-.779-3.22 3.393a.415.415 0 0 1-.303.128c-.017 0-.035 0-.052-.002a.416.416 0 0 1-.312-.21l-1.742-3.14-.486.961a3.439 3.439 0 0 1 1.41 2.751l.001.006v.016a3.45 3.45 0 0 1-3.446 3.446A3.45 3.45 0 0 1 3.221 13.7a3.444 3.444 0 0 1 4.757-3.185L8.8 8.89zm7.753 7.406a2.616 2.616 0 0 0 2.613-2.612 2.616 2.616 0 0 0-2.613-2.614c-.144 0-.284.015-.422.038l.817 2.444a.416.416 0 0 1-.79.264l-.816-2.446a2.616 2.616 0 0 0-1.402 2.314 2.616 2.616 0 0 0 2.613 2.612zm-5.17-4.092l2.571-2.71H9.878l1.505 2.71zm-2.142 1.063a2.61 2.61 0 0 0-.92-1.587l-.804 1.587h1.724zm-2.575 3.047a2.616 2.616 0 0 0 2.58-2.214H6.841a.416.416 0 0 1-.371-.605l1.13-2.233a2.583 2.583 0 0 0-.933-.175A2.616 2.616 0 0 0 4.054 13.7a2.616 2.616 0 0 0 2.613 2.614z"/></svg>