<svg xmlns="http://www.w3.org/2000/svg" width="18" height="17" viewBox="0 0 18 17"><path fill-rule="evenodd" d="M1.336 15.429a1.161 1.161 0 1 1 2.322 0 1.161 1.161 0 0 1-2.322 0zm9.773 0a1.161 1.161 0 1 1 2.322 0 1.161 1.161 0 0 1-2.322 0zm3.17-1.846c.808.964.124 1.825-.375 1.844a1.638 1.638 0 0 0-1.635-1.633c-.902 0-1.635.733-1.635 1.635H4.13a1.635 1.635 0 0 0-3.269 0H.516c-1.214 0-.027-4.483.91-4.746 1.88-.53 5.048-.686 6.761-.501 1.714.184 5.458 2.646 6.091 3.401zm-9.967-1.438c1.384.322 5.692.394 7.065.37-1.26-.785-2.575-1.452-3.439-1.544-1.3-.14-4.733.08-5.544.338 0 0 .515.509 1.918.836zM11.394.026L18 5.63v7.03h-3.666c-1.306-1.086-4.41-3.012-6.07-3.19a16.595 16.595 0 0 0-1.713-.08c-.52 0-1.117.02-1.74.062V5.63L11.395.026zm3.179 8.14a3.34 3.34 0 0 0 .87-1.249 3.044 3.044 0 0 1-4.065-4.498 3.374 3.374 0 1 0 3.194 5.748z"/></svg>