<svg width="20" height="20" viewBox="0 0 20 20" xmlns="http://www.w3.org/2000/svg" xmlns:xlink="http://www.w3.org/1999/xlink"><defs><path id="payment_receipt-a" d="M.174 0h4.13v4.128H.174z"/><path id="payment_receipt-c" d="M13.296 0H0v18.82h13.296V0z"/></defs><g fill-rule="evenodd"><g transform="translate(11)"><mask id="payment_receipt-b" fill="#fff"><use xlink:href="#payment_receipt-a"/></mask><path d="M1.723 4.128h2.58L.174 0v2.579c0 .852.697 1.549 1.55 1.549" mask="url(#payment_receipt-b)"/></g><path d="M16.792 13.724l-3.373 3.373-2.618-2.62a.459.459 0 1 1 .648-.65l1.97 1.97 2.723-2.722a.459.459 0 1 1 .65.649m-2.974-4a5.137 5.137 0 0 0-5.136 5.139 5.136 5.136 0 1 0 10.273 0c0-2.837-2.3-5.138-5.137-5.138"/><g transform="translate(2)"><mask id="payment_receipt-d" fill="#fff"><use xlink:href="#payment_receipt-c"/></mask><path d="M2.528 5.215h4.278a.573.573 0 0 1 0 1.144H2.528a.574.574 0 0 1-.572-.572c0-.315.258-.572.572-.572zm0 9.859a.573.573 0 0 1-.572-.571c0-.313.258-.572.572-.572H6.04a5.775 5.775 0 0 1 .578-1.762h-4.09a.574.574 0 0 1-.572-.572c0-.314.258-.57.572-.57h4.867a5.847 5.847 0 0 1 2.687-1.763H2.528a.574.574 0 0 1-.572-.571c0-.315.258-.573.572-.573h8.28c.315 0 .573.258.573.573a.555.555 0 0 1-.124.337c.185-.017.372-.028.561-.028.512 0 1.005.072 1.478.195V4.895h-2.578a2.318 2.318 0 0 1-2.315-2.316v-2.58H1.55A1.55 1.55 0 0 0 0 1.55v15.72a1.55 1.55 0 0 0 1.55 1.549h5.955a5.831 5.831 0 0 1-1.537-3.746h-3.44z" mask="url(#payment_receipt-d)"/></g></g></svg>
