<svg xmlns="http://www.w3.org/2000/svg" width="18" height="15" viewBox="0 0 18 15"><path fill-rule="evenodd" d="M17.509 12.21H14.48V9.615h3.029A.484.484 0 0 0 18 9.14a.485.485 0 0 0-.491-.477H14.48V7.72c0-.495-.414-.896-.925-.896h-3.298c-2.074 0-3.796 1.45-4.151 3.361H3.38c-1.053 0-1.878-.798-1.878-1.819 0-1.043.732-1.782 1.902-1.819l.751-.021c1.884-.06 3.359-1.496 3.359-3.274C7.515 1.45 5.983 0 4.133 0a.744.744 0 0 0-.763.718.738.738 0 0 0 .741.737h.022c1.064 0 1.879.775 1.879 1.797 0 1.044-.734 1.781-1.903 1.819l-.752.022C1.475 5.15 0 6.588 0 8.366c0 1.802 1.52 3.274 3.381 3.274h2.725C6.46 13.55 8.183 15 10.257 15h3.298c.511 0 .925-.4.925-.895v-.943h3.029a.484.484 0 0 0 .491-.476.483.483 0 0 0-.491-.476"/></svg>
