<svg width="18" height="18" viewBox="0 0 18 18" xmlns="http://www.w3.org/2000/svg"><path d="m14.498 6.638-3.125 1.66-1.94-4.081c-.981-2.062-3.223-2.348-4.557-.86l.377-.793c1.628-3.419 5.686-3.419 7.315 0l1.939 4.074h-.008Z"/><path d="M14.188 9.902 8.46 7.546l6.98-3.714-1.252 6.07ZM2.741 6.074 6.038 7.35l-1.816 4.139c-.916 2.086.335 3.975 2.332 4.008l-.843.237c-3.65 1.006-6.308-2.061-4.786-5.53l1.816-4.13Z"/><path d="m5.408 4.176 1.972 5.873L0 7.194l5.408-3.018ZM9.131 15.898l-.074-3.542 4.517.098c2.283.05 3.543-1.824 2.815-3.69l.54.696c2.323 2.986.499 6.618-3.29 6.528l-4.516-.098.008.008Z"/><path d="m6.357 14.155 4.68-4.057L11.21 18l-4.852-3.845Z"/></svg>
