<svg width="24" height="16" viewBox="0 0 24 16" xmlns="http://www.w3.org/2000/svg"><path d="M1.84368 3.28156C1.17995 3.28156 1.01402 4.11122 1.01402 4.52605C0.944884 4.59519 1.09699 4.60902 2.25851 4.11122C3.42003 3.61343 4.67835 4.04208 5.16232 4.31864L4.74749 4.73347C5.36973 4.94088 6.65571 5.43868 6.82164 5.77054C6.98757 6.1024 8.41182 6.46192 9.1032 6.6002C9.17234 7.01503 9.3521 7.88617 9.51803 8.0521C9.72544 8.25952 10.9699 8.46693 10.9699 8.67435C10.9699 8.84028 10.2786 9.43487 9.93286 9.71142C10.5551 9.71142 11.924 9.79439 12.4218 10.1263C13.0441 10.5411 14.7034 10.1263 14.9108 9.91884C15.0767 9.7529 13.5972 9.02004 12.8367 8.67435C12.9058 8.60521 13.0856 8.46693 13.2515 8.46693C13.4589 8.46693 12.6293 7.84469 12.007 7.63727C11.3848 7.42986 9.51803 5.35571 9.31062 5.35571C9.14468 5.35571 8.27354 4.8026 7.85871 4.52605C7.30561 4.31863 6.03346 3.77935 5.36973 3.28156C4.54007 2.65931 2.67334 3.28156 1.84368 3.28156Z"/><path d="M10.9699 1.41483C10.9699 1.58076 10.5551 1.76052 10.3477 1.82966L10.9699 2.65932C10.9699 2.93587 11.0529 3.48898 11.3848 3.48898C11.7996 3.48898 11.1774 2.65932 11.3848 2.24449C11.5922 1.82966 10.9699 1.20741 10.9699 1.41483Z"/><path d="M10.1403 11.7856C9.80842 11.4537 9.03407 11.6473 8.68838 11.7856C8.96493 12.2004 9.601 12.9886 9.93286 12.8226C10.2647 12.6567 11.0391 12.8918 11.3848 13.0301C11.3848 12.8918 11.3018 12.6152 10.9699 12.6152C10.5551 12.6152 10.5551 12.2004 10.1403 11.7856Z"/><path d="M17.8146 11.3707C17.3168 10.8729 16.6393 11.0251 16.3627 11.1633L16.985 11.7856L16.7776 12.4078C17.0541 12.5461 17.5657 12.8641 17.3998 13.0301C17.1924 13.2375 15.5331 12.8226 15.3257 12.8226C15.1182 12.8226 14.9108 12.6152 14.7034 12.4078C14.496 12.2004 14.2886 12.6152 14.2886 12.8226C14.2886 13.0301 15.1182 13.4449 15.3257 13.2375C15.5331 13.0301 17.3998 13.6523 17.8146 13.8597C18.1465 14.0257 18.3677 14.482 18.4369 14.6894L19.2665 13.8597C19.4739 13.6523 20.3036 13.8597 20.7184 14.0671C21.1333 14.2746 21.9629 14.482 22.1703 14.6894C22.3778 14.8968 23 14.482 23 14.2746C23 14.0671 22.5852 13.6523 21.7555 13.4449C20.9259 13.2375 21.1333 12.4078 20.7184 11.993C20.3866 11.6611 19.3357 11.4399 18.8517 11.3707C18.7134 11.5782 18.3124 11.8685 17.8146 11.3707Z"/><path d="M16.5701 8.88176H16.1553L16.7776 9.29659L17.3998 8.46693L16.985 8.88176H16.5701Z"/><path d="M1.01402 4.52605L1.36758 4.8796C1.46134 4.78583 1.51402 4.65866 1.51402 4.52605H1.01402ZM5.36973 3.28156L5.66973 2.88156L5.36973 3.28156ZM7.85871 4.52605L8.13606 4.11002C8.10424 4.08881 8.07009 4.07131 8.03427 4.05788L7.85871 4.52605ZM12.8367 8.67435L12.4831 8.32079C12.3672 8.43675 12.3154 8.6022 12.3447 8.76356C12.374 8.92492 12.4805 9.06167 12.6298 9.12953L12.8367 8.67435ZM12.4218 10.1263L12.6992 9.71023L12.4218 10.1263ZM9.93286 9.71142L9.62051 9.32099C9.4547 9.45364 9.39076 9.67655 9.46105 9.87693C9.53133 10.0773 9.72052 10.2114 9.93286 10.2114V9.71142ZM9.1032 6.6002L9.5964 6.518C9.56225 6.31309 9.40496 6.15065 9.20126 6.10991L9.1032 6.6002ZM4.74749 4.73347L4.39394 4.37991C4.2714 4.50245 4.22105 4.67969 4.26086 4.84834C4.30068 5.01699 4.42498 5.15301 4.58938 5.20781L4.74749 4.73347ZM5.16232 4.31864L5.51587 4.67219C5.62606 4.562 5.67858 4.40673 5.65789 4.25227C5.63721 4.09781 5.54569 3.96183 5.41039 3.88451L5.16232 4.31864ZM10.3477 1.82966L10.1896 1.35532C10.0371 1.40614 9.91836 1.52716 9.87044 1.68057C9.82252 1.83398 9.85126 2.00108 9.94769 2.12966L10.3477 1.82966ZM10.9699 2.65932H11.4699C11.4699 2.55113 11.4348 2.44587 11.3699 2.35932L10.9699 2.65932ZM8.68838 11.7856L8.50268 11.3213C8.36278 11.3773 8.25557 11.4934 8.21088 11.6373C8.16618 11.7812 8.18877 11.9375 8.27235 12.0629L8.68838 11.7856ZM11.3848 13.0301L11.1991 13.4943C11.3531 13.5559 11.5277 13.5371 11.6651 13.4441C11.8025 13.3511 11.8848 13.196 11.8848 13.0301H11.3848ZM16.3627 11.1633L16.1391 10.7161C15.9954 10.788 15.8949 10.9246 15.8692 11.0832C15.8434 11.2419 15.8955 11.4032 16.0092 11.5169L16.3627 11.1633ZM18.8517 11.3707L18.9224 10.8758C18.7318 10.8485 18.5425 10.9332 18.4357 11.0934L18.8517 11.3707ZM19.2665 13.8597L19.6201 14.2133L19.2665 13.8597ZM18.4369 14.6894L17.9625 14.8475C18.0173 15.0119 18.1533 15.1362 18.322 15.176C18.4906 15.2158 18.6679 15.1655 18.7904 15.0429L18.4369 14.6894ZM16.7776 12.4078L16.3032 12.2497C16.2245 12.4858 16.3314 12.7438 16.5539 12.855L16.7776 12.4078ZM16.985 11.7856L17.4593 11.9437C17.5192 11.764 17.4724 11.5659 17.3385 11.432L16.985 11.7856ZM13.8749 3.83387C13.7218 3.60411 13.4113 3.54202 13.1816 3.6952C12.9518 3.84837 12.8897 4.15881 13.0429 4.38857L13.8749 3.83387ZM13.4577 5.01082C13.6109 5.24058 13.9213 5.30267 14.1511 5.14949C14.3809 4.99631 14.4429 4.68588 14.2898 4.45612L13.4577 5.01082ZM13.605 0.646443C13.4098 0.451183 13.0932 0.451186 12.8979 0.64645C12.7027 0.841715 12.7027 1.1583 12.8979 1.35356L13.605 0.646443ZM13.2191 2.02088C13.0956 2.26787 13.1957 2.56821 13.4427 2.6917C13.6897 2.8152 13.9901 2.71508 14.1135 2.46809L13.2191 2.02088ZM15.8986 5.50361C15.6366 5.41629 15.3535 5.55787 15.2661 5.81984C15.1788 6.08181 15.3204 6.36497 15.5824 6.4523L15.8986 5.50361ZM16.3627 6.39279L16.8371 6.5509C16.8541 6.49992 16.8627 6.44653 16.8627 6.39279H16.3627ZM15.7405 6.51503C15.4643 6.51503 15.2405 6.73889 15.2405 7.01503C15.2405 7.29117 15.4643 7.51503 15.7405 7.51503V6.51503ZM16.1553 8.88176V8.38176C15.935 8.38176 15.7406 8.52599 15.6768 8.73687C15.6129 8.94775 15.6946 9.17557 15.878 9.29779L16.1553 8.88176ZM16.985 8.88176V9.38176C17.1176 9.38176 17.2448 9.32909 17.3385 9.23532L16.985 8.88176ZM17.3998 8.46693L17.7998 8.76693C17.9572 8.55702 17.9256 8.26113 17.7274 8.08921C17.5292 7.91729 17.2318 7.92784 17.0462 8.11338L17.3998 8.46693ZM16.7776 9.29659L16.5002 9.71262C16.721 9.85982 17.0183 9.80889 17.1776 9.59659L16.7776 9.29659ZM17.9608 6.66148C17.7655 6.46622 17.4489 6.46622 17.2537 6.66148C17.0584 6.85674 17.0584 7.17332 17.2537 7.36858L17.9608 6.66148ZM17.4611 7.576C17.6563 7.77126 17.9729 7.77126 18.1682 7.576C18.3634 7.38074 18.3634 7.06415 18.1682 6.86889L17.4611 7.576ZM19.2053 7.49114C19.01 7.29587 18.6934 7.29587 18.4981 7.49114C18.3029 7.6864 18.3029 8.00298 18.4981 8.19824L19.2053 7.49114ZM19.1204 8.82049C19.3157 9.01575 19.6322 9.01575 19.8275 8.82049C20.0228 8.62523 20.0228 8.30864 19.8275 8.11338L19.1204 8.82049ZM1.51402 4.52605C1.51402 4.36734 1.54837 4.13616 1.63072 3.96461C1.70748 3.80468 1.77446 3.78156 1.84368 3.78156V2.78156C1.24917 2.78156 0.901325 3.17327 0.729192 3.53188C0.562641 3.87886 0.514022 4.26992 0.514022 4.52605H1.51402ZM1.84368 3.78156C2.09746 3.78156 2.40908 3.73531 2.70676 3.68781C3.0203 3.63778 3.34105 3.58219 3.66402 3.54492C3.98667 3.50769 4.2839 3.49246 4.53779 3.51677C4.79492 3.54139 4.9646 3.60271 5.06973 3.68156L5.66973 2.88156C5.36004 2.64929 4.98525 2.55504 4.6331 2.52133C4.27771 2.4873 3.90084 2.51096 3.5494 2.55151C3.19827 2.59203 2.84492 2.65311 2.54918 2.7003C2.23758 2.75003 2.00473 2.78156 1.84368 2.78156V3.78156ZM5.06973 3.68156C5.79649 4.22663 7.12974 4.78668 7.68315 4.99421L8.03427 4.05788C7.48147 3.85058 6.27043 3.33208 5.66973 2.88156L5.06973 3.68156ZM7.58136 4.94207C7.79329 5.08336 8.12232 5.2957 8.42226 5.47423C8.57139 5.563 8.72032 5.6476 8.8471 5.71148C8.9099 5.74313 8.97535 5.77381 9.03728 5.79775C9.07953 5.81409 9.18814 5.85571 9.31062 5.85571V4.85571C9.39161 4.85571 9.43669 4.88004 9.39793 4.86505C9.37883 4.85767 9.34576 4.84298 9.29708 4.81845C9.20089 4.76998 9.075 4.69902 8.93374 4.61494C8.65292 4.44779 8.33896 4.24529 8.13606 4.11002L7.58136 4.94207ZM9.31062 5.85571C9.22351 5.85571 9.16207 5.8312 9.14594 5.82461C9.12316 5.81532 9.11003 5.80722 9.10961 5.80696C9.1087 5.80642 9.12086 5.81406 9.15004 5.83717C9.2066 5.88198 9.28754 5.95317 9.39256 6.05022C9.60273 6.24447 9.86617 6.50181 10.158 6.78039C10.4439 7.05332 10.7518 7.34138 11.0304 7.57585C11.1697 7.69307 11.308 7.80219 11.4371 7.89127C11.5588 7.97522 11.7028 8.0629 11.8489 8.11162L12.1651 7.16293C12.166 7.16322 12.1624 7.16205 12.1538 7.15812C12.1454 7.15425 12.1339 7.1485 12.1191 7.14028C12.089 7.12361 12.0511 7.09995 12.0049 7.0681C11.9121 7.00406 11.8007 6.9171 11.6743 6.8107C11.4214 6.59794 11.133 6.32857 10.8485 6.05703C10.5699 5.79115 10.2889 5.51698 10.0713 5.31585C9.96241 5.21521 9.85862 5.12274 9.77097 5.05331C9.72804 5.0193 9.67822 4.98218 9.62688 4.95114C9.60123 4.93564 9.56578 4.91588 9.52372 4.89872C9.48833 4.88428 9.41069 4.85571 9.31062 4.85571V5.85571ZM11.8489 8.11162C12.0976 8.19452 12.4164 8.37341 12.6536 8.5395C12.7745 8.62412 12.8456 8.68557 12.8691 8.71034C12.8735 8.71505 12.8676 8.70944 12.8573 8.69476C12.8524 8.68775 12.8155 8.63642 12.7961 8.55305C12.7733 8.45514 12.7672 8.24602 12.9457 8.0868C13.0809 7.96617 13.2283 7.96693 13.2515 7.96693V8.96693C13.3006 8.96693 13.4659 8.96283 13.6114 8.83299C13.8002 8.66455 13.7969 8.44186 13.7701 8.32653C13.7467 8.22574 13.6988 8.15314 13.6767 8.12152C13.6492 8.08223 13.6197 8.04867 13.595 8.02259C13.5018 7.92421 13.3655 7.81713 13.2271 7.72027C12.9458 7.52338 12.5386 7.28744 12.1651 7.16293L11.8489 8.11162ZM13.2515 7.96693C13.041 7.96693 12.8639 8.05001 12.7565 8.11246C12.6419 8.17905 12.5458 8.25812 12.4831 8.32079L13.1902 9.0279C13.1902 9.02795 13.1908 9.02736 13.192 9.02618C13.1933 9.02501 13.195 9.02343 13.1972 9.0215C13.2017 9.01759 13.2074 9.01277 13.2143 9.00745C13.2284 8.99647 13.244 8.98574 13.2591 8.97697C13.2747 8.9679 13.2845 8.96399 13.2875 8.96296C13.2911 8.96172 13.2781 8.96693 13.2515 8.96693V7.96693ZM12.6298 9.12953C13.0037 9.29951 13.5503 9.5629 13.9781 9.80092C14.1959 9.92212 14.3627 10.0257 14.4597 10.1C14.5147 10.1421 14.5123 10.1487 14.4933 10.122C14.4846 10.1098 14.4407 10.0477 14.4275 9.94623C14.4104 9.8159 14.4515 9.67108 14.5573 9.56528L15.2644 10.2724C15.3909 10.1459 15.4399 9.97586 15.419 9.8164C15.4019 9.68577 15.3425 9.5906 15.3078 9.54185C15.2366 9.44194 15.14 9.36137 15.0677 9.30601C14.9102 9.18543 14.6907 9.05306 14.4643 8.92708C14.0036 8.67077 13.4301 8.39488 13.0436 8.21916L12.6298 9.12953ZM14.5573 9.56528C14.5984 9.52412 14.62 9.52305 14.5619 9.54961C14.5193 9.56907 14.4553 9.5937 14.371 9.62041C14.203 9.6736 13.9825 9.72621 13.7477 9.76142C13.5117 9.79682 13.277 9.81226 13.0769 9.7991C12.8657 9.7852 12.7481 9.74283 12.6992 9.71023L12.1445 10.5423C12.4067 10.7171 12.7299 10.7784 13.0113 10.7969C13.3037 10.8162 13.6135 10.7927 13.8961 10.7504C14.1798 10.7078 14.4519 10.6437 14.6729 10.5738C14.7829 10.5389 14.8875 10.5003 14.9778 10.459C15.0526 10.4248 15.1713 10.3654 15.2644 10.2724L14.5573 9.56528ZM12.6992 9.71023C12.5061 9.58153 12.2643 9.49718 12.037 9.43772C11.8015 9.37609 11.5418 9.33125 11.288 9.2985C10.7806 9.23303 10.261 9.21142 9.93286 9.21142V10.2114C10.227 10.2114 10.703 10.2313 11.16 10.2903C11.3885 10.3198 11.6032 10.3579 11.7839 10.4051C11.9727 10.4546 12.0886 10.505 12.1445 10.5423L12.6992 9.71023ZM10.2452 10.1019C10.4247 9.95824 10.6952 9.73126 10.9243 9.51499C11.0376 9.408 11.1507 9.29438 11.239 9.18954C11.2825 9.13787 11.3296 9.07707 11.3685 9.01219C11.3958 8.96664 11.4699 8.83927 11.4699 8.67435H10.4699C10.4699 8.60272 10.4874 8.55178 10.4947 8.53257C10.5032 8.51044 10.5106 8.49831 10.5106 8.49822C10.5113 8.49713 10.5091 8.50093 10.5022 8.51013C10.4956 8.51902 10.4864 8.53076 10.474 8.54547C10.4219 8.60742 10.3405 8.69085 10.2378 8.78781C10.0348 8.97946 9.78669 9.18805 9.62051 9.32099L10.2452 10.1019ZM11.4699 8.67435C11.4699 8.39542 11.2723 8.23889 11.2168 8.19713C11.135 8.13557 11.0429 8.09108 10.9707 8.05986C10.8216 7.99538 10.6335 7.93601 10.4688 7.88534C10.2915 7.83079 10.1324 7.78368 9.9999 7.73656C9.93465 7.71336 9.88776 7.69424 9.85677 7.67933C9.81609 7.65976 9.83624 7.66321 9.87158 7.69855L9.16448 8.40566C9.25167 8.49285 9.35608 8.54816 9.42316 8.58043C9.49993 8.61738 9.5843 8.65012 9.66489 8.67877C9.82403 8.73535 10.0149 8.79195 10.1747 8.84111C10.3471 8.89415 10.4831 8.93849 10.5738 8.97772C10.6215 8.99835 10.6282 9.00571 10.6153 8.996C10.6082 8.99066 10.5786 8.96788 10.5476 8.92411C10.515 8.87797 10.4699 8.79196 10.4699 8.67435H11.4699ZM9.87158 7.69855C9.90421 7.73118 9.91122 7.75205 9.89961 7.72958C9.89118 7.71327 9.87824 7.68432 9.86184 7.64001C9.82909 7.55152 9.79383 7.43273 9.7587 7.29551C9.68885 7.02258 9.62934 6.71567 9.5964 6.518L8.61 6.6824C8.6462 6.89956 8.71114 7.23563 8.78993 7.54347C8.82913 7.69662 8.87425 7.85266 8.92403 7.98714C8.94889 8.05432 8.97776 8.12389 9.01119 8.1886C9.04144 8.24715 9.09037 8.33155 9.16448 8.40566L9.87158 7.69855ZM9.20126 6.10991C8.86772 6.0432 8.35816 5.92308 7.91815 5.78188C7.69671 5.71082 7.50777 5.63911 7.37174 5.57214C7.3035 5.53855 7.26076 5.51205 7.23772 5.49488C7.20758 5.47241 7.23875 5.48673 7.26885 5.54693L6.37442 5.99415C6.44601 6.13731 6.55798 6.23546 6.64019 6.29672C6.7295 6.36327 6.83066 6.42038 6.93008 6.46933C7.12937 6.56743 7.37082 6.65647 7.6126 6.73405C8.09904 6.89015 8.6473 7.01892 9.00514 7.09049L9.20126 6.10991ZM7.26885 5.54693C7.20627 5.42176 7.11321 5.32736 7.03985 5.2631C6.96108 5.19409 6.87125 5.131 6.78118 5.07436C6.60091 4.96103 6.38276 4.85072 6.16343 4.75054C5.72276 4.54924 5.2282 4.36666 4.9056 4.25912L4.58938 5.20781C4.88902 5.30769 5.34857 5.47771 5.74793 5.66013C5.94862 5.7518 6.12197 5.84113 6.24893 5.92095C6.31247 5.9609 6.3552 5.99276 6.38094 6.01531C6.4121 6.04261 6.39553 6.03635 6.37442 5.99415L7.26885 5.54693ZM5.10104 5.08702L5.51587 4.67219L4.80877 3.96508L4.39394 4.37991L5.10104 5.08702ZM5.41039 3.88451C5.11541 3.71596 4.6214 3.51913 4.04003 3.43029C3.45571 3.34099 2.75105 3.35615 2.06155 3.65165L2.45547 4.57079C2.92749 4.3685 3.43276 4.34909 3.88896 4.41881C4.34813 4.48898 4.72526 4.64476 4.91425 4.75276L5.41039 3.88451ZM2.06155 3.65165C1.48276 3.8997 1.17897 4.00983 1.03678 4.05065C1.02046 4.05534 1.00795 4.05862 0.998761 4.06084C0.99422 4.06194 0.990761 4.06271 0.988292 4.06324C0.987071 4.0635 0.986147 4.06368 0.985506 4.06381C0.985188 4.06387 0.984948 4.06391 0.984786 4.06394C0.984623 4.06397 0.984543 4.06399 0.984544 4.06399C0.984545 4.06399 0.984633 4.06397 0.984807 4.06394C0.984981 4.06392 0.985248 4.06387 0.985605 4.06382C0.986309 4.06371 0.987433 4.06354 0.988948 4.06335C0.991839 4.06297 0.996967 4.06238 1.00396 4.0619C1.01485 4.06116 1.04542 4.05953 1.08668 4.06543C1.11995 4.07018 1.21495 4.08689 1.31092 4.16165C1.43271 4.25652 1.50474 4.40558 1.49976 4.56418C1.49583 4.68935 1.44544 4.77559 1.42586 4.80639C1.40191 4.84409 1.37844 4.86874 1.36758 4.8796L0.660467 4.1725C0.640966 4.192 0.610576 4.22486 0.581825 4.27011C0.557449 4.30847 0.50437 4.40161 0.500252 4.5328C0.495084 4.69743 0.56942 4.85164 0.696402 4.95055C0.797567 5.02935 0.900645 5.049 0.945251 5.05538C1.03799 5.06863 1.12018 5.05548 1.15774 5.04888C1.20724 5.04017 1.25961 5.02708 1.31276 5.01182C1.51971 4.95239 1.87273 4.82054 2.45547 4.57079L2.06155 3.65165ZM10.5058 2.304C10.6298 2.26267 10.8182 2.18811 10.9853 2.0923C11.0672 2.04535 11.1665 1.98067 11.2517 1.89712C11.3234 1.82692 11.4699 1.66159 11.4699 1.41483H10.4699C10.4699 1.32933 10.4968 1.26633 10.5157 1.23273C10.5339 1.20025 10.5507 1.18404 10.552 1.18273C10.553 1.18172 10.5356 1.19741 10.4879 1.22478C10.3957 1.27762 10.273 1.32751 10.1896 1.35532L10.5058 2.304ZM11.4699 1.41483C11.4699 1.455 11.4639 1.55666 11.3924 1.66348C11.3078 1.78996 11.1776 1.8555 11.0568 1.87023C10.956 1.88252 10.8812 1.85834 10.8529 1.84792C10.8196 1.83561 10.7988 1.82259 10.7923 1.81841C10.7764 1.80813 10.8049 1.82616 10.8483 1.88694C10.8876 1.94204 10.9133 1.99653 10.9232 2.0352C10.933 2.07312 10.9191 2.05774 10.9376 2.02088L11.832 2.46809C11.9541 2.22382 11.9403 1.9751 11.8917 1.78616C11.8433 1.59797 11.7523 1.43208 11.662 1.3057C11.5758 1.18498 11.4616 1.06042 11.3355 0.978838C11.3015 0.956832 11.2552 0.930445 11.199 0.909723C11.148 0.890905 11.0531 0.863276 10.9357 0.877589C10.7983 0.89435 10.655 0.967382 10.5613 1.10733C10.4808 1.22763 10.4699 1.34873 10.4699 1.41483H11.4699ZM10.9376 2.02088C10.814 2.26805 10.8343 2.52732 10.8624 2.69615C10.8916 2.87138 10.9493 3.05135 10.9836 3.16597C11.0302 3.32121 11.0303 3.35006 11.031 3.33364C11.0318 3.31239 11.0396 3.2029 11.1388 3.10205C11.2426 2.99635 11.3583 2.98898 11.3848 2.98898V3.98898C11.515 3.98898 11.7019 3.95568 11.852 3.80299C11.9973 3.65514 12.0262 3.4776 12.0302 3.37208C12.0374 3.18714 11.9727 2.98264 11.9415 2.87862C11.8981 2.73397 11.865 2.62874 11.8488 2.53174C11.8316 2.42833 11.8519 2.42834 11.832 2.46809L10.9376 2.02088ZM11.3848 2.98898C11.4152 2.98898 11.4489 2.99584 11.4807 3.01048C11.5111 3.02447 11.5301 3.04105 11.539 3.05025C11.5524 3.06406 11.5414 3.05864 11.5233 3.00849C11.5069 2.96273 11.4927 2.9026 11.4831 2.83491C11.4735 2.7682 11.4699 2.70543 11.4699 2.65932H10.4699C10.4699 2.83259 10.4942 3.10213 10.5825 3.34722C10.6575 3.55555 10.8759 3.98898 11.3848 3.98898V2.98898ZM11.3699 2.35932L10.7477 1.52966L9.94769 2.12966L10.5699 2.95932L11.3699 2.35932ZM8.87407 12.2498C9.01289 12.1943 9.24439 12.1264 9.46283 12.1074C9.7125 12.0857 9.78723 12.1396 9.78673 12.1391L10.4938 11.432C10.1615 11.0996 9.68309 11.0845 9.3762 11.1111C9.03807 11.1406 8.70955 11.2386 8.50268 11.3213L8.87407 12.2498ZM9.78673 12.1391C9.94746 12.2999 9.99876 12.4228 10.1391 12.6333C10.2007 12.7258 10.2943 12.8537 10.4369 12.9535C10.5935 13.0632 10.7736 13.1152 10.9699 13.1152V12.1152C10.9589 12.1152 10.9833 12.1154 11.0104 12.1343C11.0234 12.1434 11.0132 12.1417 10.9711 12.0786C10.904 11.978 10.7479 11.6861 10.4938 11.432L9.78673 12.1391ZM10.9699 13.1152C10.9815 13.1152 10.969 13.1171 10.9455 13.105C10.9224 13.093 10.9057 13.0764 10.896 13.0629C10.8916 13.0568 10.8891 13.052 10.8878 13.0492C10.8865 13.0464 10.886 13.0448 10.8859 13.0443C10.8857 13.0438 10.8856 13.0432 10.8854 13.042C10.8853 13.041 10.8848 13.0372 10.8848 13.0301H11.8848C11.8848 12.8809 11.8441 12.6683 11.7076 12.4786C11.5526 12.2635 11.2988 12.1152 10.9699 12.1152V13.1152ZM11.5705 12.5658C11.3757 12.4879 11.0658 12.3844 10.7511 12.3219C10.5936 12.2906 10.4215 12.2668 10.2546 12.2656C10.0963 12.2645 9.89427 12.2829 9.70925 12.3754L10.1565 13.2699C10.1374 13.2794 10.1566 13.265 10.2476 13.2656C10.33 13.2662 10.4353 13.2787 10.5562 13.3027C10.798 13.3507 11.0481 13.4339 11.1991 13.4943L11.5705 12.5658ZM9.70925 12.3754C9.84135 12.3094 9.92706 12.3758 9.86644 12.3445C9.81925 12.3202 9.74096 12.2629 9.63811 12.1631C9.43695 11.9679 9.23091 11.698 9.1044 11.5082L8.27235 12.0629C8.42239 12.288 8.67266 12.6196 8.94164 12.8807C9.07386 13.009 9.2341 13.1436 9.40815 13.2333C9.56877 13.3162 9.85843 13.4189 10.1565 13.2699L9.70925 12.3754ZM16.5863 11.6105C16.659 11.5742 16.8167 11.5238 16.9927 11.5283C17.157 11.5326 17.3197 11.5829 17.4611 11.7243L18.1682 11.0172C17.8117 10.6607 17.3868 10.5382 17.0187 10.5287C16.6623 10.5194 16.343 10.6142 16.1391 10.7161L16.5863 11.6105ZM17.4611 11.7243C17.7989 12.0621 18.1859 12.2023 18.5669 12.1253C18.9111 12.0558 19.1475 11.8284 19.2677 11.6481L18.4357 11.0934C18.4311 11.1003 18.4187 11.1152 18.4013 11.1282C18.385 11.1405 18.3736 11.1442 18.369 11.1451C18.3682 11.1453 18.3599 11.1479 18.3367 11.1395C18.3101 11.1299 18.2523 11.1013 18.1682 11.0172L17.4611 11.7243ZM18.781 11.8657C19.0048 11.8977 19.3652 11.9659 19.7032 12.0637C19.8722 12.1125 20.026 12.166 20.1502 12.2217C20.2828 12.2811 20.3457 12.3273 20.3649 12.3465L21.072 11.6394C20.9252 11.4927 20.7323 11.3868 20.5594 11.3092C20.3782 11.228 20.1767 11.1596 19.981 11.103C19.5896 10.9899 19.1826 10.9129 18.9224 10.8758L18.781 11.8657ZM20.3649 12.3465C20.3948 12.3765 20.4288 12.4288 20.4702 12.5401C20.4908 12.5954 20.5098 12.6552 20.5329 12.7293C20.5548 12.7992 20.581 12.8835 20.6115 12.9676C20.6728 13.1361 20.7649 13.3427 20.9328 13.5262C21.1078 13.7176 21.339 13.8561 21.6342 13.93L21.8768 12.9598C21.7572 12.9299 21.7032 12.8869 21.6708 12.8515C21.6312 12.8082 21.5937 12.7426 21.5513 12.6258C21.53 12.5673 21.5108 12.5058 21.4873 12.4307C21.4651 12.3597 21.4387 12.2753 21.4074 12.1913C21.3451 12.0238 21.2494 11.8169 21.072 11.6394L20.3649 12.3465ZM21.6342 13.93C21.9943 14.02 22.2424 14.1498 22.3889 14.2597C22.4629 14.3153 22.502 14.3588 22.5179 14.3807C22.542 14.4138 22.5 14.3748 22.5 14.2746H23.5C23.5 14.0706 23.4062 13.9019 23.3266 13.7925C23.2388 13.6717 23.1222 13.5597 22.9889 13.4597C22.7206 13.2585 22.3464 13.0772 21.8768 12.9598L21.6342 13.93ZM22.5 14.2746C22.5 14.2256 22.509 14.1874 22.5168 14.1631C22.5246 14.1387 22.5332 14.1222 22.5377 14.1142C22.5424 14.1059 22.5454 14.1021 22.5449 14.1028C22.5445 14.1033 22.5421 14.1064 22.537 14.1117C22.5267 14.1226 22.5102 14.1378 22.4877 14.155C22.4655 14.1721 22.4406 14.1887 22.4149 14.2034C22.389 14.2182 22.3651 14.2294 22.3453 14.237C22.3356 14.2407 22.3278 14.2432 22.3221 14.2447C22.3163 14.2463 22.3137 14.2467 22.3142 14.2466C22.3146 14.2466 22.3197 14.2458 22.3289 14.2459C22.3381 14.246 22.3533 14.247 22.3729 14.2513C22.3927 14.2556 22.4176 14.2636 22.4447 14.2777C22.4723 14.292 22.4994 14.3114 22.5239 14.3358L21.8168 15.0429C22.0292 15.2553 22.3002 15.2596 22.4608 15.2358C22.6296 15.2108 22.7869 15.1425 22.911 15.0716C23.0378 14.9992 23.1622 14.9055 23.262 14.8004C23.3119 14.7479 23.3649 14.6829 23.408 14.6067C23.4483 14.5355 23.5 14.4194 23.5 14.2746H22.5ZM22.5239 14.3358C22.4035 14.2154 22.24 14.1329 22.1222 14.0791C21.9894 14.0184 21.8373 13.9608 21.693 13.9084C21.3808 13.7948 21.1155 13.7066 20.942 13.6199L20.4948 14.5143C20.7362 14.6351 21.0931 14.7543 21.3513 14.8482C21.4922 14.8994 21.6124 14.9456 21.7064 14.9886C21.8155 15.0384 21.8335 15.0596 21.8168 15.0429L22.5239 14.3358ZM20.942 13.6199C20.6881 13.493 20.3312 13.3754 20.0041 13.3159C19.8403 13.2861 19.6616 13.2667 19.494 13.2763C19.3508 13.2845 19.1003 13.3189 18.913 13.5062L19.6201 14.2133C19.5365 14.2969 19.4674 14.2794 19.5511 14.2746C19.6104 14.2713 19.7039 14.2777 19.8253 14.2998C20.0686 14.344 20.3339 14.4339 20.4948 14.5143L20.942 13.6199ZM18.913 13.5062L18.0833 14.3358L18.7904 15.0429L19.6201 14.2133L18.913 13.5062ZM18.9112 14.5313C18.8641 14.3899 18.7733 14.1844 18.6424 13.9848C18.5159 13.792 18.3183 13.5525 18.0382 13.4125L17.591 14.3069C17.6429 14.3329 17.7217 14.4045 17.8062 14.5332C17.8861 14.6551 17.9405 14.7815 17.9625 14.8475L18.9112 14.5313ZM18.0382 13.4125C17.7886 13.2877 17.1825 13.0702 16.6297 12.9123C16.3495 12.8322 16.0607 12.7609 15.8197 12.7238C15.7013 12.7056 15.5748 12.6925 15.4582 12.6964C15.3998 12.6984 15.3278 12.7051 15.2531 12.7252C15.1827 12.7442 15.0705 12.7855 14.9721 12.8839L15.6792 13.591C15.6068 13.6635 15.5334 13.6854 15.5134 13.6908C15.489 13.6973 15.4787 13.6963 15.4921 13.6959C15.5189 13.695 15.5755 13.698 15.6677 13.7122C15.8481 13.74 16.0908 13.7983 16.355 13.8738C16.8912 14.027 17.4258 14.2243 17.591 14.3069L18.0382 13.4125ZM14.9721 12.8839C15.0368 12.8192 15.1036 12.8012 15.128 12.7965C15.1516 12.792 15.157 12.7955 15.1363 12.793C15.0941 12.7879 15.0205 12.7679 14.9324 12.7287C14.8457 12.6902 14.7744 12.6462 14.7338 12.6137C14.7127 12.5969 14.7138 12.5941 14.7246 12.6085C14.7306 12.6165 14.7445 12.6363 14.7579 12.6678C14.7713 12.6992 14.7886 12.7526 14.7886 12.8226H13.7886C13.7886 13.0067 13.8749 13.1422 13.9246 13.2085C13.9816 13.2845 14.0491 13.3466 14.1091 13.3946C14.2305 13.4917 14.3796 13.5773 14.5263 13.6425C14.6715 13.7071 14.8442 13.7649 15.0159 13.7857C15.154 13.8024 15.4546 13.8157 15.6792 13.591L14.9721 12.8839ZM14.7886 12.8226C14.7886 12.8436 14.7857 12.8363 14.7962 12.8063C14.8003 12.7945 14.8052 12.7833 14.81 12.7738C14.815 12.7641 14.8182 12.7596 14.8182 12.7597C14.818 12.7599 14.8163 12.7622 14.8127 12.766C14.8091 12.7698 14.8028 12.7761 14.7934 12.7837C14.7756 12.7979 14.738 12.8236 14.6799 12.8391C14.617 12.8559 14.5448 12.8564 14.4747 12.8341C14.4084 12.8131 14.3677 12.7792 14.3498 12.7614L15.057 12.0543C14.9044 11.9017 14.6754 11.8053 14.4223 11.8728C14.2167 11.9277 14.0862 12.069 14.0182 12.1597C13.882 12.3413 13.7886 12.6005 13.7886 12.8226H14.7886ZM14.3498 12.7614C14.447 12.8585 14.5768 12.9897 14.7145 13.093C14.847 13.1923 15.0588 13.3226 15.3257 13.3226V12.3226C15.3851 12.3226 15.3895 12.3492 15.3145 12.293C15.2448 12.2407 15.1672 12.1645 15.057 12.0543L14.3498 12.7614ZM15.3257 13.3226C15.3026 13.3226 15.3091 13.3208 15.3836 13.3333C15.443 13.3432 15.5206 13.3576 15.6149 13.3755C15.7997 13.4105 16.0402 13.4573 16.2805 13.4973C16.5182 13.537 16.7743 13.5733 16.9916 13.5845C17.0988 13.59 17.2154 13.5906 17.3239 13.5766C17.4036 13.5662 17.6013 13.5357 17.7534 13.3836L17.0462 12.6765C17.1465 12.5763 17.2469 12.5782 17.1954 12.5848C17.1726 12.5878 17.1239 12.59 17.0432 12.5858C16.8845 12.5776 16.6739 12.5491 16.4449 12.5109C16.2186 12.4732 15.9924 12.4292 15.8012 12.393C15.7076 12.3752 15.6199 12.3588 15.548 12.3469C15.4913 12.3374 15.4005 12.3226 15.3257 12.3226V13.3226ZM17.7534 13.3836C17.8547 13.2823 17.9228 13.1453 17.9313 12.9885C17.9391 12.8451 17.8949 12.7277 17.8545 12.6504C17.7783 12.505 17.6585 12.3939 17.5738 12.3237C17.3906 12.1718 17.1559 12.038 17.0012 11.9606L16.5539 12.855C16.6757 12.9159 16.8351 13.0103 16.9354 13.0934C16.9925 13.1407 16.9867 13.1489 16.9685 13.1142C16.957 13.0922 16.9277 13.0279 16.9328 12.9342C16.9386 12.8271 16.9864 12.7364 17.0462 12.6765L17.7534 13.3836ZM17.2519 12.5659L17.4593 11.9437L16.5106 11.6275L16.3032 12.2497L17.2519 12.5659ZM17.3385 11.432L16.7163 10.8098L16.0092 11.5169L16.6314 12.1391L17.3385 11.432ZM13.0429 4.38857L13.4577 5.01082L14.2898 4.45612L13.8749 3.83387L13.0429 4.38857ZM12.8979 1.35356C12.9592 1.4148 13.0793 1.57147 13.1576 1.74753C13.2449 1.94406 13.2191 2.02097 13.2191 2.02088L14.1135 2.46809C14.321 2.05317 14.1915 1.61155 14.0714 1.34139C13.9422 1.05078 13.7512 0.792611 13.605 0.646443L12.8979 1.35356ZM15.5824 6.4523C15.796 6.52351 15.8935 6.58631 15.9268 6.61281C15.9432 6.62588 15.9353 6.62317 15.9195 6.59948C15.9114 6.58735 15.8987 6.56591 15.8873 6.53502C15.8765 6.50559 15.8627 6.45661 15.8627 6.39279H16.8627C16.8627 6.23943 16.8005 6.11823 16.7515 6.04479C16.6968 5.96277 16.6267 5.89178 16.5497 5.83053C16.3963 5.70838 16.1828 5.59834 15.8986 5.50361L15.5824 6.4523ZM15.8884 6.23467C15.8684 6.29453 15.8216 6.39321 15.7622 6.4662C15.6961 6.54749 15.6857 6.51503 15.7405 6.51503V7.51503C16.1271 7.51503 16.3933 7.27516 16.538 7.09718C16.6895 6.9109 16.7879 6.69845 16.8371 6.5509L15.8884 6.23467ZM16.1553 9.38176H16.5701V8.38176H16.1553V9.38176ZM16.5701 9.38176H16.985V8.38176H16.5701V9.38176ZM17.3385 9.23532L17.7534 8.82049L17.0462 8.11338L16.6314 8.52821L17.3385 9.23532ZM16.9998 8.16693L16.3776 8.99659L17.1776 9.59659L17.7998 8.76693L16.9998 8.16693ZM17.0549 8.88057L16.4327 8.46574L15.878 9.29779L16.5002 9.71262L17.0549 8.88057ZM17.2537 7.36858L17.4611 7.576L18.1682 6.86889L17.9608 6.66148L17.2537 7.36858ZM18.4981 8.19824L19.1204 8.82049L19.8275 8.11338L19.2053 7.49114L18.4981 8.19824Z"/></svg>
