<svg width="24" height="22" viewBox="0 0 24 22" xmlns="http://www.w3.org/2000/svg"><path fill-rule="evenodd" clip-rule="evenodd" d="M5.43943 16.6728C5.74812 15.824 6.03099 13.4577 6.03099 13.2777C6.03099 13.2777 5.74837 12.5836 5.79994 11.8378C5.82809 11.4292 5.75596 11.4065 5.56658 11.347C5.41024 11.2978 5.174 11.2235 4.84828 10.8862C4.36875 10.3895 4.44801 10.235 4.56212 10.0125C4.61938 9.9009 4.68542 9.7722 4.69402 9.5745C4.71336 9.1285 4.23559 8.931 3.74577 8.72855C3.58595 8.6625 3.42486 8.59591 3.27933 8.51999C2.91233 8.32854 2.30779 7.92915 1.76042 7.56754C1.42547 7.34626 1.11193 7.13913 0.88733 7.00243C0.422446 6.71945 0.608852 6.30937 0.722499 6.05935C0.753467 5.99122 0.779033 5.93498 0.784545 5.89643C0.801407 5.77845 1.51372 5.67155 2.10428 5.58293C2.41515 5.53628 2.69227 5.49469 2.81646 5.45921C3.00956 5.404 3.321 5.57073 3.69129 5.76896C4.0115 5.94039 4.37572 6.13537 4.7455 6.23078C5.50487 6.42679 5.4477 5.87629 5.39607 5.37905C5.39348 5.35415 5.39091 5.32939 5.38846 5.30487C5.36913 5.1117 5.27365 4.93306 5.17283 4.74441C5.00514 4.43064 4.82267 4.08921 4.95115 3.6073C5.10594 3.02681 5.78489 3.64007 6.22121 4.03419C6.36482 4.16391 6.48215 4.26989 6.54585 4.30174C6.60033 4.32898 6.67212 4.36891 6.75486 4.41493C7.06277 4.58619 7.52236 4.84182 7.80611 4.84182C8.1662 4.84182 8.26915 4.30165 8.26915 3.86443C8.26915 3.60575 8.82738 3.50913 9.34187 3.42008C9.69694 3.35862 10.0312 3.30077 10.1467 3.19574C10.4297 2.93852 10.4297 2.16687 10.4297 1.52391C10.4297 1.02033 10.966 0.816463 11.3962 0.652903C11.5154 0.607613 11.6264 0.565403 11.7157 0.520783C12.0168 0.370213 12.6762 1.28029 13.0888 1.8498C13.24 2.05849 13.3581 2.22145 13.4132 2.26974C13.619 2.44982 15.2394 3.45295 15.8824 3.8387C16.5253 4.22452 17.3999 4.55895 17.7857 4.68756C17.9213 4.73274 18.1777 4.77793 18.4912 4.83319C19.0695 4.93511 19.8421 5.07128 20.4092 5.30478C20.859 5.48998 20.7101 5.57314 20.4243 5.7327C20.1544 5.88338 19.7625 6.10218 19.6376 6.53939C19.3804 7.43956 19.0458 8.854 19.0458 8.854C19.0458 8.854 17.8884 9.9085 17.4769 10.6544C17.1872 11.1795 17.7005 11.1055 18.0746 11.0515C18.232 11.0289 18.3647 11.0097 18.4028 11.0402C18.4486 11.0768 18.5238 11.3451 18.6225 11.6975C18.801 12.3345 19.0564 13.2462 19.3545 13.5608C19.6036 13.8238 19.3238 13.9006 18.9922 13.9916C18.7077 14.0696 18.385 14.1582 18.3256 14.3838C18.2722 14.5868 18.3519 14.6744 18.4541 14.7867C18.598 14.9448 18.7865 15.1519 18.7113 15.7984C18.6314 16.4853 19.1665 16.5472 19.5713 16.594C19.8183 16.6226 20.0168 16.6456 19.9973 16.8016C19.9647 17.0624 19.0645 17.7466 18.3047 18.3241C17.8654 18.658 17.473 18.9562 17.3223 19.1164C17.1175 19.334 16.5179 19.0484 15.8467 18.7287C15.1689 18.406 14.4182 18.0485 13.9272 18.139C12.9498 18.319 12.8469 19.9394 12.9498 20.1194C13.0526 20.2994 11.7924 20.7624 11.7924 20.7624C11.7924 20.7624 10.1462 20.2737 9.91473 19.7336C9.77796 19.4144 9.0665 19.5083 8.40112 19.5962C7.94038 19.657 7.50173 19.7149 7.29125 19.6307L7.2906 19.6304C6.77551 19.4244 5.23338 18.8074 4.71925 18.0875C4.4263 17.6773 4.60054 17.5508 4.86185 17.361C5.05934 17.2176 5.30655 17.0381 5.43943 16.6728ZM21.2224 19.3392C21.2456 19.2705 21.2643 19.2152 21.272 19.1791C21.2925 18.6649 21.5983 18.4043 21.9977 18.0642C22.1079 17.9703 22.2253 17.8703 22.3457 17.7573C22.4162 17.6911 22.4816 17.5991 22.5487 17.5045C22.7027 17.2876 22.8662 17.0572 23.1239 17.0957C23.4346 17.1421 23.4214 17.6644 23.4056 18.2873C23.4015 18.4503 23.3972 18.6203 23.3985 18.7905C23.3995 18.9153 23.2553 19.0839 23.1136 19.2494C22.9846 19.4003 22.8577 19.5486 22.8448 19.659C22.7997 20.0468 22.977 20.3231 23.0893 20.4982C23.1386 20.5749 23.1753 20.6322 23.1753 20.6708C23.1753 21.0309 21.8893 21.8025 21.5807 21.3654C21.4073 21.1199 21.1047 20.667 21.0643 20.1692C21.0406 19.8771 21.1522 19.5469 21.2224 19.3392Z"/></svg>
