<svg height="19" viewBox="0 0 18 19" width="18" xmlns="http://www.w3.org/2000/svg"><path d="m3.791 3.29a1.631 1.631 0 1 1 0-3.262 1.632 1.632 0 0 1 0 3.263zm10.1 0a1.63 1.63 0 1 1 .002-3.26 1.63 1.63 0 0 1 -.002 3.26zm.29 9.527h-.577v4.36c0 .452-.37.822-.823.822h-.066a.825.825 0 0 1 -.823-.822v-4.36h-1.122s.065-.97.155-2.205c-.422-.106-.672-.57-.556-1.03l1.03-4.082c.22-1.083.775-1.765 1.678-1.765h1.63c.903 0 1.459.682 1.678 1.765l1.03 4.082c.117.46-.134.924-.556 1.03.09 1.236.155 2.205.155 2.205h-1.122v4.36c0 .452-.37.822-.823.822h-.065a.825.825 0 0 1 -.824-.822v-4.36zm-7.633-7.227c.021.072.036.416.036.416v3.949h-.002a.794.794 0 0 1 -.789.773v6.45c0 .452-.37.823-.823.823h-.066a.826.826 0 0 1 -.823-.823v-5.09h-.004a.288.288 0 0 0 -.285-.269.286.286 0 0 0 -.285.27h-.004v5.089a.826.826 0 0 1 -.824.823h-.065a.826.826 0 0 1 -.824-.823v-6.45a.793.793 0 0 1 -.79-.773v-3.949s.015-.345.036-.417c.178-1.05 1.015-1.855 2.016-1.855h1.481c1.001 0 1.838.804 2.016 1.855zm1.915 12.41a.355.355 0 0 1 -.355-.354v-17.291a.355.355 0 0 1 .71 0v17.29c0 .196-.16.355-.355.355z"/></svg>