<svg xmlns="http://www.w3.org/2000/svg" width="18" height="18" viewBox="0 0 18 18"><path fill-rule="evenodd" d="M5.25 15.187a.533.533 0 0 1-.513-.673.512.512 0 0 1 .667-.348.522.522 0 0 1-.153 1.02zm-.799-4.944a.522.522 0 0 1-.205-1.003.533.533 0 0 1 .694.263.51.51 0 0 1-.248.68c-.004.004-.032.015-.036.017a.537.537 0 0 1-.205.043zm4.664-.386l-.03-.001a.521.521 0 0 1-.514-.57.525.525 0 0 1 .566-.474.532.532 0 0 1 .485.56.51.51 0 0 1-.507.485zm-2.376-.08a.522.522 0 0 1-.015-1.044.53.53 0 0 1 .55.506.51.51 0 0 1-.493.536l-.025.001-.017.001zm6.971-.28a.522.522 0 0 1-.293-.955.533.533 0 0 1 .734.131.511.511 0 0 1-.123.717l-.025.018a.516.516 0 0 1-.293.09zm.638-2.112a.52.52 0 0 1-.512-.43.532.532 0 0 1 .417-.618.509.509 0 0 1 .604.407l.006.025a.522.522 0 0 1-.515.616zM8.621 4.63a.52.52 0 0 1-.52-.475.52.52 0 0 1 .472-.568h.002c.28-.029.548.18.578.464a.511.511 0 0 1-.483.576.44.44 0 0 1-.05.003zm2.372-.001c-.02 0-.041-.002-.062-.004a.533.533 0 0 1-.47-.582.515.515 0 0 1 .568-.458l.014.001a.527.527 0 0 1 .461.582.517.517 0 0 1-.51.46zM2.81 11.807a.532.532 0 0 1-.532-.587.513.513 0 0 1 .568-.457l.026.003a.521.521 0 0 1-.062 1.04zm8.658-1.828c-.021 0-.044 0-.065-.004a.533.533 0 0 1-.467-.582.513.513 0 0 1 .595-.454.521.521 0 0 1-.063 1.04zm1.71-4.568a.533.533 0 0 1-.532-.586.513.513 0 0 1 .567-.458l.027.003a.523.523 0 0 1-.062 1.04zm-9.914 8.612c-.021 0-.043 0-.064-.003a.533.533 0 0 1-.468-.582.514.514 0 0 1 .568-.458l.027.004a.522.522 0 0 1-.063 1.04zm13.837.199c.397.027.885.266.903.592-.018.327-.506.565-.903.592-.523.037-1.28.043-2.121.03L13.442 18h-.737l.573-2.614c-.742-.03-1.475-.07-2.115-.113v.01l-.468.768H10.1v-2.474h.595l.468.77v.008a87.1 87.1 0 0 1 2.115-.112l-.573-2.615h.737l1.537 2.566a27.09 27.09 0 0 1 2.121.028zm-10.03-.614c.11-.11.29-.109.4.003l.99.999a.286.286 0 0 1-.002.402l-1 .988a.283.283 0 1 1-.4-.402l.8-.79-.79-.8a.283.283 0 0 1 .002-.4zM3.168 0a3.167 3.167 0 0 1 3.167 3.167c0 2.68-3.167 5.495-3.167 5.495S0 5.848 0 3.167A3.167 3.167 0 0 1 3.168 0zm0 4.68a1.513 1.513 0 1 0-.001-3.026 1.513 1.513 0 0 0 0 3.026z"/></svg>