<svg xmlns="http://www.w3.org/2000/svg" width="16" height="16" viewBox="0 0 16 16"><path fill-rule="evenodd" d="M3.817 8.585a3.35 3.35 0 0 1-.988-2.386c0-.9.35-1.748.988-2.385a3.362 3.362 0 0 1 2.385-.985c.864 0 1.727.328 2.385.985a3.377 3.377 0 0 1 0 4.77 3.356 3.356 0 0 1-2.385.988 3.352 3.352 0 0 1-2.385-.987m11.769 4.997l-4.118-4.117c1.483-2.391 1.193-5.578-.88-7.652a6.211 6.211 0 0 0-8.772 0A6.162 6.162 0 0 0 0 6.199c0 1.657.644 3.215 1.816 4.386a6.161 6.161 0 0 0 4.386 1.817 6.15 6.15 0 0 0 3.266-.936l4.116 4.117a1.414 1.414 0 0 0 2.002 0 1.416 1.416 0 0 0 0-2.001"/></svg>