<svg width="22" height="19" viewBox="0 0 22 19" xmlns="http://www.w3.org/2000/svg"><path fill-rule="evenodd" clip-rule="evenodd" d="M20.499 3.079c.578.022 1.134.153 1.32.73a1.091 1.091 0 0 1-.731 1.375L.066 9.712a7.636 7.636 0 0 1-.065-1.004 8.607 8.607 0 0 1 15.043-5.814l5.455.185ZM9.12 18.221a8.607 8.607 0 0 1-9.055-7.626l16.855-3.6c.2.851.303 1.722.305 2.597a8.607 8.607 0 0 1-8.105 8.63ZM6.546 11.72c0 .753.61 1.364 1.364 1.364a1.374 1.374 0 0 0 1.363-1.364 1.364 1.364 0 0 0-2.727 0Zm6.96 1.364a1.364 1.364 0 1 1 0-2.728 1.364 1.364 0 0 1 0 2.728Z"/></svg>
