<svg width="22" height="19" viewBox="0 0 22 19" xmlns="http://www.w3.org/2000/svg"><path fill-rule="evenodd" clip-rule="evenodd" d="m20.125 19 .175-6.995c-1.36-.495-2.05-2.852-2.05-5.836 0-3.165 1.535-5.836 2.565-6.169.34 0 .505 0 .68.162v11.833L22 19h-1.875Zm-4.769 0h-2.04V9.163c-1.66-.333-1.66-2.339-1.66-2.339l-.68-5.503h.854l.505 5.503h1.195l-.554-5.503.845-.161.34 5.702 1.195-.218-.34-5.703h1.02v5.703s.175 2.167-1.535 2.5L15.356 19Zm-8.59-9.168a3.952 3.952 0 0 1-1.55.395v7.395h3.36V19H.456v-1.378h3.642l-.281-7.395a2.965 2.965 0 0 1-1.443-.36A2.887 2.887 0 0 1 1.3 8.859C.456 7.756-.38 5.57.184 2.005l.272-.541h8.402v.541c.835 3.565 0 5.75-.836 6.853a3.873 3.873 0 0 1-1.256.974Z"/></svg>
