<svg width="22" height="21" viewBox="0 0 22 21" fill="none" xmlns="http://www.w3.org/2000/svg"><path fill-rule="evenodd" clip-rule="evenodd" d="M12.895 14.657S8.811 11.834 7.8 6.811l1.442-.976s-1.02-1.595.527-3.775c0 0 6.695-1.785 9.563-.335 0 0 4.026 2.014 2.189 6.183l-3.808 5.01-4.817 1.74Z" fill="#27283B"/><path fill-rule="evenodd" clip-rule="evenodd" d="M19.526 8.92s-1.603.95-2.858 1.672c-.706.406-4.745-6.375-4.076-6.795 1.295-.804 2.819-1.737 2.819-1.737h.585s2.663 3.83 3.852 6.351a.86.86 0 0 1-.322.51Z" fill="url(#besta)"/><path fill-rule="evenodd" clip-rule="evenodd" d="M5.927 20.418h14.042l-.182-9.784s-5.09 3.277-7.147 3.733c-1.973.44-5.081 1.751-6.573 4.68-.375 1.24-.14 1.371-.14 1.371Z" fill="url(#bestb)"/><path fill-rule="evenodd" clip-rule="evenodd" d="M3.604 17.995s4.308-1.234 4.582-2.24l-3.933-7.14S.319 10.723 0 11.45l3.604 6.544Z" fill="url(#bestc)"/><path fill-rule="evenodd" clip-rule="evenodd" d="M16.692 10.634s-3.915 2.317-4.298 2.463c-.353.205-.777.458-1.318 0-.54-.46-2.89-4.614-2.89-4.614s-.87-1.371 0-1.965c.87-.593 4.382-2.744 4.382-2.744h.594s2.66 3.83 3.849 6.351a.865.865 0 0 1-.319.509Z" fill="url(#bestd)"/><path fill-rule="evenodd" clip-rule="evenodd" d="M19.742 8.322S16.788 4.936 15.92 2.06a3.673 3.673 0 0 0 2.416 0l2.55 3.691s-1.198 1.78-1.143 2.57Z" fill="url(#beste)"/><path fill-rule="evenodd" clip-rule="evenodd" d="M20.623 6.703c-.25-.103-.612.195-.807.667-.195.472-.145.939.106 1.041.25.103.614-.195.807-.667.192-.472.147-.936-.106-1.041Z" fill="url(#bestf)"/><path d="M20.62 6.69c-.25-.103-.611.195-.806.667-.195.472-.145.938.105 1.041" stroke="#91263A" stroke-width=".57" stroke-linecap="round" stroke-linejoin="round"/><path fill-rule="evenodd" clip-rule="evenodd" d="M15.877 2.097c0 .263.435.474.944.45.509-.023.912-.263.9-.527-.014-.263-.436-.48-.934-.458-.498.02-.923.263-.91.535Z" fill="url(#bestg)"/><path d="M15.864 2.107c.013.264.435.472.947.449.511-.024.912-.264.899-.528" stroke="#91263A" stroke-width=".57" stroke-linecap="round" stroke-linejoin="round"/><path fill-rule="evenodd" clip-rule="evenodd" d="M5.945 20.418s-1.705-2.502 3.744-5.4l9.355-5.781s-8.005 5.539-8.928 6c-.922.462-1.157.633-2.317 1.717-2.107 1.66-1.854 3.464-1.854 3.464Z" fill="#696771"/><path d="m16.183 1-4.912.562" stroke="#FBFCF6" stroke-width="1.42" stroke-linecap="round" stroke-linejoin="round"/><path fill-rule="evenodd" clip-rule="evenodd" d="M13.536 20.418h6.312l-.185-9.784s-5.898 3.016-6.127 9.784Z" fill="#E4E1DE"/><path fill-rule="evenodd" clip-rule="evenodd" d="m19.487 9.02-10.42 6.787-.77.688s7.343-3.164 8.395-3.973c2.244-1.711 2.27-2.17 2.795-3.502Z" fill="url(#besth)"/><path d="m9.376 5.495 5.528-3.435" stroke="#32416F" stroke-width=".81" stroke-linecap="round" stroke-linejoin="round"/><path fill-rule="evenodd" clip-rule="evenodd" d="m10.008 2.888 4.896-.828s-3.654.082-4.896.828Z" fill="#2F375E"/><path d="M14.904 2.06s-3.654.082-4.896.828" stroke="#32416F" stroke-width=".81" stroke-linecap="round" stroke-linejoin="round"/><defs><linearGradient id="besta" x1="19.315" y1="8.309" x2="12.51" y2="3.911" gradientUnits="userSpaceOnUse"><stop stop-color="#212B52"/><stop offset=".05" stop-color="#212B52"/><stop offset=".16" stop-color="#223466"/><stop offset="1" stop-color="#223466"/></linearGradient><linearGradient id="bestb" x1="5.856" y1="15.527" x2="19.969" y2="15.527" gradientUnits="userSpaceOnUse"><stop stop-color="#FFFEFA"/><stop offset=".1" stop-color="#FFFEFA"/><stop offset=".25" stop-color="#FAFAF4"/><stop offset=".67" stop-color="#A9A6A6"/><stop offset="1" stop-color="#A9A6A6"/></linearGradient><linearGradient id="bestc" x1=".266" y1="11.438" x2="8.036" y2="15.403" gradientUnits="userSpaceOnUse"><stop stop-color="#222F5B"/><stop offset=".52" stop-color="#222F5B"/><stop offset=".78" stop-color="#24356B"/><stop offset="1" stop-color="#1B1E3B"/></linearGradient><linearGradient id="bestd" x1="8.271" y1="6.073" x2="16.362" y2="11.064" gradientUnits="userSpaceOnUse"><stop stop-color="#262D5E"/><stop offset=".09" stop-color="#262D5E"/><stop offset=".88" stop-color="#2D437E"/><stop offset=".94" stop-color="#1C2646"/><stop offset="1" stop-color="#1C2646"/></linearGradient><linearGradient id="beste" x1="15.756" y1="3.001" x2="20.887" y2="6.423" gradientUnits="userSpaceOnUse"><stop stop-color="#212B52"/><stop offset=".05" stop-color="#212B52"/><stop offset=".52" stop-color="#223466"/><stop offset=".66" stop-color="#1C2646"/><stop offset=".78" stop-color="#224287"/><stop offset=".86" stop-color="#224287"/><stop offset=".99" stop-color="#252B59"/><stop offset="1" stop-color="#252B59"/></linearGradient><linearGradient id="bestf" x1="20.325" y1="7.386" x2="19.851" y2="8.968" gradientUnits="userSpaceOnUse"><stop stop-color="#2D437E"/><stop offset=".1" stop-color="#2D437E"/><stop offset=".85" stop-color="#262D5E"/><stop offset="1" stop-color="#262D5E"/></linearGradient><linearGradient id="bestg" x1="80.697" y1="5.25" x2="80.082" y2="9.066" gradientUnits="userSpaceOnUse"><stop stop-color="#2D437E"/><stop offset=".1" stop-color="#2D437E"/><stop offset=".85" stop-color="#262D5E"/><stop offset="1" stop-color="#262D5E"/></linearGradient><linearGradient id="besth" x1="11.841" y1="11.591" x2="16.407" y2="14.188" gradientUnits="userSpaceOnUse"><stop stop-color="#222F5B"/><stop offset=".32" stop-color="#222F5B"/><stop offset=".74" stop-color="#24356B"/><stop offset=".86" stop-color="#2D437E"/><stop offset="1" stop-color="#2D437E"/></linearGradient></defs></svg>
