<svg width="12" height="20" viewBox="0 0 12 20" xmlns="http://www.w3.org/2000/svg"><path d="M5.556 3.026c.863 0 1.558-.68 1.558-1.51C7.114.683 6.42 0 5.556 0c-.864 0-1.56.679-1.56 1.515 0 .832.701 1.51 1.56 1.51ZM5.832 15.906c0 .421.353.763.788.763h.065a.776.776 0 0 0 .788-.763V9.924a.746.746 0 0 0 .754-.716V5.546s-.016-.321-.032-.384c-.169-.974-.972-1.72-1.928-1.72H4.85c-.956 0-1.76.746-1.928 1.72a3.068 3.068 0 0 0-.033.384v3.662a.75.75 0 0 0 .755.716v5.982c0 .421.353.763.787.763h.066a.776.776 0 0 0 .787-.763v-4.72h.005a.27.27 0 0 1 .272-.247c.147 0 .26.11.271.248h.006v4.72h-.006ZM10.335 16.285a.774.774 0 0 0-.783.758v.037h-3.72v1.173l1.108.6h2.607v.39c0 .415.353.757.782.757.43 0 .782-.342.782-.758v-2.2c.005-.415-.348-.757-.777-.757ZM1.564 17.043a.774.774 0 0 0-.782-.758.774.774 0 0 0-.782.758v2.2c0 .415.353.757.782.757a.774.774 0 0 0 .782-.758v-.39h2.607l1.108-.599V17.08h-3.72v-.037h.005Z"/></svg>
