<svg width="20" height="15" viewBox="0 0 20 15" xmlns="http://www.w3.org/2000/svg"><path d="M.89 0v8.668H2.52C2.521 2.211 1.568.142.889 0ZM3.153 9.137h-2.9A.257.257 0 0 0 0 9.395v.1c0 .142.116.252.253.252h.536v3.927c0 .342.28.62.622.62h.61a.627.627 0 0 0 .626-.62V9.747h.506a.253.253 0 0 0 .252-.252v-.1a.254.254 0 0 0-.252-.258ZM16.921 13.279c0 .51.421.932.932.932h.015c.51 0 .932-.421.932-.932v-9.9h-1.884v9.9h.005ZM19.826 1.126h-3.268c-.18 0 .032.421-.342.506l-1.527.363a.226.226 0 0 0-.168.216v.084a.23.23 0 0 0 .168.216l1.527.368a1.9 1.9 0 0 0 .342.042h3.268A.175.175 0 0 0 20 2.747V1.3a.175.175 0 0 0-.174-.174ZM12.821 10.884c-.563-.326-1.547-.442-1.8-.973l-.768-1.658s2.284-4.99 2.368-5.795c.137-1.3-.632-1.126-.632-1.126L9.537 6.7 7.084 1.332s-.768-.174-.631 1.126c.084.805 2.368 5.795 2.368 5.795L8.053 9.91c-.248.531-1.232.647-1.8.973-.564.327-.927.91-.927 1.595 0 1.016.821 1.837 1.837 1.837A1.832 1.832 0 0 0 9 12.479c0-.632-.116-.779-.121-1.353.216-.457.653-1.368.653-1.368h.015s.437.91.653 1.368c-.005.574-.121.716-.121 1.353a1.832 1.832 0 0 0 1.837 1.837 1.835 1.835 0 0 0 1.837-1.837 1.854 1.854 0 0 0-.932-1.595Zm-5.658 2.642a1.047 1.047 0 1 1-.001-2.093 1.047 1.047 0 0 1 .001 2.093Zm2.38-4.794A.434.434 0 0 1 9.11 8.3c0-.237.194-.432.431-.432s.432.195.432.432c0 .242-.19.432-.432.432Zm2.368 4.794a1.047 1.047 0 1 1-.002-2.093 1.047 1.047 0 0 1 .002 2.093Z"/></svg>
