<svg width="18" height="16" viewBox="0 0 18 16" xmlns="http://www.w3.org/2000/svg"><path d="M4.799 12.609H2.056a.103.103 0 0 0-.104.1v.44c0 .054.047.099.104.099h2.738a.103.103 0 0 0 .104-.1v-.44c.005-.054-.043-.1-.1-.1ZM3.098 8.37h.663V7.286h1.142v-.644H3.76V5.554h-.663v1.088H1.957v.644h1.141V8.37Z"/><path d="M15.726 2.96h-3.439l-.019-1.128C12.254.821 11.383-.018 10.326 0H7.4C6.338.014 5.49.821 5.504 1.832l.02 1.129H2.08C.88 2.993-.02 3.917 0 5.069v8.823c.02 1.16 1.09 2.126 2.302 2.108h13.59c1.213-.018 2.127-.948 2.108-2.108V5.069c-.02-1.152-1.076-2.113-2.274-2.108ZM5.466 13.77c0 .444-.378.802-.838.802H2.236c-.464 0-.838-.363-.838-.803V5.6c0-.444.379-.802.838-.802h.388V4.371c0-.118.1-.213.223-.213h1.227c.123 0 .222.095.222.213v.394c0 .01 0 .023-.004.032h.331c.465 0 .839.363.839.802v8.17h.004Zm1.08-10.81-.019-1.128c-.004-.472.389-.848.881-.852h2.928c.492-.01.9.38.905.852l.018 1.129H6.546Z"/></svg>
