<svg xmlns="http://www.w3.org/2000/svg" width="16" height="15" viewBox="0 0 16 15">
    <path fill-rule="evenodd" d="M12 7.685c.003.222-.055 2.695-3.792 4.363a.523.523 0 0 1-.416 0c-3.916-1.748-3.791-4.38-3.791-4.38v-.013c.007-1.116.9-2.018 2-2.018 1.311 0 1.764.933 1.92 1.534.024.097.158.1.187.004.184-.6.668-1.538 1.892-1.538 1.105 0 2 .91 2 2.032v.016zm-6.064-5.99a.79.79 0 0 1 .792-.79h2.596c.436 0 .791.355.791.79V2.74H5.936V1.695zm5.085 1.045V1.695C11.021.76 10.26 0 9.324 0H6.728C5.79 0 5.03.76 5.03 1.695V2.74H1.98a1.958 1.958 0 0 0-1.93 1.95L0 13.049C0 14.122.879 15 1.954 15h12.04a1.958 1.958 0 0 0 1.954-1.952L16 4.691a1.958 1.958 0 0 0-1.93-1.951h-3.049z"/>
</svg>
