<svg xmlns="http://www.w3.org/2000/svg" width="14" height="18" viewBox="0 0 14 18"><path fill-rule="evenodd" d="M2.915 1.75v9.353c.006.684.393 1.256.947 1.54l-.902 1.3a1.806 1.806 0 0 0-.315 1.005 1.537 1.537 0 0 0-1.155 1.503c0 .855.674 1.549 1.504 1.549s1.504-.694 1.504-1.549a1.54 1.54 0 0 0-1.186-1.513c.003-.22.074-.424.192-.597l1.047-1.514c.03.002 6.374.004 6.374.004l1 1.42c.144.192.227.418.23.668v.022h.016a1.537 1.537 0 0 0-1.179 1.51c0 .855.673 1.549 1.504 1.549.83 0 1.504-.694 1.504-1.549a1.54 1.54 0 0 0-1.183-1.512h.002v-.024a1.77 1.77 0 0 0-.362-1.077L3.26.755A1.7 1.7 0 0 0 1.861 0H.337A.343.343 0 0 0 0 .347c0 .192.151.347.337.347h1.524c.484 0 1.054.46 1.054 1.056"/></svg>