<svg xmlns="http://www.w3.org/2000/svg" width="16" height="20" viewBox="0 0 16 20">
    <path fill-rule="evenodd" d="M15.776.003l-.011-.001h-.002s-.16-.01-.445.014l-.111.011c-.054.006-.112.011-.172.02-.064.008-.13.02-.201.03-.038.008-.076.013-.116.02a7.667 7.667 0 0 0-.332.07c-.033.006-.065.015-.1.023a9.044 9.044 0 0 0-.419.111l-.044.016c-1.976.59-5.25 2.275-8.911 7.055-2.583 3.375-4.283 6.774-4.768 9.2l-.023.113a7.47 7.47 0 0 0-.076.504l-.005.025a5.135 5.135 0 0 0-.023 1.046c.003.036 0 .071.003.107.052.18.188.418.57.756l9.867-12.845a1.09 1.09 0 0 1-.158-.56c0-.611.503-1.109 1.121-1.109.101 0 .195.017.287.042l2.153-2.805a.304.304 0 0 1 .421-.056l.202.15c.132.1.157.285.057.416L12.386 5.16c.098.165.158.354.158.558a1.116 1.116 0 0 1-1.408 1.068L1.272 19.63c.448.288.737.374.932.37h.017c.002 0 .003 0 .005-.002.008 0 .018.002.026 0 2.323-.383 6.04-3.348 9.32-7.651 2.068-2.714 3.2-5.038 3.801-6.914a16.51 16.51 0 0 0 .221-.757c.013-.05.027-.1.038-.148.049-.189.09-.37.126-.547.022-.104.044-.207.06-.308.008-.034.012-.067.018-.102.402-2.307-.06-3.568-.06-3.568"/>
</svg>
