<svg width="14" height="18" viewBox="0 0 14 18" xmlns="http://www.w3.org/2000/svg">
<path fill-rule="evenodd" clip-rule="evenodd" d="M14 1C14 0.447715 13.5523 0 13 0H1C0.447715 0 0 0.447716 0 1V14H14V1ZM5.29695 2.30005H6.22839L8.173 5.64134C9.23724 5.62413 10.1947 5.63178 10.8568 5.67958C11.3602 5.71496 11.9777 6.02566 12 6.45014C11.9777 6.87556 11.3602 7.18723 10.8568 7.22356C10.1947 7.2704 9.23724 7.27709 8.173 7.25988L6.22839 10.6012H5.29695L6.02223 7.19392C5.08336 7.15568 4.1547 7.10501 3.34584 7.0486V7.06103L2.75336 8.06199H2.00115V4.8402H2.75336L3.34584 5.84019V5.85262C4.1547 5.79717 5.08336 5.7465 6.02223 5.70731L5.29695 2.30005Z" />
<path fill-rule="evenodd" clip-rule="evenodd" d="M0 15H14V17C14 17.5523 13.5523 18 13 18H1C0.447716 18 0 17.5523 0 17V15ZM3.5 17C3.77614 17 4 16.7761 4 16.5C4 16.2239 3.77614 16 3.5 16C3.22386 16 3 16.2239 3 16.5C3 16.7761 3.22386 17 3.5 17ZM6 16.5C6 16.7761 5.77614 17 5.5 17C5.22386 17 5 16.7761 5 16.5C5 16.2239 5.22386 16 5.5 16C5.77614 16 6 16.2239 6 16.5ZM7.5 17C7.77614 17 8 16.7761 8 16.5C8 16.2239 7.77614 16 7.5 16C7.22386 16 7 16.2239 7 16.5C7 16.7761 7.22386 17 7.5 17ZM9 16.5C9 16.2239 9.22386 16 9.5 16H10.5C10.7761 16 11 16.2239 11 16.5C11 16.7761 10.7761 17 10.5 17H9.5C9.22386 17 9 16.7761 9 16.5Z" />
</svg>
