<svg width="24" height="19" viewBox="0 0 24 19" xmlns="http://www.w3.org/2000/svg"><path fill-rule="evenodd" clip-rule="evenodd" d="M11.244 6c1.86-.096 3.6-.084 4.8 0 .912 0 2.064.624 2.028 1.368-.036.744-1.152 1.356-2.064 1.356h-4.8l-3.528 5.88H6l1.2-5.94A223.04 223.04 0 0 1 2.4 8.4l-1.032 1.74H0V4.464h1.368l1.116 1.788.899-.065C4.589 6.1 5.929 6 7.285 6L6 0h1.656l3.588 6zm2.76-.876h-2.316l-.36-1.668h1.68l.996 1.668zm7.392 4.296c-1.2-.084-5.28-.12-9.828.096L10.104 12l2.532.12-1.308 6h1.68l3.528-5.88c1.932 0 3.6 0 4.8-.06.912 0 2.028-.612 2.076-1.356.048-.744-1.104-1.344-2.016-1.404zm1.572-2.544a.468.468 0 1 0 0-.936.468.468 0 0 0 0 .936zm.21-2.719a.6.6 0 1 1-.229 1.178.6.6 0 0 1 .229-1.178zm-.366-1.229a.468.468 0 0 0-.636-.132.468.468 0 1 0 .516.768.456.456 0 0 0 .12-.636zM20.808 1.8a.468.468 0 1 1 .806.477.468.468 0 0 1-.806-.477zm-1.092-.732a.468.468 0 0 0-.516.408.456.456 0 1 0 .516-.408zm-1.22.415a.6.6 0 1 1-1.09.5.6.6 0 0 1 1.09-.5zm-2.233.838a.468.468 0 0 0-.063.607.456.456 0 0 0 .672.012.468.468 0 0 0 0-.648.468.468 0 0 0-.61.03zm-.807 2.119a.456.456 0 0 1-.264-.6.48.48 0 0 1 .6-.264.468.468 0 0 1 .02.86.456.456 0 0 1-.356.004zM21.84 8.4a.336.336 0 0 0 .312.252l.108-.084 1.524-.636a.336.336 0 0 0-.252-.612l-1.2.504-.504-1.2a.337.337 0 0 0-.624.252L21.84 8.4z"/></svg>