<svg width="15" height="18" viewBox="0 0 15 18" xmlns="http://www.w3.org/2000/svg"><path fill-rule="evenodd" clip-rule="evenodd" d="m5.925 9.168-.612.09-.033.004v.452a.419.419 0 0 1-.415.408H4.27v6.43a.447.447 0 0 1-.446.445H3.76a.446.446 0 0 1-.446-.446L3.31 11.74V11.6h-.667l-.004 4.95a.447.447 0 0 1-.446.446h-.062a.446.446 0 0 1-.446-.445l.012-6.43H1.08a.416.416 0 0 1-.414-.4V5.807a.63.63 0 0 1 .03-.156c.145-.856.809-1.477 1.578-1.477H3.7c.156-.003.312.005.466.024a.418.418 0 0 0-.006-.063.43.43 0 0 1-.006-.064c.002-.182.034-.362.094-.533a4.39 4.39 0 0 0-.372-.028 1.871 1.871 0 1 0-1.776.016C1.08 3.614.228 4.427.048 5.502c-.03.099-.047.202-.048.305V9.73a1.086 1.086 0 0 0 1.03 1.054l-.011 5.766a1.111 1.111 0 0 0 1.11 1.11h.062c.293 0 .575-.115.782-.322.208.207.49.323.782.322h.063a1.111 1.111 0 0 0 1.11-1.11v-5.768a1.09 1.09 0 0 0 1.018-1.058v-.556h-.02ZM1.764 1.882a1.209 1.209 0 1 1 2.417.003 1.209 1.209 0 0 1-2.417-.003Zm4.787 1.472a1.017 1.017 0 1 1-1.438 1.438A1.017 1.017 0 0 1 6.55 3.354ZM4.602 6.211c-.012-.373 1.026-.667 1.521-.6.855.117 1.053 2.54.342 2.747-.43.126-2.167.555-2.309-.096-.073-.333.31-.504.689-.675.379-.17.755-.339.672-.667-.045-.174-.241-.239-.44-.304-.232-.077-.468-.154-.475-.405Zm8.815-.764.971 3.843c.074.287.038.591-.102.853-.092.173-.23.317-.4.416.076 1.054.13 1.85.13 1.85l.023.354h-1.356v3.788a1.111 1.111 0 0 1-1.11 1.11h-.063c-.291 0-.57-.114-.777-.32-.208.206-.488.32-.779.32h-.062a1.111 1.111 0 0 1-1.11-1.11v-3.79H7.425l.023-.353s.053-.796.13-1.85a1.142 1.142 0 0 1-.5-1.267l.974-3.86c.24-1.181.877-1.855 1.793-1.909a1.872 1.872 0 1 1 1.771 0c.92.054 1.558.725 1.8 1.925ZM11.407.874a1.211 1.211 0 1 0-1.341 2.017A1.211 1.211 0 0 0 11.407.874Zm2.195 9.079a.385.385 0 0 0 .1-.126.519.519 0 0 0 .044-.374l-.97-3.851c-.195-.946-.62-1.419-1.267-1.419H9.968c-.649 0-1.073.467-1.261 1.4l-.978 3.874c-.064.255.067.517.286.572l.266.067-.02.278c-.056.728-.098 1.357-.122 1.728h1.309v4.45a.447.447 0 0 0 .447.447h.062a.447.447 0 0 0 .446-.447v-4.12h.664v4.118a.447.447 0 0 0 .446.446h.063a.447.447 0 0 0 .446-.446v-4.454h1.313c-.026-.37-.069-1-.122-1.728l-.024-.274.27-.067c.053-.014.101-.04.143-.074Z"/></svg>
