<svg width="14" height="20" viewBox="0 0 14 20" xmlns="http://www.w3.org/2000/svg"><path fill-rule="evenodd" clip-rule="evenodd" d="M10.99 5.583H9.642V3.591h-.965V2.078H6.89V.398A.39.39 0 0 0 6.77.115a.422.422 0 0 0-.584 0 .39.39 0 0 0-.121.281v1.681h-1.78v1.513h-.966v5.293H0V20h14V8.097l-3.01-2.514ZM4.146 4.386h.964V2.87h2.74v1.517h.965v1.197h-4.08v.791h2.937v.846H4.735v.79h2.937v.876H4.146v-4.5Zm1.198 5.29h2.328v.901H5.343l.001-.901Zm0 1.696h2.328v.89H5.343l.001-.89Zm0 1.68h2.328v.89H5.343l.001-.89Zm0 1.681h2.328v.89H5.343l.001-.89Zm-1.198 4.471H.826V9.68h3.692v9.526h-.372Zm1.198 0v-2.79h2.328v2.791H5.344Zm7.827 0h-4.67V6.378h2.18l2.49 2.081v10.745ZM1.473 12.258v.79H3.87v-.79H1.473Zm0 2.427v-.792H3.87v.791H1.473Zm0 .89v.791H3.87v-.791H1.473Zm7.73-5.9v-.79h3.265v.79H9.202Zm0 .906v.79h3.265v-.79H9.202Zm0 2.472v-.791h3.265v.791H9.202Zm0 .89v.791h3.265v-.791H9.202Zm0 2.472v-.791h3.265v.79H9.202Z"/></svg>
