<svg width="20" height="20" viewBox="0 0 20 20" xmlns="http://www.w3.org/2000/svg"><path d="M19.71 12.628a1.421 1.421 0 0 0-1.184-.61h-1.997l-1.748-4.591a1.174 1.174 0 0 0-1.092-.752h-.153l-.776-1.398a1.561 1.561 0 0 0 .864-1.753 1.56 1.56 0 0 0-1.529-1.22h-1.268c.127-.227.194-.482.195-.74A1.564 1.564 0 0 0 9.457 0h-2.5a1.569 1.569 0 0 0-1.565 1.563c.002.26.069.514.195.74H4.323a1.566 1.566 0 0 0-1.532 1.244A1.56 1.56 0 0 0 3.698 5.3l-.765 1.374h-.23C.469 6.673.044 10.926 0 11.446v7.045h1.84A1.917 1.917 0 0 0 3.717 20a1.922 1.922 0 0 0 1.876-1.51h8.249A1.917 1.917 0 0 0 15.718 20a1.922 1.922 0 0 0 1.876-1.51h.675A1.735 1.735 0 0 0 20 16.762v-3.19c0-.336-.1-.664-.29-.943Zm-5.699-4.906 1.637 4.299H11.68V7.5h2.01a.347.347 0 0 1 .321.221Zm-9.95-.221h2.777v4.52H3.55a.264.264 0 0 1-.26-.218.276.276 0 0 1 .005-.128l.767-4.174Zm3.602 0h3.192v4.52H7.663V7.5ZM6.217 1.566a.74.74 0 0 1 .741-.74h2.5a.742.742 0 0 1 .509 1.255.742.742 0 0 1-.51.225h-2.5a.743.743 0 0 1-.74-.74ZM4.323 3.128h7.77a.742.742 0 0 1 .524 1.265.742.742 0 0 1-.525.217H4.323A.742.742 0 0 1 3.8 3.345a.742.742 0 0 1 .524-.217Zm.243 2.304H11.9l.688 1.244H3.871l.695-1.244Zm13.703 12.24h-.675a1.917 1.917 0 0 0-1.876-1.509 1.922 1.922 0 0 0-1.876 1.51H5.595a1.917 1.917 0 0 0-1.876-1.51 1.922 1.922 0 0 0-1.876 1.51H.827v-6.185c.088-1.034.624-3.985 1.88-3.985h.518l-.74 4.008a1.087 1.087 0 0 0 1.065 1.332h14.98a.607.607 0 0 1 .502.247c.097.142.148.31.148.482v.444h-1.064a.412.412 0 1 0 0 .823h1.06v1.927a.907.907 0 0 1-.907.907Z"/></svg>
