<svg width="20" height="20" viewBox="0 0 20 20" xmlns="http://www.w3.org/2000/svg"><path fill-rule="evenodd" clip-rule="evenodd" d="M9.506 1.729a.494.494 0 1 0 .988 0V.494a.494.494 0 0 0-.988 0v1.235Zm3.467 3.12a.493.493 0 0 0 .676-.18l1.53-2.655a.495.495 0 0 0-.555-.724.494.494 0 0 0-.3.23l-1.532 2.655a.494.494 0 0 0 .18.675ZM10 5.77a4.216 4.216 0 1 1 0 8.432 4.216 4.216 0 0 1 0-8.432Zm0-.79a5.005 5.005 0 1 0 0 10.012A5.005 5.005 0 0 0 10 4.98Zm9.505 4.526H16.44a.494.494 0 0 0 0 .988h3.066a.494.494 0 1 0 0-.988ZM3.908 9.65a.494.494 0 0 1-.35.844H.495a.494.494 0 1 1 0-.988h3.065c.13 0 .256.052.35.144Zm2.935 5.437a.492.492 0 0 1 .328.19.494.494 0 0 1 .036.548l-1.532 2.654a.493.493 0 0 1-.905-.12.494.494 0 0 1 .049-.374l1.53-2.655a.494.494 0 0 1 .494-.243Zm-.49-10.418a.494.494 0 1 0 .855-.494L5.675 1.52a.494.494 0 0 0-.856.494L6.352 4.67Zm7.167 10.517c.052.04.095.089.127.145l1.533 2.654a.494.494 0 1 1-.856.494l-1.533-2.654a.493.493 0 0 1 .729-.64Zm-3.172 2.735a.494.494 0 0 1 .145.35v1.233a.494.494 0 0 1-.988 0v-1.233a.494.494 0 0 1 .843-.35ZM2.59 6.291a.494.494 0 0 0 .492-.855L2.014 4.82a.494.494 0 0 0-.494.856l1.07.616Zm14.635 7.348c.066.01.128.034.185.069l1.07.617a.494.494 0 1 1-.494.855l-1.069-.616a.493.493 0 0 1 .308-.925Zm-14.143.924a.494.494 0 1 0-.494-.856l-1.07.618a.494.494 0 1 0 .495.855l1.07-.617Zm13.69-9a.494.494 0 0 1 .145-.127l1.068-.617a.494.494 0 1 1 .495.856l-1.069.617a.494.494 0 0 1-.639-.729Z"/></svg>
