<svg width="18" height="20" viewBox="0 0 18 20" xmlns="http://www.w3.org/2000/svg"><path d="M16.88.827c-.76-.206-1.53-.374-2.308-.504A22.454 22.454 0 0 0 9.867.018c-1.405.108-3.031.306-4.423.95a9.942 9.942 0 0 0-3.428 2.407 7.807 7.807 0 0 0-1.758 3.29c-.479 1.921-.282 3.984.516 5.503.228.495.512.964.846 1.398l.302.365.177.213a29.349 29.349 0 0 0-.63 5.433c0 .112.046.22.127.3a.437.437 0 0 0 .61 0 .418.418 0 0 0 .127-.3c0-.059-.005-2.378.652-5.384 3.796-.062 4.647-.72 6.8-2.235 1.085-.806 1.955-1.97 2.494-2.806.728-1.118 1.235-2.381 1.779-3.795.428-1.129 1.165-2.722 2.643-3.54.108-.068.22-.13.337-.183L18 1.15 16.88.827Zm-3.633 4.23C12.722 6.43 12.232 7.65 11.549 8.7a11.857 11.857 0 0 1-2.278 2.578c-2.788 2.357-6.091 2.034-6.091 2.034C4.236 9.129 6.593 4.114 11.714 2.91a.437.437 0 0 0 .267-.19.417.417 0 0 0-.143-.582.438.438 0 0 0-.327-.05c-4.128.971-7.175 4.32-8.813 9.686-.136.446-.255.886-.362 1.319l-.025-.031a6.528 6.528 0 0 1-.767-1.265c-.267-.51-1.091-2.372-.454-4.926a6.956 6.956 0 0 1 1.565-2.934A9.091 9.091 0 0 1 5.8 1.736C7.076 1.146 8.605.962 9.918.86c.286-.013.575-.02.868-.02 1.22.006 2.436.112 3.638.317.439.072.88.158 1.317.259-1.357.974-2.067 2.517-2.494 3.64Z"/></svg>
