<svg width="16" height="20" viewBox="0 0 16 20" xmlns="http://www.w3.org/2000/svg"><path d="M15.872.084A.368.368 0 0 0 15.606 0a.375.375 0 0 0-.248.123l-.55.624a1.933 1.933 0 0 0-1.297-.28 1.896 1.896 0 0 0-1.165.62 1.766 1.766 0 0 0-.444 1.207c.01.442.187.864.498 1.188L11.273 4.76H1.028c-.21 0-.417.063-.59.179a.995.995 0 0 0-.376.472.955.955 0 0 0-.027.595c.055.196.17.371.332.502l4.619 3.734c.316.255.571.575.746.935.174.361.265.754.264 1.152v5.602H3.921a1.112 1.112 0 0 0-.779.293 1.002 1.002 0 0 0 0 1.483 1.11 1.11 0 0 0 .779.293h6.234c.28-.008.546-.12.74-.313.196-.193.305-.452.305-.722 0-.27-.11-.528-.304-.721a1.093 1.093 0 0 0-.741-.313H8.08v-5.6c0-.398.09-.791.264-1.152.175-.36.43-.68.746-.936l4.62-3.734a.985.985 0 0 0 .332-.502.955.955 0 0 0-.027-.595.995.995 0 0 0-.377-.472 1.055 1.055 0 0 0-.59-.179h-.818l.752-.853a1.918 1.918 0 0 0 1.183.135 1.92 1.92 0 0 0 .676-.275c.205-.134.38-.305.515-.504a1.746 1.746 0 0 0 .27-1.362 1.77 1.77 0 0 0-.293-.665l.581-.66a.343.343 0 0 0-.042-.493Zm-2.823 5.408c.055 0 .108.017.153.047a.26.26 0 0 1 .098.123.25.25 0 0 1-.079.286l-4.62 3.735c-.4.325-.722.73-.943 1.187-.22.458-.335.956-.334 1.46v6.333h2.831a.32.32 0 0 1 .222.09.298.298 0 0 1 0 .427.32.32 0 0 1-.222.09H3.918a.32.32 0 0 1-.222-.09.297.297 0 0 1 0-.428.32.32 0 0 1 .222-.089h2.838V12.33c0-.505-.114-1.004-.335-1.461a3.467 3.467 0 0 0-.946-1.187L.855 5.948a.25.25 0 0 1-.08-.286.26.26 0 0 1 .1-.123.275.275 0 0 1 .153-.047h12.02ZM14.67 2.83a1.054 1.054 0 0 1-.569.411c-.233.07-.484.06-.71-.029a1.045 1.045 0 0 1-.531-.457.984.984 0 0 1-.11-.677 1.01 1.01 0 0 1 .361-.59 1.083 1.083 0 0 1 1.34-.011c.19.147.322.354.372.584a.98.98 0 0 1-.153.769Z"/></svg>
