<svg width="19" height="20" viewBox="0 0 19 20" xmlns="http://www.w3.org/2000/svg"><path fill-rule="evenodd" clip-rule="evenodd" d="M7.12 16.285c-.964.884-1.914 1.62-2.801 2.138l-.267.172c-.615.336-1.157.545-1.597.619-.094.007-.362-.04-.95-.49a4.913 4.913 0 0 1-.135-.109l-.003-.002-.053-.043C.9 18.221.812 18.025.8 17.968c-.047-.431-.01-.957.113-1.567l.126-.498c.59-2.339 2.154-5.32 4.289-8.18C9.942 1.543 13.898.866 14.92.798c.183.868.515 3.943-2.262 8.657h.906C16.21 4.782 15.908 1.7 15.693.657a2.969 2.969 0 0 0-.209-.643L15.24.005c-.202-.018-4.904-.302-10.534 7.241C2.646 10 1.103 12.88.41 15.236l-.02-.01-.12.473c-.233.92-.317 1.713-.243 2.384.065.348.312.695.786 1.092l.063.051.1.081.07.056c.569.436.999.637 1.396.637.035 0 .072 0 .108-.005.627-.105 1.357-.4 2.17-.877l.389-.236-.01-.014a19.006 19.006 0 0 0 2.646-2.092 3.311 3.311 0 0 1-.623-.491ZM18.53 7.79a.47.47 0 0 0-.335.14.484.484 0 0 0-.139.34v7.327c0 .424-.167.83-.463 1.13a1.57 1.57 0 0 1-1.115.47h-2.569a.471.471 0 0 0-.335.14.484.484 0 0 0 0 .68c.089.09.21.14.335.14h2.569a2.513 2.513 0 0 0 1.783-.751 2.58 2.58 0 0 0 .74-1.809V8.272a.484.484 0 0 0-.137-.34.471.471 0 0 0-.334-.141Zm-1.55 4.495v1.64l.001-.001c.001.453-.124.897-.361 1.28a2.382 2.382 0 0 1-.98.89 2.345 2.345 0 0 1-2.51-.286l-.424.247-.093.054a1.29 1.29 0 0 1-1.241 0l-.054-.032-.43-.25a2.354 2.354 0 0 1-2.5.26 2.384 2.384 0 0 1-.97-.89 2.427 2.427 0 0 1-.357-1.274v-1.638c0-.507.2-.993.554-1.352.353-.358.833-.56 1.334-.56h6.144c.5 0 .98.202 1.334.56.354.359.553.845.553 1.352Zm-3.813 2.187c.104.285.287.533.526.715l.001-.004c.265.194.582.3.91.306.41 0 .802-.165 1.092-.459.29-.293.452-.692.452-1.107v-1.638c0-.283-.11-.554-.308-.755a1.048 1.048 0 0 0-.744-.314H8.951c-.28 0-.548.113-.746.313-.198.2-.309.473-.309.756v1.644c0 .288.08.57.229.817.149.245.362.445.616.575a1.526 1.526 0 0 0 1.608-.13c.226-.17.403-.398.511-.66.065-.196.119-.395.162-.596.047-.252.116-.498.205-.738a1.313 1.313 0 0 1 .054-.117c.003-.009.007-.017.011-.024a.887.887 0 0 1 .078-.105.809.809 0 0 1 .053-.064.851.851 0 0 1 .102-.086.729.729 0 0 1 .17-.098l.016-.005a.821.821 0 0 1 .622 0l.017.005c.06.025.117.058.169.098.036.026.07.055.102.086.02.02.037.042.053.064a.947.947 0 0 1 .143.243c.094.257.166.52.217.79a5.7 5.7 0 0 0 .132.488Z"/></svg>
