<svg width="20" height="20" viewBox="0 0 20 20" xmlns="http://www.w3.org/2000/svg"><path fill-rule="evenodd" clip-rule="evenodd" d="M3.362 0h13.286c.488 0 .971.109 1.414.32.444.213.836.522 1.151.906.315.385.544.836.671 1.32a3.541 3.541 0 0 1-.485 2.868c-.279.413-.643.757-1.065 1.01a3.26 3.26 0 0 1-2.817.262V20H4.493V6.686a3.262 3.262 0 0 1-2.822-.257 3.388 3.388 0 0 1-1.069-1.01A3.502 3.502 0 0 1 .05 4.037a3.543 3.543 0 0 1 .066-1.492c.128-.486.358-.938.674-1.323C1.106.838 1.5.53 1.944.318A3.27 3.27 0 0 1 3.362 0ZM14.84 5.307c.48.493 1.13.77 1.808.771.678 0 1.329-.277 1.808-.77a2.67 2.67 0 0 0 .75-1.861 2.67 2.67 0 0 0-.75-1.861 2.522 2.522 0 0 0-1.808-.771H3.362c-.506 0-1 .154-1.421.444-.42.289-.749.7-.942 1.18A2.702 2.702 0 0 0 .853 3.96c.099.51.342.98.7 1.348.358.368.814.618 1.31.72a2.49 2.49 0 0 0 1.477-.15c.468-.2.867-.537 1.148-.97.281-.432.431-.94.431-1.461 0-.108.042-.212.116-.288a.39.39 0 0 1 .56 0c.075.076.116.18.116.288 0 .553-.13 1.097-.378 1.588-.248.49-.607.912-1.048 1.229v12.921h1.808V8.006c0-.108.042-.211.116-.288a.39.39 0 0 1 .56 0c.075.077.116.18.116.288v11.179h1.762V8.006c0-.108.042-.211.116-.288a.39.39 0 0 1 .56 0c.075.077.116.18.116.288v11.179H12.2V8.006c0-.108.042-.211.116-.288a.39.39 0 0 1 .56 0c.075.077.116.18.116.288v11.179h1.733V6.265c-.44-.318-.8-.74-1.048-1.23a3.522 3.522 0 0 1-.379-1.588c0-.108.042-.212.116-.288a.39.39 0 0 1 .56 0c.074.076.116.18.116.288 0 .697.27 1.366.75 1.86Zm-6.534-.718h3.403a.39.39 0 0 1 .28.12.413.413 0 0 1 0 .576.39.39 0 0 1-.28.119H8.306a.39.39 0 0 1-.28-.12.414.414 0 0 1 0-.576.39.39 0 0 1 .28-.12Z"/></svg>
