<svg width="14" height="20" viewBox="0 0 14 20" xmlns="http://www.w3.org/2000/svg"><path d="M14 7.455C14 3.338 10.866 0 7 0S0 3.338 0 7.455c0 3.006 1.255 5.59 3.742 6.77l.523 2.404h-.323c-.487.012-.778.315-.78.807v.306c0 1.313.798 2.238 1.938 2.25a183.95 183.95 0 0 0 3.42 0c1.144-.013 1.874-.81 1.912-2.08l.007-.258v-.262c0-.432-.28-.72-.717-.754l.539-2.479C12.632 12.952 14 10.41 14 7.455ZM.76 7.447c0-2.454 1.243-4.597 3.084-5.762-1.921 5.164-.596 9.974.04 11.753C1.637 12.268.76 9.803.76 7.448v-.001ZM9.66 17.92c-.013.488-.18 1.31-1.144 1.318a167.52 167.52 0 0 1-3.414 0c-.861-.009-1.168-.797-1.169-1.468v-.327h.015l5.715.006v.234l-.003.237ZM4.61 14.59c.65.192 1.323.3 2 .322v1.745H5.057L4.61 14.59Zm2.783 2.064V14.91a7.335 7.335 0 0 0 1.994-.364l-.458 2.106-1.536.003Zm1.69-2.845A6.576 6.576 0 0 1 7 14.137a7.33 7.33 0 0 1-2.113-.29l-.015-.03c-.028-.063-2.766-6.303.035-12.66a5.74 5.74 0 0 1 4.127-.03c2.792 6.31.124 12.506.047 12.68l.003.002Zm1.01-12.163c1.875 1.154 3.15 3.32 3.15 5.804 0 2.7-1.206 4.84-3.148 5.92.639-1.827 1.916-6.609-.006-11.727l.004.003Z"/></svg>
