<svg width="13" height="18" viewBox="0 0 13 18" xmlns="http://www.w3.org/2000/svg"><path d="M12.346.008H2.692a.6.6 0 0 0-.597.597v13.862a.6.6 0 0 0 .597.597h9.654a.6.6 0 0 0 .598-.597V.597A.6.6 0 0 0 12.346 0v.008Zm-.998 11.18h-7.65v-.614h7.65v.614Zm0-3.378h-7.65v-.613h7.65v.613Zm0-3.377h-7.65v-.614h7.65v.614ZM4.107 18a1.333 1.333 0 1 0 0-2.667 1.333 1.333 0 0 0 0 2.667ZM10.93 18a1.333 1.333 0 1 0 .002-2.667A1.333 1.333 0 0 0 10.93 18Z"/><path d="M3.674 1.742H.13a.13.13 0 0 0-.131.13v.557c0 .072.059.13.13.13h3.544a.13.13 0 0 0 .13-.13v-.556a.13.13 0 0 0-.13-.131Z"/></svg>
