<svg xmlns="http://www.w3.org/2000/svg" width="12" height="18" viewBox="0 0 12 18">
    <path fill-rule="evenodd" d="M11.178 2.48a.576.576 0 0 1-.815.814L9.301 2.232v3.691a.577.577 0 0 1-1.153 0v-3.69L7.086 3.293a.576.576 0 0 1-.815-.815L8.725.026l2.453 2.453zm-3.751 8.426c2.609 0 4 .563 4 1.688 0 3.257-1.54 4.906-1.54 4.906H4.782c-1.107 0-1.707-.426-2.078-1.261C1.296 13.077.43 5.941 1.155.067c0 0 2.79-.415 2.875 2.074.062 1.828-1.091 2.204-1.091 2.204s.22 2.172.988 4.276c2.073-.405 3.95-.362 4.849-.158.778.177.603 1.377.018 1.378-2.842.004-3.558 1.266-3.558 1.266.54-.06 1.574-.201 2.19-.201z"/>
</svg>
