<svg width="18" height="20" viewBox="0 0 18 20" xmlns="http://www.w3.org/2000/svg"><path d="M14.216 10.01c-.573 0-1.534.133-2.035.188 0 0 .665-1.181 3.305-1.185.543-.002.706-1.125-.017-1.29-.835-.192-2.578-.233-4.505.146-.712-1.97-.917-3.838-.917-3.838s1.071-.35 1.013-2.064C10.981-.365 8.39.025 8.39.025c-.672 5.502.131 12.019 1.438 14.98.345.783.901 1.182 1.93 1.182h4.744s1.43-1.544 1.43-4.595c0-1.055-1.292-1.582-3.716-1.582M5.472 20H1.617a.617.617 0 1 1 0-1.233H4.24v-3.22h3.873a.617.617 0 1 1 0 1.232h-2.64V20h-.001z"/></svg>