<svg width="18" height="20" viewBox="0 0 18 20" xmlns="http://www.w3.org/2000/svg"><path d="M14.374 9.171c.027.282-.064.528-.337.737l-1.401 1.072-1.493-2.072a.493.493 0 0 0-.691-.11l-.137.1a.493.493 0 0 0-.109.691l1.51 2.1-4.776 3.654-.82-1.527a.494.494 0 0 0-.664-.2l-.145.082a.493.493 0 0 0-.2.664l.91 1.7-4.969 3.799c-.546.418-1.283-.182-.983-.8l4.668-9.544 2.075 1.481c.21.155.51.1.655-.109l.082-.109a.466.466 0 0 0-.109-.654L5.22 8.544l2.038-4.172c.282-.582.746-.554 1.538-.336l.164.045a7.78 7.78 0 0 1 5.104 4.272c.173.31.291.582.31.837v-.02Z"/><path d="M11.143.3c1.393 1.381 1.675 3.681.674 5.672a.654.654 0 0 1-.938.254.645.645 0 0 1-.218-.827c.746-1.482.573-3.181-.418-4.172a.636.636 0 0 1-.082-.818.64.64 0 0 1 .982-.1v-.01Z"/><path d="M16.976 6.263c-1.356-1.418-3.658-1.727-5.66-.764a.641.641 0 1 0 .555 1.155c1.502-.728 3.194-.528 4.168.481a.64.64 0 0 0 .819.1.64.64 0 0 0 .118-.981v.009Z"/><path d="m14.318 1.736-3.98 4.517a.717.717 0 1 0 1.08.95l3.98-4.518a.718.718 0 1 0-1.08-.949Zm-3.086-.197c.481-.346.665-.914.41-1.268-.256-.355-.853-.362-1.334-.016-.482.345-.665.913-.41 1.268.255.354.852.362 1.334.016Z"/><path d="M11.534 2.228c.489-.28.717-.799.51-1.16-.208-.362-.772-.429-1.26-.15-.489.28-.717.8-.51 1.161.208.362.772.428 1.26.15Z"/><path d="M11.878 2.88c.451-.292.643-.799.427-1.132-.215-.333-.756-.367-1.208-.075-.451.291-.643.798-.427 1.13.215.334.756.368 1.208.076Zm5.261 4.051c.269-.528.171-1.116-.218-1.314-.39-.199-.924.069-1.193.597-.27.527-.171 1.116.218 1.314.39.198.924-.069 1.193-.597Z"/><path d="M16.423 6.574c.305-.472.27-1.038-.08-1.265-.351-.226-.883-.027-1.188.445-.306.472-.27 1.038.08 1.265.35.226.882.027 1.188-.445Z"/><path d="M15.67 6.19c.267-.466.205-1.003-.14-1.2-.344-.198-.84.02-1.107.486-.268.466-.206 1.004.139 1.201.344.197.84-.02 1.108-.487Zm.394-3.792c.232-.37.013-.926-.489-1.24-.502-.315-1.098-.27-1.33.1-.233.37-.014.924.489 1.24.502.314 1.097.27 1.33-.1Z"/><path d="M15.487 3.078c.257-.329.106-.875-.338-1.222-.443-.346-1.01-.36-1.268-.033-.257.328-.106.875.338 1.222.443.346 1.01.36 1.268.033Z"/><path d="M14.94 3.59c.227-.325.054-.838-.387-1.146-.44-.308-.982-.294-1.21.031-.227.325-.054.838.386 1.146.441.308.983.294 1.21-.031Z" /></svg>
