<svg width="21" height="21" viewBox="0 0 21 21" xmlns="http://www.w3.org/2000/svg"><path d="M10.014.022c.727 0 1.316.353 1.316.79 0 .325-.33.605-.8.726v1.37c1.57.12 2.996.75 4.115 1.724l.982-.982c-.237-.412-.268-.834-.04-1.061.307-.308.974-.142 1.488.372.513.514.68 1.18.372 1.489-.23.23-.662.195-1.079-.052l-.983.982a7.074 7.074 0 0 1 1.682 4.104h1.437c.123-.458.4-.778.72-.778.437 0 .79.59.79 1.316 0 .727-.353 1.316-.79 1.316-.326 0-.605-.33-.726-.8h-1.434a7.074 7.074 0 0 1-1.693 4.08l1.02 1.02c.405-.226.816-.252 1.04-.029.307.309.14.975-.373 1.489-.514.514-1.18.68-1.489.372-.234-.234-.194-.675.064-1.098l-1.005-1.007a7.075 7.075 0 0 1-4.098 1.71v1.431c.47.12.8.4.8.727 0 .436-.59.789-1.316.789-.727 0-1.316-.353-1.316-.79 0-.32.32-.597.778-.72v-1.434a7.074 7.074 0 0 1-4.107-1.682l-.99.99c.248.418.283.849.052 1.08-.308.307-.974.14-1.488-.373-.514-.514-.68-1.18-.372-1.488.227-.227.648-.197 1.06.04l.99-.99a7.075 7.075 0 0 1-1.724-4.117H1.53c-.12.47-.4.8-.727.8-.436 0-.789-.59-.789-1.316 0-.727.353-1.316.79-1.316.32 0 .597.32.72.778h1.37a7.074 7.074 0 0 1 1.713-4.14l-.938-.938c-.418.247-.85.283-1.08.052-.309-.308-.142-.975.372-1.489.514-.513 1.18-.68 1.488-.372.227.227.197.648-.04 1.059l.943.945a7.074 7.074 0 0 1 4.125-1.697V1.532c-.46-.123-.779-.4-.779-.72 0-.437.59-.79 1.316-.79Zm.584 10.367a.79.79 0 1 0 0 1.58.79.79 0 0 0 0-1.58ZM7.85 6.765a1.316 1.316 0 1 0 0 2.631 1.316 1.316 0 0 0 0-2.631Z"/></svg>
