<svg width="21" height="14" viewBox="0 0 21 14" xmlns="http://www.w3.org/2000/svg"><path d="M20.89 6.346L18.779.808a1.286 1.286 0 0 0-1.63-.733L.827 6.018a1.244 1.244 0 0 0-.75 1.595l2.111 5.554c.247.64.973.966 1.63.734l16.323-5.95c.658-.243.993-.96.75-1.605zm-3.472-2.449l.135.355L12.75 6.01l-.136-.355 4.805-1.758zm-4.94 1.397l-.562-1.473 4.805-1.753.559 1.473-4.803 1.753zm5.213-.677l.136.354-4.805 1.755-.136-.355 4.805-1.754zm.273.709l.136.354-4.805 1.763-.135-.354 4.804-1.763zm-11.85.398c.814-.28 1.406-.07 1.939.305l-.46.663c-.426-.287-.775-.402-1.242-.243-.467.16-.724.596-.744 1.15l1.437-.492.2.556-1.565.532c.023.1.053.197.089.292.033.092.063.177.1.259l1.57-.532.204.569-1.449.494c.373.452.866.637 1.387.458.447-.154.634-.473.799-.979l.74.224c-.181.673-.525 1.215-1.287 1.476-.989.338-1.906-.044-2.5-.886l-.605.205-.2-.561.513-.178c-.034-.076-.065-.16-.096-.246-.038-.1-.07-.201-.094-.305l-.521.178-.2-.557.634-.209c-.052-.98.402-1.848 1.35-2.173zm7.578 2.763l-.26-.684 4.804-1.753.26.684-4.804 1.753z"/></svg>