<svg width="20" height="20" viewBox="0 0 20 20" xmlns="http://www.w3.org/2000/svg"><path d="M19 4V3h-9v1h3v1h1v1h6V4h-1ZM12 1h3v1h1V1c0-.55-.45-1-1-1h-3c-.55 0-1 .45-1 1v1h1V1ZM14 9h-1l-.82 9H18l1-11h-5v2ZM5 3h3v1h1V3c0-.55-.45-1-1-1H5c-.55 0-1 .45-1 1v1h1V3Z"/><path d="M13 6h-1V5H1v1H0v2h13V6ZM2 20h9l1-11H1l1 11Zm1.61-4.59c0-1.75 1.34-3.16 3.01-3.16h1.53v-.68l.38.22 1.36.84-1.21.73-.53.33v-.61H6.93c-1.34 0-2.43 1.14-2.43 2.54h-.9v-.21h.01Zm1.24.52v.61h1.22c1.34 0 2.43-1.14 2.43-2.54h.9v.22c0 .64-.18 1.23-.49 1.73-.54.85-1.45 1.42-2.51 1.42H4.85v.68l-1.76-1.06 1.76-1.06Z"/></svg>
