<svg xmlns="http://www.w3.org/2000/svg" width="18" height="13" viewBox="0 0 18 13"><path fill-rule="evenodd" d="M8.305 5.532c-.624.522-1.484.727-2.555.62.1-.561.333-1.53.38-1.655.22.333.557.702 1.059.93a.477.477 0 0 0 .628-.238.474.474 0 0 0-.238-.629c-.494-.223-.744-.7-.84-.928.246-.173.561-.27.98-.27H9.41c-.064.442-.295 1.49-1.106 2.17zM1.492 0C.462 0 .237 2.152.237 2.152s2.402-.119 1.65 2.619C1.07 7.751.344 10.026.068 10.792c-.275.764.337 1.377 1.025 1.377h3.546s.684-3.564.946-5.079c.24.027.474.044.7.044 1.058 0 1.943-.296 2.638-.88 1.144-.964 1.394-2.405 1.447-2.892h5.519c1.632 0 2.998-3.362 1.4-3.362H1.492z"/></svg>