<svg width="18" height="14" viewBox="0 0 18 14" xmlns="http://www.w3.org/2000/svg"><path d="M5.768 3.599a.557.557 0 0 1 .863-.105c.039.165.085.322.147.479l-.001-.004c.476 1.232 1.68 2.126 3.107 2.205l.205.006c.288 0 .56-.03.824-.09l.218-.056c.215-.062.42-.142.613-.243a.47.47 0 0 1 .117.097l.621.703a4.4 4.4 0 0 1-1.04.45l-.42-.48a.528.528 0 0 1-.103-.178.52.52 0 0 0 .095.178l.42.48a4.704 4.704 0 0 1-1.345.194c-1.67 0-3.14-.853-3.956-2.14l.004.005-5.117 8.636a.552.552 0 0 1-.656.234l-.09-.04a.515.515 0 0 1-.202-.718L5.6 3.884l-.003-.009zm6.714 3.007l5.13 5.888a.52.52 0 0 1-.07.748.559.559 0 0 1-.77-.067l-5.33-6.12a4.934 4.934 0 0 0 1.04-.449zm-.815 3.008c.388 0 .699.3.699.673 0 .374-.31.674-.7.674a.684.684 0 0 1-.699-.674c0-.374.311-.673.7-.673zm-6.49-.45c.39 0 .7.3.7.674 0 .374-.31.674-.7.674a.684.684 0 0 1-.699-.674c0-.374.311-.673.7-.673zm3.226-1.069c.388 0 .699.307.699.673 0 .374-.31.674-.7.674a.684.684 0 0 1-.699-.674c0-.374.311-.673.7-.673zm5.867-2.057c.388 0 .7.306.7.673a.685.685 0 0 1-.7.673.684.684 0 0 1-.7-.673c0-.374.311-.673.7-.673zM1.758 5.215c.389 0 .7.306.7.673a.684.684 0 0 1-.7.673.685.685 0 0 1-.7-.673c0-.374.312-.673.7-.673zm9.333.606a.566.566 0 0 1 .653-.03 3.906 3.906 0 0 1-.831.299.522.522 0 0 1 .178-.27zM9.374 3.344c.389 0 .7.307.7.674a.684.684 0 0 1-.7.673c-.389 0-.7-.3-.7-.673 0-.374.311-.674.7-.674zm3.847-.501c.388 0 .7.3.7.673a.685.685 0 0 1-.7.674c-.389 0-.7-.3-.7-.674 0-.374.311-.673.7-.673zm-8.976-.15c.389 0 .7.3.7.674a.684.684 0 0 1-.7.673c-.388 0-.7-.3-.7-.673 0-.374.312-.674.7-.674zm13.056-.247c.388 0 .699.307.699.674 0 .374-.31.673-.7.673a.684.684 0 0 1-.699-.673c0-.374.311-.674.7-.674zM6.848.823c.389 0 .7.3.7.673a.685.685 0 0 1-.7.674.684.684 0 0 1-.699-.674c0-.374.31-.673.7-.673zM1.914.202c.388 0 .7.307.7.673a.685.685 0 0 1-.7.674c-.389 0-.7-.3-.7-.674 0-.374.311-.673.7-.673zM11.317 0c.388 0 .7.3.7.673a.685.685 0 0 1-.7.674c-.389 0-.7-.3-.7-.674 0-.374.311-.673.7-.673z"/></svg>