<svg width="18" height="18" viewBox="0 0 18 18" xmlns="http://www.w3.org/2000/svg"><path d="M3.33 9c0-.163.005-.325.023-.488H0v.97h3.353A6.29 6.29 0 0 1 3.33 9zm10.004-3.648l2.372-2.372-.686-.686-2.372 2.372c.247.21.476.439.686.686zm-8.668 7.296L2.294 15.02l.686.686 2.372-2.372a6.156 6.156 0 0 1-.686-.686zm.686-7.982L2.98 2.294l-.686.686 2.372 2.372c.21-.247.439-.476.686-.686zm4.136-1.313V0h-.97v3.353c.163-.012.32-.024.488-.024.157 0 .32.012.482.024zm5.159 5.16c.012.162.024.318.024.487 0 .169-.006.325-.024.488H18v-.97h-3.353v-.006zm-1.999 4.821l2.372 2.372.686-.686-2.372-2.372c-.21.247-.439.476-.686.686zm-4.13 1.313V18h.97v-3.353c-.163.012-.32.024-.482.024-.169 0-.331-.012-.488-.024zM9 4.545A4.46 4.46 0 0 0 4.545 9a4.461 4.461 0 0 0 8.922 0c0-2.456-2.01-4.455-4.467-4.455zm0 7.94A3.488 3.488 0 0 1 5.514 9 3.492 3.492 0 0 1 9 5.514 3.493 3.493 0 0 1 12.492 9 3.493 3.493 0 0 1 9 12.486z"/></svg>