<svg width="18" height="15" viewBox="0 0 18 15" xmlns="http://www.w3.org/2000/svg"><path d="M14.074 3.84C13.447 1.6 11.4 0 9.094 0 7.04 0 5.22 1.206 4.377 3.102 1.939 3.232 0 5.293 0 7.817c0 2.604 2.072 4.721 4.619 4.721h1.457v-.825H4.625c-2.102 0-3.812-1.748-3.812-3.896 0-2.148 1.71-3.896 3.818-3.896h.024a.398.398 0 0 0 .373-.265C5.691 1.933 7.287.825 9.093.825c2.036 0 3.83 1.47 4.264 3.502.042.19.205.326.391.326 1.903.006 3.445 1.588 3.445 3.527 0 1.945-1.548 3.527-3.45 3.527H11.93v.825h1.812C16.091 12.532 18 10.58 18 8.18c.012-2.283-1.728-4.167-3.926-4.34zm-3.168 6.66h-1.12l.692-1.698a.356.356 0 0 0-.325-.499H8.377a.35.35 0 0 0-.338.259l-.981 3.404a.377.377 0 0 0 .054.32.346.346 0 0 0 .283.147h.861l-.668 2.093a.357.357 0 0 0 .337.474h.705c.12 0 .234-.068.3-.172l2.277-3.773a.357.357 0 0 0 .006-.364.338.338 0 0 0-.307-.19zM8.43 14.269h-.018l.668-2.093a.371.371 0 0 0-.048-.326.354.354 0 0 0-.283-.148h-.88l.772-2.684h.981l-.692 1.699a.356.356 0 0 0 .325.499h1.018L8.43 14.268z"/></svg>