<svg width="18" height="14" viewBox="0 0 18 14" xmlns="http://www.w3.org/2000/svg"><path d="M17.89 4.198a.372.372 0 0 0-.302-.103 3.204 3.204 0 0 1-.415.024A3.296 3.296 0 0 1 13.905.405a.372.372 0 0 0-.103-.3.372.372 0 0 0-.3-.103 3.951 3.951 0 0 0-2.336 1.144c-.35.35-.62.752-.819 1.192.223.096.44.204.644.33A3.272 3.272 0 0 1 13.158.804a3.995 3.995 0 0 0 1.174 2.859 3.983 3.983 0 0 0 2.841 1.174h.018a3.233 3.233 0 0 1-.855 1.48 3.438 3.438 0 0 1-.547.44c.162.18.313.367.451.572a4.37 4.37 0 0 0 .614-.5 4.02 4.02 0 0 0 1.144-2.335.345.345 0 0 0-.109-.295zm-5.286 1.944a4.664 4.664 0 0 0-4.46-3.365 4.613 4.613 0 0 0-4.22 2.715 4.139 4.139 0 0 0 .21 8.27h8.175a3.815 3.815 0 0 0 .295-7.62zm-.288 6.898h-8.18a3.414 3.414 0 1 1 .005-6.826h.018a.36.36 0 0 0 .337-.229 3.882 3.882 0 0 1 3.642-2.48 3.94 3.94 0 0 1 3.822 3.07.356.356 0 0 0 .356.283 3.096 3.096 0 0 1 3.087 3.094 3.094 3.094 0 0 1-3.087 3.088z"/></svg>