<svg width="18" height="16" viewBox="0 0 18 16" xmlns="http://www.w3.org/2000/svg"><path d="M11.522 4.265a1.77 1.77 0 0 1 3.468.498c0 .726-.44 1.35-1.072 1.62.217.131.422.275.614.443A2.427 2.427 0 0 0 15.67 4.77a2.448 2.448 0 0 0-4.683-.996c.186.15.367.312.535.492zm-.325-1.998l-1.113-1.11-.482.48 1.12 1.116c.138-.18.3-.342.475-.486zm4.527.486l1.12-1.115-.481-.48-1.12 1.115c.174.138.337.3.481.48zm-2.16-1.181V0h-.687v1.572a3.288 3.288 0 0 1 .686 0zm1.679 5.686l1.12 1.116.481-.48-1.12-1.116c-.144.18-.307.342-.481.48zm-3.335-.642A4.404 4.404 0 0 0 7.694 3.45a4.35 4.35 0 0 0-3.986 2.555A3.907 3.907 0 0 0 0 9.897a3.903 3.903 0 0 0 3.907 3.893h.415v-.683h-.415A3.225 3.225 0 0 1 .68 9.89a3.226 3.226 0 0 1 3.233-3.215h.018a.345.345 0 0 0 .32-.216 3.674 3.674 0 0 1 3.443-2.34 3.723 3.723 0 0 1 3.612 2.892c.036.156.174.27.33.27a2.916 2.916 0 0 1 2.915 2.91 2.917 2.917 0 0 1-2.92 2.909h-.723v.683h.723c1.986 0 3.606-1.613 3.606-3.593a3.597 3.597 0 0 0-3.33-3.575zm4.515-2.19a3.252 3.252 0 0 1 0 .685H18v-.684h-1.577zm-10.92 7.079a.342.342 0 0 0-.344.342v2.465a.342.342 0 0 0 .686 0v-2.465a.342.342 0 0 0-.343-.342zm2.034.846a.342.342 0 0 0-.343.342v2.465a.342.342 0 0 0 .686 0v-2.465a.346.346 0 0 0-.343-.342zm2.203-.846a.342.342 0 0 0-.343.342v2.465a.342.342 0 0 0 .686 0v-2.465a.346.346 0 0 0-.343-.342z"/></svg>