<svg width="18" height="15" viewBox="0 0 18 15" xmlns="http://www.w3.org/2000/svg"><path d="M14.078 3.759A5.217 5.217 0 0 0 9.096 0 5.15 5.15 0 0 0 4.38 3.036 4.627 4.627 0 0 0 0 7.65a4.625 4.625 0 0 0 4.62 4.62h.494v-.806H4.62A3.818 3.818 0 0 1 .807 7.65a3.82 3.82 0 0 1 3.82-3.813h.024a.397.397 0 0 0 .373-.259A4.342 4.342 0 0 1 9.09.808a4.387 4.387 0 0 1 4.265 3.427c.042.187.205.32.392.32a3.458 3.458 0 0 1 3.446 3.45 3.455 3.455 0 0 1-3.452 3.453h-.85v.807h.85A4.264 4.264 0 0 0 18 8c.018-2.235-1.723-4.078-3.922-4.241zM6.5 12.632a.54.54 0 0 0-.542.542.54.54 0 0 0 .542.543.54.54 0 0 0 .542-.543.54.54 0 0 0-.542-.542zm0-2.216a.54.54 0 0 0-.542.542.54.54 0 0 0 .542.542.54.54 0 0 0 .542-.542.544.544 0 0 0-.542-.542zm5.036 0a.54.54 0 0 0-.542.542.54.54 0 0 0 .542.542.54.54 0 0 0 .542-.542.544.544 0 0 0-.542-.542zm0 2.216a.54.54 0 0 0-.542.542.54.54 0 0 0 .542.543.54.54 0 0 0 .542-.543.54.54 0 0 0-.542-.542zM8.91 11.428a.54.54 0 0 0-.543.542.54.54 0 0 0 .543.542.54.54 0 0 0 .542-.542.54.54 0 0 0-.542-.542zm0 2.21a.54.54 0 0 0-.543.543.54.54 0 0 0 .543.542.54.54 0 0 0 .542-.542.54.54 0 0 0-.542-.543z"/></svg>