<svg width="18" height="12" viewBox="0 0 18 12" xmlns="http://www.w3.org/2000/svg"><path d="M9.093 0c2.307 0 4.354 1.526 4.98 3.676 2.199.159 3.939 1.962 3.927 4.159C18 10.133 16.09 12 13.742 12H4.62C2.072 12 0 9.973 0 7.482c0-2.416 1.94-4.39 4.378-4.513C5.221 1.155 7.04 0 9.093 0zm0 .784c-1.806 0-3.402 1.06-4.065 2.71a.397.397 0 0 1-.373.253h-.024C2.523 3.747.813 5.42.813 7.476s1.71 3.729 3.812 3.729h9.13c1.902 0 3.45-1.514 3.438-3.382 0-1.855-1.542-3.37-3.445-3.375a.403.403 0 0 1-.391-.313C12.923 2.191 11.129.784 9.093.784zM8.985 8.5a.6.6 0 0 1 .595.611c0 .373-.266.621-.595.621-.34 0-.605-.248-.605-.62 0-.345.266-.612.605-.612zm-.01-5.676c1.233 0 2.025.762 2.025 1.76 0 .763-.561 1.312-1.083 1.883-.36.382-.47.617-.47.942v.415h-.973V7.42c0-.571.13-.908.561-1.379.431-.482.922-.908.922-1.379 0-.504-.3-.852-1.012-.852-.501 0-1.023.348-1.374.763L7 3.833c.421-.505 1.163-1.009 1.975-1.009z" fill-rule="evenodd"/></svg>