<svg xmlns="http://www.w3.org/2000/svg" width="18" height="14" viewBox="0 0 18 14">
    <path fill-rule="evenodd" d="M3.825 5.375c.39-.017.769.056 1.117.204.244.095.472.234.673.418l3.193 3.162 2.85 1.05a1.05 1.05 0 1 1-.727 1.972l-3.278-1.208-1.4-1.386.001.006-.389 3.992H0s1.427-6.16 1.496-6.42c.264-1.005 1.221-1.74 2.33-1.79zm13.854 1.45a.63.63 0 0 1 .24.86l-3.15 5.58a.634.634 0 0 1-.549.32H8.415a.63.63 0 0 1 0-1.26h5.437l2.969-5.26a.63.63 0 0 1 .858-.24zM6.19 0a2.568 2.568 0 1 1 0 5.137A2.568 2.568 0 0 1 6.19 0z"/>
</svg>
