<svg width="600" height="320" xmlns="http://www.w3.org/2000/svg" xmlns:xlink="http://www.w3.org/1999/xlink"><defs><ellipse id="a" cx="87.68" cy="87.323" rx="87.68" ry="87.323"/></defs><g fill="none" fill-rule="evenodd"><ellipse cx="87.68" cy="87.711" rx="87.68" ry="87.323" transform="translate(250.752 76.584)" fill="#4492FE" fill-rule="nonzero"/><g transform="translate(250.752 76.972)"><mask id="b" fill="#fff"><use xlink:href="#a"/></mask><use fill="#4492FE" fill-rule="nonzero" xlink:href="#a"/><g fill-rule="nonzero" mask="url(#b)"><path d="M-76.963 31.048c6.235-1.164 23.38-2.523 56.115 4.657l286.42 61.709c32.735 6.985 58.26 17.464 57.09 23.092-1.169 5.627-29.421 9.314-62.935 8.15l-84.952-2.911c-33.513-1.164-87.095-7.956-119.829-14.942L-68.585 84.024s-41.307-11.06-49.1-21.734c-8.38-11.06-5.067-19.21 9.157-21.927 13.054-2.717 18.51-6.792 31.565-9.315Z" fill="#FFF"/><path d="M198.741 107.116c-.39 1.552.585 3.105 2.143 3.299 1.56.388 3.118-.582 3.313-2.135.39-1.552-.585-3.104-2.144-3.299-1.363-.388-2.922.583-3.312 2.135ZM179.841 103.041c-.39 1.552.585 3.105 2.144 3.299 1.558.388 3.117-.582 3.312-2.135.39-1.552-.585-3.105-2.143-3.299-1.56-.388-3.118.583-3.313 2.135ZM160.747 98.966c-.39 1.552.584 3.105 2.143 3.299 1.559.388 3.117-.582 3.312-2.135.39-1.552-.584-3.105-2.143-3.299-1.559-.388-2.923.583-3.312 2.135ZM141.652 94.89c-.39 1.553.584 3.106 2.143 3.3 1.559.388 3.118-.582 3.312-2.135.39-1.552-.584-3.105-2.143-3.299-1.364-.388-2.923.582-3.312 2.135ZM122.752 90.816c-.39 1.552.584 3.105 2.143 3.299 1.559.388 3.118-.583 3.313-2.135.39-1.552-.585-3.105-2.144-3.299-1.559-.388-3.117.582-3.312 2.135ZM103.657 86.74c-.39 1.553.585 3.106 2.143 3.3 1.56.388 3.118-.583 3.313-2.135.39-1.552-.585-3.105-2.144-3.299-1.363-.388-2.922.582-3.312 2.135ZM84.562 82.472c-.39 1.552.585 3.104 2.144 3.298 1.558.389 3.117-.582 3.312-2.134.39-1.553-.584-3.105-2.143-3.299-1.364-.388-2.923.776-3.313 2.135ZM65.663 78.397c-.39 1.552.584 3.104 2.143 3.298 1.559.388 3.117-.582 3.312-2.134.39-1.553-.584-3.105-2.143-3.299-1.559-.388-2.923.582-3.312 2.135ZM46.568 74.321c-.39 1.553.584 3.105 2.143 3.3 1.559.387 3.118-.583 3.312-2.135.39-1.553-.584-3.105-2.143-3.3-1.364-.387-2.923.583-3.312 2.135ZM27.668 70.246c-.39 1.553.584 3.105 2.143 3.3 1.559.387 3.118-.583 3.313-2.135.39-1.553-.585-3.105-2.144-3.3-1.559-.387-3.117.583-3.312 2.135ZM8.573 66.171c-.39 1.553.585 3.105 2.143 3.3 1.56.387 3.118-.583 3.313-2.135.39-1.553-.585-3.105-2.143-3.3-1.56-.387-2.923.583-3.313 2.135ZM-10.522 62.096c-.39 1.553.585 3.105 2.144 3.3 1.558.387 3.117-.583 3.312-2.135.39-1.553-.584-3.105-2.143-3.3-1.364-.387-2.923.583-3.313 2.135ZM-29.421 58.021c-.39 1.553.584 3.105 2.143 3.3 1.559.387 3.117-.583 3.312-2.136.39-1.552-.584-3.104-2.143-3.298-1.559-.388-3.118.582-3.312 2.134ZM-48.516 53.752c-.39 1.552.584 3.105 2.143 3.299 1.559.388 3.118-.582 3.312-2.135.39-1.552-.584-3.104-2.143-3.298-1.364-.195-2.923.776-3.312 2.134Z" fill="#99B7CC"/><path d="M-120.414 47.737c7.794 10.672 49.101 21.733 49.101 21.733L52.218 96.055c32.734 6.986 86.316 13.778 119.83 14.942L257 114.102c21.822.776 41.501-.582 52.802-3.105 8.379 3.687 13.25 7.18 12.665 9.703-1.169 5.627-29.421 9.314-62.934 8.15l-84.758-3.105c-33.513-1.164-87.095-7.956-119.829-14.942L-68.585 84.024s-41.307-11.06-49.1-21.734c-4.677-6.403-5.457-11.643-3.118-15.524.194.388.194.582.39.97Z" fill="#CBE5EE"/><path fill="#FFF" d="m260.896 100.324 63.13 13.583 36.046-52.005-21.628-4.657z"/><path d="M1.364 81.695c-.39 1.747.78 3.493 2.533 3.881l31.565 6.792c1.753.388 3.507-.776 3.897-2.522.39-1.747-.78-3.493-2.533-3.881l-31.76-6.792c-1.754-.388-3.312.776-3.702 2.522ZM266.157 104.4l51.83 11.06 27.277-8.732-9.547-1.94z" fill="#99B7CC"/><path d="m21.628 79.755 128.597 27.75c12.47 5.239 19.68 10.672 18.9 13.777-2.143 7.568-41.112 5.821-88.265-4.27-30.59-6.791-56.504-15.135-70.728-22.315.78-2.329 1.364-4.851 1.948-7.374.585-2.523.975-5.045 1.364-7.568 2.338-.194 5.066-.194 8.184 0Z" fill="#9BADBC"/><path d="M13.444 79.755h3.702c-.195.776-.195 1.552-.39 2.328-.584 2.523-1.168 5.046-1.948 7.374 14.224 7.18 40.333 15.524 70.534 22.122 37.994 8.15 70.923 11.061 83.198 7.762.39.582.39 1.359.39 1.94-1.754 7.763-41.112 5.822-88.264-4.268-30.396-6.792-56.31-15.136-70.534-22.316.78-2.329 1.364-4.851 1.948-7.374.39-2.717.975-5.045 1.364-7.568Z" fill="#99B7CC"/><path fill="#99B7CC" d="m86.172 123.702 6.264-28.83 17.901 3.859-6.264 28.828zM-85.926 33.377l13.054 2.716 4.287 8.345-30.786-6.598c4.872-1.552 8.768-3.105 13.445-4.463Z"/><path fill="#1F294F" d="m-42.91 45.415 1.648-7.587 2.286.493-1.65 7.587zM-31.76 44.826c1.364-.194 2.339-.776 2.533-1.94.39-2.135-2.143-2.912-2.727-3.106-.39 0-2.923-.582-2.923-.582l-2.143-.388-1.56 7.568 2.144.388.585-2.522 1.558.388s1.56 2.328 1.754 2.716c.195.389.78.389.78.389l2.532.582c-.194 0-1.558-2.135-2.533-3.493Zm-1.169-1.553c-.584-.194-2.533-.582-2.533-.582l.39-1.746s2.338.582 2.728.582c.39 0 .78.582.78 1.164-.196.388-.78.776-1.365.582ZM-13.055 48.9c1.364-.193 2.339-.775 2.533-1.94.39-2.134-2.143-2.91-2.727-3.105-.39 0-2.923-.582-2.923-.582l-2.143-.388-1.56 7.568 2.144.388.585-2.522 1.558.388s1.56 2.328 1.754 2.716c.195.389.78.389.78.389l2.532.582c-.194 0-1.558-2.135-2.533-3.493Zm-1.169-1.552c-.584-.194-2.533-.582-2.533-.582l.39-1.746s2.338.582 2.728.582c.39 0 .78.582.78 1.164-.196.388-.78.776-1.365.582ZM-46.373 44.632l2.728.582-3.118-8.344-1.948-.388-5.845 6.597 2.143.388 1.169-1.358 4.092.97.78 1.553Zm-3.507-4.075 1.559-1.94.779 2.522-2.338-.582ZM-2.338 54.14l2.728.582-3.118-8.538-1.948-.388-5.846 6.598 2.144.388 1.169-1.359 4.091.97.78 1.747Zm-3.702-4.075 1.559-1.94.779 2.522-2.338-.582ZM-28.447 48.513l2.143.388.585-2.328 4.87.97.39-1.553-5.065-.97.584-1.94 5.066 1.164.39-1.746-7.404-1.553zM.585 54.723l1.754.388.974-4.27 4.286 5.434 1.559.388 1.559-7.568-1.95-.388-.778 4.463-4.287-5.627-1.558-.194zM20.459 51.812l-.39 1.746s-1.364-1.164-3.312-1.746c-1.949-.389-3.508.388-3.702 1.552-.195 1.164.779 2.523 2.727 2.91 1.949.389 3.702-.193 3.702-.193l-.39 1.94s-1.753.582-3.896 0c-2.143-.388-5.26-2.134-4.482-5.045.39-2.135 2.923-3.493 6.235-2.717 1.56.388 3.313 1.359 3.508 1.553ZM29.812 53.17l-.39 1.747-5.651-1.36-.194 1.36 5.455 1.164-.39 1.747-5.455-1.165-.195 1.165 5.456 1.358-.39 1.552-7.6-1.552 1.755-7.568z"/><path d="m30.2 60.932 5.262 1.358s1.169.194 1.948-.388c.78-.582 6.82-6.21 6.82-6.21l-5.261-1.164s-5.26 5.046-6.235 5.822c-.974.582-1.949.776-2.533.582Z" fill="#EF0000"/></g></g><g opacity=".04" fill="#000102" fill-rule="nonzero"><path d="M411.498 175.938c-.39 1.552.585 3.104 2.144 3.298 1.558.389 3.117-.582 3.312-2.134.39-1.553-.585-3.105-2.143-3.299-1.559-.388-2.923.582-3.313 2.135ZM392.404 171.863c-.39 1.552.584 3.104 2.143 3.298 1.559.388 3.117-.582 3.312-2.134.39-1.553-.584-3.105-2.143-3.3-1.364-.387-2.923.583-3.312 2.136ZM373.504 167.787c-.39 1.553.584 3.105 2.143 3.3 1.559.387 3.118-.583 3.312-2.135.39-1.553-.584-3.105-2.143-3.3-1.559-.387-3.117.583-3.312 2.135ZM354.409 163.712c-.39 1.553.585 3.105 2.143 3.3 1.56.387 3.118-.583 3.313-2.135.39-1.553-.585-3.105-2.144-3.3-1.364-.387-2.922.583-3.312 2.135ZM335.314 159.443c-.39 1.553.585 3.105 2.144 3.3 1.558.387 3.117-.583 3.312-2.135.39-1.553-.585-3.105-2.143-3.3-1.364-.387-2.923.777-3.313 2.135ZM316.414 155.368c-.39 1.553.585 3.105 2.144 3.3 1.558.387 3.117-.583 3.312-2.136.39-1.552-.584-3.104-2.143-3.298-1.559-.388-2.923.582-3.313 2.134ZM297.32 151.293c-.39 1.553.584 3.105 2.143 3.299 1.559.388 3.117-.582 3.312-2.135.39-1.552-.584-3.104-2.143-3.298-1.364-.389-2.923.582-3.312 2.134ZM278.42 147.218c-.39 1.552.584 3.105 2.143 3.299 1.559.388 3.118-.582 3.312-2.135.39-1.552-.584-3.104-2.143-3.299-1.559-.388-3.117.583-3.312 2.135ZM259.325 143.143c-.39 1.552.585 3.105 2.143 3.299 1.56.388 3.118-.582 3.313-2.135.39-1.552-.585-3.105-2.144-3.299-1.558-.388-2.922.583-3.312 2.135ZM240.23 139.068c-.39 1.552.585 3.105 2.144 3.299 1.558.388 3.117-.582 3.312-2.135.39-1.552-.585-3.105-2.143-3.299-1.364-.388-2.923.583-3.313 2.135ZM221.33 134.993c-.39 1.552.585 3.105 2.144 3.299 1.558.388 3.117-.582 3.312-2.135.39-1.552-.584-3.105-2.143-3.299-1.559-.388-3.118.582-3.313 2.135ZM202.236 130.724c-.39 1.552.584 3.105 2.143 3.299 1.559.388 3.117-.583 3.312-2.135.39-1.552-.584-3.105-2.143-3.299-1.364-.194-2.923.776-3.312 2.135ZM252.116 158.667c-.39 1.747.78 3.493 2.533 3.881l31.565 6.792c1.753.388 3.507-.776 3.896-2.523.39-1.746-.779-3.493-2.533-3.88l-31.76-6.793c-1.753-.388-3.312.777-3.701 2.523Z"/><path d="m272.38 156.727 128.597 27.749c12.47 5.24 19.68 10.673 18.9 13.777-2.144 7.568-41.112 5.822-88.265-4.269-30.59-6.791-56.505-15.136-70.728-22.316.78-2.328 1.364-4.85 1.948-7.373.585-2.523.974-5.046 1.364-7.568 2.338-.195 5.066-.195 8.184 0Z"/><path d="M264.196 156.727h3.702c-.195.776-.195 1.552-.39 2.328-.584 2.523-1.169 5.045-1.948 7.374 14.224 7.18 40.333 15.524 70.534 22.122 37.994 8.15 70.923 11.06 83.198 7.762.39.582.39 1.358.39 1.94-1.754 7.762-41.112 5.822-88.265-4.269-30.395-6.791-56.31-15.136-70.533-22.316.78-2.328 1.364-4.85 1.948-7.373.39-2.717.974-5.046 1.364-7.568Z"/><path d="m336.924 200.673 6.264-28.83 17.902 3.86-6.264 28.829zM164.826 110.348l13.054 2.717 4.287 8.344-30.786-6.597c4.871-1.553 8.768-3.105 13.445-4.464ZM207.841 122.387l1.649-7.587 2.285.492-1.648 7.587zM218.992 121.797c1.364-.194 2.338-.776 2.533-1.94.39-2.135-2.143-2.91-2.728-3.105-.39 0-2.922-.582-2.922-.582l-2.144-.388-1.558 7.568 2.143.388.585-2.523 1.558.388s1.559 2.329 1.754 2.717c.195.388.78.388.78.388l2.532.582c-.195 0-1.559-2.134-2.533-3.493Zm-1.169-1.552c-.584-.194-2.533-.582-2.533-.582l.39-1.747s2.338.583 2.728.583c.39 0 .78.582.78 1.164-.196.388-.78.776-1.365.582ZM237.697 125.872c1.364-.194 2.338-.776 2.533-1.94.39-2.135-2.143-2.91-2.728-3.105-.39 0-2.922-.582-2.922-.582l-2.143-.388-1.56 7.568 2.144.388.585-2.523 1.558.388s1.56 2.329 1.754 2.717c.195.388.78.388.78.388l2.532.582c-.195 0-1.558-2.134-2.533-3.493Zm-1.169-1.552c-.584-.194-2.533-.582-2.533-.582l.39-1.747s2.338.583 2.728.583c.39 0 .78.582.78 1.164-.196.388-.78.776-1.365.582ZM204.379 121.603l2.728.582-3.118-8.344-1.948-.388-5.846 6.598 2.144.388 1.169-1.358 4.092.97.779 1.552Zm-3.507-4.075 1.559-1.94.779 2.522-2.338-.582Z"/><path d="m248.414 131.112 2.728.582-3.118-8.538-1.948-.388-5.846 6.597 2.144.388 1.169-1.358 4.091.97.78 1.747Zm-3.702-4.075 1.558-1.94.78 2.522-2.338-.582ZM222.304 125.484l2.143.388.585-2.328 4.871.97.39-1.553-5.066-.97.584-1.94 5.066 1.164.39-1.746-7.404-1.553zM251.336 131.694l1.754.388.974-4.269 4.286 5.433 1.56.388 1.558-7.568-1.949-.388-.779 4.463-4.287-5.627-1.558-.194zM271.21 128.783l-.39 1.747s-1.363-1.165-3.312-1.747c-1.948-.388-3.507.388-3.702 1.553-.194 1.164.78 2.522 2.728 2.91 1.949.388 3.702-.194 3.702-.194l-.39 1.94s-1.753.583-3.896 0c-2.144-.387-5.261-2.134-4.482-5.044.39-2.135 2.923-3.493 6.235-2.717 1.56.388 3.313 1.358 3.508 1.552ZM280.563 130.141l-.39 1.747-5.65-1.359-.195 1.36 5.455 1.163-.39 1.747-5.455-1.165-.195 1.165 5.456 1.358-.39 1.552-7.599-1.552 1.754-7.568zM280.953 137.904l5.26 1.358s1.17.194 1.949-.388c.78-.582 6.82-6.21 6.82-6.21l-5.261-1.164s-5.261 5.045-6.235 5.821c-.975.583-1.949.777-2.533.583Z"/></g><path d="M266.015 199.71c10.044-10.004 26.328-10.004 36.372 0 7.344 7.314 9.318 17.952 5.922 27.053 6.957 1.552 12.197 7.772 12.197 15.152 0 8.538-7.014 15.524-15.587 15.524h-67.222c-8.467 0-15.414-6.814-15.584-15.209l-.003-.315c0-6.4 3.941-11.928 9.526-14.295a17.258 17.258 0 0 1-.369-3.558c0-9.538 7.764-17.27 17.342-17.27 4.13 0 7.923 1.438 10.902 3.84a25.475 25.475 0 0 1 6.504-10.923Z" fill="#FFF" fill-rule="nonzero" opacity=".505"/><g fill-rule="nonzero"><path d="M237.697 123.544c.195-.388-.39-.97-.78-1.164-.389 0-2.727-.583-2.727-.583l-.39 1.747s1.949.388 2.533.582c.78.388 1.364 0 1.364-.582ZM246.465 124.902l-1.753 2.135 2.533.388zM202.431 115.588l-1.559 1.94 2.338.582z" fill="#FFF"/><path d="M129.948 123.932c.195.194.195.388.39.776 7.794 10.673 49.1 21.734 49.1 21.734l78.718 16.882-3.702-.776c-1.754-.388-2.923-2.134-2.533-3.88.39-1.747 2.143-2.912 3.897-2.524l7.988 1.747c0-.388.195-.776.195-1.164 2.533-.195 5.261 0 8.184 0l128.597 27.749c2.143.776 3.897 1.746 5.65 2.522 5.65.389-32.149-7.762-27.278-7.568 3.897-14.36-5.845-28.913-6.43-35.705l-174.775-37.84c-.78-.194-17.926 1.165-24.16 2.329-6.04 1.164-10.522 2.717-14.809 4.269 1.949-.582 3.897-1.358 5.846-1.94l13.054 2.716 4.287 8.344-30.786-6.597c-2.728.97-5.845 1.746-9.352 2.328-13.25 2.523-16.952 9.703-10.911 19.793-2.923-5.433-3.313-9.896-1.17-13.195Zm281.55 52.006c.39-1.553 1.754-2.523 3.313-2.135 1.558.388 2.533 1.746 2.143 3.299-.39 1.552-1.754 2.523-3.312 2.134-1.56-.194-2.533-1.746-2.144-3.298Zm-203.612-43.856c-.39 1.552-1.753 2.523-3.312 2.135-1.559-.388-2.533-1.747-2.143-3.3.39-1.552 1.753-2.522 3.312-2.134 1.364.194 2.338 1.747 2.143 3.3Zm37.995 8.15c-.39 1.553-1.754 2.523-3.313 2.135-1.558-.388-2.533-1.747-2.143-3.3.39-1.551 1.754-2.522 3.312-2.134 1.56.194 2.533 1.747 2.144 3.3Zm19.095 4.075c-.39 1.553-1.754 2.523-3.313 2.135-1.559-.388-2.533-1.747-2.143-3.299.39-1.552 1.753-2.523 3.312-2.135 1.364.194 2.338 1.747 2.144 3.3Zm18.9 4.075c-.39 1.553-1.949 2.523-3.313 2.135-1.559-.388-2.533-1.94-2.143-3.299.39-1.552 1.753-2.523 3.312-2.135 1.559.389 2.533 1.747 2.143 3.3Zm108.528 23.48c.39-1.552 1.753-2.522 3.312-2.134 1.559.388 2.533 1.746 2.143 3.299-.39 1.552-1.753 2.522-3.312 2.134a3.02 3.02 0 0 1-2.143-3.298Zm-18.9-4.075c.39-1.552 1.753-2.522 3.312-2.134 1.559.388 2.533 1.746 2.143 3.299-.39 1.552-1.948 2.522-3.312 2.134-1.559-.388-2.533-1.746-2.143-3.299Zm-19.095-4.075c.39-1.552 1.754-2.522 3.312-2.134 1.56.388 2.533 1.746 2.144 3.299-.39 1.552-1.754 2.522-3.313 2.134-1.558-.388-2.533-1.94-2.143-3.299Zm-19.095-4.269c.39-1.552 1.754-2.522 3.313-2.134 1.558.388 2.533 1.746 2.143 3.299-.39 1.552-1.754 2.522-3.312 2.134-1.364-.194-2.339-1.746-2.144-3.299Zm-18.9-4.075c.39-1.552 1.754-2.522 3.313-2.134 1.559.388 2.533 1.746 2.143 3.298-.39 1.553-1.754 2.523-3.312 2.135-1.56-.194-2.533-1.746-2.144-3.299Zm-19.094-4.075c.39-1.552 1.753-2.523 3.312-2.134 1.559.388 2.533 1.746 2.143 3.298-.39 1.553-1.753 2.523-3.312 2.135-1.364-.194-2.338-1.746-2.143-3.299Zm-16.367-13.39c.584 0 1.558 0 2.533-.776.974-.582 6.235-5.821 6.235-5.821l5.26 1.164s-5.845 5.434-6.819 6.21c-.78.582-1.948.388-1.948.388l-5.261-1.164Zm-.39-7.761-.39 1.552-5.65-1.164-.195 1.358 5.456 1.164-.39 1.747-5.456-1.165-.194 1.165 5.455 1.164-.39 1.553-7.598-1.553 1.558-7.568 7.794 1.747Zm-18.9 0c.39-2.135 2.923-3.493 6.235-2.717 1.559.388 3.118 1.164 3.507 1.552l-.39 1.747s-1.363-1.165-3.312-1.747c-1.948-.388-3.507.388-3.702 1.553-.195 1.164.78 2.522 2.728 2.91 1.949.389 3.702-.194 3.702-.194l-.39 1.94s-1.753.583-3.896 0c-2.144-.581-5.261-2.134-4.482-5.044Zm-8.768-5.822 1.559.388 4.286 5.434.975-4.27 1.948.389-1.559 7.568-1.558-.389-4.287-5.433-.974 4.463-1.754-.388 1.364-7.762Zm-4.87-1.164 3.117 8.538-2.728-.582-.585-1.747-4.092-.97-1.169 1.358-2.143-.388 5.845-6.597 1.754.388Zm-13.445-2.911s2.533.582 2.922.582c.39 0 3.118.776 2.728 3.105-.195 1.164-1.169 1.746-2.533 1.94.975 1.359 2.338 3.493 2.338 3.493l-2.533-.582s-.39 0-.779-.388c-.195-.388-1.754-2.717-1.754-2.717l-1.558-.388-.585 2.523-2.143-.388 1.559-7.568 2.338.388Zm-10.717-2.329 7.404 1.553-.39 1.746-5.065-1.164-.39 1.94 5.066 1.165-.39 1.552-5.066-1.164-.584 2.328-2.143-.388 1.558-7.568Zm.78 14.748c1.559.388 2.533 1.747 2.143 3.3-.39 1.552-1.754 2.522-3.312 2.134-1.56-.388-2.533-1.747-2.144-3.3.195-1.358 1.754-2.328 3.313-2.134Zm-10.912-16.882 2.144.388s2.533.582 2.922.582c.39 0 3.118.776 2.728 3.105-.195 1.164-1.169 1.746-2.533 1.94.974 1.359 2.338 3.493 2.338 3.493l-2.533-.582s-.39 0-.779-.388c-.195-.388-1.754-2.717-1.754-2.717l-1.363-.388-.585 2.523-2.143-.388 1.558-7.568Zm-4.286-.97 2.338.582-1.559 7.568-2.338-.582 1.559-7.568Zm-7.404-1.553 1.948.388 3.118 8.538-2.728-.582-.585-1.746-4.091-.97-1.17 1.358-2.143-.388 5.65-6.598Z" fill="#FFF"/><path d="M218.992 119.663c.195-.388-.39-.97-.78-1.164-.389 0-2.727-.583-2.727-.583l-.39 1.747s1.949.388 2.533.582c.78.194 1.364-.194 1.364-.582ZM133.066 139.456c-.195-.388-.585-.776-.78-1.164.195.388.39.776.78 1.164ZM132.092 138.098c-.195-.388-.39-.582-.585-.97.195.388.39.582.585.97Z" fill="#FFF"/><path d="M413.642 179.236c1.558.389 3.117-.582 3.312-2.134.39-1.553-.585-3.105-2.143-3.299-1.559-.388-3.118.582-3.313 2.135-.39 1.552.585 3.104 2.144 3.298ZM394.742 175.161c1.559.388 3.117-.582 3.312-2.134.39-1.553-.584-3.105-2.143-3.3-1.559-.387-3.118.583-3.313 2.136-.39 1.552.585 2.91 2.144 3.298ZM375.647 171.086c1.559.388 3.118-.582 3.312-2.134.39-1.553-.584-3.105-2.143-3.3-1.559-.387-3.117.583-3.312 2.135-.39 1.553.584 2.911 2.143 3.3ZM356.552 167.011c1.56.388 3.118-.582 3.313-2.134.39-1.553-.585-3.105-2.144-3.3-1.558-.387-3.117.583-3.312 2.135-.39 1.359.585 2.911 2.143 3.3ZM337.652 162.936c1.56.388 3.118-.582 3.313-2.134.39-1.553-.585-3.105-2.144-3.3-1.558-.387-3.117.583-3.312 2.135-.39 1.359.585 2.911 2.143 3.3ZM318.558 158.861c1.558.388 3.117-.582 3.312-2.134.39-1.553-.584-3.105-2.143-3.3-1.559-.387-3.118.583-3.313 2.135-.39 1.359.585 2.911 2.144 3.3ZM299.463 154.786c1.559.388 3.117-.582 3.312-2.135.39-1.552-.584-3.104-2.143-3.298-1.559-.388-3.117.582-3.312 2.134-.195 1.359.779 2.91 2.143 3.299ZM281.732 145.083c-1.559-.388-3.117.583-3.312 2.135-.39 1.552.584 3.105 2.143 3.299 1.559.388 3.118-.582 3.312-2.135.39-1.552-.584-2.91-2.143-3.299ZM262.637 141.008c-1.558-.388-3.117.583-3.312 2.135-.39 1.552.585 3.105 2.143 3.299 1.56.388 3.118-.582 3.313-2.135.39-1.552-.585-3.105-2.144-3.299ZM243.737 136.933c-1.558-.388-3.117.583-3.312 2.135-.39 1.552.585 3.105 2.143 3.299 1.56.388 3.118-.582 3.313-2.135.39-1.552-.585-3.105-2.144-3.299ZM223.474 138.292c1.558.388 3.117-.582 3.312-2.135.39-1.552-.584-3.105-2.143-3.299-1.559-.388-3.118.582-3.313 2.135-.39 1.552.585 2.91 2.144 3.299ZM205.743 128.59c-1.559-.389-3.118.581-3.312 2.134-.39 1.552.584 3.105 2.143 3.299 1.559.388 3.117-.583 3.312-2.135.195-1.358-.78-2.91-2.143-3.299Z" fill="#99B7CC"/><path d="m132.287 138.292-.195-.194s0 .194.195.194ZM412.278 201.94c1.559.194 3.312.194 4.87.194" fill="#CBE5EE"/><path d="m262.832 164.295-4.481-.97-78.717-16.883s-41.307-11.061-49.101-21.734c-.195-.194-.195-.388-.39-.776-2.143 3.493-1.753 7.762 1.364 13.195v.194c.195.389.39.583.585.97l.195.195c.194.388.584.776.779 1.164 7.794 10.673 49.1 21.734 49.1 21.734l123.532 26.585c1.559.388 3.117.582 4.871.97-21.043-5.433-38.774-11.643-49.49-17.076.39-2.717 1.169-5.046 1.753-7.568Z" fill="#CBE5EE"/><path d="m263.806 157.89-7.988-1.746c-1.754-.388-3.507.777-3.897 2.523-.39 1.747.78 3.493 2.533 3.881l3.702.776 4.481.97c.585-2.134.975-4.269 1.17-6.403ZM258.156 163.324l4.676.97z" fill="#99B7CC"/><path d="M267.898 156.532c-.195.777-.195 1.359-.39 2.135l19.875 4.27c1.753.387 2.922 2.134 2.533 3.88-.39 1.747-2.144 2.91-3.897 2.523l16.951 3.687c11.106 2.328 24.356 4.657 38.58 6.792l1.753-7.762 17.926 3.88-1.364 6.404a747.042 747.042 0 0 0 46.762 4.657c-1.753-.776-3.702-1.746-5.65-2.522l-128.597-27.75h-8.184c.974-.194 2.338-.194 3.702-.194Z" fill="#9BADBC"/><path d="m302.97 172.833-16.951-3.687-20.07-4.27c-.194.389-.194.97-.389 1.359 14.224 7.18 40.333 15.524 70.534 22.122 1.169.194 2.338.388 3.312.776l1.948-9.314c-14.028-2.135-27.278-4.464-38.384-6.986ZM406.432 186.998c-14.418-.97-30.59-2.716-46.762-4.657l-2.338 10.285c28.447 4.851 51.828 6.21 61.765 3.687 0 .194.195.194.195.388-.78-2.91-5.455-6.21-12.86-9.703Z" fill="#9BADBC"/><path d="M289.916 166.817c.39-1.746-.78-3.493-2.533-3.88l-19.875-4.27v.194c-.39 2.135-.974 4.075-1.558 6.016l20.069 4.269c1.753.388 3.507-.582 3.897-2.329ZM286.019 169.146l-20.069-4.27z" fill="#9BADBC"/><path d="M356.357 198.447c24.94 4.076 45.594 5.434 56.116 3.493-16.757-1.164-36.436-3.104-55.531-5.627l-.585 2.134ZM310.374 188.745a480.198 480.198 0 0 0 21.043 5.045c2.339.582 4.482.97 6.82 1.359l.39-1.553c-10.132-1.552-19.874-3.105-28.253-4.851ZM267.898 156.532h-3.702c0 .389-.195.777-.195 1.165l3.702.776c0-.582 0-1.164.195-1.94Z" fill="#99B7CC"/><path d="M339.6 189.133c-1.168-.194-2.337-.388-3.311-.776-30.396-6.598-56.31-14.942-70.534-22.122.195-.388.195-.97.39-1.358l-3.118-.777c-.584 2.523-1.169 5.046-1.948 7.374 10.91 5.434 28.447 11.643 49.49 17.077 8.378 1.746 18.12 3.299 28.252 5.045l.78-4.463Z" fill="#99B7CC"/><path d="M265.95 164.877c.584-1.94 1.169-3.881 1.558-6.016v-.194l-3.702-.776-1.169 6.404 3.313.582ZM262.832 164.294l3.118.582zM337.068 200.776l17.926 3.881 1.363-6.21c-5.845-.97-11.885-2.134-18.12-3.298l-1.17 5.627ZM343.303 171.863l-1.754 7.762c6.04.97 12.08 1.746 18.12 2.522l1.365-6.403-17.731-3.881Z" fill="#99B7CC"/><path d="m341.55 179.625-1.95 9.314a412.839 412.839 0 0 0 17.927 3.493l2.338-10.285c-6.235-.776-12.276-1.552-18.316-2.522ZM338.627 193.596l-.39 1.553c6.235 1.164 12.275 2.328 18.12 3.298l.39-2.134c-6.235-.97-12.275-1.747-18.12-2.717Z" fill="#99B7CC"/><path d="M338.627 193.596c5.845.97 12.08 1.747 18.12 2.523l.78-3.687a323.523 323.523 0 0 1-17.926-3.493l-.974 4.657ZM151.576 114.812c2.728-.777 5.066-1.747 7.404-2.523-2.338.776-4.87 1.746-7.404 2.523Z" fill="#99B7CC"/><path d="m177.88 113.065-13.054-2.717c-2.144.583-3.897 1.359-5.846 1.94-2.338.777-4.87 1.747-7.404 2.524l30.786 6.597-4.482-8.344Z" fill="#99B7CC"/><path fill="#1F294F" d="m207.846 122.39 1.648-7.587 2.285.493-1.649 7.587zM214.9 121.215l1.56.388s1.558 2.329 1.753 2.717c.195.388.78.388.78.388l2.532.582s-1.364-2.134-2.338-3.493c1.364-.194 2.338-.776 2.533-1.94.39-2.135-2.143-2.91-2.728-3.105-.39 0-2.922-.582-2.922-.582l-2.339-.388-1.558 7.568 2.143.388.585-2.523Zm.78-3.299s2.338.583 2.728.583c.39 0 .78.582.78 1.164-.196.388-.585.776-1.17.776-.584-.194-2.533-.582-2.533-.582l.195-1.94ZM233.021 127.813l.585-2.523 1.558.388s1.56 2.329 1.754 2.717c.195.388.78.388.78.388l2.532.582s-1.364-2.134-2.338-3.493c1.364-.194 2.338-.776 2.533-1.94.39-2.135-2.143-2.91-2.728-3.105-.39 0-2.922-.582-2.922-.582l-2.144-.388-1.558 7.568 1.948.388Zm1.364-5.822s2.338.583 2.728.583c.39 0 .78.582.78 1.164-.196.388-.585.776-1.17.776-.584-.194-2.533-.582-2.533-.582l.195-1.94ZM199.703 118.887l4.091.97.585 1.746 2.728.582-3.118-8.344-1.948-.388-5.846 6.598 2.144.388 1.364-1.552Zm2.728-3.3.779 2.523-2.338-.582 1.559-1.94ZM242.374 129.753l1.169-1.358 4.091.97.585 1.747 2.728.582-2.923-8.538-1.948-.388-5.846 6.597 2.144.388Zm4.091-4.85.78 2.522-2.533-.388 1.753-2.135ZM225.032 123.544l4.872.97.389-1.552-5.066-.97.585-1.94 5.066 1.163.389-1.746-7.404-1.553-1.558 7.568 2.143.388zM254.064 127.813l4.287 5.433 1.559.388 1.558-7.568-1.948-.388-.78 4.463-4.286-5.627-1.559-.194-1.559 7.374 1.754.388zM266.145 135.187c2.143.388 3.896 0 3.896 0l.39-1.94s-1.753.776-3.702.193c-1.948-.388-3.117-1.746-2.728-2.91.195-1.165 1.754-1.94 3.702-1.553 1.949.388 3.313 1.747 3.313 1.747l.39-1.747c-.39-.388-1.95-1.164-3.508-1.552-3.312-.776-5.845.776-6.235 2.717-.78 2.91 2.338 4.463 4.482 5.045ZM278.809 137.71l.39-1.553-5.455-1.358.194-1.165 5.456 1.165.39-1.747-5.456-1.164.195-1.358 5.65 1.358.39-1.747-7.599-1.552-1.753 7.568z"/><path d="M288.162 138.874c.78-.582 6.82-6.21 6.82-6.21l-5.261-1.164s-5.261 5.045-6.235 5.821c-.975.583-1.949.777-2.533.777v.194l5.26 1.164c0-.194 1.17 0 1.949-.582Z" fill="#EF0000"/><path d="M419.682 197.477v.582-.582Z" fill="#FFF"/></g><path fill="#99B7CC" fill-rule="nonzero" d="m254.649 156.144 143.21 30.854 75.015-21.927-26.693-5.822z"/><path d="M385.346 70.916c10.044-10.003 26.329-10.003 36.373 0 7.332 7.303 9.312 17.917 5.939 27.008l.258.06a15.458 15.458 0 0 1 11.835 15.081c0 8.538-7.015 15.524-15.588 15.524h-67.221c-8.467 0-15.414-6.814-15.584-15.208l-.004-.316c0-6.468 4.026-12.046 9.705-14.37a17.301 17.301 0 0 1-.352-3.483c0-9.538 7.764-17.27 17.341-17.27 4.097 0 7.862 1.415 10.829 3.78a25.476 25.476 0 0 1 6.47-10.806Z" fill="#FFF" fill-rule="nonzero" opacity=".502"/><path d="M385.346 70.916c10.044-10.003 26.329-10.003 36.373 0 7.332 7.303 9.312 17.917 5.939 27.008l.258.06a15.458 15.458 0 0 1 11.835 15.081c0 8.538-7.015 15.524-15.588 15.524h-67.221c-8.467 0-15.414-6.814-15.584-15.208l-.004-.316c0-6.468 4.026-12.046 9.705-14.37a17.301 17.301 0 0 1-.352-3.483c0-9.538 7.764-17.27 17.341-17.27 4.097 0 7.862 1.415 10.829 3.78a25.476 25.476 0 0 1 6.47-10.806Z" fill="#FFF" fill-rule="nonzero" opacity=".502"/></g></svg>
