<svg xmlns="http://www.w3.org/2000/svg" width="88" height="32" fill="none"><path fill="#fff" fill-rule="evenodd" d="M0 30.123h60.364L59.172 32H0v-1.877ZM71.35 29.283h-2.228l4.476-7.077s.665-1.466-.215-3.01l-6.236-10.34s-.547-.959 0-1.877l1.857-2.776 7.33 11.983s1.897 2.502-.156 5.61l-4.828 7.487Z" clip-rule="evenodd"/><path fill="#fff" fill-rule="evenodd" d="m76.706 27.113 2.717-4.144s.802-1.72 2.854-1.72h2.893l2.014 3.186s-1.584-.156-2.307.977l-2.971 4.477s-.978 2.091-3.558 2.091H64.352l5.317-8.17s.762-.958-.293-2.542l-4.731-7.623s-1.173-1.134.04-3.05l1.387-2.092 6.588 10.674s1.172 1.466 0 3.225l-4.946 7.682h10.42s1.172.215 2.188-1.29l2.6-3.988s.587-1.349 1.897-1.896h-2.092s-1.095.04-1.935 1.349l-2.307 3.558s-.84 1.505-2.678 1.505H72.17l4.398-6.822s2.405-3.148.704-6.04L69.982 4.397s-.548-1.036.078-2.013L71.643 0l8.308 13.37s1.212 1.995 1.212 3.559c0 1.544-.977 3.303-1.505 4.183L76.002 26.8s-.41.548-.117.763c.293.234.567-.137.821-.45ZM30.397 21.307h1.29v5.102h3.147v1.095h-4.437v-6.197ZM35.812 27.523h1.27v-6.196h-1.27v6.196ZM20.115 27.523h1.27v-6.196h-1.27v6.196ZM46.25 21.307h4.868v1.017H47.54v1.524h3.03v1.134h-3.03v1.505h3.577v1.037H46.25v-6.217ZM53.092 12.98h4.868v1.016h-3.578v1.505h3.05v1.134h-3.05v1.505h3.578v1.017h-4.868V12.98ZM23.34 27.523v-6.196h3.695s1.779.039 1.779 1.798c0 0 .156 1.486-1.35 2.072l1.877 2.326h-1.583l-2.58-3.225h1.348s.958-.02.958-.997c0-.919-.782-.997-1.016-.997H24.63v5.2l-1.29.02ZM46.035 19.157V12.98h3.695s1.779.039 1.779 1.798c0 0 .156 1.466-1.349 2.072l1.877 2.307h-1.603l-2.58-3.206h1.348s.958-.02.958-.997c0-.938-.782-.997-1.016-.997h-1.819v5.18l-1.29.02ZM20.193 18.082h1.74v-2.835h1.231v3.91H19.94c-.489 0-2.835-.547-2.854-3.01-.02-2.444 2.111-3.167 2.932-3.167h3.186v1.095H20.33s-1.935 0-1.935 2.033c.02 1.583 1.602 1.974 1.798 1.974ZM38.783 21.307h1.31v.958l.82-.958h1.545s2.111-.117 2.111 2.13v4.067h-1.31v-4.262s-.038-.84-.938-.84h-2.248v5.102h-1.31l.02-6.197ZM10.145 12.98h1.29v.958l.822-.958H13.8s2.111-.117 2.111 2.13v4.047h-1.31v-4.242s-.058-.84-.938-.84h-2.229v5.082h-1.29V12.98ZM7.096 19.157h1.27V12.98h-1.27v6.177ZM52.525 27.504v-1.056h3.597s.704.137.704-.723-.528-.782-.723-.782H54.03s-1.603.117-1.603-1.76c0-1.876 1.583-1.876 1.583-1.876h3.949v1.095H54.5s-.763 0-.763.704c0 .703.508.84.978.84h1.857s1.563-.156 1.563 1.7c0 1.858-1.602 1.858-1.602 1.858h-4.008ZM.137 19.157V18.1h3.597s.703.137.703-.723-.527-.782-.723-.782H1.622S.02 16.713.02 14.836c0-1.876 1.583-1.876 1.583-1.876h3.949v1.095h-3.46s-.763 0-.763.704c0 .703.508.84.978.84h1.857s1.564-.156 1.564 1.681c0 1.857-1.603 1.857-1.603 1.857l-3.988.02ZM41.617 12.589a3.396 3.396 0 0 0-3.381 3.382 3.383 3.383 0 0 0 3.382 3.381 3.37 3.37 0 0 0 3.381-3.381 3.383 3.383 0 0 0-3.382-3.382Zm0 5.512a2.12 2.12 0 0 1-2.11-2.13 2.12 2.12 0 0 1 2.11-2.131c1.173 0 2.131.977 2.131 2.13 0 1.193-.958 2.131-2.13 2.131ZM28.325 12.98h-1.368l-2.952 6.177h1.446l.782-1.779h2.796l.782 1.779h1.446m-4.652-2.678 1.036-2.522 1.016 2.522h-2.052ZM16.225 21.307h-1.369l-2.932 6.216h1.447l.782-1.778h2.795l.782 1.778h1.447m-4.653-2.697 1.036-2.541 1.017 2.54h-2.053ZM35.499 12.98h-3.44v6.177h1.31v-3.01l.762 1.055h1.349c1.192 0 1.993-.997 1.993-2.111.02-1.134-.782-2.111-1.974-2.111Zm-.04 3.069h-2.071v-1.935h2.072c.47 0 .782.508.782.977 0 .489-.313.958-.782.958Z" clip-rule="evenodd"/></svg>