<svg width="109" height="24" viewBox="0 0 109 24" fill="none" xmlns="http://www.w3.org/2000/svg">
<g clip-path="url(#clip0_1806_10797)">
<path d="M92.5184 9.15297C92.3937 9.0969 92.3162 9.06454 92.241 9.02783C91.5977 8.7141 90.9471 8.41947 90.2599 8.21001C89.4636 7.96721 88.6514 7.93752 87.8308 8.0128C86.7457 8.1124 85.7158 8.43413 84.6976 8.80159C83.8877 9.09388 83.0818 9.3983 82.266 9.67341C81.296 10.0006 80.3029 10.2418 79.2814 10.342C78.4377 10.4248 77.5908 10.4572 76.7433 10.4298C76.0577 10.4076 75.3698 10.4153 74.6886 10.3149C74.1472 10.2351 73.6053 10.159 73.0656 10.0689C71.6836 9.83792 70.2931 9.75748 68.897 9.86652C67.6382 9.96479 66.3826 10.102 65.1249 10.2141C64.3251 10.2854 63.5244 10.3494 62.7233 10.404C61.434 10.4918 60.1445 10.5802 58.8541 10.6475C57.7894 10.703 56.7234 10.7487 55.6576 10.7623C53.8834 10.7849 52.1081 10.8081 50.3341 10.7751C48.809 10.7467 47.2837 10.6627 45.7615 10.5613C44.553 10.4807 43.3487 10.3369 42.1427 10.2196C42.0632 10.2119 41.9852 10.1906 41.9058 10.1546C42.0575 10.1546 42.2089 10.1561 42.3603 10.1544C44.1932 10.1342 46.0264 10.1237 47.8593 10.0898C49.3415 10.0624 50.8238 10.0236 52.3046 9.95896C53.8071 9.89336 55.3101 9.81682 56.8088 9.69541C58.3799 9.56812 59.9495 9.4077 61.514 9.21509C63.7096 8.94479 65.8876 8.5612 68.0403 8.04703C69.3121 7.74331 70.5648 7.37433 71.7675 6.85289C71.84 6.82145 71.9106 6.78554 72.0162 6.7356C71.9419 6.70332 71.9014 6.67867 71.8574 6.66747C69.7299 6.12721 67.7659 5.20623 65.8865 4.09235C65.2397 3.709 64.6038 3.30733 63.9657 2.90928C62.2246 1.8231 60.3354 1.14427 58.3057 0.858537C57.3494 0.723778 56.3873 0.67557 55.4216 0.749852C55.3274 0.757083 55.2329 0.759056 55.1302 0.740212C55.1705 0.721587 55.2093 0.697702 55.2513 0.685432C56.3469 0.362887 57.4638 0.156476 58.6026 0.0620356C59.6537 -0.0253935 60.7044 -0.0210114 61.7531 0.0791264C63.4773 0.243686 65.1459 0.647085 66.7643 1.26676C67.673 1.6145 68.5484 2.02995 69.4078 2.48377C70.1112 2.85522 70.8148 3.2281 71.5326 3.57043C72.5993 4.07912 73.7337 4.38624 74.8873 4.62313C76.1414 4.88062 77.4107 5.01224 78.6889 5.07314C80.5803 5.16324 82.4711 5.10364 84.3619 5.05788C85.3549 5.03385 86.3305 5.15287 87.2845 5.4239C89.1512 5.95422 90.7475 6.91699 91.9997 8.41719C92.1446 8.59069 92.2741 8.77716 92.4082 8.95947C92.4408 9.0038 92.4634 9.05547 92.5184 9.15297Z" fill="#C21B31"/>
<path d="M36.6645 23.9246C36.3288 23.9969 35.0528 24.0201 34.6227 23.9579C34.6405 23.861 34.6565 23.7642 34.6766 23.668C35.0114 22.0835 35.3484 20.4995 35.6806 18.9144C35.7496 18.5847 35.763 18.2506 35.7124 17.8986C34.9266 17.7977 34.1492 17.8152 33.3395 17.8651C33.1235 18.874 32.9048 19.8834 32.6918 20.894C32.4786 21.9063 32.2709 22.9199 32.0623 23.9268C31.6668 23.9962 30.3663 24.0203 30.0352 23.9616C30.5015 21.491 31.0515 19.0386 31.5855 16.5563C31.6909 16.5563 31.7836 16.5565 31.8765 16.5563C33.6945 16.5515 35.5128 16.5456 37.3308 16.5424C38.5794 16.5402 39.8281 16.5378 41.0767 16.5453C41.2932 16.5466 41.5149 16.5754 41.7248 16.6287C42.1797 16.7442 42.4679 17.1132 42.4966 17.5789C42.5229 18.0069 42.4317 18.4213 42.3443 18.8354C41.999 20.4699 41.6519 22.1041 41.305 23.7381C41.2914 23.8019 41.2741 23.8648 41.252 23.955C40.585 24.0094 39.9171 23.9936 39.219 23.9835C39.2378 23.8744 39.2505 23.7843 39.2694 23.6954C39.6075 22.1041 39.9465 20.513 40.285 18.9218C40.3556 18.5907 40.3641 18.2572 40.3273 17.8912C39.5336 17.8085 38.7455 17.7926 37.9292 17.8922C37.507 19.9065 37.0854 21.917 36.6645 23.9246Z" fill="#C21B31"/>
<path d="M66.2628 20.24C66.2917 20.2415 66.3268 20.2481 66.3609 20.2445C67.8396 20.0894 69.3186 19.9381 70.7964 19.7748C71.2892 19.7203 71.6779 19.366 71.7907 18.9114C71.8876 18.5212 71.7498 18.1968 71.3974 18.0088C71.3023 17.9581 71.1969 17.909 71.092 17.8975C70.7668 17.8619 70.4401 17.8331 70.1134 17.8235C69.7126 17.8118 69.3114 17.8196 68.9102 17.8237C68.2905 17.83 67.6708 17.8433 67.0512 17.8468C66.919 17.8476 66.8268 17.8884 66.7738 18.0101C66.7129 18.1501 66.6263 18.2847 66.5954 18.4311C66.4707 19.0215 66.3634 19.6155 66.2501 20.2082C66.249 20.2141 66.2551 20.2213 66.2628 20.24ZM70.7372 21.1425C71.3959 22.0976 72.0318 23.0199 72.669 23.9439C72.6306 23.9656 72.6188 23.9781 72.607 23.9781C71.9428 23.9753 71.2784 23.968 70.6141 23.9704C70.4456 23.9711 70.3562 23.8894 70.2668 23.759C69.7461 23.0004 69.215 22.249 68.6928 21.4916C68.6087 21.3697 68.5252 21.3259 68.369 21.3456C67.6811 21.4325 66.9916 21.5077 66.3013 21.5728C66.0824 21.5934 65.9652 21.6945 65.8887 21.8925C65.756 22.2359 65.6874 22.5928 65.6262 22.9528C65.5715 23.2758 65.5127 23.5981 65.4529 23.9376C64.7693 24.0213 64.1005 23.988 63.4508 23.9794C63.4272 23.9582 63.421 23.9542 63.4173 23.9487C63.4133 23.9428 63.4081 23.9347 63.4094 23.9288C63.5446 23.257 63.6756 22.5843 63.8172 21.9138C64.1912 20.1446 64.5699 18.3763 64.9494 16.5956C65.1904 16.5808 65.4225 16.555 65.6547 16.554C67.3345 16.5473 69.0143 16.5422 70.694 16.5443C71.2151 16.5449 71.729 16.6162 72.2176 16.8087C72.3863 16.8751 72.5528 16.9557 72.7056 17.0529C73.4289 17.5126 73.694 18.2194 73.4458 19.0421C73.1971 19.8656 72.646 20.42 71.8622 20.7471C71.58 20.8648 71.2855 20.9535 70.9964 21.055C70.9222 21.081 70.8474 21.1053 70.7372 21.1425Z" fill="#C21B31"/>
<path d="M17.1781 20.256C17.2629 20.256 17.3271 20.2617 17.39 20.2552C18.1803 20.1732 18.971 20.094 19.7606 20.0049C20.4414 19.9281 21.1217 19.8461 21.8006 19.7539C22.2183 19.6972 22.5179 19.4531 22.6669 19.0676C22.8764 18.5256 22.7089 18.1741 22.2227 17.9585C21.985 17.853 21.73 17.8203 21.4747 17.8217C20.2785 17.8286 19.0824 17.8429 17.8862 17.856C17.8085 17.8568 17.731 17.8691 17.6425 17.8771C17.4717 18.6736 17.2789 19.4485 17.1781 20.256ZM23.5707 23.9634C23.4614 23.9717 23.3911 23.9814 23.3205 23.9816C22.7293 23.9827 22.1381 23.9789 21.547 23.984C21.4161 23.9853 21.3341 23.9391 21.26 23.8321C20.7282 23.0639 20.1871 22.3022 19.6589 21.5318C19.5628 21.3916 19.4624 21.3439 19.2976 21.3633C18.5299 21.4538 17.7615 21.5381 16.9926 21.618C16.8572 21.6321 16.8144 21.6952 16.7885 21.8212C16.6551 22.4712 16.5115 23.1191 16.3702 23.7675C16.3549 23.8376 16.3317 23.9058 16.3129 23.9722C15.6488 23.9722 14.9953 23.9722 14.3054 23.9722C14.8359 21.4869 15.3604 19.0292 15.8853 16.5705C15.9499 16.5612 15.9917 16.5498 16.0336 16.5498C17.9461 16.5485 19.8587 16.543 21.7712 16.5515C22.2392 16.5535 22.7004 16.6358 23.1426 16.8017C23.461 16.9212 23.7504 17.0873 23.9884 17.3332C24.4759 17.8371 24.5599 18.4349 24.3596 19.0796C24.1332 19.8085 23.6566 20.3361 22.9697 20.6592C22.6344 20.8169 22.2779 20.9297 21.9311 21.063C21.8639 21.0888 21.7971 21.1152 21.7042 21.1514C22.2834 22.1125 22.9763 22.9798 23.5707 23.9634Z" fill="#C21B31"/>
<path d="M7.00704 20.6832C6.94262 20.6832 6.91422 20.6804 6.88646 20.6836C5.51646 20.838 4.14608 20.9895 2.77682 21.1504C2.44672 21.1892 2.16119 21.3374 1.95961 21.6105C1.69101 21.9744 1.78478 22.3798 2.18019 22.5877C2.25689 22.628 2.34036 22.6666 2.42474 22.6793C2.65492 22.7139 2.88708 22.7554 3.11874 22.7571C4.19174 22.765 5.26484 22.7608 6.33792 22.7602C6.40841 22.76 6.47888 22.7521 6.55482 22.7477C6.75332 22.0673 6.89321 21.3917 7.00704 20.6832ZM8.37396 23.9496C8.18102 23.9592 7.99968 23.9763 7.81829 23.9765C6.09546 23.9796 4.37258 23.9875 2.64984 23.9756C2.16837 23.9723 1.69064 23.8858 1.23288 23.7243C1.07555 23.6689 0.919055 23.6018 0.775967 23.5168C0.0980645 23.1141 -0.123581 22.566 0.0638696 21.8042C0.276409 20.9403 0.868734 20.3962 1.68598 20.1059C2.01935 19.9874 2.37903 19.9286 2.73197 19.8823C3.83861 19.7372 4.94775 19.611 6.05593 19.4775C6.42537 19.4329 6.79485 19.3888 7.16406 19.3426C7.22086 19.3354 7.27632 19.318 7.34243 19.303C7.41016 18.9997 7.47033 18.7015 7.39964 18.3932C7.32976 18.0884 7.1383 17.9006 6.82316 17.8862C6.10157 17.8535 5.37922 17.8281 4.65698 17.8206C3.78122 17.8115 2.90522 17.8243 2.02933 17.8264C1.95748 17.8266 1.88559 17.8172 1.78863 17.8106C1.86493 17.4143 1.93856 17.0319 2.01615 16.6289C2.0948 16.6174 2.17116 16.5983 2.24795 16.5963C3.08679 16.5744 3.9256 16.545 4.76461 16.5378C5.84496 16.5285 6.92546 16.5348 8.00588 16.541C8.23843 16.5424 8.47486 16.5504 8.70251 16.5929C9.28968 16.7026 9.62454 17.1046 9.60901 17.7022C9.60053 18.0282 9.55381 18.357 9.48807 18.6771C9.13886 20.3775 8.77823 22.0754 8.42109 23.7743C8.41066 23.8238 8.39486 23.8724 8.37396 23.9496Z" fill="#C21B31"/>
<path d="M49.6303 20.6677C49.1068 20.7227 48.6133 20.7705 48.121 20.8274C47.2296 20.9306 46.3384 21.0364 45.4481 21.1472C45.1427 21.1852 44.8705 21.3069 44.663 21.5416C44.298 21.9543 44.4099 22.4285 44.9174 22.634C44.9711 22.6557 45.0272 22.6769 45.0842 22.685C45.286 22.7135 45.4887 22.7569 45.6911 22.758C46.808 22.7639 47.9248 22.7595 49.0417 22.7571C49.2106 22.7567 49.2183 22.7543 49.256 22.5796C49.384 21.988 49.5062 21.3954 49.6292 20.8029C49.6362 20.7697 49.6303 20.7339 49.6303 20.6677ZM44.4323 17.8042C44.514 17.3953 44.5933 16.9977 44.6751 16.588C44.9672 16.5752 45.2433 16.5535 45.5193 16.5526C47.191 16.547 48.8627 16.5461 50.5343 16.5437C50.695 16.5434 50.8556 16.5434 51.0162 16.5429C51.862 16.5401 52.4028 17.1667 52.2487 17.991C52.0947 18.8153 51.9271 19.6372 51.7577 20.4586C51.5327 21.5514 51.3004 22.6428 51.0705 23.7346C51.0572 23.7982 51.0383 23.8604 51.0175 23.9399C50.8065 23.954 50.5966 23.9794 50.3867 23.9798C48.7299 23.9842 47.0727 23.9895 45.4159 23.9814C44.8894 23.9787 44.3641 23.9187 43.8705 23.7195C43.6494 23.6303 43.437 23.5109 43.2363 23.381C42.7709 23.0799 42.6138 22.6272 42.6596 22.0952C42.7157 21.4451 43.0453 20.9425 43.537 20.5367C43.8755 20.2572 44.2662 20.0905 44.6979 20.0044C45.7512 19.7941 46.8168 19.6778 47.8834 19.5651C48.5217 19.4977 49.1587 19.4168 49.7961 19.3407C49.8538 19.3338 49.9101 19.3172 49.9852 19.3013C50.0315 18.9946 50.0906 18.6887 50.0396 18.3732C50.0049 18.1608 49.9024 18.016 49.6874 17.9445C49.4057 17.8506 49.116 17.823 48.8243 17.8216C48.1383 17.8183 47.4522 17.8289 46.7659 17.8301C46.0433 17.8312 45.3206 17.8282 44.5979 17.8256C44.5486 17.8254 44.4993 17.8132 44.4323 17.8042Z" fill="#C21B31"/>
<path d="M54.5101 16.5971C55.1856 16.5151 55.855 16.5407 56.5514 16.5496C56.4837 16.8862 56.4236 17.1992 56.3575 17.5108C56.052 18.9527 55.7437 20.394 55.4398 21.8362C55.4054 21.9998 55.3756 22.1672 55.3716 22.3335C55.3651 22.6009 55.4849 22.7093 55.7529 22.7277C56.8476 22.8027 57.943 22.7648 59.038 22.7479C59.4635 22.7415 59.6841 22.5575 59.7738 22.1438C60.0801 20.7321 60.3809 19.3192 60.686 17.9072C60.7708 17.5149 60.863 17.1243 60.9531 16.7333C60.9662 16.6771 60.9866 16.6225 61.0065 16.5579C61.6643 16.5579 62.3182 16.5579 62.9933 16.5579C62.9289 16.8906 62.8721 17.2052 62.8066 17.5179C62.458 19.1819 62.1076 20.8454 61.7575 22.5091C61.6827 22.8636 61.5513 23.194 61.3238 23.48C61.0688 23.8003 60.7434 23.9829 60.3248 23.9833C58.4625 23.9855 56.6002 23.9901 54.7382 23.991C54.5708 23.991 54.4027 23.9763 54.2364 23.9566C53.5253 23.8733 53.1824 23.3126 53.2613 22.6443C53.3071 22.2542 53.3974 21.8686 53.4776 21.4831C53.8041 19.9114 54.1343 18.3406 54.4638 16.7695C54.4757 16.7135 54.4934 16.6588 54.5101 16.5971Z" fill="#C21B31"/>
<path d="M91.2755 16.5587C91.9568 16.5587 92.6111 16.5587 93.2879 16.5587C93.2314 16.8643 93.185 17.1514 93.1245 17.4355C92.8648 18.6556 92.5922 19.8731 92.3427 21.0952C92.2434 21.5805 92.1912 22.0755 92.1187 22.5661C92.1146 22.5935 92.1181 22.6222 92.1181 22.6719C92.2445 22.6877 92.365 22.7085 92.4864 22.7171C93.6171 22.7964 94.7484 22.7804 95.8797 22.7335C96.2079 22.7199 96.4374 22.5036 96.5215 22.1447C96.6164 21.74 96.7067 21.334 96.7954 20.9278C97.0993 19.5383 97.4017 18.1484 97.7054 16.7589C97.7207 16.689 97.744 16.6208 97.7632 16.5525C98.4173 16.5525 99.0578 16.5525 99.7165 16.5525C99.7101 16.6236 99.7106 16.6798 99.6994 16.7335C99.4229 18.0694 99.1463 19.4052 98.8674 20.7406C98.7467 21.319 98.6283 21.8981 98.4936 22.4732C98.4373 22.7133 98.3623 22.9537 98.2587 23.1768C98.019 23.6919 97.6037 23.965 97.0316 23.9856C96.8199 23.9932 96.608 23.9967 96.3964 23.9963C94.6585 23.9913 92.9209 23.9867 91.1831 23.9761C91.0246 23.9753 90.8572 23.961 90.71 23.9082C90.291 23.7583 90.0794 23.4259 90.0099 23.0041C89.9843 22.8492 89.9904 22.6803 90.0222 22.526C90.3866 20.7614 90.7586 18.9983 91.129 17.235C91.1754 17.0141 91.2245 16.7938 91.2755 16.5587Z" fill="#C21B31"/>
<path d="M107.842 16.5566C107.767 16.9906 107.699 17.3838 107.628 17.7914C107.538 17.7977 107.46 17.8075 107.382 17.808C106.506 17.813 105.63 17.8131 104.754 17.8216C104.126 17.8278 103.498 17.8359 102.87 17.8597C102.316 17.8806 101.997 18.3675 102.177 18.8928C102.26 19.1331 102.427 19.29 102.672 19.345C103.105 19.4424 103.54 19.5399 103.978 19.6127C104.748 19.7407 105.524 19.831 106.291 19.9757C106.638 20.0412 106.974 20.1845 107.303 20.321C107.488 20.3979 107.668 20.5119 107.819 20.6454C108.54 21.2856 108.661 22.1785 108.002 23.0044C107.701 23.3819 107.291 23.6043 106.842 23.7586C106.418 23.9045 105.98 23.9838 105.531 23.984C103.771 23.9858 102.011 23.9821 100.251 23.9803C100.172 23.9803 100.093 23.9803 99.9847 23.9803C100.039 23.56 100.138 23.1753 100.222 22.7651C100.323 22.7651 100.417 22.7651 100.511 22.7651C101.906 22.7644 103.3 22.7655 104.696 22.7616C104.98 22.7609 105.265 22.7484 105.549 22.7289C105.785 22.7125 106.002 22.6321 106.204 22.5019C106.482 22.3218 106.643 21.7603 106.269 21.4554C106.147 21.3566 106.003 21.2712 105.854 21.2229C105.395 21.0727 104.914 21.022 104.436 20.9602C103.807 20.8787 103.177 20.8006 102.552 20.691C102.097 20.6112 101.672 20.4316 101.277 20.184C100.608 19.7643 100.315 19.1438 100.48 18.3728C100.656 17.5497 101.131 16.961 101.954 16.7062C102.175 16.6381 102.413 16.6186 102.645 16.6006C103.504 16.5337 104.365 16.5037 105.228 16.5249C106.009 16.5441 106.791 16.5468 107.572 16.5565C107.651 16.5574 107.73 16.5566 107.842 16.5566Z" fill="#C21B31"/>
<path d="M98.5006 3.00238C98.2414 2.93244 97.9797 2.87067 97.7236 2.79113C96.5445 2.42487 95.3367 2.31454 94.1094 2.384C92.9227 2.45118 91.7673 2.6879 90.6375 3.0532C89.5649 3.40002 88.5361 3.84954 87.5525 4.39892C87.2681 4.55785 86.9808 4.59532 86.6675 4.54786C86.1843 4.47465 85.7011 4.4003 85.2158 4.34414C84.4234 4.25239 83.6274 4.25846 82.8313 4.2877C82.0219 4.31739 81.2122 4.34296 80.3588 4.37179C80.412 4.28406 80.4738 4.26894 80.522 4.24418C82.6126 3.16867 84.7918 2.32355 87.0702 1.73915C87.9327 1.51784 88.7997 1.31406 89.6876 1.22291C90.6399 1.12518 91.5941 1.08946 92.5519 1.14731C93.6348 1.21305 94.6982 1.38418 95.7371 1.69577C96.685 1.98019 97.5864 2.37173 98.4276 2.89707C98.4574 2.91572 98.4846 2.93877 98.5129 2.95976C98.5087 2.97396 98.5048 2.98818 98.5006 3.00238Z" fill="#C21B31"/>
<path d="M86.4348 16.555C86.3559 16.8772 86.305 17.1487 86.2213 17.4097C86.1435 17.6516 85.9676 17.7938 85.6983 17.7991C85.1658 17.8096 84.6336 17.8245 84.1011 17.8358C83.7873 17.8424 83.4733 17.8446 83.1596 17.8509C83.11 17.8519 83.0607 17.8642 82.9928 17.8739C82.901 18.2881 82.8057 18.6992 82.7193 19.1121C82.498 20.1687 82.291 21.2283 82.0574 22.2821C81.9347 22.8358 81.7679 23.3799 81.6202 23.9319C80.9695 24.0143 80.345 23.991 79.6929 23.9823C79.7073 23.8762 79.7139 23.7916 79.731 23.7095C80.0347 22.2527 80.3412 20.7968 80.6438 19.3399C80.7444 18.855 80.8356 18.3681 80.9379 17.8469C79.9341 17.8382 78.954 17.8297 77.9579 17.821C77.9993 17.4921 78.0433 17.1909 78.1724 16.9108C78.2822 16.6721 78.4618 16.5413 78.739 16.5421C81.1338 16.5489 83.5283 16.5513 85.9229 16.5549C86.075 16.5552 86.2272 16.555 86.4348 16.555Z" fill="#C21B31"/>
<path d="M10.3381 23.9864C10.4011 23.6553 10.4545 23.3474 10.5188 23.042C10.9064 21.2011 11.2965 19.3607 11.6855 17.5201C11.7216 17.3491 11.7543 17.1772 11.7905 17.0062C11.8041 16.942 11.8187 16.8775 11.8406 16.8159C11.9019 16.6429 12.0027 16.5381 12.2106 16.5432C12.6846 16.5549 13.159 16.5475 13.6333 16.5491C13.718 16.5494 13.8026 16.5561 13.9077 16.5607C13.8448 16.8939 13.7922 17.2015 13.7282 17.5067C13.3389 19.3621 12.9478 21.2172 12.5547 23.072C12.517 23.2499 12.4708 23.4272 12.4128 23.5996C12.3398 23.8168 12.196 23.952 11.9516 23.9734C11.4201 24.0203 10.8899 23.9901 10.3381 23.9864Z" fill="#C21B31"/>
<path d="M73.8417 23.9925C73.9381 23.5091 74.024 23.0584 74.1185 22.6096C74.5219 20.6902 74.9279 18.7714 75.333 16.8524C75.3942 16.5623 75.3944 16.558 75.6979 16.554C76.2014 16.5473 76.7049 16.5469 77.2085 16.5439C77.2661 16.5435 77.3235 16.5439 77.4105 16.5439C77.3906 16.6605 77.3774 16.7578 77.3575 16.8536C76.9236 18.9305 76.4898 21.0074 76.0535 23.0838C76.0163 23.2619 75.9691 23.4388 75.9144 23.6123C75.8502 23.8161 75.7215 23.9397 75.4912 23.9636C74.9524 24.019 74.4145 23.992 73.8417 23.9925Z" fill="#C21B31"/>
<path d="M85.7362 23.9892C86.2338 21.477 86.7534 19.0176 87.3136 16.5576C87.9732 16.5576 88.6192 16.5576 89.2923 16.5576C89.2539 16.7754 89.2242 16.9749 89.1832 17.1719C88.8335 18.85 88.482 20.5278 88.1301 22.2054C88.0505 22.5838 87.9811 22.9648 87.8827 23.3384C87.7265 23.93 87.6588 23.9397 87.1302 23.982C86.6815 24.0175 86.2279 23.9892 85.7362 23.9892Z" fill="#C21B31"/>
</g>
<defs>
<clipPath id="clip0_1806_10797">
<rect width="108.434" height="24" fill="white"/>
</clipPath>
</defs>
</svg>
