<svg width="60" height="24" viewBox="0 0 60 24" fill="none" xmlns="http://www.w3.org/2000/svg">
<path fill-rule="evenodd" clip-rule="evenodd" d="M34.9108 0C34.1541 0 33.4026 0.0687618 32.6618 0.206311L32.6619 0.33032C31.9372 0.197305 31.2022 0.130792 30.462 0.130792C24.686 0.130792 19.8603 4.13865 18.6924 9.48593C18.6499 9.66906 18.4906 9.79462 18.2995 9.79462H12.4386C12.2156 9.79462 12.0351 9.97252 12.0351 10.187V13.7763C12.0351 13.9961 12.2156 14.174 12.4386 14.174H17.5828C17.8058 14.174 17.9863 14.3519 17.9863 14.5716V16.3505C17.9863 16.5389 17.9173 16.722 17.7899 16.8685C15.0558 19.9974 10.2673 20.3532 7.08727 17.6586C3.90729 14.964 3.5516 10.2446 6.28564 7.11053C8.52596 4.54676 12.2262 3.78285 15.3213 5.24786C15.5071 5.34205 15.7353 5.27403 15.8468 5.09614L17.7155 1.99868C17.827 1.81033 17.7686 1.56964 17.5775 1.45454C17.5742 1.45129 17.5709 1.45005 17.5664 1.44834C17.5636 1.44729 17.5603 1.44607 17.5563 1.44407C15.8521 0.575527 13.9569 0.12033 12.0351 0.125554C5.38845 0.130792 0 5.44669 0 11.9974C0 18.5481 5.38845 23.864 12.0404 23.864C15.4381 23.8692 18.6711 22.4565 20.9539 19.9764C21.1026 19.8142 21.3574 19.8038 21.522 19.9503C21.5257 19.954 21.5295 19.957 21.533 19.9599C21.5394 19.9651 21.5451 19.9697 21.5485 19.9764C24.2787 22.9364 28.3286 24.3346 32.3206 23.7265C32.4338 23.7503 32.5475 23.7727 32.6618 23.7937C33.4027 23.9313 34.1594 24 34.9161 24C39.9979 24 44.3548 20.9321 46.1761 16.5669V22.7338C46.1761 23.1733 46.5371 23.5239 46.9777 23.5239H58.9173C59.1402 23.5239 59.3208 23.346 59.3208 23.1262V19.5369C59.3208 19.3224 59.1402 19.1445 58.9173 19.1445H51.0231C50.8001 19.1445 50.6196 18.9666 50.6196 18.7469V0.868534C50.6196 0.648772 50.4391 0.470883 50.2214 0.470883H46.5796C46.3566 0.470883 46.1761 0.648772 46.1761 0.868534V7.43529C44.3457 3.07402 39.9936 0 34.9108 0ZM32.9046 4.91604L32.7252 4.97008C29.5852 5.91596 27.4467 8.76892 27.4466 12.0024C27.4509 15.3805 29.7673 18.2273 32.922 19.0846C35.9837 18.0482 38.0536 15.212 38.0536 12.0026C38.0536 8.71146 35.8996 5.91788 32.9046 4.91604ZM42.6351 11.5788C42.6351 5.95204 38.7022 1.62278 33.4113 0.354705C33.9075 0.292649 34.4079 0.261609 34.9108 0.261609C39.9999 0.261609 44.3415 3.41236 46.054 7.84088V16.1593C44.3521 20.5926 40.0055 23.7384 34.9161 23.7384C34.1757 23.7384 33.4354 23.6711 32.711 23.5366L32.7107 23.5366C27.1816 22.5213 23.0031 18.1539 23.0031 12.4212C23.0031 8.35066 26.3505 4.6514 30.462 4.6514C31.0582 4.6514 31.6511 4.72135 32.2299 4.85859C29.2076 5.95687 27.1812 8.79958 27.1812 12.0026V12.0028C27.1866 16.2031 30.6436 19.6102 34.9108 19.6102C39.1872 19.6102 42.6351 15.7751 42.6351 11.5788Z" fill="white"/>
</svg>
