<svg width="66" height="40" viewBox="0 0 66 40" fill="none" xmlns="http://www.w3.org/2000/svg">
<g clip-path="url(#clip0_1933_10751)">
<path d="M0.00162888 0H65.4297V40H0.00162888V0Z" fill="#BFD730"/>
<path d="M16.7958 25.1002H18.6537V17.3042H16.7958V25.1002ZM16.7958 16.5756H18.6537V14.7177H16.7958V16.5756Z" fill="#11175E"/>
<path d="M21.3495 25.1002H19.4916V17.3042H21.3131V18.7614C21.896 17.9235 22.7339 17.1585 23.8632 17.1585C24.0818 17.1585 24.1911 17.1585 24.3004 17.1949V18.9435C24.1546 18.9071 23.8632 18.9071 23.7539 18.9071C22.916 18.9071 21.386 19.7086 21.386 21.2751V25.1002H21.3495Z" fill="#11175E"/>
<path d="M24.7739 25.1002V14.7177H28.1255C28.9998 14.7177 31.9871 14.7177 31.9871 17.2678C31.9871 19.0164 30.6392 19.49 29.9106 19.7086C30.712 19.9272 32.2056 20.3279 32.2056 22.2587C32.2056 23.8251 31.0035 25.1002 28.3441 25.1002H24.7739ZM26.7412 18.9435H28.1255C29.9106 18.9435 30.0563 17.8871 30.0563 17.5228C30.0563 16.2113 28.7084 16.2113 28.3076 16.2113H26.7776V18.9435H26.7412ZM26.7412 23.5701H27.9798C29.2912 23.5701 30.2384 23.133 30.2384 22.0401C30.2384 21.3115 29.8377 20.4736 28.1255 20.4736H26.7776V23.5701H26.7412Z" fill="#11175E"/>
<path d="M37.488 25.1002L37.2694 24.2623C36.7958 24.663 36.0672 25.2459 34.9014 25.2459C33.5171 25.2459 32.4971 24.3352 32.4971 23.0965C32.4971 22.2951 32.7885 21.3479 34.5007 20.765L36.7594 20C37.0872 19.8907 37.0872 19.8907 37.0872 19.6721V19.3443C37.0872 18.6885 36.5044 18.5064 35.7758 18.5064C34.5371 18.5064 33.4078 19.2714 32.9707 19.5628V17.9599C33.4807 17.6685 34.4279 17.1585 36.0672 17.1585C38.508 17.1585 38.9816 18.3607 38.9816 19.8543V25.1366H37.488V25.1002ZM35.4479 21.7851C34.6464 22.0765 34.3914 22.4408 34.3914 22.9873C34.3914 23.7523 35.0836 23.9344 35.4115 23.9344C35.7029 23.9344 36.3586 23.8251 37.1237 23.0601V21.1293C37.0144 21.2022 36.9779 21.2386 36.6501 21.3479L35.4479 21.7851Z" fill="#11175E"/>
<path d="M14.4279 25.1002L14.2093 24.2987C13.7357 24.6994 13.0071 25.2823 11.8413 25.2823C10.457 25.2823 9.43697 24.3716 9.43697 23.133C9.43697 22.3315 9.7284 21.3843 11.4406 20.8014L13.6993 20.0364C14.0271 19.9271 14.0636 19.9271 14.0636 19.7085V19.3807C14.0636 18.7249 13.4807 18.5428 12.7157 18.5428C11.477 18.5428 10.3477 19.3078 9.91055 19.5993V17.9963C10.4206 17.7049 11.3677 17.1949 13.0071 17.1949C15.4479 17.1949 15.9215 18.3971 15.9215 19.8907V25.173H14.4279V25.1002ZM12.3878 21.785C11.5863 22.0765 11.3313 22.4408 11.3313 22.9872C11.3313 23.7523 12.0235 23.9344 12.3514 23.9344C12.6428 23.9344 13.2985 23.8251 14.0636 23.0601V21.1293C13.9543 21.2022 13.9178 21.2386 13.59 21.3479L12.3878 21.785Z" fill="#11175E"/>
<path d="M39.7102 14.7177H41.5681V25.1002H39.7102V14.7177Z" fill="#11175E"/>
<path d="M43.2075 18.725H42.0417V17.3042H43.2075V14.7177H45.0654V17.3042H46.4861V18.725H45.0654V22.7687C45.0654 23.3516 45.1382 23.8616 46.0126 23.8616C46.2311 23.8616 46.4133 23.8252 46.559 23.7887V25.2095C46.304 25.2459 46.049 25.2823 45.6847 25.2823C43.6082 25.2823 43.2075 24.2259 43.2075 22.878V18.725Z" fill="#11175E"/>
<path d="M47.2147 14.7177H49.0727V16.5756H47.2147V14.7177ZM47.2147 17.3042H49.0727V25.1366H47.2147V17.3042Z" fill="#11175E"/>
<path d="M55.8122 19.4171C55.4479 19.0893 54.8286 18.6157 53.7721 18.6157C52.1692 18.6157 51.5135 19.9636 51.5135 21.2386C51.5135 21.7851 51.6592 23.8616 53.6993 23.8616C54.7557 23.8616 55.4479 23.388 55.9579 23.0237V24.663C55.5936 24.8452 54.7557 25.2823 53.4078 25.2823C50.7484 25.2823 49.6191 23.2787 49.6191 21.2022C49.6191 19.0164 50.8213 17.122 53.4807 17.122C54.7557 17.122 55.4479 17.5228 55.7758 17.7049V19.4171H55.8122Z" fill="#11175E"/>
</g>
<defs>
<clipPath id="clip0_1933_10751">
<rect width="65.4313" height="40" fill="white"/>
</clipPath>
</defs>
</svg>
