<svg width="147" height="37" xmlns="http://www.w3.org/2000/svg"><g fill="none"><path d="M13.235 18.5c1.97-2.765 4.256-2.215 6.95-1.904-.714-.763-1.067-1.725-1.067-2.758 0-2.38 1.978-4.31 4.418-4.31 5.096 0 4.467 5.76 2.256 5.76a1.04 1.04 0 0 1-1.002-.76c-.09-.342-.004-.741-.122-1.063a1.22 1.22 0 0 0-1.977-.442c-.687.661-.258 1.984.19 2.66.622.938 1.716 1.544 2.97 1.53.068 0 .138.002.205-.005 3.494-.394 4.522-3.363 3.634-6.058-.385-1.17-1.73-2.893-3.244-3.615 2.79-1.612 3.646-5.328 3.546-7.535L0 18.5 29.992 37c.1-2.207-.757-5.923-3.546-7.535 1.515-.722 2.86-2.445 3.244-3.615.888-2.695-.14-5.664-3.634-6.058-.067-.007-.137-.005-.206-.006-1.253-.013-2.347.593-2.969 1.531-.449.676-.877 1.999-.19 2.66a1.22 1.22 0 0 0 1.978-.442c.117-.322.032-.721.12-1.062.108-.413.507-.76 1.003-.76 2.21 0 2.84 5.759-2.256 5.759-2.44 0-4.418-1.93-4.418-4.31 0-1.033.353-1.995 1.067-2.758-2.694.31-4.98.86-6.95-1.904z" fill="#8C7036"/><path d="M49 25.177V15.89c0-.116-.002-.23-.007-.34v-.01l-.007-.118v-.016l-.002-.023v-.008C48.774 12.12 46.527 11 43.725 11c-2.197 0-3.946.703-4.833 1.564v1.732c1.197-.64 2.909-1.247 4.25-1.247 1.667 0 2.832.497 2.836 2.327v.174l.008.898c-4.348.42-7.986 1.201-7.986 4.93C38 24.11 39.935 26 43.832 26c1.336 0 4.07-.24 5.168-.823zm-3.015-1.362c-.86.349-2.39.383-3.209.14-.474-.14-.864-.355-1.15-.676-.376-.422-.578-1.014-.578-1.796 0-2.574 2.113-3.145 4.937-3.145v5.477zM106 25.708V23.37c-.255.08-.459.133-.74.133-1.07 0-1.503-.742-1.503-1.854v-8.986H106v-2.047h-2.243V7l-3.11 2.018v1.598H99v2.047h1.648v9.47c0 1.985 1.07 3.867 3.772 3.867.74-.001 1.3-.16 1.58-.292zm-9-4.115c0-1.692-.66-3.143-3.545-4.272-1.292-.51-2.198-1.102-2.198-2.283 0-1.021.741-1.908 2.116-1.908 1.044 0 2.237.674 2.779 1.244v-1.768c-1.863-2.79-8.138-1.957-8.138 2.593 0 1.505.577 3.009 3.38 4.057 1.511.564 2.367 1.127 2.367 2.363 0 2.65-4.277 2.33-5.761 1.232l.014 2.316c.874.44 1.979.833 3.71.833C94.966 26 97 23.957 97 21.593zM134 26l-.002-10.512c0-2.366-1.371-4.488-5.537-4.488-2.355 0-4.141.408-5.461 1.061L123.002 26h3.157l-.002-12.498c.595-.244 1.14-.408 2.174-.408 1.992 0 2.51 1.252 2.51 2.449L130.844 26H134zM66 11.022c-3.614-.127-5.519.309-7 1.043V26h3.226V13.56c.74-.435 2.53-.684 3.774-.166v-2.372zM53 11h3v15h-3zm32 14.177V15.89c0-.116-.003-.23-.007-.34v-.01l-.007-.118v-.016l-.002-.023v-.008C84.773 12.12 82.525 11 79.724 11c-2.197 0-3.946.703-4.833 1.564v1.732c1.197-.64 2.909-1.247 4.25-1.247 1.667 0 2.832.497 2.836 2.327v.174l.007.898c-4.347.42-7.985 1.201-7.985 4.93C74 24.11 75.935 26 79.831 26c1.337 0 4.07-.24 5.169-.823zm-3.015-1.362c-.86.349-2.39.383-3.208.14-.474-.14-.864-.355-1.15-.676-.377-.422-.579-1.014-.579-1.796 0-2.574 2.113-3.145 4.937-3.145v5.477zM119 25.177V15.89c0-.116-.002-.23-.007-.34v-.01l-.007-.118v-.016l-.002-.023v-.008c-.21-3.257-2.458-4.376-5.259-4.376-2.197 0-3.946.703-4.833 1.564v1.732c1.197-.64 2.909-1.247 4.25-1.247 1.667 0 2.832.497 2.836 2.327v.174l.007.898c-4.347.42-7.985 1.201-7.985 4.93 0 2.731 1.935 4.622 5.831 4.622 1.338 0 4.07-.24 5.169-.823zm-3.014-1.362c-.861.349-2.39.383-3.21.14-.473-.14-.863-.355-1.15-.676-.375-.422-.578-1.014-.578-1.796 0-2.574 2.114-3.145 4.938-3.145v5.477zM147 25.177V15.89c0-.116-.002-.23-.007-.34v-.01l-.007-.118v-.016l-.002-.023v-.008c-.21-3.257-2.458-4.376-5.259-4.376-2.197 0-3.946.703-4.833 1.564v1.732c1.197-.64 2.909-1.247 4.25-1.247 1.667 0 2.832.497 2.836 2.327v.174l.007.898c-4.347.42-7.985 1.201-7.985 4.93 0 2.731 1.935 4.622 5.831 4.622 1.338 0 4.07-.24 5.169-.823zm-3.014-1.362c-.861.349-2.39.383-3.209.14-.474-.14-.864-.355-1.15-.676-.377-.422-.579-1.014-.579-1.796 0-2.574 2.113-3.145 4.938-3.145v5.477zM56 7.512C56 6.67 55.35 6 54.5 6c-.828 0-1.5.67-1.5 1.512C53 8.331 53.672 9 54.5 9c.851 0 1.5-.67 1.5-1.488z" fill="#13235C"/></g></svg>