<svg xmlns="http://www.w3.org/2000/svg" width="183" height="33" viewBox="0 0 183 33"><path d="M32.758 16.515h.002l-.003.002c0 9.117-7.233 16.366-16.377 16.364C7.238 32.881 0 25.634 0 16.517 0 7.398 7.235.144 16.379.144c9.143 0 16.379 7.253 16.379 16.371zm-9.142 2.362h-.922c-.921 0-1.314.49-1.447 1.44-.233 1.74-1.612 2.919-3.422 2.919-2.104 0-3.45-1.54-3.45-3.773v-5.246c0-.21-.03-.394-.082-.56.197.09.433.136.705.136h4.834c.923 0 1.448-.526 1.448-1.443v-.425c0-.92-.525-1.444-1.448-1.444h-2.727V7.525c0-.916-.528-1.442-1.447-1.442h-.66c-.92 0-1.445.527-1.445 1.442v4.824c0 .207.026.393.082.56a1.72 1.72 0 0 0-.708-.134H8.093c-.92 0-1.447.525-1.447 1.442v.428c0 .919.527 1.444 1.447 1.444h2.73v3.373c0 4.231 2.73 7.184 7.006 7.184 3.981 0 6.61-2.527 7.104-6.33.13-.952-.495-1.44-1.318-1.44v.001h.001zm89.142 6.632c4.833 0 6.871-2.188 6.871-4.952 0-3.496-3.298-4.365-5.955-4.706-1.533-.208-3.892-.343-3.892-1.852 0-1.12 1.329-1.602 2.978-1.602 1.487 0 2.978.39 4.191 1.438l1.946-2.56c-1.714-1.483-3.708-1.986-5.954-1.986-3.342 0-7.053 1.138-7.053 4.883 0 3.448 3.113 4.363 5.955 4.727 1.621.208 3.892.364 3.892 1.853 0 1.092-1.236 1.597-2.841 1.597-1.811 0-4.19-.66-5.636-2.17l-1.945 2.559c1.968 2.175 4.925 2.768 7.444 2.768v.005l-.001-.002zm-25.123-.318h3.848v-8.356c0-2.627 1.695-4.113 3.938-4.113 2.244 0 3.779 1.483 3.779 4.11v8.36h3.848v-8.928c0-4.636-2.889-6.964-6.575-6.964-2.45 0-4.26 1.03-5.128 2.49l-.252-2.17h-3.458v15.578-.007zm63.326 0l6.665-15.574h-4.007l-4.56 11.485-4.563-11.485h-4.259l6.662 15.574h4.063-.001zm23.588-3.014c-2.63 0-4.604-1.757-4.604-4.772 0-3.016 1.97-4.775 4.606-4.775 2.634 0 4.606 1.756 4.606 4.774-.003 3.014-1.974 4.77-4.606 4.77l-.002.003zM183 9.617h-3.458l-.254 2.17c-.868-1.439-2.585-2.489-5.263-2.489-4.285 0-7.995 2.668-7.995 8.106s3.712 8.106 7.993 8.106c2.678 0 4.397-1.046 5.264-2.486l.255 2.171H183V9.617zm-53.09 12.56c-2.63 0-4.603-1.757-4.603-4.772 0-3.016 1.97-4.775 4.606-4.775 2.637 0 4.606 1.756 4.606 4.774 0 3.014-1.97 4.77-4.606 4.77l-.002.003h-.001zm8.454-12.56h-3.46l-.254 2.17c-.869-1.439-2.58-2.489-5.264-2.489-4.284 0-7.993 2.668-7.993 8.106s3.71 8.106 7.993 8.106c2.677 0 4.396-1.046 5.264-2.486l.257 2.171h3.457V9.617zm-62.845 12.56c-2.632 0-4.603-1.757-4.603-4.772 0-3.016 1.969-4.775 4.603-4.775 2.635 0 4.605 1.756 4.605 4.774 0 3.014-1.968 4.77-4.605 4.77v.003zm83.982-12.561V25.19h3.849V9.617h-3.85v-.001h.001zm-75.531 0h-3.458l-.254 2.17c-.87-1.439-2.588-2.489-5.267-2.489-4.284 0-7.993 2.668-7.993 8.106s3.71 8.106 7.993 8.106c2.679 0 4.396-1.046 5.27-2.486l.251 2.171h3.454V9.617h.004v-.001zM48.197 5.14l-3.85.41v4.065h-2.884v3.312h2.884v6.963c0 3.745 2.154 5.483 5.382 5.483 1.376 0 2.544-.321 3.367-.78l-1.03-3.106c-.55.252-1.236.438-1.88.438-1.281 0-1.992-.733-1.992-2.215v-6.781H52.5V9.617h-4.306l.002-4.476.001-.001zm115.519.776c0-1.485-1.144-2.24-2.292-2.24-1.122 0-2.266.75-2.266 2.239 0 1.507 1.144 2.237 2.266 2.237 1.144 0 2.292-.731 2.292-2.238v.002zM55.227 25.19h3.845v-8.335c0-3.015 1.65-4.066 3.62-4.066 1.143 0 1.992.34 2.77 1.003l1.743-3.06c-1.054-.96-2.454-1.435-3.825-1.435-1.834 0-3.619.84-4.536 2.486l-.253-2.167h-3.365v15.577-.004l.001.001z" fill="#00D66C" fill-rule="nonzero"/></svg>