<svg xmlns="http://www.w3.org/2000/svg" width="124" height="32"><path fill="#fff" fill-rule="evenodd" d="m46.075 3.668 4.56 4.56-2.714 9.551-3.457-3.392-2.057-8.216 3.668-2.503Z" clip-rule="evenodd"/><path fill="#fff" d="M53.72 15.428h5.143l-4.114 3.77-6.828-1.419 5.8-2.351ZM54.75 19.199l-6.172 1.69-7.2 3.795 6.543-6.905 6.828 1.42Z"/><path fill="#fff" fill-rule="evenodd" d="m44.464 21.428-6.17 1.2 3.084 2.056 3.086-3.256ZM53.72 15.428h5.143l-2.608-1.029-2.534 1.029ZM57.962 16.253l.9.901.001-1.726-.901.825Z" clip-rule="evenodd"/><path fill="#fff" fill-rule="evenodd" d="m53.72 15.428-3.085-7.2-2.714 9.551 5.8-2.351ZM42.407 6.171l1.029-5.142-4.114-1.03 3.085 6.172Z" clip-rule="evenodd"/><path fill="#fff" fill-rule="evenodd" d="m46.075 3.668-2.64-2.638-1.029 5.143 3.67-2.505Z" clip-rule="evenodd"/><path fill="#fff" d="M25.465 10.944a.222.222 0 0 1 .222.222v1.357a.223.223 0 0 1-.222.223l-2.642-.003v6.925c.014.85.227 1.191 1.234 1.191h1.263a.364.364 0 0 1 .366.359v1.075a.363.363 0 0 1-.366.36h-1.353c-2.006-.01-3.13-.875-3.13-2.921V8.585a.36.36 0 0 1 .366-.36h.843a.382.382 0 0 1 .363.32l.33 1.91-1.137.153a.164.164 0 0 0-.136.193.175.175 0 0 0 .197.142h3.802Zm-8.14 3.407c-.088-1.105-.721-1.603-1.832-1.608H10.89a.22.22 0 0 1-.223-.222v-1.353a.22.22 0 0 1 .137-.205.22.22 0 0 1 .086-.017h4.606c2.535 0 3.826 1.444 3.826 3.614v5.168c0 2.048-1.127 2.926-3.13 2.926h-2.763c-2.198 0-3.557-1.144-3.557-3.043 0-2.35 2.123-3.944 7.467-4.76l1.221-.164a.163.163 0 0 0 .135-.193.175.175 0 0 0-.196-.142h-1.174Zm-3.815 6.506h2.6c.994 0 1.211-.363 1.225-1.217v-3.103c-4.814.802-5.479 2.033-5.479 3.015 0 .82.503 1.305 1.654 1.305Zm20.317-6.506c-.088-1.105-.72-1.603-1.831-1.608H27.39a.222.222 0 0 1-.223-.222v-1.353a.222.222 0 0 1 .223-.222h4.606c2.535 0 3.826 1.444 3.826 3.614v5.168c0 2.048-1.127 2.926-3.13 2.926H29.93c-2.198 0-3.557-1.144-3.557-3.043 0-2.35 2.123-3.944 7.468-4.76l1.22-.164a.165.165 0 0 0 .135-.128.175.175 0 0 0-.195-.207h-1.174Zm-3.814 6.506h2.599c.994 0 1.211-.363 1.225-1.217v-3.103c-4.814.802-5.478 2.033-5.478 3.015 0 .82.503 1.305 1.654 1.305ZM.135 14.015c0-1.695 1.585-3.067 3.545-3.067l4.587-.002a.222.222 0 0 1 .222.222v1.353a.222.222 0 0 1-.222.221H3.57c-.8 0-1.452.485-1.452 1.176 0 .718.33 1.078 2.38 1.632 2.837.768 4.516 1.488 4.516 3.727 0 1.865-1.747 3.376-3.902 3.376H.674a.222.222 0 0 1-.223-.222v-1.352a.222.222 0 0 1 .222-.222H5.21c.986 0 1.817-.63 1.817-1.484 0-.954-.792-1.41-2.849-1.97-2.3-.624-4.043-1.272-4.043-3.388ZM100.097 17.307c1.593-.849 2.253-1.956 2.253-3.317 0-1.899-1.361-3.044-3.56-3.044h-2.6c-2.004 0-3.133.875-3.133 2.925v8.475c0 .266.043.306.306.306h1.377c.267 0 .309-.04.309-.306v-3.099h-1.166a.175.175 0 0 1-.197-.207.163.163 0 0 1 .135-.128l1.223-.164a22.741 22.741 0 0 0 3.21-.7l2.335 4.332c.069.135.123.272.273.272h1.832a.147.147 0 0 0 .064-.009.144.144 0 0 0 .055-.035.138.138 0 0 0 .035-.055.143.143 0 0 0 .009-.065.166.166 0 0 0-.029-.108l-2.731-5.073Zm-5.051-3.347c.012-.853.23-1.215 1.225-1.215h2.433c1.151 0 1.657.481 1.657 1.303 0 .982-.499 2.214-5.316 3.015V13.96ZM118.714 15.55c-2.051-.553-2.384-.915-2.384-1.632 0-.691.657-1.176 1.454-1.176h4.201a.222.222 0 0 0 .223-.219V11.17a.226.226 0 0 0-.066-.155.223.223 0 0 0-.157-.063h-4.091c-2.137 0-3.545 1.37-3.545 3.067 0 2.115 1.744 2.764 4.049 3.39 2.06.56 2.852 1.015 2.852 1.969 0 .854-.832 1.483-1.822 1.483h-4.539a.223.223 0 0 0-.223.224v1.353a.225.225 0 0 0 .223.222h4.442c2.161 0 3.908-1.513 3.908-3.377 0-2.24-1.68-2.96-4.523-3.727M80.647 13.155c0-1.313-.875-2.21-2.778-2.21h-5.094a.293.293 0 0 0-.292.293v1.21a.29.29 0 0 0 .18.27.292.292 0 0 0 .112.023h5.186c.307 0 .576.112.576.457 0 1.083-6.866 3.556-6.866 7.16 0 1.262.797 2.296 2.912 2.296h5.772a.293.293 0 0 0 .292-.292v-1.214a.29.29 0 0 0-.18-.27.293.293 0 0 0-.112-.023h-5.917a.663.663 0 0 1-.597-.664c0-2.44 6.806-4.214 6.806-7.036ZM66.574 10.946h-4.613a.22.22 0 0 0-.221.223v1.352a.223.223 0 0 0 .221.224h4.61c1.114.003 1.746.502 1.834 1.607h1.174a.175.175 0 0 1 .197.207.16.16 0 0 1-.135.126l-1.223.166c-5.352.816-7.475 2.407-7.475 4.758 0 1.902 1.361 3.046 3.559 3.046h2.768c2.005 0 3.134-.88 3.134-2.927v-5.164c0-2.17-1.292-3.616-3.83-3.616m1.842 8.695c-.013.853-.232 1.213-1.226 1.215h-2.602c-1.153 0-1.655-.484-1.655-1.305 0-.978.666-2.21 5.483-3.013v3.103ZM87.641 10.946h-1.89c-2.538 0-3.833 1.444-3.833 3.615v4.478c0 2.17 1.294 3.615 3.833 3.615h1.89c2.539 0 3.831-1.444 3.831-3.615v-4.478c0-2.17-1.294-3.615-3.83-3.615Zm1.84 8.107c0 1.115-.596 1.804-1.843 1.804h-1.889c-1.245 0-1.844-.689-1.844-1.804V14.55c0-1.117.599-1.805 1.844-1.805h1.889c1.246 0 1.843.688 1.843 1.805v4.503ZM113.255 13.99c0-1.899-1.361-3.044-3.558-3.044h-2.071c-2.538 0-3.834 1.444-3.834 3.615v4.478c0 2.17 1.293 3.615 3.834 3.615h4.609a.225.225 0 0 0 .223-.223v-1.354a.224.224 0 0 0-.223-.222h-4.609c-1.112-.003-1.746-.502-1.833-1.606 0 0-.013-.19-.013-.41v-.09c5.35-.816 7.475-2.41 7.475-4.76Zm-7.475 2.068h.004V14.55c0-1.116.595-1.805 1.842-1.805h1.984c1.154 0 1.657.482 1.657 1.304 0 .981-.667 2.213-5.486 3.014l-.001-1.005ZM98.419 24.918a.673.673 0 0 0-.68-.509.684.684 0 0 0-.688.519l-2.03 6.702a.321.321 0 0 0-.012.104.19.19 0 0 0 .196.206h.129a.24.24 0 0 0 .203-.162l.802-2.65h2.782l.822 2.649a.216.216 0 0 0 .203.163h.119a.183.183 0 0 0 .149-.05.183.183 0 0 0 .057-.146.43.43 0 0 0-.021-.113l-2.031-6.713Zm-1.933 3.68 1.072-3.545c.027-.1.064-.154.182-.154.092 0 .148.051.182.165l1.062 3.534h-2.498ZM101.722 24.436a.259.259 0 0 1 .186.076.266.266 0 0 1 .077.186v.674a.266.266 0 0 1-.077.186.273.273 0 0 1-.186.077.265.265 0 0 1-.265-.261V24.7c0-.07.028-.138.077-.188a.267.267 0 0 1 .188-.078ZM101.719 26.528a.262.262 0 0 1 .263.263v4.884a.264.264 0 0 1-.263.262.266.266 0 0 1-.262-.263v-4.883a.262.262 0 0 1 .262-.263ZM105.146 26.479c-.475 0-.939.146-1.329.417v-.123a.239.239 0 0 0-.012-.091.233.233 0 0 0-.214-.153h-.079a.224.224 0 0 0-.165.073.228.228 0 0 0-.06.171v4.932a.242.242 0 0 0 .236.235h.059a.242.242 0 0 0 .235-.235v-4.311a2.365 2.365 0 0 1 1.329-.435c.088 0 .314 0 .314-.206v-.079c.003-.195-.226-.195-.314-.195ZM106.673 24.488h-.099a.223.223 0 0 0-.202.148.217.217 0 0 0-.013.088v6.98a.222.222 0 0 0 .215.235h.099a.223.223 0 0 0 .216-.234v-6.981a.216.216 0 0 0-.059-.163.22.22 0 0 0-.157-.073ZM108.555 24.436a.265.265 0 0 0-.265.264v.674a.265.265 0 0 0 .53 0V24.7a.265.265 0 0 0-.265-.264ZM108.555 26.528a.265.265 0 0 0-.265.265v4.882a.265.265 0 0 0 .53 0v-4.882a.265.265 0 0 0-.265-.265ZM112.199 26.479a3.818 3.818 0 0 0-1.547.379v-.085a.239.239 0 0 0-.012-.091.214.214 0 0 0-.048-.08.222.222 0 0 0-.165-.074h-.08a.224.224 0 0 0-.165.074.227.227 0 0 0-.06.171v4.932a.242.242 0 0 0 .235.235h.06a.241.241 0 0 0 .235-.235v-4.357c.472-.237.99-.37 1.517-.389.856 0 1.29.49 1.29 1.458v3.287a.232.232 0 0 0 .225.235h.07a.237.237 0 0 0 .217-.145.232.232 0 0 0 .018-.09v-3.287c.001-1.232-.652-1.939-1.79-1.939ZM117.031 26.48c-1.264 0-2.048.925-2.048 2.413v.654c0 1.628.765 2.453 2.276 2.453a7.852 7.852 0 0 0 1.495-.169c.164-.033.225-.096.225-.234v-.07a.173.173 0 0 0-.055-.137.18.18 0 0 0-.14-.048.151.151 0 0 0-.041.006 7.745 7.745 0 0 1-1.484.173c-.863 0-1.745-.235-1.745-1.974v-.16h3.3a.235.235 0 0 0 .235-.236v-.267c-.001-1.55-.718-2.404-2.018-2.404Zm1.488 2.416h-3.005v-.003c0-.881.262-1.933 1.517-1.933 1.015 0 1.488.613 1.488 1.923v.013ZM121.954 29.1l-.663-.367c-.634-.353-.936-.591-.936-.988 0-.652.428-.785 1.071-.785.421.007.84.039 1.257.095l.12.014h.03a.197.197 0 0 0 .225-.206v-.079c0-.067-.032-.184-.25-.215l-.066-.008a10.041 10.041 0 0 0-1.356-.081c-.993 0-1.562.46-1.562 1.265 0 .723.506 1.056 1.222 1.447l.634.347c.823.45 1.025.656 1.025 1.038 0 .66-.362.943-1.21.943a9.71 9.71 0 0 1-1.456-.159h-.059a.182.182 0 0 0-.206.186v.109c0 .131.123.175.256.205.477.085.96.131 1.445.139 1.151 0 1.76-.492 1.76-1.423.001-.712-.53-1.061-1.281-1.477Z"/></svg>
