<svg xmlns="http://www.w3.org/2000/svg" width="209" height="34" viewBox="0 0 209 34"><g fill="#D02139" fill-rule="nonzero"><path d="M22.687 29.609C9.5 36.177 4.354 26.647 4.354 26.647c-2.905-6.183.657-12.092.657-12.092 3.382-6.677 9.82-9.309 9.82-9.309 9.01-3.872 14.163.485 14.163.485 7.257 5.407 2.71 14.496 2.71 14.496-.696 1.885-2.42 3.852-4.183 5.5a22.703 22.703 0 0 1-1.508-1.07l-7.643-6.268s-.342-.248.15-.3c0 0 4.439-.794 5.742-1.836 0 0 4.001-1.958 4.542-4.876 0 0 .83-3.198-.447-5.071 0 0-.453-.304-.6.046 0 0-2.288 2.346-4.258 3.613l-5.88 3.793s-.447.298-.096-.39l1.692-4.477s.944-1.54-1.64-1.345c0 0-3.913.402-6.073 3.052 0 0-.166.082.135.178l1.245-.047s-3.54 8.252-3.583 8.754c0 0-1.242 3.887-.646 7.66l6.26.19s-1.73-.829-.637-5.259c0 0 .75-2.637 1.297-2.842 0 0 .155-.25.249.205 0 0 1.245 4.467 4.594 7.86 0 0 .751.999 2.4 2.224a1.835 1.835 0 0 0-.129.088zm14.239-4.004s-1.69 1.891-6.027 1.538c0 0-.312.058-1.063-.204 2.244-2.428 4.462-6.058 4.58-10.969 0 0 .87-8.798-7.08-13.145 0 0-5.234-3.29-12.12-1.349 0 0-9.258 2.653-12.458 10.102 0 0-4.302 6.91-.324 14.552 0 0 2.373 5.35 8.715 6.867 0 0 7.856 2.092 13.782-2.134.81.453 1.713.896 2.771 1.305 0 0 4.542 1.2 7.228-1.054 0 0 2.294-1.383 2.352-5.407 0 0 .032-.414-.356-.102zm8.16-18.509h4.354l-1.604 7.736h.05l6.005-7.736h3.437l-5.623 7.237 5.138 9.052h-4.94l-4.155-7.733h-.038l-1.52 7.733h-4.36l3.256-16.289z"/><path d="M68.878 19.32c-1.467.79-3.942 1.783-5.585 1.783-1.201 0-2.198-.549-2.218-1.856 3.09.09 7.672-2.063 7.672-5.611 0-1.891-1.78-2.732-3.317-2.732-5.653 0-8.71 5.139-8.71 8.676 0 2.839 2.666 4.073 5.147 4.073 2.157 0 4.261-.578 6.4-1.345l.611-2.988zm-7.51-2.51c.2-1.173 1.133-3.204 2.55-3.204.57 0 .904.354.904.925 0 1.605-1.4 2.317-3.455 2.28l.001-.001zm13.919-.47h.278c.903-2.077 3.203-5.436 5.705-5.436 1.54 0 2.443 1.133 2.443 2.542 0 .592-.152 1.193-.269 1.762l-1.648 8.177h-4.331l1.508-7.654c.017-.16.11-.43.11-.61 0-.128-.04-.353-.245-.353-.789 0-3.454 3.936-3.884 4.812l-.766 3.805h-4.36l2.443-12.206h4.314l-1.298 5.162v-.001zm12.047 7.045L85 11.179h4.457l1.353 7.137 4.857-7.137h3.285l-11.28 16.553h-4.49l4.153-4.347h-.001zm16.782 0h4.337l2.425-12.206h-4.082c-.313 0-1.015-.205-2.026-.205-4.258 0-8.145 5.524-8.145 9.466 0 1.623 1.038 3.213 2.794 3.213 2.505 0 4.805-3.347 5.708-5.427h.277l-1.288 5.159zm1.648-8.337c-.97 1.406-3.098 4.958-4.29 4.958-.383 0-.488-.38-.488-.686 0-1.153 1.008-5.915 3.615-5.915.505 0 .996.184 1.411.412l-.248 1.231zm8.911 8.337h3.089l2.186-4.065h6.035l.783 4.065h4.156l-3.141-16.289h-4.329l-8.78 16.289h.001zm6.68-6.645l3.023-5.68h.044l1.07 5.68h-4.137zm14.041-9.609h4.352l-.602 2.454h-4.364l.614-2.454zm-.839 4.048h4.346l-2.432 12.206h-4.348l2.434-12.206zm9.618 5.161h.278c.897-2.077 3.194-5.436 5.71-5.436.492 0 .9.129 1.105.248l-1.531 3.782c-.307-.154-.614-.289-.95-.289-2.192 0-4.089 3.522-4.954 4.935l-.757 3.805h-4.354l2.431-12.206h4.314l-1.292 5.162v-.001zm8.095-5.161h3.809l.272 7.753h.05l3.84-7.753h3.638l.328 7.77h.052l3.855-7.77h3.048l-6.128 12.206h-4.142l-.321-7.365h-.038l-3.642 7.365h-4.14l-.48-12.206h-.001zm24.562 12.206h4.32l2.434-12.206h-4.074c-.316 0-1.026-.205-2.02-.205-4.278 0-8.16 5.524-8.16 9.466 0 1.623 1.044 3.213 2.804 3.213 2.498 0 4.804-3.347 5.704-5.427h.272l-1.28 5.159zm1.64-8.337c-.968 1.406-3.09 4.958-4.285 4.958-.383 0-.5-.38-.5-.686 0-1.153 1.03-5.915 3.639-5.915.488 0 .994.184 1.388.412l-.242 1.231zm9.068 8.337l-2.329-12.206h4.463l1.341 7.137 4.855-7.137h3.302l-11.29 16.553H183.4l4.141-4.347h-.001zm20.52-9.487c-.88-.309-1.8-.557-2.727-.557-.725 0-1.721.225-1.721 1.123 0 1.445 3.776 2.478 3.776 5.145 0 1.62-1.079 4.044-5.72 4.044-1.523 0-2.955-.283-4.463-.671l.567-2.865c1.076.484 2.73 1.111 3.896 1.111.6 0 1.368-.373 1.368-1.17 0-1.675-3.504-2.699-3.504-5.372 0-1.436.993-3.782 5.643-3.782 1.134 0 2.347.234 3.4.362l-.515 2.632z"/></g></svg>