<svg width="109" height="24" viewBox="0 0 109 24" fill="none" xmlns="http://www.w3.org/2000/svg">
<path d="M92.5184 9.15296C92.3937 9.09689 92.3161 9.06452 92.241 9.02782C91.5977 8.71409 90.9471 8.41946 90.2599 8.21C89.4636 7.96719 88.6514 7.9375 87.8308 8.01279C86.7457 8.11238 85.7158 8.43412 84.6976 8.80158C83.8877 9.09386 83.0818 9.39829 82.266 9.67339C81.2959 10.0006 80.3029 10.2418 79.2813 10.342C78.4377 10.4248 77.5908 10.4571 76.7433 10.4298C76.0577 10.4076 75.3698 10.4153 74.6886 10.3148C74.1471 10.235 73.6053 10.159 73.0656 10.0689C71.6836 9.83791 70.293 9.75747 68.897 9.8665C67.6382 9.96478 66.3826 10.1019 65.1249 10.2141C64.3251 10.2854 63.5244 10.3494 62.7233 10.4039C61.434 10.4918 60.1445 10.5802 58.8541 10.6475C57.7894 10.703 56.7234 10.7486 55.6576 10.7622C53.8834 10.7849 52.1081 10.808 50.3341 10.7751C48.809 10.7467 47.2837 10.6627 45.7615 10.5612C44.553 10.4807 43.3487 10.3369 42.1427 10.2196C42.0631 10.2119 41.9851 10.1906 41.9058 10.1546C42.0575 10.1546 42.2089 10.1561 42.3603 10.1544C44.1932 10.1342 46.0264 10.1237 47.8593 10.0898C49.3414 10.0624 50.8238 10.0236 52.3046 9.95895C53.8071 9.89335 55.3101 9.81681 56.8088 9.69539C58.3799 9.56811 59.9495 9.40769 61.514 9.21508C63.7096 8.94478 65.8876 8.56118 68.0403 8.04702C69.312 7.7433 70.5648 7.37432 71.7675 6.85288C71.84 6.82144 71.9106 6.78552 72.0162 6.73559C71.9419 6.70331 71.9014 6.67866 71.8573 6.66746C69.7299 6.1272 67.7659 5.20621 65.8865 4.09234C65.2397 3.70899 64.6038 3.30732 63.9657 2.90927C62.2246 1.82309 60.3354 1.14426 58.3056 0.858524C57.3494 0.723765 56.3873 0.675557 55.4216 0.749839C55.3274 0.75707 55.2329 0.759043 55.1302 0.740199C55.1705 0.721574 55.2093 0.69769 55.2513 0.685419C56.3469 0.362874 57.4638 0.156463 58.6026 0.0620226C59.6537 -0.0254063 60.7044 -0.0210243 61.7531 0.0791136C63.4773 0.243673 65.1459 0.647073 66.7643 1.26674C67.673 1.61449 68.5484 2.02994 69.4078 2.48376C70.1112 2.85521 70.8148 3.22809 71.5326 3.57042C72.5993 4.07911 73.7337 4.38622 74.8873 4.62312C76.1414 4.8806 77.4107 5.01223 78.6889 5.07312C80.5803 5.16322 82.4711 5.10362 84.3619 5.05787C85.3549 5.03383 86.3304 5.15286 87.2845 5.42389C89.1512 5.9542 90.7475 6.91697 91.9997 8.41718C92.1446 8.59068 92.2741 8.77715 92.4082 8.95946C92.4408 9.00379 92.4634 9.05545 92.5184 9.15296Z" fill="white"/>
<path d="M36.6645 23.9246C36.3288 23.9969 35.0528 24.0202 34.6227 23.9579C34.6405 23.8611 34.6565 23.7642 34.6766 23.668C35.0114 22.0836 35.3484 20.4995 35.6806 18.9144C35.7496 18.5847 35.763 18.2507 35.7124 17.8986C34.9266 17.7978 34.1492 17.8152 33.3395 17.8652C33.1235 18.8741 32.9048 19.8835 32.6918 20.894C32.4786 21.9064 32.2709 22.92 32.0623 23.9268C31.6668 23.9963 30.3663 24.0204 30.0352 23.9617C30.5015 21.491 31.0515 19.0387 31.5855 16.5564C31.6909 16.5564 31.7836 16.5566 31.8765 16.5563C33.6945 16.5516 35.5128 16.5456 37.3308 16.5424C38.5794 16.5402 39.8281 16.5378 41.0767 16.5453C41.2932 16.5466 41.5149 16.5754 41.7248 16.6287C42.1797 16.7443 42.4679 17.1132 42.4966 17.5789C42.5229 18.0069 42.4317 18.4214 42.3443 18.8355C41.9989 20.47 41.6519 22.1042 41.305 23.7382C41.2914 23.8019 41.2741 23.8648 41.252 23.9551C40.585 24.0094 39.9171 23.9937 39.219 23.9836C39.2378 23.8745 39.2505 23.7844 39.2694 23.6954C39.6075 22.1042 39.9465 20.5131 40.285 18.9219C40.3555 18.5908 40.3641 18.2572 40.3273 17.8912C39.5336 17.8085 38.7455 17.7926 37.9292 17.8923C37.507 19.9066 37.0854 21.917 36.6645 23.9246Z" fill="white"/>
<path d="M66.2628 20.24C66.2917 20.2415 66.3268 20.2481 66.3609 20.2445C67.8396 20.0894 69.3186 19.9381 70.7964 19.7748C71.2892 19.7203 71.6779 19.366 71.7907 18.9114C71.8876 18.5212 71.7498 18.1968 71.3974 18.0088C71.3023 17.9581 71.1969 17.909 71.092 17.8975C70.7668 17.8619 70.4401 17.8331 70.1134 17.8235C69.7126 17.8118 69.3114 17.8196 68.9102 17.8237C68.2905 17.83 67.6708 17.8433 67.0512 17.8468C66.919 17.8476 66.8268 17.8884 66.7738 18.0101C66.7128 18.1501 66.6263 18.2847 66.5954 18.4311C66.4707 19.0215 66.3633 19.6155 66.2501 20.2082C66.249 20.2141 66.2551 20.2213 66.2628 20.24ZM70.7372 21.1425C71.3959 22.0976 72.0318 23.0199 72.669 23.9439C72.6306 23.9656 72.6188 23.9781 72.6069 23.9781C71.9428 23.9752 71.2784 23.968 70.6141 23.9704C70.4456 23.9711 70.3562 23.8894 70.2668 23.759C69.7461 23.0004 69.215 22.249 68.6928 21.4916C68.6087 21.3697 68.5252 21.3258 68.3689 21.3456C67.6811 21.4325 66.9916 21.5077 66.3013 21.5728C66.0824 21.5934 65.9652 21.6944 65.8887 21.8925C65.7559 22.2359 65.6874 22.5928 65.6262 22.9528C65.5714 23.2758 65.5127 23.5981 65.4529 23.9376C64.7692 24.0213 64.1005 23.988 63.4508 23.9794C63.4271 23.9582 63.421 23.9542 63.4173 23.9487C63.4133 23.9428 63.4081 23.9347 63.4094 23.9288C63.5446 23.257 63.6756 22.5843 63.8172 21.9138C64.1912 20.1446 64.5698 18.3763 64.9494 16.5956C65.1904 16.5808 65.4224 16.555 65.6547 16.554C67.3345 16.5473 69.0143 16.5422 70.694 16.5443C71.2151 16.5449 71.7289 16.6162 72.2176 16.8086C72.3863 16.8751 72.5528 16.9557 72.7056 17.0529C73.4289 17.5126 73.694 18.2194 73.4457 19.0421C73.197 19.8656 72.646 20.42 71.8622 20.747C71.5799 20.8648 71.2854 20.9535 70.9964 21.0549C70.9221 21.081 70.8474 21.1053 70.7372 21.1425Z" fill="white"/>
<path d="M17.1781 20.256C17.2629 20.256 17.3271 20.2617 17.3899 20.2552C18.1803 20.1733 18.971 20.094 19.7605 20.0049C20.4413 19.9281 21.1217 19.8461 21.8006 19.7539C22.2183 19.6972 22.5179 19.4532 22.6669 19.0676C22.8763 18.5256 22.7089 18.1742 22.2227 17.9585C21.985 17.853 21.73 17.8203 21.4747 17.8218C20.2785 17.8287 19.0823 17.843 17.8862 17.856C17.8085 17.8568 17.7309 17.8692 17.6425 17.8771C17.4717 18.6736 17.2789 19.4485 17.1781 20.256ZM23.5707 23.9634C23.4614 23.9717 23.3911 23.9814 23.3205 23.9816C22.7293 23.9827 22.1381 23.979 21.547 23.984C21.4161 23.9853 21.3341 23.9391 21.26 23.8322C20.7282 23.0639 20.1871 22.3023 19.6589 21.5318C19.5628 21.3916 19.4623 21.3439 19.2976 21.3633C18.5299 21.4538 17.7615 21.5381 16.9926 21.618C16.8572 21.6321 16.8144 21.6952 16.7885 21.8212C16.6551 22.4712 16.5115 23.1191 16.3702 23.7675C16.3549 23.8376 16.3317 23.9058 16.3129 23.9722C15.6488 23.9722 14.9953 23.9722 14.3054 23.9722C14.8358 21.4869 15.3604 19.0293 15.8853 16.5705C15.9499 16.5612 15.9917 16.5499 16.0336 16.5498C17.9461 16.5485 19.8587 16.543 21.7711 16.5515C22.2391 16.5535 22.7004 16.6358 23.1426 16.8018C23.461 16.9212 23.7504 17.0873 23.9884 17.3332C24.4759 17.8372 24.5598 18.4349 24.3596 19.0796C24.1332 19.8085 23.6566 20.3361 22.9697 20.6592C22.6344 20.8169 22.2779 20.9297 21.9311 21.063C21.8639 21.0888 21.7971 21.1152 21.7042 21.1514C22.2834 22.1125 22.9763 22.9798 23.5707 23.9634Z" fill="white"/>
<path d="M7.00704 20.6832C6.94261 20.6832 6.91422 20.6805 6.88645 20.6836C5.51645 20.8381 4.14607 20.9896 2.77681 21.1504C2.44671 21.1892 2.16118 21.3374 1.9596 21.6105C1.691 21.9745 1.78478 22.3798 2.18018 22.5878C2.25688 22.6281 2.34035 22.6667 2.42473 22.6794C2.65492 22.714 2.88707 22.7554 3.11873 22.7572C4.19174 22.765 5.26483 22.7609 6.33791 22.7602C6.4084 22.76 6.47887 22.7521 6.55482 22.7477C6.75332 22.0674 6.8932 21.3918 7.00704 20.6832ZM8.37395 23.9496C8.18102 23.9592 7.99967 23.9763 7.81828 23.9766C6.09545 23.9796 4.37258 23.9875 2.64983 23.9757C2.16836 23.9724 1.69063 23.8858 1.23288 23.7244C1.07555 23.6689 0.919047 23.6019 0.77596 23.5168C0.0980569 23.1141 -0.123588 22.5661 0.063862 21.8043C0.276401 20.9404 0.868726 20.3963 1.68598 20.1059C2.01935 19.9874 2.37902 19.9286 2.73196 19.8823C3.8386 19.7372 4.94774 19.6111 6.05592 19.4775C6.42536 19.433 6.79484 19.3888 7.16406 19.3426C7.22085 19.3355 7.27631 19.318 7.34242 19.3031C7.41015 18.9997 7.47032 18.7016 7.39963 18.3933C7.32975 18.0885 7.13829 17.9006 6.82315 17.8863C6.10156 17.8535 5.37921 17.8282 4.65697 17.8207C3.78122 17.8116 2.90522 17.8244 2.02933 17.8265C1.95747 17.8266 1.88558 17.8173 1.78862 17.8107C1.86493 17.4144 1.93855 17.0319 2.01614 16.6289C2.0948 16.6175 2.17115 16.5984 2.24794 16.5964C3.08678 16.5745 3.92559 16.5451 4.7646 16.5379C5.84495 16.5286 6.92546 16.5349 8.00587 16.5411C8.23842 16.5424 8.47485 16.5505 8.7025 16.593C9.28967 16.7027 9.62453 17.1046 9.609 17.7022C9.60052 18.0283 9.5538 18.3571 9.48807 18.6772C9.13885 20.3775 8.77823 22.0755 8.42108 23.7743C8.41065 23.8238 8.39485 23.8725 8.37395 23.9496Z" fill="white"/>
<path d="M49.6302 20.6677C49.1068 20.7228 48.6133 20.7705 48.1209 20.8275C47.2296 20.9306 46.3384 21.0364 45.4481 21.1472C45.1427 21.1852 44.8705 21.307 44.663 21.5417C44.298 21.9543 44.4099 22.4285 44.9174 22.634C44.9711 22.6557 45.0272 22.677 45.0842 22.6851C45.286 22.7136 45.4887 22.7569 45.6911 22.758C46.808 22.7639 47.9248 22.7596 49.0417 22.7572C49.2106 22.7567 49.2183 22.7543 49.256 22.5797C49.384 21.988 49.5062 21.3954 49.6292 20.8029C49.6362 20.7697 49.6302 20.7339 49.6302 20.6677ZM44.4323 17.8042C44.514 17.3953 44.5933 16.9977 44.6751 16.5881C44.9672 16.5753 45.2432 16.5536 45.5193 16.5526C47.191 16.5471 48.8627 16.5462 50.5343 16.5437C50.695 16.5435 50.8556 16.5434 51.0162 16.5429C51.862 16.5401 52.4028 17.1667 52.2487 17.991C52.0947 18.8153 51.9271 19.6372 51.7577 20.4587C51.5326 21.5515 51.3004 22.6428 51.0705 23.7346C51.0572 23.7982 51.0383 23.8604 51.0175 23.94C50.8065 23.954 50.5966 23.9794 50.3867 23.9799C48.7299 23.9842 47.0727 23.9895 45.4159 23.9814C44.8894 23.9787 44.3641 23.9187 43.8705 23.7195C43.6494 23.6304 43.437 23.5109 43.2363 23.381C42.7709 23.0799 42.6138 22.6272 42.6596 22.0952C42.7157 21.4452 43.0452 20.9425 43.537 20.5368C43.8755 20.2572 44.2662 20.0905 44.6979 20.0044C45.7512 19.7941 46.8167 19.6778 47.8834 19.5651C48.5217 19.4977 49.1587 19.4168 49.7961 19.3407C49.8537 19.3338 49.9101 19.3172 49.9852 19.3013C50.0315 18.9946 50.0906 18.6887 50.0396 18.3732C50.0049 18.1608 49.9024 18.016 49.6874 17.9445C49.4057 17.8507 49.116 17.823 48.8243 17.8216C48.1383 17.8183 47.4522 17.829 46.7659 17.8301C46.0433 17.8313 45.3206 17.8283 44.5979 17.8256C44.5486 17.8255 44.4993 17.8132 44.4323 17.8042Z" fill="white"/>
<path d="M54.51 16.5971C55.1856 16.5152 55.855 16.5408 56.5514 16.5497C56.4837 16.8863 56.4236 17.1992 56.3574 17.5109C56.052 18.9528 55.7437 20.3941 55.4398 21.8363C55.4054 21.9999 55.3756 22.1673 55.3716 22.3336C55.3651 22.6009 55.4849 22.7094 55.7529 22.7278C56.8476 22.8027 57.943 22.7648 59.0379 22.748C59.4635 22.7416 59.6841 22.5575 59.7738 22.1438C60.0801 20.7322 60.3809 19.3192 60.6859 17.9072C60.7707 17.515 60.863 17.1244 60.9531 16.7333C60.9662 16.6771 60.9866 16.6226 61.0065 16.5579C61.6643 16.5579 62.3182 16.5579 62.9933 16.5579C62.9289 16.8907 62.8721 17.2052 62.8066 17.518C62.458 19.1819 62.1076 20.8455 61.7574 22.5091C61.6827 22.8636 61.5513 23.1941 61.3238 23.48C61.0688 23.8004 60.7434 23.9829 60.3248 23.9834C58.4625 23.9855 56.6002 23.9901 54.7382 23.991C54.5707 23.991 54.4027 23.9763 54.2364 23.9566C53.5253 23.8734 53.1824 23.3126 53.2613 22.6443C53.3071 22.2543 53.3974 21.8687 53.4776 21.4831C53.804 19.9115 54.1343 18.3406 54.4638 16.7696C54.4756 16.7136 54.4934 16.6588 54.51 16.5971Z" fill="white"/>
<path d="M91.2755 16.5587C91.9568 16.5587 92.6111 16.5587 93.2879 16.5587C93.2314 16.8643 93.1849 17.1514 93.1245 17.4355C92.8648 18.6556 92.5922 19.8731 92.3426 21.0952C92.2434 21.5804 92.1912 22.0755 92.1187 22.5661C92.1145 22.5935 92.118 22.6222 92.118 22.6719C92.2445 22.6877 92.365 22.7085 92.4864 22.7171C93.6171 22.7964 94.7484 22.7804 95.8797 22.7335C96.2079 22.7199 96.4373 22.5036 96.5215 22.1447C96.6164 21.74 96.7066 21.334 96.7954 20.9278C97.0993 19.5383 97.4017 18.1484 97.7054 16.7589C97.7207 16.689 97.744 16.6208 97.7632 16.5525C98.4173 16.5525 99.0578 16.5525 99.7165 16.5525C99.7101 16.6236 99.7106 16.6797 99.6994 16.7335C99.4229 18.0694 99.1463 19.4052 98.8674 20.7406C98.7467 21.319 98.6283 21.8981 98.4936 22.4732C98.4373 22.7133 98.3623 22.9537 98.2587 23.1768C98.019 23.6919 97.6037 23.965 97.0316 23.9855C96.8199 23.9932 96.608 23.9967 96.3964 23.9963C94.6585 23.9912 92.9209 23.9866 91.1831 23.9761C91.0246 23.9752 90.8572 23.961 90.71 23.9082C90.291 23.7583 90.0794 23.4259 90.0099 23.0041C89.9843 22.8492 89.9904 22.6802 90.0222 22.526C90.3866 20.7614 90.7586 18.9983 91.1289 17.235C91.1754 17.0141 91.2245 16.7938 91.2755 16.5587Z" fill="white"/>
<path d="M107.842 16.5566C107.767 16.9906 107.699 17.3837 107.628 17.7914C107.538 17.7977 107.46 17.8075 107.382 17.8079C106.506 17.813 105.63 17.813 104.754 17.8216C104.126 17.8278 103.498 17.8359 102.87 17.8596C102.316 17.8806 101.997 18.3675 102.177 18.8928C102.26 19.133 102.427 19.29 102.672 19.345C103.105 19.4424 103.54 19.5399 103.978 19.6127C104.748 19.7407 105.524 19.831 106.291 19.9757C106.638 20.0412 106.974 20.1845 107.303 20.321C107.488 20.3979 107.668 20.5119 107.819 20.6453C108.54 21.2856 108.661 22.1785 108.002 23.0043C107.701 23.3819 107.291 23.6043 106.842 23.7585C106.418 23.9045 105.98 23.9838 105.531 23.984C103.771 23.9858 102.011 23.982 100.251 23.9803C100.172 23.9803 100.092 23.9803 99.9847 23.9803C100.039 23.56 100.138 23.1752 100.222 22.765C100.323 22.765 100.417 22.765 100.511 22.765C101.906 22.7644 103.3 22.7655 104.696 22.7615C104.98 22.7609 105.265 22.7484 105.549 22.7289C105.785 22.7125 106.002 22.632 106.204 22.5019C106.482 22.3218 106.643 21.7603 106.269 21.4553C106.147 21.3565 106.003 21.2712 105.854 21.2229C105.395 21.0727 104.914 21.022 104.436 20.9601C103.807 20.8786 103.177 20.8005 102.552 20.691C102.097 20.6112 101.672 20.4315 101.277 20.184C100.608 19.7643 100.315 19.1437 100.48 18.3727C100.656 17.5497 101.131 16.9609 101.954 16.7062C102.175 16.6381 102.413 16.6186 102.645 16.6005C103.504 16.5337 104.365 16.5036 105.228 16.5249C106.009 16.5441 106.791 16.5468 107.572 16.5564C107.651 16.5574 107.73 16.5566 107.842 16.5566Z" fill="white"/>
<path d="M98.5006 3.00239C98.2414 2.93245 97.9797 2.87068 97.7236 2.79114C96.5445 2.42488 95.3367 2.31455 94.1094 2.38401C92.9227 2.4512 91.7673 2.68791 90.6375 3.05321C89.5649 3.40003 88.5361 3.84955 87.5525 4.39893C87.2681 4.55786 86.9808 4.59533 86.6674 4.54787C86.1843 4.47466 85.7011 4.40031 85.2158 4.34415C84.4234 4.25241 83.6274 4.25848 82.8313 4.28771C82.0219 4.3174 81.2122 4.34297 80.3588 4.3718C80.412 4.28407 80.4738 4.26895 80.522 4.24419C82.6126 3.16868 84.7918 2.32356 87.0702 1.73916C87.9326 1.51785 88.7997 1.31407 89.6876 1.22292C90.6399 1.12519 91.5941 1.08947 92.5519 1.14732C93.6348 1.21306 94.6982 1.38419 95.737 1.69578C96.685 1.9802 97.5864 2.37174 98.4276 2.89708C98.4574 2.91573 98.4846 2.93878 98.5129 2.95977C98.5087 2.97397 98.5048 2.98819 98.5006 3.00239Z" fill="white"/>
<path d="M86.4347 16.555C86.3559 16.8772 86.305 17.1487 86.2213 17.4096C86.1435 17.6516 85.9676 17.7938 85.6983 17.7991C85.1658 17.8096 84.6336 17.8245 84.1011 17.8357C83.7873 17.8424 83.4733 17.8446 83.1596 17.8509C83.11 17.8519 83.0607 17.8642 82.9928 17.8739C82.901 18.2881 82.8057 18.6992 82.7193 19.1121C82.498 20.1687 82.291 21.2283 82.0574 22.2821C81.9347 22.8358 81.7679 23.3799 81.6202 23.9319C80.9695 24.0142 80.345 23.991 79.6929 23.9823C79.7073 23.8762 79.7139 23.7916 79.731 23.7094C80.0347 22.2527 80.3412 20.7968 80.6438 19.3399C80.7444 18.855 80.8356 18.3681 80.9379 17.8469C79.9341 17.8382 78.954 17.8297 77.9579 17.821C77.9993 17.4921 78.0433 17.1909 78.1724 16.9108C78.2822 16.6721 78.4618 16.5413 78.739 16.5421C81.1338 16.5489 83.5283 16.5513 85.9229 16.5549C86.0749 16.5552 86.2272 16.555 86.4347 16.555Z" fill="white"/>
<path d="M10.3381 23.9864C10.4011 23.6553 10.4545 23.3475 10.5188 23.042C10.9063 21.2011 11.2965 19.3608 11.6854 17.5202C11.7216 17.3491 11.7542 17.1773 11.7905 17.0062C11.8041 16.9421 11.8187 16.8776 11.8406 16.8159C11.9019 16.6429 12.0027 16.5381 12.2105 16.5433C12.6845 16.5549 13.159 16.5475 13.6333 16.5492C13.718 16.5495 13.8026 16.5561 13.9077 16.5607C13.8448 16.8939 13.7922 17.2015 13.7282 17.5067C13.3389 19.3622 12.9478 21.2173 12.5547 23.072C12.517 23.25 12.4708 23.4272 12.4128 23.5997C12.3398 23.8168 12.196 23.952 11.9516 23.9735C11.4201 24.0204 10.8899 23.9901 10.3381 23.9864Z" fill="white"/>
<path d="M73.8417 23.9926C73.9381 23.5092 74.024 23.0584 74.1184 22.6097C74.5218 20.6903 74.9279 18.7715 75.333 16.8524C75.3942 16.5624 75.3944 16.5581 75.6979 16.5541C76.2014 16.5474 76.7049 16.5469 77.2085 16.544C77.2661 16.5436 77.3235 16.5439 77.4105 16.5439C77.3906 16.6606 77.3774 16.7578 77.3575 16.8536C76.9236 18.9305 76.4898 21.0074 76.0535 23.0839C76.0163 23.262 75.9691 23.4388 75.9144 23.6124C75.8502 23.8162 75.7215 23.9398 75.4912 23.9636C74.9524 24.0191 74.4145 23.9921 73.8417 23.9926Z" fill="white"/>
<path d="M85.7362 23.9893C86.2338 21.4771 86.7533 19.0177 87.3136 16.5577C87.9732 16.5577 88.6192 16.5577 89.2923 16.5577C89.2539 16.7754 89.2242 16.9749 89.1832 17.172C88.8335 18.8501 88.482 20.5279 88.1301 22.2054C88.0505 22.5838 87.9811 22.9649 87.8827 23.3385C87.7265 23.9301 87.6588 23.9398 87.1302 23.982C86.6815 24.0175 86.2279 23.9893 85.7362 23.9893Z" fill="white"/>
</svg>
