<svg width="45" height="45" xmlns="http://www.w3.org/2000/svg"><g fill-rule="nonzero" fill="none"><path fill="#001AB2" d="M45 0H0v45h45z"/><path fill="#FFF" d="M16.72 14.898h-3.326V9.583h-1.285v6.5h4.611zM7.464 13.507h3.191v-1.185H7.464v-1.554h3.597V9.583H6.18v6.5h1.284zM13.563 24.714v-.025c0-1.013-.542-1.741-1.614-2.172.574-.35 1.128-.962 1.128-2.022v-.025a2.161 2.161 0 0 0-.611-1.54c-.551-.546-1.382-.835-2.4-.835H6.18v9.209h4.047c2.058 0 3.336-.992 3.336-2.59Zm-6.071-5.38h2.485c1.12 0 1.763.465 1.763 1.275v.026c0 .885-.687 1.414-1.838 1.414h-2.41v-2.714Zm0 3.941h2.585c.98 0 2.149.232 2.149 1.35v.026c0 .885-.738 1.414-1.974 1.414h-2.76v-2.79ZM27.133 11.747l3.361 4.336h1.059v-6.5h-1.266v4.209l-3.261-4.209h-1.159v6.5h1.266zM18.392 16.083h1.293V13.5l2.587-3.917H20.79l-1.742 2.727-1.724-2.727h-1.519l2.587 3.945zM24.35 9.583h-1.285v6.5h1.285zM15.181 18.096v9.208h6.237v-1.265h-4.913v-7.943zM30.12 23.345v-5.25h-1.326v5.326c0 1.781-.874 2.758-2.46 2.758-1.587 0-2.498-1.029-2.498-2.82v-5.265H22.51v5.326c0 2.478 1.455 4.021 3.794 4.021 2.39.002 3.815-1.53 3.815-4.096ZM36.095 16.191c.99 0 1.948-.357 2.695-1.006l.03-.026v-2.783h-2.864v1.14h1.617v1.054c-.425.288-.927.44-1.44.436-1.217 0-2.066-.893-2.066-2.173v-.018c0-1.184.882-2.146 1.965-2.146.787 0 1.239.252 1.716.657l.066.056.817-.972-.066-.056c-.737-.624-1.458-.879-2.487-.879a3.318 3.318 0 0 0-3.35 3.358v.02c0 1.965 1.384 3.338 3.367 3.338ZM33.434 26.052v-2.765h4.763v-1.252h-4.763v-2.688h5.324v-1.251H32.11v9.208h6.71v-1.252zM6.18 29.671h4.761v1.251H7.555v1.331h2.985v1.251H7.555v2.423H6.18z"/><path d="M7.578 35.948h-1.42v-6.299h4.806v1.295H7.578v1.287h2.984v1.296H7.578v2.42Zm-1.376-.045h1.331v-2.421h2.984v-1.207H7.533V30.9h3.384v-1.206H6.202v6.21Z" fill="#001AB2"/><path d="M13.424 29.627h1.269l2.68 6.3h-1.438l-.572-1.402h-2.645l-.571 1.402h-1.403l2.68-6.3Zm1.448 3.68-.831-2.026-.832 2.026h1.663Z" fill="#FFF"/><path d="M17.407 35.948h-1.488l-.005-.014-.566-1.39h-2.615l-.571 1.404H10.71l.013-.031 2.686-6.313h1.302l.006.014 2.69 6.33Zm-1.457-.045h1.39l-2.661-6.254H13.44l-2.662 6.254h1.354l.573-1.402h2.674l.005.014.566 1.388Zm-1.045-2.573h-1.728l.012-.031.852-2.078.02.05.844 2.059Zm-1.665-.045h1.596l-.797-1.947-.799 1.947Z" fill="#001AB2"/><path fill="#FFF" d="M18.292 29.671h1.483l1.644 2.645 1.644-2.645h1.482v6.256h-1.366v-4.084l-1.76 2.671h-.036l-1.742-2.645v4.058h-1.349z"/><path d="M24.569 35.948h-1.412v-4.031l-1.726 2.616h-.06l-.007-.01-1.703-2.582v4.004h-1.388v-6.296h1.519l.006.01 1.626 2.615 1.631-2.625h1.519l-.005 6.299Zm-1.367-.045h1.322v-6.21h-1.45l-1.656 2.665-.019-.03-1.638-2.633h-1.447v6.21h1.305v-4.11l.04.062 1.737 2.633h.01l1.796-2.724v4.137Z" fill="#001AB2"/><path fill="#FFF" d="M26.064 29.671h1.376v6.256h-1.376z"/><path d="M27.462 35.948h-1.42v-6.299h1.42v6.299Zm-1.376-.045h1.331v-6.21h-1.331v6.21Z" fill="#001AB2"/><path fill="#FFF" d="M28.958 29.671h1.376v5.004h3.115v1.252h-4.491z"/><path d="M33.474 35.948h-4.538v-6.299h1.42v5.003h3.118v1.296Zm-4.49-.045h4.449v-1.206h-3.121v-5.004H28.98l.003 6.21Z" fill="#001AB2"/><path fill="#FFF" d="m35.041 33.459-2.4-3.788h1.608l1.492 2.511 1.519-2.511h1.564l-2.401 3.762v2.494h-1.382z"/><path d="M36.44 35.948h-1.42V33.47l-2.423-3.821h1.662l.006.01 1.471 2.479 1.507-2.489h1.618l-.022.034-2.4 3.757v2.508Zm-1.376-.045h1.327V33.42l2.382-3.728H37.27l-1.532 2.532-.019-.032-1.485-2.5h-1.555l2.385 3.76v2.45Z" fill="#001AB2"/></g></svg>
