<svg width="115" height="32" viewBox="0 0 115 32" fill="none" xmlns="http://www.w3.org/2000/svg"><path d="M98.726 24.139v2.753h1.049v-.996l.994.995h1.391l-1.536-1.529 1.219-1.223h-1.046l-1.03 1.011V24.14h-1.04Z" fill="#00A1DE"/><path d="M102.144 24.139v2.753h2.772v-.69h-1.707V24.14h-1.065ZM105.221 24.14v2.752h1.051v-1.987l.701 1.986h.988l.705-2.004v2.005h1.048V24.14h-1.72l-.533 1.522-.515-1.522h-1.725ZM106.275 23.516v-.708h-4.144v.708h4.144ZM104.026 21.179h-.346v-.34h.346v-.346h.339v.346h.347v.34h-.347v.346h-.339v-.346ZM102.144 22.647a.597.597 0 1 0 0-1.193.597.597 0 0 0 0 1.193ZM103.525 22.647a.598.598 0 0 0 0-1.195.596.596 0 0 0 0 1.195ZM104.907 22.647a.597.597 0 1 0 0-1.195.597.597 0 0 0 0 1.195ZM106.288 22.647a.596.596 0 1 0 0-1.193.596.596 0 0 0 0 1.193Z" fill="#00A1DE"/><path d="m94.07 23.884-1.596 2.308c-.21.305-.551.597-.963.629v.07h1.775c.472 0 .815-.306 1.048-.644l1.639-2.363H94.07Z" fill="red"/><path d="M64.677 26.892v-2.754h.804v2.753h-.804Zm18.532 0-1.93-1.636v1.636h-.68v-2.754h.577l1.905 1.61v-1.61h.679v2.753h-.55Zm4.2-1.866a2.85 2.85 0 0 0-1.315-.323c-.647 0-1.13.335-1.13.8s.492.815 1.125.815c.522 0 .937-.133 1.346-.369v.682c-.362.18-.841.312-1.38.312-1.102 0-1.969-.562-1.969-1.44 0-.877.884-1.416 1.965-1.416.51 0 .974.096 1.357.253v.687Zm-17.456 1.866v-2.754h2.686v.59h-1.883v.684h1.84v.59h-1.84v.889h-.803Zm17.94 0v-2.754h2.79v.59h-1.985v.477h1.953v.59h-1.953v.505h1.976v.591h-2.78ZM75.43 25.858l1.11 1.034h-.858a.554.554 0 0 1-.414-.156l-.755-.733c-.015-.014-.038-.022-.066-.022h-.514v.91h-.803v-2.753h1.74c.903 0 1.284.406 1.284.855 0 .522-.466.772-.725.866Zm-.642-.454c.318 0 .471-.162.471-.343 0-.182-.136-.333-.471-.333h-.855v.676h.855Zm-6.255.454 1.11 1.034h-.857a.553.553 0 0 1-.415-.156l-.755-.733c-.014-.014-.037-.022-.065-.022h-.514v.91h-.804v-2.753h1.74c.904 0 1.284.406 1.284.855 0 .522-.466.772-.724.866Zm-.642-.454c.318 0 .471-.162.471-.343 0-.182-.136-.333-.47-.333h-.855v.676h.854Zm-4.472 1.488-.352-.605h-1.539l-.32.605h-.767l1.532-2.752h.699l1.738 2.752h-.991Zm-1.584-1.179h.897l-.466-.84-.431.84Zm17.63 1.178-.344-.604h-1.5l-.309.605h-.747l1.493-2.752h.679l1.69 2.752h-.963Zm-1.543-1.178h.875l-.455-.84-.42.84Z" fill="#051039"/><path d="M27.76 9.607v5.046a3.321 3.321 0 0 1-3.318 3.318 3.322 3.322 0 0 1-3.318-3.318V9.607H19.13v5.046a5.317 5.317 0 0 0 5.312 5.312c.582 0 1.14-.099 1.665-.273a3.119 3.119 0 0 0 1.652-1.356v.785c0 1.798-1.691 3.317-3.695 3.317-1.136 0-2.119-.459-3.186-1.488l-.067-.064-1.177 1.578.082.091c1.064 1.167 2.64 1.633 2.655 1.638a6.103 6.103 0 0 0 1.694.238c3.136 0 5.688-2.382 5.688-5.311V9.606H27.76l.001.001ZM33.095 5.579c-.744 0-1.35.606-1.35 1.35 0 .745.606 1.351 1.35 1.351.745 0 1.351-.606 1.351-1.35 0-.745-.606-1.351-1.35-1.351ZM53.553 9.342a5.318 5.318 0 0 0-5.313 5.312 5.317 5.317 0 0 0 5.312 5.311c.582 0 1.141-.098 1.665-.273a3.119 3.119 0 0 0 1.653-1.355v.784c0 1.798-1.692 3.317-3.695 3.317-1.137 0-2.12-.458-3.187-1.487l-.067-.065-1.177 1.579.082.09c1.065 1.167 2.64 1.634 2.656 1.639a6.103 6.103 0 0 0 1.693.238c3.137 0 5.689-2.383 5.689-5.311v-4.468A5.318 5.318 0 0 0 53.55 9.34h.002Zm0 8.63a3.322 3.322 0 0 1-3.319-3.318 3.322 3.322 0 0 1 3.319-3.318 3.322 3.322 0 0 1 3.317 3.318 3.321 3.321 0 0 1-3.317 3.317ZM65.846 19.965a5.318 5.318 0 0 0 5.312-5.312 5.317 5.317 0 0 0-5.312-5.312c-.582 0-1.14.099-1.665.273a3.119 3.119 0 0 0-1.652 1.356V5.32h-1.994v9.333a5.318 5.318 0 0 0 5.312 5.312h-.001Zm0-8.63a3.322 3.322 0 0 1 3.318 3.318 3.322 3.322 0 0 1-3.318 3.318 3.322 3.322 0 0 1-3.318-3.318 3.321 3.321 0 0 1 3.318-3.318ZM87.37 9.604h-2.006v5.043a3.315 3.315 0 0 1-3.311 3.311 3.315 3.315 0 0 1-3.311-3.311V9.604h-2.007v5.158l.003.027a5.286 5.286 0 0 0 1.606 3.663 5.285 5.285 0 0 0 3.709 1.513 5.324 5.324 0 0 0 5.318-5.318V9.604ZM96.583 16.802a3.335 3.335 0 0 1-2.564 1.2 3.351 3.351 0 0 1-3.227-2.454h8.462c.05-.291.08-.59.08-.895a5.312 5.312 0 1 0-5.311 5.312 5.31 5.31 0 0 0 4.855-3.163h-2.295Zm-2.564-5.505a3.354 3.354 0 0 1 3.207 2.376h-6.414a3.353 3.353 0 0 1 3.207-2.376ZM6.573 19.772v-5.084h5.698v-2.002H6.573v-2.313A3.318 3.318 0 0 1 9.887 7.06c1.286 0 2.081.592 2.88 1.482l.07.077 1.184-1.588-.078-.093c-.993-1.17-2.461-1.637-2.476-1.642a5.323 5.323 0 0 0-6.896 5.072v9.405h2.002ZM17.023 5.32h-2.007v14.452h2.007V5.321ZM34.099 9.608h-2.007v10.164h2.007V9.608ZM38.268 19.772V14.66a3.315 3.315 0 0 1 3.311-3.311 3.315 3.315 0 0 1 3.312 3.31v5.113h2.006V14.66A5.324 5.324 0 0 0 41.58 9.34a5.324 5.324 0 0 0-5.318 5.319v5.112h2.007ZM74.69 5.32h-2.007v14.452h2.007V5.321Z" fill="#0800B9"/></svg>
