<svg width="103" height="20" viewBox="0 0 103 20" fill="none" xmlns="http://www.w3.org/2000/svg">
<path d="M62.52 0H3.25C1.46 0 0 1.46 0 3.25V16.74C0 18.54 1.46 19.99 3.25 19.99H62.52C64.32 19.99 65.77 18.53 65.77 16.74V3.25C65.77 1.45 64.31 0 62.52 0Z" fill="#002244"/>
<path d="M9.38 14.51C8.71 14.51 8.06 14.42 7.44 14.23C6.82 14.04 6.32 13.8 5.94 13.5L6.6 11.98C6.95 12.25 7.38 12.46 7.88 12.63C8.38 12.8 8.88 12.88 9.38 12.88C9.77 12.88 10.07 12.84 10.31 12.76C10.55 12.68 10.72 12.57 10.83 12.43C10.94 12.29 11 12.13 11 11.95C11 11.72 10.91 11.53 10.74 11.39C10.56 11.25 10.33 11.14 10.04 11.05C9.75 10.96 9.43 10.88 9.08 10.8C8.73 10.72 8.39 10.63 8.04 10.52C7.69 10.41 7.37 10.26 7.08 10.07C6.79 9.88 6.56 9.64 6.38 9.34C6.21 9.04 6.12 8.66 6.12 8.2C6.12 7.7 6.25 7.25 6.51 6.84C6.77 6.43 7.16 6.1 7.68 5.86C8.2 5.62 8.87 5.49 9.66 5.49C10.19 5.49 10.71 5.56 11.23 5.69C11.75 5.82 12.2 6.01 12.58 6.26L11.97 7.78C11.59 7.56 11.21 7.39 10.81 7.28C10.41 7.17 10.02 7.11 9.65 7.11C9.28 7.11 8.96 7.15 8.73 7.24C8.5 7.33 8.33 7.44 8.22 7.6C8.11 7.75 8.06 7.92 8.06 8.1C8.06 8.33 8.15 8.52 8.33 8.66C8.51 8.8 8.74 8.91 9.03 8.99C9.32 9.07 9.64 9.15 9.99 9.23C10.34 9.31 10.69 9.41 11.03 9.52C11.38 9.64 11.69 9.78 11.98 9.96C12.27 10.14 12.5 10.38 12.68 10.68C12.86 10.98 12.95 11.36 12.95 11.8C12.95 12.29 12.82 12.74 12.56 13.14C12.3 13.54 11.91 13.87 11.38 14.12C10.85 14.37 10.19 14.49 9.4 14.49H9.39L9.38 14.51Z" fill="white"/>
<path d="M14.28 14.36V5.65H16.22V14.36H14.28ZM16.01 12.37L15.91 10.04L19.94 5.65H22.1L18.48 9.69L16 12.37H16.01ZM20.04 14.36L17.04 10.58L18.32 9.14L22.32 14.37H20.04V14.36Z" fill="white"/>
<path d="M23.18 14.36V5.65H25.14V14.36H23.18Z" fill="white"/>
<path d="M27.12 14.36V5.65H30.76C31.51 5.65 32.16 5.77 32.71 6.03C33.26 6.28 33.67 6.65 33.97 7.12C34.27 7.59 34.41 8.15 34.41 8.8C34.41 9.45 34.26 10.02 33.97 10.48C33.67 10.95 33.25 11.31 32.71 11.57C32.16 11.83 31.51 11.96 30.76 11.96H28.19L29.08 11.05V14.36H27.12ZM29.08 11.28L28.19 10.32H30.66C31.25 10.32 31.7 10.19 32.01 9.92C32.32 9.65 32.47 9.28 32.47 8.8C32.47 8.32 32.32 7.95 32.01 7.68C31.7 7.42 31.25 7.29 30.66 7.29H28.19L29.08 6.33V11.28Z" fill="white"/>
<path d="M35.92 14.36V5.65H39.56C40.32 5.65 40.96 5.77 41.51 6.03C42.05 6.28 42.47 6.65 42.77 7.12C43.07 7.59 43.21 8.15 43.21 8.8C43.21 9.45 43.06 10.02 42.77 10.48C42.47 10.95 42.05 11.31 41.51 11.57C40.96 11.83 40.31 11.96 39.56 11.96H36.99L37.88 11.05V14.36H35.92ZM37.88 11.28L36.99 10.32H39.46C40.05 10.32 40.5 10.19 40.81 9.92C41.11 9.65 41.27 9.28 41.27 8.8C41.27 8.32 41.12 7.95 40.81 7.68C40.5 7.42 40.05 7.29 39.46 7.29H36.99L37.88 6.33V11.28Z" fill="white"/>
<path d="M46.66 12.74H51.24V14.36H44.72V5.65H51.08V7.27H46.65V12.75L46.66 12.74ZM46.52 9.15H50.57V10.73H46.52V9.15Z" fill="white"/>
<path d="M52.79 14.36V5.65H56.43C57.18 5.65 57.83 5.77 58.38 6.03C58.93 6.28 59.34 6.65 59.64 7.12C59.94 7.59 60.08 8.15 60.08 8.8C60.08 9.45 59.93 10.02 59.64 10.48C59.34 10.95 58.92 11.31 58.38 11.55C57.83 11.79 57.18 11.92 56.43 11.92H53.86L54.75 11.05V14.36H52.79ZM54.75 11.28L53.86 10.32H56.33C56.92 10.32 57.37 10.19 57.68 9.92C57.99 9.65 58.14 9.28 58.14 8.8C58.14 8.32 57.99 7.95 57.68 7.68C57.37 7.42 56.92 7.29 56.33 7.29H53.86L54.75 6.33V11.28ZM58.16 14.36L56.04 11.2H58.13L60.25 14.36H58.16Z" fill="white"/>
<path d="M99.78 18H72.78C71.13 18 69.78 16.65 69.78 15V5C69.78 3.35 71.13 2 72.78 2H99.78C101.43 2 102.78 3.35 102.78 5V15C102.78 16.65 101.43 18 99.78 18ZM72.78 3C71.68 3 70.78 3.9 70.78 5V15C70.78 16.1 71.68 17 72.78 17H99.78C100.88 17 101.78 16.1 101.78 15V5C101.78 3.9 100.88 3 99.78 3H72.78Z" fill="#0800B9"/>
<path d="M78.59 13.08C78.14 13.08 77.73 12.97 77.37 12.76C77.01 12.55 76.72 12.27 76.51 11.91C76.3 11.55 76.19 11.15 76.19 10.7C76.19 10.25 76.29 9.87 76.5 9.51C76.7 9.15 76.98 8.86 77.33 8.65C77.68 8.43 78.06 8.33 78.49 8.33C78.92 8.33 79.29 8.44 79.62 8.65C79.95 8.86 80.21 9.15 80.4 9.51C80.6 9.87 80.7 10.28 80.7 10.73V10.98H77.09C77.14 11.23 77.23 11.46 77.37 11.66C77.51 11.86 77.69 12.01 77.91 12.13C78.13 12.24 78.37 12.3 78.63 12.3C78.85 12.3 79.07 12.27 79.27 12.2C79.48 12.13 79.65 12.03 79.79 11.89L80.37 12.46C80.1 12.66 79.82 12.82 79.53 12.92C79.25 13.02 78.94 13.06 78.59 13.06V13.08ZM77.09 10.33H79.8C79.76 10.09 79.68 9.88 79.55 9.7C79.42 9.51 79.27 9.37 79.07 9.27C78.88 9.16 78.68 9.11 78.46 9.11C78.24 9.11 78.02 9.16 77.83 9.26C77.64 9.36 77.48 9.51 77.34 9.69C77.21 9.87 77.13 10.08 77.09 10.33ZM80.71 13L82.49 10.65L80.78 8.42H81.83L83.01 9.99L84.19 8.42H85.21L83.52 10.64L85.32 13H84.27L83 11.31L81.73 13H80.71ZM87.75 13.08C87.31 13.08 86.97 12.98 86.73 12.77C86.5 12.56 86.38 12.26 86.38 11.86V9.17H85.41V8.41H86.38V7.24L87.27 7.02V8.41H88.62V9.17H87.27V11.65C87.27 11.88 87.32 12.05 87.42 12.15C87.53 12.25 87.7 12.29 87.94 12.29C88.07 12.29 88.18 12.29 88.27 12.26C88.37 12.24 88.48 12.21 88.59 12.18V12.94C88.47 12.98 88.33 13.01 88.17 13.03C88.01 13.05 87.87 13.07 87.74 13.07L87.75 13.08ZM89.28 8.42H90.18V9.01C90.32 8.79 90.5 8.63 90.71 8.51C90.93 8.38 91.17 8.32 91.44 8.32C91.63 8.32 91.78 8.35 91.9 8.4V9.21C91.82 9.17 91.73 9.15 91.64 9.14C91.55 9.12 91.46 9.11 91.37 9.11C91.11 9.11 90.87 9.18 90.67 9.33C90.47 9.47 90.3 9.67 90.18 9.94V13.01H89.28V8.42ZM93.89 13.08C93.56 13.08 93.27 13.02 93.02 12.91C92.77 12.79 92.57 12.63 92.43 12.42C92.29 12.21 92.21 11.97 92.21 11.69C92.21 11.26 92.38 10.92 92.71 10.67C93.04 10.42 93.49 10.29 94.07 10.29C94.52 10.29 94.94 10.38 95.32 10.55V10.06C95.32 9.73 95.22 9.48 95.03 9.32C94.84 9.16 94.57 9.08 94.2 9.08C93.99 9.08 93.77 9.11 93.54 9.18C93.31 9.24 93.06 9.34 92.78 9.47L92.45 8.79C92.8 8.63 93.12 8.51 93.42 8.44C93.72 8.36 94.02 8.32 94.33 8.32C94.92 8.32 95.38 8.46 95.71 8.74C96.04 9.02 96.2 9.42 96.2 9.95V12.99H95.32V12.59C95.12 12.75 94.9 12.87 94.66 12.95C94.43 13.03 94.17 13.07 93.89 13.07V13.08ZM93.07 11.67C93.07 11.89 93.16 12.07 93.35 12.21C93.54 12.34 93.79 12.41 94.1 12.41C94.34 12.41 94.56 12.38 94.76 12.31C94.96 12.24 95.15 12.13 95.32 11.98V11.21C95.15 11.11 94.96 11.04 94.77 10.99C94.58 10.94 94.37 10.92 94.14 10.92C93.81 10.92 93.55 10.99 93.36 11.13C93.17 11.26 93.08 11.44 93.08 11.68L93.07 11.67Z" fill="#0800B9"/>
</svg>
