<svg width="112" height="32" viewBox="0 0 112 32" fill="none" xmlns="http://www.w3.org/2000/svg">
<path d="M104.34 16.7166C106.493 17.7313 108.315 19.3774 109.403 20.4863C111.134 22.2524 110.294 26.5035 108.457 28.2662C110.864 26.5111 111.612 24.4693 111.692 22.8313V22.2321C111.659 21.5613 111.521 20.985 111.362 20.5631C110.294 17.7288 107.634 15.623 103.673 13.8064C94.3398 9.52398 81.1076 6.13165 79.8185 0C80.4665 10.9742 95.584 12.5945 104.34 16.7166Z" fill="white"/>
<path d="M108.136 21.6236C112.613 25.7347 107.64 28.8934 106.478 29.6291C108.935 28.2709 110.875 26.0269 110.984 23.6319V23.2062C110.911 21.6173 110.009 19.9809 107.904 18.5082C101.285 13.881 84.3596 10.7228 82.6516 7.86431C86.0897 16.6534 102.227 16.1955 108.136 21.6236Z" fill="white"/>
<path d="M85.3684 12.4761C90.7321 21.2496 108.392 20.7483 109.592 25.3424C109.852 26.3372 109.243 27.3057 108.534 28.0105C109.529 27.0309 110.229 26.1981 110.179 24.5503C109.974 17.613 89.8493 16.1619 85.3684 12.4761Z" fill="white"/>
<path d="M101.009 31.991C108.293 29.7838 112.966 25.3844 106.482 23.38C109.944 25.0346 107.087 29.9526 101.009 31.991Z" fill="white"/>
<path d="M21.4942 23.8024H20.6448L23.3731 13.7076H25.6299L23.3256 22.2482C23.0937 23.1832 22.3821 23.8024 21.4942 23.8024Z" fill="white"/>
<path d="M23.5445 13.5787L23.5322 13.6261L20.8167 23.6725H21.666C22.5552 23.6725 23.2676 23.0534 23.4991 22.1184L25.8009 13.5787H23.5445Z" fill="white"/>
<path d="M4.99969 23.8024H1.19095L1.79776 23.355C2.01443 23.2024 2.25572 22.8156 2.35918 22.5023C2.48174 22.1546 2.72599 21.4129 2.85871 20.9906C3.06055 20.3469 3.39172 19.2401 3.85011 17.6771C4.0757 16.896 4.2907 16.2218 4.44208 15.6854C4.80166 14.3471 5.68112 13.4778 6.9312 13.4744C7.19751 13.472 7.50112 13.4648 7.83949 13.4545C8.0795 13.4484 8.29492 13.4472 8.49041 13.4472C8.72023 13.4472 8.9225 13.4497 9.10611 13.4497C9.5857 13.4497 9.94233 13.4713 10.2006 13.5218C10.444 13.5735 10.6611 13.6481 10.8532 13.7529C11.0419 13.8589 11.1992 13.9925 11.3166 14.1557C11.4316 14.3135 11.516 14.4979 11.5689 14.7027C11.6206 14.8872 11.6458 15.0827 11.6444 15.29V15.3589L11.6436 15.4025C11.6364 15.6171 11.6067 15.83 11.555 16.0475C11.4876 16.3325 11.3917 16.6056 11.2696 16.8634C11.1458 17.1225 11.0003 17.3574 10.8312 17.5698C10.6645 17.7776 10.4839 17.957 10.2875 18.1096C10.0988 18.2547 9.922 18.3687 9.75408 18.4552L9.74567 18.46C9.83005 18.5083 9.91401 18.5669 9.9967 18.6318C10.1349 18.7475 10.2528 18.8909 10.3503 19.0584C10.4505 19.2254 10.5204 19.4052 10.5594 19.5969C10.5899 19.75 10.6052 19.9145 10.6052 20.0879L10.604 20.199L10.6016 20.2274V20.2286C10.592 20.4351 10.5596 20.6513 10.5066 20.871C10.3867 21.3616 10.181 21.8145 9.88668 22.2258C9.59452 22.6346 9.24384 22.9658 8.84058 23.2083C8.44112 23.4462 8.01921 23.6065 7.57566 23.687C7.12618 23.7676 6.28241 23.8015 4.99969 23.8024ZM5.64287 19.4534L4.92667 21.9018H6.08049C6.36968 21.9018 6.5974 21.8879 6.74878 21.8641C6.90058 21.8421 7.0524 21.7992 7.2042 21.7407C7.35686 21.6783 7.47559 21.6139 7.55743 21.5541C7.6423 21.4917 7.72577 21.4104 7.81227 21.3056C7.89665 21.2004 7.97427 21.0804 8.04296 20.9447C8.10955 20.8082 8.16172 20.6696 8.19859 20.5245C8.22575 20.4121 8.24354 20.3108 8.24655 20.2239L8.24775 20.1714C8.24775 20.1242 8.24534 20.0781 8.23813 20.0386C8.21734 19.9106 8.17118 19.8101 8.0965 19.7223C8.02017 19.6311 7.92688 19.5692 7.79501 19.5247C7.6801 19.4856 7.4316 19.4534 7.08983 19.4534H5.64345M7.59277 15.3377C7.44987 15.3377 7.30739 15.3389 7.20053 15.3437C6.94993 15.3729 6.86597 15.4009 6.7218 15.8199C6.62516 16.1617 6.34355 17.0751 6.20574 17.5529H6.91643C7.34853 17.5529 7.64536 17.539 7.77172 17.519C7.90741 17.4996 8.05923 17.4583 8.23181 17.3918C8.37811 17.335 8.51422 17.2502 8.64143 17.1255C8.77585 16.9937 8.88143 16.8571 8.96497 16.7019C9.05152 16.5459 9.11212 16.3907 9.15155 16.2299L9.15636 16.207C9.17583 16.1243 9.18653 16.0484 9.18857 15.9763L9.18942 15.9258C9.18942 15.8868 9.18857 15.8508 9.18462 15.8176C9.16851 15.6968 9.13377 15.6217 9.07824 15.5573C9.01501 15.4907 8.9328 15.4382 8.81151 15.4017C8.69913 15.3681 8.48076 15.3436 8.18435 15.3436H8.16488C8.16488 15.3436 7.87908 15.3376 7.59369 15.3376" fill="white"/>
<path d="M9.35998 15.8465C9.35757 15.917 9.34772 15.9954 9.32945 16.0772L9.32223 16.0997C9.28401 16.2613 9.22307 16.4169 9.13777 16.5738C9.05507 16.7264 8.94823 16.8655 8.81381 16.9953C8.68617 17.1204 8.55133 17.2081 8.40334 17.2624C8.2316 17.3285 8.08021 17.3688 7.94326 17.39C7.81816 17.41 7.51921 17.4227 7.0888 17.4227H6.37937C6.51549 16.9453 6.79579 16.0319 6.89374 15.6905C7.03793 15.2712 7.1223 15.2449 7.37333 15.2131C7.69434 15.2 8.33634 15.2139 8.33634 15.2139L8.35665 15.2131C8.65347 15.2131 8.871 15.2377 8.98126 15.2724C9.10338 15.3072 9.18565 15.3602 9.24841 15.4289C9.30526 15.4917 9.33952 15.5676 9.35479 15.6876C9.3608 15.7215 9.36199 15.7575 9.36199 15.7974L9.35998 15.8465ZM8.41904 20.0942C8.41423 20.1824 8.39992 20.2816 8.37107 20.3952C8.33585 20.539 8.28284 20.6789 8.21503 20.8138C8.14591 20.9512 8.06873 21.0712 7.98477 21.1763C7.89955 21.2807 7.81557 21.3621 7.72908 21.4252C7.64854 21.4846 7.52935 21.5478 7.37542 21.6097C7.22319 21.6704 7.07308 21.7123 6.92084 21.7339C6.76819 21.7586 6.54176 21.7725 6.25086 21.7725H5.10001L5.81495 19.3245H7.24186L7.26097 19.3233C7.60445 19.3233 7.85336 19.3552 7.96701 19.3946C8.09761 19.4399 8.19258 19.5031 8.26934 19.5914C8.34351 19.6808 8.38846 19.7796 8.4097 19.9102C8.41691 19.9488 8.42052 19.9943 8.42052 20.0417L8.41904 20.0942ZM11.4904 14.0253V14.0261C11.3704 13.8629 11.2135 13.7293 11.026 13.6224C10.8344 13.5186 10.6177 13.4431 10.3739 13.3922C10.116 13.3413 9.7573 13.3192 9.27813 13.3192C8.93848 13.3192 8.53309 13.312 8.01153 13.3264C7.67187 13.3361 7.37122 13.3417 7.10323 13.3451C5.85399 13.3487 4.97242 14.2182 4.61326 15.5577C4.46314 16.0924 4.24942 16.7662 4.02299 17.5465C3.56502 19.1104 3.23299 20.2154 3.02988 20.8625C2.89801 21.2844 2.6529 22.0244 2.53205 22.3738C2.4282 22.688 2.1873 23.0726 1.9702 23.2257L1.36127 23.673H5.17044C6.45401 23.673 7.29786 23.6375 7.74989 23.5568C8.19089 23.4779 8.61324 23.3159 9.01269 23.0793C9.41596 22.8359 9.76833 22.506 10.0592 22.0951C10.3522 21.6855 10.5596 21.2309 10.68 20.7407C10.7325 20.5207 10.7636 20.3061 10.7741 20.0996V20.0987L10.775 20.069L10.7786 19.9588C10.7786 19.7845 10.7625 19.6196 10.7328 19.4665C10.6929 19.2748 10.6234 19.0955 10.5229 18.9271C10.4258 18.7609 10.3088 18.6171 10.1701 18.5043C10.0852 18.4361 10.0035 18.378 9.91823 18.3292L9.92544 18.3244C10.0938 18.2396 10.2715 18.1243 10.4593 17.9797C10.6561 17.8283 10.8384 17.6476 11.0038 17.4386C11.1725 17.2266 11.3176 16.9925 11.4405 16.7343C11.5622 16.4752 11.6585 16.2038 11.7268 15.9171C11.7776 15.6996 11.8078 15.4854 11.8145 15.2739L11.8169 15.2289V15.1592C11.8173 14.9544 11.7931 14.7576 11.7414 14.5723C11.6897 14.3671 11.604 14.1826 11.49 14.0249" fill="white"/>
<path d="M14.3911 23.8024H14.3017C13.5795 23.8012 13.044 23.6875 12.667 23.3906C12.3133 23.1091 12.162 22.6761 12.162 22.1694L12.1644 22.06C12.1752 21.7403 12.2373 21.3828 12.3391 20.9804L13.6824 16.0217H15.9354L14.6158 20.9329C14.5542 21.1424 14.522 21.3226 14.5186 21.4608L14.5174 21.4914C14.521 21.7025 14.5628 21.7878 14.6637 21.8726C14.7676 21.9575 15.0004 22.0282 15.3837 22.0282H15.3898C16.0466 22.0234 16.3829 21.8671 16.6271 21.5872C16.8748 21.3052 17.0376 20.832 17.1839 20.1709L18.3093 16.0217H20.5253L18.805 22.6003C18.7731 22.7088 18.7406 22.8445 18.721 22.959C18.6951 23.121 18.7659 23.2596 18.8312 23.3525L19.1569 23.7613H16.3221L16.429 23.269C15.8205 23.735 15.0967 23.8024 14.3911 23.8024Z" fill="white"/>
<path d="M18.8947 22.8305C18.9125 22.7161 18.943 22.5774 18.9757 22.4697L20.6973 15.8915H18.4826L17.355 20.0425C17.2096 20.7027 17.0459 21.1763 16.8008 21.4583C16.5532 21.7386 16.2182 21.8943 15.5613 21.8981H15.5565C15.1711 21.8981 14.9395 21.8264 14.8352 21.742C14.7334 21.6598 14.6932 21.5724 14.6894 21.3621V21.3316C14.6954 21.1929 14.7266 21.0152 14.7873 20.8036L16.1091 15.8915H13.8536L12.5111 20.8507C12.4081 21.2535 12.3486 21.6106 12.3372 21.9312L12.3336 22.0405C12.3327 22.5468 12.4854 22.9802 12.8399 23.2605C13.2143 23.5582 13.7516 23.671 14.4742 23.6722H14.5624C15.268 23.6722 15.9918 23.6053 16.6016 23.1396L16.4939 23.6324H19.3282L19.0025 23.2228C18.9373 23.1308 18.8685 22.9917 18.894 22.8305" fill="white"/>
<path d="M73.5582 23.8024L70.5717 23.8016L70.7459 21.3358H68.8976C68.7551 21.608 68.4353 22.2182 68.2967 22.4871C67.7573 23.5238 66.8202 23.8016 66.0925 23.8016H66.0793C65.9835 23.8024 65.9008 23.8024 65.8316 23.8024C65.6943 23.8024 65.6133 23.8016 65.6133 23.8016L65.2143 23.7992L65.4072 23.4383C65.4108 23.4375 69.9156 15.0614 70.0873 14.7561C70.2769 14.4194 70.5788 14.0844 70.854 13.883C71.2111 13.6158 71.5588 13.5022 71.9523 13.5022L71.9662 13.5034C72.0854 13.5034 72.2075 13.5106 72.3343 13.5245C73 13.5822 73.3427 14.1377 73.3406 14.781L73.3369 14.8729V14.8899C73.3222 15.3262 72.9235 22.3055 72.9078 22.6503L72.9066 22.6491V22.7589L72.9054 22.7565C72.9078 23.0097 72.9614 23.1806 73.0916 23.3451H73.0928C73.2399 23.5384 73.4189 23.6873 73.4189 23.6873L73.5592 23.8022M71.0854 17.0824L69.7488 19.6131H70.9132L71.0854 17.0824Z" fill="white"/>
<path d="M71.0841 19.4833H69.9206L71.2567 16.9526L71.0841 19.4833ZM73.2637 23.2153C73.134 23.0508 73.0771 22.8807 73.0754 22.6276L73.0766 22.6288V22.5194L73.079 22.5203C73.0926 22.1755 73.4925 15.1966 73.5086 14.7599V14.7438L73.5098 14.6513C73.5146 14.0089 73.1706 13.4534 72.5057 13.3958C72.3772 13.3822 72.2563 13.3729 72.138 13.3729H72.1214C71.7305 13.3717 71.3828 13.4861 71.024 13.752C70.7488 13.9538 70.4473 14.2893 70.2565 14.6264C70.0852 14.9317 65.5797 23.3061 65.5797 23.3086L65.3868 23.6686L65.7858 23.6723H66.2618C66.9894 23.6723 67.9299 23.3953 68.4685 22.356C68.6088 22.0897 68.9273 21.4778 69.0681 21.2056H70.919L70.7439 23.6723H73.7304L73.5905 23.5582C73.5905 23.5582 73.4111 23.4085 73.2631 23.2151" fill="white"/>
<path d="M79.6218 23.8024H78.7661L80.3067 18.0422C80.6425 16.7659 81.5915 16.0645 82.6864 16.0645H85.9698L85.9602 16.1375L85.9321 16.3389C85.8278 17.1662 85.1494 18.0066 84.1105 18.0083H83.5477C83.072 18.0095 82.8328 18.0987 82.6793 18.2403C82.5275 18.3794 82.4138 18.638 82.3083 19.0557L81.4475 22.2483C81.2206 23.1736 80.54 23.8024 79.6211 23.8024" fill="white"/>
<path d="M82.8658 15.9335C81.7683 15.9326 80.8168 16.634 80.4805 17.912L78.9378 23.6726H79.7944C80.7133 23.6726 81.3948 23.0451 81.6208 22.1185L82.4811 18.9259C82.588 18.5091 82.7012 18.2509 82.8547 18.1109C83.007 17.9706 83.2436 17.8802 83.7232 17.8802H84.2838C85.3197 17.8766 86.0003 17.0372 86.1059 16.2091L86.133 16.0085L86.1426 15.9335L82.8658 15.9335Z" fill="white"/>
<path d="M56.8541 23.8024H56.7736C55.8907 23.8012 55.2788 23.637 54.8751 23.2736C54.502 22.9348 54.3663 22.4514 54.3663 21.9103C54.3663 21.8671 54.3663 21.8226 54.3687 21.7797C54.392 21.1424 54.5697 20.4084 54.7948 19.5781C55.0713 18.5205 55.4135 17.6055 56.0267 16.938C56.6386 16.2706 57.5185 15.8928 58.749 15.8928H58.7647C59.2014 15.8952 59.6458 15.9114 60.0393 16.0645C60.2429 16.1408 60.4299 16.2634 60.5808 16.4338L60.6953 15.9797H62.9579L61.1579 22.5562C61.107 22.7164 61.0874 22.8487 61.0824 22.9581V22.9917C61.0824 23.1486 61.1168 23.2457 61.1693 23.3364L61.3983 23.7176H58.7137L58.8049 23.3182C58.1926 23.7299 57.5678 23.8024 56.8541 23.8024ZM58.8944 17.7124C58.1926 17.7208 57.8775 17.9138 57.6036 18.2946C57.3347 18.6809 57.1532 19.3123 56.9332 20.1196C56.8021 20.6196 56.7296 21.0012 56.7216 21.2709L56.718 21.3209C56.7216 21.6169 56.7794 21.7221 56.8829 21.8014C56.9851 21.8836 57.2277 21.9417 57.6038 21.9417H57.6322C58.3361 21.9381 58.6923 21.8043 58.9565 21.5308C59.224 21.2543 59.4199 20.7595 59.6353 20.0022H59.6362C59.8092 19.3411 59.9487 18.8076 59.9597 18.4468V18.3938C59.9585 18.1334 59.9067 18.0066 59.7897 17.9048C59.665 17.7993 59.3873 17.7123 58.9085 17.7123H58.8929" fill="white"/>
<path d="M60.133 18.3191C60.1203 18.6774 59.9842 19.213 59.8103 19.8732H59.8091C59.595 20.6301 59.3961 21.1254 59.1306 21.4006C58.8665 21.6737 58.5107 21.8094 57.806 21.8111H57.7865C57.4048 21.8147 57.1593 21.7551 57.0554 21.672C56.9519 21.5923 56.8939 21.4863 56.8918 21.1911L56.8942 21.1423C56.9014 20.8726 56.9743 20.4906 57.1087 19.9898C57.3258 19.1824 57.5086 18.551 57.777 18.1643C58.0505 17.7839 58.3643 17.5923 59.0665 17.5833H59.0761C59.5595 17.5825 59.8381 17.6702 59.9607 17.7771C60.0806 17.8768 60.1324 18.0048 60.1333 18.2639L60.133 18.3191ZM61.3293 22.4268L63.1297 15.8503H60.867L60.7547 16.3041C60.6033 16.134 60.415 16.0123 60.211 15.9347C59.8192 15.7816 59.3748 15.7655 58.9385 15.7642H58.9254C57.6935 15.763 56.8128 16.1408 56.2013 16.8087C55.5865 17.4769 55.2447 18.3908 54.9661 19.4487C54.7426 20.2794 54.5641 21.0152 54.5421 21.6483C54.5397 21.6936 54.5373 21.7368 54.5373 21.7823C54.5373 22.3208 54.6746 22.8059 55.0461 23.1447C55.4502 23.5073 56.0625 23.6709 56.945 23.6726H57.0251C57.7388 23.6726 58.3634 23.6018 58.9766 23.1896L58.885 23.5878H61.5692L61.3406 23.2045C61.2898 23.1176 61.2554 23.0188 61.2554 22.8627V22.828C61.259 22.7194 61.2804 22.5871 61.3287 22.4268" fill="white"/>
<path d="M75.3743 23.8023H74.5228L76.5879 16.1115L76.6001 16.0644H78.856L77.2027 22.2558C76.9368 23.1756 76.2682 23.8023 75.3743 23.8023Z" fill="white"/>
<path d="M76.7736 15.9335L76.76 15.9831L74.6949 23.6727H75.5459C76.4386 23.6727 77.109 23.0468 77.3744 22.1275L79.0273 15.9335L76.7736 15.9335Z" fill="white"/>
<path d="M28.7199 26.6283H28.7127C28.6461 26.6283 28.5804 26.6275 28.5177 26.6259H24.3735L24.3921 26.5471C24.3945 26.5423 24.5876 25.6583 24.8925 25.2728C25.1889 24.8992 25.6918 24.5961 26.4067 24.5961H28.2475C28.8564 24.5961 29.23 24.4909 29.462 24.3213C29.6948 24.1487 29.8351 23.8922 29.9467 23.4554L29.9839 23.3273C29.3847 23.7111 28.7262 23.7721 28.1219 23.7721C28.1135 23.7721 28.1053 23.7721 28.0973 23.7721H28.0443C27.172 23.7721 26.5606 23.6021 26.1581 23.2336C25.785 22.8884 25.6451 22.3999 25.6472 21.8597C25.6472 21.8169 25.6472 21.7757 25.6508 21.7321C25.6674 21.2058 25.7975 20.6164 25.9786 19.9753C26.2843 18.7773 26.5896 17.7741 27.1913 17.043C27.7909 16.3099 28.6878 15.9078 30.0193 15.9078H30.0485C30.5544 15.9078 30.9848 15.9139 31.3617 16.0436C31.5657 16.1118 31.7506 16.2259 31.9007 16.3892L31.9676 16.1394L32.019 15.9507H34.9461L34.3618 16.3955C34.1256 16.5834 34.0056 16.747 33.8869 17.2372L32.1704 23.5427C31.8544 24.711 31.4775 25.4887 30.9101 25.9822C30.3406 26.4733 29.621 26.6285 28.7203 26.6285M30.1922 17.682C29.6134 17.6845 29.3114 17.7792 29.0608 18.0365C28.806 18.2961 28.5829 18.8053 28.3493 19.6644C28.1742 20.3187 28.0325 20.8581 28.0198 21.2224V21.2741C28.0198 21.5136 28.0703 21.6425 28.1674 21.732C28.2684 21.8278 28.4918 21.9114 28.8967 21.9114C28.9028 21.9114 28.9088 21.9114 28.9145 21.9114H28.9157C29.7257 21.9054 30.0827 21.7257 30.3528 21.3737C30.6238 21.0226 30.8354 20.1618 31.0152 19.5435C31.195 18.9261 31.2357 18.6721 31.2441 18.3906V18.3431C31.2417 18.076 31.1881 17.9585 31.0703 17.8622C30.946 17.7617 30.6708 17.682 30.2154 17.682C30.2106 17.682 30.2058 17.682 30.2018 17.682L30.1922 17.682Z" fill="white"/>
<path d="M31.4161 18.2624C31.4065 18.5427 31.3664 18.7954 31.1867 19.4136C31.0086 20.0336 30.7944 20.8927 30.5247 21.2455C30.2529 21.5966 29.8959 21.7772 29.0881 21.784H29.0845C28.6694 21.7849 28.4412 21.7 28.3394 21.6021C28.241 21.5118 28.1919 21.3842 28.1915 21.145L28.1919 21.0925C28.2027 20.7291 28.3445 20.188 28.5218 19.5354C28.755 18.6767 28.9772 18.1661 29.2329 17.907C29.4822 17.6501 29.785 17.5559 30.363 17.5521H30.3726C30.8365 17.5521 31.1163 17.631 31.241 17.7319C31.3606 17.8299 31.414 17.9461 31.4153 18.2141L31.4161 18.2624ZM35.1167 15.8199H32.1904L32.1404 16.0103L32.0726 16.2588C31.9208 16.0963 31.7367 15.9831 31.534 15.914C31.1562 15.7847 30.7271 15.7796 30.2204 15.7775H30.1979C28.8626 15.7775 27.9623 16.179 27.3636 16.9139C26.7615 17.6441 26.457 18.6478 26.15 19.8461C25.9698 20.4873 25.8396 21.0759 25.8214 21.6029C25.8202 21.6449 25.819 21.687 25.819 21.7306C25.8181 22.2708 25.9589 22.7589 26.3312 23.1036C26.734 23.4709 27.3459 23.6422 28.2173 23.6422H28.2682C28.8801 23.6446 29.5475 23.587 30.1581 23.1991L30.1187 23.3254C30.0071 23.7622 29.8677 24.0196 29.634 24.1913C29.4033 24.3613 29.0289 24.4669 28.4183 24.4669H26.5797C25.863 24.4661 25.3614 24.7693 25.0633 25.1433C24.7592 25.5292 24.5663 26.4146 24.5629 26.4188L24.5451 26.4968H28.6905C28.7524 26.4968 28.8178 26.5004 28.8839 26.5004H28.8935C29.7925 26.5004 30.5134 26.344 31.0837 25.8542C31.6494 25.3597 32.0247 24.5837 32.3435 23.413L34.0584 17.1092C34.1792 16.616 34.2979 16.4536 34.5337 16.2666L35.1167 15.8199Z" fill="white"/>
<path d="M43.9102 23.8024H43.0532L44.5954 18.0422C44.9295 16.7663 45.8764 16.0645 46.9705 16.0645H50.2572L50.2476 16.137L50.2213 16.3388C50.1144 17.1661 49.4355 18.0066 48.3983 18.0083H47.8364C47.3586 18.0095 47.119 18.0987 46.9689 18.2402C46.8154 18.3793 46.7013 18.638 46.5966 19.0556L45.7353 22.2483C45.5085 23.1735 44.8291 23.8024 43.9102 23.8024Z" fill="white"/>
<path d="M50.3935 16.2091L50.421 16.0073L50.4294 15.9335H47.1516C46.0533 15.9323 45.1022 16.6336 44.7685 17.9121L43.2271 23.6727H44.0824C45.0017 23.6727 45.6823 23.0451 45.9074 22.1186L46.7683 18.9259C46.8755 18.5091 46.9887 18.2509 47.1423 18.1109C47.2924 17.9706 47.5311 17.8798 48.0103 17.8798H48.57C49.6081 17.8762 50.2862 17.0373 50.3935 16.2091Z" fill="white"/>
<path d="M37.0941 23.8024H37.0041C36.1238 23.8015 35.5085 23.637 35.1065 23.2736C34.7333 22.9348 34.5972 22.4488 34.598 21.909C34.598 21.8663 34.598 21.8225 34.5992 21.7797C34.623 21.1424 34.7998 20.4058 35.0263 19.5764C35.3032 18.5188 35.6445 17.6054 36.2594 16.938C36.8691 16.2727 37.7452 15.8944 38.9707 15.8944H38.9977C39.4345 15.8944 39.8785 15.9114 40.2707 16.0645C40.4751 16.1408 40.6617 16.2634 40.8135 16.4351L40.9279 15.9784H43.1881L41.3897 22.5561C41.2917 22.8954 41.2706 23.1116 41.4005 23.3364L41.6282 23.7176H38.9462L39.0356 23.3181C38.425 23.7282 37.8043 23.8024 37.0941 23.8024ZM39.1251 17.7123C38.4241 17.7207 38.1112 17.912 37.8381 18.2945C37.5671 18.6808 37.3852 19.3122 37.1681 20.1196C37.0337 20.6212 36.9633 21.0029 36.9536 21.2709V21.3226C36.9548 21.6177 37.0133 21.7229 37.1159 21.8013C37.219 21.8835 37.4599 21.9417 37.833 21.9417H37.8652C38.5687 21.9381 38.9245 21.8043 39.1887 21.5308C39.4558 21.2534 39.6547 20.756 39.8709 19.997L39.8782 19.9715C40.0478 19.3244 40.1835 18.7999 40.1937 18.4479V18.3954C40.1925 18.1351 40.1402 18.0083 40.0206 17.9048C39.8972 17.7996 39.6246 17.7114 39.1488 17.7114H39.1361V17.7106L39.1313 17.7118H39.1253" fill="white"/>
<path d="M40.3654 18.3191C40.3534 18.6719 40.2178 19.1956 40.0503 19.841L40.0407 19.8673C39.8249 20.628 39.6277 21.1254 39.3601 21.3998C39.0976 21.6737 38.7402 21.8094 38.0371 21.8111H38.0146C37.636 21.8147 37.3926 21.7551 37.287 21.672C37.186 21.5923 37.1275 21.488 37.1254 21.1937L37.1266 21.1412C37.1338 20.8728 37.2071 20.4932 37.3403 19.9899C37.5591 19.1825 37.7389 18.552 38.0082 18.1644C38.2821 17.7832 38.5951 17.5924 39.2964 17.5835H39.3036L39.306 17.5826C39.7886 17.5826 40.0681 17.6704 40.1927 17.7773C40.3115 17.8769 40.3628 18.0067 40.3645 18.2657L40.3654 18.3191ZM41.5612 22.4268L43.3625 15.8486H41.1011L40.9875 16.3053C40.8353 16.134 40.6474 16.0123 40.4435 15.9347C40.0504 15.7816 39.6056 15.7642 39.1688 15.7642H39.1544C37.9234 15.7642 37.0439 16.1408 36.432 16.8086C35.8197 17.4769 35.4762 18.3899 35.1989 19.447C34.9737 20.2777 34.7952 21.0152 34.7736 21.6483C34.7712 21.6936 34.77 21.736 34.77 21.7797C34.77 22.3199 34.9044 22.8059 35.2805 23.1447C35.6834 23.5073 36.2953 23.6726 37.1764 23.6726H37.2657C37.9773 23.6726 38.5976 23.5985 39.2095 23.1896L39.1183 23.5878H41.8012L41.5735 23.2079C41.4446 22.9818 41.4649 22.7673 41.5612 22.4268Z" fill="white"/>
<path d="M50.3598 23.8024H49.5104L51.5844 16.0645H53.803L52.1895 22.2559C51.922 23.1757 51.2515 23.8024 50.3598 23.8024Z" fill="white"/>
<path d="M49.6816 23.6724H50.5323C51.424 23.6724 52.0953 23.047 52.3612 22.1277L53.9763 15.9332H51.7578L49.6816 23.6724Z" fill="white"/>
<path d="M0 31.934L1.07411 27.8738H2.0918L2.51245 29.4216C2.63669 29.9393 2.71344 30.3621 2.77663 30.8069H2.79491C2.84407 30.3914 2.93102 29.9461 3.09046 29.3499L3.47719 27.8738H4.28413L3.21724 31.934H2.31955L1.87387 30.3133C1.73437 29.7651 1.65338 29.3974 1.58214 28.8975L1.5635 28.9047C1.48549 29.3016 1.3464 29.8732 1.17848 30.5131L0.807022 31.9345L0 31.934Z" fill="white"/>
<path d="M6.61428 29.6031C6.54853 29.59 6.46587 29.5784 6.38105 29.5784C5.82089 29.5784 5.3604 30.265 5.31926 30.8132C5.29763 31.1029 5.39775 31.3009 5.63814 31.3009C5.89722 31.3009 6.23816 31.0058 6.42515 30.2828L6.61428 29.6031ZM6.1877 31.934C6.20633 31.7589 6.23902 31.56 6.2734 31.3501H6.25561C5.94733 31.8369 5.56189 31.9998 5.21884 31.9998C4.68793 31.9998 4.35802 31.5897 4.40382 30.9753C4.47798 29.9822 5.21331 28.9216 6.66523 28.9216C7.01464 28.9216 7.38865 28.9882 7.62993 29.0662L7.20207 30.6085C7.10074 30.9876 7.00405 31.5655 6.98878 31.934H6.1877Z" fill="white"/>
<path d="M9.8416 28.1872L9.63085 28.9882H10.2567L10.0816 29.6451H9.45572L9.18221 30.645C9.14916 30.759 9.1131 30.9155 9.10589 31.0181C9.09507 31.1627 9.14783 31.2649 9.33402 31.2649C9.41251 31.2649 9.49685 31.2649 9.57572 31.2529L9.42265 31.9339C9.31158 31.975 9.09273 31.9997 8.90574 31.9997C8.38713 31.9997 8.16154 31.7283 8.18868 31.3606C8.2007 31.1991 8.23063 31.0417 8.29001 30.8132L8.60592 29.645H8.23234L8.40195 28.9881H8.78148L8.93158 28.4339L9.8416 28.1872Z" fill="white"/>
<path d="M11.6228 28.6206C11.3874 28.6206 11.2187 28.4577 11.2382 28.1987C11.2662 27.9035 11.51 27.7055 11.7746 27.7055C12.0282 27.7055 12.1957 27.8738 12.177 28.1329C12.1537 28.4404 11.9056 28.6206 11.6283 28.6206H11.6228ZM10.279 31.9341L11.0588 28.9882H11.926L11.1457 31.9341H10.279Z" fill="white"/>
<path d="M13.2456 30.7648C13.2201 31.1083 13.3715 31.3369 13.673 31.3369C14.1483 31.3369 14.4655 30.6448 14.5033 30.1381C14.5232 29.8671 14.4308 29.5784 14.0809 29.5784C13.581 29.5784 13.2744 30.3077 13.2456 30.7648ZM15.401 30.1326C15.3204 31.2114 14.5266 31.9997 13.5025 31.9997C12.7558 31.9997 12.2923 31.5116 12.3466 30.7831C12.4229 29.7586 13.1964 28.9215 14.2446 28.9215C15.0337 28.9215 15.451 29.4639 15.401 30.1326Z" fill="white"/>
<path d="M15.81 31.934L16.3316 29.9461C16.4321 29.5725 16.5038 29.2469 16.5593 28.9882H17.3307L17.234 29.4763H17.2463C17.552 29.09 17.9319 28.9216 18.3238 28.9216C18.805 28.9216 19.0544 29.2168 19.0166 29.7231C19.007 29.8554 18.9658 30.0784 18.9309 30.223L18.4776 31.934H17.6109L18.0396 30.301C18.0659 30.1992 18.0863 30.0784 18.0948 29.9707C18.1104 29.7651 18.0482 29.6205 17.8315 29.6205C17.5482 29.6205 17.1907 29.9754 17.0215 30.6259L16.6772 31.934H15.81Z" fill="white"/>
<path d="M21.8397 29.6031C21.774 29.59 21.6909 29.5784 21.6065 29.5784C21.0459 29.5784 20.5854 30.265 20.5443 30.8132C20.5226 31.1029 20.6223 31.3009 20.8636 31.3009C21.1222 31.3009 21.4636 31.0058 21.6506 30.2828L21.8397 29.6031ZM21.4127 31.934C21.4313 31.7589 21.4644 31.56 21.4988 31.3501H21.4805C21.1722 31.8369 20.7868 31.9998 20.4437 31.9998C19.9137 31.9998 19.5829 31.5897 19.6291 30.9753C19.7029 29.9822 20.4386 28.9216 21.8901 28.9216C22.2391 28.9216 22.6136 28.9882 22.8548 29.0662L22.4274 30.6085C22.3261 30.9876 22.2294 31.5655 22.2137 31.934H21.4127Z" fill="white"/>
<path d="M23.1063 31.934C23.1063 31.934 23.9285 28.8457 24.0574 28.3797C24.2126 27.814 24.587 27.6571 25.112 27.6571C24.1036 31.4111 23.9739 31.934 23.9739 31.934H23.1063Z" fill="white"/>
<path d="M29.4706 31.8189C29.2462 31.9152 28.8722 32 28.3841 32C27.3126 32 26.6388 31.3427 26.719 30.2716C26.7867 29.3612 27.249 28.6509 27.894 28.2409C28.3384 27.9453 28.8481 27.8075 29.4201 27.8075C29.8598 27.8075 30.1834 27.9101 30.2928 27.9826L30.0044 28.687C29.889 28.6264 29.6287 28.5538 29.2802 28.5538C28.9307 28.5538 28.5911 28.6623 28.329 28.868C27.9652 29.1445 27.7133 29.608 27.6713 30.1745C27.6234 30.819 27.9521 31.2533 28.6691 31.2533C28.9524 31.2533 29.2386 31.2049 29.4502 31.121L29.4706 31.8189Z" fill="white"/>
<path d="M32.462 29.6031C32.3959 29.59 32.3136 29.5784 32.2288 29.5784C31.6686 29.5784 31.2077 30.265 31.167 30.8132C31.1453 31.1029 31.245 31.3009 31.4854 31.3009C31.7449 31.3009 32.0859 31.0058 32.2724 30.2828L32.462 29.6031ZM32.0354 31.934C32.0537 31.7589 32.0867 31.56 32.1206 31.3501H32.1028C31.795 31.8369 31.41 31.9998 31.0669 31.9998C30.536 31.9998 30.2057 31.5897 30.2515 30.9753C30.3256 29.9822 31.0614 28.9216 32.5125 28.9216C32.8619 28.9216 33.2367 28.9882 33.478 29.0662L33.0497 30.6085C32.9487 30.9876 32.8513 31.5655 32.8364 31.934H32.0354Z" fill="white"/>
<path d="M33.7584 31.934L34.2206 30.1811C34.338 29.7354 34.4114 29.2414 34.4602 28.9882H35.2129C35.1806 29.1871 35.1476 29.386 35.114 29.5899H35.1327C35.3659 29.1985 35.7183 28.9216 36.1211 28.9216C36.1758 28.9216 36.2301 28.9216 36.2835 28.9277L36.052 29.7707C36.01 29.7707 35.9621 29.7646 35.9138 29.7646C35.36 29.7646 35.0644 30.2586 34.9122 30.8366L34.6264 31.9336L33.7584 31.934Z" fill="white"/>
<path d="M36.2712 31.934L36.733 30.1811C36.8513 29.7354 36.9238 29.2414 36.9726 28.9882H37.7257C37.693 29.1871 37.6604 29.386 37.6269 29.5899H37.6447C37.8787 29.1985 38.2312 28.9216 38.634 28.9216C38.6883 28.9216 38.7425 28.9216 38.7964 28.9277L38.5644 29.7707C38.522 29.7707 38.4745 29.7646 38.4266 29.7646C37.8728 29.7646 37.5764 30.2586 37.4246 30.8366L37.1384 31.9336L36.2712 31.934Z" fill="white"/>
<path d="M40.127 28.6206C39.8921 28.6206 39.7241 28.4577 39.7432 28.1987C39.7708 27.9035 40.015 27.7055 40.2801 27.7055C40.5324 27.7055 40.7007 27.8738 40.6812 28.1329C40.6584 28.4404 40.4107 28.6206 40.1329 28.6206H40.127ZM38.7836 31.9341L39.5634 28.9882H40.431L39.6504 31.9341H38.7836Z" fill="white"/>
<path d="M42.8405 29.8012C42.8513 29.6566 42.7383 29.5544 42.5398 29.5544C42.1357 29.5544 41.8821 29.886 41.8011 30.1629C42.4749 30.1689 42.8197 30.0726 42.84 29.8071L42.8405 29.8012ZM43.1394 31.7654C42.7828 31.9396 42.3507 31.9998 42.0259 31.9998C41.1825 31.9998 40.7847 31.5181 40.8415 30.7523C40.909 29.8555 41.6286 28.9213 42.695 28.9213C43.2908 28.9213 43.6936 29.2529 43.6533 29.8012C43.5973 30.5543 42.8481 30.8248 41.6697 30.7951C41.6637 30.8792 41.6841 31.0123 41.738 31.0962C41.841 31.2468 42.0339 31.3248 42.2867 31.3248C42.606 31.3248 42.882 31.2531 43.1259 31.1382L43.1394 31.7654Z" fill="white"/>
<path d="M43.903 31.934L44.3643 30.1811C44.4822 29.7354 44.5556 29.2414 44.6039 28.9882H45.3574C45.3244 29.1871 45.2917 29.386 45.2586 29.5899H45.2761C45.5101 29.1985 45.8625 28.9216 46.2658 28.9216C46.3196 28.9216 46.3743 28.9216 46.4282 28.9277L46.1962 29.7707C46.1543 29.7707 46.1068 29.7646 46.0584 29.7646C45.5042 29.7646 45.2087 30.2586 45.056 30.8366L44.7698 31.9336L43.903 31.934Z" fill="white"/>
</svg>
