<svg width="120" height="24" viewBox="0 0 120 24" fill="none" xmlns="http://www.w3.org/2000/svg"><path d="M54.788 17.538l1.002-4.725c.198-.948.505-1.745.916-2.385.412-.64.898-1.156 1.458-1.54a5.57 5.57 0 0 1 1.768-.79 7.663 7.663 0 0 1 1.937-.242l.18.002.729.002s-.371.445-.622 1.095c-.192.496-.204 1.492-.204 1.492l-1.023-.006c-.767-.005-1.317.162-1.723.498-.408.339-.689.872-.843 1.6l-1.056 4.997-2.519.002zm7.575-3.45l2.29.002c-.09.64.037 1.088.38 1.343.354.3.912.45 1.676.45.676 0 1.22-.115 1.635-.351.399-.215.69-.585.808-1.023.187-.683-.64-1.236-2.486-1.665l-.055-.032-.244-.064c-1.047-.235-1.72-.482-2.022-.738a1.328 1.328 0 0 1-.631-1.024c-.112-.386-.085-.875.08-1.472a4.193 4.193 0 0 1 1.796-2.461c.899-.577 2.06-.861 3.476-.86 1.33 0 2.272.301 2.829.898.556.662.71 1.526.459 2.591h-1.31c-.502-.002-.797-.226-.892-.675a1.097 1.097 0 0 0-.308-.544c-.316-.276-.812-.415-1.488-.415-.654 0-1.156.115-1.505.35a1.632 1.632 0 0 0-.765.989c-.16.577.356 1.003 1.542 1.282.341.108.597.171.765.193.357.13.671.23.947.306.273.075.49.132.652.174.271.13.54.258.812.385.364.256.612.587.74.992.114.449.098.938-.049 1.472-.319 1.151-.961 2.047-1.923 2.685-.95.596-2.145.894-3.585.894-1.483-.002-2.51-.313-3.078-.932-.636-.619-.816-1.537-.545-2.75m10.161 3.436l2.728-9.85a1.52 1.52 0 0 1 .569-.815c.263-.214.591-.33.93-.332l6.998.002-.522 1.885h-5.89l-.656 2.364 4.385-.002-.204.742c-.089.32-.278.593-.57.814-.263.213-.59.33-.929.332l-3.2-.002-.785 2.816 5.892.002-.569 2.043h-8.177zm10.282.013l2.73-9.861c.089-.322.278-.591.567-.815.294-.225.609-.336.933-.336l4.281.007c1.222 0 2.056.256 2.503.768.462.535.553 1.31.269 2.335-.188.683-.498 1.248-.927 1.695-.38.428-.88.735-1.5.928.454.171.732.427.835.767.107.32.077.863-.094 1.632l-.297 1.31c-.036.13-.073.269-.116.417a2.775 2.775 0 0 0-.082.415c-.04.384.029.632.195.739h-2.558a1.68 1.68 0 0 1-.01-.678c.052-.34.094-.575.132-.703l.294-1.182c.132-.642.127-1.098-.011-1.374-.177-.238-.57-.356-1.18-.356l-2.454-.002-1.19 4.295h-2.32zm4.042-6.213l2.717.002c.588 0 1.057-.117 1.404-.35.349-.235.59-.597.728-1.087.135-.49.092-.853-.124-1.088-.191-.256-.55-.385-1.073-.385l-2.845-.002-.807 2.91zm7.1 6.213l2.73-9.852c.087-.318.277-.59.567-.817.292-.222.61-.34.936-.34h4.113c1.158 0 1.975.247 2.455.716.471.513.585 1.206.341 2.082a3.442 3.442 0 0 1-.75 1.406c-.353.37-.779.664-1.252.862.501.235.845.567 1.032.994.171.404.165.938-.015 1.598-.294 1.065-.874 1.895-1.738 2.494-.88.575-1.974.856-3.282.856l-5.136.001zm4.096-6.746l2.648.002c.566 0 1.008-.096 1.323-.286.315-.194.529-.49.641-.895.113-.405.064-.705-.145-.898-.171-.17-.573-.256-1.204-.256l-2.619-.002-.644 2.335zm-1.321 4.764l2.746.005c.613 0 1.114-.118 1.505-.353.364-.212.618-.575.759-1.088.142-.511.092-.884-.147-1.12-.225-.212-.675-.32-1.35-.32l-2.716-.002-.797 2.878zm8.566 1.982l2.727-9.843c.088-.32.278-.59.569-.814.291-.224.615-.353.942-.353h1.136l-3.05 11.01h-2.324zm-51.064-9.05c.052-.309-.01-.582-.186-.81-.188-.247-.448-.371-.785-.374l-1.29-.008-.542 2.546a57.556 57.556 0 0 0 2.803-1.352m-.425 1.96c-.896.398-1.81.755-2.737 1.071l-1.28 6.017h2.517l1.523-7.147-.023.06zm63.267 2.97h-2.891l2.86-4.661.306 4.969c.675-.085 1.51.255 2.297.015l-.685-7.215h-1.804c-.546 0-1.01.266-1.341.758l-6.574 10.252h2.46l1.357-2.253 4.368-.002.114 2.255H120l-.413-4.358c-1.624.286-2.519.24-2.519.24zm-72.292 0h-2.892l2.861-4.661.23 3.89c.677-.082 1.433-.265 2.222-.504l-.534-5.617h-1.807c-.545 0-1.008.265-1.34.757l-6.572 10.253h2.46l1.356-2.253 4.368-.002.118 2.255h2.462l-.413-4.358c-1.625.286-2.52.24-2.52.24zm-30.121 3.38l1.559 1.782 1-1.145-2.979-3.411-.927-1.072-.921 1.21 1.043 1.2-.002.002 1.227 1.434z" fill="#0F2D53"/><path d="M34.397 7.965c-1.416-1.389-2.921-2.061-4.473-1.997-1.235.05-2.241.566-2.921 1.042a1.35 1.35 0 0 0-.077.055l-.025.018c-.083.059-.164.12-.243.184l-1.074-1.164c-.262-.31-.665-.806-.767-1.091-.079-.222-.098-.448-.122-.578-.09-.46-.14-1.225-.14-1.225s0-.182-.086-.389l-.108-.266s.895-.395 1.536-.362l.384.468.013-.465v-.672s-.041-.362-.384-.635c-.255-.202-.372-.22-.687-.266-.393-.056-.465.052-.761-.224L24.192 0l-1.673.007-.655.244s-.36.087-.605.7l-.499 1.578s-.136.522-.164 1.311c-.03.792-.016.028-.016.028s-.035 1.18-.175 1.534l-.27.93c-.39.926-.785 1.383-.793 1.393l-1.503 1.74h.001l-.419.487-.418-.486.006-.005-.922-1.057-.131-.15h-.002l-.461-.528c-.01-.011-.426-.494-.825-1.473l-.248-.85c-.14-.353-.176-1.534-.176-1.534s.014.764-.015-.028a6.796 6.796 0 0 0-.165-1.311L13.565.953c-.243-.615-.604-.701-.604-.701l-.656-.244L10.632 0l-.27.397c-.295.276-.368.167-.763.224-.313.047-.432.065-.686.267a1.041 1.041 0 0 0-.385.633v.675l.014.465.384-.47c.64-.031 1.536.362 1.536.362l-.108.268c-.087.207-.087.388-.087.388s-.049.765-.14 1.225c-.025.13-.042.355-.121.577-.138.385-.82 1.154-.973 1.324l-.86.931c-.66-.53-1.801-1.24-3.263-1.3-1.552-.064-3.059.608-4.474 1.998L0 8.393l.327.516c.048.078 1.212 1.878 3.298 2.283 1.352.263 2.825-.148 4.222-1.149L6.83 8.89c-1.04.745-1.98.993-2.904.821-.871-.167-1.532-.713-1.924-1.125.939-.771 1.888-1.144 2.833-1.109 1.653.06 2.813 1.361 2.823 1.37l2.45 2.838.998-1.159-1.874-2.169 2.191-2.737.894-1.114c.21 1.103 1.211 3.004 1.64 3.668l-3.405 3.968-.014.018-.011.011-1.038 1.212c-.542.564-2.432 2.438-4.646 3.63 0 0 .694.478 1.608.46.547-.006 1.175-.191 1.782-.764.247-.236.609-.558.962-.905 0 0-.165.406.23 1.14.303.566.835.9 1.555.928 1.125.042 1.935-.55 2.497-1.226l-.806-.892s-.732 1.04-1.622.404c-.327-.308-.301-.827-.301-.827s-.007-.173.162-.537c.605-1.03 2.264-3.195 3.248-4.455l.759-.962 1.08 1.248.003-.002.426.493-.002.002.024.028-1.895 2.349.862.965 2.002-2.189.005.005.004-.005 2.447 2.72-.003.003 1.014 1.139v-.002l.361.385.25.279c.557.611 1.327 1.115 2.37 1.077.72-.028 1.251-.363 1.556-.928.396-.736.228-1.14.228-1.14.355.346.716.668.964.904 1.613 1.526 3.389.305 3.389.305-2.215-1.193-4.104-3.066-4.647-3.63l-.59-.69-1.236 1.385c.6.82.57 1.255.57 1.255s.025.519-.3.826c-.886.645-1.67-.463-1.67-.463l-2.457-2.983-.014-.014-1.26-1.556.024-.027-.003-.002.936-1.084h-.001l.565-.651.247.313 1.605 2.17 1.13-1.341-1.838-2.142-.002.007-.18-.21c.427-.665 1.43-2.565 1.64-3.668l3.082 3.852-.448.519h.002l-3.913 4.528 1 1.155.795-.92.083-.095 1.192-1.378.695-.806 2.172-2.513c.009-.01 1.17-1.309 2.822-1.37.944-.035 1.894.337 2.833 1.11-.39.41-1.054.957-1.923 1.124-.924.172-1.875-.082-2.915-.83l-.99 1.152c1.397 1.002 2.854 1.422 4.205 1.16 2.088-.406 3.251-2.206 3.299-2.284l.327-.516-.442-.431zM18.842 19.429l-1.025 1.209.116.137h-.003l.623.722c.327.4 1.226 1.436 1.365 2.503 0 0 .888-1.223.212-2.938.002 0-.1-.451-1.288-1.633z" fill="#0F2D53"/><path d="M16.774 18.979c-1.674 1.515-1.803 2.08-1.803 2.08-.696 1.72.22 2.941.22 2.941.142-1.067 1.068-2.104 1.406-2.503l.643-.724-.002-.003 2.301-2.584.002.002 1.362-1.53-1.017-1.174-3.111 3.495z" fill="#0F2D53"/></svg>