<svg width="175" height="24" viewBox="0 0 175 24" fill="none" xmlns="http://www.w3.org/2000/svg">
<path d="M69.8031 14.4725C69.6775 14.4725 69.5571 14.4226 69.4682 14.3338C69.3794 14.245 69.3296 14.1246 69.3296 13.999V0.483569C69.3296 0.357974 69.3794 0.237521 69.4682 0.148712C69.5571 0.0599022 69.6775 0.0100098 69.8031 0.0100098C69.9287 0.0100098 70.0491 0.0599022 70.138 0.148712C70.2268 0.237521 70.2767 0.357974 70.2767 0.483569V13.999C70.2767 14.1246 70.2268 14.245 70.138 14.3338C70.0491 14.4226 69.9287 14.4725 69.8031 14.4725Z" fill="white"/>
<path d="M4.58449 10.6872V0.483567L2.31141 0.96344C1.65297 1.08844 1.05992 1.44216 0.637039 1.96209C0.214159 2.48203 -0.0113224 3.13471 0.000437828 3.8048V14.0084L2.27668 13.5412C2.93453 13.4155 3.52685 13.0615 3.9491 12.5417C4.37135 12.0218 4.59639 11.3695 4.58449 10.6998M32.5214 2.93976C32.2121 3.34703 31.8124 3.67682 31.3538 3.9031C30.8952 4.12938 30.3903 4.24596 29.8789 4.24363H21.8473V14.0116H17.2664V4.231H6.09041V0.483567H34.2609L32.5214 2.93976ZM49.8189 12.7077L41.3201 1.05184L31.8489 13.9958H26.3335L35.2648 1.78428C35.5768 1.37988 35.977 1.05216 36.435 0.826171C36.893 0.600184 37.3966 0.481917 37.9073 0.480409H46.4061L56.3098 13.9958H52.4614C51.9507 13.9943 51.4471 13.876 50.9891 13.65C50.5311 13.4241 50.1308 13.0963 49.8189 12.6919M51.2238 20.0858L50.2199 19.6501C50.0583 19.6002 49.9149 19.5038 49.8077 19.373C49.7005 19.2422 49.6341 19.0828 49.6169 18.9145C49.6169 18.3462 50.0525 18.1442 50.564 18.1442C51.2333 18.1442 51.8679 18.5483 52.3698 19.0155V17.778C51.8842 17.3662 51.267 17.1422 50.6303 17.1465C49.459 17.1465 48.4898 17.7495 48.4898 19.0218C48.4898 19.89 49.0265 20.3604 49.7526 20.6951L50.8576 21.1971C51.2238 21.3644 51.5585 21.5633 51.5585 21.999C51.5585 22.6304 50.9902 22.8356 50.4219 22.8356C49.6516 22.8356 49.0833 22.5199 48.414 21.9674V23.205C48.9791 23.6412 49.6734 23.8767 50.3872 23.8743C51.6248 23.8743 52.695 23.1039 52.695 21.8979C52.695 20.9287 52.0257 20.4267 51.2238 20.0921M41.9894 17.2507H40.6508L43.0596 20.8308V23.7764H44.2656V20.8308L46.706 17.2507H45.3422L43.7037 19.7259L41.9894 17.2507ZM34.4945 23.7764L35.1638 22.3368H37.942L38.5734 23.7764H39.8363L36.5245 16.9824L33.2128 23.7764H34.4945ZM36.5371 19.3944L37.5064 21.3991H35.6121L36.5371 19.3944ZM28.2719 17.0518L26.5324 21.2665L24.9255 17.2507H23.6626L26.3998 24.01L28.2404 19.6596L30.0115 24.01L32.7897 17.2507H31.5521L29.9452 21.2665L28.2719 17.0518ZM20.3098 19.2618C20.3098 19.9974 19.7731 20.2657 19.107 20.2657H18.4377V18.2263H19.107C19.8079 18.2263 20.3098 18.5609 20.3098 19.2618ZM21.5727 19.2618C21.5727 17.9232 20.433 17.2539 19.1954 17.2539H17.2569V23.7795H18.4282V21.235H19.0281L20.9034 23.7795H22.2956L20.2877 21.0361C20.6689 20.9228 21.0028 20.6882 21.2387 20.368C21.4745 20.0478 21.5996 19.6595 21.5948 19.2618M13.9641 17.2539H12.7266V23.7795H13.9641V17.2539ZM4.86547 23.7795L5.53477 22.3399H8.31299L8.9444 23.7795H10.2483L6.90178 16.9855L3.59002 23.7795H4.86547ZM6.90494 19.3975L7.87731 21.4023H5.98307L6.90494 19.3975Z" fill="white"/>
<path d="M36.5024 10.2515L33.7589 13.999H39.2806L42.9744 8.94768H39.1449C38.6342 8.94919 38.1306 9.06745 37.6726 9.29344C37.2146 9.51943 36.8143 9.84715 36.5024 10.2515Z" fill="white"/>
<path d="M112.976 7.24288C112.976 8.34786 111.846 9.04241 107.426 9.04241C103.006 9.04241 101.876 8.34786 101.876 7.24288C101.876 6.13791 103.003 5.4402 107.426 5.4402C111.849 5.4402 112.976 6.16948 112.976 7.24288ZM115.584 7.24288C115.584 5.4402 114.346 3.60279 107.426 3.60279C100.506 3.60279 99.268 5.4402 99.268 7.24288C99.268 9.04557 100.506 10.8798 107.426 10.8798C114.346 10.8798 115.584 9.07714 115.584 7.24288ZM128.888 8.87509L127.981 10.0116C127.801 10.2224 127.577 10.391 127.324 10.5056C127.072 10.6202 126.797 10.6779 126.52 10.6746H116.584V3.80484H119.11V8.85614L128.888 8.87509ZM156.379 5.54123H148.386V6.80405H156.379C156.859 6.80405 157.137 6.54833 157.137 6.17264C157.137 5.79695 156.859 5.54123 156.379 5.54123ZM173.456 4.87824C173.276 5.08902 173.051 5.25765 172.799 5.37221C172.546 5.48677 172.271 5.54446 171.994 5.54123H163.262V6.40942H172.417V8.07635H163.262V8.94138H173.863V10.6746H160.727V3.80484H174.251L173.456 4.87824ZM86.9807 4.47098C86.8036 4.25655 86.5798 4.08536 86.3265 3.97047C86.0732 3.85558 85.797 3.80002 85.519 3.808H83.309L88.8781 10.6746H93.4843C93.7616 10.6779 94.0362 10.6202 94.2888 10.5056C94.5414 10.391 94.7657 10.2224 94.946 10.0116L99.9973 3.808H96.8402L91.5837 10.2674L86.9807 4.47098ZM134.419 7.20816H139.375L136.897 4.09529L134.419 7.20816ZM141.598 10.0116L140.746 8.94138H133.049L131.663 10.6746H128.61L133.547 4.47098C133.728 4.26176 133.951 4.09394 134.202 3.97897C134.454 3.86401 134.727 3.80461 135.003 3.80484H139.704L145.178 10.6715H143.053C142.777 10.6742 142.504 10.6165 142.253 10.5025C142.001 10.3886 141.778 10.221 141.598 10.0116ZM159.839 10.6746H156.954C156.473 10.6776 156.002 10.5357 155.603 10.2674L152.828 8.46467H148.386V10.6746H145.86V3.80484H156.834C158.536 3.80484 159.719 4.72355 159.719 6.18527C159.719 7.57753 158.589 8.46151 156.907 8.46151H156.37L159.839 10.6746Z" fill="white"/>
</svg>
