<svg width="113" height="24" viewBox="0 0 113 24" fill="none" xmlns="http://www.w3.org/2000/svg">
<path d="M70.3391 23.944H70.0218L69.0325 22.0402V23.944H68.7712V21.7416H69.1819L70.0778 23.4961V21.7416H70.3391V23.944Z" fill="white"/>
<path d="M72.8961 23.1228C72.8961 22.9174 72.8588 22.7495 72.7841 22.6375C72.7094 22.5255 72.5975 22.4882 72.4481 22.4882C72.2988 22.4882 72.1868 22.5442 72.1122 22.6375C72.0375 22.7495 72.0002 22.8988 72.0002 23.1228C72.0002 23.3281 72.0375 23.4961 72.1122 23.5894C72.1868 23.7014 72.2988 23.7574 72.4481 23.7574C72.5975 23.7574 72.7094 23.7014 72.7841 23.608C72.8588 23.4961 72.8961 23.3281 72.8961 23.1228ZM73.176 23.1228C73.176 23.4027 73.1014 23.608 72.9707 23.776C72.8401 23.9253 72.6534 24 72.4295 24C72.2055 24 72.0188 23.9253 71.8882 23.7574C71.7575 23.608 71.6829 23.3841 71.6829 23.1228C71.6829 22.8428 71.7575 22.6375 71.8882 22.4695C72.0188 22.3202 72.2055 22.2455 72.4295 22.2455C72.6534 22.2455 72.8401 22.3202 72.9707 22.4695C73.1201 22.6188 73.176 22.8428 73.176 23.1228Z" fill="white"/>
<path d="M75.8078 23.944H75.5278V23.7574C75.4345 23.832 75.3599 23.888 75.2852 23.9254C75.2105 23.9627 75.1172 23.9813 75.0239 23.9813C74.9492 23.9813 74.8746 23.9627 74.8186 23.944C74.7626 23.9254 74.7066 23.888 74.6506 23.832C74.5946 23.776 74.5573 23.72 74.5386 23.6454C74.52 23.5707 74.5013 23.4774 74.5013 23.3654V22.2829H74.7813V23.2348C74.7813 23.3281 74.7813 23.4028 74.7999 23.4587C74.7999 23.5147 74.8186 23.5707 74.8372 23.6081C74.8559 23.6454 74.8932 23.6827 74.9306 23.7014C74.9679 23.72 75.0239 23.7387 75.0986 23.7387C75.1732 23.7387 75.2479 23.72 75.3225 23.6827C75.3972 23.6454 75.4718 23.5894 75.5278 23.5334V22.3015H75.8078V23.944Z" fill="white"/>
<path d="M78.5515 22.2829L77.9356 23.944H77.6743L77.0583 22.2829H77.357L77.8236 23.5707L78.2715 22.2829H78.5515Z" fill="white"/>
<path d="M80.8659 22.9361C80.8659 22.8615 80.8473 22.8055 80.8473 22.7495C80.8286 22.6935 80.81 22.6562 80.7726 22.6188C80.7353 22.5815 80.698 22.5442 80.642 22.5255C80.586 22.5068 80.53 22.4882 80.4553 22.4882C80.3807 22.4882 80.3247 22.5068 80.2687 22.5255C80.2127 22.5442 80.1754 22.5815 80.1194 22.6188C80.082 22.6562 80.0447 22.7122 80.026 22.7681C80.0074 22.8241 79.9887 22.8801 79.9887 22.9548H80.8659V22.9361ZM80.53 23.9813C80.2687 23.9813 80.0634 23.9067 79.914 23.7574C79.7647 23.6081 79.6901 23.4027 79.6901 23.1228C79.6901 22.8615 79.7647 22.6375 79.8954 22.4695C80.0447 22.3015 80.2127 22.2269 80.4553 22.2269C80.5673 22.2269 80.642 22.2455 80.7353 22.2642C80.8099 22.3015 80.8846 22.3389 80.9406 22.3949C80.9966 22.4508 81.0526 22.5442 81.0713 22.6188C81.1086 22.7122 81.1273 22.8241 81.1273 22.9548V23.1041H79.97C79.97 23.2908 80.026 23.4401 80.1194 23.5521C80.2127 23.6454 80.3433 23.7014 80.53 23.7014C80.586 23.7014 80.6606 23.7014 80.7166 23.6827C80.7726 23.664 80.8286 23.6454 80.8846 23.6267C80.9406 23.6081 80.9779 23.5894 81.0153 23.5521C81.0526 23.5334 81.0713 23.5147 81.1086 23.4961H81.1273V23.7947C81.0899 23.8134 81.0526 23.832 80.9966 23.8507C80.9406 23.8694 80.9033 23.888 80.8659 23.888C80.81 23.9067 80.754 23.9067 80.7166 23.9254C80.6793 23.944 80.6046 23.9813 80.53 23.9813Z" fill="white"/>
<path d="M82.7511 21.6483H82.4711V23.9627H82.7511V21.6483Z" fill="white"/>
<path d="M84.4869 21.6483H84.2069V23.9627H84.4869V21.6483Z" fill="white"/>
<path d="M86.9879 22.9361C86.9879 22.8615 86.9692 22.8055 86.9692 22.7495C86.9506 22.6935 86.9319 22.6562 86.8946 22.6188C86.8573 22.5815 86.8199 22.5442 86.7639 22.5255C86.7079 22.5068 86.6519 22.4882 86.5773 22.4882C86.5026 22.4882 86.4466 22.5068 86.3906 22.5255C86.3346 22.5442 86.2973 22.5815 86.2413 22.6188C86.204 22.6562 86.1667 22.7122 86.148 22.7681C86.1293 22.8241 86.1107 22.8801 86.1107 22.9548H86.9879V22.9361ZM86.6706 23.9813C86.4093 23.9813 86.204 23.9067 86.0547 23.7574C85.9053 23.6081 85.8307 23.4027 85.8307 23.1228C85.8307 22.8615 85.9054 22.6375 86.036 22.4695C86.1853 22.3015 86.3533 22.2269 86.5959 22.2269C86.7079 22.2269 86.7826 22.2455 86.8759 22.2642C86.9506 22.3015 87.0252 22.3389 87.0812 22.3949C87.1372 22.4508 87.1932 22.5442 87.2119 22.6188C87.2492 22.7122 87.2679 22.8241 87.2679 22.9548V23.1041H86.1107C86.1107 23.2908 86.1667 23.4401 86.26 23.5521C86.3533 23.6454 86.484 23.7014 86.6706 23.7014C86.7266 23.7014 86.8013 23.7014 86.8572 23.6827C86.9132 23.664 86.9692 23.6454 87.0252 23.6267C87.0812 23.6081 87.1186 23.5894 87.1559 23.5521C87.1932 23.5334 87.2119 23.5147 87.2492 23.4961H87.2679V23.7947C87.2305 23.8134 87.1932 23.832 87.1372 23.8507C87.0812 23.8694 87.0439 23.888 87.0066 23.888C86.9506 23.9067 86.8946 23.9067 86.8572 23.9254C86.8199 23.944 86.7266 23.9813 86.6706 23.9813Z" fill="white"/>
<path d="M89.3583 22.8428H88.5184V23.1041H89.3583V22.8428Z" fill="white"/>
<path d="M91.6354 23.9813C91.4861 23.9813 91.3555 23.9627 91.2435 23.9067C91.1315 23.8507 91.0195 23.7947 90.9262 23.6827C90.8329 23.5894 90.7769 23.4587 90.7209 23.3281C90.6649 23.1787 90.6462 23.0108 90.6462 22.8428C90.6462 22.6561 90.6649 22.4881 90.7209 22.3575C90.7769 22.2268 90.8329 22.0962 90.9262 22.0029C91.0195 21.9095 91.1128 21.8349 91.2435 21.7789C91.3555 21.7229 91.5048 21.7042 91.6541 21.7042C91.7288 21.7042 91.8034 21.7042 91.8594 21.7229C91.9154 21.7416 91.9901 21.7416 92.0461 21.7602C92.102 21.7789 92.1394 21.7976 92.1954 21.8162C92.2514 21.8349 92.2887 21.8536 92.3447 21.8909V22.2455H92.326C92.3074 22.2269 92.27 22.1895 92.2327 22.1522C92.1954 22.1149 92.1394 22.0775 92.0834 22.0589C92.0274 22.0215 91.9714 22.0029 91.8967 21.9842C91.8221 21.9655 91.7474 21.9469 91.6728 21.9469C91.5794 21.9469 91.4861 21.9655 91.4115 22.0029C91.3181 22.0402 91.2621 22.0962 91.1875 22.1709C91.1315 22.2455 91.0755 22.3388 91.0382 22.4508C91.0008 22.5628 90.9822 22.6935 90.9822 22.8428C90.9822 22.9921 91.0008 23.1227 91.0382 23.2347C91.0755 23.3467 91.1315 23.44 91.1875 23.5147C91.2435 23.5894 91.3181 23.6454 91.4115 23.6827C91.4861 23.72 91.5794 23.7387 91.6728 23.7387C91.7661 23.7387 91.8407 23.72 91.9154 23.7014C91.9901 23.6827 92.0461 23.6454 92.1021 23.6267C92.158 23.5894 92.1954 23.5707 92.2514 23.5334C92.2887 23.496 92.326 23.4774 92.3447 23.4587H92.3633V23.8133C92.3074 23.832 92.27 23.8507 92.2327 23.8693C92.1954 23.888 92.1394 23.9067 92.0834 23.9253C92.0274 23.944 91.9527 23.9627 91.8967 23.9813C91.7847 23.9813 91.7101 23.9813 91.6354 23.9813Z" fill="white"/>
<path d="M94.5471 23.5334V23.0668C94.4725 23.0668 94.3978 23.0854 94.3045 23.0854C94.2112 23.1041 94.1179 23.1041 94.0619 23.1228C93.9872 23.1414 93.9312 23.1787 93.8752 23.2347C93.8192 23.2721 93.8006 23.3467 93.8006 23.4401C93.8006 23.5334 93.8192 23.608 93.8752 23.664C93.9312 23.72 94.0059 23.7387 94.1179 23.7387C94.2112 23.7387 94.2858 23.72 94.3605 23.6827C94.4165 23.6454 94.4725 23.5894 94.5471 23.5334ZM94.5471 23.776C94.5285 23.7947 94.4911 23.8133 94.4538 23.8507C94.4165 23.888 94.3792 23.9067 94.3418 23.9253C94.2858 23.944 94.2485 23.9627 94.1925 23.9813C94.1552 24 94.0805 24 94.0059 24C93.9312 24 93.8752 23.9813 93.8192 23.9627C93.7632 23.944 93.7072 23.9067 93.6512 23.8507C93.6139 23.8133 93.5766 23.7574 93.5393 23.6827C93.5206 23.608 93.5019 23.552 93.5019 23.4774C93.5019 23.3654 93.5206 23.2721 93.5766 23.1788C93.6326 23.1041 93.7072 23.0294 93.8006 22.9921C93.8939 22.9548 94.0059 22.9174 94.1365 22.8988C94.2672 22.8801 94.3978 22.8615 94.5471 22.8615V22.8055C94.5471 22.7308 94.5285 22.6935 94.5098 22.6561C94.4911 22.6188 94.4538 22.5815 94.4352 22.5628C94.3978 22.5442 94.3605 22.5255 94.3045 22.5255C94.2485 22.5255 94.1925 22.5068 94.1552 22.5068C94.0992 22.5068 94.0059 22.5255 93.9312 22.5441C93.8379 22.5628 93.7632 22.6001 93.6699 22.6188H93.6512V22.3388C93.7072 22.3202 93.7819 22.3015 93.8752 22.2828C93.9685 22.2642 94.0619 22.2642 94.1552 22.2642C94.2672 22.2642 94.3605 22.2642 94.4352 22.2828C94.5098 22.3015 94.5845 22.3388 94.6405 22.3762C94.6965 22.4135 94.7525 22.4882 94.7711 22.5441C94.8085 22.6188 94.8085 22.7121 94.8085 22.8055V23.944H94.5285V23.776H94.5471Z" fill="white"/>
<path d="M96.5442 21.6483H96.2643V23.9627H96.5442V21.6483Z" fill="white"/>
<path d="M99.12 21.4616L98.7093 22.0215H98.4854L98.7467 21.4616H99.12ZM99.0453 22.9361C99.0453 22.8615 99.0266 22.8055 99.0266 22.7495C99.008 22.6935 98.9893 22.6561 98.952 22.6188C98.9147 22.5815 98.8773 22.5442 98.8213 22.5255C98.7653 22.5068 98.7094 22.4882 98.6347 22.4882C98.56 22.4882 98.504 22.5068 98.448 22.5255C98.3921 22.5442 98.3547 22.5815 98.2987 22.6188C98.2614 22.6561 98.2241 22.7121 98.2054 22.7681C98.1867 22.8241 98.1681 22.8801 98.1681 22.9548H99.0453V22.9361ZM98.728 23.9813C98.4667 23.9813 98.2614 23.9067 98.1121 23.7574C97.9628 23.608 97.8881 23.4027 97.8881 23.1228C97.8881 22.8615 97.9628 22.6375 98.0934 22.4695C98.2427 22.3015 98.4107 22.2269 98.6534 22.2269C98.7653 22.2269 98.84 22.2455 98.9333 22.2642C99.008 22.3015 99.0826 22.3388 99.1386 22.3948C99.1946 22.4508 99.2506 22.5442 99.2693 22.6188C99.3066 22.7121 99.3253 22.8241 99.3253 22.9548V23.1041H98.1681C98.1681 23.2907 98.2241 23.4401 98.3174 23.552C98.4107 23.6454 98.5414 23.7014 98.728 23.7014C98.784 23.7014 98.8587 23.7014 98.9147 23.6827C98.9707 23.664 99.0266 23.6454 99.0826 23.6267C99.1386 23.608 99.176 23.5894 99.2133 23.552C99.2506 23.5334 99.2693 23.5147 99.3066 23.4961H99.3253V23.7947C99.288 23.8134 99.2506 23.832 99.1946 23.8507C99.1386 23.8693 99.1013 23.888 99.064 23.888C99.008 23.9067 98.952 23.9067 98.9147 23.9253C98.84 23.9813 98.784 23.9813 98.728 23.9813Z" fill="white"/>
<path d="M101.64 23.552V22.6001C101.565 22.5628 101.509 22.5441 101.453 22.5255C101.397 22.5068 101.341 22.5068 101.266 22.5068C101.117 22.5068 101.005 22.5628 100.93 22.6748C100.856 22.7868 100.8 22.9361 100.8 23.1414C100.8 23.3281 100.837 23.4774 100.893 23.5894C100.949 23.7014 101.061 23.7387 101.192 23.7387C101.266 23.7387 101.341 23.72 101.416 23.6827C101.509 23.6454 101.584 23.608 101.64 23.552ZM101.92 23.944H101.64V23.776C101.602 23.8133 101.565 23.8507 101.528 23.8693C101.49 23.888 101.453 23.9067 101.416 23.944C101.378 23.9627 101.341 23.9813 101.285 23.9813C101.248 24 101.192 24 101.136 24C101.042 24 100.968 23.9813 100.893 23.944C100.818 23.9067 100.744 23.8507 100.706 23.776C100.65 23.7014 100.613 23.608 100.576 23.496C100.538 23.3841 100.538 23.2721 100.538 23.1227C100.538 22.9734 100.557 22.8428 100.594 22.7495C100.632 22.6375 100.688 22.5441 100.744 22.4695C100.8 22.3948 100.874 22.3388 100.968 22.3015C101.061 22.2642 101.136 22.2455 101.229 22.2455C101.304 22.2455 101.378 22.2455 101.453 22.2642C101.509 22.2828 101.584 22.3015 101.64 22.3575V21.6482H101.92V23.944Z" fill="white"/>
<path d="M104.458 23.1228C104.458 22.9174 104.421 22.7495 104.346 22.6375C104.271 22.5255 104.159 22.4882 104.01 22.4882C103.861 22.4882 103.749 22.5442 103.674 22.6375C103.6 22.7495 103.562 22.8988 103.562 23.1228C103.562 23.3281 103.6 23.4961 103.674 23.5894C103.749 23.7014 103.861 23.7574 104.01 23.7574C104.159 23.7574 104.271 23.7014 104.346 23.608C104.402 23.4961 104.458 23.3281 104.458 23.1228ZM104.738 23.1228C104.738 23.4027 104.663 23.608 104.533 23.776C104.402 23.9253 104.215 24 103.991 24C103.767 24 103.581 23.9253 103.45 23.7574C103.32 23.608 103.245 23.3841 103.245 23.1228C103.245 22.8428 103.32 22.6375 103.45 22.4695C103.581 22.3202 103.767 22.2455 103.991 22.2455C104.215 22.2455 104.402 22.3202 104.533 22.4695C104.663 22.6188 104.738 22.8428 104.738 23.1228Z" fill="white"/>
<path d="M107.37 23.944H107.09V22.9921C107.09 22.9175 107.09 22.8428 107.071 22.7868C107.071 22.7121 107.052 22.6748 107.034 22.6375C107.015 22.6001 106.978 22.5628 106.94 22.5442C106.903 22.5255 106.847 22.5068 106.772 22.5068C106.698 22.5068 106.623 22.5255 106.567 22.5628C106.492 22.6002 106.418 22.6561 106.343 22.7121V23.944H106.063V22.2829H106.343V22.4695C106.418 22.3948 106.511 22.3388 106.586 22.3015C106.66 22.2642 106.754 22.2455 106.847 22.2455C107.015 22.2455 107.146 22.3015 107.239 22.4135C107.332 22.5255 107.37 22.6748 107.37 22.8801V23.944Z" fill="white"/>
<path d="M108.826 23.944H109.105V22.2829H108.826V23.944ZM108.807 22.0216H109.124V21.7229H108.807V22.0216Z" fill="white"/>
<path d="M111.607 22.9361C111.607 22.8615 111.588 22.8055 111.588 22.7495C111.569 22.6935 111.551 22.6562 111.513 22.6188C111.476 22.5815 111.439 22.5442 111.383 22.5255C111.327 22.5068 111.271 22.4882 111.196 22.4882C111.121 22.4882 111.065 22.5068 111.009 22.5255C110.953 22.5442 110.916 22.5815 110.86 22.6188C110.823 22.6562 110.785 22.7122 110.767 22.7681C110.748 22.8241 110.729 22.8801 110.729 22.9548H111.607V22.9361ZM111.271 23.9813C111.009 23.9813 110.804 23.9067 110.655 23.7574C110.505 23.6081 110.431 23.4027 110.431 23.1228C110.431 22.8615 110.505 22.6375 110.636 22.4695C110.785 22.3015 110.953 22.2269 111.196 22.2269C111.308 22.2269 111.383 22.2455 111.476 22.2642C111.551 22.3015 111.625 22.3389 111.681 22.3949C111.737 22.4508 111.793 22.5442 111.812 22.6188C111.849 22.7122 111.868 22.8241 111.868 22.9548V23.1041H110.729C110.729 23.2908 110.785 23.4401 110.879 23.5521C110.972 23.6454 111.103 23.7014 111.289 23.7014C111.345 23.7014 111.42 23.7014 111.476 23.6827C111.532 23.664 111.588 23.6454 111.644 23.6267C111.7 23.6081 111.737 23.5894 111.775 23.5521C111.812 23.5334 111.831 23.5147 111.868 23.4961H111.887V23.7947C111.849 23.8134 111.812 23.832 111.756 23.8507C111.7 23.8694 111.663 23.888 111.625 23.888C111.569 23.9067 111.513 23.9067 111.476 23.9254C111.439 23.944 111.345 23.9813 111.271 23.9813Z" fill="white"/>
<path d="M32.8791 12.9319L32.2632 9.23626L29.6128 12.9319H32.8791ZM22.5389 17.2434L31.0127 6.04461H35.3802L37.676 17.2434H33.5511L33.1778 14.9476H28.157L26.5332 17.2434H22.5389Z" fill="white"/>
<path d="M46.3177 7.5938H42.5661L43.126 5.54069H46.8776L46.3177 7.5938ZM43.6486 17.2434H39.897L42.2301 8.78834H45.9817L43.6486 17.2434Z" fill="white"/>
<path d="M57.0871 11.2894H56.7885C56.6578 11.2521 56.4525 11.2334 56.1912 11.2147C55.9299 11.1961 55.6313 11.1961 55.2953 11.1961C54.9034 11.1961 54.4741 11.2334 54.0261 11.308C53.5782 11.3827 53.1302 11.476 52.6823 11.588L51.1331 17.2434H47.3815L49.7146 8.78832H53.4662L53.1302 10.0015C53.3355 9.88953 53.6155 9.75888 53.9515 9.5909C54.3061 9.42292 54.6234 9.29227 54.8847 9.18028C55.1833 9.06829 55.538 8.97497 55.9113 8.88164C56.3032 8.80699 56.6392 8.75099 56.9751 8.75099C57.0871 8.75099 57.2365 8.75099 57.3858 8.75099C57.5351 8.75099 57.6657 8.76966 57.7777 8.76966L57.0871 11.2894Z" fill="white"/>
<path d="M63.5824 17.4674C62.5932 17.4674 61.6973 17.374 60.932 17.2061C60.1481 17.0381 59.5135 16.7581 59.0096 16.3848C58.5056 16.0115 58.1697 15.5636 57.983 15.0036C57.7964 14.4437 57.8151 13.7904 58.0204 13.0438C58.2443 12.2413 58.6176 11.5507 59.1402 10.9907C59.6628 10.4308 60.2788 9.96418 61.0067 9.59089C61.6973 9.23626 62.4812 8.97496 63.3398 8.80697C64.1984 8.63899 65.0569 8.54566 65.9342 8.54566C66.6061 8.54566 67.2407 8.60166 67.8753 8.71365C68.5099 8.82564 69.1258 8.99362 69.7418 9.23626L69.1258 11.4947H68.6405C68.5099 11.4014 68.3606 11.2894 68.1739 11.1587C67.9873 11.0467 67.782 10.9347 67.558 10.8228C67.3154 10.7108 67.0354 10.6361 66.7181 10.5615C66.4008 10.4868 66.0275 10.4495 65.5982 10.4495C64.6463 10.4495 63.8437 10.6921 63.1905 11.1587C62.5372 11.6253 62.1079 12.2599 61.8839 13.0438C61.6413 13.8838 61.7533 14.5184 62.2012 14.9476C62.6492 15.3583 63.3398 15.5636 64.2543 15.5636C64.721 15.5636 65.1502 15.5262 65.5235 15.4516C65.8968 15.3769 66.2328 15.2836 66.5128 15.1716C66.7927 15.0596 67.0354 14.9663 67.2407 14.8357C67.446 14.7237 67.6327 14.6303 67.782 14.537H68.2672L67.6513 16.7954C67.4273 16.8701 67.1474 16.9448 66.8487 17.0194C66.5501 17.1127 66.2328 17.1687 65.9342 17.2247C65.5422 17.2994 65.1876 17.3554 64.8703 17.3927C64.5343 17.4487 64.105 17.4674 63.5824 17.4674Z" fill="white"/>
<path d="M77.3756 15.041L77.8609 13.2865C77.2077 13.3238 76.6851 13.3798 76.2931 13.3985C75.8825 13.4358 75.4905 13.4918 75.0799 13.5851C74.7253 13.6598 74.4453 13.7904 74.2213 13.9584C73.9973 14.1264 73.848 14.3317 73.7734 14.6117C73.6614 15.0036 73.736 15.2836 73.9973 15.4329C74.2587 15.5823 74.6879 15.6569 75.2852 15.6569C75.6212 15.6569 75.9571 15.6009 76.3304 15.5076C76.7037 15.3769 77.0397 15.2276 77.3756 15.041ZM77.021 16.3475C76.7224 16.4968 76.4611 16.6275 76.2184 16.7581C75.9758 16.8701 75.6772 17.0008 75.3039 17.1128C74.9306 17.2247 74.5946 17.3181 74.2586 17.3741C73.9227 17.43 73.4747 17.4674 72.8961 17.4674C71.8322 17.4674 71.011 17.2247 70.4511 16.7208C69.8911 16.2168 69.7045 15.5822 69.9098 14.817C70.0778 14.1824 70.3951 13.6785 70.8617 13.3052C71.3283 12.9132 71.9256 12.6146 72.6535 12.3906C73.4001 12.1666 74.2587 11.9986 75.2105 11.9053C76.1811 11.812 77.2077 11.7373 78.3089 11.7L78.3275 11.6627C78.4582 11.1961 78.3089 10.8788 77.8609 10.6921C77.413 10.5055 76.7037 10.4308 75.7332 10.4308C75.2852 10.4308 74.7626 10.4868 74.128 10.5988C73.5121 10.7108 72.8775 10.8601 72.2802 11.0281H71.9629L72.5228 8.99363C72.9148 8.91897 73.5307 8.82564 74.3893 8.73232C75.2479 8.62033 76.0878 8.58301 76.9464 8.58301C79.0181 8.58301 80.4553 8.82565 81.2766 9.31093C82.0978 9.79621 82.3591 10.5428 82.0791 11.532L80.4926 17.2807H76.7597L77.021 16.3475Z" fill="white"/>
<path d="M87.8839 17.2434H84.1322L87.3426 5.522H91.0942L87.8839 17.2434Z" fill="white"/>
<path d="M98.0188 7.57512H94.2672L94.8271 5.522H98.5787L98.0188 7.57512ZM95.3497 17.2434H91.5981L93.9312 8.78832H97.6828L95.3497 17.2434Z" fill="white"/>
<path d="M110.337 17.2247H106.567L107.724 13.0252C107.818 12.6892 107.892 12.3533 107.948 11.9986C108.004 11.6627 108.004 11.42 107.93 11.2521C107.855 11.0654 107.706 10.9161 107.482 10.8414C107.258 10.7668 106.94 10.7108 106.548 10.7108C106.25 10.7108 105.914 10.7481 105.578 10.8228C105.242 10.8974 104.869 11.0281 104.458 11.2147L102.815 17.2061H99.0639L101.397 8.751H105.149L104.887 9.68423C105.597 9.31094 106.287 9.03097 106.922 8.82565C107.556 8.62034 108.228 8.50836 108.938 8.50836C110.169 8.50836 111.028 8.78833 111.532 9.3296C112.036 9.87088 112.148 10.6548 111.849 11.7L110.337 17.2247Z" fill="white"/>
<path d="M22.1656 19.5205C22.1656 19.5205 67.4087 18.8299 111.999 19.4272C111.999 19.4272 65.6169 20.3044 22.1656 19.5205Z" fill="white"/>
<path fill-rule="evenodd" clip-rule="evenodd" d="M16.9021 5.466C17.3314 5.07408 17.798 4.96209 17.9473 5.22337C18.0967 5.48469 17.8913 5.98864 17.5554 6.36191C17.5647 6.37126 17.5693 6.38057 17.574 6.38987C17.5787 6.39922 17.5834 6.40856 17.5927 6.41791C17.7234 6.64188 17.5368 7.07119 17.2008 7.38846C16.8648 7.72443 16.4915 7.79911 16.3609 7.59379C16.3236 7.51914 16.3049 7.42581 16.3236 7.33247C15.8009 7.89971 15.2043 8.55835 14.6058 9.24224C14.4794 9.29083 14.3531 9.3415 14.2273 9.3939C14.899 8.56082 15.6237 7.59153 16.3796 6.4739C16.3796 6.39925 16.3796 6.30592 16.4169 6.21262C16.3609 6.28726 16.3049 6.34326 16.2489 6.39925C15.9129 6.73522 15.5396 6.80987 15.409 6.60458C15.2783 6.3806 15.465 5.9513 15.8009 5.63402C16.1369 5.29805 16.5102 5.22337 16.6408 5.4287C16.6781 5.50334 16.6968 5.61533 16.6595 5.74597C16.7341 5.65267 16.8088 5.55934 16.9021 5.466ZM2.21496 12.0831L1.85847 11.3081L2.69839 11.4387C2.69839 11.4387 3.57561 8.86297 4.15417 8.76967C4.38506 8.73987 4.8328 9.42619 5.39197 10.2833C6.23428 11.5743 7.32927 13.2526 8.31644 13.4545C9.28083 13.6259 8.85487 13.176 8.28534 12.5745C7.86284 12.1283 7.36136 11.5987 7.28985 11.1774C7.28985 11.1774 6.15135 6.45525 8.74571 5.68998C11.3401 4.9434 11.7134 6.10063 11.7134 6.10063L11.8067 6.73522L12.4973 6.41791L12.6652 7.35116C12.6652 7.35116 14.6437 7.01519 14.4198 7.87376C14.3235 8.21442 13.7336 8.55215 13.0266 8.95687C11.9517 9.57221 10.6063 10.3425 10.3135 11.5134C10.3135 11.5134 12.2066 10.2352 14.2273 9.3939C12.5769 11.4407 11.246 12.6655 10.5561 13.2492C10.3135 12.8012 9.58562 11.4387 9.17497 10.6174C9.43626 11.812 9.49225 14.2384 9.49225 14.2384L7.92448 14.0891C7.92448 14.0891 8.09246 14.817 7.68181 14.649C7.55741 14.5981 7.35762 14.4787 7.13435 14.3452C6.62067 14.0382 5.98273 13.6569 5.85269 13.8651C5.76235 14.0096 6.10889 14.2327 6.38717 14.4118C6.68414 14.603 6.90339 14.7441 6.43125 14.6864C5.51672 14.5744 3.83689 15.5823 3.83689 15.5823C6.54324 15.153 7.10318 15.153 7.10318 15.153L8.68971 15.1157C8.74303 15.6489 9.52427 15.7759 9.88873 15.8352L9.94021 15.8436C10.0903 15.8686 10.151 15.6702 10.2088 15.4812C10.2804 15.2471 10.3476 15.0274 10.5748 15.2649C10.9855 15.6756 11.6013 17.5047 11.6013 17.5047C11.6947 17.0381 11.3214 14.8917 11.3214 14.8917C11.3214 14.8917 11.6947 15.4329 11.956 15.6942C12.1987 15.9556 12.6652 15.7316 12.6839 15.0223C12.7009 14.7009 12.4035 14.506 12.1375 14.3317C11.8164 14.1212 11.541 13.9407 11.9187 13.6038C12.3307 13.2475 13.0749 13.509 13.6598 13.7146C14.0552 13.8535 14.3779 13.9669 14.4757 13.8464C14.7183 13.5292 13.9718 12.6332 13.9718 12.6332C14.1958 12.5213 16.9581 11.5134 16.9581 11.5134C15.6889 11.4947 13.0759 12.4466 11.6387 13.0066C12.2901 11.9741 13.4515 10.5612 14.6058 9.24224C15.7858 8.78864 16.9717 8.51879 17.8167 8.76967C20.2058 9.47891 19.2352 10.5055 19.2352 10.5055L19.7578 10.9348L19.1232 11.5134L20.2058 13.4358C20.2058 13.4358 20.1685 15.3956 17.2568 16.3848L13.3372 14.4064C13.3372 14.4064 17.0141 17.2434 15.8756 19.3525C14.737 21.4616 13.4492 20.5657 13.4492 20.5657L12.8332 19.5205L12.3293 20.3977L11.8814 20.1178C11.8814 20.1178 8.68971 21.1257 8.39105 20.9763C8.10727 20.8344 7.73915 18.2651 8.58442 16.7767C8.17582 17.0054 6.03273 18.2737 5.10607 20.2111C4.07956 22.3389 2.19444 19.8378 2.19444 19.8378L2.34373 19.0539H1.85847L0.439922 18.5686C0.439922 18.5686 -0.82926 14.9477 0.943872 13.1932C1.70022 12.4448 2.05579 12.1617 2.21496 12.0831Z" fill="white"/>
<path d="M19.4405 1.47179C19.7765 1.1545 19.9631 0.725212 19.8325 0.501237C19.7018 0.295925 19.3286 0.370579 18.9926 0.706543C18.6566 1.02384 18.47 1.45313 18.6006 1.67711C18.7313 1.88242 19.1046 1.80776 19.4405 1.47179Z" fill="white"/>
<path d="M17.0888 3.71152C17.3687 3.45022 17.4994 3.11425 17.4061 2.94627C17.3127 2.77829 17.0141 2.85295 16.7341 3.09559C16.4542 3.3569 16.3235 3.69286 16.4168 3.86084C16.5288 4.04749 16.8275 3.97283 17.0888 3.71152Z" fill="white"/>
<path d="M21.3817 0.0905961C21.2883 -0.0773857 20.9897 -0.00272937 20.7097 0.239911C20.4298 0.501216 20.2991 0.837181 20.3924 1.00516C20.4858 1.17314 20.7844 1.09849 21.0644 0.855848C21.3443 0.594543 21.475 0.258578 21.3817 0.0905961Z" fill="white"/>
<path d="M19.1793 4.83142C18.8433 5.14872 18.6566 5.57801 18.7873 5.80198C18.918 6.0073 19.2912 5.93264 19.6272 5.59667C19.9632 5.27937 20.1498 4.85008 20.0192 4.62611C19.9072 4.4208 19.5339 4.51412 19.1793 4.83142Z" fill="white"/>
<path d="M19.5525 2.573C19.4032 2.31169 18.9366 2.42368 18.5073 2.81564C18.078 3.2076 17.854 3.74887 18.022 4.02884C18.1713 4.29015 18.6379 4.17816 19.0672 3.7862C19.4778 3.37558 19.7018 2.8343 19.5525 2.573Z" fill="white"/>
<path d="M9.15632 10.6174C9.10033 10.3375 9.02567 10.1322 8.95101 10.0388C8.80169 9.87085 8.93235 10.1508 9.15632 10.6174Z" fill="white"/>
</svg>
