<svg xmlns="http://www.w3.org/2000/svg" width="193" height="21" fill="none"><path fill="#fff" d="M17.555 18.976C17.252 19.141 15.06 21 10.694 21c-3.675 0-7.602-1.866-8.829-1.83a2.4 2.4 0 0 0-1.057.187c-.514.215-.85-.124-.804-.417.045-.288.47-.825.772-1.216.376-.483.962-1.015 1.582-1.442C4.1 15.097 5.716 15.074 6.433 15.2c.11.02.42.032.911.515 1.19 1.136 3.333 2.57 4.978 2.863.175.023.924.09.935-.118.005-.125-.2-.174-.27-.19-2.648-.595-4.17-1.889-5.63-3.217-1.187-1.076-2.09-2.413-2.769-3.721-.538-1.038-1.29-3.088-2.66-3.776-.302-.147-.312-.705.323-.853.449-.107 3.149-.358 6.365 1.378 1.265.682 1.675 1.442 1.72 1.632 0 0 .077.04.097.37.17 4.626 2.21 6.181 3.194 6.895.4.307.899.44 1.034.301.059-.064-.1-.21-.206-.283-2.844-1.865-3.392-4.308-3.546-6.921-.148-2.6.949-4.863 1.644-6.71.098-.263.504-1.448.198-2.46-.203-.684.012-.844.387-.901.382-.052.963.733 1.166.977.152.183.672.776 1.442 2.307 1.514 3.007 1.528 6.336 1.527 6.72-.028 2.17-.428 2.299-1.463 2.802-.858.336-1.343 1.024-1.343 1.695 0 .69.512 1.197 1.443 1.59.063.017.173.057.222.066.41.103.752.01.752-.145 0-.142-.407-.192-.407-.192-.907-.224-1.542-.735-1.542-1.321 0-.791 1.116-1.598 2.547-1.598h.153c1.422 0 2.537.8 2.537 1.598 0 .586-.626 1.097-1.535 1.32 0 0-.407.05-.407.19.007.156.341.251.753.145.052-.006.156-.046.223-.063.935-.4 1.441-.906 1.441-1.592 0-.671-.478-1.358-1.343-1.693-1.032-.503-1.428-.638-1.46-2.802-.004-.384.013-3.715 1.53-6.72.767-1.531 1.28-2.123 1.436-2.307.2-.244.777-1.029 1.168-.979.38.059.589.218.384.904-.302 1.01.097 2.196.202 2.457.688 1.85 1.793 4.109 1.644 6.71-.155 2.615-.705 5.053-3.548 6.92-.112.076-.264.22-.203.286.133.139.633.006 1.03-.302.985-.713 3.022-2.268 3.193-6.896.025-.328.099-.375.099-.375.049-.185.453-.946 1.72-1.625 3.22-1.742 5.92-1.485 6.364-1.382.638.151.625.71.326.857-1.374.688-2.127 2.735-2.66 3.774-.68 1.309-1.585 2.647-2.767 3.723-1.458 1.328-2.989 2.622-5.632 3.218-.07.015-.28.061-.272.19.01.208.759.139.939.117 1.642-.292 3.779-1.728 4.974-2.866.495-.48.804-.492.917-.512.71-.126 2.326-.103 4.07 1.082.625.424 1.209.96 1.576 1.437.308.396.727.933.776 1.221.046.294-.287.63-.8.417a2.4 2.4 0 0 0-1.057-.187C32.022 19.132 28.095 21 24.42 21c-4.358 0-6.552-1.86-6.864-2.024M51.613 6.432h-1.586L45.253 16.82l-4.85-10.388h-3.49l.496.516c.67.69.924.95 1.354 1.915l5.441 11.687h.57l5.488-12.016c.407-.872.633-1.227 1.192-1.91zm3.078 4.083.081-.168h-3.318l.08.168c.384.81.384 1.331.382 1.935v5.83c.002.852.002 1.11-.381 1.895l-.083.168h3.318l-.079-.166c-.387-.839-.385-1.336-.383-1.967v-5.753c-.002-.607-.004-1.13.383-1.942M53.094 9.13c.765 0 1.437-.602 1.437-1.289 0-.694-.672-1.307-1.437-1.307-.745 0-1.398.612-1.398 1.307 0 .674.666 1.29 1.398 1.29m6.133 4.338c.389-1.426 1.447-2.323 2.861-2.41.645-.038 2.21.093 2.385 2.41zm8.08.999-.014-.129c-.373-3.708-3.151-4.261-4.771-4.261q-.418.002-.79.041c-2.424.274-3.762 1.423-4.458 2.344-.81 1.072-1.198 2.455-1.006 3.611.152.81.624 2.323 2.095 3.406.747.534 2.216 1.158 3.89 1.158 1.453 0 2.804-.46 4.01-1.363l.101-.075-.575-.643-.09.078c-.737.648-2.036.941-2.998.941l-.114-.001a3.54 3.54 0 0 1-2.503-1.222c-.578-.665-1.228-1.874-1.07-3.885zm5.607 5.178h-.007c-.74-.013-1.984-.276-1.984-1.887v-6.412h4.313v-1.001h-4.313V8.537l-2.684.62.094.282c.116.349.141.428.165.907h-.613v1h.642v6.159c0 2.737 2.725 3 3.56 3.015h.002c.94 0 1.969-.067 3.34-.95l.364-1.348-.203-.109c-1.026 1.119-1.731 1.533-2.676 1.533m14.299-1.531v-4.728c0-1.43-.19-1.777-.942-2.407-.912-.775-2.594-.814-2.921-.814l-.183.004c-1.449.095-2.706.738-3.934 2.022.008-.93-.07-1.443-.272-1.789l-.033-.057h-2.863l.123.184c.305.457.664 1.25.65 2.476v5.284c.002.843.003 1.095-.383 1.884l-.08.168h3.316l-.075-.165c-.393-.847-.393-1.661-.391-2.062v-3.152c0-1.771 1.875-3.671 3.65-3.692l.142-.005c1.554 0 1.801.75 1.801 3.162v3.687c0 .983 0 1.22-.382 2.064l-.073.164h3.276l-.07-.164c-.36-.843-.359-1.657-.356-2.064m9.254-3.847v1.306c0 1.37-.6 2.265-1.103 2.775-.592.598-1.367.97-2.052.97-.896-.04-1.683-.492-2-1.149-.296-.615-.172-1.352.355-2.072.31-.447 1.232-.998 2.584-1.224.335-.055 1.2-.22 2.216-.606m2.39 3.363.002-3.521c.007-.548.017-1.167-.206-1.706-.779-2.13-3.938-2.296-4.887-2.296-.671 0-1.334.066-1.913.19-.837.183-1.317.392-2.213.826l-.055.026-.209 1.458.197.105c1.44-1.307 2.906-1.604 3.882-1.623l.262-.005c1.141 0 2.012.262 2.453.733.21.23.317.504.297.776-.042 1.139-1.53 1.303-2.971 1.461-.412.044-.82.09-1.187.158-2.481.455-3.74 1.502-3.74 3.117 0 1.45 1.367 3.08 3.893 3.242q.109.006.224.005c.909 0 2.299-.362 3.826-2.064.05.865.122 1.328.392 1.773l.036.057h2.949l-.129-.185c-.793-1.131-.903-1.881-.903-2.527m17.751.461v-4.755c0-2.153-.763-3.202-2.337-3.202-.074 0-.149.005-.222.007-1.453.08-2.849.845-3.959 2.16-.31-1.44-1.054-2.14-2.267-2.14q-.122-.001-.244.008c-1.392.069-2.628.713-3.873 2.022.008-.938-.074-1.45-.274-1.789l-.036-.057h-2.862l.122.184c.436.657.66 1.499.648 2.476V18.3c0 .838 0 1.09-.378 1.875l-.084.168h3.314l-.076-.165c-.383-.84-.38-1.622-.378-2.062v-3.152c0-1.309 1.006-2.747 2.337-3.347.492-.231.869-.206 1.152.082.404.412.612 1.35.588 2.706v3.848c.003.865.003 1.126-.382 1.896l-.084.17h3.316l-.076-.167c-.393-.844-.389-1.625-.386-2.059v-3.13c0-1.328 1.006-2.781 2.343-3.375.489-.23.869-.207 1.152.084.4.408.611 1.35.582 2.704v3.716c0 .96 0 1.218-.38 2.06l-.074.167h3.276l-.07-.165c-.388-.892-.388-1.77-.388-2.06m11.894-4.01h-3.78l1.89-4.123zm4.577 3.854-5.44-11.686h-.571l-5.524 12.018c-.388.881-.599 1.197-1.185 1.91l-.155.193h1.612l2.324-5.086h4.95l2.348 5.086h3.484l-.584-.624c-.599-.631-.847-.894-1.259-1.81m3.752-8.805c.766 0 1.437-.602 1.437-1.289 0-.694-.671-1.307-1.437-1.307-.749 0-1.405.612-1.405 1.307 0 .674.669 1.29 1.405 1.29m1.59 1.382.079-.167h-3.312l.078.169c.386.81.384 1.331.382 1.933v5.831c.002.854.002 1.11-.382 1.896l-.08.168h3.312l-.076-.164c-.386-.855-.386-1.36-.384-2.087v-5.604c-.002-.615-.002-1.145.383-1.975m10.39-.341a8 8 0 0 0-1.351-.12c-2.327 0-3.643 1.132-4.451 2.104.002-.896-.078-1.402-.272-1.75l-.032-.06h-2.872l.12.184c.308.457.671 1.248.651 2.476v5.318c.003.825.005 1.074-.37 1.85l-.081.168h3.301l-.075-.165c-.378-.809-.376-1.357-.372-1.936v-3.278c0-1.23 1.25-3.58 3.221-3.58.453 0 .921.128 1.388.378l.086.045 1.308-1.601z"/><path fill="#fff" d="M151.846 18.216V7.59c0-.876 0-1.141.388-1.988l.076-.167h-3.308l.078.167c.385.849.382 1.114.382 1.99v10.57c0 .642.003 1.145-.383 2.017l-.074.164h3.307l-.078-.166c-.388-.824-.388-1.064-.388-1.96m3.756-9.085c.763 0 1.432-.602 1.432-1.289 0-.694-.668-1.307-1.432-1.307-.747 0-1.405.612-1.405 1.307 0 .674.671 1.29 1.405 1.29m1.589 1.382.078-.167h-3.31l.081.167c.381.809.381 1.329.379 1.929v5.85c.002.845.002 1.099-.379 1.882l-.083.168h3.309l-.074-.165c-.388-.842-.388-1.344-.386-1.973v-5.739c-.002-.609-.002-1.132.385-1.952m12.566 7.602v-4.728c0-1.426-.19-1.775-.943-2.407-.917-.775-2.594-.814-2.923-.814l-.184.004c-1.446.095-2.701.738-3.931 2.023.011-.941-.072-1.455-.275-1.79l-.032-.057h-2.861l.122.184c.437.657.663 1.501.65 2.476v5.258c.002.856.002 1.113-.384 1.91l-.083.168h3.31l-.074-.165c-.382-.845-.38-1.626-.38-2.062v-3.152c0-1.771 1.873-3.671 3.645-3.692l.141-.005c1.557 0 1.806.75 1.806 3.162v3.687c0 .986 0 1.22-.378 2.064l-.071.164h3.258l-.072-.162c-.347-.836-.345-1.653-.341-2.066m4.758-4.646c.388-1.426 1.443-2.323 2.854-2.41q.091-.006.21-.007c.914 0 2.024.423 2.18 2.417zm8.07.999-.013-.129c-.367-3.708-3.149-4.261-4.77-4.261q-.417.002-.789.041c-2.422.274-3.757 1.423-4.451 2.341-.81 1.072-1.196 2.456-1.001 3.614.189.992.708 2.39 2.094 3.406.745.534 2.208 1.158 3.876 1.158 1.454 0 2.808-.46 4.017-1.363l.103-.078-.582-.64-.087.078c-.741.648-2.038.941-2.991.941l-.115-.001a3.52 3.52 0 0 1-2.506-1.222c-.579-.663-1.225-1.873-1.068-3.885zm5.193-.558c-1.754-.639-2.272-1.068-2.217-1.84.023-.565.747-1.01 1.682-1.031l.103-.002c.582 0 2.127.154 3.933 1.577l.19-.109-.207-1.433-.057-.026c-1.906-.946-3.488-.975-4.032-.954-2.038.075-3.555.9-3.775 2.051-.507 2.305 1.834 3.152 3.543 3.771 2.634.958 2.887 1.9 2.803 2.378-.137.764-1.346 1.411-2.645 1.411-1.654 0-3.339-1.068-4.073-1.7l-.192.103.175 1.403.049.03a8.3 8.3 0 0 0 3.92 1.111h.14c2.662 0 4.834-1.303 5.051-3.026.283-2.085-3.058-3.25-4.391-3.714"/></svg>