<svg xmlns="http://www.w3.org/2000/svg" width="145" height="26" viewBox="0 0 145 26"><g fill-rule="nonzero" fill="none"><path fill="#BB1C3F" d="M69.872 24.492h6.798v.537H57.43v-.537h5.428v-12.9h-.164L51.74 25.028h-1.864L38.98 11.59h-.108v12.9h5.308v.538H31.688v-.537h5.428V11.223h-5.428v-.537h14.14l7.669 9.81 7.937-9.81h15.198v.537h-6.76v13.268"/><path fill="#0070AD" d="M108.859 25.029v-.523h4.349l12.842-13.82h1.823l12.316 13.82h4.299v.523h-17.041v-.523h5.593l-3.279-3.726h-11.608l-3.335 3.726h5.483v.523h-11.442zm9.881-4.768h10.483l-5.053-5.857-5.43 5.857z"/><path fill="#007456" d="M90.736 11.224v6.166c5.433 0 7.68-.324 7.967-2.618h1.587v5.982h-1.587c-.511-2.375-1.847-2.892-7.967-2.836v6.574h6.856c7.368 0 8.95-1.66 10.145-4.082h1.645l-.511 4.619H76.67v-.537h5.626V11.224h-5.664v-.537h31.336l.342 3.86h-1.593c-1.19-2.057-3.344-2.85-6.234-3.154-1.412-.146-3.06-.17-4.933-.17h-6 1.186v.001zM22.102 24.489c-1-.038-1.835-.18-2.083-.257-.594-.175-1.172-.28-1.693-.65-.105-.053-.134-.073-.24-.129-.037 0-.101-.085-.151-.085-.33-.265-.62-.536-.666-.962-.07-.517.105-1.016.42-1.41.102-.125.218-.238.345-.338.146-.114.333-.059.48-.114.09 0 .146-.312.333-.266.198.108.055.321-.094.423v.17c.085.023.187 0 .292.006-.096.16-.19.16-.245.256 0 .053.193.053.193.105-.146.158-.43.059-.626.158v.114c.48-.059 1.009-.423 1.485-.16 0 0-.143.046-.24.101.24.16.483 0 .725.059.287.102.57 0 .857.05-.047-.109-.185-.05-.24-.164.389-.1.769.114 1.148.216a.736.736 0 0 0-.567-.263c-.149 0-.289-.163-.388-.327v-.029c0-.04.011-.073.047-.073.122-.032.25.03.385.073.123.044.24.088.33.03.182-.094.32.09.492-.027h.005l.035-.023c-.192-.213-.531 0-.718-.272.187-.102.38 0 .57-.157.099-.102.338-.102.528-.102.24-.056.483.055.722.055.044 0 .143.102.184.102.2 0 .383.216.582.102 0-.043-.094-.102-.14-.157-.15 0-.336 0-.442-.158 0-.052 0-.108.056-.108.237 0 .432.266.67.164-.387-.266-.807-.108-1.205-.321-.234-.16-.564-.213-.763-.476-.044.108-.137.053-.193.053-.043 0-.043-.102-.09-.102-.24 0-.523.05-.523-.17 0-.21.283-.154.423-.154.53-.103.959.216 1.485.262.059 0 .059.111.059.164 0 .102-.103.055-.15.055.231.047.524.047.757.047.342 0 .728.061 1.061.16.193.059.38.16.573.059-.143-.111-.424.046-.38-.22 0-.101.187 0 .287-.046l-.05-.055c.05-.102.143-.053.248-.053-.344-.157-.678-.318-1.01-.476.186-.323.525-.113.812-.113 0 0 0-.102-.05-.102.096-.16.248.05.386 0-.05-.108-.138-.108-.243-.16-.336-.056-.672-.164-1.005-.211.047-.105.286.047.242-.163-.099-.266-.435-.21-.625-.316a.893.893 0 0 1 .625-.11c.237.055.524-.047.763 0-.38-.374-.906.055-1.344-.319.105-.102.245-.157.29-.32.291.11.63-.05.911 0-.365-.14-.722-.295-1.084-.403-.012 0-.038-.015-.065-.02-.149-.065-.3-.024-.447.02-.085.029-.178.07-.269.087-.336.105-.672.105-1.008-.058l.067-.03c.179-.084.386-.128.559-.128h.286c.096 0 0-.151.096-.151.187 0 .43-.059.62 0 .272.143.564.216.845.28.12.026.24.058.35.087.05.059.1.105.146.164.29.046.58.046.769.262.047.053.09 0 .09-.055-.043-.248-.087-.359.103-.458.012 0 .032-.015.04-.02-.043-.158-.142-.217-.286-.26.337-.108.725-.164.962.21h.143c0-.108.097-.167.143-.21.243-.059.38.21.623.21.482-.108.912-.059 1.335-.108-.327-.102-.616-.16-.95-.266-.102 0-.245 0-.338-.108.143-.157.435-.105.575-.052.097.052.097-.213.147-.164.24.059.476.111.669.216.14.056.43.164.616.272-.187-.43-.81-.377-.81-.75-.052-.21.32.143.471-.035-.908-.22-1.812-.132-2.72-.283a3.508 3.508 0 0 1-.14-.158c.283-.16.572-.268.853-.213.05.053.099.053.149.105.19 0 .283 0 .482.056v-.108c-.34-.108-.675-.053-1.008-.108-.24-.102-.532.055-.769.108-.818.052-1.628-.108-2.446-.053-.374 0-.76-.055-1.19 0-.339.105-.722 0-1.06 0-.287-.055-.614 0-.907.053-.24 0-.479 0-.669-.108-.052-.053 0-.102.05-.102.62-.108 1.195.05 1.768 0-.243-.216-.573-.108-.856-.164-.05 0-.1-.108-.144-.16.188-.108.427-.056.614-.056.053 0 .053.056.053.108h.915l-.056-.052c.625-.152 1.248-.056 1.868-.152-.43-.163-.953.044-1.386-.108a.429.429 0 0 1 .433-.055c-.05-.108-.249-.053-.29-.164.424-.157.857-.05 1.295-.105 0-.105-.1-.216 0-.312.044.096.143.152.187.152.295-.056.526-.108.72.16-.144.105-.287.105-.425.105.138.219.377 0 .564.056.053 0 .053.055.053.108.286 0 .62.055.909-.108.047 0 .143.215.237.055-.28-.16-.617-.11-.86-.268a8.633 8.633 0 0 1-.765-.584c.093-.108.286-.108.391 0 .138.102.231.102.374.157.097.053.053-.157.14-.157.194-.056.44-.056.626.052.29.158.576.105.915.158.044 0 .044-.053.088-.108 0 .064.055.055.093.055-.28-.236-.637-.011-.9-.213-.102-.107-.196-.16-.339-.265.19-.108.38-.05.529.105 0-.047 0-.155.047-.155.096 0 .193.155.29.108-.147-.213-.38-.108-.574-.271-.336-.16-.774-.053-1.11-.216 0-.055.052-.055.102-.055.044-.047 0-.097-.05-.097-.336 0-.672 0-.961-.216.29-.163.625-.108.909 0 .102.056.248.158.385.216.053 0 .193.05.193-.058-.05-.05-.093-.158-.193-.207.144-.158.337.157.48 0-.047-.059-.047-.114-.047-.158.237-.166.62.158.769 0 .24-.216.377.044.625 0-.205-.166-.427-.245-.658-.306-.303-.082-.625-.132-.926-.283.044-.108.146-.108.237-.108-.143-.164-.336-.164-.53-.263.243-.055.483-.055.72 0 .196.05.383.152.578.213.094.05.193.102.243.21a1.016 1.016 0 0 0-.625-.586c-.053-.059 0-.102.052-.102.09-.056.187.043.284.102.046 0 .096-.059.046-.102-.046 0-.096-.056-.096-.056.19-.21.383 0 .576 0 .046 0 .099.1.143.158 0-.059 0-.102.047-.158-.526-.21-1.052-.475-1.581-.534-.43-.05-.866-.05-1.292-.05-.862-.052-1.722 0-2.587-.107.483-.266 1.052.055 1.529-.164-.044-.102-.187-.052-.234-.157.339-.213.763.157 1.052-.05-.432-.163-.909-.114-1.341-.271.073-.108.17-.129.271-.129-.055-.052-.16-.146-.038-.239.15-.055.342.055.486 0-.486-.108-1.012-.108-1.342-.525.623-.272 1.292-.17 1.964-.272a1.689 1.689 0 0 1 1.005 0c.097.053.19.102.243.21.09-.157-.053-.157-.102-.21-.234-.21-.515-.21-.813-.324-.187-.052-.38-.052-.57-.102-.581-.21-1.148 0-1.77-.108-.106-.052-.237.053-.386.053.046.105.24 0 .201.105-.155.274-.485.052-.777.108-.523.11-1.05-.056-1.578-.158.38-.21.815 0 1.245-.055-.053-.053.09-.105 0-.155.233-.157.426.155.669.05.047-.05-.097-.158-.044-.272.044-.102.137 0 .23-.05v-.101c.39-.275.732 0 1.106.151-.187-.151-.433-.204-.576-.426-.047-.102.053-.151.1-.151.382 0 .765 0 1.104.151-.395-.373-.962-.373-1.479-.373-.777.061-1.59.222-2.355.061-1.155-.163-2.21-.265-3.35-.53-.052-.06-.149-.109-.149-.164 0-.213.24 0 .29-.16l-.05-.053c.1-.108.237-.108.336 0 .044.052 0 .108-.047.108h-.096c-.047.21.187.105.237.105.341.055.718 0 1.06-.053.424-.108.854.158 1.292.216-.052-.058-.196-.058-.149-.163.15-.213.436-.053.626-.053.38 0 .765.108 1.192.269.096 0 .196.099.286.05.15 0-.043-.05-.043-.103-.526-.324-1.102-.216-1.584-.586-.041-.053 0-.108.052-.108.097-.056.143.108.237.055-.427-.476-1.152 0-1.678-.32.1-.156 0-.322.053-.424.047-.163.283-.05.473-.05.05.05.097.05.144.05.339.053.622.207.914.321.094.05-.046-.053-.046-.114 0-.046.046-.105.093-.105.102 0 .196.059.196.166a.779.779 0 0 1 .526 0c.14.103.24.319.43.319-.053-.164-.19-.216-.29-.319-.046-.06 0-.107.047-.107h.243c-.15 0-.243-.059-.336-.059-.293-.05-.477-.265-.714-.368.035-.113.185-.055.281-.113-.28-.205-.722 0-1.005-.257.283-.164.529-.164.818-.105-.336-.105-.628-.059-.962-.059-.14.059-.289 0-.38-.154-.052-.111.185-.056.091-.164-.193-.096-.427.053-.663-.05l.05-.046c-.246-.219-.486-.114-.725-.067.146.114-.05.114-.05.163-.336 0-.672.108-1 .108-.339.056-.724.164-1.008.21-.196 0-.339-.265-.573-.318.044-.096.19-.05.28-.05.39-.046.816.103 1.199 0 .102 0 .34.158.386-.113-.094 0-.193.067-.246-.047.342-.163.678 0 1.012-.163-.188 0-.334-.163-.48-.21.146-.263.333-.056.48.047.09.058.146-.103.24-.047.239.21.522.373.806.268-.284-.108-.567-.163-.76-.429.389-.102.76 0 1.099.16a1.18 1.18 0 0 0-.71-.37c-1.11-.114-2.16-.216-3.215-.114-.09 0-.38.222-.43.059-.05-.266.34-.108.477-.266-.185-.151-.427.105-.526-.102.479-.216 1.002 0 1.534.102-.05-.216-.29-.052-.333-.216 0-.046.044-.102.09-.102.243 0 .53.167.716.102.29-.102.626.065.912.065-.193-.222-.43-.222-.622-.275-.43-.16-.91-.058-1.336-.318l.041-.058c-.041 0-.085-.05-.085-.05.328-.373.766.05 1.09 0-.09 0-.14-.046-.187-.102.15-.114.29 0 .433-.058-.865-.213-1.727-.213-2.633-.368-.097 0-.044-.105-.044-.16.333-.324.765 0 1.145-.164-.479-.047-1.005-.096-1.49-.047-.424.038-.862.08-1.295.047h.012c0 .061.184.111.038.164-.24.055-.48 0-.71.105.193.055.423-.05.613.055-.42.271-1 .108-1.385.426-.1.102-.333 0-.476.056-.293.154-.675.154-.962.367.377.047.716 0 1.105-.163.05 0 .09.108.09.108.34-.216.673-.108 1.059-.158.046-.058.149 0 .149-.108.038.108.187.22.038.266-.337.102-.617.324-.953.213-.15 0-.292 0-.433.055-.093.056-.187.167-.339.167.047.05-.184.099-.047.099.094 0 .15-.1.293-.1.093 0 .044.208.143.152.05-.102.19-.151.234-.102.432.05.915-.216 1.294 0 0 0-.093.207-.192.207-.477 0-.953.102-1.386.16-.386 0-.821.164-1.242 0-.248-.058-.435 0-.625.164.19.053.377-.061.526.053-.187.21-.477.21-.716.37-.1.108-.24.158-.34.327.58-.277 1.202-.382 1.778-.592.096-.056.143.21 0 .265-.082 0-.161.108-.243.117.175.026.35-.055.523-.009.103 0 .29 0 .34-.108 0-.055-.144-.113-.188-.16.287-.21.956-.324.903.21 0 .108-.14.058-.19.058-.093-.058 0-.163-.046-.221-.097-.047-.196.113-.281.058 0 .163.28.055.234.268-.05.047-.097.16-.15.16-.575-.113-1.051.158-1.575.103-.198 0-.526-.102-.669.055.094 0 .243 0 .284.108 0 .102-.19.102-.243.21.053 0 .102 0 .143.056.1-.105.249-.105.345-.105.754-.105 1.532-.213 2.3-.213.132 0 .48-.056.48.108-.056.262-.439.105-.725.154-.097.056-.19.216-.24.216-.333.097-.62-.108-.958-.055 0 .055 0 .108-.044.108h-.673l.05.044c-.05.113-.19.058-.286.058-.392-.155-.769-.315-1.199-.21.094 0 .243-.053.33 0 .1.055.144.108.24.108.1.044 0 .26-.043.26a2.572 2.572 0 0 0-1.055-.056c.102.17.286-.047.339.117 0 .204-.237 0-.299.155-.28-.155-.567.154-.903.108.287.16.582-.059.903.046A.63.63 0 0 0 8.7 5.02c.432-.05.859-.05 1.283.105 0 0 0 .114-.044.114h-.38c-.047 0-.047.102-.047.102.286.114.576-.155.862.114-.05.05-.1.152-.19.096-.201-.046-.386 0-.576-.046 0 .102-.149.046-.096.102.143.108.327.055.47.055 0 .053.202.053.053.155-.012.02-.032.026-.052.032.19.073.406.035.578.128.05.056 0 .108-.044.108h-.193c.097.158.337-.052.383.158 0 .058-.046.11-.096.11-.523 0-1.052.05-1.534-.268-.044-.052 0-.108.055-.108.284-.052.476.16.766.16-.29-.212-.722-.104-1.009-.361.094-.114.188-.114.33-.114-.289-.157-.52.053-.818 0-.134-.055-.23-.157-.38-.11v.11c-.38.155-.756.155-1.148.315.336.056.625-.16.961 0-.05.108-.24.056-.24.216.24 0 .427-.055.673.05-.576.21-1.25.11-1.82.426.382-.102.715-.155 1.101-.102.094 0 .047.163.094.163.479-.163.856 0 1.288.102.053.056.103.105.147.16-.237.106-.527-.055-.766-.055-.67-.105-1.24.16-1.865.43.383-.112.819-.27 1.245-.223.044 0 .143.167.187.111.34 0 .672.111 1.011.056.43-.102.807-.102 1.237.055-.187.102-.43 0-.614.053 0 0 0 .102.047.102-.629.32-1.248 0-1.917.114-.26.1-.535.153-.813.157.436.05.906-.222 1.292 0 .24.155.622.102.956.102.055 0 .055.053.055.108.187 0 .187.102.231.269-.474.102-.9-.167-1.385-.167-.047 0-.047.114-.047.114.19.053.38-.058.532.108-.102.102-.152.26-.246.312-.339.062-.622-.108-.952.062.233 0 .52-.062.57.154.043.103-.144 0-.193.103-.284-.155-.57.055-.857.055.132.105.287-.055.424 0 .056 0 .056.055.056.105-.056.053-.056.108-.103.108-.146 0-.29.055-.43.055-.382.053-.812 0-1.195 0 0 .103-.149.053-.1.103.19.055.43-.158.626 0-.286.27-.675 0-.964.157-.137.114-.33.16-.427.324.389-.055.716-.271 1.105-.163 0 .108-.15.108-.15.163.103.05.293-.055.39.05-.24.213-.58.213-.816.376.146.053.336-.108.29 0-.144.263-.53.37-.77.584.197-.059.378-.108.58-.158.28-.055.62-.21.952-.163.144.06.097.213 0 .262-.42.002-.837.058-1.242.167-.198.043-.43.21-.57.417.28-.152.57-.417.906-.315.09 0 .28 0 .33.108 0 .105-.24.268-.186.268.286.102.613-.114.906.05-.217.201-.635.125-.816.39-.014.027-.038.056-.044.091a3.08 3.08 0 0 1 .266-.09c.056-.009.108-.02.164-.02.672-.053 1.298-.319 1.964-.155-.189.072-.382.13-.579.175-.906.204-1.841.055-2.753.257.17-.006.319.081.462.207-.292.157-.62-.059-.868.105-.193.102-.476.052-.617.312.28-.055.617-.368.763-.055.044.163-.383 0-.286.27 0 .06.286-.107.388.06 0 .046-.149 0-.149.104.38.05.769-.105 1.096.05-.29.158-.62.058-.912.105v.108c.053.052.196 0 .15.052-.097.158-.38.056-.53.213.196 0 .345 0 .53.108.096.103.385-.108.435.059.038.26-.34.207-.532.207-.529 0-1.05 0-1.572.053v.107c.184-.055.374-.107.564 0-.427.321-.953.161-1.432.377.292 0 .575 0 .868.152-.293.271-.678.108-1.012.216.67.108 1.386-.108 2.055.055 0 .102-.096.053-.143.102-.193.053-.377-.05-.573.053-.143.055-.286.108-.427.108-.05.052-.102.108-.193.108.293.108.524-.216.816-.108.14.108.377 0 .333.16 0 .102-.237.056-.333.26.14 0 .333-.05.424.108-.383.21-.763.21-1.149.163-.427-.108-.909-.055-1.339 0 .144.047.287 0 .383.158-.19.16-.432.265-.672.373a.62.62 0 0 0 .336-.108c.047 0 .146.108.24.056 0-.056 0-.108.05-.108.192 0 .382-.053.526.052-.1.108-.284-.052-.334.164.334.05.81-.216 1.1.05-.279.157-.58.27-.892.338-.491.14-.997.248-1.406.566.15 0 .38-.053.482-.053.667-.11 1.286-.216 1.959-.16.143 0 .432-.056.388.16-.096.313-.435.426-.821.426 0 0 0 .103.053.103.19-.047.38 0 .523-.103.149-.055.29-.113.432-.216.14-.055.29-.102.43-.055.053.055.053.114.053.158-.29.326-.67.326-1.058.431.292.108.575-.105.908-.105.287.05.53-.157.866-.11-.044-.103-.24-.047-.193-.158.096-.16.432-.587.578-.37.09.107-.193.21-.146.21.336.373.667-.266 1.102-.103v-.108c-.143-.055-.286.053-.435-.055.339-.207.771-.207 1.107-.429.024 0-.011-.009-.058-.03-.038-.02-.088-.043-.088-.07 0-.21.187-.166.29-.166.616-.151 1.242-.42 1.811-.151-.33.108-.62.21-.952.151.143.216.485-.151.52.167a.276.276 0 0 1 .006.07c-.009.12-.164.18-.287.146.05.256.333 0 .28.151 0 .056-.096.216-.136.216-.24.108-.527-.055-.766 0-.33.108-.678-.055-1.006.155-.052.055 0 .114.05.114-.242.157-.535 0-.719.26h-.143c.327.055.62-.047.956 0l-.047.055.047.055c-.144.05-.237.213-.383.26-.287.056-.573-.102-.86.114.24.055.477-.058.717.055-.144.097-.34.05-.477.097 0 .058 0 .108.047.108.327 0 .719-.05 1.052.055-.24.16-.526.321-.766.423 0 0-.046-.102-.096-.102-.19 0-.34-.11-.53-.16-.236-.053-.475.05-.715.102.047 0 .143 0 .143.058-.052.102-.193.055-.283.055-.336-.215-.725-.113-1.061-.268-.333-.163-.713-.213-1.05-.055 0 0-.24 0-.143.055.336.102.766-.108 1.055.102-.385.377-.958.269-1.294.642a5.55 5.55 0 0 1 1.867-.318c.237 0 .52-.11.766.1-.53.107-.959.373-1.485.533-.05.059-.05.16-.143.216-.48.158-.915.368-1.295.64.237.055.48-.158.716-.158.293 0 .722-.426 1.006-.16-.161.22-.503.256-.655.495-.03.038-.044.094-.058.14a.361.361 0 0 1 .117-.14c.038-.029.078-.05.12-.073.239-.05.435-.105.619-.262.1-.059.24.043.336 0 .15-.114.292-.16.441-.216.035 0 .035.055.035.102-.035.114-.184.114-.23.216.137.11.283-.102.426-.102.246 0 .427-.324.629-.38.43-.157.859-.157 1.288-.26.144 0 .284-.11.427-.157.532-.108 1.005-.163 1.534-.265.24-.062.483-.17.725 0-.575.265-1.195.364-1.823.364-.15.059-.243.272-.436.318-.62.108-1.198.108-1.762.38.283.157.614-.16.906.043 0 .059 0 .17-.056.17-.204.061-.394.087-.599.122-.117.024-.228.044-.35.094.233-.065.523-.167.765 0-.102.046-.143.151-.19.262 0 .047.088.047.138.047.099-.047.099-.158.195-.21.19-.1.383-.1.576-.1.047 0 .094.1.094.21.17-.06.321-.198.482-.303a.734.734 0 0 1 .38-.122c.526-.056 1.005-.111 1.537-.17-.292-.043-.532.059-.821-.043.48-.272 1.008-.272 1.528-.426.1 0 .249-.056.196.046-.052.22-.38 0-.523.266.184.114.386 0 .576.055.038 0 .038-.102.096-.102.523-.055 1.14-.219 1.573.102-.433.16-.91-.102-1.336 0-.34.12-.658.23-1.038.397h-.102c-.085.026-.16.056-.248.09H8.7c-.433 0-.866 0-1.298.152 0 0 0 .111.05.111-.477.16-1.006.426-1.485.476-.34 0-.666.324-1.05.423.237.158.43-.1.71-.213.05 0 .103 0 .15.052.04.161 0 .269-.1.377-.05.105.053.157.1.207.09-.207.327-.423.526-.207.047.05 0 .157 0 .207.193-.265.482-.476.769-.476.09 0 .09.16 0 .21.23 0 .426-.157.62-.318.142-.052.286.108.429 0 .342-.154.67-.312 1.055-.37.044 0 .044.058.044.108.143-.05.292-.108.435-.108.041-.047.143 0 .143-.105 0 .058.185.058.041.163.485.05.956-.105 1.438-.105-.184-.16-.43.047-.57-.16 0-.059 0-.114.047-.114.476 0 1.003.055 1.485 0-.24-.21-.573 0-.86-.047-.055 0-.055-.052-.102-.11.08-.049.161-.093.246-.132.558-.225 1.286-.204 1.774-.236.052 0 .058.052.052.122 0 .044-.008.1-.008.14-.147.479-.29.954-.48 1.38-.235.481-.58.9-1.005 1.226-.579.374-1.187.657-1.88.75H2.569c0 .146-.003.49 0 .54h29.12v-.54h-9.587zm1.777-5.063c.097.062.231.062.336.17-.149.05-.382.204-.529.05-.04-.112.193 0 .147-.112-.05-.046-.187.062-.187-.046.04-.108.146-.106.233-.062zm1.961-3.924c.33.046.716 0 1.053.204.052.058 0 .108-.05.108-.187 0-.348.046-.526-.05-.187-.108-.38-.058-.573-.16.05-.056.05-.102.096-.102zm-1.052-4.156c.044 0 .053.181.14.114.196-.163.386 0 .58.05 0 .052.186.108.043.16a1.56 1.56 0 0 1-.719 0c-.093-.052-.237-.271-.044-.324zM3.664 14.644c-.088-.26.529-.26.812-.26.053 0 .053.053.106.053-.243.26-.769.53-.918.207zm2.44 1.54c-.087.272-.476.059-.716-.05.05-.11.193-.157.24-.11.19 0 .538.012.476.16zm.392-.262c-.1 0-.29.055-.29-.053-.046-.105.19-.163.29-.055v.108zm0-1.118c0 .056 0 .108-.05.108-.383-.052-.716.164-1.099 0 .09-.052.144-.108.234-.052v-.108c-.193.052-.38 0-.57 0 0 .108-.05.108-.093.16-.105.056-.105-.052-.15-.108 0 .056 0 .108-.046.108-.05-.108-.097.056-.14 0-.053-.052-.106-.052-.053-.108.336-.204.672-.312 1.052-.26.047 0 .047.056.047.1.339 0 .625-.152.961 0-.052.052-.093.052-.143.052-.05.056 0 .056.05.108zm11.395 4.576c-.1 0-.19.046-.237-.053 0 .053 0 .1-.05.1h-.426c-.053 0-.053-.1-.053-.155a.342.342 0 0 1 .237-.103c.14 0 .193.047.292.158.094-.055.19-.11.28-.055 0 .055-.043.108-.043.108zm-.818-6.598v-.102c.155 0 .339-.158.482 0-.143.157-.286.157-.482.102zm.196 3.782c-.041.05-.091.108-.144 0 0-.108 0-.269.103-.321.087 0 .134.213.04.32l.001.001zm0 1.01c.046-.22.286-.27.523-.22.052 0 .052.056.052.111-.052.108-.166.132-.24.21-.14.161-.289.479-.479.43-.19-.056.053-.327.144-.532v.001zm.666.79c0 .056-.059.02-.09.056-.144.163-.24.481-.483.318.14-.205.292-.42.482-.529.047 0 .09 0 .09.053v.102h.001zm-.187-2.708c-.094-.052-.228-.19-.094-.262.094-.056.237 0 .33 0 .342-.16.676-.16 1.009-.16.052 0 .052.052.096.104 0 .056 0 .108-.044.108-.292.102-.581-.108-.824.056-.143.046-.286.154-.473.154zm1.341 2.18c-.242 0-.485.055-.722 0 .097-.216.336-.102.433-.263.14.102.333-.055.438.102.038.103-.105.103-.149.161zm.523 1.333c0-.055 0-.113.047-.113.05 0 .05-.01.102 0 .334.058.67.058 1.006.216-.05.055-.102.154-.143.154-.287-.099-.53-.046-.772-.154-.05 0-.193 0-.24-.103zm1.105 1.273h-.286c0 .055 0 .102-.05.102-.193-.047-.38 0-.529-.102.15-.321.433-.164.716-.164.056 0 .15-.046.199.056 0 .052 0 .108-.05.108zm2.826-2.664c-.295.113-.722.271-.912-.044-.096-.114.144-.187.19-.16.24.101.532-.056.722.204zm-.374-1.322c.038.108-.155.108-.298.108-.187 0-.43.05-.579-.108.293-.108.769-.321.877 0zm-.821-1.01a.723.723 0 0 0 .427.158c.046 0 .096.052.096.102-.05.108-.146.079-.187.058-.199-.108-.435.05-.582-.16.1-.056.147-.21.246-.158zm-1.058 2.658c.14 0 .29-.043.433 0 .187.05.426 0 .57.158.055.055 0 .102-.044.102-.243-.047-.48.056-.714-.047-.105 0-.192 0-.289-.108-.052-.055 0-.105.044-.105zm0 2.282c-.187.056-.336.111-.523.056.093-.056.187-.21.277-.164.103.056.202 0 .246.108zm-.336-1.33c-.187-.053-.386.058-.523 0-.05-.053-.146 0-.146-.102 0-.053 0-.053.052-.108.044-.053.065.113.138.055.149-.108.385-.055.534.053.035.05 0 .102-.055.102zm0-2.384c0 .102-.14 0-.187.102-.05.05-.102 0-.102-.059.052-.043.084-.102.195-.102.047 0 .094.059.094.059zm-.237-.803c.05 0 .05.053.097.108 0 .047 0 .111-.047.111-.102 0-.199-.11-.292-.064-.231.064-.474-.047-.673.11.2.05.442-.046.629.05-.43.216-.962.38-1.386.272a1.003 1.003 0 0 0-.108-.027c.015.02.03.053.056.08-.146.104-.24.206-.43.206-.05 0-.05.059-.1.059-.049 0-.049-.059-.049-.102.094-.19.257-.216.424-.251-.234-.02-.474.029-.658-.178.234-.266.573-.266.865-.155l-.105.096c.193-.096.485.059.579-.16.04-.047-.19-.047-.19-.155 0-.055.14-.105.23-.105.202 0 .442.105.63.105.192.053.338 0 .528 0zm-.149-.744c0-.05-.04-.05-.093-.05 0 .05 0 .103-.044.103-.146 0-.243-.053-.383-.102-.389-.053-.772.05-1.108-.164.105-.42.485-.052.769-.216-.576-.26-1.245.327-1.724-.096-.05-.056.195-.056.286-.108-.09-.108-.184-.055-.286-.055-.05 0-.05-.053-.094-.053.237-.268.476-.432.769-.587.14-.108.473-.055.669.155-.196.111-.482-.052-.626.216 0 .055 0 .16.05.16.15 0 .292-.055.436-.055.28.056.47.271.757.164.102-.053.195-.214.339-.164.146.056.146.271 0 .327h-.237c.047.368.52.044.67.368.049.108-.094.108-.15.157zm-1.768-4.1c.047-.099.149-.073.245-.043.193.043.38-.108.515.043-.184.222-.807.435-.76 0zm2.244-1.324c.246-.108.679-.16.725.108.047.055-.18.075-.29.105-.376.105-.762.213-1.142 0 .231-.05.477-.164.766-.164l-.059-.05v.001zm.772 4.096c0-.055.053-.055.094-.108 0 .053.052.044.096.053.286.055.579.055.815.21-.19.056-.137.111-.236.271-.237-.16-.623-.055-.816-.323 0-.044.1-.044.14-.044-.04 0-.093 0-.093-.059zm-.047-2.287c0-.05.1-.05.14-.05.053 0 .383 0 .24.158-.09.052-.28 0-.38-.108zm-.575-1.22c.236-.108.49-.187.716-.055.096.055.192-.053.292.055-.292.16-.667.16-1.008 0zm-.15.957c.103.05.342.05.299.152-.15.327-.626 0-.912-.102.193-.105.453-.143.613-.05zm-.57-1.012c0-.053.094-.053.15-.053v.108c-.056 0-.15 0-.15-.055zm-.043 1.914c-.243.157-.532.216-.819.102.15-.044.287-.044.39-.21.14.108.283 0 .429.108zm.234.578c-.041-.047 0-.097.052-.097.05 0 .056-.035.097 0 .195.152.476-.058.666.152 0 .055 0 .108-.05.108-.236-.108-.523.055-.765-.163zm.149 1.441c-.047-.105.058-.268.333-.268.047 0 .047.052.1.052l-.053.056c.192.055.435 0 .622.215.053.05 0 .106-.047.106-.339 0-.815.163-.955-.161zm.815.432c-.094 0-.286.044-.383-.108.433-.108.856-.108 1.289-.108.149 0 .336 0 .48.108-.43.368-.913.108-1.386.108zm1.768-1.068c0 .052 0 .102-.044.102-.482 0-1.005.108-1.484-.158.137-.16.38.056.523-.16.093-.105.266.047.43 0 .192-.047.482-.047.575.216zm-.622-3.94c-.047 0-.091 0-.091-.052a.423.423 0 0 1 .485 0c-.052.114-.155.053-.254.053.389.216.812-.155 1.151.06-.339.097-.669.13-1.052.211-.24.05-.33-.163-.529-.21.1-.163.199.047.29-.061v-.001zm-.334.427c0 .052 0 .108-.05.108-.289-.158-.575.163-.856-.056.188-.157.424-.157.667-.157.09 0 .19 0 .24.105h-.001zm-1.873-.739c.579.103 1.11-.055 1.634.103-.143.27-.386 0-.573.108-.094.05-.243.163-.339.102-.246-.155-.523-.102-.763-.21-.052-.05 0-.103.041-.103zm-.716-.852c.196.053.392.102.529.21-.044.062-.044.103-.096.103-.237-.041-.524.06-.725-.155.1-.056.143-.198.292-.158zm-1.485-1.435c.48 0 .962-.16 1.394.151.041.065 0 .111-.052.111-.24 0-.52-.213-.769-.046-.28.157-.669 0-1.005 0-.044 0-.044-.111-.044-.167.143-.154.33-.05.476-.05v.001zm0 1.809c.097 0 .237 0 .196.102-.05.321-.485.163-.672.053.143-.053.29-.155.476-.155zm-.24 3.026c.053.052.144.052.2.163 0 .05 0 .105-.056.105-.143.053-.336.143-.38 0-.047-.16.143-.268.237-.268h-.001zm-.236 1.117l-.047.053h-.096c-.047-.053 0-.108.044-.108.052 0 .099 0 .099.055zm.094-8.027c.05 0 .11-.015.143.053.052.108.24 0 .286.108-.143.046-.38.16-.523.046.094-.046 0-.154.094-.207zm-.38.102c.05.059.096.105 0 .166-.103 0-.243.053-.243-.06-.047-.106.164-.182.243-.106zm.24.321c.046 0 .09-.052.14-.102.05 0 .093.05.05.102-.19.164-.533.21-.766.114.143-.216.374-.114.575-.114h.001zM17.412 8.7c.143 0 .29 0 .38.102-.138.102-.328.265-.523.21-.041 0-.041-.055-.041-.108.04-.05.04-.05.087-.102-.046 0-.19.052-.19-.061.053-.103.19-.041.287-.041zm.143 1.75c.05.056 0 .103-.053.103h-.377c-.052 0-.052-.047-.096-.047.096-.163.383-.163.526-.055v-.001zm-.672-5.75c.052 0 .052.055.052.116-.149.155-.383.31-.575.155.096-.155.24-.103.336-.216.044-.056.143.06.187-.056V4.7zm-.623 0h.1c.052 0 .192-.103.192 0-.055.116-.192.27-.336.116 0-.061 0-.117.044-.117V4.7zm-1.58.32c.435-.05.815-.05 1.203.105-.047.164-.196.114-.29.114-.148.05-.291.102-.382.05-.14-.103-.245-.164-.383-.164 0 .114-.047.164-.102.164-.327.052-.67.052-.956-.103.287-.107.629-.125.91-.166zm.101 4.26c0 .053-.055.103-.055.103-.137-.103-.424-.05-.38-.266 0-.105.149-.16.286-.16.15 0 .196.11.243.16 0 .108-.15.053-.196.053.047.055.047.055.102.11zm-.526-2.343c0-.05.144-.105.144 0 0 .056-.144.056-.144 0zm.377 2.717c.047.047 0 .096-.043.096-.144 0-.243 0-.392-.096l-.088.096c-.1-.05-.19-.157-.19-.26 0-.107.15-.078.231-.052.196.053.345.102.482.216zm-.622.689c0-.053 0-.108.047-.108.052 0 .032.055.093.055.047 0 .047.053.105.053-.105.108-.146.108-.245 0zm-.047 5.313c-.044 0-.044-.052-.044-.108 0-.046.044-.046.044-.102.094.056.094.158 0 .21zm-.237-7.864c-.055.05-.099.155-.146.155-.196 0-.339.157-.48.213-.049 0-.049-.108-.136-.108-.299 0-.632.052-.915-.158.237-.21.535 0 .812-.102.24-.108.582-.157.865 0zm-2.612 7.275a.684.684 0 0 1-.754-.108c.096-.114.242 0 .333.052.19.041.324-.154.459-.125.25-.108.517-.164.8-.242.144 0 .24.108.334.216-.407.046-.775.248-1.172.207zm.315.537a.672.672 0 0 1-.912 0c.094-.102.237 0 .33.052.246.05.383-.262.582-.052zm-2.013-.636c-.097 0-.284.055-.284-.056.044-.268.38-.16.564-.216.287-.096.52-.052.865-.052.05 0 .05.052.1.052-.386.216-.822.108-1.245.272zm2.633-1.97c-.05 0-.15-.053-.15-.108 0-.108.1-.21.197-.163.096.11.19.27.289.434 0 .05 0 .108-.053.108-.093 0-.14-.058-.19-.108v-.105c0-.058-.046-.058-.093-.058zm-1.532-5.156c.38-.158.807-.05 1.199.105-.05.213-.243.157-.439.157-.236 0-.43.056-.666-.052.096-.105.237-.05.386-.105-.15-.053-.336.055-.48-.105zm1.482.96c.097.052 0 .21.05.265.093.05.277-.035.336.103.044.11-.1.11-.146.163-.19-.108-.482.158-.573 0-.143-.216.09-.053.19-.163-.427-.158-.86-.053-1.295-.158.48-.055.962-.21 1.438-.21zm.666 1.433c0 .055-.058.081-.081.055-.155-.108-.345-.163-.442-.32 0-.056 0-.106.05-.106.193 0 .424.155.473.37v.001zm-1.91.481c.093-.21.385-.102.625 0-.103.1-.193.158-.24.266-.143.043-.433-.167-.386-.266h.001zm.768 1.325c-.143.108-.237.21-.383.21h-.143c-.059 0-.1-.044-.059-.102.155-.158.442-.269.585-.108zm-.094-1.06c.187-.166.47-.107.713 0-.242.21-.526.103-.713 0zm.956 3.242c-.146.106-.29.214-.485.214-.284 0-.52.207-.807.107.137-.27.43-.107.623-.27.14-.158.426-.106.669-.05v-.001zm-.053 1.59c0 .056.193.056.053.164-.1.047-.243-.064-.243.047v.11c-.19.05-.476.161-.62-.046.235-.274.527-.219.81-.274v-.001zm.576 1.39c-.137.262-.424-.059-.576.151-.093-.151-.283.056-.38-.105.24-.21.664-.105.956-.046zm-.137-4.421c-.05 0-.155.055-.187-.055 0-.047 0-.097.032-.097.05 0 .064-.035.105 0 .05.05.187.097.05.152zm.423.216c-.143.058-.23.105-.38 0 .15-.108.237-.108.38 0zm-.423 2.708c.137.058.415.055.38.271-.05.266-.38.158-.567 0 .032-.108.081-.271.187-.271zm.526.75c.044.052.087.216 0 .216-.196.043-.482 0-.482-.164 0-.213.359-.192.482-.052zm-.681 1.01c.199 0 .485-.056.68 0 .088.052.147.268.045.37-.29-.37-.757-.16-1.199-.16-.093 0-.143-.056-.19-.103.19-.163.477-.108.664-.108v.001zm.768.425c0 .056.059.158-.043.213-.044 0-.1-.055-.19-.055-.05 0-.05-.055-.1-.102.1-.056.246-.056.333-.056zm-1.098-5.85c.198-.05.447-.362.575-.213.047.052.19-.05.24 0 .093.163.24.108.38.213.052.055 0 .108-.038.108-.392 0-.778.058-1.157-.108zm.765-1.59c-.087 0-.05-.216-.143-.269.143-.11.307-.128.433-.055.102.055.24.055.33.163-.138.263-.43.053-.62.16v.001zm.05-4.736c.05 0 .05.06.093.06-.093.097-.192.097-.23 0 0-.06.087-.06.137-.06zm-1.005-.426c.143 0 .236.038.388 0 .181-.05.33 0 .48.052-.15.058-.193.164-.299.21-.18.111-.426-.046-.616-.152 0-.058 0-.11.047-.11zm-.38.11h.184c.052 0 .052.056.052.106-.096.102-.286.166-.286 0 0-.05.05-.106.05-.106zm-.193 1.054c.193-.05.377 0 .573.061-.144.102-.281 0-.43.102.234 0 .476-.163.666.114-.333.158-.716.158-1.102.04-.137 0-.233-.04-.382.062-.053-.163-.094-.216-.237-.265.286-.164.631-.027.912-.114zm-.43 1.117c.38-.102.807-.102 1.193 0 0-.05 0-.102.046-.102.193 0 .483-.157.576.102.056.164-.137.114-.187.114-.769.108-1.534.108-2.3.05.19-.266.427-.1.672-.164zm-.096 4.156c-.1.102-.202.102-.336.102a.854.854 0 0 1-.386-.102.845.845 0 0 1 .722 0zm-.1 1.485c-.286.158-.713.158-1.058.058.1-.213.243-.166.389-.166.24 0 .48-.105.67.108h-.001zM9.608 9.333v.105c-.245.102-.531.216-.818.053.243-.158.53-.053.818-.158zm-.05 1.482l-.046.059c.237.21.523-.158.716.052 0 .056-.123.006-.14.056-.19.417-.725.265-1.055.157-.144-.055-.333-.055-.483-.157.29-.167.67-.321 1.009-.167h-.001zm-1.537.482c.15-.05.243 0 .38 0 .246 0 .439-.105.676-.05.055.05.099.152.198.213-.1.158-.292 0-.435.05v.16c-.342.21-.623-.108-.91-.271.048-.053.048-.102.091-.102zm-.09 1.43c.09-.047.149.055.19.11 0 .053 0 .16-.041.16-.15 0-.295.06-.438-.052.093-.055.192-.163.289-.218zm-.29 1.336c.91-.055 1.818-.11 2.733-.163-.248-.158-.535 0-.766-.044 0 0-.192-.114-.05-.167.67-.213 1.392-.081 2.108-.213.286-.052.573.056.666.321.097.21-.19.103-.236.103-.48.052-1.003-.158-1.435.108.277-.056.57-.056.862.055 0 0 .193.105.044.105-.57.105-1.1.216-1.628.216-.243.053-.523-.055-.763-.11-.626-.05-1.298-.05-1.911-.05.093-.161.283-.161.377-.161h-.001zm1.199.537c-.097.044-.14.096-.24.096-.05.43-.52.216-.766.43-.143.052-.143-.158-.24-.214.141-.108.337-.052.527-.108.096 0 .05-.16.05-.16-.337-.1-.673.108-1.009 0-.044-.044-.187-.152-.09-.152.713-.163 1.426-.219 2.148 0v.108c-.143 0-.29-.056-.38 0zm-1.967 3.983c-.088 0-.088-.163-.14-.266 0-.163.21-.23.283-.163.193.163.342.055.532.055.187.053.43-.16.623-.215.096 0 .19.055.292.11.087 0 .237-.11.327 0-.573.479-1.242.374-1.917.479zm1.774.318c-.047 0-.047.102-.047.155a.519.519 0 0 1-.622 0c-.193-.102-.336.16-.526-.053.57-.21 1.195-.265 1.768-.47.292-.113.62-.169.964 0a3.225 3.225 0 0 1-1.537.368zm1.537-1.226c-.345.161-.725.103-1.107.103-.58-.103-1.056.169-1.625.326-.05 0-.094-.11-.094-.11.14-.216.377-.158.573-.26.047-.059-.196-.059-.196-.059.243-.21.532-.055.763-.102l-.035-.108c0-.11.137-.11.184-.16.242-.056.485.05.716-.056.096-.105.196-.268.333-.318h.287l.052.108c-.096.164-.237.164-.38.266.041 0 .041.05.041.105.102 0 .202 0 .287-.105.143-.056.201.105.292.213.05.055-.047.102-.09.157h-.001zm.377-.793c-.044-.108-.187-.059-.237-.059-.426-.151-.865.059-1.247.158-.147.058-.43.163-.477 0-.05-.207.24-.1.383-.266.094-.043.292.059.38 0 .476-.207.961-.207 1.432-.102.482.059 1.02.059 1.444.368-.287.117-.523.117-.81.117-.152 0-.199-.216-.336-.275-.196 0-.386-.05-.532.059zm2.882 3.452c-.102.21-.292.052-.441.108-.14.055-.418.19-.418 0 0-.056.032-.164.081-.164.15 0 .243-.046.337-.102.149 0 .295-.11.44 0v.158h.001zm.038-1.33c-.038.11-.24.165-.287.052 0-.102.047-.21.103-.318-.526.055-1.011 0-1.54.108-.284.108-.632.2-.819 0-.04-.053-.184-.108-.04-.158.482-.155 1.101.266 1.388-.268.38.113.765-.103 1.098.113.15.05.15.313.097.47v.001zm.052-7.865c.094-.055.272.053.287.108.05.152-.15 0-.24.05 0-.05-.196-.105-.047-.158zm.138 3.613l.055.052c.237.164.284.534.044.534-.1 0-.237-.37-.1-.586h.001zm.199 1.117c0-.105.093-.105.187 0-.094.053-.187.108-.187 0zm.24.695a.676.676 0 0 1-.19-.43c0-.046.09-.046.137-.046.052 0 .032.05.052.096.041.111.088.272 0 .38h.001zm.192-4.628c-.105.055-.292-.21-.105-.318 0 0 .085.006.105.052.044.108.097.266 0 .266zm.143 6.01c-.046 0-.046-.055-.046-.11 0-.058.046-.058.046-.102.09.044.09.157 0 .213v-.001zm.336-7.02c-.102.056-.149-.052-.192-.11 0-.05.09-.05.137-.05.055 0 .055.05.102.05 0 .058 0 .11-.047.11zm0-.691c0-.053-.149-.053-.055-.164.102-.102.24-.052.24.056 0 .055-.091.163-.185.108zm.52 6.378c-.14-.37-.043-.8-.14-1.22 0-.107.14-.055.187-.055.097 0 .196.108.196.164-.05.367.05.846-.242 1.111h-.001zm-.186-2.55c.046-.055.046-.163.143-.11.044 0 .085.075.044.11-.044.053-.044.105-.091.105-.05 0-.05-.052-.096-.105zm-.15-.429c-.037-.05 0-.102.053-.102.097 0 .24-.056.33.052 0 0 .056-.052.097-.052.05.052.1.102.149.157-.15.167-.48.108-.628-.055h-.001zm.15-1.383c0-.102.207-.187.289-.102.04.058 0 .157-.056.157h.29c.05 0 .336.059.198.108-.149.108-.432-.05-.578.108 0-.108-.143 0-.143-.108 0-.046 0-.093.026-.102-.015-.011-.026-.026-.026-.061zm.38-3.134c0 .108-.237.163-.38.108.046-.055.096-.158.187-.158.102 0 .242-.055.193.05zm-.193-1.275h.102l-.056.052-.046-.052zm.242 3.828c.05-.052.143-.052.193-.052 0 .046.17.102.061.151.053.018.085.056.085.111 0 .111-.146.16-.245.16-.094 0-.143-.212 0-.262.02-.014.038-.02.055-.026a.352.352 0 0 1-.149-.082zm-.1-.688h-.096c0-.056-.187-.108-.046-.167-.091-.099-.091-.262 0-.309.102 0 .193-.055.292.047.044.06.184.108.184.163-.09.158-.333-.055-.476.1.102 0 .242-.05.336.058 0 .052 0 .108-.044.108h-.15zm.05.954c0 .055 0 .105-.05.105-.096 0-.233.055-.283-.05 0-.11.14-.11.243-.11.04 0 .04.055.09.055zm.433-1.01c-.09.056-.19.1-.29 0 .1-.11.2-.11.29 0zm-.09.42c-.059-.099-.243-.154-.2-.32.05-.044.1 0 .1.058 0-.059.041-.059.1-.059.09.059.137.167.09.272 0 0-.044.05-.09.05v-.001zm-.535-1.164c-.044 0-.044-.055-.044-.11.146-.208.43-.103.625-.103.044 0 .044.05.09.05-.195.216-.429.163-.671.163zm.336-2.13c-.094-.05-.193-.26-.044-.368.044 0 .108.003.242.05.138.058.237 0 .281.16.047.108-.044.108-.096.158a.481.481 0 0 1-.383 0zm.05 1.698c0 .059.195.114.05.164a.822.822 0 0 1-.39-.105c.097-.108.246-.059.34-.059zm-.527 1.812h.097c0 .056.193.164.044.164-.044 0-.14.052-.187-.056 0-.052 0-.108.046-.108zm.433 1.494c0-.11.184-.166.242-.058.047.105 0 .318-.099.318-.1.053-.143-.155-.143-.26zm.29 6.058c-.106-.376-.22-.878.043-1.167.047-.056.146 0 .146.047-.052.37 0 .8-.19 1.12h.001zm.19-2.133c-.053-.05-.1-.05-.1-.1.1-.268-.09-.586.19-.746.096.265.052.58-.09.846zm.233-1.217c-.047.05-.09.105-.143.158-.047 0-.09 0-.09-.053 0-.163 0-.367.142-.367.01-.012.03-.012.03-.012l-.03-.044.044-.052v.096c.114 0 .164.152.047.274zm-1.432-9.787c.053 0 .053.056.053.108h.374c0-.052 0-.108.046-.108.056 0 .097.108.097.108.149-.108.333 0 .438.108-.29.21-.625 0-.917 0-.24 0-.52.05-.77-.108.34-.268.732-.268 1.106-.268.435 0 .815-.102 1.25 0-.531.32-1.107 0-1.677.16zm2.198 14.68c-.333-.16 0-.638-.044-1.012.044 0 .044-.219.149-.05 0 .05 0 .05-.053.103 0 .055.01.07.053.102.05.061.137.061.137.108 0 .157.047.213 0 .324-.046.154-.19.47-.242.426v-.001z"/></g></svg>