<svg xmlns="http://www.w3.org/2000/svg" width="247" height="37" viewBox="0 0 247 37"><defs><linearGradient id="a" x1="26.261%" x2="69.908%" y1="41.156%" y2="57.395%"><stop offset="0%" stop-color="#C4161C"/><stop offset="30%" stop-color="#ED1C24"/><stop offset="50%" stop-color="#F8ABAD"/><stop offset="71.91%" stop-color="#ED1C24"/><stop offset="100%" stop-color="#C4161C"/></linearGradient><linearGradient id="b" x1="19.625%" x2="93.156%" y1="37.247%" y2="68.508%"><stop offset="0%" stop-color="#FFF"/><stop offset="34.27%" stop-color="#FFF"/><stop offset="55%" stop-color="#FFF"/><stop offset="91.01%" stop-color="#C7D2EC"/><stop offset="100%" stop-color="#C7D2EC"/></linearGradient><linearGradient id="c" x1="37.151%" x2="66.586%" y1="43.78%" y2="58.324%"><stop offset="0%" stop-color="#00529B"/><stop offset="10.67%" stop-color="#00529B"/><stop offset="50%" stop-color="#7D97CD"/><stop offset="52.71%" stop-color="#7492C9"/><stop offset="73.23%" stop-color="#3670B1"/><stop offset="88.25%" stop-color="#0F5AA1"/><stop offset="96.07%" stop-color="#00529B"/><stop offset="100%" stop-color="#00529B"/></linearGradient><linearGradient id="d" x1="-23.261%" x2="103.933%" y1="18.523%" y2="72.915%"><stop offset="0%" stop-color="#C4161C"/><stop offset="50%" stop-color="#ED1C24"/><stop offset="100%" stop-color="#F8ABAD"/></linearGradient><linearGradient id="e" x1="20.248%" x2="81.935%" y1="39.027%" y2="61.825%"><stop offset="0%" stop-color="#C7D6EE"/><stop offset="7.3%" stop-color="#C7D6EE"/><stop offset="11.84%" stop-color="#AFC6E4"/><stop offset="21.44%" stop-color="#719DCA"/><stop offset="35.24%" stop-color="#0E5BA1"/><stop offset="37.08%" stop-color="#00529B"/><stop offset="42.98%" stop-color="#08579E"/><stop offset="52.21%" stop-color="#1E66A8"/><stop offset="63.62%" stop-color="#437EB7"/><stop offset="76.75%" stop-color="#75A0CC"/><stop offset="91.18%" stop-color="#B5CAE7"/><stop offset="94.94%" stop-color="#C7D6EE"/><stop offset="100%" stop-color="#C7D6EE"/></linearGradient><linearGradient id="f" x1="20.003%" x2="83.335%" y1="38.736%" y2="62.913%"><stop offset="0%" stop-color="#FFF"/><stop offset="17.42%" stop-color="#FFF"/><stop offset="23.01%" stop-color="#F9FAFD"/><stop offset="30.56%" stop-color="#E8ECF6"/><stop offset="35.39%" stop-color="#D9E0F1"/><stop offset="46.93%" stop-color="#EDF0F8"/><stop offset="59.16%" stop-color="#FAFBFD"/><stop offset="70%" stop-color="#FFF"/><stop offset="100%" stop-color="#FFF"/></linearGradient><linearGradient id="g" x1="18.931%" x2="79.809%" y1="39.787%" y2="60.071%"><stop offset="0%" stop-color="#F8ABAD"/><stop offset="5.62%" stop-color="#F8ABAD"/><stop offset="10.11%" stop-color="#F8A6A8"/><stop offset="15.57%" stop-color="#F6979A"/><stop offset="21.51%" stop-color="#F57E82"/><stop offset="27.82%" stop-color="#F25C62"/><stop offset="34.33%" stop-color="#EF3138"/><stop offset="37.08%" stop-color="#ED1C24"/><stop offset="46%" stop-color="#D1181E"/><stop offset="51.69%" stop-color="#C4161C"/><stop offset="60.65%" stop-color="#D1181E"/><stop offset="74.72%" stop-color="#ED1C24"/><stop offset="96.07%" stop-color="#F8ABAD"/><stop offset="100%" stop-color="#F8ABAD"/></linearGradient></defs><g fill-rule="nonzero" fill="none"><path fill="#004A86" d="M43.443 25.97v-2.267h-9.795v-4.262h8.812v-2.247h-8.812v-3.883h9.282v-2.238H27.12v14.898h16.323v-.001zm9.556 0V13.31h3.838c1.163 0 2.244.088 3.228.683.72.464 1.169 1.127 1.169 1.952 0 .682-.267 1.395-1.257 1.959-1.288.773-3.532.873-4.94.718l-.808-.085 6.504 7.434h7.542l-6.173-6.209c1.105-.11 2.879-.512 3.96-1.14 1.281-.797 1.943-1.97 1.943-3.065 0-1.234-.723-2.568-2.365-3.444-1.947-1.01-4.613-1.04-7.07-1.04H46.44v14.898H53l-.001-.001zm52.713 0v-6.287h8.811V17.44h-8.811v-4.13h9.525v-2.237h-16.05v14.898h6.525v-.001zm18.455-14.897h-6.562v14.898h16.175v-2.268h-9.613v-12.63zm36.568 2.237h7.038v12.66h6.565V13.31h7.035v-2.237h-20.638v2.238-.001zM146.84 24.58c-1.621 0-3.531-.334-4.94-1.944-1.17-1.31-1.379-2.82-1.379-4.099 0-1.343.21-2.82 1.379-4.126 1.409-1.65 3.319-1.974 4.94-1.974 1.649 0 3.534.325 4.962 1.974 1.178 1.307 1.384 2.783 1.384 4.126 0 1.28-.206 2.79-1.384 4.099-1.428 1.61-3.313 1.943-4.962 1.943v.001zm0-13.94c-3.045 0-7.333.627-10.214 2.51-2.28 1.473-3.359 3.586-3.359 5.387 0 1.777 1.078 3.884 3.359 5.357 2.881 1.852 7.169 2.49 10.214 2.49 3.049 0 7.36-.638 10.239-2.49 2.277-1.473 3.334-3.58 3.334-5.357 0-1.8-1.057-3.914-3.334-5.387-2.879-1.883-7.19-2.49-10.239-2.51zM83.36 24.58c-1.621 0-3.537-.334-4.946-1.944-1.163-1.31-1.382-2.82-1.382-4.099 0-1.343.219-2.82 1.382-4.126 1.409-1.65 3.325-1.974 4.946-1.974 1.643 0 3.532.325 4.965 1.974 1.172 1.307 1.381 2.783 1.381 4.126 0 1.28-.209 2.79-1.381 4.099-1.433 1.61-3.322 1.943-4.965 1.943v.001zm0-13.94c-3.054 0-7.336.627-10.211 2.51-2.284 1.473-3.359 3.586-3.359 5.387 0 1.777 1.075 3.884 3.359 5.357 2.875 1.852 7.157 2.49 10.211 2.49 3.052 0 7.364-.638 10.242-2.49 2.275-1.473 3.328-3.58 3.328-5.357 0-1.8-1.053-3.914-3.328-5.387-2.878-1.883-7.19-2.49-10.242-2.51zM7.89 19.629l3.088-5.194h.094l3.35 5.194H7.89zm-3.772 6.342l2.575-4.326h9.08l2.784 4.326h7.336l-9.939-14.898H9.872L.854 25.971h3.264z"/><path fill="#00529B" d="M220.913 12.697c-.29.361-2.604 3.281-2.604 3.281l-1.112 1.413c-8.036.9-16.542 4.967-25.804 12.304 5.87-6.103 14.545-14.385 29.52-16.998zm13.828-7.401c3.176-.376 6.606-.957 10.127-3.391-1.246 1.602-2.812 3.66-2.812 3.66-3.117 4.151-5.365 4.5-7.476 4.774l-4.53.304-3.89.239c-1.652.19-2.835.535-3.892 1.037 1.472-1.793 3.403-3.938 5.106-4.994 1.79-1.109 3.877-1.272 5.256-1.394l.799-.076 1.312-.16zm-.083-.634l-1.315.167-.768.072c-1.441.118-3.63.3-5.55 1.492-1.918 1.185-4.08 3.646-5.603 5.545-16.553 2.67-25.615 12.186-31.626 18.479l-3.744 4.253.61-.179c11.287-10.082 21.343-15.494 30.75-16.496l.14-.02 1.266-1.61 2.627-3.315c1.09-.949 2.581-1.287 4.786-1.53l3.846-.243 4.59-.311c2.114-.278 4.632-.657 7.91-5.02l4.194-5.47-.494-.413c-3.798 3.638-7.777 4.15-11.619 4.599z"/><path fill="url(#a)" d="M219.064 22.309c-14.211.114-20.633 3.49-32.609 11.966L184 36.735c12.34-8.703 19.428-9.44 29.582-9.36.944.057 1.845.106 2.416-1.071l3.066-3.995z"/><path fill="url(#b)" d="M221.684 12.204c-20.16 3.175-29.06 16.405-35.232 22.06 12.045-10.778 22.094-15.635 30.925-16.584.783-1.003 3.484-4.352 4.307-5.476z"/><path fill="url(#c)" d="M217.365 17.68c-13.432 1.78-22.216 9.042-30.31 15.96-.227.22-1.046 1.094-1.283 1.302 7.056-5.066 12.981-10.313 27.7-12.261.733-.805 2.879-3.54 3.893-5.001z"/><path fill="url(#d)" d="M217.647 21.857c-2.342 0-4.715 1.079-4.942 1.694-.388 1.021.22.588 1.981 1.606 1.492.854 1.18 1.162 1.042 1.599 1.359-1.876 3.806-4.622 3.806-4.622a6.15 6.15 0 0 0-1.887-.277z"/><path fill="url(#e)" d="M242.726 5.76c-4.116 5.263-13.491 4.803-16.409 5.179-2.741.357-4.488 1.025-5.584 2.377l-3.861 4.99c.841-.729 3.383-1.086 6.128-1.154h.74c.368-.012.78-.03 1.21-.046 3.905-.148 9.325-.676 12.465-4.238l4.739-6.353.572-.756z"/><path fill="url(#f)" d="M246.509.287c-4.347 4.158-9.094 4.329-13.12 4.86-1.206.153-3.923.115-6.19 1.516-2.26 1.394-4.97 4.72-6.31 6.467 1.246-1.287 2.898-1.652 5.303-1.921 2.432-.27 5.937-.224 8.431-.559 2.377-.303 4.598-.77 7.691-4.89L246.51.286z"/><path fill="url(#g)" d="M237.572 12.67c-1.821 2.264-5.067 3.286-8.968 3.817-2.964.395-6.332.513-7.3.57-1.664.068-3.865.58-4.472 1.291-1.868 2.244-3.642 4.333-4.127 5.203 1.14-1.03 4.871-.916 9.414-1.117 4.511-.205 9.097-2.1 12.72-6.095l2.733-3.668z"/></g></svg>