<svg width="46" height="24" viewBox="0 0 46 24" fill="none" xmlns="http://www.w3.org/2000/svg">
<path fill-rule="evenodd" clip-rule="evenodd" d="M0 0.817083C0 0.313793 0.331109 0.0784499 0.840512 0.0570544C1.62398 0.0254702 2.67334 0 3.9438 0C12.8043 0 32.3124 1.21442 45.3582 9.57372C45.7678 9.83453 45.8656 10.078 45.7148 10.5579C45.6435 10.7871 41.5836 23.4926 41.5836 23.4926C41.4144 23.9674 41.1271 24 40.7675 24H0.712144C0.280172 24 0 23.6465 0 23.2553V0.817083ZM24.878 15.3133C24.7394 16.2526 24.9615 17.0952 25.5219 17.7482C26.2656 18.6183 27.5799 19.0085 29.2212 19.0085C29.9832 19.0085 30.7127 18.9351 31.3026 18.7864L34.0839 10.0929H42.2772L41.7688 11.7047H35.9361L35.0915 14.3403H39.9869L39.4887 15.895H34.5944L33.3198 19.9091C32.8308 20.1709 30.8655 20.7415 28.6914 20.7415C25.3283 20.7415 22.9555 19.1379 22.5857 16.7518C22.5806 16.7162 22.5531 16.705 22.5103 16.705C22.4695 16.705 22.4431 16.7131 22.4298 16.7518L21.2134 20.552H18.754C17.9511 17.5526 16.4535 14.7122 14.9447 12.5533C14.9447 12.5533 13.4653 17.141 13.449 17.1919C13.4378 17.2286 13.4175 17.2388 13.3757 17.2388C13.3339 17.2388 13.3064 17.2307 13.2932 17.1919C13.068 16.5338 12.795 16.0713 11.9331 15.4304L13.6477 10.0929H15.941C17.8126 12.4158 19.3428 15.2613 20.0866 17.4252L22.4237 10.0929H24.5591L23.8286 12.3842C23.8164 12.4239 23.847 12.4321 23.8918 12.4321H23.8935C23.9222 12.4321 23.9681 12.4321 24.013 12.3842C25.4709 10.8142 27.7205 9.92378 30.3072 9.92378C31.1426 9.92378 31.9944 9.96963 32.6973 10.0776L32.1207 11.7678C31.5522 11.6955 30.9195 11.6568 30.3052 11.6568C27.3883 11.6568 25.2081 13.0729 24.878 15.3133ZM12.1959 10.1663L11.7089 11.6975C11.1578 11.5702 10.6759 11.4836 9.99835 11.4673C8.65862 11.4367 7.18033 11.7576 6.89507 12.6032C6.68063 13.2375 7.44733 13.601 8.65137 14.1718C8.80308 14.2437 8.96174 14.3189 9.12625 14.3984C9.16038 14.4149 9.19467 14.4314 9.22908 14.448C11.0878 15.3448 13.3249 16.4241 12.3997 18.3687C11.603 20.0415 9.61324 20.8148 6.54052 20.7445C4.90432 20.7068 2.98693 20.12 2.05676 19.688L2.80864 18.062C4.07298 18.6988 5.6776 19.0676 6.96435 19.0981C8.44977 19.1317 9.47163 18.818 9.78338 18.1567C10.1848 17.304 9.04373 16.653 7.60008 15.9684C5.78151 15.1064 3.68278 14.0601 4.42243 12.1998C5.04696 10.6308 7.47477 9.89016 10.1603 9.95231C10.9958 9.97166 11.496 10.0379 12.1959 10.1663Z" fill="white"/>
</svg>
