<svg xmlns="http://www.w3.org/2000/svg" width="176" height="19" fill="none"><path fill="#231F20" d="M48.096 8.854h3.21v5.7c-.354.067-2.504.402-3.78.402-3.564 0-4.506-2.179-4.506-5.934 0-3.855.976-6.002 4.472-6.002 1.763 0 3.814.436 3.814.436l-.05 1.073s-2.085-.351-3.613-.351c-2.69 0-3.277 1.558-3.277 4.844 0 3.218.57 4.794 3.26 4.794.84 0 1.965-.15 2.402-.234V10.01h-1.932V8.854ZM53.422 3.189h7.075v1.14h-5.78v4.006h4.771v1.122h-4.772v4.191h5.781v1.14h-7.075v-11.6ZM66.596 4.329h-3.008v4.878h3.025c1.748 0 2.37-1.04 2.37-2.498 0-1.592-.757-2.38-2.387-2.38Zm-3.008 6.018v4.441h-1.294v-11.6h4.302c2.437 0 3.715 1.073 3.715 3.521 0 1.71-.674 2.9-2.135 3.369l2.234 4.71h-1.427l-2.1-4.441h-3.295ZM72.225 3.189h2.336l3.294 9.806L81.15 3.19h2.335v11.599H82.19V4.563h-.234l-3.379 9.806h-1.445l-3.377-9.806h-.236v10.225h-1.294v-11.6ZM87.298 10.647H91.7l-1.763-6.353h-.874l-1.765 6.353Zm.79-7.46h2.823l3.192 11.6h-1.276l-.84-2.984h-4.975l-.84 2.984h-1.277l3.192-11.6ZM95.515 3.189h2.42l4.452 10.46h.354V3.188h1.278v11.599h-2.371l-4.52-10.46h-.32v10.46h-1.293v-11.6ZM112.217 10.715h3.126l-1.16-5.414h-.807l-1.159 5.414Zm-.638-7.325h4.403l2.571 11.399h-2.319l-.454-2.062h-4l-.453 2.062h-2.319l2.571-11.4ZM119.997 3.39h2.319v11.399h-2.319v-11.4ZM129.155 5.368h-2.117v3.62h2.151c1.159 0 1.63-.804 1.63-1.81 0-1.09-.555-1.81-1.664-1.81Zm-2.117 5.598v3.822h-2.319V3.389h4.436c2.605 0 4.033 1.158 4.033 3.755 0 1.576-.639 2.632-1.68 3.285l1.63 4.359H130.6l-1.328-3.822h-2.234ZM136.565 3.39l1.411 9.42h.253l2.05-9.42h2.689l2.05 9.42h.252l1.411-9.42h2.437l-2.185 11.399h-3.511l-1.799-8.667-1.798 8.667h-3.512l-2.184-11.4h2.436ZM152.528 10.715h3.126l-1.16-5.414h-.807l-1.159 5.414Zm-.638-7.325h4.402l2.572 11.399h-2.319l-.454-2.062h-4l-.453 2.062h-2.319l2.571-11.4ZM164.022 14.788h-2.319v-4.61l-3.529-6.789h2.571l2.101 4.544 2.1-4.544h2.572l-3.496 6.79v4.609ZM175.247 5.468s-2.369-.268-3.344-.268c-1.243 0-1.831.453-1.831 1.208 0 .72.453.971 2.369 1.574 2.47.789 3.226 1.475 3.226 3.37 0 2.48-1.698 3.637-3.949 3.637-1.563 0-3.814-.519-3.814-.519l.234-1.794s2.252.302 3.446.302c1.243 0 1.781-.587 1.781-1.475 0-.704-.403-1.023-2.051-1.493-2.57-.737-3.545-1.608-3.545-3.436 0-2.363 1.58-3.386 3.899-3.386 1.528 0 3.764.453 3.764.453l-.185 1.827Z"/><path fill="#FBC707" d="M13.255 11.394c-1.474.48-1.453.48-3.627 2.446-.366.335-1.663 1.892-2.237 2.509 6.47-1.809 9.617-.46 12.261.888 3.251 1.662 5.74 3.314 12.732-.899-4.923.68-6.052-2.247-11.111-4.024 0 0-2.321-1.296-5.321-1.296a9.65 9.65 0 0 0-2.708.376h.01Z"/><path fill="#B51D48" d="M7.401 16.349c11.603-7.579 27.545 4.6 29.447-16.35-8.446 9.733-17.74 7.705-29.447 16.35Z"/><path fill="#231F20" d="M9 12.481c.868-2.875 3.429-3.418 5.687-3.146C9.597 7.066 7.39 1.568 0 .282c4.13 2.676 4.181 7.924 9 12.21v-.01Z"/></svg>