<svg height="53.602" viewBox="0 0 300 53.602" width="300" xmlns="http://www.w3.org/2000/svg"><path d="m0 0h300v53.602h-300z" fill="none"/><path d="m235.636 16.222-10.354 14.98c-1.363 1.971-3.574 3.869-6.246 4.071v.461h11.517c3.058 0 5.287-1.99 6.798-4.183l10.631-15.33h-12.346z" fill="#f00"/><path d="m44.946 35.734v-17.867h5.213v17.867zm120.228 0-12.525-10.61v10.61h-4.403v-17.867h3.74l12.359 10.443v-10.443h4.402v17.867zm27.243-12.103c-2.357-1.16-5.01-2.099-8.528-2.099-4.2 0-7.332 2.173-7.332 5.194 0 3.094 3.188 5.287 7.295 5.287 3.391 0 6.078-.866 8.73-2.396v4.421c-2.339 1.161-5.451 2.026-8.951 2.026-7.146 0-12.766-3.646-12.766-9.338 0-5.6 5.729-9.192 12.747-9.192 3.315 0 6.317.626 8.805 1.64zm-113.246 12.103v-17.867h17.425v3.831h-12.213v4.439h11.937v3.832h-11.937v5.766h-5.212zm116.396 0v-17.867h18.088v3.831h-12.876v3.095h12.673v3.831h-12.673v3.279h12.82v3.831zm-80.864-6.705 7.202 6.705h-5.563c-1.234 0-2.044-.387-2.689-1.014l-4.9-4.752c-.092-.092-.239-.147-.423-.147h-3.334v5.913h-5.213v-17.867h11.292c5.857 0 8.326 2.634 8.326 5.544-.001 3.389-3.022 5.009-4.698 5.618zm-4.162-2.947c2.062 0 3.057-1.05 3.057-2.229s-.884-2.155-3.057-2.155h-5.545v4.384zm-40.581 2.947 7.202 6.705h-5.562c-1.234 0-2.045-.387-2.689-1.014l-4.9-4.752c-.092-.092-.239-.147-.424-.147h-3.333v5.913h-5.214v-17.867h11.292c5.857 0 8.326 2.634 8.326 5.544 0 3.389-3.021 5.009-4.698 5.618zm-4.162-2.947c2.063 0 3.058-1.05 3.058-2.229s-.884-2.155-3.058-2.155h-5.544v4.384zm-29.012 9.652-2.284-3.924h-9.983l-2.082 3.924h-4.973l9.947-17.849h4.532l11.273 17.849zm-10.278-7.645h5.821l-3.021-5.452zm114.37 7.645-2.229-3.924h-9.725l-2.008 3.924h-4.845l9.689-17.849h4.402l10.96 17.849zm-10.002-7.645h5.673l-2.947-5.452z" fill="#051039"/><g fill="#0b1761"><path d="m277.291 19.196-.019.008a12.676 12.676 0 0 1 3.656 8.068c.492 6.99-4.772 13.049-11.756 13.531a12.605 12.605 0 0 1 -8.76-2.703l-.012.02a12.648 12.648 0 0 0 9.526 3.369c6.988-.483 12.256-6.543 11.771-13.529a12.671 12.671 0 0 0 -4.406-8.764zm-22.479 14.427c-.405.225-.494.564-.282 1.091.188.472.482.676.807.549.257-.099.299-.324.194-.897l-.049-.223c-.105-.56-.121-.799-.056-1.047.072-.267.223-.447.461-.54.571-.227 1.119.129 1.442.934.343.861.161 1.525-.525 1.805l-.167-.426c.473-.2.591-.646.337-1.283-.205-.506-.528-.738-.883-.604-.277.114-.342.368-.235.959l.039.247.035.216c.076.433.083.588.041.776-.052.23-.205.396-.44.492-.538.214-1.057-.103-1.352-.823-.314-.791-.142-1.379.466-1.646zm-.353-4.578 1.922-1.629.008.602-1.632 1.354.529.583 1.154-.023.006.47-3.274.071-.007-.472 1.28-.021h.188l.158-.009-.108-.114-.111-.12-1.441-1.559-.019-.622zm1.444-5.072 1.26.443-.156.451-1.261-.451-2.253.684.183-.541 1.401-.39.172-.046c.07-.024.12-.033.24-.061a2.456 2.456 0 0 1 -.248-.32l-.862-1.171.172-.519zm2.211-6.009-.696.847 2.063 1.692-.494.605-2.061-1.691-.688.843-.473-.384 1.88-2.292zm4.417-3.095-1.652.964.347.603 1.52-.887.28.486-1.517.886.412.691 1.673-.987.313.528-2.359 1.375-1.652-2.82 2.327-1.365zm6.323 1.267-.858.059-.418-.709-1.322.213-.184.807-.81.208.855-3.577.812-.126zm-1.869-1.682a4.615 4.615 0 0 1 -.353-.667 4.799 4.799 0 0 1 -.141.743l-.132.62.948-.143zm7.124 2.729-.684-.259.263-.974c.021-.114.066-.267.126-.473.053-.201.098-.363.13-.481.047-.127.084-.266.13-.408l.075-.229c-.193.33-.27.446-.445.713-.071.119-.147.218-.199.298l-.926 1.307-.596-.162-.19-1.564c-.016-.079-.02-.188-.026-.346-.017-.203-.024-.36-.031-.471a3.2 3.2 0 0 1 0-.398l-.084.398c-.09.433-.141.616-.267 1.131l-.267 1.052-.729-.11.815-3.199 1.099.209.155 1.515c.038.356.049.652.033 1.075.126-.243.169-.327.308-.542l.257-.385.855-1.237 1.047.357z"/><path d="m267.86 23.49c-.397.35-1.181 1.103-1.935 1.828l-.874.829a11.366 11.366 0 0 0 -2.102-.189c-1.599 0-3.055.438-3.717 1.125-.257.259-.385.539-.372.835.013.768.899 1.161 1.165 1.264 1.412.522 2.599.374 3.853-.504.686-.478 1.511-1.261 2.16-1.88.501.115 1.069.269 1.69.455l.565.159c-.74.725-1.491 1.49-2.19 2.101l-.053.05c-.971.854-1.672 1.478-2.682 1.703-.718.155-1.229.007-1.393-.096-.014 0-.038.029-.038.029.592.484 1.139.761 2.095.677.916-.078 1.969-.653 3.043-1.662l1.452-1.421 1.021-1.014c0 .007 2.056.604 2.056.604a.307.307 0 0 0 .039.013c-.021 0-1.272 1.237-1.272 1.237l-1.096 1.085c-1.124 1.087-1.732 1.649-2.388 2.117-1.077.76-2.006 1.167-2.821 1.222-.428.025-1.034-.007-1.537-.299-.027-.005-.056.021-.056.021.55.478 1.229 1.038 2.394 1.006 1.317-.043 2.487-.671 4.312-2.339.827-.764 1.649-1.62 2.38-2.364l1.35-1.375c.896.197 1.679.284 2.566.268 1.279-.027 2.373-.642 2.386-1.346.014-.517-.42-.8-.67-.961a2.892 2.892 0 0 0 -1.573-.462c-.959 0-1.967.434-2.98 1.262l-.673.605c.006 0-.253-.071-.253-.071l-1.878-.534c.554-.513 1.023-.959 1.451-1.333 1.023-.921 2.159-1.3 2.83-1.343.487-.027 1.337.016 1.684.255.019 0 .038-.033.038-.033-.922-.79-1.727-.898-2.393-.898-.652 0-1.696.206-2.967 1.196-.523.404-1.202 1.083-1.907 1.803 0-.003-.956-.294-.956-.294l-.229-.075-.999-.303c.017 0 .568-.536.568-.536.676-.663 1.308-1.292 1.806-1.71 1.808-1.517 2.944-1.717 3.73-1.724.866 0 1.558.174 2.05.531a.167.167 0 0 0 .032-.035c-1.018-.918-1.743-1.211-2.999-1.218-1.106-.01-2.421.61-3.713 1.739zm-7.095 5.415c-.584-.038-.869-.274-.869-.726 0-.057.038-1.499 3.32-1.656a7.982 7.982 0 0 1 1.421.038c-.027.005-.366.319-.366.319l-.209.191c-.788.715-2.112 1.921-3.297 1.834zm13.269-1.156c.939-.636 1.727-.979 2.218-.959.286.005.634.091.634.453 0 .365-.352.673-1.032.918-.6.217-1.519.271-2.527.156a7.13 7.13 0 0 1 .707-.568zm-6.502.704v.968m7.921-14.852a.527.527 0 0 1 .703-.274.532.532 0 1 1 -.418.981.535.535 0 0 1 -.285-.707zm.894.437a.468.468 0 0 0 -.18-.618.452.452 0 1 0 -.438.792.46.46 0 0 0 .618-.174zm-.323.155-.087-.046-.019-.321-.09-.044-.128.236-.066-.043.274-.515.228.122c.095.055.171.126.109.241-.062.101-.152.1-.239.053zm-.065-.44c.062.038.168.107.212.027.032-.055-.034-.105-.091-.135l-.143-.073-.069.129z"/></g></svg>