<svg xmlns="http://www.w3.org/2000/svg" width="97" height="25" viewBox="0 0 97 25"><g fill-rule="evenodd"><path d="M0 .5v24h24V.5zm24 17l5-5-5-5z" fill="#C17C51"/><path d="M37.064 12.97V4.878c0-.476.364-.854.84-.854s.854.378.854.854v.462c.546-.77 1.316-1.386 2.52-1.386 1.736 0 3.43 1.372 3.43 3.836v.028c0 2.45-1.68 3.836-3.43 3.836-1.232 0-2.002-.616-2.52-1.302v2.618c0 .476-.378.84-.854.84a.834.834 0 0 1-.84-.84zm3.808-2.786c1.162 0 2.114-.91 2.114-2.366V7.79c0-1.428-.966-2.366-2.114-2.366s-2.156.952-2.156 2.366v.028c0 1.414 1.008 2.366 2.156 2.366zm5.684.546V2.05c0-.462.364-.84.84-.84s.854.378.854.84v8.68c0 .476-.378.84-.854.84a.834.834 0 0 1-.84-.84zm6.034.924c-1.386 0-2.618-.798-2.618-2.282v-.028c0-1.596 1.246-2.38 3.052-2.38.826 0 1.414.126 1.988.308V7.09c0-1.05-.644-1.61-1.834-1.61a4.39 4.39 0 0 0-1.638.294.951.951 0 0 1-.266.042.705.705 0 0 1-.714-.7.74.74 0 0 1 .462-.672 6.336 6.336 0 0 1 2.38-.434c1.106 0 1.932.294 2.45.826.546.532.798 1.316.798 2.282v3.64a.807.807 0 0 1-.826.812c-.49 0-.826-.336-.826-.714v-.28c-.504.602-1.274 1.078-2.408 1.078zm.476-1.232c1.12 0 1.974-.644 1.974-1.582v-.504a4.696 4.696 0 0 0-1.68-.294c-1.092 0-1.736.462-1.736 1.232v.028c0 .714.63 1.12 1.442 1.12zm8.022 1.204c-1.246 0-2.128-.546-2.128-2.17V5.564h-.28a.723.723 0 0 1-.728-.728c0-.406.322-.728.728-.728h.28v-1.26c0-.462.378-.84.854-.84.462 0 .84.378.84.84v1.26h1.33c.406 0 .742.322.742.728a.735.735 0 0 1-.742.728h-1.33V9.19c0 .658.336.924.91.924.196 0 .364-.042.42-.042.378 0 .714.308.714.7 0 .308-.21.56-.448.658a3.37 3.37 0 0 1-1.162.196zm3.248-9.422V2.12c0-.504.42-.826.966-.826s.966.322.966.826v.084c0 .504-.42.84-.966.84s-.966-.336-.966-.84zm.126 8.526V4.878c0-.476.364-.854.84-.854s.854.378.854.854v5.852c0 .476-.378.84-.854.84a.834.834 0 0 1-.84-.84zm3.906 0V4.878c0-.476.364-.854.84-.854s.854.378.854.854v.364c.476-.686 1.162-1.288 2.31-1.288 1.666 0 2.632 1.12 2.632 2.828v3.948c0 .476-.364.84-.84.84a.837.837 0 0 1-.854-.84V7.3c0-1.148-.574-1.806-1.582-1.806-.98 0-1.666.686-1.666 1.834v3.402c0 .476-.378.84-.854.84a.834.834 0 0 1-.84-.84zm15.246-5.852v5.852c0 .462-.378.84-.854.84a.845.845 0 0 1-.854-.84v-.378c-.476.7-1.162 1.302-2.31 1.302-1.666 0-2.632-1.12-2.632-2.842V4.878c0-.476.378-.854.84-.854.476 0 .854.378.854.854v3.43c0 1.148.574 1.792 1.582 1.792.98 0 1.666-.672 1.666-1.82V4.878c0-.476.378-.854.854-.854.462 0 .854.378.854.854zm2.114 5.852V4.878c0-.476.364-.854.84-.854s.854.378.854.854v.35c.476-.658 1.12-1.274 2.254-1.274 1.064 0 1.82.518 2.212 1.302.588-.784 1.372-1.302 2.492-1.302 1.61 0 2.59 1.022 2.59 2.828v3.948c0 .476-.364.84-.84.84a.837.837 0 0 1-.854-.84V7.3c0-1.176-.546-1.806-1.498-1.806-.924 0-1.582.644-1.582 1.834v3.402c0 .476-.378.84-.84.84a.837.837 0 0 1-.854-.84V7.286c0-1.148-.56-1.792-1.498-1.792s-1.582.7-1.582 1.834v3.402c0 .476-.378.84-.854.84a.834.834 0 0 1-.84-.84z"/><path fill-rule="nonzero" d="M37 21.58v-2.874a.669.669 0 1 1 1.338 0v2.828c0 .993.497 1.506 1.313 1.506.817 0 1.314-.496 1.314-1.46v-2.874a.669.669 0 0 1 1.338 0v2.82c0 1.843-1.034 2.746-2.672 2.746-1.638 0-2.631-.9-2.631-2.693zm6.674-2.862a.669.669 0 1 1 1.338 0v4.253h2.463a.616.616 0 0 1 0 1.231h-3.149a.665.665 0 0 1-.669-.669l.017-4.815zm5.935.633H48.32a.616.616 0 1 1 0-1.232h3.916a.616.616 0 1 1 0 1.232h-1.289v4.235a.669.669 0 0 1-1.338 0v-4.235zm4.28-.633a.669.669 0 0 1 1.339 0v4.852a.669.669 0 0 1-1.338 0v-4.852zm2.866.021a.665.665 0 0 1 .669-.67h.148a.685.685 0 0 1 .607.35l1.617 2.635 1.642-2.643a.657.657 0 0 1 .6-.341h.147a.665.665 0 0 1 .67.669v4.835a.665.665 0 0 1-1.33 0v-3.037l-1.191 1.81a.628.628 0 0 1-1.112 0l-1.154-1.765v3.025a.653.653 0 0 1-.66.652.644.644 0 0 1-.653-.652v-4.868zm7.216 4.589l2.11-4.798a.82.82 0 0 1 .783-.53h.078a.82.82 0 0 1 .78.53l2.122 4.79a.653.653 0 0 1 .07.27.636.636 0 0 1-.636.645.681.681 0 0 1-.645-.46l-.41-.956h-2.68l-.41 1.001a.657.657 0 0 1-.617.41.616.616 0 0 1-.62-.627.71.71 0 0 1 .075-.275zm3.763-1.687l-.833-2.007-.841 2.007h1.674zm4.006-2.29h-1.289a.616.616 0 1 1 0-1.232h3.916a.616.616 0 1 1 0 1.232h-1.31v4.235a.669.669 0 0 1-1.337 0l.02-4.235zm4.22 4.17v-4.75a.665.665 0 0 1 .669-.652h3.374c.33.002.597.27.599.6a.595.595 0 0 1-.6.59H77.29v1.232h2.335c.33.002.597.27.6.6a.595.595 0 0 1-.6.59h-2.323v1.277h2.733c.33.002.597.269.6.599a.595.595 0 0 1-.6.59H76.63a.665.665 0 0 1-.67-.676z"/></g></svg>