<svg width="38" height="15" viewBox="0 0 38 15" fill="none" xmlns="http://www.w3.org/2000/svg"><g clip-path="url(#a)"><path d="M35.127 0H2.12C.95 0 0 .95 0 2.12v10.76C0 14.05.95 15 2.12 15h33.007c1.17 0 2.12-.95 2.12-2.12V2.12c0-1.17-.95-2.12-2.12-2.12Z" fill="#8D7237"/><path d="M8.147 10.853c-.517 0-.994-.083-1.427-.246-.437-.164-.81-.4-1.13-.704a3.256 3.256 0 0 1-.74-1.073 3.381 3.381 0 0 1-.267-1.353c0-.494.09-.944.267-1.354.177-.41.427-.77.75-1.073a3.38 3.38 0 0 1 1.14-.703A4.062 4.062 0 0 1 8.177 4.1c.58 0 1.1.097 1.563.29.463.193.853.473 1.17.84l-.96.897a2.366 2.366 0 0 0-.783-.564 2.317 2.317 0 0 0-.924-.183c-.31 0-.596.05-.86.153-.26.104-.486.247-.676.434-.19.186-.337.406-.44.663a2.244 2.244 0 0 0-.154.85c0 .313.05.577.154.837.103.256.25.48.44.666.19.187.413.334.673.44.257.107.543.16.853.16.31 0 .59-.05.874-.15.283-.1.556-.263.826-.493l.86 1.093c-.36.274-.773.48-1.24.62a4.85 4.85 0 0 1-1.4.21l-.006-.01Zm1.26-1.026V7.373h1.38v2.65l-1.38-.196ZM15.357 10.853c-.517 0-.994-.083-1.427-.253a3.395 3.395 0 0 1-1.14-.71 3.187 3.187 0 0 1-.75-1.073 3.367 3.367 0 0 1-.267-1.344c0-.483.09-.94.267-1.35a3.24 3.24 0 0 1 .75-1.07c.323-.303.7-.54 1.133-.71a3.93 3.93 0 0 1 1.424-.253 4 4 0 0 1 1.423.247c.433.163.81.4 1.133.703.324.307.574.663.75 1.073.177.41.267.864.267 1.354 0 .49-.09.933-.267 1.35a3.165 3.165 0 0 1-.75 1.076c-.323.307-.7.54-1.133.704a3.972 3.972 0 0 1-1.413.246v.01Zm-.01-1.28c.293 0 .56-.05.806-.153.247-.103.464-.25.65-.44.187-.19.33-.41.434-.663a2.21 2.21 0 0 0 .153-.844c0-.31-.05-.593-.153-.843a2.06 2.06 0 0 0-.434-.663 1.967 1.967 0 0 0-.65-.44 2.058 2.058 0 0 0-.806-.154c-.294 0-.564.05-.81.154-.25.103-.467.25-.65.44-.184.19-.327.41-.43.663a2.208 2.208 0 0 0-.154.843c0 .31.05.594.154.844.103.253.246.473.43.663.183.19.4.337.65.44.25.103.52.153.81.153ZM20.06 10.743V4.21h1.52v5.3h3.257v1.233H20.06ZM25.697 10.743V4.21h2.966c.71 0 1.334.137 1.877.407.54.27.963.65 1.27 1.14.307.49.457 1.063.457 1.723 0 .66-.154 1.233-.457 1.723a3.08 3.08 0 0 1-1.27 1.14c-.54.27-1.167.407-1.877.407h-2.966v-.007Zm1.52-1.233h1.37c.436 0 .813-.083 1.133-.247.32-.163.57-.4.747-.71.176-.306.266-.666.266-1.076 0-.41-.09-.777-.266-1.084a1.79 1.79 0 0 0-.747-.703c-.32-.163-.697-.247-1.133-.247h-1.37v4.07-.003Z" fill="#fff"/></g><defs><clipPath id="a"><path fill="#fff" d="M0 0h37.247v15H0z"/></clipPath></defs></svg>
