<svg width="85" height="20" viewBox="0 0 85 20" fill="none" xmlns="http://www.w3.org/2000/svg">
<path d="M44.6 0H3C1.34315 0 0 1.34315 0 3V17C0 18.6569 1.34315 20 3 20H44.6C46.2569 20 47.6 18.6569 47.6 17V3C47.6 1.34315 46.2569 0 44.6 0Z" fill="#8D7237"/>
<path d="M12.2 12.32C12.07 12.39 11.94 12.46 11.8 12.51C11.44 12.63 11.07 12.69 10.68 12.69C10.29 12.69 9.91 12.63 9.58 12.5C9.25 12.37 8.96 12.19 8.72 11.95C8.48 11.7 8.29 11.41 8.16 11.09C8.03 10.76 7.97 10.4 7.97 10.01C7.97 9.62 8.03 9.25 8.16 8.92C8.3 8.59 8.48 8.31 8.72 8.07C8.97 7.83 9.26 7.65 9.6 7.52C9.94 7.39 10.31 7.33 10.72 7.33C11.13 7.33 11.54 7.41 11.9 7.57C12.26 7.72 12.59 7.96 12.9 8.28L14.15 7.13C13.74 6.66 13.24 6.3 12.64 6.05C12.05 5.8 11.38 5.68 10.64 5.68C9.97 5.68 9.35 5.79 8.79 6C8.23 6.21 7.74 6.51 7.33 6.9C6.91 7.29 6.59 7.75 6.36 8.28C6.14 8.81 6.02 9.39 6.02 10.02C6.02 10.65 6.13 11.23 6.36 11.76C6.59 12.29 6.91 12.75 7.32 13.14C7.74 13.53 8.22 13.84 8.77 14.05C9.33 14.26 9.94 14.36 10.61 14.36C11.21 14.36 11.81 14.27 12.41 14.08C13.02 13.9 13.55 13.63 14.01 13.29V9.88H12.23V12.33L12.2 12.32Z" fill="white"/>
<path d="M19.87 14.34C19.21 14.34 18.59 14.23 18.02 14.02C17.46 13.8 16.97 13.5 16.56 13.11C16.15 12.72 15.83 12.26 15.6 11.73C15.38 11.2 15.26 10.63 15.26 10C15.26 9.37 15.37 8.8 15.6 8.27C15.83 7.74 16.16 7.28 16.57 6.89C16.99 6.5 17.47 6.19 18.03 5.98C18.59 5.77 19.2 5.66 19.85 5.66C20.5 5.66 21.12 5.77 21.67 5.98C22.23 6.2 22.71 6.5 23.12 6.89C23.54 7.28 23.86 7.74 24.09 8.27C24.32 8.79 24.44 9.37 24.44 10C24.44 10.63 24.32 11.2 24.09 11.74C23.86 12.27 23.53 12.73 23.12 13.12C22.71 13.5 22.23 13.8 21.67 14.02C21.12 14.24 20.51 14.34 19.86 14.34H19.87ZM19.85 12.69C20.23 12.69 20.57 12.63 20.88 12.5C21.2 12.37 21.48 12.19 21.72 11.95C21.96 11.71 22.14 11.43 22.27 11.1C22.41 10.77 22.47 10.41 22.47 10.01C22.47 9.61 22.4 9.25 22.27 8.92C22.14 8.59 21.96 8.31 21.72 8.07C21.49 7.83 21.21 7.65 20.89 7.52C20.57 7.39 20.22 7.33 19.85 7.33C19.48 7.33 19.13 7.39 18.81 7.52C18.5 7.65 18.22 7.83 17.98 8.07C17.74 8.31 17.55 8.59 17.42 8.92C17.29 9.25 17.23 9.61 17.23 10.01C17.23 10.41 17.29 10.77 17.42 11.1C17.56 11.43 17.74 11.71 17.97 11.95C18.21 12.19 18.49 12.37 18.81 12.5C19.13 12.63 19.48 12.69 19.85 12.69Z" fill="white"/>
<path d="M25.91 14.2V5.8H27.85V12.62H32.06V14.2H25.9H25.91Z" fill="white"/>
<path d="M33.15 14.2V5.8H36.97C37.88 5.8 38.69 5.98 39.38 6.33C40.08 6.67 40.62 7.16 41.01 7.78C41.4 8.4 41.6 9.14 41.6 10C41.6 10.86 41.4 11.59 41.01 12.22C40.62 12.84 40.07 13.33 39.38 13.68C38.68 14.02 37.88 14.2 36.97 14.2H33.15ZM35.1 12.6H36.88C37.44 12.6 37.92 12.5 38.33 12.29C38.75 12.07 39.07 11.77 39.29 11.38C39.52 10.99 39.64 10.53 39.64 10C39.64 9.47 39.52 9 39.29 8.62C39.07 8.23 38.75 7.93 38.33 7.72C37.92 7.5 37.44 7.4 36.88 7.4H35.1V12.61V12.6Z" fill="white"/>
<path d="M81.6 18H54.6C52.95 18 51.6 16.65 51.6 15V5C51.6 3.35 52.95 2 54.6 2H81.6C83.25 2 84.6 3.35 84.6 5V15C84.6 16.65 83.25 18 81.6 18ZM54.6 3C53.5 3 52.6 3.9 52.6 5V15C52.6 16.1 53.5 17 54.6 17H81.6C82.7 17 83.6 16.1 83.6 15V5C83.6 3.9 82.7 3 81.6 3H54.6Z" fill="#0800B9"/>
<path d="M60.41 13.08C59.96 13.08 59.55 12.97 59.19 12.76C58.83 12.55 58.54 12.27 58.33 11.91C58.12 11.55 58.02 11.15 58.02 10.7C58.02 10.25 58.12 9.87 58.33 9.51C58.53 9.15 58.81 8.86 59.16 8.65C59.51 8.43 59.9 8.33 60.32 8.33C60.74 8.33 61.12 8.44 61.45 8.65C61.78 8.86 62.04 9.15 62.23 9.51C62.43 9.87 62.53 10.28 62.53 10.73V10.98H58.92C58.97 11.23 59.06 11.46 59.2 11.66C59.34 11.86 59.52 12.01 59.74 12.13C59.96 12.24 60.2 12.3 60.46 12.3C60.68 12.3 60.9 12.27 61.1 12.2C61.31 12.13 61.48 12.03 61.62 11.89L62.2 12.46C61.93 12.66 61.65 12.82 61.36 12.92C61.08 13.02 60.77 13.06 60.42 13.06L60.41 13.08ZM58.91 10.33H61.62C61.58 10.09 61.5 9.88 61.37 9.7C61.24 9.51 61.09 9.37 60.89 9.27C60.7 9.16 60.5 9.11 60.28 9.11C60.06 9.11 59.84 9.16 59.65 9.26C59.46 9.36 59.3 9.51 59.16 9.69C59.03 9.87 58.95 10.08 58.91 10.33ZM62.53 13L64.31 10.65L62.6 8.42H63.65L64.83 9.99L66.01 8.42H67.03L65.34 10.64L67.14 13H66.09L64.82 11.31L63.55 13H62.53ZM69.57 13.08C69.13 13.08 68.79 12.98 68.55 12.77C68.32 12.56 68.2 12.26 68.2 11.86V9.17H67.23V8.41H68.2V7.24L69.09 7.02V8.41H70.44V9.17H69.09V11.65C69.09 11.88 69.14 12.05 69.24 12.15C69.35 12.25 69.52 12.29 69.76 12.29C69.89 12.29 70 12.29 70.09 12.26C70.19 12.24 70.3 12.21 70.41 12.18V12.94C70.29 12.98 70.15 13.01 69.99 13.03C69.83 13.05 69.69 13.07 69.56 13.07L69.57 13.08ZM71.11 8.42H72.01V9.01C72.15 8.79 72.33 8.63 72.54 8.51C72.76 8.38 73 8.32 73.27 8.32C73.46 8.32 73.61 8.35 73.73 8.4V9.21C73.65 9.17 73.56 9.15 73.47 9.14C73.38 9.12 73.29 9.11 73.2 9.11C72.94 9.11 72.7 9.18 72.5 9.33C72.3 9.47 72.13 9.67 72.01 9.94V13.01H71.11V8.42ZM75.71 13.08C75.38 13.08 75.09 13.02 74.84 12.91C74.59 12.79 74.39 12.63 74.25 12.42C74.11 12.21 74.03 11.97 74.03 11.69C74.03 11.26 74.2 10.92 74.53 10.67C74.86 10.42 75.31 10.29 75.89 10.29C76.34 10.29 76.76 10.38 77.14 10.55V10.06C77.14 9.73 77.04 9.48 76.85 9.32C76.66 9.16 76.39 9.08 76.02 9.08C75.81 9.08 75.59 9.11 75.36 9.18C75.13 9.24 74.88 9.34 74.6 9.47L74.27 8.79C74.62 8.63 74.94 8.51 75.24 8.44C75.54 8.36 75.84 8.32 76.15 8.32C76.74 8.32 77.2 8.46 77.53 8.74C77.86 9.02 78.02 9.42 78.02 9.95V12.99H77.14V12.59C76.94 12.75 76.72 12.87 76.48 12.95C76.25 13.03 75.99 13.07 75.72 13.07L75.71 13.08ZM74.89 11.67C74.89 11.89 74.98 12.07 75.17 12.21C75.36 12.34 75.61 12.41 75.92 12.41C76.16 12.41 76.38 12.38 76.58 12.31C76.78 12.24 76.97 12.13 77.14 11.98V11.21C76.97 11.11 76.78 11.04 76.59 10.99C76.4 10.94 76.19 10.92 75.96 10.92C75.63 10.92 75.37 10.99 75.18 11.13C74.99 11.26 74.9 11.44 74.9 11.68L74.89 11.67Z" fill="#0800B9"/>
</svg>
