<svg xmlns="http://www.w3.org/2000/svg" width="24" height="24" fill="none"><path fill="#FFF400" d="M20 0H4a4 4 0 0 0-4 4v16a4 4 0 0 0 4 4h16a4 4 0 0 0 4-4V4a4 4 0 0 0-4-4"/><path fill="#272425" d="M15.822 13.046c-.155-.167-.065-.496.019-.876l.27-1.276h1.109l.2-.947H16.31l.2-.947h-1.05l-.683 3.26c-.103.49-.142.87.07 1.282.194.38.864.748 1.708.516l.187-.883c-.58.07-.806-.006-.921-.129M6.962 9l-.502 2.352H4.624L5.12 9H4.07L3 14.051h1.057l.367-1.752H6.26l-.374 1.752H6.93L8 9zm6.031 1.302c-.367.309-.573.708-.709 1.346l-.509 2.403h1.05l.42-1.99c.096-.464.173-.76.347-.941.239-.245.586-.258 1.005-.226l.2-.947c-.735-.187-1.379 0-1.804.355m8.17-.355h-3.267l-.2.947h1.895l-2.371 2.242-.194.915h3.267l.2-.947h-1.907l2.383-2.255zm-11.03-.07c-.355 0-.838.109-1.309.482-1.076.845-1.604 3.77.696 3.77.593 0 1.257-.187 1.72-.542l-.412-.708c-.348.27-2.107.857-1.92-.574h2.738s.348-1.147-.154-1.836c-.425-.586-1.212-.593-1.36-.593m.682 1.565H9.134c.058-.226.418-.786 1.076-.728.715.064.605.728.605.728M21.44 13.04c-.31 0-.6.245-.664.548l-.013.116c0 .244.174.425.438.425.303 0 .593-.251.657-.548l.013-.11a.413.413 0 0 0-.432-.431m.347.528a.64.64 0 0 1-.586.49c-.232 0-.361-.142-.361-.354l.006-.097c.052-.258.323-.49.58-.49.232.007.361.148.368.355zm-.393-.245h-.232l-.11.522h.117l.032-.167h.09l.077.167h.136l-.09-.187a.22.22 0 0 0 .148-.16c.025-.11-.046-.175-.168-.175m.052.18a.1.1 0 0 1-.103.078h-.116l.032-.154h.116c.051 0 .077.025.07.077"/></svg>