<svg xmlns="http://www.w3.org/2000/svg" width="21" height="24" fill="none"><path fill="#FFF0BE" d="M10.49 23.741a17.7 17.7 0 0 1-3.195-1.77c-1.036-.777-2.029-1.64-2.892-2.59a20.6 20.6 0 0 1-4.187-6.733C1.338 8.72 1.38 5.568.346 2.115 1.898 1.511 3.452.993 5.093.691 8.634 0 12.302 0 15.842.69c1.64.302 3.194.82 4.748 1.424-1.036 3.454-.993 6.605.13 10.533a20.6 20.6 0 0 1-4.188 6.733c-.863.95-1.856 1.813-2.892 2.59-.992.691-2.029 1.295-3.15 1.77"/><path fill="#EC2127" d="M13.684 22.187c3.323-2.374 5.827-5.698 7.251-9.496-.95-3.238-1.165-5.957-.56-8.763l-.13-.345-2.202-.734-.216.173c-.518 2.892-.345 5.913.475 8.762-2.072 4.835-5.698 7.727-8.244 8.85v.388l3.021 1.338z"/><path fill="#0A72BA" d="M10.49 0C7.252 0 4.058.561 1.037 1.64l-.087.173c.561 1.51.907 3.108.993 4.748.086 1.856-.086 3.712-.604 5.525v.043l.043.044q.388.84.906 1.683c.346.561.691 1.08 1.123 1.554q.582.777 1.295 1.424c.474.475.95.907 1.467 1.296.518.431 1.08.82 1.64 1.208.562.389 1.166.734 1.814 1.08l.345.172h.172v-.086l.389-.173c-2.504-1.252-5.87-4.1-7.813-8.676.82-2.85.95-5.828.475-8.763 2.374-.69 4.834-1.079 7.338-1.079 3.41 0 6.777.647 9.885 1.986.13-.648.302-1.252.475-1.9C17.569.691 14.029 0 10.49 0"/><path fill="#FEC214" d="M13.684 22.187C7.899 20.072 3.669 16.748 1.51 12.173c1.079-4.36.647-7.08-.475-10.49-.302.13-.648.26-.95.39C1.21 5.567 1.166 8.762 0 12.732 1.9 17.829 5.914 22.188 10.49 24c1.121-.518 2.2-1.079 3.194-1.813"/><path fill="#000" d="M8.677 9.324c.863-.173 1.51-.518 1.51-1.511 0-1.252-.992-1.813-2.2-1.813H4.618v.69c.432 0 .604.13.604.691v4.921c0 .216.173.389.389.389h2.59c1.64 0 2.245-.648 2.245-1.684-.044-1.036-.605-1.597-1.77-1.683M6.95 6.734h.389c.69 0 .95.259.95 1.079 0 .906-.26 1.08-.907 1.08H6.95zm.561 5.18h-.56V9.669h.647c.647 0 .95.345.95 1.122 0 .907-.346 1.123-1.037 1.123m8.85-5.612.085 1.511h-.82c-.215-.82-.259-1.122-.906-1.122h-.26v5.957h-1.769V6.734h-.259c-.647 0-.69.302-.906 1.122h-.82l.086-1.51c0-.216.172-.346.388-.346h4.835c.216 0 .345.173.388.345z"/></svg>