<svg xmlns="http://www.w3.org/2000/svg" width="318" height="49" viewBox="0 0 318 49" fill="none"><path fill="#123274" d="M313.145 19.454a13.34 13.34 0 0 1 3.79 8.433c.517 7.313-4.967 13.654-12.241 14.173-3.42.243-6.629-.86-9.113-2.838l-.016.016a13.15 13.15 0 0 0 9.919 3.535c7.274-.519 12.758-6.86 12.242-14.157-.242-3.697-1.984-6.924-4.581-9.162M289.758 34.551c-.419.244-.516.584-.29 1.136.193.502.516.713.838.583.275-.097.307-.34.194-.94l-.048-.227c-.113-.584-.129-.843-.065-1.103a.76.76 0 0 1 .484-.568c.597-.243 1.161.13 1.5.973.371.908.161 1.606-.532 1.898l-.178-.454c.5-.211.613-.681.355-1.346-.21-.535-.564-.779-.919-.633-.291.114-.355.39-.258 1.006l.032.26.032.226c.081.454.081.616.049.811a.72.72 0 0 1-.468.519c-.565.227-1.097-.114-1.403-.86-.323-.827-.146-1.443.484-1.718zM289.387 29.751l2-1.686.016.632-1.693 1.411.548.616 1.194-.032.016.486-3.403.081-.017-.486 1.339-.032h.355l-.113-.13-.113-.114-1.5-1.637-.016-.65zM290.887 24.465l1.307.47-.162.47-1.306-.47-2.355.714.194-.568 1.451-.405.178-.049c.064-.016.112-.032.241-.065-.112-.13-.145-.162-.258-.34l-.903-1.233.194-.535zM293.194 18.173l-.726.892 2.145 1.767-.516.633-2.145-1.768-.71.876-.484-.405 1.952-2.4zM297.79 14.93l-1.709 1.005.371.633 1.58-.925.291.503-1.581.924.419.73 1.758-1.038.323.552-2.452 1.443-1.725-2.952 2.419-1.427zM304.387 16.26l-.887.064-.435-.746-1.371.227-.194.844-.839.227.887-3.746.839-.13zm-1.952-1.768c-.193-.308-.258-.454-.37-.697a8 8 0 0 1-.146.778l-.145.649.984-.162zM309.839 17.362l-.71-.275.274-1.022c.032-.114.065-.276.129-.487.049-.21.113-.373.145-.502.049-.13.081-.276.129-.422l.081-.243c-.193.34-.274.47-.468.746a3 3 0 0 1-.209.308l-.968 1.362-.613-.162-.194-1.638c-.016-.081-.016-.195-.032-.373-.016-.21-.016-.373-.032-.486v-.422l-.081.422c-.096.454-.145.648-.274 1.183l-.29 1.103-.758-.114.855-3.34 1.145.227.161 1.59c.048.372.048.68.032 1.118.129-.26.178-.34.323-.567.097-.163.177-.292.258-.406l.903-1.297 1.081.373z"/><path fill="#123274" d="M303.339 23.946c-.42.357-1.226 1.151-2.016 1.913l-.904.86a12.4 12.4 0 0 0-2.193-.195c-1.661 0-3.178.454-3.871 1.168-.258.276-.403.567-.387.876.016.81.935 1.216 1.209 1.313 1.468.551 2.71.39 4-.519.71-.502 1.581-1.313 2.258-1.962.533.114 1.113.276 1.759.47l.596.179c-.758.762-1.548 1.556-2.274 2.189l-.064.049c-1.017.891-1.742 1.54-2.791 1.783-.742.162-1.274 0-1.435-.097-.016 0-.032.032-.032.032.612.503 1.193.795 2.177.714.952-.081 2.048-.681 3.161-1.735l1.516-1.492 1.065-1.054 2.145.632c.016 0 .032.017.032.017-.016 0-1.322 1.297-1.322 1.297l-1.145 1.135c-1.162 1.135-1.807 1.735-2.484 2.221-1.129.811-2.081 1.217-2.936 1.282-.435.032-1.08 0-1.597-.308-.016 0-.048.016-.048.016.581.486 1.274 1.086 2.5 1.054 1.371-.049 2.597-.697 4.484-2.449.871-.794 1.726-1.686 2.484-2.48l1.403-1.428c.919.21 1.758.292 2.677.276 1.339-.033 2.468-.665 2.484-1.411.016-.535-.435-.827-.693-1.006a3 3 0 0 0-1.645-.486c-1 0-2.049.438-3.097 1.313l-.71.633c.016 0-.258-.065-.258-.065l-1.952-.551c.581-.535 1.065-1.006 1.517-1.395 1.064-.957 2.258-1.346 2.951-1.395.5-.032 1.387.017 1.742.276.016 0 .032-.032.032-.032-.967-.827-1.79-.94-2.483-.94-.678 0-1.775.21-3.097 1.248-.549.422-1.242 1.135-1.984 1.881l-.984-.308-.242-.081-1.048-.325c.016 0 .596-.567.596-.567.71-.697 1.371-1.346 1.888-1.784 1.887-1.59 3.064-1.8 3.887-1.8.903 0 1.613.178 2.129.551.016 0 .032-.032.032-.032-1.048-.957-1.806-1.265-3.129-1.281-1.177-.016-2.565.616-3.903 1.8m-7.387 5.66c-.613-.05-.904-.293-.904-.763 0-.065.049-1.556 3.452-1.735a9.6 9.6 0 0 1 1.484.032c-.032 0-.387.341-.387.341l-.21.195c-.822.762-2.193 2.027-3.435 1.93m13.822-1.217c.984-.665 1.807-1.021 2.307-1.005.306.016.661.097.661.47 0 .39-.355.714-1.081.957-.629.227-1.58.276-2.629.162.291-.243.533-.438.742-.584M311.247 14.66c.143-.325.5-.469.821-.325.321.145.464.506.321.813-.143.325-.5.47-.821.325a.613.613 0 0 1-.321-.812m1.035.506c.143-.252.036-.578-.214-.722a.52.52 0 0 0-.714.198c-.143.253-.036.579.214.723s.571.054.714-.199m-.375.181-.107-.054-.036-.38-.107-.054-.142.271-.09-.054.322-.596.249.144c.107.055.197.145.125.271-.071.127-.178.109-.267.055zm-.071-.506c.071.036.196.127.25.036.035-.054-.036-.126-.107-.144l-.161-.09-.089.162z"/><path fill="red" d="m177.831 19.6-8.44 12.398c-1.111 1.631-2.913 3.202-5.091 3.37v.38h9.388c2.492 0 4.309-1.646 5.541-3.461l8.665-12.687z"/><path fill="#051039" d="M22.4 35.749V20.962h4.25V35.75zm97.998 0-10.209-8.781v8.78H106.6V20.963h3.048l10.074 8.643v-8.643h3.588V35.75zm22.205-10.017c-1.921-.96-4.083-1.737-6.951-1.737-3.423 0-5.976 1.799-5.976 4.299 0 2.56 2.598 4.375 5.946 4.375 2.764 0 4.954-.716 7.116-1.983v3.66c-1.907.96-4.443 1.676-7.296 1.676-5.825 0-10.406-3.018-10.406-7.728 0-4.635 4.67-7.607 10.39-7.607 2.702 0 5.149.518 7.177 1.357zM50.297 35.75V20.962H64.5v3.17h-9.955v3.674h9.73v3.172h-9.73v4.771zm94.874 0V20.962h14.743v3.17h-10.495v2.562h10.33v3.17h-10.33v2.714h10.45v3.17zm-65.912-5.55 5.87 5.55h-4.534c-1.006 0-1.666-.32-2.192-.84l-3.994-3.932a.48.48 0 0 0-.345-.122h-2.717v4.894h-4.25V20.962h9.205c4.774 0 6.786 2.18 6.786 4.588 0 2.805-2.463 4.146-3.829 4.65m-3.392-2.438c1.68 0 2.491-.87 2.491-1.845 0-.976-.72-1.783-2.492-1.783h-4.52v3.628zM42.789 30.2l5.87 5.549h-4.533c-1.006 0-1.667-.32-2.192-.84l-3.994-3.932a.48.48 0 0 0-.345-.122h-2.717v4.894h-4.25V20.962h9.204c4.774 0 6.786 2.18 6.786 4.588 0 2.805-2.462 4.146-3.829 4.65m-3.392-2.44c1.681 0 2.492-.868 2.492-1.844s-.72-1.783-2.492-1.783h-4.52v3.628zM15.749 35.75 13.888 32.5H5.75L4.053 35.75H0l8.108-14.772h3.694L20.99 35.75zm-8.377-6.327h4.744L9.654 24.91zm93.222 6.327L98.777 32.5H90.85l-1.636 3.248h-3.95l7.898-14.772h3.588l8.934 14.772zm-8.152-6.327h4.624l-2.403-4.512z"/><path fill="#00A1DE" d="M233 5.698h1.901v-1.9h1.901V1.9h-1.901V0H233v1.9h-1.901v1.899H233zm12.297-.475a3.32 3.32 0 0 0-3.327 3.324 3.32 3.32 0 0 0 3.327 3.324 3.32 3.32 0 0 0 3.327-3.324 3.32 3.32 0 0 0-3.327-3.324M222.573 16.62h22.724v-3.798h-22.724zm3.327-8.072c0-1.84-1.485-3.324-3.297-3.324a3.32 3.32 0 0 0-3.327 3.324 3.32 3.32 0 0 0 3.327 3.324c1.812 0 3.297-1.484 3.297-3.324m8.525 0a3.32 3.32 0 0 0 3.327 3.324c1.842 0 3.298-1.484 3.298-3.324s-1.486-3.324-3.298-3.324a3.32 3.32 0 0 0-3.327 3.324m-4.277 3.324c1.812 0 3.327-1.484 3.327-3.324a3.32 3.32 0 0 0-3.327-3.324 3.32 3.32 0 0 0-3.327 3.324c.03 1.84 1.485 3.324 3.327 3.324m24.625 8.547-2.852 8.547-2.851-8.547h-9.476v15.165h5.674V24.187l3.802 11.366h5.673l3.773-11.366v11.366h5.673V20.388h-9.416zm-26.526 0h-5.674v15.165h15.15v-3.828h-9.476zm-7.575 0h-5.673l-5.704 5.698v-5.698h-5.673v15.165h5.673v-5.698l5.704 5.698h7.574l-8.525-8.547z"/><path fill="#123274" d="M280 9h1v39.5h-1z"/></svg>
