<svg xmlns="http://www.w3.org/2000/svg" width="103" height="24" viewBox="0 0 103 24" fill="none"><path fill="#CB2026" d="M31.273 3.522c1.643 0 2.975-.789 2.975-1.761C34.248.788 32.916 0 31.273 0c-1.644 0-2.976.788-2.976 1.76 0 .973 1.332 1.762 2.976 1.762ZM81.34 3.522c1.643 0 2.975-.788 2.975-1.761C84.315.788 82.983 0 81.339 0c-1.643 0-2.977.788-2.977 1.76.002.972 1.334 1.762 2.977 1.762ZM34.86 6.57H28.1V24h6.759V6.57ZM84.304 6.57H77.19V24h7.114V6.57Z"/><path fill="#CB2026" d="M101.023 22.221v-4.98c0-.711-.356-2.845-1.779-2.845 0 0 1.779-.712 1.779-2.135V8.704c0-1.542-1.423-3.557-3.202-3.557h-44.82c-1.067 0-2.845.86-2.845 2.49v1.779c0 .414-.246.98-.712 1.067-.8.147-1.067-.77-1.245-1.067-.178-.297-1.837-2.61-1.956-2.846-.12-.237-1.364-1.409-2.846-1.409l-22.44-.014c-2.104 0-2.104 2.371-2.104 3.202v12.805c0 .386-.356 1.067-1.067 1.067-.712 0-1.068-.711-1.068-1.067V5.161h-6.402v15.993c0 .356-.356 1.067-1.067 1.067-.712 0-1.068-.711-1.068-1.067V8.35c0-.712 0-3.202-2.134-3.202H0v.356s1.779-.237 1.779 1.423V19.73c0 .712.711 4.269 3.912 4.269h15.652c3.201 0 3.913-3.557 3.913-4.269V7.637c0-1.764 1.422-1.778 1.422-1.778h9.25c.207 0 1.422.014 1.422 1.778v12.094c0 .712.711 3.913-1.423 3.913V24h7.47v-8.181l-5.544-9.946 1.423-.03L50.156 24h6.758V7.637c0-1.067.356-1.764 1.423-1.764 1.067 0 5.691-.014 7.114-.014s2.846 1.186 2.846 2.845c0 1.66.014 4.625.014 4.98 0 .356-.014 1.067-.903 1.067-.89 0-.89-1.067-.89-1.067v-4.98c0-.711-1.067-2.134-2.134-2.134H59.76v7.114l-1.423.712v5.335l1.423.712V24h6.758v-3.557s0-1.067.89-1.067c.889 0 .903 1.067.903 1.067v.711c0 1.067.697 2.846 2.832 2.846h5.335v-.356s-1.422.356-1.422-1.423V11.55c0-1.898-1.082-5.691-3.913-5.691l13.161.014c.356 0 1.779-.014 1.779 1.764V24h6.403v-6.403c0-.83 0-1.423.859-1.423.92 0 .92.712.92 1.423v3.557c0 1.067.71 2.846 2.49 2.846h5.691v-.356s-1.423 0-1.423-1.423Zm-6.759-9.426a.89.89 0 0 1-1.778 0V7.459a.89.89 0 0 1 1.778 0v5.336Z"/></svg>
