<svg width="124" height="24" viewBox="0 0 124 24" fill="none" xmlns="http://www.w3.org/2000/svg">
<path d="M14.3287 20.0683C14.1671 20.1661 13.9425 20.3754 13.7763 20.5115C12.5321 21.5349 10.9886 22.6098 9.49197 23.2693C7.45832 24.1641 4.93145 24.3688 3.0663 23.1277C1.43661 22.0428 0.584059 20.5308 0.194718 17.9431C-0.173079 15.4963 -0.0145721 12.9294 0.62561 10.678C1.7567 6.69224 4.58058 2.9858 7.42215 1.39304C9.22497 0.381987 11.5464 -0.228186 13.9932 0.0803634C15.2444 0.2381 16.0531 0.612053 16.8971 1.19606C17.8759 1.87472 18.1898 2.3387 18.91 3.16893C19.0431 3.08968 19.167 2.96965 19.3132 2.85346C20.185 2.15634 21.4361 1.43921 22.4633 1.01063C23.9945 0.371985 25.2695 0.0134213 27.1493 0.0118824C28.8513 0.0103435 30.5687 0.373524 31.7114 1.17144C32.8271 1.95089 33.4919 3.13662 33.5434 5.05485C33.6334 8.37656 30.4218 9.99779 28.3442 11.3089C28.1265 11.4459 21.5777 15.6025 21.3053 15.721L21.3146 13.0979C21.4469 12.9702 21.7485 12.7886 21.9055 12.6824C23.5552 11.5705 26.8892 9.42455 27.8441 7.96183C28.3535 7.18161 28.6805 6.01128 28.5843 4.84402C28.4958 3.77603 28.0226 2.855 26.8938 2.61262C23.756 1.94089 21.4723 4.75169 20.2227 7.43399C18.6677 10.7696 17.9182 17.5799 20.6667 19.8491C21.4554 20.5 22.5826 20.6385 23.8083 20.4384C26.1182 20.0622 28.3258 18.384 30.1155 17.0575C30.3602 16.8759 31.0265 16.3327 31.2304 16.2519L32.4031 18.1116C32.3131 18.2501 31.866 18.641 31.7052 18.7711C31.6213 18.8388 31.579 18.8942 31.4921 18.968C30.5527 19.7747 29.5832 20.5457 28.5859 21.2795C27.3093 22.2305 25.9005 23.1492 23.9969 23.6547C22.1232 24.1534 19.6387 24.131 17.8967 23.4624C16.6992 23.0148 15.672 22.2035 14.9589 21.1425L14.3287 20.0683ZM13.4392 17.6623C13.3546 16.3927 13.1715 15.961 13.2777 14.396C13.5408 10.5287 14.9412 8.6451 15.4113 6.07514C15.873 3.55597 14.9104 2.1094 12.2758 2.61416C10.4345 2.96657 8.98414 4.43775 8.17621 5.48267C7.17978 6.77072 6.38186 8.19113 5.9148 10.1609C5.46544 12.0591 5.25077 14.5391 5.63241 16.5089C5.96866 18.2478 6.85584 20.4546 8.90642 20.0914C9.79898 19.9337 11.4225 18.8565 12.3443 18.3202C12.6144 18.1632 13.22 17.8485 13.4392 17.6623ZM36.8413 19.3458C36.8536 19.1004 36.9898 18.6841 37.0529 18.4294L39.9268 6.92C40.0291 6.50296 40.2268 5.50267 40.3769 5.15026L45.2452 5.14949C45.3575 5.17873 45.3891 5.45804 45.4145 5.55884L45.5299 6.00127C45.613 6.31136 45.6853 6.59144 45.7623 6.88922C45.9123 7.474 46.0754 8.08956 46.2285 8.66126C46.4301 9.41532 48.9939 19.028 49.0078 19.3466L45.2783 19.3474L44.6435 16.6466L40.8593 16.6481L40.2207 19.3466H36.8413V19.3458ZM41.3079 14.0336L44.1895 14.0436C44.118 13.5634 43.9571 12.9848 43.8479 12.5231L42.9799 8.76052C42.9476 8.6174 42.8938 8.07725 42.7468 8.04724C42.5991 8.018 42.6098 8.18574 42.5814 8.31809C42.5544 8.44812 42.5252 8.56739 42.499 8.68819L41.6465 12.5031C41.5372 12.9825 41.3849 13.5503 41.3079 14.0336ZM106.335 9.86699C106.527 9.74541 106.85 8.7459 108.166 8.35656C109.077 8.08725 110.191 8.2773 110.897 8.69204C112.307 9.52073 112.897 11.0804 112.974 13.2518C113.051 15.3909 112.724 17.3299 111.574 18.4856C110.608 19.4559 109.226 19.8152 107.783 19.4566C107.272 19.3297 107.049 19.125 106.66 18.9249L106.643 22.8753L103.598 22.8707L103.608 8.47428L105.978 8.48352C106.057 8.74667 106.243 9.73233 106.335 9.86699ZM106.666 16.3642C106.887 16.4873 107.05 16.6712 107.371 16.772C108.328 17.0721 109.199 16.7736 109.577 15.8025C109.937 14.8792 109.965 12.7193 109.564 11.8306C108.856 10.2633 106.717 11.2582 106.66 11.7868L106.666 16.3642ZM96.4513 8.25576C99.7653 7.95029 101.745 10.2479 101.934 13.3264C102.139 16.6574 100.55 19.2635 97.5254 19.522C94.1922 19.8067 92.1624 17.5676 91.9885 14.4467C91.8192 11.3997 93.1565 8.55969 96.4513 8.25576ZM96.7267 10.9227C95.3702 11.1289 95.0109 12.6232 95.0655 14.1459C95.117 15.5717 95.6387 17.066 97.2153 16.8628C98.608 16.6843 98.8804 15.1254 98.8535 13.6219C98.8273 12.2115 98.2579 10.6903 96.7267 10.9227ZM63.7889 19.3381L71.942 19.3466L71.9451 16.7528L67.0983 16.7436V13.4395L71.4549 13.4272L71.4596 10.9111L67.1022 10.8934L67.1037 7.71869L71.8912 7.70945L71.9043 5.14949H63.7889V19.3381ZM114.676 9.05753C114.839 8.89902 116.283 8.5343 116.623 8.45813C117.381 8.28742 118.157 8.21297 118.933 8.23652C123.351 8.35656 123.105 10.915 123.105 14.2582C123.105 15.1831 123.152 18.7349 123.095 19.3466L120.857 19.3458L120.493 18.0039C120.386 18.0378 120.243 18.2501 120.166 18.344C120.049 18.484 120.001 18.5518 119.859 18.671C119.02 19.3758 118.161 19.7244 116.899 19.552C113.635 19.1065 113.337 14.9261 115.655 13.3903C116.919 12.5524 118.349 12.6332 120.029 12.5955C120.39 10.3287 118.1 10.4902 116.638 10.8273L115.173 11.2412L114.676 9.05753ZM120.039 16.355L120.043 14.6968C118.949 14.6476 116.885 14.7276 117.189 16.3842C117.304 17.0098 117.88 17.3076 118.602 17.1821C119.228 17.0744 119.689 16.6435 120.039 16.355ZM80.1374 17.9347L80.4798 19.3389L82.8089 19.3466L82.8166 8.47659L79.7458 8.47428C79.6534 9.05368 79.7935 15.4247 79.7227 15.8233C79.6719 16.1126 79.391 16.4389 79.2302 16.562C78.9925 16.7466 78.6947 16.8705 78.3169 16.8782C76.6672 16.9105 76.8988 14.8176 76.8988 13.3972C76.8988 13.0179 76.9265 8.73744 76.8865 8.48044L73.831 8.47351C73.7687 8.76283 73.8118 12.5778 73.8118 13.2102C73.8118 14.6483 73.6933 16.4058 74.158 17.6577C74.9336 19.7506 77.5613 19.976 78.9078 19.0804C79.1433 18.9234 79.3618 18.7418 79.5611 18.541C79.6734 18.4271 79.7381 18.3448 79.8442 18.2271C79.9558 18.1047 80.0112 17.9654 80.1374 17.9347ZM58.3997 10.2571L57.9904 8.47813L55.8636 8.47582V19.3428L58.9037 19.3466L58.9091 11.6983L61.8599 11.4113L61.8653 8.23345C60.9612 8.16574 60.2125 8.2673 59.5923 8.68742C59.3046 8.88132 59.0999 9.09369 58.8998 9.37531C58.6721 9.69771 58.4859 10.2063 58.3997 10.2571ZM87.7927 10.2579C87.6357 9.97702 87.4718 8.66819 87.3595 8.52199C87.2894 8.43043 86.4954 8.47428 86.3438 8.47428C85.9914 8.47428 85.5943 8.45659 85.2489 8.47967L85.2373 19.3374L88.2743 19.3474L88.2843 11.7514L91.2298 11.4097L91.2313 8.25114C90.5496 8.05263 89.4285 8.38195 88.9838 8.68511C88.045 9.32529 87.9835 10.1417 87.7927 10.2579ZM50.3651 19.3466H53.4468L53.4529 8.48044L50.3843 8.47351L50.3651 19.3466ZM51.4977 4.25924C49.4095 4.64628 49.865 7.92644 52.2957 7.47554C54.2885 7.10543 53.9746 3.80142 51.4977 4.25924Z" fill="white"/>
</svg>
