<svg width="79" height="24" viewBox="0 0 79 24" fill="none" xmlns="http://www.w3.org/2000/svg">
<path d="M32.3162 0.0273183C32.3162 0.0289904 32.3095 0.0406956 32.3034 0.0618763H32.3212C32.3212 0.0618763 22.2565 23.9861 22.2375 24H23.6171C23.6371 23.9866 33.732 0.0618763 33.732 0.0618763L32.3162 0.0273183Z" fill="white"/>
<path fill-rule="evenodd" clip-rule="evenodd" d="M32.9221 9.77992L32.6295 10.4917C32.5185 10.7297 32.727 10.9376 32.95 10.9376H34.8133C34.8428 10.9376 34.9811 11.0352 34.9555 11.0937L32.3892 17.1185C32.3213 17.2874 32.4874 17.4546 32.6451 17.4546H35.8511C36.0078 17.4546 36.2307 17.2316 36.2681 17.1034L38.7067 11.2208C38.7491 11.1048 38.9475 10.9376 39.0422 10.9376H40.6503C40.8716 10.9248 40.9925 10.7994 41.0705 10.6171L41.396 9.83343C41.4535 9.71805 41.3537 9.54414 41.1842 9.54414H33.2008C33.0865 9.54414 32.9678 9.66566 32.9221 9.77992ZM42.5677 15.9814L43.4406 14.6771H43.7081L43.9589 13.0635L41.3604 17.0594C41.0918 17.4106 40.9518 17.4552 40.541 17.4552H37.7881C37.5484 17.4552 37.4263 17.1865 37.5077 17.0594L42.4813 9.75205C42.5543 9.63667 42.7355 9.54414 42.8754 9.54414H47.3161C47.4755 9.54414 47.5998 9.63667 47.5719 9.8351L46.3484 17.0483C46.3028 17.2729 46.0374 17.4552 45.8111 17.4552H43.5186C43.2695 17.4552 43.2416 17.3426 43.2861 17.0483L43.4634 15.9814H42.5677ZM52.5226 13.8193L51.9128 15.2462L52.0126 15.2674C52.094 15.2674 52.3186 15.5344 52.1949 15.8432L51.7144 16.9652C51.6186 17.1737 51.8287 17.4552 52.0389 17.4552H54.692C54.9072 17.4552 55.1987 17.2433 55.2817 17.0483L55.5621 16.3309C55.7248 15.9229 55.5916 15.0255 55.2561 14.7468C55.746 14.7468 56.2399 14.3795 56.3781 13.9921L57.7286 10.8468C57.999 10.1601 57.5168 9.54414 56.8831 9.54414H50.4502L50.4317 9.54407C50.2893 9.54348 50.0911 9.54261 49.9597 9.84792L46.9237 17.0338C46.8373 17.2729 47.1204 17.4552 47.3423 17.4552H50.5629L53.2617 11.0418H53.8515C53.9496 11.0418 54.0343 11.2258 53.9903 11.3233L53.0516 13.5384C52.9931 13.6783 52.8236 13.8193 52.682 13.8193H52.5226ZM71.3991 9.8351L71.4694 12.9676L73.8299 9.8351C73.957 9.65785 74.1715 9.54414 74.3767 9.54414H77.9885C78.1708 9.54414 78.313 9.75205 78.2427 9.96051L75.5159 17.0193C75.4212 17.2433 75.1637 17.4552 74.929 17.4552H72.3835C72.1583 17.4552 71.7497 17.3833 71.8963 16.9897L73.0902 14.0038L70.7865 17.0483C70.5993 17.2879 70.1043 17.4958 70.0943 17.0483L69.8518 14.1582L68.6741 16.9897C68.5598 17.2567 68.2555 17.4552 67.9851 17.4552H65.2043C64.9646 17.4552 64.7417 17.2874 64.8799 16.9652L67.8988 9.82229C68.0275 9.54414 68.1981 9.54414 68.392 9.54414H71.0619C71.1762 9.54414 71.3991 9.69521 71.3991 9.8351ZM64.1926 16.5293L66.649 10.6907C66.804 10.3423 66.4534 9.54414 66.017 9.54414H59.9899C59.6394 9.54414 59.2158 9.65785 59.0742 9.96051L56.5626 15.8984C56.3357 16.458 56.8831 17.4546 57.4471 17.4546H62.759C63.2964 17.4546 63.9937 17.0193 64.1926 16.5293ZM61.9023 11.4487C61.9704 11.2681 62.181 11.0842 62.3956 11.0842H62.715C62.8259 11.0842 62.938 11.3395 62.8878 11.4487L61.156 15.5745C61.0858 15.7423 60.8645 15.8984 60.6655 15.8984H60.384C60.2714 15.8984 60.102 15.6576 60.1594 15.5344L61.9023 11.4487ZM32.3213 20.3028L32.4874 20.2689V19.3531L33.2075 20.2978L33.3568 20.2003L32.7822 19.4879C32.9077 19.4693 33.0222 19.4057 33.1043 19.309C33.188 19.2148 33.2236 19.0961 33.2236 18.9512C33.2236 18.7856 33.1712 18.6485 33.0637 18.5526C32.95 18.4518 32.8112 18.4016 32.6289 18.4016H32.3213V20.3028ZM32.4874 19.3531V18.5593H32.6161C32.756 18.5593 32.8586 18.5917 32.9338 18.668C33.0102 18.7349 33.0475 18.8341 33.0475 18.959C33.0475 19.0816 33.0102 19.1791 32.9332 19.2488C32.8586 19.3207 32.756 19.3581 32.6155 19.3581L32.4874 19.3531ZM34.2855 20.0492C34.1913 19.9578 34.1166 19.8475 34.0609 19.7176C34.0057 19.5972 33.9811 19.4684 33.9811 19.3369C33.9811 19.202 34.0051 19.0766 34.0609 18.9512C34.116 18.8213 34.1907 18.7137 34.2855 18.6245C34.4675 18.451 34.7106 18.3562 34.9621 18.3609C35.0879 18.3594 35.2128 18.3821 35.33 18.4278C35.443 18.4736 35.5462 18.5404 35.6344 18.6245C35.8318 18.8084 35.9425 19.0671 35.9393 19.3369C35.9406 19.6063 35.8302 19.8642 35.6344 20.0492C35.4529 20.2211 35.2114 20.3151 34.9616 20.3112C34.8284 20.3112 34.7057 20.29 34.5954 20.2443C34.4794 20.1986 34.3752 20.1384 34.2855 20.0492ZM34.9616 18.5153C34.7447 18.5114 34.5358 18.5966 34.3836 18.7511L34.383 18.7516C34.2303 18.906 34.1489 19.1028 34.1489 19.3369C34.1449 19.5542 34.2296 19.7637 34.3836 19.9171C34.5342 20.07 34.7409 20.1546 34.9555 20.1512C35.1728 20.1574 35.383 20.0725 35.5352 19.9171C35.6929 19.7611 35.7698 19.566 35.7698 19.3363C35.7698 19.1022 35.6929 18.906 35.5385 18.7511C35.3768 18.5917 35.1879 18.5153 34.9616 18.5153ZM36.5941 20.2739L36.7536 20.3112L37.0373 18.891L37.617 20.3112L38.2 18.891L38.4804 20.3112L38.6415 20.2739L38.2541 18.3397L37.617 19.8976L36.9849 18.3397L36.5941 20.2739ZM40.9189 20.2867L40.531 19.5208H39.6971L39.2997 20.2861L39.1431 20.2415L40.1241 18.3464L41.0784 20.2393L40.9189 20.2867ZM39.7752 19.3648H40.4513V19.3642L40.1141 18.6909L39.7752 19.3648ZM41.74 20.3062L41.9078 20.2689V18.7957L43.1686 20.3062V18.3676L43.0041 18.4016V19.872L41.74 18.3676V20.3062ZM44.0631 20.2978L44.2337 20.2689V18.3793L44.0631 18.4016V20.2978ZM46.2916 19.5208H45.4589L45.0614 20.2861L44.902 20.2415L45.8858 18.3464L46.8406 20.2393L46.6807 20.2867L46.2916 19.5208ZM45.5402 19.3648H46.2169L46.2164 19.3642L45.8808 18.6909L45.5402 19.3648ZM47.5033 20.3062L47.6661 20.2689V18.7957L48.9336 20.3062V18.3676L48.7642 18.4016V19.872L47.5033 18.3676V20.3062ZM52.2746 19.5208H51.4441L51.0417 20.2861L50.8867 20.2415L51.8677 18.3464L52.8236 20.2393L52.6642 20.2867L52.2746 19.5208ZM51.5238 19.3648H52.1999V19.3642L51.856 18.6909L51.5238 19.3648ZM53.4964 20.2978L53.6658 20.2689V18.3793L53.4964 18.4016V20.2978ZM54.5649 20.3028L54.7343 20.2683L54.7349 20.2689V19.3538L55.4529 20.2978L55.6061 20.2003L55.0275 19.4879C55.1542 19.4694 55.27 19.4059 55.3536 19.309C55.4333 19.2148 55.4723 19.0961 55.4723 18.9512C55.4723 18.7856 55.4171 18.6485 55.3096 18.5526C55.2004 18.4518 55.0571 18.4016 54.8748 18.4016H54.5649V20.3028ZM54.7349 19.3531L54.8631 19.3581C54.9985 19.3581 55.1078 19.3207 55.1825 19.2488C55.2591 19.1724 55.3 19.0671 55.2951 18.959C55.2951 18.8341 55.2561 18.7349 55.1825 18.668C55.1078 18.5917 54.9985 18.5593 54.8631 18.5593H54.7349V19.3531ZM57.9633 20.2978L58.1311 20.2689V18.5644H58.6065V18.4016H57.4895L57.4449 18.5644H57.9633V20.2978ZM59.3674 20.3028L59.5301 20.2689V19.3531L60.2536 20.2978L60.4018 20.2003L59.8266 19.4879C59.9526 19.4702 60.0676 19.4064 60.1493 19.309C60.2291 19.2148 60.2731 19.0961 60.2731 18.9512C60.2731 18.7856 60.2179 18.6485 60.1104 18.5526C60.0028 18.4518 59.8562 18.4016 59.6767 18.4016H59.3674V20.3028ZM59.5301 19.3531V18.5593H59.6605C59.7976 18.5593 59.9036 18.5917 59.9782 18.668C60.0563 18.7349 60.0942 18.8341 60.0942 18.959C60.0942 19.0816 60.0563 19.1791 59.9782 19.2488C59.9036 19.3207 59.7976 19.3581 59.6605 19.3581L59.5301 19.3531ZM62.3126 19.5208H61.4821L61.0808 20.2861L60.9247 20.2415L61.9057 18.3464L62.865 20.2393L62.7022 20.2867L62.3126 19.5208ZM61.5634 19.3648H62.2379V19.3642L61.9023 18.6909L61.5634 19.3648ZM63.5244 20.3062L63.686 20.2689V18.7957L64.9568 20.3062V18.3676L64.7918 18.4016V19.872L63.5244 18.3676V20.3062ZM65.9044 19.8753L65.7662 19.9745C65.8278 20.077 65.914 20.1624 66.017 20.2231C66.1212 20.2783 66.2322 20.3112 66.3509 20.3112C66.517 20.3112 66.6619 20.2577 66.7778 20.1518C66.8871 20.0487 66.9439 19.9171 66.9439 19.7644C66.9464 19.6548 66.9094 19.548 66.8397 19.4634C66.7695 19.3793 66.6686 19.3191 66.5287 19.2717C66.4958 19.2605 66.4506 19.246 66.3882 19.2293C66.2778 19.1953 66.1948 19.1674 66.1474 19.1418C66.1176 19.128 66.0906 19.1092 66.0677 19.0863C66.0507 19.0693 66.0359 19.0502 66.0237 19.0292C66.0101 19.0073 65.9998 18.9833 65.9927 18.9575C65.9852 18.9301 65.9813 18.9008 65.9813 18.8698C65.9798 18.7763 66.0191 18.6868 66.0889 18.6245C66.1604 18.5568 66.2557 18.52 66.3542 18.522C66.4264 18.5222 66.4977 18.5366 66.5643 18.5644C66.6397 18.6008 66.7078 18.6509 66.765 18.712L66.8787 18.5805C66.7906 18.5042 66.7193 18.4473 66.6346 18.4167C66.5532 18.3787 66.4651 18.3609 66.367 18.3609C66.22 18.3569 66.0772 18.4101 65.9685 18.5092C65.8592 18.6045 65.8068 18.7282 65.8068 18.8665C65.8025 18.9791 65.8413 19.0892 65.9156 19.1741C65.988 19.2522 66.0967 19.3168 66.25 19.3614C66.2727 19.3699 66.2962 19.3759 66.3202 19.3793C66.6195 19.4718 66.7695 19.6039 66.7695 19.7822C66.7712 19.8822 66.729 19.978 66.6541 20.0442C66.5743 20.1144 66.4713 20.1485 66.3542 20.1485C66.2636 20.1504 66.1743 20.1266 66.0967 20.0799C66.0237 20.0364 65.9601 19.9628 65.9044 19.8753ZM68.076 19.649H67.9294V20.2689L67.765 20.3028V18.4016H68.076C68.2749 18.4016 68.4361 18.4601 68.5564 18.5722C68.679 18.6875 68.7404 18.8408 68.7404 19.0247C68.7404 19.2143 68.679 19.3676 68.5564 19.4818C68.4361 19.5933 68.2749 19.649 68.076 19.649ZM68.5681 19.0247C68.5681 18.8815 68.5241 18.7672 68.4366 18.6831C68.3502 18.6017 68.2276 18.5593 68.076 18.5593H67.9294V19.493H68.076C68.2276 19.493 68.3497 19.4489 68.4361 19.3692C68.5236 19.2878 68.5681 19.1725 68.5681 19.0247ZM69.7688 20.0492C69.6696 19.9578 69.5943 19.8475 69.5436 19.7176C69.4856 19.5972 69.4578 19.4684 69.4578 19.3369C69.4578 19.202 69.485 19.0766 69.5436 18.9512C69.5943 18.8213 69.6696 18.7137 69.7688 18.6245C69.9508 18.4514 70.1936 18.3567 70.4449 18.3609C70.5681 18.3597 70.6904 18.3824 70.805 18.4278C70.9201 18.4712 71.0249 18.5382 71.1126 18.6245C71.2124 18.7114 71.2895 18.8212 71.3372 18.9445C71.4505 19.1919 71.4505 19.4763 71.3372 19.7237C71.2838 19.8508 71.2101 19.9578 71.1126 20.0492C71.0245 20.1384 70.922 20.1986 70.8066 20.2443C70.6907 20.29 70.5747 20.3112 70.4444 20.3112C70.3111 20.3112 70.1857 20.29 70.0765 20.2443C69.9628 20.1986 69.8596 20.1384 69.7688 20.0492ZM70.4444 18.5153C70.2268 18.5105 70.0171 18.5959 69.8646 18.7511V18.7516C69.7086 18.906 69.635 19.1028 69.635 19.3369C69.635 19.566 69.7086 19.7644 69.8646 19.9171C70.0213 20.0754 70.2163 20.1512 70.4416 20.1512C70.6667 20.1512 70.8584 20.0754 71.0179 19.9171C71.1712 19.7611 71.2508 19.566 71.2508 19.3369C71.256 19.1201 71.1731 18.9104 71.0212 18.7556C70.8693 18.6009 70.6612 18.5142 70.4444 18.5153ZM72.2252 20.3028L72.3896 20.2689V19.3531L73.1086 20.2978L73.2647 20.2003L72.685 19.4879C72.8121 19.4682 72.9283 19.405 73.0139 19.309C73.0902 19.2148 73.1276 19.0961 73.1276 18.9512C73.1276 18.7856 73.0757 18.6485 72.9682 18.5526C72.8573 18.4518 72.7123 18.4016 72.5362 18.4016H72.2252V20.3028ZM72.3896 19.3531V18.5593H72.5217C72.66 18.5593 72.7625 18.5917 72.836 18.668C72.9141 18.7349 72.9514 18.8341 72.9514 18.959C72.9514 19.0816 72.9141 19.1791 72.836 19.2488C72.7625 19.3207 72.66 19.3581 72.5217 19.3581L72.3896 19.3531ZM74.3198 20.2978L74.4865 20.2689V18.5644H74.9636V18.4016H73.8394L73.802 18.5644H74.3198V20.2978ZM22.0859 0.0875171L22.2476 0.0295466V0.0289852L22.4053 0H29.9814C30.041 0.00563035 30.1006 0.0115669 30.1602 0.0178436L30.2957 0.0763584L30.4127 0.15105C30.4127 0.15105 30.4399 0.18376 30.4639 0.213817C30.4817 0.236254 30.4977 0.25721 30.4991 0.261973C30.4991 0.261973 30.5432 0.388494 30.5432 0.391845L30.5566 0.534543L30.5432 0.679452L30.483 0.855031L21.0721 23.3233C21.0721 23.3233 20.955 23.4794 20.955 23.4811C20.955 23.4811 20.8279 23.6227 20.8229 23.6243L20.6668 23.7397L20.494 23.8406L20.3179 23.9247C20.3179 23.9247 20.251 23.9421 20.2005 23.9555C20.1705 23.9634 20.1463 23.9698 20.1451 23.9705L19.9545 23.9849H0.63543C0.63543 23.9849 0.564532 23.9789 0.512277 23.9738C0.483292 23.9709 0.460022 23.9683 0.45764 23.9671C0.45764 23.9671 0.314347 23.9103 0.311013 23.9069C0.311013 23.9069 0.278558 23.8824 0.246238 23.8574C0.214191 23.8326 0.18228 23.8071 0.18228 23.8044C0.18228 23.8044 0.0763414 23.6946 0.0763414 23.689C0.0763414 23.689 0.0178266 23.5591 0.0144926 23.5541C0.0144926 23.5541 0 23.4242 0 23.4175L0.0473562 23.2693L0.136557 23.1232L21.2242 0.836081L21.3883 0.660843C21.445 0.600185 21.4945 0.546246 21.4945 0.546246L21.7799 0.289291C21.7799 0.289291 21.8181 0.260119 21.8555 0.231099C21.8913 0.203254 21.9265 0.175544 21.9265 0.173911C21.9265 0.173911 22.0842 0.0891841 22.0859 0.0875171ZM19.872 18.7316L17.4222 16.7261L21.9232 16.9819C20.975 18.4128 19.3525 19.3419 17.551 19.3419C15.4887 19.3419 13.7078 18.1708 12.8205 16.4658C13.2781 16.3945 13.6822 16.3265 14.1253 16.3376C14.5127 16.3554 14.9135 16.3816 15.3292 16.4937L19.872 18.7316ZM22.0503 16.7963L17.1765 15.9112L21.0615 10.159C22.1249 11.1283 22.8077 12.5301 22.8077 14.0623C22.8138 15.0263 22.5515 15.9729 22.0503 16.7963ZM23.2375 14.0623C23.2375 10.9298 20.6885 8.37141 17.551 8.37141C14.3923 8.37141 11.8155 10.9298 11.8155 14.0623C11.8155 17.2093 14.3923 19.7745 17.551 19.7745C20.6885 19.7745 23.2375 17.2093 23.2375 14.0623ZM14.8991 15.5193C14.6253 15.4794 14.4124 15.4484 14.1364 15.477C13.7078 15.5099 13.1198 15.8917 12.7519 16.2952C12.4258 15.5963 12.2589 14.8336 12.263 14.0623C12.263 11.1734 14.6264 8.79893 17.551 8.79893C18.7956 8.79893 19.9718 9.25599 20.8775 9.99731L15.2278 15.5639C15.1062 15.5495 14.9986 15.5338 14.8991 15.5193Z" fill="white"/>
</svg>
