<svg width="136" height="24" viewBox="0 0 136 24" fill="none" xmlns="http://www.w3.org/2000/svg">
<path d="M128.343 21.4779C127.023 21.0929 125.405 21.0679 123.666 21.4046C121.872 21.7512 119.993 22.4804 118.227 23.5097C117.959 23.6666 117.694 23.8288 117.436 23.9997H131.393C131.349 23.8928 131.302 23.7886 131.25 23.6886C130.699 22.6373 129.692 21.8721 128.343 21.4779Z" fill="white"/>
<path d="M131.929 20.2485C131.265 18.9807 130.054 18.0595 128.429 17.5864C126.84 17.1202 124.893 17.0898 122.799 17.4956C120.642 17.9131 118.379 18.789 116.256 20.03C114.653 20.9652 113.192 22.0653 111.937 23.2795V24H116.632C117.179 23.5608 117.761 23.147 118.374 22.7572C120.575 21.3558 123.018 20.4132 125.254 20.1008C127.469 19.7915 129.375 20.1124 130.622 21.008C131.601 21.7083 132.147 22.7236 132.251 24H132.416L132.476 23.3971C132.593 22.2237 132.408 21.1644 131.929 20.2485Z" fill="white"/>
<path d="M112.446 13.4458C112.274 13.547 112.104 13.6471 111.937 13.7504V15.7682C116.774 12.178 122.009 10.9284 126.32 10.6462C122.688 9.58415 117.456 10.5202 112.446 13.4458Z" fill="white"/>
<path d="M128.457 11.1134C128.63 11.2604 128.797 11.4153 128.954 11.5814C128.954 11.5814 130.102 12.789 130.481 13.9312L130.113 13.341C129.531 12.4082 128.697 11.685 127.667 11.1714C122.996 11.5662 117.059 13.0409 111.937 17.3361V17.6606C113.308 16.5501 114.786 15.5839 116.338 14.7827C117.997 13.9261 119.673 13.2922 121.32 12.8992C122.976 12.5038 124.525 12.3677 125.929 12.4967C128.625 12.7432 130.558 13.9413 131.523 15.9647C131.523 15.9647 132.261 17.4846 132.327 19.0287L132.119 18.1489C132.011 17.6954 131.851 17.2605 131.639 16.8579C130.903 15.4553 129.564 14.434 127.765 13.9109C126.007 13.3973 123.853 13.3631 121.537 13.8109C119.148 14.2744 116.644 15.2427 114.297 16.615C113.472 17.0946 112.684 17.6139 111.937 18.1683V22.9151C112.764 22.0415 113.688 21.2153 114.705 20.4495C116.203 19.3166 117.83 18.3642 119.537 17.6174C122.966 16.1171 126.321 15.6485 128.741 16.3264C130.983 16.958 132.319 18.527 132.605 20.8658C132.605 20.8658 132.758 22.3604 132.464 23.9994H135.568V11.4245C134.735 11.2828 132.025 10.893 128.457 11.1134Z" fill="white"/>
<path d="M116.532 6.58506C115.027 6.84677 113.467 7.33863 111.937 8.02968V8.62753C113.986 7.54586 116.043 6.8423 118.002 6.40076C117.523 6.43619 117.033 6.49693 116.532 6.58506Z" fill="white"/>
<path d="M111.937 0V6.40016C111.937 6.40016 114.595 5.46854 117.418 5.90354L116.293 5.9476C114.911 6 113.423 6.32454 111.937 6.88488V7.59558C114.252 6.51509 116.973 5.96785 119.336 6.13607C125.256 5.1184 129.969 6.35937 129.969 6.35937C129.05 6.20306 125.429 5.68589 120.966 6.37098C121.388 6.47043 122.059 6.67348 122.738 7.07573L122.187 6.87565C121.647 6.68033 121.058 6.54188 120.433 6.45822C117.746 6.92358 114.789 7.83406 111.937 9.51866V9.87267C116.233 7.48958 120.856 6.59756 124.208 7.82216C129.577 7.42914 133.528 8.53911 133.528 8.53911C132.626 8.38488 129.42 7.92398 125.287 8.31521C125.519 8.44592 126.524 9.04199 126.952 9.65265L126.707 9.45137C126.148 8.99732 125.494 8.63617 124.765 8.36731C120.868 8.79873 116.226 10.0025 111.937 12.9042V13.2323C112.306 12.9894 112.68 12.7545 113.06 12.5294C116.126 10.7075 119.362 9.59518 122.173 9.39748C124.382 9.24236 126.276 9.65056 127.739 10.5849C132.182 10.4946 135.358 11.364 135.568 11.4227V0H111.937Z" fill="white"/>
<path d="M111.937 10.3121V11.621C115.717 9.33675 119.622 8.30985 123.054 7.92964C119.906 7.42438 115.863 8.24941 111.937 10.3121Z" fill="white"/>
<path d="M49.4507 5.50814H52.4229C52.9412 6.63984 57.2155 16.0037 57.2155 16.0037H54.5034L53.3816 13.5554H48.4574L47.3681 16.0058H44.6405L49.4507 5.50814ZM52.5311 11.6391L50.9366 8.04367L49.3241 11.6391H52.5311Z" fill="white"/>
<path d="M84.5605 7.85522C82.8357 7.85522 82.0018 8.77404 82.0018 8.77404L81.8587 8.0157H79.5419C79.629 8.29945 79.787 8.83448 79.787 9.29865V16.0064H82.0777V11.3664C82.0777 10.1046 82.836 9.46032 84.5608 9.46032C85.5079 9.46032 86.0834 9.78009 86.0834 11.3664V16.0061H88.3745V11.3664C88.3745 8.97888 87.6163 7.85522 84.5605 7.85522Z" fill="white"/>
<path d="M94.867 7.88023C90.9654 7.88023 90.0946 9.74168 90.0946 12.0173C90.0946 14.3134 90.9455 16.1737 95.0579 16.1737C96.5634 16.1737 97.9652 15.8906 98.2872 15.8212C98.3479 15.418 98.4801 14.5332 98.5244 14.2307C98.308 14.2533 96.5268 14.5853 95.0582 14.5853C93.1512 14.5853 92.6346 13.849 92.4813 12.8209H99.0844V12.0167C99.0841 9.1468 97.5791 7.88023 94.867 7.88023ZM92.4807 11.214C92.6153 10.2207 93.055 9.46895 94.867 9.46895C96.1996 9.46895 96.679 10.336 96.7546 11.214H92.4807Z" fill="white"/>
<path d="M17.4227 7.87397C14.5572 7.87397 12.6479 9.15693 12.6479 12.0271C12.6479 14.9172 14.5572 16.1829 17.4227 16.1829C20.2881 16.1829 22.195 14.917 22.195 12.0271C22.1953 9.15663 20.2884 7.87397 17.4227 7.87397ZM17.4227 14.596C15.5066 14.596 14.9407 13.6325 14.9407 12.0271C14.9407 10.4437 15.5066 9.47878 17.4227 9.47878C19.3308 9.47878 19.9046 10.4434 19.9046 12.0271C19.9046 13.6325 19.3308 14.596 17.4227 14.596Z" fill="white"/>
<path d="M42.923 10.4256C42.923 8.81721 41.2245 7.85522 38.7244 7.85522C37.4364 7.85522 35.8508 8.36346 35.3039 8.55312C35.2512 8.89284 35.0876 9.94891 35.0553 10.1704C35.554 10.0588 37.5091 9.46032 38.7244 9.46032C39.9796 9.46032 40.6308 9.89472 40.6308 10.5215V11.206C40.6308 11.206 39.0885 11.0467 38.5332 11.0467C36.0331 11.0467 34.5205 11.9586 34.5205 13.6147C34.5205 15.7036 36.7987 16.1651 37.9571 16.1651C39.5272 16.1651 40.3446 15.736 40.7275 15.3817L40.8592 16.0064H43.1584C43.1291 15.8825 42.923 15.3278 42.923 14.5781V10.4256ZM40.6308 12.9724C40.6308 14.4495 39.2433 14.5781 37.9571 14.5781C37.5185 14.5781 36.818 14.4834 36.818 13.6147C36.818 13.0376 37.5938 12.6524 38.5332 12.6524H40.6308V12.9724Z" fill="white"/>
<path d="M6.25449 5.19761C8.94136 5.19583 10.6176 6.05599 11.5429 7.42022L9.14014 8.3581C8.61913 7.61852 7.74628 7.12368 6.28762 7.11534H6.22459C4.78909 7.12219 3.9265 7.58696 3.40139 8.29825C2.94165 8.92618 2.68892 9.72769 2.68892 10.637V10.7906H2.68774C2.69742 11.6618 2.94957 12.4931 3.40139 13.1049C3.92592 13.8156 4.7888 14.2774 6.22283 14.2854L6.28645 14.2837C7.72107 14.2774 8.58952 13.8016 9.11258 13.0817L11.5429 14.0237C10.6129 15.3624 8.92142 16.1829 6.26651 16.1829C6.26182 16.1829 6.25742 16.1829 6.25273 16.1829C3.89103 16.1841 2.30248 15.5485 1.33141 14.4593C0.449473 13.4842 -0.000585823 12.1769 5.72284e-07 10.7349V10.6373C-0.000585823 9.22779 0.451232 7.91804 1.33141 6.94414C2.30248 5.85829 3.88868 5.19702 6.25449 5.19761Z" fill="white"/>
<path d="M72.9083 14.741V5.51294H70.6143V14.741C70.6143 15.3034 70.8066 15.8721 70.8541 16.0064H73.1487C73.1132 15.8742 72.9083 15.3299 72.9083 14.741Z" fill="white"/>
<path d="M65.245 11.3468C65.2541 10.1118 66.1445 9.46032 67.7263 9.46032C67.9875 9.46032 69.0252 9.59876 69.4711 9.65236C69.4447 9.44751 69.2861 8.4486 69.2205 8.04517C68.8953 7.98354 68.1629 7.85551 67.7263 7.85551C66.3835 7.85551 65.6282 8.35392 65.206 8.73652L65.0113 8.01599H62.7103C62.7537 8.17766 62.9487 8.71954 62.9525 9.28018V16.0046H65.2447L65.245 11.3468Z" fill="white"/>
<path d="M28.6914 7.86445C27.2574 7.86445 26.15 8.71568 26.15 8.71568C26.15 8.71568 26.0274 8.24228 25.9782 8.02612H23.6716C23.754 8.31225 23.9138 8.87229 23.9138 9.47015V18.5494H26.2066V15.3915C26.6651 15.7313 27.5266 16.1743 28.6914 16.1743C32.5311 16.1743 33.0859 14.3152 33.0859 12.0188C33.0859 9.74407 32.5311 7.86445 28.6914 7.86445ZM28.6914 14.5874C26.7399 14.5874 26.2066 13.4634 26.2066 12.0191C26.2438 10.4804 26.7396 9.47015 28.6914 9.47015C30.4506 9.47015 30.7954 10.5929 30.7954 12.0191C30.7954 13.4634 30.4506 14.5874 28.6914 14.5874Z" fill="white"/>
<path d="M107.35 8.28216V10.093C106.9 9.84885 106.432 9.66277 105.946 9.53831C105.459 9.41326 104.971 9.35104 104.482 9.35104C103.938 9.35104 103.527 9.41803 103.247 9.5523C102.971 9.68658 102.831 9.88607 102.831 10.1508C102.831 10.5277 103.426 10.8353 104.616 11.0702L104.708 11.0922L105.407 11.2342C106.298 11.4144 106.949 11.7017 107.362 12.1006C107.776 12.4993 107.982 13.0397 107.982 13.7147C107.982 14.5323 107.669 15.1465 107.037 15.5535C106.406 15.9605 105.457 16.1665 104.191 16.1665C103.63 16.1665 103.053 16.1246 102.465 16.0409C101.876 15.9584 101.278 15.8378 100.673 15.6711V13.8579C101.211 14.1184 101.76 14.3149 102.32 14.4522C102.878 14.5918 103.418 14.6603 103.94 14.6603C104.512 14.6603 104.945 14.5882 105.242 14.4456C105.536 14.303 105.683 14.0996 105.683 13.8293C105.683 13.567 105.578 13.3639 105.37 13.2204C105.162 13.079 104.665 12.9286 103.882 12.7679L103.207 12.641C102.273 12.4642 101.593 12.1813 101.163 11.8002C100.737 11.4188 100.522 10.904 100.522 10.2639C100.522 9.4999 100.846 8.90502 101.499 8.47985C102.148 8.05528 103.062 7.84359 104.241 7.84359C104.769 7.84359 105.295 7.88021 105.821 7.95167C106.346 8.02551 106.854 8.13567 107.35 8.28216Z" fill="white"/>
<path d="M77.4933 14.741V8.01122H75.2011V14.741C75.2011 15.337 75.4192 15.9245 75.4503 16.0064H77.7352C77.6944 15.8557 77.4933 15.3147 77.4933 14.741ZM76.3396 7.40056C76.8377 7.40056 77.1757 7.33208 77.361 7.19363C77.5449 7.05518 77.6355 6.80389 77.6355 6.44244C77.6355 6.09468 77.5466 5.85173 77.3704 5.71506C77.1907 5.58078 76.855 5.51141 76.3586 5.51141C75.8534 5.51141 75.5133 5.58168 75.3324 5.72251C75.1539 5.86334 75.0627 6.11552 75.0627 6.47787C75.0627 6.82622 75.1509 7.06649 75.3227 7.19958C75.4984 7.33297 75.8367 7.40056 76.3396 7.40056Z" fill="white"/>
<path d="M60.6556 14.741V8.01122H58.3639V14.741C58.3639 15.337 58.5815 15.9245 58.6137 16.0064H60.898C60.8573 15.8557 60.6556 15.3147 60.6556 14.741ZM59.5036 7.40056C60 7.40056 60.3392 7.33208 60.5239 7.19363C60.7072 7.05518 60.7992 6.80389 60.7992 6.44244C60.7992 6.09468 60.7098 5.85173 60.5342 5.71506C60.3521 5.58078 60.0187 5.51141 59.5218 5.51141C59.0166 5.51141 58.6765 5.58168 58.495 5.72251C58.317 5.86334 58.2253 6.11552 58.2253 6.47787C58.2253 6.82622 58.3123 7.06649 58.4847 7.19958C58.6618 7.33297 59.0002 7.40056 59.5036 7.40056Z" fill="white"/>
</svg>
