<svg width="113" height="32" viewBox="0 0 113 32" fill="none" xmlns="http://www.w3.org/2000/svg">
<path d="M87.6236 5.82308L85.0138 8.70515C84.2913 8.17644 83.6443 7.69643 82.9894 7.22635C81.3685 6.05862 79.6979 4.9843 77.7103 4.5669C73.7976 3.74501 70.356 4.62156 67.5127 7.51058C65.1017 9.96034 63.8266 12.8772 63.8912 16.3486C63.9519 19.5288 65.2697 22.1127 67.469 24.3309C69.0968 25.9717 70.9155 27.213 73.2748 27.4952C76.5753 27.8848 79.687 27.3263 82.4875 25.4977C84.7733 24.0069 85.7959 21.6923 86.3366 19.1313C86.5184 18.2657 86.2461 17.9814 85.299 17.9129C84.3748 17.8463 83.4466 17.8224 82.5163 17.8135C80.5794 17.7996 78.6405 17.8085 76.7035 17.8085H76.1331V14.1463H90.6627C90.4967 17.25 90.3645 20.3249 88.997 23.1771C87.1187 27.1047 83.8987 29.3388 79.8241 30.5651C72.6 32.7406 65.6244 29.2523 62.4422 24.4363C60.6305 21.6933 60.0074 18.6602 59.9577 15.3925C59.8583 9.35014 64.9854 2.55244 71.967 0.982205C74.3909 0.435607 76.8039 0.645302 79.197 1.21078C82.4806 1.98397 85.3388 3.52439 87.6236 5.82308Z" fill="#000080"/>
<path d="M43.838 1.04879H47.5648V1.59738C47.541 7.04647 47.5648 12.4956 47.4704 17.9437C47.4386 19.8548 47.3492 21.8126 46.9049 23.6581C45.9926 27.4535 43.4614 29.7929 39.6222 30.5154C35.7831 31.238 32.3505 30.3167 29.5529 27.4952C27.8634 25.7899 27.1816 23.6313 27.0395 21.2839C26.9444 19.9434 27.0604 18.5962 27.3834 17.2917C28.1844 14.1761 30.2953 12.2809 33.1913 11.1857C35.8388 10.1849 38.5052 10.2645 41.1478 11.2851C41.7957 11.5355 42.1932 11.9529 42.2409 12.6705C42.2777 13.2151 42.3582 13.7577 42.3781 14.3023C42.4 14.8927 42.23 15.0328 41.6615 14.8678C40.0039 14.3868 38.3034 14.3162 36.5931 14.3222C35.4174 14.3222 34.2338 14.3033 33.2489 15.1381C31.9848 16.2114 31.0009 17.4726 30.6034 19.1154C29.5529 23.3888 32.9011 27.3372 37.3384 27.0987C39.2128 26.9993 40.8705 26.4815 42.1237 24.968C43.0092 23.8986 43.4395 22.6544 43.515 21.3197C43.673 18.5439 43.7863 15.7642 43.8241 12.9845C43.8758 9.20802 43.839 5.43152 43.841 1.65502L43.838 1.04879Z" fill="#000080"/>
<path d="M24.6305 30.8891H21.4434C21.4324 30.6764 21.4125 30.4707 21.4116 30.264C21.3947 27.4495 21.4185 24.634 21.3499 21.8166C21.3178 20.5458 21.1886 19.2793 20.9633 18.0281C20.1941 13.7796 15.8243 13.1107 13.1639 15.2216C12.659 15.6191 12.1969 16.0773 11.695 16.4838C11.5723 16.5776 11.4743 16.7 11.4095 16.8402C11.3447 16.9805 11.3152 17.1345 11.3233 17.2887C11.2571 21.4263 11.1825 25.5643 11.0997 29.7025C11.0928 30.0802 11.0997 30.4588 11.0997 30.8712H7.42259C7.41365 30.7212 7.39377 30.5612 7.39576 30.4021C7.44943 26.8602 7.49514 23.3182 7.56769 19.7773C7.58703 18.9164 7.66673 18.058 7.8062 17.2082C8.42138 13.4486 11.7815 10.5825 15.6574 10.4582C18.6935 10.3589 21.1512 11.5604 23.1547 13.7796C24.0153 14.7326 24.3642 15.9153 24.4337 17.1526C24.556 19.3489 24.6176 21.5492 24.6534 23.7485C24.6892 25.9667 24.6623 28.1859 24.6613 30.4071C24.6524 30.5502 24.6405 30.6963 24.6305 30.8891Z" fill="#000080"/>
<path d="M4.05753 30.8792H0.418175V1.05376H4.05753V30.8792Z" fill="#000080"/>
<path d="M55.9178 30.8792H52.3043V10.8687H55.9178V30.8792Z" fill="#000080"/>
<path d="M101.784 10.5089C107.014 10.5089 111.001 13.3055 112.448 17.5789C114.191 22.7239 111.026 29.9261 104.029 30.5313C102.195 30.6894 100.384 30.6536 98.6281 30.0792C94.9718 28.8866 92.8997 26.3027 92.2388 22.5639C91.9795 21.0941 91.8741 19.5974 92.1921 18.1206C92.6384 16.0445 93.8528 14.4385 95.424 13.07C97.4037 11.3457 99.6855 10.4413 101.784 10.5089ZM109.008 20.6349C109.008 20.1877 109.025 19.7405 109.008 19.2953C108.973 18.5569 108.844 17.8224 108.329 17.2639C107.633 16.5116 106.929 15.7593 106.142 15.1133C105.689 14.7544 105.149 14.521 104.577 14.4365C103.435 14.2805 102.274 14.2487 101.12 14.2089C100.325 14.1811 99.5921 14.4514 98.9173 14.8698C96.6415 16.281 95.586 18.3482 95.7122 20.9997C95.8514 23.9314 97.8062 26.3414 100.588 26.8741C101.656 27.0788 102.789 26.9804 103.891 26.9596C105.076 26.9377 106.007 26.3543 106.873 25.5752C108.36 24.2435 109.394 22.7557 109.008 20.6349Z" fill="#000080"/>
</svg>
