<svg xmlns="http://www.w3.org/2000/svg" width="161" height="33" viewBox="0 0 161 33"><path d="M18.754 27.006c-.21.127-.502.399-.718.576-1.617 1.33-3.623 2.727-5.568 3.584-2.643 1.163-5.927 1.429-8.351-.184-2.118-1.41-3.226-3.375-3.732-6.738-.478-3.18-.272-6.516.56-9.442 1.47-5.18 5.14-9.997 8.833-12.067 2.343-1.314 5.36-2.107 8.54-1.706 1.626.205 2.677.691 3.774 1.45 1.272.882 1.68 1.485 2.616 2.564.173-.103.334-.259.524-.41 1.133-.906 2.759-1.838 4.094-2.395 1.99-.83 3.647-1.296 6.09-1.298 2.212-.002 4.444.47 5.929 1.507 1.45 1.013 2.314 2.554 2.381 5.047.117 4.317-4.057 6.424-6.757 8.128-.283.178-8.794 5.58-9.148 5.734l.012-3.409c.172-.166.564-.402.768-.54 2.144-1.445 6.477-4.234 7.718-6.135.662-1.014 1.087-2.535.962-4.052-.115-1.388-.73-2.585-2.197-2.9-4.078-.873-7.046 2.78-8.67 6.266-2.021 4.335-2.995 13.186.577 16.135 1.025.846 2.49 1.026 4.083.766 3.002-.489 5.871-2.67 8.197-4.394.318-.236 1.184-.942 1.449-1.047l1.524 2.417c-.117.18-.698.688-.907.857-.109.088-.164.16-.277.256a63.919 63.919 0 0 1-3.777 3.004c-1.659 1.236-3.49 2.43-5.964 3.087-2.435.648-5.664.619-7.928-.25a7.96 7.96 0 0 1-3.818-3.015l-.82-1.396h.001zm-1.156-3.127c-.11-1.65-.348-2.211-.21-4.245.342-5.026 2.162-7.474 2.773-10.814.6-3.274-.651-5.154-4.075-4.498-2.393.458-4.278 2.37-5.328 3.728-1.295 1.674-2.332 3.52-2.939 6.08-.584 2.467-.863 5.69-.367 8.25.437 2.26 1.59 5.128 4.255 4.656 1.16-.205 3.27-1.605 4.468-2.302.351-.204 1.138-.613 1.423-.855zm30.414 2.188c.016-.319.193-.86.275-1.191l3.735-14.958c.133-.542.39-1.842.585-2.3l6.327-.001c.146.038.187.401.22.532l.15.575c.108.403.202.767.302 1.154.195.76.407 1.56.606 2.303.262.98 3.594 13.473 3.612 13.887l-4.847.001-.825-3.51-4.918.002-.83 3.507h-4.392v-.001zm5.805-6.904l3.745.013c-.093-.624-.302-1.376-.444-1.976l-1.128-4.89c-.042-.186-.112-.888-.303-.927-.192-.038-.178.18-.215.352-.035.169-.073.324-.107.481l-1.108 4.958c-.142.623-.34 1.362-.44 1.99v-.001zm84.511-5.415c.25-.158.67-1.457 2.38-1.963 1.184-.35 2.631-.103 3.549.436 1.832 1.077 2.6 3.104 2.7 5.926.1 2.78-.325 5.3-1.82 6.802-1.255 1.261-3.052 1.728-4.927 1.262-.664-.165-.954-.431-1.459-.691l-.023 5.134-3.957-.006.013-18.71 3.08.012c.103.342.345 1.623.464 1.798zm.43 8.444c.287.16.499.399.916.53 1.244.39 2.376.002 2.868-1.26.468-1.2.504-4.007-.017-5.162-.92-2.037-3.7-.744-3.775-.057l.008 5.949zm-13.275-10.538c4.307-.397 6.88 2.589 7.125 6.59.267 4.329-1.798 7.716-5.729 8.052-4.332.37-6.97-2.54-7.196-6.596-.22-3.96 1.518-7.651 5.8-8.046zm.358 3.466c-1.763.268-2.23 2.21-2.159 4.189.067 1.853.745 3.795 2.794 3.531 1.81-.232 2.164-2.258 2.129-4.212-.034-1.833-.774-3.81-2.764-3.508zM83.034 26.057l10.596.011.004-3.371-6.299-.012v-4.294l5.662-.016.006-3.27-5.663-.023.002-4.126 6.222-.012.017-3.327H83.034v18.44zm66.135-13.361c.211-.206 2.088-.68 2.53-.779a11.977 11.977 0 0 1 3.002-.288c5.742.156 5.422 3.481 5.422 7.826 0 1.202.061 5.818-.013 6.613l-2.908-.001-.474-1.744c-.139.044-.324.32-.425.442-.152.182-.214.27-.398.425-1.091.916-2.207 1.369-3.847 1.145-4.242-.579-4.63-6.012-1.617-8.008 1.643-1.089 3.501-.984 5.685-1.033.468-2.946-2.508-2.736-4.408-2.298l-1.904.538-.645-2.838zm6.969 9.484l.006-2.155c-1.422-.064-4.105.04-3.71 2.193.15.813.898 1.2 1.837 1.037.813-.14 1.413-.7 1.867-1.075zm-51.857 2.053l.445 1.825 3.027.01.01-14.127-3.991-.003c-.12.753.062 9.033-.03 9.551-.066.376-.431.8-.64.96-.309.24-.696.401-1.187.411-2.144.042-1.843-2.678-1.843-4.524 0-.493.036-6.056-.016-6.39l-3.971-.009c-.081.376-.025 5.334-.025 6.156 0 1.869-.154 4.153.45 5.78 1.008 2.72 4.423 3.013 6.173 1.849.306-.204.59-.44.849-.701.146-.148.23-.255.368-.408.145-.159.217-.34.381-.38zM76.03 14.255l-.532-2.312-2.764-.003v14.123l3.951.005.007-9.94 3.835-.373.007-4.13c-1.175-.088-2.148.044-2.954.59-.374.252-.64.528-.9.894-.296.419-.538 1.08-.65 1.146zm38.2.001c-.204-.365-.417-2.066-.563-2.256-.091-.119-1.123-.062-1.32-.062-.458 0-.974-.023-1.423.007l-.015 14.111 3.947.013.013-9.872 3.828-.444.002-4.105c-.886-.258-2.343.17-2.921.564-1.22.832-1.3 1.893-1.548 2.044zM65.588 26.068h4.005l.008-14.122-3.988-.009-.025 14.131zM67.06 6.46c-2.714.503-2.122 4.766 1.037 4.18 2.59-.481 2.182-4.775-1.037-4.18z" fill="#0A70CB" fill-rule="nonzero"/></svg>