<svg width="94" height="24" viewBox="0 0 94 24" fill="none" xmlns="http://www.w3.org/2000/svg"><path d="M59.879 4.308c1.967-.772 3.09-1.817 4.667-2.433 1.58-.618 2.738-.685 3.678-.232.786.378 1.491 1.666 1.491 2.71v.581c0 .153.01.313.174.577.214.338.673 1.05.825 1.29.171.27.087.354-.062.427-.129.056-.177.068-.263.107-.091.04-.153.135-.153.332v1.53c0 .405-.406.7-.864.7-.276 0-1.306-.038-2.142-.101 0 0 .837 1.213 1.078 1.533.24.322.823.673 1.336.673h16.87l-.096-.214s-15.01-1.593-15.183-1.61c-.179-.017-.288-.033-.102-.282 2.15-2.603.972-12.1-8.884-9.426-.855.23-4.15 1.575-4.907 1.954-.755.375-2.065.822-3.711.822.251 1.643 3.024 2.33 6.247 1.062M62.885 10.849c-1.952.32-4.021 1.09-5.231 1.614l.95.928c.34.195 1.083.149 1.37.092.456-.092 5.53-.744 6.11-.733-.365-.374-1.23-1.246-1.397-1.427-.405-.423-.82-.635-1.802-.474zM39.305 22.205s1.043 1.017 1.41 1.39c.504.503.85.519 1.695.15 11.742-5.393 37.333-9.736 51.458-10.534l-.133-.3c-8.15-.187-38.407 2.485-54.43 9.293M5.435 4.836l-2.035.01h-.55l-1.927-.01-.407-.01-.17-.003L0 6.95l.237-.008c.31-.008.442-.018.57-.132.115-.079.184-.215.28-.45l.135-.343c.02-.05.075-.19.098-.222a.048.048 0 0 0 .015-.003c.154-.026.51-.036.993-.039l-.461 3.77c-.129.997-.221 1.343-.47 1.75l-.185.304.76-.02h.078l1.014.011h.066c.303 0 .463-.018.619-.195.106-.107.16-.197.254-.426l.104-.264h-.534a3.54 3.54 0 0 1-.425-.003l.064-.275c.062-.274.152-.825.194-1.218 0 0 .336-2.73.425-3.441.496.008.951.013 1.088.04.017.114.037.434.053.708.003.002.037.456.037.456l.183-.007c.49-.013.67-.171.738-.654l.217-1.465-.228.002-.486.011h.002zM14.025 10.663c.028-.123.052-.24.052-.24l.066-.442c0 .011.141-.954.141-.954l.205-1.622.205-1.526c.003-.006.086-.557.086-.565l.009-.042.116-.447h-.26l-.485.01-.545.014h-.256l-.299.011a.59.59 0 0 0-.337.174c-.105.122-.16.22-.239.438l-.098.273.54-.03s.196.016.366.027c-.023.126-.05.254-.05.254l-.088.693-.01.072s-.078.594-.114.893h-2.467c.017-.126.032-.253.032-.253l.101-.756.105-.776.092-.54.05-.255.047-.237-.241-.011-1.033.024H9.46c-.303 0-.454.019-.621.183-.102.115-.155.206-.248.43l-.118.282.554-.029s.204.016.374.026c-.052.263-.102.584-.154 1.02L8.89 9.609a8.48 8.48 0 0 1-.18 1.08l-.181.506-.042.12-.087.26.672-.019h.085l.831.01h.08c.287 0 .451-.03.607-.203.101-.088.158-.18.254-.417l.105-.263h-.491s-.222-.009-.403-.02l.052-.24.066-.441.14-.954.055-.429h2.46c-.04.293-.124 1.01-.124 1.01-.054.382-.127.801-.192 1.071-.047.196-.1.338-.181.515l-.04.12-.09.26.674-.019h.082l.845.01h.067c.286 0 .452-.03.608-.203.1-.083.159-.18.253-.417l.107-.263h-.495s-.218-.009-.4-.02M20.02 8.152c.16-.338.57-1.2.863-1.808l.101.732.151.924.003.024s.017.067.025.128h-1.142zm3.113 2.507c-.054-.289-1.14-5.836-1.14-5.836l-.166.003-.49.01-.91.01c-.312 0-.423.013-.551.074-.149.051-.287.187-.436.445a3.956 3.956 0 0 0-.044.096l-.119.28.81-.028a1604.073 1604.073 0 0 0-2.046 3.932c-.003.002-.487.91-.487.91l-.286.489c-.002.005-.366.514-.366.514l.374.009.587-.01.628.012.045-.15c.05-.194.107-.34.293-.747l.648-1.392s.06-.128.102-.226h1.739l.111.6c.132.73.193 1.191.193 1.45l-.017.458.21.004.39-.01h.076l.656.01h.07c.287 0 .462-.033.618-.206.102-.086.16-.178.252-.415l.106-.264h-.434s-.313-.019-.416-.023M30.663 9.561c-.101.082-.167.21-.271.448l-.147.32c-.08.174-.11.219-.122.229-.056.033-.285.05-.68.05l-.754-.019c.088-.41.184-.975.253-1.542l.198-1.644.212-1.51.063-.313c.005-.02.076-.438.076-.438l-.052.088.24-.428-.343.035h-.487l-.686.012h-.298l-.296.012a.564.564 0 0 0-.34.173c-.1.115-.154.206-.247.43l-.117.28.556-.028s.24.02.423.032c-.054.273-.102.608-.15 1.012l-.357 2.848c-.066.522-.147.983-.231 1.266l-.164.423-.108.271.296-.002.828-.032.079.01 2.88.022h.157l.411-2.126h-.233c-.31 0-.454.002-.588.12M40.296 5.156l.34-.34-1.015.02-.738-.013-.052.132c-.072.205-.146.35-.363.71l-.774 1.317c-.002.005-.24.39-.422.693l-.167-.46c-.002-.001-.174-.465-.174-.465a32.272 32.272 0 0 1-.527-1.516l-.06-.252-.034-.15-.165-.006-.487.01-.396.014h-.2l-.287.012a.513.513 0 0 0-.345.18c-.107.108-.162.214-.25.42l-.117.283.534-.03s.218.027.34.037c.08.2 1.202 2.996 1.239 3.083-.012.086-.094.773-.094.773-.062.518-.144.982-.23 1.265-.002.01-.152.421-.152.421l-.099.264.284.008.389-.011h.087l.855.01h.066c.288 0 .452-.03.608-.205.102-.088.157-.179.254-.415l.104-.263h-.5s-.229-.01-.41-.02c.025-.122.048-.245.048-.245-.002.005.097-.513.097-.513l.063-.348.056-.339c0 .002.04-.248.058-.336.043-.068 1.232-1.808 1.232-1.808-.002.006.288-.407.288-.407l.62-.865c.32-.461.349-.497.496-.646M44.743 11.665c1.643-.012 2.79-.958 2.79-2.292.012-.723-.301-1.163-1.162-1.622l-.206-.11-1.006-.548a1.914 1.914 0 0 1-.384-.267c-.154-.13-.196-.225-.196-.42 0-.447.417-.74 1.062-.74.313 0 .63.06.9.168l.023.014c.019.094.051.366.076.965l.007.192.194-.007c.502-.028.676-.18.745-.666l.172-1.237-.148-.053a5.414 5.414 0 0 0-1.87-.337c-.724 0-1.335.199-1.772.577-.447.38-.753.997-.753 1.543 0 .444.181.835.505 1.109.183.152.35.252.686.428-.002-.004.978.538.978.538.263.128.348.19.473.287a.775.775 0 0 1 .273.605c0 .762-.795.847-1.138.847l-.566-.05a2.85 2.85 0 0 1-.398-.123c-.034-.094-.055-.47-.068-.707l-.01-.254-.008-.187h-.183c-.499 0-.678.158-.746.654.003-.006-.172 1.132-.172 1.132l-.025.155.149.054c.66.248 1.176.35 1.778.35M.394 13.418h2.014v.286h-1.7v.952h1.52v.287H.709v.975h1.72v.286H.394v-2.786zM3.415 15.038v-1.62h.314v1.6c0 .601.319.94.852.94.534 0 .84-.311.84-.92v-1.62h.315v1.596c0 .812-.466 1.234-1.163 1.234-.696 0-1.158-.422-1.158-1.21zM6.877 13.418h1.198c.343 0 .617.103.792.279.136.135.215.33.215.549v.008c0 .462-.318.732-.756.812l.856 1.138h-.386l-.808-1.083h-.796v1.083h-.315v-2.786zm1.17 1.42c.418 0 .717-.214.717-.572v-.008c0-.343-.263-.55-.712-.55h-.86v1.13h.855zM10.029 14.819v-.008c0-.768.577-1.44 1.425-1.44.848 0 1.417.664 1.417 1.432v.008c0 .768-.577 1.44-1.425 1.44-.848 0-1.417-.664-1.417-1.433v.001zm2.516-.008c0-.633-.462-1.15-1.099-1.15s-1.09.51-1.09 1.143v.008c0 .633.461 1.15 1.098 1.15s1.09-.51 1.09-1.142v-.01zM13.73 15.798l.195-.23c.29.262.57.393.955.393.386 0 .62-.2.62-.474v-.008c0-.258-.138-.406-.724-.529-.64-.14-.935-.346-.935-.804v-.008c0-.438.385-.76.915-.76.406 0 .697.115.98.342l-.183.243a1.223 1.223 0 0 0-.804-.302c-.363 0-.593.199-.593.45v.007c0 .263.143.41.756.541.62.136.908.363.908.789v.008c0 .477-.399.788-.952.788a1.63 1.63 0 0 1-1.138-.446zM17.54 13.709h-.94v-.291h2.193v.29h-.94v2.496h-.314v-2.495zM20.452 13.398h.295l1.27 2.806h-.339l-.326-.736h-1.517l-.33.736h-.322l1.27-2.806zm.776 1.788l-.633-1.421-.637 1.42h1.27zM22.963 13.418h1.198c.343 0 .617.103.792.279a.77.77 0 0 1 .216.549v.008c0 .462-.319.732-.757.812l.856 1.138h-.386l-.808-1.083h-.796v1.083h-.315v-2.786zm1.17 1.42c.419 0 .717-.214.717-.572v-.008c0-.343-.263-.55-.712-.55h-.86v1.13h.856zM27.707 14.819v-.008c0-.764.562-1.44 1.398-1.44.47 0 .76.135 1.038.37l-.203.238a1.185 1.185 0 0 0-.847-.318c-.617 0-1.059.521-1.059 1.143v.008c0 .664.426 1.158 1.103 1.158.318 0 .612-.124.803-.28v-.692h-.847v-.282h1.15v1.11c-.259.23-.649.426-1.119.426-.875 0-1.417-.637-1.417-1.433zM31.348 13.418h1.198c.343 0 .617.103.792.279a.77.77 0 0 1 .216.549v.008c0 .462-.319.732-.757.812l.856 1.138h-.386l-.808-1.083h-.796v1.083h-.315v-2.786zm1.17 1.42c.419 0 .717-.214.717-.572v-.008c0-.343-.263-.55-.712-.55h-.86v1.13h.856zM34.5 14.819v-.008c0-.768.578-1.44 1.426-1.44s1.417.664 1.417 1.432v.008c0 .768-.577 1.44-1.425 1.44-.848 0-1.417-.664-1.417-1.433v.001zm2.517-.008c0-.633-.462-1.15-1.1-1.15-.636 0-1.09.51-1.09 1.143v.008c0 .633.462 1.15 1.099 1.15s1.09-.51 1.09-1.142v-.01zM38.36 15.038v-1.62h.315v1.6c0 .601.319.94.852.94.534 0 .84-.311.84-.92v-1.62h.315v1.596c0 .812-.466 1.234-1.163 1.234-.697 0-1.158-.422-1.158-1.21zM41.823 13.418h1.043c.629 0 1.043.334 1.043.884v.008c0 .6-.501.91-1.094.91h-.677v.984h-.314v-2.786h-.001zm1.003 1.517c.462 0 .764-.247.764-.613v-.008c0-.398-.299-.605-.748-.605h-.704v1.226h.688z" fill="#fff"/></svg>