<svg xmlns="http://www.w3.org/2000/svg" width="122" height="30" viewBox="0 0 122 30"><g fill="none"><path fill="#000" d="M29.1 29c-3.9 0-5.6-2.5-5.6-5.4V.3h4.1v23c0 1.5.6 2.3 2.2 2.3h1.8V29h-2.5zm16.3 0v-2C44 28.5 42 29.2 40 29.2c-2.1 0-3.8-.7-5-1.8-1.6-1.5-2.1-3.3-2.1-5.5V9.3H37v12c0 3.1 1.8 4.4 4.1 4.4s4.2-1.4 4.2-4.4v-12h4.1V29h-4zM98.6 29V9.3h4.1V29zM100.7.6c-1.4 0-2.5 1.1-2.5 2.5s1.1 2.5 2.5 2.5 2.5-1.1 2.5-2.5-1.1-2.5-2.5-2.5zM121.8 9.3h-15.2v3.6h8.6l-10 16.1H121v-3.5h-9zM72.5 20.4c0-6.9-4.1-11.5-10.3-11.5-5.9 0-10.2 4.3-10.2 10.3 0 5.1 3.7 10.3 10.7 10.3 3.4 0 6.2-1.3 8.8-4.2l.2-.2-3-2.4-.2.2c-1.7 1.9-3.7 3-5.9 3-3.3 0-5.9-2-6.5-5h16.3v-.5h.1zm-16.3-3c.4-2.3 2.2-4.9 6-4.9 3.1 0 5.5 2 6 4.9h-12z"/><path fill="#0D6EFD" d="M10.8 8.9c-2.5 0-4.8.8-6.6 2.2V.3h-4v19.2c.2 5.8 4.6 9.9 10.6 9.9 6.2 0 10.6-4.3 10.6-10.3 0-5.7-4.6-10.2-10.6-10.2zm6.6 10.3c0 3.5-3.1 6.6-6.5 6.6s-6.5-3.1-6.5-6.6c0-3.7 2.9-6.7 6.5-6.7 3.5 0 6.5 3 6.5 6.7zm68-10.3c-2.5 0-4.8.8-6.6 2.2V.3h-4v19.2c.2 5.8 4.6 9.9 10.6 9.9 6.2 0 10.6-4.3 10.6-10.3 0-5.7-4.6-10.2-10.6-10.2zM92 19.2c0 3.5-3.1 6.6-6.5 6.6-3.5 0-6.5-3.1-6.5-6.6 0-3.7 2.9-6.7 6.5-6.7 3.5 0 6.5 3 6.5 6.7z"/></g></svg>
