<svg viewBox="0 0 629.99 97.32" xmlns="http://www.w3.org/2000/svg"><path d="m0 0h629.99v97.32h-629.99z" fill="none"/><path d="m614.16 416.73-14.68 21.27c-1.93 2.79-5.07 5.48-8.85 5.77v.65h16.37c4.33 0 7.49-2.82 9.64-5.93l15.07-21.73z" fill="#f00" transform="translate(-279.64 -372.38)"/><g fill="#fff"><path d="m343.89 444.38v-25.32h7.39v25.32zm170.4 0-17.75-15v15h-6.24v-25.32h5.3l17.52 14.8v-14.8h6.24v25.32zm38.61-17.15a26.19 26.19 0 0 0 -12.09-3c-6 0-10.39 3.08-10.39 7.36s4.52 7.49 10.34 7.49a23.62 23.62 0 0 0 12.37-3.39v6.31a28.9 28.9 0 0 1 -12.69 2.87c-10.13 0-18.09-5.17-18.09-13.24s8.12-13 18.07-13a33.25 33.25 0 0 1 12.48 2.32v6.32zm-160.5 17.15v-25.32h24.7v5.43h-17.32v6.29h16.92v5.43h-16.92v8.17zm165 0v-25.32h25.6v5.43h-18.24v4.39h18v5.43h-18v4.65h18.17v5.43zm-114.61-9.5 10.21 9.5h-7.88a5.09 5.09 0 0 1 -3.81-1.44l-6.94-6.74a.84.84 0 0 0 -.6-.21h-4.77v8.38h-7.39v-25.31h16c8.3 0 11.8 3.73 11.8 7.86 0 4.8-4.28 7.1-6.66 8zm-5.9-4.18c2.92 0 4.33-1.49 4.33-3.16s-1.25-3.05-4.33-3.05h-7.89v6.21zm-57.51 4.18 10.21 9.5h-7.88a5.09 5.09 0 0 1 -3.81-1.44l-6.94-6.74a.84.84 0 0 0 -.6-.21h-4.73v8.38h-7.43v-25.31h16c8.3 0 11.8 3.73 11.8 7.86 0 4.8-4.28 7.1-6.66 8zm-5.9-4.18c2.92 0 4.33-1.49 4.33-3.16s-1.25-3.05-4.33-3.05h-7.86v6.21zm-41.12 13.68-3.24-5.56h-14.18l-3 5.56h-7l14.1-25.3h6.42l16 25.3zm-14.57-10.83h8.21l-4.28-7.73-4 7.73zm162.1 10.83-3.16-5.56h-13.82l-2.85 5.56h-6.86l13.73-25.3h6.24l15.53 25.3zm-14.18-10.83h8l-4.18-7.73-3.86 7.73z" transform="translate(-279.64 -372.38)"/><path d="m673.2 420.94a18 18 0 0 1 -23.9 26.78 18 18 0 1 0 23.94-26.82z" transform="translate(-279.64 -372.38)"/><path d="m641.34 441.39c-.58.32-.7.8-.4 1.55s.68 1 1.15.78.42-.46.27-1.27l-.07-.31a3.26 3.26 0 0 1 -.08-1.48 1.06 1.06 0 0 1 .65-.77c.81-.32 1.59.18 2 1.32s.23 2.16-.74 2.56l-.24-.6c.67-.28.84-.92.48-1.82-.29-.72-.75-1-1.25-.85s-.48.52-.33 1.36l.06.35.05.31a2.6 2.6 0 0 1 .06 1.1 1 1 0 0 1 -.62.7c-.76.3-1.5-.15-1.92-1.17s-.2-2 .66-2.33z" transform="translate(-279.64 -372.38)"/><path d="m640.84 434.9 2.72-2.31v.85l-2.31 1.92.75.83h1.64v.67l-4.64.1v-.67h1.81.49l-.15-.16-.16-.17-2-2.21v-.88z" transform="translate(-279.64 -372.38)"/><path d="m642.88 427.71 1.79.63-.22.64-1.79-.64-3.19 1 .26-.77 2-.55.24-.07.34-.09a3.68 3.68 0 0 1 -.35-.45l-1.22-1.66.26-.75z" transform="translate(-279.64 -372.38)"/><path d="m646 419.19-1 1.2 2.92 2.4-.7.86-2.92-2.4-1 1.19-.67-.54 2.66-3.25z" transform="translate(-279.64 -372.38)"/><path d="m652.28 414.81-2.34 1.37.49.85 2.15-1.26.4.69-2.15 1.25.58 1 2.37-1.4.44.75-3.34 1.94-2.34-4 3.3-1.93z" transform="translate(-279.64 -372.38)"/><path d="m661.24 416.6-1.22.08-.59-1-1.87.3-.26 1.14-1.15.29 1.21-5.07 1.15-.18zm-2.65-2.38a6.58 6.58 0 0 1 -.5-.95 6.87 6.87 0 0 1 -.2 1.05l-.19.88 1.3-.2z" transform="translate(-279.64 -372.38)"/><path d="m668.69 418.09-1-.37.37-1.38c0-.16.09-.38.18-.67l.18-.68c.07-.18.12-.38.18-.58l.11-.32c-.27.47-.38.63-.63 1-.1.17-.21.31-.28.42l-1.31 1.85-.84-.23-.27-2.22a4 4 0 0 1 0-.49c0-.29 0-.51 0-.67a4.09 4.09 0 0 1 0-.56l-.12.56c-.13.61-.2.87-.38 1.6l-.38 1.49-1-.16 1.15-4.53 1.56.3.22 2.15a9.81 9.81 0 0 1 0 1.52 7.3 7.3 0 0 1 .43-.77l.36-.55 1.21-1.75 1.48.51z" transform="translate(-279.64 -372.38)"/><path d="m659.83 427c-.56.49-1.67 1.56-2.74 2.59l-1.24 1.17a16.15 16.15 0 0 0 -3-.27c-2.27 0-4.33.62-5.27 1.6a1.57 1.57 0 0 0 -.53 1.18c0 1.09 1.28 1.64 1.65 1.79a5.43 5.43 0 0 0 5.46-.71 29.56 29.56 0 0 0 3.06-2.66c.71.16 1.51.38 2.4.64l.8.23c-1 1-2.11 2.11-3.1 3l-.07.07c-1.38 1.21-2.37 2.09-3.8 2.41a3 3 0 0 1 -2-.14s-.05 0-.05 0a3.68 3.68 0 0 0 3 1 7.74 7.74 0 0 0 4.31-2.36l2.06-2 1.45-1.44s2.91.86 2.91.86h.06s-1.8 1.75-1.8 1.75l-1.55 1.54a30.87 30.87 0 0 1 -3.38 3 8.24 8.24 0 0 1 -4 1.73 4 4 0 0 1 -2.18-.42.11.11 0 0 0 -.08 0 4.64 4.64 0 0 0 3.39 1.43c1.87-.06 3.53-1 6.11-3.32 1.17-1.08 2.34-2.3 3.37-3.35l1.91-1.95a14.89 14.89 0 0 0 3.64.38c1.81 0 3.36-.91 3.38-1.91a1.64 1.64 0 0 0 -.95-1.36 4.1 4.1 0 0 0 -2.23-.65 6.83 6.83 0 0 0 -4.22 1.79l-1 .86-.36-.1-2.66-.76c.79-.73 1.45-1.36 2.06-1.89a7.22 7.22 0 0 1 4-1.9 4.89 4.89 0 0 1 2.39.36s.05 0 .05 0a4.82 4.82 0 0 0 -3.39-1.27 6.89 6.89 0 0 0 -4.21 1.7 30.57 30.57 0 0 0 -2.7 2.56l-1.36-.42-.33-.11-1.42-.43s.81-.76.81-.76c1-.94 1.85-1.83 2.56-2.42 2.56-2.15 4.17-2.43 5.29-2.44a4.89 4.89 0 0 1 2.9.75 5.54 5.54 0 0 0 -4.25-1.73 8.47 8.47 0 0 0 -5.15 2.38zm-10.06 7.68c-.83-.05-1.23-.39-1.23-1 0-.08.05-2.12 4.71-2.35a11.29 11.29 0 0 1 2 .05s-.52.45-.52.45l-.3.27c-1.1 1.01-2.98 2.72-4.66 2.6zm18.81-1.64a6.36 6.36 0 0 1 3.14-1.36c.41 0 .9.13.9.64s-.5 1-1.46 1.3a8.53 8.53 0 0 1 -3.58.22 10.66 10.66 0 0 1 1-.78z" transform="translate(-279.64 -372.38)"/><path d="m379.73 61.68v1.38"/><path d="m670.59 414.38a.76.76 0 1 1 .41 1 .76.76 0 0 1 -.41-1zm1.27.62a.66.66 0 0 0 -.25-.88.64.64 0 1 0 -.62 1.12.65.65 0 0 0 .87-.24zm-.46.22-.12-.07v-.46l-.13-.06-.18.33-.09-.06.39-.73.32.17c.13.08.24.18.15.34a.23.23 0 0 1 -.34.07zm-.09-.62c.09.05.24.15.3 0s0-.15-.13-.19l-.2-.1-.1.18z" transform="translate(-279.64 -372.38)"/><path d="m878 421.09a18 18 0 0 1 -23.89 26.78 18 18 0 1 0 23.89-26.78z" transform="translate(-279.64 -372.38)"/><path d="m846.17 441.54c-.57.32-.7.8-.4 1.54s.69 1 1.14.78.43-.46.27-1.27l-.06-.31a3.2 3.2 0 0 1 -.08-1.49 1 1 0 0 1 .66-.77c.81-.32 1.57.17 2 1.33s.23 2.16-.74 2.55l-.22-.6c.67-.29.83-.92.47-1.82-.29-.73-.76-1-1.24-.85s-.49.52-.35 1.35l.06.35.06.3a2.69 2.69 0 0 1 .06 1.1 1 1 0 0 1 -.64.7c-.75.31-1.49-.14-1.9-1.17s-.2-1.95.65-2.33z" transform="translate(-279.64 -372.38)"/><path d="m845.67 435.05 2.73-2.3v.85l-2.3 1.92.75.83h1.62v.65l-4.64.1v-.67h1.82.49l-.15-.16-.16-.17-2-2.21v-.88z" transform="translate(-279.64 -372.38)"/><path d="m847.72 427.87 1.79.63-.23.63-1.78-.63-3.2 1 .27-.77 2-.55.25-.07.34-.09a5.6 5.6 0 0 1 -.36-.45l-1.22-1.66.26-.73z" transform="translate(-279.64 -372.38)"/><path d="m850.86 419.35-1 1.2 2.93 2.39-.7.86-2.93-2.39-1 1.2-.66-.55 2.65-3.25z" transform="translate(-279.64 -372.38)"/><path d="m857.11 415-2.34 1.37.5.86 2.14-1.26.41.69-2.15 1.25.58 1 2.38-1.39.43.74-3.34 2-2.33-4 3.29-1.93z" transform="translate(-279.64 -372.38)"/><path d="m866.08 416.76-1.21.07-.6-1-1.87.3-.26 1.13-1.15.3 1.21-5.06 1.15-.18zm-2.65-2.39a7.15 7.15 0 0 1 -.5-.94 8.39 8.39 0 0 1 -.2 1l-.19.89 1.35-.22z" transform="translate(-279.64 -372.38)"/><path d="m873.53 418.24-1-.36.37-1.38a6.6 6.6 0 0 1 .19-.67c.07-.29.14-.52.19-.68s.12-.38.18-.58l.11-.33c-.27.48-.39.64-.64 1-.1.17-.2.31-.28.42l-1.31 1.85-.85-.23-.26-2.21c0-.12 0-.27 0-.49s0-.51 0-.67a5 5 0 0 1 0-.56l-.12.56c-.14.61-.2.87-.39 1.6l-.38 1.49-1-.16 1.17-4.53 1.56.3.22 2.15a11 11 0 0 1 0 1.52 8.63 8.63 0 0 1 .43-.77c.14-.22.26-.39.37-.54l1.21-1.75 1.48.5z" transform="translate(-279.64 -372.38)"/><path d="m864.67 427.18c-.57.49-1.68 1.57-2.74 2.6l-1.23 1.17a16 16 0 0 0 -3-.27c-2.26 0-4.32.63-5.27 1.6a1.63 1.63 0 0 0 -.53 1.18c0 1.09 1.27 1.65 1.65 1.79a5.41 5.41 0 0 0 5.45-.71 27.24 27.24 0 0 0 3.06-2.66c.72.16 1.53.38 2.4.64l.81.23c-1 1-2.11 2.11-3.1 3l-.08.07c-1.38 1.21-2.37 2.1-3.81 2.42a3 3 0 0 1 -2-.14s0 0 0 0a3.7 3.7 0 0 0 3 1 7.82 7.82 0 0 0 4.31-2.36l2.05-2 1.45-1.43 2.91.85h.06s-1.81 1.76-1.81 1.76l-1.55 1.55a28.82 28.82 0 0 1 -3.38 3 8.23 8.23 0 0 1 -4 1.74 4 4 0 0 1 -2.18-.43.13.13 0 0 0 -.08 0 4.65 4.65 0 0 0 3.4 1.43c1.88 0 3.53-.95 6.11-3.31 1.17-1.08 2.35-2.29 3.37-3.35l1.91-2a14.58 14.58 0 0 0 3.64.38c1.82 0 3.37-.91 3.39-1.91a1.58 1.58 0 0 0 -1-1.36 4.05 4.05 0 0 0 -2.23-.65 6.83 6.83 0 0 0 -4.23 1.78l-1 .85-.35-.1-2.66-.76c.79-.73 1.45-1.36 2.05-1.9a7.25 7.25 0 0 1 4-1.9 4.74 4.74 0 0 1 2.37.36s.06 0 .06 0a4.82 4.82 0 0 0 -3.38-1.28 7 7 0 0 0 -4.22 1.7 32.29 32.29 0 0 0 -2.7 2.55l-1.35-.42-.33-.1-1.42-.44s.82-.76.82-.76c.95-.95 1.85-1.83 2.56-2.43 2.56-2.14 4.17-2.43 5.29-2.44a4.85 4.85 0 0 1 2.9.75s.05 0 .05 0a5.56 5.56 0 0 0 -4.25-1.74 8.53 8.53 0 0 0 -5.19 2.45zm-10.06 7.68c-.83-.06-1.22-.39-1.22-1 0-.07.05-2.12 4.7-2.35a11.44 11.44 0 0 1 2 .05s-.53.46-.53.46l-.29.27c-1.1.98-2.98 2.71-4.66 2.57zm18.81-1.64a6.32 6.32 0 0 1 3.13-1.36c.41 0 .9.13.9.64s-.49 1-1.46 1.3a8.73 8.73 0 0 1 -3.59.22 9.09 9.09 0 0 1 1.03-.81z" transform="translate(-279.64 -372.38)"/><path d="m584.56 61.84v1.37"/><path d="m875.43 414.53a.77.77 0 1 1 .4 1 .76.76 0 0 1 -.4-1zm1.28.62a.65.65 0 0 0 -1.14-.62.65.65 0 0 0 .26.88.66.66 0 0 0 .87-.26zm-.45.23-.13-.08v-.45l-.11-.06-.19.33-.11-.06.4-.73.31.17c.14.07.25.18.15.35s-.2.14-.34.07zm-.1-.63c.09.05.23.15.3 0s-.05-.15-.12-.19l-.2-.11-.09.19z" transform="translate(-279.64 -372.38)"/><path d="m780.64 394.53h3.16v-3.17h3.2v-3.16h-3.2v-3.2h-3.16v3.16h-3.16v3.16h3.16zm20.53-.79a5.54 5.54 0 1 0 5.52 5.54 5.53 5.53 0 0 0 -5.52-5.54zm-37.89 19h37.89v-6.34h-37.89zm5.52-13.45a5.52 5.52 0 1 0 -5.52 5.53 5.53 5.53 0 0 0 5.52-5.54zm14.21 0a5.53 5.53 0 1 0 5.54-5.54 5.53 5.53 0 0 0 -5.55 5.53zm-7.1 5.53a5.54 5.54 0 1 0 -5.52-5.53 5.53 5.53 0 0 0 5.52 5.52zm41.09 14.24-4.74 14.25-4.74-14.25h-15.83v25.32h9.48v-19l6.31 19h9.52l6.31-19v19h9.47v-25.32zm-44.22 0h-9.47v25.32h25.26v-6.38h-15.82zm-12.64 0h-9.46l-9.48 9.5v-9.5h-9.5v25.32h9.47v-9.49l9.48 9.49h12.63l-14.22-14.24z" transform="translate(-279.64 -372.38)"/></g></svg>