<svg height="111" viewBox="0 0 244 111" width="244" xmlns="http://www.w3.org/2000/svg"><g fill-rule="evenodd"><path d="m.606.606v110.21h110.21v-41.368l13.738-13.737-13.738-13.738v-41.367z" fill="#c17c51"/><g fill-rule="nonzero"><path d="m40.45 37.436v3.163h-12.305v-17.349h3.426v14.187h8.879zm-24.704-3.713v6.876h-3.426v-17.349h13.03v3.164h-9.604v4.146h8.515v3.164h-8.515zm16.278 29.913c0 4.272-3.41 6.91-8.903 6.91h-10.8v-24.58h10.383c2.722 0 4.935.773 6.408 2.229a5.768 5.768 0 0 1 1.618 4.11v.069a5.99 5.99 0 0 1 -3.014 5.396c2.86 1.149 4.308 3.094 4.308 5.796zm36.22-34.61v11.574h-3.382v-17.35h3.095l8.705 11.234v-11.234h3.378v17.35h-2.828zm-23.332 11.574v-6.82l-6.902-10.53h4.053l4.6 7.282 4.651-7.281h3.956l-6.905 10.456v6.893h-3.454zm12.475-17.35h3.426v17.35h-3.426zm-21.047 22.722h3.536v21.2h13.11v3.374h-16.646v-24.575zm39.873 14.013c0 6.848-3.802 10.933-10.17 10.933-6.253 0-10.137-4.11-10.137-10.731v-14.217h3.536v14.045c0 4.785 2.431 7.528 6.666 7.528 4.236 0 6.57-2.613 6.57-7.358v-14.215h3.535v14.013zm15.574-29.291h7.641v7.443l-.08.069a10.97 10.97 0 0 1 -7.193 2.65c-5.291 0-8.988-3.642-8.988-8.9v-.049a8.855 8.855 0 0 1 8.964-8.948c2.746 0 4.672.68 6.638 2.347l.174.15-2.173 2.604-.178-.15a6.359 6.359 0 0 0 -4.579-1.755c-2.904 0-5.258 2.569-5.258 5.728v.049c0 3.414 2.273 5.8 5.51 5.8a6.751 6.751 0 0 0 3.846-1.165v-2.831h-4.324zm-6.723 29.133v7.378h14.372v3.341h-17.908v-24.575h17.742v3.341h-14.206v7.172h12.71v3.342h-12.71zm-72.796 17.073h2.868l3.18 5.113 3.179-5.113h2.864v12.087h-2.646v-7.892l-3.402 5.162h-.069l-3.37-5.113v7.839h-2.604zm17.398 0h9.117v2.367h-6.472v2.451h5.696v2.37h-5.7v2.54h6.565v2.367h-9.206zm13.98 0h2.868l3.18 5.113 3.179-5.113h2.864v12.087h-2.642v-7.892l-3.402 5.162h-.069l-3.37-5.113v7.839h-2.608zm17.398 0h5.614c1.38 0 2.472.38 3.16 1.072.55.54.85 1.285.829 2.055v.016a2.832 2.832 0 0 1 -1.59 2.61c1.4.533 2.261 1.346 2.261 2.969v.036c0 2.209-1.796 3.317-4.522 3.317h-5.752zm14.878 0h9.118v2.367h-6.473v2.451h5.7v2.37h-5.7v2.54h6.561v2.367h-9.206zm13.984 0h5.525c1.538 0 2.73.433 3.524 1.214a3.794 3.794 0 0 1 1.035 2.763v.036a3.754 3.754 0 0 1 -2.589 3.746l2.953 4.316h-3.11l-2.59-3.867h-2.087v3.867h-2.661zm5.352 5.874c1.294 0 2.022-.692 2.022-1.711v-.037c0-1.14-.809-1.727-2.087-1.727h-2.643v3.47l2.707.005zm-79.439-33.498v7.245h6.436c3.07 0 4.903-1.412 4.903-3.774v-.069c0-2.164-1.715-3.402-4.705-3.402h-6.633zm0 10.517v7.44h7.379c3.288 0 5.258-1.412 5.258-3.775v-.06c0-2.978-3.119-3.605-5.736-3.605h-6.9zm50.27 21.994c1.172 0 1.916-.38 1.916-1.279v-.036c0-.809-.618-1.246-1.743-1.246h-2.625v2.557l2.451.004zm.707 4.854c1.173 0 1.88-.405 1.88-1.315v-.024c0-.809-.602-1.31-1.969-1.31h-3.074v2.657z" fill="#fff"/><path d="m143 62.179v-.041a5.282 5.282 0 0 1 8.944-3.834.71.71 0 0 1 .238.53.726.726 0 0 1 -.726.726.784.784 0 0 1 -.493-.176 3.92 3.92 0 0 0 -2.77-1.232c-2.053 0-3.637 1.749-3.637 3.932v.042c0 2.2 1.613 3.952 3.735 3.952a4.06 4.06 0 0 0 2.832-1.231.6.6 0 0 1 .431-.197.71.71 0 0 1 .69.69.685.685 0 0 1 -.197.471 5.114 5.114 0 0 1 -3.834 1.642 5.217 5.217 0 0 1 -5.213-5.273zm11.009-8.669a.757.757 0 1 1 1.514 0v13.016a.739.739 0 0 1 -.747.767.755.755 0 0 1 -.767-.767zm12.76 13.016a.747.747 0 1 1 -1.494 0v-1.1a3.87 3.87 0 0 1 -3.48 1.986c-2.463 0-3.891-1.642-3.891-4.067v-5.648a.739.739 0 0 1 .747-.768.768.768 0 0 1 .767.768v5.27c0 1.888 1.022 3.066 2.812 3.066s3.045-1.276 3.045-3.185v-5.151a.739.739 0 0 1 .747-.768.751.751 0 0 1 .747.768zm2.418-13.016a.757.757 0 1 1 1.514 0v5.562c.821-1.232 2.024-2.262 3.891-2.262 2.439 0 4.856 1.925 4.856 5.27v.041c0 3.321-2.397 5.287-4.856 5.287a4.585 4.585 0 0 1 -3.89-2.163v1.276a.751.751 0 0 1 -1.29.543.768.768 0 0 1 -.225-.543v-13.01zm8.71 8.62v-.041c0-2.397-1.642-3.932-3.58-3.932a3.788 3.788 0 0 0 -3.694 3.911v.041a3.784 3.784 0 0 0 3.694 3.932c1.967.013 3.571-1.44 3.571-3.899zm5.86 3.607 4.7-4.15c2.122-1.887 2.874-2.95 2.874-4.325 0-1.613-1.277-2.635-2.771-2.635s-2.438.706-3.419 2.007a.714.714 0 0 1 -1.277-.431.69.69 0 0 1 .156-.431c1.142-1.593 2.397-2.537 4.659-2.537 2.463 0 4.265 1.642 4.265 3.891v.041c0 2.007-1.063 3.243-3.481 5.336l-3.694 3.284h6.666a.71.71 0 1 1 0 1.416h-8.267a.73.73 0 0 1 -.788-.727.895.895 0 0 1 .378-.739zm10.775-5.385v-.04c0-3.855 2.299-7.118 5.84-7.118 3.543 0 5.78 3.226 5.78 7.076v.041c0 3.854-2.282 7.118-5.82 7.118s-5.8-3.222-5.8-7.077zm10.007 0v-.04c0-3.01-1.642-5.702-4.207-5.702-2.566 0-4.187 2.635-4.187 5.664v.041c0 3.009 1.642 5.702 4.228 5.702s4.166-2.656 4.166-5.665zm3.066 0v-.04c0-3.855 2.298-7.118 5.84-7.118 3.543 0 5.78 3.226 5.78 7.076v.041c0 3.854-2.283 7.118-5.82 7.118-3.539 0-5.8-3.222-5.8-7.077zm10.007 0v-.04c0-3.01-1.642-5.702-4.208-5.702-2.565 0-4.186 2.635-4.186 5.664v.041c0 3.009 1.642 5.702 4.227 5.702 2.586 0 4.167-2.656 4.167-5.665zm3.07 0v-.04c0-3.855 2.298-7.118 5.84-7.118s5.78 3.226 5.78 7.076v.041c0 3.854-2.283 7.118-5.82 7.118-3.539 0-5.8-3.222-5.8-7.077zm10.006 0v-.04c0-3.01-1.641-5.702-4.207-5.702-2.565 0-4.186 2.635-4.186 5.664v.041c0 3.009 1.642 5.702 4.227 5.702 2.586 0 4.166-2.656 4.166-5.665zm-30.574-12.772v-2.873a.669.669 0 1 1 1.338 0v2.828c0 .993.497 1.506 1.314 1.506.816 0 1.313-.496 1.313-1.46v-2.874a.669.669 0 0 1 1.338 0v2.82c0 1.843-1.034 2.746-2.672 2.746s-2.63-.9-2.63-2.693zm6.674-2.86a.669.669 0 0 1 1.338 0v4.252h2.463a.616.616 0 0 1 0 1.231h-3.148a.665.665 0 0 1 -.67-.669l.017-4.815zm5.935.632h-1.289a.616.616 0 0 1 0-1.232h3.916a.616.616 0 0 1 0 1.232h-1.289v4.235a.669.669 0 0 1 -1.338 0zm4.281-.633a.669.669 0 0 1 1.338 0v4.852a.669.669 0 0 1 -1.338 0zm2.865.021a.665.665 0 0 1 .669-.67h.148a.685.685 0 0 1 .607.35l1.617 2.635 1.642-2.643a.657.657 0 0 1 .6-.341h.147a.665.665 0 0 1 .67.669v4.835a.665.665 0 1 1 -1.33 0v-3.037l-1.19 1.81a.628.628 0 0 1 -1.113 0l-1.154-1.765v3.025a.653.653 0 0 1 -.66.652.644.644 0 0 1 -.653-.652zm7.216 4.589 2.11-4.798a.82.82 0 0 1 .783-.53h.078a.82.82 0 0 1 .78.53l2.122 4.79a.653.653 0 0 1 .07.27.636.636 0 0 1 -.636.645.681.681 0 0 1 -.645-.46l-.41-.956h-2.68l-.41 1.001a.657.657 0 0 1 -.616.41.616.616 0 0 1 -.62-.627.71.71 0 0 1 .074-.275zm3.763-1.687-.833-2.007-.841 2.007zm4.006-2.29h-1.288a.616.616 0 0 1 0-1.232h3.915a.616.616 0 1 1 0 1.232h-1.309v4.235a.669.669 0 0 1 -1.338 0zm4.22 4.17v-4.75a.665.665 0 0 1 .669-.652h3.374c.33.002.597.27.599.6a.595.595 0 0 1 -.6.59h-2.712v1.232h2.335c.33.002.597.27.6.6a.595.595 0 0 1 -.6.59h-2.323v1.277h2.734c.33.002.597.269.599.599a.595.595 0 0 1 -.6.59h-3.406a.665.665 0 0 1 -.67-.676z"/></g></g></svg>