<svg xmlns="http://www.w3.org/2000/svg" width="115" height="14" fill="none"><path fill="#fff" d="M0 13.33V5.122a3.066 3.066 0 0 1 3-3.07h8.47c.262 0 .477.215.477.478V4.5a.32.32 0 0 1-.319.318H3.484c-.248 0-.449.201-.449.45v.912a.45.45 0 0 0 .436.45h7.39c.25 0 .45.2.45.449v1.68c0 .249-.202.45-.45.45H3.484c-.248 0-.449.2-.449.449v.899c0 .248.201.45.45.45h8.33c.22 0 .304.075.207.269l-.94 1.97c-.228.476-.429.546-.636.546H.476A.46.46 0 0 1 0 13.329M13.405 13.33V2.523c0-.263.215-.478.477-.478H15.7c.263 0 .477.214.477.478v8.067a.45.45 0 0 0 .45.429h7.819c.221 0 .304.075.207.269l-.94 1.97c-.228.477-.428.546-.636.546h-9.194a.477.477 0 0 1-.477-.476"/><path fill="#fff" d="M20.795 4.335V.477c0-.263.215-.477.477-.477h1.888c.263 0 .477.215.477.477v1.14a.454.454 0 0 0 .45.43h6.443c2.012 0 2.918 2.204 2.185 3.774L29.08 13.55c-.083.18-.207.256-.436.256h-2.309c-.594 0-.711-.304-.511-.733 0 0 3.58-7.605 3.643-7.736.152-.325-.16-.518-.463-.518h-7.73a.49.49 0 0 1-.476-.484M39.856 13.806h-8.2c-.594 0-.712-.304-.512-.733l.83-1.763c.09-.187.186-.283.49-.283h4.528s-1.846-8.165-1.908-8.42c-.07-.29.173-.554.47-.554h2.157c.207 0 .45.14.498.325l1.901 8.511c.083.373.208.4.373.02.049-.103 3.644-8.434 3.713-8.593a.43.43 0 0 1 .408-.263h2.468c.325 0 .539.387.38.754-.145.325-3.65 8.178-3.746 8.4-.976 2.143-2.025 2.599-3.85 2.599M53.884 5.081c0-.249-.201-.45-.45-.45h-1.3c-.276 0-.414.084-.483.236-.042.083-1.978 4.203-1.978 4.203h3.76a.45.45 0 0 0 .45-.422zm2.786 8.227a.496.496 0 0 1-.498.498h-1.88a.496.496 0 0 1-.498-.498V11.67h-5.338l-.656 1.396c-.27.574-.484.74-.926.74h-1.577c-.594 0-.712-.311-.512-.74l4.349-9.333c.49-1.05 1.486-1.687 2.454-1.687h4.583c.277 0 .498.221.498.498zM58.48 13.33V2.523c0-.263.216-.478.478-.478h1.818c.263 0 .476.214.476.478v8.067a.45.45 0 0 0 .45.429h7.819c.221 0 .304.075.207.269l-.947 1.97c-.228.477-.429.546-.637.546H58.95a.476.476 0 0 1-.47-.476"/><path fill="#fff" d="M65.885 4.335V.477c0-.263.215-.477.477-.477h1.887c.263 0 .477.215.477.477v1.14a.454.454 0 0 0 .45.43h6.436c2.012 0 2.918 2.204 2.185 3.774L74.16 13.55c-.083.18-.207.256-.436.256h-2.309c-.595 0-.712-.304-.512-.733l3.644-7.736c.152-.325-.16-.518-.463-.518h-7.722a.49.49 0 0 1-.477-.484M91.305 3.982c-.318.677-3.366 7.231-3.366 7.231l1.155 2.033c.186.325.152.566-.353.566h-2.17c-.34 0-.547-.13-.678-.359-.062-.117-3.257-5.724-3.257-5.724S80.791 11.655 80.625 12c-.236.498-.706 1.106-1.314 1.439-.58.318-1.113.373-2.012.373h-.104c-.65 0-.594-.34-.484-.574.07-.146 4.107-8.732 4.107-8.732s-1.044-1.832-1.113-1.956c-.201-.353 0-.506.331-.506h2.074c.422 0 .733.194.92.526l3.077 5.406 2.647-5.683c.083-.173.242-.249.464-.249h1.776c.609 0 1.05.347.311 1.937M91.7 11.02h17.864c.325 0 .464.263.311.588l-.754 1.61c-.152.326-.539.588-.864.588H90.4c-.325 0-.463-.263-.311-.588l.753-1.61c.152-.325.533-.588.858-.588M95.91 2.046h17.865c.324 0 .462.263.311.588l-.754 1.61c-.152.326-.54.588-.865.588H94.603c-.325 0-.463-.262-.31-.587l.753-1.611c.152-.325.54-.588.864-.588M102.567 5.752l.325.864h1.231c.263 0 .325.208.069.491l-.781.899.318.843c.076.187.09.394-.359.394h-1.038l-.781.899c-.193.22-.263.228-.366-.049l-.318-.85h-1.259c-.263 0-.325-.207-.07-.49l.816-.92-.311-.823c-.069-.187-.09-.394.36-.394h1.01l.795-.913c.186-.22.256-.227.359.05"/></svg>