<svg xmlns="http://www.w3.org/2000/svg" width="117" height="20" fill="none"><g fill="#fff" clip-path="url(#a)"><path d="M18.51 12.257s-4.75-2.17-4.66-3.357a.472.472 0 0 1 .186-.326s2.474-2.726 7.272-4.646c3.87-1.554 4.786-1.447 4.786-1.447-.068 1.777 1.081 3.178 2.932 3.823 0 0 7.255-2.31 11.35-2.641 4.943-.402 6.739 1.439 6.739 1.439s4.107.237 5.47 1.079c0 0 .175.139.166.21-.002.025-.026.038-.083.038-.227.003-.981-.162-2.082-.044-2.632.284-7.377.865-8.778 1.644 0 0-7.615 12.07-41.808 11.896 0 0 10.583-2.307 18.51-7.668ZM26.762.44c.304-.017 1.014.104 1.165.511 0 0-1.112-.665-15.163 3.796C8.357 6.14 1.716 1.516.017.069c0 0 5.312 1.4 26.745.372ZM61.513 2.82h-.021l-.907 2.675h1.82l-.892-2.675Zm-1.529 4.35-.58 1.46h-2.318L60.322.222h2.385l3.166 8.41H63.54l-.546-1.461h-3.01ZM69.875 8.63h-2.186V2.072h-2.231V.223h6.654v1.848h-2.237v6.56ZM75.303 6.779h2.622V8.63H73.12V.223h2.184V6.78ZM83.233 2.82h-.024l-.903 2.675h1.818l-.891-2.675Zm-1.529 4.35-.58 1.46h-2.32L82.039.222h2.383l3.17 8.41H85.26l-.547-1.461h-3.009ZM88.638.221h2.188l4 5.14h.021V.221h2.189v8.41h-2.189l-4.003-5.15h-.018v5.15h-2.188V.22ZM102.454 8.63h-2.189V2.072h-2.231V.223h6.653v1.848h-2.233v6.56ZM108.161 8.628h-2.184V.221h2.184v8.407ZM115.964 3.041c-.444-.6-1.171-.922-1.921-.922-1.333 0-2.235 1.024-2.235 2.33 0 1.325.911 2.285 2.268 2.285.717 0 1.433-.347 1.888-.893v2.622c-.725.223-1.247.391-1.927.391a4.706 4.706 0 0 1-3.158-1.235c-.925-.84-1.351-1.934-1.351-3.181a4.39 4.39 0 0 1 1.24-3.076A4.543 4.543 0 0 1 113.969 0c.699 0 1.348.155 1.995.421v2.62ZM61.513 13.97h-.021l-.907 2.678h1.82l-.892-2.678Zm-1.529 4.35-.58 1.458h-2.318l3.236-8.408h2.385l3.166 8.408H63.54l-.546-1.459h-3.01ZM69.875 19.778h-2.186V11.37h2.186v8.408ZM75.01 15.14h.21c.714 0 1.517-.132 1.517-1.046 0-.916-.803-1.051-1.518-1.051h-.209v2.098Zm4.804 4.638h-2.721l-2.06-3.232h-.023v3.232h-2.186V11.37h3.266c1.663 0 2.924.794 2.924 2.588 0 1.159-.65 2.162-1.841 2.377l2.64 3.443ZM83.959 16.802h.022l1.764-5.432h1.737l1.649 5.432h.023l1.584-5.432h2.273l-2.686 8.408h-2.23l-1.473-4.87H86.6l-1.648 4.87h-2.219l-2.51-8.408h2.273l1.463 5.432ZM97.497 13.97h-.022l-.903 2.678h1.818l-.893-2.678Zm-1.525 4.35-.583 1.458h-2.316l3.23-8.408h2.388l3.166 8.408h-2.332l-.545-1.459h-3.008ZM101.305 11.37h2.62l1.571 2.287 1.572-2.287h2.624l-3.102 4.372v4.036h-2.181v-4.036l-3.104-4.372ZM115.061 13.536c-.403-.335-.915-.557-1.452-.557-.399 0-.934.234-.934.7 0 .493.589.68.968.803l.558.168c1.173.344 2.074.937 2.074 2.296 0 .835-.199 1.694-.866 2.264-.66.556-1.542.79-2.391.79a5.171 5.171 0 0 1-2.951-.956l.934-1.763c.548.483 1.191.87 1.943.87.513 0 1.057-.257 1.057-.848 0-.612-.858-.827-1.326-.959-1.372-.39-2.276-.748-2.276-2.374 0-1.706 1.216-2.823 2.899-2.823.848 0 1.884.27 2.632.694l-.869 1.695Z"/></g><defs><clipPath id="a"><path fill="#fff" d="M0 0h116.275v20H0z"/></clipPath></defs></svg>