<svg xmlns="http://www.w3.org/2000/svg" width="141" height="24" fill="none"><path fill="#7E1D2E" d="M15.74.054c1.017-.167 2.427.012 2.786 1.16.2-.398.47-.793.897-.963.602-.305 1.286-.245 1.934-.193-.632.542-.894 1.365-1.084 2.15-.337 1.44-.42 2.92-.64 4.38-.063.318-.11.652-.278.933-.145.195-.392.266-.594.383.012 1.608 0 3.216.006 4.825.204.182.405.366.608.551.52-2.417 1.052-4.835 1.717-7.218a30.321 30.321 0 0 1 1.298-4.04c.222-.573.722-1.067 1.354-1.13 1.125-.151 2.17.448 3.085 1.033-.408.096-.835.192-1.159.474-.466.395-.765.944-1.031 1.486-.525 1.123-1.032 2.255-1.556 3.38-.213.39-.405.856-.833 1.053-.422-.004-.821-.182-1.232-.263-.44 1.865-.897 3.73-1.25 5.614.016.286.162.711.475.774 2.014-3.588 3.99-7.252 6.697-10.373.43-.534 1.142-.85 1.821-.673 1.146.247 1.944 1.2 2.615 2.096-.863-.078-1.745.182-2.4.757-1.066.927-1.99 2.007-3.056 2.934-.285.22-.599.49-.978.476-.356-.096-.647-.338-.98-.49-.168-.13-.25.15-.333.245-1.125 1.827-2.132 3.718-3.18 5.59.153.322.316.64.49.954 2.165-2.456 4.408-4.868 7.003-6.876a17.872 17.872 0 0 1 2.563-1.686c.915-.506 2.149-.306 2.858.464.588.667.95 1.504 1.269 2.327-.77-.343-1.646-.474-2.463-.22-1.372.405-2.588 1.2-3.922 1.703-.311.1-.667.197-.978.049-.323-.215-.573-.52-.856-.78-1.588 1.407-3.038 2.958-4.454 4.539-.25.289-.535.553-.737.88.015.42.278.784.435 1.164 3.067-2.338 6.27-4.687 10.03-5.748 1.067-.273 2.28-.516 3.294.06.65.35 1.006 1.044 1.178 1.737.163.562.285 1.136.352 1.717-1.302-1.102-3.11-1.007-4.69-.764-.876.08-1.81.424-2.662.078-.285-.32-.448-.726-.664-1.092-2.374 1.215-4.549 2.788-6.632 4.448.148.431.315.855.504 1.27 3.192-1.691 6.59-3.28 10.258-3.437 1.291-.006 2.753.115 3.715 1.085.893.967.733 2.391.594 3.594-.296-.427-.616-.86-1.082-1.117-1.304-.748-2.837-.863-4.3-1.011-.456-.078-.965-.09-1.35-.38-.28-.38-.28-.886-.434-1.32-2.55.63-4.939 1.767-7.237 3.023.057.343.217.692.145 1.042-.239.42-.612.74-.935 1.094-.84.823-1.716 1.664-2.811 2.133-.695.247-1.336-.264-1.885-.622a16.298 16.298 0 0 1-2.516-2.403c-.314-.36-.037-.84.026-1.242-2.318-1.235-4.706-2.438-7.282-3.004-.135.551-.11 1.396-.827 1.513-1.453.326-2.988.236-4.394.794a3.421 3.421 0 0 0-1.887 1.462c-.25-.839-.191-1.735.016-2.575.272-.966 1.168-1.613 2.103-1.844 1.638-.407 3.356-.202 4.982.173 2.635.6 5.075 1.805 7.46 3.04.171-.422.339-.846.5-1.271-2.1-1.642-4.256-3.247-6.645-4.442-.215.36-.366.767-.65 1.079-.512.254-1.106.15-1.653.084-1.296-.18-2.62-.453-3.927-.216-.663.11-1.269.433-1.796.843.116-.799.288-1.591.57-2.35.306-.783 1.072-1.325 1.891-1.435.992-.14 1.977.144 2.921.416 3.522 1.14 6.574 3.33 9.461 5.594.171-.355.367-.698.486-1.074-.014-.162-.15-.276-.244-.4-1.576-1.774-3.2-3.51-4.953-5.113-.451.357-.842 1.034-1.516.819-1.574-.453-2.931-1.5-4.54-1.858-.733-.176-1.496-.015-2.175.284.265-.756.609-1.488 1.083-2.135.64-.855 1.883-1.182 2.855-.74.656.296 1.247.711 1.844 1.106 2.977 2.12 5.487 4.812 7.905 7.535.17-.31.334-.627.477-.952-1.107-1.98-2.15-4-3.389-5.905-.498.217-1.034.809-1.594.423-.806-.495-1.398-1.256-2.09-1.892-.79-.731-1.484-1.662-2.549-2-.42-.16-.875-.142-1.317-.133.774-.971 1.694-2.119 3.044-2.143.832-.042 1.385.656 1.861 1.234 2.486 3.042 4.384 6.504 6.283 9.93.17-.234.39-.455.46-.744-.347-1.917-.825-3.81-1.258-5.71-.405.072-.796.227-1.209.251-.399-.1-.566-.53-.761-.849-.663-1.35-1.238-2.743-1.923-4.082-.377-.739-1.039-1.357-1.887-1.453.808-.605 1.794-1.077 2.82-1.065.688-.008 1.293.474 1.553 1.094.532 1.305.96 2.651 1.298 4.019.667 2.411 1.227 4.852 1.737 7.3.204-.181.433-.342.596-.565.044-1.602-.01-3.205.026-4.809-.244-.142-.56-.243-.673-.53-.113-.265-.163-.553-.214-.838-.205-1.444-.3-2.91-.627-4.334-.183-.786-.467-1.59-1.074-2.15l.006.004Z"/><path fill="#29812F" d="M91.824 10.51c.583-.024 1.168-.018 1.754-.013-.595 3.055-1.35 6.079-1.875 9.148-.542.04-1.085.036-1.626.003.043-.346.097-.69.162-1.033-.471.572-1.097 1.074-1.854 1.155-.585.052-1.236.015-1.707-.38-.608-.452-.774-1.275-.743-1.996.052-1.235.46-2.507 1.354-3.386.734-.707 1.847-1.068 2.83-.725.432.144.716.517.94.894.242-1.226.526-2.442.765-3.668m-2.556 3.899c-.49.18-.84.61-1.053 1.074a4.361 4.361 0 0 0-.41 2.15c.029.388.248.818.647.93.36.06.774.064 1.077-.172.59-.444.89-1.163 1.061-1.86.122-.585.21-1.24-.077-1.789-.247-.424-.82-.466-1.243-.332l-.002-.001Zm-32.598-2.32c.064-.476.162-.945.264-1.415.583 0 1.165-.006 1.748.008-.056.459-.146.912-.237 1.363-.588.082-1.182.047-1.773.044h-.002Zm-6.172-.901c.821-.015 1.642-.015 2.463-.01.489 2.822.967 5.646 1.407 8.475-.637.03-1.273.038-1.908-.015-.075-.693-.17-1.385-.255-2.078a74.983 74.983 0 0 0-3.57 0c-.377.7-.782 1.382-1.164 2.078-.632.06-1.267.05-1.897.005 1.603-2.842 3.298-5.63 4.924-8.457m.197 2.62c-.437.821-.98 1.588-1.343 2.448.888.007 1.775 0 2.662.004-.078-1.26-.288-2.513-.515-3.754-.33.393-.556.857-.804 1.302Zm17.618-2.616c.93-.028 1.862-.008 2.794-.011.265 2.127.495 4.258.793 6.381 1.23-2.099 2.329-4.271 3.533-6.384.919.003 1.84-.005 2.758.006-.527 2.833-1.198 5.64-1.763 8.47-.568.032-1.14.029-1.707-.008.444-2.365 1.038-4.703 1.46-7.073-1.352 2.32-2.59 4.703-3.912 7.038-.536.14-1.103.052-1.648.04-.342-2.353-.581-4.722-.924-7.075-.599 2.335-1.02 4.717-1.534 7.073-.548.038-1.1.038-1.647-.003.6-2.818 1.195-5.635 1.797-8.453v-.001Zm-6.095 2.175c.411-.248.91-.223 1.37-.197-.077.515-.217 1.016-.336 1.522-.513.043-1.078.008-1.518.318-.553.435-.885 1.097-1.04 1.774-.221.95-.41 1.907-.608 2.862-.586.047-1.175.04-1.76.005.399-2.125.926-4.226 1.303-6.356a41.751 41.751 0 0 1 1.637.008c-.073.387-.143.774-.21 1.163.32-.43.67-.859 1.16-1.099h.002Zm18.33.537c1.446-.892 3.25-.909 4.854-.499-.347 2.089-1.036 4.122-1.157 6.246-.591.033-1.18.036-1.77.015.044-.488.128-.972.203-1.455-.389.572-.824 1.18-1.504 1.417-.732.266-1.655.261-2.266-.286-.436-.378-.581-.984-.606-1.538-.04-1.591.893-3.106 2.247-3.9m-.35 3.236c-.031.485-.103 1.152.429 1.401.513.172 1.078-.06 1.42-.46.925-1.004 1.115-2.41 1.415-3.687-1.652-.384-3.087 1.205-3.263 2.746h-.002Zm15.331-3.118c1.474-1.007 3.389-1.071 5.061-.594-.407 2.07-1.036 4.105-1.187 6.218-.595.044-1.192.043-1.786-.005l.218-1.425c-.4.638-.923 1.266-1.675 1.468-.646.169-1.404.178-1.965-.232-.508-.378-.723-1.036-.715-1.65-.058-1.516.793-2.972 2.05-3.778m-.115 4.09c.09.365.483.516.826.478.624-.005 1.05-.548 1.362-1.025.575-.976.84-2.111.983-3.227-1.998-.297-3.6 1.916-3.17 3.771v.002Zm7.946-4.239c1.426-.858 3.182-.849 4.755-.463-.246 1.27-.561 2.525-.826 3.79-.275 1.212-.467 2.467-1.04 3.584-.425.863-1.285 1.467-2.223 1.634-1.206.214-2.466.168-3.637-.21.087-.408.206-.808.317-1.212 1.06.36 2.325.616 3.335-.018.825-.544.97-1.596 1.211-2.478-.433.54-1.001 1.043-1.717 1.114-.656.074-1.417.085-1.935-.392-.589-.496-.669-1.351-.554-2.069.178-1.392 1.095-2.616 2.311-3.28m-.46 3.401c-.006.418-.079.98.334 1.236.565.235 1.23-.024 1.602-.49.866-1.004 1.026-2.383 1.343-3.624-1.696-.378-3.181 1.276-3.277 2.878h-.002Zm7.022-2.677c.911-.897 2.175-1.403 3.445-1.448.783-.03 1.562.08 2.324.247-.373 2.084-1.037 4.12-1.17 6.242-.597.037-1.194.053-1.789.01.061-.484.14-.965.239-1.44-.425.659-.987 1.306-1.776 1.503-.648.132-1.401.129-1.94-.309-.478-.376-.655-1.012-.671-1.599-.011-1.19.466-2.394 1.338-3.206Zm.539 3.07c-.041.412.212.905.667.915.641.11 1.158-.39 1.496-.873.664-.996.888-2.205 1.093-3.362-1.836-.289-3.368 1.578-3.254 3.32h-.002Zm8.409-4.463a6.06 6.06 0 0 1 2.708.23c-.116.367-.239.73-.369 1.092-.773-.277-1.667-.49-2.453-.14-.394.142-.606.755-.199 1.008.694.52 1.614.716 2.196 1.395.287.33.298.802.243 1.215-.134.751-.773 1.325-1.48 1.536-1.18.38-2.479.32-3.655-.046.079-.398.186-.788.315-1.172.856.383 1.895.6 2.764.138.369-.2.527-.799.144-1.063-.69-.522-1.615-.707-2.186-1.393-.434-.61-.291-1.522.25-2.02.455-.466 1.1-.668 1.724-.781l-.002.002Zm4.382 1.042c1.192-1.152 3.047-1.335 4.571-.83-.064.39-.144.777-.213 1.166-.679-.21-1.428-.357-2.115-.103-.958.38-1.57 1.382-1.636 2.391-.087.66.247 1.419.902 1.646.674.256 1.395.008 2.06-.162-.067.381-.09.771-.212 1.14-.204.19-.522.175-.781.231-.974.092-2.072.184-2.904-.439-.624-.4-.921-1.157-.935-1.877-.014-1.161.39-2.369 1.261-3.161l.002-.002Zm6.709-.315c1.458-.925 3.291-.944 4.918-.523-.354 2.085-1.05 4.117-1.158 6.24-.594.044-1.188.033-1.78-.013.061-.44.116-.881.152-1.327-.409.61-.939 1.195-1.673 1.391-.699.165-1.538.133-2.082-.393-.503-.485-.605-1.236-.545-1.903.088-1.43.967-2.733 2.168-3.473m1.744.523c-1.168.413-1.925 1.61-2.054 2.812-.043.445-.023.998.399 1.265.545.185 1.148-.04 1.504-.479.87-1.02 1.136-2.396 1.34-3.685-.399-.023-.811-.062-1.189.088v-.001Zm7.69-1.189c.375-.151.783-.104 1.177-.082-.111.526-.254 1.046-.396 1.566-.484.005-1.026-.067-1.439.245-.607.416-.935 1.117-1.098 1.818-.219.944-.382 1.901-.616 2.84-.581.033-1.162.04-1.741 0 .388-2.123.94-4.216 1.288-6.347a25.185 25.185 0 0 1 1.633-.01c-.047.35-.096.698-.128 1.049.382-.42.752-.914 1.322-1.08l-.002.001Zm-82.973.018a94.283 94.283 0 0 1 1.731.005c-.39 2.13-.885 4.238-1.317 6.359-.586.036-1.171.036-1.756 0 .437-2.124.873-4.247 1.342-6.364Z"/></svg>