<svg width="128" height="32" xmlns="http://www.w3.org/2000/svg"><g fill="#49559F"><g transform="translate(97.524)"><path d="M4.034.726 4.028.703l-.342-.66a.055.055 0 0 0-.103.014l-.127.616a.055.055 0 0 1-.098.022l-.383-.51a.055.055 0 0 0-.1.033l-.01.637a.055.055 0 0 1-.093.04L2.28.46a.055.055 0 0 0-.091.05l.102.636a.055.055 0 0 1-.084.056L1.66.855a.055.055 0 0 0-.082.064l.237.703.012.02 1.59 1.7a.04.04 0 0 0 .055.002c.175-.15.397-.245.64-.264a.04.04 0 0 0 .037-.04L4.034.725zM1.63 1.851l-.02-.012-.71-.225a.055.055 0 0 0-.062.083l.345.526a.055.055 0 0 1-.053.085l-.63-.09a.055.055 0 0 0-.048.093l.442.459c.033.034.01.09-.036.093l-.656.04a.055.055 0 0 0-.029.1l.522.378a.055.055 0 0 1-.02.099l-.632.14a.055.055 0 0 0-.012.104l.664.33.023.005 2.326.077a.04.04 0 0 0 .04-.037c.019-.23.108-.454.267-.639a.04.04 0 0 0-.003-.055L1.63 1.85zM.726 4.347l-.023.006-.66.342a.055.055 0 0 0 .014.103l.616.127c.046.01.06.07.022.099l-.51.382a.055.055 0 0 0 .033.1l.637.01c.047.002.072.057.04.092l-.435.493c-.034.039 0 .1.05.09l.637-.101a.055.055 0 0 1 .055.084l-.347.546a.055.055 0 0 0 .064.082l.703-.237.02-.012 1.7-1.59a.04.04 0 0 0 .002-.055 1.115 1.115 0 0 1-.263-.64.04.04 0 0 0-.041-.037l-2.314.116zM1.851 6.75c-.003.008-.008.014-.012.021l-.225.71c-.016.049.04.09.083.062l.526-.345a.055.055 0 0 1 .085.053l-.09.63a.055.055 0 0 0 .093.048l.459-.442a.055.055 0 0 1 .093.036l.04.656c.004.052.07.07.1.029l.378-.522a.055.055 0 0 1 .099.02l.14.632c.012.05.08.059.104.012l.33-.664.005-.023.077-2.326a.04.04 0 0 0-.037-.04 1.115 1.115 0 0 1-.639-.267.04.04 0 0 0-.055.003L1.85 6.75zm2.496.905.005.023.342.66a.055.055 0 0 0 .104-.014l.127-.616c.01-.046.07-.06.098-.022l.383.51c.031.041.098.02.099-.033l.011-.637a.055.055 0 0 1 .092-.04l.493.435c.038.034.099 0 .09-.05l-.101-.637a.055.055 0 0 1 .084-.055l.546.347a.055.055 0 0 0 .081-.064l-.236-.703-.012-.02-1.59-1.7a.04.04 0 0 0-.055-.002c-.176.15-.397.245-.64.264a.04.04 0 0 0-.038.04l.117 2.314zM6.75 6.53l.021.011.71.226c.049.016.09-.04.062-.083l-.345-.526a.055.055 0 0 1 .053-.085l.63.09a.055.055 0 0 0 .048-.093l-.442-.459a.055.055 0 0 1 .036-.093l.656-.04a.055.055 0 0 0 .029-.1L7.686 5a.055.055 0 0 1 .02-.099l.632-.14a.056.056 0 0 0 .012-.104l-.664-.33a10.417 10.417 0 0 0-.023-.005l-2.326-.077a.04.04 0 0 0-.04.037c-.019.23-.108.454-.267.639a.04.04 0 0 0 .003.055L6.75 6.53zm.905-2.496.023-.006.66-.342a.055.055 0 0 0-.014-.103l-.616-.127a.055.055 0 0 1-.022-.099l.51-.382a.055.055 0 0 0-.033-.1l-.637-.01a.055.055 0 0 1-.04-.093l.435-.492c.034-.039 0-.1-.05-.091l-.637.102a.055.055 0 0 1-.055-.084l.347-.546a.055.055 0 0 0-.064-.082l-.703.237-.02.012-1.7 1.59a.04.04 0 0 0-.002.055c.15.175.245.397.263.64a.04.04 0 0 0 .041.037l2.314-.116zM6.53 1.63l.011-.02.226-.71a.055.055 0 0 0-.083-.062l-.526.345a.055.055 0 0 1-.085-.053l.09-.63A.055.055 0 0 0 6.07.451l-.459.442a.055.055 0 0 1-.093-.036l-.04-.656a.056.056 0 0 0-.1-.029L5 .695a.055.055 0 0 1-.1-.02L4.76.043a.055.055 0 0 0-.104-.012l-.33.664-.005.023-.077 2.326a.04.04 0 0 0 .037.04c.23.019.454.108.639.267a.04.04 0 0 0 .055-.003L6.53 1.63z"/><circle cx="4.19" cy="4.19" r="1"/></g><path d="M21.73 24.95c0 3.835-3.018 6.74-9.094 6.74H0V6.044h11.951c6.278 0 8.41 3.68 8.41 6.78 0 3.292-1.69 4.958-3.58 5.772 2.253.697 4.95 2.518 4.95 6.353zM3.018 17.51h8.933c2.777 0 5.393-1.317 5.393-4.455 0-2.131-1.408-4.262-5.07-4.262H3.018v8.717zm15.694 7.206c0-2.402-1.851-4.572-6.076-4.572H3.018v8.794h9.94c3.661 0 5.754-1.55 5.754-4.222zm22.092 1.396h3.3C42.694 29.598 39.716 32 34.927 32c-6.156 0-10.18-4.455-10.18-9.995 0-5.54 3.822-9.995 9.98-9.995 6.156 0 9.98 4.455 9.98 9.995v1.162H27.845c.442 3.448 3.058 6.199 7.122 6.199 2.817 0 4.75-1.318 5.836-3.254zm-12.918-5.657h13.682c-.563-3.293-2.978-5.81-6.84-5.81-3.864 0-6.279 2.517-6.842 5.81zm23.54 11.235h-3.018V4.571h3.018zm20.925-16.232V12.32h3.018v19.37h-3.018v-3.099C70.862 30.683 68.488 32 65.148 32c-5.875 0-9.739-4.455-9.739-9.995 0-5.54 3.864-9.995 9.739-9.995 3.34 0 5.714 1.356 7.203 3.448zm.161 6.547c0-3.99-2.495-7.361-6.962-7.361s-7.122 3.37-7.122 7.36c0 3.991 2.655 7.362 7.122 7.362 4.467 0 6.962-3.37 6.962-7.361zM97.46 12.32l-7.846 19.37h-3.542l-7.887-19.37h3.3l6.358 16.271L94.16 12.32zm2.817 0h3.018v19.37h-3.018zm23.943 3.138V12.32h3.018v19.37h-3.018v-3.099c-1.49 2.092-3.863 3.409-7.204 3.409-5.874 0-9.738-4.455-9.738-9.995 0-5.54 3.864-9.995 9.738-9.995 3.34 0 5.715 1.356 7.204 3.448zm.16 6.547c0-3.99-2.494-7.361-6.96-7.361-4.468 0-7.124 3.37-7.124 7.36 0 3.991 2.656 7.362 7.123 7.362 4.467 0 6.962-3.37 6.962-7.361z"/></g></svg>