<svg width="153" height="24" viewBox="0 0 153 24" fill="none" xmlns="http://www.w3.org/2000/svg">
<path d="M16.1271 21.1291C6.43428 25.9568 2.6518 18.952 2.6518 18.952C0.516536 14.4073 3.13472 10.0639 3.13472 10.0639C5.6206 5.15614 10.3527 3.22154 10.3527 3.22154C16.9754 0.375493 20.763 3.57803 20.763 3.57803C26.0971 7.55235 22.7549 14.2331 22.7549 14.2331C22.2433 15.6186 20.9762 17.0644 19.6803 18.2757C19.3005 18.0284 18.9307 17.7661 18.5719 17.4892L12.954 12.8821C12.954 12.8821 12.7026 12.6998 13.0643 12.6616C13.0643 12.6616 16.3271 12.0779 17.2848 11.312C17.2848 11.312 20.2257 9.87284 20.6233 7.72802C20.6233 7.72802 21.2334 5.37739 20.2948 4.00067C20.2948 4.00067 19.9618 3.77722 19.8538 4.03448C19.8538 4.03448 18.172 5.75887 16.724 6.69015L12.402 9.47813C12.402 9.47813 12.0734 9.69717 12.3314 9.19147L13.5751 5.90073C13.5751 5.90073 14.269 4.76878 12.3697 4.91211C12.3697 4.91211 9.49348 5.20759 7.90581 7.15543C7.90581 7.15543 7.7838 7.2157 8.00504 7.28626L8.92016 7.25172C8.92016 7.25172 6.31814 13.3172 6.28654 13.6862C6.28654 13.6862 5.37363 16.5433 5.81171 19.3165L10.413 19.4562C10.413 19.4562 9.1414 18.8468 9.94479 15.5907C9.94479 15.5907 10.4961 13.6524 10.8981 13.5017C10.8981 13.5017 11.0121 13.3179 11.0812 13.6524C11.0812 13.6524 11.9963 16.9358 14.4579 19.4297C14.4579 19.4297 15.0099 20.164 16.222 21.0644C16.1893 21.0844 16.1577 21.106 16.1271 21.1291ZM26.5933 18.1861C26.5933 18.1861 25.3511 19.576 22.1632 19.3165C22.1632 19.3165 21.9339 19.3592 21.3819 19.1666C23.0313 17.3819 24.6616 14.7138 24.7483 11.104C24.7483 11.104 25.3878 4.63721 19.5443 1.44203C19.5443 1.44203 15.6972 -0.97623 10.6357 0.450467C10.6357 0.450467 3.8308 2.40051 1.47869 7.87576C1.47869 7.87576 -1.68341 12.9548 1.24054 18.5719C1.24054 18.5719 2.98477 22.5044 7.64635 23.6194C7.64635 23.6194 13.4208 25.1571 17.7766 22.0509C18.3719 22.3838 19.0357 22.7094 19.8133 23.0101C19.8133 23.0101 23.1518 23.8921 25.1261 22.2353C25.1261 22.2353 26.8123 21.2188 26.8549 18.261C26.8549 18.261 26.8785 17.9567 26.5933 18.1861ZM32.5911 4.58135H35.7915L34.6125 10.2676H34.6492L39.0631 4.58135H41.5894L37.4563 9.90077L41.2329 16.5543H37.6018L34.5478 10.8703H34.5198L33.4026 16.5543H30.1979L32.5911 4.58135Z" fill="white"/>
<path d="M50.079 13.5664C49.0007 14.1471 47.1815 14.8769 45.9739 14.8769C45.0911 14.8769 44.3583 14.4734 44.3436 13.5127C46.6148 13.5789 49.9827 11.9963 49.9827 9.38845C49.9827 7.99851 48.6744 7.38035 47.5446 7.38035C43.3895 7.38035 41.1425 11.1577 41.1425 13.7575C41.1425 15.8442 43.1021 16.7513 44.9257 16.7513C46.5112 16.7513 48.0577 16.3264 49.6299 15.7627L50.079 13.5664ZM44.5589 11.7214C44.7059 10.8593 45.3917 9.3664 46.4333 9.3664C46.8522 9.3664 47.0977 9.62661 47.0977 10.0463C47.0977 11.226 46.0687 11.7494 44.5582 11.7222L44.5589 11.7214ZM54.7898 11.376H54.9942C55.6579 9.84932 57.3485 7.38035 59.1875 7.38035C60.3195 7.38035 60.9832 8.21314 60.9832 9.2488C60.9832 9.68394 60.8715 10.1257 60.7855 10.5439L59.5742 16.5543H56.3907L57.4992 10.9283C57.5117 10.8107 57.58 10.6123 57.58 10.48C57.58 10.3859 57.5506 10.2205 57.3999 10.2205C56.82 10.2205 54.8611 13.1136 54.5451 13.7575L53.982 16.5543H50.7773L52.573 7.58248H55.7439L54.7898 11.376ZM63.6448 16.5543L61.9292 7.58248H65.2052L66.1997 12.8284L69.7698 7.58248H72.1844L63.8932 19.7495H60.5929L63.6448 16.5543ZM75.9801 16.5543H79.1679L80.9504 7.58248H77.95C77.7199 7.58248 77.2039 7.4318 76.4608 7.4318C73.331 7.4318 70.4739 11.4921 70.4739 14.3896C70.4739 15.5826 71.2369 16.7513 72.5276 16.7513C74.3689 16.7513 76.0595 14.2911 76.7232 12.7623H76.9268L75.9801 16.5543ZM77.1914 10.4263C76.4784 11.4598 74.9143 14.0706 74.0381 14.0706C73.7566 14.0706 73.6794 13.7913 73.6794 13.5664C73.6794 12.7189 74.4203 9.21866 76.3366 9.21866C76.7078 9.21866 77.0687 9.35391 77.3737 9.5215L77.1914 10.4263ZM83.7413 16.5543H86.0118L87.6186 13.5664H92.0545L92.63 16.5543H95.6848L93.3761 4.58135H90.1941L83.7413 16.5543ZM88.6513 11.67L90.8733 7.49501H90.9056L91.6921 11.67H88.6513ZM98.9719 4.60707H102.171L101.728 6.41084H98.5206L98.9719 4.60707ZM98.3552 7.58248H101.55L99.762 16.5543H96.5661L98.3552 7.58248ZM105.425 11.376H105.629C106.288 9.84932 107.977 7.38035 109.826 7.38035C110.188 7.38035 110.488 7.47517 110.638 7.56264L109.513 10.3425C109.287 10.2293 109.062 10.1301 108.815 10.1301C107.203 10.1301 105.809 12.7189 105.173 13.7575L104.617 16.5543H101.417L103.203 7.58248H106.374L105.425 11.376ZM111.375 7.58248H114.175L114.374 13.2812H114.411L117.234 7.58248H119.908L120.149 13.2937H120.187L123.021 7.58248H125.261L120.757 16.5543H117.712L117.476 11.1408H117.448L114.771 16.5543H111.728L111.375 7.58248ZM129.429 16.5543H132.604L134.393 7.58248H131.399C131.166 7.58248 130.644 7.4318 129.914 7.4318C126.769 7.4318 123.916 11.4921 123.916 14.3896C123.916 15.5826 124.683 16.7513 125.977 16.7513C127.813 16.7513 129.508 14.2911 130.17 12.7623H130.369L129.429 16.5543ZM130.634 10.4263C129.923 11.4598 128.363 14.0706 127.484 14.0706C127.203 14.0706 127.117 13.7913 127.117 13.5664C127.117 12.7189 127.874 9.21866 129.792 9.21866C130.15 9.21866 130.522 9.35391 130.812 9.5215L130.634 10.4263ZM137.299 16.5543L135.587 7.58248H138.868L139.854 12.8284L143.422 7.58248H145.849L137.551 19.7495H134.256L137.3 16.5543H137.299ZM152.382 9.58103C151.735 9.35391 151.059 9.17162 150.378 9.17162C149.845 9.17162 149.113 9.337 149.113 9.99706C149.113 11.0592 151.888 11.8185 151.888 13.7788C151.888 14.9696 151.095 16.7513 147.684 16.7513C146.564 16.7513 145.512 16.5433 144.403 16.2581L144.82 14.1522C145.611 14.508 146.827 14.9688 147.684 14.9688C148.125 14.9688 148.689 14.6947 148.689 14.1088C148.689 12.8777 146.114 12.125 146.114 10.1602C146.114 9.10473 146.844 7.38035 150.262 7.38035C151.095 7.38035 151.987 7.55234 152.761 7.64643L152.382 9.58103Z" fill="white"/>
</svg>
