<svg xmlns="http://www.w3.org/2000/svg" width="136" height="20" fill="none"><path fill="#fff" d="M.636 8.45C.331 8.94-.352 9.6.224 9.955c.476.012.811.121.801.473-.012.41-.465.43-.527.688-.086.356.45.401.584.658-.03.236-.443.31-.375.694.136.15.29.11.394.21.352.334-.179.773-.223 1.083-.082.57.877 1.154 1.586 1.15 1.622-.009 3.578-.984 5.258.03-.62.137-2.128-.077-2.186.885-.016.281.333.62.488.871.599.96 1.077 2.128 1.196 3.302.992-3.651 1.881-7.752 2.824-11.59-1.858-.81-3.21-2.047-5.406-2.68-.933-.27-2-.355-2.8-.244.007.393-.249.496-.261.769-.016.33.532.513.804.705.351.245.543.512.598.842-.266-.103-.208-.346-.62-.36-.111-.004-.303.109-.514.126-.148.013-.42-.255-.499-.237-.26.06-.558.877-.71 1.118ZM3.25 1.873c-.151.213-.272.47-.403.714.43.056.98.101 1.472.201 2.783.567 3.864 2.67 6.215 3.488.345-1.135.665-2.746.965-3.935.082-.326.147-.536-.02-.775-.345-.29-.982-.166-1.265-.466-.165-.175-.024-.364-.219-.43-.662-.221-1.33.166-1.76-.311-.261.213-.828.098-1.258.126-.286.018-.553.407-.77-.004-.56.078-.827.711-1.404.711-.115 0-.238-.104-.364-.1-.45.01-.566.758-.958.906-.154.013-.109-.185-.231-.125Z"/><path fill="#fff" d="M4.679 14.6s.181-.119 1.15-.134c1.287-.022 1.893.475 1.893.475-.062.033-.303.056-.792.09a4.05 4.05 0 0 0-.894.165c-.64.263-.457.839-.457.839-.541-.752-.9-1.435-.9-1.435ZM26.44 14.072l-3.102-6.72c-.603-1.272-1.264-1.358-2.12-1.359h-1.056c-.116.003-.814-.002-.814-.002l.2.43-8.366 7.588a.623.623 0 0 0-.204.413v.027c0 .076.018.156.072.226.051.069.144.115.231.115h.007l2.414-.014a.412.412 0 0 0 .272-.115l1.963-1.766h6.584l.784 1.702c.042.1.16.184.278.18l2.42.014h.002c.188-.01.302-.125.387-.26a.587.587 0 0 0 .082-.29.403.403 0 0 0-.034-.169ZM21.515 10.7H18.35l2.235-2.04.931 2.04ZM27.093 14.097a.369.369 0 0 0-.01.17.66.66 0 0 0 .125.291c.104.136.235.252.425.26h.002l2.431-.013a.258.258 0 0 0 .254-.18l.552-1.71 1.994-6.105.278-.835s-.712.005-.83.002h-1.077c-.872.001-1.533.088-1.969 1.366l-2.175 6.754ZM44.177 7.99a1.92 1.92 0 0 0-.241-.684c-.273-.468-.733-.806-1.334-1.02-.6-.213-1.334-.309-2.192-.309h-3.698l-.012-.002h-.002l-.41.002h-1.876a.328.328 0 0 0-.085.012h-.06a.255.255 0 0 0-.253.18l-.553 1.71-1.994 6.104-.277.835s.711-.004.83-.002h1.077c.872-.002 1.533-.087 1.969-1.366l.63-1.956h2.728c.309 0 .559.022.741.059.162.031.202.044.239.083.042.038.11.156.196.413l-.002.004.021.06a750.86 750.86 0 0 0 .731 2.08c.086.243.135.382.154.424.044.109.163.19.284.19h2.358a.443.443 0 0 0 .294-.129.623.623 0 0 0 .164-.266l.018-.064-.846-2.2-.564-1.364c.358-.147.756-.396.968-.567.222-.181.415-.387.573-.616.13-.187.233-.389.309-.596h.006l.03-.1h.01l.032-.157a2.096 2.096 0 0 0 .037-.758Zm-3.143.69a.863.863 0 0 1-.354.359 1.46 1.46 0 0 1-.3.129c-.232.073-.558.121-.982.121h-2.992l.357-1.108h3.105c.275 0 .496.022.662.058.26.055.377.13.44.208.03.035.046.07.056.117a.36.36 0 0 1 .01.083l-.002.034ZM100.693 11.973v-.011a2.35 2.35 0 0 0-.274-1.138 2.314 2.314 0 0 0-.791-.832c-.375-.246-.824-.421-1.34-.536a8.097 8.097 0 0 0-1.748-.169h-2.372c-.28 0-.51-.022-.69-.057-.273-.057-.417-.137-.511-.231a.422.422 0 0 1-.092-.143.494.494 0 0 1-.03-.122.756.756 0 0 1 .103-.174.721.721 0 0 1 .163-.14c.067-.041.154-.084.265-.12.213-.07.52-.119.93-.12h6.374a.447.447 0 0 0 .315-.153.59.59 0 0 0 .137-.3l.39-1.303a.457.457 0 0 0-.053-.298.313.313 0 0 0-.273-.153h-6.532c-.644 0-1.244.055-1.795.168a5.386 5.386 0 0 0-1.494.538l-.01.007a3.553 3.553 0 0 0-1.023.826c-.277.332-.484.72-.603 1.136l-.002.011a.518.518 0 0 0-.023.146v.015c-.01.439.08.845.268 1.192.28.522.774.897 1.435 1.136.657.239 1.472.344 2.425.346h2.38c.283 0 .516.02.693.056.274.056.422.136.517.23a.475.475 0 0 1 .12.266.66.66 0 0 1-.1.174.721.721 0 0 1-.162.14 1.272 1.272 0 0 1-.266.12c-.218.072-.537.122-.965.121h-7.122a.43.43 0 0 0-.316.153.57.57 0 0 0-.142.298l-.466 1.304c-.014.107 0 .21.053.299a.311.311 0 0 0 .269.152h7.405c.638 0 1.227-.049 1.769-.15.809-.152 1.504-.43 2.05-.857a3.163 3.163 0 0 0 1.11-1.67l.003-.012c.005-.024.014-.048.015-.072.003-.025.003-.049.006-.073ZM100.967 14.077a.37.37 0 0 0-.013.168.68.68 0 0 0 .128.291c.102.135.234.25.423.26h.003l2.424-.015a.26.26 0 0 0 .253-.179l.55-1.706 1.988-6.086.277-.832s-.709.005-.827.002h-1.074c-.87.002-1.53.087-1.964 1.362l-2.168 6.735ZM87.67 7.987a1.88 1.88 0 0 0-.24-.682c-.273-.467-.731-.805-1.329-1.016-.6-.213-1.332-.309-2.186-.309h-3.688a.023.023 0 0 0-.01-.002h-.003l-.41.002h-1.87a.356.356 0 0 0-.085.01h-.06a.264.264 0 0 0-.253.182l-.55 1.705-1.989 6.085-.276.833s.709-.005.828-.003h1.074c.869 0 1.528-.087 1.962-1.36l.63-1.952h2.718c.31 0 .56.023.74.059.161.033.201.044.24.083.041.039.108.156.194.412l-.003.004.022.06.43 1.223c.106.307.216.616.3.85.083.242.133.381.152.424a.318.318 0 0 0 .282.188h2.352a.438.438 0 0 0 .293-.127.607.607 0 0 0 .163-.267l.02-.064-.844-2.192-.561-1.36c.356-.147.753-.396.962-.566.224-.182.414-.386.574-.614.129-.186.232-.387.307-.594h.005l.03-.099h.01l.034-.159a2.086 2.086 0 0 0 .035-.754Zm-3.133.689a.92.92 0 0 1-.353.356c-.081.047-.18.092-.297.128-.236.074-.56.123-.982.123h-2.984l.357-1.106h3.097c.272 0 .494.023.659.058.258.055.376.132.441.208.027.034.044.069.054.116.004.024.008.05.008.082v.035ZM134.886 14.063l-3.114-6.746c-.606-1.276-1.269-1.362-2.128-1.364h-1.061c-.115.003-.817-.002-.817-.002l.201.43L119.57 14a.627.627 0 0 0-.205.414v.027c0 .076.018.158.073.228.05.07.145.115.232.115h.006l2.424-.014a.415.415 0 0 0 .273-.116l1.97-1.772h6.608l.787 1.708a.31.31 0 0 0 .279.18l2.43.014h.002c.187-.01.302-.124.386-.259a.567.567 0 0 0 .085-.292.4.4 0 0 0-.036-.17h.002Zm-4.945-3.384h-3.177l2.242-2.05.935 2.05ZM61.658 6.13a.309.309 0 0 0-.27-.154H56.04c-1.483 0-2.803.165-3.951.515-1.15.348-2.12.882-2.882 1.607a4.83 4.83 0 0 0-1.347 2.227l-.004.009a.547.547 0 0 0-.02.134v.014c-.03.849.193 1.61.655 2.225.54.724 1.349 1.258 2.397 1.608 1.05.348 2.328.512 3.822.513h5.251a.433.433 0 0 0 .316-.153.577.577 0 0 0 .14-.299l.19-1.306a.462.462 0 0 0-.053-.3.313.313 0 0 0-.271-.153h-5.239c-1.004 0-1.805-.11-2.418-.316-.615-.204-1.047-.5-1.334-.883-.213-.288-.314-.608-.317-1.016.128-.407.329-.728.63-1.018.403-.382.923-.676 1.6-.882.672-.203 1.505-.316 2.505-.316h5.356a.435.435 0 0 0 .314-.153.57.57 0 0 0 .14-.299l.189-1.306a.453.453 0 0 0-.052-.299ZM75.447 10.402l.001-.014c.07-.455.055-.904-.047-1.314-.101-.411-.29-.784-.557-1.11-.532-.653-1.364-1.133-2.459-1.475l-.005-.003-.007-.002c-.932-.288-2.037-.454-3.308-.507h-.075c-1.3.053-2.463.22-3.487.508-1.203.344-2.184.824-2.918 1.48-.365.327-.669.699-.897 1.111-.23.41-.381.857-.457 1.322v.004l-.002.005c-.074.465-.065.91.03 1.322.098.412.282.783.545 1.11.526.655 1.36 1.137 2.458 1.48.94.29 2.06.455 3.351.508l.024.002h.02l.032-.002c1.297-.053 2.463-.219 3.49-.509 1.211-.342 2.198-.822 2.931-1.477.366-.329.668-.699.894-1.111.224-.412.372-.858.442-1.324v.004-.008Zm-3.127 0a1.809 1.809 0 0 1-.594 1.099c-.344.314-.864.592-1.595.802h-.004c-.579.169-1.29.277-2.133.314a9.137 9.137 0 0 1-1.755-.229c-.496-.123-.889-.287-1.193-.488-.303-.2-.496-.425-.603-.665-.107-.245-.136-.5-.086-.833.036-.227.103-.419.199-.596.096-.176.225-.34.397-.497.337-.307.845-.582 1.555-.792l.03-.008c.593-.174 1.308-.286 2.15-.323.8.038 1.472.149 2.025.324.665.213 1.1.493 1.348.806.124.158.203.32.244.496.041.178.048.366.015.59ZM120.252 6.125a.306.306 0 0 0-.269-.153h-5.346c-1.484 0-2.804.166-3.952.515-1.15.349-2.12.883-2.881 1.607a4.834 4.834 0 0 0-1.348 2.227l-.003.009c-.006.025-.012.047-.014.07a.28.28 0 0 0-.006.065l-.001.013c-.029.849.193 1.609.654 2.226.541.723 1.35 1.258 2.398 1.608 1.049.348 2.329.512 3.822.513h4.622c.123 0 .229-.072.317-.152.091-.086 1.776-1.526 1.799-1.606a.433.433 0 0 0-.053-.3.313.313 0 0 0-.271-.153h-6.079c-1.003 0-1.806-.11-2.419-.316-.614-.205-1.047-.5-1.334-.883-.213-.288-.315-.608-.316-1.016.128-.407.328-.728.628-1.018.403-.382.926-.677 1.601-.882.674-.204 1.506-.316 2.507-.316h5.354a.434.434 0 0 0 .315-.153.567.567 0 0 0 .138-.299l.028-.18.163-1.127a.45.45 0 0 0-.054-.299Z"/></svg>