<svg width="120" height="24" viewBox="0 0 120 24" fill="none" xmlns="http://www.w3.org/2000/svg">
<path d="M54.7882 17.538L55.7895 12.813C55.9882 11.865 56.295 11.0685 56.706 10.428C57.1185 9.78749 57.6045 9.27224 58.164 8.88749C58.7028 8.52298 59.3014 8.25568 59.9325 8.09774C60.5651 7.93502 61.2158 7.85387 61.869 7.85619L62.049 7.85774C62.1217 7.85924 62.7315 7.85999 62.778 7.85999C62.778 7.85999 62.4067 8.30474 62.1555 8.95499C61.9642 9.45074 61.9515 10.4475 61.9515 10.4475L60.9285 10.4407C60.162 10.4362 59.6122 10.6027 59.2057 10.9387C58.7977 11.2777 58.5172 11.811 58.3627 12.5392L57.3075 17.5357L54.7882 17.538ZM62.3632 14.088L64.6522 14.0902C64.5622 14.7292 64.6905 15.1777 65.0332 15.4327C65.3872 15.7327 65.9452 15.8827 66.7087 15.8827C67.3852 15.8827 67.9297 15.768 68.3437 15.5317C68.7426 15.3167 69.0349 14.9466 69.1515 14.5087C69.339 13.8262 68.5125 13.2727 66.666 12.8437L66.6105 12.8122L66.3667 12.7477C65.3197 12.513 64.6462 12.2655 64.3455 12.0097C63.9836 11.7889 63.7489 11.4085 63.714 10.986C63.6015 10.6005 63.6285 10.1115 63.7942 9.51449C64.0837 8.47049 64.6822 7.64774 65.5897 7.05299C66.489 6.47624 67.6492 6.19199 69.066 6.19349C70.3965 6.19349 71.3385 6.49424 71.895 7.09124C72.4515 7.75274 72.6052 8.61674 72.354 9.68249L71.0445 9.68174C70.542 9.67949 70.2465 9.45599 70.152 9.00674C70.1043 8.79953 69.9975 8.61062 69.8445 8.46299C69.528 8.18699 69.0322 8.04749 68.3557 8.04749C67.7017 8.04749 67.2 8.16299 66.8512 8.39774C66.474 8.61449 66.1987 8.96999 66.0862 9.38699C65.9265 9.96449 66.4417 10.3905 67.6282 10.6695C67.9695 10.7767 68.2253 10.8405 68.3932 10.8622C68.7503 10.9912 69.0645 11.0917 69.3397 11.1675C69.6127 11.2432 69.8302 11.3002 69.9922 11.3422C70.263 11.4712 70.5322 11.5995 70.8037 11.727C71.1682 11.9835 71.4157 12.3142 71.5432 12.7192C71.658 13.1677 71.6423 13.6567 71.4952 14.1907C71.1765 15.342 70.5337 16.2382 69.5722 16.8765C68.6227 17.472 67.4272 17.7705 65.9872 17.7705C64.5045 17.7682 63.477 17.457 62.9092 16.8382C62.2732 16.2195 62.0932 15.3015 62.364 14.0872M72.525 17.5237L75.2535 7.67399C75.342 7.35299 75.531 7.08074 75.822 6.85874C76.0851 6.6453 76.4132 6.52832 76.752 6.52724L83.7495 6.52874L83.2282 8.41349H77.3377L76.6822 10.7782L81.0675 10.776L80.8627 11.5185C80.7742 11.838 80.5852 12.111 80.2927 12.3322C80.03 12.5453 79.7025 12.6622 79.3642 12.6637L76.1632 12.6615L75.3795 15.4785L81.2707 15.48L80.7022 17.523L72.525 17.5237ZM82.8067 17.5372L85.5375 7.67549C85.626 7.35449 85.815 7.08449 86.1045 6.86099C86.3977 6.63599 86.7127 6.52499 87.0375 6.52499L91.3185 6.53174C92.5395 6.53174 93.3742 6.78824 93.8212 7.29974C94.2832 7.83449 94.374 8.61074 94.0897 9.63524C93.9022 10.3177 93.5918 10.8832 93.1628 11.3302C92.7832 11.7577 92.2822 12.0652 91.6628 12.258C92.1165 12.429 92.3947 12.6847 92.4975 13.0245C92.6047 13.3455 92.5747 13.8877 92.4045 14.6572L92.1067 15.9675C92.0707 16.0965 92.034 16.236 91.9912 16.3845C91.95 16.533 91.9237 16.6725 91.9087 16.7992C91.8682 17.1832 91.938 17.4307 92.1037 17.538H89.5462C89.4969 17.315 89.4936 17.0843 89.5365 16.86C89.5875 16.5195 89.6302 16.2855 89.6677 16.1572L89.9617 14.9745C90.0945 14.3332 90.0892 13.8765 89.9505 13.6005C89.7742 13.3635 89.3812 13.245 88.7707 13.245L86.3167 13.2435L85.1272 17.538H82.8075L82.8067 17.5372ZM86.8492 11.3235L89.5657 11.3257C90.1537 11.3265 90.6232 11.2087 90.9705 10.9762C91.3185 10.7407 91.56 10.3792 91.698 9.88874C91.833 9.39824 91.7902 9.03599 91.5735 8.80124C91.383 8.54474 91.0237 8.41649 90.501 8.41649L87.6562 8.41424L86.8492 11.3235ZM93.9495 17.5372L96.6787 7.68524C96.7665 7.36649 96.9562 7.09424 97.2465 6.86774C97.5382 6.64574 97.8562 6.52724 98.1817 6.52724H102.295C103.453 6.52874 104.27 6.77474 104.75 7.24424C105.221 7.75724 105.335 8.45024 105.091 9.32549C104.936 9.87899 104.688 10.3477 104.341 10.7317C103.988 11.1027 103.562 11.3963 103.089 11.5942C103.59 11.829 103.933 12.1605 104.121 12.588C104.292 12.9915 104.286 13.5255 104.106 14.1855C103.812 15.2505 103.231 16.0815 102.368 16.68C101.488 17.2552 100.393 17.5357 99.0855 17.5357L93.9495 17.5372ZM98.0445 10.791L100.693 10.7925C101.259 10.7925 101.701 10.6965 102.016 10.5067C102.331 10.3132 102.545 10.017 102.657 9.61199C102.77 9.20699 102.721 8.90699 102.511 8.71424C102.341 8.54399 101.939 8.45774 101.308 8.45774L98.6895 8.45549L98.0445 10.791ZM96.7237 15.555L99.4702 15.5595C100.083 15.5595 100.584 15.4417 100.975 15.207C101.338 14.9947 101.593 14.6317 101.734 14.1195C101.875 13.608 101.826 13.2352 101.587 12.9997C101.362 12.7867 100.912 12.6795 100.237 12.6795L97.521 12.6772L96.7237 15.555ZM105.29 17.5372L108.016 7.69424C108.105 7.37324 108.295 7.10324 108.586 6.87974C108.877 6.65549 109.201 6.52724 109.528 6.52724H110.664L107.614 17.5372H105.29ZM54.2257 8.48774C54.2782 8.17799 54.2167 7.90499 54.0397 7.67774C53.8522 7.43024 53.592 7.30574 53.2545 7.30274L51.9645 7.29449L51.423 9.84149C52.3695 9.41585 53.3044 8.96469 54.2265 8.48849M53.8012 10.4497C52.905 10.8467 51.9916 11.2037 51.0637 11.52L49.7842 17.5372H52.3012L53.8237 10.3897L53.8012 10.4497ZM117.068 13.4197H114.177L117.037 8.75774L117.343 13.7265C118.018 13.6417 118.852 13.9815 119.64 13.7422L118.955 6.52724H117.151C116.605 6.52724 116.141 6.79274 115.81 7.28474L109.236 17.5372H111.696L113.053 15.2842L117.421 15.282L117.535 17.5372H120L119.587 13.179C117.963 13.4647 117.068 13.4197 117.068 13.4197ZM44.7757 13.419H41.8837L44.745 8.75774L44.9752 12.6487C45.6517 12.5662 46.4077 12.3832 47.1967 12.144L46.6627 6.52649H44.856C44.3107 6.52649 43.848 6.79199 43.5165 7.28399L36.9435 17.5365H39.4035L40.7602 15.2842L45.1282 15.282L45.246 17.5365H47.7082L47.295 13.179C45.6697 13.4647 44.7757 13.419 44.7757 13.419ZM14.655 16.7985L16.2135 18.5805L17.214 17.436L14.235 14.025L13.308 12.9525L12.387 14.1637L13.4295 15.3622L13.428 15.3645L14.655 16.7985Z" fill="white"/>
<path d="M34.3972 7.965C32.9812 6.576 31.476 5.904 29.9235 5.96775C28.689 6.01875 27.6825 6.534 27.003 7.01025C26.9766 7.0276 26.9509 7.04586 26.9258 7.065L26.901 7.083C26.8182 7.14184 26.7372 7.20311 26.658 7.26675L25.584 6.10275C25.3215 5.79375 24.9195 5.29725 24.8167 5.0115C24.738 4.79025 24.7192 4.56375 24.6945 4.434C24.6052 3.9735 24.555 3.20925 24.555 3.20925C24.555 3.20925 24.555 3.027 24.4688 2.82L24.3615 2.55375C24.3615 2.55375 25.2563 2.15925 25.8967 2.1915L26.2808 2.66025L26.2942 2.19525V1.5225C26.2942 1.5225 26.253 1.161 25.9103 0.888C25.6553 0.68625 25.5383 0.66825 25.2233 0.62175C24.8295 0.5655 24.7583 0.67425 24.462 0.3975L24.1912 0L22.5187 0.0075L21.864 0.25125C21.864 0.25125 21.5032 0.3375 21.2587 0.951L20.76 2.529C20.76 2.529 20.6243 3.051 20.5958 3.84C20.5658 4.632 20.58 3.86775 20.58 3.86775C20.58 3.86775 20.5447 5.04825 20.4045 5.4015L20.1345 6.3315C19.7453 7.2585 19.35 7.71525 19.3417 7.725L17.8387 9.46575H17.8403L17.421 9.95175L17.0025 9.46575L17.0093 9.46125L16.0868 8.40375L15.9555 8.25375H15.954L15.4928 7.72575C15.4838 7.7145 15.0667 7.23225 14.6677 6.2535L14.4202 5.40225C14.28 5.04975 14.244 3.8685 14.244 3.8685C14.244 3.8685 14.2583 4.6335 14.229 3.84075C14.199 3.05175 14.064 2.52975 14.064 2.52975L13.5653 0.9525C13.3223 0.33825 12.9608 0.252 12.9608 0.252L12.3045 0.0075L10.632 0.00075L10.362 0.39825C10.0672 0.67425 9.99375 0.5655 9.59925 0.62175C9.28575 0.669 9.16725 0.687 8.913 0.88875C8.71132 1.04562 8.57438 1.27119 8.52825 1.5225V2.19675L8.54175 2.66175L8.92575 2.19225C9.56625 2.16075 10.4618 2.5545 10.4618 2.5545L10.3538 2.8215C10.2668 3.0285 10.2668 3.21 10.2668 3.21C10.2668 3.21 10.218 3.975 10.1273 4.43475C10.1018 4.5645 10.0852 4.79025 10.0057 5.01225C9.86775 5.397 9.18675 6.16575 9.033 6.336L8.17275 7.2675C7.51275 6.7365 6.372 6.02625 4.91025 5.967C3.3585 5.90325 1.851 6.57525 0.4365 7.965L0 8.3925L0.327 8.90925C0.375 8.98725 1.539 10.7873 3.62475 11.1923C4.977 11.4548 6.45 11.0437 7.84725 10.0433L6.83025 8.88975C5.79075 9.63525 4.8495 9.8835 3.92625 9.711C3.05475 9.5445 2.394 8.9985 2.00175 8.586C2.94075 7.815 3.89025 7.44225 4.83525 7.4775C6.48825 7.5375 7.64775 8.838 7.65825 8.84775L10.1085 11.685L11.106 10.5262L9.23175 8.35725L11.4233 5.61975L12.3173 4.506C12.5265 5.6085 13.5285 7.50975 13.9575 8.1735L10.5525 12.1417L10.5382 12.1597L10.527 12.171L9.489 13.383C8.94675 13.947 7.0575 15.8205 4.84275 17.013C4.84275 17.013 5.53725 17.4907 6.45075 17.4735C6.99825 17.4667 7.626 17.2815 8.23275 16.7085C8.48025 16.473 8.84175 16.1505 9.195 15.804C9.195 15.804 9.03 16.2105 9.4245 16.9447C9.72825 17.5095 10.26 17.8447 10.98 17.8717C12.105 17.9137 12.915 17.3228 13.4775 16.6462L12.6705 15.7537C12.6705 15.7537 11.9385 16.7933 11.049 16.158C10.722 15.8505 10.7475 15.3315 10.7475 15.3315C10.7475 15.3315 10.7407 15.1583 10.9102 14.7938C11.5155 13.764 13.1745 11.5988 14.1585 10.3387L14.9167 9.37725L15.9975 10.6252L15.9998 10.623L16.4257 11.1158L16.4235 11.118L16.4475 11.1458L14.553 13.4948L15.4155 14.46L17.4172 12.2715L17.4217 12.276L17.4263 12.2715L19.8727 14.991L19.8705 14.994L20.8837 16.1325V16.131L21.2453 16.5158L21.4958 16.7948C22.0522 17.406 22.8217 17.91 23.8657 17.8717C24.5857 17.844 25.116 17.5088 25.4205 16.944C25.8165 16.2083 25.6493 15.8032 25.6493 15.8032C26.004 16.1497 26.3655 16.4722 26.613 16.7078C28.2255 18.234 30.0015 17.013 30.0015 17.013C27.7867 15.8205 25.8975 13.947 25.3545 13.383L24.7643 12.693L23.529 14.0775C24.129 14.898 24.099 15.333 24.099 15.333C24.099 15.333 24.1238 15.852 23.7983 16.1588C22.9125 16.8038 22.1287 15.696 22.1287 15.696L19.6717 12.7133L19.6583 12.699L18.3975 11.1435L18.4215 11.1158L18.4193 11.1143L19.3545 10.0305L19.3538 10.0297L19.9185 9.37875L20.166 9.6915L21.771 11.8628L22.9005 10.521L21.063 8.379L21.0607 8.38575L20.8807 8.17575C21.3082 7.51125 22.3118 5.61075 22.5203 4.50825L25.6035 8.3595L25.155 8.8785H25.1565L21.2445 13.407L22.2443 14.562L23.0392 13.6425L23.1217 13.5465L24.3142 12.1688L25.0095 11.3625L27.1808 8.85C27.1898 8.84025 28.3508 7.54125 30.003 7.47975C30.9473 7.44525 31.8967 7.81725 32.8357 8.58975C32.4457 9.00075 31.782 9.5475 30.9128 9.714C29.9895 9.8865 29.0385 9.6315 27.9983 8.8845L27.0075 10.0365C28.4047 11.0378 29.862 11.4577 31.2127 11.1952C33.3008 10.7902 34.464 8.99025 34.512 8.91225L34.839 8.39625L34.3972 7.965ZM18.8422 19.4288L17.817 20.6378L17.9325 20.775L17.9303 20.7757L18.5527 21.4965C18.8797 21.8978 19.779 22.9335 19.9177 24C19.9177 24 20.8058 22.7775 20.13 21.0623C20.1315 21.0623 20.0302 20.6108 18.8422 19.4288Z" fill="white"/>
<path d="M16.7745 18.9788C15.0998 20.4938 14.9708 21.0585 14.9708 21.0585C14.2748 22.7783 15.1905 24 15.1905 24C15.333 22.9335 16.2593 21.8963 16.5975 21.4973L17.2403 20.7735L17.238 20.7705L19.539 18.186L19.5405 18.1883L20.9033 16.6583L19.8855 15.4838L16.7745 18.9788Z" fill="white"/>
</svg>
