<svg width="49" height="30" viewBox="0 0 49 30" fill="none" xmlns="http://www.w3.org/2000/svg">
<path d="M0 0H49.071V30H0V0Z" fill="#BFD730"/>
<path d="M12.5956 18.8251H13.9891V12.9781H12.5956V18.8251ZM12.5956 12.4317H13.9891V11.0383H12.5956V12.4317Z" fill="#11175E"/>
<path d="M14.6175 18.8251V12.9781H15.9836V14.071C16.4208 13.4426 17.0492 12.8689 17.8962 12.8689C18.0601 12.8689 18.1421 12.8689 18.224 12.8962V14.2077C18.1148 14.1803 17.8962 14.1803 17.8142 14.1803C17.1858 14.1803 16.0383 14.7814 16.0383 15.9563V18.8251H14.6175Z" fill="#11175E"/>
<path d="M18.5792 18.8251V11.0383H21.0929C21.7486 11.0383 23.9891 11.0383 23.9891 12.9508C23.9891 14.2623 22.9781 14.6175 22.4317 14.7814C23.0328 14.9454 24.153 15.2459 24.153 16.694C24.153 17.8689 23.2514 18.8251 21.2568 18.8251H18.5792ZM20.0546 14.2077H21.0929C22.4317 14.2077 22.541 13.4153 22.541 13.1421C22.541 12.1585 21.5301 12.1585 21.2295 12.1585H20.082V14.2077H20.0546ZM20.0546 17.6776H20.9836C21.9672 17.6776 22.6776 17.3497 22.6776 16.5301C22.6776 15.9836 22.377 15.3552 21.0929 15.3552H20.082V17.6776H20.0546Z" fill="#11175E"/>
<path d="M28.1148 18.8251L27.9508 18.1967C27.5956 18.4973 27.0492 18.9344 26.1749 18.9344C25.1366 18.9344 24.3716 18.2514 24.3716 17.3224C24.3716 16.7213 24.5902 16.0109 25.8743 15.5738L27.5683 15C27.8142 14.918 27.8142 14.918 27.8142 14.7541V14.5082C27.8142 14.0164 27.377 13.8798 26.8306 13.8798C25.9016 13.8798 25.0546 14.4536 24.7268 14.6721V13.4699C25.1093 13.2514 25.8197 12.8689 27.0492 12.8689C28.8798 12.8689 29.235 13.7705 29.235 14.8907V18.8525H28.1148V18.8251ZM26.5847 16.3388C25.9836 16.5574 25.7923 16.8306 25.7923 17.2404C25.7923 17.8142 26.3115 17.9508 26.5574 17.9508C26.776 17.9508 27.2678 17.8689 27.8415 17.2951V15.847C27.7596 15.9016 27.7322 15.929 27.4863 16.0109L26.5847 16.3388Z" fill="#11175E"/>
<path d="M10.8197 18.8251L10.6557 18.224C10.3005 18.5246 9.7541 18.9617 8.87978 18.9617C7.84153 18.9617 7.0765 18.2787 7.0765 17.3497C7.0765 16.7486 7.29508 16.0382 8.57924 15.6011L10.2732 15.0273C10.5191 14.9454 10.5464 14.9454 10.5464 14.7814V14.5355C10.5464 14.0437 10.1093 13.9071 9.53552 13.9071C8.60656 13.9071 7.75956 14.4809 7.43169 14.6995V13.4973C7.81421 13.2787 8.52459 12.8962 9.7541 12.8962C11.5847 12.8962 11.9399 13.7978 11.9399 14.918V18.8798H10.8197V18.8251ZM9.28962 16.3388C8.68852 16.5574 8.49727 16.8306 8.49727 17.2404C8.49727 17.8142 9.01639 17.9508 9.2623 17.9508C9.48088 17.9508 9.97268 17.8689 10.5464 17.2951V15.847C10.4645 15.9016 10.4372 15.929 10.1913 16.0109L9.28962 16.3388Z" fill="#11175E"/>
<path d="M29.7814 11.0383H31.1749V18.8251H29.7814V11.0383Z" fill="#11175E"/>
<path d="M32.4044 14.0437H31.5301V12.9781H32.4044V11.0383H33.7978V12.9781H34.8634V14.0437H33.7978V17.0765C33.7978 17.5137 33.8525 17.8962 34.5082 17.8962C34.6721 17.8962 34.8087 17.8689 34.918 17.8415V18.9071C34.7268 18.9344 34.5355 18.9618 34.2623 18.9618C32.7049 18.9618 32.4044 18.1694 32.4044 17.1585V14.0437Z" fill="#11175E"/>
<path d="M35.4098 11.0383H36.8033V12.4317H35.4098V11.0383ZM35.4098 12.9781H36.8033V18.8525H35.4098V12.9781Z" fill="#11175E"/>
<path d="M41.8579 14.5628C41.5847 14.3169 41.1202 13.9617 40.3279 13.9617C39.1257 13.9617 38.6339 14.9727 38.6339 15.929C38.6339 16.3388 38.7432 17.8962 40.2732 17.8962C41.0656 17.8962 41.5847 17.541 41.9672 17.2678V18.4973C41.694 18.6339 41.0656 18.9617 40.0546 18.9617C38.0601 18.9617 37.2131 17.459 37.2131 15.9016C37.2131 14.2623 38.1148 12.8415 40.1093 12.8415C41.0656 12.8415 41.5847 13.1421 41.8306 13.2787V14.5628H41.8579Z" fill="#11175E"/>
</svg>
