<svg width="62" height="24" viewBox="0 0 62 24" fill="none" xmlns="http://www.w3.org/2000/svg"><path d="M0 15.12V5.417h5.071v1.2H1.92v2.914h2.81v1.2h-2.81v3.189H5.07v1.2H0zM10.485 10.971c-1.748.206-2.81.549-2.81 1.92 0 .995.651 1.406 1.713 1.406.412 0 .823-.068 1.097-.206v-3.12zM9.25 15.257c-2.227 0-3.323-.857-3.323-2.331 0-1.989 2.056-2.572 4.557-2.812v-.411c0-.994-.651-1.269-1.61-1.269-.789 0-1.542.24-2.056.48l-.412-.994a6.92 6.92 0 0 1 2.81-.583c1.68 0 3.015.652 3.015 2.64v4.732c-.685.342-1.713.548-2.98.548zM15.522 15.257c-.96 0-1.782-.24-2.262-.548l.48-1.098c.308.24.857.446 1.542.446.754 0 1.268-.446 1.268-1.063 0-.651-.377-.96-1.2-1.268-1.541-.549-1.85-1.337-1.85-2.126 0-1.2 1.028-2.194 2.57-2.194.89 0 1.576.205 2.124.548l-.445.995a2.33 2.33 0 0 0-1.302-.412c-.754 0-1.165.48-1.165.994 0 .618.514.926 1.2 1.2 1.575.583 1.952 1.372 1.952 2.23 0 1.233-1.13 2.296-2.912 2.296zM22.34 15.223c-1.61 0-2.227-.994-2.227-2.057v-4.56h-.89V7.509h.856v-1.68l1.85-.48v2.16h1.337v1.097h-1.337v4.457c0 .583.24.994.891.994.171 0 .274-.034.445-.068v1.063c-.17.068-.48.17-.925.17zM27.514 8.434c-1.062 0-1.816.823-1.781 2.64l3.357-.48c.035-1.543-.548-2.16-1.576-2.16zm-1.644 3.498c.137 1.405.856 2.125 2.227 2.125.925 0 1.61-.206 2.056-.411l.445 1.097c-.582.309-1.439.548-2.672.548-2.296 0-3.77-1.405-3.77-3.977 0-2.468 1.337-3.908 3.461-3.908 2.159 0 3.324 1.337 3.255 3.908l-5.002.617zM35.67 8.64c-.617-.206-1.303-.171-1.714.069v6.411h-1.85v-7.2c.856-.377 1.884-.583 3.94-.549L35.67 8.64zM41.426 15.12V9.737c0-.617-.309-1.268-1.474-1.268-.616 0-.925.068-1.267.205v6.446h-1.85v-7.2c.753-.343 1.815-.549 3.186-.549 2.433 0 3.22 1.098 3.22 2.332v5.417h-1.815z" fill="#013A81"/><path d="M16.96 19.131c-.17.138-.513.172-.822.206-.308.069-.582.172-.582.549 0 .377.274.48.617.48.788 0 .822-.617.822-.857v-.378h-.034zm-2.295-.754c.034-.925.891-1.234 1.713-1.234.72 0 1.61.171 1.61 1.029v1.885c0 .343.035.652.138.823h-1.028a1.22 1.22 0 0 1-.069-.343c-.308.343-.788.446-1.233.446-.685 0-1.234-.343-1.234-1.097 0-.823.617-1.029 1.234-1.097.617-.103 1.2-.069 1.2-.48 0-.446-.275-.48-.652-.48s-.617.171-.65.548h-1.029zM19.77 17.246h-.993v3.668h.994v-3.668zM20.593 17.246h.96v.686h.034c.17-.446.685-.79 1.165-.79.068 0 .17 0 .205.035v.926c-.103-.034-.24-.034-.377-.034-.754 0-.993.548-.993 1.165v1.646h-.994v-3.634zM27.788 20.914h-1.027l-.651-2.468h-.035l-.616 2.468H24.43l-1.164-3.668h1.062l.685 2.503.617-2.503h.96l.616 2.503h.034l.651-2.503h1.028l-1.13 3.668zM31.626 19.131c-.171.138-.514.172-.822.206-.309.069-.583.172-.583.549 0 .377.309.48.617.48.788 0 .822-.617.822-.857v-.378h-.034zm-2.296-.754c.069-.925.891-1.234 1.714-1.234.72 0 1.61.171 1.61 1.029v1.885c0 .343.034.652.137.823h-1.028a1.22 1.22 0 0 1-.068-.343c-.309.343-.788.446-1.234.446-.685 0-1.233-.343-1.233-1.097 0-.823.616-1.029 1.233-1.097.617-.103 1.2-.069 1.2-.48 0-.446-.309-.48-.652-.48-.377 0-.616.171-.65.548H29.33zM35.224 21.36c-.206.583-.548.823-1.234.823-.205 0-.41 0-.616-.035v-.822c.205 0 .377.034.582.034.343-.034.445-.412.343-.686l-1.302-3.428h1.062l.822 2.503.788-2.503h1.028l-1.473 4.114zM37.862 19.714c0 .446.377.617.754.617.308 0 .651-.102.651-.48 0-.308-.411-.41-1.13-.548-.583-.137-1.166-.343-1.166-.96 0-.926.823-1.166 1.577-1.166.788 0 1.541.274 1.61 1.166h-.96c-.034-.377-.342-.48-.685-.48-.24 0-.548.034-.548.343 0 .377.548.411 1.13.548.583.137 1.166.343 1.166 1.029 0 .96-.823 1.268-1.68 1.268-.856 0-1.678-.308-1.713-1.302l.994-.035z" fill="#EE3124"/><path d="M52.116 10.697c-4.934 2.023-7.71 4.252-9.765 9.257.89-1.68 1.576-3.6 10.04-6.788 5.173-2.092 7.64-7.029 8.394-9.669-1.37 2.743-3.598 5.315-8.669 7.2z" fill="url(#a)"/><path d="M50.917 14.743c-4.934 2.023-7.71 4.286-9.765 9.257.89-1.68 1.576-3.6 10.073-6.789 5.209-2.091 7.675-7.028 8.395-9.702-1.439 2.777-3.632 5.348-8.703 7.234z" fill="url(#b)"/><path d="M53.178 6.789c-4.625 1.885-7.23 4.011-9.182 8.708.822-1.577 1.473-3.36 9.456-6.377 4.9-1.954 7.196-6.617 7.881-9.12-1.302 2.606-3.358 5.006-8.155 6.789z" fill="url(#c)"/><defs><linearGradient id="a" x1=".099" y1="12.005" x2="61.427" y2="12.005" gradientUnits="userSpaceOnUse"><stop stop-color="#ED1C2E"/><stop offset=".169" stop-color="#EF3D3D"/><stop offset=".343" stop-color="#F15B4A"/><stop offset=".407" stop-color="#F04641"/><stop offset=".511" stop-color="#ED1C2E"/><stop offset=".519" stop-color="#ED2232"/><stop offset=".559" stop-color="#EF3F41"/><stop offset=".602" stop-color="#F1554D"/><stop offset=".648" stop-color="#F26555"/><stop offset=".701" stop-color="#F36E5A"/><stop offset=".775" stop-color="#F3715C"/><stop offset=".809" stop-color="#F04D49"/><stop offset=".842" stop-color="#EF323A"/><stop offset=".871" stop-color="#ED2231"/><stop offset=".893" stop-color="#ED1C2E"/><stop offset="1" stop-color="#ED1C2E"/></linearGradient><linearGradient id="b" x1="-.096" y1="12.017" x2="61.275" y2="12.017" gradientUnits="userSpaceOnUse"><stop stop-color="#003473"/><stop offset=".194" stop-color="#38568E"/><stop offset=".309" stop-color="#5B6C9F"/><stop offset=".573" stop-color="#003473"/><stop offset=".62" stop-color="#1A427E"/><stop offset=".664" stop-color="#2B4B85"/><stop offset=".697" stop-color="#314E87"/><stop offset=".893" stop-color="#003473"/><stop offset="1" stop-color="#003473"/></linearGradient><linearGradient id="c" x1="44.007" y1="7.76" x2="61.367" y2="7.76" gradientUnits="userSpaceOnUse"><stop stop-color="#003473"/><stop offset=".213" stop-color="#475C92"/><stop offset=".455" stop-color="#003473"/><stop offset=".474" stop-color="#0E3B79"/><stop offset=".51" stop-color="#214681"/><stop offset=".547" stop-color="#2D4C85"/><stop offset=".584" stop-color="#314E87"/><stop offset=".663" stop-color="#314E87"/><stop offset=".683" stop-color="#2A4A84"/><stop offset=".759" stop-color="#133E7B"/><stop offset=".831" stop-color="#053775"/><stop offset=".893" stop-color="#003473"/><stop offset="1" stop-color="#003473"/></linearGradient></defs></svg>