<svg width="130" height="24" viewBox="0 0 130 24" fill="none" xmlns="http://www.w3.org/2000/svg">
<path d="M108.006 17.5676C108.089 17.5472 108.151 17.5731 108.195 17.6453C108.226 17.6989 108.211 17.7253 108.149 17.7243L107.876 17.723C107.814 17.723 107.805 17.7008 107.848 17.6564C107.893 17.612 107.945 17.5824 108.006 17.5676Z" fill="#EE1B3B"/>
<path fill-rule="evenodd" clip-rule="evenodd" d="M122.591 23.9321L129.969 0.0651983C129.971 0.057607 129.971 0.0496255 129.97 0.0418732C129.968 0.0341209 129.965 0.026807 129.961 0.0204998C129.956 0.0141926 129.95 0.00906199 129.943 0.00550661C129.937 0.00195123 129.929 6.69484e-05 129.921 0H121.147C121.099 0 121.059 0.0180336 121.028 0.0541009C116.028 5.82302 110.957 11.6918 105.813 17.6605C105.162 18.4151 104.548 19.0593 103.97 19.5929C101.953 21.4517 99.4597 23.2523 96.8046 23.9307C96.6252 23.976 96.628 23.9986 96.8129 23.9986H122.501C122.547 23.9986 122.577 23.9764 122.591 23.9321ZM117.552 17.1601C117.557 17.1647 117.564 17.1679 117.571 17.1694C118.832 17.4256 120.084 17.6166 121.325 17.7423C121.749 17.7854 122.512 17.8048 122.817 17.4746C122.87 17.4182 122.934 17.3997 123.009 17.4191L123.149 17.4552C123.244 17.4802 123.257 17.5273 123.186 17.5967C122.937 17.8436 122.629 17.9671 122.264 17.9671C116.934 17.9634 111.864 17.9662 107.053 17.9754C106.904 17.9754 106.754 17.9883 106.601 18.0142C106.561 18.0207 106.559 18.0142 106.594 17.9948C106.599 17.992 106.602 17.9883 106.602 17.9837C106.603 17.9726 106.609 17.9662 106.62 17.9643C107.045 17.8894 107.43 17.7095 107.775 17.4247C107.933 17.2943 108.21 17.3609 108.371 17.4621C108.577 17.5916 108.783 17.6633 108.988 17.6771C109.726 17.7271 110.542 17.6452 111.265 17.4913C111.853 17.3664 112.382 16.966 112.853 16.2899C113.847 14.8639 114.492 13.9114 114.787 13.4323C115.607 12.0997 116.317 10.9936 116.916 10.1141C117.43 9.3604 118.149 8.86378 119.073 8.62425C119.734 8.45409 120.372 8.36623 120.989 8.36068C121.898 8.35236 122.793 8.35698 123.675 8.37455C123.682 8.37489 123.689 8.37792 123.694 8.38305C123.699 8.38819 123.702 8.39505 123.703 8.4023L123.704 8.44391C123.704 8.44946 123.701 8.45224 123.696 8.45224C122.822 8.51605 122.015 8.77869 121.275 9.24017C121.03 9.39276 120.829 9.58327 120.673 9.8117C119.113 12.0867 117.531 14.3983 115.927 16.7463C115.885 16.8092 115.899 16.8522 115.972 16.8753L116.024 16.8906C116.1 16.9137 116.16 16.8934 116.205 16.8296C117.631 14.8024 119.141 12.6078 120.735 10.2459C121.341 9.34698 122.344 8.89892 123.396 8.71442C123.466 8.7024 123.475 8.71997 123.422 8.76713C122.944 9.20642 122.446 9.81401 121.928 10.5899C120.446 12.8094 118.984 14.98 117.543 17.1015C117.542 17.1036 117.541 17.1058 117.54 17.1081C117.538 17.1124 117.537 17.1169 117.536 17.1216C117.535 17.1288 117.536 17.1361 117.539 17.1428C117.542 17.1495 117.546 17.1554 117.552 17.1601ZM108.449 17.2374H107.622C107.621 17.2374 107.62 17.2372 107.618 17.2369C107.617 17.2367 107.616 17.2363 107.615 17.2359C107.615 17.2356 107.614 17.2353 107.614 17.235C107.613 17.2347 107.613 17.2344 107.612 17.2341L107.612 17.2335L107.611 17.2329C107.608 17.2301 107.607 17.2262 107.607 17.2221V17.2152C107.607 17.1343 107.65 17.0566 107.727 16.9994C107.805 16.9422 107.909 16.91 108.019 16.91H108.052C108.161 16.91 108.266 16.9422 108.343 16.9994C108.421 17.0566 108.464 17.1343 108.464 17.2152V17.2221C108.464 17.2262 108.462 17.2301 108.46 17.2329C108.457 17.2358 108.453 17.2374 108.449 17.2374Z" fill="#EE1B3B"/>
<path fill-rule="evenodd" clip-rule="evenodd" d="M18.5857 23.448C18.581 23.5219 18.581 23.5982 18.5857 23.6768C18.5949 23.8202 18.5764 23.8239 18.5302 23.6879L16.6034 18.0073C16.5867 17.9565 16.5511 17.931 16.4965 17.931H15.2009C15.1417 17.931 15.0978 17.9569 15.0691 18.0087L12.0866 23.3578C12.0247 23.4697 11.9983 23.4618 12.0075 23.3342L12.4182 18.0129C12.4219 17.9583 12.3964 17.931 12.3419 17.931H11.1017C11.0462 17.931 11.0162 17.9583 11.0115 18.0129L10.8104 20.2546C10.8058 20.3018 10.7799 20.3254 10.7327 20.3254H8.47156C8.41885 20.3254 8.39434 20.299 8.39804 20.2463L8.55479 18.042C8.55942 17.968 8.52474 17.931 8.45075 17.931H7.1884C7.11996 17.931 7.08297 17.9653 7.07742 18.0337L6.63906 23.8919C6.63629 23.9399 6.65895 23.9645 6.70704 23.9654L7.98743 23.9682C8.03459 23.9691 8.06049 23.946 8.06511 23.8988L8.25793 21.8346C8.26348 21.7764 8.29539 21.7468 8.35365 21.7459H10.6328C10.6809 21.7459 10.7036 21.7704 10.7008 21.8194L10.5607 23.878C10.5561 23.939 10.5843 23.9691 10.6453 23.9682L13.428 23.9668C13.4761 23.9668 13.5127 23.946 13.5376 23.9043L14.2271 22.7113C14.252 22.6688 14.289 22.6475 14.338 22.6475H16.5187C16.5613 22.6475 16.589 22.6679 16.602 22.7086L16.9654 23.8877C16.9821 23.9404 17.0177 23.9668 17.0722 23.9668H19.9313C19.984 23.9668 20.0117 23.9404 20.0145 23.8877L20.2351 20.5764C20.2388 20.5145 20.2577 20.5099 20.2919 20.5626L22.4546 23.8808C22.4768 23.915 22.5078 23.9321 22.5475 23.9321L23.9098 23.9335C23.9579 23.9335 23.9833 23.9099 23.9861 23.8627L24.3717 17.9366C24.3736 17.9098 24.3606 17.8964 24.3329 17.8964L23.0428 17.8936C23.0178 17.8936 23.0044 17.9061 23.0025 17.931L22.6835 21.5433C22.6761 21.6303 22.6497 21.6363 22.6044 21.5614L20.4307 17.9602C20.4048 17.9176 20.3664 17.8959 20.3155 17.895L19.0601 17.8936C19.0166 17.8936 18.993 17.9153 18.9893 17.9588C18.8506 19.6392 18.7161 21.4689 18.5857 23.448ZM16.2443 21.6712C16.2378 21.6746 16.2306 21.6764 16.2233 21.6765H14.9456C14.9374 21.6767 14.9292 21.6748 14.9219 21.6709C14.9146 21.667 14.9085 21.6612 14.9042 21.6542C14.8998 21.6472 14.8974 21.6391 14.8971 21.6309C14.8968 21.6226 14.8987 21.6144 14.9026 21.6071L15.7017 20.1006C15.706 20.0922 15.7127 20.0852 15.721 20.0806C15.7293 20.0761 15.7388 20.0741 15.7482 20.075C15.7576 20.0759 15.7666 20.0796 15.7739 20.0857C15.7812 20.0917 15.7865 20.0998 15.7891 20.109L16.2677 21.6155C16.2698 21.6225 16.2703 21.6299 16.2691 21.6371C16.2679 21.6443 16.265 21.6512 16.2607 21.6571C16.2564 21.663 16.2508 21.6678 16.2443 21.6712Z" fill="#EE1B3B"/>
<path d="M78.5906 20.2893H81.6854C81.691 20.2893 81.6966 20.2904 81.7017 20.2926C81.7068 20.2947 81.7115 20.2979 81.7154 20.3019C81.7193 20.3059 81.7223 20.3107 81.7243 20.3159C81.7263 20.3211 81.7273 20.3267 81.7271 20.3323L81.6716 21.6723C81.6712 21.6831 81.6667 21.6933 81.6589 21.7008C81.6512 21.7083 81.6408 21.7125 81.63 21.7125H78.4616C78.4508 21.7125 78.4404 21.7167 78.4326 21.7242C78.4249 21.7317 78.4203 21.742 78.42 21.7528L78.3825 22.5351C78.3823 22.5406 78.3832 22.5461 78.3851 22.5512C78.3871 22.5563 78.39 22.561 78.3937 22.565C78.3943 22.5656 78.3949 22.5662 78.3955 22.5668C78.3963 22.5675 78.397 22.5681 78.3978 22.5688C78.3995 22.5702 78.4013 22.5715 78.4033 22.5726C78.4045 22.5733 78.4057 22.5739 78.4069 22.5744C78.4098 22.5757 78.4128 22.5767 78.4159 22.5773C78.4181 22.5778 78.4204 22.5781 78.4228 22.5781H81.6854C81.6912 22.5781 81.6968 22.5793 81.702 22.5816L81.7034 22.5822L81.7046 22.5828C81.7051 22.583 81.7057 22.5833 81.7062 22.5836L81.7067 22.5839L81.7073 22.5843C81.7095 22.5856 81.7115 22.5872 81.7134 22.5888C81.7143 22.5896 81.7151 22.5904 81.7159 22.5913C81.7198 22.5955 81.7228 22.6004 81.7247 22.6058C81.7267 22.6111 81.7275 22.6168 81.7271 22.6225L81.6438 23.9598C81.6431 23.9703 81.6384 23.9802 81.6307 23.9874C81.623 23.9947 81.6128 23.9987 81.6022 23.9986H76.876C76.8703 23.9987 76.8647 23.9975 76.8594 23.9952C76.8542 23.993 76.8495 23.9897 76.8456 23.9855C76.8417 23.9813 76.8387 23.9764 76.8367 23.971C76.8348 23.9657 76.834 23.9599 76.8344 23.9542L77.2825 17.9338C77.2832 17.9232 77.2879 17.9133 77.2956 17.9061C77.3033 17.8989 77.3135 17.8949 77.3241 17.8949H81.8866C81.8885 17.8949 81.8903 17.8951 81.8921 17.8953C81.8936 17.8955 81.8951 17.8958 81.8965 17.8961C81.8979 17.8964 81.8992 17.8968 81.9005 17.8973C81.9014 17.8976 81.9023 17.898 81.9032 17.8983C81.9053 17.8993 81.9074 17.9004 81.9093 17.9016C81.9121 17.9034 81.9147 17.9056 81.9171 17.9081C81.921 17.9123 81.924 17.9172 81.9259 17.9226C81.9278 17.9279 81.9286 17.9336 81.9282 17.9393L81.8464 19.3154C81.8457 19.326 81.841 19.3359 81.8332 19.3431C81.8255 19.3503 81.8153 19.3543 81.8048 19.3543H78.66C78.6565 19.3543 78.6531 19.3547 78.6498 19.3555C78.643 19.3572 78.6367 19.3606 78.6315 19.3655C78.6237 19.3727 78.619 19.3826 78.6183 19.3931L78.549 20.2449C78.5488 20.2482 78.5489 20.2516 78.5495 20.2549C78.5499 20.2572 78.5505 20.2594 78.5513 20.2616C78.5526 20.2652 78.5544 20.2686 78.5565 20.2717C78.5576 20.2732 78.5588 20.2747 78.5602 20.2761C78.5641 20.2803 78.5688 20.2836 78.574 20.2858C78.5792 20.2881 78.5849 20.2893 78.5906 20.2893Z" fill="#EE1B3B"/>
<path d="M2.13344 19.83C2.14084 19.7819 2.15656 19.7352 2.18061 19.6899C2.28603 19.4883 2.4525 19.3875 2.68 19.3875H6.05923C6.11194 19.3875 6.14061 19.3612 6.14524 19.3084L6.26315 18.0267C6.26432 18.014 6.26281 18.0013 6.25872 17.9893C6.25463 17.9773 6.24805 17.9662 6.23941 17.9569C6.23077 17.9476 6.22026 17.9403 6.20857 17.9353C6.19689 17.9304 6.18428 17.9279 6.17159 17.9282C5.19315 17.9347 4.14674 17.9342 3.03235 17.9268C2.30823 17.9212 1.67011 18.0697 1.1624 18.6148C0.905302 18.8914 0.767044 19.234 0.747623 19.6428C0.708781 20.457 0.717104 21.657 1.87681 21.6473C2.93663 21.6399 3.80965 21.638 4.49585 21.6417C4.74185 21.6426 4.89675 21.7615 4.96056 21.9982C4.97536 22.0537 4.97074 22.1111 4.94669 22.1702C4.83294 22.4477 4.65861 22.5855 4.42372 22.5836C3.09015 22.5744 1.79034 22.5735 0.524283 22.5809C0.51518 22.5809 0.506404 22.5844 0.499715 22.5909C0.493026 22.5973 0.488918 22.6061 0.488216 22.6155L0.410532 23.9306C0.408683 23.9565 0.421167 23.9695 0.447987 23.9695C1.77878 23.9621 3.17939 23.9625 4.64983 23.9708C5.84283 23.9792 6.25621 22.8292 6.24095 21.8193C6.22986 21.116 5.63613 20.2101 4.85514 20.2157C4.03391 20.2212 3.23719 20.2226 2.46498 20.2198C2.20326 20.2189 2.09275 20.089 2.13344 19.83Z" fill="#EE1B3B"/>
<path d="M28.9093 21.607L27.6552 21.6084C27.6303 21.6084 27.6182 21.5959 27.6192 21.571L27.6691 20.2823C27.67 20.2406 27.6913 20.2198 27.7329 20.2198H30.3464C30.4065 20.2198 30.4352 20.2494 30.4324 20.3086L30.2951 23.8918C30.2932 23.95 30.2632 23.9782 30.2049 23.9764C29.1405 23.9523 28.0497 23.9523 26.9325 23.9764C26.1959 23.993 25.5647 23.9708 25.1486 23.4493C24.8952 23.132 24.7652 22.7145 24.7587 22.1966C24.7449 21.1109 24.768 20.2453 24.8281 19.5998C24.928 18.5372 26.0308 17.9407 26.9575 17.9351C28.3197 17.9277 29.5155 17.9282 30.5448 17.9365C30.616 17.9365 30.6484 17.9721 30.6419 18.0433L30.5392 19.2072C30.5328 19.2839 30.4911 19.3223 30.4144 19.3223C29.3481 19.3121 28.2679 19.3126 27.1739 19.3237C26.6537 19.3293 26.2514 19.5457 26.2278 20.0908C26.1964 20.839 26.1668 21.5178 26.139 22.1272C26.1368 22.1765 26.1445 22.2258 26.1619 22.272C26.1792 22.3182 26.2057 22.3604 26.2398 22.3961C26.2739 22.4317 26.3149 22.4601 26.3603 22.4795C26.4057 22.4988 26.4545 22.5088 26.5039 22.5087H28.8274C28.8522 22.5088 28.8761 22.4995 28.8942 22.4827C28.9123 22.4659 28.9231 22.443 28.9245 22.4186L28.9786 21.682C28.9823 21.632 28.9592 21.607 28.9093 21.607Z" fill="#EE1B3B"/>
<path fill-rule="evenodd" clip-rule="evenodd" d="M39.3091 18.0087L36.2406 23.5117C36.2231 23.5431 36.2157 23.5413 36.2184 23.5062L36.6457 18.0073C36.6467 17.9976 36.6456 17.9878 36.6425 17.9786C36.6395 17.9694 36.6345 17.9609 36.628 17.9537C36.6215 17.9465 36.6135 17.9407 36.6046 17.9368C36.5957 17.9329 36.5861 17.9309 36.5763 17.931H35.314C35.2622 17.931 35.234 17.9569 35.2294 18.0087L35.0324 20.2462C35.0278 20.2989 34.9991 20.3253 34.9464 20.3253H32.6852C32.6381 20.3253 32.6163 20.3017 32.62 20.2545L32.7809 18.017C32.7846 17.9596 32.7583 17.931 32.7019 17.931H31.3702C31.3521 17.9309 31.3347 17.9378 31.3215 17.9502C31.3084 17.9626 31.3005 17.9795 31.2994 17.9976L30.8583 23.8821C30.8537 23.9385 30.8795 23.9667 30.936 23.9667L32.208 23.9653C32.2598 23.9653 32.2885 23.9394 32.294 23.8876L32.4869 21.8249C32.4915 21.7721 32.5201 21.7458 32.5729 21.7458H34.8659C34.9085 21.7458 34.9283 21.7675 34.9256 21.811L34.791 23.8724C34.7864 23.9371 34.8164 23.9695 34.8812 23.9695L37.6736 23.9667C37.7226 23.9667 37.7596 23.9454 37.7846 23.9029L38.4699 22.7099C38.4948 22.6683 38.5314 22.6475 38.5795 22.6475H40.7574C40.8027 22.6475 40.8323 22.6692 40.8461 22.7127L41.2096 23.8876C41.2262 23.9403 41.2618 23.9667 41.3164 23.9667L42.7688 23.9653C42.828 23.9653 42.8479 23.9371 42.8285 23.8807L40.8406 18.0059C40.824 17.9559 40.7893 17.931 40.7366 17.931H39.4409C39.3827 17.931 39.3387 17.9569 39.3091 18.0087ZM39.1399 21.6305C39.1399 21.6299 39.1399 21.6294 39.1399 21.6289L39.9647 20.0893C39.9652 20.0891 39.9657 20.0887 39.9662 20.0885C39.9743 20.0841 39.9834 20.0822 39.9925 20.0829C40.0016 20.0837 40.0103 20.087 40.0176 20.0926C40.0248 20.0982 40.0303 20.1058 40.0333 20.1144L40.5021 21.6154C40.5029 21.6179 40.5035 21.6204 40.5038 21.623C40.5044 21.6276 40.5043 21.6324 40.5036 21.637C40.503 21.6404 40.502 21.6438 40.5007 21.647C40.4996 21.6497 40.4983 21.6523 40.4967 21.6547C40.4962 21.6555 40.4957 21.6563 40.4952 21.657C40.4909 21.6629 40.4853 21.6678 40.4788 21.6711C40.4723 21.6745 40.4651 21.6763 40.4577 21.6764H39.1871C39.1789 21.6764 39.1709 21.6743 39.1638 21.6703C39.1567 21.6663 39.1508 21.6605 39.1466 21.6535C39.1439 21.6489 39.1419 21.6439 39.1408 21.6387C39.1403 21.636 39.14 21.6332 39.1399 21.6305Z" fill="#EE1B3B"/>
<path d="M43.5554 17.9712C43.5561 17.9603 43.5609 17.95 43.5689 17.9426C43.5769 17.9351 43.5874 17.931 43.5984 17.931H44.9134C44.9193 17.931 44.9252 17.9322 44.9306 17.9345C44.934 17.936 44.9371 17.9378 44.94 17.9401C44.9417 17.9415 44.9434 17.9429 44.9449 17.9445C44.9489 17.9488 44.952 17.9539 44.954 17.9594C44.9542 17.96 44.9544 17.9607 44.9546 17.9613L44.9549 17.9622C44.9551 17.9628 44.9552 17.9634 44.9554 17.964C44.9555 17.9646 44.9556 17.9653 44.9558 17.9659C44.9564 17.9695 44.9567 17.9731 44.9564 17.9768L44.5306 23.9584C44.5299 23.9693 44.525 23.9795 44.517 23.987C44.509 23.9945 44.4985 23.9986 44.4876 23.9986L43.1226 24C43.119 24 43.1155 23.9996 43.112 23.9987C43.1105 23.9983 43.1091 23.9979 43.1076 23.9974C43.1069 23.9971 43.1062 23.9968 43.1054 23.9965C43.1012 23.9947 43.0973 23.9922 43.0939 23.9891L43.093 23.9883L43.0924 23.9877L43.0918 23.9872L43.0911 23.9864C43.0888 23.984 43.0869 23.9813 43.0852 23.9785C43.0839 23.9763 43.0829 23.9739 43.082 23.9715C43.0813 23.9695 43.0807 23.9674 43.0803 23.9653C43.0796 23.9617 43.0793 23.9579 43.0796 23.9542L43.5554 17.9712Z" fill="#EE1B3B"/>
<path fill-rule="evenodd" clip-rule="evenodd" d="M50.8035 22.6475H53.066C53.0766 22.6473 53.0869 22.6506 53.0954 22.6569C53.104 22.6632 53.1102 22.672 53.1132 22.6822L53.4919 23.9293C53.4949 23.9394 53.5012 23.9482 53.5097 23.9545C53.5182 23.9608 53.5285 23.9641 53.5391 23.9639L55.0664 23.9681C55.0677 23.9681 55.069 23.968 55.0703 23.9679C55.0709 23.9679 55.0715 23.9678 55.072 23.9677C55.073 23.9676 55.074 23.9675 55.075 23.9673C55.0757 23.9671 55.0763 23.967 55.077 23.9669C55.0809 23.9659 55.0848 23.9645 55.0884 23.9627C55.0952 23.9591 55.1011 23.9541 55.1055 23.9478C55.11 23.9416 55.1129 23.9344 55.1141 23.9269C55.1152 23.9193 55.1146 23.9116 55.1122 23.9043L53.1007 17.9643C53.0975 17.9546 53.0914 17.9462 53.0832 17.9403C53.075 17.9343 53.0651 17.931 53.0549 17.931H51.6525C51.6437 17.9309 51.6351 17.9331 51.6275 17.9375C51.62 17.9419 51.6137 17.9483 51.6095 17.9559L48.2968 23.8946C48.2927 23.902 48.2906 23.9104 48.2907 23.9189C48.2909 23.9274 48.2932 23.9357 48.2976 23.943C48.3019 23.9503 48.3081 23.9564 48.3155 23.9605C48.323 23.9647 48.3313 23.9668 48.3398 23.9667L49.992 23.9653C50.0005 23.9652 50.0089 23.9628 50.0162 23.9584C50.0235 23.954 50.0295 23.9478 50.0336 23.9404L50.7619 22.6724C50.7643 22.6681 50.7674 22.6641 50.771 22.6607C50.7736 22.6583 50.7764 22.6562 50.7794 22.6544C50.7867 22.65 50.795 22.6476 50.8035 22.6475ZM51.4167 21.6154L52.2296 20.0922C52.2334 20.085 52.2393 20.0791 52.2465 20.0753C52.2537 20.0714 52.2619 20.0697 52.27 20.0705C52.2781 20.0712 52.2859 20.0743 52.2923 20.0794L52.2932 20.0802C52.2937 20.0806 52.2941 20.081 52.2946 20.0814C52.2998 20.0863 52.3037 20.0924 52.3059 20.0992L52.7803 21.6223L52.7806 21.6235C52.7807 21.6239 52.7808 21.6243 52.7809 21.6247C52.7823 21.6303 52.7826 21.6361 52.7816 21.6417C52.7816 21.6422 52.7815 21.6426 52.7814 21.643C52.7809 21.6453 52.7803 21.6476 52.7794 21.6498C52.7781 21.6533 52.7762 21.6566 52.774 21.6597C52.7701 21.6649 52.7649 21.6692 52.759 21.6721C52.7531 21.6751 52.7466 21.6765 52.7401 21.6764H51.4527C51.4507 21.6764 51.4486 21.6762 51.4466 21.6759C51.4417 21.6751 51.4369 21.6733 51.4325 21.6708C51.4264 21.6672 51.4213 21.6621 51.4176 21.656C51.414 21.6499 51.412 21.6429 51.4119 21.6358C51.4117 21.6287 51.4134 21.6217 51.4167 21.6154Z" fill="#EE1B3B"/>
<path d="M55.9043 17.9726C55.9053 17.9614 55.9104 17.951 55.9185 17.9433C55.9267 17.9357 55.9374 17.9313 55.9487 17.931H57.2623C57.2659 17.9311 57.2695 17.9316 57.2729 17.9325C57.2754 17.9332 57.2778 17.934 57.2801 17.9351C57.2831 17.9365 57.2859 17.9382 57.2885 17.9401C57.2908 17.9418 57.2929 17.9437 57.2948 17.9458C57.299 17.9504 57.3021 17.9557 57.3042 17.9615C57.3062 17.9673 57.3071 17.9734 57.3067 17.9795L56.8767 23.9556C56.876 23.9673 56.8708 23.9782 56.8623 23.9862C56.8538 23.9942 56.8426 23.9986 56.8309 23.9986H55.4715C55.4651 23.9986 55.4588 23.9973 55.4529 23.9948C55.4496 23.9933 55.4466 23.9915 55.4437 23.9894C55.4415 23.9877 55.4394 23.9858 55.4375 23.9838C55.4332 23.9791 55.4299 23.9735 55.4279 23.9675C55.4258 23.9614 55.4251 23.955 55.4257 23.9487L55.9043 17.9726Z" fill="#EE1B3B"/>
<path d="M59.1808 23.8821L59.5304 19.5388C59.535 19.4842 59.5651 19.4569 59.6206 19.4569H61.6792C61.8891 19.4569 61.9932 19.5614 61.9913 19.7704L61.9885 19.9618C61.9867 20.1801 61.8766 20.2892 61.6584 20.2892H59.9785C59.967 20.2892 59.9558 20.2922 59.9457 20.2977C59.9357 20.3032 59.9273 20.3112 59.9213 20.3208C59.9153 20.3305 59.9119 20.3414 59.9115 20.3527C59.9111 20.3639 59.9136 20.375 59.9188 20.3849L61.7569 23.9223C61.7837 23.9732 61.8262 23.9986 61.8845 23.9986H63.3827C63.3866 23.9986 63.3905 23.9981 63.3942 23.9972C63.3952 23.9969 63.3962 23.9967 63.3972 23.9963C63.3977 23.9962 63.3983 23.996 63.3988 23.9958C63.3995 23.9955 63.4002 23.9953 63.4009 23.995C63.4018 23.9946 63.4027 23.9942 63.4035 23.9938L63.404 23.9936C63.4045 23.9933 63.405 23.9931 63.4055 23.9928L63.4064 23.9923C63.4081 23.9914 63.4097 23.9903 63.4113 23.9892C63.4123 23.9884 63.4134 23.9876 63.4144 23.9867C63.4165 23.9849 63.4184 23.9828 63.4202 23.9806C63.4216 23.9789 63.4229 23.9772 63.424 23.9753C63.4283 23.9682 63.4307 23.9601 63.431 23.9518C63.4313 23.9435 63.4295 23.9353 63.4257 23.9279L62.1397 21.503C62.1083 21.4429 62.1259 21.4055 62.1925 21.3907C63.3674 21.1257 63.6046 19.9729 63.3189 18.9644C63.0858 18.1446 62.4546 17.9102 61.6293 17.9199C60.5001 17.9338 59.3866 17.9365 58.2889 17.9282C58.2621 17.9281 58.2363 17.9383 58.2167 17.9566C58.1971 17.9749 58.1852 18 58.1834 18.0267C58.0854 19.6118 57.9707 21.2242 57.8394 22.8639C57.8098 23.243 57.7969 23.5903 57.8006 23.9057C57.8015 23.9464 57.8223 23.9667 57.863 23.9667L59.0907 23.9653C59.1462 23.9653 59.1762 23.9376 59.1808 23.8821Z" fill="#EE1B3B"/>
<path d="M65.4885 22.5088H68.1103C68.1172 22.5089 68.124 22.5105 68.1303 22.5134C68.1366 22.5164 68.1422 22.5206 68.1468 22.5258C68.1514 22.531 68.1548 22.5371 68.1569 22.5437C68.1589 22.5504 68.1596 22.5573 68.1588 22.5642L68.0104 23.8876C68.009 23.8999 68.0032 23.9112 67.9939 23.9194C67.9847 23.9276 67.9728 23.9321 67.9605 23.932H63.9403C63.9376 23.932 63.9349 23.9318 63.9322 23.9314C63.9281 23.9307 63.9241 23.9295 63.9202 23.9279C63.9191 23.9274 63.918 23.9268 63.9169 23.9263C63.9149 23.9252 63.9129 23.924 63.911 23.9226C63.9104 23.9222 63.9098 23.9217 63.9092 23.9213C63.9081 23.9204 63.9071 23.9195 63.9061 23.9186L63.9056 23.9181L63.9051 23.9176C63.9045 23.9171 63.904 23.9165 63.9035 23.916L63.903 23.9155L63.9025 23.9149L63.9019 23.9142C63.9016 23.9138 63.9013 23.9134 63.9009 23.913C63.9003 23.9122 63.8997 23.9114 63.8992 23.9106C63.8985 23.9097 63.8979 23.9087 63.8973 23.9077C63.8963 23.906 63.8953 23.9042 63.8945 23.9024C63.8939 23.901 63.8934 23.8997 63.8929 23.8983C63.8907 23.8918 63.8898 23.8848 63.8904 23.8779L64.3135 17.9768C64.3145 17.9642 64.3203 17.9526 64.3295 17.9441C64.3388 17.9356 64.3509 17.9309 64.3634 17.931H65.6882C65.695 17.931 65.7017 17.9323 65.708 17.935C65.7101 17.9359 65.7121 17.9369 65.714 17.9381C65.7146 17.9385 65.7152 17.9388 65.7158 17.9392L65.7164 17.9396L65.7171 17.9401C65.7178 17.9406 65.7185 17.9411 65.7192 17.9417C65.7211 17.9432 65.7229 17.9448 65.7245 17.9466C65.7292 17.9515 65.7328 17.9573 65.7352 17.9637C65.7375 17.9701 65.7385 17.9769 65.7382 17.9837L65.4385 22.456C65.4383 22.4603 65.4386 22.4645 65.4394 22.4686C65.4399 22.4711 65.4406 22.4736 65.4415 22.476C65.4438 22.4824 65.4474 22.4882 65.4521 22.4932C65.4568 22.4981 65.4624 22.502 65.4687 22.5047C65.4749 22.5074 65.4817 22.5088 65.4885 22.5088Z" fill="#EE1B3B"/>
<path d="M70.3922 18.0017C70.3926 17.9958 70.3922 17.9899 70.391 17.9842C70.3904 17.9811 70.3895 17.978 70.3884 17.975C70.3853 17.9664 70.3805 17.9586 70.3743 17.9519C70.368 17.9453 70.3605 17.94 70.3521 17.9364C70.3438 17.9328 70.3348 17.931 70.3256 17.931H69.055C69.0382 17.9309 69.0221 17.9372 69.0097 17.9485C68.9974 17.9598 68.9898 17.9753 68.9884 17.992L68.514 23.9265C68.5136 23.9303 68.5136 23.9342 68.514 23.938C68.5145 23.9433 68.5156 23.9486 68.5173 23.9537C68.5203 23.9624 68.5251 23.9704 68.5314 23.9772C68.5376 23.984 68.5452 23.9894 68.5537 23.9931C68.5622 23.9968 68.5713 23.9986 68.5805 23.9986H69.9012C69.9181 23.9986 69.9345 23.9922 69.9468 23.9806C69.9592 23.969 69.9667 23.9531 69.9677 23.9362L70.3922 18.0017Z" fill="#EE1B3B"/>
<path d="M72.2303 23.9972L70.8583 24C70.8524 24 70.8466 23.9988 70.8412 23.9965C70.8358 23.9942 70.8309 23.9907 70.8269 23.9864C70.8248 23.9842 70.8229 23.9817 70.8213 23.979C70.8201 23.9771 70.8192 23.9751 70.8183 23.973C70.8181 23.9725 70.8179 23.972 70.8178 23.9715C70.8168 23.9689 70.8161 23.9662 70.8157 23.9635C70.8153 23.9604 70.8151 23.9573 70.8153 23.9542L71.2717 17.9712C71.2724 17.9603 71.2773 17.9501 71.2852 17.9426C71.2932 17.9351 71.3038 17.931 71.3147 17.931H72.6742C72.6755 17.931 72.6768 17.931 72.678 17.9311C72.6793 17.9312 72.6805 17.9313 72.6818 17.9315C72.6831 17.9318 72.6844 17.932 72.6856 17.9324C72.6877 17.9329 72.6897 17.9336 72.6916 17.9344C72.693 17.935 72.6944 17.9356 72.6957 17.9364C72.7023 17.94 72.7078 17.9453 72.7116 17.9518L74.8729 21.5793C74.8777 21.5869 74.8848 21.5928 74.8932 21.5961C74.8955 21.597 74.8979 21.5977 74.9003 21.5982C74.9066 21.5996 74.9131 21.5995 74.9194 21.5979C74.9281 21.5958 74.9359 21.591 74.9418 21.5841C74.9451 21.5803 74.9477 21.5759 74.9494 21.5712C74.9508 21.5676 74.9516 21.5638 74.952 21.5599L75.2239 17.9712C75.2246 17.9603 75.2294 17.9501 75.2374 17.9426C75.2454 17.9351 75.2559 17.931 75.2669 17.931H76.5889C76.5914 17.931 76.5939 17.9312 76.5963 17.9316C76.5984 17.932 76.6005 17.9325 76.6025 17.9332C76.6037 17.9336 76.6049 17.934 76.606 17.9345C76.6087 17.9357 76.6113 17.9371 76.6136 17.9388C76.6161 17.9404 76.6183 17.9424 76.6203 17.9445C76.6233 17.9477 76.6258 17.9514 76.6277 17.9553C76.6283 17.9567 76.6289 17.958 76.6294 17.9594C76.6314 17.965 76.6323 17.9709 76.6319 17.9768L76.2199 23.9598C76.2192 23.9707 76.2143 23.9809 76.2063 23.9884C76.1984 23.9959 76.1878 24 76.1769 24L74.7966 23.9986C74.7895 23.9986 74.7824 23.9969 74.7761 23.9935C74.7698 23.9901 74.7645 23.9852 74.7605 23.9792L72.5702 20.5486C72.5652 20.541 72.558 20.5351 72.5496 20.5319C72.5411 20.5286 72.5318 20.528 72.5231 20.5304C72.5143 20.5327 72.5065 20.5377 72.5007 20.5447C72.495 20.5517 72.4916 20.5604 72.4911 20.5694L72.2733 23.957C72.2726 23.9679 72.2677 23.9782 72.2598 23.9856C72.2518 23.9931 72.2412 23.9972 72.2303 23.9972Z" fill="#EE1B3B"/>
<path d="M86.4658 22.1272C86.3742 22.4315 86.1953 22.5832 85.9289 22.5822C84.6647 22.5767 83.3691 22.5753 82.042 22.5781C82.0207 22.5781 82.0096 22.5887 82.0087 22.61L81.9268 23.9292C81.9265 23.9344 81.9271 23.9395 81.9288 23.9444C81.9297 23.9467 81.9307 23.949 81.932 23.9511C81.9333 23.9534 81.9349 23.9555 81.9368 23.9575C81.9403 23.9613 81.9445 23.9643 81.9493 23.9663C81.9505 23.9669 81.9517 23.9673 81.9529 23.9677L81.9541 23.968L81.9546 23.9682C81.9577 23.969 81.961 23.9694 81.9643 23.9694C83.2636 23.9611 84.6619 23.9625 86.1592 23.9736C86.8348 23.9778 87.3244 23.6101 87.5644 22.9804C87.9293 22.0287 87.871 21.0077 86.9485 20.3918C86.7663 20.2707 86.568 20.211 86.3534 20.2129C85.5211 20.2212 84.7248 20.2231 83.9646 20.2184C83.7001 20.2166 83.5938 20.0862 83.6456 19.8272C83.6484 19.8124 83.6521 19.7976 83.6567 19.7829C83.7399 19.5193 83.9198 19.3875 84.1963 19.3875H87.5825C87.601 19.3876 87.6189 19.3807 87.6327 19.3681C87.6465 19.3556 87.6553 19.3383 87.6574 19.3195L87.7933 17.992C87.7941 17.9839 87.7932 17.9757 87.7906 17.968C87.788 17.9602 87.7838 17.9531 87.7784 17.9471C87.7729 17.9411 87.7662 17.9363 87.7587 17.9331C87.7513 17.9298 87.7432 17.9281 87.7351 17.9282C86.7289 17.9365 85.6783 17.9351 84.5833 17.924C84.1542 17.9194 83.8111 17.9628 83.554 18.0544C82.8826 18.293 82.3666 18.7882 82.2723 19.5193C82.1613 20.371 82.2501 21.6514 83.3751 21.6473C84.3295 21.6426 85.2085 21.6399 86.0122 21.6389C86.2554 21.6389 86.4075 21.7573 86.4685 21.9941C86.4796 22.0384 86.4787 22.0828 86.4658 22.1272Z" fill="#EE1B3B"/>
<path fill-rule="evenodd" clip-rule="evenodd" d="M26.6911 10.3693C26.3152 10.0211 25.6757 10.2611 25.3039 10.4803C25.2271 10.5256 25.1971 10.5043 25.2137 10.4164C25.309 9.89856 25.3589 9.38437 25.3636 8.87387C25.3645 8.66302 25.321 8.46835 25.2332 8.28986C25.2234 8.26889 25.2076 8.25127 25.1879 8.23918C25.1682 8.22709 25.1453 8.22108 25.1222 8.22189C24.9529 8.22744 24.7906 8.26119 24.6353 8.32315C24.1553 8.51366 23.6647 8.69076 23.1634 8.85445C23.1374 8.86314 23.1095 8.86506 23.0825 8.86003C23.0555 8.85501 23.0302 8.84322 23.009 8.82575C22.9878 8.80828 22.9713 8.78572 22.9612 8.76017C22.9511 8.73462 22.9477 8.70692 22.9512 8.67967C23.0137 8.19691 24.469 7.09185 25.1463 6.57757L25.1471 6.57701C25.2363 6.50929 25.3119 6.45183 25.3691 6.40743C25.4847 6.31772 25.5129 6.19703 25.4537 6.04536C25.437 6.00252 25.4091 5.96498 25.373 5.93667C25.3368 5.90836 25.2938 5.89032 25.2484 5.88445C24.9479 5.84653 24.6649 5.8715 24.3994 5.95936C23.2564 6.33945 22.1022 7.07606 21.0923 7.74192C21.0378 7.77798 20.9823 7.78122 20.9259 7.75163C20.9137 7.74522 20.903 7.7364 20.8944 7.72573C20.8858 7.71506 20.8794 7.70277 20.8758 7.68962C20.8721 7.67647 20.8713 7.66274 20.8732 7.6493C20.8751 7.63587 20.8798 7.623 20.887 7.61152C21.7323 6.25298 22.5475 4.87826 23.3327 3.48736C23.9389 2.41505 22.3811 2.11125 21.9372 2.77156C21.6972 3.12669 21.7762 3.71902 21.9108 4.09912C21.9788 4.29333 21.9247 4.47228 21.8192 4.64013C21.5464 5.07571 21.2329 5.52747 20.8787 5.99543C20.6133 6.345 20.2124 7.02566 19.676 8.03739C19.4499 8.46188 19.4138 8.8933 19.8286 9.19848C19.8628 9.22383 19.9048 9.23646 19.9474 9.23418C19.9899 9.2319 20.0303 9.21486 20.0617 9.186C20.266 8.99826 20.506 8.85492 20.7816 8.75596C21.3374 8.55713 21.9025 8.39205 22.4768 8.26073C22.4839 8.2592 22.4913 8.25977 22.4981 8.26237C22.5048 8.26497 22.5107 8.26948 22.515 8.27536C22.5192 8.28124 22.5217 8.28824 22.5221 8.29549C22.5224 8.30274 22.5207 8.30995 22.517 8.31622L20.7344 11.3708C20.7049 11.4217 20.6605 11.4476 20.6013 11.4485C20.0353 11.455 19.4735 11.5331 18.9158 11.683C18.6606 11.7523 18.5034 11.9156 18.4442 12.1726C18.4312 12.23 18.4211 12.2878 18.4137 12.346C18.3822 12.5865 18.4867 12.6901 18.7272 12.6568C19.0323 12.6133 19.362 12.6068 19.7162 12.6374C19.731 12.6385 19.7451 12.6437 19.7571 12.6523C19.769 12.661 19.7784 12.6727 19.7841 12.6864C19.7899 12.7 19.7917 12.7149 19.7895 12.7295C19.7874 12.7441 19.7812 12.7578 19.7717 12.7691C19.2016 13.4641 18.8021 14.2049 18.8173 15.1246C18.8176 15.1375 18.8206 15.1502 18.8261 15.1618C18.8316 15.1734 18.8394 15.1837 18.8492 15.192C18.8589 15.2002 18.8702 15.2063 18.8825 15.2098C18.8947 15.2132 18.9075 15.214 18.92 15.212L22.4574 14.6904C22.523 14.6803 22.5484 14.7075 22.5337 14.7723C22.3986 15.3484 22.3371 15.9454 22.3492 16.5632C22.3498 16.5925 22.3567 16.6214 22.3694 16.6479C22.3821 16.6743 22.4004 16.6977 22.4229 16.7164C22.4454 16.7351 22.4717 16.7487 22.4999 16.7563C22.5281 16.7638 22.5576 16.7651 22.5864 16.7601C23.5158 16.5964 24.0679 15.7572 24.147 14.8111C24.1619 14.6318 24.2613 14.5135 24.365 14.3901C24.4739 14.2606 24.5875 14.1254 24.6131 13.908C24.7019 13.1469 24.7823 12.3784 24.8544 11.6025C24.86 11.5452 24.8905 11.5082 24.946 11.4915C25.31 11.3847 25.6534 11.3921 26.0017 11.3996C26.2188 11.4043 26.4378 11.409 26.6647 11.3861C26.7423 11.3782 26.8146 11.3435 26.8692 11.288C26.9237 11.2325 26.9569 11.1597 26.963 11.0823C26.987 10.7965 26.8964 10.5589 26.6911 10.3693ZM22.7362 9.41072C22.8083 9.60586 22.7875 9.807 22.6738 10.0142C22.6516 10.0548 22.6206 10.0632 22.5808 10.0391L22.2507 9.83798C22.2306 9.82592 22.2156 9.80702 22.2082 9.78465C22.2008 9.76229 22.2016 9.73792 22.2104 9.71591C22.2724 9.56609 22.3727 9.44124 22.5115 9.34136C22.5299 9.32797 22.5513 9.31905 22.5738 9.31533C22.5963 9.3116 22.6193 9.31317 22.6412 9.31989C22.663 9.32662 22.6829 9.33833 22.6994 9.3541C22.7159 9.36986 22.7285 9.38925 22.7362 9.41072ZM23.6254 10.7785C23.556 10.9431 23.4751 10.9491 23.3826 10.7965C23.0719 10.2805 23.1056 9.92445 23.4839 9.72839C23.512 9.7137 23.5429 9.70505 23.5746 9.70302C23.6063 9.70098 23.6381 9.7056 23.6678 9.71658C23.6976 9.72755 23.7248 9.74464 23.7476 9.76675C23.7704 9.78885 23.7883 9.81548 23.8002 9.84492C23.9088 10.1146 23.7655 10.4501 23.6533 10.7128C23.6437 10.7353 23.6343 10.7572 23.6254 10.7785ZM21.6718 10.9C21.7056 10.8381 21.7467 10.7627 21.7513 10.7022C21.7559 10.6578 21.7786 10.6449 21.8192 10.6634C21.9441 10.7226 22.0264 10.8169 22.0662 10.9464C22.0837 11.0018 22.0634 11.0296 22.0051 11.0296L21.711 11.0324C21.6398 11.0333 21.6199 11.0018 21.6514 10.938C21.6543 10.9324 21.6574 10.9267 21.6606 10.9207C21.6624 10.9173 21.6643 10.9139 21.6662 10.9104C21.668 10.907 21.6699 10.9035 21.6718 10.9ZM23.4003 12.348C23.3267 12.4409 23.2289 12.4915 23.1285 12.4887C23.0281 12.4859 22.9333 12.4299 22.865 12.333C22.7966 12.2361 22.7603 12.1063 22.7641 11.972C22.7678 11.8378 22.8113 11.7102 22.885 11.6172C22.9586 11.5243 23.0564 11.4737 23.1568 11.4765C23.2572 11.4793 23.352 11.5353 23.4203 11.6322C23.4887 11.7291 23.5249 11.8589 23.5212 11.9932C23.5174 12.1274 23.474 12.255 23.4003 12.348ZM19.984 13.6306C20.0034 13.5501 20.0358 13.4752 20.0811 13.4059C20.3918 12.9231 20.7483 12.457 21.1506 12.0076C21.1858 11.9687 21.2246 11.9636 21.2671 11.9923C21.663 12.2596 22.019 12.5666 22.3353 12.9134C22.3629 12.9436 22.3836 12.9796 22.3959 13.0186C22.4081 13.0577 22.4117 13.099 22.4063 13.1396C22.4008 13.1802 22.3866 13.2191 22.3645 13.2536C22.3424 13.2881 22.313 13.3174 22.2784 13.3393C21.6181 13.7628 20.8889 13.9127 20.0908 13.7887C20.0731 13.7862 20.0562 13.7799 20.0411 13.7704C20.026 13.7609 20.013 13.7483 20.0029 13.7335C19.9929 13.7186 19.986 13.7018 19.9828 13.6841C19.9795 13.6664 19.9799 13.6482 19.984 13.6306Z" fill="#EE1B3B"/>
<path d="M85.203 5.19845C86.0141 4.63303 86.8243 4.06827 87.8016 3.94942C87.8562 3.94295 87.8839 3.96746 87.8849 4.02295L87.9612 11.9813C87.9621 12.0535 87.938 12.1154 87.889 12.1672C87.3036 12.7929 86.6253 14.0094 87.5533 14.7044C88.0222 15.0568 88.5327 14.5463 88.8101 14.212C88.9783 14.0096 89.0077 13.4475 89.0218 13.1777L89.0224 13.166C89.187 9.94307 89.2855 6.72013 89.3178 3.4972C89.322 3.10878 88.9502 2.78833 88.6242 2.651C88.5808 2.6325 88.5368 2.63204 88.4925 2.64961C87.4262 3.06115 86.321 3.49165 85.177 3.9411C85.0092 4.00736 84.8598 3.98131 84.6988 3.95324C84.6575 3.94604 84.6155 3.93872 84.5722 3.93278C84.1824 3.87868 83.6497 3.97023 83.4652 4.37668C83.3237 4.68464 83.3617 4.97549 83.579 5.24924C83.9452 5.71071 84.4076 5.74863 84.9662 5.36299C85.045 5.30857 85.1237 5.25374 85.2024 5.19893L85.2024 5.19887L85.203 5.19845Z" fill="#EE1B3B"/>
<path d="M54.2216 6.69468C54.4338 7.87103 53.6708 9.00992 52.8302 9.83808C52.7912 9.87707 52.7439 9.90688 52.6918 9.92535C52.6398 9.94383 52.5842 9.9505 52.5292 9.9449C52.3794 9.92918 52.2896 9.88062 52.2601 9.79924C52.1935 9.61798 52.242 9.47602 52.4057 9.37337C53.1506 8.90727 53.2075 7.88213 53.134 7.07338C53.1327 7.06133 53.1289 7.04968 53.1229 7.03918C53.1169 7.02867 53.1088 7.01954 53.0991 7.01236C53.0895 7.00519 53.0784 7.00012 53.0668 6.99749C53.0551 6.99486 53.043 6.99473 53.0313 6.99709C52.3146 7.14321 51.6122 7.34574 50.9242 7.60468C50.8776 7.62214 50.8381 7.65457 50.8117 7.69695C50.7854 7.73934 50.7737 7.78931 50.7785 7.83912L50.9061 9.13616C50.9126 9.19627 50.9006 9.25268 50.8701 9.3054C50.7175 9.57035 50.2389 10.2681 49.9531 9.73404C49.4662 8.82404 49.2082 7.28701 50.0877 6.55596C50.4359 6.26603 51.16 6.40475 51.5706 6.49631C51.7463 6.53515 51.9239 6.54347 52.1033 6.52128C52.869 6.4251 53.5756 6.30718 54.223 6.16754C54.4338 6.12222 54.6419 6.05564 54.8472 5.96778C54.8539 5.96474 54.8597 5.96014 54.8642 5.95437C54.8688 5.9486 54.8718 5.94182 54.8732 5.93462C54.8745 5.92741 54.8742 5.91998 54.872 5.91296C54.8699 5.90594 54.8662 5.89953 54.8611 5.89426C54.5448 5.57613 54.2461 5.24181 53.9649 4.89131C53.8392 4.73594 53.7721 4.55607 53.7638 4.35169C53.7277 3.55127 54.2188 3.45972 54.8777 3.50272C55.0516 3.51474 55.1977 3.58272 55.3161 3.70664C55.7877 4.19863 56.2765 4.66289 56.7823 5.09939L56.7864 5.1029C56.8973 5.19875 57.0035 5.29054 57.1638 5.26724C58.1774 5.11465 59.0444 4.7919 59.7648 4.29898C59.9729 4.15609 60.2198 4.29343 60.396 4.42105C60.79 4.70543 61.2256 5.32273 61.0369 5.83184C60.8492 6.3377 60.476 6.60867 59.9174 6.64474C59.8258 6.6506 59.7359 6.65114 59.6471 6.65167C59.3997 6.65316 59.1613 6.65459 58.9214 6.77097C58.7485 6.85606 58.5765 6.89906 58.4054 6.89998C58.0974 6.90183 58.0775 6.82692 58.3457 6.67526C58.7716 6.43388 59.1545 6.11899 59.2932 5.64595C59.3037 5.60976 59.3049 5.57148 59.2968 5.53469C59.2887 5.4979 59.2714 5.46379 59.2466 5.43554C59.2218 5.40729 59.1903 5.38582 59.155 5.37313C59.1198 5.36044 59.0819 5.35694 59.0449 5.36296C58.9922 5.37174 58.9383 5.37509 58.8846 5.37842C58.811 5.38298 58.7379 5.38752 58.6689 5.40596C58.2352 5.52156 57.5509 5.7449 56.6159 6.07598C56.0508 6.27667 55.2772 6.44868 54.2951 6.59202C54.235 6.60127 54.2105 6.63549 54.2216 6.69468Z" fill="#EE1B3B"/>
<path d="M41.9809 6.01484L41.7714 6.06339C41.7085 6.07819 41.6762 6.05368 41.6743 5.98987C41.6493 5.29165 41.328 4.71087 40.7102 4.24754C40.2857 3.92941 39.833 3.89196 39.3521 4.13518C39.1635 4.23043 39.0483 4.36083 39.0067 4.52637C38.7715 5.4771 39.5134 5.79282 40.2009 6.08537C40.2717 6.11552 40.342 6.14543 40.4106 6.17576C40.4391 6.1886 40.4636 6.2088 40.4817 6.23428C40.4999 6.25975 40.5108 6.28956 40.5135 6.32059C40.5162 6.35162 40.5105 6.38273 40.4971 6.4107C40.4836 6.43866 40.4628 6.46244 40.4369 6.47956C40.2742 6.58868 40.0804 6.67053 39.8557 6.72509C39.3757 6.84254 38.8823 6.95537 38.3755 7.06357C38.0662 7.12877 37.9275 7.38401 37.9996 7.70307C38.0141 7.76669 38.0485 7.82408 38.0978 7.86697C38.1472 7.90985 38.209 7.93601 38.2743 7.94167C38.843 7.98745 39.4742 7.50054 39.8848 7.13709C40.0947 6.95121 40.1595 6.99282 40.079 7.26194C39.9699 7.62631 39.7812 8.00132 39.513 8.38696C38.7233 9.52632 37.9769 10.6994 37.2741 11.9063C37.1928 12.0458 37.1117 12.1904 37.0313 12.3391C36.8168 12.734 36.802 12.9726 36.9869 13.0549C37.0387 13.0778 37.097 13.081 37.1509 13.0639C37.2048 13.0468 37.2506 13.0105 37.2796 12.962C37.8345 12.0325 38.4074 11.0805 38.9984 10.1057C39.3022 9.60493 39.6601 9.1638 40.1387 8.97791C40.3671 8.88913 40.5091 8.94924 40.5645 9.15825C40.5746 9.1983 40.5746 9.23979 40.5645 9.27893C40.4978 9.54846 40.4252 9.81565 40.3528 10.082L40.3528 10.0821L40.3527 10.0825L40.3526 10.0827L40.3526 10.0827L40.3526 10.0828C40.1299 10.902 39.9093 11.7134 39.8696 12.5611C39.8279 13.4627 40.1387 14.1106 41.0945 14.277C42.0156 14.4379 43.0712 14.3575 44.2614 14.0357C44.7594 13.9011 44.8427 13.41 44.4945 13.0827C44.1574 12.7636 44.4126 11.2862 44.5139 10.791C44.5685 10.52 44.4862 10.4682 44.267 10.6356C44.1181 10.7503 44.0154 10.9131 43.959 11.1239C43.8462 11.5493 43.7274 11.9687 43.6025 12.3821C43.4509 12.8861 43.1605 13.1895 42.7314 13.2921C41.948 13.4789 41.3368 13.3171 40.8975 12.8066C40.5881 12.4473 40.4133 11.9313 40.5326 11.4596C40.7157 10.7355 41.0205 9.91104 41.4468 8.98623C41.5078 8.85584 41.5471 8.72082 41.5647 8.58117C41.6216 8.12062 40.8087 8.00548 40.5077 8.01242C40.4383 8.01334 40.4212 7.98375 40.4563 7.92364C40.7837 7.35211 41.3136 6.49481 42.0058 6.57527C42.0465 6.5799 42.0641 6.5614 42.0586 6.51978C42.0382 6.38291 42.0438 6.24558 42.0752 6.10778C42.0781 6.09501 42.0778 6.08171 42.0741 6.06913C42.0704 6.05654 42.0635 6.04508 42.0541 6.03581C42.0447 6.02653 42.033 6.01975 42.0202 6.01608C42.0074 6.01242 41.9939 6.01199 41.9809 6.01484Z" fill="#EE1B3B"/>
<path fill-rule="evenodd" clip-rule="evenodd" d="M35.8841 8.32041C35.885 8.27048 35.8661 8.26169 35.8272 8.29406C35.3963 8.65473 35.0268 8.60572 34.7189 8.14701C34.6782 8.0869 34.6269 8.07627 34.5649 8.11511C34.0932 8.41289 33.6401 8.73288 33.2054 9.07505C33.0353 9.20915 32.9063 9.36452 32.8184 9.54115C32.774 9.63178 32.7181 9.63965 32.6506 9.56474L32.5715 9.47596C32.5427 9.44404 32.5246 9.40384 32.5196 9.36087C32.5146 9.3179 32.523 9.27427 32.5437 9.23597C33.3335 7.78865 34.1432 6.55034 34.9727 5.52104C35.2603 5.16221 35.5752 4.83761 35.9174 4.54722C35.96 4.51115 36.008 4.50005 36.0617 4.51392C36.4446 4.6138 37.0494 4.9606 36.919 5.45029C36.7914 5.92471 36.5356 6.47821 36.1519 7.11077C36.1075 7.18383 36.1278 7.21851 36.2129 7.21481C37.5626 7.15794 36.9592 8.43833 36.5985 9.02234C36.5884 9.03823 36.5828 9.05654 36.5822 9.07537C36.5817 9.0942 36.5862 9.11287 36.5954 9.12944C36.6046 9.146 36.6181 9.15986 36.6345 9.16957C36.6509 9.17927 36.6696 9.18448 36.6887 9.18464C36.7867 9.18464 36.8783 9.20221 36.9634 9.23736C37.0003 9.25241 37.0337 9.2748 37.0617 9.30317C37.0897 9.33155 37.1116 9.36531 37.1261 9.40242C37.1406 9.43952 37.1475 9.47919 37.1462 9.51901C37.1449 9.55884 37.1356 9.59799 37.1187 9.6341C36.9911 9.90876 36.8256 10.1432 36.6221 10.3374C36.5925 10.3661 36.5786 10.4012 36.5805 10.4428C36.6314 11.5138 36.6785 12.6272 36.722 13.7832C36.7414 14.2937 36.5417 14.6031 36.0395 14.7598C35.8527 14.8181 35.7459 14.7501 35.719 14.5559C35.6566 14.1148 35.5706 13.7194 35.1961 13.4226C35.025 13.2857 35.0481 13.2288 35.2654 13.2519C35.3986 13.2658 35.5234 13.2455 35.64 13.1909C35.6955 13.1641 35.7269 13.1201 35.7343 13.0591C35.7537 12.8954 35.7144 12.7405 35.6164 12.5944C35.5886 12.5528 35.5498 12.5292 35.4999 12.5236C35.1558 12.4857 34.8941 12.3248 34.7147 12.0409C34.5741 11.8189 34.4752 11.5466 34.4178 11.2238C34.4158 11.2135 34.4108 11.2041 34.4034 11.1967C34.396 11.1893 34.3865 11.1842 34.3762 11.1822L34.3305 11.1739C34.2953 11.1674 34.2777 11.1822 34.2777 11.2183C34.2779 11.289 34.2796 11.3808 34.2815 11.4885C34.2969 12.338 34.3303 14.1777 33.7825 14.4768C33.7236 14.5095 33.6543 14.5184 33.5891 14.5016C33.5238 14.4849 33.4674 14.4437 33.4315 14.3867C33.3326 14.2294 33.2836 14.0667 33.2845 13.8984C33.2891 13.1539 33.322 12.2841 33.383 11.289C33.3876 11.2224 33.3603 11.2044 33.3011 11.2349C33.2141 11.2791 33.1241 11.323 33.0326 11.3676C32.5234 11.6161 31.971 11.8857 31.6629 12.3267C31.5838 12.4404 31.3979 12.568 31.2592 12.5555C30.7903 12.5139 30.5147 12.2809 30.4324 11.8564C30.4093 11.738 30.4509 11.6492 30.5573 11.5901C31.3868 11.1323 32.4272 10.8923 33.3594 10.6953C33.4066 10.6861 33.4329 10.6579 33.4385 10.6107C33.4847 10.2195 33.5374 9.82738 33.5966 9.43434C33.6369 9.16522 33.7756 8.9183 34.0156 8.78097C34.0344 8.77001 34.0558 8.76392 34.0776 8.76325C34.0994 8.76257 34.1211 8.76733 34.1406 8.77709C34.1601 8.78686 34.1769 8.80133 34.1895 8.8192C34.202 8.83706 34.21 8.85777 34.2125 8.87946C34.2616 9.29932 34.2583 9.70901 34.2028 10.1085C34.1945 10.1696 34.2209 10.1996 34.2819 10.1987H34.5469C34.6107 10.1987 34.6458 10.1668 34.6523 10.103L34.6911 9.7423C34.6957 9.69421 34.6823 9.65167 34.6509 9.61468C34.539 9.48058 34.4474 9.32521 34.3762 9.14857C34.3607 9.11002 34.353 9.06873 34.3536 9.02715C34.3543 8.98557 34.3633 8.94455 34.3802 8.90652C34.397 8.86849 34.4212 8.83422 34.4516 8.80574C34.4819 8.77726 34.5176 8.75516 34.5566 8.74074C34.8472 8.63236 35.3014 8.81744 35.6312 8.95186C35.6856 8.974 35.7365 8.99477 35.7829 9.01263C35.843 9.03667 35.8735 9.01633 35.8744 8.95159L35.8841 8.32041ZM35.5026 10.5774L35.4527 10.97C35.449 10.9959 35.4601 11.0111 35.486 11.0158L35.554 11.0268C35.5734 11.0305 35.584 11.0227 35.5859 11.0033L35.64 10.5552C35.6418 10.5404 35.6353 10.5312 35.6206 10.5275L35.5859 10.5191C35.5369 10.508 35.5091 10.5275 35.5026 10.5774Z" fill="#EE1B3B"/>
<path d="M6.56832 10.3292L6.81663 7.28147C6.82125 7.23523 6.84668 7.21211 6.89292 7.21211C7.25267 7.21026 7.62722 7.21257 8.01656 7.21905C8.49376 7.22598 9.12216 6.79456 8.90437 6.24661C8.78784 5.95253 8.51318 5.57798 8.15112 5.58076C7.2781 5.58723 6.47029 5.58769 5.72767 5.58214C5.7053 5.58167 5.68337 5.57603 5.66362 5.56568C5.64388 5.55533 5.62686 5.54054 5.61392 5.52249L5.59937 5.50239C5.31344 5.10721 5.04103 4.73072 4.55132 5.15905C4.27388 5.40319 4.12822 5.68665 4.11435 6.0094C4.09123 6.57446 4.1458 7.2061 4.27804 7.90432C4.45376 8.83098 4.66045 9.76734 4.89812 10.7134C4.912 10.7708 4.89073 10.8082 4.83431 10.8258C4.45329 10.9377 4.05517 11.0191 3.63993 11.0699C2.95927 11.1532 2.20787 11.321 1.38572 11.5735C1.36128 11.581 1.33535 11.5889 1.30819 11.5972C0.891386 11.7243 0.182765 11.9403 0.05123 12.3531C-0.353834 13.621 1.7561 13.6529 2.41087 13.5433C4.24105 13.2335 6.59699 12.7239 9.47867 12.0146C10.1237 11.8551 10.4372 11.3307 10.3901 10.6524C10.3457 10.0156 9.36076 9.87831 8.88218 9.88803C8.61491 9.89357 8.36012 9.95322 8.11783 10.067C7.65912 10.2815 7.16713 10.3953 6.64184 10.4082C6.63164 10.4085 6.6215 10.4065 6.6121 10.4026C6.60269 10.3986 6.59424 10.3927 6.58729 10.3852C6.58034 10.3778 6.57506 10.3689 6.57179 10.3592C6.56852 10.3496 6.56733 10.3393 6.56832 10.3292Z" fill="#EE1B3B"/>
<path d="M74.2639 8.45216C73.7881 7.58932 73.2124 5.88029 74.2057 5.18113C74.5844 4.91479 75.0005 5.01467 75.2114 5.4128C75.5989 6.14154 75.7561 7.03675 75.683 8.09843C75.659 8.4443 75.4652 8.65007 75.1018 8.71573C74.6819 8.79157 74.4026 8.70371 74.2639 8.45216Z" fill="#EE1B3B"/>
<path d="M18.4317 7.08588C18.3526 6.16477 17.9212 4.86357 16.7254 5.24505C16.1955 5.41568 16.1206 6.00386 16.3675 6.4325C16.51 6.68127 16.7606 6.92542 17.1194 7.16495C17.5689 7.46551 17.9887 7.4766 18.379 7.19824C18.4178 7.17049 18.4354 7.13304 18.4317 7.08588Z" fill="#EE1B3B"/>
<path d="M57.8297 8.13027C57.9074 8.14785 57.9791 8.1349 58.0447 8.09143C58.3573 7.88705 58.6801 7.87919 59.013 8.06785C59.4749 8.33003 59.0421 8.95011 58.8202 9.24836C58.7785 9.30385 58.7235 9.33714 58.6551 9.34824C57.9518 9.46199 56.6561 9.51193 56.5646 8.57557C56.4943 7.85145 56.6006 7.18004 56.8836 6.56135C57.0182 6.27003 57.3206 6.06473 57.562 6.40598C57.9541 6.95901 58.0382 7.52453 57.8144 8.10253C57.8138 8.10423 57.8134 8.106 57.8132 8.1078C57.8131 8.1084 57.8131 8.109 57.8131 8.1096C57.8131 8.10994 57.8131 8.11028 57.8131 8.11063L57.8131 8.11136C57.8132 8.11261 57.8134 8.11385 57.8137 8.11506C57.8142 8.11675 57.8148 8.11838 57.8157 8.11992C57.8171 8.12256 57.8191 8.12485 57.8215 8.12664L57.8222 8.12709L57.8229 8.12757L57.8236 8.12795C57.8238 8.12809 57.8241 8.12823 57.8243 8.12837L57.8247 8.12857C57.8251 8.12876 57.8255 8.12894 57.8259 8.1291C57.8271 8.12961 57.8284 8.13 57.8297 8.13027Z" fill="#EE1B3B"/>
<path d="M82.4665 8.7171C82.6116 8.68844 82.816 8.6126 83.0796 8.4896C84.1242 8.0027 85.0938 7.46446 85.8374 6.60439C85.853 6.58623 85.8642 6.56462 85.87 6.54132C85.8757 6.51803 85.8759 6.4937 85.8705 6.47032C85.8651 6.44694 85.8543 6.42516 85.8389 6.40676C85.8235 6.38836 85.8039 6.37385 85.7819 6.36441C85.0064 6.03009 82.9672 7.34793 82.3055 7.796C82.2694 7.82043 82.227 7.83392 82.1835 7.83484L81.3109 7.85149C81.2508 7.85241 81.2157 7.88247 81.2055 7.94166C81.0931 8.60752 81.9684 8.81282 82.4665 8.7171Z" fill="#EE1B3B"/>
<path d="M66.4262 7.52839C66.7356 6.96796 67.2849 6.22581 67.9965 6.39921C68.55 6.53377 69.1715 7.31615 68.6374 7.8308C68.3683 8.09021 66.1238 10.1252 65.9213 9.12784C65.8297 8.67838 66.2181 7.90433 66.4262 7.52839Z" fill="#EE1B3B"/>
<path d="M17.2886 10.2194C17.2433 9.79308 17.1411 9.40743 16.9821 9.06248C16.6977 8.44518 16.1109 8.12889 15.4825 8.43963C14.2271 9.05971 16.1567 11.1821 17.2318 10.3512C17.2517 10.3359 17.2674 10.3158 17.2774 10.2927C17.2873 10.2696 17.2912 10.2444 17.2886 10.2194Z" fill="#EE1B3B"/>
<path fill-rule="evenodd" clip-rule="evenodd" d="M85.4753 9.90731C85.1017 10.6416 84.7456 11.2663 84.4072 11.7814C84.2837 11.9687 84.0964 12.1268 83.8731 12.1837C82.7703 12.4653 81.587 12.2656 81.4344 10.9047C81.4279 10.8529 81.445 10.8099 81.4857 10.7757C82.33 10.0534 83.1961 9.39728 84.0839 8.80726C84.5426 8.50208 85.0087 8.546 85.4822 8.93904C85.8446 9.23946 85.7071 9.4866 85.5512 9.76674C85.5257 9.81259 85.4997 9.85932 85.4753 9.90731ZM82.404 11.0795C82.3985 11.0543 82.3995 11.031 82.4072 11.0097C82.4135 10.9918 82.4245 10.9754 82.4401 10.9602C82.9182 10.5024 83.4296 10.0733 83.9743 9.67288C84.0602 9.60958 84.1176 9.62432 84.1465 9.71709C84.1484 9.72328 84.1502 9.72981 84.1519 9.73669C84.1635 9.78333 84.1734 9.82911 84.1817 9.87402C84.2336 10.1546 84.2221 10.4014 84.1471 10.6143C84.042 10.9126 83.8125 11.1445 83.4583 11.31C83.1004 11.4778 82.5275 11.6595 82.404 11.0797V11.0795Z" fill="#EE1B3B"/>
<path d="M71.932 10.5372L71.7295 11.4875C71.7166 11.5476 71.6796 11.5786 71.6185 11.5804C71.0576 11.5965 70.533 11.8832 70.035 12.1555C70.0076 12.1704 69.9803 12.1854 69.9531 12.2002C69.9195 12.2185 69.886 12.2367 69.8526 12.2546C69.8273 12.268 69.7993 12.2757 69.7707 12.2772C69.7421 12.2787 69.7136 12.2739 69.6871 12.2632C69.6607 12.2524 69.6369 12.2361 69.6176 12.2152C69.5982 12.1943 69.5837 12.1694 69.5752 12.1422C69.5483 12.0581 69.5627 11.9832 69.6182 11.9175C70.1166 11.3275 70.6082 10.6931 71.0928 10.0143C71.1328 9.95769 71.157 9.89143 71.1629 9.82237C71.1688 9.75331 71.1561 9.68398 71.1263 9.62156C71.0964 9.55913 71.0504 9.5059 70.993 9.46738C70.9357 9.42887 70.869 9.40647 70.8001 9.40252C70.7909 9.40212 70.7818 9.40164 70.7727 9.40107C70.7606 9.40032 70.7484 9.39941 70.7363 9.39835C70.3978 9.37061 70.1661 9.43488 70.0413 9.59118C69.3292 10.4725 68.6453 11.321 67.9896 12.1367C67.8509 12.3106 67.776 12.4687 67.7649 12.6111C67.7491 12.822 67.8254 12.9917 67.9938 13.1202C68.9426 13.8499 70.9568 12.9066 71.8585 12.3573C71.9029 12.3304 71.9339 12.3411 71.9514 12.3892C72.0486 12.6569 72.2414 13.0134 72.5299 13.1105C72.5715 13.1244 72.6122 13.1221 72.652 13.1036C73.3289 12.7956 73.716 12.0784 73.4427 11.3488C73.2415 10.8078 72.7671 9.90191 72.0652 10.3472C72.0314 10.3683 72.0021 10.396 71.9793 10.4287C71.9564 10.4613 71.9403 10.4983 71.932 10.5372Z" fill="#EE1B3B"/>
<path d="M54.6017 11.6149C54.1032 11.7185 53.6648 11.6288 53.2866 11.3458C53.2637 11.3287 53.2452 11.3063 53.2328 11.2805C53.2204 11.2547 53.2144 11.2262 53.2154 11.1976C53.2163 11.169 53.2242 11.1411 53.2383 11.1161C53.2524 11.0912 53.2723 11.0701 53.2963 11.0545C54.2535 10.4344 55.6643 9.74499 56.7602 10.2083C56.8034 10.2266 56.8415 10.2552 56.871 10.2916C56.9006 10.3281 56.9207 10.3712 56.9296 10.4173C56.9385 10.4634 56.9359 10.5109 56.9221 10.5558C56.9083 10.6006 56.8836 10.6414 56.8503 10.6744C56.5877 10.9352 56.245 11.1345 55.8224 11.2723C55.7805 11.286 55.744 11.3127 55.7181 11.3486C55.6922 11.3845 55.6782 11.4277 55.6781 11.4721V12.5277C55.6781 12.5906 55.7091 12.617 55.7711 12.6068C56.2603 12.5263 56.6228 12.3349 56.8587 12.0325C56.8947 11.9872 56.9414 11.9673 56.9988 11.9728C57.6202 12.0353 58.1363 12.8953 57.3109 13.145C56.1402 13.4997 54.9027 13.6699 53.6759 13.8386C53.5784 13.852 53.481 13.8654 53.3837 13.8789C53.0841 13.9205 52.7831 14.0236 52.4806 14.1882C52.4353 14.2132 52.3872 14.2201 52.3364 14.209C52.0848 14.1582 51.8643 14.0684 51.6747 13.9399C51.2765 13.6722 51.7163 13.2407 51.9979 13.1256C52.254 13.0204 52.5076 13.0089 52.7668 12.9972C52.8936 12.9915 53.0217 12.9857 53.152 12.9689C53.6089 12.9106 54.0736 12.8472 54.5462 12.7788C54.5582 12.7769 54.5692 12.7709 54.5773 12.7618C54.5854 12.7527 54.5901 12.741 54.5906 12.7289L54.6239 11.6316C54.6239 11.6177 54.6165 11.6122 54.6017 11.6149Z" fill="#EE1B3B"/>
<path d="M16.8378 15.3189C17.6424 14.0094 18.2611 12.5168 18.225 11.0338C18.2222 10.9053 18.1797 10.8909 18.0974 10.9908C17.9707 11.1451 17.8406 11.3018 17.709 11.4605L17.7077 11.462L17.7076 11.4621C16.9864 12.331 16.2183 13.2565 15.6989 14.1523C15.4686 14.5481 15.5213 14.9425 15.857 15.3356C16.1081 15.6296 16.6089 15.6921 16.8378 15.3189Z" fill="#EE1B3B"/>
</svg>
