<svg width="49" height="30" viewBox="0 0 49 30" fill="none" xmlns="http://www.w3.org/2000/svg">
<path d="M21.0929 14.2075H20.082V12.1583H21.2295C21.53 12.1583 22.541 12.1583 22.541 13.1419C22.541 13.4151 22.4317 14.2075 21.0929 14.2075Z" fill="white"/>
<path d="M20.9836 17.6774H20.082V15.355H21.0929C22.377 15.355 22.6776 15.9834 22.6776 16.5299C22.6776 17.3496 21.9672 17.6774 20.9836 17.6774Z" fill="white"/>
<path d="M26.5847 16.3386C25.9836 16.5572 25.7923 16.8304 25.7923 17.2402C25.7923 17.814 26.3115 17.9506 26.5574 17.9506C26.776 17.9506 27.2678 17.8687 27.8415 17.2949V15.8468L27.8196 15.8616C27.7525 15.9071 27.7091 15.9365 27.4863 16.0107L26.5847 16.3386Z" fill="white"/>
<path d="M8.49724 17.2403C8.49724 16.8304 8.6885 16.5572 9.28959 16.3386L10.1912 16.0107C10.414 15.9365 10.4574 15.9071 10.5245 15.8616L10.5464 15.8468V17.2949C9.97265 17.8687 9.48085 17.9506 9.26227 17.9506C9.01637 17.9506 8.49724 17.814 8.49724 17.2403Z" fill="white"/>
<path fill-rule="evenodd" clip-rule="evenodd" d="M49.071 0H0V30H49.071V0ZM12.5956 18.825H13.9891V12.978H12.5956V18.825ZM12.5956 12.4315H13.9891V11.0381H12.5956V12.4315ZM14.6175 18.8249V12.9779H15.9836V14.0708C16.4208 13.4424 17.0492 12.8687 17.8962 12.8687C18.0601 12.8687 18.1421 12.8687 18.224 12.896V14.2075C18.1148 14.1801 17.8962 14.1801 17.8142 14.1801C17.1858 14.1801 16.0383 14.7812 16.0383 15.9561V18.8249H14.6175ZM18.5792 11.0381V18.825H21.2568C23.2514 18.825 24.153 17.8687 24.153 16.6938C24.153 15.2507 23.0404 14.9472 22.4378 14.7829L22.4317 14.7813C22.9781 14.6173 23.9891 14.2621 23.9891 12.9507C23.9891 11.0381 21.7486 11.0381 21.0929 11.0381H18.5792ZM28.1148 18.8249L27.9508 18.1965C27.5956 18.4971 27.0492 18.9342 26.1749 18.9342C25.1366 18.9342 24.3716 18.2512 24.3716 17.3222C24.3716 16.7211 24.5902 16.0107 25.8743 15.5736L27.5683 14.9998C27.8142 14.9178 27.8142 14.9178 27.8142 14.7539V14.508C27.8142 14.0162 27.377 13.8796 26.8306 13.8796C25.9146 13.8796 25.0783 14.4374 24.7408 14.6626L24.7268 14.6719V13.4697C25.1093 13.2512 25.8197 12.8687 27.0492 12.8687C28.8798 12.8687 29.235 13.7703 29.235 14.8905V18.8523H28.1148V18.8249ZM10.6557 18.2239L10.8196 18.825V18.8796H11.9399V14.9179C11.9399 13.7976 11.5847 12.896 9.75407 12.896C8.52456 12.896 7.81418 13.2785 7.43167 13.4971V14.6993L7.44572 14.6899C7.78323 14.4648 8.61952 13.9069 9.53549 13.9069C10.1093 13.9069 10.5464 14.0435 10.5464 14.5353V14.7812C10.5464 14.9366 10.5219 14.9447 10.31 15.0149L10.2732 15.0271L8.57921 15.6009C7.29506 16.0381 7.07648 16.7485 7.07648 17.3495C7.07648 18.2785 7.8415 18.9616 8.87976 18.9616C9.75407 18.9616 10.3005 18.5244 10.6557 18.2239ZM29.7814 11.0381H31.1749V18.825H29.7814V11.0381ZM31.53 14.0436H32.4043V17.1583C32.4043 18.1692 32.7049 18.9616 34.2623 18.9616C34.5355 18.9616 34.7268 18.9343 34.918 18.9069V17.8414C34.8087 17.8687 34.6721 17.896 34.5082 17.896C33.8524 17.896 33.7978 17.5135 33.7978 17.0763V14.0436H34.8634V12.978H33.7978V11.0381H32.4043V12.978H31.53V14.0436ZM35.4099 11.0381H36.8033V12.4315H35.4099V11.0381ZM35.4099 12.978H36.8033V18.8523H35.4099V12.978ZM41.8306 14.5383L41.8579 14.5626H41.8306V14.5383ZM41.8306 14.5383C41.5541 14.2939 41.0944 13.9615 40.3279 13.9615C39.1257 13.9615 38.6339 14.9725 38.6339 15.9287C38.6339 16.3386 38.7432 17.896 40.2732 17.896C41.0656 17.896 41.5847 17.5408 41.9672 17.2675V18.497L41.9462 18.5076C41.6626 18.6497 41.0405 18.9615 40.0547 18.9615C38.0601 18.9615 37.2131 17.4588 37.2131 15.9014C37.2131 14.2621 38.1148 12.8413 40.1093 12.8413C41.0452 12.8413 41.5624 13.1292 41.8145 13.2695L41.8306 13.2785V14.5383Z" fill="white"/>
</svg>
