<svg width="154" height="18" viewBox="0 0 154 18" fill="none" xmlns="http://www.w3.org/2000/svg">
<path d="M72.2131 9.52583C72.2131 9.52583 73.2212 7.16577 73.6593 6.48119C73.6593 6.48119 74.8787 8.16439 75.3142 9.55065C75.3142 9.55065 73.9263 9.768 72.2131 9.52583ZM43.4619 7.72883V5.07268C43.4619 5.07268 43.4893 3.09256 45.0647 3.09256C46.6452 3.09256 46.4458 5.01792 46.4578 5.2618C46.4732 5.50653 46.3722 7.72883 43.4619 7.72883ZM48.384 1.08248C48.384 1.08248 40.7211 1.65923 36.5897 1.27159C36.5897 1.27159 36.1019 1.13981 35.9667 1.70886C35.9667 1.70886 35.6946 2.14528 36.1293 2.4405C36.5648 2.73487 37.8125 3.47164 37.8125 6.18084V11.4195C37.8125 11.4195 38.0572 14.2964 36.072 15.3849C36.072 15.3849 35.6698 15.515 35.882 16.0892C35.882 16.0892 35.9119 16.5983 36.4818 16.523C37.05 16.4383 40.2581 16.1936 44.6599 16.4931C44.6599 16.4931 45.0399 16.523 45.1477 16.274C45.2572 16.0318 45.2846 16.0062 45.2846 16.0062C45.2846 16.0062 45.668 15.6245 45.0972 15.2446C44.5222 14.8629 43.5723 14.2964 43.4893 11.8816C43.4123 9.46935 43.4893 9.41459 43.4893 9.41459H43.8444C43.8444 9.41459 45.0647 9.30677 45.8827 11.1474C45.8827 11.1474 47.4581 14.9476 47.7011 15.4097C47.9459 15.8667 48.4139 16.8473 50.1245 16.6805C51.8351 16.523 59.8224 15.9514 68.2982 16.7104C68.2982 16.7104 69.2284 16.8473 69.5758 15.9514C69.5758 15.9514 71.0442 12.0185 71.3968 11.3921C71.3968 11.3921 74.4953 11.31 76.1785 11.3399C76.1785 11.3399 76.8066 12.3985 76.8066 13.6718C76.8066 14.9476 75.6942 15.2446 75.6942 15.2446C75.6942 15.2446 75.2304 15.4345 75.4486 16.0062C75.4486 16.0062 75.5342 16.5453 76.0733 16.4939C76.6184 16.4383 81.4831 15.9788 88.8209 16.4383C88.8209 16.4383 89.3086 16.6334 89.4729 15.9788C89.4729 15.9788 89.7681 15.4654 89.253 15.2146C89.253 15.2146 87.3251 14.7834 87.3251 11.719C87.3251 8.65043 87.3525 6.48034 87.3525 6.48034C87.3525 6.48034 88.8209 8.57085 90.5563 11.6865C92.2968 14.8099 93.2192 16.1414 93.2192 16.1414C93.2192 16.1414 94.0878 17.822 95.8009 16.9286C97.5158 16.0318 99.3616 14.9998 100.422 14.2691C100.422 14.2691 100.827 14.0765 100.613 13.5674L100.45 13.2345C100.45 13.2345 100.422 13.048 99.8468 12.9949C99.8468 12.9949 98.5718 13.2944 98.5444 11.4717C98.5161 9.65419 98.434 7.07763 98.5444 4.45058C98.5444 4.45058 98.6017 2.82215 100.095 2.35835C100.095 2.35835 100.64 2.30359 100.392 1.65923L100.232 1.32721C100.232 1.32721 100.232 1.05681 99.8468 1.10986C99.472 1.16463 97.3481 1.35716 95.0924 1.16463C95.0924 1.16463 94.6098 1.16463 94.5499 1.70886C94.5499 1.70886 94.413 2.19577 94.798 2.35835C95.1746 2.52094 96.5035 3.01212 96.5908 5.10007C96.6712 7.18801 96.7012 10.094 96.7012 10.094C96.7012 10.094 93.6 5.53391 91.6139 2.03318C91.6139 2.03318 91.2887 1.08248 90.1233 1.16463C88.9552 1.24678 86.1544 1.37856 84.1187 1.1903C84.1187 1.1903 83.5462 1.10986 83.4658 1.76106C83.4658 1.76106 83.3032 2.33354 83.7935 2.5757C83.7935 2.5757 85.422 3.60941 85.422 3.96196C85.422 4.3111 85.3946 11.5291 85.3946 11.5291C85.3946 11.5291 85.5315 14.483 84.7442 14.1065C84.7442 14.1065 84.2839 14.4034 83.1689 12.3737C82.0504 10.3362 80.6128 7.42933 78.2716 1.78845C78.2716 1.78845 77.789 0.218206 76.7809 0.218206C76.7809 0.218206 76.1785 0.245589 75.5555 0.594721C74.9309 0.947276 72.9456 2.06313 70.8791 2.657C70.8791 2.657 70.3391 2.82215 70.4991 3.35868C70.4991 3.35868 70.4187 3.76943 71.0168 3.98592C71.6116 4.20328 72.1293 4.45058 72.2944 4.74751C72.2944 4.74751 71.6697 6.75844 70.5291 8.81815C69.3884 10.8779 67.9234 14.2964 63.7064 14.2964H62.0489C62.0489 14.2964 61.6159 14.3512 61.6159 13.7488V9.38464H62.701C62.701 9.38464 64.4698 9.0047 65.3126 11.2869C65.3126 11.2869 65.4727 11.9886 66.0725 11.719C66.0725 11.719 66.7554 11.6369 66.7006 10.9574C66.6424 10.2831 66.5894 8.43565 66.7254 6.80551C66.7254 6.80551 66.7802 6.32117 66.2325 6.21335C66.2325 6.21335 65.8021 5.996 65.4726 6.34856C65.15 6.70282 64.4698 7.54143 62.9235 7.54143H61.6408V3.47164C61.6408 3.47164 61.6151 3.20209 61.8059 3.17727C61.9959 3.14476 64.3619 2.5757 65.7448 3.68899C67.131 4.79971 67.2132 5.2618 67.5127 5.67168C67.5127 5.67168 67.7831 6.3477 68.4933 5.88561C68.4933 5.88561 69.0333 5.80432 68.7637 4.9623C68.4933 4.12369 68.4112 3.82419 67.9482 1.70886C67.9482 1.70886 67.8652 0.812073 66.9428 0.89251C66.0152 0.974659 60.228 1.65923 54.7933 1.21939C54.7933 1.21939 54.2234 1.08248 54.113 1.68148C54.113 1.68148 53.876 2.08623 54.3329 2.46874C54.3329 2.46874 55.9366 3.20209 55.9366 6.02082V10.7427C55.9366 10.7427 56.2087 14.483 54.8789 14.483C54.8789 14.483 54.3081 14.7277 53.3258 12.8058C52.3554 10.8779 52.2972 10.8231 52.2972 10.8231C52.2972 10.8231 51.5074 8.3013 48.111 8.19348C48.111 8.19348 52.8123 7.40622 52.3802 3.87896C52.3802 3.87896 52.2972 1.18944 48.7639 1.08248H48.384ZM112.457 6.29122C113.925 8.38174 114.116 9.35811 114.116 9.35811C112.948 9.55065 111.019 9.33586 111.019 9.33586C111.59 7.81525 112.457 6.29208 112.457 6.29208L112.457 6.29122ZM124.769 10.6896C124.769 10.6896 124.876 14.2468 123.548 14.0021C123.548 14.0021 123.081 14.2973 121.968 12.2616C120.858 10.225 119.418 7.32578 117.079 1.68234C117.079 1.68234 116.589 0.10953 115.583 0.10953C115.583 0.10953 114.984 0.136913 114.361 0.486045C113.736 0.841168 111.757 1.95189 109.687 2.54832C109.687 2.54832 109.146 2.71091 109.311 3.25258C109.311 3.25258 109.225 3.6599 109.822 3.87982C110.419 4.09374 110.937 4.33933 111.099 4.63627C111.099 4.63627 110.476 6.64635 109.334 8.71119C108.191 10.7709 107.186 13.783 104.497 15.1359C104.497 15.1359 103.976 15.248 104.144 15.8675C104.332 16.5744 104.692 16.3844 104.692 16.3844C107.813 16.0626 108.763 16.3348 109.471 16.3844C110.174 16.4392 110.069 15.8675 110.069 15.8675C110.257 15.5158 110.014 15.3011 110.014 15.3011L109.719 14.9211C109.719 14.9211 108.543 14.6216 110.207 11.2877C110.207 11.2877 113.303 11.2056 114.984 11.233C114.984 11.233 115.611 12.2898 115.611 13.5682C115.611 14.8415 114.493 15.1359 114.493 15.1359C114.493 15.1359 114.033 15.3284 114.254 15.8975C114.254 15.8975 114.336 16.4392 114.876 16.3853C115.421 16.3339 124.442 15.9523 131.776 16.4118C131.776 16.4118 132.297 16.4392 132.435 15.9796C132.435 15.9796 132.727 15.4106 132.217 15.0837C132.217 15.0837 130.774 14.4342 130.664 12.1221C130.554 9.8202 130.584 5.45005 130.584 5.45005C130.584 5.45005 130.471 3.01297 132.022 2.25139C132.022 2.25139 132.434 2.06399 132.217 1.52232C132.217 1.52232 132.107 1.00547 131.612 1.05766C131.127 1.11072 125.992 1.38027 123.574 1.08334C123.574 1.08334 123.032 1.05766 122.924 1.52232C122.924 1.52232 122.648 1.95189 123.111 2.30444C123.573 2.65871 124.769 3.47249 124.769 5.99686V10.6896ZM141.72 7.62015V4.96315C141.72 4.96315 141.78 2.98645 143.273 2.98645C144.769 2.98645 144.794 4.66365 144.716 5.20275C144.637 5.75212 144.494 7.62015 141.72 7.62015ZM146.399 0.865983C146.399 0.865983 140.42 1.56767 134.878 1.03542C134.878 1.03542 134.17 0.841168 134.085 1.56767C134.085 1.56767 134.035 2.06399 134.328 2.25224C134.632 2.44136 135.855 3.17813 135.936 5.72474C136.021 8.27477 136.076 7.54228 136.021 11.0114C136.021 11.0114 136.235 14.3521 134.327 15.1659C134.327 15.1659 133.843 15.2754 134.115 15.9796C134.115 15.9796 134.277 16.5239 134.738 16.3348C134.738 16.3348 139.202 16.0327 143.058 16.357C143.058 16.357 143.491 16.5239 143.629 15.9523C143.629 15.9523 143.979 15.5732 143.439 15.1659C142.894 14.7585 141.915 14.0526 141.808 12.342C141.701 10.634 141.72 9.27853 141.72 9.27853H142.105C142.105 9.27853 143.38 9.11594 144.249 11.1235C144.751 12.2772 145.241 13.4359 145.719 14.5994C145.719 14.5994 146.289 16.1944 147.215 16.7113C147.215 16.7113 147.592 17.0638 149.008 16.8995C149.008 16.8995 151.314 16.7643 153.597 15.7101C153.597 15.7101 154.115 15.598 153.949 15.0007C153.949 15.0007 154.062 14.5386 153.407 14.4043C152.759 14.2699 152.264 13.6478 151.804 12.7236C151.346 11.7978 150.634 10.444 150.634 10.444C150.634 10.444 149.684 8.0848 146.589 8.05657C146.589 8.05657 150.856 7.32578 150.856 4.12455C150.856 0.923316 147.052 0.865983 147.052 0.865983H146.399Z" fill="white"/>
<path d="M30.6331 3.57518C33.3739 4.42405 35.372 6.97323 35.372 9.98963C35.372 10.432 35.3275 10.8565 35.2445 11.2706L35.2351 11.3331C35.0309 12.4912 34.5608 13.5861 33.8617 14.5318L33.8497 14.5489C35.0964 12.9658 35.7729 11.0086 35.7699 8.99358C35.7699 4.02443 31.7387 0 26.7618 0C24.4942 0 22.4199 0.833467 20.8403 2.20946L20.8197 2.23427C19.5241 3.4137 18.7851 5.08426 18.784 6.83632C18.784 7.59534 18.9209 8.31927 19.1716 8.99272L19.1767 9.02353C19.8278 10.4382 21.2434 11.344 22.8007 11.3425C24.9939 11.3425 26.7772 9.57033 26.7772 7.38055L26.7618 5.67254C26.7618 4.88528 27.1999 4.20157 27.8469 3.85243L27.852 3.84987C28.3737 3.56316 28.9596 3.41358 29.5549 3.41516C29.9331 3.41516 30.2908 3.46736 30.6331 3.57518Z" fill="white"/>
<path d="M19.8647 14.7842C21.5745 16.8256 24.1016 18.0034 26.7643 18C29.032 18 31.1063 17.1614 32.6859 15.7803L32.709 15.7674C34.0043 14.5837 34.7422 12.9098 34.7422 11.1551C34.7422 10.4038 34.5993 9.67301 34.3571 9.00299L34.3469 8.97304C33.6999 7.55595 32.2858 6.64644 30.728 6.64549C28.5348 6.64549 26.7515 8.42623 26.7515 10.6117L26.7643 12.3215C26.7643 13.1113 26.3288 13.7933 25.6819 14.1441L25.6716 14.1493C25.1496 14.4368 24.5643 14.5857 23.9687 14.5814C23.6058 14.5812 23.2449 14.5264 22.8982 14.4188L22.8957 14.4171C20.1522 13.5751 18.1567 11.0208 18.1567 8.00779C18.1567 7.57052 18.1995 7.13838 18.2816 6.72422L18.2885 6.66432C18.4958 5.50482 18.9672 4.40859 19.6662 3.46051L19.6816 3.44768C18.4311 5.02819 17.7533 6.98591 17.7588 9.00128C17.7588 10.444 18.0985 11.8123 18.7018 13.0189L18.6291 13.0788C18.6291 13.0788 18.2739 13.3457 17.5714 12.5294C16.8654 11.7199 12.7066 6.70368 12.7066 6.70368C12.7066 6.70368 15.3405 3.87982 17.9239 2.73572C17.9239 2.73572 18.6042 2.52179 18.4417 1.9245L18.3313 1.56767C18.3313 1.56767 18.3056 1.19115 17.7066 1.27245C17.1059 1.35802 14.282 1.56767 11.4564 1.29983C11.4564 1.29983 11.0235 1.29983 10.8566 1.65923C10.8566 1.65923 10.5836 2.11447 10.8566 2.38659C11.1313 2.65871 12.1042 3.33815 12.1042 4.25633C12.1042 4.25633 12.3216 4.93577 10.8309 6.02167C9.33598 7.10586 8.41266 7.81525 7.78799 8.14214L7.81537 5.59039C7.81537 5.59039 7.73237 3.44511 9.28036 2.44136C9.28036 2.44136 9.66115 2.27877 9.52338 1.9245L9.41556 1.65923C9.41556 1.65923 9.33598 1.22025 8.87304 1.27245C8.87304 1.27245 6.18438 1.56767 0.83273 1.32807C0.83273 1.32807 0.477608 1.29983 0.342405 1.56767L0.230306 1.79016C0.230306 1.79016 0.0420483 2.27877 0.342405 2.49869C0.641905 2.71091 1.89296 3.44511 1.94516 5.69736C1.94516 5.69736 2.08036 9.95454 1.89296 11.6078C1.70043 13.2653 1.56522 14.2177 0.230306 15.3858C0.230306 15.3858 -0.117971 15.6553 0.0420482 16.0618L0.230306 16.4126C0.230306 16.4126 0.369787 16.6813 0.83273 16.6343C1.29482 16.5744 4.63639 16.2492 8.87304 16.5744C8.87304 16.5744 9.17254 16.6813 9.30774 16.3844L9.49857 16.0079C9.49857 16.0079 9.71592 15.6254 9.30774 15.3284C8.90042 15.0315 7.81537 14.1621 7.78799 12.4789C7.75975 10.7991 7.75975 9.74061 7.75975 9.74061C7.75975 9.74061 8.4931 10.0401 12.4046 15.8153C12.4046 15.8153 13.79 18.3098 16.7285 16.7643C16.7285 16.7643 18.8738 15.598 19.7714 14.8415L19.8647 14.7842Z" fill="white"/>
</svg>
