<svg width="76" height="21" viewBox="0 0 76 21" fill="none" xmlns="http://www.w3.org/2000/svg"><path d="M67.91 7.988v1.275h1.115v6.833h1.455V7.988h-2.57zM69.813 6.801a.887.887 0 0 1-.897-.898c0-.486.39-.882.874-.887a.9.9 0 0 1 .923.881.905.905 0 0 1-.9.905zM74.218 13.644c-.007-.428-.002-.857-.002-1.286 0-2.308-.005-5.227.008-7.535h-1.471c.008 1.345.004 3.3.003 4.644 0 .394-.005.788.001 1.182.019 1.227-.055 2.456.043 3.681.073.914.595 1.548 1.465 1.831.302.099 1.016.186 1.329.216V14.98c-.651-.18-1.365-.61-1.377-1.335zM66.528 15.507c-.41-.352-.518-.81-.522-1.309-.01-.95-.003-1.9-.002-2.85 0-.37-.017-.74-.079-1.107-.149-.882-.523-1.64-1.383-1.993-1.424-.584-2.823-.474-4.164.276l-.243.151.607 1.24.223-.186c.566-.437 1.237-.552 1.935-.536 1.017.024 1.66.714 1.642 1.724-.003.145-.016.217-.19.156-.54-.188-1.095-.161-1.649-.078-1.037.158-1.937.573-2.551 1.455-1.053 1.514-.19 3.693 1.722 3.84 1.057.08 2.027-.164 2.815-1.036.319.86.998 1.015 1.754 1.032l.156.007.087-.656-.158-.133v.003zm-2.033-1.361a.653.653 0 0 1-.168.244c-.455.424-.945.742-1.584.77a3.687 3.687 0 0 1-.279 0c-1.073-.033-1.621-.915-1.168-1.89.284-.608.795-.948 1.42-1.132.177-.052.363-.076.546-.097.385-.043.809-.064 1.125.12a.36.36 0 0 1 .134.13l-.027 1.855z" fill="#379746"/><path d="M46.85 16.284c-.472 0-.892-.045-1.258-.135a5.374 5.374 0 0 1-1.212-.484l.477-1.326c.811.548 1.162.752 2.004.752.41 0 .729-.124.957-.372.228-.248.342-.53.342-.845 0-.293-.081-.532-.244-.715-.162-.184-.402-.344-.718-.479l-1.02-.405a4.11 4.11 0 0 1-.614-.304 3.378 3.378 0 0 1-.522-.406 1.633 1.633 0 0 1-.412-.625 2.356 2.356 0 0 1-.145-.851c0-.646.257-1.183.771-1.611.514-.428 1.13-.642 1.85-.642.857 0 1.375.126 2.117.668l-.383 1.284c-.472-.383-1.07-.758-1.735-.758-.332 0-.597.104-.794.31a1.047 1.047 0 0 0-.296.749c0 .435.263.762.788.98l1.055.417c1.22.518 1.832 1.284 1.832 2.298 0 .676-.273 1.262-.818 1.757-.544.496-1.22.744-2.023.744zM39.921 16.45c-1.297 0-2.196-.354-2.943-1.115-.748-.76-1.19-1.921-1.124-3.177.068-1.29.434-2.12 1.116-2.912.681-.79 1.388-1.202 2.723-1.259 1.223-.051 2.231.383 2.874 1.201.643.819.82 1.906.82 3.209l-5.922.026c.033.646.06 1.303.776 2.185.284.35 1.099.63 1.792.63.857 0 1.675-.549 1.934-.872l.77 1.22c-.827.397-1.947.864-2.816.864zm-2.514-5.116l4.57-.026c-.043-.472-.347-1.201-.655-1.477-.308-.277-.942-.585-1.348-.585-.857 0-1.27.23-1.632.452-.555.34-.868 1.107-.935 1.637zM24.808 16.378c-1.303 0-2.343-.409-3.12-1.228-.777-.818-1.165-1.826-1.165-3.02 0-1.196.39-2.215 1.171-3.057.782-.84 1.815-1.262 3.102-1.262.94 0 1.82.363 2.483.82l-.806 1.07c-.437-.304-1.013-.68-1.677-.68-.882 0-1.548.292-1.997.874-.45.583-.674 1.328-.674 2.234 0 .905.216 1.638.65 2.198.432.56 1.114.84 2.046.84.849 0 1.446-.493 1.956-.886l.502 1.3c-.24.25-1.597.797-2.471.797zM32.508 16.378c-1.303 0-2.343-.409-3.12-1.228-.777-.818-1.165-1.826-1.165-3.02 0-1.196.39-2.215 1.171-3.057.782-.84 1.815-1.262 3.102-1.262.94 0 1.82.363 2.483.82l-.806 1.07c-.437-.304-1.013-.68-1.677-.68-.882 0-1.548.292-1.997.874-.45.583-.674 1.328-.674 2.234 0 .905.216 1.638.65 2.198.432.56 1.114.84 2.045.84.85 0 1.447-.493 1.957-.886l.502 1.3c-.24.25-1.597.797-2.471.797zM19.532 14.591c-1.174-3.045-2.349-6.089-3.525-9.134l-.183-.497h-.38l-.184.497c-1.176 3.044-2.35 6.09-3.525 9.134l-.62 1.521h1.752l.822-2.461h3.888l.822 2.461h1.753l-.62-1.52zm-2.337-2.036l-.002-.004h-1.619a154 154 0 0 1 .06 0h-.255c-.318 0-.637.001-.956.004-.04 0-.073 0-.102-.004h-.245l-.002.004v-.004h.002l1.426-4.527h.266l1.427 4.527h.001v.004h-.001z" fill="#010101"/><path d="M58.586 15.262c-.992-1.577-1.778-2.792-2.242-3.552-.091-.15-.17-.28-.236-.394l-.02-.031a.885.885 0 0 1-.076-.14l-.057-.107s.858-.199 1.52-1.124c.252-.34.422-.703.517-1.087a4.416 4.416 0 0 0 .077-1.072 4.412 4.412 0 0 0-.125-.715 2.512 2.512 0 0 0-.558-1.072l-.066-.07c-.033-.034-.065-.067-.1-.098 0-.002-.002-.003-.004-.005a2.792 2.792 0 0 0-.762-.483 6.31 6.31 0 0 0-.319-.123 4.902 4.902 0 0 0-.569-.153A7.03 7.03 0 0 0 54.33 4.9h-3.024v.345a1.27 1.27 0 0 0-.003.092c.01 1.945.005 3.891.005 5.836 0 1.231.005 2.463-.001 3.695h-.005v1.23h1.535v-.306l.001-.077-.001-.16v-4.24s.814.054 1.586.024l.133.212c.016.021.032.044.048.07l.157.257c.14.225.272.437.274.447l.457.74c.56.908 1.124 1.814 1.678 2.725a.977.977 0 0 0 .067.096l.13.212h1.745c-.18-.29-.355-.569-.525-.837h-.002zm-4.231-5.257h-1.52v-3.87h1.63c.454 0 .813.074 1.076.222.623.295.935.847.935 1.654 0 .807-.296 1.41-.887 1.74-.285.17-.696.255-1.234.255z" fill="#379746"/><path d="M55.033 12.327c0-.01-.132-.222-.274-.447.092.148.183.298.274.447zM1.405 14.49l.19.372.287-.146a9.886 9.886 0 0 1-.176-.38l-.301.155zM1.536 6.673l-.19.372c.016.008.075.037.171.081.05-.13.102-.26.156-.389-.086-.038-.134-.062-.138-.064h.001zM6.049 1.977l-.403-.109c-.006.02-.044.165-.093.413.16-.097.322-.189.489-.275l.007-.029zM6.36 1.404l-.373.186.176.352c.123-.064.249-.124.376-.182l-.177-.357H6.36zM7.28 1.084l-.22.355.102.065c.165-.061.331-.118.5-.171-.237-.159-.378-.246-.381-.25H7.28zM10.791.91A10.783 10.783 0 0 0 9.057.478L9 .892c.007 0 .154.022.403.076a9.688 9.688 0 0 1 1.389-.059zM13.304.877c-.049.136-.099.27-.15.4.135.04.268.082.4.126.048-.127.096-.255.143-.386l-.393-.14z" fill="#379746"/><path d="M10.5 0C4.71 0 0 4.71 0 10.5S4.71 21 10.5 21c.156 0 .312-.004.467-.011v-.905a9.41 9.41 0 0 1-.467.012c-3.78 0-7.055-2.197-8.618-5.38l-.287.146-.19-.371.3-.155a9.542 9.542 0 0 1-.8-3.836 9.54 9.54 0 0 1 .612-3.373 4.02 4.02 0 0 1-.17-.082l.189-.371c.003.002.051.026.138.064a9.646 9.646 0 0 1 1.835-2.803c.243-.653.443-1.046.464-1.087l.37.192c-.002.004-.033.066-.085.179.404-.347.837-.661 1.295-.937a6.7 6.7 0 0 1 .093-.413l.403.109-.007.028.121-.063-.175-.352.374-.186.177.357c.204-.092.412-.178.623-.257l-.103-.065.22-.355c.004.002.146.09.382.25A9.484 9.484 0 0 1 9.402.968C9.153.915 9.006.895 9 .893L9.056.48c.06.008.763.11 1.734.43a9.53 9.53 0 0 1 2.364.37l.15-.401.392.14c-.046.13-.095.26-.144.386a9.64 9.64 0 0 1 4.787 3.57h1.084C17.57 1.99 14.264 0 10.5 0z" fill="#379746"/><path d="M4.258 3.218c.051-.113.083-.175.086-.179l-.371-.192c-.021.04-.222.434-.464 1.088.236-.252.487-.492.749-.717z" fill="#379746"/><path d="M8.98 6.663L6.539 1.76a9.831 9.831 0 0 0-.376.181l2.446 4.914c-.144.068-.29.133-.439.192a7.19 7.19 0 0 1-2.32.49 15.52 15.52 0 0 1-.114-1.07c-.174-2.421.245-4.219.306-4.462a10.5 10.5 0 0 0-.49.275c-.14.7-.373 2.236-.234 4.2.024.335.06.692.111 1.065a9.417 9.417 0 0 1-2.313-.31c.266-1.982.91-3.512 1.142-4.017a9.717 9.717 0 0 0-.75.716c-.28.758-.619 1.868-.8 3.185-.488-.149-.85-.3-1.034-.382a9.438 9.438 0 0 0-.156.389c.213.097.61.262 1.14.421-.044.412-.072.84-.076 1.282-.016 1.646.289 3.187.905 4.595l-1.78.912c.055.128.114.254.175.38l1.78-.912c.066.136.133.27.206.404 1.087 2.011 2.862 3.715 5.276 5.064l.204-.365c-2.34-1.308-4.059-2.953-5.109-4.89a9.209 9.209 0 0 1-.205-.403l2.79-1.429a14.943 14.943 0 0 0 2.412 3.562l.153-.456a14.528 14.528 0 0 1-2.194-3.296l3.167-1.623.443.89c.064-.179.13-.358.197-.54l-.269-.54.58-.298.221-.582-.987.506-1.38-2.771a7.69 7.69 0 0 0 1.416-1.014V5.45A7.407 7.407 0 0 1 8.98 6.664v-.001zm-5.122 6.57c-.583-1.342-.872-2.813-.86-4.384.004-.408.028-.805.067-1.187.664.17 1.48.31 2.376.31h.052a15.524 15.524 0 0 0 1.152 3.835l-2.787 1.428v-.001zm6.317-3.235l-3.158 1.618a15.112 15.112 0 0 1-1.103-3.658 7.675 7.675 0 0 0 2.406-.52c.161-.064.32-.134.475-.209l1.38 2.77zM13.288 2.056c.091-.212.18-.43.265-.652a9.504 9.504 0 0 0-.398-.125c-.075.192-.15.38-.23.564a12.058 12.058 0 0 0-2.134-.934 9.53 9.53 0 0 0-1.389.058c.649.14 1.988.493 3.353 1.263a12.095 12.095 0 0 1-1.3 2.216 20.366 20.366 0 0 0-1.937-1.752 27.19 27.19 0 0 0-1.856-1.361c-.169.052-.335.11-.5.171.468.301 2.455 1.623 4.032 3.276a8.95 8.95 0 0 1-.419.474l.662-.113.044-.052.034.039.016.018c.417.47.792.961 1.084 1.46.067-.16.135-.317.201-.47a10.544 10.544 0 0 0-1.07-1.38c.51-.668.967-1.44 1.371-2.312.407.252.811.543 1.194.878.125-.146.238-.238.335-.261a9.622 9.622 0 0 0-1.357-1.004z" fill="#379746"/><path d="M12.18 6.758c.431-.261.431-1.06.431-1.06.02-1.002-1.06-1.081-1.06-1.081H9.742l.013 4.701 2.082.006c.74-.229 1.127-.51 1.192-1.414.065-.904-.851-1.152-.851-1.152zm-1.433-1.345h.355c.296 0 .536.24.536.535a.486.486 0 0 1-.486.487h-.405V5.413zm.583 3.119h-.583V7.265l.654.01a.605.605 0 0 1 .603.598.667.667 0 0 1-.674.659zM8.092 4.686s-1.424-.473-2.164.677c-.307.476-.389 1.071-.172 1.594.192.466.641.927 1.678.803l-1.1 1.552H7.59s3.093-3.398.5-4.625v-.001zM7.4 7.033a.727.727 0 1 1 0-1.454.727.727 0 0 1 0 1.454z" fill="#020202"/></svg>