<svg xmlns="http://www.w3.org/2000/svg" width="181" height="22" viewBox="0 0 181 22"><g fill-rule="nonzero" fill="none"><path fill="#174489" d="M85.309 11.19s1.178-2.758 1.69-3.558c0 0 1.425 1.967 1.934 3.587 0 0-1.622.253-3.624-.03v.001zM51.71 9.09V5.986s.032-2.314 1.873-2.314c1.847 0 1.614 2.25 1.628 2.535.018.286-.1 2.883-3.501 2.883zm5.752-7.767s-8.955.674-13.783.221c0 0-.57-.154-.728.511 0 0-.318.51.19.855.509.344 1.967 1.205 1.967 4.371v6.122s.286 3.362-2.034 4.634c0 0-.47.152-.222.823 0 0 .035.595.701.507.664-.099 4.413-.385 9.557-.035 0 0 .444.035.57-.256.128-.283.16-.313.16-.313s.448-.446-.219-.89c-.672-.446-1.782-1.108-1.879-3.93-.09-2.819 0-2.883 0-2.883h.415s1.426-.126 2.382 2.025c0 0 1.841 4.441 2.125 4.981.286.534.833 1.68 2.832 1.485 1.999-.184 11.333-.852 21.238.035 0 0 1.087.16 1.493-.887 0 0 1.716-4.596 2.128-5.328 0 0 3.621-.096 5.588-.061 0 0 .734 1.237.734 2.725 0 1.491-1.3 1.838-1.3 1.838s-.542.222-.287.89c0 0 .1.63.73.57.637-.065 6.322-.602 14.897-.065 0 0 .57.228.762-.537 0 0 .345-.6-.257-.893 0 0-2.253-.504-2.253-4.085 0-3.586.032-6.122.032-6.122s1.716 2.443 3.744 6.084c2.034 3.65 3.112 5.206 3.112 5.206s1.015 1.964 3.017.92c2.004-1.048 4.161-2.254 5.4-3.108 0 0 .474-.225.223-.82l-.19-.389s-.033-.218-.705-.28c0 0-1.49.35-1.522-1.78-.033-2.124-.129-5.135 0-8.205 0 0 .067-1.903 1.812-2.445 0 0 .637-.064.347-.817l-.187-.388s0-.316-.45-.254c-.438.064-2.92.289-5.556.064 0 0-.564 0-.634.636 0 0-.16.569.29.759.44.19 1.993.764 2.095 3.204.094 2.44.129 5.836.129 5.836s-3.624-5.329-5.945-9.42c0 0-.38-1.111-1.742-1.015-1.365.096-4.638.25-7.017.03 0 0-.669-.094-.763.667 0 0-.19.669.383.952 0 0 1.903 1.208 1.903 1.62 0 .408-.032 8.843-.032 8.843s.16 3.452-.76 3.012c0 0-.538.347-1.841-2.025-1.307-2.381-2.987-5.778-5.723-12.37 0 0-.564-1.835-1.742-1.835 0 0-.704.032-1.432.44-.73.412-3.05 1.716-5.465 2.41 0 0-.631.193-.444.82 0 0-.094.48.605.733.695.254 1.3.543 1.493.89 0 0-.73 2.35-2.063 4.757-1.333 2.407-3.045 6.402-7.973 6.402h-1.937s-.506.064-.506-.64v-5.1h1.268s2.067-.444 3.052 2.223c0 0 .187.82.888.505 0 0 .798-.096.734-.89-.068-.788-.13-2.947.029-4.852 0 0 .064-.566-.576-.692 0 0-.503-.254-.888.158-.377.414-1.172 1.394-2.979 1.394h-1.499V4.115s-.03-.315.193-.344c.222-.038 2.987-.703 4.603.598 1.62 1.298 1.716 1.838 2.066 2.317 0 0 .316.79 1.146.25 0 0 .631-.095.316-1.079-.316-.98-.412-1.33-.953-3.802 0 0-.097-1.048-1.175-.954-1.084.096-7.847.896-14.198.382 0 0-.666-.16-.795.54 0 0-.277.473.257.92 0 0 1.874.857 1.874 4.151v5.518s.318 4.371-1.236 4.371c0 0-.667.286-1.815-1.96-1.134-2.253-1.202-2.317-1.202-2.317s-.923-2.947-4.892-3.073c0 0 5.494-.92 4.989-5.042 0 0-.097-3.143-4.226-3.268h-.444zm74.877 6.087c1.715 2.443 1.938 3.584 1.938 3.584-1.365.225-3.619-.026-3.619-.026.667-1.777 1.68-3.557 1.68-3.557l.001-.001zm14.388 5.14s.125 4.157-1.427 3.871c0 0-.546.345-1.847-2.034-1.297-2.38-2.98-5.768-5.713-12.363 0 0-.573-1.838-1.748-1.838 0 0-.701.032-1.429.44-.73.415-3.042 1.713-5.462 2.41 0 0-.632.19-.439.823 0 0-.1.476.597.733.698.25 1.303.537 1.493.884 0 0-.728 2.349-2.063 4.762-1.336 2.407-2.51 5.927-5.653 7.508 0 0-.608.131-.412.855.22.826.64.604.64.604 3.648-.376 4.758-.058 5.585 0 .822.064.699-.604.699-.604.219-.411-.064-.662-.064-.662l-.345-.444s-1.374-.35.57-4.246c0 0 3.618-.096 5.582-.064 0 0 .733 1.235.733 2.729 0 1.488-1.306 1.832-1.306 1.832s-.538.225-.28.89c0 0 .096.633.727.57.637-.06 11.179-.506 19.75.031 0 0 .609.032.77-.505 0 0 .341-.665-.255-1.047 0 0-1.686-.759-1.815-3.461-.128-2.69-.093-7.797-.093-7.797s-.132-2.848 1.68-3.738c0 0 .482-.219.228-.852 0 0-.128-.604-.707-.543-.567.062-6.567.377-9.393.03 0 0-.634-.03-.76.513 0 0-.322.502.219.914.54.414 1.938 1.365 1.938 4.315v5.484zm19.809-3.587V5.858s.07-2.31 1.815-2.31c1.748 0 1.777 1.96 1.686 2.59-.093.642-.26 2.825-3.501 2.825zm5.468-7.893s-6.988.82-13.464.198c0 0-.827-.227-.927.622 0 0-.058.58.284.8.356.221 1.785 1.082 1.879 4.058.1 2.98.164 2.124.1 6.178 0 0 .25 3.904-1.98 4.855 0 0-.566.128-.248.951 0 0 .19.636.728.415 0 0 5.217-.353 9.723.026 0 0 .506.195.667-.473 0 0 .409-.443-.222-.919-.637-.476-1.78-1.301-1.906-3.3-.125-1.996-.102-3.58-.102-3.58h.45s1.49-.19 2.505 2.156a219.484 219.484 0 0 1 1.718 4.062s.666 1.864 1.748 2.468c0 0 .441.412 2.095.22 0 0 2.695-.158 5.363-1.39 0 0 .605-.131.412-.829 0 0 .132-.54-.634-.697-.757-.157-1.336-.884-1.873-1.964-.535-1.082-1.368-2.664-1.368-2.664s-1.11-2.757-4.726-2.79c0 0 4.986-.854 4.986-4.595 0-3.741-4.445-3.808-4.445-3.808h-.763z"/><path fill="#FFFFFE" d="M42.721 10.577c0 5.798-4.708 10.504-10.524 10.504-5.816 0-10.524-4.706-10.524-10.504 0-5.804 4.708-10.514 10.524-10.514 5.816 0 10.524 4.71 10.524 10.514"/><path fill="#D8232A" d="M36.718 4.236c3.203.992 5.538 3.971 5.538 7.496 0 .517-.052 1.013-.149 1.497l-.011.073a8.888 8.888 0 0 1-1.605 3.738l-.014.02a10.47 10.47 0 0 0 2.244-6.492c0-5.807-4.711-10.51-10.527-10.51-2.65 0-5.074.974-6.92 2.582l-.024.029a7.277 7.277 0 0 0-2.379 5.378c0 .887.16 1.733.453 2.52l.006.036a4.656 4.656 0 0 0 4.235 2.71c2.563 0 4.647-2.071 4.647-4.63l-.018-1.996c0-.92.512-1.719 1.268-2.127l.006-.003a4.108 4.108 0 0 1 1.99-.508c.442 0 .86.061 1.26.187"/><path fill="#174489" d="M24.134 17.335a10.498 10.498 0 0 0 8.063 3.758c2.65 0 5.074-.98 6.92-2.594l.027-.015a7.301 7.301 0 0 0 2.376-5.39c0-.878-.167-1.732-.45-2.515l-.012-.035a4.652 4.652 0 0 0-4.229-2.72c-2.563 0-4.647 2.081-4.647 4.635l.015 1.998c0 .923-.509 1.72-1.265 2.13l-.012.006c-.61.336-1.294.51-1.99.505-.424 0-.846-.064-1.251-.19l-.003-.002c-3.206-.984-5.538-3.969-5.538-7.49 0-.511.05-1.016.146-1.5l.008-.07a8.964 8.964 0 0 1 1.61-3.744l.018-.015a10.419 10.419 0 0 0-2.247 6.49c0 1.686.397 3.285 1.102 4.695l-.085.07s-.415.312-1.236-.642c-.825-.946-5.685-6.808-5.685-6.808s3.078-3.3 6.097-4.637c0 0 .795-.25.605-.948l-.129-.417s-.03-.44-.73-.345c-.702.1-4.002.345-7.304.032 0 0-.506 0-.701.42 0 0-.319.532 0 .85.321.318 1.458 1.112 1.458 2.185 0 0 .254.794-1.488 2.063-1.747 1.267-2.826 2.096-3.556 2.478l.032-2.982s-.097-2.507 1.712-3.68c0 0 .445-.19.284-.604l-.126-.31s-.093-.513-.634-.452c0 0-3.142.345-9.396.065 0 0-.415-.033-.573.28l-.131.26s-.22.571.131.828c.35.248 1.812 1.106 1.873 3.738 0 0 .158 4.975-.061 6.907-.225 1.937-.383 3.05-1.943 4.415 0 0-.407.315-.22.79l.22.41s.163.314.704.259c.54-.07 4.445-.45 9.396-.07 0 0 .35.125.508-.222l.223-.44s.254-.447-.223-.794c-.476-.347-1.744-1.363-1.776-3.33-.033-1.963-.033-3.2-.033-3.2s.857.35 5.428 7.099c0 0 1.619 2.915 5.053 1.109 0 0 2.507-1.363 3.556-2.247l.109-.067z"/></g></svg>