<svg xmlns="http://www.w3.org/2000/svg" width="24" height="24" fill="none"><path fill="#fff" fill-rule="evenodd" d="M12 0C5.192 0 0 5.077 0 11.942s5.25 11.77 12 11.77 12-4.962 12-11.77c0-1.961-.404-5.654-2.538-5.654-1.039 0-1.731.808-1.731 1.731 0 .231.057.462.115.635.462 1.038.635 2.192.635 3.346 0 4.962-3.75 8.365-8.539 8.365S3.404 16.962 3.404 12 7.212 3.462 12 3.462c.865 0 1.385.173 1.846.346.289.057.462.115.808.115 1.038 0 1.558-.865 1.558-1.788C16.212.519 14.25 0 12 0" clip-rule="evenodd"/></svg>