<svg height="111" viewBox="0 0 244 111" width="244" xmlns="http://www.w3.org/2000/svg"><g fill-rule="evenodd"><path d="m.606.606v110.21h110.21v-41.368l13.738-13.737-13.738-13.738v-41.367z" fill="#c17c51"/><g fill-rule="nonzero"><path d="m40.45 37.436v3.163h-12.305v-17.349h3.426v14.187h8.879zm-24.704-3.713v6.876h-3.426v-17.349h13.03v3.164h-9.604v4.146h8.515v3.164h-8.515zm16.278 29.913c0 4.272-3.41 6.91-8.903 6.91h-10.8v-24.58h10.383c2.722 0 4.935.773 6.408 2.229a5.768 5.768 0 0 1 1.618 4.11v.069a5.99 5.99 0 0 1 -3.014 5.396c2.86 1.149 4.308 3.094 4.308 5.796zm36.22-34.61v11.574h-3.382v-17.35h3.095l8.705 11.234v-11.234h3.378v17.35h-2.828zm-23.332 11.574v-6.82l-6.902-10.53h4.053l4.6 7.282 4.651-7.281h3.956l-6.905 10.456v6.893h-3.454zm12.475-17.35h3.426v17.35h-3.426zm-21.047 22.722h3.536v21.2h13.11v3.374h-16.646v-24.575zm39.873 14.013c0 6.848-3.802 10.933-10.17 10.933-6.253 0-10.137-4.11-10.137-10.731v-14.217h3.536v14.045c0 4.785 2.431 7.528 6.666 7.528 4.236 0 6.57-2.613 6.57-7.358v-14.215h3.535v14.013zm15.574-29.291h7.641v7.443l-.08.069a10.97 10.97 0 0 1 -7.193 2.65c-5.291 0-8.988-3.642-8.988-8.9v-.049a8.855 8.855 0 0 1 8.964-8.948c2.746 0 4.672.68 6.638 2.347l.174.15-2.173 2.604-.178-.15a6.359 6.359 0 0 0 -4.579-1.755c-2.904 0-5.258 2.569-5.258 5.728v.049c0 3.414 2.273 5.8 5.51 5.8a6.751 6.751 0 0 0 3.846-1.165v-2.831h-4.324zm-6.723 29.133v7.378h14.372v3.341h-17.908v-24.575h17.742v3.341h-14.206v7.172h12.71v3.342h-12.71zm-72.796 17.073h2.868l3.18 5.113 3.179-5.113h2.864v12.087h-2.646v-7.892l-3.402 5.162h-.069l-3.37-5.113v7.839h-2.604zm17.398 0h9.117v2.367h-6.472v2.451h5.696v2.37h-5.7v2.54h6.565v2.367h-9.206zm13.98 0h2.868l3.18 5.113 3.179-5.113h2.864v12.087h-2.642v-7.892l-3.402 5.162h-.069l-3.37-5.113v7.839h-2.608zm17.398 0h5.614c1.38 0 2.472.38 3.16 1.072.55.54.85 1.285.829 2.055v.016a2.832 2.832 0 0 1 -1.59 2.61c1.4.533 2.261 1.346 2.261 2.969v.036c0 2.209-1.796 3.317-4.522 3.317h-5.752zm14.878 0h9.118v2.367h-6.473v2.451h5.7v2.37h-5.7v2.54h6.561v2.367h-9.206zm13.984 0h5.525c1.538 0 2.73.433 3.524 1.214a3.794 3.794 0 0 1 1.035 2.763v.036a3.754 3.754 0 0 1 -2.589 3.746l2.953 4.316h-3.11l-2.59-3.867h-2.087v3.867h-2.661zm5.352 5.874c1.294 0 2.022-.692 2.022-1.711v-.037c0-1.14-.809-1.727-2.087-1.727h-2.643v3.47l2.707.005zm-79.439-33.498v7.245h6.436c3.07 0 4.903-1.412 4.903-3.774v-.069c0-2.164-1.715-3.402-4.705-3.402h-6.633zm0 10.517v7.44h7.379c3.288 0 5.258-1.412 5.258-3.775v-.06c0-2.978-3.119-3.605-5.736-3.605h-6.9zm50.27 21.994c1.172 0 1.916-.38 1.916-1.279v-.036c0-.809-.618-1.246-1.743-1.246h-2.625v2.557l2.451.004zm.707 4.854c1.173 0 1.88-.405 1.88-1.315v-.024c0-.809-.602-1.31-1.969-1.31h-3.074v2.657z" fill="#fff"/><path d="m200.311 39.595v-2.875a.669.669 0 1 1 1.334 0v2.82c0 .99.493 1.502 1.31 1.502.816 0 1.321-.496 1.321-1.44v-2.872a.669.669 0 0 1 1.334 0v2.807c0 1.839-1.03 2.738-2.664 2.738-1.633 0-2.635-.907-2.635-2.68zm6.653-2.853a.669.669 0 1 1 1.334 0v4.24h2.463a.616.616 0 1 1 0 1.231h-3.14a.66.66 0 0 1 -.669-.669zm5.931.616h-1.284a.616.616 0 1 1 0-1.232h3.903a.616.616 0 1 1 0 1.232h-1.285v4.223a.669.669 0 0 1 -1.334 0zm4.257-.616a.669.669 0 0 1 1.334 0v4.84a.669.669 0 0 1 -1.334 0zm2.852.016a.66.66 0 0 1 .67-.669h.147a.685.685 0 0 1 .608.345l1.613 2.627 1.641-2.635a.653.653 0 0 1 .6-.337h.147a.66.66 0 0 1 .67.67v4.822a.665.665 0 1 1 -1.326 0v-3.025l-1.17 1.806a.624.624 0 0 1 -1.108 0l-1.154-1.777v3.017a.653.653 0 0 1 -.66.648.644.644 0 0 1 -.649-.648zm7.195 4.58 2.114-4.777a.82.82 0 0 1 .78-.53h.078a.82.82 0 0 1 .772.53l2.114 4.778a.648.648 0 0 1 .07.267.632.632 0 0 1 -.633.64.681.681 0 0 1 -.64-.46l-.41-.952h-2.673l-.41.997a.653.653 0 0 1 -.616.41.616.616 0 0 1 -.546-.902zm3.756-1.682-.82-2.003-.822 2.003zm3.99-2.298h-1.281a.616.616 0 1 1 0-1.232h3.903a.616.616 0 1 1 0 1.232h-1.276v4.223a.669.669 0 0 1 -1.334 0zm4.219 4.17v-4.733a.66.66 0 0 1 .669-.669h3.366a.6.6 0 0 1 .423 1.02.591.591 0 0 1 -.423.17h-2.705v1.232h2.315a.6.6 0 0 1 .423 1.02.591.591 0 0 1 -.423.17h-2.315v1.277h2.75a.6.6 0 0 1 .423 1.02.591.591 0 0 1 -.423.17h-3.407a.66.66 0 0 1 -.673-.677zm-31.194 22.349a1.76 1.76 0 0 1 1.826 1.765 1.835 1.835 0 0 1 -3.665 0 1.777 1.777 0 0 1 1.839-1.765zm.878 1.777a.899.899 0 0 0 -.89-.936.866.866 0 0 0 -.879.924.899.899 0 0 0 .891.935.866.866 0 0 0 .878-.923zm1.74-.89-.02.02a.41.41 0 0 1 0-.821h.037v-.214a1.116 1.116 0 0 1 .271-.82c.212-.19.492-.287.776-.267.137-.004.274.004.41.024a.41.41 0 0 1 .329.386.41.41 0 0 1 -.41.41h-.083c-.222 0-.349.111-.349.366v.131h.41a.41.41 0 1 1 0 .784h-.41v2.122a.48.48 0 0 1 -.96 0v-2.122zm5.562 0h-.423v1.428c0 .221.095.328.308.328h.115a.41.41 0 0 1 .41.41.41.41 0 0 1 -.246.362c-.175.067-.362.1-.55.094-.574 0-.985-.234-.985-1.018v-1.605h-.033a.41.41 0 0 1 0-.82h.033v-.411a.48.48 0 0 1 .96 0v.41h.411a.41.41 0 0 1 0 .821zm2.968-.887c.726 0 1.165.476 1.149 1.256v1.752a.48.48 0 0 1 -.96 0v-1.449c0-.455-.218-.69-.583-.69-.366 0-.6.235-.6.69v1.45a.48.48 0 0 1 -.96 0v-3.728a.48.48 0 0 1 .96 0v1.265a1.2 1.2 0 0 1 .994-.546zm3.431 0a1.6 1.6 0 0 1 1.634 1.617.44.44 0 0 1 -.448.46h-1.9c.06.4.417.688.82.664.247.003.486-.077.682-.225a.357.357 0 0 1 .234-.074.365.365 0 0 1 .374.377.378.378 0 0 1 -.128.284 1.757 1.757 0 0 1 -1.174.41 1.695 1.695 0 0 1 -1.769-1.748 1.687 1.687 0 0 1 1.675-1.765zm-.735 1.49h1.45a.726.726 0 0 0 -.715-.723.755.755 0 0 0 -.735.723zm8.287-2.213v3.727a.48.48 0 1 1 -.96 0v-3.727a.48.48 0 1 1 .96 0zm-3.291 1.61a.41.41 0 0 1 -.39-.39.41.41 0 0 1 .41-.411h.037v-.214a1.116 1.116 0 0 1 .27-.82c.213-.19.493-.287.777-.267.137-.004.274.004.41.024a.41.41 0 0 1 .328.386.41.41 0 0 1 -.41.41h-.082c-.222 0-.349.111-.349.366v.131h.41a.41.41 0 1 1 0 .784h-.41v2.122a.48.48 0 0 1 -.96 0v-2.122h-.041zm5.118 2.499-1.145-2.643a.706.706 0 0 1 -.05-.222.456.456 0 0 1 .472-.46.464.464 0 0 1 .46.361l.735 1.97.706-1.966a.488.488 0 0 1 .46-.365.447.447 0 0 1 .455.443.726.726 0 0 1 -.045.226l-1.182 2.836c-.287.69-.57.949-1.145.949a1.445 1.445 0 0 1 -.526-.09.41.41 0 0 1 -.303-.411.382.382 0 0 1 .377-.41.447.447 0 0 1 .156.024.628.628 0 0 0 .201.037.312.312 0 0 0 .341-.201zm3.177-3.362a.48.48 0 0 1 .48.48v2.504a.48.48 0 1 1 -.96 0v-2.504a.48.48 0 0 1 .48-.48zm0-.303a.48.48 0 0 1 -.538-.456.546.546 0 0 1 1.075 0 .48.48 0 0 1 -.537.456zm3.271.279c.726 0 1.15.476 1.15 1.256v1.756a.48.48 0 0 1 -.961 0v-1.449c0-.455-.218-.69-.583-.69s-.6.235-.6.69v1.45a.48.48 0 0 1 -.96 0v-2.504a.48.48 0 1 1 .96 0v.037a1.2 1.2 0 0 1 .994-.546zm4.847.024a.48.48 0 0 1 .452.464v2.18c.046.481-.101.961-.41 1.333a1.99 1.99 0 0 1 -1.462.456 3.255 3.255 0 0 1 -1.231-.234.41.41 0 1 1 .279-.735c.293.136.613.205.936.202.66 0 .968-.317.968-.924v-.164c-.255.354-.668.56-1.104.55a1.486 1.486 0 0 1 -1.502-1.58 1.49 1.49 0 0 1 1.502-1.58 1.37 1.37 0 0 1 1.092.504.48.48 0 0 1 .48-.472zm-.468 1.568a.82.82 0 0 0 -1.641 0 .776.776 0 0 0 .82.784.784.784 0 0 0 .821-.784zm-33.554 3.858a.48.48 0 0 1 .497.456v3.727a.48.48 0 1 1 -.96 0v-.045c-.234.352-.633.56-1.055.55-.792 0-1.544-.62-1.544-1.753s.723-1.753 1.544-1.753c.41.003.795.2 1.038.53v-1.231a.48.48 0 0 1 .48-.48zm-.468 2.964a.82.82 0 1 0 -1.641 0 .82.82 0 0 0 1.641 0zm4.36-1.736a.48.48 0 0 1 .48.476v2.503a.48.48 0 0 1 -.96 0v-.036a1.2 1.2 0 0 1 -.994.541c-.739 0-1.15-.48-1.15-1.256v-1.748a.48.48 0 0 1 .961 0v1.449c0 .455.218.69.583.69s.6-.235.6-.69v-1.45a.48.48 0 0 1 .48-.48zm2.815.857h-.423v1.429c0 .221.095.328.308.328h.115a.41.41 0 0 1 .41.41.41.41 0 0 1 -.246.362c-.175.068-.362.1-.55.094-.574 0-.985-.234-.985-1.018v-1.605h-.033a.41.41 0 0 1 0-.82h.033v-.41a.48.48 0 0 1 .96 0v.41h.411a.41.41 0 1 1 0 .82zm3.456 1.49h-.004a.41.41 0 0 1 .267.715 1.666 1.666 0 0 1 -1.199.435 1.728 1.728 0 0 1 -1.765-1.749 1.74 1.74 0 0 1 1.778-1.765 1.7 1.7 0 0 1 1.157.378.41.41 0 0 1 -.283.76.447.447 0 0 1 -.28-.095.92.92 0 0 0 -.599-.214.866.866 0 0 0 -.82.924.87.87 0 0 0 .857.936.973.973 0 0 0 .632-.234.443.443 0 0 1 .259-.09zm2.972-2.393c.718 0 1.14.501 1.149 1.26v1.749a.48.48 0 1 1 -.96 0v-1.449c0-.455-.218-.69-.583-.69-.366 0-.6.235-.6.69v1.449a.48.48 0 1 1 -.96 0v-3.727a.48.48 0 0 1 .96 0v1.264a1.2 1.2 0 0 1 .994-.546zm5.939 0c.714 0 1.14.448 1.15 1.248v1.765a.48.48 0 0 1 -.961 0v-1.449c0-.455-.201-.69-.563-.69-.36 0-.583.235-.583.69v1.45a.48.48 0 0 1 -.96 0v-1.45c0-.455-.201-.69-.562-.69s-.583.235-.583.69v1.45a.48.48 0 0 1 -.96 0v-2.505a.48.48 0 1 1 .96 0v.037c.22-.337.595-.541.997-.546.395-.022.767.188.953.538a1.396 1.396 0 0 1 1.112-.538zm3.316.046c.427-.028.847.12 1.162.41.261.297.393.685.365 1.08v1.543a.46.46 0 0 1 -.468.46.41.41 0 0 1 -.46-.41 1.301 1.301 0 0 1 -1.022.41 1.047 1.047 0 0 1 -1.161-1.035c0-.739.546-1.08 1.367-1.08.28 0 .557.046.82.14v-.057c0-.398-.246-.62-.726-.62a2.2 2.2 0 0 0 -.665.094.41.41 0 0 1 -.55-.385.41.41 0 0 1 .259-.374 2.951 2.951 0 0 1 1.08-.176zm.6 2.228v-.156a1.498 1.498 0 0 0 -.612-.127c-.41 0-.665.164-.665.468 0 .259.218.41.525.41.448 0 .752-.246.752-.595zm3.628-2.274c.726 0 1.15.501 1.15 1.265v1.748a.48.48 0 1 1 -.961 0v-1.449c0-.455-.218-.69-.583-.69s-.6.235-.6.69v1.45a.48.48 0 1 1 -.96 0v-2.505a.48.48 0 0 1 .96 0v.037a1.2 1.2 0 0 1 .994-.546zm-84.877-14.115a.66.66 0 0 1 .624.628.636.636 0 0 1 -.18.44 4.745 4.745 0 0 1 -3.555 1.514 4.84 4.84 0 0 1 -4.83-4.884v-.03a4.9 4.9 0 0 1 8.294-3.554.673.673 0 0 1 -.456 1.166.726.726 0 0 1 -.455-.164 3.632 3.632 0 0 0 -2.57-1.129c-1.916 0-3.373 1.621-3.373 3.645v.037c0 2.023 1.494 3.665 3.464 3.665a3.768 3.768 0 0 0 2.627-1.15.554.554 0 0 1 .41-.184zm2.993 2.463a.702.702 0 0 1 -.727-.71v-12.072a.702.702 0 1 1 1.404 0v12.072a.685.685 0 0 1 -.677.71zm10.429-9.613a.698.698 0 0 1 .694.714v8.189a.694.694 0 0 1 -1.388 0v-1.022a3.591 3.591 0 0 1 -3.226 1.843c-2.282 0-3.612-1.535-3.612-3.776v-5.234a.685.685 0 0 1 .694-.71.71.71 0 0 1 .71.71v4.885c0 1.748 1.01 2.844 2.606 2.844 1.597 0 2.828-1.186 2.828-2.955v-4.778a.685.685 0 0 1 .694-.71zm7.95-.107c2.262 0 4.503 1.786 4.515 4.872v.037c0 3.103-2.237 4.926-4.515 4.926a4.252 4.252 0 0 1 -3.612-2.007v1.182a.698.698 0 0 1 -.693.71.71.71 0 0 1 -.71-.71v-12.072a.702.702 0 0 1 1.403 0v5.16c.768-1.133 1.88-2.098 3.612-2.098zm3.062 4.926.004-.017c0-2.228-1.535-3.648-3.32-3.648a3.513 3.513 0 0 0 -3.415 3.607v.037a3.51 3.51 0 0 0 3.41 3.65c1.827 0 3.321-1.351 3.321-3.63zm5.82 4.7a.677.677 0 0 1 -.734-.64.82.82 0 0 1 .345-.674l4.359-3.846c1.97-1.748 2.663-2.733 2.663-4.01a2.438 2.438 0 0 0 -2.57-2.463c-1.35 0-2.26.657-3.172 1.86a.66.66 0 0 1 -1.186-.41.632.632 0 0 1 .148-.411c1.038-1.478 2.224-2.352 4.322-2.352 2.315 0 3.956 1.535 3.956 3.612v.037c0 1.86-.985 3.008-3.226 4.958l-3.41 3.025h6.18a.657.657 0 0 1 0 1.313h-7.675zm14.99.221c-3.3 0-5.38-2.992-5.377-6.567v-.037c0-3.57 2.13-6.6 5.414-6.6s5.36 2.992 5.36 6.567v.037c0 3.575-2.113 6.6-5.397 6.6zm-3.883-6.637v.037c0 2.787 1.531 5.287 3.92 5.287s3.866-2.463 3.866-5.254v-.037c0-2.787-1.514-5.287-3.903-5.287s-3.883 2.447-3.883 5.254zm21.413.037c0 3.571-2.089 6.6-5.393 6.6s-5.381-2.992-5.381-6.567v-.037c0-3.57 2.134-6.6 5.414-6.6s5.36 2.992 5.36 6.567zm-9.28 0h-.008c0 2.787 1.539 5.287 3.928 5.287s3.866-2.463 3.866-5.254v-.037c0-2.787-1.514-5.287-3.903-5.287s-3.883 2.447-3.883 5.254zm16.003 6.6c-3.3 0-5.376-2.992-5.376-6.567v-.037c0-3.57 2.13-6.6 5.413-6.6 3.284 0 5.36 2.992 5.36 6.567v.037c0 3.575-2.113 6.6-5.397 6.6zm-3.882-6.637v.037c0 2.787 1.53 5.287 3.92 5.287 2.388 0 3.866-2.463 3.866-5.254v-.037c0-2.787-1.515-5.287-3.904-5.287-2.388 0-3.882 2.447-3.882 5.254zm-68.233 16.135c1.46.439 3.029 1.005 3.025 2.655v.037c0 1.79-1.474 2.828-3.354 2.828a6.522 6.522 0 0 1 -3.628-1.186.632.632 0 0 1 -.254-.509.612.612 0 0 1 .62-.603.562.562 0 0 1 .344.11c.873.63 1.916.98 2.992 1.002 1.129 0 1.95-.583 1.95-1.494v-.037c0-.932-1.12-1.297-2.352-1.642-1.478-.422-3.12-.931-3.12-2.663v-.037c0-1.622 1.351-2.697 3.21-2.697a6.567 6.567 0 0 1 3.009.82c.21.12.341.342.345.584a.612.612 0 0 1 -.62.603.702.702 0 0 1 -.308-.074 5.106 5.106 0 0 0 -2.463-.73c-1.112 0-1.822.582-1.822 1.366v.025c0 .911 1.17 1.26 2.426 1.642zm9.062.094 3.395 4.228a.7.7 0 0 1 .18.476.649.649 0 0 1 -.673.657.69.69 0 0 1 -.603-.329l-3.284-4.104-1.95 1.933v1.806a.685.685 0 0 1 -.693.71.702.702 0 0 1 -.71-.71v-12.071a.702.702 0 0 1 1.404 0v8.64l5.11-5.192a.702.702 0 0 1 .546-.275.636.636 0 0 1 .636.656.726.726 0 0 1 -.275.546l-3.083 3.03zm5.931-7.843a.763.763 0 0 1 .821.747v.238a.82.82 0 0 1 -1.642 0v-.238a.76.76 0 0 1 .821-.747zm0 3.62a.702.702 0 0 1 .71.702v8.196a.685.685 0 0 1 -.693.71.702.702 0 0 1 -.71-.71v-8.188a.71.71 0 0 1 .693-.71zm8.078-.12c2.262 0 4.503 1.786 4.515 4.865v.036c0 3.103-2.237 4.926-4.515 4.926a4.252 4.252 0 0 1 -3.612-2.007v4.104a.685.685 0 0 1 -.694.71.702.702 0 0 1 -.71-.71v-11.102a.702.702 0 0 1 1.404 0v1.276c.768-1.133 1.88-2.097 3.612-2.097zm3.062 4.926.02-.016c0-2.23-1.535-3.65-3.32-3.65a3.513 3.513 0 0 0 -3.41 3.63v.036a3.51 3.51 0 0 0 3.39 3.628c1.826 0 3.32-1.35 3.32-3.628zm8.135-4.925c2.262 0 4.503 1.785 4.515 4.864v.036c0 3.103-2.237 4.926-4.515 4.926a4.252 4.252 0 0 1 -3.612-2.007v4.104a.685.685 0 0 1 -.694.71.702.702 0 0 1 -.71-.71v-11.102a.702.702 0 0 1 1.404 0v1.276c.768-1.133 1.88-2.097 3.612-2.097zm3.062 4.925v-.037c0-2.229-1.535-3.649-3.32-3.649a3.513 3.513 0 0 0 -3.411 3.629v.037a3.51 3.51 0 0 0 3.41 3.648c1.827 0 3.32-1.35 3.32-3.628zm7.06-4.925c2.787 0 4.375 2.278 4.363 4.802a.653.653 0 0 1 -.657.657h-6.818c.197 2.04 1.638 3.189 3.317 3.189a3.854 3.854 0 0 0 2.717-1.096.616.616 0 0 1 .41-.164.595.595 0 0 1 .41 1.059 4.794 4.794 0 0 1 -3.554 1.42c-2.59 0-4.703-1.987-4.703-4.905v-.037c0-2.738 1.908-4.925 4.515-4.925zm-3.1 4.396h6.071c-.135-1.716-1.128-3.21-3.008-3.21-1.642 0-2.882 1.367-3.062 3.21zm13.693-4.322a.673.673 0 0 1 .69.722.698.698 0 0 1 -.62.71c-1.822.197-3.316 1.584-3.316 4.302v3.21a.702.702 0 0 1 -1.404 0v-8.19a.71.71 0 0 1 .694-.71.702.702 0 0 1 .71.703v1.769c.693-1.568 2.06-2.516 3.246-2.516z"/></g></g></svg>