<svg height="111" viewBox="0 0 241 111" width="241" xmlns="http://www.w3.org/2000/svg"><g fill-rule="evenodd"><path d="m.606.606v110.21h110.21v-41.368l13.738-13.737-13.738-13.738v-41.367z" fill="#c17c51"/><g fill-rule="nonzero"><path d="m40.45 37.436v3.163h-12.305v-17.349h3.426v14.187h8.879zm-24.704-3.713v6.876h-3.426v-17.349h13.03v3.164h-9.604v4.146h8.515v3.164h-8.515zm16.278 29.913c0 4.272-3.41 6.91-8.903 6.91h-10.8v-24.58h10.383c2.722 0 4.935.773 6.408 2.229a5.768 5.768 0 0 1 1.618 4.11v.069a5.99 5.99 0 0 1 -3.014 5.396c2.86 1.149 4.308 3.094 4.308 5.796zm36.22-34.61v11.574h-3.382v-17.35h3.095l8.705 11.234v-11.234h3.378v17.35h-2.828zm-23.332 11.574v-6.82l-6.902-10.53h4.053l4.6 7.282 4.651-7.281h3.956l-6.905 10.456v6.893h-3.454zm12.475-17.35h3.426v17.35h-3.426zm-21.047 22.722h3.536v21.2h13.11v3.374h-16.646v-24.575zm39.873 14.013c0 6.848-3.802 10.933-10.17 10.933-6.253 0-10.137-4.11-10.137-10.731v-14.217h3.536v14.045c0 4.785 2.431 7.528 6.666 7.528 4.236 0 6.57-2.613 6.57-7.358v-14.215h3.535v14.013zm15.574-29.291h7.641v7.443l-.08.069a10.97 10.97 0 0 1 -7.193 2.65c-5.291 0-8.988-3.642-8.988-8.9v-.049a8.855 8.855 0 0 1 8.964-8.948c2.746 0 4.672.68 6.638 2.347l.174.15-2.173 2.604-.178-.15a6.359 6.359 0 0 0 -4.579-1.755c-2.904 0-5.258 2.569-5.258 5.728v.049c0 3.414 2.273 5.8 5.51 5.8a6.751 6.751 0 0 0 3.846-1.165v-2.831h-4.324zm-6.723 29.133v7.378h14.372v3.341h-17.908v-24.575h17.742v3.341h-14.206v7.172h12.71v3.342h-12.71zm-72.796 17.073h2.868l3.18 5.113 3.179-5.113h2.864v12.087h-2.646v-7.892l-3.402 5.162h-.069l-3.37-5.113v7.839h-2.604zm17.398 0h9.117v2.367h-6.472v2.451h5.696v2.37h-5.7v2.54h6.565v2.367h-9.206zm13.98 0h2.868l3.18 5.113 3.179-5.113h2.864v12.087h-2.642v-7.892l-3.402 5.162h-.069l-3.37-5.113v7.839h-2.608zm17.398 0h5.614c1.38 0 2.472.38 3.16 1.072.55.54.85 1.285.829 2.055v.016a2.832 2.832 0 0 1 -1.59 2.61c1.4.533 2.261 1.346 2.261 2.969v.036c0 2.209-1.796 3.317-4.522 3.317h-5.752zm14.878 0h9.118v2.367h-6.473v2.451h5.7v2.37h-5.7v2.54h6.561v2.367h-9.206zm13.984 0h5.525c1.538 0 2.73.433 3.524 1.214a3.794 3.794 0 0 1 1.035 2.763v.036a3.754 3.754 0 0 1 -2.589 3.746l2.953 4.316h-3.11l-2.59-3.867h-2.087v3.867h-2.661zm5.352 5.874c1.294 0 2.022-.692 2.022-1.711v-.037c0-1.14-.809-1.727-2.087-1.727h-2.643v3.47l2.707.005zm-79.439-33.498v7.245h6.436c3.07 0 4.903-1.412 4.903-3.774v-.069c0-2.164-1.715-3.402-4.705-3.402h-6.633zm0 10.517v7.44h7.379c3.288 0 5.258-1.412 5.258-3.775v-.06c0-2.978-3.119-3.605-5.736-3.605h-6.9zm50.27 21.994c1.172 0 1.916-.38 1.916-1.279v-.036c0-.809-.618-1.246-1.743-1.246h-2.625v2.557l2.451.004zm.707 4.854c1.173 0 1.88-.405 1.88-1.315v-.024c0-.809-.602-1.31-1.969-1.31h-3.074v2.657z" fill="#fff"/><path d="m143.012 55.287a.82.82 0 1 1 1.618 0v1.49c.878-1.3 2.158-2.413 4.153-2.413 2.602 0 5.18 2.052 5.18 5.623v.041c0 3.546-2.557 5.644-5.18 5.644a4.893 4.893 0 0 1 -4.153-2.328v4.72a.788.788 0 0 1 -.797.822.82.82 0 0 1 -.82-.821v-12.778zm9.293 4.741v-.041c0-2.557-1.76-4.195-3.817-4.195a4.043 4.043 0 0 0 -3.924 4.174v.042c0 2.516 1.908 4.194 3.924 4.194 2.097 0 3.817-1.551 3.817-4.174zm4.252-9.206a.82.82 0 1 1 1.617 0v13.885a.788.788 0 0 1 -.796.821.82.82 0 0 1 -.82-.82v-13.887zm4.03 11.451v-.04c0-2.287 1.889-3.506 4.635-3.506a11.49 11.49 0 0 1 3.337.464v-.361c0-1.95-1.195-2.956-3.23-2.956a6.772 6.772 0 0 0 -2.812.608.718.718 0 0 1 -1.01-.632.738.738 0 0 1 .44-.673 8.541 8.541 0 0 1 3.546-.735c1.53 0 2.704.41 3.5 1.194.74.73 1.109 1.773 1.109 3.157v5.935a.768.768 0 0 1 -.776.796.743.743 0 0 1 -.776-.755v-.985a4.753 4.753 0 0 1 -3.923 1.867c-2.008 0-4.04-1.153-4.04-3.378zm7.992-.82v-1.051a11.308 11.308 0 0 0 -3.189-.46c-2.052 0-3.169.882-3.169 2.245v.041c0 1.363 1.26 2.159 2.726 2.159 1.994-.016 3.632-1.231 3.632-2.951v.016zm4.905 1.095v-6.546h-.882a.735.735 0 0 1 -.715-.715.722.722 0 0 1 .715-.714h.882v-2.557a.82.82 0 0 1 .796-.82.82.82 0 0 1 .821.82v2.557h2.8a.739.739 0 0 1 .734.714.726.726 0 0 1 -.735.715h-2.799v6.333c0 1.321.735 1.802 1.827 1.802a4.58 4.58 0 0 0 .985-.148.698.698 0 0 1 .693.694.673.673 0 0 1 -.46.628 4.076 4.076 0 0 1 -1.592.295c-1.748.004-3.07-.858-3.07-3.058zm7.38-11.37a.96.96 0 0 1 1.908 0v.263a.96.96 0 0 1 -1.908 0v-.262zm.148 4.105a.82.82 0 0 1 .796-.82.82.82 0 0 1 .82.82v9.417a.788.788 0 0 1 -.796.82.82.82 0 0 1 -.82-.82v-9.416zm4.847.004a.82.82 0 0 1 .796-.82.82.82 0 0 1 .821.82v1.174a4.104 4.104 0 0 1 3.694-2.118c2.623 0 4.154 1.761 4.154 4.343v6.021a.82.82 0 1 1 -1.617 0v-5.623c0-2.015-1.092-3.284-3-3.284-1.91 0-3.251 1.363-3.251 3.399v5.496a.788.788 0 0 1 -.797.82.82.82 0 0 1 -.82-.82zm21.684 9.42a.796.796 0 1 1 -1.593 0v-1.174a4.133 4.133 0 0 1 -3.694 2.118c-2.622 0-4.153-1.76-4.153-4.342v-6.022a.788.788 0 0 1 .796-.82.82.82 0 0 1 .82.82v5.624c0 2.015 1.093 3.283 3.001 3.283 1.847 0 3.25-1.363 3.25-3.398v-5.509a.788.788 0 0 1 .797-.82.82.82 0 0 1 .796.82zm3.103-9.42a.82.82 0 0 1 .796-.82.82.82 0 0 1 .821.82v1.113c.714-1.072 1.679-2.053 3.501-2.053a3.694 3.694 0 0 1 3.48 2.164 4.322 4.322 0 0 1 3.818-2.164c2.495 0 4.026 1.68 4.026 4.364v6a.82.82 0 1 1 -1.613 0v-5.623c0-2.097-1.05-3.283-2.811-3.283-1.642 0-2.98 1.23-2.98 3.357v5.537a.82.82 0 1 1 -1.613 0v-5.664c0-2.052-1.071-3.23-2.791-3.23s-3.021 1.428-3.021 3.419v5.475a.788.788 0 0 1 -.796.82.82.82 0 0 1 -.821-.82zm-12.47-7.794v-2.795a.655.655 0 1 1 1.31 0v2.762c0 .969.484 1.47 1.285 1.47.8 0 1.28-.485 1.28-1.429v-2.803a.655.655 0 0 1 1.31 0v2.754c0 1.802-1.01 2.684-2.611 2.684-1.6 0-2.573-.895-2.573-2.643zm6.523-2.795a.655.655 0 1 1 1.309 0v4.154h2.422a.595.595 0 1 1 0 1.19h-3.075a.649.649 0 0 1 -.652-.653zm5.795.587h-1.256a.603.603 0 1 1 0-1.207h3.825a.603.603 0 0 1 0 1.207h-1.26v4.137a.655.655 0 1 1 -1.309 0zm4.187-.587a.655.655 0 1 1 1.309 0v4.74a.655.655 0 1 1 -1.31 0v-4.74zm2.799.016a.649.649 0 0 1 .644-.66h.144a.669.669 0 0 1 .595.34l1.58 2.574 1.589-2.582a.64.64 0 0 1 .607-.333h.144a.649.649 0 0 1 .652.653v4.724a.65.65 0 0 1 -1.3 0v-2.967l-1.138 1.777a.612.612 0 0 1 -1.087 0l-1.15-1.724v2.955a.64.64 0 0 1 -.644.637.632.632 0 0 1 -.636-.637zm7.047 4.486 2.073-4.683a.82.82 0 0 1 .763-.517h.078a.796.796 0 0 1 .756.517l2.052 4.683a.636.636 0 0 1 .07.263.62.62 0 0 1 -.62.628.665.665 0 0 1 -.628-.451l-.41-.936h-2.62l-.41.977a.64.64 0 0 1 -.603.41.603.603 0 0 1 -.603-.611.694.694 0 0 1 .102-.28zm3.694-1.641-.82-1.962-.821 1.962zm3.9-2.274h-1.273a.603.603 0 0 1 0-1.207h3.826a.603.603 0 0 1 0 1.207h-1.26v4.137a.655.655 0 1 1 -1.31 0zm4.125 4.104v-4.638a.649.649 0 0 1 .652-.652h3.284a.587.587 0 0 1 .414.999.579.579 0 0 1 -.414.166h-2.652v1.207h2.27a.587.587 0 0 1 .415.999.579.579 0 0 1 -.415.167h-2.27v1.231h2.693a.587.587 0 0 1 .414 1 .579.579 0 0 1 -.414.166h-3.341a.649.649 0 0 1 -.636-.645z"/></g></g></svg>