<svg height="163" viewBox="0 0 111 163" width="111" xmlns="http://www.w3.org/2000/svg"><g fill-rule="evenodd"><path d="m110.882.511h-110.21v110.21h41.368l13.736 13.739 13.74-13.738h41.366z" fill="#3b4757"/><g fill-rule="nonzero"><path d="m40.45 36.436v3.163h-12.305v-17.349h3.426v14.187h8.879zm-24.704-3.713v6.876h-3.426v-17.349h13.03v3.164h-9.604v4.146h8.515v3.164h-8.515zm16.278 29.913c0 4.272-3.41 6.91-8.903 6.91h-10.8v-24.58h10.383c2.722 0 4.935.773 6.408 2.229a5.768 5.768 0 0 1 1.618 4.11v.069a5.99 5.99 0 0 1 -3.014 5.396c2.86 1.149 4.308 3.094 4.308 5.796zm36.22-34.61v11.574h-3.382v-17.35h3.095l8.705 11.234v-11.234h3.378v17.35h-2.828zm-23.332 11.574v-6.82l-6.902-10.53h4.053l4.6 7.282 4.651-7.281h3.956l-6.905 10.456v6.893h-3.454zm12.475-17.35h3.426v17.35h-3.426zm-21.047 22.722h3.536v21.2h13.11v3.374h-16.646v-24.575zm39.873 14.013c0 6.848-3.802 10.933-10.17 10.933-6.253 0-10.137-4.11-10.137-10.731v-14.217h3.536v14.045c0 4.785 2.431 7.528 6.666 7.528 4.236 0 6.57-2.613 6.57-7.358v-14.215h3.535v14.013zm15.574-29.291h7.641v7.443l-.08.069a10.97 10.97 0 0 1 -7.193 2.65c-5.291 0-8.988-3.642-8.988-8.9v-.049a8.855 8.855 0 0 1 8.964-8.948c2.746 0 4.672.68 6.638 2.347l.174.15-2.173 2.604-.178-.15a6.359 6.359 0 0 0 -4.579-1.755c-2.904 0-5.258 2.569-5.258 5.728v.049c0 3.414 2.273 5.8 5.51 5.8a6.751 6.751 0 0 0 3.846-1.165v-2.831h-4.324zm-6.723 29.133v7.378h14.372v3.341h-17.908v-24.575h17.742v3.341h-14.206v7.172h12.71v3.342h-12.71zm-72.796 17.073h2.868l3.18 5.113 3.179-5.113h2.864v12.087h-2.646v-7.892l-3.402 5.162h-.069l-3.37-5.113v7.839h-2.604zm17.398 0h9.117v2.367h-6.472v2.451h5.696v2.37h-5.7v2.54h6.565v2.367h-9.206zm13.98 0h2.868l3.18 5.113 3.179-5.113h2.864v12.087h-2.642v-7.892l-3.402 5.162h-.069l-3.37-5.113v7.839h-2.608zm17.398 0h5.614c1.38 0 2.472.38 3.16 1.072.55.54.85 1.285.829 2.055v.016a2.832 2.832 0 0 1 -1.59 2.61c1.4.533 2.261 1.346 2.261 2.969v.036c0 2.209-1.796 3.317-4.522 3.317h-5.752zm14.878 0h9.118v2.367h-6.473v2.451h5.7v2.37h-5.7v2.54h6.561v2.367h-9.206zm13.984 0h5.525c1.538 0 2.73.433 3.524 1.214a3.794 3.794 0 0 1 1.035 2.763v.036a3.754 3.754 0 0 1 -2.589 3.746l2.953 4.316h-3.11l-2.59-3.867h-2.087v3.867h-2.661zm5.352 5.874c1.294 0 2.022-.692 2.022-1.711v-.037c0-1.14-.809-1.727-2.087-1.727h-2.643v3.47l2.707.005zm-79.439-33.498v7.245h6.436c3.07 0 4.903-1.412 4.903-3.774v-.069c0-2.164-1.715-3.402-4.705-3.402h-6.633zm0 10.517v7.44h7.379c3.288 0 5.258-1.412 5.258-3.775v-.06c0-2.978-3.119-3.605-5.736-3.605h-6.9zm50.27 21.994c1.172 0 1.916-.38 1.916-1.279v-.036c0-.809-.618-1.246-1.743-1.246h-2.625v2.557l2.451.004zm.707 4.854c1.173 0 1.88-.405 1.88-1.315v-.024c0-.809-.602-1.31-1.969-1.31h-3.074v2.657z" fill="#fff"/><path d="m11.008 147.631a.862.862 0 0 1 1.724 0v1.568c.94-1.387 2.307-2.577 4.437-2.577 2.779 0 5.533 2.196 5.533 6.004v.046c0 3.784-2.734 6.025-5.533 6.025-2.15 0-3.538-1.166-4.437-2.463v5.04a.841.841 0 0 1 -.858.875.862.862 0 0 1 -.874-.874zm9.925 5.065v-.045c0-2.733-1.88-4.478-4.076-4.478a4.318 4.318 0 0 0 -4.19 4.458v.045c0 2.688 2.052 4.478 4.19 4.478 2.241 0 4.076-1.675 4.076-4.458zm4.548-9.834a.862.862 0 0 1 1.724 0v14.83a.841.841 0 0 1 -.85.874.862.862 0 0 1 -.874-.875v-14.83zm4.297 12.231v-.045c0-2.442 2.015-3.743 4.95-3.743a12.313 12.313 0 0 1 3.563.492v-.41c0-2.081-1.277-3.16-3.448-3.16a7.232 7.232 0 0 0 -3 .648.887.887 0 0 1 -.312.066.763.763 0 0 1 -.776-.727.788.788 0 0 1 .472-.718 9.132 9.132 0 0 1 3.784-.784c1.642 0 2.873.41 3.74 1.276.783.784 1.186 1.905 1.186 3.383v6.337a.82.82 0 0 1 -.821.85.796.796 0 0 1 -.821-.821v-1.027a5.073 5.073 0 0 1 -4.19 1.995c-2.152-.008-4.327-1.24-4.327-3.612zm8.533-.894v-1.121a12.08 12.08 0 0 0 -3.402-.493c-2.172 0-3.382.94-3.382 2.397v.046c0 1.457 1.342 2.306 2.914 2.306 2.126-.004 3.87-1.3 3.87-3.14zm5.242 1.182v-6.978h-.94a.784.784 0 0 1 -.764-.763.772.772 0 0 1 .764-.76h.94v-2.733a.854.854 0 0 1 .85-.875.89.89 0 0 1 .874.875v2.713h3a.788.788 0 0 1 .784.759.776.776 0 0 1 -.784.763h-3v6.765c0 1.412.784 1.929 1.95 1.929a4.88 4.88 0 0 0 1.054-.156.747.747 0 0 1 .739.739.722.722 0 0 1 -.493.673 4.355 4.355 0 0 1 -1.703.312c-1.86.008-3.271-.912-3.271-3.263zm7.884-12.141a1.026 1.026 0 0 1 2.053 0v.291a1.026 1.026 0 1 1 -2.053 0zm.156 4.391a.87.87 0 0 1 .85-.874.862.862 0 0 1 .874.874v10.06a.841.841 0 0 1 -.85.875.862.862 0 0 1 -.874-.875zm5.176 0a.87.87 0 0 1 .85-.874.862.862 0 0 1 .874.874v1.256a4.384 4.384 0 0 1 3.965-2.261c2.8 0 4.437 1.88 4.437 4.638v6.427a.862.862 0 1 1 -1.724 0v-6.004c0-2.151-1.166-3.493-3.202-3.493-2.035 0-3.472 1.457-3.472 3.628v5.87a.841.841 0 0 1 -.85.874.862.862 0 0 1 -.874-.875zm23.158 10.06a.852.852 0 0 1 -1.704 0v-1.256a4.412 4.412 0 0 1 -3.965 2.262c-2.799 0-4.437-1.88-4.437-4.638v-6.428a.841.841 0 0 1 .85-.874c.483 0 .874.392.874.874v6.005c0 2.15 1.166 3.493 3.202 3.493 1.97 0 3.472-1.457 3.472-3.628v-5.87a.841.841 0 0 1 .85-.874.854.854 0 0 1 .85.874zm3.316-10.06a.87.87 0 0 1 .85-.874.862.862 0 0 1 .874.874v1.187c.763-1.142 1.794-2.196 3.74-2.196a3.932 3.932 0 0 1 3.718 2.306 4.618 4.618 0 0 1 4.075-2.306c2.664 0 4.302 1.793 4.302 4.658v6.407a.862.862 0 1 1 -1.724 0v-6c0-2.241-1.12-3.493-3-3.493-1.749 0-3.181 1.3-3.181 3.583v5.914a.862.862 0 0 1 -1.724 0v-6.05c0-2.17-1.141-3.447-2.98-3.447s-3.226 1.522-3.226 3.653v5.844a.841.841 0 0 1 -.85.875.862.862 0 0 1 -.874-.875z" fill="#394655"/></g></g></svg>