<svg height="111" viewBox="0 0 242 111" width="242" xmlns="http://www.w3.org/2000/svg"><g fill-rule="evenodd"><path d="m.606.606v110.21h110.21v-41.368l13.738-13.737-13.738-13.738v-41.367z" fill="#c17c51"/><g fill-rule="nonzero"><path d="m40.45 37.436v3.163h-12.305v-17.349h3.426v14.187h8.879zm-24.704-3.713v6.876h-3.426v-17.349h13.03v3.164h-9.604v4.146h8.515v3.164h-8.515zm16.278 29.913c0 4.272-3.41 6.91-8.903 6.91h-10.8v-24.58h10.383c2.722 0 4.935.773 6.408 2.229a5.768 5.768 0 0 1 1.618 4.11v.069a5.99 5.99 0 0 1 -3.014 5.396c2.86 1.149 4.308 3.094 4.308 5.796zm36.22-34.61v11.574h-3.382v-17.35h3.095l8.705 11.234v-11.234h3.378v17.35h-2.828zm-23.332 11.574v-6.82l-6.902-10.53h4.053l4.6 7.282 4.651-7.281h3.956l-6.905 10.456v6.893h-3.454zm12.475-17.35h3.426v17.35h-3.426zm-21.047 22.722h3.536v21.2h13.11v3.374h-16.646v-24.575zm39.873 14.013c0 6.848-3.802 10.933-10.17 10.933-6.253 0-10.137-4.11-10.137-10.731v-14.217h3.536v14.045c0 4.785 2.431 7.528 6.666 7.528 4.236 0 6.57-2.613 6.57-7.358v-14.215h3.535v14.013zm15.574-29.291h7.641v7.443l-.08.069a10.97 10.97 0 0 1 -7.193 2.65c-5.291 0-8.988-3.642-8.988-8.9v-.049a8.855 8.855 0 0 1 8.964-8.948c2.746 0 4.672.68 6.638 2.347l.174.15-2.173 2.604-.178-.15a6.359 6.359 0 0 0 -4.579-1.755c-2.904 0-5.258 2.569-5.258 5.728v.049c0 3.414 2.273 5.8 5.51 5.8a6.751 6.751 0 0 0 3.846-1.165v-2.831h-4.324zm-6.723 29.133v7.378h14.372v3.341h-17.908v-24.575h17.742v3.341h-14.206v7.172h12.71v3.342h-12.71zm-72.796 17.073h2.868l3.18 5.113 3.179-5.113h2.864v12.087h-2.646v-7.892l-3.402 5.162h-.069l-3.37-5.113v7.839h-2.604zm17.398 0h9.117v2.367h-6.472v2.451h5.696v2.37h-5.7v2.54h6.565v2.367h-9.206zm13.98 0h2.868l3.18 5.113 3.179-5.113h2.864v12.087h-2.642v-7.892l-3.402 5.162h-.069l-3.37-5.113v7.839h-2.608zm17.398 0h5.614c1.38 0 2.472.38 3.16 1.072.55.54.85 1.285.829 2.055v.016a2.832 2.832 0 0 1 -1.59 2.61c1.4.533 2.261 1.346 2.261 2.969v.036c0 2.209-1.796 3.317-4.522 3.317h-5.752zm14.878 0h9.118v2.367h-6.473v2.451h5.7v2.37h-5.7v2.54h6.561v2.367h-9.206zm13.984 0h5.525c1.538 0 2.73.433 3.524 1.214a3.794 3.794 0 0 1 1.035 2.763v.036a3.754 3.754 0 0 1 -2.589 3.746l2.953 4.316h-3.11l-2.59-3.867h-2.087v3.867h-2.661zm5.352 5.874c1.294 0 2.022-.692 2.022-1.711v-.037c0-1.14-.809-1.727-2.087-1.727h-2.643v3.47l2.707.005zm-79.439-33.498v7.245h6.436c3.07 0 4.903-1.412 4.903-3.774v-.069c0-2.164-1.715-3.402-4.705-3.402h-6.633zm0 10.517v7.44h7.379c3.288 0 5.258-1.412 5.258-3.775v-.06c0-2.978-3.119-3.605-5.736-3.605h-6.9zm50.27 21.994c1.172 0 1.916-.38 1.916-1.279v-.036c0-.809-.618-1.246-1.743-1.246h-2.625v2.557l2.451.004zm.707 4.854c1.173 0 1.88-.405 1.88-1.315v-.024c0-.809-.602-1.31-1.969-1.31h-3.074v2.657z" fill="#fff"/><path d="m198.517 43.534v-2.828a.66.66 0 0 1 1.322 0v2.795c0 .981.488 1.486 1.297 1.486.808 0 1.297-.488 1.297-1.445v-2.836a.663.663 0 1 1 1.326 0v2.783c0 1.822-1.022 2.717-2.64 2.717-1.617 0-2.602-.903-2.602-2.672zm6.596-2.828a.66.66 0 1 1 1.322 0v4.203h2.462a.603.603 0 0 1 0 1.203h-3.11a.657.657 0 0 1 -.662-.661zm5.865.607h-1.272a.616.616 0 0 1 0-1.23h3.866a.616.616 0 0 1 0 1.23h-1.272v4.187a.66.66 0 0 1 -1.322 0zm4.232-.607a.663.663 0 1 1 1.326 0v4.798a.663.663 0 0 1 -1.326 0zm2.832.016a.657.657 0 0 1 .661-.66h.148a.677.677 0 0 1 .603.344l1.6 2.603 1.61-2.61a.649.649 0 0 1 .59-.337h.149a.657.657 0 0 1 .66.66v4.778a.657.657 0 0 1 -1.313 0v-3l-1.162 1.79a.62.62 0 0 1 -1.1 0l-1.14-1.762v2.993a.644.644 0 0 1 -.653.644.64.64 0 0 1 -.645-.644zm7.13 4.54 2.097-4.737a.82.82 0 0 1 .772-.525h.078a.82.82 0 0 1 .763.525l2.097 4.737a.644.644 0 0 1 .07.267.628.628 0 0 1 -.628.636.673.673 0 0 1 -.636-.456l-.41-.944h-2.64l-.41.99a.649.649 0 0 1 -.612.41.612.612 0 0 1 -.611-.62.702.702 0 0 1 .07-.283zm3.722-1.666-.82-1.987-.821 1.987zm3.957-2.283h-1.272a.616.616 0 0 1 0-1.23h3.866a.616.616 0 0 1 0 1.23h-1.272v4.187a.66.66 0 1 1 -1.322 0zm4.174 4.138v-4.704a.657.657 0 0 1 .661-.66h3.333a.595.595 0 0 1 .591.59.587.587 0 0 1 -.591.583h-2.68v1.231h2.294a.595.595 0 0 1 .591.591.587.587 0 0 1 -.59.583h-2.295v1.264h2.725a.595.595 0 0 1 .591.592.587.587 0 0 1 -.59.582h-3.379a.657.657 0 0 1 -.66-.652zm-88.184 3.464c2.63 0 5.245 2.093 5.241 5.689v.04c0 3.584-2.59 5.706-5.241 5.706a4.946 4.946 0 0 1 -4.2-2.331v4.773a.796.796 0 0 1 -.82.821.82.82 0 0 1 -.821-.82v-12.923a.82.82 0 1 1 1.642 0v1.486c.886-1.317 2.183-2.442 4.199-2.442zm3.562 5.746v-.04c0-2.603-1.785-4.245-3.862-4.245a4.104 4.104 0 0 0 -3.969 4.224v.04c0 2.545 1.917 4.245 3.969 4.245 2.122 0 3.862-1.572 3.862-4.224zm5.11-10.138a.82.82 0 0 1 .821.83v14.037a.796.796 0 0 1 -.82.82.82.82 0 0 1 -.821-.82v-14.046a.82.82 0 0 1 .82-.82zm8.23 4.478c1.551 0 2.738.402 3.567 1.211.743.739 1.124 1.802 1.124 3.201v5.985a.776.776 0 0 1 -.784.82.751.751 0 0 1 -.784-.763v-.997a4.81 4.81 0 0 1 -3.969 1.888c-2.052 0-4.104-1.166-4.104-3.415v-.041c0-2.31 1.908-3.542 4.687-3.542 1.142-.01 2.279.147 3.374.468v-.382c0-1.974-1.231-2.992-3.283-2.992a6.85 6.85 0 0 0 -2.845.615.82.82 0 0 1 -.295.066.726.726 0 0 1 -.723-.702.747.747 0 0 1 .448-.677 8.62 8.62 0 0 1 3.587-.743zm3.12 7.084v-1.058a11.44 11.44 0 0 0 -3.223-.464c-2.06 0-3.205.89-3.205 2.27v.04c0 1.363 1.272 2.184 2.758 2.184 2.028 0 3.67-1.231 3.67-2.972zm9.44-5.487h-2.845v6.407c0 1.338.743 1.826 1.847 1.826a4.63 4.63 0 0 0 .998-.147c.386.002.7.315.701.701a.681.681 0 0 1 -.467.637 4.104 4.104 0 0 1 -1.613.295c-1.761 0-3.1-.87-3.1-3.099v-6.62h-.89a.743.743 0 0 1 -.722-.723.73.73 0 0 1 .722-.722h.882v-2.59a.82.82 0 0 1 .821-.82c.45.01.81.371.821.82v2.59h2.845c.401.002.73.321.743.722a.735.735 0 0 1 -.743.723zm3.944-1.556a.82.82 0 0 1 .82.83v9.518a.796.796 0 0 1 -.82.82.82.82 0 0 1 -.82-.82v-9.527a.82.82 0 0 1 .82-.82zm0-4.19a.89.89 0 0 1 .973.87v.275a.969.969 0 0 1 -1.93 0v-.275a.882.882 0 0 1 .957-.87zm9.485 4.063c2.652 0 4.22 1.781 4.203 4.392v6.087a.82.82 0 0 1 -1.641 0v-5.685c0-2.04-1.15-3.312-3.034-3.312s-3.283 1.387-3.283 3.44v5.56a.796.796 0 0 1 -.821.822.82.82 0 0 1 -.82-.821v-9.528a.82.82 0 1 1 1.64 0v1.186a4.154 4.154 0 0 1 3.756-2.142zm15.737.127a.82.82 0 0 1 .788.83v9.53a.82.82 0 1 1 -1.613 0v-1.19a4.178 4.178 0 0 1 -3.756 2.142c-2.651 0-4.198-1.781-4.198-4.392v-6.09a.796.796 0 0 1 .82-.822.82.82 0 0 1 .821.821v5.677c0 2.036 1.104 3.308 3.034 3.308 1.863 0 3.283-1.383 3.283-3.435v-5.558a.796.796 0 0 1 .821-.82zm16.504-.127c2.524 0 4.076 1.683 4.092 4.412v6.07a.82.82 0 0 1 -1.641 0v-5.684c0-2.122-1.064-3.312-2.845-3.312-1.654 0-3.013 1.231-3.013 3.394v5.632a.82.82 0 0 1 -1.641 0v-5.747c0-2.073-1.084-3.283-2.824-3.283s-3.054 1.444-3.054 3.46v5.54a.796.796 0 0 1 -.82.822.82.82 0 0 1 -.822-.821v-9.528a.82.82 0 1 1 1.642 0v1.125c.718-1.084 1.695-2.081 3.542-2.081a3.727 3.727 0 0 1 3.522 2.188 4.371 4.371 0 0 1 3.862-2.188zm-17.177 13.951c-.583 0-.89.337-.89 1.063v.386h1.198a.649.649 0 0 1 .648.665.657.657 0 0 1 -.648.665h-1.17v4.925a.772.772 0 1 1 -1.54 0v-4.925h-.266a.657.657 0 0 1 -.649-.665.665.665 0 0 1 .649-.677h.267v-.518a2.438 2.438 0 0 1 .546-1.728 1.982 1.982 0 0 1 1.514-.558c.26-.002.52.02.776.066.317.06.543.342.534.665a.644.644 0 0 1 -.649.665 2.348 2.348 0 0 0 -.32-.029zm4.81 1.252a3.559 3.559 0 0 1 3.58 3.645v.024a3.591 3.591 0 0 1 -3.604 3.657 3.55 3.55 0 0 1 -3.563-3.628v-.029a3.591 3.591 0 0 1 3.587-3.67zm2.053 3.694-.03-.02c0-1.236-.816-2.262-2.051-2.262-1.236 0-2.024 1.001-2.024 2.233v.024a2.126 2.126 0 0 0 2.052 2.245c1.265 0 2.053-1.01 2.053-2.22zm6.004-3.64a.73.73 0 0 1 .764.8.747.747 0 0 1 -.612.771c-1.091.197-1.843 1.096-1.843 2.738v2.073a.784.784 0 0 1 -.775.796.776.776 0 0 1 -.764-.796v-5.558a.78.78 0 0 1 .764-.82.788.788 0 0 1 .775.82v.719c.357-.879 1.018-1.544 1.691-1.544zm4.372-2.66a.784.784 0 0 1 .775.796v8.242a.772.772 0 1 1 -1.539 0v-8.242a.776.776 0 0 1 .764-.796zm3.32 2.672a.788.788 0 0 1 .776.812v5.566a.772.772 0 1 1 -1.54 0v-5.558a.78.78 0 0 1 .764-.82zm0-2.59a.82.82 0 0 1 .879.784v.078a.882.882 0 0 1 -1.757 0v-.078a.82.82 0 0 1 .878-.784zm5.217 1.272c-.587 0-.911.337-.911 1.063v.386h1.231a.649.649 0 0 1 .649.665.657.657 0 0 1 -.649.665h-1.182v4.925a.772.772 0 1 1 -1.54 0v-4.925h-.266a.657.657 0 0 1 -.648-.665.665.665 0 0 1 .648-.677h.267v-.518a2.438 2.438 0 0 1 .546-1.728 1.982 1.982 0 0 1 1.514-.558c.26-.002.52.02.776.066.317.06.543.342.534.665a.644.644 0 0 1 -.649.665 2.348 2.348 0 0 0 -.32-.029zm7.708 4.708a.739.739 0 0 1 -.743.767h-4.215a1.904 1.904 0 0 0 1.933 1.782 2.356 2.356 0 0 0 1.593-.612.558.558 0 0 1 .41-.148.62.62 0 0 1 .612.653.714.714 0 0 1 -.201.493 3.37 3.37 0 0 1 -2.418.931c-1.945 0-3.448-1.473-3.448-3.64v-.025c0-2.015 1.363-3.657 3.284-3.657 2.138 0 3.193 1.814 3.193 3.456zm-4.95-.292h3.452c-.103-1.026-.69-1.847-1.707-1.847-.924 0-1.605.756-1.745 1.847z"/></g></g></svg>