<svg height="25" viewBox="0 0 73 25" width="73" xmlns="http://www.w3.org/2000/svg"><g fill-rule="evenodd"><path d="m0 .5v24h24v-24zm24 17 5-5-5-5z" fill="#8b8e8e"/><path d="m39.598 17.14c-.938 0-1.96-.294-2.814-.882-.182-.098-.322-.308-.322-.588 0-.378.294-.686.686-.686a.74.74 0 0 1 .364.098c.714.476 1.456.714 2.128.714.728 0 1.148-.308 1.148-.798v-.028c0-.574-.784-.77-1.652-1.036-1.092-.308-2.31-.756-2.31-2.17v-.028c0-1.4 1.162-2.254 2.632-2.254.784 0 1.61.224 2.324.602.238.126.406.35.406.644a.682.682 0 0 1 -.7.686.665.665 0 0 1 -.336-.084c-.602-.308-1.218-.504-1.736-.504-.658 0-1.036.308-1.036.728v.028c0 .546.798.77 1.666 1.05 1.078.336 2.296.826 2.296 2.156v.028c0 1.554-1.204 2.324-2.744 2.324zm4.452-9.436v-.084c0-.504.42-.826.966-.826s.966.322.966.826v.084c0 .504-.42.84-.966.84s-.966-.336-.966-.84zm.126 8.526v-5.852c0-.476.364-.854.84-.854s.854.378.854.854v5.852c0 .476-.378.84-.854.84a.834.834 0 0 1 -.84-.84zm4.004 0v-8.68c0-.462.364-.84.84-.84s.854.378.854.84v8.68c0 .476-.378.84-.854.84a.834.834 0 0 1 -.84-.84zm7.952.168c-.196.434-.504.742-.966.742h-.084c-.462 0-.77-.294-.966-.742l-2.464-5.642c-.042-.126-.098-.266-.098-.42 0-.42.378-.812.84-.812s.7.266.84.616l1.904 4.9 1.932-4.928c.126-.294.35-.588.798-.588.462 0 .826.35.826.812 0 .154-.056.322-.098.406zm5.124-3.612h3.794c-.112-1.092-.756-1.946-1.876-1.946-1.036 0-1.764.798-1.918 1.946zm4.774 3.402c-.672.602-1.512.98-2.66.98-2.142 0-3.794-1.554-3.794-3.836v-.028c0-2.114 1.498-3.85 3.612-3.85 2.352 0 3.514 1.932 3.514 3.64a.792.792 0 0 1 -.798.812h-4.634c.182 1.204 1.036 1.876 2.128 1.876.714 0 1.274-.252 1.75-.644a.63.63 0 0 1 .434-.154c.378 0 .672.294.672.686a.74.74 0 0 1 -.224.518zm2.408.042v-5.852c0-.476.364-.854.84-.854s.854.378.854.854v.756c.392-.924 1.12-1.624 1.862-1.624.532 0 .84.35.84.84a.795.795 0 0 1 -.672.812c-1.204.21-2.03 1.134-2.03 2.884v2.184c0 .462-.378.84-.854.84a.834.834 0 0 1 -.84-.84z" fill="#5cd6cf"/></g></svg>