<svg height="25" viewBox="0 0 206 25" width="206" xmlns="http://www.w3.org/2000/svg"><g fill-rule="evenodd"><path d="m0 .5v24h120v-24zm120 17 5-5-5-5z" fill="#c17c51"/><path d="m12 17.968v-9.8h7.462v1.96h-5.306v2.086h4.676v1.96h-4.676v3.794zm9.384 0v-9.8h2.156v7.84h4.886v1.96zm9.804 0v-3.864l-3.766-5.936h2.52l2.338 3.934 2.38-3.934h2.45l-3.766 5.894v3.906zm7.564 0v-9.8h2.156v9.8zm4.806 0v-9.8h1.988l4.592 6.034v-6.034h2.128v9.8h-1.834l-4.746-6.23v6.23zm15.978.168c-3.052 0-5.152-2.142-5.152-5.04v-.028c0-2.786 2.17-5.068 5.138-5.068 1.764 0 2.828.476 3.85 1.344l-1.358 1.638c-.756-.63-1.428-.994-2.562-.994-1.568 0-2.814 1.386-2.814 3.052v.028c0 1.792 1.232 3.108 2.968 3.108.784 0 1.484-.196 2.03-.588v-1.4h-2.17v-1.862h4.256v4.256c-1.008.854-2.394 1.554-4.186 1.554zm10.858-.168v-9.8h4.55c1.12 0 2.002.308 2.562.868.448.448.672.994.672 1.666v.028c0 1.106-.588 1.722-1.288 2.114 1.134.434 1.834 1.092 1.834 2.408v.028c0 1.792-1.456 2.688-3.668 2.688zm2.1-5.838h1.988c.952 0 1.554-.308 1.554-1.036v-.028c0-.644-.504-1.008-1.414-1.008h-2.128zm0 3.948h2.562c.952 0 1.526-.336 1.526-1.064v-.028c0-.658-.49-1.064-1.596-1.064h-2.492zm8.208 1.89v-9.8h2.156v7.84h4.886v1.96zm12.674.154c-2.632 0-4.242-1.47-4.242-4.354v-5.6h2.156v5.544c0 1.596.798 2.422 2.114 2.422s2.114-.798 2.114-2.352v-5.614h2.156v5.53c0 2.968-1.666 4.424-4.298 4.424zm6.696-.154v-9.8h7.392v1.918h-5.25v1.988h4.62v1.918h-4.62v2.058h5.32v1.918z" fill="#fff"/><path d="m132 14.059v-4.849a1.133 1.133 0 1 1 2.266 0v4.793c0 1.681.837 2.547 2.224 2.547 1.386 0 2.223-.837 2.223-2.477v-4.863a1.136 1.136 0 0 1 2.273 0v4.771c0 3.125-1.752 4.659-4.525 4.659-2.772 0-4.461-1.548-4.461-4.581zm11.308-4.849a1.133 1.133 0 1 1 2.266 0v7.206h4.223a1.034 1.034 0 0 1 0 2.062h-5.334a1.126 1.126 0 0 1 -1.133-1.133zm10.056 1.042h-2.181a1.056 1.056 0 0 1 0-2.111h6.629a1.056 1.056 0 1 1 0 2.11h-2.182v7.179a1.133 1.133 0 1 1 -2.266 0zm7.256-1.042a1.136 1.136 0 1 1 2.272 0v8.227a1.136 1.136 0 0 1 -2.272 0zm4.855.029a1.126 1.126 0 0 1 1.133-1.133h.253a1.16 1.16 0 0 1 1.035.59l2.744 4.462 2.759-4.475a1.112 1.112 0 0 1 1.013-.577h.253a1.126 1.126 0 0 1 1.133 1.133v8.19a1.126 1.126 0 1 1 -2.251 0v-5.143l-1.992 3.068a1.063 1.063 0 0 1 -1.886 0l-1.956-3.02v5.13a1.105 1.105 0 0 1 -1.119 1.106 1.098 1.098 0 0 1 -1.105-1.105zm12.223 7.782 3.596-8.12a1.409 1.409 0 0 1 1.323-.901h.134c.58.002 1.1.36 1.309.9l3.596 8.121c.072.143.113.299.12.458a1.077 1.077 0 0 1 -1.077 1.09c-.493 0-.932-.314-1.091-.78l-.704-1.619h-4.525l-.703 1.696c-.17.43-.587.71-1.049.704a1.049 1.049 0 0 1 -1.048-1.063c.005-.168.046-.334.12-.486zm6.383-2.857-1.407-3.405-1.408 3.405zm6.784-3.912h-2.182a1.056 1.056 0 0 1 0-2.111h6.629a1.056 1.056 0 1 1 0 2.11h-2.181v7.179a1.133 1.133 0 1 1 -2.266 0zm7.156 7.093v-8.064a1.126 1.126 0 0 1 1.133-1.133h5.714a1.02 1.02 0 0 1 1.014 1.013 1.006 1.006 0 0 1 -1.014 1h-4.595v2.11h3.934a1.02 1.02 0 0 1 1.013 1.014 1.006 1.006 0 0 1 -1.013 1h-3.934v2.166h4.673a1.02 1.02 0 0 1 1.013 1.014 1.006 1.006 0 0 1 -1.013 1h-5.792a1.126 1.126 0 0 1 -1.133-1.12z" fill-rule="nonzero"/></g></svg>