<svg width="121" height="20" viewBox="0 0 121 20" fill="none" xmlns="http://www.w3.org/2000/svg">
<path d="M80.33 0H3.67C1.64 0 0 1.65 0 3.68V16.33C0 18.36 1.64 20.01 3.67 20.01H80.33C82.36 20.01 84 18.36 84 16.33V3.68C84 1.65 82.36 0 80.33 0Z" fill="#002244"/>
<path d="M10.99 14.6C10.32 14.6 9.69 14.49 9.12 14.27C8.55 14.05 8.05 13.74 7.62 13.33C7.2 12.92 6.87 12.45 6.63 11.9C6.39 11.35 6.27 10.75 6.27 10.1C6.27 9.45 6.39 8.84 6.63 8.3C6.87 7.75 7.2 7.27 7.62 6.87C8.05 6.47 8.55 6.15 9.12 5.93C9.7 5.71 10.32 5.6 10.99 5.6C11.74 5.6 12.43 5.73 13.04 5.99C13.65 6.25 14.17 6.63 14.58 7.14L13.27 8.34C12.98 8 12.65 7.74 12.28 7.57C11.91 7.4 11.51 7.31 11.08 7.31C10.67 7.31 10.3 7.38 9.96 7.51C9.62 7.65 9.33 7.84 9.08 8.09C8.83 8.34 8.64 8.63 8.5 8.97C8.36 9.31 8.3 9.69 8.3 10.1C8.3 10.51 8.37 10.89 8.5 11.23C8.64 11.57 8.83 11.87 9.08 12.11C9.33 12.36 9.62 12.55 9.96 12.69C10.3 12.83 10.67 12.89 11.08 12.89C11.51 12.89 11.91 12.8 12.28 12.62C12.65 12.44 12.98 12.18 13.27 11.84L14.58 13.04C14.17 13.55 13.65 13.93 13.04 14.2C12.43 14.47 11.74 14.6 10.98 14.6H10.99Z" fill="white"/>
<path d="M15.93 14.45V5.74H17.95V12.81H22.29V14.45H15.93Z" fill="white"/>
<path d="M27.3 14.6C26.07 14.6 25.1 14.26 24.41 13.57C23.71 12.88 23.37 11.89 23.37 10.61V5.74H25.39V10.56C25.39 11.38 25.56 11.98 25.9 12.35C26.24 12.72 26.71 12.91 27.32 12.91C27.93 12.91 28.41 12.72 28.75 12.35C29.09 11.98 29.26 11.39 29.26 10.56V5.74H31.24V10.61C31.24 11.89 30.89 12.89 30.2 13.57C29.5 14.26 28.54 14.6 27.32 14.6H27.3Z" fill="white"/>
<path d="M33.23 5.74H37.48C38.57 5.74 39.4 5.95 39.95 6.36C40.5 6.77 40.78 7.32 40.78 8C40.78 8.46 40.67 8.85 40.44 9.19C40.21 9.52 39.91 9.79 39.51 9.97C39.11 10.15 38.67 10.25 38.17 10.25L38.41 9.73C38.96 9.73 39.44 9.82 39.86 10.01C40.28 10.19 40.61 10.46 40.85 10.81C41.09 11.16 41.21 11.59 41.21 12.09C41.21 12.84 40.92 13.42 40.33 13.84C39.74 14.26 38.87 14.47 37.73 14.47H33.23V5.74ZM35.23 12.93H37.59C38.1 12.93 38.5 12.84 38.77 12.67C39.05 12.5 39.18 12.23 39.18 11.86C39.18 11.49 39.04 11.21 38.77 11.04C38.5 10.87 38.1 10.78 37.59 10.78H35.08V9.31H37.23C37.72 9.31 38.1 9.23 38.35 9.06C38.61 8.89 38.74 8.63 38.74 8.28C38.74 7.93 38.61 7.68 38.35 7.51C38.09 7.35 37.72 7.26 37.23 7.26H35.23V12.94V12.93Z" fill="white"/>
<path d="M45.62 14.45V13.14L48.98 9.97C49.25 9.73 49.44 9.52 49.57 9.33C49.7 9.14 49.78 8.97 49.82 8.81C49.86 8.65 49.88 8.5 49.88 8.36C49.88 8.02 49.76 7.76 49.53 7.56C49.3 7.37 48.95 7.28 48.49 7.28C48.12 7.28 47.78 7.36 47.47 7.5C47.16 7.65 46.9 7.87 46.69 8.16L45.23 7.21C45.55 6.71 46.01 6.32 46.61 6.03C47.21 5.74 47.89 5.59 48.67 5.59C49.32 5.59 49.88 5.69 50.37 5.9C50.86 6.11 51.24 6.4 51.51 6.79C51.78 7.18 51.91 7.63 51.91 8.16C51.91 8.44 51.87 8.71 51.79 9C51.71 9.28 51.57 9.58 51.36 9.88C51.15 10.19 50.85 10.53 50.44 10.91L47.66 13.52L47.27 12.8H52.19V14.44H45.61L45.62 14.45Z" fill="white"/>
<path d="M56.76 14.6C56.05 14.6 55.41 14.42 54.85 14.07C54.29 13.72 53.85 13.21 53.52 12.54C53.19 11.87 53.03 11.06 53.03 10.1C53.03 9.14 53.19 8.32 53.52 7.66C53.85 6.99 54.29 6.48 54.85 6.13C55.41 5.78 56.04 5.6 56.76 5.6C57.48 5.6 58.12 5.78 58.68 6.13C59.24 6.48 59.68 6.99 60.01 7.66C60.33 8.33 60.5 9.14 60.5 10.1C60.5 11.06 60.34 11.88 60.01 12.54C59.68 13.21 59.24 13.72 58.68 14.07C58.12 14.42 57.48 14.6 56.76 14.6ZM56.76 12.91C57.1 12.91 57.39 12.81 57.65 12.62C57.9 12.42 58.1 12.12 58.24 11.7C58.38 11.28 58.46 10.75 58.46 10.1C58.46 9.45 58.39 8.91 58.24 8.5C58.09 8.09 57.9 7.78 57.65 7.58C57.4 7.38 57.1 7.29 56.76 7.29C56.42 7.29 56.15 7.39 55.89 7.58C55.63 7.78 55.43 8.08 55.28 8.5C55.13 8.92 55.06 9.45 55.06 10.1C55.06 10.75 55.14 11.29 55.28 11.7C55.43 12.11 55.63 12.42 55.89 12.62C56.15 12.82 56.44 12.91 56.76 12.91Z" fill="white"/>
<path d="M65.19 14.6C64.48 14.6 63.84 14.42 63.28 14.07C62.72 13.72 62.28 13.21 61.95 12.54C61.62 11.87 61.46 11.06 61.46 10.1C61.46 9.14 61.62 8.32 61.95 7.66C62.28 6.99 62.72 6.48 63.28 6.13C63.84 5.78 64.47 5.6 65.19 5.6C65.91 5.6 66.55 5.78 67.11 6.13C67.67 6.48 68.11 6.99 68.44 7.66C68.76 8.33 68.93 9.14 68.93 10.1C68.93 11.06 68.77 11.88 68.44 12.54C68.11 13.21 67.67 13.72 67.11 14.07C66.55 14.42 65.91 14.6 65.19 14.6ZM65.19 12.91C65.53 12.91 65.82 12.81 66.08 12.62C66.33 12.42 66.53 12.12 66.67 11.7C66.81 11.28 66.89 10.75 66.89 10.1C66.89 9.45 66.82 8.91 66.67 8.5C66.52 8.09 66.33 7.78 66.08 7.58C65.83 7.38 65.53 7.29 65.19 7.29C64.85 7.29 64.58 7.39 64.32 7.58C64.06 7.78 63.86 8.08 63.71 8.5C63.56 8.92 63.49 9.45 63.49 10.1C63.49 10.75 63.57 11.29 63.71 11.7C63.86 12.11 64.06 12.42 64.32 12.62C64.58 12.82 64.87 12.91 65.19 12.91Z" fill="white"/>
<path d="M73.63 14.6C72.92 14.6 72.28 14.42 71.72 14.07C71.16 13.72 70.72 13.21 70.39 12.54C70.06 11.87 69.9 11.06 69.9 10.1C69.9 9.14 70.06 8.32 70.39 7.66C70.72 6.99 71.16 6.48 71.72 6.13C72.28 5.78 72.91 5.6 73.63 5.6C74.35 5.6 74.99 5.78 75.55 6.13C76.11 6.48 76.55 6.99 76.88 7.66C77.2 8.33 77.37 9.14 77.37 10.1C77.37 11.06 77.21 11.88 76.88 12.54C76.55 13.21 76.11 13.72 75.55 14.07C74.99 14.42 74.35 14.6 73.63 14.6ZM73.63 12.91C73.97 12.91 74.26 12.81 74.52 12.62C74.77 12.42 74.97 12.12 75.11 11.7C75.25 11.28 75.33 10.75 75.33 10.1C75.33 9.45 75.26 8.91 75.11 8.5C74.96 8.09 74.77 7.78 74.52 7.58C74.27 7.38 73.97 7.29 73.63 7.29C73.29 7.29 73.02 7.39 72.76 7.58C72.5 7.78 72.3 8.08 72.15 8.5C72 8.92 71.93 9.45 71.93 10.1C71.93 10.75 72.01 11.29 72.15 11.7C72.3 12.11 72.5 12.42 72.76 12.62C73.02 12.82 73.31 12.91 73.63 12.91Z" fill="white"/>
<path d="M118 18H91C89.35 18 88 16.65 88 15V5C88 3.35 89.35 2 91 2H118C119.65 2 121 3.35 121 5V15C121 16.65 119.65 18 118 18ZM91 3C89.9 3 89 3.9 89 5V15C89 16.1 89.9 17 91 17H118C119.1 17 120 16.1 120 15V5C120 3.9 119.1 3 118 3H91Z" fill="#0800B9"/>
<path d="M96.81 13.08C96.36 13.08 95.95 12.97 95.59 12.76C95.23 12.55 94.94 12.27 94.73 11.91C94.52 11.55 94.42 11.15 94.42 10.7C94.42 10.25 94.52 9.87 94.73 9.51C94.93 9.15 95.21 8.86 95.56 8.65C95.91 8.43 96.3 8.33 96.72 8.33C97.14 8.33 97.52 8.44 97.85 8.65C98.18 8.86 98.44 9.15 98.63 9.51C98.83 9.87 98.93 10.28 98.93 10.73V10.98H95.32C95.37 11.23 95.46 11.46 95.6 11.66C95.74 11.86 95.92 12.01 96.14 12.13C96.36 12.24 96.6 12.3 96.86 12.3C97.08 12.3 97.3 12.27 97.5 12.2C97.71 12.13 97.88 12.03 98.02 11.89L98.6 12.46C98.33 12.66 98.05 12.82 97.76 12.92C97.48 13.02 97.17 13.06 96.82 13.06L96.81 13.08ZM95.31 10.33H98.02C97.98 10.09 97.9 9.88 97.77 9.7C97.64 9.51 97.49 9.37 97.29 9.27C97.1 9.16 96.9 9.11 96.68 9.11C96.46 9.11 96.24 9.16 96.05 9.26C95.86 9.36 95.7 9.51 95.56 9.69C95.43 9.87 95.35 10.08 95.31 10.33ZM98.93 13L100.71 10.65L99 8.42H100.05L101.23 9.99L102.41 8.42H103.43L101.74 10.64L103.54 13H102.49L101.22 11.31L99.95 13H98.93ZM105.97 13.08C105.53 13.08 105.19 12.98 104.95 12.77C104.72 12.56 104.6 12.26 104.6 11.86V9.17H103.63V8.41H104.6V7.24L105.49 7.02V8.41H106.84V9.17H105.49V11.65C105.49 11.88 105.54 12.05 105.64 12.15C105.75 12.25 105.92 12.29 106.16 12.29C106.29 12.29 106.4 12.29 106.49 12.26C106.59 12.24 106.7 12.21 106.81 12.18V12.94C106.69 12.98 106.55 13.01 106.39 13.03C106.23 13.05 106.09 13.07 105.96 13.07L105.97 13.08ZM107.5 8.42H108.4V9.01C108.54 8.79 108.72 8.63 108.93 8.51C109.15 8.38 109.39 8.32 109.66 8.32C109.85 8.32 110 8.35 110.12 8.4V9.21C110.04 9.17 109.95 9.15 109.86 9.14C109.77 9.12 109.68 9.11 109.59 9.11C109.33 9.11 109.09 9.18 108.89 9.33C108.69 9.47 108.52 9.67 108.4 9.94V13.01H107.5V8.42ZM112.11 13.08C111.78 13.08 111.49 13.02 111.24 12.91C110.99 12.79 110.79 12.63 110.65 12.42C110.51 12.21 110.43 11.97 110.43 11.69C110.43 11.26 110.6 10.92 110.92 10.67C111.25 10.42 111.7 10.29 112.28 10.29C112.73 10.29 113.15 10.38 113.53 10.55V10.06C113.53 9.73 113.43 9.48 113.24 9.32C113.05 9.16 112.78 9.08 112.41 9.08C112.2 9.08 111.98 9.11 111.75 9.18C111.52 9.24 111.27 9.34 110.98 9.47L110.65 8.79C111 8.63 111.32 8.51 111.62 8.44C111.92 8.36 112.22 8.32 112.53 8.32C113.12 8.32 113.58 8.46 113.91 8.74C114.24 9.02 114.41 9.42 114.41 9.95V12.99H113.53V12.59C113.33 12.75 113.11 12.87 112.87 12.95C112.63 13.03 112.38 13.07 112.11 13.07V13.08ZM111.29 11.67C111.29 11.89 111.38 12.07 111.57 12.21C111.76 12.34 112.01 12.41 112.32 12.41C112.56 12.41 112.78 12.38 112.98 12.31C113.18 12.24 113.37 12.13 113.54 11.98V11.21C113.37 11.11 113.18 11.04 112.99 10.99C112.8 10.94 112.59 10.92 112.36 10.92C112.03 10.92 111.77 10.99 111.58 11.13C111.39 11.26 111.3 11.44 111.3 11.68L111.29 11.67Z" fill="#0800B9"/>
</svg>
