<svg width="114" height="20" viewBox="0 0 114 20" fill="none" xmlns="http://www.w3.org/2000/svg">
<path d="M73.7 0H3C1.34315 0 0 1.34315 0 3V17C0 18.6569 1.34315 20 3 20H73.7C75.3568 20 76.7 18.6569 76.7 17V3C76.7 1.34315 75.3568 0 73.7 0Z" fill="#28334A"/>
<path d="M6 14.13V5.73H9.64C10.39 5.73 11.04 5.85 11.58 6.1C12.12 6.34 12.54 6.69 12.84 7.14C13.14 7.6 13.28 8.14 13.28 8.77C13.28 9.4 13.13 9.93 12.84 10.39C12.54 10.85 12.12 11.2 11.58 11.45C11.04 11.69 10.39 11.81 9.64 11.81H7.08L7.94 10.93V14.12H6V14.13ZM7.94 11.15L7.08 10.23H9.53C10.13 10.23 10.58 10.1 10.87 9.85C11.17 9.59 11.31 9.24 11.31 8.78C11.31 8.32 11.16 7.96 10.87 7.7C10.57 7.44 10.13 7.32 9.53 7.32H7.08L7.94 6.4V11.16V11.15Z" fill="white"/>
<path d="M14.67 14.13V5.73H16.61V12.55H20.82V14.13H14.66H14.67Z" fill="white"/>
<path d="M20.86 14.13L24.6 5.73H26.52L30.28 14.13H28.24L25.17 6.71H25.94L22.86 14.13H20.86ZM22.73 12.33L23.25 10.85H27.57L28.1 12.33H22.73Z" fill="white"/>
<path d="M32.47 14.13V7.31H29.78V5.73H37.1V7.31H34.41V14.13H32.47Z" fill="white"/>
<path d="M38.14 14.13V5.73H40.08V14.13H38.14Z" fill="white"/>
<path d="M42.08 14.13V5.73H43.69L48.65 11.78H47.87V5.73H49.79V14.13H48.19L43.22 8.08H44V14.13H42.08Z" fill="white"/>
<path d="M55.51 14.27C54.32 14.27 53.39 13.94 52.71 13.27C52.03 12.6 51.7 11.66 51.7 10.43V5.73H53.64V10.36C53.64 11.16 53.8 11.74 54.13 12.09C54.46 12.44 54.92 12.62 55.51 12.62C56.1 12.62 56.56 12.44 56.89 12.09C57.22 11.74 57.38 11.16 57.38 10.36V5.73H59.3V10.43C59.3 11.66 58.96 12.61 58.29 13.27C57.62 13.93 56.69 14.27 55.49 14.27H55.51Z" fill="white"/>
<path d="M61.23 14.13V5.73H62.84L66.42 11.66H65.57L69.09 5.73H70.69L70.71 14.13H68.89V8.53H69.21L66.4 13.25H65.52L62.65 8.53H63.06V14.13H61.23Z" fill="white"/>
<path d="M110.7 18H83.7C82.05 18 80.7 16.65 80.7 15V5C80.7 3.35 82.05 2 83.7 2H110.7C112.35 2 113.7 3.35 113.7 5V15C113.7 16.65 112.35 18 110.7 18ZM83.7 3C82.6 3 81.7 3.9 81.7 5V15C81.7 16.1 82.6 17 83.7 17H110.7C111.8 17 112.7 16.1 112.7 15V5C112.7 3.9 111.8 3 110.7 3H83.7Z" fill="#0800B9"/>
<path d="M89.51 13.08C89.06 13.08 88.65 12.97 88.29 12.76C87.93 12.55 87.64 12.27 87.43 11.91C87.22 11.55 87.11 11.15 87.11 10.7C87.11 10.25 87.21 9.87 87.42 9.51C87.62 9.15 87.9 8.86 88.25 8.65C88.6 8.43 88.99 8.33 89.41 8.33C89.83 8.33 90.21 8.44 90.54 8.65C90.87 8.86 91.13 9.15 91.32 9.51C91.52 9.87 91.62 10.28 91.62 10.73V10.98H88.01C88.06 11.23 88.15 11.46 88.29 11.66C88.43 11.86 88.61 12.01 88.83 12.13C89.05 12.24 89.29 12.3 89.55 12.3C89.77 12.3 89.98 12.27 90.19 12.2C90.4 12.13 90.57 12.03 90.71 11.89L91.29 12.46C91.02 12.66 90.74 12.82 90.45 12.92C90.17 13.02 89.86 13.06 89.51 13.06V13.08ZM88.01 10.33H90.72C90.68 10.09 90.6 9.88 90.47 9.7C90.34 9.51 90.18 9.37 89.99 9.27C89.8 9.16 89.6 9.11 89.38 9.11C89.16 9.11 88.94 9.16 88.75 9.26C88.56 9.36 88.4 9.51 88.26 9.69C88.13 9.87 88.05 10.08 88.01 10.33ZM91.63 13L93.41 10.65L91.7 8.42H92.75L93.93 9.99L95.11 8.42H96.13L94.44 10.64L96.24 13H95.19L93.92 11.31L92.65 13H91.63ZM98.67 13.08C98.23 13.08 97.89 12.98 97.65 12.77C97.42 12.56 97.3 12.26 97.3 11.86V9.17H96.33V8.41H97.3V7.24L98.19 7.02V8.41H99.54V9.17H98.19V11.65C98.19 11.88 98.24 12.05 98.34 12.15C98.45 12.25 98.62 12.29 98.86 12.29C98.99 12.29 99.1 12.29 99.19 12.26C99.29 12.24 99.4 12.21 99.51 12.18V12.94C99.39 12.98 99.25 13.01 99.09 13.03C98.93 13.05 98.79 13.07 98.66 13.07L98.67 13.08ZM100.2 8.42H101.1V9.01C101.24 8.79 101.42 8.63 101.63 8.51C101.85 8.38 102.09 8.32 102.36 8.32C102.55 8.32 102.7 8.35 102.82 8.4V9.21C102.74 9.17 102.65 9.15 102.56 9.14C102.47 9.12 102.38 9.11 102.29 9.11C102.03 9.11 101.79 9.18 101.59 9.33C101.39 9.47 101.22 9.67 101.1 9.94V13.01H100.2V8.42ZM104.81 13.08C104.48 13.08 104.19 13.02 103.94 12.91C103.69 12.79 103.49 12.63 103.35 12.42C103.21 12.21 103.13 11.97 103.13 11.69C103.13 11.26 103.3 10.92 103.63 10.67C103.96 10.42 104.41 10.29 104.99 10.29C105.44 10.29 105.86 10.38 106.24 10.55V10.06C106.24 9.73 106.14 9.48 105.95 9.32C105.76 9.16 105.49 9.08 105.12 9.08C104.91 9.08 104.69 9.11 104.46 9.18C104.23 9.24 103.98 9.34 103.7 9.47L103.37 8.79C103.72 8.63 104.04 8.51 104.34 8.44C104.64 8.36 104.94 8.32 105.25 8.32C105.84 8.32 106.3 8.46 106.63 8.74C106.96 9.02 107.13 9.42 107.13 9.95V12.99H106.25V12.59C106.05 12.75 105.83 12.87 105.59 12.95C105.35 13.03 105.1 13.07 104.83 13.07L104.81 13.08ZM103.99 11.67C103.99 11.89 104.08 12.07 104.27 12.21C104.46 12.34 104.71 12.41 105.02 12.41C105.26 12.41 105.48 12.38 105.68 12.31C105.88 12.24 106.07 12.13 106.24 11.98V11.21C106.07 11.11 105.88 11.04 105.69 10.99C105.5 10.94 105.29 10.92 105.06 10.92C104.73 10.92 104.47 10.99 104.28 11.13C104.09 11.26 104 11.44 104 11.68L103.99 11.67Z" fill="#0800B9"/>
</svg>
