<svg xmlns="http://www.w3.org/2000/svg" width="24" height="20" fill="none"><path fill="#fff" d="M17.282 11.661h1.53c.044 0 .146-.014.19-.014a.68.68 0 0 0 .539-.685.71.71 0 0 0-.54-.685c-.043-.015-.13-.015-.189-.015h-1.53z"/><path fill="#fff" d="M18.637 2a2.65 2.65 0 0 0-2.652 2.652v2.754h3.745c.088 0 .19 0 .263.015.845.043 1.471.48 1.471 1.238 0 .598-.422 1.108-1.21 1.21v.029c.86.058 1.516.54 1.516 1.282 0 .802-.728 1.326-1.69 1.326h-4.11v5.392h3.891a2.65 2.65 0 0 0 2.653-2.652V2z"/><path fill="#fff" d="M19.351 8.834a.62.62 0 0 0-.539-.626c-.029 0-.102-.015-.145-.015h-1.385v1.282h1.385c.043 0 .13 0 .145-.014a.62.62 0 0 0 .54-.627M3.978 2a2.65 2.65 0 0 0-2.652 2.652v6.543c.743.364 1.516.597 2.288.597.918 0 1.413-.553 1.413-1.311V7.39h2.274v3.075c0 1.195-.744 2.172-3.264 2.172-1.53 0-2.725-.336-2.725-.336v5.582h3.89a2.65 2.65 0 0 0 2.652-2.653V2zM11.308 2a2.65 2.65 0 0 0-2.652 2.652V8.12c.67-.568 1.836-.932 3.716-.845 1.006.044 2.084.32 2.084.32v1.123a5 5 0 0 0-2.011-.583c-1.428-.102-2.288.597-2.288 1.821 0 1.239.86 1.938 2.288 1.822.83-.059 1.472-.32 2.01-.583v1.122s-1.063.277-2.083.32c-1.88.088-3.045-.276-3.716-.845v6.12h3.891a2.65 2.65 0 0 0 2.652-2.651V2z"/></svg>