<svg xmlns="http://www.w3.org/2000/svg" width="176" height="16" viewBox="0 0 176 16" fill="none"><path fill="#fff" d="M174.893 9.577c-.848 2.204-3.774 2.886-6.933 2.886s-5.187-.685-4.715-2.886h4.015c-.104.586.252.963 1.44.963 1.187 0 1.953-.385 2.176-.964.553-1.44-7.393-.033-6.128-3.327.708-1.845 3.496-2.71 6.641-2.71s4.93.68 4.554 2.708h-3.94c.063-.542-.104-.955-1.287-.955-1.183 0-1.819.42-2.026.957-.565 1.47 7.466.04 6.203 3.328ZM104.6 12.213h-4.015l3.232-8.42h4.016l-3.233 8.42ZM134.983 12.213h-4.016l3.232-8.42h4.016l-3.232 8.42ZM160.857 12.213h-9.764l3.234-8.42h9.763l-.621 1.617h-5.748l-.651 1.697h4.78l-.619 1.614h-4.782l-.654 1.707h5.747l-.685 1.785ZM81.046 12.213h-3.248l-2.725-4.972-1.91 4.972h-3.238l3.233-8.42h3.772l2.405 4.427 1.699-4.426h3.248l-3.236 8.42ZM148.602 12.213h-3.248l-2.726-4.972-1.909 4.972h-3.242l3.233-8.42h3.772l2.406 4.427 1.698-4.426h3.248l-3.232 8.42ZM32.273 9.394c-1.1 2.864-3.81 3.1-5.742 3.1a12.977 12.977 0 0 1-2.792-.28l.686-1.787c1.84.214 3.413.054 4.03-1.55l1.952-5.084h4.016l-2.15 5.6M55.031 3.794h-6.245l-3.232 8.42h4.016l1.173-3.057h2.232c3.712 0 5.71-.992 6.359-2.68.648-1.687-.587-2.684-4.302-2.684m.285 2.684a1.892 1.892 0 0 1-1.724 1.064h-2.23l.819-2.133h2.234c.731 0 1.137.454.901 1.066M116.572 3.794h-6.246l-3.233 8.42h4.015l1.174-3.057h1.213l.794 3.056h4.384L117.6 8.85c1.779-.413 2.836-1.234 3.273-2.373.648-1.688-.586-2.684-4.302-2.684m.285 2.684a1.887 1.887 0 0 1-1.724 1.064h-2.23l.819-2.133h2.233c.732 0 1.138.454.902 1.066M125.369 10.429l2.554-6.635h-4.017l-3.234 8.42h9.12l.685-1.785h-5.108ZM43.731 3.794H40.14a1.741 1.741 0 0 0-1.236.625l-6.727 7.795h3.317l1.337-1.658h3.626l.064 1.658h4.016l-.805-8.42m-5.596 5.144 2.162-2.692.1 2.692h-2.262ZM68.098 3.794h-3.592a1.739 1.739 0 0 0-1.235.625l-6.73 7.795h3.318l1.337-1.658h3.627l.064 1.658h4.016l-.805-8.42Zm-5.596 5.144 2.162-2.692.1 2.692h-2.262ZM98.76 3.794h-3.592a1.742 1.742 0 0 0-1.234.625l-6.73 7.795h3.319l1.336-1.657h3.626l.064 1.657h4.015l-.804-8.42m-5.595 5.144 2.16-2.691.1 2.691h-2.26ZM8.123 12.955h.614l-.027-.732-.587.732Z"/><path fill="#fff" d="M15.974 8.705a8.083 8.083 0 0 0-.04-1.77c0-.01-.011-.01-.014 0a4.784 4.784 0 0 1-1.767 2.699.01.01 0 0 1-.01-.01 5.84 5.84 0 0 0 1.617-3.58 7.923 7.923 0 0 0-.81-2.013c-.005-.007-.014-.005-.012.005a5.49 5.49 0 0 1-1.393 4.443.01.01 0 0 1-.007-.002.01.01 0 0 1-.004-.006.01.01 0 0 1 0-.004 6.23 6.23 0 0 0 .903-5.219 8 8 0 0 0-12.87 0 6.232 6.232 0 0 0 .902 5.222.01.01 0 0 1-.014.007 5.487 5.487 0 0 1-1.39-4.441c.001-.01-.007-.012-.012-.005a7.921 7.921 0 0 0-.81 2.012 5.843 5.843 0 0 0 1.616 3.58.01.01 0 0 1-.015.008 4.782 4.782 0 0 1-1.76-2.696c0-.01-.013-.01-.014 0a8.09 8.09 0 0 0-.039 1.77c.289.82.795 1.548 1.463 2.104.011.01 0 .023-.01.017A4.339 4.339 0 0 1 .18 9.64c-.004-.008-.013-.005-.01.004a8 8 0 0 0 15.657 0c0-.01-.006-.012-.011-.004a4.336 4.336 0 0 1-1.304 1.187c-.012.006-.021-.008-.01-.017a4.817 4.817 0 0 0 1.464-2.104M5.03 13.921a3.537 3.537 0 0 1-.76-.075l.187-.486c.5.058.928.015 1.095-.421l.53-1.381h1.09l-.583 1.52a1.464 1.464 0 0 1-1.56.843Zm3.733-.075-.017-.452h-.985l-.363.452h-.9l1.827-2.117a.468.468 0 0 1 .335-.171h.976l.218 2.288h-1.09Zm3.86 0h-2.475l.877-2.288h1.09l-.693 1.803h1.387l-.186.485Zm-1.007-4.832c-1.636 1.592-4.08.575-3.83-1.38.19-1.507 2.038-3.009 3.437-3.823a.01.01 0 0 0 .003-.014 1.609 1.609 0 0 0-3.383-.823l-4.022.373a.013.013 0 0 0 0 .025l4.312.25c.765.043 1.014.737.277 1.295C5.67 6.993 5.182 9.19 5.796 10.93v.008a.011.011 0 0 1-.02.001 3.538 3.538 0 0 1-.543-1.25 5.149 5.149 0 1 1 6.384-.677"/></svg>
