<svg width="220" height="24" viewBox="0 0 220 24" fill="none" xmlns="http://www.w3.org/2000/svg">
<path d="M20.0634 21.6873C19.7163 21.8753 17.2109 24 12.2212 24C8.02153 24 3.53425 21.8676 2.1315 21.9088C1.71782 21.8881 1.30483 21.9612 0.923383 22.1226C0.335626 22.3681 -0.0479017 21.9807 0.00483344 21.6461C0.0556509 21.3163 0.541773 20.7026 0.886948 20.2558C1.3165 19.7045 1.98672 19.0956 2.69528 18.6086C4.68579 17.2537 6.53248 17.2279 7.35227 17.3717C7.47692 17.3937 7.83168 17.4081 8.39355 17.9594C9.75316 19.2586 12.202 20.8982 14.0822 21.2319C14.2826 21.2587 15.1379 21.3354 15.1504 21.0977C15.1571 20.9538 14.9212 20.8982 14.8416 20.881C11.8165 20.2002 10.0763 18.7217 8.40794 17.2039C7.0512 15.9737 6.01951 14.4454 5.24383 12.9506C4.62826 11.7645 3.77012 9.42209 2.20341 8.63586C1.85823 8.46711 1.84673 7.82949 2.57255 7.66074C3.08552 7.53801 6.17101 7.25133 9.84713 9.23512C11.293 10.0146 11.7609 10.8833 11.8117 11.1C11.8117 11.1 11.9009 11.1461 11.923 11.5238C12.1176 16.8108 14.4485 18.5875 15.5742 19.4034C16.0306 19.7543 16.6011 19.9058 16.7554 19.7476C16.8225 19.6748 16.6404 19.507 16.5196 19.4245C13.2701 17.2921 12.643 14.501 12.4676 11.5142C12.2988 8.5419 13.552 5.95692 14.3469 3.8456C14.4581 3.54549 14.9222 2.19067 14.5722 1.03529C14.3402 0.252896 14.5866 0.0697613 15.0152 0.00456151C15.4514 -0.0548854 16.1149 0.84257 16.3479 1.12159C16.5215 1.33061 17.115 2.00754 17.9952 3.75738C19.7259 7.1938 19.7422 10.9984 19.7402 11.4375C19.7086 13.918 19.2512 14.0647 18.069 14.64C17.0881 15.0235 16.5339 15.8098 16.5339 16.5768C16.5339 17.365 17.1188 17.945 18.1831 18.3947C18.255 18.4139 18.3806 18.4599 18.4362 18.4695C18.9061 18.5875 19.2963 18.481 19.2963 18.3036C19.2963 18.1416 18.8313 18.0841 18.8313 18.0841C17.7948 17.829 17.069 17.2442 17.069 16.5749C17.069 15.6707 18.3442 14.7483 19.979 14.7483H20.1544C21.7796 14.7483 23.0539 15.6631 23.0539 16.5749C23.0539 17.2442 22.3386 17.829 21.2993 18.0841C21.2993 18.0841 20.8342 18.1416 20.8342 18.3008C20.8419 18.4791 21.2245 18.5875 21.6953 18.4666C21.7547 18.4599 21.8736 18.4139 21.9503 18.3947C23.0184 17.9374 23.5966 17.3592 23.5966 16.5749C23.5966 15.8078 23.0501 15.0226 22.0615 14.64C20.8822 14.0647 20.4296 13.9113 20.3932 11.4375C20.3884 10.9984 20.4076 7.19188 22.1411 3.75738C23.0184 2.00754 23.6043 1.33157 23.7826 1.12159C24.0118 0.84257 24.6714 -0.0548853 25.1173 0.00264389C25.5516 0.0697613 25.7904 0.251937 25.5564 1.03529C25.2113 2.19067 25.6677 3.54549 25.7875 3.84368C26.5737 5.95692 27.8365 8.53902 27.6658 11.5114C27.4894 14.501 26.8604 17.2873 23.611 19.4216C23.4835 19.507 23.3099 19.6728 23.3799 19.7476C23.5314 19.9058 24.1029 19.7543 24.5564 19.4025C25.682 18.5875 28.0101 16.8108 28.2057 11.521C28.2344 11.1461 28.3188 11.0924 28.3188 11.0924C28.3744 10.8814 28.8366 10.0118 30.2844 9.23512C33.9643 7.24461 37.0498 7.53801 37.558 7.65595C38.2867 7.82854 38.2723 8.46711 37.93 8.63586C36.3604 9.42209 35.4994 11.7616 34.8905 12.9486C34.1139 14.4444 33.0793 15.9737 31.7274 17.2039C30.0619 18.7217 28.3121 20.2002 25.2908 20.881C25.2122 20.8982 24.9706 20.951 24.9802 21.0977C24.9927 21.3354 25.8479 21.2568 26.0531 21.2319C27.9305 20.8982 30.3726 19.2567 31.7389 17.9566C32.3037 17.4081 32.6575 17.3937 32.7859 17.3717C33.5981 17.2279 35.4447 17.2537 37.4381 18.6086C38.1515 19.0928 38.8188 19.7045 39.2388 20.2501C39.5907 20.7026 40.0701 21.3163 40.1257 21.6461C40.1784 21.9817 39.7978 22.3652 39.212 22.1226C38.8306 21.9608 38.4175 21.8877 38.0038 21.9088C36.5963 21.8657 32.1081 24 27.9075 24C22.9264 24 20.4191 21.8753 20.0634 21.6873Z" fill="white"/>
<path d="M58.9857 7.35105H57.1735L51.7178 19.2222L46.1758 7.35009H42.1872L42.7529 7.93977C43.5199 8.72888 43.8085 9.02515 44.3004 10.1278L50.5193 23.4842H51.1713L57.442 9.75194C57.908 8.75572 58.1659 8.34918 58.8045 7.56966L58.9857 7.35009V7.35105ZM62.5046 12.0167L62.5966 11.8249H58.8045L58.8965 12.0167C59.3347 12.9439 59.3347 13.5383 59.3328 14.2287V20.8906C59.3347 21.8657 59.3347 22.1591 58.8965 23.0575L58.8026 23.2493H62.5937L62.5046 23.0594C62.0616 22.1006 62.0635 21.533 62.0664 20.811V14.2363C62.0635 13.5431 62.0616 12.9458 62.5046 12.0167ZM60.678 10.4356C61.5525 10.4356 62.3195 9.74714 62.3195 8.96283C62.3195 8.16893 61.5525 7.46803 60.678 7.46803C59.8266 7.46803 59.0797 8.16797 59.0797 8.96283C59.0797 9.73276 59.841 10.4356 60.678 10.4356ZM67.687 15.3936C68.1309 13.7636 69.341 12.7387 70.9566 12.6399C71.6939 12.5948 73.4821 12.7454 73.6825 15.3936H67.687ZM76.9204 16.5346L76.9051 16.3879C76.4784 12.1499 73.3038 11.5171 71.4523 11.5171C71.1349 11.5171 70.8329 11.5363 70.5491 11.5651C67.779 11.8776 66.2507 13.1912 65.4548 14.2431C64.5296 15.4684 64.0857 17.0495 64.3052 18.3708C64.4788 19.2951 65.0186 21.0257 66.6994 22.2626C67.5527 22.8734 69.2326 23.5858 71.1445 23.5858C72.8052 23.5858 74.3498 23.0613 75.7286 22.0287L75.8437 21.9424L75.1869 21.2079L75.0824 21.2971C74.2415 22.0383 72.7563 22.3729 71.6575 22.3729L71.5271 22.371C70.4225 22.3167 69.3885 21.8121 68.6659 20.9749C68.0053 20.2146 67.2632 18.8329 67.4444 16.5346H76.9204ZM83.3292 22.4525H83.3215C82.4758 22.4381 81.0539 22.137 81.0539 20.2961V12.9678H85.9832V11.8239H81.0539V9.75673L77.9857 10.4643L78.094 10.7875C78.2263 11.1863 78.2551 11.2765 78.2819 11.8239H77.582V12.9678H78.3155V20.0056C78.3155 23.1332 81.4298 23.4343 82.3847 23.4516H82.3867C83.4615 23.4516 84.6361 23.3749 86.2028 22.3662L86.6199 20.8254L86.3878 20.7007C85.2142 21.9788 84.4088 22.4525 83.3292 22.4525ZM99.6703 20.7026V15.2997C99.6703 13.6658 99.4527 13.2689 98.5946 12.5488C97.5514 11.6629 95.6299 11.6178 95.2559 11.6178L95.0469 11.6226C93.391 11.7309 91.9538 12.4664 90.551 13.9334C90.5606 12.871 90.4714 12.2842 90.2404 11.8891L90.202 11.8239H86.9305L87.0705 12.0339C87.4195 12.5565 87.8299 13.4626 87.8126 14.8644V20.903C87.8155 21.8657 87.8174 22.1543 87.3764 23.0565L87.2853 23.2483H91.0745L90.9882 23.0594C90.5395 22.091 90.5395 21.1609 90.5414 20.7026V17.1003C90.5414 15.0763 92.6844 12.9045 94.7123 12.8815L94.8753 12.8758C96.652 12.8758 96.9339 13.733 96.9339 16.4886V20.7026C96.9339 21.8264 96.9339 22.0968 96.4976 23.0613L96.4132 23.2493H100.157L100.078 23.0613C99.6656 22.0987 99.6675 21.1677 99.6703 20.7026ZM110.247 16.3064V17.7984C110.247 19.3651 109.561 20.3872 108.986 20.9701C108.309 21.6538 107.424 22.0795 106.641 22.0795C105.617 22.0335 104.718 21.5167 104.356 20.7659C104.017 20.0631 104.159 19.2203 104.761 18.3976C105.116 17.8866 106.169 17.2566 107.714 16.9987C108.097 16.9364 109.085 16.7475 110.247 16.3064ZM112.979 20.1494L112.981 16.1252C112.988 15.4991 113 14.7925 112.745 14.1759C111.855 11.7425 108.244 11.5526 107.16 11.5526C106.393 11.5526 105.635 11.6274 104.974 11.7693C104.017 11.9783 103.468 12.2171 102.444 12.7128L102.382 12.7435L102.143 14.4089L102.368 14.5297C104.014 13.0349 105.689 12.6955 106.805 12.6744L107.104 12.6687C108.408 12.6687 109.403 12.9678 109.908 13.5067C110.146 13.7694 110.269 14.082 110.247 14.3926C110.199 15.6947 108.497 15.8817 106.851 16.0629C106.381 16.1128 105.913 16.1664 105.494 16.2432C102.659 16.7628 101.22 17.9594 101.22 19.8052C101.22 21.4639 102.783 23.326 105.67 23.511C105.752 23.5168 105.838 23.5168 105.926 23.5168C106.964 23.5168 108.553 23.1026 110.298 21.1581C110.355 22.1466 110.438 22.6759 110.747 23.1841L110.787 23.2493H114.157L114.01 23.0374C113.103 21.7449 112.979 20.8877 112.979 20.1494ZM133.265 20.6767V15.2421C133.265 12.7818 132.393 11.5833 130.594 11.5833C130.51 11.5833 130.424 11.5881 130.341 11.591C128.68 11.682 127.085 12.5565 125.816 14.0599C125.462 12.4136 124.611 11.613 123.226 11.613C123.132 11.6124 123.039 11.6156 122.946 11.6226C121.355 11.7012 119.943 12.4376 118.52 13.9334C118.529 12.8614 118.435 12.2765 118.207 11.8891L118.166 11.8239H114.895L115.034 12.0339C115.533 12.7847 115.789 13.7473 115.775 14.8644V20.9126C115.775 21.8705 115.775 22.1591 115.343 23.0565L115.247 23.2483H119.034L118.947 23.0594C118.51 22.0987 118.513 21.206 118.516 20.7026V17.1003C118.516 15.6046 119.666 13.9612 121.186 13.2756C121.748 13.011 122.18 13.0397 122.503 13.3696C122.965 13.8394 123.202 14.9123 123.175 16.4618V20.8589C123.178 21.8484 123.178 22.1466 122.739 23.0258L122.643 23.2205H126.432L126.346 23.0297C125.896 22.0651 125.901 21.1724 125.904 20.6767V17.1003C125.904 15.5816 127.054 13.9209 128.582 13.242C129.141 12.9793 129.575 13.0062 129.898 13.3379C130.355 13.8049 130.597 14.8816 130.564 16.4282V20.6758C130.564 21.7736 130.564 22.067 130.129 23.0297L130.045 23.2205H133.788L133.708 23.0326C133.266 22.0124 133.265 21.0085 133.265 20.6767ZM146.859 16.0936H142.538L144.698 11.3819L146.859 16.0936ZM152.089 20.4984L145.872 7.14299H145.219L138.906 20.8781C138.462 21.8849 138.222 22.2454 137.551 23.0613L137.375 23.2809H139.217L141.873 17.4685H147.531L150.214 23.2809H154.196L153.528 22.5685C152.844 21.8465 152.56 21.5454 152.089 20.4974V20.4984ZM156.377 10.4356C157.252 10.4356 158.019 9.74714 158.019 8.96283C158.019 8.16893 157.252 7.46803 156.377 7.46803C155.522 7.46803 154.772 8.16797 154.772 8.96283C154.772 9.73276 155.536 10.4356 156.377 10.4356ZM158.195 12.0148L158.284 11.8239H154.5L154.589 12.0167C155.03 12.9439 155.028 13.5383 155.025 14.2268V20.8906C155.028 21.8657 155.028 22.1591 154.589 23.0575L154.498 23.2493H158.282L158.196 23.0613C157.754 22.0843 157.754 21.5071 157.757 20.6767V14.2718C157.754 13.569 157.754 12.963 158.195 12.0148ZM170.069 11.6245C169.559 11.5355 169.042 11.4897 168.524 11.4874C165.865 11.4874 164.361 12.7818 163.438 13.8921C163.441 12.8691 163.348 12.2909 163.127 11.892L163.091 11.8249H159.808L159.945 12.0339C160.297 12.5565 160.712 13.4607 160.69 14.8644V20.9414C160.693 21.8849 160.694 22.1687 160.266 23.0565L160.174 23.2483H163.947L163.861 23.0594C163.428 22.1351 163.431 21.509 163.436 20.8474V17.1003C163.436 15.6947 164.864 13.0081 167.117 13.0081C167.634 13.0081 168.169 13.1558 168.703 13.4415L168.801 13.4923L170.296 11.6629L170.069 11.6245Z" fill="white"/>
<path d="M173.538 20.8186V8.67422C173.538 7.67321 173.538 7.37022 173.982 6.40181L174.068 6.21197H170.288L170.378 6.40181C170.817 7.37214 170.814 7.67513 170.814 8.67614V20.7573C170.814 21.4898 170.817 22.0651 170.376 23.0613L170.291 23.2492H174.071L173.982 23.0594C173.538 22.1178 173.538 21.8436 173.538 20.8186ZM177.831 10.4356C178.703 10.4356 179.467 9.74714 179.467 8.96282C179.467 8.16892 178.704 7.46802 177.831 7.46802C176.977 7.46802 176.225 8.16796 176.225 8.96282C176.225 9.73276 176.993 10.4356 177.831 10.4356ZM179.647 12.0147L179.736 11.8239H175.953L176.045 12.0147C176.481 12.9391 176.481 13.5335 176.479 14.2191V20.9049C176.481 21.8705 176.481 22.161 176.045 23.0565L175.95 23.2483H179.733L179.648 23.0594C179.205 22.0967 179.205 21.5234 179.207 20.8043V14.2459C179.205 13.5498 179.205 12.9515 179.647 12.0147ZM194.008 20.7026V15.2997C194.008 13.6697 193.791 13.2708 192.93 12.5488C191.882 11.6629 189.965 11.6178 189.59 11.6178L189.38 11.6226C187.727 11.7309 186.292 12.4664 184.887 13.9353C184.899 12.8595 184.805 12.2717 184.573 11.8891L184.537 11.8239H181.266L181.406 12.0339C181.905 12.7847 182.163 13.7502 182.148 14.8644V20.8733C182.151 21.8513 182.151 22.1447 181.71 23.0565L181.615 23.2483H185.398L185.313 23.0594C184.877 22.0939 184.879 21.2012 184.879 20.7026V17.1003C184.879 15.0763 187.02 12.9045 189.045 12.8815L189.206 12.8758C190.986 12.8758 191.269 13.733 191.269 16.4886V20.7026C191.269 21.8292 191.269 22.0967 190.838 23.0613L190.756 23.2492H194.48L194.398 23.0642C194.001 22.1082 194.003 21.1753 194.008 20.7026ZM199.446 15.3936C199.889 13.7636 201.095 12.7387 202.707 12.6399C202.777 12.6351 202.857 12.6303 202.947 12.6303C203.992 12.6303 205.26 13.1145 205.439 15.3936H199.446ZM208.669 16.5346L208.654 16.3879C208.235 12.1499 205.055 11.5171 203.202 11.5171C202.885 11.5171 202.582 11.5363 202.301 11.5651C199.532 11.8776 198.007 13.1912 197.214 14.2402C196.288 15.4655 195.847 17.0466 196.069 18.3708C196.286 19.5041 196.878 21.1024 198.462 22.2626C199.314 22.8734 200.986 23.5858 202.892 23.5858C204.554 23.5858 206.101 23.0613 207.483 22.0287L207.601 21.9395L206.936 21.2079L206.837 21.2971C205.99 22.0383 204.508 22.3729 203.419 22.3729L203.286 22.371C202.18 22.319 201.145 21.8141 200.422 20.9749C199.762 20.2175 199.022 18.8348 199.203 16.5346H208.669ZM214.603 15.897C212.599 15.1673 212.007 14.6764 212.07 13.7934C212.096 13.1481 212.923 12.6399 213.991 12.6159L214.109 12.614C214.775 12.614 216.541 12.7895 218.604 14.4166L218.822 14.2919L218.585 12.6543L218.52 12.6236C216.342 11.543 214.533 11.5094 213.912 11.5334C211.583 11.6197 209.849 12.5632 209.597 13.8777C209.018 16.5126 211.694 17.48 213.646 18.1876C216.657 19.2826 216.947 20.3584 216.85 20.9049C216.693 21.7784 215.312 22.5177 213.828 22.5177C211.938 22.5177 210.011 21.2971 209.172 20.5751L208.953 20.693L209.153 22.2962L209.209 22.3297C210.574 23.1192 212.114 23.5558 213.689 23.6002H213.849C216.891 23.6002 219.373 22.1111 219.622 20.1417C219.945 17.759 216.127 16.4282 214.603 15.897Z" fill="white"/>
</svg>
