<svg width="138" height="13" viewBox="0 0 138 13" fill="none" xmlns="http://www.w3.org/2000/svg"><path d="M129.947.666l-6.167 9.06c-.812 1.191-2.129 2.34-3.72 2.461v.279h6.859c1.822 0 3.15-1.203 4.05-2.53l6.332-9.27h-7.354zM16.369 12.466V1.661h3.105v10.805h-3.105zm71.61 0l-7.46-6.416v6.416h-2.623V1.661h2.228l7.36 6.315V1.661h2.623v10.805h-2.128zm16.226-7.32c-1.404-.7-2.984-1.269-5.08-1.269-2.501 0-4.367 1.315-4.367 3.142 0 1.87 1.9 3.197 4.346 3.197 2.019 0 3.62-.524 5.199-1.45v2.674c-1.393.703-3.246 1.226-5.331 1.226-4.256 0-7.604-2.205-7.604-5.647 0-3.387 3.413-5.56 7.593-5.56 1.974 0 3.762.38 5.244.992v2.696zm-67.451 7.32V1.661h10.378v2.317h-7.274v2.684h7.11V8.98h-7.11v3.487h-3.104zm69.327 0V1.661h10.774v2.317h-7.669V5.85h7.548v2.316h-7.548v1.983h7.635v2.317h-10.74zM57.917 8.411l4.29 4.055h-3.314c-.735 0-1.217-.234-1.601-.613l-2.919-2.874a.347.347 0 0 0-.252-.089h-1.985v3.576H49.03V1.661h6.725c3.489 0 4.96 1.593 4.96 3.353-.001 2.05-1.8 3.029-2.799 3.397zM55.438 6.63c1.228 0 1.821-.635 1.821-1.348 0-.713-.526-1.303-1.82-1.303h-3.303v2.651h3.302zm-24.17 1.782l4.29 4.055h-3.314c-.735 0-1.218-.234-1.601-.613l-2.919-2.874a.348.348 0 0 0-.252-.089h-1.986v3.576h-3.105V1.661h6.726c3.488 0 4.959 1.593 4.959 3.353 0 2.05-1.8 3.029-2.799 3.397zm-2.48-1.782c1.23 0 1.822-.635 1.822-1.348 0-.713-.527-1.303-1.821-1.303h-3.303v2.651h3.303zm-17.28 5.837l-1.36-2.373H4.202l-1.24 2.373H0L5.925 1.672h2.699l6.714 10.794h-3.83zM5.388 7.843h3.467l-1.8-3.297-1.667 3.297zm68.12 4.623l-1.327-2.373h-5.793l-1.195 2.373h-2.886l5.77-10.794H70.7l6.528 10.794h-3.72zM67.55 7.843h3.38l-1.756-3.297-1.624 3.297z" fill="#fff"/></svg>