<svg xmlns="http://www.w3.org/2000/svg" width="231" height="26" viewBox="0 0 231 26"><g fill-rule="nonzero" fill="none"><path fill="#C49433" d="M21.288 23.392c-.362.196-2.975 2.412-8.179 2.412-4.38 0-9.06-2.224-10.523-2.181a2.866 2.866 0 0 0-1.26.223c-.613.256-1.013-.148-.958-.497.053-.344.56-.984.92-1.45.448-.575 1.147-1.21 1.886-1.718 2.076-1.413 4.002-1.44 4.857-1.29.13.023.5.038 1.086.613 1.418 1.355 3.972 3.065 5.933 3.413.209.028 1.101.108 1.114-.14.007-.15-.239-.208-.322-.226-3.155-.71-4.97-2.252-6.71-3.835-1.415-1.283-2.491-2.877-3.3-4.436-.642-1.237-1.537-3.68-3.171-4.5-.36-.176-.372-.841.385-1.017.535-.128 3.753-.427 7.587 1.642 1.508.813 1.996 1.719 2.049 1.945 0 0 .093.048.116.442.203 5.514 2.634 7.367 3.808 8.218.476.366 1.071.524 1.232.359.07-.076-.12-.251-.246-.337-3.389-2.224-4.043-5.135-4.226-8.25-.176-3.1 1.131-5.796 1.96-7.998.116-.313.6-1.726.235-2.931-.242-.816.015-1.007.462-1.075.455-.062 1.147.874 1.39 1.165.181.218.8.924 1.718 2.749 1.805 3.584 1.822 7.552 1.82 8.01-.033 2.587-.51 2.74-1.743 3.34-1.023.4-1.601 1.22-1.601 2.02 0 .822.61 1.427 1.72 1.896.075.02.206.068.264.078.49.123.897.012.897-.173 0-.169-.485-.229-.485-.229-1.081-.266-1.838-.876-1.838-1.574 0-.943 1.33-1.905 3.035-1.905h.183c1.695 0 3.024.954 3.024 1.905 0 .698-.746 1.308-1.83 1.574 0 0-.485.06-.485.226.008.186.407.299.898.173.062-.007.186-.055.266-.075 1.114-.477 1.717-1.08 1.717-1.898 0-.8-.57-1.619-1.601-2.018-1.23-.6-1.702-.76-1.74-3.34-.005-.458.015-4.428 1.823-8.01.915-1.825 1.526-2.53 1.712-2.749.239-.291.927-1.227 1.392-1.167.453.07.702.26.458 1.077-.36 1.205.116 2.618.241 2.929.82 2.204 2.137 4.897 1.959 7.997-.184 3.118-.84 6.024-4.229 8.25-.133.089-.314.262-.241.34.158.165.754.007 1.227-.36 1.174-.85 3.602-2.703 3.806-8.22.03-.391.118-.447.118-.447.058-.22.54-1.127 2.05-1.937 3.838-2.076 7.056-1.77 7.586-1.647.76.18.745.846.388 1.022-1.637.82-2.535 3.26-3.17 4.498-.81 1.56-1.889 3.155-3.299 4.438-1.737 1.583-3.562 3.125-6.713 3.835-.082.018-.334.073-.324.226.013.248.905.166 1.119.14 1.958-.348 4.505-2.06 5.93-3.416.589-.572.958-.587 1.092-.61.847-.15 2.773-.123 4.852 1.29.744.505 1.44 1.143 1.878 1.712.367.472.867 1.112.925 1.456.055.35-.342.75-.953.497a2.852 2.852 0 0 0-1.26-.223c-1.468-.045-6.149 2.181-10.53 2.181-5.195 0-7.81-2.216-8.181-2.412"/><g fill="#FF8C40"><path d="M61.882 8.44h-1.89l-5.69 12.381-5.78-12.382h-4.16l.59.615c.8.823 1.101 1.132 1.614 2.282l6.486 13.93h.68l6.54-14.322c.486-1.039.755-1.463 1.421-2.276l.189-.229v.001zm3.67 4.866l.096-.2h-3.955l.096.2c.457.967.457 1.587.455 2.307v6.948c.002 1.017.002 1.323-.455 2.26l-.098.2h3.954l-.093-.198c-.462-1-.46-1.592-.457-2.345v-6.857c-.003-.723-.005-1.346.457-2.315zm-1.905-1.649c.912 0 1.712-.718 1.712-1.536 0-.828-.8-1.559-1.712-1.559-.888 0-1.667.73-1.667 1.559 0 .803.794 1.536 1.667 1.536zm7.31 5.171c.463-1.7 1.725-2.769 3.41-2.872.769-.047 2.634.11 2.843 2.872h-6.253zm9.63 1.19l-.016-.153c-.445-4.42-3.756-5.08-5.687-5.08-.331 0-.646.02-.942.05-2.889.326-4.483 1.696-5.313 2.793-.965 1.278-1.428 2.927-1.199 4.305.181.964.744 2.769 2.497 4.059.89.637 2.642 1.38 4.636 1.38 1.732 0 3.343-.547 4.781-1.624l.12-.09-.685-.766-.109.093c-.877.773-2.426 1.122-3.572 1.122l-.136-.002a4.218 4.218 0 0 1-2.984-1.456c-.689-.793-1.463-2.234-1.274-4.631h9.883zm6.684 6.172h-.008c-.882-.015-2.365-.329-2.365-2.249v-7.643h5.141v-1.193h-5.141v-2.156l-3.2.738.113.337c.138.416.168.51.196 1.081h-.73v1.193h.765v7.34c0 3.262 3.248 3.576 4.244 3.594h.002c1.121 0 2.346-.08 3.98-1.132l.435-1.607-.242-.13c-1.224 1.333-2.064 1.827-3.19 1.827zm17.043-1.825V16.73c0-1.704-.227-2.118-1.122-2.869-1.088-.924-3.092-.971-3.482-.971l-.218.005c-1.727.113-3.226.88-4.689 2.41.01-1.108-.083-1.72-.324-2.132l-.04-.068h-3.412l.146.219c.364.545.792 1.49.774 2.952v6.298c.003 1.004.005 1.305-.455 2.246l-.095.2h3.952l-.09-.197c-.468-1.01-.468-1.98-.466-2.458v-3.757c0-2.111 2.235-4.376 4.35-4.4l.17-.006c1.853 0 2.147.894 2.147 3.768v4.395c0 1.172 0 1.454-.455 2.46l-.088.196h3.905l-.083-.196c-.43-1.004-.428-1.975-.425-2.46zm11.031-4.585v1.556c0 1.634-.716 2.7-1.315 3.308-.706.713-1.629 1.157-2.446 1.157-1.068-.048-2.006-.587-2.383-1.37-.354-.733-.206-1.612.422-2.47.37-.533 1.469-1.19 3.08-1.459.4-.065 1.43-.263 2.642-.723v.001zm2.849 4.008l.002-4.197c.008-.653.02-1.39-.246-2.033-.928-2.538-4.694-2.736-5.825-2.736-.8 0-1.59.078-2.28.226-.998.218-1.57.467-2.638.984l-.065.032-.249 1.737.234.126c1.717-1.559 3.464-1.913 4.628-1.935l.312-.006c1.36 0 2.398.312 2.924.874.249.274.377.6.354.924-.05 1.358-1.825 1.553-3.542 1.742-.49.052-.978.108-1.415.188-2.957.542-4.458 1.79-4.458 3.715 0 1.73 1.63 3.672 4.641 3.865.086.006.176.006.267.006 1.083 0 2.74-.432 4.56-2.46.06 1.031.146 1.583.468 2.113l.042.068h3.515l-.153-.221c-.946-1.348-1.076-2.242-1.076-3.012zm21.158.55V16.67c0-2.566-.91-3.816-2.786-3.816-.088 0-.178.005-.264.008-1.732.095-3.396 1.007-4.719 2.575-.37-1.717-1.257-2.552-2.702-2.552-.097 0-.195.003-.292.01-1.659.082-3.132.85-4.616 2.41.01-1.118-.088-1.728-.326-2.132l-.043-.068h-3.412l.146.219c.52.783.787 1.787.772 2.952v6.308c0 .999 0 1.3-.45 2.236l-.1.2h3.949l-.09-.197c-.456-1.002-.453-1.933-.45-2.458v-3.757c0-1.56 1.199-3.274 2.785-3.989.586-.276 1.036-.246 1.373.098.482.49.729 1.609.701 3.225v4.586c.003 1.032.003 1.343-.455 2.26l-.1.203h3.952l-.09-.199c-.469-1.006-.464-1.937-.461-2.454v-3.73c0-1.584 1.2-3.316 2.793-4.024.583-.274 1.036-.246 1.373.1.477.487.729 1.61.694 3.223v4.43c0 1.145 0 1.451-.453 2.455l-.088.199h3.904l-.083-.196c-.462-1.064-.462-2.111-.462-2.457zm14.177-4.78h-4.506l2.253-4.914 2.253 4.914zm5.455 4.594L152.5 8.223h-.681l-6.584 14.325c-.463 1.05-.714 1.426-1.413 2.277l-.184.229h1.921l2.77-6.062h5.901l2.798 6.062h4.153l-.696-.743c-.714-.753-1.01-1.067-1.501-2.16v.001zm4.472-10.495c.913 0 1.713-.718 1.713-1.536 0-.828-.8-1.559-1.713-1.559-.892 0-1.674.73-1.674 1.559 0 .803.797 1.536 1.674 1.536zm1.896 1.647l.093-.199h-3.947l.093.201c.46.967.458 1.587.455 2.305v6.95c.003 1.017.003 1.323-.455 2.26l-.095.2h3.947l-.09-.196c-.461-1.019-.461-1.621-.458-2.487v-6.68c-.003-.733-.003-1.365.457-2.354zm12.384-.407a9.658 9.658 0 0 0-1.611-.143c-2.773 0-4.342 1.35-5.305 2.508.003-1.067-.093-1.67-.324-2.086l-.038-.07h-3.424l.143.218c.367.545.8 1.488.777 2.952v6.338c.003.984.005 1.28-.442 2.206l-.096.2h3.935l-.09-.197c-.451-.964-.448-1.617-.443-2.307v-3.908c0-1.466 1.49-4.268 3.839-4.268.54 0 1.098.154 1.654.452l.103.053 1.559-1.908-.237-.04z"/><path d="M181.354 22.486V9.82c0-1.044 0-1.36.463-2.37l.09-.198h-3.942l.093.198c.458 1.012.455 1.328.455 2.372v12.6c0 .764.003 1.364-.457 2.403l-.088.196h3.942l-.093-.198c-.463-.982-.463-1.268-.463-2.337zm4.477-10.829c.91 0 1.707-.718 1.707-1.536 0-.828-.796-1.559-1.707-1.559-.89 0-1.674.73-1.674 1.559 0 .803.8 1.536 1.674 1.536zm1.894 1.647l.093-.199h-3.945l.096.199c.455.964.455 1.584.452 2.299v6.973c.003 1.007.003 1.31-.452 2.244l-.099.2h3.945l-.088-.197c-.463-1.004-.463-1.602-.46-2.352v-6.84c-.003-.726-.003-1.35.458-2.327zm14.978 9.061V16.73c0-1.7-.226-2.116-1.124-2.869-1.093-.924-3.092-.971-3.484-.971l-.219.005c-1.724.113-3.22.88-4.686 2.412.013-1.122-.085-1.735-.327-2.134l-.038-.068h-3.411l.146.219c.52.783.79 1.79.774 2.952v6.267c.003 1.02.003 1.326-.457 2.277l-.099.2h3.945l-.088-.197c-.455-1.007-.453-1.938-.453-2.458v-3.757c0-2.111 2.233-4.376 4.345-4.4l.168-.006c1.856 0 2.152.894 2.152 3.768v4.395c0 1.175 0 1.454-.45 2.46l-.085.196h3.884l-.086-.193c-.414-.997-.412-1.97-.407-2.463zm5.672-5.537c.462-1.7 1.72-2.769 3.401-2.872.073-.005.156-.01.25-.01 1.09 0 2.413.505 2.599 2.882h-6.25zm9.619 1.19l-.016-.153c-.437-4.42-3.753-5.08-5.686-5.08-.33 0-.646.02-.94.05-2.887.326-4.478 1.696-5.305 2.79-.966 1.278-1.426 2.927-1.194 4.308.226 1.182.844 2.849 2.496 4.059.888.637 2.632 1.38 4.62 1.38 1.733 0 3.347-.547 4.788-1.624l.123-.093-.694-.763-.103.093c-.883.773-2.429 1.122-3.565 1.122l-.138-.002a4.198 4.198 0 0 1-2.987-1.456c-.689-.79-1.46-2.232-1.272-4.631h9.873zm6.189-.665c-2.09-.761-2.708-1.273-2.642-2.194.027-.673.89-1.203 2.004-1.228l.123-.002c.694 0 2.536.183 4.688 1.88l.227-.13-.247-1.708-.068-.032c-2.272-1.127-4.158-1.162-4.806-1.137-2.429.09-4.237 1.074-4.5 2.445-.604 2.748 2.187 3.757 4.223 4.495 3.14 1.142 3.442 2.264 3.341 2.834-.163.911-1.604 1.682-3.152 1.682-1.971 0-3.98-1.273-4.855-2.026l-.229.123.209 1.672.058.035a9.89 9.89 0 0 0 4.673 1.325h.166c3.173 0 5.762-1.553 6.021-3.607.337-2.485-3.645-3.873-5.234-4.427z"/></g></g></svg>