<svg width="105" height="16" viewBox="0 0 105 16" fill="none" xmlns="http://www.w3.org/2000/svg">
<path d="M20.0693 16L10.0336 11.7701V16H20.0693ZM19.3258 14.2941L10.0336 9.82556V0.000682564L19.3258 14.2941Z" fill="white"/>
<path d="M0.738086 14.2941L10.0336 0L10.0336 9.82556L0.738086 14.2941ZM0 16L10.0336 16V11.7701L0.000677766 16" fill="white"/>
<path d="M20.7342 13.6793H20.8589C20.9653 13.6793 21.0717 13.6753 21.0717 13.5492C21.0717 13.4489 20.987 13.4211 20.9023 13.4211H20.7342V13.6793ZM20.7342 14.0989H20.6359V13.3384H20.93C21.1036 13.3384 21.1707 13.415 21.1707 13.5485C21.1707 13.6929 21.0839 13.7518 20.9788 13.7654L21.2079 14.0989H21.0954L20.8745 13.7661H20.7342V14.0989ZM20.8826 14.2839C21.0311 14.2841 21.1735 14.2253 21.2787 14.1204C21.3838 14.0155 21.4429 13.8732 21.4431 13.7247C21.4447 13.5751 21.3864 13.431 21.2811 13.3247C21.1758 13.2183 21.0323 13.1586 20.8826 13.1588C20.7316 13.1574 20.5864 13.2164 20.4792 13.3227C20.372 13.429 20.3117 13.5738 20.3119 13.7247C20.3119 14.0338 20.5688 14.2839 20.8826 14.2839ZM20.8826 13.0639C21.2475 13.0662 21.5416 13.3634 21.54 13.7283C21.5384 14.0932 21.2416 14.3879 20.8767 14.3869C20.5118 14.3859 20.2167 14.0896 20.217 13.7247C20.217 13.356 20.5132 13.0639 20.8826 13.0639Z" fill="white"/>
<path d="M30.7523 3.75549H32.4162C35.4275 3.75549 36.9267 5.23708 36.9267 7.91832C36.9267 10.5921 35.4275 12.0778 32.4162 12.0778H30.7523V3.75549ZM27.907 14.2941H32.4162C37.0528 14.2941 39.8255 11.8961 39.8255 7.91832C39.8255 3.93848 37.0534 1.5392 32.4162 1.5392H27.907V14.2941ZM49.5114 8.76553H54.9308V6.54923H49.5114V3.75549H55.6405V1.5392H46.6567V14.2941H55.8404V12.0778H49.5114V8.76553ZM72.0878 12.0778H66.5945V1.5392H63.7276V14.2941H72.0878V12.0778ZM87.4886 1.5392H76.0324V3.75549H80.328V14.2941H83.195V3.75549H87.4886V1.5392ZM99.0181 8.96276L97.2329 4.43935L95.449 8.96276H99.0181ZM101.078 14.2941L99.8294 11.0984H94.6357L93.3865 14.2941H90.5969L95.9363 1.49175H98.8188L104.068 14.2941H101.078Z" fill="white"/>
</svg>
