<svg width="89" height="36" xmlns="http://www.w3.org/2000/svg"><g fill="none"><path d="M52.433 0a18.18 18.18 0 0 1 16.996 11.656v12.688C66.844 31.16 60.21 36 52.44 36c-1.128 0-2.256-.103-3.36-.31-8.418-1.555-14.795-8.252-14.795-17.051 0-6.269 5.12-11.982 11.442-11.982a11.7 11.7 0 0 1 3.353.492c-4.817 1.46-8.098 5.864-8.098 10.855.008 6.26 5.129 11.339 11.45 11.339S63.875 23.63 63.875 17.36c0-8.8-6.377-15.488-14.794-17.052A18.237 18.237 0 0 1 52.433 0z" fill="#37322D" opacity=".25"/><path d="M48.646.317a17.79 17.79 0 0 0-3.31-.309c-8.596 0-15.778 6.077-17.517 14.186a.593.593 0 0 1-.584.468h-8.723a.6.6 0 0 0-.6.595V20.7c0 .333.268.603.6.603h7.656c.332 0 .6.27.6.603v2.697c0 .286-.102.564-.292.786-4.069 4.744-11.195 5.284-15.928 1.198C5.815 22.5 5.286 15.344 9.355 10.592a11.256 11.256 0 0 1 13.447-2.825c.277.143.617.04.782-.23l2.782-4.697a.607.607 0 0 0-.206-.825c-.008-.008-.016-.008-.031-.016A17.734 17.734 0 0 0 17.912 0C8.02.008 0 8.07 0 18.002c0 9.934 8.02 17.994 17.92 17.994a17.831 17.831 0 0 0 13.265-5.894.597.597 0 0 1 .846-.04c.015.016.031.024.04.04a17.915 17.915 0 0 0 16.575 5.593c-8.311-1.555-14.609-8.251-14.609-17.05 0-6.268 5.057-11.98 11.299-11.98 6.242 0 11.298 5.077 11.298 11.345 0 4.99-3.24 9.386-7.988 10.854 1.075.333 2.189.5 3.31.492 6.243 0 11.3-5.713 11.3-11.98-.01-8.808-6.299-15.496-14.611-17.06zm39.04 28.523h-11.75c-.331 0-.6-.27-.6-.603V1.127a.6.6 0 0 0-.593-.603h-5.42c-.332 0-.6.27-.6.603v33.156c0 .666.537 1.198 1.193 1.198h17.77c.331 0 .6-.27.6-.603v-5.443a.6.6 0 0 0-.6-.595z" fill="#FF7020"/></g></svg>