<svg width="161" height="24" viewBox="0 0 161 24" fill="none" xmlns="http://www.w3.org/2000/svg">
<path d="M27.8718 15.4711H21.4616V12.6819H27.2285V11.2113H21.4616V8.67015H27.5361V7.20552H17.1894V16.9553H27.8718V15.4711ZM34.1256 16.9547V8.6695H36.6373C37.3984 8.6695 38.1059 8.72709 38.7499 9.11648C39.221 9.42014 39.5149 9.85403 39.5149 10.3939C39.5149 10.8403 39.3402 11.3069 38.6923 11.676C37.8493 12.1819 36.3808 12.2473 35.4593 12.1459L34.9306 12.0902L39.187 16.9553H44.1228L40.0829 12.8919C40.8061 12.8199 41.9671 12.5569 42.6745 12.1459C43.5128 11.6243 43.9461 10.8566 43.9461 10.14C43.9461 9.33244 43.4729 8.45943 42.3983 7.88614C41.1241 7.22516 39.3794 7.20552 37.7715 7.20552H29.8332V16.9553H34.1263L34.1256 16.9547ZM68.6229 12.8402H74.3892V11.3723H68.6229V8.6695H74.8564V7.20552H64.3527V16.9553H68.6229V12.8402ZM80.7006 7.20552H76.4061V16.9553H86.9917V15.4711H80.7006V7.20552ZM104.632 8.6695H109.238V16.9547H113.534V8.6695H118.138V7.20552H104.632V8.6695ZM95.5386 16.045C94.4778 16.045 93.2278 15.8264 92.3057 14.7728C91.54 13.9155 91.4032 12.9273 91.4032 12.0902C91.4032 11.2113 91.5406 10.2447 92.3057 9.39003C93.2278 8.31021 94.4778 8.09818 95.5386 8.09818C96.6178 8.09818 97.8514 8.31087 98.7859 9.39003C99.5568 10.2454 99.6917 11.2113 99.6917 12.0902C99.6917 12.9279 99.5568 13.9161 98.7859 14.7728C97.8514 15.8264 96.6178 16.045 95.5386 16.045ZM95.5386 6.92215C93.5458 6.92215 90.7396 7.33249 88.8542 8.56479C87.3621 9.52878 86.6559 10.9116 86.6559 12.0902C86.6559 13.2532 87.3614 14.6321 88.8542 15.5961C90.7396 16.8081 93.5458 17.2256 95.5386 17.2256C97.534 17.2256 100.355 16.8081 102.239 15.5961C103.73 14.6321 104.421 13.2532 104.421 12.0902C104.421 10.9123 103.73 9.52878 102.239 8.56479C100.355 7.33249 97.534 6.93524 95.5386 6.92215ZM53.995 16.045C52.9341 16.045 51.6802 15.8264 50.7581 14.7728C49.997 13.9155 49.8537 12.9273 49.8537 12.0902C49.8537 11.2113 49.997 10.2447 50.7581 9.39003C51.6802 8.31021 52.9341 8.09818 53.995 8.09818C55.0702 8.09818 56.3064 8.31087 57.2442 9.39003C58.0112 10.2454 58.148 11.2113 58.148 12.0902C58.148 12.9279 58.0112 13.9161 57.2442 14.7728C56.3064 15.8264 55.0702 16.045 53.995 16.045ZM53.995 6.92215C51.9963 6.92215 49.194 7.33249 47.3125 8.56479C45.8178 9.52878 45.1143 10.9116 45.1143 12.0902C45.1143 13.2532 45.8178 14.6321 47.3125 15.5961C49.194 16.8081 51.9963 17.2256 53.995 17.2256C55.9923 17.2256 58.8142 16.8081 60.6977 15.5961C62.1865 14.6321 62.8757 13.2532 62.8757 12.0902C62.8757 10.9123 62.1865 9.52878 60.6977 8.56479C58.8142 7.33249 55.9923 6.93524 53.995 6.92215ZM4.60462 12.8049L6.62552 9.40574H6.68703L8.8794 12.8049H4.60462ZM2.13608 16.9553L3.82126 14.1242H9.76354L11.5855 16.9553H16.3864L9.88199 7.20552H5.90171L0 16.9553H2.13608Z" fill="white"/>
<path d="M144.015 8.26846C143.825 8.50456 142.31 10.4157 142.31 10.4157L141.582 11.3402C136.324 11.9293 130.757 14.591 124.696 19.3925C128.538 15.3987 134.214 9.97832 144.015 8.26846ZM153.064 3.42469C155.142 3.17865 157.387 2.7984 159.691 1.20535C158.876 2.25413 157.851 3.60114 157.851 3.60114C155.811 6.31753 154.34 6.54618 152.959 6.72511L149.994 6.92394L147.449 7.08051C146.367 7.20477 145.593 7.43093 144.901 7.75898C145.865 6.58594 147.128 5.18177 148.243 4.49086C149.414 3.76517 150.78 3.6583 151.683 3.57877L152.205 3.52907L153.064 3.42469ZM153.01 3.00965L152.149 3.119L151.647 3.16622C150.704 3.24326 149.271 3.36256 148.015 4.14293C146.759 4.91833 145.345 6.52878 144.348 7.77141C133.515 9.51855 127.584 15.7466 123.65 19.8647L121.2 22.6482L121.6 22.5314C128.986 15.933 135.567 12.3915 141.723 11.7354L141.816 11.723L142.643 10.6692L144.363 8.49959C145.076 7.87828 146.052 7.65709 147.495 7.49803L150.012 7.33898L153.015 7.13518C154.399 6.95376 156.047 6.70523 158.192 3.84967L160.937 0.270894L160.614 0C158.128 2.38088 155.524 2.71639 153.01 3.00965Z" fill="white"/>
<path d="M142.805 14.5587C133.504 14.6332 129.301 16.8426 121.464 22.3897L119.857 24C127.933 18.3039 132.572 17.8218 139.217 17.874C139.835 17.9113 140.424 17.9435 140.798 17.1731L142.805 14.5587Z" fill="white"/>
<path d="M144.519 7.94543C131.326 10.0232 125.501 18.6814 121.462 22.382C129.345 15.329 135.921 12.1504 141.7 11.5291C142.213 10.8731 143.981 8.68129 144.519 7.94543Z" fill="white"/>
<path d="M141.877 14.2629C140.345 14.2629 138.792 14.9688 138.643 15.3714C138.389 16.0399 138.786 15.7566 139.94 16.4226C140.916 16.9818 140.711 17.1832 140.621 17.469C141.511 16.2412 143.113 14.4444 143.113 14.4444C142.723 14.3176 142.3 14.2629 141.877 14.2629Z" fill="white"/>
<path d="M160.765 0.146593C157.921 2.86795 154.814 2.9798 152.18 3.32773C151.39 3.42714 149.612 3.40229 148.128 4.31935C146.649 5.23144 144.876 7.4085 143.999 8.55172C144.814 7.70922 145.896 7.47065 147.469 7.2942C149.061 7.11774 151.355 7.1476 152.987 6.92889C154.543 6.73007 155.996 6.42441 158.021 3.72791L160.765 0.146593Z" fill="white"/>
<path d="M154.917 8.25108C153.725 9.7323 151.601 10.4009 149.048 10.7488C147.108 11.0073 144.904 11.0843 144.271 11.1216C143.182 11.1663 141.741 11.5018 141.344 11.9666C140.122 13.4354 138.961 14.8023 138.643 15.3714C139.389 14.6979 141.831 14.7724 144.804 14.6407C147.756 14.5065 150.757 13.2664 153.128 10.6519L154.917 8.25108Z" fill="white"/>
</svg>
