<svg xmlns="http://www.w3.org/2000/svg" width="176" height="16" viewBox="0 0 176 16" fill="none"><path fill="#000" d="M174.902 9.577c-.847 2.204-3.773 2.886-6.933 2.886-3.159 0-5.187-.685-4.714-2.886h4.014c-.103.586.252.963 1.44.963s1.953-.385 2.176-.964c.553-1.44-7.392-.033-6.128-3.327.708-1.845 3.496-2.71 6.641-2.71 3.146 0 4.931.68 4.554 2.708h-3.939c.063-.542-.104-.955-1.288-.955-1.183 0-1.819.42-2.026.957-.564 1.47 7.466.04 6.203 3.328ZM104.609 12.213h-4.015l3.232-8.42h4.016l-3.233 8.42ZM134.992 12.213h-4.016l3.233-8.42h4.015l-3.232 8.42ZM160.866 12.213h-9.763l3.233-8.42h9.764l-.622 1.617h-5.747l-.652 1.697h4.781l-.62 1.614h-4.782l-.654 1.707h5.747l-.685 1.785ZM81.056 12.213h-3.249l-2.725-4.972-1.909 4.972h-3.239l3.233-8.42h3.772l2.405 4.427 1.7-4.426h3.247l-3.235 8.42ZM148.612 12.213h-3.249l-2.726-4.972-1.908 4.972h-3.242l3.232-8.42h3.772l2.406 4.427 1.698-4.426h3.248l-3.231 8.42ZM32.282 9.394c-1.1 2.864-3.81 3.1-5.742 3.1a12.977 12.977 0 0 1-2.792-.28l.686-1.787c1.84.214 3.413.054 4.03-1.55l1.953-5.084h4.016l-2.151 5.6M55.04 3.794h-6.245l-3.232 8.42h4.016l1.173-3.057h2.233c3.711 0 5.71-.992 6.358-2.68.649-1.687-.587-2.684-4.302-2.684m.285 2.684a1.892 1.892 0 0 1-1.723 1.064h-2.23l.818-2.133h2.234c.732 0 1.138.454.901 1.066M116.581 3.794h-6.246l-3.232 8.42h4.015l1.173-3.057h1.214l.793 3.056h4.384L117.61 8.85c1.778-.413 2.835-1.234 3.273-2.373.647-1.688-.587-2.684-4.303-2.684m.286 2.684a1.9 1.9 0 0 1-1.725 1.064h-2.229l.818-2.133h2.234c.731 0 1.137.454.902 1.066M125.378 10.429l2.554-6.635h-4.017l-3.233 8.42h9.119l.685-1.785h-5.108ZM43.74 3.794H40.15a1.741 1.741 0 0 0-1.235.625l-6.728 7.795h3.317l1.337-1.658h3.626l.064 1.658h4.016l-.805-8.42m-5.596 5.144 2.162-2.692.1 2.692h-2.261ZM68.107 3.794h-3.592a1.739 1.739 0 0 0-1.235.625l-6.729 7.795h3.317l1.338-1.658h3.626l.064 1.658h4.016l-.805-8.42Zm-5.596 5.144 2.162-2.692.1 2.692h-2.262ZM98.769 3.794h-3.591a1.742 1.742 0 0 0-1.235.625l-6.729 7.795h3.318l1.336-1.657h3.627l.064 1.657h4.015l-.805-8.42m-5.595 5.144 2.161-2.691.1 2.691h-2.26Z"/><path fill="#C00" d="M8.133 12.955h.613l-.027-.732-.586.732Z"/><path fill="#C00" d="M15.983 8.705a8.083 8.083 0 0 0-.04-1.77c0-.01-.011-.01-.013 0a4.784 4.784 0 0 1-1.767 2.699.01.01 0 0 1-.01-.01 5.84 5.84 0 0 0 1.617-3.58 7.923 7.923 0 0 0-.81-2.013c-.006-.007-.015-.005-.013.005a5.49 5.49 0 0 1-1.392 4.443.01.01 0 0 1-.008-.002.01.01 0 0 1-.004-.006.01.01 0 0 1 0-.004 6.23 6.23 0 0 0 .903-5.219 8 8 0 0 0-12.87 0A6.232 6.232 0 0 0 2.48 8.47a.01.01 0 0 1-.014.007 5.487 5.487 0 0 1-1.39-4.441c0-.01-.007-.012-.012-.005a7.921 7.921 0 0 0-.811 2.012 5.843 5.843 0 0 0 1.617 3.58.01.01 0 0 1-.016.008 4.782 4.782 0 0 1-1.76-2.696c0-.01-.013-.01-.014 0a8.09 8.09 0 0 0-.039 1.77c.29.82.795 1.548 1.464 2.104.01.01 0 .023-.01.017A4.338 4.338 0 0 1 .19 9.64c-.005-.008-.014-.005-.011.004a8 8 0 0 0 15.657 0c0-.01-.005-.012-.01-.004a4.336 4.336 0 0 1-1.305 1.187c-.011.006-.021-.008-.01-.017a4.817 4.817 0 0 0 1.464-2.104M5.04 13.921a3.537 3.537 0 0 1-.759-.075l.187-.486c.499.058.927.015 1.095-.421l.53-1.381h1.09l-.584 1.52a1.464 1.464 0 0 1-1.559.843Zm3.734-.075-.018-.452H7.77l-.362.452h-.9l1.826-2.117a.468.468 0 0 1 .336-.171h.975l.219 2.288H8.773Zm3.859 0h-2.475l.877-2.288h1.09l-.693 1.803h1.387l-.186.485Zm-1.006-4.832c-1.637 1.592-4.08.575-3.832-1.38.191-1.507 2.04-3.009 3.439-3.823a.01.01 0 0 0 .003-.014 1.609 1.609 0 0 0-3.383-.823l-4.023.373a.013.013 0 0 0 0 .025l4.313.25c.764.043 1.013.737.276 1.295C5.68 6.993 5.191 9.19 5.806 10.93v.008a.011.011 0 0 1-.02.001 3.537 3.537 0 0 1-.544-1.25 5.149 5.149 0 1 1 6.384-.677"/></svg>
