<svg xmlns="http://www.w3.org/2000/svg" width="127" height="28" viewBox="0 0 127 28" fill="none"><path fill="#fff" d="M40.033 6.84h-3.915l-7.259 6.42 1.285-6.42h-3.218l-2.795 13.987h3.214l.698-3.475 2.262-2.008 3.597 5.483h3.637l-4.85-7.516zM54.182 6.84l-6.833 8.719-3.497-8.72h-2.638l-2.798 13.988h3.038l1.672-8.397 2.885 6.919h1.438l5.344-6.833-1.65 8.311h3.039L56.959 6.84zM77.142 6.84l-7.988 10.383L65.113 6.84h-1.2l-2.798 13.987h1.42l2.238-11.27 3.736 9.491h.698l7.234-9.316-2.216 11.095h1.418L78.442 6.84zM90.228 20.827h1.478L88.109 6.84h-1.46l-9.192 13.987h1.6l2.409-3.737h7.831zm-7.985-4.936L87.12 8.33l1.883 7.562zM93.528 20.827 96.327 6.84h1.46L95.25 19.55h7.832l-.262 1.277zM106.216 20.827l2.538-12.71h-4.936l.261-1.277h11.311l-.262 1.277h-4.914l-2.538 12.71zM124.298 20.827h1.478L122.179 6.84h-1.46l-9.191 13.987h1.599l2.409-3.737h7.832zm-7.985-4.936 4.878-7.562 1.883 7.562zM95.962 23.851l-2.685 4.102h.634l.651-1.027h2.187l.247 1.027h.58l-1.038-4.102h-.58zm-1.103 2.61 1.289-2.026.49 2.026zM98.893 27.953h.583l.824-4.102h-.587zM103.764 23.851h-1.528l-.82 4.102h.591l.247-1.253h1.095q.058 0 .111-.003l.712 1.26h.623l-.752-1.339c.119-.029.233-.064.337-.114q.435-.197.666-.566.231-.37.232-.884 0-.569-.397-.884t-1.117-.315zm.577 2.073q-.35.279-.978.279h-1.012l.368-1.84h.992c.315 0 .558.065.726.186q.252.189.251.559c0 .358-.115.633-.347.816M107.784 23.851h-.587l-.82 4.102h2.813l.101-.508h-2.227zM110.561 27.953h.587l.82-4.102h-.587zM116.216 27.008l-1.832-3.157h-.48l-.823 4.102h.587l.626-3.153 1.836 3.153h.48l.82-4.102h-.584zM118.543 27.953h2.985l.1-.508h-2.398l.265-1.325h2.061l.101-.497h-2.062l.251-1.263h2.315l.101-.509h-2.896zM124.592 24.392q.247-.088.579-.09.313.001.598.083c.19.053.365.136.516.247l.236-.48a1.8 1.8 0 0 0-.591-.258 3 3 0 0 0-.726-.09q-.506-.001-.888.155c-.258.104-.455.25-.601.44-.143.19-.219.415-.219.676q.001.282.115.466a.9.9 0 0 0 .301.3q.187.118.411.197.225.08.451.14.224.063.412.136c.121.05.222.11.3.19a.4.4 0 0 1 .118.297q0 .224-.139.379a.86.86 0 0 1-.39.236 1.9 1.9 0 0 1-.58.082 2.1 2.1 0 0 1-.959-.221 1.8 1.8 0 0 1-.373-.247l-.257.468c.096.094.229.18.39.251a2.8 2.8 0 0 0 1.145.247q.515.001.906-.154.39-.155.608-.444.22-.29.219-.683-.001-.272-.115-.444a.9.9 0 0 0-.304-.29 2 2 0 0 0-.412-.186q-.224-.075-.447-.14a4 4 0 0 1-.412-.143.8.8 0 0 1-.3-.193.42.42 0 0 1-.111-.304.6.6 0 0 1 .139-.38.9.9 0 0 1 .38-.25zM12.205 20.827h6.224l-3.114-2.874zM7.577 16.568l3.053-3.304-2.344-2.537L0 20.827h12.087l3.228-7.563zM15.315 13.264l-3.117-7.308-3.63 4.427zM15.315 13.264l3.232 7.563h.315l1.117-5.573-4.66-1.99z"/><path fill="#fff" d="m23.04 0-2.188 10.902-5.533 2.363 3.303-7.742-3.303 3.053-3-2.767 3.69-4.499C16.802.14 18.445 0 18.445 0z"/></svg>