<svg xmlns="http://www.w3.org/2000/svg" width="72" height="42" viewBox="0 0 72 42"><path fill="#00A1DE" fill-rule="nonzero" d="M20.02 23.82h-6.674l-6.673 6.648V23.82H0v17.726h6.673v-6.648l6.673 6.648h8.898l-10.01-9.97 7.785-7.756zm8.897 0h-6.673v17.726H40.04v-4.47H28.917V23.82zm31.141 0l-3.335 9.97-3.337-9.97H42.264v17.726h6.674V28.251l4.448 13.295h6.672l4.45-13.295v13.295h6.673V23.82H60.058zm-28.917-9.972a3.885 3.885 0 0 0 3.893-3.877 3.885 3.885 0 0 0-3.893-3.878 3.885 3.885 0 0 0-3.892 3.878 3.884 3.884 0 0 0 3.892 3.877zm5.005-3.877a3.885 3.885 0 0 0 3.893 3.877 3.885 3.885 0 0 0 3.893-3.877 3.885 3.885 0 0 0-3.893-3.878 3.885 3.885 0 0 0-3.893 3.878zm-10.01 0c0-2.142-1.742-3.878-3.892-3.878s-3.893 1.736-3.893 3.878a3.885 3.885 0 0 0 3.893 3.877 3.885 3.885 0 0 0 3.893-3.877zm-3.892 9.417h26.694v-4.432H22.244v4.432zM48.938 6.093a3.886 3.886 0 0 0-3.894 3.878 3.885 3.885 0 0 0 3.894 3.877 3.885 3.885 0 0 0 3.892-3.877 3.886 3.886 0 0 0-3.892-3.878zm-14.46.554h2.224V4.431h2.225V2.216h-2.225V0h-2.224v2.216h-2.224v2.215h2.224v2.216z"/></svg>