<svg width="55" height="32" viewBox="0 0 55 32" fill="none" xmlns="http://www.w3.org/2000/svg">
<path d="M26.4196 5.12427H28.1293V3.41618H29.8389V1.70809H28.1293V0H26.4196V1.70809H24.7099V3.41618H26.4196V5.12427ZM37.479 4.69725C35.8227 4.69725 34.487 6.03169 34.487 7.68641C34.487 9.34112 35.8227 10.6756 37.479 10.6756C39.1352 10.6756 40.4709 9.34112 40.4709 7.68641C40.4709 6.03169 39.1352 4.69725 37.479 4.69725ZM17.0432 14.9458H37.479V11.5296H17.0432V14.9458ZM20.0351 7.68641C20.0351 6.03169 18.6994 4.69725 17.0699 4.69725C15.4137 4.69725 14.078 6.03169 14.078 7.68641C14.078 9.34112 15.4137 10.6756 17.0699 10.6756C18.6994 10.6756 20.0351 9.34112 20.0351 7.68641ZM27.7018 7.68641C27.7018 9.34112 29.0375 10.6756 30.6937 10.6756C32.35 10.6756 33.6589 9.34112 33.6589 7.68641C33.6589 6.03169 32.3233 4.69725 30.6937 4.69725C29.0375 4.69725 27.7018 6.03169 27.7018 7.68641ZM23.8551 10.6756C25.4846 10.6756 26.847 9.34112 26.847 7.68641C26.847 6.03169 25.5113 4.69725 23.8551 4.69725C22.1989 4.69725 20.8632 6.03169 20.8632 7.68641C20.8899 9.34112 22.1989 10.6756 23.8551 10.6756ZM46.0005 18.362L43.4361 26.0484L40.8716 18.362H32.35V32H37.4522V21.7515L40.8716 31.9733H45.9738L49.3664 21.7515V31.9733H54.4687V18.3353H46.0005V18.362ZM22.1454 18.362H17.0432V32H30.667V28.5571H22.1454V18.362ZM15.3335 18.362H10.2312L5.10227 23.4862V18.362H0V32H5.10227V26.8757L10.2312 32H17.0432L9.37642 24.3136L15.3335 18.362Z" fill="white"/>
</svg>
