<svg width="96" height="24" viewBox="0 0 96 24" fill="none" xmlns="http://www.w3.org/2000/svg">
<path d="M76.2351 0.562912C76.2334 0.557006 76.2317 0.551296 76.2306 0.545391L75.965 0.0330067C75.9465 -0.00276611 75.8932 0.00455143 75.885 0.043997L75.786 0.521686C75.7785 0.557743 75.732 0.568147 75.7098 0.538704L75.4126 0.143964C75.3882 0.111423 75.3363 0.128179 75.3356 0.16887L75.3265 0.663142C75.326 0.699618 75.2827 0.718573 75.2553 0.694416L74.873 0.357022C74.8428 0.330436 74.7959 0.356207 74.8023 0.395847L74.8815 0.889059C74.8874 0.925474 74.8474 0.951719 74.8162 0.931932L74.3923 0.662846C74.3583 0.641217 74.3158 0.674378 74.3287 0.712589L74.5126 1.25805C74.5159 1.2633 74.5187 1.26838 74.5219 1.27363L75.7567 2.59092C75.7679 2.60294 75.7866 2.60364 75.7991 2.59297C75.9355 2.47719 76.1076 2.40282 76.2966 2.38871C76.3133 2.38746 76.3262 2.37349 76.3253 2.35676L76.2351 0.562912Z" fill="white"/>
<path d="M74.3684 1.43547C74.3628 1.43242 74.358 1.42947 74.3527 1.42642L73.8021 1.25166C73.7636 1.23946 73.7311 1.28224 73.7533 1.31591L74.0215 1.72364C74.0417 1.75442 74.0159 1.79466 73.9796 1.78948L73.4902 1.72C73.4499 1.71427 73.4251 1.76274 73.4534 1.79203L73.797 2.14791C73.8223 2.17418 73.8052 2.21805 73.7688 2.2203L73.2595 2.25174C73.2194 2.25422 73.2045 2.30556 73.237 2.32909L73.6422 2.62192C73.6721 2.64354 73.6625 2.69031 73.6264 2.69833L73.1361 2.80743C73.0967 2.81619 73.0902 2.86957 73.1264 2.88749L73.6426 3.14338C73.6485 3.14488 73.6543 3.14632 73.6602 3.14782L75.4661 3.20731C75.4826 3.20785 75.4962 3.19523 75.4976 3.17883C75.5119 3.00066 75.581 2.82651 75.7047 2.68308C75.7156 2.67038 75.7148 2.65143 75.7024 2.64019L74.3684 1.43547Z" fill="white"/>
<path d="M73.6662 3.37066C73.6603 3.37226 73.6546 3.3738 73.6487 3.3754L73.1356 3.64064C73.0998 3.65916 73.1072 3.71234 73.1466 3.72051L73.625 3.81943C73.6611 3.8269 73.6715 3.8734 73.642 3.89552L73.2467 4.192C73.2141 4.21644 73.2309 4.26823 73.2717 4.26897L73.7666 4.27799C73.8031 4.27866 73.8221 4.32175 73.7979 4.34909L73.4601 4.73096C73.4334 4.76104 73.4595 4.80787 73.499 4.80151L73.9928 4.72243C74.0293 4.71659 74.0556 4.75649 74.0358 4.78761L73.7663 5.21098C73.7447 5.24502 73.7779 5.28734 73.8161 5.27447L74.3623 5.09089C74.3674 5.08775 74.3727 5.08472 74.378 5.08157L75.697 3.84842C75.7091 3.83716 75.7097 3.81857 75.6992 3.80602C75.5833 3.66985 75.5088 3.49798 75.4947 3.30925C75.4936 3.29255 75.4795 3.27972 75.4627 3.28055L73.6662 3.37066Z" fill="white"/>
<path d="M74.5399 5.23488C74.5371 5.24019 74.534 5.24531 74.5309 5.25061L74.3559 5.80048C74.3437 5.83887 74.3865 5.8713 74.4202 5.84919L74.8285 5.58135C74.8593 5.56114 74.8996 5.58667 74.8944 5.62313L74.8249 6.11189C74.8191 6.15218 74.8677 6.17695 74.897 6.14871L75.2533 5.80559C75.2796 5.78027 75.3236 5.79733 75.3258 5.83374L75.3573 6.34233C75.3595 6.3824 75.4112 6.3973 75.4348 6.36477L75.728 5.9601C75.7496 5.93022 75.7964 5.93987 75.8045 5.97587L75.9137 6.46552C75.9225 6.50487 75.9759 6.51135 75.9939 6.47523L76.2501 5.95973C76.2518 5.95379 76.2529 5.94806 76.2546 5.94212L76.3142 4.13864C76.3147 4.12219 76.302 4.10858 76.2856 4.10726C76.1072 4.09286 75.9328 4.02391 75.7892 3.90042C75.7765 3.88949 75.7575 3.8903 75.7463 3.90273L74.5399 5.23488Z" fill="white"/>
<path d="M76.4778 5.93608C76.4794 5.94199 76.4811 5.94769 76.4822 5.9536L76.7478 6.46599C76.7663 6.50177 76.8196 6.49445 76.8278 6.455L76.9268 5.97731C76.9343 5.94125 76.9809 5.93085 77.003 5.96029L77.2999 6.35502C77.3244 6.38757 77.3762 6.37081 77.377 6.33012L77.386 5.83585C77.3866 5.79937 77.4298 5.78042 77.4572 5.80457L77.8396 6.14197C77.8697 6.16855 77.9166 6.1428 77.9102 6.10314L77.831 5.60993C77.8252 5.57351 77.8652 5.54727 77.8963 5.56706L78.3203 5.83614C78.3543 5.85777 78.3967 5.82461 78.3838 5.7864L78.2 5.24094C78.1967 5.23569 78.1938 5.23061 78.1907 5.22535L76.9559 3.90807C76.9446 3.89604 76.926 3.89535 76.9134 3.90602C76.7771 4.0218 76.605 4.09617 76.416 4.11027C76.3993 4.11152 76.3864 4.1255 76.3872 4.14223L76.4778 5.93608Z" fill="white"/>
<path d="M78.3445 5.06354C78.35 5.06659 78.3549 5.06954 78.3602 5.07259L78.9108 5.24735C78.9492 5.25955 78.9817 5.21677 78.9596 5.18309L78.6914 4.77537C78.6711 4.74459 78.697 4.70435 78.7332 4.70953L79.2226 4.77901C79.263 4.78474 79.2878 4.73628 79.2594 4.70698L78.9159 4.3511C78.8906 4.32484 78.9077 4.28096 78.9441 4.27871L79.4534 4.24727C79.4935 4.24479 79.5084 4.19345 79.4759 4.16992L79.0707 3.87709C79.0407 3.85547 79.0504 3.80871 79.0864 3.80068L79.5768 3.69159C79.6162 3.68282 79.6226 3.62945 79.5865 3.61152L79.0703 3.35563C79.0644 3.35414 79.0586 3.35269 79.0526 3.35119L77.2467 3.29171C77.2303 3.29116 77.2167 3.30378 77.2153 3.32018C77.2009 3.49835 77.1319 3.6725 77.0082 3.81593C76.9973 3.82863 76.9981 3.84758 77.0104 3.85882L78.3445 5.06354Z" fill="white"/>
<path d="M79.0466 3.12832C79.0525 3.12672 79.0582 3.12518 79.0641 3.12358L79.5772 2.85834C79.613 2.83982 79.6057 2.78664 79.5662 2.77847L79.0879 2.67955C79.0518 2.67208 79.0414 2.62557 79.0709 2.60345L79.4661 2.30698C79.4987 2.28254 79.4819 2.23075 79.4412 2.23001L78.9463 2.22098C78.9098 2.22032 78.8908 2.17723 78.9149 2.14989L79.2528 1.76802C79.2794 1.73793 79.2533 1.6911 79.2139 1.69746L78.72 1.77655C78.6835 1.78239 78.6573 1.74249 78.6771 1.71137L78.9465 1.28799C78.9682 1.25396 78.935 1.21164 78.8967 1.22451L78.3505 1.40809C78.3455 1.41123 78.3402 1.41426 78.3349 1.4174L77.0159 2.65056C77.0038 2.66181 77.0032 2.68041 77.0136 2.69296C77.1296 2.82913 77.204 3.001 77.2182 3.18973C77.2193 3.20643 77.2334 3.21926 77.2502 3.21842L79.0466 3.12832Z" fill="white"/>
<path d="M78.1729 1.26412C78.1757 1.25881 78.1789 1.25369 78.1819 1.24838L78.3569 0.698518C78.3691 0.660127 78.3263 0.627692 78.2926 0.649807L77.8843 0.917642C77.8535 0.937859 77.8132 0.912328 77.8184 0.875869L77.888 0.387106C77.8937 0.346812 77.8452 0.322047 77.8158 0.35029L77.4595 0.693411C77.4332 0.718729 77.3892 0.701666 77.387 0.665257L77.3555 0.156662C77.3533 0.116592 77.3017 0.1017 77.2781 0.134224L76.9848 0.538905C76.9632 0.568783 76.9164 0.559127 76.9083 0.523131L76.7991 0.0334864C76.7903 -0.00586982 76.7369 -0.0123501 76.7189 0.0237687L76.4627 0.539273C76.461 0.545212 76.4599 0.550944 76.4582 0.556883L76.3987 2.36036C76.3981 2.37681 76.4108 2.39042 76.4272 2.39174C76.6056 2.40615 76.78 2.47509 76.9236 2.59858C76.9363 2.60951 76.9553 2.6087 76.9665 2.59627L78.1729 1.26412Z" fill="white"/>
<path d="M76.3564 4.00963C76.7763 4.00963 77.1166 3.6693 77.1166 3.24948C77.1166 2.82966 76.7763 2.48933 76.3564 2.48933C75.9366 2.48933 75.5963 2.82966 75.5963 3.24948C75.5963 3.6693 75.9366 4.00963 76.3564 4.00963Z" fill="white"/>
<path d="M16.3006 18.6702C16.3006 21.5694 14.0366 23.7658 9.47845 23.7658H0V4.37894H8.96508C13.6744 4.37894 15.2743 7.16113 15.2743 9.50385C15.2743 11.9931 14.0065 13.2523 12.5875 13.8673C14.278 14.3945 16.3006 15.7709 16.3006 18.6702ZM2.26363 13.0475H8.96508C11.0482 13.0475 13.0103 12.0518 13.0103 9.67952C13.0103 8.06888 11.9538 6.45824 9.20692 6.45824H2.26363V13.0475ZM14.0366 18.4944C14.0366 16.6787 12.6481 15.0388 9.47845 15.0388H2.26363V21.6865H9.71989C12.4668 21.6865 14.0366 20.5151 14.0366 18.4944Z" fill="white"/>
<path d="M30.6083 19.5488H33.0837C32.0273 22.1843 29.7934 24 26.201 24C21.5827 24 18.5638 20.6322 18.5638 16.4444C18.5638 12.2567 21.4315 8.88889 26.0502 8.88889C30.6689 8.88889 33.5365 12.2567 33.5365 16.4444V17.323H20.888C21.2201 19.9293 23.1825 22.0086 26.2311 22.0086C28.3443 22.0086 29.7934 21.013 30.6083 19.5488ZM20.9185 15.2731H31.1819C30.7591 12.7839 28.9479 10.8803 26.0502 10.8803C23.1521 10.8803 21.3408 12.7839 20.9185 15.2731Z" fill="white"/>
<path d="M38.5768 23.7658H36.3127V3.26614H38.5768V23.7658Z" fill="white"/>
<path d="M54.2734 11.4952V9.12312H56.5374V23.7658H54.2734V21.4231C53.1564 23.0043 51.3752 24 48.8698 24C44.4628 24 41.5647 20.6322 41.5647 16.4444C41.5647 12.2567 44.4628 8.88889 48.8698 8.88889C51.3752 8.88889 53.1564 9.91395 54.2734 11.4952ZM54.3941 16.4444C54.3941 13.428 52.5223 10.8803 49.1718 10.8803C45.8208 10.8803 43.8287 13.428 43.8287 16.4444C43.8287 19.4609 45.8208 22.0086 49.1718 22.0086C52.5223 22.0086 54.3941 19.4609 54.3941 16.4444Z" fill="white"/>
<path d="M73.1091 9.12312L67.2226 23.7658H64.566L58.6494 9.12312H61.1248L65.8943 21.4231L70.6337 9.12312H73.1091Z" fill="white"/>
<path d="M75.2215 9.12312H77.4856V23.7658H75.2215V9.12312Z" fill="white"/>
<path d="M93.1822 11.4952V9.12312H95.4462V23.7658H93.1822V21.4231C92.0652 23.0043 90.2841 24 87.7786 24C83.3717 24 80.4735 20.6322 80.4735 16.4444C80.4735 12.2567 83.3717 8.88889 87.7786 8.88889C90.2841 8.88889 92.0652 9.91395 93.1822 11.4952ZM93.3029 16.4444C93.3029 13.428 91.4311 10.8803 88.0806 10.8803C84.7297 10.8803 82.7376 13.428 82.7376 16.4444C82.7376 19.4609 84.7297 22.0086 88.0806 22.0086C91.4311 22.0086 93.3029 19.4609 93.3029 16.4444Z" fill="white"/>
</svg>
