<svg width="135" height="24" viewBox="0 0 135 24" fill="none" xmlns="http://www.w3.org/2000/svg">
<path d="M21.1529 7.25928C21.6314 7.26312 21.9588 7.40831 22.2236 7.53367C22.7788 7.79655 23.4261 8.09716 24.239 8.4854C24.239 8.49116 25.5534 7.55606 25.6244 7.51129C26.0689 7.20492 26.4968 7.43837 26.6375 7.69933C27.1268 8.61972 28.0299 10.5328 28.5064 12.2814C28.564 12.4925 28.4975 12.8206 28.1642 12.9178C27.9775 12.9722 27.6507 13.0202 27.3104 13.0637C26.832 13.1212 26.8435 13.5037 26.8435 13.7372C26.8435 14.025 26.8467 15.9585 26.8467 16.6154C26.8575 17.026 26.5493 18.3487 25.0129 18.3474C24.9106 18.3474 21.4983 18.3474 21.5156 18.3455C20.1916 18.3525 19.1286 17.2364 19.1209 16.0481C19.1209 15.2658 19.1209 9.82921 19.1248 9.21902C19.1286 8.0396 20.1871 7.24585 21.1529 7.25928Z" fill="white"/>
<path d="M15.6178 18.3474H4.24568V19.6087H17.5916C17.5916 19.6087 18.072 18.4926 18.072 17.2588L18.0758 8.69645C18.0758 8.02039 18.3527 6.8819 19.7413 6.57809C19.7829 6.57042 19.82 6.56274 19.859 6.55379C23.7977 5.62636 27.8579 6.47128 30.1457 7.45882C30.5615 7.6571 30.6542 7.32834 30.6414 7.18827C30.69 5.26371 29.2241 3.06923 26.5288 2.93875C24.3413 2.88631 23.1287 3.6743 22.6784 3.89176C22.6464 3.90711 22.5901 3.89944 22.5415 3.84379C22.1379 3.44596 21.2744 2.85113 20.308 2.5729C20.1622 2.54284 20.1487 2.32985 20.315 2.31131C22.3867 2.08936 24.2 2.32282 24.9566 2.44562C25.1325 2.47568 25.2617 2.37335 25.192 2.21409C25.1402 2.09128 25.0954 2.03308 25.0072 1.84504C24.8242 1.45104 24.3356 1.02954 23.7152 0.85749C22.0893 0.405931 19.3147 0.0157735 16.8439 0.000423015C14.061 -0.0174858 11.1297 0.538328 10.3878 0.702706C10.2119 0.741722 9.96308 0.803124 9.91639 0.814636C9.71683 0.855571 9.66631 1.04617 9.75585 1.13955C9.81214 1.20287 9.96308 1.32952 10.0379 1.41906C10.1275 1.53291 10.1722 1.69729 9.99698 1.86678L4.85266 6.47895H8.37047L8.41205 6.47703C8.64166 6.47128 8.85657 6.67851 8.86041 6.94202C8.86041 7.17868 8.66789 7.40254 8.42868 7.40254L8.40053 7.40446H3.82802L2.42793 8.67407H8.41333L8.44722 8.67215C8.6826 8.67407 8.86616 8.91648 8.86233 9.1365C8.86041 9.34181 8.68835 9.5919 8.44722 9.5919L8.41205 9.59381H1.40201L0 10.8577H12.0923L12.1301 10.8615C12.3693 10.8615 12.5522 11.1039 12.556 11.3169C12.5599 11.5651 12.384 11.7902 12.139 11.7889L12.107 11.787H0V13.047H12.0795L12.1166 13.0483C12.3936 13.0502 12.5541 13.3022 12.5522 13.5318C12.5522 13.741 12.3501 13.9649 12.1089 13.9649L12.077 13.9668H0V15.2396H15.7713L15.8103 15.2377C16.07 15.2453 16.2389 15.4692 16.2312 15.7135C16.2235 15.9265 16.0457 16.1561 15.8103 16.1561L15.7764 16.1542H4.24696V17.4232H15.6178L15.857 17.4213C16.0719 17.4213 16.2555 17.6867 16.2555 17.899C16.2555 18.114 16.0662 18.3468 15.8532 18.3468L15.6178 18.3474ZM8.49008 22.7089V23.9983C8.49008 23.9983 10.1991 24.0021 11.1726 23.9983C13.5749 23.9836 15.1509 22.7089 15.1509 22.7089H8.48944H8.49008ZM8.49008 20.5342V21.7981H16.2088C16.5657 21.438 17.0256 20.7792 17.1452 20.5361L8.49008 20.5342ZM127.76 17.0068C127.675 17.0141 127.59 17.0183 127.505 17.0196C127.421 17.018 127.337 17.0137 127.253 17.0068C126.814 16.9692 126.395 16.8031 126.05 16.529C125.945 16.4435 125.848 16.3493 125.76 16.2476C125.255 15.6783 124.984 14.7151 124.922 13.9514C124.773 12.1752 125.13 9.57718 127.315 9.40193C127.371 9.39554 127.425 9.39554 127.481 9.39426C127.489 9.39618 127.498 9.39426 127.505 9.39426C127.513 9.39426 127.523 9.39618 127.532 9.39426C127.586 9.39618 127.642 9.39618 127.697 9.40193C129.883 9.57718 130.24 12.1752 130.092 13.9521C130.027 14.7151 129.782 15.6636 129.253 16.2476C129.163 16.3475 129.066 16.4415 128.964 16.529C128.616 16.7945 128.206 16.9716 127.76 17.0068ZM132.998 12.7259C132.994 12.7036 132.992 12.6793 132.99 12.6588C132.952 11.7515 132.666 10.8722 132.162 10.1164C131.205 8.61778 129.526 7.81188 127.506 7.83747C125.485 7.81188 123.808 8.61778 122.851 10.1164C122.347 10.8718 122.06 11.7514 122.023 12.6588C122.021 12.6793 122.017 12.7036 122.016 12.7259C121.739 16.0161 123.661 18.2892 126.932 18.5508C127.124 18.5655 127.317 18.5732 127.505 18.5713C127.695 18.5732 127.885 18.5655 128.081 18.5508C131.353 18.2892 133.271 16.0161 132.998 12.7259ZM111.24 10.2788C111.24 9.46334 111.318 8.03574 111.318 8.03574H108.635C108.635 8.03574 108.716 9.46334 108.716 10.2788L108.71 16.1395C108.71 16.9531 108.635 18.3397 108.635 18.3397H111.318C111.318 18.3397 111.245 16.9531 111.245 16.1395L111.24 10.2788ZM95.5668 16.7458C95.0103 16.7458 94.2716 16.7458 93.7017 16.7478C93.68 15.7661 93.6667 14.7843 93.662 13.8024L93.6601 13.6623L93.662 13.661V13.6387H96.7596V12.1823H93.664C93.6755 10.6127 93.7017 9.58102 93.7017 9.58102L97.5483 9.5791V8.03382C94.8619 8.04278 90.9783 8.03382 90.9783 8.03382C90.9783 8.03382 91.0378 9.45566 91.0378 10.2699V16.1171C91.0378 16.8616 90.9891 18.1267 90.9802 18.3378H97.8028L97.8086 16.6992C97.8086 16.6992 96.4641 16.7458 95.5668 16.7458ZM50.8445 16.7458C50.2855 16.7458 49.5474 16.7458 48.9807 16.7478C48.9561 15.7668 48.9419 14.7856 48.9379 13.8043L48.936 13.6623H48.9379V13.6399H52.0355V12.1823H48.9398C48.9487 10.6127 48.9807 9.58102 48.9807 9.58102L52.826 9.5791V8.03382C50.1378 8.0447 46.2554 8.03382 46.2554 8.03382C46.2554 8.03382 46.3129 9.45758 46.3129 10.2699V16.1171C46.3129 16.8616 46.265 18.1267 46.2592 18.3378H53.078L53.0844 16.6992C53.0844 16.6992 51.74 16.7458 50.8445 16.7458ZM104.349 12.7963L107.312 8.03766H105.257L105.243 8.08243C104.62 9.15185 103.848 10.449 103.541 10.9223L103.422 11.1148L101.708 8.03766H98.6196L101.596 13.3655L98.4962 18.3397H100.536C101.857 16.0851 102.538 15.0477 102.538 15.0477L104.375 18.3397H107.448L104.349 12.7963ZM119.606 16.9384C117.219 16.9384 115.934 15.1839 116 13.0304C116.056 11.15 116.916 9.55288 118.967 9.41664C119.752 9.36228 120.393 9.49851 121.494 9.79401L121.38 8.18285C121.38 8.18285 120.449 7.88864 119.111 7.83555C117.408 7.77031 115.871 8.09906 114.643 9.22796C113.551 10.2302 112.897 11.7141 112.897 13.1513C112.897 14.7471 113.556 16.2175 114.787 17.2345C116.069 18.3135 117.443 18.5559 119.077 18.5559C120.148 18.5559 120.78 18.4856 121.821 18.2054L121.664 16.6224C121.446 16.6992 120.69 16.9384 119.606 16.9384H119.606ZM85.1457 6.49238L88.1365 6.49047L88.221 7.17676C88.8861 14.0602 89.2974 18.3417 89.2974 18.3417H86.1851L85.8781 14.0768L85.5928 10.268L82.9551 18.3378C82.2599 18.3397 81.2896 18.3378 81.2896 18.3378C81.2896 18.3378 80.4581 15.4692 80.3008 15.0682L78.7919 10.2283C78.7919 10.2283 78.5617 12.9236 78.4709 14.0768C78.2892 16.3877 78.1268 18.3417 78.1268 18.3417H75.805C75.805 18.3417 76.7567 8.70541 76.8277 8.11953C76.8981 7.51639 77.0145 6.49238 77.0145 6.49238H80.0654L82.5963 13.4314L85.1457 6.49174V6.49238ZM69.3373 17.0017C69.1692 17.0161 69.0002 17.0161 68.8321 17.0017C68.3543 16.9588 67.9782 16.7887 67.6341 16.5258C67.5315 16.4402 67.4359 16.3465 67.3482 16.2457C66.8455 15.6803 66.5743 14.7189 66.5109 13.9591C66.3613 12.19 66.7201 9.60533 68.8967 9.43136C68.9523 9.42624 69.0086 9.4224 69.0604 9.42048H69.1116C69.1653 9.4224 69.2197 9.42624 69.274 9.43136C71.4512 9.60533 71.81 12.19 71.6591 13.9597C71.5951 14.7189 71.3508 15.6611 70.8212 16.2457C70.7278 16.3499 70.6345 16.444 70.5353 16.5258C70.1903 16.7968 69.7742 16.9621 69.3373 17.0017ZM74.5507 12.7407C74.5488 12.7164 74.545 12.694 74.545 12.6716C74.5059 11.7686 74.2208 10.8934 73.7205 10.1407C72.7675 8.64976 71.0962 7.84706 69.0847 7.87137C67.0738 7.84706 65.4044 8.64976 64.4508 10.1407C63.9497 10.893 63.6645 11.7684 63.6263 12.6716C63.6231 12.694 63.6212 12.7164 63.6174 12.7407C63.3424 16.0141 65.2567 18.2796 68.5148 18.5374C68.7073 18.554 68.8986 18.5598 69.0847 18.5578C69.274 18.5598 69.4646 18.554 69.6571 18.5374C72.9153 18.2802 74.8277 16.0141 74.5507 12.7407ZM38.0064 13.2914L39.2984 9.45566L39.3726 9.22988L40.7241 13.2914H38.0064ZM45.6087 18.3378C45.2448 17.484 44.8939 16.6247 44.556 15.7602L41.0701 6.49238H38.3582C38.3582 6.49238 37.5817 8.66255 37.4692 9.02521L34.9255 16.2143C34.6645 16.9243 34.3991 17.633 34.1292 18.3397H36.346C36.346 18.3397 36.9741 16.3391 37.1014 15.979L37.4436 14.9786H41.285L41.8082 16.5009C41.917 16.7868 42.3711 18.3135 42.3788 18.3378H45.6087ZM59.0167 12.5878C58.6151 12.7963 57.7139 12.7368 57.2636 12.7093L57.3007 9.76587L57.5514 9.74668C58.3701 9.68336 58.97 9.79529 59.2188 9.9021C59.5853 10.0658 59.8041 10.4151 59.8226 10.9939C59.8508 11.8618 59.522 12.3262 59.0167 12.5878ZM63.7536 18.3397C63.1127 17.4193 62.8774 17.0388 62.3874 16.3634L60.5326 13.4928C61.4248 13.0541 62.2582 12.3185 62.3874 10.7809C62.4661 9.81767 61.9499 9.02073 61.6436 8.74826C61.1984 8.35491 60.7628 8.19437 60.1463 8.12145C59.6563 8.05621 59.2975 8.05045 59.0001 8.02999H54.6444C54.6444 8.02999 54.6968 9.4563 54.6968 10.2699V16.0979C54.6968 16.9102 54.645 18.3365 54.645 18.3365H57.325C57.325 18.3365 57.2469 16.9102 57.2469 16.0979L57.2636 14.2284C57.2636 14.2284 57.8488 14.2303 58.2582 14.2303L59.9569 17.3336C60.1834 17.7315 60.5121 18.2227 60.5889 18.3397H63.7536ZM133.555 17.2441H133.741C133.869 17.2441 133.977 17.2275 133.977 17.0727C133.977 16.9384 133.854 16.916 133.743 16.916H133.555V17.2441ZM133.342 16.7516H133.768C134.043 16.7516 134.194 16.8469 134.194 17.0893C134.194 17.285 134.079 17.3822 133.889 17.397L134.199 17.901H133.981L133.684 17.4066H133.555V17.901H133.342V16.7516ZM134.501 17.3317C134.501 16.8559 134.155 16.5143 133.731 16.5143C133.304 16.5143 132.962 16.8559 132.962 17.3317C132.962 17.8057 133.304 18.1472 133.731 18.1472C134.155 18.1472 134.501 17.8057 134.501 17.3317ZM132.717 17.3317C132.717 16.7718 133.17 16.3174 133.73 16.3167C134.29 16.316 134.744 16.7693 134.745 17.3292C134.746 17.889 134.292 18.3435 133.732 18.3442C133.173 18.3449 132.718 17.8916 132.717 17.3317Z" fill="white"/>
<path d="M104.506 21.2384C84.503 16.893 75.9713 23.7297 75.9713 23.7297C75.9713 23.7297 85.282 18.2291 104.497 22.4006C124.096 26.6539 133.023 19.3817 133.023 19.3817C133.023 19.3817 123.068 25.273 104.506 21.2384Z" fill="white"/>
</svg>
