<svg height="32" viewBox="0 0 186 32" width="186" xmlns="http://www.w3.org/2000/svg"><g fill="none" fill-rule="evenodd"><path d="m111.869617 13.2595644c-.867743-5.43081064-5.146271-8.45624356-10.581456-8.45624356-5.3223279 0-10.119997 3.08094545-10.9867374 8.45624356zm-21.7432469 4.4519067c.4619607 6.1742821 6.0155197 9.4871907 11.1617909 9.4871907 3.295419 0 7.807185-1.084477 9.771897-5.3128466h6.129881c-2.893649 7.2012639-9.656532 10.1141848-15.613366 10.1141848-11.7973003 0-17.576573-7.3697841-17.576573-16.0029739 0-8.62625072 5.7792727-15.9970261 17.576573-15.9970261 7.977724 0 16.423427 4.57234906 16.423427 16.9709736v.7404975z" fill="#0095ce"/><path d="m34.7433045 26.5813463v-25.5813463h-5.1085478v30h23.3652433v-4.4186537zm-17.8856448 0h-11.74911195v-9.0296557h12.12763355c4.8410924 0 5.5642679 2.7381628 5.5642679 4.3709318 0 3.0912072-2.000188 4.6587239-5.9427895 4.6587239zm-11.74911195-21.16269258h11.58126745c3.2786946 0 4.8062286 1.2441768 4.8062286 3.91854822 0 2.37635336-1.7028493 3.79583486-4.5542128 3.79583486h-11.83328325zm17.66401035 9.45866538c2.5410754-1.1599331 3.8315353-3.2387553 3.8315353-6.19897086 0-3.50317334-1.6620087-7.67834824-9.5790873-7.67834824h-17.0250061v30h18.0773958c6.7546188 0 9.830605-4.5579236 9.830605-8.7890986 0-3.771974-1.773573-6.290032-5.1354427-7.3335823z" fill="#0095ce"/><path d="m135.913231 26.5813463h-11.787843v-9.0296557h12.168112c4.856052 0 5.582611 2.7381628 5.582611 4.3709318 0 3.0912072-2.006782 4.6587239-5.96288 4.6587239zm-11.787843-21.16269258h11.619445c3.290003 0 4.822073 1.2441768 4.822073 3.91854822 0 2.37635336-1.708463 3.79583486-4.569226 3.79583486h-11.872292zm17.72224 9.45866538c2.549452-1.1599331 3.844166-3.2387553 3.844166-6.19897086 0-3.50317334-1.667987-7.67834824-9.610665-7.67834824h-17.081129v30h18.136988c6.776886 0 9.863012-4.5579236 9.863012-8.7890986 0-3.771974-1.77942-6.290032-5.152372-7.3335823z" fill="#021c3e"/><path d="m83 30.9723811h-5.6940551v-4.5206389h-.1134216c-2.6746953 4.1762982-7.4002673 5.5482578-11.6716642 5.5482578-7.1714686 0-12.5208591-3.0892424-12.5208591-10.5831973v-20.4168027h5.6916107v19.2732574c0 4.4066773 2.7304283 6.9202174 8.8229255 6.9202174 5.1812138 0 9.7914087-3.0298056 9.7914087-8.9204393v-17.2730355h5.6940551z" fill="#0095ce"/><g fill="#021c3e"><path d="m149 31h6v-30h-6z"/><path d="m155 26.3028599 22.198992-20.49474452h-21.11004v-4.80811538h29.046567v4.46296749l-22.486825 20.72353951h23.351306v4.813493h-31z"/></g></g></svg>