<svg xmlns="http://www.w3.org/2000/svg" width="109" height="28" viewBox="0 0 109 28"><g fill-rule="evenodd"><path d="M0 1.5v24h24v-24zm24 17l5-5-5-5z" fill="#2E304F"/><path fill="#CFAE9A" d="M40.48 11.168c-2.198 0-3.822-1.722-3.822-3.822v-.028c0-2.1 1.624-3.864 3.85-3.864 1.162 0 1.96.378 2.59.924a.803.803 0 0 1 .266.588.77.77 0 0 1-.784.77.864.864 0 0 1-.504-.168c-.434-.364-.91-.63-1.582-.63-1.232 0-2.142 1.064-2.142 2.352v.028c0 1.316.91 2.366 2.212 2.366.672 0 1.19-.266 1.652-.658a.736.736 0 0 1 .462-.182c.406 0 .728.336.728.742a.66.66 0 0 1-.238.532c-.658.63-1.456 1.05-2.688 1.05zm4.676-.938V1.55c0-.462.364-.84.84-.84s.854.378.854.84v8.68c0 .476-.378.84-.854.84a.834.834 0 0 1-.84-.84zm10.472-5.852v5.852c0 .462-.378.84-.854.84a.845.845 0 0 1-.854-.84v-.378c-.476.7-1.162 1.302-2.31 1.302-1.666 0-2.632-1.12-2.632-2.842V4.378c0-.476.378-.854.84-.854.476 0 .854.378.854.854v3.43c0 1.148.574 1.792 1.582 1.792.98 0 1.666-.672 1.666-1.82V4.378c0-.476.378-.854.854-.854.462 0 .854.378.854.854zm2.114 5.852V1.55c0-.476.364-.84.84-.84s.854.364.854.84v3.29c.546-.77 1.316-1.386 2.52-1.386 1.736 0 3.43 1.372 3.43 3.836v.028c0 2.45-1.68 3.836-3.43 3.836-1.232 0-2.002-.616-2.52-1.302v.378c0 .462-.378.84-.854.84a.842.842 0 0 1-.84-.84zm3.808-.546c1.162 0 2.114-.91 2.114-2.366V7.29c0-1.428-.966-2.366-2.114-2.366s-2.156.952-2.156 2.366v.028c0 1.414 1.008 2.366 2.156 2.366zm9.324.504c0-.336.154-.616.448-.854l3.01-2.562c1.344-1.134 1.834-1.764 1.834-2.646 0-.966-.686-1.526-1.582-1.526-.784 0-1.33.364-1.932 1.092a.788.788 0 0 1-.602.266.783.783 0 0 1-.784-.784c0-.182.07-.378.196-.532.798-.994 1.708-1.582 3.248-1.582 1.918 0 3.234 1.176 3.234 2.926v.028c0 1.54-.812 2.38-2.548 3.794l-2.016 1.68h3.976c.42 0 .756.336.756.756s-.336.756-.756.756h-5.558c-.532 0-.924-.308-.924-.812zm13.034.98c-2.576 0-4.256-2.24-4.256-5.04V6.1c0-2.8 1.708-5.068 4.284-5.068 2.562 0 4.256 2.24 4.256 5.04V6.1c0 2.8-1.708 5.068-4.284 5.068zm.028-1.554c1.526 0 2.478-1.568 2.478-3.486V6.1c0-1.932-.994-3.514-2.506-3.514-1.512 0-2.478 1.54-2.478 3.486V6.1c0 1.932.98 3.514 2.506 3.514zm10.108 1.554c-2.576 0-4.256-2.24-4.256-5.04V6.1c0-2.8 1.708-5.068 4.284-5.068 2.562 0 4.256 2.24 4.256 5.04V6.1c0 2.8-1.708 5.068-4.284 5.068zm.028-1.554c1.526 0 2.478-1.568 2.478-3.486V6.1c0-1.932-.994-3.514-2.506-3.514-1.512 0-2.478 1.54-2.478 3.486V6.1c0 1.932.98 3.514 2.506 3.514zm10.108 1.554c-2.576 0-4.256-2.24-4.256-5.04V6.1c0-2.8 1.708-5.068 4.284-5.068 2.562 0 4.256 2.24 4.256 5.04V6.1c0 2.8-1.708 5.068-4.284 5.068zm.028-1.554c1.526 0 2.478-1.568 2.478-3.486V6.1c0-1.932-.994-3.514-2.506-3.514-1.512 0-2.478 1.54-2.478 3.486V6.1c0 1.932.98 3.514 2.506 3.514zM39.598 25.14c-.938 0-1.96-.294-2.814-.882-.182-.098-.322-.308-.322-.588 0-.378.294-.686.686-.686a.74.74 0 0 1 .364.098c.714.476 1.456.714 2.128.714.728 0 1.148-.308 1.148-.798v-.028c0-.574-.784-.77-1.652-1.036-1.092-.308-2.31-.756-2.31-2.17v-.028c0-1.4 1.162-2.254 2.632-2.254.784 0 1.61.224 2.324.602.238.126.406.35.406.644a.682.682 0 0 1-.7.686.665.665 0 0 1-.336-.084c-.602-.308-1.218-.504-1.736-.504-.658 0-1.036.308-1.036.728v.028c0 .546.798.77 1.666 1.05 1.078.336 2.296.826 2.296 2.156v.028c0 1.554-1.204 2.324-2.744 2.324zm4.48-.91v-8.68c0-.462.364-.84.84-.84s.854.378.854.84v5.46l3.178-3.122c.224-.224.434-.364.728-.364.448 0 .742.364.742.77 0 .28-.14.49-.378.714l-1.96 1.806 2.24 2.926c.154.21.224.364.224.56 0 .462-.364.77-.798.77-.336 0-.532-.112-.742-.378l-2.114-2.814-1.12 1.064v1.288c0 .476-.378.84-.854.84a.834.834 0 0 1-.84-.84zm8.092-8.526v-.084c0-.504.42-.826.966-.826s.966.322.966.826v.084c0 .504-.42.84-.966.84s-.966-.336-.966-.84zm.126 8.526v-5.852c0-.476.364-.854.84-.854s.854.378.854.854v5.852c0 .476-.378.84-.854.84a.834.834 0 0 1-.84-.84zm3.906 2.24v-8.092c0-.476.364-.854.84-.854s.854.378.854.854v.462c.546-.77 1.316-1.386 2.52-1.386 1.736 0 3.43 1.372 3.43 3.836v.028c0 2.45-1.68 3.836-3.43 3.836-1.232 0-2.002-.616-2.52-1.302v2.618c0 .476-.378.84-.854.84a.834.834 0 0 1-.84-.84zm3.808-2.786c1.162 0 2.114-.91 2.114-2.366v-.028c0-1.428-.966-2.366-2.114-2.366s-2.156.952-2.156 2.366v.028c0 1.414 1.008 2.366 2.156 2.366zm5.586 2.786v-8.092c0-.476.364-.854.84-.854s.854.378.854.854v.462c.546-.77 1.316-1.386 2.52-1.386 1.736 0 3.43 1.372 3.43 3.836v.028c0 2.45-1.68 3.836-3.43 3.836-1.232 0-2.002-.616-2.52-1.302v2.618c0 .476-.378.84-.854.84a.834.834 0 0 1-.84-.84zm3.808-2.786c1.162 0 2.114-.91 2.114-2.366v-.028c0-1.428-.966-2.366-2.114-2.366s-2.156.952-2.156 2.366v.028c0 1.414 1.008 2.366 2.156 2.366zm6.86-2.898h3.794c-.112-1.092-.756-1.946-1.876-1.946-1.036 0-1.764.798-1.918 1.946zm4.774 3.402c-.672.602-1.512.98-2.66.98-2.142 0-3.794-1.554-3.794-3.836v-.028c0-2.114 1.498-3.85 3.612-3.85 2.352 0 3.514 1.932 3.514 3.64a.792.792 0 0 1-.798.812h-4.634c.182 1.204 1.036 1.876 2.128 1.876.714 0 1.274-.252 1.75-.644a.63.63 0 0 1 .434-.154c.378 0 .672.294.672.686a.74.74 0 0 1-.224.518zm2.408.042v-5.852c0-.476.364-.854.84-.854s.854.378.854.854v.756c.392-.924 1.12-1.624 1.862-1.624.532 0 .84.35.84.84a.795.795 0 0 1-.672.812c-1.204.21-2.03 1.134-2.03 2.884v2.184c0 .462-.378.84-.854.84a.834.834 0 0 1-.84-.84z"/></g></svg>