<svg xmlns="http://www.w3.org/2000/svg" width="111" height="170" viewBox="0 0 111 170"><g fill-rule="evenodd"><path fill="#2E304F" d="M110.816.577H.606v110.211h41.368l13.736 13.738 13.74-13.738h41.366z"/><path fill="#FFF" fill-rule="nonzero" d="M40.45 36.436v3.163H28.145V22.25h3.426v14.187h8.879zm-24.704-3.713v6.876H12.32V22.25h13.03v3.164h-9.604v4.146h8.515v3.164h-8.515zm16.278 29.913c0 4.272-3.41 6.91-8.903 6.91h-10.8v-24.58h10.383c2.722 0 4.935.773 6.408 2.229a5.768 5.768 0 0 1 1.618 4.11v.069a5.99 5.99 0 0 1-3.014 5.396c2.86 1.149 4.308 3.094 4.308 5.796v.07zm36.22-34.61V39.6h-3.382V22.25h3.095l8.705 11.234V22.25h3.378V39.6h-2.828l-8.968-11.574zM44.912 39.6v-6.82L38.01 22.25h4.053l4.6 7.282 4.651-7.281h3.956l-6.905 10.456V39.6h-3.454zm12.475-17.35h3.426V39.6h-3.426V22.25zM36.34 44.972h3.536v21.2h13.11v3.374H36.34V44.971zm39.873 14.013c0 6.848-3.802 10.933-10.17 10.933-6.253 0-10.137-4.11-10.137-10.731V44.97h3.536v14.045c0 4.785 2.431 7.528 6.666 7.528 4.236 0 6.57-2.613 6.57-7.358V44.97h3.535v14.013zm15.574-29.291h7.641v7.443l-.08.069a10.97 10.97 0 0 1-7.193 2.65c-5.291 0-8.988-3.642-8.988-8.9v-.049a8.855 8.855 0 0 1 8.964-8.948c2.746 0 4.672.68 6.638 2.347l.174.15-2.173 2.604-.178-.15a6.359 6.359 0 0 0-4.579-1.755c-2.904 0-5.258 2.569-5.258 5.728v.049c0 3.414 2.273 5.8 5.51 5.8a6.751 6.751 0 0 0 3.846-1.165v-2.831h-4.324v-3.042zm-6.723 29.133v7.378h14.372v3.341H81.528V44.971H99.27v3.341H85.064v7.172h12.71v3.342h-12.71zM12.268 75.9h2.868l3.18 5.113 3.179-5.113h2.864v12.087h-2.646v-7.892l-3.402 5.162h-.069l-3.37-5.113v7.839h-2.604V75.9zm17.398 0h9.117v2.367h-6.472v2.451h5.696v2.37h-5.7v2.54h6.565v2.367h-9.206V75.9zm13.98 0h2.868l3.18 5.113 3.179-5.113h2.864v12.087h-2.642v-7.892l-3.402 5.162h-.069l-3.37-5.113v7.839h-2.608V75.9zm17.398 0h5.614c1.38 0 2.472.38 3.16 1.072.55.54.85 1.285.829 2.055v.016a2.832 2.832 0 0 1-1.59 2.61c1.4.533 2.261 1.346 2.261 2.969v.036c0 2.209-1.796 3.317-4.522 3.317h-5.752V75.9zm14.878 0h9.118v2.367h-6.473v2.451h5.7v2.37h-5.7v2.54h6.561v2.367h-9.206V75.9zm13.984 0h5.525c1.538 0 2.73.433 3.524 1.214a3.794 3.794 0 0 1 1.035 2.763v.036a3.754 3.754 0 0 1-2.589 3.746l2.953 4.316h-3.11l-2.59-3.867h-2.087v3.867h-2.661V75.9zm5.352 5.874c1.294 0 2.022-.692 2.022-1.711v-.037c0-1.14-.809-1.727-2.087-1.727H92.55v3.47l2.707.005zM15.819 48.276v7.245h6.436c3.07 0 4.903-1.412 4.903-3.774v-.069c0-2.164-1.715-3.402-4.705-3.402H15.82zm0 10.517v7.44h7.379c3.288 0 5.258-1.412 5.258-3.775v-.06c0-2.978-3.119-3.605-5.736-3.605h-6.9zm50.27 21.994c1.172 0 1.916-.38 1.916-1.279v-.036c0-.809-.618-1.246-1.743-1.246h-2.625v2.557l2.451.004zm.707 4.854c1.173 0 1.88-.405 1.88-1.315v-.024c0-.809-.602-1.31-1.969-1.31h-3.074v2.657l3.163-.008z"/><path fill="#CFAD9A" fill-rule="nonzero" d="M69.714 158.45c-.43-.01-.846.15-1.155.445a1.57 1.57 0 0 0-.49 1.121c0 .9.74 1.628 1.655 1.628.914 0 1.655-.729 1.655-1.628 0-.428-.177-.838-.492-1.134a1.606 1.606 0 0 0-1.173-.432zm.793 1.578a.763.763 0 0 1-.22.573.792.792 0 0 1-.573.236.83.83 0 0 1-.59-.245.802.802 0 0 1-.233-.588.766.766 0 0 1 .22-.573.792.792 0 0 1 .574-.236.83.83 0 0 1 .589.244.802.802 0 0 1 .233.585v.004zm1.58-.793l-.038-.004a.357.357 0 0 1-.252-.1.345.345 0 0 1-.105-.248c0-.194.16-.352.357-.352h.033v-.19a.985.985 0 0 1 .247-.732.96.96 0 0 1 .703-.235c.119-.001.237.007.354.025a.35.35 0 0 1 .296.344.359.359 0 0 1-.354.351h-.074c-.197 0-.312.102-.312.328v.117h.378a.35.35 0 0 1 .354.348.35.35 0 0 1-.354.348h-.366v1.89a.427.427 0 0 1-.204.405.442.442 0 0 1-.46 0 .427.427 0 0 1-.204-.406v-1.889zm5.024 0l-.378-.012v1.287c0 .194.086.29.28.29h.103a.359.359 0 0 1 .357.353.348.348 0 0 1-.222.32c-.158.06-.327.089-.497.084-.53 0-.893-.21-.893-.906v-1.428h-.028a.37.37 0 0 1-.373-.366.37.37 0 0 1 .373-.366h.028v-.364a.433.433 0 0 1 .434-.387c.225 0 .412.167.434.387v.376h.382a.37.37 0 0 1 .373.366.37.37 0 0 1-.373.366zm2.682-.785c.658 0 1.04.445 1.04 1.117v1.557a.427.427 0 0 1-.204.406.442.442 0 0 1-.46 0 .427.427 0 0 1-.204-.406v-1.286c0-.405-.193-.61-.526-.61s-.543.205-.543.61v1.286a.427.427 0 0 1-.204.406.442.442 0 0 1-.46 0 .427.427 0 0 1-.204-.406v-3.313a.433.433 0 0 1 .434-.387c.225 0 .412.168.434.387v1.125c.197-.3.534-.482.897-.486zm3.1 0a1.46 1.46 0 0 1 1.052.42c.277.275.43.65.42 1.037a.408.408 0 0 1-.41.404h-1.72a.71.71 0 0 0 .757.579c.223.002.44-.07.617-.202a.328.328 0 0 1 .21-.07.336.336 0 0 1 .24.098c.064.063.099.15.097.239a.333.333 0 0 1-.116.254 1.604 1.604 0 0 1-1.06.364 1.544 1.544 0 0 1-1.147-.433 1.492 1.492 0 0 1-.453-1.124 1.487 1.487 0 0 1 .418-1.099 1.541 1.541 0 0 1 1.095-.467zm-.658 1.327h1.308a.653.653 0 0 0-.646-.639.677.677 0 0 0-.662.64zm7.48-1.966v3.313a.427.427 0 0 1-.204.406.442.442 0 0 1-.46 0 .427.427 0 0 1-.203-.406v-3.313a.433.433 0 0 1 .433-.387c.225 0 .412.168.434.387zm-2.956 1.424a.357.357 0 0 1-.257-.1.35.35 0 0 1 .001-.502.36.36 0 0 1 .256-.102h-.005v-.19a.985.985 0 0 1 .247-.732.96.96 0 0 1 .703-.235c.119-.001.237.007.354.025a.35.35 0 0 1 .296.344.359.359 0 0 1-.354.351h-.074c-.197 0-.312.102-.312.328v.117h.378a.35.35 0 0 1 .354.348.35.35 0 0 1-.354.348h-.366v1.89a.427.427 0 0 1-.204.405.442.442 0 0 1-.46 0 .427.427 0 0 1-.203-.406v-1.889zm4.61 2.225l-1.016-2.403a.618.618 0 0 1-.046-.198c0-.223.184-.405.412-.405a.41.41 0 0 1 .41.32l.663 1.752.641-1.748a.439.439 0 0 1 .412-.324c.227 0 .41.182.41.405a.638.638 0 0 1-.04.202l-1.07 2.525c-.254.61-.514.841-1.032.841a1.327 1.327 0 0 1-.473-.077.37.37 0 0 1-.275-.352.337.337 0 0 1 .097-.244.348.348 0 0 1 .244-.104c.05 0 .098.008.144.025.058.02.12.03.181.032a.284.284 0 0 0 .309-.178l.028-.069zm2.87-2.97c.23 0 .42.179.431.405v2.246a.427.427 0 0 1-.203.405.442.442 0 0 1-.46 0 .427.427 0 0 1-.204-.405v-2.225a.42.42 0 0 1 .128-.302.436.436 0 0 1 .308-.123zm0-.286a.44.44 0 0 1-.332-.1.426.426 0 0 1-.154-.305.491.491 0 0 1 .486-.397.49.49 0 0 1 .485.397.426.426 0 0 1-.154.306.44.44 0 0 1-.331.099zm2.956.246c.666 0 1.04.445 1.04 1.113v1.557a.427.427 0 0 1-.203.406.442.442 0 0 1-.46 0 .427.427 0 0 1-.204-.406v-1.286c0-.405-.193-.61-.526-.61s-.543.205-.543.61v1.286a.427.427 0 0 1-.204.406.442.442 0 0 1-.46 0 .427.427 0 0 1-.204-.406v-2.225a.433.433 0 0 1 .434-.387c.224 0 .412.168.434.387v.04a1.09 1.09 0 0 1 .896-.485zm4.367.04a.43.43 0 0 1 .432.405v1.922a1.6 1.6 0 0 1-.386 1.185 1.813 1.813 0 0 1-1.32.405 2.983 2.983 0 0 1-1.119-.207.345.345 0 1 1-.099-.595.359.359 0 0 1 .35-.056c.265.12.555.181.847.178.592 0 .872-.27.872-.809v-.154c-.23.316-.605.499-1 .49a1.356 1.356 0 0 1-.991-.41 1.31 1.31 0 0 1-.37-.994 1.314 1.314 0 0 1 .371-.993 1.36 1.36 0 0 1 .99-.41c.382-.01.747.157.987.448a.429.429 0 0 1 .436-.404zm-.41 1.393h-.005a.738.738 0 0 0-.744-.733.738.738 0 0 0-.745.733.682.682 0 0 0 .218.508c.141.132.332.2.527.187a.714.714 0 0 0 .527-.189.69.69 0 0 0 .221-.506zm-30.307 3.414a.433.433 0 0 1 .431.416v3.314a.427.427 0 0 1-.203.405.442.442 0 0 1-.46 0 .427.427 0 0 1-.204-.405v-.04a1.128 1.128 0 0 1-.954.489c-.716 0-1.394-.55-1.394-1.558 0-1.007.67-1.557 1.394-1.557.372-.008.726.159.954.449v-1.088a.432.432 0 0 1 .436-.425zm-.412 2.633a.736.736 0 0 0-.336-.73.763.763 0 0 0-.816 0 .736.736 0 0 0-.336.73.736.736 0 0 0 .336.732.763.763 0 0 0 .816 0 .736.736 0 0 0 .336-.732zm3.911-1.541a.436.436 0 0 1 .308.123.42.42 0 0 1 .128.302v2.225a.427.427 0 0 1-.204.406.442.442 0 0 1-.46 0 .427.427 0 0 1-.204-.406v-.033a1.086 1.086 0 0 1-.896.482c-.658 0-1.04-.425-1.04-1.117v-1.557a.433.433 0 0 1 .433-.387c.225 0 .412.167.434.387v1.286c0 .405.193.611.526.611s.543-.206.543-.61v-1.287a.42.42 0 0 1 .127-.3.435.435 0 0 1 .305-.125zm2.545.76l-.361.005v1.286c0 .194.086.291.28.291h.102a.359.359 0 0 1 .358.352.348.348 0 0 1-.222.32c-.159.06-.328.09-.498.085-.53 0-.892-.21-.892-.906v-1.432h-.045a.37.37 0 0 1-.373-.367.37.37 0 0 1 .373-.366h.028v-.376a.433.433 0 0 1 .434-.387c.224 0 .412.167.434.387v.376h.382a.37.37 0 0 1 .373.366.37.37 0 0 1-.373.367zm3.126 1.327l.004-.012a.37.37 0 0 1 .338.238.36.36 0 0 1-.1.397 1.52 1.52 0 0 1-1.085.405 1.576 1.576 0 0 1-1.131-.447 1.524 1.524 0 0 1-.46-1.11 1.533 1.533 0 0 1 .463-1.118 1.585 1.585 0 0 1 1.14-.448c.378-.019.75.1 1.044.336a.38.38 0 0 1 .111.427.39.39 0 0 1-.37.248.41.41 0 0 1-.25-.085.83.83 0 0 0-.543-.19.787.787 0 0 0-.544.252.761.761 0 0 0-.2.557.765.765 0 0 0 .204.583.791.791 0 0 0 .573.25c.21 0 .412-.072.571-.206a.416.416 0 0 1 .235-.077zm2.68-2.111c.655 0 1.037.429 1.041 1.116v1.558a.427.427 0 0 1-.204.406.442.442 0 0 1-.46 0 .427.427 0 0 1-.204-.406v-1.287c0-.404-.193-.61-.526-.61s-.543.206-.543.61v1.287a.427.427 0 0 1-.203.406.442.442 0 0 1-.46 0 .427.427 0 0 1-.204-.406v-3.313a.433.433 0 0 1 .433-.388c.225 0 .413.168.434.388v1.124c.197-.3.534-.482.897-.485zm5.371 0c.646 0 1.032.384 1.04 1.112v1.566a.427.427 0 0 1-.203.406.442.442 0 0 1-.46 0 .427.427 0 0 1-.204-.406v-1.287c0-.404-.185-.61-.51-.61s-.526.206-.526.61v1.287a.427.427 0 0 1-.204.406.442.442 0 0 1-.46 0 .427.427 0 0 1-.204-.406v-1.287c0-.404-.185-.61-.51-.61s-.526.206-.526.61v1.287a.427.427 0 0 1-.204.406.442.442 0 0 1-.46 0 .427.427 0 0 1-.204-.406v-2.225a.433.433 0 0 1 .434-.387c.224 0 .412.167.434.387v.032a1.1 1.1 0 0 1 .9-.485.92.92 0 0 1 .864.477c.24-.304.611-.48 1.003-.477zm2.998.024a1.43 1.43 0 0 1 1.02.32c.238.264.358.61.333.962v1.372a.408.408 0 0 1-.411.404.409.409 0 0 1-.412-.356 1.186 1.186 0 0 1-.925.38.956.956 0 0 1-.736-.23.924.924 0 0 1-.316-.692c0-.655.51-.958 1.233-.958.255-.002.509.04.749.125v-.049c0-.352-.227-.55-.658-.55a2.017 2.017 0 0 0-.6.085.357.357 0 0 1-.38-.076.345.345 0 0 1-.106-.247c0-.149.093-.281.234-.332.312-.112.643-.166.975-.158zm.543 1.982l.004-.125a1.372 1.372 0 0 0-.555-.113c-.37 0-.6.133-.6.404 0 .23.193.364.472.364.403 0 .679-.222.679-.53zm3.277-2.006c.658 0 1.04.429 1.04 1.12v1.558a.427.427 0 0 1-.203.406.442.442 0 0 1-.46 0 .427.427 0 0 1-.204-.406v-1.287c0-.404-.193-.61-.526-.61-.334 0-.543.206-.543.61v1.287a.427.427 0 0 1-.204.406.442.442 0 0 1-.46 0 .427.427 0 0 1-.204-.406v-2.225a.433.433 0 0 1 .434-.387c.224 0 .412.167.434.387v.032c.197-.3.534-.482.896-.485zM18.18 151.8a.592.592 0 0 1 .563.55.562.562 0 0 1-.164.405 4.323 4.323 0 0 1-3.212 1.347 4.412 4.412 0 0 1-3.103-1.278A4.268 4.268 0 0 1 11 149.757v-.032a4.355 4.355 0 0 1 2.685-4.022 4.484 4.484 0 0 1 4.812.862c.126.112.197.27.197.437 0 .33-.272.599-.609.599a.665.665 0 0 1-.41-.146 3.315 3.315 0 0 0-2.3-.999c-1.727 0-3.047 1.436-3.047 3.236v.033c-.034.84.277 1.66.863 2.272a3.207 3.207 0 0 0 2.254.984 3.431 3.431 0 0 0 2.373-1.02.51.51 0 0 1 .362-.161zm2.706 2.188a.639.639 0 0 1-.459-.18.618.618 0 0 1-.187-.45v-10.733a.63.63 0 0 1 .636-.625c.35 0 .635.28.635.625v10.732a.605.605 0 0 1-.176.447.626.626 0 0 1-.45.184zm9.425-8.543a.634.634 0 0 1 .442.198.613.613 0 0 1 .167.449v7.282a.61.61 0 0 1-.276.614.634.634 0 0 1-.683 0 .61.61 0 0 1-.275-.614v-.91a3.256 3.256 0 0 1-2.916 1.617c-2.056 0-3.26-1.359-3.26-3.353v-4.652a.605.605 0 0 1 .175-.447.626.626 0 0 1 .45-.184c.354 0 .64.282.64.63v4.345c0 1.558.856 2.529 2.357 2.529a2.537 2.537 0 0 0 1.86-.764 2.453 2.453 0 0 0 .694-1.862v-4.247a.605.605 0 0 1 .176-.447.626.626 0 0 1 .449-.184zm7.184-.097c2.044 0 4.07 1.59 4.067 4.344v.033c0 2.742-2.015 4.36-4.071 4.36a3.86 3.86 0 0 1-3.261-1.783v1.055a.614.614 0 0 1-.179.444.636.636 0 0 1-1.088-.444v-10.732A.63.63 0 0 1 33.6 142c.35 0 .635.28.635.625v4.587c.69-1.007 1.694-1.864 3.26-1.864zm8.027 8.56a.619.619 0 0 1-.46-.162.598.598 0 0 1-.194-.441c0-.238.116-.46.312-.599l3.94-3.418c1.78-1.546 2.406-2.432 2.406-3.568a2.152 2.152 0 0 0-.686-1.58 2.225 2.225 0 0 0-1.638-.593c-1.233 0-2.056.587-2.878 1.655a.606.606 0 0 1-.662.19.592.592 0 0 1-.407-.546c0-.13.047-.256.131-.356.958-1.315 2.011-2.092 3.907-2.092 2.072 0 3.573 1.36 3.573 3.208v.033c0 1.654-.888 2.674-2.915 4.41l-3.08 2.69h5.588a.59.59 0 0 1 .594.584.59.59 0 0 1-.594.585h-6.937zm13.545.194c-2.981 0-4.86-2.658-4.86-5.838v-.032c0-3.18 1.928-5.87 4.893-5.87s4.844 2.662 4.844 5.838v.032c0 3.18-1.912 5.87-4.877 5.87zm15.836-5.87c0 3.18-1.895 5.87-4.877 5.87-2.981 0-4.86-2.662-4.86-5.838v-.032c0-3.18 1.928-5.87 4.893-5.87s4.844 2.662 4.844 5.838v.032zm6.099 5.87c-2.998 0-4.877-2.658-4.861-5.838v-.032c0-3.18 1.929-5.87 4.893-5.87 2.965 0 4.845 2.662 4.845 5.838v.032c0 3.18-1.913 5.87-4.877 5.87zm-65.186 8.434c1.32.405 2.734.902 2.742 2.427v.013c0 1.59-1.332 2.512-3.03 2.512a5.959 5.959 0 0 1-3.29-1.056.538.538 0 0 1-.063-.834.556.556 0 0 1 .392-.153.512.512 0 0 1 .312.097c.788.56 1.73.87 2.702.89 1.024 0 1.764-.522 1.764-1.331v-.032c0-.846-1.007-1.17-2.126-1.477-1.332-.372-2.817-.825-2.817-2.366v-.033c0-1.444 1.218-2.399 2.9-2.399a6.02 6.02 0 0 1 2.718.712c.19.106.31.303.312.518a.538.538 0 0 1-.167.381.556.556 0 0 1-.392.153.642.642 0 0 1-.28-.065 4.67 4.67 0 0 0-2.224-.647c-1.004 0-1.645.518-1.645 1.214v.032c0 .797 1.057 1.104 2.192 1.444zm8.191.093l3.043 3.762c.102.112.16.255.164.405a.57.57 0 0 1-.176.42.59.59 0 0 1-.432.163.623.623 0 0 1-.543-.292l-2.948-3.665-1.764 1.72v1.618a.605.605 0 0 1-.176.446.626.626 0 0 1-.45.185.629.629 0 0 1-.641-.595v-10.732a.63.63 0 0 1 .635-.625.63.63 0 0 1 .636.625v7.666l4.613-4.616a.64.64 0 0 1 .494-.243.58.58 0 0 1 .413.172c.108.11.167.258.163.41a.64.64 0 0 1-.247.486l-2.784 2.69zm5.358-6.97a.698.698 0 0 1 .528.168.675.675 0 0 1 .233.496v.21a.748.748 0 0 1-.75.686.748.748 0 0 1-.751-.686v-.21a.67.67 0 0 1 .224-.49.694.694 0 0 1 .516-.174zm0 3.208a.639.639 0 0 1 .457.18c.122.118.19.28.189.447v7.282a.606.606 0 0 1-.184.437.626.626 0 0 1-.445.178.629.629 0 0 1-.642-.611v-7.282c0-.342.277-.622.625-.63zm7.3-.097c2.043 0 4.07 1.586 4.066 4.349v.032c0 2.743-2.015 4.361-4.07 4.361a3.86 3.86 0 0 1-3.262-1.784v3.64a.605.605 0 0 1-.176.447.626.626 0 0 1-.449.185.639.639 0 0 1-.456-.182.618.618 0 0 1-.185-.45v-9.87a.63.63 0 0 1 .635-.625c.35 0 .635.28.635.625v1.137c.691-1.007 1.694-1.865 3.261-1.865zm10.115 0c2.044 0 4.071 1.586 4.067 4.349v.032c0 2.743-2.015 4.361-4.071 4.361a3.86 3.86 0 0 1-3.26-1.784v3.64a.605.605 0 0 1-.177.447.626.626 0 0 1-.449.185.639.639 0 0 1-.456-.182.618.618 0 0 1-.185-.45v-9.87a.63.63 0 0 1 .635-.625c.35 0 .635.28.635.625v1.137c.691-1.007 1.694-1.865 3.261-1.865zm9.137 0c2.533 0 3.969 2.027 3.952 4.256a.587.587 0 0 1-.592.582h-6.168c.18 1.813 1.48 2.832 2.998 2.832a3.52 3.52 0 0 0 2.467-.97.564.564 0 0 1 .362-.146.54.54 0 0 1 .523.341.524.524 0 0 1-.161.597 4.372 4.372 0 0 1-3.216 1.262c-2.34 0-4.252-1.768-4.252-4.36v-.033c0-2.415 1.731-4.361 4.087-4.361zm9.586.065a.614.614 0 0 1 .457.18c.12.121.183.286.172.455a.622.622 0 0 1-.56.631c-1.644.186-2.997 1.4-2.997 3.827v2.852a.63.63 0 0 1-.635.625.63.63 0 0 1-.636-.625v-7.282a.636.636 0 0 1 1.081-.448c.121.118.188.28.186.448v1.574c.625-1.396 1.859-2.237 2.932-2.237zm-26.071 4.328v-.032c0-1.97-1.382-3.236-2.998-3.236a3.202 3.202 0 0 0-2.224.988 3.098 3.098 0 0 0-.856 2.248v.032a3.09 3.09 0 0 0 .854 2.25c.578.608 1.38.963 2.226.987 1.645 0 2.998-1.214 2.998-3.237zm10.116 0v-.032c0-1.97-1.382-3.236-2.998-3.236a3.202 3.202 0 0 0-2.224.988 3.098 3.098 0 0 0-.856 2.248v.032a3.09 3.09 0 0 0 .854 2.25c.578.608 1.38.963 2.226.987 1.645 0 2.998-1.214 2.998-3.237zm-9.286-13.422v-.033c0-1.974-1.381-3.236-2.997-3.236a3.198 3.198 0 0 0-2.225.987 3.094 3.094 0 0 0-.855 2.25v.032a3.09 3.09 0 0 0 .853 2.25c.579.608 1.38.963 2.227.986 1.644 0 2.997-1.214 2.997-3.236zm12.855 12.937h5.486c-.132-1.521-1.02-2.852-2.719-2.852-1.48 0-2.603 1.234-2.767 2.852zm2.438-14.474v.032c0 2.48 1.382 4.7 3.541 4.7s3.495-2.188 3.495-4.668v-.032c0-2.48-1.365-4.7-3.524-4.7s-3.512 2.172-3.512 4.668zm10.96.028h.004c0 2.48 1.377 4.7 3.536 4.7s3.495-2.188 3.495-4.668v-.032c0-2.48-1.365-4.7-3.524-4.7s-3.512 2.172-3.512 4.668v.032zm10.975-.028v.032c0 2.48 1.381 4.7 3.54 4.7 2.16 0 3.496-2.188 3.496-4.668v-.032c0-2.48-1.366-4.7-3.524-4.7-2.16 0-3.512 2.172-3.512 4.668z"/></g></svg>