<svg height="111" viewBox="0 0 201 111" width="201" xmlns="http://www.w3.org/2000/svg"><g fill-rule="evenodd"><path d="m.606.606v110.21h110.21v-41.368l13.738-13.737-13.738-13.738v-41.367z" fill="#8b8e8e"/><g fill-rule="nonzero"><path d="m40.45 37.436v3.163h-12.305v-17.349h3.426v14.187h8.879zm-24.704-3.713v6.876h-3.426v-17.349h13.03v3.164h-9.604v4.146h8.515v3.164h-8.515zm16.278 29.913c0 4.272-3.41 6.91-8.903 6.91h-10.8v-24.58h10.383c2.722 0 4.935.773 6.408 2.229a5.768 5.768 0 0 1 1.618 4.11v.069a5.99 5.99 0 0 1 -3.014 5.396c2.86 1.149 4.308 3.094 4.308 5.796zm36.22-34.61v11.574h-3.382v-17.35h3.095l8.705 11.234v-11.234h3.378v17.35h-2.828zm-23.332 11.574v-6.82l-6.902-10.53h4.053l4.6 7.282 4.651-7.281h3.956l-6.905 10.456v6.893h-3.454zm12.475-17.35h3.426v17.35h-3.426zm-21.047 22.722h3.536v21.2h13.11v3.374h-16.646v-24.575zm39.873 14.013c0 6.848-3.802 10.933-10.17 10.933-6.253 0-10.137-4.11-10.137-10.731v-14.217h3.536v14.045c0 4.785 2.431 7.528 6.666 7.528 4.236 0 6.57-2.613 6.57-7.358v-14.215h3.535v14.013zm15.574-29.291h7.641v7.443l-.08.069a10.97 10.97 0 0 1 -7.193 2.65c-5.291 0-8.988-3.642-8.988-8.9v-.049a8.855 8.855 0 0 1 8.964-8.948c2.746 0 4.672.68 6.638 2.347l.174.15-2.173 2.604-.178-.15a6.359 6.359 0 0 0 -4.579-1.755c-2.904 0-5.258 2.569-5.258 5.728v.049c0 3.414 2.273 5.8 5.51 5.8a6.751 6.751 0 0 0 3.846-1.165v-2.831h-4.324zm-6.723 29.133v7.378h14.372v3.341h-17.908v-24.575h17.742v3.341h-14.206v7.172h12.71v3.342h-12.71zm-72.796 17.073h2.868l3.18 5.113 3.179-5.113h2.864v12.087h-2.646v-7.892l-3.402 5.162h-.069l-3.37-5.113v7.839h-2.604zm17.398 0h9.117v2.367h-6.472v2.451h5.696v2.37h-5.7v2.54h6.565v2.367h-9.206zm13.98 0h2.868l3.18 5.113 3.179-5.113h2.864v12.087h-2.642v-7.892l-3.402 5.162h-.069l-3.37-5.113v7.839h-2.608zm17.398 0h5.614c1.38 0 2.472.38 3.16 1.072.55.54.85 1.285.829 2.055v.016a2.832 2.832 0 0 1 -1.59 2.61c1.4.533 2.261 1.346 2.261 2.969v.036c0 2.209-1.796 3.317-4.522 3.317h-5.752zm14.878 0h9.118v2.367h-6.473v2.451h5.7v2.37h-5.7v2.54h6.561v2.367h-9.206zm13.984 0h5.525c1.538 0 2.73.433 3.524 1.214a3.794 3.794 0 0 1 1.035 2.763v.036a3.754 3.754 0 0 1 -2.589 3.746l2.953 4.316h-3.11l-2.59-3.867h-2.087v3.867h-2.661zm5.352 5.874c1.294 0 2.022-.692 2.022-1.711v-.037c0-1.14-.809-1.727-2.087-1.727h-2.643v3.47l2.707.005zm-79.439-33.498v7.245h6.436c3.07 0 4.903-1.412 4.903-3.774v-.069c0-2.164-1.715-3.402-4.705-3.402h-6.633zm0 10.517v7.44h7.379c3.288 0 5.258-1.412 5.258-3.775v-.06c0-2.978-3.119-3.605-5.736-3.605h-6.9zm50.27 21.994c1.172 0 1.916-.38 1.916-1.279v-.036c0-.809-.618-1.246-1.743-1.246h-2.625v2.557l2.451.004zm.707 4.854c1.173 0 1.88-.405 1.88-1.315v-.024c0-.809-.602-1.31-1.969-1.31h-3.074v2.657z" fill="#fff"/><path d="m143.324 62.69a.82.82 0 0 1 -.324-.644.772.772 0 0 1 .784-.76.71.71 0 0 1 .435.14 6.678 6.678 0 0 0 3.772 1.264c1.424 0 2.463-.735 2.463-1.888v-.045c0-1.194-1.404-1.642-2.968-2.093-1.863-.53-3.932-1.174-3.932-3.358v-.045c0-2.052 1.703-3.403 4.047-3.403a8.283 8.283 0 0 1 3.793 1.014c.265.15.43.43.435.735a.772.772 0 0 1 -.768.747.895.895 0 0 1 -.41-.09 6.432 6.432 0 0 0 -3.103-.92c-1.404 0-2.299.735-2.299 1.724v.045c0 1.129 1.474 1.564 3.058 2.053 1.839.55 3.817 1.264 3.817 3.402v.045c0 2.254-1.863 3.563-4.231 3.563a8.23 8.23 0 0 1 -4.569-1.486zm12.096-14.353a1.05 1.05 0 0 1 2.093 0v.3a1.05 1.05 0 0 1 -2.093 0zm.16 4.515c0-.487.388-.884.874-.895a.882.882 0 0 1 .9.895v10.327a.866.866 0 0 1 -.875.894.882.882 0 0 1 -.903-.903zm6.046-4.905a.887.887 0 1 1 1.77 0v15.223a.866.866 0 0 1 -.875.895.882.882 0 0 1 -.899-.895zm10.672 16.192h-.09a1.1 1.1 0 0 1 -1.035-.755l-4.461-10.073a1.835 1.835 0 0 1 -.115-.484.911.911 0 0 1 1.793-.185l3.842 9.293 3.908-9.338a.85.85 0 0 1 .82-.644c.483 0 .875.391.875.874-.003.15-.034.3-.09.44l-4.462 10.117a1.07 1.07 0 0 1 -.985.755zm13.24.09c-3.283 0-5.934-2.508-5.934-6.185v-.045c0-3.428 2.413-6.186 5.705-6.186 3.517 0 5.52 2.873 5.52 6.026a.82.82 0 0 1 -.82.82h-8.62c.255 2.578 2.052 4.027 4.187 4.027a4.86 4.86 0 0 0 3.427-1.38.763.763 0 0 1 1.289.555.763.763 0 0 1 -.275.575 6.046 6.046 0 0 1 -4.478 1.793zm3.518-6.875c-.184-2.163-1.424-4.047-3.792-4.047-2.052 0-3.633 1.724-3.863 4.047zm4.901-4.51c0-.487.388-.884.874-.895a.882.882 0 0 1 .9.894v2.233c.873-1.978 2.597-3.172 4.104-3.172a.85.85 0 0 1 .874.894.878.878 0 0 1 -.805.9c-2.298.274-4.186 2.002-4.186 5.425v4.047a.887.887 0 1 1 -1.77 0l.01-10.327z" fill="#5cd6cf"/></g></g></svg>