<svg height="15" viewBox="0 0 16 15" width="16" xmlns="http://www.w3.org/2000/svg"><path d="m12.777 6.89a.493.493 0 1 1 -.986 0v-2.224a.493.493 0 1 1 .986 0zm-1.956 0a.493.493 0 0 1 -.985 0v-2.224a.493.493 0 0 1 .985 0zm-1.956 0a.492.492 0 1 1 -.985 0v-2.224a.493.493 0 0 1 .985 0zm-3.131-5.115c0-.44.358-.797.797-.797h2.523c.44 0 .797.357.797.797v.988h-4.117zm9.214 5.808-.66-3.205a2.021 2.021 0 0 0 -1.98-1.615h-1.478v-1.052c0-.943-.768-1.711-1.711-1.711h-2.651c-.943 0-1.71.768-1.71 1.71v1.053h-1.48a2.02 2.02 0 0 0 -1.98 1.615l-.66 3.205a.87.87 0 0 0 -.637.834v.05c0 .397.272.732.637.835l.66 3.204a2.02 2.02 0 0 0 1.98 1.614h9.032a2.02 2.02 0 0 0 1.98-1.614l.659-3.204a.872.872 0 0 0 .638-.835v-.05a.87.87 0 0 0 -.638-.834z"/></svg>