<svg height="20" viewBox="0 0 16 20" width="16" xmlns="http://www.w3.org/2000/svg"><path d="m8.005 0-.47 1.092 2.95 1.27.47-1.092zm.871 6.58s.289-.91.537-1.085c.203-.144.505-.373 1.337.381.076-.414.119-.982-.077-1.435-.302-.7-.744-1.755-.744-1.755l-2.311-.936s-1.006 1.67-1.282 3.03c-.172.845.027 1.242 1.751 2.292.177.108.457.2.738.146.147-.028.284-.057.516-.177-.106-.1-.172-.247-.465-.462zm4.05 6.074a.499.499 0 0 1 -.997 0v-2.248a.5.5 0 0 1 .997 0zm-1.978 0a.499.499 0 0 1 -.997 0v-2.248a.499.499 0 1 1 .997 0zm-1.98 0a.498.498 0 0 1 -.995 0v-2.248a.499.499 0 1 1 .996 0v2.248zm6.153.702-.666-3.242a2.044 2.044 0 0 0 -2.003-1.633h-1.497v-1.064c0-.457-.18-.871-.47-1.182-.431-.39-.673-.416-.693-.416-.014 0-.052 0-.092.05-.06.07-.178.293-.275.543.136.107.54.524.54.962l-.002.012c0 .01.003.019.003.03v1.065h-4.166v-1c0-.43.335-.757.696-.802a2.743 2.743 0 0 1 -.635-.854c-.614.267-1.05.88-1.05 1.592v1.064h-1.496c-.971 0-1.807.682-2.003 1.633l-.666 3.242a.884.884 0 0 0 -.646.843v.05a.88.88 0 0 0 .646.844l.666 3.243a2.045 2.045 0 0 0 2.003 1.633h9.137c.97 0 1.808-.682 2.003-1.632l.666-3.243a.88.88 0 0 0 .646-.843v-.052a.882.882 0 0 0 -.646-.844z"/></svg>