<svg height="18" viewBox="0 0 10 18" width="10" xmlns="http://www.w3.org/2000/svg"><path d="m1.635 16.588h6.73v-2.43h-6.73zm0-3.335h6.73v-.878h-6.73zm0-1.443h6.73v-.603h-6.73zm0-1.189h6.73v-.583h-6.73zm0-1.12h6.73v-1.801h-6.73v1.8zm-1.635 8.499v-11.825h10v11.825zm0-12.292v-5.708h10v5.708zm8.242-3.1h-1.277l.016-.592h1.369l-.015-.74h-2.348v3h.978v-.983h1.277zm-3.394 1.669h1.124l-1.727-3.003h-.907l-1.703 3.003h1.066l.352-.651h1.443l.352.65zm-1.631-1.265.565-1.033.554 1.033h-1.12z" fill-rule="evenodd"/></svg>