<svg width="21" height="11" viewBox="0 0 21 11" xmlns="http://www.w3.org/2000/svg"><path d="M9.019 5.187a.633.633 0 0 1-.631.631H4.5a.633.633 0 0 1-.63-.631V2.551c0-.344.28-.626.623-.63h.984v-.337c0-.303.246-.548.548-.548h.838c.3 0 .548.245.548.548v.337h.984a.632.632 0 0 1 .623.63v2.636h.001zm8.063-.61c-1.512-.501-1.845-.805-3.735-2.792C12.246.627 10.997 0 8.803 0H2.02C1 0 0 .786 0 2.019v5.902c0 .756.622 1.323 1.324 1.323h.664a1.97 1.97 0 0 1 3.939 0l8.215-.001a1.97 1.97 0 0 1 3.938-.007A2.046 2.046 0 0 0 20 7.207c0-1.594-1.65-2.21-2.918-2.63zM2.558 9.244a1.4 1.4 0 1 1 2.8 0 1.4 1.4 0 0 1-2.8 0m12.152 0a1.4 1.4 0 1 1 2.799 0 1.4 1.4 0 0 1-2.798 0M6.863 1.328h-.838a.255.255 0 0 0-.255.255v.338h1.348v-.338a.254.254 0 0 0-.255-.255"/></svg>