<svg xmlns="http://www.w3.org/2000/svg" width="16" height="18" viewBox="0 0 16 18"><path fill-rule="evenodd" d="M13.45 2.12c.18.957.55 1.253.586 1.282-.509.561-1.132.35-1.132.35a1.884 1.884 0 0 1-2.64 0s-.624.211-1.132-.35c.036-.029.406-.325.586-1.283l.001.003A1.889 1.889 0 0 1 11.583.513h.001a1.89 1.89 0 0 1 1.865 1.61l.001-.004zm-6.668-.79a.231.231 0 0 1-.147.301l-.913.277A1.89 1.89 0 0 1 3.9 4.291a1.888 1.888 0 1 1 0-3.778 1.88 1.88 0 0 1 1.393.617c.619.021 1.15.04 1.2.04.127.005.25.033.288.16zm8.565 11.536h-1.413v4.165c0 .525-.43.955-.955.955h-.077a.958.958 0 0 1-.955-.955v-4.165h-.672v4.165a.957.957 0 0 1-.955.955h-.077a.958.958 0 0 1-.955-.955v-4.165H7.875s.92-4.909 1.13-6.102c.21-1.192.793-1.949 1.76-1.949h1.69c.969 0 1.552.757 1.762 1.95a1084.5 1084.5 0 0 0 1.13 6.101zm-10.86-8.05c1.31 0 2.382 1.187 2.382 2.637v3.407c0 .336-.269.619-.636.719v5.453a.959.959 0 0 1-.956.955H5.2a.958.958 0 0 1-.955-.955l-.005-4.113a.333.333 0 0 0-.33-.313.333.333 0 0 0-.33.313l-.007 4.113a.957.957 0 0 1-.955.955h-.076a.958.958 0 0 1-.956-.955v-5.453c-.367-.1-.636-.383-.636-.72V7.454c0-1.45 1.072-2.637 2.382-2.637h1.155z"/></svg>