<svg xmlns="http://www.w3.org/2000/svg" width="18" height="15" viewBox="0 0 18 15"><path fill-rule="evenodd" d="M16.5 9.188L4.82 13.922a.86.86 0 0 1-1.128-.479L2.116 9.56l13.288-5.385 1.574 3.885a.869.869 0 0 1-.477 1.129zM1.019 6.849a.864.864 0 0 1 .478-1.128L13.178.987a.864.864 0 0 1 1.128.478l.221.546L1.24 7.396l-.222-.547zm16.845.852a1.822 1.822 0 0 1-1.004 2.37L5.177 14.805a1.815 1.815 0 0 1-2.37-1.002L.135 7.208c-.183-.45-.18-.945.01-1.393.19-.447.543-.795.993-.977L12.818.103a1.83 1.83 0 0 1 .684-.133c.745 0 1.407.445 1.687 1.136l2.674 6.595zm-5.564.81a.473.473 0 0 0-.277.625c.104.255.397.353.653.25l2.422-.983a.472.472 0 0 0 .276-.625c-.103-.256-.397-.353-.653-.25L12.3 8.51z"/></svg>