<svg height="19" viewBox="0 0 12 19" width="12" xmlns="http://www.w3.org/2000/svg"><path d="m8.972 2.581a.578.578 0 0 0 -.816.816l1.064 1.063h-3.695a.577.577 0 0 0 0 1.153h3.695l-1.064 1.063a.578.578 0 0 0 .816.816l2.456-2.456z"/><path d="m6.539 11.875c-.617 0-1.653.141-2.193.201 0 0 .717-1.263 3.56-1.267.587 0 .762-1.202-.017-1.379-.9-.204-2.778-.247-4.853.158-.768-2.106-.99-4.28-.99-4.28s1.156-.374 1.094-2.204c-.086-2.493-2.878-2.078-2.878-2.078-.725 5.88.14 13.022 1.549 16.187.372.835.972 1.261 2.079 1.261h5.112s1.54-1.65 1.54-4.909c0-1.127-1.392-1.69-4.003-1.69"/></svg>