<svg width="19" height="11" viewBox="0 0 19 11" xmlns="http://www.w3.org/2000/svg"><path d="M13.329 5.26a1.374 1.374 0 1 1 0-2.748 1.374 1.374 0 0 1 0 2.748m-8.326 0a1.374 1.374 0 1 1-.075-2.747 1.374 1.374 0 0 1 .076 2.747m13.318 2.487a7.975 7.975 0 0 0-.032-.458l-.004-.042a7.285 7.285 0 0 0-.047-.363l-.004-.031C17.829 4.127 16.183.925 14.38.192c-.033-.014-.066-.026-.098-.038a2.161 2.161 0 0 0-.374-.098c-.017-.002-.032-.008-.049-.009a5.154 5.154 0 0 0-.825-.045c-.488.014-.865.11-1.196.24-.842.327-1.398.868-2.672.872C7.892 1.11 7.336.569 6.494.242a3.444 3.444 0 0 0-1.196-.24 5.143 5.143 0 0 0-.825.045c-.017.001-.033.007-.049.01a1.978 1.978 0 0 0-.471.135C.852 1.453-1.794 10.03 1.559 10.893c2.48.637 2.469-2.88 6.25-3.574.025-.004.048-.01.071-.013a7.79 7.79 0 0 1 1.192-.102c.033 0 .062-.003.094-.003.033 0 .062.003.094.003.399.003.797.038 1.191.102.025.003.048.009.071.013 3.226.593 3.694 3.234 5.3 3.605.062.014.125.024.188.032.013.002.028.005.044.006.046.005.097.005.147.005.028 0 .054.002.084.001.029-.001.06-.006.09-.009.246-.014.486-.073.71-.176l.007-.004a1.7 1.7 0 0 0 .259-.148l.023-.017a1.7 1.7 0 0 0 .214-.182l.017-.016c.29-.295.485-.695.6-1.169v-.004c.032-.133.057-.267.075-.403a3.87 3.87 0 0 0 .033-.312c.002-.03.006-.058.007-.088.006-.099.009-.198.01-.298l.001-.113c0-.092-.003-.187-.009-.282"/></svg>