<svg height="12" viewBox="0 0 21 12" width="21" xmlns="http://www.w3.org/2000/svg"><path d="m8.387 9.573a.339.339 0 1 0 .037-.677.339.339 0 0 0 -.037.677zm-3.74.4v-1.463h6.546v1.461h-6.547zm-1.885-7.916h-.001v2.22h-.597v-2.302a.979.979 0 0 1 .976-.976h10.494a.978.978 0 0 1 .975.976v3.195h-.597v-3.113zm8.32 9.396a.201.201 0 0 1 .202.202c0 .11-.09.2-.201.202h-5.389a.202.202 0 0 1 0-.404c1.077 0 1.212-1.078 1.212-1.078h2.962s.136 1.078 1.212 1.078zm-8.939-.055a.325.325 0 1 1 0-.65.325.325 0 0 1 0 .65zm1.358-6.762a.788.788 0 0 1 .785.786v5.65a.788.788 0 0 1 -.785.785h-2.715a.788.788 0 0 1 -.786-.785v-5.651a.788.788 0 0 1 .786-.785zm-3.021 5.662h3.325v-4.81h-3.325zm15.297 1.233a.325.325 0 1 1 0-.65.325.325 0 0 1 0 .65zm-3.604-.977v-4.247h7.21v4.247zm7.042-5.022h-6.875a.787.787 0 0 0 -.785.784v4.756c0 .432.353.784.785.784h6.876a.786.786 0 0 0 .785-.784v-4.756a.787.787 0 0 0 -.785-.784z"/></svg>