<svg xmlns="http://www.w3.org/2000/svg" width="14" height="18" viewBox="0 0 14 18"><path fill-rule="evenodd" d="M-.001 18V0h14v18h-14zM12.09 2.762a.48.48 0 0 0-.073-.66.447.447 0 0 0-.641.075L9.14 5.073 7.814 3.356a.45.45 0 0 0-.642-.074.48.48 0 0 0-.073.66l1.683 2.179a.454.454 0 0 0 .358.177c.139 0 .27-.065.357-.177l2.594-3.359zm-1.235 9.462c.503-.037 1.12-.348 1.143-.774-.022-.424-.64-.735-1.143-.77-.662-.048-1.62-.056-2.684-.039l-1.945-3.34h-.931l.725 3.406c-.939.04-1.867.09-2.676.146v-.013l-.593-1H2v3.222h.752l.593-1.001v-.012c.809.056 1.737.107 2.676.145L5.296 15.6h.931l1.945-3.341c1.064.017 2.022.01 2.684-.036z"/></svg>