<svg width="24" height="24" viewBox="0 0 24 24" fill="none" xmlns="http://www.w3.org/2000/svg">
<g clip-path="url(#clip0_11521_92)">
<path d="M1.56551 1.66625C-0.315069 3.61924 0.0698223 5.69385 0.0698223 11.9964C0.0698223 17.2303 -0.843546 22.4772 3.93668 23.7124C5.42938 24.0962 18.6553 24.0962 20.146 23.7104C22.1362 23.197 23.7556 21.5829 23.9769 18.7686C24.0079 18.3758 24.0079 5.62406 23.9759 5.2233C23.7406 2.22553 21.8949 0.497844 19.4629 0.147921C18.9056 0.0671697 18.7939 0.0432434 15.9341 0.0382587C5.79034 0.0432434 3.56675 -0.408367 1.56551 1.66625Z" fill="url(#paint0_linear_11521_92)"/>
<path d="M12.0334 3.16783C8.41279 3.16783 4.9747 2.84582 3.66148 6.21545C3.11905 7.60716 3.19782 9.4146 3.19782 12.0026C3.19782 14.2736 3.12503 16.4081 3.66148 17.7888C4.97171 21.1604 8.43772 20.8374 12.0314 20.8374C15.4984 20.8374 19.0731 21.1983 20.4022 17.7888C20.9457 16.3832 20.8659 14.6026 20.8659 12.0026C20.8659 8.55126 21.0564 6.32312 19.3822 4.65026C17.6871 2.95548 15.3947 3.16783 12.0294 3.16783H12.0334ZM11.2416 4.75993C18.7939 4.74796 19.7551 3.90855 19.2246 15.5697C19.0362 19.694 15.8952 19.2414 12.0344 19.2414C4.99464 19.2414 4.79222 19.04 4.79222 11.9986C4.79222 4.87557 5.35062 4.76392 11.2416 4.75793V4.75993ZM16.7498 6.22641C16.1645 6.22641 15.6898 6.70095 15.6898 7.28615C15.6898 7.87135 16.1645 8.34589 16.7498 8.34589C17.3351 8.34589 17.8097 7.87135 17.8097 7.28615C17.8097 6.70095 17.3351 6.22641 16.7498 6.22641ZM12.0334 7.4656C9.52758 7.4656 7.49643 9.49735 7.49643 12.0026C7.49643 14.5079 9.52758 16.5387 12.0334 16.5387C14.5391 16.5387 16.5693 14.5079 16.5693 12.0026C16.5693 9.49735 14.5391 7.4656 12.0334 7.4656ZM12.0334 9.0577C15.9271 9.0577 15.9321 14.9476 12.0334 14.9476C8.14057 14.9476 8.13459 9.0577 12.0334 9.0577Z" fill="white"/>
</g>
<defs>
<linearGradient id="paint0_linear_11521_92" x1="1.6114" y1="22.4364" x2="23.849" y2="3.18621" gradientUnits="userSpaceOnUse">
<stop stop-color="#FFDD55"/>
<stop offset="0.5" stop-color="#FF543E"/>
<stop offset="1" stop-color="#C837AB"/>
</linearGradient>
<clipPath id="clip0_11521_92">
<rect width="24" height="24" fill="white"/>
</clipPath>
</defs>
</svg>
