<svg width="24" height="24" viewBox="0 0 24 24" fill="none" xmlns="http://www.w3.org/2000/svg">
<g clip-path="url(#clip0_11521_62)">
<path d="M20.5019 3.48771C18.2457 1.23994 15.2457 0.00137142 12.0494 0C5.46299 0 0.102956 5.33477 0.100319 11.892C0.0995518 13.988 0.649635 16.034 1.6952 17.8376L0 24.0001L6.33436 22.3464C8.0796 23.294 10.0446 23.7934 12.0443 23.7942H12.0494C18.6348 23.7942 23.9957 18.4585 23.9984 11.9016C23.9996 8.72367 22.7577 5.73563 20.5019 3.48771ZM12.0494 21.7856H12.0456C10.2631 21.7846 8.51525 21.3082 6.99067 20.4075L6.62784 20.1934L2.8689 21.1746L3.87249 17.5271L3.63609 17.1532C2.64185 15.5792 2.11698 13.7604 2.11772 11.8927C2.11991 6.4426 6.57497 2.00867 12.0532 2.00867C14.706 2.00977 17.1994 3.03927 19.0746 4.90755C20.9497 6.77581 21.9817 9.25941 21.9809 11.9008C21.9785 17.3511 17.5233 21.7856 12.0494 21.7856Z" fill="#E0E0E0"/>
<path d="M0.548828 23.3164L2.16659 17.4353C1.16853 15.7142 0.643677 13.7615 0.644307 11.7616C0.646924 5.50402 5.76216 0.413086 12.0472 0.413086C15.0976 0.414457 17.9606 1.59638 20.1132 3.74153C22.2663 5.88666 23.4513 8.73801 23.4501 11.7704C23.4474 18.0281 18.3319 23.1195 12.0476 23.1195C12.0472 23.1195 12.048 23.1195 12.0476 23.1195H12.0426C10.1342 23.1189 8.25913 22.642 6.59372 21.7383L0.548828 23.3164Z" fill="url(#paint0_linear_11521_62)"/>
<path fill-rule="evenodd" clip-rule="evenodd" d="M9.09698 6.84272C8.87592 6.35338 8.64316 6.34359 8.43284 6.33503C8.26082 6.32768 8.06388 6.32813 7.86725 6.32813C7.67047 6.32813 7.3507 6.40176 7.08028 6.69579C6.80971 6.98982 6.04718 7.70062 6.04718 9.14626C6.04718 10.5921 7.10488 11.989 7.25231 12.1853C7.3999 12.3812 9.29408 15.4427 12.2939 16.6205C14.787 17.5993 15.2944 17.4046 15.8355 17.3556C16.3767 17.3066 17.5817 16.6449 17.8276 15.9588C18.0736 15.2727 18.0736 14.6847 17.9998 14.5618C17.926 14.4393 17.7292 14.3659 17.4341 14.2189C17.1389 14.072 15.6879 13.361 15.4174 13.2631C15.1468 13.1651 14.95 13.1161 14.7532 13.4103C14.5565 13.7042 13.9912 14.3659 13.819 14.5618C13.6468 14.7582 13.4746 14.7826 13.1794 14.6357C12.8843 14.4883 11.9337 14.1784 10.8061 13.1773C9.9287 12.3986 9.33635 11.4368 9.16416 11.1426C8.99198 10.8487 9.1457 10.6895 9.29376 10.543C9.42628 10.4114 9.58894 10.2 9.73652 10.0285C9.88379 9.85687 9.93299 9.73442 10.0314 9.53851C10.1298 9.34228 10.0806 9.17071 10.0068 9.02378C9.93299 8.87684 9.35941 7.42373 9.09698 6.84272Z" fill="white"/>
<path d="M20.4043 3.44962C18.1741 1.22766 15.2086 0.00334413 12.049 0.00195312C5.53824 0.00195312 0.239775 5.27546 0.237158 11.7573C0.236391 13.8293 0.780153 15.8519 1.8137 17.6347L0.138 23.7264L6.3996 22.0918C8.12481 23.0285 10.0673 23.5221 12.044 23.5229H12.049C18.5587 23.5229 23.858 18.2484 23.8608 11.7668C23.8619 8.62546 22.6343 5.67174 20.4043 3.44962ZM12.049 21.5374H12.0452C10.2833 21.5365 8.55543 21.0655 7.04837 20.1752L6.6897 19.9635L2.97394 20.9334L3.96598 17.3278L3.73231 16.9582C2.74949 15.4023 2.23064 13.6043 2.23141 11.7581C2.23355 6.37061 6.63743 1.9876 12.0527 1.9876C14.6752 1.98868 17.1398 3.00636 18.9936 4.85318C20.8471 6.7 21.8672 9.15506 21.8664 11.7661C21.8641 17.1538 17.46 21.5374 12.049 21.5374Z" fill="white"/>
</g>
<defs>
<linearGradient id="paint0_linear_11521_62" x1="11.9992" y1="24.0001" x2="11.9992" y2="4.00544e-05" gradientUnits="userSpaceOnUse">
<stop stop-color="#20B038"/>
<stop offset="1" stop-color="#60D66A"/>
</linearGradient>
<clipPath id="clip0_11521_62">
<rect width="24" height="24" fill="white"/>
</clipPath>
</defs>
</svg>
