<svg xmlns="http://www.w3.org/2000/svg" width="18" height="18" viewBox="0 0 18 18">
    <g fill="none" fill-rule="nonzero">
        <path fill="#FFC107" d="M17.824 7.237H17.1V7.2H9v3.6h5.087A5.4 5.4 0 0 1 9 14.4 5.4 5.4 0 0 1 3.6 9 5.4 5.4 0 0 1 9 3.6c1.376 0 2.63.519 3.582 1.368l2.546-2.546A8.957 8.957 0 0 0 9 0a9 9 0 0 0-9 9 9 9 0 0 0 9 9 9 9 0 0 0 8.824-10.763z"/>
        <path fill="#FF3D00" d="M1.037 4.811l2.959 2.17A5.397 5.397 0 0 1 9 3.6c1.376 0 2.63.519 3.582 1.368l2.546-2.546A8.957 8.957 0 0 0 9 0a8.995 8.995 0 0 0-7.963 4.811z"/>
        <path fill="#4CAF50" d="M9 18c2.324 0 4.437-.89 6.035-2.336l-2.787-2.357A5.363 5.363 0 0 1 9 14.4a5.396 5.396 0 0 1-5.077-3.575l-2.935 2.26A8.992 8.992 0 0 0 9 18z"/>
        <path fill="#1976D2" d="M17.824 7.237H17.1V7.2H9v3.6h5.087a5.424 5.424 0 0 1-1.84 2.507h.001l2.787 2.357C14.838 15.84 18 13.5 18 9c0-.603-.062-1.192-.176-1.763z"/>
    </g>
</svg>
