<svg width="20" height="20" viewBox="0 0 20 20" xmlns="http://www.w3.org/2000/svg"><path d="M14.197 3.653l-1.4-1.448a1.327 1.327 0 0 1 0-1.827 1.219 1.219 0 0 1 1.765 0l3.967 4.11a.664.664 0 0 1 0 .914l-3.967 4.11a1.219 1.219 0 0 1-1.764 0 1.327 1.327 0 0 1 0-1.828l1.399-1.448H5.014a1.22 1.22 0 0 1-.881-.378 1.312 1.312 0 0 1-.366-.913c0-.343.131-.672.366-.914.233-.242.55-.378.881-.378h9.183zm.74 10.11c.33 0 .649.136.882.38.234.24.365.57.365.912 0 .343-.13.672-.365.913a1.222 1.222 0 0 1-.882.379H5.755l1.398 1.448a1.327 1.327 0 0 1 0 1.827 1.219 1.219 0 0 1-1.764 0l-3.967-4.11a.664.664 0 0 1 0-.914l3.967-4.11a1.219 1.219 0 0 1 1.764 0 1.327 1.327 0 0 1 0 1.828l-1.398 1.448h9.182z" fill-rule="evenodd"/></svg>