<svg width="9" height="21" viewBox="0 0 9 21" xmlns="http://www.w3.org/2000/svg"><path d="M8.652 9.388l-3.97-4.423a1.742 1.742 0 0 0-.982-.647c-1.064-.256-2.08.516-2.367 1.694 0 0-1.095 3.994-1.238 4.84A6.486 6.486 0 0 0 0 11.938v6.845c0 .522.427.95.95.95h.075a.952.952 0 0 0 .95-.95v-5.438h.004a.33.33 0 0 1 .328-.31c.176 0 .317.137.33.31h.004v5.438c0 .522.427.95.95.95h.074a.952.952 0 0 0 .95-.95v-6.845c0-1.66.165-2.899.323-4.105l2.445 2.723a.82.82 0 0 0 .1.088v8.552a.536.536 0 0 0 1.07 0v-8.553c.016-.013.034-.022.05-.036a.866.866 0 0 0 .05-1.219M6.138 4.76a1.88 1.88 0 1 0 0-3.76 1.88 1.88 0 0 0 0 3.76"/></svg>