<svg xmlns="http://www.w3.org/2000/svg" width="17" height="20" viewBox="0 0 17 20"><path d="M15.684 3.579c-1.473 0-4.263-.421-6.526-3.21-.369-.474-1.105-.474-1.526 0-2.21 2.789-5 3.21-6.474 3.21a.943.943 0 0 0-.947.947v1.58c.052 2.789.631 9.789 7.631 13.683 0 0 .053 0 .053.053.158.053.316.105.473.105.158 0 .316-.052.474-.105h.053c7-3.947 7.579-10.947 7.631-13.684v-1.58c.053-.525-.368-.946-.842-1zM12.316 9l-4.21 4.21L4.895 10a.51.51 0 0 1 0-.737.51.51 0 0 1 .737 0l2.473 2.474 3.474-3.474a.51.51 0 0 1 .737 0 .51.51 0 0 1 0 .737z"/></svg>