<svg height="16" viewBox="0 0 16 16" width="16" xmlns="http://www.w3.org/2000/svg"><path d="m14.385 13.25v.7h-.467v-.7l-.7-1.25h.466l.468.85h.058l.467-.85h.468zm-1.46-.9h-.643v1.6h-.467v-1.6h-.642v-.35h1.752zm-2.57 1.6h.467v-1.95h-.467zm-.934 0-.41-.7h-.35v.7h-.468v-1.95h.936c.467 0 .759.25.759.65 0 .25-.117.45-.409.55l.467.75h-.526zm-2.687.05c-.643 0-.993-.4-.993-1 0-.65.35-1.05.993-1.05.642 0 1.051.4 1.051 1.05 0 .6-.409 1-1.051 1zm-1.986-4.45h.467l.467.8h.059l.467-.8h.467l-.759 1.2v.75h-.409v-.75l-.76-1.2zm.058 4.4h.468v-1.95h-.468zm-.816-2.45-.584-.85-.234.25v.6h-.467v-1.95h.467v.85l.818-.85h.525l-.817.85.876 1.1zm-.059 2.45-.409-.7h-.35v.7h-.467v-1.95h.934c.467 0 .76.25.76.65 0 .25-.176.45-.41.55l.468.75h-.527zm-2.511-2.4c-.526 0-.876-.25-.876-.6h.467c0 .15.175.25.409.25.233 0 .409-.1.409-.25 0-.1-.117-.2-.35-.25l-.293-.05c-.409-.05-.584-.25-.584-.55 0-.35.292-.6.818-.6.467 0 .817.25.817.6h-.408c0-.15-.176-.25-.41-.25-.233 0-.35.05-.35.2s.059.2.35.25l.234.05c.468.1.643.25.643.55 0 .4-.35.65-.876.65zm.117 1.8h-.468v.6h-.409v-1.95h.877c.467 0 .759.3.759.7s-.292.65-.76.65zm-1.537 2.65v-16h16v16zm9.07-3.65h-.408v.6h.408c.233 0 .35-.1.35-.3s-.117-.3-.35-.3zm-5.549 0h-.35v.6h.409c.175 0 .35-.1.35-.3s-.175-.3-.409-.3zm3.213-.05c-.35 0-.584.3-.584.7s.233.65.584.65c.35 0 .584-.25.584-.65s-.234-.7-.584-.7zm-5.315.05h-.35v.65h.35c.233 0 .408-.1.408-.3 0-.25-.116-.35-.408-.35z" fill-rule="evenodd"/></svg>