<svg height="19" viewBox="0 0 15 19" width="15" xmlns="http://www.w3.org/2000/svg"><path d="m14.058 3.984a1.756 1.756 0 0 0 -1.762-1.752l-3.565.01-.118-.83a.497.497 0 0 0 -.477-.411l-2.226.006a.496.496 0 0 0 -.474.414l-.113.83-3.57.01a1.756 1.756 0 0 0 -1.753 1.765l.002.585 14.057-.04-.001-.586zm-2.883 12.289a.896.896 0 0 1 -1.792 0v-8.403a.896.896 0 1 1 1.792 0zm-3.25 0a.896.896 0 0 1 -1.791 0v-8.403a.896.896 0 1 1 1.792 0v8.403zm-3.248 0a.896.896 0 0 1 -1.792 0v-8.403a.896.896 0 1 1 1.792 0zm7.917-10.643h-11.13c-.643 0-1.122.526-1.064 1.167l.959 10.552c.072.655.62 1.155 1.278 1.168h8.786a1.31 1.31 0 0 0 1.276-1.168l.96-10.553a1.054 1.054 0 0 0 -1.065-1.167z"/></svg>