<svg height="20" viewBox="0 0 20 20" width="20" xmlns="http://www.w3.org/2000/svg"><path d="m10.716 9.659c-.017.544-.291 1.248-.932 1.647l-2.31 1.436-.08-.128c.513-.32.659-.944.804-1.567l.267-4.436 2.566-1.595zm7.904 1.128.84 3.879a2.125 2.125 0 0 1 -1.623 2.52l-12.767 2.766a2.124 2.124 0 0 1 -2.52-1.622l-1.035-4.776 2.042 3.256a2.903 2.903 0 0 0 3.996.916l11.066-6.94zm.257-3.582-3.897-6.213a2.126 2.126 0 0 0 -2.922-.67l-11.066 6.94a2.126 2.126 0 0 0 -.67 2.922l3.896 6.212a2.126 2.126 0 0 0 2.922.67l11.067-6.94a2.126 2.126 0 0 0 .67-2.921z" fill-rule="evenodd"/></svg>