<svg xmlns="http://www.w3.org/2000/svg" width="11" height="18" viewBox="0 0 11 18"><path fill-rule="evenodd" d="M10.46 3.205H8.265c-.304 0-.54.24-.54.546v2.222c0 .31.236.549.54.549h.474c-.03.336-.122.978-.408 1.645-.481 1.128-1.3 1.849-2.43 2.156v-7.17h.817a.284.284 0 0 0 .249-.413L5.69.205a.368.368 0 0 0-.66 0L3.755 2.74a.283.283 0 0 0 .249.412h.817v8.937c-2.576-.754-2.648-3.038-2.625-3.595.575-.242.978-.814.978-1.484 0-.89-.71-1.607-1.587-1.607C.708 5.403 0 6.12 0 7.01c0 .67.403 1.24.977 1.483-.067 1.502.652 4.113 3.844 4.862v.879a1.914 1.914 0 0 0-1.36 1.843c0 1.065.848 1.923 1.9 1.923s1.9-.858 1.9-1.923c0-.875-.572-1.608-1.36-1.843v-2.651c3.05-.644 3.978-3.445 4.06-5.061h.499c.304 0 .54-.274.54-.549V3.751a.536.536 0 0 0-.54-.546"/></svg>