<svg height="16" viewBox="0 0 16 16" width="16" xmlns="http://www.w3.org/2000/svg"><path d="m8 16a8 8 0 1 1 0-16 8 8 0 1 1 0 16zm4.514-9.823s-.085-.601-.347-.866c-.331-.347-.703-.35-.873-.37-1.221-.088-3.052-.088-3.052-.088h-.004s-1.83 0-3.052.089c-.17.02-.542.022-.873.369-.262.265-.347.866-.347.866s-.087.706-.087 1.412v.661c0 .706.087 1.412.087 1.412s.085.601.347.866c.331.347.767.336.962.373.697.067 2.965.087 2.965.087s1.833-.002 3.054-.09c.17-.02.542-.023.873-.37.262-.265.347-.866.347-.866s.088-.706.088-1.412v-.66c0-.706-.088-1.412-.088-1.412zm-5.174 2.875v-2.45l2.356 1.23z"/></svg>