<svg height="17" viewBox="0 0 21 17" width="21" xmlns="http://www.w3.org/2000/svg"><path d="m7.272 8.331c.305 0 .604.035.9.104l.518-1.027c.197-.374.556-.593.966-.593h1.992a5.11 5.11 0 0 0 .082-.083c1.881-1.955 2.275-4.631.878-5.976-1.21-1.165-3.367-.947-5.147.404-.006.005-2.502 2.082-2.502 4.326 0 1.528-.273 2.704-1.931 4.427l-3.028 3.143.794.766 2.73-2.836c.01-.01.02-.023.025-.037a3.966 3.966 0 0 1 3.723-2.618m9.408 7.369a2.448 2.448 0 0 1 -2.444-2.445c0-.894.485-1.71 1.268-2.142l.762 2.28a.438.438 0 1 0 .83-.277l-.762-2.28a2.32 2.32 0 0 1 .347-.027 2.448 2.448 0 0 1 2.445 2.446 2.448 2.448 0 0 1 -2.446 2.445zm-4.911-3.922-1.37-2.468h3.713zm-2.096 1.039h-1.523l.71-1.404c.423.362.71.857.813 1.404zm-2.4 2.899a2.448 2.448 0 0 1 -2.446-2.445 2.448 2.448 0 0 1 2.446-2.445c.28 0 .56.05.83.148l-1.055 2.083a.436.436 0 0 0 .39.635h2.24a2.462 2.462 0 0 1 -2.405 2.024zm9.408-5.781a3.3 3.3 0 0 0 -.628.06l-.738-2.21h.837a.437.437 0 0 0 0-.874h-1.444a.439.439 0 0 0 -.415.576l.317.948h-4.955a.436.436 0 0 0 -.39.24l-.765 1.513a3.29 3.29 0 0 0 -1.227-.237 3.323 3.323 0 0 0 -3.32 3.32 3.323 3.323 0 0 0 3.32 3.32 3.323 3.323 0 0 0 3.319-3.32v-.022a3.291 3.291 0 0 0 -1.33-2.63l.41-.813 1.62 2.917a.438.438 0 0 0 .7.089l3.018-3.178.215.642a3.338 3.338 0 0 0 -1.864 2.979c0 1.83 1.489 3.32 3.32 3.32 1.83 0 3.32-1.49 3.32-3.32a3.323 3.323 0 0 0 -3.32-3.32z"/></svg>