<svg xmlns="http://www.w3.org/2000/svg" width="12" height="16" viewBox="0 0 12 16"><path fill-rule="evenodd" d="M5.997 4.31a2.143 2.143 0 0 1 0-4.283 2.142 2.142 0 0 1 0 4.283zm-.87 9.886c.487.38.61 1.044.273 1.476-.337.433-1.013.475-1.5.094l-1.627-1.268c-.472-.401-.497-.914-.184-1.417l1.226-2.022 2.024.975c-.02.047-.953 1.593-.953 1.593l.74.569zm6.063-6.234a.996.996 0 0 1 .04 1.402l-.037.04a.996.996 0 0 1-1.403.04L8.575 8.297v1.572h-5.15V8.295L2.207 9.444a.996.996 0 0 1-1.403-.04l-.037-.04a.996.996 0 0 1 .04-1.402C3.704 5.24 3.595 5.242 3.942 5.04c.185-.155 1.036-.271 2.057-.271 1.028 0 1.881.118 2.06.272.345.203.237.2 3.131 2.92zm-4.32 6.234l.741-.569s-.934-1.546-.953-1.593l2.024-.975 1.227 2.022c.312.503.286 1.016-.185 1.417l-1.628 1.268c-.487.381-1.161.339-1.498-.094-.337-.432-.215-1.096.272-1.476z"/></svg>