<svg xmlns="http://www.w3.org/2000/svg" width="20" height="14" viewBox="0 0 20 14"><path fill-rule="evenodd" d="M14.548 5.391c.827.058 1.842.554 1.877 1.232-.035.679-1.05 1.175-1.877 1.233-1.088.075-2.661.087-4.409.058l-3.195 5.332h-1.53L6.605 7.81a169.056 169.056 0 0 1-4.397-.233v.02l-.973 1.597H0V4.052h1.235l.973 1.597v.02c1.33-.089 2.855-.171 4.397-.233L5.414 0h1.53l3.195 5.332c1.748-.029 3.321-.016 4.409.059zm-6.963 7.855l.41-.688h11.142a.344.344 0 1 1 0 .688H7.585zm11.942-3.181c.299.328.473.64.473.857 0 .73-1.32 1.103-2.824 1.103H8.317l1.174-1.96h4.586a.344.344 0 1 0 0-.687H9.904l.47-.786c2.392-.094 4.602-.163 5.501-.163 1.087 0 2.101.428 2.854.949h-1.282a.343.343 0 1 0 0 .687h2.08z"/></svg>