<svg xmlns="http://www.w3.org/2000/svg" width="17" height="16" viewBox="0 0 17 16"><path fill-rule="evenodd" d="M11.358 14.926H8.507a7.505 7.505 0 0 0 .637-2.197c.052-.378.085-.783.085-1.224 0-.39-.18-.707-.532-.949a1.968 1.968 0 0 0-.173-.108c.05-.005.102-.01.153-.017.33-.037.666-.068.908-.068 1.734 0 2.771.339 2.771.907 0 1.998-.706 3.231-.998 3.656M7.351 9.729l-.176.325a11.02 11.02 0 0 0-1.559-.097c-.14 0-.306.009-.481.022-.037-.243-.138-1.111-.17-1.366.458-.146 2.053-.34 3.424-.433.948-.064 1.745-.025 2.209.088.014.017-.057.304-.064.345-.964.014-1.582-.033-2.078.2-.774.363-1.06.833-1.105.916M4.898 1.075c.326.013.751.09 1.035.343.23.207.35.511.363.934.036 1.086-.46 1.296-.542 1.353-.08.058-.14.082-.238.215-.098.134-.117.306-.082.607.035.291.116 1.28.597 2.872-.524.075-.756.12-1.17.188-.169-2.078-.183-4.348.037-6.512m8.932 8.882c-.532 0-1.425.129-1.891.184 0 0 .618-1.156 3.072-1.16.505 0 .656-1.1-.015-1.263-.777-.186-2.398-.226-4.188.144-.663-1.927-.853-3.918-.853-3.918s.996-.343.941-2.02c-.072-2.281-2.482-1.9-2.482-1.9-.264 2.277-.282 4.761-.124 7.09a22.84 22.84 0 0 0-1.238.151 17.849 17.849 0 0 1-.599-2.762c.38-.293.895-.925.854-2.189-.024-.736-.27-1.316-.73-1.722-.86-.762-2.15-.573-2.204-.564l-.38.059-.049.405c-.278 2.356-.274 4.866-.086 7.162-.449.045-.635.114-1.12.21-.692-1.93-.891-3.92-.891-3.92s1.042-.343.986-2.02C2.756-.355.236.025.236.025c-.654 5.382.127 11.923 1.397 14.82C1.97 15.61 2.51 16 3.511 16h12.16S17 14.49 17 11.505c0-1.032-.916-1.548-3.17-1.548"/></svg>