<svg xmlns="http://www.w3.org/2000/svg" width="16" height="16" viewBox="0 0 16 16"><path d="M13.843 0H2.156A2.156 2.156 0 0 0 0 2.156v11.687C0 15.034.966 16 2.156 16H7.92l.01-5.717H6.444a.35.35 0 0 1-.35-.35L6.085 8.09a.35.35 0 0 1 .351-.352H7.92v-1.78c0-2.067 1.262-3.193 3.105-3.193h1.513a.35.35 0 0 1 .35.351V4.67a.35.35 0 0 1-.35.35h-.928c-1.002 0-1.196.477-1.196 1.176v1.542h2.203a.35.35 0 0 1 .348.392l-.218 1.843a.35.35 0 0 1-.348.31h-1.975L10.414 16h3.43A2.156 2.156 0 0 0 16 13.844V2.156A2.157 2.157 0 0 0 13.843 0z"/></svg>