<svg height="18" viewBox="0 0 18 18" width="18" xmlns="http://www.w3.org/2000/svg"><path d="m8.397.483c.313-.644.825-.644 1.14 0l1.823 3.749c.314.643 1.144 1.254 1.844 1.358l4.08.601c.701.103.86.597.351 1.098l-2.95 2.919c-.507.501-.825 1.49-.705 2.198l.697 4.12c.12.707-.296 1.013-.922.678l-3.649-1.945c-.627-.334-1.653-.334-2.28 0l-3.648 1.945c-.627.335-1.042.03-.922-.678l.697-4.12c.12-.708-.197-1.697-.704-2.198l-2.952-2.919c-.507-.5-.348-.995.352-1.098l4.08-.6c.7-.105 1.53-.716 1.843-1.36z"/></svg>