<svg height="18" viewBox="0 0 18 18" width="18" xmlns="http://www.w3.org/2000/svg"><path d="m17.072 6.135a1.81 1.81 0 0 1 -.57 2.487l-9.423 5.909a1.81 1.81 0 0 1 -2.488-.57l-3.317-5.29a1.81 1.81 0 0 1 .57-2.489l9.423-5.908a1.81 1.81 0 0 1 2.488.57l3.317 5.29zm-5.439 3.107v.001c1.657-1.04 2.049-2.63 1.146-4.07-.947-1.511-2.425-1.637-4.084-.597l-1.643 1.03 2.93 4.672zm-3.87 2.427v.001l1.067-.67-2.93-4.67-1.067.667zm1.507-6.161-.607.382 1.806 2.881.608-.381c1.035-.65 1.24-1.57.664-2.487-.557-.888-1.427-1.049-2.471-.395zm-2.278 9.766 9.422-5.908.716 3.302a1.81 1.81 0 0 1 -1.381 2.146l-10.87 2.356a1.81 1.81 0 0 1 -2.146-1.38l-.883-4.07 1.74 2.773a2.471 2.471 0 0 0 3.401.78z"/></svg>