<svg width="20" height="18" viewBox="0 0 20 18" xmlns="http://www.w3.org/2000/svg"><path d="M19.945 4.42c-.16-.53-.674-.651-1.2-.67-.214-.006-2.436-.08-5.026-.166A7.865 7.865 0 0 0 7.89 1C3.525 1.005 0 4.554 0 8.908c0 .312.022.618.057.92l19.271-4.15c.41-.124.822-.578.617-1.258m-7.567 8.502a1.253 1.253 0 1 1 0-2.506 1.253 1.253 0 0 1 0 2.506zm-5.13 0a1.254 1.254 0 1 1-.07-2.507 1.254 1.254 0 0 1 .07 2.507zm-7.19-2.28a7.897 7.897 0 0 0 7.832 6.983c4.37-.006 7.902-3.543 7.902-7.902 0-.718-.104-1.717-.284-2.379L.058 10.642z"/></svg>