<svg height="16" viewBox="0 0 16 16" width="16" xmlns="http://www.w3.org/2000/svg"><path d="m8 16a8 8 0 1 1 0-16 8 8 0 1 1 0 16zm.241-12.118c-1.185 0-1.333.005-1.799.026-.464.021-.78.095-1.058.203-.291.11-.555.28-.773.503a2.138 2.138 0 0 0 -.503.772c-.108.278-.182.595-.203 1.06s-.026.613-.026 1.798c0 1.184.005 1.333.026 1.799.021.464.095.78.203 1.058.11.291.28.555.503.773.242.242.486.392.773.503.277.108.594.182 1.059.203s.613.026 1.798.026 1.333-.005 1.799-.026c.464-.021.78-.095 1.059-.203.29-.11.554-.281.772-.503.242-.242.392-.486.503-.773.108-.277.182-.594.203-1.059s.026-.614.026-1.799c0-1.184-.005-1.332-.026-1.798-.02-.464-.095-.781-.203-1.059a2.138 2.138 0 0 0 -.503-.772 2.138 2.138 0 0 0 -.772-.503c-.278-.108-.595-.182-1.06-.203s-.613-.026-1.798-.026zm0 .785c1.165 0 1.303.005 1.763.026.425.02.656.09.81.15.203.08.349.174.501.326.153.153.248.299.327.502.06.154.13.385.15.81.02.46.025.598.025 1.763 0 1.164-.004 1.303-.025 1.762-.02.426-.09.657-.15.81a1.35 1.35 0 0 1 -.327.502 1.357 1.357 0 0 1 -.501.327c-.154.06-.385.13-.81.15-.46.02-.598.025-1.763.025s-1.303-.005-1.762-.026c-.426-.019-.657-.09-.81-.15a1.351 1.351 0 0 1 -.502-.326 1.352 1.352 0 0 1 -.327-.502c-.06-.153-.13-.384-.15-.81-.02-.46-.025-.598-.025-1.762 0-1.165.005-1.303.025-1.763.02-.425.09-.656.15-.81a1.37 1.37 0 0 1 .327-.502 1.35 1.35 0 0 1 .501-.326c.154-.06.385-.13.81-.15.46-.021.598-.025 1.763-.025zm0 1.337a2.24 2.24 0 1 0 0 4.48 2.24 2.24 0 0 0 0-4.48zm0 3.694a1.454 1.454 0 1 1 0-2.908 1.454 1.454 0 0 1 0 2.908zm2.852-3.783a.524.524 0 1 0 -1.047 0 .524.524 0 0 0 1.047 0z"/></svg>