<svg xmlns="http://www.w3.org/2000/svg" width="14" height="17" viewBox="0 0 14 17"><path fill-rule="evenodd" d="M2.503 15.953l.09.04A10.16 10.16 0 0 0 6.739 17h.352c.446 0 .891-.04 1.334-.095.95-.136 1.882-.408 2.758-.803l.097-.04.096-.055.096-.04.095-.055.094-.04.095-.055.093-.055.092-.04.093-.055.042-.027.05-.027.04-.027.052-.028.04-.027.05-.027.039-.027.051-.027.038-.028.052-.04.036-.014.053-.04.036-.028.052-.027.036-.027.053-.041.032-.014.054-.04.033-.028.054-.04.031-.014.056-.041.028-.027.057-.041.027-.014.059-.054.024-.014.06-.054.023-.014.06-.04.021-.028.063-.04.019-.028.063-.054.017-.014.065-.054.015-.014.066-.054.012-.014.07-.054.009-.014.07-.054.083-.082.076-.068c-.466-1.564-.932-3.114-1.383-4.678H1.384C.932 11.084.466 12.634 0 14.198l.072.068h.001l.072.068h.001l.072.068c.193.164.39.327.596.49l.014.014.056.04.026.014.05.04.031.028.048.04.034.014.046.041.036.027.045.028.04.027.043.027.039.027.043.027.127.082.043.027.042.041.042.014.045.027.042.027.045.027.042.027.044.028.042.027.046.027.041.027.048.027.04.014.05.027.04.027.049.028.04.027.05.027.04.014.054.027.035.027.061.027.03.014zM7.001 0c1.87 0 3.39 1.523 3.39 3.4S8.87 6.8 7 6.8a3.396 3.396 0 0 1-3.39-3.4C3.61 1.523 5.129 0 7 0z"/></svg>