<svg height="15" viewBox="0 0 18 15" width="18" xmlns="http://www.w3.org/2000/svg"><path d="m17.867 7.734a1.824 1.824 0 0 1 -1.003 2.371l-11.685 4.736c-.22.088-.45.133-.683.133a1.811 1.811 0 0 1 -1.688-1.137l-2.674-6.597a1.808 1.808 0 0 1 .011-1.392c.19-.449.542-.795.992-.977l11.686-4.736a1.815 1.815 0 0 1 2.37 1.003zm-5.691 1.809c.28.03.39-.144.24-.388l-.869-1.42a1.121 1.121 0 0 1 -.065-.916l.66-1.515c.113-.261-.02-.42-.293-.355l-1.6.382c-.274.066-.673-.038-.884-.229l-1.23-1.116c-.213-.192-.403-.115-.423.17l-.12 1.655a1.09 1.09 0 0 1 -.48.775l-1.42.826c-.246.143-.23.349.031.46l1.526.64c.262.11.526.429.587.708l.353 1.626c.06.28.259.331.441.114l1.062-1.259a1.09 1.09 0 0 1 .845-.337z" fill-rule="evenodd"/></svg>