<svg width="24" height="24" viewBox="0 0 24 24" fill="none" xmlns="http://www.w3.org/2000/svg">
<path d="M22.8693 0H1.1307C0.506234 0 0 0.506234 0 1.1307V22.8693C0 23.4938 0.506234 24 1.1307 24H22.8693C23.4938 24 24 23.4938 24 22.8693V1.1307C24 0.506234 23.4938 0 22.8693 0Z" fill="#FF2741"/>
<path d="M11.1651 15.4518C11.3003 15.156 11.3815 14.8501 11.5234 14.5679C11.6569 14.3025 11.8784 14.1656 12.164 14.1183C12.3702 14.0845 12.5781 14.0473 12.7843 14.0135C12.84 14.0051 12.862 13.9831 12.862 13.9222C12.8603 12.7932 12.8603 11.6625 12.862 10.5335C12.862 10.4558 12.8282 10.4169 12.7589 10.4034C12.6237 10.378 12.4868 10.3577 12.3499 10.3358C12.3431 10.3358 12.3364 10.3358 12.3279 10.3324C12.1623 10.3003 12.1471 10.2867 12.1184 10.1211C12.0676 9.82365 12.0947 9.52619 12.1184 9.22872C12.1217 9.18647 12.1505 9.16619 12.1775 9.1459C12.2738 9.07323 12.3871 9.0614 12.5037 9.0614C13.1527 9.05633 13.8034 9.05295 14.4524 9.0614C14.5471 9.0614 14.6434 9.06816 14.7381 9.06985C14.7736 9.06985 14.804 9.08337 14.831 9.10365C14.9223 9.17295 14.9831 9.26759 15.0524 9.35548C15.0609 9.36562 15.0643 9.38252 15.0643 9.39604C15.0491 9.61576 15.0778 9.83548 15.0491 10.0535C15.0288 10.1989 14.9527 10.2918 14.8124 10.3358C14.6705 10.3797 14.5234 10.4017 14.3781 10.4203C14.324 10.427 14.3003 10.4422 14.3003 10.5065C14.3037 11.6676 14.302 12.8287 14.3003 13.9898C14.3003 14.0422 14.3105 14.0608 14.3662 14.0693C14.6215 14.1065 14.88 14.1031 15.1369 14.12C15.4107 14.1386 15.3871 14.1437 15.4327 14.382C15.4817 14.6389 15.4615 14.9008 15.453 15.1611C15.4496 15.2422 15.4496 15.3183 15.3803 15.3758C15.333 15.4146 15.2874 15.4451 15.2215 15.4451C13.8862 15.4569 12.551 15.4484 11.2158 15.4518C11.204 15.4518 11.1922 15.4518 11.1668 15.4518H11.1651Z" fill="#FEFEFE"/>
<path d="M6.19605 11.6258C6.19605 12.1041 6.19605 12.5808 6.19605 13.0591C6.19605 13.4765 6.19605 13.8957 6.1876 14.3132C6.18252 14.6106 6.11661 14.8912 5.90365 15.1177C5.70252 15.3306 5.44393 15.4151 5.16337 15.454C5.02816 15.4726 4.89295 15.481 4.75605 15.4608C4.5414 15.4287 4.39605 15.307 4.33013 15.1041C4.25914 14.8827 4.16788 14.6715 4.06647 14.4636C4.04281 14.4163 4.05295 14.401 4.10365 14.3875C4.23717 14.3503 4.36731 14.3064 4.49914 14.2641C4.74083 14.1881 4.85914 14.0208 4.86759 13.7689C4.86929 13.698 4.87605 13.6253 4.87605 13.5543C4.87943 12.5368 4.88281 11.5194 4.88281 10.5019C4.88281 10.0202 4.87436 9.53682 4.87267 9.05513C4.87267 9.00781 4.87774 8.9588 4.88788 8.91316C4.92168 8.73908 5.0214 8.64443 5.21069 8.63598C5.47436 8.62246 5.73971 8.63091 6.00337 8.65964C6.1352 8.67485 6.17914 8.73063 6.19098 8.86077C6.2045 9.02302 6.18928 9.18528 6.18928 9.34753C6.18928 10.1064 6.18928 10.867 6.18928 11.6258H6.19605Z" fill="#FEFEFE"/>
<path d="M10.6023 10.2621C10.8457 10.2824 11.0823 10.301 11.3206 10.3195C11.4541 10.3297 11.5876 10.3432 11.7212 10.3483C11.7888 10.3517 11.7871 10.3736 11.7634 10.4243C11.4676 11.0936 11.1736 11.7629 10.8795 12.4339C10.8693 12.4576 10.8592 12.4812 10.8457 12.5134C10.9606 12.5269 11.0721 12.5404 11.182 12.5522C11.3223 12.5674 11.4626 12.5843 11.6029 12.5962C11.6485 12.5996 11.6519 12.6148 11.635 12.6536C11.5116 12.9325 11.3899 13.2114 11.2682 13.4919C11.2192 13.6052 11.1448 13.661 11.0096 13.6576C10.631 13.6491 10.2507 13.6694 9.87215 13.6424C9.76229 13.6339 9.65243 13.6255 9.54426 13.6103C9.33976 13.5815 9.22145 13.3939 9.26201 13.1708C9.28736 13.0305 9.35497 12.9055 9.40736 12.7753C9.5544 12.4136 9.70483 12.0519 9.85525 11.6919C9.86539 11.6666 9.87553 11.6396 9.88567 11.6108C9.68285 11.5821 9.48342 11.5618 9.28905 11.5077C9.22482 11.4891 9.16229 11.4688 9.10314 11.435C8.96623 11.359 8.91046 11.2424 8.93243 11.0886C8.96454 10.8638 9.05919 10.6593 9.14877 10.4548C9.33299 10.0407 9.53919 9.63842 9.70821 9.21758C9.75215 9.10772 9.79102 8.99448 9.84004 8.88631C9.95497 8.63786 10.151 8.51786 10.4248 8.53814C10.702 8.55842 10.9775 8.55673 11.2547 8.54659C11.3358 8.54321 11.3358 8.54659 11.3054 8.61758C11.0823 9.13645 10.8575 9.65532 10.6344 10.1725C10.6226 10.1979 10.6141 10.2249 10.6006 10.257L10.6023 10.2621Z" fill="#FEFEFE"/>
<path d="M7.93189 14.8965C7.75273 14.648 7.61076 14.3877 7.49583 14.1105C7.32006 13.6863 7.22203 13.2435 7.16287 12.7905C7.09189 12.2396 7.07499 11.6835 7.03273 11.1291C7.01414 10.8858 6.99217 10.6441 6.95161 10.4041C6.94316 10.3534 6.94992 10.3348 7.00907 10.3348C7.41301 10.3381 7.81696 10.3365 8.21921 10.3348C8.2733 10.3348 8.29189 10.3466 8.29527 10.4041C8.31217 10.8012 8.33245 11.2001 8.35104 11.5973C8.37132 11.9979 8.40851 12.3967 8.49471 12.7889C8.57414 13.1505 8.51837 13.4987 8.38654 13.8401C8.27161 14.1376 8.12118 14.4198 8.00118 14.7173C7.97752 14.7748 7.95555 14.8322 7.93189 14.8965Z" fill="#FEFEFE"/>
<path d="M3.42426 10.293C3.5206 10.293 3.61524 10.2896 3.71158 10.293C3.95327 10.3048 4.04961 10.4045 4.05299 10.6496C4.05637 10.8744 4.02764 11.0975 4.00736 11.3206C3.96848 11.7313 3.92623 12.142 3.88398 12.5527C3.84172 12.9532 3.78764 13.3538 3.70989 13.7493C3.65581 14.0214 3.5206 14.2631 3.39553 14.5065C3.35158 14.5927 3.30933 14.6823 3.2637 14.7685C3.25355 14.7887 3.25355 14.8293 3.21637 14.8225C3.17412 14.8141 3.11327 14.8225 3.09468 14.7769C2.92736 14.3594 2.68229 13.9741 2.57919 13.5296C2.51834 13.2727 2.51496 13.0141 2.5775 12.7572C2.66539 12.3837 2.69581 12.0034 2.71102 11.6214C2.72454 11.2952 2.72454 10.9673 2.74989 10.6411C2.7651 10.4248 2.86482 10.3234 3.08285 10.3065C3.19778 10.298 3.31102 10.2947 3.42595 10.2879V10.293H3.42426Z" fill="#FEFEFE"/>
<path d="M8.47778 15.4439C8.49469 15.4067 8.50821 15.3729 8.52511 15.3391C8.69919 14.9571 8.87666 14.5768 9.04736 14.1948C9.09468 14.0884 9.16398 14.0461 9.28229 14.0512C9.88905 14.0799 10.4975 14.1053 11.106 14.1306C11.1195 14.1306 11.133 14.1323 11.155 14.1357C11.0806 14.3047 11.0096 14.467 10.9352 14.6292C10.8406 14.8371 10.746 15.045 10.6462 15.2512C10.5888 15.3712 10.4941 15.4405 10.3538 15.4439C9.73863 15.4574 9.12173 15.4489 8.50652 15.4489C8.49975 15.4489 8.49468 15.4456 8.48116 15.4422L8.47778 15.4439Z" fill="#FEFEFE"/>
<path d="M20.5217 10.38C20.4761 10.3766 20.3916 10.3834 20.3088 10.3665C20.2209 10.3496 20.1719 10.309 20.1634 10.2228C20.1347 9.96932 20.133 9.71749 20.2192 9.47242C20.3223 9.17834 20.5741 9.01777 20.8733 9.0482C21.1741 9.08031 21.4158 9.31186 21.4547 9.61101C21.502 9.96425 21.3195 10.2347 20.9628 10.3344C20.831 10.3716 20.6958 10.3851 20.5217 10.38Z" fill="#FEFEFE"/>
<path d="M21.4597 12.6409C21.4479 12.1406 21.2281 11.7755 20.7633 11.5677C20.5876 11.4899 20.4 11.4527 20.2107 11.4257C20.1633 11.4189 20.1397 11.4037 20.1312 11.353C20.0856 11.1113 20.0366 10.8713 19.9893 10.6296C19.9284 10.3254 19.8608 10.0246 19.7408 9.73555C19.5802 9.3502 19.2879 9.14907 18.8839 9.08484C18.6067 9.0409 18.3279 9.04428 18.049 9.04259C17.9898 9.04259 17.9679 9.02569 17.9543 8.96822C17.8732 8.664 17.7042 8.53217 17.3881 8.52372C17.1532 8.51696 16.9233 8.56259 16.6935 8.60653C16.6462 8.61498 16.631 8.63865 16.6242 8.6809C16.609 8.77555 16.5904 8.86851 16.5752 8.96315C16.5684 9.0071 16.5532 9.02569 16.5042 9.03076C16.2845 9.04766 16.0664 9.06963 15.8484 9.08653C15.8062 9.08991 15.7909 9.10344 15.7926 9.14738C15.7943 9.22851 15.7926 9.30963 15.7893 9.39076C15.7791 9.64597 15.7656 9.90118 15.8045 10.1547C15.8298 10.317 15.8383 10.3305 15.9971 10.3643C16.1662 10.3998 16.3369 10.4099 16.5076 10.4336C16.56 10.4403 16.5786 10.4572 16.5786 10.5147C16.5752 10.802 16.5752 11.0877 16.5786 11.375C16.5786 11.4324 16.565 11.451 16.5042 11.451C16.1509 11.4477 15.7977 11.451 15.4445 11.4477C15.387 11.4477 15.3667 11.4595 15.3667 11.5203C15.3701 11.9091 15.3701 12.2995 15.3667 12.6882C15.3667 12.7457 15.3836 12.7592 15.4394 12.7592C15.8095 12.7575 16.1797 12.7592 16.5498 12.7575C16.6073 12.7575 16.6208 12.7727 16.6208 12.8285C16.6191 13.2561 16.6208 13.6837 16.6208 14.1113C16.6208 14.5339 16.6225 14.9564 16.6191 15.3789C16.6191 15.4516 16.6394 15.4651 16.707 15.4634C16.8693 15.4584 17.0315 15.4634 17.1938 15.4617C17.3425 15.4617 17.4895 15.4651 17.6383 15.4516C17.8124 15.4347 17.8749 15.3772 17.9036 15.2082C17.9155 15.1372 17.9155 15.0663 17.9155 14.9936C17.9155 14.2702 17.9155 13.5468 17.9155 12.8217C17.9155 12.7744 17.9188 12.7491 17.9797 12.7508C18.4884 12.7541 18.9971 12.7524 19.5059 12.7558C19.6039 12.7558 19.7019 12.7643 19.7983 12.7812C20.0298 12.8201 20.1262 12.9282 20.1515 13.1632C20.1786 13.4133 20.1498 13.6634 20.1566 13.9136C20.1566 13.9305 20.1498 13.9457 20.138 13.9592C20.0805 14.0285 20.0231 14.0995 19.9656 14.1688C19.9132 14.233 19.8422 14.2634 19.7611 14.2719C19.6326 14.2837 19.5042 14.2905 19.3757 14.2871C19.2591 14.282 19.1425 14.2803 19.0259 14.277C19.0022 14.277 18.9769 14.2719 18.9819 14.3124C19.0242 14.5863 19.0698 14.8601 19.2169 15.1017C19.3352 15.2978 19.5093 15.411 19.734 15.4499C19.9132 15.482 20.0907 15.4719 20.2681 15.4465C20.4811 15.4161 20.6924 15.3806 20.8867 15.2792C21.2957 15.0646 21.4648 14.7113 21.4698 14.2634C21.4749 13.7209 21.4783 13.1801 21.4648 12.6375L21.4597 12.6409ZM18.698 11.0319C18.6929 11.1384 18.6743 11.2448 18.6659 11.3513C18.6625 11.3986 18.6405 11.4088 18.5983 11.4071C18.3988 11.4054 18.1977 11.4054 17.9983 11.4071C17.956 11.4071 17.9408 11.397 17.9408 11.3513C17.9442 11.211 17.9408 11.0708 17.9408 10.9288C17.9408 10.7936 17.9408 10.6567 17.9408 10.5215C17.9408 10.4775 17.9493 10.4539 17.9983 10.4437C18.1301 10.4133 18.2619 10.3778 18.3988 10.3795C18.5628 10.3795 18.6524 10.4505 18.6862 10.611C18.7166 10.7496 18.7064 10.8916 18.698 11.0319Z" fill="#FEFEFE"/>
</svg>
