<svg width="18" height="19" viewBox="0 0 18 19" xmlns="http://www.w3.org/2000/svg"><path d="M8.76 15.882a6.12 6.12 0 0 1-6.126-6.127 6.114 6.114 0 0 1 6.126-6.12v-.002a6.109 6.109 0 0 1 6.12 6.122 6.114 6.114 0 0 1-6.12 6.128m0-14.882C3.935 1 0 4.927 0 9.753c0 4.827 3.935 8.762 8.76 8.762 4.828 0 8.755-3.935 8.755-8.762C17.515 4.927 13.588 1 8.761 1"/><path d="M12.43 9.01c-.197-.21-.464-.33-.806-.337H5.909a1.076 1.076 0 0 0-1.134 1.132c.03.575.508 1.023 1.067 1.023l.049-.001h5.727c.286.003.56-.096.77-.295.209-.197.328-.463.336-.751a1.068 1.068 0 0 0-.293-.771"/></svg>