<svg height="19" viewBox="0 0 21 19" width="21" xmlns="http://www.w3.org/2000/svg"><path d="m12.182 0 .301 1.798-1.623 1.176h7.483v-1.63zm-9.409 15.574 1.7-2.297 1.525 2.297zm4.375 0-2.07-3.116 5.987-8.094c-1.47-1.087-3.415-.976-4.32.25l-5.281 7.138c-.852 1.15-.497 2.886.764 3.995.078 1.749 1.292 3.153 2.765 3.153h8.878c1.524 0 2.771-1.497 2.771-3.326z"/><path d="m12.244 3.694a3.081 3.081 0 1 0 6.035 0zm4.878 4.433h-3.72a3.89 3.89 0 0 0 -3.878 3.878v2.85h7.838v.719c0 1.377-.598 2.594-1.508 3.325h5.146v-6.894a3.89 3.89 0 0 0 -3.878-3.878z"/></svg>