<svg height="17" viewBox="0 0 20 17" width="20" xmlns="http://www.w3.org/2000/svg"><path d="m3.272 7.722.048-.22c.024-.106.598-2.645 1.973-3.747.867-.696 3.404-.771 4.454-.771.156 0 .25.002.25.002.007 0 .1-.002.256-.002 1.05 0 3.587.075 4.454.77 1.375 1.103 1.949 3.642 1.972 3.749l.049.219zm12.056 4.228a1.4 1.4 0 1 1 0-2.8 1.4 1.4 0 0 1 0 2.8zm-10.658 0a1.4 1.4 0 1 1 0-2.8 1.4 1.4 0 0 1 0 2.8zm15.33-4.926c0-.512-.581-.928-1.296-.928-.4 0-.752.133-.99.336-.109-.276-.18-.44-.18-.44s-1.24-2.833-2.553-3.503c-.546-.28-1.477-.451-2.315-.556v-1.933h-5.333v1.933c-.837.105-1.769.277-2.314.556-1.313.67-2.553 3.504-2.553 3.504s-.071.163-.18.439c-.238-.203-.591-.336-.99-.336-.716 0-1.296.416-1.296.928 0 .513.58.928 1.296.928.166 0 .323-.024.469-.065-.566 1.758-1.185 4.263-.298 5.38v2.633c0 .338.387.58.725.58h1.289c.338 0 .5-.242.5-.58v-1.573c1.676.292 5.273.308 6.019.308s4.342-.016 6.018-.308v1.573c0 .338.163.58.501.58h1.289c.337 0 .724-.242.724-.58v-2.634c.888-1.117.269-3.622-.297-5.38.146.04.303.065.469.065.715 0 1.296-.415 1.296-.928z"/></svg>