<svg xmlns="http://www.w3.org/2000/svg" width="13" height="18" viewBox="0 0 13 18"><path d="M13 13.5H.001V.946A.893.893 0 0 1 .268.264.923.923 0 0 1 .961.001h11.08a.921.921 0 0 1 .675.247c.182.17.284.406.284.653V13.5zM3.137 3.799l-.53.27.575 1.898c.01.55 1.39.55 1.39.55l1.49.098v.46l-.53 2.699h.53l1.792-3.033c.703.072 1.343.072 1.69.072 1.107 0 1.107-.8 1.107-.828 0-.027-.019-.818-1.106-.818-.348 0-.988.063-1.691.063L6.117 2.188h-.54l.54 2.7v.414L4.572 5.4l-.42.045-1.015-1.646zM13 14.399v2.7a.892.892 0 0 1-.284.653.92.92 0 0 1-.676.247H.961a.924.924 0 0 1-.676-.247.892.892 0 0 1-.284-.653v-2.7H13zm-3.474 2.268h1.015a.453.453 0 0 0 .457-.45.454.454 0 0 0-.457-.45H9.526a.454.454 0 0 0-.457.45c0 .249.205.45.457.45zm-2.285 0a.453.453 0 0 0 .457-.45c0-.248-.205-.45-.457-.45s-.457.202-.457.45c0 .249.205.45.457.45zm-2.294 0a.453.453 0 0 0 .457-.45.454.454 0 0 0-.457-.45.453.453 0 0 0-.457.45c0 .249.204.45.457.45zm-2.286 0a.453.453 0 0 0 .457-.45.453.453 0 0 0-.457-.45.454.454 0 0 0-.457.45c0 .249.205.45.457.45z"/></svg>