<svg width="17" height="17" viewBox="0 0 17 17" xmlns="http://www.w3.org/2000/svg"><path d="M14.394 11.82a1.088 1.088 0 1 1-.001-2.174 1.088 1.088 0 0 1 0 2.175l.001-.001zm1.914-7.675v-.001c.26.182.415.479.416.796v10.333a.977.977 0 0 1-.975.975H.975A.978.978 0 0 1 0 15.273V4.94a.977.977 0 0 1 .975-.973H7.94L4.672.7a.41.41 0 1 1 .58-.58l3.845 3.847h.245l2.131-2.132a.41.41 0 0 1 .578.58l-1.55 1.552h5.247c.2 0 .396.062.56.178zm-1.914 10.863a1.088 1.088 0 0 0 0-2.175 1.088 1.088 0 0 0 0 2.175zm-13.085-.116h10.9v-9.63H1.31v9.63h-.001z"/></svg>