<svg xmlns="http://www.w3.org/2000/svg" width="18" height="15" viewBox="0 0 18 15"><path d="M16.168 4.121c0-.16-.003-.319-.01-.477A7.51 7.51 0 0 0 18 1.732a7.364 7.364 0 0 1-2.12.581A3.706 3.706 0 0 0 17.502.27a7.406 7.406 0 0 1-2.345.897 3.693 3.693 0 0 0-6.293 3.368A10.486 10.486 0 0 1 1.253.676a3.69 3.69 0 0 0 1.143 4.93 3.665 3.665 0 0 1-1.673-.462v.048a3.694 3.694 0 0 0 2.963 3.62 3.698 3.698 0 0 1-1.668.063 3.697 3.697 0 0 0 3.45 2.565A7.409 7.409 0 0 1 .88 13.02a7.5 7.5 0 0 1-.88-.05 10.454 10.454 0 0 0 5.661 1.659c6.793 0 10.507-5.628 10.507-10.508z"/></svg>