<svg width="15" height="19" viewBox="0 0 15 19" xmlns="http://www.w3.org/2000/svg"><path d="M2.15 6.212h1.622l.56-1.755a2.163 2.163 0 0 0-.794-.155H2.382c-.278 0-.544.057-.793.155l.561 1.755z"/><path d="M4.603 4.585l-.521 1.63v3.25H1.837V6.211L1.32 4.585C.54 5.02 0 5.911 0 6.939v3.41c0 .334.27.617.637.716v5.454c0 .524.43.955.957.955h.075a.96.96 0 0 0 .956-.955l.006-4.114a.332.332 0 0 1 .661 0l.005 4.114c0 .524.43.955.956.955h.075a.959.959 0 0 0 .957-.955v-5.454c.368-.099.636-.382.636-.717V6.939c0-1.027-.538-1.918-1.317-2.354M9.85 6.212h1.622l.579-1.815a1.562 1.562 0 0 0-.545-.095h-1.69c-.198 0-.38.034-.545.096l.579 1.814z"/><path d="M13.268 6.252c-.143-.81-.458-1.417-.948-1.725l-.538 1.688v3.25H9.539V6.214L9 4.528c-.49.31-.803.915-.946 1.724-.209 1.192-1.129 6.102-1.129 6.102h1.413v4.164a.96.96 0 0 0 .956.956h.077c.526 0 .956-.43.956-.956v-4.164h.67v4.164c0 .526.43.956.957.956h.076a.96.96 0 0 0 .956-.956v-4.164h1.412s-.921-4.91-1.13-6.102m-.737-4.642l-.002.004A1.894 1.894 0 0 0 10.661 0h-.002a1.895 1.895 0 0 0-1.868 1.614l-.002-.004c-.179.96-.55 1.257-.587 1.285.511.564 1.136.351 1.136.351.34.334.806.54 1.321.542h.002c.495 0 .97-.195 1.322-.542 0 0 .625.213 1.135-.35-.036-.029-.407-.326-.587-1.286M5.847.82c-.04-.128-.161-.157-.288-.16A107.78 107.78 0 0 0 4.356.62 1.887 1.887 0 0 0 2.959 0a1.894 1.894 0 1 0 1.825 1.398L5.7 1.12c.098-.03.196-.138.147-.3"/></svg>