<svg height="12" viewBox="0 0 20 12" width="20" xmlns="http://www.w3.org/2000/svg"><path d="m12.776 9.846c1.52-.864 2.535-2.41 2.535-4.178 0-1.77-1.016-3.315-2.535-4.177 3.475.938 5.394 3.43 5.901 4.177-.507.746-2.426 3.24-5.9 4.178zm-11.453-4.178c.507-.746 2.425-3.24 5.9-4.177-1.519.863-2.535 2.408-2.535 4.177 0 1.768 1.016 3.314 2.535 4.178-3.474-.94-5.393-3.432-5.9-4.178zm8.677 1.952c-1.116 0-2.02-.874-2.02-1.952s.904-1.952 2.02-1.952c1.115 0 2.02.874 2.02 1.952s-.905 1.952-2.02 1.952zm9.776-2.324c-.13-.217-3.254-5.296-9.776-5.296s-9.647 5.079-9.776 5.296l-.224.372.224.372c.13.216 3.254 5.296 9.776 5.296s9.646-5.08 9.776-5.296l.224-.372z"/></svg>