<svg xmlns="http://www.w3.org/2000/svg" width="14" height="12" viewBox="0 0 14 12"><path fill-rule="evenodd" d="M8.62.049a.42.42 0 0 1 .226.375v11.15a.426.426 0 0 1-.657.356l-3.63-2.375a1.12 1.12 0 0 0-.612-.182H1.12A1.12 1.12 0 0 1 0 8.253V3.884c0-.618.502-1.12 1.12-1.12h2.807c.227 0 .449-.069.635-.197L8.18.074a.429.429 0 0 1 .438-.025zm3.386 2.754a4.525 4.525 0 0 1 0 6.392.707.707 0 0 1-.967.032c-.313-.274-.285-.772.005-1.07a3.11 3.11 0 0 0-.004-4.318c-.267-.276-.32-.718-.065-1.005a.709.709 0 0 1 1.03-.03z"/></svg>