<svg width="89" height="24" viewBox="0 0 89 24" fill="none" xmlns="http://www.w3.org/2000/svg">
<path d="M68.4794 4.05154L66.43 6.31473C65.8627 5.89955 65.3546 5.52261 64.8404 5.15348C63.5675 4.2365 62.2556 3.39287 60.6948 3.0651C57.6223 2.4197 54.9198 3.10802 52.687 5.37667C50.7938 7.30038 49.7925 9.59089 49.8432 12.3169C49.8908 14.8142 50.9256 16.8432 52.6527 18.5851C53.931 19.8736 55.3591 20.8483 57.2118 21.0699C59.8036 21.3759 62.2471 20.9373 64.4462 19.5013C66.2412 18.3307 67.0442 16.5131 67.4688 14.502C67.6116 13.8223 67.3978 13.5991 66.654 13.5452C65.9282 13.4929 65.1993 13.4742 64.4689 13.4672C62.9479 13.4563 61.4253 13.4633 59.9043 13.4633H59.4563V10.5875H70.8659C70.7356 13.0247 70.6318 15.4393 69.5579 17.6791C68.0829 20.7632 65.5544 22.5176 62.3547 23.4806C56.6819 25.1889 51.2042 22.4497 48.7054 18.6678C47.2827 16.5139 46.7934 14.1321 46.7544 11.5661C46.6763 6.82121 50.7024 1.48321 56.1848 0.250162C58.0882 -0.179063 59.9831 -0.0143968 61.8623 0.429656C64.4408 1.03682 66.6852 2.24645 68.4794 4.05154Z" fill="white"/>
<path d="M34.0961 0.30245H37.0226V0.733236C37.0039 5.01222 37.0226 9.29121 36.9485 13.5694C36.9235 15.0701 36.8533 16.6076 36.5045 18.0568C35.788 21.0372 33.8003 22.8742 30.7856 23.4416C27.7709 24.009 25.0753 23.2855 22.8785 21.0699C21.5518 19.7308 21.0164 18.0357 20.9048 16.1924C20.8301 15.1397 20.9212 14.0818 21.1749 13.0575C21.8039 10.6109 23.4615 9.12264 25.7356 8.26263C27.8146 7.47676 29.9084 7.53919 31.9835 8.34067C32.4924 8.53734 32.8045 8.86511 32.842 9.42856C32.8709 9.85623 32.9341 10.2823 32.9497 10.71C32.9669 11.1736 32.8334 11.2836 32.387 11.154C31.0853 10.7763 29.75 10.7209 28.4069 10.7256C27.4837 10.7256 26.5542 10.7108 25.7808 11.3663C24.7882 12.2092 24.0156 13.1995 23.7034 14.4895C22.8785 17.8453 25.5077 20.9459 28.9922 20.7586C30.4641 20.6805 31.7658 20.2739 32.7499 19.0854C33.4452 18.2456 33.7832 17.2686 33.8425 16.2205C33.9666 14.0408 34.0555 11.858 34.0852 9.67517C34.1258 6.70961 34.0969 3.74406 34.0984 0.7785L34.0961 0.30245Z" fill="white"/>
<path d="M19.0131 23.735H16.5103C16.5018 23.568 16.4862 23.4065 16.4854 23.2442C16.4721 21.034 16.4908 18.8231 16.437 16.6107C16.4118 15.6127 16.3103 14.6182 16.1334 13.6358C15.5294 10.2995 12.0979 9.77429 10.0088 11.4319C9.61231 11.744 9.24942 12.1038 8.85531 12.423C8.75893 12.4967 8.68197 12.5928 8.63111 12.7029C8.58025 12.8131 8.55702 12.934 8.56344 13.0551C8.51141 16.3042 8.45288 19.5536 8.38785 22.8032C8.38238 23.0998 8.38785 23.3971 8.38785 23.721H5.50033C5.4933 23.6031 5.4777 23.4775 5.47926 23.3526C5.5214 20.5713 5.5573 17.7899 5.61427 15.0093C5.62945 14.3333 5.69204 13.6592 5.80157 12.9919C6.28464 10.0396 8.92321 7.78892 11.9668 7.69137C14.351 7.61333 16.2809 8.55684 17.8542 10.2995C18.5301 11.0479 18.804 11.9766 18.8586 12.9482C18.9546 14.6729 19.003 16.4007 19.0311 18.1278C19.0592 19.8697 19.0381 21.6123 19.0373 23.3565C19.0303 23.4689 19.0209 23.5836 19.0131 23.735Z" fill="white"/>
<path d="M2.85786 23.7272H0V0.306352H2.85786V23.7272Z" fill="white"/>
<path d="M43.582 23.7272H40.7444V8.01368H43.582V23.7272Z" fill="white"/>
<path d="M79.5995 7.73117C83.706 7.73117 86.837 9.92725 87.9733 13.283C89.3421 17.3232 86.8565 22.9788 81.3624 23.4541C79.9218 23.5782 78.4999 23.5501 77.1209 23.099C74.2497 22.1625 72.6226 20.1334 72.1036 17.1975C71.8999 16.0433 71.8172 14.868 72.0669 13.7083C72.4174 12.0781 73.371 10.8169 74.6048 9.74229C76.1594 8.38828 77.9512 7.6781 79.5995 7.73117ZM85.2715 15.6828C85.2715 15.3316 85.2855 14.9804 85.2715 14.6308C85.2442 14.0509 85.1427 13.4742 84.7385 13.0356C84.1922 12.4448 83.6396 11.8541 83.0216 11.3468C82.6655 11.065 82.2416 10.8817 81.7924 10.8154C80.8957 10.6928 79.9842 10.6679 79.0774 10.6366C78.453 10.6148 77.8779 10.8271 77.348 11.1556C75.5608 12.2638 74.732 13.887 74.8312 15.9692C74.9404 18.2714 76.4755 20.1639 78.6598 20.5822C79.4988 20.7429 80.3885 20.6657 81.2539 20.6493C82.1842 20.6321 82.9154 20.174 83.5952 19.5622C84.7626 18.5164 85.5751 17.3482 85.2715 15.6828Z" fill="white"/>
</svg>
