<svg width="113" height="24" viewBox="0 0 113 24" fill="none" xmlns="http://www.w3.org/2000/svg">
<path d="M29.5774 8.55575C19.6253 8.82963 9.99704 11.0664 9.10182 14.2361C9.02742 14.5173 8.99308 14.8084 8.99963 15.0986C8.99963 18.2216 15.5825 19.2885 22.7083 20.1699C22.8309 20.1821 22.8252 20.0881 22.786 20.0178L22.5775 19.6532C22.5489 19.6033 22.5203 19.5706 22.4181 19.542C18.5184 18.5585 14.559 17.122 14.559 15.7845C14.559 13.2518 21.1934 10.7435 28.7475 9.59894C28.9953 9.54989 29.1154 9.5041 29.283 9.37248C29.4907 9.20652 29.9526 8.8329 30.1529 8.67756C30.2805 8.57455 30.2339 8.54103 30.1864 8.54348C29.9788 8.54675 29.7777 8.54921 29.5774 8.55575Z" fill="white"/>
<path d="M18.5682 23.843C13.4005 22.5595 8.27688 18.2641 9.08462 14.2851C10.2635 8.47799 18.1496 2.85243 27.9913 0.21011C28.212 0.144706 28.293 0 28.0117 0H14.5777C12.2534 0 11.749 0.298406 10.8489 1.50347C10.369 2.14689 6.34991 7.63347 4.53659 10.109C4.30358 10.4033 3.97411 10.7189 3.23913 10.7189H0L0.0016351 10.7238C3.84249 21.4664 7.96703 24 12.0981 24H18.6213C18.7137 24 18.8045 23.9019 18.5682 23.843ZM80.4633 2.236V3.15656H76.3739C75.9946 3.15656 75.6872 3.46403 75.6872 3.8433C75.6872 4.22258 75.9946 4.53005 76.3739 4.53005L78.3753 4.51042L78.3679 6.18967C78.2747 8.8557 77.0165 10.4695 76.481 11.1587L76.3338 11.3517C76.1642 11.4779 76.0646 11.6773 76.0657 11.8888C76.0697 12.2704 76.3807 12.5773 76.7622 12.5764C76.9764 12.5764 77.2037 12.4783 77.3312 12.3376L77.3443 12.3278C77.839 11.9428 79.4659 10.4246 79.7806 6.99414H84.184C84.184 7.69396 84.1635 8.51724 84.1243 9.51301C84.0507 11.2405 82.8464 11.1988 82.2635 11.1775L82.2308 11.1743C81.7215 11.1228 80.9579 10.9372 80.9522 10.9372L80.7641 10.9159C80.4196 10.9189 80.1306 11.1766 80.0884 11.5185C80.0462 11.8605 80.2639 12.1807 80.5974 12.2673C80.5974 12.2755 81.3332 12.5265 82.0158 12.5371L82.1564 12.5388C83.0198 12.551 84.0041 12.5666 84.6998 11.9011C85.2819 11.337 85.5762 10.3788 85.5967 8.97098C85.6237 8.38888 85.6367 7.46014 85.6367 6.92955V6.5731C85.604 6.03352 85.1879 5.62802 84.6802 5.62802L79.8468 5.62147V4.50961L86.0382 4.53005C86.4191 4.53097 86.7298 4.22503 86.7347 3.84412C86.732 3.462 86.4203 3.1543 86.0382 3.15656H81.9161V2.21801C81.9161 1.85502 81.5743 1.55008 81.1786 1.55008C80.7911 1.55008 80.4633 1.86483 80.4633 2.236ZM102.978 7.96866C102.726 7.95999 102.49 8.08919 102.362 8.30562C102.234 8.52204 102.234 8.79122 102.362 9.00764C102.49 9.22407 102.726 9.35327 102.978 9.3446H106.418V11.0901H102.322C101.956 11.1079 101.668 11.4101 101.668 11.7768C101.668 12.1435 101.956 12.4457 102.322 12.4636H111.887C112.268 12.4636 112.578 12.1574 112.582 11.7768C112.578 11.3962 112.268 11.09 111.887 11.0901H107.843V9.3446H111.283C111.671 9.3446 111.98 9.03393 111.98 8.65622C111.979 8.47265 111.905 8.29698 111.774 8.1681C111.644 8.03922 111.467 7.96774 111.283 7.96948H102.978" fill="white"/>
<path d="M106.411 2.25888V2.71916H102.844C102.316 2.72488 101.887 3.15246 101.887 3.67406V5.07452C101.887 5.4555 102.195 5.76126 102.576 5.76126C102.76 5.76345 102.937 5.69206 103.067 5.56303C103.198 5.43401 103.271 5.25808 103.271 5.07452V4.09264H104.885C104.914 4.34281 104.896 4.59707 104.832 4.8407C104.631 5.53562 103.915 6.02042 102.71 6.27959L102.663 6.2894C102.318 6.31716 102.053 6.60567 102.054 6.95161C102.054 7.32278 102.382 7.63836 102.784 7.63836L102.858 7.63345C105.548 7.38819 106.264 5.99835 106.391 4.87585C106.424 4.56355 106.432 4.22182 106.432 4.09264V4.08365L107.791 4.09182V6.5878C107.796 7.10286 108.204 7.51818 108.727 7.53044L110.742 7.53208C111.793 7.53208 112.234 6.80936 112.234 6.80446C112.315 6.69 112.355 6.5085 112.368 6.37769C112.389 6.0474 112.241 5.95993 112.08 5.86182L112.047 5.83729C111.798 5.68359 111.532 5.73265 111.237 5.98037C110.895 6.27305 110.601 6.22808 110.594 6.22808L109.417 6.224C109.417 6.224 109.302 6.22808 109.236 6.15859C109.195 6.11935 109.176 6.05967 109.176 5.98282V4.09264H111.042C111.016 4.18257 110.889 4.64449 110.889 4.64449L110.869 4.80636C110.875 5.12088 111.097 5.38983 111.404 5.4555C111.78 5.54216 112.214 5.28054 112.3 4.91592C112.308 4.8873 112.582 4.15723 112.568 3.73619C112.562 3.0658 112.233 2.7306 111.571 2.71507L107.817 2.71916V2.25888C107.817 1.88607 107.489 1.56968 107.101 1.56968C106.72 1.56968 106.411 1.87825 106.411 2.25888ZM55.9138 3.55469C55.8133 3.66179 55.7741 3.81059 55.7929 3.99127V4.00516C55.7929 4.01497 55.8067 4.1278 55.8133 4.19729L52.6216 4.20546C52.333 4.20546 52.0182 4.42947 52.0182 4.75322C52.0182 5.04918 52.2798 5.29771 52.5946 5.29771L55.9604 5.30752C56.1616 6.56083 56.4289 7.61383 56.7772 8.52703C56.4633 9.01657 56.1261 9.49076 55.7667 9.94794C55.6858 10.0264 55.6269 10.2815 55.6269 10.4736C55.6269 10.5505 55.6326 10.6175 55.6596 10.66C55.7388 10.8097 55.8857 10.9115 56.0537 10.9331C56.2351 10.9576 56.4232 10.884 56.5834 10.7262C56.7371 10.5725 56.8238 10.4311 56.9579 10.2153C56.9579 10.2153 57.2522 9.78197 57.3135 9.6855C57.6405 10.3101 57.9218 10.7246 57.9283 10.7295C58.0362 10.8971 58.2226 11.0042 58.4172 11.0042C58.637 11.0039 58.8371 10.8778 58.9322 10.6796L58.9592 10.6281C59.059 10.4483 59.3075 9.96837 59.4816 8.97342V8.96933C59.4947 8.75513 59.4473 8.57936 59.3402 8.45427C59.2488 8.35439 59.1207 8.29595 58.9854 8.2924C58.7646 8.28177 58.5177 8.40767 58.4572 8.67174C58.4572 8.67174 58.3706 9.08379 58.3158 9.29798C58.2422 9.13284 58.0493 8.68646 58.0289 8.65539C58.557 7.78552 58.9192 6.97778 59.1399 6.19129L59.1603 5.98691C59.148 5.8398 59.0809 5.70267 58.9723 5.60266C58.8285 5.4771 58.6309 5.43281 58.4472 5.48495C58.2636 5.5371 58.1188 5.6786 58.0624 5.861C58.0624 5.86754 57.7746 6.73742 57.5195 7.26882C57.3593 6.74559 57.2195 6.11608 57.078 5.30752H58.9322C59.0789 5.30775 59.2195 5.24926 59.3227 5.14512C59.4259 5.04098 59.4832 4.89984 59.4816 4.75322C59.4836 4.60632 59.4266 4.46476 59.3233 4.36026C59.22 4.25576 59.0792 4.19706 58.9322 4.19729H58.6379L58.6445 4.13924C58.6458 3.99907 58.5958 3.86327 58.5038 3.75745L58.4368 3.67814C58.3378 3.55666 58.1926 3.48199 58.0362 3.47212C57.8788 3.45838 57.7223 3.50713 57.6005 3.60783C57.5269 3.66854 57.4848 3.75934 57.486 3.85473V3.86046C57.486 3.96837 57.5473 4.08447 57.6274 4.18175C57.4999 4.18421 57.0045 4.18911 56.944 4.18911L56.9113 3.95202C56.8647 3.58004 56.6766 3.39037 56.3422 3.39037C56.1624 3.39037 56.007 3.44923 55.9138 3.55469Z" fill="white"/>
<path d="M60.0237 2.02096V2.01932L51.5171 2.02178C50.9904 2.02621 50.5643 2.45162 50.559 2.97831V11.4882C50.5663 12.0156 50.9898 12.4427 51.5171 12.4545H60.0237C60.5524 12.4506 60.9806 12.0242 60.9868 11.4955L60.9942 2.97749C60.9897 2.44566 60.5556 2.01779 60.0237 2.02096ZM59.6419 10.9829C59.6419 11.0958 59.5815 11.1514 59.4678 11.1514L52.0191 11.1366C51.9186 11.1366 51.872 11.0835 51.872 10.9707V3.48192L51.9112 3.36174L52.0322 3.32495L59.4882 3.32822C59.5545 3.32822 59.5945 3.34212 59.6223 3.36992L59.6616 3.48192L59.6419 10.9829Z" fill="white"/>
<path d="M55.8338 5.94766C55.7573 5.75253 55.5684 5.62476 55.3588 5.62635H52.7279C52.5725 5.62719 52.4254 5.69697 52.3265 5.81685C52.2522 5.91246 52.2119 6.03014 52.2121 6.15123V8.25397L52.2202 8.36107C52.266 8.60143 52.481 8.77802 52.7271 8.77802H55.3588L55.5117 8.75513C55.7295 8.68631 55.8781 8.48487 55.8796 8.25642V6.15123C55.8781 6.08073 55.8626 6.01204 55.8338 5.94766ZM53.2364 7.73564H54.8495V6.66629H53.2364V7.73564ZM54.95 8.99958C54.937 9.00366 53.6052 9.42634 52.6952 9.41653C52.2595 9.4108 52.0461 9.7043 52.0314 9.97737C52.0273 10.1117 52.0809 10.2415 52.1785 10.3338C52.3093 10.4744 52.4892 10.5578 52.6805 10.5685C54.2404 10.5807 55.425 10.0599 55.4324 10.0534H55.4389C55.7332 9.9185 55.9801 9.59148 55.8395 9.2571C55.64 8.75595 54.9566 8.99712 54.95 8.99958ZM47.1931 3.12303H43.4986V2.13297C43.4986 1.74692 43.1857 1.43397 42.7996 1.43397C42.4136 1.43397 42.1006 1.74692 42.1006 2.13297V3.12303H38.4249C37.8954 3.12612 37.4664 3.55338 37.461 4.08283L37.4675 8.75022C37.4675 9.27264 37.8959 9.70267 38.4249 9.70676L42.0998 9.71248V11.9485C42.0998 12.3345 42.4127 12.6475 42.7988 12.6475C43.1848 12.6475 43.4978 12.3345 43.4978 11.9485V9.71739L47.1931 9.72474C47.7278 9.72474 48.1635 9.29471 48.1635 8.76821V4.07874C48.1586 3.5469 47.725 3.1194 47.1931 3.12303ZM42.0998 8.33573L39.0143 8.33164C39.0013 8.33164 38.8803 8.32673 38.8672 8.16077V4.65593L38.9081 4.54229L39.0274 4.5006L42.1006 4.50714L42.0998 8.33573ZM46.7189 8.14605L46.6707 8.29076L46.5571 8.33164H43.4937V4.5006H46.5317C46.5979 4.5006 46.6462 4.51531 46.6715 4.5472L46.705 4.6453V4.6592L46.7189 8.1297V8.14605ZM73.8436 10.9691C73.824 10.9617 71.9632 10.1907 70.1769 8.95134H72.4791C72.9999 8.95134 73.4283 8.52703 73.4283 8.00707V7.86891C73.4283 7.4356 73.4152 5.2413 73.4152 5.2413C73.4152 4.73278 73.0146 4.31828 72.5053 4.29866L69.3528 4.29785V3.65443L73.4692 3.64544C73.8575 3.64544 74.1584 3.35685 74.1584 2.98568C74.1584 2.61451 73.8436 2.31365 73.4635 2.31365H69.3528V2.18284C69.3506 1.8042 69.0423 1.49883 68.6636 1.50018C68.4817 1.49954 68.307 1.57118 68.1779 1.69936C68.0488 1.82753 67.9759 2.00174 67.9752 2.18366V2.31365H63.872C63.4902 2.31365 63.1754 2.61451 63.1754 2.98568C63.1754 3.35358 63.4902 3.65443 63.872 3.65443H67.9752V4.29785H64.8154C64.2129 4.31828 63.8646 4.66411 63.8646 5.24702L63.8581 7.99399L63.8646 8.00871C63.8646 8.53194 64.293 8.95461 64.8154 8.95461L67.098 8.95134C65.7924 9.9136 63.4166 10.911 63.3904 10.9208C63.1572 11.0381 63.0094 11.2762 63.0078 11.5373C63.0087 11.7194 63.0819 11.8937 63.2113 12.0219C63.3407 12.1501 63.5157 12.2216 63.6978 12.2207L63.8777 12.1962C63.912 12.1962 66.4358 11.4408 67.9605 9.79751C67.9679 9.99208 67.9605 12.0744 67.9605 12.0744C67.9605 12.4537 68.2826 12.7579 68.6636 12.7579C68.8452 12.759 69.0197 12.6873 69.1481 12.5589C69.2765 12.4305 69.3482 12.256 69.3471 12.0744C69.3471 12.0744 69.3528 10.2185 69.3471 9.74273C70.4639 10.9797 73.1814 12.197 73.2076 12.2093C73.3155 12.2722 73.6033 12.3115 73.7226 12.3115C74.0848 12.3115 74.3726 12.0008 74.3726 11.6059C74.3726 11.3198 74.0979 11.0884 73.8436 10.9682V10.9691ZM65.1776 7.80514H67.9752V7.12902H65.1776V7.80514ZM65.1776 6.05803H67.9752V5.38192H65.1776V6.05803ZM69.4002 5.37946H72.1644C72.1644 5.45059 72.1505 5.98445 72.1505 6.05558H69.4002V5.37946ZM69.4002 7.7986V7.12412H72.1644C72.1644 7.19443 72.1505 7.72665 72.1505 7.7986H69.4002ZM95.5962 4.95843L95.5627 4.96497L95.5283 4.96742C95.046 4.96742 94.6584 5.37047 94.638 5.90678V9.1868C94.5718 10.5562 93.9962 11.359 93.8752 11.5062L93.8491 11.5389L93.836 11.5634C93.8221 11.5814 93.715 11.7874 93.715 11.9452C93.715 12.3115 94.0167 12.6131 94.3911 12.6131C94.6053 12.6131 94.7999 12.5159 94.9266 12.3474C94.9266 12.3434 96.0843 11.1514 96.0843 9.27591V9.2571C96.0908 8.96279 96.0704 6.34908 96.0704 6.34908H97.2493V11.3795C97.255 11.9338 97.6033 12.4938 98.2524 12.4922L99.083 12.4913C99.1035 12.4938 99.7918 12.551 100.154 11.3198L100.179 11.2168L100.227 10.9633V10.9216C100.24 10.7835 100.255 10.4932 99.7657 10.3453C99.4714 10.2545 99.2302 10.3829 99.1092 10.6895L99.043 10.8848C98.9825 11.0753 98.9563 11.1424 98.8549 11.1489C98.8549 11.1489 98.6751 11.1497 98.5933 11.1514V5.89943C98.5933 5.89125 98.5737 5.0132 97.6703 4.95924L95.5962 4.95843ZM95.8096 2.99631H94.5522C94.1507 2.99631 93.8164 3.2988 93.8164 3.66588C93.8164 4.03459 94.1507 4.33791 94.5522 4.33791H98.8353C99.2359 4.33791 99.5654 4.03541 99.5654 3.66588C99.5654 3.2988 99.2367 2.99631 98.8353 2.99631H97.1691C97.161 2.92273 97.1691 2.19184 97.1691 2.19184C97.1659 1.9183 96.9992 1.67328 96.7461 1.56969C96.4929 1.4661 96.2023 1.52405 96.0082 1.71684C95.8813 1.84333 95.8098 2.01508 95.8096 2.19429V2.99631ZM93.6945 6.67283H93.6283V3.64299C93.6303 3.46195 93.5601 3.28758 93.4332 3.15841C93.3063 3.02924 93.1333 2.9559 92.9522 2.95461L91.8338 2.95952C91.8608 2.87367 91.9548 2.49024 91.9548 2.49024L91.9957 2.38723L92.0153 2.22372C92.0143 2.10408 91.9818 1.9868 91.9213 1.88362C91.999 1.58679 91.8668 1.27487 91.5995 1.12424C91.3322 0.973616 90.9969 1.02215 90.7833 1.2424C90.5696 1.46264 90.5314 1.79924 90.6901 2.06185L90.462 2.96524L89.5185 2.96933L89.4923 2.96524C89.1159 2.97061 88.814 3.278 88.8154 3.65443V6.68346C88.4344 6.68673 88.1205 6.98105 88.1205 7.34486C88.1205 7.70458 88.4344 7.99971 88.8154 8.00298C88.8154 8.07247 88.8089 8.38641 88.8089 8.38641L88.8023 8.45427L88.8089 8.4788C88.7984 8.96517 88.7652 9.45079 88.7091 9.93404L88.7018 9.99781C88.5489 11.2953 88.293 11.807 88.2873 11.8128C88.2677 11.906 88.2464 11.9984 88.2464 12.0891C88.2464 12.4537 88.5489 12.7513 88.9168 12.7513C89.1769 12.7521 89.414 12.6023 89.525 12.3671C89.5586 12.3098 89.8602 11.7555 90.0336 10.158L90.0475 10.0608C90.0941 9.5735 90.1341 9.0331 90.1537 8.45918C90.1537 8.45427 90.1619 8.11989 90.1619 8.00298H90.6565V9.6528C90.6565 10.0125 90.8846 10.2741 91.192 10.2741C91.5133 10.2741 91.7545 10.0068 91.7545 9.6528V7.99563L92.2826 7.99399V11.1873L92.2221 11.3173C92.0823 11.4342 91.7202 11.3697 91.5796 11.3468L91.506 11.337C91.1454 11.3517 90.8977 11.61 90.8977 11.9779C90.8977 12.2698 91.004 12.3646 91.125 12.4611L91.1585 12.4856C91.3187 12.6262 91.5926 12.6369 91.627 12.6352C92.5034 12.6687 92.9792 12.5665 93.2662 12.2878C93.5147 12.045 93.6283 11.6566 93.6283 11.0345V7.99317H93.6945C94.0624 7.99317 94.3306 7.7152 94.3306 7.33259C94.3306 6.9508 94.0624 6.67283 93.6945 6.67283ZM92.2491 6.68019L91.6278 6.68182C91.7202 6.57554 91.7749 6.44473 91.7749 6.29757L91.7668 6.19129L91.6196 5.25356C91.6041 5.10101 91.5246 4.96223 91.4007 4.87178C91.2769 4.78133 91.1205 4.74775 90.9705 4.77938C90.6896 4.83697 90.4901 5.0871 90.4963 5.37374L90.502 5.47185L90.6492 6.41121C90.6644 6.50824 90.701 6.60068 90.7563 6.68182L90.1676 6.68264V4.34199L92.2491 4.33791V6.68019Z" fill="white"/>
<path d="M58.3437 15.8589C58.2292 15.9962 58.1761 16.2088 58.1761 16.4916V20.1281C57.4607 18.9402 56.747 17.7515 56.0349 16.562C55.6727 15.9553 55.3048 15.6487 54.9304 15.6487C54.6083 15.6487 54.3818 15.7264 54.2477 15.8785C54.1202 16.0314 54.0597 16.3052 54.0597 16.7156V21.6128C54.0597 21.9006 54.1137 22.1164 54.2273 22.2505C54.3418 22.3878 54.529 22.4581 54.7701 22.4581C55.0171 22.4581 55.1986 22.387 55.3114 22.2456C55.4324 22.1098 55.4929 21.8956 55.4929 21.612V17.9878C55.64 18.2355 57.7215 21.7019 57.7215 21.7019C57.9218 22.0354 58.0894 22.2407 58.2292 22.3273C58.3764 22.4123 58.5775 22.4581 58.826 22.4581C59.1064 22.4581 59.3141 22.3764 59.4286 22.221C59.5479 22.0632 59.6019 21.7967 59.6019 21.4043V16.4916C59.6019 16.2055 59.5479 15.9913 59.4286 15.8556C59.3141 15.7191 59.1326 15.6487 58.8922 15.6487C58.6445 15.6487 58.4647 15.7191 58.3437 15.8589ZM51.4566 15.8384C51.3422 15.9651 51.2768 16.1564 51.2768 16.4099V21.6994C51.2768 21.9447 51.3422 22.1344 51.4632 22.2644C51.5833 22.3935 51.764 22.4581 52.0052 22.4581C52.2398 22.4581 52.4271 22.3927 52.5472 22.2644C52.6682 22.1409 52.7271 21.9504 52.7271 21.6994V16.4099C52.7271 16.1614 52.6617 15.9676 52.5472 15.8417C52.4205 15.7125 52.2398 15.6487 52.0052 15.6487C51.764 15.6487 51.5776 15.7125 51.4566 15.8384ZM48.6786 15.8384C48.5576 15.9651 48.4987 16.1564 48.4987 16.4099V18.1815H45.854V16.4099C45.854 16.1614 45.7877 15.9676 45.6741 15.8417C45.5466 15.7125 45.3667 15.6487 45.1255 15.6487C44.8843 15.6487 44.7028 15.7125 44.5827 15.8384C44.4625 15.9651 44.4028 16.1564 44.4028 16.4099V21.6994C44.4028 21.9447 44.4625 22.1344 44.5827 22.2644C44.7028 22.3919 44.8852 22.4581 45.1255 22.4581C45.3667 22.4581 45.5539 22.3927 45.6733 22.2644C45.7951 22.1409 45.854 21.9504 45.854 21.6994V19.4724H48.4987V21.6994C48.4987 21.948 48.5576 22.1368 48.6786 22.2644C48.8061 22.3935 48.9868 22.4581 49.2214 22.4581C49.4683 22.4581 49.6498 22.3927 49.7692 22.266C49.891 22.1409 49.9499 21.9504 49.9499 21.6994V16.4099C49.9499 16.1614 49.891 15.9676 49.77 15.8417C49.6425 15.7125 49.4626 15.6487 49.2214 15.6487C48.9803 15.6487 48.7988 15.7125 48.6786 15.8384ZM38.3121 16.5113C37.7496 17.1457 37.4618 18.0352 37.4618 19.1626C37.4618 20.2115 37.7496 21.0462 38.3047 21.6512C38.8606 22.2546 39.6373 22.5595 40.6069 22.5595C41.0206 22.5662 41.4325 22.5043 41.8259 22.3764C42.1799 22.2537 42.5143 22.0526 42.8233 21.7836C43.0105 21.6152 43.1634 21.4288 43.2779 21.2269C43.3923 21.0209 43.452 20.8279 43.452 20.6579C43.4549 20.4805 43.3788 20.3109 43.2443 20.1951C43.111 20.0688 42.9333 20.0001 42.7497 20.0038C42.6275 20.0029 42.5072 20.0339 42.4006 20.0938C42.3009 20.151 42.1938 20.2565 42.0736 20.4061L41.9665 20.5859L41.8193 20.8148C41.6897 20.9606 41.5267 21.0728 41.3443 21.1419C41.1498 21.2154 40.929 21.2547 40.6879 21.2547C40.1254 21.2547 39.697 21.065 39.3961 20.6857C39.0953 20.3071 38.9408 19.7569 38.9408 19.0547C38.9408 18.3679 39.0953 17.8226 39.3896 17.4335C39.6913 17.0492 40.1049 16.8538 40.6274 16.8538C40.8751 16.8538 41.0958 16.8947 41.2896 16.974C41.4776 17.0508 41.6444 17.1735 41.7858 17.3354L41.9125 17.5201C41.9796 17.6231 42.0327 17.6967 42.0859 17.7458C42.1872 17.8414 42.2935 17.9134 42.4006 17.9591C42.5059 18.0069 42.6202 18.0314 42.7358 18.0311C42.9217 18.0383 43.1025 17.9699 43.237 17.8414C43.3636 17.7069 43.4313 17.5274 43.425 17.3427C43.425 17.1555 43.3653 16.9609 43.2452 16.7606C43.1155 16.5537 42.9473 16.3736 42.7497 16.23C42.4641 16.008 42.1425 15.8365 41.7989 15.7231C41.442 15.6103 41.0695 15.5546 40.6952 15.558C39.6839 15.558 38.8802 15.8809 38.3121 16.5113ZM66.2952 21.6569C66.2747 21.5915 66.2412 21.4738 66.2412 21.4738L64.3805 16.3674C64.266 16.0632 64.1393 15.8752 64.0044 15.7885C63.8654 15.7027 63.6512 15.6626 63.3503 15.6626C63.0282 15.6626 62.8148 15.7043 62.6734 15.7951C62.5336 15.8842 62.4118 16.0788 62.3055 16.3854L60.4791 21.4746L60.4252 21.6569L60.4055 21.8368C60.4055 22.0265 60.4717 22.1826 60.6058 22.2971C60.7325 22.4123 60.9001 22.4712 61.1078 22.4712C61.2877 22.4712 61.4348 22.4262 61.5493 22.3437C61.673 22.2423 61.764 22.1066 61.8109 21.9537C61.8109 21.9537 62.0578 21.186 62.1052 21.0446H64.6077L64.9094 21.9537C64.9691 22.1286 65.0566 22.2611 65.171 22.3461C65.283 22.4279 65.4245 22.4712 65.6043 22.4712C65.8128 22.4712 65.9869 22.4123 66.1137 22.2971C66.2459 22.1816 66.3197 22.0131 66.3148 21.8376C66.3148 21.8376 66.3156 21.7231 66.2952 21.6569ZM62.4658 19.8395L63.3225 17.2315C63.3961 17.4506 64.1466 19.7365 64.1793 19.8395H62.4658ZM111.324 15.8589C111.21 15.9962 111.149 16.2088 111.149 16.4916V20.1281C110.996 19.8787 109.008 16.562 109.008 16.562C108.653 15.9553 108.278 15.6487 107.904 15.6487C107.583 15.6487 107.355 15.7264 107.228 15.8785C107.101 16.0314 107.034 16.3052 107.034 16.7156V21.6128C107.034 21.9055 107.094 22.1147 107.208 22.2505C107.322 22.3878 107.502 22.4581 107.75 22.4581C107.991 22.4581 108.172 22.387 108.291 22.2456C108.406 22.1074 108.466 21.8956 108.466 21.612V17.9878L110.695 21.7019C110.895 22.0354 111.063 22.2407 111.21 22.3265C111.351 22.4123 111.551 22.4573 111.798 22.4573C112.08 22.4573 112.287 22.3772 112.402 22.221C112.521 22.0632 112.576 21.7967 112.576 21.4043V16.4916C112.576 16.2055 112.521 15.9913 112.408 15.8556C112.287 15.7191 112.107 15.6487 111.866 15.6487C111.618 15.6487 111.438 15.7191 111.324 15.8589ZM95.2675 15.7362C94.9462 15.7362 94.7197 15.8139 94.5848 15.9676C94.4639 16.1213 94.3976 16.396 94.3976 16.8113V21.307C94.3976 21.7191 94.4638 21.9929 94.5857 22.1458C94.7189 22.2987 94.9454 22.3764 95.2675 22.3764H98.7617C99.0152 22.3764 99.2097 22.3224 99.3438 22.2129C99.4779 22.1025 99.5441 21.9439 99.5441 21.7321C99.5441 21.5196 99.4779 21.3544 99.3503 21.249C99.2163 21.1427 99.0152 21.0904 98.7617 21.0904H95.83V19.4798H98.3063C98.5541 19.4798 98.7413 19.4299 98.8745 19.3285C99.0086 19.2255 99.0765 19.0751 99.0765 18.8813C99.0765 18.677 99.016 18.5241 98.8819 18.4235C98.7478 18.323 98.5598 18.2731 98.3063 18.2731H95.83V16.9609H98.5876C98.841 16.9609 99.0356 16.9094 99.1631 16.808C99.3029 16.7042 99.3708 16.557 99.3708 16.3567C99.3708 16.154 99.3029 15.997 99.1631 15.8924C99.0356 15.7877 98.841 15.7362 98.5876 15.7362H95.2675ZM88.7492 15.7493C88.5203 15.7493 88.3404 15.8041 88.2259 15.9063C88.1066 16.015 88.0395 16.1679 88.0395 16.3755C88.0395 16.5808 88.1 16.7369 88.2202 16.8399C88.3339 16.9413 88.5145 16.9928 88.7492 16.9928H90.0875V21.6986C90.0875 21.9439 90.148 22.1352 90.2674 22.2635C90.3892 22.3935 90.5756 22.4581 90.8168 22.4581C91.0514 22.4581 91.2321 22.3935 91.3531 22.2635C91.4724 22.1409 91.5329 21.9504 91.5329 21.6986V16.9928H92.8721C93.0985 16.9928 93.2809 16.9388 93.3945 16.835C93.5139 16.732 93.5744 16.5767 93.5744 16.3755C93.5744 16.1687 93.5139 16.015 93.3945 15.9063C93.28 15.8041 93.0985 15.7493 92.8713 15.7493H88.7492ZM70.7721 15.7362C70.445 15.7362 70.2243 15.8139 70.0894 15.9676C69.9627 16.1213 69.9014 16.396 69.9014 16.8113V21.307C69.9014 21.7191 69.9627 21.9929 70.0894 22.1458C70.2235 22.2987 70.4442 22.3764 70.7721 22.3764H74.2663C74.5132 22.3764 74.7077 22.3224 74.8418 22.2129C74.9751 22.1025 75.0421 21.9439 75.0421 21.7321C75.0421 21.5196 74.9816 21.3544 74.8418 21.2506C74.7135 21.1427 74.5197 21.0904 74.2663 21.0904H71.3345V19.4798H73.8044C74.0513 19.4798 74.2458 19.4299 74.3726 19.3285C74.5101 19.2223 74.5875 19.0558 74.5802 18.8822C74.5802 18.6778 74.5132 18.5241 74.3791 18.4227C74.2516 18.323 74.0586 18.2731 73.8044 18.2731H71.3345V16.9609H74.0913C74.3399 16.9609 74.5328 16.9094 74.6677 16.808C74.8018 16.7042 74.868 16.557 74.868 16.3567C74.868 16.154 74.8018 15.997 74.6677 15.8924C74.5336 15.7885 74.3399 15.7362 74.0913 15.7362H70.7721ZM83.0737 16.0951C82.6184 16.4499 82.3911 16.9454 82.3911 17.5782C82.3911 18.1374 82.5513 18.5682 82.8595 18.8634C83.1604 19.156 83.7556 19.4005 84.6124 19.5951L84.7137 19.6171C85.797 19.864 86.3464 20.1739 86.3464 20.5426C86.3464 20.8075 86.2458 21.0029 86.0382 21.1378C85.8305 21.2759 85.5231 21.3446 85.1078 21.3446C84.8462 21.3446 84.6197 21.3078 84.4325 21.2326C84.2501 21.1583 84.0889 21.0401 83.9632 20.8884L83.776 20.6268C83.5626 20.3047 83.3272 20.142 83.0729 20.142C82.8933 20.1368 82.7202 20.2099 82.5987 20.3423C82.4777 20.4707 82.4172 20.644 82.4172 20.8484C82.4172 21.0429 82.4777 21.2424 82.5987 21.4468C82.7189 21.6487 82.8857 21.8245 83.0868 21.9684C83.3811 22.1761 83.6951 22.3273 84.0041 22.4189C84.318 22.5145 84.699 22.5595 85.1282 22.5595C85.9376 22.5595 86.5876 22.3641 87.0552 21.9807C87.5245 21.5956 87.7648 21.065 87.7648 20.402C87.7648 20.0423 87.6986 19.7316 87.5645 19.4814C87.4196 19.2177 87.2008 19.0021 86.935 18.8609C86.7507 18.7639 86.5581 18.6835 86.3595 18.6205C86.0152 18.5124 85.667 18.4175 85.3155 18.336L84.8936 18.2363C84.1644 18.0662 83.7965 17.8177 83.7965 17.4972C83.7886 17.2777 83.8915 17.0688 84.0703 16.9413C84.2584 16.8121 84.5257 16.7451 84.8666 16.7451C85.1078 16.7451 85.3155 16.7753 85.4896 16.8424C85.6572 16.9078 85.8044 17.0067 85.9115 17.1359L86.0455 17.3027C86.272 17.5994 86.5132 17.749 86.7609 17.749C86.9362 17.7559 87.1072 17.6933 87.2367 17.5749C87.3569 17.4572 87.41 17.3027 87.41 17.1105C87.41 16.9388 87.3495 16.7573 87.2302 16.562C87.1094 16.3684 86.9495 16.2022 86.7609 16.0739C86.5129 15.8998 86.2365 15.77 85.9442 15.6904C85.6186 15.6051 85.2832 15.5633 84.9467 15.5662C84.1439 15.5662 83.5152 15.7444 83.0737 16.0951ZM105.762 21.1623C105.742 21.0313 105.731 20.8991 105.729 20.7666L105.702 20.2883C105.676 19.9834 105.595 19.739 105.461 19.5558C105.346 19.3948 105.173 19.2795 104.965 19.192C105.238 19.0928 105.471 18.9066 105.627 18.6622C105.802 18.3924 105.889 18.0474 105.889 17.6403C105.889 17.0002 105.709 16.517 105.354 16.2047C104.999 15.894 104.45 15.737 103.721 15.737H101.339C101.017 15.737 100.783 15.8147 100.655 15.9684C100.528 16.1221 100.467 16.3968 100.467 16.8121V21.6994C100.467 21.9447 100.528 22.1344 100.649 22.2635C100.769 22.3944 100.949 22.4581 101.191 22.4581C101.433 22.4581 101.613 22.3944 101.74 22.2644C101.854 22.1401 101.914 21.9488 101.914 21.6994V19.8272H103.312C103.647 19.8272 103.888 19.8869 104.009 20.0014C104.136 20.1158 104.223 20.4331 104.256 20.9432C104.303 21.625 104.383 22.0354 104.517 22.2063C104.644 22.378 104.859 22.4679 105.153 22.4679C105.374 22.4679 105.548 22.4082 105.681 22.2905C105.812 22.1671 105.883 21.9929 105.876 21.8131C105.876 21.7518 105.863 21.6479 105.829 21.495L105.762 21.1623ZM104.209 18.4031C104.055 18.5347 103.808 18.6017 103.473 18.6017H101.914V16.9519H103.533C103.835 16.9519 104.063 17.0239 104.216 17.162C104.363 17.2986 104.436 17.5054 104.436 17.7776C104.436 18.0654 104.363 18.2739 104.21 18.4031H104.209ZM81.7084 21.6569C81.6856 21.5968 81.6654 21.5357 81.6479 21.4738L79.788 16.3674C79.6736 16.0632 79.5468 15.8752 79.4119 15.7885C79.2713 15.7027 79.0579 15.6626 78.7563 15.6626C78.4415 15.6626 78.2208 15.7043 78.081 15.7951C77.9395 15.8842 77.8259 16.0788 77.7122 16.3854L75.885 21.4746L75.8319 21.6569L75.8188 21.8368C75.8188 22.0265 75.885 22.1826 76.0126 22.2971C76.1393 22.4123 76.3069 22.4712 76.5145 22.4712C76.6944 22.4712 76.8416 22.4262 76.9626 22.3437C77.077 22.257 77.1563 22.1262 77.2168 21.9537L77.5111 21.0446H80.0145L80.3161 21.9537C80.3766 22.1286 80.4633 22.2611 80.5769 22.3461C80.6914 22.4279 80.8304 22.4712 81.0127 22.4712C81.2187 22.4712 81.3937 22.4123 81.5204 22.2971C81.6527 22.1816 81.7265 22.0131 81.7215 21.8376C81.7215 21.8376 81.7215 21.7231 81.7084 21.6569ZM77.8733 19.8395C77.906 19.7365 78.6565 17.4539 78.7301 17.2315C78.8037 17.4506 79.5599 19.7365 79.5934 19.8395H77.8733Z" fill="white"/>
</svg>
