<svg width="66" height="40" viewBox="0 0 66 40" fill="none" xmlns="http://www.w3.org/2000/svg">
<path d="M16.7942 25.1002H18.6521V17.3042H16.7942V25.1002ZM16.7942 16.5756H18.6521V14.7177H16.7942V16.5756Z" fill="white"/>
<path d="M19.49 25.1002V17.3042H21.3115V18.7614C21.8943 17.9235 22.7322 17.1585 23.8616 17.1585C24.0801 17.1585 24.1894 17.1585 24.2987 17.1949V18.9435C24.153 18.9071 23.8616 18.9071 23.7523 18.9071C22.9144 18.9071 21.3843 19.7086 21.3843 21.2751V25.1002H19.49Z" fill="white"/>
<path d="M24.7723 25.1002V14.7177H28.1239C28.9982 14.7177 31.9854 14.7177 31.9854 17.2678C31.9854 19.0164 30.6375 19.49 29.9089 19.7086C30.7104 19.9272 32.204 20.3279 32.204 22.2587C32.204 23.8251 31.0018 25.1002 28.3424 25.1002H24.7723ZM26.7395 18.9435H28.1239C29.9089 18.9435 30.0546 17.8871 30.0546 17.5228C30.0546 16.2113 28.7067 16.2113 28.306 16.2113H26.776V18.9435H26.7395ZM26.7395 23.5701H27.9781C29.2896 23.5701 30.2368 23.133 30.2368 22.0401C30.2368 21.3115 29.8361 20.4736 28.1239 20.4736H26.776V23.5701H26.7395Z" fill="white"/>
<path d="M37.4863 25.1002L37.2678 24.2623C36.7942 24.663 36.0656 25.2459 34.8998 25.2459C33.5155 25.2459 32.4954 24.3352 32.4954 23.0965C32.4954 22.2951 32.7869 21.3479 34.4991 20.765L36.7577 20C37.0856 19.8907 37.0856 19.8907 37.0856 19.6721V19.3443C37.0856 18.6885 36.5027 18.5064 35.7741 18.5064C34.5355 18.5064 33.4062 19.2714 32.969 19.5629V17.9599C33.479 17.6685 34.4262 17.1585 36.0656 17.1585C38.5064 17.1585 38.98 18.3607 38.98 19.8543V25.1366H37.4863V25.1002ZM35.4463 21.7851C34.6448 22.0765 34.3898 22.4408 34.3898 22.9873C34.3898 23.7523 35.082 23.9344 35.4098 23.9344C35.7013 23.9344 36.357 23.8251 37.122 23.0601V21.1293C37.0127 21.2022 36.9763 21.2386 36.6484 21.3479L35.4463 21.7851Z" fill="white"/>
<path d="M14.4262 25.1002L14.2076 24.2987C13.7341 24.6994 13.0055 25.2823 11.8397 25.2823C10.4554 25.2823 9.43533 24.3716 9.43533 23.133C9.43533 22.3315 9.72677 21.3843 11.439 20.8014L13.6976 20.0364C14.0255 19.9271 14.0619 19.9271 14.0619 19.7085V19.3807C14.0619 18.7249 13.479 18.5428 12.714 18.5428C11.4754 18.5428 10.3461 19.3078 9.90892 19.5993V17.9963C10.4189 17.7049 11.3661 17.1949 13.0055 17.1949C15.4463 17.1949 15.9199 18.3971 15.9199 19.8907V25.173H14.4262V25.1002ZM12.3862 21.785C11.5847 22.0765 11.3297 22.4408 11.3297 22.9872C11.3297 23.7523 12.0219 23.9344 12.3497 23.9344C12.6412 23.9344 13.2969 23.8251 14.0619 23.0601V21.1293C13.9526 21.2022 13.9162 21.2386 13.5883 21.3479L12.3862 21.785Z" fill="white"/>
<path d="M39.7086 14.7177H41.5665V25.1002H39.7086V14.7177Z" fill="white"/>
<path d="M43.2058 18.725H42.0401V17.3042H43.2058V14.7177H45.0637V17.3042H46.4845V18.725H45.0637V22.7687C45.0637 23.3516 45.1366 23.8616 46.0109 23.8616C46.2295 23.8616 46.4117 23.8252 46.5574 23.7887V25.2095C46.3024 25.2459 46.0474 25.2823 45.6831 25.2823C43.6066 25.2823 43.2058 24.2259 43.2058 22.878V18.725Z" fill="white"/>
<path d="M47.2131 14.7177H49.071V16.5756H47.2131V14.7177ZM47.2131 17.3042H49.071V25.1366H47.2131V17.3042Z" fill="white"/>
<path d="M55.8106 19.4171C55.4463 19.0893 54.827 18.6157 53.7705 18.6157C52.1676 18.6157 51.5118 19.9636 51.5118 21.2386C51.5118 21.7851 51.6575 23.8616 53.6976 23.8616C54.7541 23.8616 55.4463 23.388 55.9563 23.0237V24.663C55.592 24.8452 54.7541 25.2823 53.4062 25.2823C50.7468 25.2823 49.6175 23.2787 49.6175 21.2022C49.6175 19.0164 50.8197 17.122 53.479 17.122C54.7541 17.122 55.4463 17.5228 55.7741 17.7049V19.4171H55.8106Z" fill="white"/>
</svg>
