<svg width="160" height="40" viewBox="0 0 160 40" xmlns="http://www.w3.org/2000/svg" xmlns:xlink="http://www.w3.org/1999/xlink"><title>airline-logo-mh</title><defs><path id="a" d="M.02.361h38.94v29.563H.02z"/><path d="M38.918 14.68c-.03-.005-.9-.064-.9-.064-3.553-.256-3.483-3.518-3.483-3.518C34.598 7.102 32.329.732 23.45.361H8.083l-.212.78h12.884c1.308.028 2.22.996 1.79 2.567l-2.31 8.497c-.876 2.543-3.19 2.411-3.19 2.411-2.363-.205-1.699-2.473-1.699-2.473l1.057-3.896c.332-1.32-.597-1.95-1.407-1.974L6.47 6.28l-.209.768h3.65c1.342.032 1.632 1.05 1.392 1.963 0 0-.456 1.615-.993 3.644-.523 1.961-2.322 2.02-2.578 2.02H4.18l-.248.918h3.363c.386 0 2.206.073 1.665 2.035-.57 2.037-.99 3.642-.99 3.642-.265.915-1.096 1.92-2.465 1.957H1.84l-.204.78 8.538.009c.82-.03 2.09-.655 2.486-1.988l1.059-3.884s.564-2.274 3.041-2.478c0 0 2.387-.132 1.87 2.411l-2.3 8.492c-.43 1.575-1.871 2.55-3.188 2.565H.239l-.22.79h15.39c9.08-.372 14.808-6.739 16.929-10.74 0 0 1.703-3.263 5.404-3.518l.912-.06s.064 0 .08-.058c.055-.166.215-.777.224-.815.01-.04-.01-.048-.04-.054z" id="c"/><path id="e" d="M.337.17H29.71v6.807H.337z"/><path id="g" d="M.337.17H29.71v6.807H.337z"/></defs><g fill="none" fill-rule="evenodd"><g transform="translate(121)"><mask id="b" fill="#fff"><use xlink:href="#a"/></mask><path d="M38.918 14.68c-.03-.005-.9-.064-.9-.064-3.553-.256-3.483-3.518-3.483-3.518C34.598 7.102 32.329.732 23.45.361H8.083l-.212.78h12.884c1.308.028 2.22.996 1.79 2.567l-2.31 8.497c-.876 2.543-3.19 2.411-3.19 2.411-2.363-.205-1.699-2.473-1.699-2.473l1.057-3.896c.332-1.32-.597-1.95-1.407-1.974L6.47 6.28l-.209.768h3.65c1.342.032 1.632 1.05 1.392 1.963 0 0-.456 1.615-.993 3.644-.523 1.961-2.322 2.02-2.578 2.02H4.18l-.248.918h3.363c.386 0 2.206.073 1.665 2.035-.57 2.037-.99 3.642-.99 3.642-.265.915-1.096 1.92-2.465 1.957H1.84l-.204.78 8.538.009c.82-.03 2.09-.655 2.486-1.988l1.059-3.884s.564-2.274 3.041-2.478c0 0 2.387-.132 1.87 2.411l-2.3 8.492c-.43 1.575-1.871 2.55-3.188 2.565H.239l-.22.79h15.39c9.08-.372 14.808-6.739 16.929-10.74 0 0 1.703-3.263 5.404-3.518l.912-.06s.064 0 .08-.058c.055-.166.215-.777.224-.815.01-.04-.01-.048-.04-.054" fill="#003B65" fill-rule="nonzero" mask="url(#b)"/></g><g transform="translate(121)"><mask id="d" fill="#fff"><use xlink:href="#c"/></mask><path fill="#D0232B" fill-rule="nonzero" mask="url(#d)" d="M3.48 15.142h35.488V.362H3.48z"/></g><path d="M21.295 16.319C20.826 15.718 19.91 15 18.215 15H4.059L0 30h3.978l3.17-11.715h3.547L7.527 30h3.979l3.163-11.715h1.524c.63 0 1.078.161 1.328.487.367.467.252 1.165.152 1.541L15.052 30h3.977l2.817-10.408c.328-1.214.126-2.409-.55-3.273m11.251 10.556h-5.214c-.498 0-1.194-.04-1.493-.395-.183-.221-.212-.555-.086-.99.37-1.271 1.453-1.44 2.47-1.44h5.144l-.821 2.825zm5.686-10.446C37.477 15.535 36.14 15 34.647 15h-9.268l-.912 3.125h8.104c.84 0 1.426.187 1.735.555.313.368.359.925.149 1.656l-.173.588H27.5c-3.057 0-5.464 1.726-6.277 4.511-.403 1.397-.26 2.568.427 3.378.655.775 1.788 1.187 3.27 1.187h11.004l2.809-9.634c.48-1.648.314-2.976-.5-3.937zm18.315 10.446h-5.213c-.494 0-1.191-.04-1.494-.395-.185-.221-.212-.555-.087-.99.372-1.271 1.456-1.44 2.47-1.44h5.148l-.824 2.825zm5.685-10.449c-.751-.89-2.094-1.426-3.587-1.426h-9.27l-.909 3.125h8.103c.841 0 1.427.187 1.734.555.313.368.36.925.147 1.656l-.17.588h-6.776c-3.063 0-5.468 1.726-6.278 4.511-.41 1.397-.262 2.568.425 3.378.656.775 1.784 1.187 3.269 1.187h11.004l2.805-9.634c.483-1.648.318-2.976-.497-3.94zM75.886 15l-3.278 12.004h-4.043c-.648 0-1.112-.167-1.371-.495-.382-.481-.256-1.214-.15-1.607L69.747 15h-4.113l-2.807 10.282c-.435 1.59-.303 2.836.392 3.711.896 1.14 2.518 1.378 3.72 1.378h4.75l-.422 1.515c-.253.926-1.336 1.913-2.843 1.913h-7.548L60 37h8.788c2.458 0 5.776-2.12 6.61-5.169L80 15h-4.114m18.692 7.112c-.61-.777-1.648-1.188-3.009-1.188h-4.066c-.482 0-1.151-.04-1.434-.408-.168-.212-.195-.532-.082-.949.34-1.271 1.365-1.442 2.323-1.442h7.854L97 15h-9.403c-2.82 0-5.035 1.727-5.781 4.51-.371 1.384-.233 2.544.391 3.354.605.775 1.648 1.187 3.02 1.187h4.065c.477 0 1.146.04 1.43.406.166.218.196.547.08.978-.342 1.27-1.366 1.44-2.323 1.44h-8.643L79 30h10.188c2.82 0 5.039-1.727 5.784-4.51.374-1.392.238-2.56-.394-3.378M99.037 15L95 30h3.96L103 15h-3.963m14.506 11.875h-5.207c-.496 0-1.195-.04-1.494-.395-.185-.221-.217-.555-.086-.99.366-1.271 1.454-1.44 2.466-1.44h5.15l-.83 2.825zm5.688-10.449c-.75-.89-2.092-1.426-3.589-1.426h-9.264l-.91 3.125h8.102c.841 0 1.427.187 1.738.555.31.368.358.925.146 1.656l-.167.588h-6.783c-3.061 0-5.467 1.726-6.277 4.511-.41 1.397-.262 2.568.42 3.378.658.775 1.787 1.187 3.274 1.187h11.002l2.81-9.634c.48-1.648.312-2.976-.502-3.94zM43.643 11L38 30h4.355L48 11h-4.357M81.77 39.021h-2.534c-.472 0-.776-.105-.925-.319-.13-.185-.182-.446-.09-.8.194-.777.72-1.146 1.555-1.146h2.57l-.575 2.265zm2.003-5.505c-.335-.477-.938-.516-1.117-.516h-4.16l-.251.994h3.805c.312 0 .56.096.695.288.106.152.106.403.061.636-.041.212-.216.856-.216.856h-2.893c-1.362 0-2.313.746-2.637 2.154-.147.644-.007 1.145.241 1.5.264.373.77.572 1.466.572h3.892l1.241-4.964c.167-.656.124-1.167-.127-1.52zM84.17 40L86 33h-1.168L83 40h1.17M91 40l2-9h-1l-2 9h1m2.167 0L95 33h-1.17L92 40h1.167m7.004-7h-3.4L95 40h1.131l1.522-6.006h2.102c.458 0 .764.102.935.366.199.31.118.722-.022 1.282L99.563 40h1.143l1.186-4.689c.193-.755.12-1.33-.157-1.714-.277-.395-.805-.597-1.564-.597m3.546 2.882c.31-.783 1.13-1.888 2.569-1.888h2.445L109 33h-2.875c-2.07 0-3.475 1.77-3.95 3.522-.305 1.121-.208 2.118.265 2.735.375.495.968.743 1.756.743h2.902l.265-.979h-2.49c-.61 0-1.053-.128-1.31-.433-.299-.348-.323-.973-.152-1.615l.017-.048h4.35l.26-.966h-4.346l.025-.077" fill="#003B65" fill-rule="nonzero"/><g transform="translate(86 33)"><mask id="f" fill="#fff"><use xlink:href="#e"/></mask><path d="M29.454 1.174l.257-.961h-3.629c-1.87 0-2.453 1.224-2.653 1.965-.141.523-.044.986.163 1.263.264.355.682.536 1.395.536h1.789c1.09 0 .906.832.822 1.1-.269.857-1.159.933-2.084.933h-3.116l-.249.949h4.384c1.119 0 2.05-.718 2.319-1.941.127-.584.016-1.085-.257-1.423-.25-.308-.669-.554-1.436-.554h-1.535c-.15 0-.66.016-.837-.26-.116-.18-.118-.377-.038-.66.236-.831.998-.947 1.338-.947h3.367" fill="#003B65" fill-rule="nonzero" mask="url(#f)"/></g><g transform="translate(86 33)"><mask id="h" fill="#fff"><use xlink:href="#g"/></mask><path d="M4.022.17C2.033.17 1.646 2.065 1.61 2.202 1.57 2.34.337 7 .337 7h1.147s1.185-4.478 1.23-4.622c.068-.217.384-1.23 1.492-1.23h.962L5.43.17H4.022" fill="#003B65" fill-rule="nonzero" mask="url(#h)"/></g></g></svg>