<svg width="111" height="24" viewBox="0 0 111 24" fill="none" xmlns="http://www.w3.org/2000/svg">
<g clip-path="url(#clip0_1813_10854)">
<path d="M69.7108 23.7786H69.3969L68.4185 21.8955V23.7786H68.16V21.6001H68.5662L69.4523 23.3355V21.6001H69.7108V23.7786Z" fill="#004793"/>
<path d="M72.24 22.9661C72.24 22.763 72.2031 22.5968 72.1292 22.4861C72.0554 22.3753 71.9446 22.3384 71.7969 22.3384C71.6492 22.3384 71.5385 22.3938 71.4646 22.4861C71.3908 22.5968 71.3538 22.7445 71.3538 22.9661C71.3538 23.1692 71.3908 23.3353 71.4646 23.4276C71.5385 23.5384 71.6492 23.5938 71.7969 23.5938C71.9446 23.5938 72.0554 23.5384 72.1292 23.4461C72.2031 23.3353 72.24 23.1692 72.24 22.9661ZM72.5169 22.9661C72.5169 23.243 72.4431 23.4461 72.3138 23.6122C72.1846 23.7599 72 23.8338 71.7785 23.8338C71.5569 23.8338 71.3723 23.7599 71.2431 23.5938C71.1138 23.4461 71.04 23.2245 71.04 22.9661C71.04 22.6892 71.1138 22.4861 71.2431 22.3199C71.3723 22.1722 71.5569 22.0984 71.7785 22.0984C72 22.0984 72.1846 22.1722 72.3138 22.3199C72.4615 22.4676 72.5169 22.6892 72.5169 22.9661Z" fill="#004793"/>
<path d="M75.12 23.7783H74.8431V23.5937C74.7508 23.6676 74.6769 23.7229 74.6031 23.7599C74.5292 23.7968 74.4369 23.8153 74.3446 23.8153C74.2708 23.8153 74.1969 23.7968 74.1415 23.7783C74.0862 23.7599 74.0308 23.7229 73.9754 23.6676C73.92 23.6122 73.8831 23.5568 73.8646 23.4829C73.8462 23.4091 73.8277 23.3168 73.8277 23.206V22.1353H74.1046V23.0768C74.1046 23.1691 74.1046 23.2429 74.1231 23.2983C74.1231 23.3537 74.1415 23.4091 74.16 23.446C74.1785 23.4829 74.2154 23.5199 74.2523 23.5383C74.2892 23.5568 74.3446 23.5753 74.4185 23.5753C74.4923 23.5753 74.5662 23.5568 74.64 23.5199C74.7138 23.4829 74.7877 23.4276 74.8431 23.3722V22.1537H75.12V23.7783Z" fill="#004793"/>
<path d="M77.8338 22.1355L77.2246 23.7786H76.9662L76.3569 22.1355H76.6523L77.1138 23.4093L77.5569 22.1355H77.8338Z" fill="#004793"/>
<path d="M80.1231 22.7816C80.1231 22.7078 80.1046 22.6524 80.1046 22.597C80.0862 22.5416 80.0677 22.5047 80.0308 22.4678C79.9939 22.4308 79.9569 22.3939 79.9015 22.3755C79.8462 22.357 79.7908 22.3385 79.7169 22.3385C79.6431 22.3385 79.5877 22.357 79.5323 22.3755C79.4769 22.3939 79.44 22.4308 79.3846 22.4678C79.3477 22.5047 79.3108 22.5601 79.2923 22.6155C79.2739 22.6708 79.2554 22.7262 79.2554 22.8001H80.1231V22.7816ZM79.7908 23.8155C79.5323 23.8155 79.3292 23.7416 79.1815 23.5939C79.0338 23.4462 78.96 23.2432 78.96 22.9662C78.96 22.7078 79.0338 22.4862 79.1631 22.3201C79.3108 22.1539 79.4769 22.0801 79.7169 22.0801C79.8277 22.0801 79.9015 22.0985 79.9938 22.117C80.0677 22.1539 80.1415 22.1908 80.1969 22.2462C80.2523 22.3016 80.3077 22.3939 80.3262 22.4678C80.3631 22.5601 80.3815 22.6708 80.3815 22.8001V22.9478H79.2369C79.2369 23.1324 79.2923 23.2801 79.3846 23.3908C79.4769 23.4832 79.6062 23.5385 79.7908 23.5385C79.8462 23.5385 79.92 23.5385 79.9754 23.5201C80.0308 23.5016 80.0862 23.4832 80.1415 23.4647C80.1969 23.4462 80.2338 23.4278 80.2708 23.3908C80.3077 23.3724 80.3262 23.3539 80.3631 23.3355H80.3815V23.6308C80.3446 23.6493 80.3077 23.6678 80.2523 23.6862C80.1969 23.7047 80.16 23.7232 80.1231 23.7232C80.0677 23.7416 80.0123 23.7416 79.9754 23.7601C79.9385 23.7785 79.8646 23.8155 79.7908 23.8155Z" fill="#004793"/>
<path d="M81.9877 21.5078H81.7108V23.797H81.9877V21.5078Z" fill="#004793"/>
<path d="M83.7046 21.5078H83.4277V23.797H83.7046V21.5078Z" fill="#004793"/>
<path d="M86.1785 22.7816C86.1785 22.7078 86.16 22.6524 86.16 22.597C86.1415 22.5416 86.1231 22.5047 86.0862 22.4678C86.0492 22.4308 86.0123 22.3939 85.9569 22.3755C85.9015 22.357 85.8462 22.3385 85.7723 22.3385C85.6985 22.3385 85.6431 22.357 85.5877 22.3755C85.5323 22.3939 85.4954 22.4308 85.44 22.4678C85.4031 22.5047 85.3662 22.5601 85.3477 22.6155C85.3292 22.6708 85.3108 22.7262 85.3108 22.8001H86.1785V22.7816ZM85.8646 23.8155C85.6062 23.8155 85.4031 23.7416 85.2554 23.5939C85.1077 23.4462 85.0339 23.2432 85.0339 22.9662C85.0339 22.7078 85.1077 22.4862 85.2369 22.3201C85.3846 22.1539 85.5508 22.0801 85.7908 22.0801C85.9015 22.0801 85.9754 22.0985 86.0677 22.117C86.1415 22.1539 86.2154 22.1908 86.2708 22.2462C86.3262 22.3016 86.3815 22.3939 86.4 22.4678C86.4369 22.5601 86.4554 22.6708 86.4554 22.8001V22.9478H85.3108C85.3108 23.1324 85.3662 23.2801 85.4585 23.3908C85.5508 23.4832 85.68 23.5385 85.8646 23.5385C85.92 23.5385 85.9939 23.5385 86.0492 23.5201C86.1046 23.5016 86.16 23.4832 86.2154 23.4647C86.2708 23.4462 86.3077 23.4278 86.3446 23.3908C86.3815 23.3724 86.4 23.3539 86.4369 23.3355H86.4554V23.6308C86.4185 23.6493 86.3815 23.6678 86.3262 23.6862C86.2708 23.7047 86.2338 23.7232 86.1969 23.7232C86.1415 23.7416 86.0862 23.7416 86.0492 23.7601C86.0123 23.7785 85.92 23.8155 85.8646 23.8155Z" fill="#004793"/>
<path d="M88.5231 22.6892H87.6923V22.9477H88.5231V22.6892Z" fill="#004793"/>
<path d="M90.7754 23.8153C90.6277 23.8153 90.4985 23.7968 90.3877 23.7415C90.2769 23.6861 90.1662 23.6307 90.0739 23.5199C89.9816 23.4276 89.9262 23.2984 89.8708 23.1691C89.8154 23.0215 89.7969 22.8553 89.7969 22.6891C89.7969 22.5045 89.8154 22.3384 89.8708 22.2091C89.9262 22.0799 89.9816 21.9507 90.0739 21.8584C90.1662 21.7661 90.2585 21.6922 90.3877 21.6368C90.4985 21.5815 90.6462 21.563 90.7938 21.563C90.8677 21.563 90.9415 21.563 90.9969 21.5815C91.0523 21.5999 91.1262 21.5999 91.1815 21.6184C91.2369 21.6368 91.2738 21.6553 91.3292 21.6738C91.3846 21.6922 91.4215 21.7107 91.4769 21.7476V22.0984H91.4585C91.44 22.0799 91.4031 22.043 91.3662 22.0061C91.3292 21.9691 91.2738 21.9322 91.2185 21.9138C91.1631 21.8768 91.1077 21.8584 91.0338 21.8399C90.96 21.8214 90.8862 21.803 90.8123 21.803C90.72 21.803 90.6277 21.8215 90.5539 21.8584C90.4615 21.8953 90.4062 21.9507 90.3323 22.0245C90.2769 22.0984 90.2215 22.1907 90.1846 22.3014C90.1477 22.4122 90.1292 22.5415 90.1292 22.6891C90.1292 22.8368 90.1477 22.9661 90.1846 23.0768C90.2215 23.1876 90.2769 23.2799 90.3323 23.3538C90.3877 23.4276 90.4615 23.483 90.5539 23.5199C90.6277 23.5568 90.72 23.5753 90.8123 23.5753C90.9046 23.5753 90.9785 23.5568 91.0523 23.5384C91.1262 23.5199 91.1815 23.483 91.2369 23.4645C91.2923 23.4276 91.3292 23.4091 91.3846 23.3722C91.4215 23.3353 91.4585 23.3168 91.4769 23.2984H91.4954V23.6491C91.44 23.6676 91.4031 23.6861 91.3662 23.7045C91.3292 23.723 91.2738 23.7415 91.2185 23.7599C91.1631 23.7784 91.0892 23.7968 91.0338 23.8153C90.9231 23.8153 90.8492 23.8153 90.7754 23.8153Z" fill="#004793"/>
<path d="M93.6554 23.3723V22.9108C93.5816 22.9108 93.5077 22.9293 93.4154 22.9293C93.3231 22.9477 93.2308 22.9477 93.1754 22.9662C93.1016 22.9846 93.0462 23.0216 92.9908 23.0769C92.9354 23.1139 92.9169 23.1877 92.9169 23.28C92.9169 23.3723 92.9354 23.4462 92.9908 23.5016C93.0462 23.5569 93.12 23.5754 93.2308 23.5754C93.3231 23.5754 93.3969 23.5569 93.4708 23.52C93.5262 23.4831 93.5816 23.4277 93.6554 23.3723ZM93.6554 23.6123C93.6369 23.6308 93.6 23.6493 93.5631 23.6862C93.5262 23.7231 93.4892 23.7416 93.4523 23.76C93.3969 23.7785 93.36 23.7969 93.3046 23.8154C93.2677 23.8339 93.1939 23.8339 93.12 23.8339C93.0462 23.8339 92.9908 23.8154 92.9354 23.7969C92.88 23.7785 92.8246 23.7416 92.7692 23.6862C92.7323 23.6493 92.6954 23.5939 92.6585 23.52C92.64 23.4462 92.6216 23.3908 92.6216 23.3169C92.6216 23.2062 92.64 23.1139 92.6954 23.0216C92.7508 22.9477 92.8246 22.8739 92.9169 22.8369C93.0092 22.8 93.12 22.7631 93.2492 22.7446C93.3785 22.7262 93.5077 22.7077 93.6554 22.7077V22.6523C93.6554 22.5785 93.6369 22.5416 93.6185 22.5046C93.6 22.4677 93.5631 22.4308 93.5446 22.4123C93.5077 22.3939 93.4708 22.3754 93.4154 22.3754C93.36 22.3754 93.3046 22.3569 93.2677 22.3569C93.2123 22.3569 93.12 22.3754 93.0462 22.3939C92.9539 22.4123 92.88 22.4493 92.7877 22.4677H92.7692V22.1908C92.8246 22.1723 92.8985 22.1539 92.9908 22.1354C93.0831 22.1169 93.1754 22.1169 93.2677 22.1169C93.3785 22.1169 93.4708 22.1169 93.5446 22.1354C93.6185 22.1539 93.6923 22.1908 93.7477 22.2277C93.8031 22.2646 93.8585 22.3385 93.8769 22.3939C93.9139 22.4677 93.9139 22.56 93.9139 22.6523V23.7785H93.6369V23.6123H93.6554Z" fill="#004793"/>
<path d="M95.6308 21.5078H95.3539V23.797H95.6308V21.5078Z" fill="#004793"/>
<path d="M98.1785 21.323L97.7723 21.8768H97.5508L97.8092 21.323H98.1785ZM98.1046 22.7815C98.1046 22.7076 98.0862 22.6522 98.0862 22.5968C98.0677 22.5415 98.0492 22.5045 98.0123 22.4676C97.9754 22.4307 97.9385 22.3938 97.8831 22.3753C97.8277 22.3568 97.7723 22.3384 97.6985 22.3384C97.6246 22.3384 97.5692 22.3568 97.5139 22.3753C97.4585 22.3938 97.4215 22.4307 97.3662 22.4676C97.3292 22.5045 97.2923 22.5599 97.2739 22.6153C97.2554 22.6707 97.2369 22.7261 97.2369 22.7999H98.1046V22.7815ZM97.7908 23.8153C97.5323 23.8153 97.3292 23.7415 97.1815 23.5938C97.0339 23.4461 96.96 23.243 96.96 22.9661C96.96 22.7076 97.0338 22.4861 97.1631 22.3199C97.3108 22.1538 97.4769 22.0799 97.7169 22.0799C97.8277 22.0799 97.9015 22.0984 97.9939 22.1168C98.0677 22.1538 98.1415 22.1907 98.1969 22.2461C98.2523 22.3015 98.3077 22.3938 98.3262 22.4676C98.3631 22.5599 98.3816 22.6707 98.3816 22.7999V22.9476H97.2369C97.2369 23.1322 97.2923 23.2799 97.3846 23.3907C97.4769 23.483 97.6062 23.5384 97.7908 23.5384C97.8462 23.5384 97.92 23.5384 97.9754 23.5199C98.0308 23.5015 98.0862 23.483 98.1415 23.4645C98.1969 23.4461 98.2339 23.4276 98.2708 23.3907C98.3077 23.3722 98.3262 23.3538 98.3631 23.3353H98.3816V23.6307C98.3446 23.6492 98.3077 23.6676 98.2523 23.6861C98.1969 23.7045 98.16 23.723 98.1231 23.723C98.0677 23.7415 98.0123 23.7415 97.9754 23.7599C97.9015 23.8153 97.8462 23.8153 97.7908 23.8153Z" fill="#004793"/>
<path d="M100.671 23.3906V22.4491C100.597 22.4122 100.542 22.3937 100.486 22.3753C100.431 22.3568 100.375 22.3568 100.302 22.3568C100.154 22.3568 100.043 22.4122 99.9692 22.523C99.8954 22.6337 99.84 22.7814 99.84 22.9845C99.84 23.1691 99.8769 23.3168 99.9323 23.4276C99.9877 23.5383 100.098 23.5753 100.228 23.5753C100.302 23.5753 100.375 23.5568 100.449 23.5199C100.542 23.483 100.615 23.446 100.671 23.3906ZM100.948 23.7783H100.671V23.6122C100.634 23.6491 100.597 23.686 100.56 23.7045C100.523 23.723 100.486 23.7414 100.449 23.7783C100.412 23.7968 100.375 23.8153 100.32 23.8153C100.283 23.8337 100.228 23.8337 100.172 23.8337C100.08 23.8337 100.006 23.8153 99.9323 23.7783C99.8585 23.7414 99.7846 23.686 99.7477 23.6122C99.6923 23.5383 99.6554 23.446 99.6185 23.3353C99.5815 23.2245 99.5815 23.1137 99.5815 22.966C99.5815 22.8183 99.6 22.6891 99.6369 22.5968C99.6738 22.486 99.7292 22.3937 99.7846 22.3199C99.84 22.246 99.9138 22.1906 100.006 22.1537C100.098 22.1168 100.172 22.0983 100.265 22.0983C100.338 22.0983 100.412 22.0983 100.486 22.1168C100.542 22.1353 100.615 22.1537 100.671 22.2091V21.5076H100.948V23.7783Z" fill="#004793"/>
<path d="M103.458 22.9661C103.458 22.763 103.422 22.5968 103.348 22.4861C103.274 22.3753 103.163 22.3384 103.015 22.3384C102.868 22.3384 102.757 22.3938 102.683 22.4861C102.609 22.5968 102.572 22.7445 102.572 22.9661C102.572 23.1692 102.609 23.3353 102.683 23.4276C102.757 23.5384 102.868 23.5938 103.015 23.5938C103.163 23.5938 103.274 23.5384 103.348 23.4461C103.403 23.3353 103.458 23.1692 103.458 22.9661ZM103.735 22.9661C103.735 23.243 103.662 23.4461 103.532 23.6122C103.403 23.7599 103.218 23.8338 102.997 23.8338C102.775 23.8338 102.591 23.7599 102.462 23.5938C102.332 23.4461 102.258 23.2245 102.258 22.9661C102.258 22.6892 102.332 22.4861 102.462 22.3199C102.591 22.1722 102.775 22.0984 102.997 22.0984C103.218 22.0984 103.403 22.1722 103.532 22.3199C103.662 22.4676 103.735 22.6892 103.735 22.9661Z" fill="#004793"/>
<path d="M106.338 23.7784H106.062V22.8368C106.062 22.763 106.062 22.6892 106.043 22.6338C106.043 22.5599 106.025 22.523 106.006 22.4861C105.988 22.4492 105.951 22.4122 105.914 22.3938C105.877 22.3753 105.822 22.3568 105.748 22.3568C105.674 22.3568 105.6 22.3753 105.545 22.4122C105.471 22.4492 105.397 22.5045 105.323 22.5599V23.7784H105.046V22.1353H105.323V22.3199C105.397 22.2461 105.489 22.1907 105.563 22.1538C105.637 22.1168 105.729 22.0984 105.822 22.0984C105.988 22.0984 106.117 22.1538 106.209 22.2645C106.302 22.3753 106.338 22.523 106.338 22.7261V23.7784Z" fill="#004793"/>
<path d="M107.778 23.7785H108.055V22.1354H107.778V23.7785ZM107.76 21.8769H108.074V21.5815H107.76V21.8769Z" fill="#004793"/>
<path d="M110.529 22.7816C110.529 22.7078 110.511 22.6524 110.511 22.597C110.492 22.5416 110.474 22.5047 110.437 22.4678C110.4 22.4308 110.363 22.3939 110.308 22.3755C110.252 22.357 110.197 22.3385 110.123 22.3385C110.049 22.3385 109.994 22.357 109.938 22.3755C109.883 22.3939 109.846 22.4308 109.791 22.4678C109.754 22.5047 109.717 22.5601 109.698 22.6155C109.68 22.6708 109.662 22.7262 109.662 22.8001H110.529V22.7816ZM110.197 23.8155C109.938 23.8155 109.735 23.7416 109.588 23.5939C109.44 23.4462 109.366 23.2432 109.366 22.9662C109.366 22.7078 109.44 22.4862 109.569 22.3201C109.717 22.1539 109.883 22.0801 110.123 22.0801C110.234 22.0801 110.308 22.0985 110.4 22.117C110.474 22.1539 110.548 22.1908 110.603 22.2462C110.658 22.3016 110.714 22.3939 110.732 22.4678C110.769 22.5601 110.788 22.6708 110.788 22.8001V22.9478H109.662C109.662 23.1324 109.717 23.2801 109.809 23.3908C109.902 23.4832 110.031 23.5385 110.215 23.5385C110.271 23.5385 110.345 23.5385 110.4 23.5201C110.455 23.5016 110.511 23.4832 110.566 23.4647C110.622 23.4462 110.658 23.4278 110.695 23.3908C110.732 23.3724 110.751 23.3539 110.788 23.3355H110.806V23.6308C110.769 23.6493 110.732 23.6678 110.677 23.6862C110.622 23.7047 110.585 23.7232 110.548 23.7232C110.492 23.7416 110.437 23.7416 110.4 23.7601C110.363 23.7785 110.271 23.8155 110.197 23.8155Z" fill="#004793"/>
<path d="M32.6585 12.886L32.0492 9.23065L29.4277 12.886H32.6585ZM22.4308 17.1507L30.8123 6.07373H35.1323L37.4031 17.1507H33.3231L32.9538 14.8799H27.9877L26.3815 17.1507H22.4308Z" fill="#004793"/>
<path d="M45.9508 7.60621H42.24L42.7939 5.57544H46.5046L45.9508 7.60621ZM43.3108 17.1508H39.6L41.9077 8.78775H45.6185L43.3108 17.1508Z" fill="#004793"/>
<path d="M56.6031 11.2615H56.3077C56.1785 11.2246 55.9754 11.2061 55.7169 11.1877C55.4585 11.1692 55.1631 11.1692 54.8308 11.1692C54.4431 11.1692 54.0185 11.2061 53.5754 11.28C53.1323 11.3538 52.6892 11.4461 52.2462 11.5569L50.7138 17.1507H47.0031L49.3108 8.78766H53.0215L52.6892 9.98766C52.8923 9.87689 53.1692 9.74766 53.5015 9.5815C53.8523 9.41535 54.1661 9.28612 54.4246 9.17535C54.72 9.06458 55.0708 8.97227 55.44 8.87997C55.8277 8.80612 56.16 8.75073 56.4923 8.75073C56.6031 8.75073 56.7508 8.75073 56.8985 8.75073C57.0461 8.75073 57.1754 8.7692 57.2861 8.7692L56.6031 11.2615Z" fill="#004793"/>
<path d="M63.0277 17.3722C62.0492 17.3722 61.1631 17.2799 60.4062 17.1138C59.6308 16.9476 59.0031 16.6707 58.5046 16.3015C58.0062 15.9322 57.6739 15.4891 57.4892 14.9353C57.3046 14.3815 57.3231 13.7353 57.5262 12.9968C57.7477 12.203 58.1169 11.5199 58.6339 10.9661C59.1508 10.4122 59.76 9.95069 60.48 9.58145C61.1631 9.23069 61.9385 8.97223 62.7877 8.80607C63.6369 8.63992 64.4862 8.54761 65.3538 8.54761C66.0185 8.54761 66.6462 8.603 67.2738 8.71377C67.9015 8.82453 68.5108 8.99069 69.12 9.23069L68.5108 11.4645H68.0308C67.9015 11.3722 67.7538 11.2615 67.5692 11.1322C67.3846 11.0215 67.1815 10.9107 66.96 10.7999C66.72 10.6891 66.4431 10.6153 66.1292 10.5415C65.8154 10.4676 65.4462 10.4307 65.0215 10.4307C64.08 10.4307 63.2862 10.6707 62.64 11.1322C61.9938 11.5938 61.5692 12.2215 61.3477 12.9968C61.1077 13.8276 61.2185 14.4553 61.6615 14.8799C62.1046 15.2861 62.7877 15.4891 63.6923 15.4891C64.1538 15.4891 64.5785 15.4522 64.9477 15.3784C65.3169 15.3045 65.6492 15.2122 65.9262 15.1015C66.2031 14.9907 66.4431 14.8984 66.6462 14.7691C66.8492 14.6584 67.0338 14.5661 67.1815 14.4738H67.6615L67.0523 16.7076C66.8308 16.7815 66.5538 16.8553 66.2585 16.9291C65.9631 17.0215 65.6492 17.0768 65.3538 17.1322C64.9662 17.2061 64.6154 17.2615 64.3015 17.2984C63.9692 17.3538 63.5446 17.3722 63.0277 17.3722Z" fill="#004793"/>
<path d="M76.6708 14.9722L77.1508 13.2368C76.5046 13.2737 75.9877 13.3291 75.6 13.3475C75.1938 13.3845 74.8062 13.4399 74.4 13.5322C74.0492 13.606 73.7723 13.7352 73.5508 13.9014C73.3292 14.0675 73.1815 14.2706 73.1077 14.5475C72.9969 14.9352 73.0708 15.2122 73.3292 15.3599C73.5877 15.5076 74.0123 15.5814 74.6031 15.5814C74.9354 15.5814 75.2677 15.526 75.6369 15.4337C76.0062 15.3045 76.3385 15.1568 76.6708 14.9722ZM76.32 16.2645C76.0246 16.4122 75.7662 16.5414 75.5262 16.6706C75.2862 16.7814 74.9908 16.9106 74.6215 17.0214C74.2523 17.1322 73.92 17.2245 73.5877 17.2799C73.2554 17.3352 72.8123 17.3722 72.24 17.3722C71.1877 17.3722 70.3754 17.1322 69.8215 16.6337C69.2677 16.1352 69.0831 15.5075 69.2862 14.7506C69.4523 14.1229 69.7662 13.6245 70.2277 13.2552C70.6892 12.8675 71.28 12.5722 72 12.3506C72.7385 12.1291 73.5877 11.9629 74.5292 11.8706C75.4892 11.7783 76.5046 11.7045 77.5938 11.6676L77.6123 11.6306C77.7415 11.1691 77.5938 10.8552 77.1508 10.6706C76.7077 10.486 76.0062 10.4122 75.0462 10.4122C74.6031 10.4122 74.0862 10.4675 73.4585 10.5783C72.8492 10.6891 72.2215 10.8368 71.6308 11.0029H71.3169L71.8708 8.99063C72.2585 8.91678 72.8677 8.82447 73.7169 8.73216C74.5662 8.62139 75.3969 8.58447 76.2462 8.58447C78.2954 8.58447 79.7169 8.82447 80.5292 9.30447C81.3415 9.78447 81.6 10.5229 81.3231 11.5014L79.7538 17.1876H76.0615L76.32 16.2645Z" fill="#004793"/>
<path d="M87.0646 17.1507H83.3539L86.5292 5.55688H90.24L87.0646 17.1507Z" fill="#004793"/>
<path d="M97.0892 7.58765H93.3785L93.9323 5.55688H97.6431L97.0892 7.58765ZM94.4492 17.1507H90.7385L93.0462 8.78765H96.7569L94.4492 17.1507Z" fill="#004793"/>
<path d="M109.274 17.1323H105.545L106.689 12.9784C106.782 12.6461 106.855 12.3138 106.911 11.963C106.966 11.6307 106.966 11.3907 106.892 11.2246C106.818 11.04 106.671 10.8923 106.449 10.8184C106.228 10.7446 105.914 10.6892 105.526 10.6892C105.231 10.6892 104.898 10.7261 104.566 10.8C104.234 10.8738 103.865 11.003 103.458 11.1877L101.834 17.1138H98.1231L100.431 8.75074H104.142L103.883 9.67382C104.585 9.30459 105.268 9.02766 105.895 8.82458C106.523 8.62151 107.188 8.51074 107.889 8.51074C109.108 8.51074 109.957 8.78766 110.455 9.32305C110.954 9.85843 111.065 10.6338 110.769 11.6677L109.274 17.1323Z" fill="#004793"/>
<path d="M22.0615 19.403C22.0615 19.403 66.8123 18.7199 110.917 19.3107C110.917 19.3107 65.04 20.1784 22.0615 19.403Z" fill="#17AAE3"/>
<path d="M7.34769 11.1507C7.34769 11.1507 6.22154 6.47998 8.78769 5.72306C11.3538 4.9846 11.7231 6.12921 11.7231 6.12921L11.8154 6.7569L12.4985 6.44306L12.6646 7.36613C12.6646 7.36613 14.6215 7.03383 14.4 7.88306C14.16 8.73229 10.8185 9.56306 10.3385 11.4831C10.3385 11.4831 15.3969 8.06767 17.76 8.76921C20.1231 9.47075 19.1631 10.4861 19.1631 10.4861L19.68 10.9108L19.0523 11.4831L20.1231 13.3846C20.1231 13.3846 20.0861 15.3231 17.2062 16.3015L13.3292 14.3446C13.3292 14.3446 16.9662 17.1508 15.84 19.2369C14.7138 21.3231 13.44 20.4369 13.44 20.4369L12.8308 19.4031L12.3323 20.2707L11.8892 19.9938C11.8892 19.9938 8.73231 20.9908 8.43692 20.8431C8.14154 20.6954 7.75384 17.8892 8.76923 16.4677C9.78461 15.0646 8.69538 16.6523 8.69538 16.6523C8.69538 16.6523 6.20307 17.9631 5.18769 20.0861C4.17231 22.1907 2.30769 19.7169 2.30769 19.7169L2.45538 18.9415H1.97538L0.572307 18.4615C0.572307 18.4615 -0.683078 14.88 1.07077 13.1446C2.82461 11.4092 2.4 12.2031 2.4 12.2031L1.97538 11.28L2.80615 11.4092C2.80615 11.4092 3.67384 8.86152 4.24615 8.76921C4.81846 8.69537 6.73846 13.0708 8.36308 13.4031C10.0246 13.6984 7.51384 12.1292 7.34769 11.1507Z" fill="#E95023"/>
<path d="M17.8892 5.26152C17.7415 5.00306 17.28 5.11382 16.8554 5.50152C16.7631 5.59382 16.6892 5.68613 16.6154 5.77844C16.6523 5.64921 16.6338 5.53844 16.5969 5.4646C16.4677 5.26152 16.0985 5.33537 15.7662 5.66767C15.4338 5.98152 15.2492 6.40613 15.3785 6.62767C15.5077 6.83075 15.8769 6.7569 16.2092 6.42459C16.2646 6.36921 16.32 6.31382 16.3754 6.23998C16.3385 6.33228 16.3385 6.4246 16.3385 6.49844C13.7538 10.32 11.5385 12.3877 10.5785 13.2C10.3385 12.7569 9.61846 11.4092 9.21231 10.5969C9.47077 11.7784 9.52615 14.1784 9.52615 14.1784L7.97538 14.0307C7.97538 14.0307 8.14154 14.7507 7.73538 14.5846C7.32923 14.4184 6.11077 13.5138 5.92615 13.8092C5.74154 14.1046 7.40308 14.7323 6.49846 14.6215C5.59385 14.5108 3.93231 15.5077 3.93231 15.5077C6.60923 15.0831 7.16308 15.0831 7.16308 15.0831L8.73231 15.0461C8.78769 15.6 9.63692 15.7107 9.96923 15.7661C10.3015 15.8215 10.1908 14.7692 10.5969 15.1938C11.0031 15.6 11.6123 17.4092 11.6123 17.4092C11.7046 16.9477 11.3354 14.8246 11.3354 14.8246C11.3354 14.8246 11.7046 15.36 11.9631 15.6184C12.2031 15.8769 12.6646 15.6554 12.6831 14.9538C12.72 14.2523 11.2431 14.16 11.9262 13.5507C12.6092 12.96 14.2154 14.0861 14.4554 13.7908C14.6954 13.4769 13.9569 12.5908 13.9569 12.5908C14.1785 12.48 16.9108 11.4831 16.9108 11.4831C15.6554 11.4646 13.0708 12.4061 11.6492 12.96C12.6277 11.4092 14.7692 8.99075 16.2831 7.34767C16.2646 7.43998 16.2831 7.53229 16.32 7.60614C16.4492 7.80921 16.8185 7.73537 17.1508 7.40306C17.4831 7.08921 17.6677 6.66459 17.5385 6.44306C17.52 6.42459 17.52 6.40613 17.5015 6.38767C17.8338 6.01844 18.0369 5.51998 17.8892 5.26152Z" fill="#F8B90D"/>
<path d="M19.3662 1.55089C19.6985 1.23704 19.8831 0.812431 19.7539 0.590892C19.6246 0.387815 19.2554 0.461657 18.9231 0.793965C18.5908 1.10781 18.4062 1.53243 18.5354 1.75397C18.6646 1.95704 19.0339 1.8832 19.3662 1.55089Z" fill="#F8B90D"/>
<path d="M17.04 3.76621C17.3169 3.50775 17.4462 3.17544 17.3538 3.00929C17.2615 2.84313 16.9662 2.91698 16.6892 3.15698C16.4123 3.41544 16.2831 3.74775 16.3754 3.91391C16.4862 4.09852 16.7815 4.02467 17.04 3.76621Z" fill="#F8B90D"/>
<path d="M21.2862 0.184581C21.1939 0.0184271 20.8985 0.092271 20.6215 0.332271C20.3446 0.590733 20.2154 0.923041 20.3077 1.0892C20.4 1.25535 20.6954 1.18151 20.9723 0.941505C21.2492 0.683044 21.3785 0.350735 21.2862 0.184581Z" fill="#F8B90D"/>
<path d="M19.1077 4.87375C18.7754 5.18759 18.5908 5.61221 18.72 5.83375C18.8492 6.03683 19.2185 5.96298 19.5508 5.63067C19.8831 5.31682 20.0677 4.89221 19.9385 4.67067C19.8277 4.46759 19.4585 4.5599 19.1077 4.87375Z" fill="#F8B90D"/>
<path d="M19.4769 2.63993C19.3292 2.38147 18.8677 2.49225 18.4431 2.87994C18.0185 3.26763 17.7969 3.80301 17.9631 4.07994C18.1108 4.3384 18.5723 4.22763 18.9969 3.83993C19.4031 3.43378 19.6246 2.8984 19.4769 2.63993Z" fill="#F8B90D"/>
<path d="M9.19385 10.597C9.13846 10.3201 9.06462 10.117 8.99077 10.0247C8.84308 9.85851 8.97231 10.1354 9.19385 10.597Z" fill="#F8B90D"/>
</g>
<defs>
<clipPath id="clip0_1813_10854">
<rect width="110.954" height="24" fill="white"/>
</clipPath>
</defs>
</svg>
