<svg width="135" height="24" viewBox="0 0 135 24" fill="none" xmlns="http://www.w3.org/2000/svg">
<path d="M24.0154 12.0018H24.0169L24.0147 12.0033C24.0147 18.6871 18.712 24.0015 12.0084 24C5.30629 24 0 18.6871 0 12.0033C0 5.31802 5.30409 0 12.0077 0C18.7106 0 24.0154 5.31729 24.0154 12.0018ZM17.3133 13.7335H16.6373C15.9621 13.7335 15.674 14.0927 15.5765 14.7891C15.4057 16.0648 14.3947 16.9291 13.0678 16.9291C11.5253 16.9291 10.5385 15.8001 10.5385 14.1631V10.3171C10.5385 10.1632 10.5165 10.0283 10.4784 9.90659C10.6228 9.97257 10.7959 10.0063 10.9953 10.0063H14.5391C15.2158 10.0063 15.6007 9.62067 15.6007 8.94841V8.63683C15.6007 7.96237 15.2158 7.57821 14.5391 7.57821H12.5399V5.41113C12.5399 4.73959 12.1529 4.35397 11.4791 4.35397H10.9953C10.3208 4.35397 9.93591 4.74032 9.93591 5.41113V8.94767C9.93591 9.09943 9.95498 9.23579 9.99603 9.35822C9.83178 9.28955 9.65496 9.25609 9.47698 9.25998H5.9331C5.25864 9.25998 4.87228 9.64487 4.87228 10.3171V10.6309C4.87228 11.3046 5.25864 11.6895 5.9331 11.6895H7.93451V14.1623C7.93451 17.2641 9.93591 19.429 13.0707 19.429C15.9892 19.429 17.9166 17.5764 18.2788 14.7884C18.3741 14.0905 17.9159 13.7327 17.3125 13.7327V13.7335H17.3133ZM82.6646 18.5955C86.2078 18.5955 87.7019 16.9914 87.7019 14.9651C87.7019 12.4021 85.2841 11.765 83.3362 11.515C82.2123 11.3626 80.4829 11.2636 80.4829 10.1573C80.4829 9.33622 81.4572 8.98286 82.6661 8.98286C83.7562 8.98286 84.8493 9.26878 85.7386 10.0371L87.1652 8.16031C85.9087 7.0731 84.4468 6.70434 82.8003 6.70434C80.3502 6.70434 77.6296 7.53863 77.6296 10.2841C77.6296 12.8119 79.9118 13.4827 81.9953 13.7496C83.1837 13.9021 84.8486 14.0164 84.8486 15.108C84.8486 15.9086 83.9425 16.2788 82.7658 16.2788C81.4381 16.2788 79.694 15.795 78.634 14.688L77.2081 16.564C78.6508 18.1585 80.8186 18.5933 82.6654 18.5933V18.5969L82.6646 18.5955ZM64.2466 18.3623H67.0676V12.2364C67.0676 10.3105 68.3102 9.22113 69.9546 9.22113C71.5997 9.22113 72.7251 10.3083 72.7251 12.2342V18.3631H75.5461V11.8178C75.5461 8.4191 73.4281 6.71241 70.7258 6.71241C68.9297 6.71241 67.6028 7.46751 66.9664 8.53786L66.7817 6.947H64.2466V18.3675V18.3623ZM110.672 18.3623L115.558 6.9448H112.62L109.277 15.3646L105.932 6.9448H102.81L107.694 18.3623H110.673H110.672ZM127.965 16.1527C126.036 16.1527 124.589 14.8646 124.589 12.6543C124.589 10.4432 126.034 9.15368 127.966 9.15368C129.897 9.15368 131.343 10.441 131.343 12.6536C131.341 14.8632 129.896 16.1505 127.966 16.1505L127.965 16.1527ZM134.16 6.9448H131.625L131.439 8.53566C130.802 7.48071 129.544 6.71094 127.58 6.71094C124.439 6.71094 121.719 8.66689 121.719 12.6536C121.719 16.6403 124.44 18.5962 127.579 18.5962C129.542 18.5962 130.802 17.8294 131.438 16.7737L131.625 18.3653H134.16V6.9448ZM95.239 16.1527C93.3109 16.1527 91.8645 14.8646 91.8645 12.6543C91.8645 10.4432 93.3087 9.15368 95.2412 9.15368C97.1744 9.15368 98.618 10.441 98.618 12.6536C98.618 14.8632 97.1737 16.1505 95.2412 16.1505L95.2398 16.1527H95.239ZM101.437 6.9448H98.9002L98.714 8.53566C98.0769 7.48071 96.8226 6.71094 94.8549 6.71094C91.7142 6.71094 88.9951 8.66689 88.9951 12.6536C88.9951 16.6403 91.7149 18.5962 94.8549 18.5962C96.8174 18.5962 98.0776 17.8294 98.714 16.7737L98.9024 18.3653H101.437V6.9448ZM55.3641 16.1527C53.4346 16.1527 51.9896 14.8646 51.9896 12.6543C51.9896 10.4432 53.4331 9.15368 55.3641 9.15368C57.2959 9.15368 58.7401 10.441 58.7401 12.6536C58.7401 14.8632 57.2974 16.1505 55.3641 16.1505V16.1527ZM116.933 6.94407V18.3616H119.754V6.9448H116.932V6.94407H116.933ZM61.5597 6.94407H59.0246L58.8384 8.53493C58.2006 7.47998 56.9411 6.71021 54.9771 6.71021C51.8364 6.71021 49.1173 8.66616 49.1173 12.6528C49.1173 16.6395 51.8371 18.5955 54.9771 18.5955C56.9411 18.5955 58.1998 17.8286 58.8406 16.7729L59.0246 18.3645H61.5568V6.9448H61.5597V6.94407ZM35.334 3.66264L32.5115 3.96322V6.94334H30.3972V9.37141H32.5115V14.4761C32.5115 17.2216 34.0906 18.4958 36.4571 18.4958C37.4659 18.4958 38.3221 18.2604 38.9255 17.9239L38.1704 15.6469C37.7672 15.8316 37.2643 15.968 36.7921 15.968C35.853 15.968 35.3318 15.4306 35.3318 14.3441V9.37288H38.4886V6.9448H35.3318L35.3332 3.66338L35.334 3.66264ZM120.023 4.23154C120.023 3.14287 119.184 2.58936 118.342 2.58936C117.52 2.58936 116.681 3.1392 116.681 4.23081C116.681 5.33561 117.52 5.87079 118.342 5.87079C119.181 5.87079 120.023 5.33488 120.023 4.23008V4.23154ZM40.4878 18.3616H43.3066V12.2511C43.3066 10.0407 44.5162 9.27024 45.9605 9.27024C46.7984 9.27024 47.4208 9.5195 47.9912 10.0056L49.269 7.76223C48.4963 7.05844 47.47 6.71021 46.4649 6.71021C45.1203 6.71021 43.8117 7.32602 43.1394 8.53273L42.954 6.94407H40.487V18.3638V18.3609L40.4878 18.3616Z" fill="#00D66C"/>
</svg>
