<svg width="97" height="24" viewBox="0 0 97 24" fill="none" xmlns="http://www.w3.org/2000/svg">
<path d="M8.5716 11.999C9.84717 10.2065 11.3277 10.5631 13.0728 10.7645C12.6097 10.2698 12.3818 9.64564 12.3818 8.97549C12.3818 7.43173 13.6624 6.17989 15.2428 6.17989C18.5432 6.17989 18.1355 9.91598 16.7039 9.91598C16.3825 9.91598 16.1244 9.69023 16.0546 9.42275C15.9971 9.20199 16.0524 8.94243 15.9762 8.73319C15.8691 8.44127 15.5729 8.22699 15.2414 8.22699C15.0278 8.22699 14.8358 8.31115 14.6949 8.447C14.2506 8.87553 14.5281 9.73336 14.8179 10.172C15.2213 10.7803 15.9295 11.1729 16.742 11.165L16.8743 11.1609C19.1371 10.9063 19.803 8.98007 19.2285 7.23208C18.979 6.47279 18.1082 5.35539 17.1274 4.88731C18.9337 3.84183 19.488 1.43089 19.424 0L0 11.9993L19.424 24C19.488 22.5684 18.9337 20.1575 17.1274 19.1127C18.1082 18.6439 18.979 17.5265 19.2285 16.7672C19.803 15.0192 19.1371 13.0929 16.8743 12.8377L16.742 12.8336C15.9295 12.8255 15.2213 13.2183 14.8179 13.8266C14.5281 14.2652 14.2506 15.123 14.6949 15.5516C14.8359 15.6875 15.0278 15.7716 15.2414 15.7716C15.5729 15.7716 15.8691 15.5581 15.9762 15.2654C16.0525 15.0562 15.9971 14.7973 16.0546 14.5758C16.1244 14.3084 16.3825 14.0826 16.7039 14.0826C18.1355 14.0826 18.5432 17.8187 15.2428 17.8187C13.6624 17.8187 12.3818 16.5669 12.3818 15.0231C12.3818 14.3529 12.6097 13.7288 13.0728 13.2341C11.3277 13.4361 9.84717 13.793 8.5716 11.999Z" fill="white"/>
<path d="M32.3742 18.0543V11.9267C32.3742 11.8504 32.3722 11.7757 32.3701 11.7023V11.6983L32.3661 11.62V11.6098L32.3646 11.5955V11.5894C32.2272 9.44094 30.7583 8.70321 28.9276 8.70321C27.491 8.70321 26.3477 9.16698 25.7682 9.73429V10.8768C26.5498 10.4555 27.6693 10.0543 28.5458 10.0543C29.6352 10.0543 30.3973 10.3821 30.3995 11.5894L30.4002 11.5996V11.704L30.4043 12.2965C27.5627 12.5733 25.1848 13.0888 25.1848 15.5494C25.1848 17.3513 26.4489 18.5988 28.9964 18.5988C29.87 18.5988 31.6569 18.4406 32.3752 18.0559M30.4043 17.1571C29.842 17.388 28.8418 17.4102 28.3069 17.2507C27.997 17.158 27.7424 17.0156 27.5555 16.8042C27.3096 16.5259 27.1772 16.1348 27.1772 15.6185C27.1772 13.9208 28.5585 13.5441 30.4043 13.5441V17.1571Z" fill="white"/>
<path d="M69.3769 18.4103V16.9126C69.2071 16.9629 69.0721 16.9973 68.8851 16.9973C68.1726 16.9973 67.8842 16.5221 67.8842 15.8095V10.0522H69.3769V8.74064H67.8842V6.42393L65.8141 7.71675L65.8148 8.74064H64.7176V10.0522H65.8148V16.1194C65.8148 17.3914 66.5274 18.5972 68.325 18.5972C68.8175 18.5972 69.19 18.4951 69.3769 18.4103Z" fill="white"/>
<path d="M63.568 15.6877C63.568 14.571 63.1359 13.6125 61.247 12.8676C60.4014 12.5311 59.8074 12.1407 59.8074 11.3605C59.8074 10.6861 60.2935 10.1008 61.193 10.1008C61.8768 10.1008 62.6577 10.5459 63.0122 10.9219V9.75491C61.7934 7.91347 57.6849 8.46279 57.6849 11.4669C57.6849 12.4599 58.0623 13.4529 59.898 14.1446C60.8874 14.5171 61.4476 14.8888 61.4476 15.7042C61.4476 17.4536 58.6476 17.2422 57.6755 16.5182L57.6857 18.0468C58.2581 18.3373 58.9814 18.5969 60.1146 18.5969C62.2372 18.5969 63.5689 17.2487 63.5689 15.6877" fill="white"/>
<path d="M87.4137 18.3376L87.4122 11.5844C87.4122 10.0636 86.4868 8.70104 83.6732 8.70104C82.0828 8.70104 80.8769 8.96277 79.9861 9.38271L79.9868 18.3376H82.1187L82.118 10.3081C82.5199 10.1514 82.8866 10.0464 83.5855 10.0464C84.9315 10.0464 85.281 10.8502 85.281 11.6189L85.2818 18.3376H87.4137Z" fill="white"/>
<path d="M43.6379 8.715C41.2528 8.63306 39.9959 8.9135 39.0181 9.38512V18.3378H41.1478V10.3458C41.6361 10.0661 42.8174 9.90571 43.6372 10.2386L43.6379 8.715Z" fill="white"/>
<path d="M36.7326 8.74633H34.6612V18.3376H36.7326V8.74633Z" fill="white"/>
<path d="M55.9708 18.0543V11.9267C55.9708 11.8505 55.9687 11.7757 55.9667 11.7023V11.6983L55.9626 11.62V11.6098L55.9612 11.5955V11.5894C55.8238 9.44094 54.3549 8.70321 52.5242 8.70321C51.0876 8.70321 49.9443 9.16701 49.3641 9.73433V10.8768C50.1464 10.4555 51.2659 10.0543 52.1424 10.0543C53.2317 10.0543 53.9939 10.3821 53.9961 11.5894V11.704L54.0002 12.2965C51.1585 12.5733 48.7807 13.0889 48.7807 15.5494C48.7807 17.3513 50.0447 18.5988 52.5916 18.5988C53.4659 18.5988 55.2527 18.4407 55.971 18.056M54.0002 17.1571C53.4371 17.388 52.4377 17.4102 51.9027 17.2507C51.5928 17.158 51.3376 17.0156 51.1513 16.8042C50.9047 16.5259 50.7731 16.1348 50.7731 15.6185C50.7731 13.9208 52.1537 13.5441 54.0002 13.5441V17.1571Z" fill="white"/>
<path d="M77.6984 18.0543V11.9267C77.6984 11.8505 77.697 11.7757 77.6943 11.7023L77.6936 11.6983L77.6895 11.62V11.6098L77.6888 11.5955L77.6881 11.5894C77.5515 9.44094 76.0818 8.70321 74.2511 8.70321C72.8152 8.70321 71.6719 9.16701 71.0917 9.73433V10.8768C71.874 10.4555 72.9928 10.0543 73.87 10.0543C74.9594 10.0543 75.7215 10.3821 75.7237 11.5894V11.704L75.7278 12.2965C72.8862 12.5733 70.5083 13.0889 70.5083 15.5494C70.5083 17.3513 71.7731 18.5988 74.3199 18.5988C75.1943 18.5988 76.9811 18.4407 77.6987 18.056M75.7278 17.1571C75.1655 17.388 74.166 17.4102 73.6303 17.2507C73.3212 17.158 73.0659 17.0156 72.879 16.8042C72.633 16.5259 72.5007 16.1348 72.5007 15.6185C72.5007 13.9208 73.882 13.5441 75.7278 13.5441V17.1571Z" fill="white"/>
<path d="M96.3056 18.0543V11.9267C96.3056 11.8505 96.3036 11.7757 96.3016 11.7023L96.3009 11.6983L96.2968 11.62V11.6098L96.2953 11.5955V11.5894C96.158 9.44094 94.689 8.70321 92.8584 8.70321C91.4217 8.70321 90.2785 9.16701 89.6989 9.73433V10.8768C90.4812 10.4555 91.6001 10.0543 92.4766 10.0543C93.5659 10.0543 94.3281 10.3821 94.3309 11.5894V11.704L94.335 12.2965C91.4934 12.5733 89.1155 13.0889 89.1155 15.5494C89.1155 17.3513 90.3796 18.5988 92.9271 18.5988C93.8008 18.5988 95.5876 18.4407 96.3059 18.056M94.335 17.1571C93.7727 17.388 92.7733 17.4102 92.2376 17.2507C91.9284 17.158 91.6731 17.0156 91.4862 16.8042C91.2403 16.5259 91.108 16.1348 91.108 15.6185C91.108 13.9208 92.4885 13.5441 94.335 13.5441V17.1571Z" fill="white"/>
<path d="M36.8008 6.4384C36.8008 5.86101 36.3233 5.40225 35.6963 5.40225C35.0873 5.40225 34.5926 5.86101 34.5926 6.4384C34.5926 6.99852 35.0873 7.45654 35.6963 7.45654C36.3233 7.45654 36.8008 6.99852 36.8008 6.4384Z" fill="white"/>
</svg>
