<svg width="46" height="32" viewBox="0 0 46 32" fill="none" xmlns="http://www.w3.org/2000/svg"><path fill-rule="evenodd" clip-rule="evenodd" d="M.84.056C.33.08 0 .313 0 .816v22.43c0 .39.28.742.71.742h40.04c.358 0 .647-.033.816-.507 0 0 4.058-12.699 4.128-12.927.15-.482.055-.723-.356-.985C32.296 1.215 12.798 0 3.943 0 2.67 0 1.623.023.839.056zm7.8 14.107c-1.2-.57-1.964-.932-1.75-1.566.285-.845 1.765-1.165 3.104-1.135a7.915 7.915 0 0 1 1.708.23l.485-1.53a11.45 11.45 0 0 0-2.03-.214c-2.686-.063-5.115.678-5.735 2.247-.741 1.858 1.355 2.906 3.17 3.767 1.446.684 2.585 1.333 2.186 2.188-.314.66-1.334.973-2.82.939-1.285-.03-2.89-.4-4.154-1.036l-.751 1.629c.93.43 2.844 1.017 4.48 1.057 3.072.067 5.062-.702 5.857-2.379.925-1.941-1.312-3.02-3.171-3.916l-.103-.05.003-.001-.48-.23zm4.73 3.07c-.041 0-.067-.011-.083-.048h-.002c-.224-.659-.496-1.125-1.358-1.76l1.714-5.335h2.291c1.87 2.319 3.4 5.165 4.143 7.327l2.336-7.327h2.137l-.732 2.29c-.01.037.019.046.064.046h.003c.028 0 .077 0 .119-.047 1.457-1.569 3.706-2.46 6.293-2.46.835 0 1.686.049 2.388.155l-.575 1.69a14.49 14.49 0 0 0-1.813-.11c-2.918 0-5.1 1.412-5.429 3.651-.137.94.084 1.783.643 2.436.745.87 2.058 1.258 3.7 1.258.762 0 1.49-.07 2.081-.22l2.78-8.691h8.19l-.506 1.613h-5.833l-.844 2.633h4.893l-.496 1.555H34.58L33.307 19.9c-.488.262-2.45.833-4.628.833-3.36 0-5.733-1.605-6.104-3.99-.003-.034-.036-.047-.075-.047s-.067.01-.08.047l-1.215 3.801h-2.46c-.8-3-2.298-5.84-3.806-7.996l-1.496 4.637c-.013.036-.033.048-.073.048z" fill="#fff"/><path d="M0 27.81h1.028l1.009 2.677h.01l1.029-2.678h.964l-1.685 4.086h-.72L.002 27.81H0zM4.97 29.852c0-.327.054-.624.163-.889a1.949 1.949 0 0 1 1.157-1.109c.27-.1.563-.15.883-.15.32 0 .613.05.883.15a1.949 1.949 0 0 1 1.157 1.109c.11.265.164.562.164.89 0 .327-.055.623-.164.888a1.948 1.948 0 0 1-1.157 1.11c-.27.1-.563.149-.883.149-.32 0-.613-.05-.883-.15a1.948 1.948 0 0 1-1.157-1.109 2.315 2.315 0 0 1-.164-.889zm.933 0c0 .192.03.368.09.527a1.194 1.194 0 0 0 .657.69c.156.065.33.098.523.098s.367-.033.522-.098c.156-.066.29-.156.401-.275.113-.117.197-.255.258-.415.059-.159.089-.335.089-.527s-.03-.363-.09-.525a1.179 1.179 0 0 0-.658-.693 1.339 1.339 0 0 0-.522-.098c-.192 0-.367.033-.523.098a1.169 1.169 0 0 0-.658.693c-.059.162-.089.337-.089.525zM11.6 30.152l-1.535-2.343h1.12l.865 1.53.917-1.53h1.067l-1.535 2.343v1.742h-.9v-1.742zM16.09 27.81h.744l1.778 4.085h-1.016l-.352-.865h-1.588l-.34.865h-.992l1.766-4.086zm.346 1.188l-.496 1.27h.998l-.502-1.27zM23.44 31.607a3.216 3.216 0 0 1-.83.3c-.29.06-.584.091-.884.091-.32 0-.613-.05-.882-.15-.27-.1-.503-.243-.7-.43a1.948 1.948 0 0 1-.458-.678 2.315 2.315 0 0 1-.163-.89c0-.327.054-.623.163-.888a1.948 1.948 0 0 1 1.158-1.11c.27-.099.563-.149.882-.149.32 0 .629.04.903.119.275.08.517.215.724.407l-.635.692a1.287 1.287 0 0 0-.415-.288 1.48 1.48 0 0 0-.577-.099c-.191 0-.366.033-.522.099a1.172 1.172 0 0 0-.658.692c-.06.162-.09.337-.09.526s.03.368.09.527a1.194 1.194 0 0 0 .658.69c.156.065.329.098.522.098.194 0 .365-.022.509-.067.142-.044.256-.09.34-.136V30.3h-.733v-.831h1.599v2.138zM25.103 27.81h2.776v.83h-1.876v.762h1.772v.83h-1.772v.832h1.98v.831h-2.88V27.81zM32.87 30.32c0 .242-.036.465-.109.67-.073.204-.182.38-.326.53a1.51 1.51 0 0 1-.54.352 2.033 2.033 0 0 1-.744.126c-.28 0-.535-.042-.75-.126a1.481 1.481 0 0 1-.54-.352 1.482 1.482 0 0 1-.325-.53 1.961 1.961 0 0 1-.11-.67v-2.51h.9v2.474c0 .127.02.245.061.353.04.107.097.201.17.279.074.08.16.14.262.184a.833.833 0 0 0 .332.067.786.786 0 0 0 .59-.251.829.829 0 0 0 .17-.28.99.99 0 0 0 .06-.352V27.81h.9v2.511zM34.422 27.81h1.582c.207 0 .405.02.59.06.188.04.35.108.49.201.14.094.253.222.336.38.082.16.123.36.123.598 0 .289-.075.534-.224.736-.15.201-.37.33-.659.384l1.04 1.725h-1.08l-.855-1.633h-.444v1.633h-.9v-4.086l.001.001zm.9 1.69h.53c.082 0 .167-.003.258-.008a.843.843 0 0 0 .245-.051.427.427 0 0 0 .182-.136.411.411 0 0 0 .072-.26.43.43 0 0 0-.064-.249.43.43 0 0 0-.162-.142.742.742 0 0 0-.225-.067 1.934 1.934 0 0 0-.248-.017h-.588v.93zM40.904 28.807a.635.635 0 0 0-.298-.204 1.08 1.08 0 0 0-.355-.067.906.906 0 0 0-.398.095.433.433 0 0 0-.15.13.326.326 0 0 0-.058.196c0 .123.047.217.14.282.091.066.208.122.349.167.14.046.291.092.452.14.162.046.312.11.452.196.14.085.258.198.35.34.092.142.139.332.139.57 0 .24-.043.426-.127.595-.084.168-.2.31-.343.42a1.43 1.43 0 0 1-.502.249 2.24 2.24 0 0 1-.604.08c-.265 0-.511-.04-.74-.12a1.852 1.852 0 0 1-.634-.394l.641-.703a.998.998 0 0 0 1.006.36.724.724 0 0 0 .201-.078.42.42 0 0 0 .144-.133.337.337 0 0 0 .054-.19.345.345 0 0 0-.142-.291 1.302 1.302 0 0 0-.355-.183c-.142-.05-.296-.1-.462-.15a2.073 2.073 0 0 1-.461-.2 1.122 1.122 0 0 1-.356-.336c-.094-.139-.142-.322-.142-.548 0-.226.044-.411.13-.577.085-.165.2-.304.346-.415.145-.11.31-.195.499-.25a2.03 2.03 0 0 1 .583-.085c.231 0 .454.033.67.098.215.066.41.175.583.33l-.618.675.006.001z" fill="#fff"/></svg>