<svg xmlns="http://www.w3.org/2000/svg" width="67" height="25" viewBox="0 0 67 25"><path d="M0 .5v24h24V.5zm24 17l5-5-5-5zm16.354 1.768a6.386 6.386 0 0 1-2.856-.658c-.294-.112-.476-.35-.476-.672a.714.714 0 0 1 1.022-.63 4.52 4.52 0 0 0 2.268.588c1.512 0 2.338-.784 2.338-2.268v-.574c-.616.798-1.386 1.358-2.604 1.358-1.736 0-3.36-1.288-3.36-3.458v-.028c0-2.184 1.638-3.472 3.36-3.472 1.246 0 2.016.574 2.59 1.26v-.35c0-.462.378-.84.84-.84.476 0 .854.378.854.854v5.11c0 1.246-.322 2.17-.938 2.786-.672.672-1.708.994-3.038.994zm.14-4.298c1.176 0 2.17-.826 2.17-2.03v-.028c0-1.204-.994-2.03-2.17-2.03s-2.1.812-2.1 2.03v.028c0 1.204.938 2.03 2.1 2.03zm9.478 2.198c-2.254 0-3.92-1.722-3.92-3.822v-.028c0-2.114 1.68-3.864 3.948-3.864s3.934 1.722 3.934 3.836v.028c0 2.1-1.68 3.85-3.962 3.85zM50 15.684c1.372 0 2.24-1.064 2.24-2.338v-.028c0-1.302-.938-2.38-2.268-2.38-1.358 0-2.226 1.064-2.226 2.352v.028c0 1.288.938 2.366 2.254 2.366zm5.754.546V7.55c0-.462.364-.84.84-.84s.854.378.854.84v8.68c0 .476-.378.84-.854.84a.834.834 0 0 1-.84-.84zm11.172-8.68v8.68c0 .476-.378.84-.84.84a.837.837 0 0 1-.854-.84v-.462c-.546.77-1.316 1.386-2.52 1.386-1.736 0-3.43-1.386-3.43-3.836v-.028c0-2.45 1.666-3.836 3.43-3.836 1.218 0 1.988.602 2.52 1.302V7.55c0-.476.378-.84.84-.84.476 0 .854.364.854.84zm-3.808 3.374c-1.162 0-2.128.896-2.128 2.366v.028c0 1.428.98 2.366 2.128 2.366 1.134 0 2.142-.952 2.142-2.366v-.028c0-1.428-1.008-2.366-2.142-2.366z" fill="#B0965B" fill-rule="evenodd"/></svg>