<svg xmlns="http://www.w3.org/2000/svg" width="111" height="167" viewBox="0 0 111 167"><g fill="none" fill-rule="evenodd"><path fill="#3B4757" d="M110.882.511H.672v110.21H42.04l13.736 13.739 13.74-13.738h41.366z"/><path fill="#FFF" fill-rule="nonzero" d="M40.45 36.436v3.163H28.145V22.25h3.426v14.187h8.879zm-24.704-3.713v6.876H12.32V22.25h13.03v3.164h-9.604v4.146h8.515v3.164h-8.515zm16.278 29.913c0 4.272-3.41 6.91-8.903 6.91h-10.8v-24.58h10.383c2.722 0 4.935.773 6.408 2.229a5.768 5.768 0 0 1 1.618 4.11v.069a5.99 5.99 0 0 1-3.014 5.396c2.86 1.149 4.308 3.094 4.308 5.796v.07zm36.22-34.61V39.6h-3.382V22.25h3.095l8.705 11.234V22.25h3.378V39.6h-2.828l-8.968-11.574zM44.912 39.6v-6.82L38.01 22.25h4.053l4.6 7.282 4.651-7.281h3.956l-6.905 10.456V39.6h-3.454zm12.475-17.35h3.426V39.6h-3.426V22.25zM36.34 44.972h3.536v21.2h13.11v3.374H36.34V44.971zm39.873 14.013c0 6.848-3.802 10.933-10.17 10.933-6.253 0-10.137-4.11-10.137-10.731V44.97h3.536v14.045c0 4.785 2.431 7.528 6.666 7.528 4.236 0 6.57-2.613 6.57-7.358V44.97h3.535v14.013zm15.574-29.291h7.641v7.443l-.08.069a10.97 10.97 0 0 1-7.193 2.65c-5.291 0-8.988-3.642-8.988-8.9v-.049a8.855 8.855 0 0 1 8.964-8.948c2.746 0 4.672.68 6.638 2.347l.174.15-2.173 2.604-.178-.15a6.359 6.359 0 0 0-4.579-1.755c-2.904 0-5.258 2.569-5.258 5.728v.049c0 3.414 2.273 5.8 5.51 5.8a6.751 6.751 0 0 0 3.846-1.165v-2.831h-4.324v-3.042zm-6.723 29.133v7.378h14.372v3.341H81.528V44.971H99.27v3.341H85.064v7.172h12.71v3.342h-12.71zM12.268 75.9h2.868l3.18 5.113 3.179-5.113h2.864v12.087h-2.646v-7.892l-3.402 5.162h-.069l-3.37-5.113v7.839h-2.604V75.9zm17.398 0h9.117v2.367h-6.472v2.451h5.696v2.37h-5.7v2.54h6.565v2.367h-9.206V75.9zm13.98 0h2.868l3.18 5.113 3.179-5.113h2.864v12.087h-2.642v-7.892l-3.402 5.162h-.069l-3.37-5.113v7.839h-2.608V75.9zm17.398 0h5.614c1.38 0 2.472.38 3.16 1.072.55.54.85 1.285.829 2.055v.016a2.832 2.832 0 0 1-1.59 2.61c1.4.533 2.261 1.346 2.261 2.969v.036c0 2.209-1.796 3.317-4.522 3.317h-5.752V75.9zm14.878 0h9.118v2.367h-6.473v2.451h5.7v2.37h-5.7v2.54h6.561v2.367h-9.206V75.9zm13.984 0h5.525c1.538 0 2.73.433 3.524 1.214a3.794 3.794 0 0 1 1.035 2.763v.036a3.754 3.754 0 0 1-2.589 3.746l2.953 4.316h-3.11l-2.59-3.867h-2.087v3.867h-2.661V75.9zm5.352 5.874c1.294 0 2.022-.692 2.022-1.711v-.037c0-1.14-.809-1.727-2.087-1.727H92.55v3.47l2.707.005zM15.819 48.276v7.245h6.436c3.07 0 4.903-1.412 4.903-3.774v-.069c0-2.164-1.715-3.402-4.705-3.402H15.82zm0 10.517v7.44h7.379c3.288 0 5.258-1.412 5.258-3.775v-.06c0-2.978-3.119-3.605-5.736-3.605h-6.9zm50.27 21.994c1.172 0 1.916-.38 1.916-1.279v-.036c0-.809-.618-1.246-1.743-1.246h-2.625v2.557l2.451.004zm.707 4.854c1.173 0 1.88-.405 1.88-1.315v-.024c0-.809-.602-1.31-1.969-1.31h-3.074v2.657l3.163-.008z"/><path fill="#394655" fill-rule="nonzero" d="M17.293 145.981c-1.827 0-3 1.018-3.81 2.213v-1.347a.743.743 0 1 0-1.48 0v11.715a.739.739 0 0 0 .75.75.722.722 0 0 0 .73-.75v-4.33a4.486 4.486 0 0 0 3.81 2.113c2.405 0 4.753-1.925 4.753-5.176v-.024c-.004-3.284-2.369-5.164-4.753-5.164zm3.23 5.213c0 2.405-1.576 3.83-3.501 3.83a3.694 3.694 0 0 1-3.596-3.846v-.033a3.694 3.694 0 0 1 3.596-3.83c1.884 0 3.501 1.503 3.501 3.846v.033zM25.157 142a.75.75 0 0 1 .73.76v12.723a.722.722 0 0 1-.73.751.739.739 0 0 1-.73-.759v-12.724a.747.747 0 0 1 .73-.751zm7.462 4.06c1.404 0 2.528.418 3.201 1.091s1.018 1.638 1.018 2.906v5.447a.702.702 0 0 1-.71.73.681.681 0 0 1-.71-.693v-.903a4.359 4.359 0 0 1-3.612 1.724c-1.826 0-3.694-1.043-3.694-3.095v-.037c0-2.098 1.732-3.214 4.252-3.214a10.544 10.544 0 0 1 3.058.41v-.344c0-1.79-1.096-2.713-2.963-2.713a6.21 6.21 0 0 0-2.578.558.657.657 0 0 1-.924-.579.677.677 0 0 1 .411-.616 7.831 7.831 0 0 1 3.25-.673zm2.828 6.423v-.969a10.372 10.372 0 0 0-2.923-.41c-1.867 0-2.906.82-2.906 2.052v.037c0 1.252 1.154 1.982 2.5 1.982 1.83 0 3.329-1.116 3.329-2.692zm8.558-4.983h-2.607v5.82c0 1.199.673 1.642 1.675 1.642.305-.012.608-.058.903-.136a.64.64 0 0 1 .636.637.62.62 0 0 1-.41.574 3.74 3.74 0 0 1-1.462.271c-1.576 0-2.807-.788-2.807-2.807V147.5h-.82a.673.673 0 0 1-.653-.653.66.66 0 0 1 .652-.652h.821v-2.348a.735.735 0 0 1 .743-.751.763.763 0 0 1 .751.751v2.348h2.578c.363.002.66.29.673.652a.665.665 0 0 1-.673.653zm3.579-1.404a.739.739 0 0 1 .75.751v8.62a.722.722 0 0 1-.73.75.739.739 0 0 1-.75-.75v-8.62a.747.747 0 0 1 .73-.75zm0-3.809a.82.82 0 0 1 .882.809v.25a.878.878 0 0 1-1.748 0v-.27a.82.82 0 0 1 .866-.789zm8.595 3.694c2.405 0 3.809 1.613 3.809 3.982v5.52a.74.74 0 1 1-1.482 0v-5.155c0-1.847-1.039-3-2.75-3-1.712 0-2.98 1.247-2.98 3.115v5.024a.722.722 0 0 1-.73.75.739.739 0 0 1-.752-.75v-8.62a.747.747 0 0 1 .73-.75.739.739 0 0 1 .752.75v1.076a3.768 3.768 0 0 1 3.403-1.942zm14.27.115a.735.735 0 0 1 .731.78v8.62a.73.73 0 1 1-1.46 0v-1.08a3.788 3.788 0 0 1-3.403 1.941c-2.406 0-3.81-1.617-3.81-3.98v-5.53a.722.722 0 0 1 .731-.75.75.75 0 0 1 .751.75v5.156c0 1.847 1.06 3 2.75 3 1.691 0 2.98-1.248 2.98-3.115v-5.04a.722.722 0 0 1 .73-.752zm14.966-.115c2.286 0 3.69 1.54 3.694 4.002v5.5a.74.74 0 0 1-1.482 0v-5.155c0-1.92-.96-3-2.578-3-1.502 0-2.733 1.116-2.733 3.078v5.077a.74.74 0 1 1-1.482 0v-5.192c0-1.867-.977-2.963-2.557-2.963s-2.77 1.309-2.77 3.135v5.004a.722.722 0 0 1-.731.75.739.739 0 0 1-.751-.75v-8.62a.747.747 0 0 1 .73-.75.739.739 0 0 1 .752.75v1.018c.656-.98 1.539-1.884 3.213-1.884a3.378 3.378 0 0 1 3.194 1.983 3.965 3.965 0 0 1 3.5-1.983zm-15.577 12.65c-.53 0-.808.312-.788.965v.349h1.084a.587.587 0 0 1 .587.603.595.595 0 0 1-.587.603H69.07v4.446a.698.698 0 1 1-1.396 0v-4.446h-.242a.595.595 0 0 1-.587-.603.603.603 0 0 1 .587-.616h.218v-.472a2.208 2.208 0 0 1 .496-1.567c.366-.356.866-.54 1.375-.505.237-.002.473.019.706.061.288.055.494.31.485.604a.587.587 0 0 1-.587.603 2.13 2.13 0 0 0-.288-.025zm4.363 1.133a3.226 3.226 0 0 1 3.26 3.284v.033a3.255 3.255 0 0 1-3.284 3.316 3.222 3.222 0 0 1-3.23-3.284v-.024a3.255 3.255 0 0 1 3.254-3.325zm1.847 3.35l-.004-.038a1.93 1.93 0 0 0-1.867-2.052c-1.12 0-1.835.916-1.835 2.024v.024a1.925 1.925 0 0 0 1.86 2.053c1.132 0 1.846-.916 1.846-2.012zm5.455-3.3a.665.665 0 0 1 .69.742.677.677 0 0 1-.554.698c-.99.16-1.67.956-1.67 2.463v1.88a.714.714 0 0 1-.707.722.702.702 0 0 1-.694-.722v-5.037a.706.706 0 0 1 .694-.734.714.714 0 0 1 .706.734v.653c.304-.796.924-1.4 1.535-1.4zm3.965-2.41a.714.714 0 0 1 .702.718v7.479a.698.698 0 1 1-1.396 0v-7.475a.702.702 0 0 1 .694-.722zm3.009 2.422a.714.714 0 0 1 .702.734v5.037a.698.698 0 1 1-1.396 0v-5.037a.706.706 0 0 1 .694-.734zm0-2.352a.726.726 0 0 1 .796.71v.074a.8.8 0 0 1-1.593 0v-.074a.726.726 0 0 1 .797-.71zm4.732 1.157c-.533 0-.808.312-.813.965v.349h1.084a.587.587 0 0 1 .587.603.595.595 0 0 1-.587.603h-1.063v4.446a.698.698 0 1 1-1.396 0v-4.446h-.242a.595.595 0 0 1-.587-.603.603.603 0 0 1 .587-.616h.242v-.472a2.208 2.208 0 0 1 .497-1.567c.366-.356.866-.54 1.375-.505.237-.002.473.019.706.061.288.055.494.31.484.604a.587.587 0 0 1-.587.603 2.13 2.13 0 0 0-.287-.025zm6.982 4.269a.669.669 0 0 1-.653.681h-3.821c.059.92.83 1.633 1.753 1.618a2.134 2.134 0 0 0 1.44-.555.505.505 0 0 1 .357-.13.562.562 0 0 1 .554.59.649.649 0 0 1-.184.443 3.054 3.054 0 0 1-2.192.846c-1.765 0-3.128-1.318-3.128-3.284v-.024c0-1.823 1.236-3.317 2.976-3.317 1.942 0 2.898 1.663 2.898 3.132zm-4.49-.263h3.127c-.094-.94-.624-1.674-1.547-1.674-.854 0-1.453.685-1.58 1.674z"/></g></svg>