<svg xmlns="http://www.w3.org/2000/svg" width="100" height="32" fill="none"><path fill="red" d="m91.946 23.884-1.596 2.308c-.21.305-.552.597-.963.629v.07h1.775c.471 0 .815-.306 1.048-.644l1.639-2.363h-1.903Z"/><path fill="#051039" d="M62.553 26.891v-2.753h.804v2.753h-.804Zm18.532 0-1.93-1.635v1.635h-.68v-2.753h.577l1.905 1.61v-1.61h.68v2.753h-.552Zm4.2-1.865a2.85 2.85 0 0 0-1.315-.323c-.647 0-1.13.335-1.13.8s.492.815 1.125.815c.522 0 .937-.133 1.346-.369v.682c-.362.18-.841.312-1.38.312-1.102 0-1.968-.562-1.968-1.44 0-.877.883-1.416 1.964-1.416.51 0 .974.096 1.357.253v.687Zm-17.456 1.865v-2.753h2.686v.59h-1.883v.684h1.84v.59h-1.84v.889h-.803Zm17.941 0v-2.753h2.788v.59h-1.984v.477h1.953v.59h-1.953v.505h1.976v.591h-2.78Zm-12.464-1.033 1.11 1.033h-.858a.554.554 0 0 1-.414-.155l-.755-.733c-.015-.014-.037-.022-.066-.022h-.514v.91h-.803v-2.753h1.74c.903 0 1.284.406 1.284.855 0 .522-.466.772-.725.866Zm-.642-.454c.318 0 .471-.162.471-.343 0-.182-.136-.333-.471-.333h-.855v.676h.855Zm-6.255.454 1.11 1.033h-.857a.553.553 0 0 1-.415-.155l-.755-.733c-.014-.014-.037-.022-.065-.022h-.514v.91h-.804v-2.753h1.741c.903 0 1.283.406 1.283.855 0 .522-.466.772-.724.866Zm-.642-.454c.318 0 .472-.162.472-.343 0-.182-.137-.333-.472-.333h-.854v.676h.854Zm-4.471 1.487-.353-.604h-1.539l-.32.604h-.767l1.533-2.75h.698l1.738 2.75h-.99Zm-1.585-1.178h.897l-.466-.84-.431.84Zm17.63 1.178-.344-.604h-1.5l-.309.604h-.747l1.494-2.75h.678l1.69 2.75h-.963Zm-1.543-1.178h.875l-.454-.84-.42.84Z"/><path fill="#0800B9" d="M25.636 9.607v5.046a3.321 3.321 0 0 1-3.318 3.318A3.322 3.322 0 0 1 19 14.653V9.607h-1.994v5.046a5.318 5.318 0 0 0 5.311 5.312c.583 0 1.141-.099 1.666-.273a3.119 3.119 0 0 0 1.652-1.356v.784c0 1.799-1.692 3.318-3.695 3.318-1.136 0-2.12-.459-3.187-1.488l-.066-.064-1.178 1.578.082.09c1.065 1.168 2.64 1.634 2.656 1.64a6.099 6.099 0 0 0 1.693.238c3.137 0 5.689-2.383 5.689-5.312V9.606h-1.994v.001ZM30.971 5.578c-.745 0-1.35.607-1.35 1.351 0 .745.605 1.351 1.35 1.351.745 0 1.35-.606 1.35-1.35 0-.745-.605-1.352-1.35-1.352ZM51.429 9.342a5.318 5.318 0 0 0-5.312 5.312 5.317 5.317 0 0 0 5.311 5.311c.583 0 1.141-.098 1.666-.273a3.118 3.118 0 0 0 1.652-1.356v.785c0 1.798-1.692 3.317-3.695 3.317-1.137 0-2.12-.458-3.187-1.487l-.066-.065-1.178 1.578.082.091c1.065 1.167 2.64 1.634 2.656 1.639a6.103 6.103 0 0 0 1.693.238c3.137 0 5.689-2.383 5.689-5.312v-4.467a5.318 5.318 0 0 0-5.312-5.312Zm0 8.63a3.322 3.322 0 0 1-3.318-3.318 3.322 3.322 0 0 1 3.318-3.318 3.322 3.322 0 0 1 3.317 3.318 3.321 3.321 0 0 1-3.317 3.317ZM63.722 19.965a5.318 5.318 0 0 0 5.312-5.312 5.317 5.317 0 0 0-5.312-5.312c-.582 0-1.14.099-1.665.273a3.12 3.12 0 0 0-1.653 1.356V5.32H58.41v9.333a5.318 5.318 0 0 0 5.313 5.312h-.001Zm0-8.63a3.322 3.322 0 0 1 3.318 3.318 3.322 3.322 0 0 1-3.318 3.318 3.322 3.322 0 0 1-3.318-3.318 3.321 3.321 0 0 1 3.318-3.318ZM85.246 9.604H83.24v5.043a3.315 3.315 0 0 1-3.312 3.311 3.315 3.315 0 0 1-3.31-3.311V9.604H74.61l.001 5.158.002.027a5.286 5.286 0 0 0 1.606 3.663 5.285 5.285 0 0 0 3.71 1.513 5.324 5.324 0 0 0 5.318-5.318V9.604ZM94.459 16.802a3.335 3.335 0 0 1-2.564 1.2 3.351 3.351 0 0 1-3.227-2.454h8.461c.05-.291.081-.59.081-.895a5.312 5.312 0 1 0-5.311 5.312 5.31 5.31 0 0 0 4.855-3.163h-2.295Zm-2.564-5.505a3.354 3.354 0 0 1 3.207 2.376h-6.414a3.353 3.353 0 0 1 3.207-2.376ZM4.45 19.772v-5.084h5.697v-2.002H4.45v-2.313A3.318 3.318 0 0 1 7.763 7.06c1.286 0 2.081.592 2.88 1.482l.07.077 1.185-1.588-.079-.093c-.993-1.17-2.461-1.637-2.476-1.642a5.323 5.323 0 0 0-6.896 5.072v9.405H4.45ZM14.898 5.32h-2.006v14.452h2.006V5.321ZM31.974 9.608h-2.006v10.164h2.006V9.608ZM36.144 19.772V14.66a3.315 3.315 0 0 1 3.311-3.312 3.315 3.315 0 0 1 3.311 3.312v5.112h2.007V14.66a5.324 5.324 0 0 0-5.318-5.319 5.324 5.324 0 0 0-5.319 5.319v5.112h2.008ZM72.566 5.32h-2.007v14.452h2.007V5.321Z"/></svg>