<svg xmlns="http://www.w3.org/2000/svg" width="124" height="32" viewBox="0 0 124 32" fill="none"><path fill="#007AB3" fill-rule="evenodd" d="m45.94 3.668 4.56 4.56-2.714 9.551-3.457-3.392-2.057-8.216 3.668-2.503Z" clip-rule="evenodd"/><path fill="#007AB3" d="M53.586 15.428h5.142l-4.114 3.77-6.828-1.419 5.8-2.351Z"/><path fill="#002755" d="m54.614 19.199-6.171 1.69-7.2 3.795 6.543-6.905 6.828 1.42Z"/><path fill="#3ABCDA" fill-rule="evenodd" d="m44.33 21.428-6.172 1.2 3.085 2.056 3.086-3.256Z" clip-rule="evenodd"/><path fill="#002755" fill-rule="evenodd" d="M53.586 15.428h5.142l-2.608-1.029-2.534 1.029ZM57.827 16.253l.9.901.001-1.726-.901.825Z" clip-rule="evenodd"/><path fill="#3ABCDA" fill-rule="evenodd" d="m53.586 15.428-3.086-7.2-2.714 9.551 5.8-2.351Z" clip-rule="evenodd"/><path fill="#002755" fill-rule="evenodd" d="M42.272 6.171 43.3 1.03l-4.114-1.03 3.085 6.172Z" clip-rule="evenodd"/><path fill="#3ABCDA" fill-rule="evenodd" d="M45.94 3.668 43.3 1.03l-1.028 5.143 3.668-2.505Z" clip-rule="evenodd"/><path fill="#002755" d="M25.33 10.944a.222.222 0 0 1 .222.222v1.357a.223.223 0 0 1-.222.223l-2.642-.003v6.925c.014.85.228 1.191 1.235 1.191h1.262a.364.364 0 0 1 .367.359v1.075a.363.363 0 0 1-.367.36h-1.353c-2.006-.01-3.13-.875-3.13-2.921V8.585a.363.363 0 0 1 .366-.36h.843a.382.382 0 0 1 .363.32l.33 1.91-1.137.153a.164.164 0 0 0-.135.193.175.175 0 0 0 .196.142h3.802Zm-8.14 3.407c-.088-1.105-.72-1.603-1.832-1.608h-4.604a.22.22 0 0 1-.206-.137.224.224 0 0 1-.017-.085v-1.353a.224.224 0 0 1 .138-.205.22.22 0 0 1 .085-.017h4.606c2.535 0 3.827 1.444 3.827 3.614v5.168c0 2.048-1.128 2.926-3.131 2.926h-2.763c-2.198 0-3.557-1.144-3.557-3.043 0-2.35 2.123-3.944 7.468-4.76l1.22-.164a.164.164 0 0 0 .135-.193.175.175 0 0 0-.196-.142H17.19Zm-3.815 6.506h2.6c.994 0 1.211-.363 1.226-1.217v-3.103c-4.815.802-5.48 2.033-5.48 3.015 0 .82.503 1.305 1.654 1.305Zm20.317-6.506c-.087-1.105-.72-1.603-1.831-1.608h-4.605a.222.222 0 0 1-.223-.222v-1.353a.223.223 0 0 1 .223-.222h4.606c2.536 0 3.827 1.444 3.827 3.614v5.168c0 2.048-1.128 2.926-3.131 2.926h-2.763c-2.198 0-3.557-1.144-3.557-3.043 0-2.35 2.123-3.944 7.468-4.76l1.22-.164a.165.165 0 0 0 .135-.128.175.175 0 0 0-.195-.207h-1.174Zm-3.814 6.506h2.599c.994 0 1.212-.363 1.226-1.217v-3.103c-4.815.802-5.48 2.033-5.48 3.015.001.82.504 1.305 1.655 1.305ZM0 14.015c0-1.695 1.585-3.067 3.545-3.067l4.587-.002a.222.222 0 0 1 .223.222v1.353a.222.222 0 0 1-.223.221H3.435c-.8 0-1.452.485-1.452 1.176 0 .718.33 1.078 2.38 1.632 2.837.768 4.516 1.488 4.516 3.727 0 1.865-1.747 3.376-3.902 3.376H.54a.222.222 0 0 1-.223-.222v-1.352a.222.222 0 0 1 .222-.222h4.537c.986 0 1.817-.63 1.817-1.484 0-.954-.792-1.41-2.848-1.97C1.744 16.78 0 16.132 0 14.016ZM99.962 17.307c1.594-.849 2.254-1.956 2.254-3.317 0-1.899-1.361-3.044-3.561-3.044h-2.599c-2.004 0-3.134.875-3.134 2.925v8.475c0 .266.044.306.306.306h1.377c.268 0 .31-.04.31-.306v-3.099h-1.167a.175.175 0 0 1-.197-.207.163.163 0 0 1 .135-.128l1.223-.164a22.744 22.744 0 0 0 3.21-.7l2.335 4.332c.069.135.124.272.273.272h1.832a.147.147 0 0 0 .064-.009.153.153 0 0 0 .091-.09.157.157 0 0 0 .008-.065.172.172 0 0 0-.028-.108l-2.732-5.073ZM94.91 13.96c.012-.853.23-1.215 1.225-1.215h2.433c1.152 0 1.657.481 1.657 1.303 0 .982-.499 2.214-5.316 3.015V13.96ZM118.579 15.55c-2.051-.553-2.384-.915-2.384-1.632 0-.691.657-1.176 1.454-1.176h4.201a.222.222 0 0 0 .223-.219V11.17a.226.226 0 0 0-.066-.155.223.223 0 0 0-.157-.063h-4.091c-2.137 0-3.545 1.37-3.545 3.067 0 2.115 1.745 2.764 4.049 3.39 2.06.56 2.852 1.015 2.852 1.969 0 .854-.831 1.483-1.822 1.483h-4.538a.223.223 0 0 0-.224.224v1.353a.225.225 0 0 0 .224.222h4.441c2.161 0 3.908-1.513 3.908-3.377 0-2.24-1.68-2.96-4.522-3.727M80.513 13.155c0-1.313-.876-2.21-2.78-2.21H72.64a.293.293 0 0 0-.292.293v1.21a.293.293 0 0 0 .18.27.291.291 0 0 0 .112.023h5.187c.306 0 .575.112.575.457 0 1.083-6.865 3.556-6.865 7.16 0 1.262.796 2.296 2.912 2.296h5.772a.293.293 0 0 0 .291-.292v-1.214a.29.29 0 0 0-.18-.27.292.292 0 0 0-.111-.023h-5.918a.663.663 0 0 1-.597-.664c0-2.44 6.806-4.214 6.806-7.036ZM66.44 10.946h-4.613a.222.222 0 0 0-.222.223v1.352a.223.223 0 0 0 .222.224h4.609c1.114.003 1.746.502 1.834 1.607h1.175a.175.175 0 0 1 .196.207.16.16 0 0 1-.135.126l-1.223.166c-5.351.816-7.475 2.407-7.475 4.758 0 1.902 1.361 3.046 3.56 3.046h2.767c2.005 0 3.134-.88 3.134-2.927v-5.164c0-2.17-1.292-3.616-3.829-3.616m1.84 8.695c-.012.853-.231 1.213-1.225 1.215h-2.602c-1.153 0-1.655-.484-1.655-1.305 0-.978.666-2.21 5.484-3.013l-.001 3.103ZM87.506 10.946h-1.89c-2.538 0-3.833 1.444-3.833 3.615v4.478c0 2.17 1.294 3.615 3.833 3.615h1.89c2.539 0 3.831-1.444 3.831-3.615v-4.478c0-2.17-1.294-3.615-3.83-3.615Zm1.84 8.107c0 1.115-.596 1.804-1.843 1.804h-1.889c-1.245 0-1.844-.689-1.844-1.804V14.55c0-1.117.6-1.805 1.844-1.805h1.889c1.247 0 1.844.688 1.844 1.805v4.503ZM113.12 13.99c0-1.899-1.361-3.044-3.558-3.044h-2.071c-2.538 0-3.834 1.444-3.834 3.615v4.478c0 2.17 1.294 3.615 3.834 3.615h4.61a.225.225 0 0 0 .222-.223v-1.354a.22.22 0 0 0-.066-.156.222.222 0 0 0-.156-.066h-4.61c-1.112-.003-1.746-.502-1.833-1.606 0 0-.012-.19-.012-.41v-.09c5.35-.816 7.474-2.41 7.474-4.76Zm-7.474 2.068h.003V14.55c0-1.116.595-1.805 1.842-1.805h1.984c1.154 0 1.658.482 1.658 1.304 0 .981-.668 2.213-5.487 3.014v-1.005ZM98.284 24.918a.673.673 0 0 0-.68-.509.684.684 0 0 0-.688.519l-2.03 6.702a.321.321 0 0 0-.012.104.19.19 0 0 0 .196.206h.129a.24.24 0 0 0 .204-.162l.801-2.65h2.783l.821 2.649a.215.215 0 0 0 .204.163h.119a.184.184 0 0 0 .205-.196.43.43 0 0 0-.021-.113l-2.03-6.713Zm-1.933 3.68 1.072-3.545c.027-.1.064-.154.182-.154.092 0 .149.051.182.165l1.062 3.534H96.35ZM101.587 24.436a.264.264 0 0 1 .263.262v.674a.266.266 0 0 1-.077.186.268.268 0 0 1-.186.077.267.267 0 0 1-.265-.261V24.7a.264.264 0 0 1 .265-.265ZM101.585 26.528a.262.262 0 0 1 .262.263v4.884a.264.264 0 0 1-.262.262.268.268 0 0 1-.186-.077.267.267 0 0 1-.077-.186v-4.883a.264.264 0 0 1 .263-.263ZM105.011 26.479c-.475 0-.939.146-1.329.417v-.123a.228.228 0 0 0-.226-.245h-.079a.224.224 0 0 0-.165.074.244.244 0 0 0-.048.08.238.238 0 0 0-.012.091v4.932a.242.242 0 0 0 .236.235h.059a.243.243 0 0 0 .235-.235v-4.311a2.367 2.367 0 0 1 1.329-.435c.088 0 .315 0 .315-.206v-.079c.002-.195-.227-.195-.315-.195ZM106.538 24.488h-.098a.223.223 0 0 0-.216.236v6.98c-.001.03.003.06.013.088a.221.221 0 0 0 .203.148h.098a.223.223 0 0 0 .216-.235v-6.981a.222.222 0 0 0-.216-.235ZM108.42 24.436a.265.265 0 0 0-.265.264v.674a.265.265 0 0 0 .53 0V24.7a.265.265 0 0 0-.265-.264ZM108.42 26.528a.265.265 0 0 0-.265.265v4.882a.265.265 0 0 0 .53 0v-4.882a.265.265 0 0 0-.265-.265ZM112.064 26.479a3.822 3.822 0 0 0-1.547.379v-.085a.225.225 0 0 0-.225-.245h-.079a.229.229 0 0 0-.226.245v4.932a.242.242 0 0 0 .236.235h.059a.237.237 0 0 0 .164-.07.238.238 0 0 0 .071-.165v-4.357c.472-.237.99-.37 1.518-.389.855 0 1.289.49 1.289 1.458v3.287a.234.234 0 0 0 .225.235h.07a.237.237 0 0 0 .217-.145.232.232 0 0 0 .018-.09v-3.287c.001-1.232-.652-1.939-1.79-1.939ZM116.896 26.48c-1.263 0-2.048.925-2.048 2.413v.654c0 1.628.765 2.453 2.276 2.453a7.843 7.843 0 0 0 1.495-.169c.164-.033.226-.096.226-.234v-.07a.18.18 0 0 0-.196-.186.151.151 0 0 0-.041.007 7.745 7.745 0 0 1-1.484.173c-.863 0-1.745-.235-1.745-1.974v-.16h3.3a.236.236 0 0 0 .235-.235v-.268c-.001-1.55-.718-2.404-2.018-2.404Zm1.488 2.416h-3.005v-.003c0-.881.262-1.933 1.518-1.933 1.014 0 1.488.613 1.488 1.923l-.001.013ZM121.819 29.1l-.663-.367c-.634-.353-.936-.591-.936-.988 0-.652.428-.785 1.072-.785.42.007.839.039 1.256.095l.12.014h.03a.195.195 0 0 0 .225-.206v-.079c0-.067-.032-.184-.249-.215l-.066-.008c-.45-.058-.904-.085-1.357-.081-.993 0-1.562.46-1.562 1.265 0 .723.506 1.056 1.222 1.447l.634.347c.824.45 1.025.656 1.025 1.038 0 .66-.362.943-1.21.943a9.725 9.725 0 0 1-1.456-.159h-.059a.182.182 0 0 0-.206.186v.109c0 .131.123.175.256.205.477.085.96.131 1.445.139 1.151 0 1.76-.492 1.76-1.423.001-.712-.53-1.061-1.281-1.477Z"/></svg>
