<svg xmlns="http://www.w3.org/2000/svg" width="114" height="16" fill="none"><g fill="#fff" clip-path="url(#a)"><path d="M111.602 7.78c.138-.188 1.611-2.164 1.611-2.164s-1.811.33-2.228.384c-.326.042-.377-.088-.393-.279-.012-.098-.069-1.19-.069-1.19l-2.633 1.273-.038-.052 2.034-3.693-1.772.769c-.439.19-.613.16-.68-.148-.057-.299-.383-2.552-.402-2.68-.126.13-2.349 2.381-2.655 2.68-.324.306-.531.337-.805.148l-1.125-.764-1.059 5.134-.062.014-1.72-2.546s-.771.865-.944 1.053c-.174.192-.336.32-.634.28-.365-.054-1.966-.385-1.966-.385s-.127 1.977-.146 2.165c-.021.2-.087.451-.433.74l-.088.075-.672.072 2.26 2.666c.513.606.502.85-.023 1.494l-.68.832 3.425-.575c.384-.066.768.041.674.57l-.424 2.345 1.792-3.048.067.01 4.487.696s.014-.687.033-1.196c.028-.508.312-.597.491-.704.171-.107 5.29-3.066 5.29-3.066l-.513-.277c-.314-.16-.14-.445 0-.634v.001ZM34.587 8.197l.515-1.228h-12.41l1.216-1.174h-4.684l-4.682 5.206.026-4.032H8.463l-3.57 3.829.025-3.83H0l1.403 6.204h4.966l4.386-4.763h.05l.56 4.763h4.914l5.847-5.654-2.378 5.654h13.015l.516-1.227h-8.2l.567-1.35h7.477l.495-1.172H26.14l.516-1.226h7.931ZM50.416 8.197l-2.092 4.977h4.815l2.092-4.977h4.447l.517-1.227H46.807a46.305 46.305 0 0 0-3.229-.106c-3.624 0-8.039.41-8.666 1.902-.95 2.257 7.896 1.53 7.412 2.685-.21.498-1.704.603-3.231.603-1.994 0-3.654-.178-4.8-.409l-.989 1.369c1.529.177 3.588.267 5.272.267 4.011 0 8.128-.436 8.804-2.044.94-2.238-7.882-1.565-7.46-2.57.23-.54 2.262-.577 3.477-.577 1.372 0 2.732.088 3.891.283l.12-.176H50.415Z"/><path d="m94.723 8.668 2.26 2.666c.513.606.502.85-.023 1.494l-.68.832s3.008-.507 3.425-.576c.384-.065.768.042.674.57L99.955 16l1.792-3.048 3.165-5.385-9.517 1.028-.672.073ZM61.532 6.969l-2.076 4.938c-.428 1.014-1.985 2.068-3.41 2.068-.826 0-1.556-.053-2.108-.151l-.577 1.37c.8.07 1.846.167 2.905.167 4.89 0 7.234-1.624 7.794-2.956l2.287-5.438h-4.815v.002ZM67.826 6.969l-2.61 6.203h13.016l.515-1.227h-8.2l.568-1.35h7.477l.495-1.173h-7.479l.515-1.225h11.38l-2.092 4.975h4.815l2.092-4.975h4.448l.516-1.228H67.826ZM107.852 5.752l2.034-3.693-1.772.769c-.439.19-.613.16-.68-.148-.057-.299-.383-2.552-.402-2.68-.126.13-2.349 2.381-2.655 2.68-.324.306-.531.337-.805.148l-1.125-.764-1.059 5.134 6.464-1.448v.002ZM111.602 7.78c.138-.188 1.611-2.164 1.611-2.164s-1.811.33-2.228.384c-.326.042-.377-.088-.393-.279-.012-.098-.069-1.19-.069-1.19l-2.633 1.273-6.076 7.158 4.487.696s.014-.687.033-1.196c.028-.508.312-.598.491-.705.171-.106 5.29-3.065 5.29-3.065l-.513-.278c-.314-.16-.14-.444 0-.634ZM101.325 7.213l-1.72-2.545s-.772.865-.944 1.053c-.174.191-.336.32-.635.28-.365-.054-1.966-.385-1.966-.385s-.127 1.977-.146 2.164c-.02.2-.086.452-.433.741l5.844-1.308Z"/><path d="m107.89 5.804-6.076 7.158-.069-.01 3.166-5.385-9.518 1.028.088-.074 5.844-1.308.063-.013 6.464-1.448.038.052Z"/></g><defs><clipPath id="a"><path fill="#fff" d="M0 0h113.213v16H0z"/></clipPath></defs></svg>