<svg width="175" height="50" xmlns="http://www.w3.org/2000/svg"><defs><linearGradient x1="78.036%" y1="65.169%" x2="7.99%" y2="33.077%" id="a"><stop stop-color="#ECEDED" offset="0%"/><stop stop-color="#FFF" offset="26.374%"/><stop stop-color="#CFD1D2" offset="100%"/></linearGradient><linearGradient x1="32.238%" y1="18.199%" x2="72.099%" y2="67.399%" id="b"><stop stop-color="#90BF9F" offset="0%"/><stop stop-color="#90BF9F" offset="9.341%"/><stop stop-color="#1FA22E" offset="67.582%"/><stop stop-color="#008132" offset="88.462%"/><stop stop-color="#008132" offset="100%"/></linearGradient><linearGradient x1="41.417%" y1="31.902%" x2="61.342%" y2="62.035%" id="c"><stop stop-color="#DF846B" offset="0%"/><stop stop-color="#DF846B" offset="6.593%"/><stop stop-color="#E2001A" offset="35.165%"/><stop stop-color="#AC0527" offset="85%"/><stop stop-color="#AC0527" offset="100%"/></linearGradient><linearGradient x1="45.776%" y1="75.74%" x2="105.07%" y2="-25.912%" id="d"><stop stop-color="#DF846B" offset="0%"/><stop stop-color="#DF846B" offset="6.593%"/><stop stop-color="#E2001A" offset="35.165%"/><stop stop-color="#AC0527" offset="85%"/><stop stop-color="#AC0527" offset="100%"/></linearGradient></defs><g fill="none"><path d="M163.032 26.12c3.364 1.585 6.21 4.157 7.91 5.89 2.706 2.76 1.392 9.402-1.479 12.156 3.763-2.742 4.931-5.933 5.055-8.492v-.936a8.726 8.726 0 0 0-.515-2.608c-1.669-4.429-5.825-7.72-12.015-10.558C147.406 14.882 126.731 9.581 124.716 0c1.013 17.147 24.634 19.679 38.316 26.12" fill="url(#a)"/><path d="M168.963 33.787c6.994 6.423-.776 11.359-2.592 12.508 3.84-2.122 6.87-5.628 7.042-9.37v-.665c-.115-2.483-1.523-5.04-4.813-7.341-10.342-7.23-36.788-12.165-39.457-16.631 5.372 13.733 30.587 13.017 39.82 21.499" fill="url(#b)"/><path d="M133.388 19.494c8.38 13.708 35.975 12.925 37.85 20.104.405 1.554-.545 3.067-1.653 4.168 1.555-1.53 2.648-2.831 2.57-5.406-.32-10.84-31.766-13.107-38.767-18.866z" fill="url(#c)"/><path d="M157.826 49.986c11.381-3.449 18.684-10.323 8.552-13.455 5.41 2.586.945 10.27-8.552 13.455" fill="url(#d)"/><path d="M33.585 37.191h-1.328l4.244-15.7.02-.073h3.526l-3.6 13.345c-.363 1.46-1.475 2.428-2.862 2.428" fill="#4B4B4D"/><path d="m36.788 21.217-.019.074-4.243 15.697h1.327c1.39 0 2.503-.967 2.864-2.428l3.597-13.343h-3.526z" fill="#A0A5A9"/><path d="M7.812 37.191H1.861l.948-.699c.339-.238.716-.843.877-1.332a95.8 95.8 0 0 0 .78-2.362c.316-1.006.834-2.735 1.55-5.177.352-1.22.688-2.274.925-3.113.562-2.09 1.936-3.449 3.889-3.454.416-.004.89-.015 1.42-.031.374-.01.71-.012 1.016-.012.36 0 .675.004.962.004.75 0 1.307.034 1.71.113.38.08.72.197 1.02.36.295.167.54.375.724.63.18.247.312.535.394.855a3.3 3.3 0 0 1 .118.918v.176a5.069 5.069 0 0 1-.14 1.007 6.44 6.44 0 0 1-.445 1.275 5.76 5.76 0 0 1-.685 1.104c-.26.325-.543.605-.85.843a5.558 5.558 0 0 1-.833.54l-.013.008a3.3 3.3 0 0 1 .392.268c.216.181.4.405.552.667.157.26.266.542.327.841.048.24.072.496.072.767l-.002.174-.004.044v.002a5.44 5.44 0 0 1-.148 1.004 6.093 6.093 0 0 1-.97 2.117 5.495 5.495 0 0 1-1.634 1.535 5.902 5.902 0 0 1-1.976.748c-.702.126-2.02.18-4.025.18m1.005-6.795-1.12 3.826h1.804c.452 0 .807-.022 1.044-.06.237-.034.474-.1.712-.192.238-.098.424-.198.551-.292a2.26 2.26 0 0 0 .399-.388 3.227 3.227 0 0 0 .603-1.22c.043-.176.07-.334.075-.47l.002-.082a1.19 1.19 0 0 0-.015-.208.971.971 0 0 0-.221-.494.992.992 0 0 0-.471-.309c-.18-.06-.568-.111-1.102-.111h-2.26m3.046-6.43c-.224 0-.446.001-.613.009-.392.045-.523.089-.748.744-.151.534-.591 1.96-.807 2.707h1.11c.676 0 1.14-.021 1.337-.052.212-.03.45-.095.72-.2.228-.088.44-.22.64-.415a2.958 2.958 0 0 0 .797-1.4l.007-.036c.03-.129.047-.247.05-.36l.001-.079c0-.06 0-.117-.007-.169a.723.723 0 0 0-.166-.407.909.909 0 0 0-.417-.243c-.176-.052-.517-.09-.98-.09h-.03s-.447-.01-.893-.01" fill="#4B4B4D"/><path d="M14.625 24.76c-.004.11-.02.233-.048.36l-.011.036a2.97 2.97 0 0 1-.288.74c-.13.239-.296.456-.506.66a1.8 1.8 0 0 1-.642.417 3.493 3.493 0 0 1-.719.199c-.195.031-.662.051-1.335.051H9.968c.213-.746.65-2.173.804-2.707.225-.655.357-.696.749-.746.501-.02 1.505.002 1.505.002l.031-.002c.464 0 .804.039.976.093.191.054.32.137.418.245.089.098.142.216.166.404.01.053.011.11.011.172l-.003.076zm-1.47 6.637c-.008.138-.03.293-.075.47a3.097 3.097 0 0 1-.244.655 3.228 3.228 0 0 1-.36.566c-.133.163-.264.29-.4.389a2.583 2.583 0 0 1-.552.288c-.238.095-.472.16-.71.194a6.99 6.99 0 0 1-1.047.06H7.969l1.117-3.824h2.23l.03-.002c.536 0 .925.05 1.102.111.205.07.353.17.473.308a.99.99 0 0 1 .22.498c.01.06.016.131.016.205l-.002.082zm4.799-9.483v.002a2.296 2.296 0 0 0-.726-.63 3.682 3.682 0 0 0-1.019-.36c-.403-.08-.963-.115-1.712-.115-.53 0-1.164-.011-1.979.012-.53.015-1 .023-1.42.029-1.951.005-3.329 1.364-3.89 3.457-.234.835-.568 1.888-.922 3.107a316.372 316.372 0 0 1-1.552 5.182c-.206.659-.589 1.815-.778 2.361-.162.491-.538 1.092-.878 1.331l-.951.7h5.952c2.005 0 3.324-.056 4.03-.182a5.897 5.897 0 0 0 1.973-.747 5.461 5.461 0 0 0 1.636-1.537 6.15 6.15 0 0 0 .97-2.117c.082-.343.13-.679.147-1.001v-.002l.001-.046.006-.172c0-.273-.026-.53-.072-.77-.062-.3-.17-.58-.328-.842a2.407 2.407 0 0 0-.551-.661 3.024 3.024 0 0 0-.394-.274l.012-.007a5.305 5.305 0 0 0 1.684-1.384c.264-.331.49-.697.683-1.1.19-.406.34-.83.447-1.277.08-.34.127-.675.137-1.006l.004-.07v-.109a3.4 3.4 0 0 0-.118-.917 2.492 2.492 0 0 0-.393-.855" fill="#A0A5A9"/><path d="M22.486 37.191h-.14c-1.128-.002-1.965-.18-2.554-.643-.552-.44-.789-1.117-.789-1.908l.004-.171c.017-.5.114-1.058.273-1.687l2.099-7.748h3.52l-2.062 7.674a3.356 3.356 0 0 0-.152.825l-.002.047c.006.33.071.463.23.596.161.133.525.243 1.124.243h.01c1.026-.007 1.551-.252 1.933-.689.387-.44.641-1.18.87-2.213l1.758-6.483h3.463l-2.688 10.279c-.05.17-.1.382-.131.56-.04.254.07.47.172.615l.509.639h-4.43l.167-.77c-.95.729-2.08.834-3.183.834" fill="#4B4B4D"/><path d="M29.523 35.673c.028-.18.076-.396.127-.564l2.69-10.279h-3.461l-1.762 6.486c-.227 1.032-.483 1.772-.866 2.213-.387.438-.91.68-1.936.687h-.008c-.602 0-.964-.112-1.127-.244-.159-.129-.222-.265-.228-.594v-.047c.01-.217.058-.495.153-.825l2.065-7.676h-3.524l-2.097 7.75c-.161.629-.254 1.187-.272 1.687l-.006.171c-.001.791.237 1.469.791 1.907.585.465 1.425.64 2.554.643h.138c1.102 0 2.233-.105 3.186-.832l-.168.77H30.2l-.509-.64c-.102-.144-.209-.362-.17-.613" fill="#A0A5A9"/><path d="m114.935 37.191-4.667-.001.273-3.853h-2.889c-.222.425-.722 1.379-.938 1.799-.843 1.62-2.308 2.054-3.444 2.054h-.021l-.387.001-.341-.001-.624-.004.302-.564c.005-.001 7.044-13.089 7.312-13.566a4.619 4.619 0 0 1 1.198-1.364c.558-.417 1.102-.595 1.716-.595l.022.002a5.2 5.2 0 0 1 .575.033c1.04.09 1.576.958 1.573 1.963l-.006.144v.026c-.023.682-.646 11.587-.67 12.126l-.002-.002v.172l-.002-.004c.003.396.087.663.29.92h.002c.23.302.51.534.51.534l.22.18m-3.866-10.5-2.089 3.954h1.82l.269-3.954" fill="#4B4B4D"/><path d="M111.069 30.443h-1.818l2.088-3.954-.27 3.954zm3.406 5.831c-.203-.257-.292-.523-.295-.918l.002.002v-.171h.004c.021-.538.646-11.442.671-12.125v-.025l.002-.144c.008-1.004-.53-1.872-1.569-1.962-.2-.021-.39-.036-.574-.036h-.026c-.611-.002-1.154.177-1.715.593-.43.315-.901.839-1.2 1.366-.267.477-7.307 13.562-7.307 13.566l-.301.562.623.006h.744c1.137 0 2.607-.433 3.448-2.057.22-.416.717-1.372.937-1.797h2.892l-.274 3.854h4.667l-.219-.178s-.28-.234-.511-.536" fill="#A0A5A9"/><path d="M124.41 37.191h-1.338l2.407-9c.525-1.994 2.008-3.09 3.719-3.09h5.13l-.015.114-.044.314c-.163 1.293-1.223 2.606-2.846 2.609h-.88c-.743.002-1.117.141-1.357.362-.237.218-.414.622-.58 1.275l-1.344 4.988c-.355 1.446-1.418 2.428-2.854 2.428" fill="#4B4B4D"/><path d="M129.508 24.896h-.03c-1.715-.001-3.202 1.095-3.727 3.092l-2.41 9h1.338c1.436 0 2.5-.98 2.853-2.428l1.345-4.988c.167-.652.344-1.055.583-1.274.238-.219.608-.36 1.357-.36h.876c1.619-.006 2.682-1.317 2.847-2.611l.043-.314.015-.117h-5.09z" fill="#A0A5A9"/><path d="M88.835 37.191h-.126c-1.38-.002-2.336-.258-2.967-.826-.583-.53-.795-1.285-.795-2.13 0-.068 0-.137.004-.204.037-.996.314-2.143.666-3.44.432-1.653.967-3.082 1.925-4.125.956-1.043 2.33-1.634 4.253-1.634h.025c.682.004 1.377.03 1.991.269.319.119.61.31.847.577l.178-.71h3.536l-2.813 10.276c-.08.25-.11.457-.118.628v.052a.99.99 0 0 0 .136.54l.358.595H91.74l.143-.624c-.957.643-1.934.756-3.049.756m3.188-9.515c-1.096.013-1.588.314-2.016.91-.42.603-.704 1.59-1.048 2.85-.205.782-.318 1.378-.33 1.8l-.006.078c.005.462.096.627.258.75.16.13.538.22 1.126.22h.044c1.1-.006 1.657-.215 2.07-.642.418-.432.724-1.205 1.06-2.389h.002c.27-1.033.488-1.866.505-2.43v-.083c-.002-.407-.083-.605-.266-.764-.194-.165-.628-.3-1.376-.3h-.025" fill="#4B4B4D"/><path d="M93.958 28.624c-.02.56-.233 1.396-.504 2.428h-.002c-.335 1.183-.646 1.956-1.06 2.386-.413.427-.969.64-2.07.642h-.03c-.597.005-.98-.088-1.143-.217-.162-.125-.252-.29-.256-.752l.004-.076c.011-.421.125-1.018.335-1.8.34-1.262.625-2.249 1.045-2.853.427-.595.917-.894 2.014-.908h.016c.755-.001 1.19.136 1.382.303.187.156.268.356.27.76l-.001.087zm1.869 6.418 2.813-10.276h-3.535l-.176.71a2.153 2.153 0 0 0-.85-.578c-.611-.24-1.306-.264-1.988-.266h-.02c-1.925-.002-3.3.588-4.256 1.632-.961 1.044-1.495 2.472-1.93 4.125-.35 1.298-.629 2.447-.663 3.436a3.682 3.682 0 0 0-.007.21c0 .841.214 1.6.795 2.129.631.566 1.588.822 2.967.825h.125c1.115 0 2.09-.111 3.049-.755l-.143.622h4.194l-.357-.599a.985.985 0 0 1-.133-.534v-.054c.005-.17.039-.377.114-.627" fill="#A0A5A9"/><path d="M117.772 37.191h-1.33l3.227-12.017.019-.073h3.525l-2.584 9.674c-.415 1.437-1.46 2.416-2.857 2.416" fill="#4B4B4D"/><path d="m119.959 24.896-.022.078-3.226 12.015h1.33c1.394 0 2.442-.978 2.857-2.415l2.582-9.678h-3.521z" fill="#A0A5A9"/><path d="M44.875 41.607h-.011c-.104 0-.207-.002-.305-.004h-6.475l.029-.123c.003-.008.305-1.389.781-1.991.464-.584 1.25-1.058 2.366-1.058h2.877c.951 0 1.535-.164 1.897-.429.364-.27.583-.67.758-1.353l.058-.2c-.936.6-1.965.695-2.91.695h-.121c-1.363 0-2.318-.266-2.947-.841-.583-.54-.802-1.303-.798-2.147 0-.067 0-.131.005-.2.026-.822.23-1.743.512-2.745.478-1.871.955-3.439 1.895-4.581.937-1.146 2.339-1.774 4.42-1.774h.044c.79 0 1.463.01 2.052.212a2 2 0 0 1 .842.54l.104-.39.08-.295h4.574l-.913.695c-.369.294-.556.55-.742 1.315l-2.682 9.853c-.493 1.825-1.083 3.04-1.969 3.811-.89.768-2.014 1.01-3.422 1.01m2.3-13.979c-.904.004-1.376.152-1.767.554-.399.406-.747 1.201-1.112 2.544-.274 1.022-.495 1.865-.515 2.434v.08c0 .375.079.577.23.716.158.15.507.28 1.14.28h.03c1.265-.009 1.823-.29 2.245-.84.424-.548.754-1.893 1.035-2.86.281-.964.345-1.36.358-1.8v-.075c-.004-.417-.088-.6-.272-.751-.194-.157-.624-.282-1.335-.282h-.037" fill="#4B4B4D"/><path d="M49.088 28.535c-.015.438-.078.833-.359 1.799-.278.968-.613 2.31-1.034 2.862-.425.549-.983.83-2.245.842h-.005c-.65 0-1.006-.132-1.165-.285-.153-.14-.23-.34-.23-.714v-.082c.017-.568.238-1.413.515-2.433.365-1.342.712-2.14 1.111-2.544.39-.402.863-.549 1.766-.555h.015c.725 0 1.162.123 1.357.281.187.153.27.335.272.753l.002.076zm5.782-3.816h-4.573l-.078.297-.106.388a2.04 2.04 0 0 0-.841-.538c-.59-.202-1.26-.21-2.053-.214h-.035c-2.086 0-3.493.628-4.428 1.776-.941 1.14-1.417 2.71-1.897 4.582-.281 1.001-.485 1.921-.513 2.745a6.883 6.883 0 0 0-.004.199c-.001.844.219 1.607.8 2.145.63.574 1.586.842 2.948.842h.079c.956.004 1.999-.086 2.953-.692l-.062.197c-.174.682-.392 1.085-.757 1.353-.36.266-.945.43-1.9.43h-2.872c-1.12 0-1.904.473-2.37 1.057-.475.603-.776 1.987-.781 1.993l-.028.122h6.477c.097 0 .199.006.302.006h.015c1.405 0 2.531-.245 3.422-1.01.884-.772 1.47-1.985 1.969-3.814l2.68-9.85c.188-.77.374-1.024.742-1.316l.91-.698z" fill="#A0A5A9"/><path d="M68.61 37.191h-1.34l2.41-9c.522-1.994 2.002-3.09 3.711-3.09h5.136l-.015.113-.041.315c-.167 1.293-1.228 2.606-2.849 2.609h-.878c-.746.002-1.12.141-1.355.362-.24.218-.418.622-.582 1.274l-1.346 4.989c-.354 1.446-1.416 2.428-2.852 2.428" fill="#4B4B4D"/><path d="m78.74 25.327.043-.316.013-.115h-5.122c-1.716-.002-3.202 1.094-3.723 3.092l-2.409 9h1.337c1.436 0 2.5-.98 2.851-2.428l1.345-4.988c.168-.652.345-1.055.585-1.274.234-.219.607-.36 1.356-.36h.875c1.622-.006 2.682-1.317 2.85-2.611" fill="#A0A5A9"/><path d="M57.96 37.191h-.141c-1.376-.001-2.337-.258-2.965-.826-.583-.53-.796-1.289-.795-2.132 0-.067 0-.135.002-.202.037-.996.314-2.147.667-3.443.433-1.652.966-3.08 1.927-4.122.953-1.04 2.322-1.63 4.237-1.63h.042c.682 0 1.376.026 1.989.265.32.119.61.31.848.579l.179-.714h3.531l-2.81 10.278c-.153.53-.186.868.017 1.22l.356.595h-4.19l.14-.624c-.955.64-1.925.756-3.035.756m3.174-9.515c-1.095.013-1.584.312-2.011.91-.423.603-.708 1.59-1.047 2.85-.21.785-.32 1.381-.335 1.8v.08c.002.462.093.626.254.749.16.128.537.219 1.12.219h.05c1.1-.006 1.655-.215 2.068-.642.418-.434.728-1.21 1.066-2.397l.012-.04c.265-1.01.477-1.83.493-2.38v-.082c-.002-.407-.084-.605-.27-.767-.194-.164-.62-.302-1.363-.302h-.02v-.001l-.007.002h-.01" fill="#4B4B4D"/><path d="M63.07 28.624c-.018.55-.23 1.37-.491 2.378l-.015.04c-.338 1.19-.646 1.967-1.064 2.395-.41.428-.968.64-2.067.643h-.035c-.592.006-.972-.088-1.137-.217-.158-.125-.25-.288-.253-.748l.002-.082c.012-.42.126-1.012.334-1.799.342-1.261.623-2.247 1.044-2.852.428-.596.917-.894 2.013-.908h.011l.004-.001c.754 0 1.19.137 1.385.304.186.156.266.358.268.763l.002.084zm1.87 6.418 2.814-10.278H64.22l-.177.713a2.149 2.149 0 0 0-.85-.579c-.614-.24-1.31-.266-1.992-.266h-.022c-1.924 0-3.298.588-4.254 1.632-.957 1.044-1.493 2.47-1.927 4.122-.352 1.298-.63 2.45-.664 3.44a3.56 3.56 0 0 0-.006.205c0 .844.21 1.603.798 2.133.63.566 1.585.825 2.962.825h.14c1.112 0 2.08-.116 3.037-.755l-.143.622h4.192l-.355-.594c-.202-.353-.17-.688-.02-1.22" fill="#A0A5A9"/><path d="M78.687 37.191H77.36l3.24-12.09h3.467l-2.52 9.674c-.419 1.437-1.466 2.416-2.86 2.416" fill="#4B4B4D"/><path d="M77.628 36.988h1.329c1.393 0 2.442-.977 2.857-2.413l2.524-9.68h-3.467l-3.243 12.093zM0 49.897l1.678-6.344h1.59l.658 2.418c.194.81.314 1.47.412 2.165h.029c.077-.65.213-1.345.462-2.277l.604-2.306h1.26l-1.666 6.344H3.624l-.696-2.532c-.218-.857-.345-1.432-.456-2.213l-.029.012c-.122.62-.34 1.513-.602 2.513l-.58 2.22H0zm10.335-3.642a1.904 1.904 0 0 0-.365-.039c-.875 0-1.594 1.073-1.659 1.93-.034.452.123.762.499.762.404 0 .937-.461 1.23-1.591l.295-1.062zm-.667 3.642c.03-.274.08-.584.134-.912h-.028C9.293 49.745 8.69 50 8.154 50c-.83 0-1.345-.641-1.273-1.601.116-1.552 1.265-3.209 3.533-3.209.546 0 1.13.104 1.508.226l-.669 2.41c-.158.592-.31 1.495-.333 2.071H9.668zm5.709-5.854-.329 1.251h.978l-.274 1.026h-.977l-.428 1.563a3.285 3.285 0 0 0-.12.583c-.016.226.066.385.357.385.123 0 .255 0 .378-.018l-.24 1.064c-.173.064-.515.102-.807.102-.81 0-1.163-.424-1.12-.998a4.66 4.66 0 0 1 .158-.855l.494-1.826h-.584l.265-1.026h.593l.235-.866 1.421-.385zm2.783.677c-.367 0-.63-.255-.6-.66a.843.843 0 0 1 .838-.77c.396 0 .658.263.629.668-.037.48-.425.762-.858.762h-.008zm-2.1 5.177 1.22-4.603h1.354l-1.219 4.603h-1.354zm4.636-1.827c-.04.537.197.894.668.894.743 0 1.238-1.081 1.297-1.873.032-.424-.113-.875-.66-.875-.78 0-1.26 1.14-1.305 1.854m3.368-.988C23.938 48.768 22.698 50 21.098 50c-1.167 0-1.891-.763-1.806-1.901.119-1.601 1.327-2.909 2.965-2.909 1.233 0 1.885.847 1.807 1.892m.639 2.815.815-3.106c.157-.584.27-1.093.356-1.497h1.205l-.15.763h.018c.478-.604 1.072-.867 1.684-.867.752 0 1.141.461 1.082 1.252a5.88 5.88 0 0 1-.133.781l-.709 2.674h-1.354l.67-2.552a3.16 3.16 0 0 0 .086-.516c.025-.321-.073-.547-.411-.547-.443 0-1.002.555-1.266 1.57l-.538 2.045h-1.355zm9.422-3.642a1.91 1.91 0 0 0-.365-.039c-.876 0-1.595 1.073-1.66 1.93-.033.452.122.762.5.762.403 0 .937-.461 1.229-1.591l.296-1.062zm-.668 3.642c.03-.274.081-.584.135-.912h-.029c-.481.76-1.084 1.015-1.62 1.015-.828 0-1.345-.641-1.273-1.601.116-1.552 1.265-3.209 3.533-3.209.546 0 1.13.104 1.508.226l-.668 2.41c-.159.592-.31 1.495-.334 2.071h-1.252zm2.647 0s1.284-4.826 1.486-5.554c.242-.884.827-1.129 1.647-1.129-1.575 5.866-1.778 6.683-1.778 6.683h-1.355zm9.944-.18c-.35.15-.935.283-1.698.283-1.674 0-2.727-1.027-2.602-2.7.106-1.423.829-2.533 1.836-3.174.695-.461 1.491-.677 2.385-.677.687 0 1.192.16 1.363.274l-.45 1.1c-.18-.094-.587-.208-1.132-.208-.546 0-1.076.17-1.486.491-.568.432-.962 1.156-1.028 2.042-.074 1.007.44 1.685 1.56 1.685.442 0 .89-.075 1.22-.207l.032 1.091zm4.674-3.462a1.91 1.91 0 0 0-.365-.039c-.875 0-1.595 1.073-1.659 1.93-.033.452.122.762.498.762.405 0 .938-.461 1.23-1.591l.296-1.062zm-.667 3.642c.029-.274.08-.584.133-.912h-.027c-.481.76-1.083 1.015-1.619 1.015-.83 0-1.346-.641-1.274-1.601.116-1.552 1.265-3.209 3.533-3.209.546 0 1.131.104 1.508.226l-.669 2.41c-.158.592-.31 1.495-.333 2.071h-1.252zm2.693 0 .722-2.74c.183-.696.298-1.467.374-1.863h1.176l-.154.94h.029c.364-.611.915-1.044 1.544-1.044.086 0 .17 0 .254.01l-.362 1.317c-.065 0-.14-.01-.216-.01-.865 0-1.327.772-1.565 1.675l-.446 1.714h-1.356zm3.926 0 .721-2.74c.185-.696.298-1.467.375-1.863h1.176l-.154.94h.028c.366-.611.916-1.044 1.546-1.044.084 0 .17 0 .253.01l-.362 1.317c-.066 0-.14-.01-.215-.01-.866 0-1.329.772-1.566 1.675l-.447 1.714h-1.355zm6.024-5.177c-.367 0-.629-.255-.6-.66a.843.843 0 0 1 .84-.77c.394 0 .657.263.626.668-.035.48-.422.762-.856.762h-.01zM60.6 49.897l1.219-4.603h1.355l-1.22 4.603H60.6zm6.338-3.333c.017-.226-.16-.385-.47-.385-.631 0-1.027.518-1.154.95 1.053.01 1.592-.14 1.624-.555v-.01zm.467 3.07c-.557.272-1.232.366-1.74.366-1.317 0-1.939-.753-1.85-1.95.105-1.4 1.23-2.86 2.896-2.86.93 0 1.56.518 1.497 1.374-.087 1.177-1.258 1.6-3.1 1.553a.859.859 0 0 0 .108.47c.16.236.462.358.857.358.499 0 .93-.112 1.311-.292l.021.98zm1.193.263.721-2.74c.184-.696.299-1.467.375-1.863h1.177c-.052.31-.103.622-.154.94h.027c.366-.611.916-1.044 1.546-1.044.084 0 .17 0 .254.01l-.362 1.317c-.066 0-.14-.01-.216-.01-.866 0-1.328.772-1.566 1.675l-.447 1.714h-1.355z" fill="#A0A5A9"/></g></svg>