<svg width="73" height="24" viewBox="0 0 73 24" fill="none" xmlns="http://www.w3.org/2000/svg"><path d="M12.236 18.208l-.97.616-.872-.967c.59-.325 1.176-.656 1.758-.99.975-.564 1.934-1.163 2.912-1.725l-.086-.05c-1.738-.977-3.511-1.931-5.412-2.583-1.493-.586-3.12-.704-4.706-.758l5.525 6.109a6.01 6.01 0 0 1-.516.335c-1.828 1.081-2.941 1.233-4.425 1.343 1.357.285 1.946.661 3.95.209.704-.159 1.835-.887 1.873-.905l4.652 5.14-.294-7.864a132.448 132.448 0 0 0-3.39 2.09zm-2.941-6.412c2.196.48 4.246 1.453 6.257 2.428l-.185-4.977L.154 6.2a.127.127 0 0 0-.12.21l4.826 5.34a11.366 11.366 0 0 1 4.437.048l-.002-.003zM32.62 6.201L17.4 9.251l-.186 4.978c2.014-.978 4.061-1.948 6.258-2.428a11.366 11.366 0 0 1 4.437-.048l4.825-5.341a.126.126 0 0 0 .018-.145.127.127 0 0 0-.13-.066zM17.914 8.287a8.258 8.258 0 0 0 .016-3.925 6.108 6.108 0 0 1 1.392 1.597c.33.538.58 1.122.742 1.733a4.577 4.577 0 0 0-.136-2.199c-.125-.341-.43-1.244-1.05-1.832a7.31 7.31 0 0 1 1.65 1.056 12.214 12.214 0 0 1 1.583 1.6 5.33 5.33 0 0 0-.905-2.222 4.75 4.75 0 0 0-2.778-1.66 4.819 4.819 0 0 1 1.733.076c.774.18 1.506.509 2.154.969a5.237 5.237 0 0 0-2.036-1.776 4.647 4.647 0 0 0-2.59-.313c.055-.115.132-.22.225-.307.143-.129.302-.238.473-.324a1.914 1.914 0 0 0-1.002.04c-.21.081-.404.2-.572.35a3.871 3.871 0 0 0-.077-.41 4.63 4.63 0 0 0-.351-.74c-.136.237-.25.485-.342.742a3.872 3.872 0 0 0-.077.41 1.857 1.857 0 0 0-.572-.349 1.914 1.914 0 0 0-1.002-.04c.17.087.327.198.468.328.094.087.17.192.226.307a4.647 4.647 0 0 0-2.59.312 5.237 5.237 0 0 0-2.036 1.776 6.108 6.108 0 0 1 2.153-.968 4.819 4.819 0 0 1 1.734-.077 4.75 4.75 0 0 0-2.779 1.66 5.33 5.33 0 0 0-.905 2.223 12.214 12.214 0 0 1 1.584-1.6 7.31 7.31 0 0 1 1.65-1.057c-.62.589-.926 1.491-1.05 1.833a4.577 4.577 0 0 0-.136 2.2c.16-.614.409-1.2.74-1.74.367-.61.838-1.15 1.391-1.598a8.26 8.26 0 0 0 .018 3.925c.217-.94.497-1.866.837-2.769.172-.449.406-.871.695-1.256.289.385.522.807.694 1.256.338.904.615 1.829.828 2.77zm-.113 6.806l-.086.05c.978.56 1.937 1.16 2.912 1.723a95.69 95.69 0 0 0 1.758.991l-.871.966-.97-.615a183.028 183.028 0 0 0-3.394-2.102l-.299 7.876 4.652-5.14c.038.024 1.167.753 1.873.905 2.004.452 2.581.076 3.95-.209-1.486-.11-2.595-.26-4.425-1.343a6.015 6.015 0 0 1-.516-.335l5.525-6.109c-1.584.054-3.217.172-4.706.758-1.9.652-3.677 1.606-5.403 2.584z" fill="#00803E"/><path fill-rule="evenodd" clip-rule="evenodd" d="M36.763 17.855l-1.229 1.23v2.458h3.686v1.228h-3.686V24h3.686l1.23-1.229v-2.457h-3.687v-1.228h3.688v-1.23h-3.688zM42.446 19.086l-1.228 1.228V24h2.459l1.228-1.229h-2.459v-2.457h2.46V24h1.228v-4.914h-3.688zM61.496 19.086l-1.231 1.228V24h2.46l1.228-1.229h-2.457v-2.457h2.457V24h1.228v-4.914h-3.685zM56.272 19.086h-2.457l-1.229 1.229V24h2.457l1.229-1.229h-2.457v-2.457h2.457V24H57.5v-7.373h-1.228v2.459zM50.589 22.771h-2.457v-3.685H46.9V24h3.688l1.228-1.229v-3.685h-1.228v3.685z" fill="#00803E"/><path d="M59.498 16.627H58.27v1.228h1.228v-1.228z" fill="#00803E"/><path fill-rule="evenodd" clip-rule="evenodd" d="M58.27 24h1.228v-4.914H58.27V24zM46.134 8.636v1.228h2.457v2.46h-3.686v1.228h3.686l1.23-1.229V8.636h-3.687zM70.869 6.179v7.373h1.228V6.179H70.87zM68.871 12.323h-.769V8.636h-1.228v3.688h-1.229V8.635h-1.228v3.688h-1.229V8.635h-1.23v3.688h-4.456v-2.46h3.688V8.636h-3.688l-1.228 1.228v2.46h-.77V8.635H51.82l-1.23 1.228v3.688h2.459l1.228-1.229H51.82V9.864h2.457v4.917h-3.688v1.228h3.688l1.229-1.229v-1.228H68.87l1.229-1.229V6.18H68.87v6.144z" fill="#00803E"/><path d="M40.448 6.179H39.22v1.228h1.228V6.18zM37.991 6.179h-1.228v1.228h1.228V6.18zM44.136 14.78h-1.228v1.229h1.228V14.78zM41.679 14.78H40.45v1.229h1.229V14.78z" fill="#00803E"/><path fill-rule="evenodd" clip-rule="evenodd" d="M42.914 12.323H40.45V8.636h-3.687l-1.229 1.228v3.688h2.457l1.229-1.229v1.229h3.694l1.229-1.229V8.636h-1.229v3.688zm-3.687 0h-2.464V9.864h2.457v2.46h.007z" fill="#00803E"/></svg>