<svg width="140" height="32" viewBox="0 0 140 32" fill="none" xmlns="http://www.w3.org/2000/svg">
<path d="M117.168 10.9444C117.818 10.2157 118.392 9.53943 118.996 8.88349C121.388 6.28968 123.851 3.75473 126.153 1.08067C126.877 0.239608 127.647 0.0213174 128.596 0.0106169C132.066 -0.00757401 135.53 0.00312654 139.077 0.00312654C138.998 0.206436 138.933 0.394765 138.851 0.574534C136.633 5.4661 134.416 10.3584 132.2 15.2514C132.047 15.5884 131.844 15.7265 131.495 15.8046C129.086 16.3471 126.927 15.7147 124.892 14.4681C123.85 13.8261 122.822 13.168 121.769 12.542C120.458 11.7662 119.058 11.2162 117.521 11.0536C117.4 11.0276 117.282 10.9911 117.168 10.9444ZM129.097 9.70529L129.27 9.85616C129.242 10.2457 129.216 10.6352 129.183 11.0236C129.128 11.6988 129.064 12.3729 129.013 13.0471C128.99 13.3445 129.073 13.6056 129.434 13.6013C129.795 13.5971 129.85 13.337 129.856 13.0406C129.875 11.9235 129.883 10.8053 129.946 9.6903C129.964 9.5672 130.01 9.44969 130.08 9.34626C130.151 9.24282 130.243 9.15603 130.351 9.09214C131.813 8.40303 133.297 7.75779 134.768 7.09115C135.065 6.95632 135.636 6.96381 135.455 6.47587C135.282 6.02431 134.868 6.37635 134.572 6.47587C134.122 6.63424 134.021 6.5711 134.059 6.096C134.089 5.72362 134.151 5.34696 134.155 4.97887C134.155 4.82264 134.082 4.59044 133.968 4.53051C133.854 4.47059 133.637 4.56048 133.476 4.61184C133.246 4.68567 133.022 4.86116 132.797 4.85902C132.324 4.85902 132.146 5.09871 132.088 5.49463C132.019 5.8987 131.975 6.30638 131.955 6.71556C131.955 6.88998 132.07 7.06654 132.134 7.24203C132.296 7.07938 132.526 6.94241 132.603 6.74659C132.711 6.47159 132.676 6.14629 132.753 5.85524C132.843 5.51496 132.986 5.18753 133.476 5.15757C133.431 5.76963 133.389 6.34746 133.344 6.95311L130.062 8.56675C130.17 7.73853 130.279 7.00126 130.355 6.25972C130.369 6.10777 130.237 5.9387 130.172 5.78033C130.029 5.9066 129.802 6.00933 129.758 6.16341C129.622 6.64066 129.576 7.14358 129.452 7.6251C129.399 7.83055 129.235 8.00925 129.063 8.30673C128.663 7.35545 129.25 6.76585 129.585 5.96759C129.244 6.09279 129.051 6.12703 128.902 6.22548C128.395 6.55933 127.949 7.929 128.22 8.46189C128.313 8.64379 128.619 8.74973 128.85 8.82142C128.976 8.86101 129.149 8.75508 129.299 8.71442L129.393 8.84068C129.267 8.96984 129.132 9.09066 128.99 9.20236C127.676 10.1108 126.354 11.0097 125.043 11.9214C124.864 12.0422 124.713 12.199 124.6 12.3815C124.57 12.4476 124.555 12.5202 124.559 12.5929C124.563 12.6657 124.585 12.7363 124.623 12.7988C124.684 12.8421 124.754 12.8706 124.827 12.8817C124.901 12.8929 124.977 12.8865 125.047 12.863C125.223 12.7924 125.362 12.6319 125.516 12.511L129.097 9.70529ZM122.844 7.32335L122.968 7.34903C122.999 7.64865 123.033 7.94826 123.058 8.24787C123.145 9.27726 123.21 10.3088 123.324 11.336C123.35 11.5629 123.541 11.7716 123.658 11.9888C123.798 11.7919 124.005 11.6121 124.065 11.3938C124.275 10.6212 124.4 9.8262 124.62 9.05683C125.301 6.68774 125.748 4.21699 127.576 2.3337C127.793 2.10899 127.819 1.74624 127.51 1.59536C127.308 1.49692 126.977 1.56112 126.751 1.65636C126.601 1.71735 126.505 1.95383 126.426 2.13039C125.913 3.30745 125.366 4.47059 124.92 5.67119C124.509 6.78083 124.21 7.93114 123.862 9.06004C123.761 8.03707 123.672 7.00768 123.545 5.98364C123.522 5.79211 123.346 5.61983 123.239 5.43899C123.07 5.58024 122.828 5.68724 122.745 5.86701C122.428 6.54542 122.151 7.24203 121.889 7.94184C121.84 8.07239 121.933 8.25322 121.96 8.41052C122.117 8.33027 122.332 8.28961 122.421 8.16334C122.596 7.90974 122.706 7.60798 122.844 7.32549V7.32335ZM127.736 6.57431C127.434 6.78832 126.949 6.94883 126.823 7.25594C126.612 7.76421 126.62 8.36451 126.564 8.92843C126.552 9.04506 126.654 9.27191 126.721 9.27833C126.796 9.281 126.872 9.26864 126.943 9.24199C127.013 9.21533 127.078 9.17493 127.133 9.12318C127.235 9.00184 127.298 8.85249 127.312 8.69516C127.379 8.09486 127.381 7.47851 128.028 7.13074C128.096 7.09543 128.123 6.90924 128.099 6.80972C128.082 6.74231 127.943 6.70914 127.736 6.57752V6.57431ZM125.174 9.84332L125.418 9.97494C125.588 9.79731 125.852 9.64536 125.909 9.43991C126.057 8.89222 126.162 8.33416 126.224 7.77063C126.243 7.61868 126.104 7.44962 126.037 7.28483C125.879 7.38434 125.611 7.45925 125.582 7.58551C125.415 8.33241 125.301 9.09215 125.174 9.84653V9.84332ZM130.656 7.45818C130.682 7.50205 130.718 7.654 130.799 7.68182C130.857 7.69734 130.918 7.69853 130.976 7.68528C131.035 7.67203 131.089 7.64474 131.134 7.60584C131.264 7.44177 131.357 7.252 131.407 7.04942C131.487 6.64889 131.539 6.24349 131.564 5.83598C131.575 5.67012 131.49 5.49784 131.449 5.32877C131.29 5.47109 131.04 5.5888 130.991 5.76214C130.843 6.28968 130.772 6.83862 130.656 7.45818ZM126.188 6.63424C126.378 6.39669 126.513 6.22976 126.637 6.04999C126.574 5.97342 126.497 5.90857 126.41 5.85845C126.238 5.99275 126.08 6.14484 125.94 6.31215C125.925 6.33034 126.06 6.47052 126.188 6.63424ZM131.741 4.00084C131.585 4.16985 131.44 4.34856 131.307 4.53586C131.293 4.55834 131.504 4.76379 131.516 4.74988C131.679 4.63571 131.828 4.5032 131.96 4.35503C131.98 4.3272 131.86 4.18596 131.741 4.00084Z" fill="white"/>
<path d="M35.0856 24.5314C32.8702 27.7564 28.3887 28.1411 25.7338 25.6759C23.203 23.3238 23.1728 19.1727 25.6571 16.7368C28.2677 14.176 32.894 14.5629 35.0186 17.7836V15.3129H36.1689C36.1797 15.4705 36.1981 15.627 36.1981 15.7836C36.1981 19.0263 36.1981 22.268 36.1981 25.5085C36.1981 26.6922 36.0728 27.8618 35.55 28.9444C34.727 30.6433 33.3033 31.5531 31.5092 31.865C29.0163 32.2933 26.735 31.689 24.6655 30.2422C24.5931 30.1922 24.5305 30.127 24.4235 30.0335C24.5316 29.8661 24.632 29.7074 24.74 29.5477C24.848 29.3879 24.9561 29.2585 25.0273 29.1553C25.9357 29.602 26.7977 30.0824 27.7039 30.4596C28.7711 30.9009 29.915 30.9607 31.0523 30.8064C33.178 30.515 34.5088 29.2292 34.8901 27.0607C35.0294 26.2303 35.0229 25.3748 35.0856 24.5314ZM29.8123 16.2042C26.8722 16.3238 24.9615 18.4531 25.0922 21.464C25.2077 24.1118 27.4868 26.2466 30.0845 26.1379C32.9577 26.0194 35.1234 23.7466 35.0197 20.9683C34.9181 18.2292 32.5829 16.0923 29.8123 16.2042Z" fill="white"/>
<path d="M77.6866 17.0815L77.2432 16.1439C78.4049 15.5581 79.6254 15.1665 80.9072 15.0914C81.9869 15.0281 83.1104 15.0442 84.1612 15.2545C86.2236 15.6686 87.5192 17.0676 87.5862 19.0544C87.6843 21.9799 87.6116 24.9098 87.6116 27.8868H86.4257V26.0298C86.2328 26.195 86.137 26.2637 86.0562 26.3463C84.2686 28.184 81.1404 28.7665 78.7028 27.713C76.9107 26.9385 76.0835 25.5985 76.2213 23.6932C76.3368 22.1291 77.3656 20.92 79.1774 20.4523C80.1081 20.212 81.1012 20.1304 82.0712 20.0864C83.3414 20.0264 84.6116 20.0564 85.8749 20.08C86.3183 20.0875 86.4233 19.947 86.406 19.5522C86.3137 17.4709 84.9049 16.2383 82.4453 16.1192C80.898 16.0516 79.801 16.2694 77.6866 17.0815ZM86.5596 21.1582C84.7513 21.1582 83.1589 21.1399 81.5677 21.1678C81.0114 21.1851 80.4587 21.257 79.9187 21.3824C78.3876 21.7182 77.6601 22.496 77.5123 23.8852C77.3829 25.1018 78.0896 26.2047 79.3714 26.7636C80.3818 27.2056 81.4499 27.271 82.525 27.0736C84.2571 26.7582 85.6705 25.9804 86.1635 24.3283C86.4603 23.3295 86.4337 22.2557 86.5596 21.1582Z" fill="white"/>
<path d="M67.5658 27.9086H66.4261V25.9476C65.4029 27.1289 64.2274 27.7862 62.8178 28.0708C61.2225 28.393 59.6802 28.2641 58.2544 27.4865C56.7017 26.6403 56.0626 25.3386 56.2276 23.6901C56.3868 22.1071 57.2877 20.9902 58.913 20.5413C59.9443 20.2556 61.0494 20.1396 62.1291 20.0806C63.5226 20.0054 64.923 20.0623 66.3061 20.0623C66.7249 18.5996 65.7109 16.9393 64.0913 16.4173C62.5063 15.9072 60.9156 16.0361 59.3422 16.4839C58.7977 16.6396 58.2705 16.8501 57.688 17.052C57.5484 16.7621 57.41 16.4732 57.2485 16.1392C58.3766 15.556 59.5798 15.1651 60.8372 15.091C61.9699 15.0244 63.15 15.0502 64.254 15.2736C66.2242 15.672 67.5127 17.0993 67.575 18.9798C67.6708 21.8923 67.6177 24.8092 67.6258 27.7239C67.6139 27.7875 67.5937 27.8495 67.5658 27.9086ZM66.433 21.1266C65.0488 21.1266 63.7106 21.0998 62.3737 21.1373C61.5506 21.1474 60.7301 21.2268 59.9224 21.3747C58.4366 21.6711 57.6845 22.4637 57.5507 23.717C57.4019 25.1131 58.0363 26.1677 59.3837 26.7563C60.3942 27.1977 61.4601 27.261 62.5352 27.0634C64.2424 26.752 65.5702 25.9658 66.1758 24.3678C66.568 23.3336 66.4549 22.2596 66.433 21.1266Z" fill="white"/>
<path d="M89.8188 28.2353H88.5901V15.3345H89.8109V17.6098L89.9386 17.6337C89.9842 17.5862 90.0268 17.5361 90.0662 17.4837C91.5818 15.1607 94.3645 14.6359 96.7678 15.3639C98.7092 15.9517 99.6025 17.4022 99.9007 19.2472C99.9789 19.7661 100.017 20.2898 100.014 20.8141C100.026 23.0958 100.019 25.3776 100.019 27.6594V28.2255H98.8086C98.7995 28.031 98.7826 27.8387 98.7826 27.6475C98.7826 25.5656 98.7961 23.4837 98.7724 21.403C98.7694 20.7162 98.7078 20.0308 98.5883 19.3537C98.1038 16.7362 96.1105 15.9289 93.845 16.232C91.7546 16.5113 90.3734 17.9499 89.9961 20.1513C89.8842 20.8487 89.8275 21.5534 89.8267 22.2592C89.803 24.0325 89.8188 25.8068 89.8188 27.5834V28.2353Z" fill="white"/>
<path d="M42.0624 28.2353H40.961V15.3481H42.0272V17.8109C42.2073 17.5861 42.2964 17.496 42.3616 17.3907C44.0831 14.588 47.5736 14.676 49.2972 15.7618C50.6212 16.5991 51.2392 17.926 51.3313 19.4668C51.4462 21.3965 51.4141 23.3358 51.4348 25.2709C51.4452 26.2481 51.4348 27.2146 51.4348 28.2179H50.323C50.3127 27.9725 50.2951 27.7445 50.293 27.5164C50.2744 25.0743 50.263 22.63 50.234 20.189C50.2231 19.8272 50.1742 19.4677 50.0881 19.1172C49.7195 17.5014 48.8148 16.4481 47.1896 16.2255C45.4681 15.9899 44.0054 16.4763 43.0034 18.0552C42.2363 19.2627 42.079 20.6461 42.0717 22.0523C42.0562 23.8983 42.0717 25.7443 42.0717 27.5903L42.0624 28.2353Z" fill="white"/>
<path d="M120.949 17.3027L120.245 18.0742C118.767 16.654 117.061 15.8932 115.005 16.2416C113.763 16.4553 112.76 17.1061 111.988 18.1041C110.23 20.3845 110.509 23.8328 112.598 25.798C114.371 27.4628 117.611 27.9084 120.276 25.1995L120.978 25.8279C120.015 27.5643 116.97 28.6318 114.554 28.0965C111.667 27.4553 109.788 25.1493 109.562 21.9553C109.364 19.162 111.094 16.4296 113.675 15.4572C116.197 14.5051 119.438 15.314 120.949 17.3027Z" fill="white"/>
<path d="M0 15.079C0.455697 15.079 0.847575 15.036 1.22154 15.0988C1.38053 15.1253 1.55743 15.3468 1.63357 15.5198C3.20108 18.9437 4.76299 22.3714 6.3193 25.8027C6.44022 26.0683 6.56674 26.3328 6.74477 26.7118C6.86905 26.4661 6.95862 26.3052 7.03364 26.1377C8.54889 22.7696 10.0627 19.401 11.5749 16.0321C12.0452 14.9864 12.0441 14.9864 13.3361 15.1198C13.2622 15.2972 13.2018 15.4602 13.129 15.6178C11.2659 19.6552 9.39498 23.6904 7.54644 27.7388C7.37289 28.1178 7.16352 28.2457 6.75037 28.2346C6.33721 28.2236 6.09201 28.163 5.89719 27.741C4.02962 23.6981 2.13293 19.675 0.240725 15.6487C0.169067 15.4856 0.103008 15.3181 0 15.079Z" fill="white"/>
<path d="M19.2242 28.2353H18.0991V15.2353H19.2019V18.5552C20.4902 16.4059 22.1895 15.0479 24.7671 15.0589V16.3029C24.3963 16.35 24.0086 16.3643 23.6367 16.4508C21.2498 16.9989 19.9139 18.6429 19.4382 21.0355C19.2485 21.9901 19.2549 22.9919 19.2326 23.974C19.1998 25.3747 19.2242 26.7765 19.2242 28.2353Z" fill="white"/>
<path d="M68.5859 12.2353H69.7942V15.408H72.3962V16.4935H69.8165V28.2353H68.5881L68.5859 12.2353Z" fill="white"/>
<path d="M105.737 15.4293V16.4936H103.144V28.2353H101.926V12.2353H103.133V14.686C103.133 15.4228 103.133 15.4228 103.866 15.4228L105.737 15.4293Z" fill="white"/>
<path d="M74.3014 28.2353H73.3488V12.2353H74.3014V28.2353Z" fill="white"/>
<path d="M16.1939 28.2353H14.2887V15.0588H16.1939V28.2353Z" fill="white"/>
<path d="M39.0558 28.2353H38.1033V15.0588H39.0558V28.2353Z" fill="white"/>
<path d="M107.642 28.2353H106.689V15.0588H107.642V28.2353Z" fill="white"/>
<path d="M14.2887 13.1765V12.2353H16.1939V13.1765H14.2887Z" fill="white"/>
<path d="M38.1033 12.2353H39.0558V13.1765H38.1033V12.2353Z" fill="white"/>
<path d="M107.642 12.2353V13.1765H106.689V12.2353H107.642Z" fill="white"/>
</svg>
