<svg xmlns="http://www.w3.org/2000/svg" width="161" height="14" fill="none"><path fill="red" d="m151.605 0-7.194 10.192c-.948 1.341-2.484 2.632-4.341 2.77v.313h8.003c2.125 0 3.674-1.353 4.724-2.845L160.185 0z"/><path fill="#051039" d="M19.097 13.276V1.12h3.622v12.156zm83.545 0-8.703-7.219v7.218h-3.06V1.12h2.599l8.588 7.105V1.12h3.059v12.156zm18.931-8.235c-1.638-.789-3.481-1.428-5.926-1.428-2.919 0-5.095 1.479-5.095 3.534 0 2.105 2.215 3.597 5.069 3.597 2.357 0 4.224-.59 6.067-1.63v3.008c-1.626.79-3.788 1.378-6.22 1.378-4.966 0-8.871-2.48-8.871-6.353 0-3.81 3.981-6.254 8.857-6.254 2.304 0 4.39.426 6.119 1.116zM42.88 13.275V1.12h12.108v2.606h-8.487v3.02h8.295v2.607h-8.295v3.923zm80.882 0V1.12h12.569v2.606h-8.947v2.106h8.806v2.606h-8.806v2.231h8.908v2.606zM67.57 8.715l5.005 4.561h-3.866c-.857 0-1.42-.263-1.868-.69l-3.405-3.232a.41.41 0 0 0-.294-.1h-2.317v4.022h-3.622V1.12h7.846c4.07 0 5.786 1.792 5.786 3.772 0 2.305-2.1 3.407-3.265 3.822m-2.892-2.005c1.433 0 2.124-.714 2.124-1.517s-.614-1.466-2.124-1.466h-3.853V6.71zm-28.2 2.005 5.005 4.561H37.62c-.858 0-1.422-.263-1.869-.69l-3.405-3.232a.41.41 0 0 0-.295-.1h-2.316v4.022h-3.623V1.12h7.847c4.07 0 5.785 1.792 5.785 3.772 0 2.305-2.099 3.407-3.264 3.822m-2.891-2.005c1.433 0 2.125-.714 2.125-1.517s-.615-1.466-2.125-1.466h-3.853V6.71zm-20.16 6.567-1.588-2.67H4.902l-1.446 2.67H0L6.912 1.131h3.15l7.833 12.144zM6.285 8.073h4.044L8.23 4.365zm79.474 5.201-1.549-2.67h-6.758l-1.395 2.67H72.69l6.733-12.143h3.059l7.616 12.144zm-6.95-5.2h3.942l-2.048-3.71z"/></svg>