<svg width="195" height="34" xmlns="http://www.w3.org/2000/svg"><g fill="#0060A9"><path d="M184.606 30.427c-1.9-.545-4.227-.58-6.73-.104-2.58.491-5.285 1.524-7.826 2.982a24.5 24.5 0 0 0-1.138.695h20.082a6.12 6.12 0 0 0-.206-.441c-.793-1.49-2.242-2.574-4.182-3.132z"/><path d="M189.765 28.685c-.956-1.796-2.698-3.1-5.036-3.77-2.286-.661-5.087-.704-8.101-.13-3.103.592-6.36 1.833-9.414 3.59-2.306 1.326-4.407 2.884-6.214 4.604V34h6.756a27.913 27.913 0 0 1 2.506-1.76c3.166-1.986 6.681-3.321 9.9-3.764 3.186-.438 5.928.017 7.723 1.285 1.407.992 2.193 2.43 2.343 4.239h.238l.086-.854c.169-1.662-.098-3.163-.787-4.46zm-28.033-9.637c-.246.144-.49.285-.732.432v2.858c6.96-5.086 14.491-6.856 20.695-7.256-5.227-1.504-12.753-.178-19.963 3.966z"/><path d="M184.769 15.744c.249.208.49.428.715.663 0 0 1.652 1.71 2.198 3.329l-.53-.836c-.838-1.322-2.037-2.346-3.519-3.074-6.722.56-15.262 2.649-22.633 8.733v.46a37.184 37.184 0 0 1 6.333-4.077c2.387-1.213 4.798-2.111 7.167-2.668 2.384-.56 4.613-.753 6.632-.57 3.879.349 6.66 2.046 8.048 4.913 0 0 1.063 2.153 1.157 4.34l-.298-1.246a7.708 7.708 0 0 0-.692-1.829c-1.059-1.987-2.985-3.434-5.574-4.175-2.53-.728-5.627-.776-8.96-.142-3.438.657-7.04 2.029-10.418 3.973a36.495 36.495 0 0 0-3.395 2.2v6.725a31.753 31.753 0 0 1 3.983-3.493 34.548 34.548 0 0 1 6.952-4.012c4.933-2.125 9.761-2.79 13.243-1.829 3.226.895 5.148 3.118 5.56 6.43 0 0 .22 2.118-.203 4.44H195V16.185c-1.198-.201-5.097-.753-10.231-.441zm-17.158-6.415c-2.165.37-4.409 1.067-6.611 2.046v.847a35.6 35.6 0 0 1 8.726-3.154 21.85 21.85 0 0 0-2.115.26z"/><path d="M161 0v9.067s3.825-1.32 7.887-.704l-1.619.063c-1.989.074-4.13.534-6.268 1.328v1.006c3.33-1.53 7.246-2.306 10.647-2.067 8.516-1.442 15.298.316 15.298.316-1.323-.221-6.532-.954-12.953.017a9.32 9.32 0 0 1 2.549.998l-.793-.284a12.328 12.328 0 0 0-2.523-.59c-3.867.658-8.122 1.948-12.225 4.335v.501c6.182-3.376 12.833-4.64 17.657-2.905 7.724-.556 13.408 1.016 13.408 1.016-1.297-.218-5.91-.871-11.856-.317.333.185 1.78 1.03 2.394 1.895l-.352-.286c-.804-.643-1.745-1.154-2.793-1.535-5.607.61-12.287 2.316-18.458 6.427v.465c.53-.344 1.07-.677 1.617-.996 4.41-2.581 9.067-4.157 13.112-4.437 3.177-.22 5.902.359 8.008 1.682 6.392-.128 10.961 1.104 11.263 1.187V0h-34z"/><path d="M161 14.609v1.854c5.44-3.236 11.057-4.69 15.996-5.23-4.53-.715-10.347.454-15.996 3.376zM70.983 7.442h4.266c.744 1.61 6.88 14.935 6.88 14.935h-3.894l-1.61-3.484h-7.068l-1.564 3.487h-3.915l6.905-14.938zm4.421 8.725-2.289-5.117-2.314 5.117h4.603zm45.976-5.385c-2.476 0-3.673 1.307-3.673 1.307l-.205-1.079h-3.326c.125.404.352 1.165.352 1.826v9.545h3.288v-6.603c0-1.795 1.088-2.712 3.564-2.712 1.36 0 2.186.455 2.186 2.712v6.603h3.288v-6.603c0-3.397-1.088-4.996-5.474-4.996zm14.794.035c-5.6 0-6.85 2.65-6.85 5.888 0 3.267 1.221 5.914 7.124 5.914 2.161 0 4.173-.403 4.635-.501.087-.574.277-1.833.34-2.264-.31.033-2.866.505-4.975.505-2.737 0-3.478-1.048-3.699-2.51h9.479v-1.145c0-4.084-2.161-5.887-6.054-5.887zm-3.425 4.745c.193-1.414.824-2.484 3.425-2.484 1.913 0 2.6 1.234 2.71 2.484h-6.135zm-107.74-4.753c-4.113 0-6.854 1.825-6.854 5.91 0 4.112 2.74 5.914 6.854 5.914 4.113 0 6.85-1.802 6.85-5.914 0-4.085-2.737-5.91-6.85-5.91zm0 9.565c-2.75 0-3.563-1.37-3.563-3.655 0-2.254.813-3.627 3.563-3.627 2.739 0 3.562 1.373 3.562 3.627 0 2.284-.823 3.655-3.562 3.655zm36.603-5.934c0-2.29-2.438-3.658-6.026-3.658-1.85 0-4.125.723-4.91.993-.076.483-.31 1.986-.357 2.301.716-.158 3.522-1.01 5.267-1.01 1.801 0 2.736.618 2.736 1.51v.974s-2.214-.227-3.01-.227c-3.59 0-5.76 1.298-5.76 3.655 0 2.972 3.27 3.63 4.932 3.63 2.254 0 3.427-.611 3.977-1.116l.189.89h3.3c-.042-.177-.338-.966-.338-2.033v-5.91zm-3.29 3.624c0 2.102-1.991 2.285-3.838 2.285-.63 0-1.635-.135-1.635-1.371 0-.821 1.114-1.37 2.462-1.37h3.011v.456zM8.978 7c3.857-.003 6.263 1.222 7.59 3.163l-3.448 1.334c-.748-1.052-2-1.756-4.095-1.768h-.09c-2.06.01-3.299.671-4.053 1.683-.66.894-1.022 2.034-1.022 3.328v.219h-.002c.014 1.24.376 2.423 1.024 3.293.753 1.012 1.992 1.669 4.05 1.68l.092-.002c2.059-.01 3.306-.686 4.056-1.71l3.489 1.34c-1.335 1.905-3.763 3.073-7.574 3.073h-.02c-3.39.001-5.67-.903-7.064-2.453C.645 18.792 0 16.932 0 14.88v-.14c0-2.005.648-3.869 1.911-5.255C3.305 7.94 5.581 7 8.978 7zm95.676 13.58V7.45h-3.293v13.13c0 .8.276 1.61.344 1.8H105c-.05-.188-.345-.962-.345-1.8zm-11-4.83c.013-1.757 1.291-2.684 3.562-2.684.375 0 1.864.197 2.504.273-.038-.291-.265-1.713-.36-2.287-.466-.088-1.518-.27-2.144-.27-1.928 0-3.012.71-3.618 1.254l-.28-1.025h-3.302c.062.23.342 1 .347 1.799v9.569h3.29V15.75zm-52.47-4.955c-2.058 0-3.648 1.211-3.648 1.211s-.176-.673-.246-.98h-3.311c.118.406.347 1.203.347 2.054V26h3.291v-4.494c.659.484 1.895 1.114 3.567 1.114 5.512 0 6.308-2.645 6.308-5.913 0-3.237-.796-5.912-6.308-5.912zm0 9.567c-2.801 0-3.567-1.6-3.567-3.655.054-2.19.766-3.627 3.567-3.627 2.525 0 3.02 1.598 3.02 3.627 0 2.056-.495 3.655-3.02 3.655zm112.908-8.972v2.576a8.812 8.812 0 0 0-2.015-.789c-.7-.178-1.4-.267-2.102-.267-.78 0-1.37.096-1.772.287-.396.191-.597.475-.597.852 0 .536.854.974 2.562 1.308l.133.031 1.003.202c1.278.257 2.212.666 2.806 1.233.594.568.89 1.337.89 2.297 0 1.164-.45 2.038-1.357 2.617-.905.579-2.268.872-4.086.872-.805 0-1.632-.06-2.477-.179a20.392 20.392 0 0 1-2.572-.526v-2.58c.773.37 1.56.65 2.365.846a9.63 9.63 0 0 0 2.325.296c.821 0 1.443-.103 1.868-.306.423-.203.633-.492.633-.877a.99.99 0 0 0-.449-.866c-.298-.201-1.012-.415-2.136-.644l-.969-.18c-1.34-.252-2.317-.655-2.933-1.197-.612-.543-.92-1.276-.92-2.186 0-1.088.465-1.934 1.401-2.54.932-.603 2.245-.905 3.936-.905a16.9 16.9 0 0 1 2.268.154 15.3 15.3 0 0 1 2.195.47zm-42.857 9.19v-9.576h-3.29v9.577c0 .848.313 1.684.358 1.8h3.28c-.059-.214-.348-.984-.348-1.8zm-1.656-10.445c.715 0 1.2-.098 1.467-.295.264-.197.394-.554.394-1.069 0-.494-.128-.84-.38-1.035-.259-.19-.74-.29-1.453-.29-.725 0-1.214.1-1.473.301-.257.2-.388.56-.388 1.075 0 .496.127.838.374 1.027.252.19.738.286 1.46.286zM87.066 20.58v-9.576h-3.29v9.577c0 .848.313 1.684.36 1.8h3.278c-.058-.214-.348-.984-.348-1.8zm-1.653-10.445c.712 0 1.2-.098 1.464-.295.263-.197.395-.554.395-1.069 0-.494-.128-.84-.38-1.035-.261-.19-.74-.29-1.453-.29-.725 0-1.214.1-1.474.301-.256.2-.387.56-.387 1.075 0 .496.125.838.372 1.027.254.19.74.286 1.463.286z"/></g></svg>