<svg xmlns="http://www.w3.org/2000/svg" width="46" height="40" viewBox="0 0 46 40" fill="none"><path fill="#000F9F" fill-rule="evenodd" d="M31.159 33.87h1.095v.015c-.092.04-.135.133-.143.236.045.526.094 1.054.137 1.58.022.238.01.57.08.78.072.204.215.473.474.473.199-.021.263-.127.328-.302.07-.305.07-.552.07-.829V34.47c0-.173-.037-.426.083-.534.104-.112 1.008-.065 1.232-.065v.016a.21.21 0 0 0-.099.123c-.035.11-.02.264-.02.393V37.455c0 .53.058 1.105-.123 1.541-.167.407-.644.737-1.043.843a2.777 2.777 0 0 1-.496.073 9.205 9.205 0 0 1-.61.021c-.125 0-.253-.008-.357.032-.015.013-.045.013-.045.035h-.03v-1.166c0-.026-.017-.114.012-.114 0 .005.014.015.02.015.19.275.607.265.929.265a.663.663 0 0 0 .328-.125c.216-.155.22-.365.224-.639v-.589c-.034.02-.024.02-.034.02-.194.104-.496.079-.728.067-.179-.006-.328-.073-.471-.144-.103-.053-.203-.1-.287-.174-.47-.424-.468-1.485-.583-2.117l-.112-.845c-.016-.125-.05-.282-.006-.398.027-.09.094-.136.174-.187ZM22.962 33.87h1.455c-.004.005-.116.062-.138.186l-.015.147c-.03.26-.03.56.006.813.027.13.053.26.074.383-.004 0 .01.002 0 0 0-.004.018-.004.018-.014.135-.182.634-1.231.87-1.231.078.106.177.2.261.302.167.22.293.47.426.707.041.079.087.155.126.236.008-.002.012 0 .02 0 .021-.122.049-.248.074-.365.037-.195.053-.927-.049-1.059-.03-.037-.067-.086-.055-.106h1.408v.016a.22.22 0 0 0-.102.135c-.032.144-.027.307-.032.466-.029.632-.025 1.45-.288 1.964-.098.19-.21.384-.352.557-.08.077-.16.15-.241.224-.143.124-.285.265-.446.37-.018.007-.035.007-.033.029h-.036c-.092-.31-.241-.637-.373-.933-.07-.163-.114-.365-.21-.513a.155.155 0 0 0-.104-.07c-.057-.012-.112.025-.137.07a17.11 17.11 0 0 0-.152.35c-.1.247-.2.497-.306.75-.04.114-.086.23-.13.344-.021 0-.03.014-.03-.014-.133-.055-.239-.179-.353-.27-.642-.525-.913-1.107-.964-1.965-.014-.296-.035-.599-.053-.9-.006-.156.012-.337-.031-.474-.02-.057-.065-.095-.108-.136ZM20.356 33.87h1.043c0 .12-.038.349.117.349.23-.212.464-.427.813-.326.08.021.167.057.215.127.04.057.037.16.049.234.033.283.076.562.113.848h-.023a.809.809 0 0 0-.615-.141c-.288.08-.536.298-.6.593-.038.145-.01.338-.01.5v.78c0 .132-.034.784.074.784v.014h-1.196v-.014c.006 0 .022-.014.022-.016a.374.374 0 0 0 .063-.167c0-.864 0-1.72.002-2.584-.002-.255.045-.805-.067-.982ZM18.987 33.87h.93v.015c-.068.037-.093.112-.105.184-.043.273 0 .611.008.884v1.881c-.002.203-.063.784.202.784v.014h-1.35c0-.004.013-.01.013-.014-.004 0 .004 0 0 0 .037-.041.068-.075.09-.122.057-.153.03-.55.03-.748v-2.38l.01-.252c0-.16.08-.192.172-.247ZM36.91 33.785c.05.039.05.832.022.927a.225.225 0 0 1-.108.143.43.43 0 0 1-.175.027c-.257.002-.322-.115-.514-.165a.246.246 0 0 0-.197.034.152.152 0 0 0-.066.135c-.002.193.233.293.353.409.538.499 1.21 1.133.672 1.903-.154.21-.474.424-.662.424-.09.006-.145.006-.238.01h-.648c-.192 0-.373-.004-.514.092-.014.006-.042.028-.055.028 0-.419-.006-.833 0-1.252 0-.033-.002-.096.037-.096 0 0 .04.079.218.203.143.1.62.328.784.166.07-.066.08-.159.056-.255-.106-.39-.414-.5-.695-.728-.43-.364-.777-.95-.39-1.463.184-.258.51-.423.84-.423.228-.02.752-.02.982-.02.206.003.237-.07.298-.1ZM19.087 31.92c.142 0 .26.003.383.038.768.23.644 1.38-.165 1.485-.773.102-1.133-.895-.546-1.37.089-.07.212-.144.328-.144v-.01ZM17.99 28.135c.049.169.017.461.017.652v8.03c0 .206-.033.453.024.634.015.059.084.169.157.169a.016.016 0 0 1 0 .014h-1.632c-.035 0-.179.015-.179-.014a.466.466 0 0 0 .203-.287c.03-.14.011-.324.011-.479V30.507c-.909.028-1.16 1.78-1.292 2.486-.04.265-.08.53-.126.797.556.071 1.004.222 1.22.778.043.116.112.271.112.403a3.633 3.633 0 0 1-.236-.09 1.431 1.431 0 0 0-.367-.071c-.295-.03-.587.047-.884.047-.08 1.327-.693 2.665-2.142 2.777a3.414 3.414 0 0 1-1.053-.085c-.07-.016-.143-.045-.214-.07-.047-.024-.096-.05-.147-.073v-.034c.18-.055.35-.155.518-.245.725-.371 1.279-.962 1.566-1.718.04-.108.149-.358.149-.474-.155.012-.324.03-.483.016a1.225 1.225 0 0 1-.507-.188c-.481-.281-.695-.68-.695-1.253h.015c.002.008.002.01 0 .014.17.064.315.172.486.23.506.21 1.347.062 1.347.037h.015c0-.372.055-.737.114-1.082.183-1.132.552-2.265 1.506-2.958.283-.206.601-.365.93-.489.498-.194 1.02-.334 1.366-.793.077-.108.16-.216.2-.334ZM29.584 26.74c.174 0 .3-.007.453.028.134.03.246.104.358.198.088.077.19.173.251.28.185.317.175.71.175 1.125v1.449c0 .149.002.3.008.45.01.062.05.235.139.235 0 .008-.002.01-.002.014h-.71c-.113 0-.23.016-.33-.006a.272.272 0 0 1-.187-.165c-.05-.126-.018-.328-.018-.471 0-.428-.004-.847 0-1.265 0-.165.03-.371-.014-.514a.463.463 0 0 0-.302-.264.507.507 0 0 0-.544.264c-.057.123-.02.434-.02.593v1.828h-1.084v-3.115l-.008-.38c-.005-.06-.106-.205-.088-.252a.394.394 0 0 1 .051-.012c.083-.004.165.002.244 0h.571c.09 0 .304.016.304.016.05.02.14.153.14.2-.008 0 .006 0 0 0 0-.008.018-.011.02-.017.074-.042.15-.083.231-.122a.843.843 0 0 1 .362-.096ZM43.088 23.875c.034.075.016.185.016.277-.002.24-.002.47-.002.701.002 1.05 0 2.094 0 3.135.014 0 .038 0 .038-.008.274-.104.61-.485.722-.811.045-.142-.014-.395-.014-.395.02-.026.913-.016 1.055-.016a1.966 1.966 0 0 1-.646 1.42 1.01 1.01 0 0 1-.238.161c0-.008 0 .012 0 0 .118.075.214.173.307.261.447.446.78 1.247.78 1.915h-1.17v-.014c.026 0 .056-.214.048-.318-.016-.54-.363-1.02-.813-1.272a3.025 3.025 0 0 1-.104-.055h-.01l.002 1.345c.002.123.084.294.084.312h-1.168c0-.004-.002-.006 0-.014.008 0 .02-.011.02-.017.116-.142.066-.914.068-1.165-.002-1.037 0-2.076-.002-3.114 0-.24.002-.478 0-.715-.005-.118-.005-.208-.011-.326.004-.087-.079-.228-.157-.228 0 0-.002-.022.049-.065.045-.037.75-.652 1.146-.994ZM36.113 23.875c.063.073.037.914.035 1.077v3.036s.032 0 .032-.008c.253-.079.685-.564.727-.843a1.04 1.04 0 0 0-.006-.227c-.012-.052-.02-.13-.024-.152 0 0 0 .002.006 0h1.062c-.017.566-.251 1.092-.685 1.448-.047.035-.17.141-.198.149 0-.008 0 .014 0 0 .094.063.147.114.212.175.455.39.695.952.81 1.525.028.154.06.303.06.464h-1.165c0-.004.057-.126.037-.426-.056-.509-.31-.837-.699-1.104 0 0-.194-.128-.22-.128 0 .474-.021.918.004 1.381.002.07.012.132.038.196.011.024.043.083.043.083h-1.165c0-.004 0 0 .022-.047.08-.106.063-.917.063-1.163V25.46c-.006-.1.01-.222-.014-.316-.022-.07-.077-.184-.17-.198 0 0 .015-.038.082-.093l.606-.518c.163-.161.358-.29.507-.46ZM29.66 33.893c-.063.027-.088.088-.118.143-.004.004-.004.01-.004.016h-.015c0-.028-.047-.051-.069-.06-.242-.142-.542-.12-.864-.12-.075.02-.16.044-.23.068a.927.927 0 0 0-.343.253c-.099.128-.177.29-.215.448-.121.465-.174.96-.25 1.445-.032.214-.09.493-.032.715.06.216.216.416.394.562.265.212.864.334 1.241.243.067-.016.12-.027.177-.067.043-.025.08-.08.142-.084.074-.002.092.065.139.106a.273.273 0 0 0 .147.063c.124.006.254.006.383.01h.629v-.014c-.03 0-.047-.033-.063-.055-.134-.218-.1-.522-.1-.815v-1.695c0-.286.002-.57.007-.852.008-.134.093-.238.156-.318v-.016h-.745c-.121 0-.27-.02-.367.024Zm-.112 2.602a.648.648 0 0 1-.265.279c-.04.021-.082.04-.128.06-.15 0-.282-.027-.379-.141-.235-.326-.027-1.579.175-1.864.041-.06.1-.084.157-.11.146 0 .33-.005.415.11.027.036.039.073.04.124.009.344.007.691.009 1.033-.002.155.035.38-.024.509ZM41.311 28.054c-.025-.17-.041-.355-.092-.514a1.235 1.235 0 0 0-.322-.526c-.332-.315-1.05-.283-1.326-.258l-.212.034a1.085 1.085 0 0 0-.903.799c-.08.289-.096.615-.13.913-.035.297-.086.65-.043.966.055.362.304.707.636.876.427.224 1.135.232 1.619.088.359-.102.675-.384.809-.732.17-.428.023-1.188-.036-1.646Zm-.988 1.018c-.017.166-.031.328-.108.47a.375.375 0 0 1-.273.215c-.153 0-.275-.008-.373-.106-.251-.251-.198-.791-.178-1.16.008-.25.017-.52.147-.708.051-.08.179-.12.257-.127.15 0 .24 0 .34.112.177.188.145.638.17.92.014.146.026.258.018.384ZM33.768 26.756c-.108 0-.263 0-.324.016-.074.026-.11.096-.121.165 0 0-.112-.069-.146-.086l-.17-.071a1.934 1.934 0 0 0-.653-.024c-.106.008-.208.057-.214.057a.894.894 0 0 0-.384.31c-.283.438-.29 1.031-.391 1.564-.053.275-.126.65-.087.952.016.124.087.25.16.348.298.385.799.567 1.315.524.208-.012.39-.078.583-.108v.782c.002.08.014.216-.01.312-.025.076-.068.298-.437.322-.158.01-1.016.04-1.23-.218-.004 0 0 0-.014-.016-.035 0-.023.102-.023.132v1.27h.014c.021-.218.622-.174.783-.188.307-.038.637-.01.933-.075.348-.07.69-.326.833-.66.222-.508.18-1.17.18-1.796v-2.813c0-.125-.006-.267.018-.38a.627.627 0 0 1 .134-.285c.02-.034.02-.01.02-.034h-.769Zm-.46 2.642a.45.45 0 0 1-.357.359c-.153.01-.304-.018-.406-.16-.236-.323-.041-1.61.177-1.886.039-.061.092-.071.143-.104.153-.04.397-.026.436.127.055.083.055 1.55.008 1.664ZM26.1 26.764c-.07.03-.12.108-.142.173-.002 0 .016 0 0 0 0 .006.002-.006 0 0-.031 0-.086-.069-.113-.08a.54.54 0 0 0-.205-.077 1.698 1.698 0 0 0-.854.035.93.93 0 0 0-.371.29c-.306.445-.306 1.089-.412 1.629-.018.159-.04.312-.06.47-.019.123-.047.264-.021.394a.96.96 0 0 0 .312.562c.316.29.845.41 1.306.335.063-.013.13-.027.185-.059.049-.035.102-.102.167-.102.067 0 .096.069.141.11a.386.386 0 0 0 .157.067c.336 0 .67.004 1 .004v-.014c-.173 0-.193-.634-.177-.781.022-.25.01-.525.012-.788-.002-.396-.002-.8 0-1.198 0-.206-.032-.49.01-.68a.958.958 0 0 1 .155-.284v-.016h-.813c-.098 0-.224-.017-.299.016m-.1 2.575a.424.424 0 0 1-.19.302.479.479 0 0 1-.226.075c-.2 0-.356-.079-.43-.254-.057-.123-.038-.24-.038-.38.008-.423.07-1.08.281-1.387.038-.057.118-.098.151-.098.17 0 .33.006.428.137.054.065.067 1.489.024 1.605ZM22.133 25.24l.126-.202c.041-.09.067-.185.088-.28.134-.63-.118-1.236-.473-1.678-.346-.424-.8-.64-1.275-.81-.23-.078-.455-.148-.681-.225-.167-.047-.348-.086-.491-.177a1.498 1.498 0 0 1-.414-.386c-.073-.097-.152-.193-.193-.307h-.03v9.513c.105 0 .35-.14.462-.185.14-.065.314-.104.483-.112.407-.027.815.034 1.212.047.77.02 1.341-.182 1.87-.632.227-.196.392-.448.538-.693.657-1.137.284-2.378-.527-3.266-.17-.196-.47-.514-.695-.607Zm-.457 3.586a1.21 1.21 0 0 1-.391.193c-.08.023-.155.045-.236.066a.748.748 0 0 1-.133.014c-.222 0-.454-.006-.678-.014 0-.006 0 .004 0 0-.031 0-.022-.117-.022-.153v-5.456c.425.219.996.604.886 1.197a.81.81 0 0 1-.224.438 1.08 1.08 0 0 1-.395.233c-.06.022-.121.042-.18.06-.028 0-.012.044-.004.066.027.202.09.385.226.526.1.106.24.154.353.232.373.238.821.412 1.074.81.348.535.267 1.41-.277 1.788Z" clip-rule="evenodd"/><path fill="#EA0029" fill-rule="evenodd" d="M15.61 19.626c.023.07.017.175.017.263v.452c.01.693.018 1.422.018 2.13v1.619c.002.112.008.224.014.328.002.367-.012.728-.052 1.074a4.613 4.613 0 0 1-1.535 2.886 5.73 5.73 0 0 1-.955.684c-.106.05-.212.108-.32.16-.008.007-.02.007-.035.007h-.041c-.175-.112-.35-.224-.525-.334a3.433 3.433 0 0 0-1.229-.436c-.21-.035-.456-.067-.683-.035-1.375.184-2.773 1.247-3.402 2.478-.192.375-.343.75-.422 1.182a3.886 3.886 0 0 0-.025 1.015c.116 1.19.544 2.163 1.366 2.987.438.44.89.79 1.379 1.124.177.11.36.223.54.331.016.016.033.016.033.042h.014v.015c-.722-.025-1.55-.445-2.097-.832-.403-.275-.788-.544-1.15-.913a4.854 4.854 0 0 1-.515-.654c-.177-.261-.364-.523-.493-.8a5.77 5.77 0 0 1-.536-2.8 6.299 6.299 0 0 1 .359-1.68c.106-.296.269-.564.43-.826.807-1.331 2.233-2.172 3.466-3.014.797-.538 1.593-1.08 2.388-1.622.764-.517 1.528-1.023 2.18-1.719.597-.64 1.025-1.388 1.378-2.152.148-.316.31-.628.432-.96Z" clip-rule="evenodd"/><path fill="#85754E" fill-rule="evenodd" d="M15.708 15.726c.035.094.02.224.02.334v.716c0 .456.015.937-.044 1.365-.12.978-.599 1.807-1.086 2.606-.161.271-.353.52-.53.78-.155.23-.33.467-.528.673a8.847 8.847 0 0 1-1.037.913c-.578.429-1.13.85-1.734 1.216-.615.375-1.202.795-1.797 1.198-1.269.854-2.577 1.834-3.46 3.146-.25.371-.426.784-.582 1.198a5.327 5.327 0 0 0-.34 2.21c.048.724.264 1.376.525 1.988.165.395.361.784.615 1.137.288.425.683.82 1.084 1.163.408.352.823.678 1.264.968.06.04.226.177.291.177.002.006 0 .014 0 .017-.803-.076-1.547-.54-2.146-1.034-1.48-1.222-2.461-2.897-2.551-4.865-.034-.683.008-1.353.225-1.93.9-2.343 3.091-4.15 5.075-5.642l2.08-1.583c.443-.341.897-.681 1.343-1.02.131-.134.27-.268.4-.398.713-.716 1.345-1.478 1.85-2.317.148-.236.297-.475.422-.725.222-.455.39-.95.487-1.464.057-.265.14-.54.154-.827Z" clip-rule="evenodd"/><path fill="#000F9F" fill-rule="evenodd" d="M15.492 0c.135 0 .263-.004.335.106.09.13.051.491.051.674 0 .791-.023 1.578-.023 2.382 0 .231-.012.455-.012.685 0 1.98-.02 3.928-.02 5.915v1.714c.01.623.044 1.263.03 1.895-.024 1.715-.558 3.18-1.302 4.53-.279.507-.515 1.028-.913 1.48-.285.322-.576.645-.89.942-.616.58-1.268 1.092-1.926 1.602-.68.564-1.361 1.134-2.04 1.7-.482.36-.965.724-1.422 1.132-.287.255-.576.532-.862.797-.309.281-.57.598-.865.892-.846.878-1.6 1.868-1.96 3A6.519 6.519 0 0 0 3.4 30.65c-.047.37-.018.782.006 1.151.121 1.901.997 3.584 2.478 4.735.465.363.946.68 1.47.915.109.045.301.165.413.165v.014c-1.77-.218-3.37-.845-4.735-1.872-.257-.192-.49-.426-.726-.652C.62 33.417-.203 31.014.043 28.416c.114-1.206.396-2.333.87-3.362.805-1.742 2.113-3.142 3.581-4.476.32-.269.643-.536.969-.805.548-.44 1.086-.895 1.628-1.363.253-.22.504-.44.756-.656.74-.697 1.502-1.368 2.18-2.134.814-.927 1.602-1.866 2.283-2.865.403-.601.772-1.226 1.145-1.833.285-.477.524-.981.744-1.494a16.72 16.72 0 0 0 1.377-6.103 11.76 11.76 0 0 0-.116-1.96c-.045-.22-.084-.432-.124-.654-.031-.15-.074-.312-.053-.475.012-.128.112-.187.209-.236Z" clip-rule="evenodd"/></svg>
