<svg xmlns="http://www.w3.org/2000/svg" width="119" height="15" fill="none"><path fill="#5EC6F1" d="M0 13.842V5.32a3.184 3.184 0 0 1 3.116-3.188h8.794c.273 0 .496.223.496.496v2.046a.33.33 0 0 1-.33.33H3.618a.466.466 0 0 0-.466.468v.947c0 .251.2.46.453.466h7.674c.258 0 .466.209.466.467v1.745a.466.466 0 0 1-.466.467h-7.66a.466.466 0 0 0-.467.466v.934c0 .258.208.467.466.467h8.651c.23 0 .316.078.215.28-.395.825-.668 1.4-.976 2.045-.237.495-.445.567-.66.567H.495A.475.475 0 0 1 0 13.842M13.92 13.842V2.62c0-.273.224-.496.496-.496h1.888c.273 0 .495.222.495.496v8.378a.466.466 0 0 0 .467.444h8.12c.23 0 .316.08.216.28l-.977 2.046c-.237.495-.445.567-.66.567h-9.548a.496.496 0 0 1-.495-.495"/><path fill="#193291" d="M21.595 4.501V.495c0-.273.223-.495.495-.495h1.96c.273 0 .496.223.496.495V1.68a.47.47 0 0 0 .467.445h6.691c2.09 0 3.03 2.29 2.27 3.92l-3.776 8.026c-.087.186-.216.266-.453.266h-2.398c-.617 0-.739-.316-.531-.761l3.783-8.034c.158-.337-.165-.538-.481-.538h-8.026a.507.507 0 0 1-.495-.503M41.389 14.337h-8.516c-.617 0-.739-.316-.53-.761 0 0 .768-1.63.86-1.83.093-.195.194-.295.51-.295h4.702s-1.917-8.479-1.982-8.744c-.072-.302.18-.575.488-.575h2.24c.216 0 .467.144.517.338l1.975 8.838c.086.387.215.416.388.021.05-.108 3.783-8.758 3.855-8.924a.44.44 0 0 1 .424-.273h2.563c.337 0 .56.402.395.783-.151.337-3.791 8.493-3.892 8.722-1.012 2.226-2.102 2.7-3.997 2.7"/><path fill="#5EC6F1" d="M55.956 5.277a.466.466 0 0 0-.467-.467h-1.35c-.287 0-.43.086-.502.244-.043.086-2.053 4.365-2.053 4.365h3.905a.465.465 0 0 0 .467-.438zm2.893 8.543c0 .287-.23.517-.517.517H56.38a.515.515 0 0 1-.517-.517v-1.701H50.32l-.682 1.45c-.28.596-.502.768-.962.768H47.04c-.617 0-.739-.323-.531-.768l4.515-9.692c.51-1.091 1.544-1.752 2.549-1.752h4.76c.287 0 .517.23.517.517zM60.73 13.842V2.62c0-.273.223-.496.495-.496h1.888c.273 0 .495.222.495.496v8.378a.466.466 0 0 0 .467.444h8.12c.23 0 .316.08.215.28l-.984 2.046c-.236.495-.445.567-.66.567h-9.55a.494.494 0 0 1-.487-.495"/><path fill="#193291" d="M68.419 4.501V.495c0-.273.223-.495.495-.495h1.96c.273 0 .495.223.495.495V1.68a.47.47 0 0 0 .467.445h6.684c2.09 0 3.03 2.29 2.269 3.92l-3.777 8.026c-.086.186-.215.266-.452.266h-2.398c-.618 0-.74-.316-.531-.761l3.783-8.034c.158-.337-.165-.538-.48-.538h-8.02a.507.507 0 0 1-.495-.503M94.817 4.135c-.33.704-3.496 7.51-3.496 7.51l1.2 2.11c.193.338.157.589-.367.589H89.9c-.352 0-.567-.137-.704-.373-.064-.122-3.381-5.945-3.381-5.945s-1.917 4.078-2.09 4.437c-.244.517-.732 1.149-1.363 1.493-.604.33-1.156.388-2.09.388h-.108c-.674 0-.617-.352-.502-.596.072-.15 4.264-9.068 4.264-9.068L82.77 2.65c-.208-.367 0-.525.345-.525h2.153c.438 0 .761.2.955.546l3.195 5.614s2.685-5.765 2.75-5.901c.086-.18.251-.259.481-.259h1.845c.632 0 1.091.36.323 2.011M95.227 11.444h18.551c.338 0 .482.273.323.61l-.783 1.673c-.158.338-.56.61-.897.61H93.876c-.337 0-.48-.273-.323-.61l.783-1.672c.157-.338.553-.61.89-.61M99.599 2.125h18.552c.337 0 .48.273.323.61l-.784 1.673c-.157.338-.56.61-.897.61H98.242c-.338 0-.481-.273-.323-.61l.782-1.673c.159-.337.56-.61.898-.61M106.512 5.973l.338.898h1.278c.273 0 .337.215.071.51l-.811.932.33.876c.079.194.094.41-.373.41h-1.077l-.811.932c-.201.23-.273.238-.38-.05l-.331-.883h-1.307c-.273 0-.337-.215-.072-.509l.847-.955-.323-.854c-.071-.195-.093-.41.374-.41h1.048l.826-.947c.194-.23.266-.236.373.05"/></svg>