<svg xmlns="http://www.w3.org/2000/svg" width="148" height="23" viewBox="0 0 148 23" fill="none"><path fill="#fff" d="m37.653 13.044-.081.053c-.694-.414-1.786-.732-2.826-.732-2.103 0-3.749 1.479-3.749 3.708 0 2.34 1.925 3.655 3.89 3.655 1.289 0 2.545-.457 3.212-1.108l.098.07-.404 1.911c-.705.413-1.98.635-2.975.635-3.266 0-5.993-1.966-5.993-5.177 0-2.936 2.241-5.26 5.936-5.26 1.235 0 2.41.288 3.267.665l-.375 1.579v.001Zm11.215 7.958a23.34 23.34 0 0 1-.07-1.676V12.71c0-.498.029-1.134.07-1.675h-2.16c.041.541.07 1.175.07 1.675v2.437h-5.165v-2.437c0-.498.03-1.134.072-1.675h-2.16c.043.541.07 1.175.07 1.675v6.619c0 .54-.027 1.121-.07 1.675h2.16a22.556 22.556 0 0 1-.07-1.675v-2.671h5.162v2.67c0 .54-.028 1.122-.069 1.676h2.16v-.001Zm4.65 0a24.27 24.27 0 0 1-.07-1.676V12.71c0-.498.029-1.134.07-1.675h-2.16c.043.541.07 1.175.07 1.675v6.619c0 .54-.027 1.121-.07 1.675h2.16v-.001Zm11.68-9.968a24.769 24.769 0 0 0-.066 1.704v8.373h-.32l-6.989-7.14v5.355c0 .54.028 1.122.07 1.676h-1.841a22.6 22.6 0 0 0 .069-1.676v-7.101l-1.055-1.067v-.124h2.563l5.8 5.967V12.71c0-.54-.028-1.121-.068-1.675H65.2h-.001Zm12.558 9.968c-.43-.639-.802-1.317-1.122-1.897l-4.692-8.584h-.47L65.892 21h2.23c.179-.512.387-1.012.553-1.343l.61-1.244h4.789l.65 1.286c.196.388.43.843.54 1.302h2.492Zm-6.16-7.434h.07l1.73 3.474H69.95l1.646-3.474Zm21.317 7.434a24.121 24.121 0 0 1-1.122-1.897l-4.693-8.584h-.47L81.05 21h2.228c.183-.512.387-1.012.554-1.343l.612-1.244h4.787l.653 1.286c.19.388.427.843.538 1.302h2.49Zm-6.158-7.434h.067l1.73 3.474h-3.445l1.648-3.474Zm9.038 7.434a21.872 21.872 0 0 1-.07-1.676V12.71c0-.498.028-1.134.07-1.675h-2.16c.04.541.067 1.175.067 1.675v6.619c0 .54-.027 1.121-.067 1.675h2.157l.003-.001Zm2.533 0c.042-.554.068-1.136.068-1.676V12.71c0-.498-.027-1.134-.068-1.675h3.888c2.217 0 3.683 1.15 3.683 2.7 0 1.55-1.162 2.478-2.561 2.739l2.52 2.825a13.32 13.32 0 0 0 1.592 1.58v.124h-2.616l-4.416-5.179v3.505c0 .54.029 1.121.071 1.675h-2.16v-.001Zm2.09-5.426h1.163c1.342 0 2.159-.54 2.159-1.732 0-1.039-.789-1.55-2.173-1.55h-1.149v3.282Zm13.828 5.426.416-1.786-.111-.056a4.117 4.117 0 0 1-1.965.471h-2.397v-6.92c0-.5.028-1.136.071-1.676h-2.157c.04.54.066 1.175.066 1.676v6.617c0 .54-.028 1.121-.066 1.675h6.143v-.001Zm3.725 0a23.424 23.424 0 0 1-.07-1.676V12.71c0-.498.028-1.134.07-1.675h-2.159a25.1 25.1 0 0 1 .067 1.675v6.619c0 .54-.028 1.121-.067 1.675h2.158l.001-.001Zm11.667-9.968c-.042.512-.07 1.19-.07 1.704v8.373h-.319l-6.989-7.14v5.355c0 .54.026 1.122.067 1.676h-1.841c.043-.554.07-1.136.07-1.676v-7.101l-1.051-1.067v-.124h2.559l5.8 5.967V12.71c0-.54-.028-1.121-.07-1.675h1.844Zm9.067 9.968.429-1.786-.11-.056c-.527.305-1.206.471-1.979.471h-3.269v-3.21h2.604c.635 0 1.203.053 1.758.194l.359-1.51h-4.721v-2.713h2.795c.721 0 1.385.069 1.995.249l.386-1.606h-7.267c.042.542.069 1.175.069 1.676v6.618c0 .538-.026 1.12-.069 1.674h7.02v-.001Zm8.359-7.767c-.663-.594-1.854-.996-2.893-.996-1.384 0-2.116.456-2.116 1.123 0 .759.968 1.147 2.741 1.91 2.558 1.092 3.169 1.743 3.169 3.071 0 1.701-1.678 2.895-4.18 2.895-1.41 0-2.882-.513-3.75-1.081l.372-1.814h.125c.664.86 2.064 1.427 3.267 1.427 1.302 0 2.214-.483 2.214-1.26 0-.732-.731-1.054-2.727-1.881-2.312-.956-3.211-1.718-3.211-3.186 0-1.495 1.315-2.642 4.111-2.642 1.107 0 2.547.357 3.363.815l-.375 1.62h-.11Z"/><path fill="#fff" fill-rule="evenodd" d="M2.882 22.397c.852-1.052.9-3.15.605-4.42-.02-.06-.037-.12-.055-.178-.164-.535-.305-.996-.606-1.394l.006-.14-.003-.006c-.003-.012-.006-.02-.03-.016-.038.003-.055.023-.062.05a2.41 2.41 0 0 0-.462-.41c-.48-.337-1.004-.101-1.348.297a.074.074 0 0 0-.034-.018l-.015.004a.505.505 0 0 0-.033.109C-.103 17.37-.14 19.67.183 20.999c.092.378.263.793.49 1.147-.001.019-.006.038-.01.058-.014.056-.028.112.02.144.025-.025.057-.04.08-.071.485.676 1.187 1.053 1.924.335.013.016.028.028.055.026.057-.021.077-.087.08-.144l-.005-.02.042-.049.023-.028Zm-.065.078c-.105-.436-.123-.824-.11-1.28-.008-.072 0-.144.006-.214.014-.137.028-.268-.084-.375h-.001a.802.802 0 0 0-.384-.08.431.431 0 0 0-.358.17c-.023.282-.033.588-.042.897-.01.333-.02.67-.048.991l.033.047a.096.096 0 0 0 .042-.003.07.07 0 0 0 .033-.021c.068-.418.076-.835.084-1.247.003-.204.007-.408.018-.609.03-.025.06-.049.094-.063a.172.172 0 0 1 .061-.015.42.42 0 0 0 .127-.003c.102-.012.217-.025.246.081a19.77 19.77 0 0 0 .07 1.21 89.98 89.98 0 0 1 .043.595c.01.01.018.021.026.034a.274.274 0 0 0 .01.017l.004.005c.035-.033.069-.069.103-.107l.027-.03Zm-2.054-.198a3.103 3.103 0 0 1-.09-.13.232.232 0 0 0 0-.03.23.23 0 0 0 .014-.059.855.855 0 0 0 .003-.04.34.34 0 0 1 .015-.097c-.004-.092.02-.196.031-.295a.654.654 0 0 0 .004-.105.336.336 0 0 0-.01-.067c.056-.31.062-.632.034-.928.011-.042 0-.09-.012-.136-.017-.07-.034-.136.029-.183.046-.022.067.044.093.06.022.03.02.081.017.13-.004.08-.008.159.09.153h.037l.026-.001c.042-.002.071-.016.096-.027.037-.019.063-.031.11.016.005.009.01.014.015.02l.006.01c.007.01.004.026.001.04v.003l-.015.022c-.06.03-.115.041-.17.052-.055.01-.11.02-.171.05a.552.552 0 0 0 .018.254.107.107 0 0 0 .053.025.406.406 0 0 0 .044.006c.013 0 .026.002.04.004a.15.15 0 0 1 .047.015l.064.003c.062.006.132.012.158-.042a.57.57 0 0 1 .004-.05l.005-.036c.009-.062.017-.125-.006-.182a.55.55 0 0 0 0-.156c0-.016-.003-.047-.006-.082v-.004c-.005-.058-.01-.127-.008-.167a.223.223 0 0 0-.128-.118c-.043-.018-.09-.03-.138-.042a1.22 1.22 0 0 1-.095-.027.264.264 0 0 1-.182-.076.38.38 0 0 1-.081-.154.176.176 0 0 1 .004-.085c.02-.162.166-.198.295-.23.047-.01.09-.021.127-.037.009 0 .018 0 .027-.002a.236.236 0 0 0 .049-.014.788.788 0 0 0 .048-.02c.068-.032.129-.06.185.023 0 .042-.011.084-.06.093a.533.533 0 0 0-.158.04c-.035.013-.062.009-.098.027-.107.009-.23.042-.276.15.003.05.021.12.076.154l.061.015.046.01c.173.04.36.082.43.27.027.23.069.496.02.723a.361.361 0 0 0-.001.04v.018l.001.019c.001.021 0 .045-.005.077a13.32 13.32 0 0 1-.03.888c0 .07-.001.143-.021.228-.013.123.005.273-.114.334h-.078c-.03-.075.024-.134.028-.204.006-.05.018-.098.029-.147.02-.091.041-.183.028-.275-.016-.122.01-.235-.005-.38.017-.11.041-.286.027-.393-.014-.04-.097-.05-.133-.054-.099 0-.192-.026-.282 0a.832.832 0 0 0-.03.234c-.012.05.059.028.09.035a.26.26 0 0 1 .048.011c.024.009.04.02.056.03a.203.203 0 0 0 .1.03c.026.012.113.112-.02.143-.049-.001-.08-.017-.111-.034a.35.35 0 0 0-.063-.027.241.241 0 0 0-.047-.01c-.046-.014-.073.019-.079.056-.02.214-.063.414-.098.622a.135.135 0 0 1-.008.013Zm.082-6.002a.5.5 0 0 0 .107.404.4.4 0 0 0 .238.079c.058.027.055.075.052.127a.32.32 0 0 0 0 .064.17.17 0 0 1 .046.105c-.03.086-.102.14-.173.194a.967.967 0 0 0-.09.073c-.129.06-.22.178-.312.282-.025.017-.06.038-.084.058a.111.111 0 0 0-.028.032l.015.028a.402.402 0 0 0 .16-.092c.03-.024.052-.04.085-.07l.061-.043a1.08 1.08 0 0 0 .065-.05c.043-.027.08-.062.118-.097.077-.07.152-.14.265-.139.047.011.09.072.123.098l.042.048.024.021c.022.014.047 0 .07-.014a.233.233 0 0 0-.074-.12.463.463 0 0 0-.087-.09c-.048-.04-.095-.081-.112-.147.022-.09-.044-.17.014-.253.045-.07.122-.069.199-.071a.39.39 0 0 0 .093-.012c.094-.081.097-.222.1-.335 0-.035 0-.068.004-.095a.15.15 0 0 0-.019-.064.117.117 0 0 0-.053-.047l-.018.045c.009.062-.02.148-.015.248a.251.251 0 0 1-.07.12.154.154 0 0 1-.096.04.083.083 0 0 1-.082-.008.113.113 0 0 1-.02-.018c-.059-.043-.039-.129-.043-.2-.009-.086.025-.152.022-.233l-.084-.015c-.043.015-.04.067-.038.099v.005c-.033.076-.017.149-.012.221a.293.293 0 0 1-.016.137c-.001.034-.042.06-.077.064a.216.216 0 0 1-.107-.076c-.069-.058-.084-.162-.092-.247l.002-.043c.003-.042.006-.084-.02-.108a1.904 1.904 0 0 0-.042.05c-.014.014-.027.03-.04.045Zm1.892.019a.3.3 0 0 0-.005.08c0 .03.001.061-.007.083-.012.07-.07.1-.132.127-.045 0-.05.01-.08-.03a.536.536 0 0 1-.025-.205.75.75 0 0 0-.002-.093l.003-.046c-.016-.033-.016-.078-.058-.078l-.012.028a.43.43 0 0 0-.044.221.172.172 0 0 0-.01.039l-.004.066c-.003.034-.01.067-.043.092l-.037.004a.159.159 0 0 1-.099-.011c-.05-.031-.132-.091-.118-.228.002-.016.006-.032.01-.047.005-.022.01-.043.01-.064a.09.09 0 0 0-.024-.058c-.037-.028-.054.006-.068.034-.03.142.002.29.089.407.021.037.052.04.083.045a.222.222 0 0 1 .036.006c.046.006.06.006.08.007a.334.334 0 0 1 .048.009.1.1 0 0 1 .078.105c-.026.054-.08.076-.131.086-.05-.002-.091 0-.133.003-.04.002-.08.005-.124.003l-.24.062c-.044.032-.052.157-.058.239v.007l-.003.039c-.008.042-.008.091-.009.14l-.001.087a.446.446 0 0 1-.006.049c-.007.087 0 .166.008.24a1.19 1.19 0 0 1 .007.199v.01a.154.154 0 0 1-.012.052.551.551 0 0 1-.253.038h-.275c-.01.003-.028.003-.04.009a.021.021 0 0 0-.008.007c-.003.006-.004.012 0 .022.008.026.028.025.048.024.012 0 .025-.002.036.004.049.008.076.012.103.014.029.003.057.003.108.005l.018-.001.02-.002c.033-.004.075-.008.087-.003.111.003.155 0 .246-.007.103.004.187-.002.269-.008a1.47 1.47 0 0 1 .223-.009.608.608 0 0 0 .197.011h.008c.03-.004.062-.008.062-.038-.011-.01-.038-.035-.048-.028-.053-.012-.106-.01-.158-.013a.494.494 0 0 1-.06-.006c-.044.003-.08 0-.12-.001a1.743 1.743 0 0 0-.1-.004c-.047-.014-.166.034-.23-.036a.137.137 0 0 1-.005-.031l.003-.054.001-.018a2.969 2.969 0 0 1-.052-.45.116.116 0 0 0 .013-.033c.004-.015.005-.031.007-.047a.411.411 0 0 1 .004-.036c.006-.08.018-.16.037-.238.004-.05.061-.056.12-.062.03-.003.059-.005.082-.014.025-.01.042-.01.072-.017.065-.02.073-.007.118-.02.051-.009.105-.002.16.004.061.008.122.015.18.002a.154.154 0 0 1 .05 0c.021.003.041.006.058-.007.002-.026-.012-.049-.036-.05-.045-.016-.106-.03-.144-.054-.022-.014-.037-.031-.036-.055-.013-.032.008-.067.028-.09l.035-.022c.045-.028.07-.045.143-.045.068 0 .137-.03.145-.084l.006-.155a2.303 2.303 0 0 0-.09-.111Zm-.38 3.494a.418.418 0 0 0-.012-.163c.027-.105-.083-.194-.164-.091l-.011.44c-.088.086-.202.126-.316.166a.94.94 0 0 0-.28.133c-.016.038.018.06.04.087.111-.034.213-.087.318-.131a.845.845 0 0 1 .198-.064c.202-.043.364.032.522.107.043.02.085.04.128.057a.999.999 0 0 0 .14.044c.027.006.055.01.083.011.02-.157-.12-.195-.266-.236-.085-.024-.172-.048-.23-.097-.162-.03-.156-.147-.15-.263Zm.56-1.8.144.025.02-.01c.04-.085-.013-.1-.064-.114a.554.554 0 0 1-.403-.211.743.743 0 0 0-.127-.075c-.064-.034-.097-.092-.184-.124-.038.04-.094.062-.14.093a.628.628 0 0 1-.077.064c-.022.017-.043.034-.062.052a.345.345 0 0 0-.077.099c.011.021.03.018.045.009a.06.06 0 0 0 .012-.01c.044-.025.079-.058.112-.088.055-.052.106-.098.183-.102.08.08.181.134.275.184.037.02.073.038.107.058a.724.724 0 0 1 .063.043l.056.032c.04.022.078.043.117.075Zm-.198-.527c.029.02.063.029.097.028v-.002c.021-.002.045-.014.04-.042-.055-.077-.16-.101-.228-.171-.085-.037-.258-.092-.338-.131-.077.053-.163.122-.247.169-.044.032-.066.059-.111.105-.012.008-.004.02.006.028l.014.009c.036-.007.046-.017.075-.046l.013-.012c.046-.025.106-.048.144-.096.018-.009.032-.019.045-.028.036-.026.06-.043.137-.011.03.025.083.048.14.072.08.034.17.072.213.128Zm-.341 1.71c.051-.042.077-.25.046-.36-.015-.04-.045-.062-.081-.078-.037-.015-.078-.024-.113-.037a1.303 1.303 0 0 0-.07-.008c-.07-.007-.146-.014-.187-.045a.194.194 0 0 1-.065-.169.593.593 0 0 1 .153-.014l.05.003c.06.004.113.007.16.018.048-.006.089-.007.127-.008.041 0 .08-.002.12-.009.107 0 .179.027.256-.011.02-.003.026-.016.034-.03a.146.146 0 0 1 .01-.016c-.007-.004-.012-.012-.018-.02-.01-.015-.023-.032-.043-.035a.258.258 0 0 0-.11 0c-.033.005-.068.01-.12.005a.442.442 0 0 1-.086-.002c-.041-.003-.085-.007-.137.004a.33.33 0 0 1-.1-.002 2.081 2.081 0 0 0-.058-.005c-.076.005-.154-.006-.25-.006-.127.01-.23-.01-.34.002-.039-.002-.088-.002-.136-.008a4.062 4.062 0 0 1-.186.004c-.05 0-.101 0-.155.002-.023.01-.045.01-.068.008a.147.147 0 0 0-.073.01c-.029.028-.006.05.015.07l.013.013c.045 0 .052.012.092.012.06.001.11-.002.147.005.04.002.071 0 .104-.002l.076-.002c.11.005.218-.001.326-.018.082.038.086.093.091.15a.203.203 0 0 0 .033.114c.09.096.194.066.34.104.124.032.142.062.122.174-.021.077-.023.105-.052.126a.456.456 0 0 1-.1.043.529.529 0 0 1-.141.037c-.18.007-.23 0-.377.016a3.746 3.746 0 0 1-.416-.02c-.07-.002-.16-.02-.16.023 0 .019.005.03.014.038.011.012.028.018.039.034.05.014.104.034.158.041a.248.248 0 0 0 .067.001c.106.002.189-.002.276-.006l.137-.005.23-.02c.087-.01.109-.016.142-.022.024-.005.053-.01.116-.017l.023-.006c.043-.01.084-.02.125-.076Zm-.858-1.359c.009.014.02.023.04.021.078-.03.016-.095-.01-.13-.057-.057-.145-.095-.176-.17-.033-.027-.08-.006-.11.02-.03.034-.061.056-.093.08-.033.024-.067.05-.105.09-.022.016-.037.034-.057.057l-.02.024a.339.339 0 0 0-.06.057c-.017.02-.034.038-.053.05-.05.04-.112.08-.149.132.009.025.024.046.056.036.057-.057.113-.102.169-.146.074-.06.148-.118.22-.205.049-.026.085-.057.122-.08.088-.034.139.056.188.1.02.015.026.044.038.064ZM16.337.586c-.15-.083-.304-.168-.553-.172-.154-.003-.422.045-.643.093a3.233 3.233 0 0 1-.714.097c-.084 0-.17-.004-.263-.011L14.05.578h-.017l-.117-.01h-.005a3.879 3.879 0 0 0-.297-.015h-.173l-.048.003h-.043l-.018.002c-.012.001-.024.003-.034.006h-.031l-.073.007-.024.003c-.015.001-.03.004-.044.006l-.018.003-.024.002-.077.015-.023.002-.073.016-.015.004a.846.846 0 0 0-.082.018l-.02.006-.088.024c-.283.086-.488.258-.682.423l-.012.01c-.136.113-.266.221-.416.296-.187.095-.393.117-.61.134h-.003c-.253.023-.515.046-.766.2-.574.35-.75 1.014-.924 1.66v.001a4.64 4.64 0 0 1-.29.877c-.006.008-.01.017-.013.026a.228.228 0 0 1-.015.028l-.008.016a.916.916 0 0 1-.023.055V4.4a.509.509 0 0 0-.025.058l-.005.017-.017.043a1 1 0 0 0-.006.013v.002a.366.366 0 0 1-.021.06l-.003.02-.02.056v.003l-.016.063-.007.014-.013.055-.004.008-.014.062-.007.021-.01.05-.003.015-.014.056s-.009.054-.014.068l-.014.077-.014.059c-.009.036-.015.075-.022.115a2.25 2.25 0 0 1-.016.09l-.01.048a7.045 7.045 0 0 1-.182.78L8.47 6.3l-.017.046-.03.077v.003a.221.221 0 0 0-.013.026.164.164 0 0 1-.016.032 1.37 1.37 0 0 1-.38.524s-.044.04-.086.05c-.04.009-.127.002-.127.002-.177-.006-.58-.17-.981-.333-.39-.158-.777-.316-.949-.325h-.03a.783.783 0 0 0-.378.062.56.56 0 0 1-.222.082c-.014.002-.028.002-.043.002a.951.951 0 0 1-.22-.035c-.068-.012-.224.006-.294.015l-.033.003c-.32.03-.727.155-1.087.332a2.738 2.738 0 0 0-.874.647c-.24.258-.3.416-.373.608l-.004.01c-.03.083-.063.173-.12.288a3.783 3.783 0 0 1-.112.234c-.091.143-.17.296-.241.455-.235.453-.422.89-.29 1.635.13.76.589 1.522 1.054 2.243.133.264.314.5.533.698.298.27.66.45 1.012.624l.034.017c.379.188.77.383 1.09.697.013.014.043.041.078.072a3.027 3.027 0 0 1 .361.373c.09.12.173.244.25.372a.908.908 0 0 0-.28.05c-.166.056-.181.197-.194.314-.004.035-.007.069-.015.097a2.584 2.584 0 0 1-.028.086c-.038.111-.085.25-.073.347.017.126.024.562 0 .745-.021.154-.112.343-.171.464l-.03.063c-.044.099.032.181.121.277l.03.032c.062.068.227.042.361.02.083-.012.154-.023.182-.01.038.016.056.057.078.105.023.05.05.11.107.162.078.072.232.146.39.219-.16.3-.26.563 0 1.097.24.485.726.846 1.161 1.148.316.326.687.594 1.095.791.39.287.88.43 1.505.43.171.016.35.026.522.026.466.003.93-.066 1.374-.205l.337-.104c.48-.087 1.036-.214 1.569-.51.109-.044.213-.09.313-.137.084.163.228.324.402.429.143.087.252.133.346.173.152.065.261.111.404.287.189.23.43.293.624.344l.112.03c.054.016.111.036.173.057.18.061.4.136.67.159.259.023.228-.065.148-.296-.033-.095-.074-.213-.107-.358-.102-.446.063-.735.188-.955l.041-.074a.688.688 0 0 0 .072-.242c.175.024.35.042.527.054.346.03.648.056.974.18.11.043.219.09.325.143.195.093.366.173.586.173.158 0 .33-.04.541-.126.174-.067.348-.13.523-.19.774-.271 1.734-.609 2.178-1.25.115-.163.15-.342.182-.497v-.005c.02-.102.04-.204.08-.28a1.79 1.79 0 0 1 .196-.248l.024-.028c.091-.103.167-.19.198-.273.027-.071.05-.17.07-.287.134-.023.28-.077.376-.123.114-.054.201-.23.287-.404.056-.112.11-.224.172-.3.119-.151.313-.309.446-.416.042-.035.079-.064.104-.087.063-.053.092-.123.128-.212.03-.074.067-.163.133-.265.137-.2.038-.402-.055-.593l-.011-.023-.015-.031c-.097-.202-.657-.49-.867-.574-.14-.051-.267-.108-.401-.168-.074-.034-.15-.068-.232-.103-.23-.098-.616.025-.756.115a.203.203 0 0 0-.052.05l-.027-.049-.003-.005c-.14-.244-.344-.645-.154-.74h.077c.427-.02.763-.039 1.186-.287.51-.304.817-.785 1.11-1.247.212-.338.411-.652.684-.905a8 8 0 0 1 .259-.223l.008-.007h.002c.288-.238.535-.44.695-.91.127-.364.243-.767.352-1.147l.046-.16.056-.195c.335-1.141.005-1.85-1.127-2.455-.195-.103-.356-.246-.524-.398-.194-.173-.397-.352-.653-.461-.455-.2-1.26-.345-1.495-.385a7.368 7.368 0 0 0-.685-.083 6.19 6.19 0 0 1-.877-.127 3.575 3.575 0 0 0-.867-.104c-.208 0-.429.017-.651.048-.077.01-.148.026-.218.042l-.066.014-.031.006c-.114.024-.224.046-.313.046h-.002c-.095 0-.246-.001-.33-.385-.05-.212-.025-.453 0-.707.024-.253.048-.517 0-.77-.138-.734-.584-2.064-1.368-2.435-.223-.11-.47-.138-.71-.138-.4-.004-.618-.122-.896-.272l-.121-.065-.07-.039Zm6.714 14.542c-.076.104-.046.275-.004.436.039.233.047.47.023.706-.007.03-.058.08-.114.134-.08.077-.174.167-.174.234 0 .116.132.165.336.24l.105.034c.163.052.302.097.356.253.043.123-.054.257-.133.367a.515.515 0 0 0-.089.15.85.85 0 0 0 .138.532c.053.065.17.07.299.049.067-.422.072-1.068-.03-1.41a.852.852 0 0 0-.282-.386c-.057-.05-.116-.103-.13-.145-.035-.08-.038-.186-.041-.3l-.002-.034v-.015a1.383 1.383 0 0 0-.056-.42 2.922 2.922 0 0 0-.202-.425Zm-5.661 5.769c.025-.203-.01-.426-.062-.528-.071-.145-.478-.394-.695-.404-.218-.012-.436-.073-.706-.177-.098-.037-.183-.078-.256-.114-.13-.063-.227-.11-.306-.094l.001-.001c-.031.007-.08.12-.13.235a1.692 1.692 0 0 1-.102.212c-.04.065-.24.257-.44.448a9.533 9.533 0 0 0-.39.386c-.101.11-.082.297.013.483.625-.296 1.075-.65 1.385-1.095.159.143.4.214.732.214h.035c.031.023.063.045.096.066l.022.015c.215.147.442.303.796.353l.007.001Zm-10.95-2.09.043.02c.077.035.153.07.22.104.218.108.46.21.611.108.12-.078.14-.377.15-.554.003-.045.006-.083.01-.107.003-.026.005-.076.008-.141.01-.226.03-.63.132-.811.056-.098.104-.169.14-.222.05-.074.076-.114.072-.147-.006-.037-.162-.118-.307-.194a2.789 2.789 0 0 1-.213-.118c-.087-.056-.145-.188-.209-.333-.029-.066-.059-.135-.093-.201-.107-.208-.492-.31-.686-.343a1.743 1.743 0 0 0-.355-.032c.065.108.125.218.18.331.29.557.608.885.966.993-.02.133-.124.455-.44 1.18a3.98 3.98 0 0 1-.229.467Zm7.523-9.783c-.072-.108-.045-.364.014-.523.054-.14.478-.92.92-.769.178.059.295.133.347.323.087.314.098.789-.144 1.03-.344.346-.941.231-1.138-.061h.001ZM11.9 9.97a.477.477 0 0 0 .314-.296c.025-.102.158-.147.26-.18.063-.022.115-.04.12-.064.015-.066-.335-.925-.524-1.002-.133-.055-.21-.026-.293.005a.434.434 0 0 1-.21.037c-.028-.002-.056-.006-.084-.01-.123-.018-.232-.034-.309.107-.021.039-.045.078-.07.12-.146.242-.317.528-.132.777.22.291.534.582.928.506Zm4.926.689c-.059.065-.186.115-.268.028.198-.236.371-.359.582-.51.067-.048.138-.098.215-.156.065-.071.062-.273.06-.464-.002-.142-.004-.278.021-.351.061-.175.595-.542.83-.418l.068.034c.096.046.181.087.237.174.117.173.122.46.125.627l.001.05c.005.143-.045.258-.097.38-.026.06-.053.122-.074.19-.048.16-.29.17-.465.176-.04.002-.077.004-.107.007-.083.007-.164-.013-.245-.034-.125-.03-.248-.062-.37.014-.043.025-.111.052-.186.082-.127.05-.27.107-.326.171Zm-7.243 1.432c.214-.332.562-.554.953-.608.007-.05-.098-.087-.14-.087a1.052 1.052 0 0 1-.6-.393 11.053 11.053 0 0 1-.082-.1c-.263-.325-.455-.563-.918-.42-.54.165-.562 1.053-.41 1.485.18.518.882.58 1.196.123h.001Zm10.684-.667c.559-.211 1.008.064.734.527-.067.113-.091.235-.116.358-.027.133-.054.268-.137.392a.609.609 0 0 1-.663.211c-.211-.073-.505-.204-.651-.358-.041-.043-.076-.084-.108-.122-.1-.12-.18-.215-.394-.269-.205-.054-.418-.06-.631-.066-.259-.007-.517-.014-.76-.107.32-.161.666-.11 1.011-.06.203.03.405.06.6.046.088-.006.165-.068.266-.15.166-.133.399-.32.85-.402Zm-2.742.552c-.14-.074-.295-.079-.396-.014.095.023.306.052.396.014Zm-6.83 1.614c-.482-.573-1.476.44-1.637.603l-.018.018c-.022.023-.056.052-.093.084-.088.075-.193.166-.209.223-.062.239.49.558.664.656.057.034.112.081.168.128.164.14.332.283.563.107.285-.214.33-.42.4-.736l.016-.072c.07-.315.2-.64.445-.865.088-.08.182-.154.276-.228.168-.131.337-.263.466-.436-.315-.025-.51.133-.703.29a1.536 1.536 0 0 1-.338.228Zm7.553-2.615c-.066-.265-.407-.158-.67-.076-.123.038-.228.071-.282.06.108.027.244.035.387.044.115.007.234.014.348.031.076.014.234.024.217-.059ZM15.3 13.203c.098.054.163.148.23.244.065.094.13.19.23.25l.13.074c.15.084.325.183.453.28.09.07.189.393.038.465-.099.048-.17-.01-.228-.057-.071-.06-.123-.102-.184.096-.054.169-.18.295-.306.423-.14.14-.28.282-.325.482-.013.063-.033.131-.055.202-.068.23-.145.487-.016.681.05.082.136.117.224.128l.087.01c.133.015.176.02.324.114.218.14.398.2.632.093.232-.107.415-.268.467-.528a3.338 3.338 0 0 0-.057-.336c-.034-.166-.068-.333-.064-.504.003-.092.018-.172.032-.248.03-.158.056-.298-.044-.489-.096-.199-.241-.37-.422-.497-.097-.075-.154-.187-.21-.3-.034-.066-.067-.133-.11-.191-.132-.188-.343-.397-.492-.545a4.937 4.937 0 0 1-.136-.137.562.562 0 0 0-.44-.205c-.198 0-.482.214-.62.384-.108.127-.237.222-.364.315-.09.066-.18.131-.258.206-.13.125-.16.29-.19.458-.018.099-.036.198-.074.29a3.093 3.093 0 0 1-.098.203c-.08.158-.166.326-.18.486.106-.059.188-.2.259-.32a2.33 2.33 0 0 1 .064-.106l.017-.026c.057-.087.116-.176.184-.255.041-.052.096-.077.15-.101.045-.02.09-.04.128-.076.154-.148.222-.32.29-.494.042-.103.083-.208.143-.308.14-.223.59-.264.791-.161Zm4.615 2.266a.807.807 0 0 1-.012-.322c.044-.193-.019-.345-.11-.524-.107-.204-.43-.685-.717-.554-.027.012-.054.03-.082.048-.073.049-.15.099-.237.049-.06-.036-.104-.079-.147-.121a.568.568 0 0 0-.223-.155c-.1-.034-.204-.057-.308-.08a4.232 4.232 0 0 1-.198-.046l-.053-.014c-.09-.022-.18-.045-.296-.055.072.153.264.268.44.374.09.054.177.106.24.16.319.263.274.555.225.875-.015.094-.03.191-.036.29a2.21 2.21 0 0 1-.006.076c-.012.123-.027.267.048.374.06.086.229.126.36.157.068.016.125.03.152.046.045.028.464.172.644.073.18-.1.35-.401.336-.518-.005-.044-.012-.088-.02-.133Zm-6.459.66c.087.092.115.381.112.467-.008.173-.022.41-.112.523-.084.113-.388.276-.477.31l-.008.002c-.099.032-.36.117-.506-.012a1.89 1.89 0 0 0-.052-.042c-.095-.074-.257-.201-.316-.316-.072-.144-.152-.681.122-.988.071-.08.174-.12.277-.16.087-.034.174-.069.243-.127.046-.038.09-.078.135-.118.09-.08.178-.16.277-.226a.606.606 0 0 1-.023.174c-.023.103-.047.207.019.293.037.049.097.081.157.114.055.03.111.06.152.105Zm3.414-3.397a1.296 1.296 0 0 1-.196-.042.889.889 0 0 0-.283-.042c.08.117.24.145.396.17.078.014.154.026.218.05.056.02.101.054.143.084a.728.728 0 0 0 .071.048c.092.054.22.111.338.164.146.065.277.124.306.16.052.063.43.228.632.147l.032-.01c.087-.03.203-.068.17-.165-.1-.204-.315-.238-.523-.27-.13-.02-.258-.04-.353-.101-.032-.019-.051-.04-.07-.06a.202.202 0 0 0-.131-.074 1.16 1.16 0 0 0-.154-.015c-.073-.004-.142-.007-.194-.029a.576.576 0 0 0-.223-.014c-.06.003-.124.006-.179 0v-.001Zm-5.775 2.176c-.25-.181 0-.817.299-1.136.298-.318.756-.836.635-.897-.058-.03-.213-.015-.375 0-.166.015-.34.03-.42 0-.127-.048.52-.325.847-.464.082-.034.144-.06.168-.073.12-.06-.757-.3-1.076-.338a3.303 3.303 0 0 0-.436-.007c-.268.007-.516.014-.479-.075.04-.087.208-.192.346-.277.077-.049.144-.09.173-.12.041-.04-.099-.144-.247-.253-.133-.097-.272-.2-.292-.266-.04-.138.12-.279.717-.138.36.084.684.095.941.104.17.006.31.01.413.035.174.034.341.094.496.18.055.033.1-.016.144-.063l.025-.025c.064.06.137.117.196.164.05.04.09.072.11.093.068.066.052.156.03.23-.023.073-.18.14-.293.179-.08.027-.296 0-.462-.02a3.255 3.255 0 0 0-.162-.018c-.077-.004-.159.001-.239.007a2.514 2.514 0 0 1-.17.008c-.056 0-.157-.013-.27-.028a3.509 3.509 0 0 0-.4-.04c-.194 0-.18.084-.06.105.055.01.234.056.42.104.211.053.432.109.496.12.118.023.826.148.885.148.018 0 .037-.002.055-.004.044-.004.086-.008.117.013.043.03.036.172-.008.216-.032.032-.143.044-.232.054-.038.004-.072.008-.095.012-.074.016-.112.038-.253.158-.142.118-.022.178.073.156.05-.012.158-.048.264-.084.112-.037.222-.074.26-.08.074-.016.231-.03.245.022.016.052-.447.44-.538.492-.089.052-.347.409-.394.483-.045.073-.222.41-.164.461.056.05.2-.16.27-.26l.011-.017c.185-.222.377-.437.576-.646.137-.146.237-.228.31-.289.059-.048.101-.083.134-.126.068-.093.183-.256.099-.36-.225-.273-.268-.438-.257-.573.005-.134.243-.215.364-.246.25-.028.502-.01.745.053l.09.03c.143.05.246.084.333.142.066.04.11.1.158.164.029.038.059.078.095.117.097.104.232.173.344.098.113-.076-.046-.358-.098-.41a.634.634 0 0 0-.163-.082c-.076-.031-.153-.063-.172-.09-.023-.033.02-.08.065-.132a.56.56 0 0 0 .069-.09c.024-.046.11-.187.19-.32l.152-.255c.061-.104.484-.521.632-.653.15-.135.068-.187.032-.209-.039-.023-.441.299-.506.408a8.76 8.76 0 0 1-.364.478l-.122.155a2.832 2.832 0 0 0-.146.254c-.07.131-.144.267-.18.304-.068.067-.269-.028-.328-.06-.06-.029-.35-.057-.537-.065a2.68 2.68 0 0 0-.2-.003c-.08.001-.168.002-.327-.007-.049-.105-.212-.23-.306-.286.003-.127-.094-.332-.248-.47-.164-.148-.427-.445-.46-.549-.005-.018-.013-.041-.023-.067-.046-.122-.114-.304.01-.353a.56.56 0 0 1 .226-.028.35.35 0 0 0 .134-.013c.021-.009.047-.03.078-.056.086-.072.208-.174.363-.107.2.084.299.161.366.213l.014.01a.351.351 0 0 0 .285.047.448.448 0 0 0 .093-.053c.096-.064.22-.146.357-.062.03.018.063.04.099.064.195.127.475.31.73.256.304-.066.478-.213.567-.393l.083-.172c.115-.242.286-.6.37-.683.104-.107.376-.319.335-.239-.04.083-.312.683-.295.985.006.114.001.195-.003.257-.006.103-.009.15.052.196.099.073.222.05.328 0 .026-.012.056-.028.087-.045.095-.052.2-.109.216-.053.016.043-.212.219-.435.39-.144.111-.285.22-.359.292-.19.178-.371.548-.278.695.069.116.306.1.491.088.052-.003.1-.006.138-.006.183 0 .567.025.52.115-.023.04-.168.151-.32.268-.184.14-.378.29-.378.33 0 .075.392.215.617.222.22.01.745.091.95.14.054.013.105.022.152.03.133.024.235.042.266.125l.03.075c.033.08.058.14.002.147a2.841 2.841 0 0 1-.665-.115c-.147-.058-.91-.23-1.082-.221a3.747 3.747 0 0 1-.091.003c-.216.004-.6.013-.678.16-.066.125.113.22.248.291.05.027.095.051.117.072.085.074.39.393.2.426-.139.024-.26-.045-.343-.093-.03-.018-.055-.032-.075-.038a3.46 3.46 0 0 1-.444-.288c-.015-.012-.043-.038-.078-.07-.126-.119-.349-.328-.47-.316-.156.015-.478.075-.658.189-.18.115-.37.33-.48.454l-.005.006c-.064.075-.253.21-.43.336-.113.08-.221.157-.29.215-.18.146-1.175.934-1.354 1.066-.183.133-.63.311-.835.165Zm2.253-3.838-.016-.01a2.298 2.298 0 0 1-.37-.337 1.576 1.576 0 0 1-.153-.222 1.265 1.265 0 0 0-.056-.088c-.045-.06-.329-.21-.433-.256-.105-.044-.074.18-.014.261.04.057.117.085.189.111a.744.744 0 0 1 .092.038c.082.047.166.204.244.359a.717.717 0 0 0 .143.168c.028-.027.055-.047.084-.035l.058.027c.091.044.217.105.23.007a.208.208 0 0 0 .002-.023Z" clip-rule="evenodd"/><path fill="#fff" d="M14.12 11.143c-.065 0-.288-.202-.365-.35a5.29 5.29 0 0 0-.281-.498c-.053-.068-.082-.216-.136-.26-.05-.046-.289-.33-.222-.366.067-.038.312.208.341.275.031.068.268.394.329.476.059.084.239.365.283.448.046.082.119.275.051.275Z"/></svg>
