<svg width="24" height="24" viewBox="0 0 24 24" fill="none" xmlns="http://www.w3.org/2000/svg">
<path d="M13.733 18.7328V5.48986C13.733 4.43449 13.3578 4.07867 12.334 4.07867H9.23356V5.56732H9.41992C10.1267 5.56732 10.2646 5.72708 10.2646 6.57912V18.7328H13.733ZM15.2626 18.7328H18.7043V8.41876C18.7043 7.38275 18.305 7.00998 17.2957 7.00998H15.2626V18.7328ZM8.74466 18.7328V7.01967H6.70431C5.69503 7.01967 5.30052 7.39244 5.30052 8.42844V18.7328H8.74466ZM21.9621 12.0012C21.9621 17.8372 17.7652 22.0805 12.0024 22.0805C6.23961 22.0805 2.03308 17.8372 2.03308 12.0012C2.03308 6.1652 6.23719 1.92194 12.0024 1.92194C17.7676 1.92194 21.9621 6.18941 21.9621 12.0012ZM24 12.0012C24 5.13888 18.8665 0 12.0024 0C5.13836 0 0 5.13888 0 12.0012C0 18.8635 5.13352 24 12.0024 24C18.8713 24 24 18.8805 24 12.0012Z" fill="white"/>
</svg>
