<svg width="24" height="24" viewBox="0 0 24 24" fill="none" xmlns="http://www.w3.org/2000/svg">
<path fill-rule="evenodd" clip-rule="evenodd" d="M12 0C5.19231 0 0 5.07692 0 11.9423C0 18.8077 5.25 23.7115 12 23.7115C18.75 23.7115 24 18.75 24 11.9423C24 9.98077 23.5962 6.28846 21.4615 6.28846C20.4231 6.28846 19.7308 7.09615 19.7308 8.01923C19.7308 8.25 19.7885 8.48077 19.8462 8.65385C20.3077 9.69231 20.4808 10.8462 20.4808 12C20.4808 16.9615 16.7308 20.3654 11.9423 20.3654C7.15384 20.3654 3.40385 16.9615 3.40385 12C3.40385 7.03846 7.21154 3.46154 12 3.46154C12.8654 3.46154 13.3846 3.63461 13.8462 3.80769C14.1346 3.86538 14.3077 3.92308 14.6538 3.92308C15.6923 3.92308 16.2115 3.05769 16.2115 2.13462C16.2115 0.519231 14.25 0 12 0Z" fill="#E41930"/>
</svg>
