<svg width="32" height="16" viewBox="0 0 32 16" fill="none" xmlns="http://www.w3.org/2000/svg">
<rect x="0.5" y="0.5" width="31" height="15" rx="2.02439" stroke="#0800B9"/>
<path d="M8.10679 11.2C7.63912 11.2 7.21689 11.0903 6.83919 10.8716C6.46149 10.653 6.1613 10.3509 5.93682 9.96721C5.71234 9.58348 5.6001 9.15621 5.6001 8.6863C5.6001 8.2164 5.70788 7.79457 5.92256 7.41991C6.13725 7.04526 6.42586 6.74499 6.78752 6.52001C7.14919 6.29504 7.5545 6.18164 8.00346 6.18164C8.45241 6.18164 8.831 6.29413 9.17752 6.52001C9.52315 6.74589 9.79751 7.04979 10.0006 7.43443C10.2028 7.81906 10.3044 8.25178 10.3044 8.73438V8.99111H6.54434C6.58799 9.26416 6.6833 9.50365 6.82939 9.71049C6.97548 9.91732 7.16433 10.0815 7.39504 10.2058C7.62576 10.3301 7.87518 10.3918 8.14331 10.3918C8.38026 10.3918 8.60474 10.3537 8.81675 10.2775C9.02876 10.2013 9.20602 10.0997 9.34944 9.97265L9.93826 10.5632C9.67013 10.7791 9.38686 10.9397 9.08755 11.044C8.78824 11.1483 8.46132 11.2009 8.1059 11.2009L8.10679 11.2ZM6.55414 8.27627H9.37884C9.33519 8.02861 9.24611 7.80818 9.11249 7.61404C8.97798 7.42082 8.81497 7.26842 8.62167 7.15684C8.42836 7.04616 8.21279 6.98992 7.97673 6.98992C7.74067 6.98992 7.52154 7.04526 7.322 7.15684C7.12246 7.26842 6.95588 7.419 6.82137 7.60951C6.68686 7.80001 6.59868 8.02226 6.55503 8.27627H6.55414Z" fill="#0800B9"/>
<path d="M10.2515 11.1147L12.1034 8.62909L10.3263 6.26685H11.43L12.6548 7.92422L13.8708 6.26685H14.9272L13.1688 8.61911L15.0395 11.1147H13.9456L12.6361 9.32397L11.3079 11.1147H10.2515Z" fill="#0800B9"/>
<path d="M17.6174 11.2C17.1622 11.2 16.813 11.0921 16.5698 10.8762C16.3266 10.6603 16.2055 10.3401 16.2055 9.91461V7.06704H15.1953V6.26692H16.2055V5.03772L17.131 4.80005V6.26692H18.5429V7.06704H17.131V9.70505C17.131 9.94636 17.1853 10.1196 17.2949 10.2239C17.4036 10.3292 17.5835 10.3809 17.8329 10.3809C17.9639 10.3809 18.0806 10.3709 18.1839 10.3519C18.2873 10.3328 18.3977 10.3011 18.5162 10.2566V11.0658C18.3915 11.1102 18.2463 11.1438 18.0815 11.1656C17.9158 11.1873 17.7617 11.1991 17.6183 11.1991L17.6174 11.2Z" fill="#0800B9"/>
<path d="M19.2891 11.1148V6.25699H20.2244V6.88566C20.374 6.65705 20.5593 6.47925 20.7811 6.35225C21.0021 6.22524 21.2533 6.16174 21.5339 6.16174C21.7272 6.16174 21.8857 6.18714 22.0104 6.23794V7.09521C21.9231 7.05711 21.8332 7.02989 21.7396 7.01447C21.6461 6.99905 21.549 6.99089 21.4501 6.99089C21.182 6.99089 20.9415 7.06527 20.7304 7.21495C20.5184 7.36463 20.35 7.58145 20.2253 7.8672V11.1148H19.29H19.2891Z" fill="#0800B9"/>
<path d="M24.0148 11.2C23.6656 11.2 23.36 11.1383 23.0981 11.014C22.8363 10.8897 22.6305 10.7173 22.4808 10.4951C22.3312 10.2728 22.2563 10.0161 22.2563 9.72401C22.2563 9.2668 22.4292 8.90847 22.7757 8.64812C23.1213 8.38776 23.5908 8.25804 24.1831 8.25804C24.6508 8.25804 25.0811 8.34331 25.4739 8.51477V8.01039C25.4739 7.66113 25.3768 7.40078 25.1844 7.22932C24.9911 7.05787 24.7042 6.9726 24.3239 6.9726C24.1056 6.9726 23.8794 7.00616 23.646 7.07239C23.4126 7.13861 23.1489 7.24202 22.8559 7.38173L22.5004 6.66779C22.8559 6.49634 23.1908 6.37115 23.5061 6.29132C23.8206 6.2124 24.1377 6.17249 24.4557 6.17249C25.073 6.17249 25.5514 6.32217 25.8917 6.61971C26.2311 6.91817 26.4012 7.34363 26.4012 7.89609V11.1156H25.4757V10.6965C25.2699 10.8679 25.0454 10.9949 24.8022 11.0775C24.559 11.16 24.2972 11.2009 24.0166 11.2009L24.0148 11.2ZM23.1454 9.69589C23.1454 9.93719 23.2451 10.1304 23.4447 10.2765C23.6442 10.4225 23.9025 10.4951 24.2205 10.4951C24.47 10.4951 24.7007 10.457 24.9127 10.3808C25.1247 10.3046 25.3118 10.1876 25.4739 10.0288V9.20965C25.2993 9.10805 25.1122 9.03185 24.9127 8.98105C24.7132 8.93025 24.4976 8.90485 24.2678 8.90485C23.9186 8.90485 23.6442 8.97833 23.4447 9.12347C23.2451 9.26952 23.1454 9.46003 23.1454 9.69498V9.69589Z" fill="#0800B9"/>
</svg>
