<svg xmlns="http://www.w3.org/2000/svg" width="97" height="25" viewBox="0 0 97 25"><path d="M0 .5v24h24V.5zm24 17l5-5-5-5zm13.064.97v-8.092c0-.476.364-.854.84-.854s.854.378.854.854v.462c.546-.77 1.316-1.386 2.52-1.386 1.736 0 3.43 1.372 3.43 3.836v.028c0 2.45-1.68 3.836-3.43 3.836-1.232 0-2.002-.616-2.52-1.302v2.618c0 .476-.378.84-.854.84a.834.834 0 0 1-.84-.84zm3.808-2.786c1.162 0 2.114-.91 2.114-2.366v-.028c0-1.428-.966-2.366-2.114-2.366s-2.156.952-2.156 2.366v.028c0 1.414 1.008 2.366 2.156 2.366zm5.684.546V7.55c0-.462.364-.84.84-.84s.854.378.854.84v8.68c0 .476-.378.84-.854.84a.834.834 0 0 1-.84-.84zm6.034.924c-1.386 0-2.618-.798-2.618-2.282v-.028c0-1.596 1.246-2.38 3.052-2.38.826 0 1.414.126 1.988.308v-.182c0-1.05-.644-1.61-1.834-1.61a4.39 4.39 0 0 0-1.638.294.951.951 0 0 1-.266.042.705.705 0 0 1-.714-.7.74.74 0 0 1 .462-.672 6.336 6.336 0 0 1 2.38-.434c1.106 0 1.932.294 2.45.826.546.532.798 1.316.798 2.282v3.64a.807.807 0 0 1-.826.812c-.49 0-.826-.336-.826-.714v-.28c-.504.602-1.274 1.078-2.408 1.078zm.476-1.232c1.12 0 1.974-.644 1.974-1.582v-.504a4.696 4.696 0 0 0-1.68-.294c-1.092 0-1.736.462-1.736 1.232v.028c0 .714.63 1.12 1.442 1.12zm8.022 1.204c-1.246 0-2.128-.546-2.128-2.17v-3.892h-.28a.723.723 0 0 1-.728-.728c0-.406.322-.728.728-.728h.28v-1.26c0-.462.378-.84.854-.84.462 0 .84.378.84.84v1.26h1.33c.406 0 .742.322.742.728a.735.735 0 0 1-.742.728h-1.33v3.626c0 .658.336.924.91.924.196 0 .364-.042.42-.042.378 0 .714.308.714.7 0 .308-.21.56-.448.658a3.37 3.37 0 0 1-1.162.196zm3.248-9.422V7.62c0-.504.42-.826.966-.826s.966.322.966.826v.084c0 .504-.42.84-.966.84s-.966-.336-.966-.84zm.126 8.526v-5.852c0-.476.364-.854.84-.854s.854.378.854.854v5.852c0 .476-.378.84-.854.84a.834.834 0 0 1-.84-.84zm3.906 0v-5.852c0-.476.364-.854.84-.854s.854.378.854.854v.364c.476-.686 1.162-1.288 2.31-1.288 1.666 0 2.632 1.12 2.632 2.828v3.948c0 .476-.364.84-.84.84a.837.837 0 0 1-.854-.84V12.8c0-1.148-.574-1.806-1.582-1.806-.98 0-1.666.686-1.666 1.834v3.402c0 .476-.378.84-.854.84a.834.834 0 0 1-.84-.84zm15.246-5.852v5.852c0 .462-.378.84-.854.84a.845.845 0 0 1-.854-.84v-.378c-.476.7-1.162 1.302-2.31 1.302-1.666 0-2.632-1.12-2.632-2.842v-3.934c0-.476.378-.854.84-.854.476 0 .854.378.854.854v3.43c0 1.148.574 1.792 1.582 1.792.98 0 1.666-.672 1.666-1.82v-3.402c0-.476.378-.854.854-.854.462 0 .854.378.854.854zm2.114 5.852v-5.852c0-.476.364-.854.84-.854s.854.378.854.854v.35c.476-.658 1.12-1.274 2.254-1.274 1.064 0 1.82.518 2.212 1.302.588-.784 1.372-1.302 2.492-1.302 1.61 0 2.59 1.022 2.59 2.828v3.948c0 .476-.364.84-.84.84a.837.837 0 0 1-.854-.84V12.8c0-1.176-.546-1.806-1.498-1.806-.924 0-1.582.644-1.582 1.834v3.402c0 .476-.378.84-.84.84a.837.837 0 0 1-.854-.84v-3.444c0-1.148-.56-1.792-1.498-1.792s-1.582.7-1.582 1.834v3.402c0 .476-.378.84-.854.84a.834.834 0 0 1-.84-.84z" fill="#3B4757" fill-rule="evenodd"/></svg>