<svg xmlns="http://www.w3.org/2000/svg" width="108" height="25" viewBox="0 0 108 25"><g fill-rule="evenodd"><path d="M0 .5v24h24V.5zm24 17l5-5-5-5z" fill="#355E66"/><path fill="#A47FA4" d="M37.064 18.47v-8.092c0-.476.364-.854.84-.854s.854.378.854.854v.462c.546-.77 1.316-1.386 2.52-1.386 1.736 0 3.43 1.372 3.43 3.836v.028c0 2.45-1.68 3.836-3.43 3.836-1.232 0-2.002-.616-2.52-1.302v2.618c0 .476-.378.84-.854.84a.834.834 0 0 1-.84-.84zm3.808-2.786c1.162 0 2.114-.91 2.114-2.366v-.028c0-1.428-.966-2.366-2.114-2.366s-2.156.952-2.156 2.366v.028c0 1.414 1.008 2.366 2.156 2.366zm6.86-2.898h3.794c-.112-1.092-.756-1.946-1.876-1.946-1.036 0-1.764.798-1.918 1.946zm4.774 3.402c-.672.602-1.512.98-2.66.98-2.142 0-3.794-1.554-3.794-3.836v-.028c0-2.114 1.498-3.85 3.612-3.85 2.352 0 3.514 1.932 3.514 3.64a.792.792 0 0 1-.798.812h-4.634c.182 1.204 1.036 1.876 2.128 1.876.714 0 1.274-.252 1.75-.644a.63.63 0 0 1 .434-.154c.378 0 .672.294.672.686a.74.74 0 0 1-.224.518zm4.886.938c-1.246 0-2.128-.546-2.128-2.17v-3.892h-.28a.723.723 0 0 1-.728-.728c0-.406.322-.728.728-.728h.28v-1.26c0-.462.378-.84.854-.84.462 0 .84.378.84.84v1.26h1.33c.406 0 .742.322.742.728a.735.735 0 0 1-.742.728h-1.33v3.626c0 .658.336.924.91.924.196 0 .364-.042.42-.042.378 0 .714.308.714.7 0 .308-.21.56-.448.658a3.37 3.37 0 0 1-1.162.196zm3.276-.896v-5.852c0-.476.364-.854.84-.854s.854.378.854.854v.756c.392-.924 1.12-1.624 1.862-1.624.532 0 .84.35.84.84a.795.795 0 0 1-.672.812c-1.204.21-2.03 1.134-2.03 2.884v2.184c0 .462-.378.84-.854.84a.834.834 0 0 1-.84-.84zm9.044.938c-2.254 0-3.92-1.722-3.92-3.822v-.028c0-2.114 1.68-3.864 3.948-3.864s3.934 1.722 3.934 3.836v.028c0 2.1-1.68 3.85-3.962 3.85zm.028-1.484c1.372 0 2.24-1.064 2.24-2.338v-.028c0-1.302-.938-2.38-2.268-2.38-1.358 0-2.226 1.064-2.226 2.352v.028c0 1.288.938 2.366 2.254 2.366zm5.754.546V7.55c0-.462.364-.84.84-.84s.854.378.854.84v8.68c0 .476-.378.84-.854.84a.834.834 0 0 1-.84-.84zm5.18-3.444h3.794c-.112-1.092-.756-1.946-1.876-1.946-1.036 0-1.764.798-1.918 1.946zm4.774 3.402c-.672.602-1.512.98-2.66.98-2.142 0-3.794-1.554-3.794-3.836v-.028c0-2.114 1.498-3.85 3.612-3.85 2.352 0 3.514 1.932 3.514 3.64a.792.792 0 0 1-.798.812h-4.634c.182 1.204 1.036 1.876 2.128 1.876.714 0 1.274-.252 1.75-.644a.63.63 0 0 1 .434-.154c.378 0 .672.294.672.686a.74.74 0 0 1-.224.518zm8.974-5.81v5.852c0 .462-.378.84-.854.84a.845.845 0 0 1-.854-.84v-.378c-.476.7-1.162 1.302-2.31 1.302-1.666 0-2.632-1.12-2.632-2.842v-3.934c0-.476.378-.854.84-.854.476 0 .854.378.854.854v3.43c0 1.148.574 1.792 1.582 1.792.98 0 1.666-.672 1.666-1.82v-3.402c0-.476.378-.854.854-.854.462 0 .854.378.854.854zm2.114 5.852v-5.852c0-.476.364-.854.84-.854s.854.378.854.854v.35c.476-.658 1.12-1.274 2.254-1.274 1.064 0 1.82.518 2.212 1.302.588-.784 1.372-1.302 2.492-1.302 1.61 0 2.59 1.022 2.59 2.828v3.948c0 .476-.364.84-.84.84a.837.837 0 0 1-.854-.84V12.8c0-1.176-.546-1.806-1.498-1.806-.924 0-1.582.644-1.582 1.834v3.402c0 .476-.378.84-.84.84a.837.837 0 0 1-.854-.84v-3.444c0-1.148-.56-1.792-1.498-1.792s-1.582.7-1.582 1.834v3.402c0 .476-.378.84-.854.84a.834.834 0 0 1-.84-.84z"/></g></svg>