<svg width="64" height="8" viewBox="0 0 64 8" fill="none" xmlns="http://www.w3.org/2000/svg"><path d="M4.187 8a4.653 4.653 0 0 1-1.661-.292 3.916 3.916 0 0 1-1.33-.833 3.895 3.895 0 0 1-.876-1.27 4.003 4.003 0 0 1-.316-1.603c0-.584.107-1.117.316-1.602.209-.486.505-.912.884-1.271A3.95 3.95 0 0 1 2.542.296 4.583 4.583 0 0 1 4.203.004c.671 0 1.279.114 1.824.347a3.527 3.527 0 0 1 1.37 1.022L6.235 2.435a2.644 2.644 0 0 0-.88-.687 2.475 2.475 0 0 0-1.066-.232c-.363 0-.69.059-.994.181a2.317 2.317 0 0 0-.786.513c-.22.221-.39.482-.513.786a2.657 2.657 0 0 0-.182 1.006c0 .371.06.702.182 1.006.122.304.292.565.513.786.221.22.482.39.786.513.3.122.631.181.994.181.383 0 .738-.079 1.066-.236.327-.158.62-.387.88-.691l1.16 1.062c-.367.45-.825.793-1.37 1.026-.544.237-1.156.355-1.835.355L4.187 8ZM8.584 7.87V.134h1.8V6.41h3.856v1.46H8.584ZM18.692 8c-1.098 0-1.954-.304-2.574-.916-.62-.611-.927-1.488-.927-2.628V.134h1.8v4.278c0 .73.15 1.26.454 1.587.3.328.722.493 1.258.493.537 0 .968-.165 1.271-.493.304-.328.454-.856.454-1.587V.134h1.756v4.322c0 1.14-.307 2.02-.927 2.628-.62.612-1.472.916-2.561.916h-.004ZM23.96 7.87V.134h3.777c.971 0 1.706.186 2.195.553.49.367.734.856.734 1.46 0 .407-.099.758-.3 1.054a1.974 1.974 0 0 1-.825.69 2.803 2.803 0 0 1-1.188.245l.21-.466c.485 0 .915.083 1.286.245.371.162.663.399.88.707.213.307.32.69.32 1.136 0 .663-.26 1.18-.786 1.551-.525.371-1.294.557-2.308.557h-3.998l.003.004Zm1.78-1.35h2.1c.458 0 .805-.079 1.05-.233.245-.154.363-.395.363-.718 0-.324-.122-.576-.363-.73-.24-.154-.592-.233-1.05-.233h-2.23V3.303h1.91c.435 0 .77-.075.999-.225.233-.15.347-.378.347-.69 0-.312-.114-.537-.347-.687-.233-.146-.564-.221-.998-.221h-1.78v5.04ZM34.984 7.87V6.71l2.983-2.819c.237-.213.41-.402.525-.568.115-.166.19-.32.225-.466a1.67 1.67 0 0 0 .056-.402c0-.3-.103-.537-.308-.707-.206-.17-.517-.252-.928-.252-.331 0-.635.067-.907.197-.273.13-.506.328-.695.584l-1.295-.84c.288-.442.695-.794 1.228-1.05C36.4.13 37.008 0 37.703 0c.576 0 1.078.09 1.512.276.434.186.773.446 1.01.79.24.343.36.75.36 1.22 0 .244-.036.489-.107.741a2.76 2.76 0 0 1-.383.786c-.186.272-.458.576-.817.915l-2.475 2.32-.343-.639h4.373v1.46H34.98h.004ZM44.882 8c-.631 0-1.2-.158-1.697-.47-.497-.311-.892-.765-1.184-1.357-.292-.592-.438-1.319-.438-2.171 0-.853.146-1.579.438-2.17.292-.593.687-1.047 1.184-1.358a3.126 3.126 0 0 1 1.697-.47c.636 0 1.212.158 1.709.47.497.311.892.765 1.18 1.357.288.592.438 1.318.438 2.171 0 .852-.146 1.579-.438 2.17-.292.593-.687 1.047-1.18 1.358-.497.312-1.066.47-1.709.47Zm0-1.504c.304 0 .565-.087.79-.26.224-.174.402-.442.528-.813.127-.371.194-.845.194-1.425 0-.58-.063-1.058-.194-1.425-.13-.367-.304-.64-.529-.813a1.257 1.257 0 0 0-.789-.26c-.3 0-.545.087-.773.26-.23.174-.41.442-.541.813-.13.371-.197.845-.197 1.425 0 .58.067 1.058.197 1.425s.312.64.54.813c.23.173.486.26.774.26ZM52.385 8c-.632 0-1.2-.158-1.697-.47-.498-.311-.892-.765-1.184-1.357-.292-.592-.438-1.319-.438-2.171 0-.853.146-1.579.438-2.17.292-.593.686-1.047 1.184-1.358a3.126 3.126 0 0 1 1.697-.47c.635 0 1.211.158 1.709.47.497.311.892.765 1.18 1.357.288.592.438 1.318.438 2.171 0 .852-.146 1.579-.438 2.17-.292.593-.687 1.047-1.18 1.358-.498.312-1.066.47-1.71.47Zm0-1.504c.304 0 .564-.087.79-.26.224-.174.402-.442.528-.813.126-.371.193-.845.193-1.425 0-.58-.063-1.058-.193-1.425s-.304-.64-.529-.813a1.257 1.257 0 0 0-.79-.26c-.3 0-.544.087-.773.26-.229.174-.41.442-.54.813-.13.371-.198.845-.198 1.425 0 .58.067 1.058.198 1.425.13.367.311.64.54.813.23.173.486.26.774.26ZM59.884 8c-.632 0-1.2-.158-1.697-.47-.498-.311-.892-.765-1.184-1.357-.293-.592-.439-1.319-.439-2.171 0-.853.146-1.579.438-2.17.292-.593.687-1.047 1.184-1.358a3.126 3.126 0 0 1 1.698-.47c.635 0 1.211.158 1.709.47.497.311.891.765 1.18 1.357.288.592.438 1.318.438 2.171 0 .852-.146 1.579-.438 2.17-.293.593-.687 1.047-1.18 1.358-.498.312-1.066.47-1.71.47Zm0-1.504c.303 0 .564-.087.789-.26.225-.174.402-.442.529-.813.126-.371.193-.845.193-1.425 0-.58-.063-1.058-.193-1.425s-.304-.64-.53-.813a1.257 1.257 0 0 0-.788-.26c-.3 0-.545.087-.774.26-.229.174-.41.442-.54.813-.13.371-.198.845-.198 1.425 0 .58.067 1.058.197 1.425s.312.64.541.813c.229.173.486.26.774.26Z" fill="#024"/></svg>
