<svg width="41" height="8" viewBox="0 0 41 8" fill="none" xmlns="http://www.w3.org/2000/svg"><path d="M3.157 8c-.62 0-1.215-.083-1.784-.249C.801 7.586.343 7.37 0 7.104l.608-1.35c.323.237.714.43 1.172.58a4.4 4.4 0 0 0 1.381.225c.356 0 .64-.035.857-.11.217-.075.379-.17.481-.292a.643.643 0 0 0 .154-.426.59.59 0 0 0-.245-.494 2.017 2.017 0 0 0-.647-.3c-.268-.079-.56-.15-.88-.22-.32-.072-.635-.155-.955-.253a3.826 3.826 0 0 1-.884-.399 1.87 1.87 0 0 1-.64-.651c-.157-.268-.236-.608-.236-1.01 0-.442.118-.845.355-1.212C.758.829 1.117.537 1.598.32c.482-.217 1.09-.328 1.816-.328.485 0 .967.06 1.44.178.474.118.888.288 1.244.509l-.565 1.35a4.555 4.555 0 0 0-1.07-.446 4.099 4.099 0 0 0-1.06-.15c-.34 0-.636.04-.853.114-.214.08-.371.182-.47.316a.729.729 0 0 0-.15.442c0 .205.083.37.245.497.161.126.375.221.639.292.264.071.56.138.884.21.324.07.643.157.963.26.316.103.608.233.872.39.265.158.482.372.648.64.165.268.248.604.248.999 0 .434-.118.832-.359 1.191-.24.36-.604.652-1.09.873-.485.22-1.092.331-1.823.331V8ZM7.657 7.87V.134h1.8V7.87h-1.8ZM11.28 7.87V.134h1.8V6.41h3.855v1.46H11.28ZM20.27 7.87 16.924.134h1.945l2.917 6.852h-1.137L23.605.134h1.78L22.038 7.87H20.27ZM27.97 6.433h4.212V7.87h-5.988V.134h5.845v1.437h-4.065v4.862h-.004Zm-.13-3.193h3.722v1.405H27.84V3.24ZM33.602 7.87V.134h3.347c.69 0 1.29.11 1.792.336a2.63 2.63 0 0 1 1.16.967c.273.418.41.915.41 1.491 0 .577-.137 1.082-.41 1.496-.272.419-.659.734-1.16.951-.501.218-1.097.328-1.792.328h-2.364l.817-.774v2.94h-1.8Zm1.8-2.74-.817-.852h2.265c.545 0 .96-.118 1.24-.355s.418-.568.418-.995c0-.426-.138-.757-.418-.99-.28-.233-.69-.347-1.24-.347h-2.265l.817-.853v4.393Zm3.126 2.74-1.946-2.806h1.922L40.45 7.87h-1.922Z" fill="#656868"/></svg>
