<svg xmlns="http://www.w3.org/2000/svg" width="115" height="32" fill="none"><path fill="#0800B9" d="M25.481 9.595v5.047a3.325 3.325 0 0 1-3.319 3.32 3.325 3.325 0 0 1-3.319-3.32V9.595H16.85v5.047a5.316 5.316 0 0 0 5.312 5.312c.58 0 1.143-.1 1.664-.274a3.112 3.112 0 0 0 1.655-1.358v.787c0 1.796-1.691 3.318-3.694 3.318-1.138 0-2.12-.457-3.186-1.485l-.068-.064-1.18 1.577.082.091c1.066 1.166 2.643 1.632 2.656 1.637a6 6 0 0 0 1.692.238c3.136 0 5.691-2.382 5.691-5.312V9.595h-1.993ZM30.816 5.563c-.745 0-1.353.608-1.353 1.354 0 .745.608 1.353 1.353 1.353s1.353-.608 1.353-1.353c0-.746-.608-1.354-1.353-1.354ZM51.278 9.33a5.316 5.316 0 0 0-5.312 5.312 5.316 5.316 0 0 0 5.312 5.312c.58 0 1.143-.1 1.664-.274a3.112 3.112 0 0 0 1.655-1.358v.787c0 1.796-1.692 3.318-3.694 3.318-1.138 0-2.121-.457-3.186-1.485l-.069-.064-1.18 1.577.083.091c1.065 1.166 2.642 1.632 2.656 1.637a6 6 0 0 0 1.691.238c3.136 0 5.692-2.382 5.692-5.312v-4.471a5.315 5.315 0 0 0-5.312-5.308Zm0 8.631a3.325 3.325 0 0 1-3.32-3.319 3.325 3.325 0 0 1 3.32-3.319 3.325 3.325 0 0 1 3.319 3.32 3.322 3.322 0 0 1-3.32 3.318ZM63.575 19.954a5.316 5.316 0 0 0 5.312-5.312 5.316 5.316 0 0 0-5.312-5.312c-.58 0-1.143.1-1.664.275a3.112 3.112 0 0 0-1.655 1.357v-5.65h-1.993v9.335a5.315 5.315 0 0 0 5.312 5.307Zm0-8.63a3.325 3.325 0 0 1 3.319 3.318 3.325 3.325 0 0 1-3.32 3.32 3.325 3.325 0 0 1-3.318-3.32 3.322 3.322 0 0 1 3.319-3.319ZM85.106 9.59H83.1v5.043a3.317 3.317 0 0 1-3.314 3.314 3.317 3.317 0 0 1-3.314-3.314V9.591h-2.007v5.188a5.288 5.288 0 0 0 1.605 3.662 5.278 5.278 0 0 0 3.712 1.513 5.326 5.326 0 0 0 5.32-5.32V9.59h.005ZM94.318 16.79a3.337 3.337 0 0 1-2.565 1.203 3.349 3.349 0 0 1-3.227-2.455h8.461c.05-.292.083-.59.083-.896a5.31 5.31 0 0 0-5.312-5.312 5.31 5.31 0 0 0-5.312 5.312 5.31 5.31 0 0 0 10.166 2.149h-2.294Zm-2.565-5.508a3.357 3.357 0 0 1 3.21 2.377h-6.414a3.35 3.35 0 0 1 3.204-2.377ZM4.288 19.762v-5.088h5.7v-2.002h-5.7v-2.313a3.317 3.317 0 0 1 3.314-3.314c1.285 0 2.08.594 2.88 1.48l.069.078 1.184-1.59-.078-.092c-.992-1.17-2.464-1.636-2.478-1.641a5.32 5.32 0 0 0-6.898 5.074v9.408h2.007ZM14.738 5.307h-2.007v14.455h2.007V5.307ZM31.822 9.595h-2.007v10.167h2.007V9.595ZM35.99 19.762v-5.115a3.316 3.316 0 0 1 3.315-3.31 3.316 3.316 0 0 1 3.314 3.31v5.115h2.007v-5.115a5.326 5.326 0 0 0-5.32-5.321 5.326 5.326 0 0 0-5.322 5.32v5.116h2.007ZM72.42 5.307h-2.006v14.455h2.007V5.307Z"/><path fill="#00A1DE" d="M58.281 24.599v2.756h1.052v-1l.996 1h1.39l-1.536-1.531 1.22-1.225h-1.046l-1.034 1.01V24.6h-1.042Z"/><path fill="#00A1DE" d="M61.705 24.599v2.756h2.775v-.69h-1.71V24.6h-1.065ZM64.782 24.599v2.756h1.056v-1.988l.7 1.988h.987l.708-2.006v2.006h1.047V24.6h-1.723l-.53 1.522-.517-1.522h-1.728ZM65.838 23.973v-.709H61.69v.709h4.147ZM63.589 21.637h-.348v-.343h.348v-.343h.338v.343h.347v.343h-.347v.342h-.338v-.342ZM61.705 23.104a.598.598 0 1 0 .002-1.2.598.598 0 0 0-.002 1.2ZM63.086 23.104c.329 0 .599-.27.599-.599a.597.597 0 1 0-1.193 0c0 .33.265.599.594.599ZM64.47 23.104a.598.598 0 1 0-.599-.599c.001.33.266.599.6.599ZM65.851 23.104c.33 0 .595-.27.595-.599a.597.597 0 1 0-1.193 0 .6.6 0 0 0 .598.599ZM74.149 27.314c0 .019-.014.028-.028.028h-.416c-.032 0-.046-.014-.055-.037l-.571-.873c-.01-.014-.018-.027-.046-.027h-.503c-.023 0-.032.009-.032.032v.864c0 .027-.013.04-.036.04h-.357c-.027 0-.036-.013-.036-.04v-2.675c0-.032.018-.045.036-.045h.992c.53 0 .978.21.978.864 0 .484-.237.763-.548.882.15.233.626.964.626.964-.004.01-.004.014-.004.023Zm-1.13-2.409h-.493c-.019 0-.032.018-.032.032v1.116c0 .022.009.032.036.032h.462c.402 0 .635-.165.635-.613 0-.416-.233-.567-.608-.567ZM75.639 27.383c-.599 0-1.161-.38-1.161-1.175 0-.827.503-1.211 1.165-1.211.668 0 1.17.374 1.17 1.211 0 .786-.543 1.175-1.174 1.175Zm0-2.066c-.402 0-.732.219-.732.886 0 .586.302.832.741.832s.74-.256.74-.832c0-.672-.333-.886-.75-.886ZM78.697 26.834c-.119.403-.338.933-.667 1.257a.065.065 0 0 1-.055.028h-.38c-.018 0-.032-.014-.032-.028 0-.004.005-.013.01-.018.118-.11.448-.475.484-.69v-.005c0-.023-.018-.036-.032-.036h-.224c-.023 0-.036-.014-.046-.032l-.74-2.254c0-.005-.005-.01-.005-.01 0-.017.019-.022.041-.022h.38c.023 0 .036.005.046.027l.608 1.92c.009.028.027.032.045.032h.087c.018 0 .028-.004.037-.027l.535-1.925c.004-.018.018-.027.04-.027h.362c.018 0 .027.014.027.027v.005l-.52 1.778ZM81.481 27.246c0 .032-.009.05-.05.055-.306.032-.759.082-.983.082-.453 0-.992-.146-.992-.832 0-.658.63-.709.965-.709.164 0 .498.032.621.05 0-.466-.274-.548-.676-.548-.215 0-.416.018-.563.027h-.013a.04.04 0 0 1-.041-.032l-.042-.246v-.005c0-.018.019-.032.042-.032.205-.027.498-.05.68-.05.632 0 1.048.196 1.048.823v1.417h.004Zm-.425-1.033c0-.023-.01-.042-.046-.042h-.548c-.28 0-.563.037-.563.38 0 .402.293.452.544.452h.567c.037 0 .046-.009.046-.04v-.75ZM82.478 27.342h-.352c-.023 0-.037-.01-.037-.041v-3.036c0-.027.014-.036.037-.041l.347-.041c.032 0 .041.014.041.041v3.077c0 .032-.009.04-.036.04ZM85.477 27.342h-.938c-.027 0-.036-.01-.036-.041v-2.675c0-.032.014-.045.036-.045h.997c.718 0 1.321.283 1.321 1.293 0 1.125-.608 1.468-1.38 1.468Zm.077-2.437h-.576c-.032 0-.045.018-.045.041v2.02c0 .028.009.042.04.042h.59c.48 0 .86-.306.86-1.07 0-.754-.352-1.033-.869-1.033ZM89.211 27.269a5.865 5.865 0 0 1-.877.096c-.69 0-1.056-.234-1.056-.924v-1.376c0-.023.013-.041.04-.041h.344c.027 0 .045.014.045.037v1.398c0 .398.192.558.604.558.155 0 .334-.014.47-.023.024-.004.042-.013.042-.04V25.06c0-.028.009-.037.041-.037h.343c.027 0 .046.014.046.037v2.153c.004.032-.005.05-.042.055ZM91.067 27.291c-.009.023-.018.032-.05.037-.174.018-.274.037-.416.037-.384 0-.558-.17-.558-.581v-1.44c0-.027-.013-.041-.04-.041h-.275c-.027 0-.041-.018-.041-.046v-.196c0-.023.014-.037.041-.037h.279c.023 0 .036-.014.036-.041v-.53c0-.028.01-.042.042-.05l.342-.037c.028 0 .046.013.046.04v.577c0 .027.01.041.041.041h.44c.031 0 .04.014.04.041v.197c0 .023-.009.036-.04.036h-.44c-.027 0-.04.019-.04.046v1.33c0 .238.036.334.342.334h.247c.036 0 .041.018.041.041l-.037.242ZM93.175 27.323c-.151.019-.402.05-.613.05-.759 0-1.225-.37-1.225-1.21 0-.87.617-1.162 1.22-1.162.184 0 .449.023.6.046.027.004.04.014.04.046l-.04.228c-.005.023-.014.041-.037.041h-.01a5.458 5.458 0 0 0-.493-.018c-.494 0-.841.215-.841.814 0 .63.343.85.841.85.215 0 .407-.01.558-.018h.014c.022 0 .032.013.032.036v.256c0 .023-.01.032-.046.041ZM95.726 27.3c0 .033-.01.042-.041.042h-.348c-.032 0-.041-.01-.041-.041v-1.344c0-.44-.238-.613-.63-.613-.239 0-.357.01-.513.027-.027.005-.041.014-.041.042V27.3c0 .027-.01.04-.037.04h-.352c-.032 0-.036-.008-.036-.04V24.27c0-.032.009-.041.036-.041l.348-.046c.027 0 .041.009.041.046v.795c0 .027.018.027.055.027.11-.018.38-.045.567-.045.68 0 .992.279.992.987v1.308ZM99.954 27.314c0 .019-.013.028-.027.028h-.361c-.023 0-.05-.014-.055-.041l-.238-.887c-.004-.023-.014-.037-.036-.037h-1.102c-.028 0-.037.01-.046.032l-.238.887c-.009.037-.022.046-.054.046h-.32c-.023 0-.046-.014-.046-.037 0-.004.004-.009.004-.014l.709-2.674c.004-.018.027-.036.05-.036h.992c.023 0 .05.018.055.045l.704 2.665c.005.01.01.014.01.023Zm-1.074-2.377c0-.018-.018-.032-.037-.032h-.315c-.023 0-.041.01-.046.032l-.292 1.093v.009c0 .018.013.023.027.023h.933c.013 0 .018-.01.018-.019v-.013l-.288-1.093ZM100.773 24.603c0 .028-.01.042-.037.042h-.352c-.018 0-.037-.014-.037-.046v-.334c0-.027.014-.041.037-.041h.352c.027 0 .037.014.037.041v.338Zm-.037 2.739h-.352c-.023 0-.037-.014-.037-.041v-2.236c0-.023.014-.041.042-.041h.342c.032 0 .042.014.042.037v2.24c0 .032-.005.04-.037.04ZM102.4 25.344c-.178 0-.311.014-.489.023-.032.004-.046.018-.046.041v1.893c0 .027-.009.04-.036.04h-.352c-.019 0-.037-.013-.037-.04v-2.154c0-.027.014-.045.041-.054.274-.037.594-.083.924-.092.022 0 .036.018.036.041v.27c-.004.023-.014.032-.041.032ZM103.255 27.342h-.352c-.023 0-.037-.01-.037-.041v-3.036c0-.027.014-.036.037-.041l.347-.041c.032 0 .041.014.041.041v3.077c0 .032-.009.04-.036.04ZM104.389 24.603c0 .028-.01.042-.037.042H104c-.018 0-.037-.014-.037-.046v-.334c0-.027.014-.041.037-.041h.352c.027 0 .037.014.037.041v.338Zm-.037 2.739H104c-.023 0-.037-.014-.037-.041v-2.236c0-.023.014-.041.042-.041h.342c.032 0 .042.014.042.037v2.24c0 .032-.005.04-.037.04ZM107.045 27.342h-.352c-.028 0-.037-.01-.037-.041V25.92c0-.448-.224-.571-.663-.571-.137 0-.343.018-.471.027-.032 0-.036.01-.036.041v1.888c0 .032-.014.041-.041.041h-.352c-.028 0-.042-.009-.042-.04v-2.154c0-.032.01-.041.046-.05.325-.05.69-.092.914-.092.668 0 1.07.197 1.07.883v1.412c0 .028-.009.037-.036.037ZM109.737 26.363h-1.696c-.023 0-.036.005-.036.042.018.512.361.626.859.626.187 0 .393-.018.613-.032.018 0 .036.004.036.027v.01l-.036.246c-.01.028-.019.028-.051.037a5.185 5.185 0 0 1-.704.055c-.695 0-1.161-.288-1.161-1.193 0-.874.503-1.17 1.111-1.17.741 0 1.097.415 1.097 1.316.005.027-.004.036-.032.036Zm-1.083-1.028c-.398 0-.654.22-.654.667 0 .032.009.041.037.041h1.257c.027 0 .045-.004.045-.036-.009-.453-.278-.672-.685-.672ZM110.912 27.37c-.197 0-.421-.02-.663-.06-.032-.01-.041-.019-.041-.046v-.247c0-.018.014-.032.032-.032h.014c.109.005.37.023.585.023.288 0 .635-.014.635-.33 0-.548-1.284-.3-1.284-1.083 0-.48.503-.594.941-.594.197 0 .439.032.622.06.028.009.046.022.046.045l-.041.233c0 .019-.014.028-.037.028h-.009c-.128-.014-.338-.037-.581-.037-.237 0-.512.014-.512.265 0 .435 1.285.238 1.285 1.043-.005.52-.398.731-.992.731Z"/></svg>