<svg width="108" height="15" viewBox="0 0 108 15" fill="none" xmlns="http://www.w3.org/2000/svg"><g clip-path="url(#a)"><path d="M104.357 0H2.797A2.797 2.797 0 0 0 0 2.797v9.406A2.797 2.797 0 0 0 2.797 15h101.56a2.796 2.796 0 0 0 2.796-2.797V2.797A2.796 2.796 0 0 0 104.357 0Z" fill="#28334A"/><path d="M5.127 10.743V4.21h2.826c.584 0 1.09.097 1.514.283.423.19.75.464.98.817.23.353.346.773.346 1.26s-.116.913-.346 1.263c-.23.354-.557.624-.98.817-.424.193-.927.29-1.514.29H5.957l.69-.68v2.483h-1.52Zm1.52-2.313-.69-.72H7.87c.46 0 .81-.1 1.047-.3.236-.2.353-.48.353-.84s-.117-.64-.353-.837c-.237-.196-.584-.293-1.047-.293H5.957l.69-.72v3.71ZM11.957 10.743V4.21h1.52v5.3h3.256v1.233h-4.776ZM16.733 10.743l2.904-6.533h1.493l2.93 6.533h-1.587l-2.396-5.766h.606l-2.396 5.766h-1.554Zm1.464-1.4.383-1.146h3.377l.39 1.146h-4.154.004ZM26.09 10.743v-5.3H24V4.21h5.69v1.233H27.6v5.3h-1.51ZM30.503 10.743V4.21h1.52v6.533h-1.52ZM33.563 10.743V4.21h1.25l3.854 4.703h-.607V4.21h1.493v6.533h-1.25L34.45 6.04h.607v4.703h-1.494ZM44.003 10.853c-.926 0-1.65-.256-2.173-.773-.523-.517-.783-1.257-.783-2.22V4.21h1.52v3.613c0 .617.126 1.064.383 1.34.253.277.61.417 1.063.417.454 0 .817-.14 1.074-.417.256-.276.383-.723.383-1.34V4.21h1.483v3.65c0 .963-.26 1.707-.783 2.22-.523.517-1.243.773-2.163.773h-.004ZM48.457 10.743V4.21h1.25l2.78 4.61h-.664l2.724-4.61h1.26v6.533h-1.41l-.02-4.36h.28l-2.204 3.66h-.673l-2.23-3.66h.307v4.36h-1.41.01ZM61.23 5.227v1.986h3.153V8.24H61.23v2.5h-1.213V4.21h4.77v1.017H61.23ZM67.14 10.403A3.196 3.196 0 0 1 65.88 9.2a3.29 3.29 0 0 1-.457-1.723c0-.637.154-1.21.457-1.724a3.196 3.196 0 0 1 1.26-1.203 3.724 3.724 0 0 1 1.8-.433c.663 0 1.267.143 1.8.433.533.29.957.69 1.26 1.2.303.51.457 1.087.457 1.727 0 .64-.154 1.216-.457 1.726-.307.51-.723.91-1.26 1.2a3.724 3.724 0 0 1-1.8.434c-.663 0-1.267-.144-1.8-.434Zm2.977-.923c.35-.197.623-.47.82-.82.196-.35.3-.747.3-1.18 0-.433-.1-.83-.3-1.18a2.13 2.13 0 0 0-.82-.82 2.38 2.38 0 0 0-1.177-.293c-.437 0-.827.096-1.177.293-.35.197-.623.47-.82.82-.2.35-.3.747-.3 1.18 0 .433.1.83.3 1.18.2.35.474.627.82.82.347.193.74.293 1.177.293.437 0 .827-.096 1.177-.293ZM78.02 10.743 76.687 8.83c-.057.007-.14.01-.254.01H74.96v1.903h-1.213V4.21h2.686c.567 0 1.06.093 1.48.28.42.187.744.453.967.803.223.347.337.764.337 1.24 0 .477-.12.914-.36 1.27-.24.354-.584.62-1.03.794l1.503 2.146H78.02Zm-.44-5.17c-.273-.223-.677-.336-1.203-.336h-1.42V7.84h1.42c.53 0 .93-.113 1.203-.34.273-.227.41-.55.41-.967 0-.416-.137-.736-.41-.96ZM83.147 4.21h1.213v5.507h3.417v1.026h-4.63V4.21ZM88.737 4.21h1.213v6.533h-1.213V4.21ZM92.927 5.227v1.986h3.153V8.24h-3.153v2.5h-1.214V4.21h4.77v1.017h-3.556ZM102.56 9.727v1.016h-4.9V4.21h4.77v1.017h-3.557v1.7h3.154v1h-3.154v1.8h3.687Z" fill="#fff"/></g><defs><clipPath id="a"><path fill="#fff" d="M0 0h107.153v15H0z"/></clipPath></defs></svg>
