<svg width="219" height="47" viewBox="0 0 219 47" fill="none" xmlns="http://www.w3.org/2000/svg">
<g clip-path="url(#clip0_1559_67)">
<path fill-rule="evenodd" clip-rule="evenodd" d="M20.1256 24.199H13.4218L6.70385 30.953V24.199H0V42.2074H6.70736V35.4605L13.4253 42.2074H22.3673H40.2582V37.6683H29.0746V24.199H22.3673V42.2074L12.2992 32.0765L20.1256 24.199ZM60.3875 24.199L57.0302 34.3302L53.6731 24.199H42.4895V42.2074H49.2002V28.703L53.6731 42.2074H60.3875L64.8567 28.703V42.2074H71.564V24.199H60.3875ZM31.3093 14.0645C33.4664 14.0645 35.2224 12.3073 35.2224 10.1311C35.2224 7.95483 33.4664 6.19061 31.3093 6.19061C29.152 6.19061 27.3996 7.95483 27.3996 10.1311C27.3996 12.3073 29.1414 14.0645 31.3093 14.0645ZM36.338 10.1311C36.338 12.3073 38.0906 14.0645 40.2582 14.0645C42.4261 14.0645 44.1645 12.3073 44.1645 10.1311C44.1645 7.95483 42.4156 6.19061 40.2582 6.19061C38.1011 6.19061 36.338 7.95483 36.338 10.1311ZM26.277 10.1311C26.277 7.95483 24.5245 6.19061 22.3673 6.19061C20.2101 6.19061 18.4541 7.95483 18.4541 10.1311C18.4541 12.3073 20.2031 14.0645 22.3673 14.0645C24.5315 14.0645 26.277 12.3073 26.277 10.1311ZM22.3673 19.6952H49.2039V15.1913H22.3673V19.6952ZM49.2002 6.19061C47.0326 6.19061 45.2837 7.95483 45.2837 10.1311C45.2837 12.3073 47.0326 14.0645 49.2002 14.0645C51.3681 14.0645 53.1099 12.3073 53.1099 10.1311C53.1099 7.95483 51.361 6.19061 49.2002 6.19061ZM34.663 6.75053H36.9011V4.49683H39.1321V2.24665H36.9011V0H34.663V2.24665H32.4283V4.49683H34.663V6.75053ZM97.9185 42.4469C96.187 42.4469 94.6351 42.0667 93.2627 41.3095C91.8868 40.5525 90.8099 39.4747 90.0286 38.0804C89.2474 36.6858 88.8569 35.0626 88.8569 33.2173C88.8569 31.3721 89.2474 29.7346 90.0286 28.3331C90.8099 26.9317 91.8903 25.8541 93.2698 25.09C94.6493 24.3293 96.2047 23.9455 97.9431 23.9455C99.0868 23.9455 100.146 24.1286 101.121 24.4984C102.099 24.8681 102.947 25.3963 103.672 26.083C104.397 26.7696 104.957 27.5725 105.354 28.4952L102.81 30.0973C102.528 29.4671 102.159 28.9142 101.698 28.4387C101.24 27.9635 100.699 27.5936 100.076 27.333C99.4565 27.0724 98.7771 26.9422 98.0381 26.9422C96.972 26.9422 95.9972 27.1923 95.1209 27.6923C94.2446 28.1924 93.5478 28.9211 93.034 29.8721C92.5202 30.8229 92.2633 31.9426 92.2633 33.2279C92.2633 34.5132 92.5131 35.6366 93.0163 36.5768C93.5161 37.517 94.2058 38.2317 95.0786 38.7249C95.9513 39.2178 96.9297 39.4642 98.017 39.4642C98.7526 39.4642 99.4282 39.3306 100.04 39.0594C100.653 38.7917 101.195 38.4184 101.663 37.9394C102.131 37.4642 102.522 36.9079 102.835 36.2668L105.369 37.8938C104.971 38.7951 104.422 39.5912 103.718 40.2742C103.014 40.9572 102.173 41.489 101.191 41.8695C100.209 42.2496 99.1185 42.44 97.9185 42.44V42.4469ZM107.554 26.5618C107.835 26.7239 108.148 26.8049 108.497 26.8049C108.852 26.8049 109.169 26.7239 109.447 26.5618C109.725 26.3999 109.943 26.1816 110.105 25.9034C110.267 25.6252 110.348 25.3012 110.348 24.9526C110.348 24.604 110.267 24.2906 110.105 24.0089C109.943 23.7272 109.725 23.5053 109.447 23.3434C109.169 23.1814 108.845 23.1004 108.497 23.1004C108.148 23.1004 107.835 23.1814 107.554 23.3434C107.272 23.5053 107.051 23.7272 106.889 24.0089C106.727 24.2906 106.646 24.597 106.646 24.9526C106.646 25.3083 106.727 25.6252 106.889 25.9034C107.051 26.1816 107.272 26.3999 107.554 26.5618ZM106.931 28.4952V42.1617H110.073V28.4952H106.931ZM118.132 42.3624C117.08 42.3624 116.239 42.19 115.612 41.8483C114.982 41.5033 114.535 41.0349 114.272 40.4398C114.008 39.8446 113.874 39.1402 113.874 38.3268V31.0587H111.513V28.4987H113.874V25.0583H117.017V28.4987H120.134V31.0587H117.017V38.1649C117.017 38.6615 117.168 39.0452 117.47 39.3129C117.773 39.584 118.262 39.7179 118.942 39.7179C119.29 39.7179 119.677 39.6791 120.11 39.6052V42.0667C119.48 42.2639 118.822 42.3658 118.136 42.3658L118.132 42.3624ZM122.031 44.4506V46.9966L122.028 47H123.182C124.59 47 125.712 46.7325 126.543 46.1971C127.373 45.6619 127.996 44.845 128.411 43.7427L134.249 28.4952H131.023L128.351 36.2879C128.088 37.098 127.82 38.0028 127.556 38.9961H127.482C127.194 38.0028 126.912 37.1014 126.638 36.2879L123.917 28.4952H120.69L126.029 42.2145L125.705 42.9609C125.473 43.4964 125.163 43.88 124.78 44.1089C124.396 44.3378 123.865 44.4506 123.186 44.4506H122.031ZM135.58 42.1617V24.2448H138.722V30.5586H138.796C139.183 29.8051 139.739 29.2242 140.461 28.8121C141.182 28.4036 142.03 28.1958 143.005 28.1958C143.98 28.1958 144.895 28.407 145.62 28.8298C146.345 29.2522 146.897 29.8684 147.284 30.6748C147.668 31.4814 147.861 32.4709 147.861 33.64V42.1652H144.719V34.0625C144.719 33.0695 144.476 32.2948 143.994 31.7454C143.508 31.196 142.829 30.9179 141.953 30.9179C141.291 30.9179 140.714 31.0624 140.228 31.3509C139.739 31.6398 139.366 32.0411 139.109 32.5554C138.853 33.0695 138.726 33.6506 138.726 34.2948V42.1617H135.583H135.58ZM153.006 41.5843C154.055 42.1689 155.237 42.4611 156.554 42.4611C157.877 42.4611 159.063 42.1689 160.104 41.5843C161.146 41.0032 161.962 40.172 162.55 39.0945C163.138 38.0171 163.43 36.7669 163.43 35.3406C163.43 33.9146 163.145 32.6645 162.568 31.587C161.99 30.5095 161.185 29.6749 160.146 29.0832C159.108 28.4915 157.905 28.1958 156.564 28.1958C155.223 28.1958 154.03 28.4915 152.982 29.0903C151.933 29.6889 151.12 30.5269 150.536 31.6081C149.952 32.689 149.66 33.9463 149.66 35.3549C149.66 36.7635 149.955 38.0065 150.546 39.0874C151.138 40.1686 151.957 40.9998 153.006 41.5843ZM158.478 39.3235C157.916 39.6751 157.277 39.8512 156.557 39.8518C155.837 39.851 155.198 39.6714 154.636 39.3163C154.073 38.9607 153.633 38.4466 153.32 37.7705C153.006 37.098 152.848 36.2985 152.848 35.3549C152.848 34.411 153.003 33.5975 153.312 32.9145C153.622 32.2315 154.059 31.7103 154.621 31.3546C155.181 30.999 155.832 30.8192 156.557 30.8192C157.282 30.8192 157.929 30.999 158.493 31.3546C159.056 31.7103 159.492 32.2315 159.802 32.9145C160.111 33.5975 160.266 34.4181 160.266 35.3549C160.266 36.2916 160.108 37.098 159.795 37.7776C159.481 38.4572 159.042 38.9712 158.478 39.3235ZM173.104 42.4611C172.484 42.4611 171.886 42.373 171.316 42.2005C170.746 42.0279 170.225 41.7638 169.757 41.4116C169.289 41.0594 168.898 40.6227 168.585 40.1018H168.522V46.9966H165.379V28.4952H168.522V30.5692H168.585C168.884 30.0728 169.254 29.6466 169.697 29.2944C170.141 28.9425 170.648 28.6713 171.218 28.481C171.788 28.2909 172.407 28.1958 173.068 28.1958C174.237 28.1958 175.261 28.4915 176.148 29.0798C177.035 29.6678 177.717 30.5024 178.203 31.5835C178.688 32.6645 178.928 33.9218 178.928 35.3549C178.928 36.788 178.674 38.1015 178.171 39.1685C177.668 40.2354 176.971 41.0526 176.091 41.616C175.208 42.1794 174.216 42.4611 173.104 42.4611ZM172.101 39.753C172.812 39.753 173.445 39.5769 173.994 39.225C174.547 38.8728 174.976 38.3621 175.286 37.6965C175.595 37.0309 175.75 36.2457 175.75 35.3406C175.75 34.4358 175.595 33.654 175.289 32.985C174.983 32.3194 174.554 31.8088 174.005 31.4565C173.452 31.1046 172.822 30.9285 172.111 30.9285C171.401 30.9285 170.732 31.1115 170.186 31.4814C169.641 31.851 169.219 32.3688 168.92 33.0341C168.62 33.6997 168.473 34.4744 168.473 35.3512C168.473 36.228 168.62 37.0135 168.92 37.6825C169.219 38.3481 169.641 38.8622 170.186 39.2178C170.732 39.5735 171.369 39.753 172.097 39.753H172.101ZM186.888 42.2005C187.458 42.373 188.056 42.4611 188.676 42.4611C189.788 42.4611 190.78 42.1794 191.663 41.616C192.543 41.0526 193.24 40.2354 193.743 39.1685C194.246 38.1015 194.5 36.788 194.5 35.3549C194.5 33.9218 194.26 32.6645 193.775 31.5835C193.289 30.5024 192.607 29.6678 191.72 29.0798C190.833 28.4915 189.809 28.1958 188.64 28.1958C187.979 28.1958 187.36 28.2909 186.79 28.481C186.219 28.6713 185.713 28.9425 185.269 29.2944C184.826 29.6466 184.456 30.0728 184.157 30.5692H184.094V28.4952H180.951V46.9966H184.094V40.1018H184.157C184.47 40.6227 184.861 41.0594 185.329 41.4116C185.797 41.7638 186.318 42.0279 186.888 42.2005ZM189.563 39.225C189.013 39.5769 188.38 39.753 187.669 39.753H187.666C186.937 39.753 186.3 39.5735 185.755 39.2178C185.209 38.8622 184.787 38.3481 184.488 37.6825C184.189 37.0135 184.041 36.228 184.041 35.3512C184.041 34.4744 184.189 33.6997 184.488 33.0341C184.787 32.3688 185.209 31.851 185.755 31.4814C186.3 31.1115 186.969 30.9285 187.68 30.9285C188.391 30.9285 189.021 31.1046 189.573 31.4565C190.122 31.8088 190.551 32.3194 190.857 32.985C191.164 33.654 191.318 34.4358 191.318 35.3406C191.318 36.2457 191.164 37.0309 190.854 37.6965C190.544 38.3621 190.115 38.8728 189.563 39.225ZM202.872 42.4611C201.506 42.4611 200.303 42.1757 199.265 41.6054C198.226 41.0349 197.421 40.2108 196.851 39.1334C196.28 38.0559 195.992 36.7951 195.992 35.3443C195.992 33.8935 196.266 32.6573 196.819 31.5798C197.371 30.5024 198.149 29.6712 199.152 29.0832C200.158 28.4952 201.32 28.1993 202.636 28.1993C203.952 28.1993 205.022 28.4775 205.968 29.0304C206.915 29.5867 207.644 30.3719 208.154 31.3897C208.664 32.4073 208.918 33.587 208.918 34.9322C208.918 35.1049 208.91 35.2984 208.9 35.5027C208.886 35.7105 208.865 35.9394 208.833 36.1858H199.085C199.201 36.9818 199.441 37.6509 199.799 38.1932C200.158 38.7355 200.627 39.1368 201.197 39.3974C201.767 39.658 202.421 39.7884 203.16 39.7884C203.706 39.7884 204.209 39.7108 204.663 39.5524C205.117 39.3939 205.518 39.1825 205.866 38.9184C206.215 38.6544 206.524 38.3376 206.799 37.9748L208.65 39.8024C208.302 40.3341 207.855 40.7954 207.302 41.1933C206.75 41.5912 206.102 41.9011 205.353 42.1264C204.603 42.3518 203.776 42.4611 202.875 42.4611H202.872ZM205.838 33.9109C205.796 33.2068 205.645 32.6011 205.377 32.0976C205.113 31.5941 204.744 31.2065 204.272 30.9425C203.801 30.6785 203.241 30.5446 202.597 30.5446C202.002 30.5446 201.457 30.6608 200.964 30.8968C200.472 31.1326 200.063 31.5025 199.736 32.0025C199.409 32.5026 199.191 33.14 199.085 33.9109H205.838ZM210.916 28.4952V42.1617H214.059V35.3021C214.059 34.4992 214.228 33.7985 214.562 33.1962C214.896 32.5977 215.368 32.1327 215.977 31.8053C216.586 31.4777 217.293 31.3158 218.095 31.3158C218.229 31.3158 218.366 31.3193 218.507 31.3335C218.648 31.3475 218.767 31.3652 218.866 31.3897V28.4564C218.714 28.4247 218.461 28.407 218.095 28.407C217.152 28.407 216.343 28.6325 215.674 29.0798C215.002 29.527 214.488 30.1924 214.122 31.0798H214.059V28.4952H210.916Z" fill="#009FD9"/>
</g>
<defs>
<clipPath id="clip0_1559_67">
<rect width="219" height="47" fill="white"/>
</clipPath>
</defs>
</svg>
