<svg width="42" height="43" xmlns="http://www.w3.org/2000/svg"><g fill="none" fill-rule="evenodd"><path d="M1 0h40v43H1z"/><g fill="#002776" fill-rule="nonzero"><path d="M29.048 41.918a11.452 11.452 0 0 1-7.863-2.607l-.012.013a11.461 11.461 0 0 0 8.555 3.224c6.326-.305 11.207-5.663 10.898-11.963a11.365 11.365 0 0 0-3.822-7.97l-.01.01a11.369 11.369 0 0 1 3.153 7.326c.308 6.304-4.573 11.66-10.9 11.967m-12.843-6.75c-.369.196-.457.5-.28.973.161.433.428.626.72.513.235-.083.277-.284.191-.801l-.035-.2c-.083-.51-.097-.728-.03-.946a.666.666 0 0 1 .428-.481c.523-.194 1.006.136 1.281.866.3.791.117 1.382-.504 1.623l-.146-.388c.432-.174.55-.572.332-1.146-.177-.47-.47-.683-.785-.564-.255.093-.318.327-.236.857l.03.224.03.196c.06.392.064.531.023.698a.623.623 0 0 1-.409.437c-.49.185-.955-.111-1.202-.77-.27-.718-.107-1.241.446-1.474l.146.383zm-.237-4.131 1.771-1.422v.539l-1.5 1.184.466.535h1.037l-.001.424h-2.957v-.422h1.162l.16.003h.151l-.096-.105-.1-.107-1.278-1.435-.002-.56zm1.406-4.531 1.13.422-.146.396-1.131-.423-2.055.57.18-.482 1.277-.325.157-.04a2.15 2.15 0 0 1 .215-.047c-.096-.12-.12-.146-.22-.295l-.76-1.07.172-.46 1.18 1.754zm2.117-5.368-.641.75 1.832 1.561-.46.535-1.831-1.56-.64.746-.415-.356 1.739-2.027zm4.05-2.705-1.51.837.306.551 1.388-.77.246.442-1.389.766.356.637 1.54-.856.267.477-2.16 1.196-1.44-2.577 2.132-1.18zm5.702 1.264-.776.037-.369-.648-1.197.167-.182.72-.74.173.845-3.203.732-.1 1.687 2.854zm-1.66-1.552a4.702 4.702 0 0 1-.306-.607c-.03.21-.062.365-.14.667l-.135.56.864-.12-.284-.5zm6.388 2.597-.617-.247.257-.873c.027-.1.068-.241.124-.42.052-.183.1-.327.134-.432l.122-.366.075-.208c-.18.297-.253.397-.419.634a5.22 5.22 0 0 1-.187.267l-.865 1.153-.534-.152-.14-1.411c-.01-.073-.013-.174-.02-.315l-.017-.423c-.001-.08.001-.196.006-.358l-.081.356c-.095.385-.14.551-.266 1.012l-.267.945-.652-.116.801-2.866.993.212.11 1.367c.029.32.03.588.009.968.115-.216.157-.286.29-.482.089-.133.165-.243.236-.345l.802-1.095.936.339-.83 2.856z"/><path d="M28.197 26.296a71.75 71.75 0 0 0-1.791 1.61l-.794.727a10.564 10.564 0 0 0-1.904-.21c-1.439-.03-2.767.337-3.383.935-.233.23-.355.482-.353.748-.001.697.79 1.063 1.032 1.16 1.269.5 2.344.387 3.489-.377.632-.421 1.396-1.1 1.992-1.647.455.111.967.258 1.52.433l.509.16c-.676.635-1.373 1.307-2.017 1.847l-.05.044c-.895.75-1.542 1.295-2.464 1.48-.648.128-1.104-.017-1.252-.111-.014.002-.036.027-.036.027.522.449 1.02.706 1.886.65.826-.055 1.788-.55 2.78-1.438l1.34-1.255.942-.892a302.899 302.899 0 0 0 1.883.592c-.02 0-1.177 1.091-1.177 1.091l-1.01.96c-1.033.96-1.595 1.453-2.198 1.86-.991.67-1.836 1.013-2.576 1.047-.381.017-.933-.022-1.388-.298-.02-.006-.048.019-.048.019.49.436 1.093.96 2.147.954 1.194-.012 2.263-.56 3.94-2.028.767-.67 1.527-1.422 2.198-2.086l1.25-1.208a9.46 9.46 0 0 0 2.315.283c1.159.002 2.16-.53 2.185-1.162.022-.464-.358-.724-.586-.876a2.65 2.65 0 0 0-1.414-.442c-.87-.018-1.785.345-2.72 1.077l-.623.526a3.068 3.068 0 0 0-.222-.066l-1.692-.513c.511-.454.948-.846 1.34-1.178.95-.806 1.985-1.123 2.59-1.148.438-.02 1.201.034 1.512.263.014-.003.036-.032.036-.032-.823-.73-1.545-.843-2.142-.855-.59-.012-1.54.153-2.714 1.02-.48.356-1.106.954-1.761 1.582 0-.003-.855-.28-.855-.28l-.207-.07-.9-.292c.02 0 .528-.474.528-.474.623-.582 1.208-1.131 1.666-1.5 1.663-1.332 2.694-1.49 3.407-1.48.784.014 1.403.189 1.84.517.012-.001.033-.03.033-.03-.899-.843-1.553-1.121-2.69-1.157-.998-.027-2.204.501-3.393 1.493m-6.52 4.737c-.527-.046-.782-.264-.773-.67 0-.054.064-1.342 3.032-1.426.34-.011.716-.015 1.291.062-.024.002-.342.28-.342.28l-.189.165c-.729.631-1.948 1.687-3.018 1.59m12.02-.79c.865-.555 1.583-.846 2.022-.82.262.012.572.098.566.418-.008.331-.328.6-.95.808-.546.182-1.38.212-2.285.093.255-.22.468-.386.648-.5m1.982-11.607c.062.03.161.094.2.016.025-.05-.038-.093-.09-.12l-.13-.063-.062.126.082.041zm.084.408-.082-.04-.035-.3-.083-.04-.111.226-.069-.034.241-.49.214.105c.088.043.162.11.11.216-.048.096-.133.098-.221.058l.036.3zm.287-.16a.423.423 0 0 0-.76-.375.424.424 0 0 0 .76.375zm-.848-.364a.496.496 0 0 1 .643-.29c.261.098.39.383.292.643a.494.494 0 0 1-.642.29.497.497 0 0 1-.293-.643z"/></g></g></svg>
