<svg width="20" height="20" viewBox="0 0 20 20" xmlns="http://www.w3.org/2000/svg"><g fill-rule="evenodd"><path d="M14.737 5.856l-.676 2.619c-.028.056-.084.111-.112.111h-2.084c-.084 0-.14-.056-.14-.14V5.83c0-.085.056-.141.14-.141h2.759c.085 0 .14.085.113.168zm-4.527 2.59c0 .085-.057.14-.141.14H7.986c-.028 0-.085-.054-.113-.111l-.676-2.618c-.028-.084.029-.17.113-.17h2.759c.084 0 .14.057.14.142v2.618zm1.146-4.454V1.001h-.778v2.992c-3.558.024-6.382.394-6.382.845 0 .22.665.42 1.756.57l.964 4.08h-.632a.257.257 0 0 0-.257.258v.436l2.736.373v3.783c1.41-.098 3.02-.212 4.408-.303v-3.48l2.736-.373v-.437a.257.257 0 0 0-.257-.256h-.632l.965-4.08c1.09-.151 1.755-.35 1.755-.57 0-.452-2.823-.822-6.382-.847z"/><path d="M13.182 19.1v-1.062h2.341a.64.64 0 0 0 .255 1.062h-2.596zm-4.419 0H7.008a.64.64 0 0 0 .257-1.062h1.498V19.1zM20 17.034c0-.666-1.745-2.274-3.76-2.274-.472 0-1.646.068-3.058.16-1.389.092-3.008.206-4.419.306-1.45.1-2.68.184-3.21.205-.443.018-.656.014-1.045-.311-.39-.325-2.462-2.352-2.462-2.352L0 12.413s.96 3.142 1.125 3.607c.164.464.253.76 1.153 1.023.893.26 3.058.983 4.077.995a.64.64 0 0 0 .257 1.062H1.5c-.185 0-.35.138-.36.323a.34.34 0 0 0 .34.359h16.912c.186 0 .355-.14.363-.326a.341.341 0 0 0-.34-.356h-2.236a.642.642 0 0 0 .255-1.062h.992c1.372 0 2.575-.338 2.575-1.004z"/></g></svg>