<svg width="21" height="17" viewBox="0 0 21 17" xmlns="http://www.w3.org/2000/svg"><path d="M18.056 14.814v-2.44a2.463 2.463 0 0 1-3.811-.542 2.464 2.464 0 0 1-4.245 0 2.463 2.463 0 0 1-4.244 0 2.463 2.463 0 0 1-3.81.542v2.44H0c.072.932.504 1.646 1.027 1.646h17.946c.523 0 .955-.714 1.027-1.646h-1.944zm-8.603-10.5c-.149-.218-.234-.576.034-1.122.361-.557.456-.74.451-.819-.005-.082 1.011.873.733 1.492a1.753 1.753 0 0 1-.082.168 3.26 3.26 0 0 0 .435-.727c.43-.955-1.134-2.426-1.127-2.299.007.123-.142.405-.697 1.264-.58 1.19-.08 1.793.253 2.043zm-5.819 7.913c.87 0 1.595-.623 1.752-1.445a.424.424 0 0 1 .23-.304.35.35 0 0 1 .281 0c.12.06.206.172.23.304a1.786 1.786 0 0 0 3.503 0 .424.424 0 0 1 .23-.304.351.351 0 0 1 .282 0 .42.42 0 0 1 .228.304 1.787 1.787 0 0 0 3.505 0 .419.419 0 0 1 .228-.304c.09-.04.192-.04.282 0 .117.053.204.17.23.304a1.786 1.786 0 0 0 3.332.488c.077-.146.11-.31.11-.477v-.683a2.035 2.035 0 0 0-2.038-2.032h-5.117v-2.77a.378.378 0 0 0-.378-.378H9.51a.38.38 0 0 0-.379.378v2.77H3.982c-1.126 0-2.038.91-2.038 2.032v.683c0 .166.032.332.11.477.298.568.894.957 1.58.957z"/></svg>