<svg width="16" height="21" viewBox="0 0 16 21" xmlns="http://www.w3.org/2000/svg"><path d="M13.276 9.546h-2.849a3.003 3.003 0 0 0-.42-1.268c-.269-.424-.642-.726-.657-.74-.38-.323-.637.116-.748.489.545.328.91.888.988 1.519H5.54c.042-.357.181-.685.385-.961l-.659-.517c-.323.43-.518.942-.563 1.478h-2.85A1.859 1.859 0 0 0 0 11.399v7.747c0 1.019.834 1.853 1.853 1.853h11.423a1.858 1.858 0 0 0 1.853-1.852v-7.748c0-1.02-.834-1.854-1.853-1.854M9.71 3.587L6.48 2.195 6.996.999l3.23 1.39z"/><path d="M7.95 8.205s.316-.994.587-1.187c.222-.158.554-.408 1.464.417.083-.453.13-1.075-.084-1.572-.33-.767-.815-1.922-.815-1.922l-2.53-1.026s-1.103 1.83-1.405 3.318c-.157.772-.032 1.202 1.102 1.988.228.16.498.332.816.524.194.12.5.22.808.16a7.34 7.34 0 0 0 .685-.193c-.2-.18-.41-.35-.629-.507"/></svg>