<svg height="16" viewBox="0 0 16 16" width="16" xmlns="http://www.w3.org/2000/svg"><path d="m8 0a8 8 0 1 1 0 16 8 8 0 0 1 0-16zm4.569 6.651a.687.687 0 0 0 -.068-.526.696.696 0 0 0 -.948-.255l-2.846 1.644v-4.81a.694.694 0 0 0 -1.388 0v6.011c0 .012.002.023.003.035l.008.076c.004.024.01.045.016.068.006.022.012.044.02.066a.865.865 0 0 0 .028.06c.008.02.012.032.019.042l.003.005.01.015.035.048a.75.75 0 0 0 .083.092c.03.026.048.044.07.057a.36.36 0 0 0 .047.03c.032.019.048.027.064.035.024.011.048.02.073.027.024.008.037.013.052.016a.63.63 0 0 0 .077.014c.024.002.041.005.059.005a.189.189 0 0 0 .063 0c.033-.003.054-.004.076-.008a.55.55 0 0 0 .067-.016.581.581 0 0 0 .127-.048c.02-.008.031-.012.041-.018l3.887-2.244a.688.688 0 0 0 .322-.42zm-.7-.785c.027-.002.053.003.08.006zm-3.727 3.446.03-.006c.02-.006.039-.01.057-.019-.018.008-.037.013-.057.019zm-.536-.141a.7.7 0 0 0 .053.044l.02.01-.02-.01a.7.7 0 0 1 -.053-.044zm.407.158c.015 0 .028-.004.041-.005-.013.001-.026.005-.04.005z" fill-rule="evenodd"/></svg>