<svg xmlns="http://www.w3.org/2000/svg" width="12" height="16" viewBox="0 0 12 16"><path fill-rule="evenodd" d="M9.112 3.51a1.32 1.32 0 0 1-1.316-1.317V0l3.51 3.51H9.112zM7.144 2.192a1.97 1.97 0 0 0 1.969 1.97h2.19v10.52c0 .728-.59 1.318-1.317 1.318H1.318C.59 16 0 15.41 0 14.682V1.317C0 .59.59 0 1.318 0h5.826v2.192zm2.53 5.198a.487.487 0 0 0-.485-.486H2.15a.488.488 0 0 0-.486.486c0 .267.22.485.487.485h7.04a.487.487 0 0 0 .485-.485zm-.485 2.956a.487.487 0 0 0 0-.972H2.15a.488.488 0 0 0-.486.486c0 .267.22.486.487.486h7.04zm0 2.47a.487.487 0 0 0 0-.973H2.15a.488.488 0 0 0-.486.487c0 .267.22.485.487.485h7.04zM2.15 4.433a.488.488 0 0 0-.486.486c0 .267.22.486.487.486h3.636a.487.487 0 0 0 0-.972H2.15z"/></svg>