<svg xmlns="http://www.w3.org/2000/svg" width="13" height="18" viewBox="0 0 13 18"><path fill-rule="evenodd" d="M6.113 11.924c2.44 0 3.743.519 3.743 1.556 0 3-1.44 4.52-1.44 4.52h-4.78c-1.035 0-1.595-.392-1.943-1.162C.376 13.925-.432 7.348.243 1.935c0 0 2.612-.381 2.69 1.913.06 1.684-1.02 2.03-1.02 2.03s.206 2.002.925 3.94c1.94-.373 3.696-.334 4.537-.146.728.164.564 1.27.017 1.27-2.659.004-3.33 1.167-3.33 1.167.506-.055 1.474-.185 2.05-.185zM3.666 3.823c-.033-.96-.45-1.704-1.152-2.156.039-.555.09-1.105.159-1.643 0 0 2.61-.383 2.689 1.911.058 1.685-1.02 2.03-1.02 2.03s.205 2.003.924 3.94c1.94-.372 3.695-.332 4.536-.144.728.164.565 1.268.017 1.269a6.618 6.618 0 0 0-1.717.208 1.353 1.353 0 0 0-.568-.28c-.46-.103-1.079-.157-1.791-.157-.567 0-1.41.036-2.415.19a18.348 18.348 0 0 1-.625-2.73c.507-.402 1.006-1.17.963-2.438zm4.897 6.19c2.426.003 3.72.52 3.72 1.556 0 3-1.44 4.519-1.44 4.519h-.627a8.964 8.964 0 0 0 .372-2.608c0-.062-.012-.118-.017-.178l-.002-.019c-.093-.999-.89-1.646-2.394-1.928.221-.211.372-.515.41-.868a1.534 1.534 0 0 0-.022-.474z"/></svg>