<svg width="21" height="17" viewBox="0 0 21 17" xmlns="http://www.w3.org/2000/svg"><path d="M1.208 8.31c0 3.362 1.775 6.311 4.433 7.978C2.355 15.122 0 11.996 0 8.31 0 4.625 2.355 1.499 5.641.333 2.983 2 1.208 4.949 1.208 8.31zm2.042-.037v-.002c0 3.913 2.557 7.237 6.084 8.4-4.063-.623-7.179-4.125-7.179-8.362C2.155 4.191 5.095.763 8.988 0 5.642 1.263 3.25 4.49 3.25 8.273zm12.771 3.18l-1.266-.936c-.662.877-1.237 1.381-2.2 1.381-1.122 0-1.943-.69-2.345-1.827h3.106V8.833h-3.38c-.014-.186-.014-.372-.014-.574 0-.217 0-.433.029-.633h3.365V6.403h-3.093c.404-1.08 1.195-1.756 2.217-1.756 1.007 0 1.597.46 2.215 1.31l1.338-.993c-.763-1.094-1.755-1.9-3.51-1.9-2.044 0-3.512 1.397-4.087 3.338H7.043v1.224h1.123c-.029.216-.029.445-.029.661 0 .187 0 .374.015.546H7.043v1.238h1.31c.563 2.043 2.059 3.41 4.188 3.41 1.64 0 2.662-.835 3.48-2.029M20 8.273a7.901 7.901 0 0 1-15.802.002A7.901 7.901 0 0 1 20 8.272" fill-rule="nonzero"/></svg>