<svg width="17" height="17" viewBox="0 0 17 17" xmlns="http://www.w3.org/2000/svg"><path d="M15.48 14.381L3.697 16.267c-.583.096-1.127-.259-1.167-.834L.825 7.409a.092.092 0 0 1 .072-.11l1.924-.394a.094.094 0 0 1 .103.133L2.29 8.354a.093.093 0 0 0 .099.133l1.622-.247a.095.095 0 0 0 .074-.057l.639-1.59a.095.095 0 0 1 .07-.058L6.8 6.163a.095.095 0 0 1 .106.126L6.34 7.744a.094.094 0 0 0 .103.126l1.676-.255a.092.092 0 0 0 .072-.058l.671-1.734a.093.093 0 0 1 .07-.058l2.078-.386a.094.094 0 0 1 .105.127l-.65 1.61a.094.094 0 0 0 .103.127l1.65-.25a.095.095 0 0 0 .075-.064l.634-1.859A.095.095 0 0 1 13 5.008l1.546-.308c.049-.01.097.02.11.068.192.792 1.658 6.8 1.836 7.872.143.87-.198 1.605-1.012 1.741M13.232.127l.586 1.525a.199.199 0 0 1-.116.257l-1.048.392a.201.201 0 0 1-.192-.03l-1.504-1.16a.198.198 0 0 1 .05-.342l1.967-.756a.2.2 0 0 1 .257.114M8.967 1.648L10.462 2.8a.194.194 0 0 1-.05.335l-1.712.64a.195.195 0 0 1-.186-.028l-1.48-1.142a.194.194 0 0 1 .049-.334L8.78 1.62a.191.191 0 0 1 .187.027M5.049 3.151l1.466 1.131a.19.19 0 0 1-.05.33l-1.718.642a.19.19 0 0 1-.183-.027l-1.452-1.12a.19.19 0 0 1 .048-.329l1.704-.654a.19.19 0 0 1 .185.027M.128 4.943l.814-.313a.2.2 0 0 1 .193.028L2.552 5.75a.198.198 0 0 1-.052.343l-1.676.626a.199.199 0 0 1-.254-.113L.014 5.201a.2.2 0 0 1 .114-.26" fill-rule="evenodd"/></svg>