<svg xmlns="http://www.w3.org/2000/svg" width="18" height="16" viewBox="0 0 18 16"><path fill-rule="evenodd" d="M8.611 15.102a.778.778 0 1 1 .78-1.347.778.778 0 0 1-.78 1.347zm-3.405-1.02a.777.777 0 1 1 1.31-.838.777.777 0 0 1-1.31.837zm-2.553-2.476a.777.777 0 1 1 1.547-.14.777.777 0 0 1-1.547.14zm9.452 2.833a.776.776 0 1 1 .07-1.554.777.777 0 1 1-.07 1.554zm2.795-2.197a.777.777 0 1 1-.654-1.41.777.777 0 0 1 .654 1.41zm-9.58-5.49c.303.02.675.202.687.45-.012.247-.384.43-.686.45-.398.028-.974.032-1.613.022L2.54 9.623h-.56l.436-1.987A61.812 61.812 0 0 1 .808 7.55v.006l-.356.585H0v-1.88h.452l.356.583v.008a61.812 61.812 0 0 1 1.608-.085L1.98 4.78h.56l1.168 1.95a20.498 20.498 0 0 1 1.613.021zm11.993 0c.303.02.674.202.687.45-.013.247-.384.43-.687.45a20.72 20.72 0 0 1-1.612.022l-1.169 1.949h-.56l.436-1.987a61.812 61.812 0 0 1-1.607-.085v.006l-.357.585h-.451v-1.88h.451l.357.583v.008a61.812 61.812 0 0 1 1.607-.085l-.435-1.988h.56L15.7 6.73a20.49 20.49 0 0 1 1.612.021zM14.43 2.275a.8.8 0 0 1-.569 1.358.796.796 0 0 1-.57-.24A5.99 5.99 0 0 0 9.179 1.6a5.974 5.974 0 0 0-3.865 1.258l.847.061a.546.546 0 1 1-.037 1.09h-.04l-2.392-.17a.545.545 0 0 1-.507-.583L3.353.862a.547.547 0 0 1 1.09.077l-.043.609A7.555 7.555 0 0 1 9.225.003a7.582 7.582 0 0 1 5.204 2.273z"/></svg>