<svg height="18" viewBox="0 0 19 18" width="19" xmlns="http://www.w3.org/2000/svg"><path d="m12.99 12.059c-.752 1.356-1.72 2.453-2.802 3.174-.714.474-1.703.785-2.409.74-.422-.027-.993-.211-1.247-.548-.21-.278-.385-.73-.468-1.207a.854.854 0 0 0 -.04-.142l5.67-5.67c-.236 1.093-.822 2.58-2.275 3.539a.747.747 0 0 0 .412 1.374c.142 0 .285-.04.412-.124 3.11-2.05 3.116-5.806 3.106-6.202l.001-.04c.001-.07-.004-.132-.005-.2l1.03-1.03c.186 1.949-.28 4.342-1.386 6.336m-4.833-5.886c.251-.995.877-1.705 1.557-1.766.64-.058 1.122.074 1.477.4.12.113.224.248.312.402l-3.02 3.021c-.41-.4-.544-1.193-.326-2.058m9.772-5.695a1.197 1.197 0 0 0 -1.694 0l-1.613 1.613a4.63 4.63 0 0 0 -.362-.413c-1.533-1.518-4.179-2.092-6.294-1.361-1.293.445-3.533 1.76-4.01 5.557a.748.748 0 1 0 1.485.186c.376-2.99 2.05-3.995 3.013-4.327 1.58-.546 3.621-.111 4.752 1.009.125.125.238.268.344.42l-.97.97a3.068 3.068 0 0 0 -.373-.422c-.664-.615-1.574-.89-2.627-.794-1.334.122-2.462 1.255-2.875 2.89-.352 1.398-.07 2.708.715 3.487l-6.068 6.068a1.196 1.196 0 0 0 .847 2.045c.307 0 .613-.118.847-.352l1.757-1.758c.14.394.32.745.534 1.03.578.766 1.591 1.092 2.346 1.14.076.006.155.008.234.008.992 0 2.18-.382 3.103-.995 1.28-.853 2.413-2.13 3.28-3.693 1.503-2.712 1.962-5.92 1.383-8.37l2.246-2.245a1.197 1.197 0 0 0 0-1.694"/></svg>