<svg xmlns="http://www.w3.org/2000/svg" width="16" height="13" viewBox="0 0 16 13"><path fill-rule="evenodd" d="M4.994 2.428c-.679 0-1.23-.543-1.23-1.213A1.224 1.224 0 0 1 4.995 0h9.776C15.45 0 16 .544 16 1.215a1.22 1.22 0 0 1-1.23 1.213H4.994zM14.77 5.01c.679 0 1.229.544 1.229 1.214 0 .67-.55 1.214-1.23 1.214H4.995c-.68 0-1.23-.543-1.23-1.214 0-.67.55-1.214 1.23-1.214h9.777zm0 5.008c.679 0 1.229.544 1.229 1.214 0 .67-.55 1.215-1.23 1.215H4.995c-.68 0-1.23-.544-1.23-1.215 0-.67.55-1.214 1.23-1.214h9.777zM1.214 0a1.215 1.215 0 1 1 0 2.43 1.215 1.215 0 0 1 0-2.43zm0 5.009a1.215 1.215 0 1 1 0 2.43 1.215 1.215 0 0 1 0-2.43zm0 5.008a1.215 1.215 0 0 1 0 2.429 1.215 1.215 0 0 1 0-2.43z"/></svg>