<svg xmlns="http://www.w3.org/2000/svg" width="20" height="12" viewBox="0 0 20 12"><path fill-rule="evenodd" d="M4.371 0H18c.562 0 1.022.46 1.022 1.023v4.852c0 .562-.46 1.022-1.022 1.022h-4.448l.002 3.467c0 .9-.73 1.63-1.63 1.63L1.635 12a1.63 1.63 0 0 1-1.631-1.63L0 4.563c0-.9.73-1.63 1.63-1.63l1.718-.001V1.023C3.348.46 3.808 0 4.371 0zM15 2.63h3V1.208h-3V2.63zm0 .692h3v-.346h-3v.346zm0 .693h3v-.346h-3v.346zm0 .693h3v-.345h-3v.345zm0 1.008h3v-.662h-3v.662zm-3.95 3.287a.464.464 0 0 1 .001.928l-1.983.001a.465.465 0 0 1-.464-.464c0-.253.208-.463.463-.463l1.983-.002zm-9.343 2.068l10.216.001a.71.71 0 0 0 .709-.707V7H1v3.364a.704.704 0 0 0 .707.707zM1 4.555v.482h11.629l-.001-.482a.704.704 0 0 0-.708-.707H1.706A.704.704 0 0 0 1 4.555z"/></svg>