<svg width="21" height="18" viewBox="0 0 21 18" xmlns="http://www.w3.org/2000/svg"><path d="M.34 10.165c.206.187.477.286.755.274h.006c.55-.049.976-.544.95-1.109-.015-.255-.03-1.587 1.125-2.842.907-.975 2.23-1.49 3.827-1.49h8.832v1.238c0 .477.32.726.635.726a.794.794 0 0 0 .462-.162l3.012-2.166a.804.804 0 0 0 .355-.655.805.805 0 0 0-.354-.65l-3.013-2.166a.783.783 0 0 0-.462-.164c-.316 0-.635.25-.635.727v1.43H7.003c-2.279 0-4.077.69-5.344 2.05C-.24 7.269.012 9.483.014 9.483c.012.26.127.502.325.682M19.96 7.242a1.054 1.054 0 0 0-.756-.274h-.006c-.55.05-.976.544-.95 1.11.015.243.03 1.521-1.126 2.776-.905.975-2.228 1.491-3.826 1.491H4.464v-1.24c0-.476-.319-.725-.635-.725a.787.787 0 0 0-.462.162L.355 12.708a.803.803 0 0 0-.355.654c0 .252.128.49.354.652l3.013 2.166c.133.102.295.16.462.163.316 0 .635-.249.635-.726v-1.433h8.832c2.279 0 4.077-.689 5.344-2.048 1.893-2.055 1.646-4.212 1.645-4.212a.98.98 0 0 0-.325-.682"/></svg>