<svg width="20" height="20" viewBox="0 0 20 20" xmlns="http://www.w3.org/2000/svg"><path d="M2.793 16.016c1.327 0 2.395 1.326 2.721 1.376.325.05 9.209-.23 9.209-.23a.627.627 0 0 1 0 1.253s-8.884-.279-9.209-.229c-.326.05-1.394 1.376-2.721 1.376-1.542 0-2.793-.794-2.793-1.773 0-.979 1.251-1.773 2.793-1.773m-.78-6.248c0-.85.718-1.539 1.599-1.539v3.079c-.881 0-1.6-.69-1.6-1.54h.001zm1.599-2.6c-1.47 0-2.66 1.163-2.66 2.6 0 1.435 1.19 2.6 2.66 2.6l.047-.002c.28 1.889 1.953 3.354 3.96 3.354h2.235c2.205 0 4.009-1.763 4.009-3.915V7.169H3.612v-.001z"/><path d="M16.976 9.834a.41.41 0 0 1-.524-.248.412.412 0 0 1 .258-.52.411.411 0 0 1 .525.247.41.41 0 0 1-.26.52M16.1 7.304a.409.409 0 0 1-.524-.248.41.41 0 0 1 .258-.52.41.41 0 0 1 .525.248.41.41 0 0 1-.26.52m-.876-2.533a.408.408 0 0 1-.524-.248.41.41 0 0 1 .258-.519.41.41 0 0 1 .525.248.409.409 0 0 1-.26.519m-3.023 1.046a.41.41 0 0 1-.526-.245.41.41 0 0 1 .259-.52.41.41 0 0 1 .525.248.408.408 0 0 1-.258.518m7.75 4.668a.968.968 0 0 0-.637-.606.968.968 0 0 0 .126-.869.968.968 0 0 0-.637-.604.962.962 0 0 0 .126-.87.963.963 0 0 0-.636-.606.967.967 0 0 0 .125-.869.967.967 0 0 0-.635-.605.972.972 0 0 0 .125-.87.976.976 0 0 0-.637-.605.965.965 0 0 0 .125-.868.96.96 0 0 0-.625-.601.962.962 0 0 0 .119-.86.989.989 0 0 0-1.265-.597.998.998 0 0 0-.625.634 1.008 1.008 0 0 0-1.51.522 1.005 1.005 0 0 0-1.51.524 1.005 1.005 0 0 0-1.509.523 1.01 1.01 0 0 0-.883-.112.991.991 0 0 0-.625 1.252c.103.3.34.51.624.603a.96.96 0 0 0-.118.857.958.958 0 0 0 .593.588h4.525v5.356c0 .542-.1 1.06-.275 1.544a1 1 0 0 0 1.112-.673 1.007 1.007 0 0 0 1.508-.524c.25.165.574.218.884.11.309-.107.53-.348.625-.633.25.165.574.218.885.111a.992.992 0 0 0 .625-1.252"/></svg>