<svg xmlns="http://www.w3.org/2000/svg" width="11" height="20" viewBox="0 0 11 20"><path fill-rule="evenodd" d="M5.831 10.79l1.164.2a.354.354 0 0 0 .409-.288l.112-.652a.354.354 0 0 0-.289-.409l-1.164-.2.2-1.165a.353.353 0 0 0-.288-.408l-.653-.112a.353.353 0 0 0-.408.289l-.2 1.164-1.164-.2a.354.354 0 0 0-.409.289l-.112.652a.353.353 0 0 0 .288.408l1.164.201-.199 1.164a.353.353 0 0 0 .288.408l.653.112a.353.353 0 0 0 .408-.289l.2-1.164zm4.707-9.128L7.453 19.617a.46.46 0 1 1-.908-.156l.388-2.259-5.63-.967-.388 2.258a.46.46 0 1 1-.908-.156L3.092.383A.46.46 0 1 1 4 .539l-.388 2.258 5.63.968.388-2.259a.46.46 0 1 1 .908.156z"/></svg>