<svg xmlns="http://www.w3.org/2000/svg" width="16" height="16" viewBox="0 0 16 16"><path fill-rule="evenodd" d="M12.277 6.076c.004.083.005.166.005.25 0 2.558-1.946 5.506-5.505 5.506-1.093 0-2.11-.32-2.967-.87a3.887 3.887 0 0 0 2.865-.8 1.938 1.938 0 0 1-1.808-1.344 1.95 1.95 0 0 0 .874-.033A1.936 1.936 0 0 1 4.19 6.887v-.025c.26.146.559.232.876.243a1.933 1.933 0 0 1-.6-2.583 5.498 5.498 0 0 0 3.99 2.021 1.935 1.935 0 0 1 3.297-1.765c.44-.087.855-.248 1.229-.47a1.938 1.938 0 0 1-.852 1.071 3.867 3.867 0 0 0 1.112-.305c-.259.388-.587.73-.965 1.002M8 0a8 8 0 1 0 0 16A8 8 0 0 0 8 0"/></svg>