<svg width="20" height="17" viewBox="0 0 20 17" xmlns="http://www.w3.org/2000/svg"><path d="M10 12.566c-.839 0-1.612-.099-2.324-.263l.886-.884a4.935 4.935 0 0 0 6.373-4.721c0-.549-.094-1.007-.259-1.395l.034-.032a10.697 10.697 0 0 1 3.574 3.072c-.803 1.103-3.501 4.223-8.284 4.223zM1.716 8.343a10.7 10.7 0 0 1 3.64-3.106c-.185.4-.291.88-.291 1.461 0 1.365.555 2.6 1.451 3.494l-1.225 1.226a10.702 10.702 0 0 1-3.575-3.075zM7.989 4.43a1.647 1.647 0 1 1-.004 3.294A1.647 1.647 0 0 1 7.99 4.43h-.001zm11.787 3.542c-.082-.137-1.384-2.25-4.003-3.763l2.231-2.233A1.157 1.157 0 1 0 16.368.34l-2.867 2.868A11.543 11.543 0 0 0 10 2.677C3.478 2.676.353 7.754.224 7.97L0 8.343l.224.373c.082.138 1.384 2.25 4.003 3.765l-2.231 2.231a1.157 1.157 0 1 0 1.636 1.636l2.867-2.866c1.034.324 2.199.53 3.501.53 6.522 0 9.647-5.08 9.776-5.296L20 8.343l-.224-.372v.001z"/></svg>