<svg xmlns="http://www.w3.org/2000/svg" width="18" height="14" viewBox="0 0 18 14"><path fill-rule="evenodd" d="M7.485 1.832a.366.366 0 0 1 .198.326v9.683a.37.37 0 0 1-.57.309L3.96 10.087a.973.973 0 0 0-.532-.158H.972A.973.973 0 0 1 0 8.956V5.163c0-.537.436-.972.972-.972H3.41a.97.97 0 0 0 .552-.172l3.142-2.166a.372.372 0 0 1 .381-.021zm2.941 2.392a3.928 3.928 0 0 1 0 5.551.614.614 0 0 1-.839.028c-.272-.238-.248-.67.005-.93a2.701 2.701 0 0 0-.004-3.75c-.232-.24-.278-.624-.056-.872a.614.614 0 0 1 .894-.027zm1.958-2.111A6.866 6.866 0 0 1 14.408 7c0 1.845-.719 3.58-2.024 4.886a.613.613 0 0 1-.87 0 .617.617 0 0 1 0-.87 5.686 5.686 0 0 0 0-8.034.617.617 0 0 1 0-.87.62.62 0 0 1 .87 0zM14.567.18A9.581 9.581 0 0 1 17.392 7a9.584 9.584 0 0 1-2.825 6.82.617.617 0 0 1-.87 0 .615.615 0 0 1 0-.87A8.36 8.36 0 0 0 16.163 7a8.36 8.36 0 0 0-2.464-5.951.614.614 0 1 1 .869-.869z"/></svg>