<svg width="20" height="20" viewBox="0 0 20 20" xmlns="http://www.w3.org/2000/svg"><g fill-rule="evenodd"><path d="M12.42 16.868c-.21.315-.632.633-1.16.633h-1.9v-.107c.422 0 .739-.315 1.055-.632l1.795-2.533h2.11l-1.9 2.64zm.104-5.536H7.86A4.874 4.874 0 0 0 3 16.193v3.561h14.383v-3.56a4.874 4.874 0 0 0-4.86-4.862zm-1.162-3.177a.605.605 0 0 1-.603-.602c0-.33.272-.6.603-.6h2.647a3.78 3.78 0 0 0 .041-.534 3.867 3.867 0 0 0-3.863-3.867A3.866 3.866 0 0 0 6.331 6.42a3.86 3.86 0 0 0 3.856 3.861 3.86 3.86 0 0 0 3.447-2.125h-2.272z"/><path d="M10.19 1.617a4.397 4.397 0 0 1 4.39 4.304v2.183c0 .38.267.685.605.685.337 0 .611-.306.611-.685v-2.06c0-.378-.274-.685-.61-.685l-.025.002a5.023 5.023 0 0 0-4.97-4.36 5.02 5.02 0 0 0-4.97 4.36l-.026-.002c-.337 0-.61.307-.61.685v2.06c0 .38.273.685.61.685.34 0 .606-.306.606-.685V5.921a4.396 4.396 0 0 1 4.39-4.304"/></g></svg>