<svg width="600" height="320" xmlns="http://www.w3.org/2000/svg"><g fill-rule="nonzero" fill="none"><path d="M306.265 34.8c64.514 0 116.81 52.235 116.81 116.674 0 64.438-52.296 116.673-116.81 116.673-64.514 0-116.813-52.238-116.813-116.673S241.755 34.8 306.265 34.8" fill="#235980"/><g opacity=".2" fill="#000"><path d="m348.679 42.736-13.838 8.103s6.909 16.04-11.649 23.484l-13.38-6.399-19.8 14.456 5.516 5.973 10.936-4.208-2.54 5.627s-10.285-.523-16.945 2.605a25.76 25.76 0 0 0-9.946 8.138l1.613 3.77-14.344 1.52.185 15.505 16.142.774s-2.884-8.173 10.004-10.432l-.698 11.077 7-.125 3.005-11.542s12.462 1.58 9.855 16.991l13.1-14.822 5.02 7.793-5.25 14.892s-21.343 10.112-38.133-5.038l-17.877-.84s-17.688 2.635-19.517 27.356l8.674 23.85 21.005 2.479 12.982 22.974 7.743 35.216 17.255 1.489 17.164-19.899 3.812-25.408s13.196-4.954 12.267-19.275l-12.609-7.834-4.6-25.656 16.916 19.142 10.504-16.262s-14.623-5.927-12.857-17.702l36.678 6.22 12.456 27.744 18.724-37.273a10.894 10.894 0 0 0 8.378 5.966c-6.538-41.43-34.908-75.61-72.958-90.432"/><path d="m343.92 210.944-5.636 16.52 10.127.217 6.629-22.62zM225.613 235.867l-7.33-27.74s2.851-7.8-.095-28.438c-2.443-17.253-22.222-28.592-28.653-31.834a124.494 124.494 0 0 0-.062 3.619 116.264 116.264 0 0 0 36.158 84.38M272.54 91.157l6.756-.495 5.669-15.53-9.108 4.139 2.262 5.509-4.925.404zM232.804 60.766c5.446 4.02 15.412 8.515 32.238 7.507l13.712-19.177-10.905-4.393 1.113-3.836a116.683 116.683 0 0 0-36.158 19.875"/></g><path d="M383.224 174.518a302.018 302.018 0 0 0-4.75-6.859l2.275-1.618a300.223 300.223 0 0 1 4.8 6.922l-2.325 1.555ZM389.857 184.63a302.018 302.018 0 0 0-4.751-6.86l2.276-1.617a300.223 300.223 0 0 1 4.8 6.921l-2.325 1.555ZM376.026 164.28a344.015 344.015 0 0 0-5.027-6.666l2.21-1.705a292.434 292.434 0 0 1 5.069 6.722l-2.252 1.65ZM368.427 154.326a451.984 451.984 0 0 0-5.268-6.485l2.15-1.782a366.175 366.175 0 0 1 5.306 6.538l-2.188 1.729ZM360.475 144.633a425.624 425.624 0 0 0-5.478-6.308l2.095-1.851c1.86 2.092 3.718 4.24 5.515 6.356l-2.132 1.803ZM352.208 135.219a383.292 383.292 0 0 0-5.672-6.137l2.031-1.914a488.42 488.42 0 0 1 5.711 6.178l-2.07 1.873ZM343.652 126.062a427.336 427.336 0 0 0-5.854-5.962l1.976-1.973c1.98 1.98 3.962 3.999 5.892 6.004l-2.014 1.931ZM334.848 117.182a427.31 427.31 0 0 0-6.025-5.788l1.913-2.03c2.028 1.908 4.07 3.87 6.07 5.827l-1.958 1.99ZM325.765 108.545a416.229 416.229 0 0 0-6.2-5.603l1.85-2.092a326.5 326.5 0 0 1 6.246 5.641l-1.896 2.054ZM316.42 100.19a328.601 328.601 0 0 0-6.374-5.404l1.784-2.148c2.14 1.775 4.3 3.606 6.42 5.443l-1.83 2.11ZM306.817 92.14a360.281 360.281 0 0 0-6.552-5.185l1.707-2.207a337.807 337.807 0 0 1 6.604 5.23l-1.759 2.162ZM205.133 86.791a80.145 80.145 0 0 1-2.196-8.236l2.737-.56a77.016 77.016 0 0 0 2.119 7.945l-2.66.851ZM296.945 84.424a335.872 335.872 0 0 0-6.737-4.934l1.62-2.27c2.247 1.6 4.537 3.274 6.796 4.976l-1.68 2.228ZM286.79 77.091a280.058 280.058 0 0 0-6.933-4.648l1.522-2.34c2.308 1.5 4.664 3.08 7.003 4.697l-1.592 2.291ZM202.221 74.326a44.732 44.732 0 0 1-.401-5.788c0-.98.038-1.946.115-2.863l2.793.234c-.07.84-.105 1.743-.105 2.629.007 1.815.133 3.627.377 5.425l-2.779.363ZM276.342 70.205a232.76 232.76 0 0 0-7.146-4.303l1.397-2.413a227.135 227.135 0 0 1 7.226 4.352l-1.477 2.364ZM265.57 63.855A185.012 185.012 0 0 0 258.192 60l1.236-2.5c2.444 1.203 4.96 2.52 7.488 3.916l-1.348 2.44ZM205.352 61.997l-2.708-.697a18.91 18.91 0 0 1 4.045-7.985l2.095 1.834a16.171 16.171 0 0 0-3.432 6.848M254.44 58.207a133.72 133.72 0 0 0-7.634-3.253l1.009-2.598c2.517.976 5.138 2.092 7.798 3.32l-1.172 2.53ZM242.917 53.528c-2.747-.945-5.407-1.744-7.913-2.326l.649-2.713a87.154 87.154 0 0 1 8.175 2.403l-.91 2.636ZM211.66 52.677l-1.536-2.33a21.097 21.097 0 0 1 8.378-3.082l.437 2.758a18.281 18.281 0 0 0-7.261 2.654M230.993 50.372a43.933 43.933 0 0 0-8.082-.697l-.049-2.79a46.568 46.568 0 0 1 8.605.726l-.474 2.761ZM232.93 259.835a41.922 41.922 0 0 1-.175-1.517l2.793-.261c.046.474.098.948.16 1.412a26.99 26.99 0 0 0 1.568 6.353l-2.597 1.025a29.839 29.839 0 0 1-1.745-7.012M232.56 254.009a66.27 66.27 0 0 1 .593-8.532l2.769.348a63.19 63.19 0 0 0-.57 8.17l-2.792.014ZM236.749 270.822l2.321-1.552a14.574 14.574 0 0 0 3.25 3.487 14.36 14.36 0 0 0 2.444 1.492l-1.222 2.51c-1.026-.496-1.999-1.095-2.904-1.788a17.393 17.393 0 0 1-3.875-4.15M247.804 278.214l.59-2.727c2.598.515 5.263.603 7.89.262l.32 2.768c-2.93.379-5.902.277-8.8-.303M260.27 275.065a55.93 55.93 0 0 0 7.813-2.402l1.002 2.604a59.046 59.046 0 0 1-8.204 2.521l-.61-2.723ZM271.888 271.083c2.373-1.046 4.862-2.297 7.397-3.692l1.347 2.44a105.659 105.659 0 0 1-7.606 3.794l-1.138-2.542ZM282.887 265.337a150.487 150.487 0 0 0 7.024-4.442l1.557 2.315a163.982 163.982 0 0 1-7.156 4.533l-1.425-2.406ZM376.487 55.08a80.782 80.782 0 0 1 7.882-3.261l.918 2.636a77.254 77.254 0 0 0-7.61 3.138l-1.19-2.514ZM388.471 50.55a44.98 44.98 0 0 1 5.694-1.158c.974-.129 1.933-.22 2.859-.261l.136 2.79c-.849.038-1.746.121-2.625.24-1.801.245-3.584.607-5.338 1.084l-.726-2.695ZM402.337 123.395c1.173-2.57 2.29-5.14 3.323-7.64l2.583 1.068a232.457 232.457 0 0 1-3.369 7.73l-2.537-1.158ZM407.213 111.896a167.694 167.694 0 0 0 2.856-7.814l2.646.896a196.52 196.52 0 0 1-2.898 7.929l-2.604-1.011ZM401.118 52.028l.318-2.772a18.987 18.987 0 0 1 8.458 2.954l-1.543 2.322a16.234 16.234 0 0 0-7.233-2.504M411.353 100.131a130.688 130.688 0 0 0 2.22-7.988l2.716.66a133.725 133.725 0 0 1-2.269 8.155l-2.667-.827ZM414.478 88.106c.576-2.846 1.005-5.58 1.267-8.142l2.793.286a83.076 83.076 0 0 1-1.31 8.41l-2.75-.554ZM411.203 57.046l2.095-1.83a20.996 20.996 0 0 1 4.175 7.872l-2.678.795a18.295 18.295 0 0 0-3.592-6.837M416.038 75.878a43.959 43.959 0 0 0-.38-8.093l2.76-.415c.407 2.852.547 5.735.416 8.612l-2.796-.104Z" fill="#E17222"/><path d="M329.434 105.023a408.094 408.094 0 0 0-8.14 1.911l-.667-2.71c2.726-.669 5.484-1.317 8.196-1.924l.611 2.723ZM317.216 107.952c-2.667.698-5.386 1.395-8.078 2.162l-.75-2.685a409.855 409.855 0 0 1 8.133-2.179l.695 2.702ZM305.127 111.258c-2.656.77-5.351 1.576-8.008 2.402l-.83-2.66c2.677-.834 5.39-1.646 8.063-2.42l.775 2.678ZM293.164 114.912a449.76 449.76 0 0 0-7.934 2.64l-.908-2.64c2.636-.903 5.32-1.8 7.987-2.654l.855 2.654ZM281.282 118.929a415.04 415.04 0 0 0-7.848 2.876l-.991-2.608a412.502 412.502 0 0 1 7.906-2.897l.933 2.629ZM269.531 123.304a318.236 318.236 0 0 0-7.753 3.138l-1.071-2.576a353.695 353.695 0 0 1 7.809-3.138l1.015 2.576ZM257.931 128.053a346.34 346.34 0 0 0-7.641 3.386l-1.145-2.538a377.596 377.596 0 0 1 7.7-3.41l1.086 2.562ZM205.904 215.48a79.87 79.87 0 0 1-8.322-1.89l.775-2.678a76.938 76.938 0 0 0 8.029 1.82l-.482 2.748ZM246.502 133.196c-2.54 1.2-5.068 2.441-7.508 3.661l-1.257-2.49a293.727 293.727 0 0 1 7.568-3.681l1.197 2.51ZM235.28 138.765a260.003 260.003 0 0 0-7.331 3.968l-1.365-2.441a275.478 275.478 0 0 1 7.414-4.006l1.281 2.479ZM193.501 212.276a44.682 44.682 0 0 1-5.316-2.34 35.724 35.724 0 0 1-2.486-1.433l1.501-2.353c.716.453 1.484.896 2.283 1.318a41.622 41.622 0 0 0 4.985 2.19l-.967 2.618ZM224.315 144.8a240.65 240.65 0 0 0-7.132 4.317l-1.49-2.357a234.886 234.886 0 0 1 7.218-4.37l1.404 2.41ZM213.682 151.376a180.924 180.924 0 0 0-6.85 4.728l-1.64-2.256c2.2-1.6 4.538-3.214 6.95-4.8l1.54 2.328ZM184.03 203.758l-1.86 2.092a18.972 18.972 0 0 1-5.198-7.302l2.608-1.004a16.224 16.224 0 0 0 4.45 6.214M203.499 158.58a137.569 137.569 0 0 0-6.434 5.23l-1.836-2.092a136.836 136.836 0 0 1 6.57-5.352l1.7 2.214ZM193.99 166.6c-2.116 1.987-4.05 3.974-5.743 5.927l-2.094-1.838c1.745-2.005 3.753-4.058 5.934-6.108l1.903 2.018ZM178.703 193.845l-2.792.275a21.01 21.01 0 0 1 1.155-8.828l2.646.896a18.247 18.247 0 0 0-1.023 7.67M185.647 175.682a43.958 43.958 0 0 0-4.364 6.83l-2.496-1.268a46.715 46.715 0 0 1 4.643-7.27l2.217 1.708Z" fill="#E17222"/><path d="M344.298 97.053s-1.484-3.836-11.432-.583a383.02 383.02 0 0 0-12.498 4.306l-21.653-19.023-4.22 1.618 12.682 22.59a149.086 149.086 0 0 0-13.726 6.57l-9.848-5.328-3.857 1.481 7.404 7.842c-.377.251-4.437 2.967-5.041 4.414 1.452.698 6.475-.059 6.73-.097l-.244 10.84 3.836-1.482 3.767-10.613a149.827 149.827 0 0 0 14.55-4.3l5.77 25.3 4.189-1.618 3.34-28.678c3.708-1.496 7.75-3.201 12.145-5.154 9.58-4.229 8.096-8.085 8.096-8.085" opacity=".2" fill="#000"/><path fill="#FFF" d="m324.061 106.93-3.344 28.71-4.217 1.622-5.753-25.332zM320.434 97.502l-21.737-19.079-4.22 1.621 12.717 22.657z"/><path d="M336.203 101.812c9.579-4.233 8.095-8.086 8.095-8.086s-1.484-3.853-11.432-.585c-36.019 11.743-45.702 20.038-45.702 20.038s-4.437 2.915-5.073 4.435c1.491.697 6.741-.101 6.741-.101s12.742-.331 47.37-15.69" fill="#009FDC"/><path fill="#FFF" d="m296.215 116.223-3.777 10.652-3.858 1.481.241-10.875zM293.534 109.256l-9.949-5.38-3.857 1.482 7.47 7.908zM289.206 114.88a11.943 11.943 0 0 1 7.233-2.789 13.859 13.859 0 0 1-3.383 1.99c-1.238.437-2.53.7-3.84.785"/><path d="M415.33 223.503s2.202-1.43-1.142-7.183a222.06 222.06 0 0 0-4.325-7.182l8.996-15.966-1.564-2.41-12.4 10.851a94.87 94.87 0 0 0-5.892-7.67l2.021-6.82-1.431-2.2-3.906 5.634c-.206-.202-2.444-2.368-3.414-2.552-.238.99.89 4.013.946 4.166l-6.783 1.276 1.431 2.2 7.104.938a93.996 93.996 0 0 0 4.59 8.477l-15.01 6.897 1.564 2.405 18.295-1.698a272.157 272.157 0 0 0 4.81 6.87c3.893 5.393 6.099 3.967 6.099 3.967" opacity=".2" fill="#000"/><path fill="#FFF" d="m406.518 212.227-18.32 1.701-1.564-2.409 15.018-6.904zM411.908 208.733l9.024-16.015-1.564-2.405-12.434 10.878z"/><path d="M411.301 219.096c3.896 5.383 6.102 3.968 6.102 3.968s2.203-1.43-1.141-7.18c-12.058-20.83-18.502-25.756-18.502-25.756s-2.402-2.375-3.428-2.57c-.244 1.018.95 4.184.95 4.184s1.881 7.87 16.005 27.36" fill="#009FDC"/><path fill="#FFF" d="m397.068 196.15-7.13-.946-1.429-2.203 6.804-1.28zM401.055 193.57l2.04-6.89-1.429-2.204-3.945 5.683zM396.982 191.62a7.569 7.569 0 0 1 2.68 4.129 8.72 8.72 0 0 1-1.685-1.841 9.06 9.06 0 0 1-.995-2.288"/><path d="M307.93 254.748s-1.27-2.298-7.25.631a245.652 245.652 0 0 0-7.491 3.808l-15.315-10.084-2.516 1.395 9.97 13.113a93.728 93.728 0 0 0-8.068 5.338l-6.667-2.493-2.3 1.26 5.35 4.291c-.216.189-2.534 2.256-2.792 3.219.974.306 4.07-.604 4.227-.649l.8 6.848 2.297-1.273 1.441-7.011a95.735 95.735 0 0 0 8.787-3.982l5.837 15.429 2.513-1.395-.412-18.347a242.667 242.667 0 0 0 7.195-4.31c5.658-3.487 4.388-5.799 4.388-5.799" opacity=".2" fill="#000"/><path fill="#FFF" d="m296.054 262.736.412 18.372-2.513 1.391-5.844-15.447zM292.944 257.12l-15.363-10.113-2.514 1.391 9.995 13.152z"/><path d="M303.253 258.45c5.662-3.486 4.388-5.798 4.388-5.798s-1.27-2.297-7.25.631c-21.644 10.558-27.02 16.618-27.02 16.618s-2.538 2.225-2.792 3.236c.998.314 4.234-.652 4.234-.652s7.994-1.325 28.45-14.034" fill="#009FDC"/><path fill="#FFF" d="m279.337 271.027-1.446 7.037-2.3 1.272-.799-6.869zM277.036 266.875l-6.737-2.518-2.3 1.27 5.4 4.326zM274.806 270.794a7.609 7.609 0 0 1 4.308-2.382 8.725 8.725 0 0 1-1.955 1.552 9.108 9.108 0 0 1-2.353.83"/><path d="M406.644 133.64c0 4.236-3.438 7.67-7.68 7.67-4.241 0-7.68-3.434-7.68-7.67 0-4.237 3.439-7.672 7.68-7.672 4.242 0 7.68 3.435 7.68 7.671" opacity=".3" fill="#E17222"/><path d="M402.18 130.428a4.529 4.529 0 0 1-.009 6.406 4.542 4.542 0 0 1-6.413 0 4.529 4.529 0 0 1-.009-6.406 4.54 4.54 0 0 1 6.43 0" fill="#E17222"/><path d="M304.146 235.288c0 4.237-3.438 7.671-7.68 7.671-4.24 0-7.68-3.434-7.68-7.67 0-4.237 3.44-7.671 7.68-7.671 4.242 0 7.68 3.434 7.68 7.67" opacity=".3" fill="#E17222"/><path d="M299.685 232.077a4.529 4.529 0 0 1-.01 6.405 4.542 4.542 0 0 1-6.413 0 4.529 4.529 0 0 1-.01-6.405 4.54 4.54 0 0 1 6.433 0" fill="#E17222"/><path d="M339.055 63.49c0 4.236-3.439 7.67-7.68 7.67s-7.68-3.434-7.68-7.67c0-4.237 3.439-7.672 7.68-7.672s7.68 3.435 7.68 7.671" opacity=".3" fill="#E17222"/><path d="M334.594 60.278a4.529 4.529 0 0 1-.011 6.405 4.542 4.542 0 0 1-6.413 0 4.529 4.529 0 0 1-.01-6.405 4.54 4.54 0 0 1 6.434 0" fill="#E17222"/></g></svg>
