<svg width="174" height="32" viewBox="0 0 174 32" fill="none" xmlns="http://www.w3.org/2000/svg">
<path d="M145.332 13.3135C141.843 11.4894 138.941 11.3548 137.591 11.3548H132.875L132.623 10.9105H138.166C138.546 10.9105 143.142 10.8436 145.851 11.5701C149.237 12.4695 151.576 14.2413 152.032 14.545C152.49 14.8401 158.664 19.2502 158.664 19.2502C158.664 19.2502 157.628 20.3133 156.612 20.3133C155.653 20.3133 154.618 19.5731 154.618 19.5731C154.618 19.5731 151.308 17.1932 150.805 16.8411C150.3 16.4913 147.699 14.5473 145.332 13.3135Z" fill="white"/>
<path d="M145.081 16.7896C147.413 18.3378 148.786 19.4632 149.235 19.7883C149.682 20.1143 151.756 21.5948 151.756 21.5948C151.756 21.5948 152.708 22.3343 153.881 22.3343C154.768 22.3343 155.86 21.3073 155.86 21.3073C155.86 21.3073 150.904 17.8189 150.455 17.5053C150.002 17.187 148.415 15.9394 145.452 15.1592C142.971 14.5088 139.451 14.5265 139.22 14.5265H134.706L134.973 14.9816L138.631 14.9885C139.174 14.9885 142.626 15.1569 145.081 16.7896ZM145.838 9.66368C148.844 11.2764 151.819 13.4995 152.373 13.9054C152.928 14.3044 157.449 17.5337 157.449 17.5337C157.449 17.5337 158.504 18.2455 159.471 18.2455C160.416 18.2455 161.477 17.2047 161.477 17.2047C161.477 17.2047 154.267 12.0236 153.618 11.5678C152.973 11.1081 150.376 8.98568 146.207 7.99482C142.939 7.17154 137.494 7.26763 137.117 7.26763H130.516L130.782 7.72347H136.546C137.737 7.72347 142.34 7.78343 145.838 9.66368Z" fill="white"/>
<path d="M171.98 9.59142C171.088 9.4323 169.922 9.36312 169.922 9.36312L168.325 9.8205L167.412 9.05563C167.412 9.05563 169.317 9.21014 169.85 9.28625C170.303 9.28625 170.153 9.05563 169.922 8.60056C169.697 8.14472 169.165 8.14472 169.165 8.14472H164.37C164.37 8.14472 163.517 8.15163 162.528 7.92256C161.541 7.69425 161.151 6.95399 161.151 6.95399C160.764 7.83339 162.292 8.85577 162.292 8.85577L167.032 12.2565C167.641 12.6355 168.176 12.3303 168.176 12.3303C168.176 12.3303 169.391 11.723 170.076 11.5693C170.685 11.4179 172.586 11.3433 172.813 11.4179C173.348 11.494 173.957 12.0275 173.957 12.0275C174.262 9.89429 172.889 9.75516 171.98 9.59142ZM146.779 2.55084C150.085 4.006 154.815 7.53052 155.503 8.03018C156.197 8.53522 163.007 13.405 163.007 13.405C163.007 13.405 164.074 14.1675 165.062 14.1675C166.053 14.1675 167.032 13.169 167.032 13.169V13.1674C167.032 13.1674 157.408 6.25831 156.712 5.76711C156.02 5.26898 152.823 2.58466 146.888 1.02111C142.826 -0.044319 135.841 0.000265928 135.034 0.000265928H126.319L126.587 0.459953H134.574C136.591 0.459953 142.403 0.630606 146.779 2.55084Z" fill="white"/>
<path d="M146.272 6.09543C142.704 4.31203 138.299 4.0891 135.735 4.0891H128.683L128.42 3.63172H136.083C136.91 3.63172 142.713 3.5733 146.553 4.44194C150.981 5.44895 154.788 8.35158 155.188 8.62909C155.568 8.89198 164.305 15.1523 164.305 15.1523C164.305 15.1523 163.308 16.1747 162.238 16.1747C161.252 16.1747 160.182 15.4122 160.182 15.4122C160.182 15.4122 154.496 11.3434 153.946 10.9537C153.398 10.5608 149.599 7.7543 146.272 6.09543Z" fill="white"/>
<path d="M18.3167 26.3293C18.3167 26.3293 17.7817 26.2109 17.1306 26.2109C15.6901 26.2109 14.6231 26.8474 14.3333 27.8075C14.268 27.9843 14.248 28.3909 14.248 28.5885C14.248 29.8038 15.0974 30.4856 16.1444 30.4856C16.4217 30.4801 16.696 30.427 16.9554 30.3288C17.7079 30.0552 18.316 29.5524 18.316 28.7837L18.3167 26.3293ZM19.3053 31.7686C19.2061 31.7686 18.7903 31.7917 18.615 31.5964C18.4467 31.4396 18.4467 31.2105 18.4467 31.0153V30.4026C17.8225 31.3297 16.757 31.9577 15.162 31.9216C12.6506 31.8501 12.1025 29.8845 12.1025 28.7991C12.1025 28.4155 12.1363 27.6845 12.7067 26.9081C13.5938 25.6589 15.4364 25.2554 17.0761 25.2554C17.7817 25.2554 18.3167 25.3553 18.3167 25.3553V24.2637C18.3167 23.8717 18.3167 23.2068 17.9255 22.7386C17.5949 22.3458 16.973 22.0583 15.8769 22.0583C14.165 22.0583 13.0457 23.023 13.0457 23.023L13.2533 21.7293C13.2533 21.7293 14.4071 20.946 16.2674 20.946C17.8225 20.946 18.8917 21.3726 19.5229 22.0068C20.2462 22.7601 20.4299 23.452 20.4299 24.8449V31.7686H19.3053ZM26.2152 22.3927C24.4203 22.7309 24.2227 24.1515 24.2227 25.1539V31.7686H22.1065V22.3189C22.1065 21.4103 21.5115 21.2197 21.5115 21.2197H23.5985C24.059 21.2197 24.2227 21.4779 24.2227 21.7654V22.342C24.2842 22.1459 25.0429 21.1412 26.4427 21.0921C26.9032 21.0736 27.4198 21.112 27.7073 21.2804L27.984 22.6102C27.6711 22.4357 27.0823 22.2313 26.2152 22.3927ZM36.3568 31.7686C36.283 31.7686 35.8471 31.7917 35.6511 31.5964C35.492 31.4396 35.492 31.1567 35.492 31.0153V30.4026C34.9208 31.3312 33.8946 31.9216 32.4863 31.9216C31.3825 31.9216 30.6345 31.6702 29.9803 30.9592C29.2962 30.192 29.114 29.2411 29.114 27.9535V22.1575C29.114 21.4103 28.4683 21.2089 28.4844 21.2197H30.4485C30.9358 21.2197 31.228 21.4664 31.228 21.83V28.1872C31.228 30.069 31.7891 30.5956 33.1082 30.5956C34.1913 30.5956 35.3728 29.8668 35.3728 28.7522V21.2197H37.4668V31.7686H36.3568ZM65.2686 31.7686C64.8304 31.7686 64.5691 31.5849 64.5691 31.0491V18.5976C64.5814 18.1529 64.3496 17.7371 63.9649 17.5137H66.0096C66.6169 17.5137 66.8883 17.8035 66.8883 18.2455V31.7686H65.2686ZM94.0428 22.0921C91.9151 22.0675 91.5399 24.2637 91.5399 26.5945C91.5399 29.4986 92.2725 30.8877 94.0428 30.8877C95.6064 30.8877 96.332 29.0889 96.332 26.5945C96.332 24.5597 96.1368 22.1129 94.0428 22.0921ZM94.0021 31.9216C90.5491 31.9062 89.3053 29.7615 89.3053 26.5429C89.3053 23.6111 90.5491 20.9683 94.0021 20.9866C97.4982 21.009 98.5675 23.6465 98.5675 26.5429C98.5675 29.5079 96.884 31.9439 94.0021 31.9216ZM125.574 30.9999C124.826 31.6364 123.836 31.9439 122.727 31.9577H122.61C120.954 31.9577 120.047 31.518 119.654 31.2889L119.353 30.0398C119.353 30.0398 120.8 30.9815 122.304 30.9815C123.754 30.9815 124.585 30.2012 124.487 28.9183C124.338 26.8635 119.571 27.3547 119.571 23.9539C119.571 22.086 121.096 21.1028 122.963 21.0805H123.086C125.016 21.0805 125.736 21.7562 125.736 21.7562L126.028 22.9223C126.028 22.9223 125.201 22.1075 123.543 22.1075C121.759 22.1075 121.584 23.5373 121.622 23.9247C121.734 24.9525 122.516 25.1993 123.913 25.8065C125.371 26.433 126.521 27.2309 126.521 28.7768C126.521 29.7608 126.145 30.5149 125.574 30.9999ZM128.427 31.7686C128.036 31.7686 127.825 31.5649 127.825 31.2175V22.1644C127.825 21.4664 127.166 21.2197 127.166 21.2197H129.316C129.75 21.2197 129.918 21.4441 129.918 21.8477V31.7686H128.427ZM70.4758 21.2197C70.8755 21.2197 71.08 21.4103 71.08 21.7654V22.5926C71.6573 21.6594 72.682 21.0651 74.0818 21.0651C75.1872 21.0651 75.9375 21.3142 76.5932 22.0276C77.285 22.7986 77.4557 23.7456 77.4557 25.0378V31.7686H76.1942C75.6554 31.7686 75.3448 31.4058 75.3448 30.9007V24.8018C75.3448 22.9223 74.7837 22.3927 73.4738 22.3927C72.3861 22.3927 71.1999 23.1222 71.1999 24.2453V31.7686H69.106V22.1306C69.106 21.388 68.5218 21.2197 68.5218 21.2197H70.4758ZM137.51 26.3293C137.51 26.3293 136.973 26.2109 136.324 26.2109C134.883 26.2109 133.814 26.8474 133.52 27.8075C133.457 27.9843 133.439 28.3909 133.439 28.5885C133.439 29.8038 134.291 30.4856 135.335 30.4856C135.533 30.4856 135.87 30.4411 136.146 30.3288C136.897 30.0552 137.51 29.5524 137.51 28.7837V26.3293ZM138.499 31.7686C138.391 31.7686 137.986 31.7917 137.802 31.5964C137.652 31.4396 137.652 31.2105 137.652 31.0153V30.4026C137.014 31.3297 135.95 31.9577 134.349 31.9216C131.842 31.8501 131.294 29.8845 131.294 28.7991C131.294 28.4155 131.327 27.6845 131.902 26.9081C132.786 25.6589 134.624 25.2554 136.263 25.2554C136.973 25.2554 137.51 25.3553 137.51 25.3553V24.2637C137.51 23.8717 137.571 23.259 137.137 22.734C136.818 22.3304 136.146 22.0452 135.003 22.0583C133.048 22.0921 132.239 23.023 132.239 23.023L132.447 21.7293C132.447 21.7293 133.594 20.946 135.458 20.946C137.014 20.946 138.081 21.3726 138.714 22.0068C139.444 22.7601 139.617 23.452 139.617 24.8449V31.7686H138.499ZM45.6351 24.768C45.6351 24.1715 45.5582 23.2944 45.08 22.7924C44.7457 22.4419 44.2129 22.1951 43.4581 22.1951C41.4072 22.1951 41.175 24.921 41.175 26.3877V26.5429C41.1935 28.6223 41.7846 30.6878 43.5011 30.6878C44.4336 30.6878 45.0777 30.3288 45.6351 29.627V24.768ZM46.2869 31.7686C45.8718 31.7686 45.7319 31.6303 45.7319 31.2505V30.7324C44.9386 31.4396 44.1707 31.9054 43.0092 31.9216H42.9661C39.9512 31.9216 38.8996 29.3756 38.8996 26.5429C38.8996 24.4229 39.7129 20.9867 43.0676 20.9867C45.08 20.9867 45.6351 22.1951 45.6351 22.1951V18.5976C45.6351 17.842 45.0124 17.4584 45.0124 17.4584H46.6505C47.2816 17.4584 47.7467 17.8935 47.7467 18.3662V31.7686H46.2869ZM55.5045 26.3293C55.5045 26.3293 54.9695 26.2109 54.3207 26.2109C52.8801 26.2109 51.8108 26.8474 51.5149 27.8075C51.4565 27.9843 51.4334 28.3909 51.4334 28.5885C51.4334 29.8038 52.2828 30.4856 53.3298 30.4856C53.6065 30.481 53.8802 30.428 54.1385 30.3288C54.8864 30.0552 55.5045 29.5524 55.5045 28.7837V26.3293ZM56.4861 31.7686C56.39 31.7686 55.9711 31.7917 55.7943 31.5964C55.6352 31.4396 55.6352 31.2105 55.6352 31.0153V30.4026C55.0079 31.3297 53.9409 31.9577 52.3436 31.9216C49.8407 31.8501 49.2818 29.8845 49.2818 28.7991C49.2818 28.4155 49.3202 27.6845 49.8922 26.9081C50.7823 25.6589 52.6157 25.2554 54.2576 25.2554C54.6753 25.2537 55.0924 25.2871 55.5045 25.3553V24.2637C55.5045 23.8717 55.5045 23.2068 55.1117 22.7386C54.7811 22.3458 54.1562 22.0583 53.0646 22.0583C51.3527 22.0583 50.2296 23.023 50.2296 23.023L50.4364 21.7293C50.4364 21.7293 51.5933 20.946 53.4513 20.946C55.0079 20.946 56.0772 21.3726 56.709 22.0068C57.4316 22.7601 57.6138 23.452 57.6138 24.8449V31.7686H56.4861ZM85.7185 24.768C85.7185 24.1715 85.6401 23.2944 85.1666 22.7924C84.8337 22.4419 84.2995 22.1951 83.5469 22.1951C81.4929 22.1951 81.2554 24.921 81.2554 26.3877V26.5429C81.2754 28.6223 81.8704 30.6878 83.5892 30.6878C84.5239 30.6878 85.1643 30.3288 85.7185 29.627V24.768ZM86.3796 31.7686C85.9614 31.7686 85.8184 31.6303 85.8184 31.2505V30.7324C85.0251 31.4396 84.2518 31.9054 83.0926 31.9216H83.0342C80.0331 31.9216 78.9908 29.3756 78.9908 26.5429C78.9908 24.4229 79.7972 20.9867 83.151 20.9867C85.1666 20.9867 85.7185 22.1951 85.7185 22.1951V18.5976C85.7185 17.842 85.0966 17.4584 85.0966 17.4584H86.7417C87.372 17.4584 87.8309 17.8935 87.8309 18.3662V31.7686H86.3796ZM101.425 21.2197C101.832 21.2197 102.032 21.4103 102.032 21.7654V22.5926C102.605 21.6594 103.629 21.0651 105.038 21.0651C106.143 21.0651 106.886 21.3142 107.544 22.0276C108.232 22.7986 108.412 23.7456 108.412 25.0378V31.7686H107.147C106.615 31.7686 106.3 31.4058 106.3 30.9007V24.8018C106.3 22.9223 105.736 22.3927 104.422 22.3927C103.339 22.3927 102.155 23.1222 102.155 24.2453V31.7686H100.059V22.1306C100.059 21.388 99.4745 21.2197 99.4745 21.2197H101.425ZM8.71867 31.8455C7.87233 31.9577 7.3596 32 6.53093 32C4.36087 32 2.98105 31.3428 1.93176 30.3196C0.392809 28.7976 0 26.2685 0 24.6873C0 23.4182 0.215238 20.9083 2.26692 18.9789C3.21473 18.0926 4.69603 17.3392 6.90376 17.3392C8.87856 17.3392 9.82638 17.9004 9.82638 17.9004L10.1954 19.2033C10.1139 19.1649 9.09611 18.5799 7.39804 18.5799C3.91349 18.5799 2.45141 20.9706 2.45141 24.6873C2.45141 30.3135 5.19415 30.7616 6.74617 30.7616C7.85157 30.7616 8.29665 30.5871 8.29665 30.5871V25.0017H7.08825C6.27265 25.0017 5.92442 25.127 5.92442 25.127L6.09969 23.997H10.5766V31.4396C9.84637 31.6341 9.45125 31.7486 8.71867 31.8455ZM112.099 26.4953C112.099 26.4953 112.631 26.6121 113.285 26.6121C115.63 26.6121 116.168 25.4637 116.271 24.1315C116.358 22.9446 116.042 21.7624 114.204 21.9914C112.539 22.1975 112.092 23.2882 112.092 24.6404C112.092 25.7627 112.099 26.4953 112.099 26.4953ZM115.258 20.9483C117.76 21.1282 118.317 22.9915 118.317 24.0731C118.317 24.459 118.279 25.19 117.706 25.9641C116.821 27.2156 114.981 27.6145 113.346 27.6145C112.631 27.6145 112.099 27.5184 112.099 27.5184V28.4916C112.099 30.3358 113.085 30.8362 114.711 30.8131C116.527 30.7908 117.969 29.6677 117.969 29.6677L117.762 30.9661C117.762 30.9661 116.111 31.9239 114.255 31.9239C112.699 31.9239 111.519 31.5088 110.896 30.8608C110.12 30.0575 109.989 28.9782 109.989 27.5899V25.2838C109.989 23.3213 110.8 20.6301 115.258 20.9483Z" fill="white"/>
</svg>
