<svg width="83" height="24" viewBox="0 0 83 24" fill="none" xmlns="http://www.w3.org/2000/svg">
<path fill-rule="evenodd" clip-rule="evenodd" d="M50.5002 2.4435C49.9973 2.71806 49.1985 3.46806 48.2755 4.50104C49.4389 5.6757 50.7713 7.19265 52.2073 9.11871C54.4741 6.08693 55.9573 3.96931 57.0302 3.18392C58.1029 2.39721 61.5786 1.37907 67.6981 0.349065C58.4973 1.17881 51.8719 1.69324 50.5002 2.4435Z" fill="white"/>
<path fill-rule="evenodd" clip-rule="evenodd" d="M45.4117 1.9871C43.9226 0.909233 35.4999 0.259279 24.8172 0C29.9292 0.761413 36.4768 1.85729 38.362 3.04038C39.8615 3.98246 41.494 5.74929 44.2794 8.96173L52.2073 9.11871C49.3636 5.30751 46.9267 3.08482 45.4117 1.9871Z" fill="white"/>
<path fill-rule="evenodd" clip-rule="evenodd" d="M68.3393 12.7122C67.3988 11.7501 66.0779 11.3177 64.0601 11.3177C62.0544 11.3177 60.7274 11.7472 59.7643 12.7096L59.7583 12.7122C58.8545 13.6673 58.5314 14.9605 58.5314 17.6608C58.5314 20.3574 58.8545 21.6505 59.7551 22.6001C60.7274 23.5726 62.0544 24 64.0601 24C66.0779 24 67.3957 23.5726 68.3393 22.6056C69.371 21.5513 69.566 20.0539 69.566 17.6608C69.566 15.2667 69.371 13.7676 68.3393 12.7122ZM64.0601 21.7445C63.3364 21.7445 62.7785 21.6733 62.3422 21.5293L67.101 15.2458C67.2385 15.8527 67.2535 16.6337 67.2535 17.6106C67.2535 20.5516 67.132 21.7445 64.0601 21.7445ZM64.0601 13.5526C64.8908 13.5526 65.4991 13.6364 65.9541 13.8177L61.0783 20.2626C60.8654 19.6137 60.8435 18.7361 60.8435 17.6106C60.8435 14.7244 60.9674 13.5526 64.0601 13.5526Z" fill="white"/>
<path fill-rule="evenodd" clip-rule="evenodd" d="M45.9658 20.639C45.7213 21.3889 44.8771 21.7262 43.2343 21.7262C40.535 21.7262 40.1828 20.7137 40.1447 18.4199C40.5091 18.4199 48.4245 18.4199 48.4245 18.4199V17.9515C48.4245 15.9903 48.3701 14.3965 47.678 13.2199C46.9184 11.9223 45.4751 11.3166 43.1385 11.3166C38.6995 11.3166 37.8311 13.6446 37.8311 17.6754C37.8311 19.601 37.9842 21.1093 38.7381 22.2019C39.5548 23.382 40.9774 23.9306 43.2083 23.9306C46.2619 23.9306 47.9461 22.8462 48.2184 20.7028L48.2298 20.639H45.9658ZM43.1385 13.5006C45.4235 13.5006 46.0728 14.0755 46.1513 16.2364C45.7958 16.2364 40.535 16.2364 40.1771 16.2364C40.2786 14.2004 41.0444 13.5006 43.1385 13.5006Z" fill="white"/>
<path fill-rule="evenodd" clip-rule="evenodd" d="M82.2295 17.9515C82.2295 15.9903 82.1733 14.3965 81.4857 13.2199C80.7235 11.9223 79.2815 11.3166 76.9448 11.3166C72.5041 11.3166 71.6373 13.6446 71.6373 17.6754C71.6373 19.601 71.7913 21.1093 72.5457 22.2019C73.3598 23.382 74.7805 23.9306 77.0165 23.9306C80.0705 23.9306 81.7543 22.8462 82.028 20.7028L82.0352 20.639H79.7709C79.531 21.3889 78.6874 21.7262 77.0399 21.7262C74.3431 21.7262 73.9894 20.7137 73.9478 18.4199C74.3144 18.4199 82.2295 18.4199 82.2295 18.4199V17.9515ZM73.983 16.2364C74.0822 14.2004 74.8508 13.5006 76.9448 13.5006C79.2266 13.5006 79.8773 14.0755 79.9558 16.2364C79.6013 16.2364 74.3431 16.2364 73.983 16.2364Z" fill="white"/>
<path fill-rule="evenodd" clip-rule="evenodd" d="M20.1661 23.7439H22.4735V11.8107H20.1661V23.7439Z" fill="white"/>
<path fill-rule="evenodd" clip-rule="evenodd" d="M3.92675 23.7411H6.47251L9.05958 15.8345L11.6818 23.7411H14.1928L18.1245 11.8071H15.6942L12.9198 20.208L10.1477 11.8071H7.97575L5.20161 20.208L2.43056 11.8071H0L3.92675 23.7411Z" fill="white"/>
<path fill-rule="evenodd" clip-rule="evenodd" d="M35.6799 18.8764C35.6799 18.8838 35.6799 6.83717 35.6799 6.83717H33.37C33.37 6.83717 33.37 11.3528 33.37 11.9411C32.5641 11.5442 31.5565 11.3528 30.2246 11.3528C28.2325 11.3528 26.9165 11.7798 25.955 12.7379C25.0477 13.6884 24.7302 14.9769 24.7302 17.6608C24.7302 20.3409 25.0802 21.7143 25.9419 22.5738C26.8073 23.4358 28.0977 23.9663 30.2246 23.9663C32.2337 23.9663 33.5339 23.5269 34.4833 22.5801C35.2882 21.7763 35.6799 20.1588 35.6799 18.8764ZM30.2246 13.5844C33.2958 13.5844 33.4178 14.7482 33.4178 17.6143C33.4178 20.4558 33.2882 21.7143 30.2246 21.7143C27.1651 21.7143 27.0367 20.4558 27.0367 17.6143C27.0367 14.7482 27.1594 13.5844 30.2246 13.5844Z" fill="white"/>
<path fill-rule="evenodd" clip-rule="evenodd" d="M52.9918 23.7411H50.6802L50.6784 11.8064H53.0023V12.6739C53.9362 12.1229 54.6925 11.8064 56.4626 11.8064C56.8751 11.8064 57.0717 11.8128 57.2136 11.8235V14.0783C57.0054 14.0464 56.7134 14.0292 56.4626 14.0292C55.8927 14.0292 54.5801 14.0901 53.8156 14.8565C53.2778 15.3907 52.9886 16.2701 52.9886 17.8093L52.9918 23.7411Z" fill="white"/>
</svg>
