<svg xmlns="http://www.w3.org/2000/svg" width="138" height="30" viewBox="0 0 138 30"><g fill-rule="nonzero" fill="none"><path fill="#1C1D80" d="M36.178 10.93c-12.173.335-23.95 3.071-25.045 6.948-.091.344-.133.7-.125 1.055 0 3.82 8.052 5.125 16.768 6.203.15.015.143-.1.095-.186l-.255-.446c-.035-.061-.07-.101-.195-.136-4.77-1.203-9.613-2.96-9.613-4.596 0-3.098 8.115-6.166 17.355-7.566.303-.06.45-.116.655-.277.254-.203.819-.66 1.064-.85.156-.126.099-.167.041-.164-.254.004-.5.008-.745.016"/><g fill="#DF0012"><path d="M22.712 29.629c-6.321-1.57-12.588-6.824-11.6-11.691C12.554 10.835 22.2 3.954 34.238.722c.27-.08.369-.257.025-.257H17.831c-2.843 0-3.46.365-4.561 1.839-.587.787-5.503 7.498-7.721 10.526-.285.36-.688.746-1.587.746H0l.002.006C4.7 26.722 9.745 29.821 14.798 29.821h7.979c.113 0 .224-.12-.065-.192M98.42 3.2v1.126h-5.002a.84.84 0 1 0 0 1.68l2.448-.024-.009 2.054c-.114 3.261-1.653 5.235-2.308 6.078l-.18.236a.81.81 0 0 0-.328.657.85.85 0 0 0 .852.841c.262 0 .54-.12.696-.292l.016-.012c.605-.471 2.595-2.328 2.98-6.524h5.386c0 .856-.025 1.863-.073 3.081-.09 2.113-1.563 2.062-2.276 2.036l-.04-.004c-.623-.063-1.557-.29-1.564-.29l-.23-.026a.841.841 0 0 0-.204 1.653c0 .01.9.317 1.735.33l.172.002c1.056.015 2.26.034 3.111-.78.712-.69 1.072-1.862 1.097-3.584.033-.712.049-1.848.049-2.497v-.436c-.04-.66-.549-1.156-1.17-1.156l-5.912-.008v-1.36l7.573.025a.85.85 0 0 0 .852-.839.847.847 0 0 0-.852-.841h-5.042V3.178c0-.444-.418-.817-.902-.817-.474 0-.875.385-.875.839m27.539 7.012a.842.842 0 1 0 0 1.683h4.208v2.135h-5.01a.84.84 0 0 0 0 1.68h11.7a.85.85 0 0 0 .85-.84.85.85 0 0 0-.85-.84h-4.947v-2.135h4.208c.474 0 .852-.38.852-.842a.845.845 0 0 0-.852-.84h-10.159m4.2-6.985v.563h-4.364c-.646.007-1.17.53-1.17 1.168v1.713c0 .466.376.84.843.84a.84.84 0 0 0 .85-.84V5.471h1.974c.035.306.013.617-.065.915-.246.85-1.121 1.443-2.595 1.76l-.058.012a.81.81 0 0 0-.745.81c0 .454.401.84.893.84l.09-.006c3.291-.3 4.167-2 4.322-3.373.04-.382.05-.8.05-.958V5.46l1.662.01v3.053c.007.63.506 1.138 1.145 1.153l2.465.002c1.285 0 1.825-.884 1.825-.89.099-.14.148-.362.164-.522.025-.404-.155-.511-.353-.631l-.04-.03c-.304-.188-.63-.128-.99.175-.419.358-.779.303-.787.303l-1.44-.005s-.14.005-.221-.08c-.05-.048-.074-.121-.074-.215V5.471h2.283c-.032.11-.187.675-.187.675l-.025.198a.827.827 0 0 0 .655.794c.459.106.99-.214 1.096-.66.009-.035.344-.928.328-1.443-.008-.82-.41-1.23-1.22-1.249l-4.592.005v-.563c0-.456-.401-.843-.876-.843a.842.842 0 0 0-.843.843M68.392 4.813c-.123.131-.171.313-.148.534v.017c0 .012.017.15.025.235l-3.904.01c-.353 0-.738.274-.738.67 0 .362.32.666.705.666l4.117.012c.246 1.533.573 2.821.999 3.938a22.044 22.044 0 0 1-1.236 1.738c-.099.096-.171.408-.171.643 0 .094.007.176.04.228a.637.637 0 0 0 .482.334c.222.03.452-.06.648-.253.188-.188.294-.361.458-.625 0 0 .36-.53.435-.648.4.764.744 1.271.752 1.277.132.205.36.336.598.336a.7.7 0 0 0 .63-.397l.033-.063c.122-.22.426-.807.639-2.024v-.005c.016-.262-.042-.477-.173-.63a.609.609 0 0 0-.434-.198c-.27-.013-.572.141-.646.464 0 0-.106.504-.173.766-.09-.202-.326-.748-.351-.786.646-1.064 1.089-2.052 1.359-3.014l.025-.25a.719.719 0 0 0-.23-.47.688.688 0 0 0-1.113.316c0 .008-.352 1.072-.664 1.722-.196-.64-.367-1.41-.54-2.399h2.268a.671.671 0 0 0 .672-.678.67.67 0 0 0-.672-.68h-.36l.008-.071a.702.702 0 0 0-.172-.467l-.082-.097a.687.687 0 0 0-.49-.252.735.735 0 0 0-.533.166.383.383 0 0 0-.14.302v.007c0 .132.075.274.173.393-.156.003-.762.009-.836.009l-.04-.29c-.057-.455-.287-.687-.696-.687-.22 0-.41.072-.524.201"/><path d="M73.419 2.937v-.002l-10.405.003a1.182 1.182 0 0 0-1.172 1.17v10.409a1.199 1.199 0 0 0 1.172 1.182h10.405a1.187 1.187 0 0 0 1.178-1.173l.009-10.419a1.18 1.18 0 0 0-1.187-1.17zm-.467 10.962c0 .138-.074.206-.213.206l-9.111-.018c-.123 0-.18-.065-.18-.203v-9.16l.048-.147.148-.045 9.12.004c.081 0 .13.017.164.051l.048.137-.024 9.175z"/><path d="M68.294 7.74a.62.62 0 0 0-.581-.393h-3.218a.64.64 0 0 0-.491.233.67.67 0 0 0-.14.409v2.572l.01.131c.056.294.319.51.62.51h3.219l.187-.028a.644.644 0 0 0 .45-.61V7.989a.637.637 0 0 0-.056-.25v.001zm-3.177 2.187h1.973V8.619h-1.973v1.308zm2.096 1.546c-.016.005-1.645.522-2.758.51-.533-.007-.794.352-.812.686a.575.575 0 0 0 .18.436c.16.172.38.274.614.287 1.908.015 3.357-.622 3.366-.63h.008c.36-.165.662-.565.49-.974-.244-.613-1.08-.318-1.088-.315zm-9.488-7.188h-4.519V3.074a.855.855 0 0 0-1.71 0v1.211H47a1.186 1.186 0 0 0-1.179 1.174l.008 5.709c0 .639.524 1.165 1.171 1.17l4.495.007v2.735a.855.855 0 0 0 1.71 0v-2.729l4.52.009c.654 0 1.187-.526 1.187-1.17V5.454a1.18 1.18 0 0 0-1.188-1.169h.001zm-6.23 6.376l-3.774-.005c-.016 0-.164-.006-.18-.209V6.16l.05-.139.146-.051 3.759.008v4.683h-.001zm5.65-.232l-.059.177-.139.05H53.2V5.97h3.716c.081 0 .14.018.171.057l.041.12v.017l.017 4.245v.02zm33.178 3.453c-.024-.009-2.3-.952-4.485-2.468h2.816c.637 0 1.161-.519 1.161-1.155v-.169c0-.53-.016-3.214-.016-3.214 0-.622-.49-1.129-1.113-1.153l-3.856-.001v-.787l5.035-.011c.475 0 .843-.353.843-.807 0-.454-.385-.822-.85-.822H84.83v-.16a.84.84 0 0 0-.843-.835.84.84 0 0 0-.842.836v.159h-5.019c-.467 0-.852.368-.852.822 0 .45.385.818.852.818h5.019v.787H79.28c-.737.025-1.163.448-1.163 1.161l-.008 3.36.008.018c0 .64.524 1.157 1.163 1.157l2.792-.004c-1.597 1.177-4.503 2.397-4.535 2.409a.837.837 0 1 0 .376 1.59l.22-.03c.042 0 3.129-.924 4.994-2.934.009.238 0 2.785 0 2.785 0 .464.394.836.86.836a.833.833 0 0 0 .836-.836s.007-2.27 0-2.852c1.366 1.513 4.69 3.002 4.722 3.017.132.077.484.125.63.125.443 0 .795-.38.795-.863 0-.35-.336-.633-.647-.78v.001zm-10.6-3.87h3.422v-.827h-3.422v.827zm0-2.137h3.422v-.827h-3.422v.827zm5.165-.83h3.381c0 .087-.017.74-.017.827h-3.364v-.827zm0 2.959v-.825h3.381c0 .086-.017.737-.017.825h-3.364zm32.148-3.474h-.106l-.041.008-.042.003c-.59 0-1.064.493-1.089 1.149v4.012c-.081 1.675-.785 2.657-.933 2.837l-.032.04-.016.03c-.017.022-.148.274-.148.467 0 .448.369.817.827.817.262 0 .5-.119.655-.325 0-.005 1.416-1.463 1.416-3.757v-.023c.008-.36-.017-3.557-.017-3.557h1.442v6.153c.007.678.433 1.363 1.227 1.361l1.016-.001c.025.003.867.073 1.31-1.433l.031-.126.058-.31v-.051c.016-.169.034-.524-.564-.705-.36-.111-.655.046-.803.421l-.081.239c-.074.233-.106.315-.23.323 0 0-.22.001-.32.003V7.681c0-.01-.024-1.084-1.129-1.15h-2.431V6.53zm.155-3.38v.98h-1.538c-.491 0-.9.37-.9.819 0 .451.409.822.9.822h5.239c.49 0 .893-.37.893-.822 0-.449-.402-.819-.893-.819h-2.038c-.01-.09 0-.984 0-.984a.833.833 0 0 0-1.42-.581.827.827 0 0 0-.243.584v.001zm-2.587 5.477h-.081V4.921a.833.833 0 0 0-.827-.842l-1.368.006c.033-.105.148-.574.148-.574l.05-.126.024-.2a.824.824 0 0 0-.115-.416.826.826 0 1 0-1.506.218l-.279 1.105-1.154.005-.032-.005a.84.84 0 0 0-.828.843V8.64c-.466.004-.85.364-.85.809 0 .44.384.801.85.805 0 .085-.008.469-.008.469l-.008.083.008.03a18.91 18.91 0 0 1-.122 1.78l-.009.078c-.187 1.587-.5 2.213-.507 2.22-.024.114-.05.227-.05.338a.822.822 0 1 0 1.564.34c.041-.07.41-.748.622-2.702l.017-.119c.057-.596.106-1.257.13-1.959 0-.006.01-.415.01-.558h.605v2.018c0 .44.279.76.655.76.393 0 .688-.327.688-.76v-2.027l.646-.002v3.906l-.074.159c-.171.143-.614.064-.786.036l-.09-.012c-.441.018-.744.334-.744.784 0 .357.13.473.278.591l.041.03c.196.172.531.185.573.183 1.072.041 1.654-.084 2.005-.425.304-.297.443-.772.443-1.533v-3.72h.081c.45 0 .778-.34.778-.808 0-.467-.328-.807-.778-.807zm-1.768.009l-.76.002c.113-.13.18-.29.18-.47l-.01-.13-.18-1.147a.66.66 0 0 0-.794-.58.725.725 0 0 0-.58.727l.007.12.18 1.149a.808.808 0 0 0 .131.331l-.72.001V5.776l2.546-.005v2.865z"/></g><path fill="#1C1D80" d="M71.364 19.863c-.14.168-.205.428-.205.774v4.448a1935.19 1935.19 0 0 1-2.619-4.362c-.443-.742-.893-1.117-1.351-1.117-.394 0-.671.095-.835.281-.156.187-.23.522-.23 1.024v5.99c0 .352.066.616.205.78.14.168.369.254.664.254.302 0 .524-.087.662-.26.148-.166.222-.428.222-.775v-4.433c.18.303 2.726 4.543 2.726 4.543.245.408.45.659.621.765.18.104.426.16.73.16.343 0 .597-.1.737-.29.146-.193.212-.519.212-.999v-6.009c0-.35-.066-.612-.212-.778-.14-.167-.362-.253-.656-.253-.303 0-.523.086-.671.257zm-8.424-.025c-.14.155-.22.389-.22.699v6.47c0 .3.08.532.228.691.147.158.368.237.663.237.287 0 .516-.08.663-.237.148-.151.22-.384.22-.691v-6.47c0-.304-.08-.541-.22-.695-.155-.158-.376-.236-.663-.236-.295 0-.523.078-.671.232zm-3.398 0c-.148.155-.22.389-.22.699v2.167h-3.235v-2.167c0-.304-.081-.541-.22-.695-.156-.158-.376-.236-.671-.236-.295 0-.517.078-.664.232-.147.155-.22.389-.22.699v6.47c0 .3.073.532.22.691.147.156.37.237.664.237.295 0 .524-.08.67-.237.149-.151.221-.384.221-.691v-2.724h3.235v2.724c0 .304.072.535.22.691.156.158.377.237.664.237.302 0 .524-.08.67-.235.149-.153.221-.386.221-.693v-6.47c0-.304-.072-.541-.22-.695-.156-.158-.376-.236-.671-.236-.295 0-.517.078-.664.232zm-12.68.823c-.688.776-1.04 1.864-1.04 3.243 0 1.283.352 2.304 1.031 3.044.68.738 1.63 1.111 2.816 1.111a4.572 4.572 0 0 0 1.491-.224c.433-.15.842-.396 1.22-.725.229-.206.416-.434.556-.681.14-.252.213-.488.213-.696a.732.732 0 0 0-.254-.566.85.85 0 0 0-.605-.234.86.86 0 0 0-.427.11c-.122.07-.253.199-.4.382l-.131.22-.18.28a1.49 1.49 0 0 1-.581.4c-.238.09-.508.138-.803.138-.688 0-1.212-.232-1.58-.696-.368-.463-.557-1.136-.557-1.995 0-.84.189-1.507.549-1.983.369-.47.875-.709 1.514-.709.303 0 .573.05.81.147.23.094.434.244.607.442l.155.226c.082.126.147.216.212.276.124.117.254.205.385.261a1 1 0 0 0 .41.088.84.84 0 0 0 .613-.232.847.847 0 0 0 .23-.61c0-.229-.073-.467-.22-.712a2.343 2.343 0 0 0-.606-.649 3.88 3.88 0 0 0-1.163-.62 4.354 4.354 0 0 0-1.35-.202c-1.237 0-2.22.395-2.915 1.166zm34.228 6.294c-.025-.08-.066-.224-.066-.224l-2.276-6.246c-.14-.372-.295-.602-.46-.708-.17-.105-.432-.154-.8-.154-.394 0-.655.051-.828.162-.171.109-.32.347-.45.722l-2.234 6.225-.066.223-.024.22c0 .232.081.423.245.563.155.141.36.213.614.213.22 0 .4-.055.54-.156a.993.993 0 0 0 .32-.477s.302-.939.36-1.112h3.061l.369 1.112c.073.214.18.376.32.48.137.1.31.153.53.153.255 0 .468-.072.623-.213a.718.718 0 0 0 .246-.562s0-.14-.025-.221h.001zm-4.684-2.223l1.048-3.19c.09.268 1.008 3.064 1.048 3.19h-2.096zm59.762-4.869c-.14.168-.214.428-.214.774v4.448c-.187-.305-2.619-4.362-2.619-4.362-.434-.742-.893-1.117-1.351-1.117-.392 0-.671.095-.826.281-.156.187-.238.522-.238 1.024v5.99c0 .358.074.614.213.78.14.168.36.254.663.254.295 0 .516-.087.662-.26.14-.169.214-.428.214-.775v-4.433l2.726 4.543c.245.408.45.659.63.764.173.105.418.16.72.16.344 0 .598-.098.738-.289.146-.193.213-.519.213-.999v-6.009c0-.35-.067-.612-.205-.778-.148-.167-.368-.253-.663-.253-.303 0-.524.086-.663.257zm-19.64-.15c-.393 0-.67.095-.835.283-.148.188-.229.524-.229 1.032v5.499c0 .504.081.839.23 1.026.163.187.44.282.834.282h4.274c.31 0 .548-.066.712-.2.164-.135.245-.329.245-.588 0-.26-.081-.462-.237-.591-.164-.13-.41-.194-.72-.194h-3.586v-1.97h3.029c.303 0 .532-.061.695-.185.164-.126.247-.31.247-.547 0-.25-.074-.437-.238-.56-.164-.123-.394-.184-.704-.184h-3.029v-1.605h3.373c.31 0 .548-.063.704-.187.171-.127.254-.307.254-.552 0-.248-.083-.44-.254-.568-.156-.128-.394-.191-.704-.191h-4.061zm-7.973.016c-.28 0-.5.067-.64.192-.146.133-.228.32-.228.574 0 .251.074.442.221.568.139.124.36.187.647.187h1.637v5.756c0 .3.074.534.22.691.149.159.377.238.672.238.287 0 .508-.079.656-.238.146-.15.22-.383.22-.691V21.25h1.638c.277 0 .5-.066.639-.193.146-.126.22-.316.22-.562 0-.253-.074-.441-.22-.574-.14-.125-.362-.192-.64-.192h-5.042zm-21.989-.016c-.4 0-.67.095-.835.283-.155.188-.23.524-.23 1.032v5.499c0 .504.075.839.23 1.026.164.187.434.282.835.282h4.274c.302 0 .54-.066.704-.2.163-.135.245-.329.245-.588 0-.26-.074-.462-.245-.589-.157-.132-.394-.196-.704-.196h-3.586v-1.97h3.021c.302 0 .54-.061.695-.185a.656.656 0 0 0 .254-.546c0-.25-.082-.438-.246-.562-.156-.122-.392-.183-.703-.183h-3.021v-1.605h3.372c.304 0 .54-.063.705-.187.164-.127.245-.307.245-.552 0-.248-.081-.44-.245-.568-.164-.127-.401-.191-.705-.191h-4.06zm15.047.439c-.557.434-.835 1.04-.835 1.814 0 .684.196 1.211.573 1.572.368.358 1.096.657 2.144.895l.124.027c1.325.302 1.997.681 1.997 1.132 0 .324-.123.563-.377.728-.254.169-.63.253-1.138.253-.32 0-.597-.045-.826-.137a1.46 1.46 0 0 1-.574-.421l-.229-.32c-.261-.394-.549-.593-.86-.593a.759.759 0 0 0-.58.245c-.148.157-.222.369-.222.619 0 .238.074.482.222.732.147.247.351.462.597.638.36.254.744.439 1.122.551.384.117.85.172 1.375.172.99 0 1.785-.239 2.357-.708.574-.471.868-1.12.868-1.931 0-.44-.081-.82-.245-1.126a1.889 1.889 0 0 0-.77-.759 4.29 4.29 0 0 0-.704-.294 17.574 17.574 0 0 0-1.277-.348l-.516-.122c-.892-.208-1.342-.512-1.342-.904a.798.798 0 0 1 .335-.68c.23-.158.557-.24.974-.24.295 0 .549.037.762.119.205.08.385.201.516.359l.164.204c.277.363.572.546.875.546a.816.816 0 0 0 .582-.213c.147-.144.212-.333.212-.568 0-.21-.074-.432-.22-.671a2.005 2.005 0 0 0-.574-.597 3.187 3.187 0 0 0-.999-.469 4.69 4.69 0 0 0-1.22-.152c-.982 0-1.751.218-2.291.647zm27.752 6.198a3.564 3.564 0 0 1-.041-.484l-.033-.585c-.032-.373-.131-.672-.295-.896-.14-.197-.352-.338-.606-.445.334-.121.618-.35.81-.648.214-.33.32-.752.32-1.25 0-.783-.22-1.374-.655-1.756-.434-.38-1.105-.572-1.997-.572h-2.914c-.393 0-.68.095-.836.283-.155.188-.23.524-.23 1.032v5.978c0 .3.075.532.222.69.147.16.368.238.663.238.296 0 .516-.078.672-.237.139-.152.213-.386.213-.691v-2.29h1.71c.41 0 .704.073.852.213.156.14.262.528.302 1.152.058.834.156 1.336.32 1.545.155.21.418.32.778.32.27 0 .483-.073.646-.217a.759.759 0 0 0 .238-.584c0-.075-.016-.202-.058-.389l-.081-.406v-.001zm-1.9-3.375c-.188.161-.491.243-.9.243h-1.907V21.2h1.98c.369 0 .648.088.835.257.18.167.27.42.27.753 0 .352-.09.607-.277.765h-.001zm-27.522 3.98a2.552 2.552 0 0 1-.074-.224l-2.275-6.246c-.14-.372-.295-.602-.46-.708-.172-.105-.433-.154-.802-.154-.385 0-.655.051-.826.162-.173.109-.312.347-.451.722l-2.235 6.225-.065.223-.016.22c0 .232.081.423.237.563.155.141.36.213.614.213.22 0 .4-.055.548-.156.14-.106.237-.266.311-.477l.36-1.112h3.062l.369 1.112c.074.214.18.376.319.48.14.1.31.153.533.153.252 0 .466-.072.621-.213a.718.718 0 0 0 .246-.562s0-.14-.016-.221zm-4.691-2.223c.04-.126.958-2.918 1.048-3.19.09.268 1.015 3.064 1.056 3.19h-2.104z"/></g></svg>