<svg xmlns="http://www.w3.org/2000/svg" width="53" height="31" fill="none"><path fill="#00A1DE" d="M25.594 4.964h1.656V3.31h1.656V1.655H27.25V0h-1.656v1.655h-1.656v1.654h1.656zm10.714-.414a2.89 2.89 0 0 0-2.899 2.896 2.89 2.89 0 0 0 2.899 2.896 2.89 2.89 0 0 0 2.898-2.896 2.89 2.89 0 0 0-2.898-2.896M16.51 14.48h19.797v-3.31H16.51zm2.898-7.033c0-1.603-1.294-2.896-2.872-2.896a2.89 2.89 0 0 0-2.899 2.896 2.89 2.89 0 0 0 2.899 2.896c1.578 0 2.872-1.293 2.872-2.896m7.427 0a2.89 2.89 0 0 0 2.899 2.896c1.604 0 2.872-1.293 2.872-2.896S31.313 4.55 29.735 4.55a2.89 2.89 0 0 0-2.899 2.896m-3.726 2.896a2.91 2.91 0 0 0 2.898-2.896A2.89 2.89 0 0 0 23.11 4.55a2.89 2.89 0 0 0-2.899 2.896c.026 1.603 1.294 2.896 2.899 2.896m21.453 7.446-2.484 7.446-2.485-7.446H31.34V31h4.943v-9.928l3.312 9.902h4.943l3.287-9.902v9.902h4.943V17.762h-8.204zm-23.11 0h-4.942V31h13.198v-3.335h-8.256zm-6.599 0H9.912l-4.97 4.964v-4.964H0V31h4.943v-4.964L9.912 31h6.599l-7.428-7.446z"/></svg>