<svg width="156" height="33" viewBox="0 0 156 33" fill="none" xmlns="http://www.w3.org/2000/svg">
<g clip-path="url(#clip0_121_101)">
<path fill-rule="evenodd" clip-rule="evenodd" d="M13.7026 16.8104H9.13825L4.56432 21.4089V16.8104H0V29.0714H4.56671V24.4778L9.14064 29.0714H15.2288H27.4098V25.981H19.7955V16.8104H15.2288V29.0714L8.37391 22.1738L13.7026 16.8104ZM41.1149 16.8104L38.8291 23.7082L36.5434 16.8104H28.929V29.0714H33.498V19.877L36.5434 29.0714H41.1149L44.1577 19.877V29.0714H48.7244V16.8104H41.1149ZM21.317 9.91028C22.7856 9.91028 23.9812 8.71391 23.9812 7.23222C23.9812 5.75053 22.7856 4.54936 21.317 4.54936C19.8482 4.54936 18.6551 5.75053 18.6551 7.23222C18.6551 8.71391 19.841 9.91028 21.317 9.91028ZM24.7407 7.23222C24.7407 8.71391 25.934 9.91028 27.4098 9.91028C28.8859 9.91028 30.0694 8.71391 30.0694 7.23222C30.0694 5.75053 28.8787 4.54936 27.4098 4.54936C25.9412 4.54936 24.7407 5.75053 24.7407 7.23222ZM17.8907 7.23222C17.8907 5.75053 16.6975 4.54936 15.2288 4.54936C13.7601 4.54936 12.5645 5.75053 12.5645 7.23222C12.5645 8.71391 13.7553 9.91028 15.2288 9.91028C16.7023 9.91028 17.8907 8.71391 17.8907 7.23222ZM15.2288 13.744H33.5005V10.6775H15.2288V13.744ZM33.498 4.54936C32.0222 4.54936 30.8314 5.75053 30.8314 7.23222C30.8314 8.71391 32.0222 9.91028 33.498 9.91028C34.9741 9.91028 36.16 8.71391 36.16 7.23222C36.16 5.75053 34.9692 4.54936 33.498 4.54936ZM23.6003 4.93058H25.1242V3.39615H26.6432V1.86411H25.1242V0.334473H23.6003V1.86411H22.0788V3.39615H23.6003V4.93058ZM66.6679 29.2345C65.489 29.2345 64.4324 28.9756 63.498 28.4601C62.5613 27.9447 61.828 27.2109 61.2961 26.2616C60.7642 25.3121 60.4983 24.2069 60.4983 22.9505C60.4983 21.6942 60.7642 20.5793 61.2961 19.6251C61.828 18.6709 62.5636 17.9373 63.5029 17.417C64.4421 16.8991 65.5011 16.6378 66.6846 16.6378C67.4634 16.6378 68.1846 16.7625 68.8483 17.0142C69.5143 17.2659 70.0919 17.6256 70.5853 18.0931C71.0789 18.5606 71.4598 19.1072 71.7306 19.7355L69.9984 20.8263C69.8066 20.3972 69.5551 20.0208 69.2412 19.697C68.9297 19.3734 68.5608 19.1216 68.1366 18.9442C67.715 18.7667 67.2525 18.6781 66.7494 18.6781C66.0235 18.6781 65.3598 18.8484 64.7632 19.1888C64.1665 19.5293 63.6921 20.0254 63.3423 20.6729C62.9925 21.3203 62.8176 22.0826 62.8176 22.9577C62.8176 23.8328 62.9877 24.5977 63.3303 25.2378C63.6706 25.878 64.1401 26.3646 64.7344 26.7004C65.3285 27.036 65.9947 27.2037 66.735 27.2037C67.2358 27.2037 67.6958 27.1127 68.1127 26.9281C68.5295 26.7458 68.8986 26.4917 69.2173 26.1656C69.5359 25.842 69.8019 25.4632 70.0151 25.0268L71.7403 26.1345C71.4694 26.7482 71.0956 27.2902 70.6164 27.7552C70.1373 28.2203 69.5646 28.5823 68.8963 28.8413C68.2277 29.1002 67.4849 29.2298 66.6679 29.2298V29.2345ZM73.2282 18.4191C73.4198 18.5295 73.633 18.5846 73.8703 18.5846C74.1122 18.5846 74.3278 18.5295 74.5171 18.4191C74.7063 18.3089 74.855 18.1602 74.9652 17.9708C75.0754 17.7814 75.1306 17.5608 75.1306 17.3235C75.1306 17.0861 75.0754 16.8728 74.9652 16.6809C74.855 16.4891 74.7063 16.3381 74.5171 16.2278C74.3278 16.1175 74.1074 16.0624 73.8703 16.0624C73.633 16.0624 73.4198 16.1175 73.2282 16.2278C73.0364 16.3381 72.8855 16.4891 72.7753 16.6809C72.665 16.8728 72.61 17.0813 72.61 17.3235C72.61 17.5656 72.665 17.7814 72.7753 17.9708C72.8855 18.1602 73.0364 18.3089 73.2282 18.4191ZM72.8039 19.7355V29.0403H74.9436V19.7355H72.8039ZM80.4303 29.177C79.714 29.177 79.1414 29.0596 78.7149 28.827C78.2859 28.592 77.9816 28.2731 77.802 27.8679C77.6223 27.4627 77.5313 26.9831 77.5313 26.4293V21.4808H75.9235V19.7378H77.5313V17.3954H79.6708V19.7378H81.7936V21.4808H79.6708V26.3191C79.6708 26.6572 79.7738 26.9184 79.9799 27.1007C80.186 27.2853 80.519 27.3765 80.9815 27.3765C81.2186 27.3765 81.4823 27.35 81.7769 27.2997V28.9756C81.348 29.1099 80.9001 29.1793 80.4329 29.1793L80.4303 29.177ZM83.0851 30.5987V32.3321L83.0827 32.3345H83.8686C84.827 32.3345 85.5913 32.1524 86.1568 31.7878C86.7222 31.4234 87.1462 30.8673 87.429 30.1167L91.4039 19.7355H89.2069L87.3882 25.0412C87.2086 25.5927 87.0265 26.2087 86.8468 26.885H86.7964C86.6 26.2087 86.4083 25.595 86.2214 25.0412L84.3693 19.7355H82.1722L85.807 29.0763L85.5865 29.5845C85.4284 29.949 85.2176 30.2102 84.9564 30.3661C84.6952 30.5219 84.3333 30.5987 83.871 30.5987H83.0851ZM92.3096 29.0403V16.8416H94.4493V21.1403H94.4996C94.7631 20.6273 95.1417 20.2318 95.6328 19.9512C96.1239 19.6731 96.7015 19.5316 97.3652 19.5316C98.0289 19.5316 98.6517 19.6754 99.1454 19.9632C99.6388 20.2509 100.015 20.6704 100.279 21.2194C100.54 21.7686 100.672 22.4423 100.672 23.2383V29.0427H98.532V23.5259C98.532 22.8499 98.3666 22.3224 98.0384 21.9484C97.7078 21.5743 97.2453 21.385 96.6487 21.385C96.1983 21.385 95.8054 21.4833 95.4746 21.6798C95.1417 21.8764 94.8877 22.1497 94.7128 22.4999C94.5379 22.8499 94.4516 23.2455 94.4516 23.6841V29.0403H92.3121H92.3096ZM104.174 28.6472C104.888 29.0452 105.694 29.2442 106.59 29.2442C107.49 29.2442 108.298 29.0452 109.007 28.6472C109.716 28.2515 110.272 27.6856 110.672 26.952C111.072 26.2184 111.271 25.3673 111.271 24.3962C111.271 23.4253 111.077 22.5741 110.684 21.8405C110.291 21.1069 109.743 20.5387 109.036 20.1358C108.329 19.733 107.51 19.5316 106.597 19.5316C105.684 19.5316 104.872 19.733 104.158 20.1407C103.444 20.5482 102.89 21.1188 102.493 21.8549C102.095 22.5908 101.896 23.4469 101.896 24.4059C101.896 25.3649 102.097 26.2112 102.5 26.9472C102.902 27.6833 103.46 28.2492 104.174 28.6472ZM107.9 27.1079C107.517 27.3473 107.082 27.4672 106.592 27.4676C106.102 27.4671 105.666 27.3448 105.284 27.103C104.9 26.8609 104.601 26.5109 104.388 26.0505C104.174 25.5927 104.067 25.0484 104.067 24.4059C104.067 23.7632 104.172 23.2094 104.383 22.7443C104.594 22.2793 104.891 21.9244 105.274 21.6823C105.655 21.4402 106.098 21.3177 106.592 21.3177C107.086 21.3177 107.526 21.4402 107.91 21.6823C108.293 21.9244 108.59 22.2793 108.801 22.7443C109.012 23.2094 109.117 23.7681 109.117 24.4059C109.117 25.0437 109.009 25.5927 108.796 26.0554C108.583 26.5181 108.284 26.8681 107.9 27.1079ZM117.858 29.2442C117.436 29.2442 117.029 29.1841 116.641 29.0668C116.253 28.9492 115.898 28.7694 115.579 28.5296C115.261 28.2898 114.995 27.9925 114.781 27.6378H114.738V32.3321H112.599V19.7355H114.738V21.1475H114.781C114.985 20.8096 115.237 20.5194 115.539 20.2796C115.84 20.04 116.186 19.8554 116.574 19.7258C116.962 19.5963 117.384 19.5316 117.834 19.5316C118.629 19.5316 119.327 19.733 119.93 20.1335C120.534 20.5338 120.999 21.102 121.33 21.8382C121.66 22.5741 121.823 23.4301 121.823 24.4059C121.823 25.3816 121.651 26.2759 121.308 27.0024C120.965 27.7288 120.491 28.2852 119.892 28.6688C119.291 29.0524 118.615 29.2442 117.858 29.2442ZM117.175 27.4004C117.659 27.4004 118.09 27.2805 118.464 27.0408C118.84 26.801 119.133 26.4534 119.343 26.0002C119.554 25.547 119.66 25.0124 119.66 24.3962C119.66 23.7801 119.554 23.2479 119.346 22.7923C119.137 22.3392 118.845 21.9915 118.471 21.7517C118.095 21.5121 117.666 21.3922 117.182 21.3922C116.698 21.3922 116.243 21.5167 115.872 21.7686C115.5 22.0203 115.213 22.3728 115.009 22.8258C114.805 23.279 114.705 23.8064 114.705 24.4034C114.705 25.0004 114.805 25.5352 115.009 25.9907C115.213 26.4438 115.5 26.7938 115.872 27.036C116.243 27.2781 116.677 27.4004 117.173 27.4004H117.175ZM127.243 29.0668C127.631 29.1841 128.038 29.2442 128.46 29.2442C129.217 29.2442 129.893 29.0524 130.494 28.6688C131.093 28.2852 131.568 27.7288 131.91 27.0024C132.253 26.2759 132.425 25.3816 132.425 24.4059C132.425 23.4301 132.262 22.5741 131.932 21.8382C131.601 21.102 131.136 20.5338 130.533 20.1335C129.929 19.733 129.231 19.5316 128.436 19.5316C127.986 19.5316 127.564 19.5963 127.176 19.7258C126.788 19.8554 126.443 20.04 126.141 20.2796C125.839 20.5194 125.587 20.8096 125.384 21.1475H125.34V19.7355H123.201V32.3321H125.34V27.6378H125.384C125.597 27.9925 125.863 28.2898 126.181 28.5296C126.5 28.7694 126.855 28.9492 127.243 29.0668ZM129.064 27.0408C128.69 27.2805 128.259 27.4004 127.775 27.4004H127.772C127.276 27.4004 126.843 27.2781 126.471 27.036C126.1 26.7938 125.813 26.4438 125.609 25.9907C125.405 25.5352 125.305 25.0004 125.305 24.4034C125.305 23.8064 125.405 23.279 125.609 22.8258C125.813 22.3728 126.1 22.0203 126.471 21.7686C126.843 21.5167 127.298 21.3922 127.782 21.3922C128.266 21.3922 128.695 21.5121 129.071 21.7517C129.445 21.9915 129.737 22.3392 129.945 22.7923C130.154 23.2479 130.259 23.7801 130.259 24.3962C130.259 25.0124 130.154 25.547 129.943 26.0002C129.732 26.4534 129.44 26.801 129.064 27.0408ZM138.125 29.2442C137.196 29.2442 136.376 29.0499 135.669 28.6616C134.963 28.2731 134.414 27.7121 134.026 26.9785C133.638 26.2449 133.441 25.3865 133.441 24.3987C133.441 23.4109 133.628 22.5693 134.004 21.8356C134.381 21.102 134.91 20.5361 135.593 20.1358C136.278 19.7355 137.069 19.534 137.965 19.534C138.861 19.534 139.589 19.7234 140.234 20.0999C140.878 20.4786 141.374 21.0132 141.722 21.7062C142.069 22.399 142.242 23.2022 142.242 24.1181C142.242 24.2356 142.237 24.3674 142.23 24.5065C142.22 24.648 142.206 24.8039 142.184 24.9716H135.547C135.626 25.5136 135.789 25.9691 136.034 26.3383C136.278 26.7076 136.597 26.9808 136.985 27.1582C137.373 27.3356 137.819 27.4244 138.322 27.4244C138.693 27.4244 139.036 27.3716 139.345 27.2637C139.654 27.1559 139.927 27.0119 140.164 26.8321C140.402 26.6524 140.612 26.4367 140.799 26.1897L142.06 27.434C141.822 27.796 141.518 28.1101 141.142 28.381C140.766 28.6519 140.325 28.8629 139.815 29.0162C139.304 29.1698 138.741 29.2442 138.128 29.2442H138.125ZM140.145 23.4228C140.116 22.9433 140.013 22.531 139.831 22.1882C139.652 21.8454 139.4 21.5815 139.079 21.4017C138.758 21.2219 138.377 21.1308 137.939 21.1308C137.534 21.1308 137.162 21.2099 136.827 21.3706C136.491 21.5311 136.213 21.783 135.99 22.1234C135.768 22.4639 135.619 22.8979 135.547 23.4228H140.145ZM143.603 19.7355V29.0403H145.742V24.3699C145.742 23.8233 145.857 23.3462 146.085 22.9361C146.312 22.5286 146.633 22.2121 147.048 21.9892C147.463 21.7661 147.944 21.6559 148.49 21.6559C148.581 21.6559 148.675 21.6582 148.771 21.6679C148.867 21.6775 148.948 21.6895 149.015 21.7062V19.7091C148.912 19.6875 148.74 19.6754 148.49 19.6754C147.848 19.6754 147.297 19.829 146.842 20.1335C146.384 20.438 146.035 20.891 145.785 21.4952H145.742V19.7355H143.603Z" fill="#009FD9"/>
</g>
<defs>
<clipPath id="clip0_121_101">
<rect width="155.496" height="32" fill="white" transform="translate(0 0.334473)"/>
</clipPath>
</defs>
</svg>
