<svg width="78" height="16" viewBox="0 0 78 16" fill="none" xmlns="http://www.w3.org/2000/svg"><path d="M17.28 4.696H17.278zM18.438.356h-5.322l-.298.728-2.956 7.242h2.384l1.393-3.599h.22c.304 0 .578.185.692.467.282.701.774 2.057.825 3.132h2.634c-.074-1.516-.897-3.305-.897-3.305-.14-.281.098-.319.166-.323.28-.044.637-.125.824-.223 1.936-1.017 2.146-2.012 2.221-2.75.078-.783-.904-1.37-1.886-1.37zm-.923 2.373c-.036.325-.248.66-.824.911-.171.075-.36.114-.55.114h-2.126l.846-2.182h1.416c.713 0 1.306.53 1.238 1.157zM3.82.356L.567 8.326H2.95L4.148 5.23h2.668c.449 0 1.177-.035 1.552-.282 1.725-1.135 1.912-2.244 1.979-3.067.07-.87-.805-1.525-1.68-1.525H3.82zM7.77 2.88c-.035.368-.247.745-.823 1.03a1.23 1.23 0 0 1-.551.128H4.609l.956-2.47h.966c.713 0 1.306.601 1.238 1.31l.001.002zM22.936.413l-3.228 7.911h2.257L25.218.356h-2.257l-.023.057h-.002zM37.806.413l-3.228 7.911h2.257l3.252-7.97h-2.258l-.023.058v.001zM26.891.356v7.97h2.902l6.386-7.97h-2.373l-4.131 5.922h-.352L29.63.356h-2.74zM41.554 8.326h4.561l.638-1.563h-4.56L44.808.356H42.55l-.023.057L39.3 8.324h2.257M63.287 3.937h3.846s-.768 3.447-2.439 4.15c-1.67.702-8.922 2.371-6.461-4.02C60.694-2.322 68.576.22 67.727 2.29h-2.418s-2.22-2.944-4.746 2.15c0 0-1.625 3.573 2.358 2.655a2.278 2.278 0 0 0 1.708-1.732h-1.742M57.609 13.147H0v1.171h57.609v-1.171zM63.278 11.083l.022.731a1.058 1.058 0 0 0-.407-.073h-1.206a.404.404 0 0 0-.193.037.156.156 0 0 0-.082.112l-.004.007a.185.185 0 0 0-.003.03c0 .03.013.055.036.072.033.025.089.038.17.038l.845-.004c.241 0 .414.086.517.259a.746.746 0 0 1 .101.385c0 .075-.01.154-.026.237l-.053.236c-.042.19-.148.366-.32.53a.886.886 0 0 1-.631.259h-2.052l-.019-.73c.11.047.245.072.405.073l1.206-.003c.081 0 .144-.012.189-.037a.161.161 0 0 0 .088-.14.093.093 0 0 0-.043-.082.332.332 0 0 0-.176-.038h-.847c-.24 0-.419-.048-.535-.146-.072-.06-.11-.162-.11-.308 0-.087.015-.193.041-.316l.056-.248c.064-.294.184-.515.357-.663a.929.929 0 0 1 .624-.22h2.048l.002.002zM64.296 10.576c.241-.001.633-.053 1.178-.152l-.148.66.969-.002-.148.658-.964.003-.275 1.244a.91.91 0 0 0-.027.19c0 .045.008.079.022.102.03.048.08.073.154.073h.01l.42.003c.163-.001.319-.028.465-.076l-.229.658h-1.267c-.282 0-.48-.098-.599-.292a.844.844 0 0 1-.109-.442c0-.109.014-.23.044-.362l.244-1.1-.483.003.148-.66.48.002.113-.508.002-.002zM67.44 13.195a.979.979 0 0 0-.025.185c0 .048.01.081.03.094.036.028.092.042.171.042h.304a.37.37 0 0 0 .186-.04c.046-.027.085-.122.117-.284l.326-1.623.012-.055c.015-.078.025-.146.025-.207a.355.355 0 0 0-.06-.22l1.388-.004c-.103.108-.176.27-.22.486l-.517 2.594c-.087.432-.207.729-.36.89-.244.217-.486.324-.728.324l-1.933.003.044-.81a.96.96 0 0 0 .406.078l1.082.003c.08 0 .143-.014.19-.04.046-.027.087-.123.121-.287l.097-.485c-.072.162-.144.27-.215.324a.376.376 0 0 1-.228.08h-.661c-.282 0-.473-.093-.578-.281a.884.884 0 0 1-.084-.418c0-.147.019-.32.058-.515l.294-1.457c.017-.09.027-.171.027-.243a.5.5 0 0 0-.052-.243h1.084c.034.061.051.14.051.237 0 .068-.01.148-.026.236l-.326 1.636zM69.521 13.942a.87.87 0 0 0 .218-.439l.663-3.003a1.1 1.1 0 0 0 .027-.22.415.415 0 0 0-.052-.218h1.27l-.759 3.441c-.019.083-.03.156-.03.223 0 .085.017.157.052.213l-1.389.003zM74.47 12.84h-1.868l-.036.164a.798.798 0 0 0-.019.15c0 .046.01.075.027.086.034.025.09.04.171.04l1.206-.002c.16 0 .307-.025.44-.073l-.343.73h-2.112c-.242 0-.415-.085-.517-.255a.732.732 0 0 1-.084-.377c0-.131.018-.285.057-.462l.148-.661c.086-.39.218-.67.396-.842a.883.883 0 0 1 .63-.256h1.508c.24 0 .413.085.517.255a.748.748 0 0 1 .084.38c0 .133-.019.287-.057.463l-.148.658v.003zm-1.085-1.096h-.302a.414.414 0 0 0-.189.036c-.045.025-.084.11-.118.257l-.065.292h.784l.066-.292a.813.813 0 0 0 .023-.17c0-.043-.01-.075-.026-.087a.328.328 0 0 0-.175-.036h.002zM47.709 8.326h7.208l.528-1.294h-4.643l.025-.059.898-2.11h4.346l.005-.013.524-1.286h-4.36l.709-1.71s4.38 0 4.61-.002l.61-1.493h-7.2l-.024.057-3.228 7.912h2.257M67.54 8.326h7.208l.528-1.294h-4.643l.025-.059.898-2.11h4.346l.004-.013.525-1.286h-4.36l.708-1.71s4.38 0 4.61-.002L78 .359h-7.2l-.024.057-3.228 7.912h2.257" fill="#fff"/></svg>