<svg xmlns="http://www.w3.org/2000/svg" width="156" height="24" fill="none"><path fill="#fff" d="m146.729 0-6.964 10.075c-.917 1.325-2.404 2.602-4.2 2.74v.308h7.744c2.056 0 3.556-1.338 4.572-2.813L155.031 0z"/><path fill="#fff" d="m146.729 0-6.964 10.074c-.917 1.326-2.404 2.603-4.2 2.74v.31h7.744c2.056 0 3.556-1.34 4.572-2.814L155.031 0zM18.482 13.123V1.107h3.508v12.016zm80.859 0-8.424-7.135v7.135h-2.962V1.107h2.516l8.313 7.023V1.107h2.961v12.016zm18.322-8.14c-1.586-.78-3.37-1.411-5.736-1.411-2.825 0-4.931 1.461-4.931 3.493 0 2.083 2.143 3.556 4.906 3.556 2.279 0 4.089-.583 5.873-1.61v2.973c-1.575.78-3.668 1.362-6.021 1.362-4.807 0-8.586-2.453-8.586-6.28 0-3.767 3.853-6.183 8.574-6.183 2.229 0 4.249.421 5.921 1.103zm-76.162 8.14V1.107h11.718v2.576h-8.214v2.986h8.029v2.577h-8.029v3.877zm78.28 0V1.107h12.165v2.576h-8.659v2.082h8.522v2.576h-8.522v2.205h8.622v2.577zM65.396 8.615l4.846 4.508h-3.743c-.83 0-1.374-.26-1.809-.681l-3.294-3.196a.4.4 0 0 0-.285-.098h-2.243v3.975h-3.506V1.107h7.595c3.938 0 5.6 1.77 5.6 3.73 0 2.277-2.033 3.368-3.16 3.778m-2.8-1.983c1.389 0 2.058-.707 2.058-1.499s-.595-1.45-2.057-1.45h-3.729v2.949zm-27.29 1.983 4.844 4.508h-3.74c-.832 0-1.377-.26-1.81-.681l-3.296-3.196c-.06-.062-.161-.098-.285-.098h-2.24v3.975H25.27V1.107h7.595c3.94 0 5.6 1.77 5.6 3.73-.001 2.277-2.033 3.368-3.16 3.778m-2.799-1.983c1.386 0 2.056-.707 2.056-1.499s-.595-1.45-2.056-1.45h-3.729v2.949zm-19.511 6.49-1.537-2.637H4.745l-1.4 2.638H0L6.688 1.119h3.048l7.582 12.004zm-6.914-5.14h3.914L7.964 4.315zm76.92 5.14-1.5-2.637h-6.54l-1.351 2.638h-3.259L76.87 1.119h2.96L87.2 13.123zm-6.728-5.14h3.816l-1.983-3.668zM106.168 23.813v-8.644h-2.694v3.472H97.68v-3.472h-2.715v8.644h2.715V20.34h5.794v3.472zM107.686 19.462c0 1.268.628 2.334 1.925 3.213 1.276.893 2.816 1.325 4.619 1.325 1.783 0 3.322-.432 4.619-1.325 1.296-.88 1.945-1.945 1.945-3.213 0-1.239-.649-2.305-1.945-3.17s-2.836-1.296-4.619-1.31c-1.803 0-3.343.446-4.619 1.31-1.297.865-1.925 1.931-1.925 3.17m2.715 0c0-.75.365-1.397 1.094-1.916s1.641-.792 2.735-.792 1.985.259 2.715.778c.709.518 1.053 1.152 1.073 1.93 0 .807-.364 1.47-1.073 1.988-.73.519-1.621.778-2.715.778s-2.006-.26-2.735-.792c-.729-.519-1.094-1.182-1.094-1.974M126.884 21.248c1.439 0 2.634-.273 3.586-.85.952-.576 1.438-1.31 1.438-2.218 0-.922-.486-1.642-1.418-2.19-.932-.547-2.147-.821-3.606-.821h-4.558v8.644h2.695v-2.565zm-.06-4.451c.709 0 1.296.13 1.742.36.445.245.668.576.668 1.009 0 .46-.243.82-.688 1.08-.446.26-1.034.389-1.743.389h-1.782v-2.838z"/></svg>