<svg xmlns="http://www.w3.org/2000/svg" width="90" height="24" fill="none"><g fill="#fff" clip-path="url(#a)"><path d="M25.587 11.494v4.536c0 .821.483 1.002 1.226 1.002.281 0 .582-.04.883-.04v2.509c-.622.02-1.245.1-1.866.1-2.91 0-3.653-.842-3.653-3.673v-4.434H20.45v-2.29h1.727V5.934h3.412v3.272h2.108v2.29h-2.11Zm17.178 0v4.536c0 .821.482 1.002 1.224 1.002.282 0 .584-.04.884-.04v2.509c-.623.02-1.245.1-1.867.1-2.912 0-3.652-.842-3.652-3.673v-4.434h-1.726v-2.29h1.726V5.934h3.413v3.272h2.109v2.29h-2.111ZM9.518 15.168c0 3.046-1.562 4.586-4.76 4.586C1.162 19.754 0 17.682 0 14.653v-.589h3.331v1.256c0 .896.496 1.389 1.37 1.389.82 0 1.277-.456 1.277-1.77V5.88h3.54v9.288Zm3.754-.05c.058 1.414.874 2.348 2.308 2.348.816 0 1.612-.377 1.93-1.132h3.164c-.616 2.386-2.824 3.42-5.134 3.42-3.362 0-5.651-2.028-5.651-5.49 0-3.165 2.528-5.433 5.572-5.433 3.701 0 5.552 2.786 5.393 6.287h-7.582Zm4.198-1.89c-.06-1.151-.876-2.109-2.01-2.109-1.194 0-1.99.855-2.189 2.109h4.198Zm13.55 2.836c0 .517.218.892.556 1.15.317.24.776.358 1.25.358.656 0 1.588-.278 1.588-1.092 0-.792-1.052-.95-1.648-1.09-2.124-.536-4.784-.595-4.784-3.375 0-2.481 2.68-3.157 4.704-3.157 2.263 0 4.624.656 4.744 3.336h-3.116c0-.436-.16-.715-.436-.896-.277-.176-.655-.256-1.072-.256-.556 0-1.45.06-1.45.776 0 .97 2.262 1.15 3.811 1.488 2.083.416 2.619 1.924 2.619 2.779 0 2.757-2.62 3.672-4.943 3.672-2.441 0-4.941-.815-5.04-3.691l3.216-.003.001.001Zm14.47-3.712c.06-1.347.692-2.218 1.603-2.752.912-.515 2.099-.714 3.268-.714 2.435 0 4.79.536 4.79 3.445v4.496c0 .87 0 1.82.396 2.632H52.16c-.116-.317-.157-.634-.196-.97-.872.912-2.158 1.266-3.384 1.266-1.96 0-3.504-.989-3.504-3.108 0-3.347 3.642-3.088 5.978-3.562.574-.119.892-.317.892-.95 0-.773-.932-1.07-1.624-1.07-.93 0-1.524.416-1.684 1.288l-3.148-.001Zm4.356 5.325c1.604 0 2.139-.91 2.059-3.028-.475.297-1.347.356-2.079.553-.752.179-1.385.496-1.385 1.308 0 .832.653 1.168 1.405 1.168v-.001Zm10.49-8.173c-.516.338-.916.83-1.158 1.472h-.04V9.168h-3.276V19.47h3.376v-5.1c0-1.288.872-2.442 2.539-2.442.386 0 .733.06 1.096.15l-2.536-2.573-.001-.001Z"/><path d="m75.17 0 .44 7.064h9.756l-9.344 6.184 2.061 10.196-7.944-6.896-10.69 5.549 6.376-8.739-6.046-6.294h9.784L75.17 0Z"/></g><defs><clipPath id="a"><path fill="#fff" d="M0 0h89.6v24H0z"/></clipPath></defs></svg>