<svg width="93" height="16" viewBox="0 0 93 16" fill="none" xmlns="http://www.w3.org/2000/svg"><path d="M18.75.354h2.673l6.05 12h.13l5.932-12h2.627V16h-2.627V3.174h-.082L27.075 16h-.54L20.087 3.28h-.176V16h-1.16V.354zm33.95 0v1.015h-8.196v4.649h5.488v1.014h-5.487v7.953H52.7V16H41.89V.354H52.7zm4.58 0h2.614v14.631h7.832V16H57.28V.354zm14.287 0h2.615V16h-2.615V.354zm-61.404 10.66L5.076 0H7.77l6.617 14.47c.286.48.524.992.707 1.53h-3.735c-.835-2.076-2.857-3.54-5.219-3.54S1.755 13.924.921 16H0c1.072-3.157 4.046-5.428 7.546-5.428.917 0 1.797.156 2.617.442zM3.686.074L3.706 0h.015l-.035.073zm84.184 10.94L82.783 0h2.693l6.617 14.47c.286.48.524.992.707 1.53h-3.734c-.835-2.076-2.857-3.54-5.22-3.54-2.361 0-4.383 1.464-5.218 3.54h-.92c1.072-3.157 4.045-5.428 7.546-5.428.916 0 1.797.156 2.616.442zM81.394.074L81.412 0h.016l-.034.073z" fill="#fff"/></svg>