<svg xmlns="http://www.w3.org/2000/svg" width="127" height="28" viewBox="0 0 127 28" fill="none"><path fill="#30302F" d="M40.028 6.839h-3.915l-7.258 6.42 1.285-6.42h-3.217l-2.795 13.985h3.214l.697-3.475 2.262-2.004 3.597 5.48h3.636l-4.85-7.516zM54.175 6.839l-6.832 8.718-3.496-8.718h-2.638L38.41 20.824h3.039l1.671-8.395 2.885 6.917h1.438l5.343-6.831-1.65 8.31h3.039l2.777-13.986zM77.132 6.839 69.145 17.22l-4.04-10.382h-1.2l-2.798 13.985h1.42L64.765 9.56l3.737 9.487h.697l7.233-9.316-2.215 11.094h1.417L78.432 6.84zM90.216 20.824h1.478L88.098 6.84h-1.46l-9.19 13.985h1.599l2.409-3.736h7.83zm-7.984-4.935 4.878-7.561 1.882 7.561zM93.516 20.824 96.314 6.84h1.46l-2.537 12.708h7.83l-.261 1.277zM106.202 20.824l2.538-12.708h-4.935l.261-1.277h11.309l-.261 1.277H110.2l-2.537 12.708zM124.282 20.824h1.478L122.164 6.84h-1.461l-9.19 13.985h1.6l2.408-3.736h7.831zm-7.984-4.935 4.878-7.561 1.882 7.561z"/><path fill="#C8102E" d="m95.95 23.849-2.685 4.101h.634l.651-1.027h2.187l.247 1.027h.58l-1.038-4.101h-.58zm-1.103 2.609 1.288-2.026.49 2.026zM98.88 27.954h.584l.823-4.105H99.7zM103.751 23.849h-1.528l-.82 4.101h.591l.247-1.252h1.095q.058.001.111-.004l.712 1.26h.623l-.752-1.339a1.7 1.7 0 0 0 .337-.114q.434-.197.665-.566.232-.37.233-.884 0-.568-.397-.884-.397-.315-1.117-.315zm.576 2.072q-.348.279-.977.279h-1.013l.369-1.84h.991c.315 0 .559.065.727.187q.251.188.25.558c0 .358-.114.633-.347.816M107.77 23.849h-.587l-.819 4.105h2.812l.101-.512h-2.226zM110.547 27.954h.587l.819-4.105h-.586zM116.201 27.005l-1.832-3.156h-.479l-.824 4.105h.587l.627-3.157 1.836 3.157h.479l.82-4.105h-.584zM118.528 27.954h2.984l.1-.512h-2.397l.265-1.324h2.061l.1-.498h-2.061l.25-1.26h2.316l.1-.511h-2.895zM124.576 24.39q.247-.088.579-.09.313 0 .598.082c.19.054.365.136.515.247l.237-.48a1.8 1.8 0 0 0-.591-.257 3 3 0 0 0-.726-.09q-.506-.001-.888.154c-.258.104-.454.25-.601.44q-.216.285-.218.677a.9.9 0 0 0 .114.465.9.9 0 0 0 .301.3q.187.119.411.197.226.08.451.14.224.063.412.136c.121.05.222.11.3.19a.4.4 0 0 1 .118.297q0 .224-.139.379a.86.86 0 0 1-.39.236 1.9 1.9 0 0 1-.58.082 2.1 2.1 0 0 1-.959-.221 1.8 1.8 0 0 1-.372-.247l-.258.468q.147.143.39.251a2.8 2.8 0 0 0 1.145.247q.515.001.906-.154c.261-.104.461-.25.608-.444q.22-.29.218-.683a.8.8 0 0 0-.114-.444.9.9 0 0 0-.304-.29 2 2 0 0 0-.412-.186q-.224-.075-.447-.14a4 4 0 0 1-.412-.143.8.8 0 0 1-.3-.193.42.42 0 0 1-.111-.304.6.6 0 0 1 .139-.38.9.9 0 0 1 .38-.25zM12.204 20.824h6.223l-3.114-2.873zM7.576 16.57l3.053-3.307-2.344-2.538L0 20.825h12.085l3.228-7.559zM15.313 13.263l-3.117-7.305-3.629 4.424zM15.313 13.266l3.232 7.558h.315l1.117-5.568-4.66-1.993z"/><path fill="#C8102E" d="m15.077 2.44-2.759 3.368 2.995 2.767 3.307-3.05-3.307 7.738h.004L20.85 10.9l1.066-5.325z"/><path fill="#fff" d="m18.62 5.525-3.307 3.05-2.995-2.767-.122.15 3.117 7.305zM15.313 13.266l-3.228 7.558h.118l3.11-2.873 3.114 2.873h.118zM7.576 16.57l7.737-3.304v-.003l-6.746-2.881-.282.343 2.344 2.538zM15.317 13.263h-.004v.003zM20.31 13.595l-.333 1.66-4.66-1.992L20.85 10.9l-.369 1.846z"/><path fill="#A6192E" d="M23.036 0h-4.595S16.8.14 16.008 1.31l-.93 1.13 6.838 3.136L23.033 0z"/></svg>