<svg xmlns="http://www.w3.org/2000/svg" width="232" height="36" viewBox="0 0 232 36"><path d="M111.9 16.961c-.26-.045-.522-.09-.783-.132-.25-.04-.53-.076-.82-.101a28.89 28.89 0 0 0-2.279-.084c-.659 0-1.324.058-1.986.17-.679.119-1.284.327-1.811.634a3.981 3.981 0 0 0-1.31 1.223c-.35.526-.518 1.176-.518 1.935.003 1.187.805 2.23 2.287 3.128l2.383 1.428c.609.355 1.006.653 1.164.864.18.228.25.436.253.65-.003.351-.073.63-.211.846a1.567 1.567 0 0 1-.563.549c-.274.15-.57.254-.877.309-.338.07-.69.107-1.059.107-.22 0-.501-.009-.836-.028a23.879 23.879 0 0 1-1.068-.06c-.372-.019-.74-.05-1.104-.08-.366-.035-.704-.066-1.014-.097h-.183c-.344-.022-.68.211-.736.555l-.155.852-.002.02v.095c-.009.18.073.38.24.481.112.073.241.127.38.163.315.068.647.13 1.01.174.364.051.73.088 1.102.11.366.025.724.048 1.073.065.352.014.674.022.955.022h.017c.724 0 1.428-.07 2.121-.21a5.925 5.925 0 0 0 1.87-.704c.544-.33 1-.786 1.328-1.33.338-.565.498-1.252.498-2.059a2.853 2.853 0 0 0-.518-1.634c-.355-.517-.989-1.038-1.899-1.595l-2.358-1.423c-.447-.27-.788-.523-1.014-.742-.21-.211-.301-.41-.301-.65 0-.315.079-.54.211-.706.15-.185.338-.335.583-.45.26-.124.536-.207.82-.247.307-.045.606-.068.89-.068.724 0 1.431.02 2.113.06.684.036 1.253.08 1.701.131h.105a.715.715 0 0 0 .757-.613l.136-.796.002-.02v-.117c.014-.33-.279-.588-.594-.625zM96.801 27.176c-.69.42-1.313.743-1.859.968a4.572 4.572 0 0 1-1.716.343c-.577 0-1.045-.169-1.447-.5-.364-.299-.58-.87-.58-1.773 0-.171.005-.346.025-.534.014-.186.042-.363.076-.529l.47-2.495c.237-1.254.696-2.18 1.364-2.8.653-.617 1.622-.94 2.943-.94.552 0 1.014.025 1.395.07.298.037.583.079.856.124l-1.527 8.066zm4.564-9.374c-.009-.357-.33-.54-.668-.596-.662-.166-1.4-.295-2.211-.408a19.408 19.408 0 0 0-2.409-.155c-.803 0-1.583.096-2.335.284a6.256 6.256 0 0 0-2.079.957c-.628.447-1.169 1.037-1.62 1.763-.456.731-.786 1.634-.997 2.703l-.47 2.393a7.215 7.215 0 0 0-.16 1.494c0 .765.106 1.44.343 2.014.225.568.54 1.04.93 1.414.397.373.87.655 1.388.827.53.18 1.086.27 1.645.267h.012c.447 0 .847-.028 1.216-.087a5.4 5.4 0 0 0 1.051-.281c.33-.121.665-.276.997-.464.195-.099.392-.222.609-.352l-.037.2-.003.02v.163c0 .149.034.3.124.422.13.171.321.208.51.208h1.045a.822.822 0 0 0 .535-.203.902.902 0 0 0 .3-.458l2.25-11.88a.756.756 0 0 0 .034-.245zm-16.356 4.714h-6.425c.118-.478.279-.914.49-1.316.224-.431.513-.825.857-1.168.338-.334.718-.59 1.163-.773.468-.187.969-.28 1.473-.273 1.814.037 2.547.72 2.583 2.32 0 .363-.048.765-.14 1.21h-.001zm1.677-4.495c-.426-.433-.955-.765-1.572-1.012-.628-.245-1.364-.366-2.206-.366-1.907-.002-3.493.523-4.718 1.595-1.226 1.066-2.037 2.596-2.44 4.568l-.34 1.693a7.932 7.932 0 0 0-.167 1.544c0 .852.155 1.586.473 2.19a4.181 4.181 0 0 0 1.237 1.463 5.027 5.027 0 0 0 1.727.813c.638.166 1.295.25 1.955.25.896 0 1.69-.036 2.391-.11.742-.08 1.481-.18 2.217-.303.245-.037.443-.09.597-.245.127-.13.192-.304.231-.503l.161-.824v-.144a.45.45 0 0 0-.186-.377c-.121-.087-.25-.104-.397-.106h-.155c-.637.084-1.346.16-2.163.233-.783.068-1.569.104-2.355.107-.983 0-1.727-.197-2.257-.563-.504-.354-.766-.908-.769-1.783 0-.216.014-.441.04-.672.022-.228.073-.467.157-.728l.031-.121h8.57c.228 0 .45-.062.591-.234.112-.143.187-.311.22-.49l.211-1.017c.107-.53.158-1.03.158-1.5 0-.652-.099-1.27-.296-1.844a3.966 3.966 0 0 0-.946-1.514zm-13.212-.213a3.564 3.564 0 0 0-1.304-.86c-.535-.206-1.16-.305-1.882-.305-.913 0-1.701.116-2.38.352-.513.18-1.014.385-1.513.624l.006-.045.003-.017v-.118a.656.656 0 0 0-.141-.41.586.586 0 0 0-.49-.217h-1.285a.802.802 0 0 0-.535.205.893.893 0 0 0-.299.459l-2.335 12.36v.122a.667.667 0 0 0 .138.413c.113.155.301.217.479.217h1.296c.2.003.386-.07.543-.197a.887.887 0 0 0 .319-.464l1.915-10.094c.775-.338 1.417-.56 1.927-.67a7.225 7.225 0 0 1 1.544-.177c.932-.005 1.524.172 1.766.416.27.27.42.644.422 1.184 0 .18-.016.383-.042.608-.025.23-.053.458-.09.68l-1.36 7.946v.118a.616.616 0 0 0 .18.47c.132.124.304.16.479.16h1.253c.199 0 .391-.07.544-.197a.894.894 0 0 0 .315-.464l1.367-7.95a7.12 7.12 0 0 0 .135-1.35 4.8 4.8 0 0 0-.234-1.528 3.414 3.414 0 0 0-.74-1.271h-.001zm-14.318-2.276h1.41c.173 0 .333-.028.471-.132.122-.092.239-.19.35-.295l2.63-2.202c.116-.107.21-.225.218-.403-.006-.303-.324-.385-.502-.393h-1.727c-.183.008-.355.036-.495.135a4.18 4.18 0 0 0-.353.298l-2.222 2.16c-.121.12-.225.25-.234.444 0 .256.285.388.454.388zm1.487 1.28h-1.25a.873.873 0 0 0-.544.197.914.914 0 0 0-.319.467l-2.332 12.36v.122c0 .174.048.351.18.472.13.118.302.158.47.158h1.263c.2 0 .388-.07.543-.197a.91.91 0 0 0 .321-.464l2.333-12.367v-.12c0-.167-.048-.35-.183-.468-.133-.12-.305-.16-.482-.16zm-3.887-3.583a.592.592 0 0 0-.16-.442.611.611 0 0 0-.446-.16h-1.358a.758.758 0 0 0-.814.658l-3.135 16.552v.12c0 .17.036.335.158.462a.584.584 0 0 0 .433.169h1.375a.788.788 0 0 0 .53-.206 1 1 0 0 0 .281-.455l3.136-16.574v-.124zm-9.08 8.809c-.018.234-.05.467-.095.697l-.338 1.842a5.608 5.608 0 0 1-.513 1.564c-.242.47-.535.872-.879 1.204-.34.335-.735.593-1.186.785-.47.194-.973.29-1.481.284-.995 0-1.66-.214-2.031-.58-.383-.377-.59-.956-.59-1.786.004-.465.055-.928.15-1.383l.341-1.837c.22-1.207.679-2.137 1.378-2.82.69-.679 1.557-1.019 2.65-1.022.992 0 1.657.225 2.028.608.39.39.595.978.595 1.81 0 .2-.011.414-.028.634h-.001zm1.525-4.045a4.575 4.575 0 0 0-1.6-.998c-.634-.236-1.358-.352-2.186-.352-3.972-.025-6.44 2.082-7.164 6.095l-.338 1.84c-.036.233-.07.458-.096.677-.022.228-.04.459-.04.695 0 .703.11 1.347.33 1.932.217.588.541 1.1.97 1.525.428.43.957.762 1.588 1 .631.237 1.355.352 2.164.352 1.048 0 1.986-.137 2.808-.424.82-.284 1.53-.69 2.124-1.221a6.327 6.327 0 0 0 1.437-1.924c.384-.801.659-1.65.817-2.525l.338-1.837c.04-.236.07-.467.098-.695.024-.235.036-.47.037-.706 0-.683-.101-1.319-.313-1.906a3.986 3.986 0 0 0-.974-1.528zm-10.578.386l.183-1.016.006-.022v-.118a.537.537 0 0 0-.217-.447.834.834 0 0 0-.496-.133h-.053c-.629 0-1.268.076-1.908.225-.523.118-1.056.355-1.614.698v-.127c0-.166-.04-.337-.169-.461a.654.654 0 0 0-.464-.166H32.66a.802.802 0 0 0-.536.205.916.916 0 0 0-.298.459l-2.333 12.36v.122c0 .174.045.343.172.464.121.124.29.166.456.166h1.285c.199 0 .391-.07.544-.197a.928.928 0 0 0 .324-.464l1.884-10.038c.595-.332 1.141-.56 1.637-.692.524-.138 1.15-.21 1.882-.21h.081c.414.022.8-.206.865-.608zM26.51 22.516h-6.428c.118-.478.282-.914.49-1.316.222-.432.511-.826.856-1.168a3.545 3.545 0 0 1 1.161-.773c.44-.18.93-.273 1.476-.273 1.814.037 2.547.72 2.58 2.32 0 .363-.042.765-.135 1.21zm1.673-4.495c-.425-.433-.952-.765-1.571-1.012-.629-.245-1.364-.368-2.203-.368-1.91 0-3.499.525-4.721 1.597-1.226 1.066-2.037 2.596-2.44 4.568l-.346 1.693a8.316 8.316 0 0 0-.158 1.55c0 .849.155 1.58.473 2.185.29.577.712 1.078 1.231 1.462.52.381 1.108.658 1.733.813.633.165 1.284.25 1.938.25h.014c.895 0 1.693-.036 2.388-.11.745-.08 1.487-.18 2.226-.303.245-.037.44-.09.591-.245.127-.126.192-.304.234-.506l.155-.821.003-.023v-.118a.449.449 0 0 0-.183-.38c-.121-.087-.257-.104-.397-.106h-.155c-.64.084-1.35.16-2.167.233-.81.067-1.594.107-2.357.107-.98 0-1.719-.197-2.251-.563-.504-.354-.766-.908-.77-1.783 0-.216.012-.441.035-.675a4.17 4.17 0 0 1 .16-.725l.031-.121h8.572c.228 0 .45-.062.595-.234a1.23 1.23 0 0 0 .217-.49l.208-1.017c.107-.53.163-1.03.163-1.5 0-.652-.101-1.27-.304-1.842a3.925 3.925 0 0 0-.944-1.516zM6.947 22.415l3.326-5.991c.127-.236.445-.278.637-.27.408.02.454.27.454.27l.7 5.99H6.948l-.001.001zm6.479-7.64a2.032 2.032 0 0 0-.626-.626 2.264 2.264 0 0 0-.791-.315 4.413 4.413 0 0 0-.786-.074c-.262 0-.541.031-.834.09a3.627 3.627 0 0 0-.882.31c-.303.155-.58.358-.82.599a3.8 3.8 0 0 0-.684.973L.304 29.685a.782.782 0 0 0-.073.349.52.52 0 0 0 .172.419c.124.093.275.14.43.135h1.598a.87.87 0 0 0 .456-.14.777.777 0 0 0 .313-.364l2.65-5.417h6.398l.628 5.35c.028.14.076.261.15.363.104.138.27.215.442.208h1.583c.186 0 .377-.05.507-.186.132-.138.18-.323.18-.515v-.112l-1.977-13.987c-.054-.4-.164-.737-.335-1.012v-.001zm104.671 7.617l3.33-5.99c.124-.24.445-.279.636-.27.409.02.454.27.454.27l.699 5.99h-5.119zm6.482-7.636a2.009 2.009 0 0 0-.625-.633 2.284 2.284 0 0 0-.79-.31 4.028 4.028 0 0 0-1.622.015c-.301.06-.597.166-.884.31a3.124 3.124 0 0 0-.82.601c-.253.253-.484.58-.684.968l-7.693 13.953a.68.68 0 0 0-.08.348.546.546 0 0 0 .175.422.675.675 0 0 0 .431.135h1.597a.837.837 0 0 0 .457-.143.789.789 0 0 0 .313-.36l2.65-5.417h6.398l.625 5.347c.028.14.076.261.152.365a.536.536 0 0 0 .445.208h1.58c.186 0 .372-.05.51-.188.133-.135.175-.32.175-.512v-.115l-1.972-13.987c-.054-.4-.166-.734-.338-1.007zm62.612 2.635h-1.256a.763.763 0 0 0-.468.172.755.755 0 0 0-.276.4l-2.24 11.986v.11c0 .307.226.503.541.503h1.26a.792.792 0 0 0 .738-.57l2.239-11.979v-.115c0-.31-.225-.507-.538-.507zm-28.733 5.319l-.005.025h-6.677c.111-.519.29-1.021.533-1.493.24-.456.535-.855.879-1.204.346-.34.754-.611 1.203-.796.484-.19 1-.284 1.52-.278 1.846.017 2.685.782 2.702 2.44 0 .392-.05.83-.155 1.306zm1.488-4.509a4.38 4.38 0 0 0-1.533-.978c-.608-.245-1.332-.363-2.158-.363-1.89-.003-3.44.52-4.642 1.57-1.2 1.043-1.997 2.545-2.403 4.5l-.338 1.69a7.838 7.838 0 0 0-.16 1.527c0 .832.146 1.544.459 2.135.285.556.693 1.04 1.194 1.414.506.371 1.08.64 1.688.793.625.16 1.259.245 1.912.245h.014c.89 0 1.682-.04 2.375-.107.742-.08 1.481-.181 2.217-.304.234-.033.411-.087.524-.208.104-.104.169-.253.203-.441l.157-.827v-.115c0-.24-.214-.366-.459-.366h-.157c-.715.09-1.432.168-2.15.23-.82.074-1.608.107-2.369.107-.994 0-1.769-.2-2.324-.582-.546-.374-.82-.987-.82-1.881 0-.22.009-.45.037-.69.025-.23.079-.483.166-.748l.051-.208h8.662c.211 0 .389-.053.499-.185.095-.118.157-.267.197-.44l.208-1.02c.105-.518.158-1.01.158-1.474 0-.638-.099-1.237-.29-1.803a3.88 3.88 0 0 0-.918-1.47v-.001zm13.456-.213c-.327-.355-.746-.63-1.262-.833-.507-.2-1.124-.295-1.83-.295-.9 0-1.677.112-2.342.349-.577.2-1.143.441-1.707.72l.04-.273v-.118a.502.502 0 0 0-.116-.338c-.087-.12-.23-.174-.394-.171h-1.282a.686.686 0 0 0-.46.177.764.764 0 0 0-.258.402l-2.33 12.341v.11c0 .121.042.242.118.34.088.116.231.163.392.163h1.285a.787.787 0 0 0 .467-.163.801.801 0 0 0 .273-.407l1.927-10.145c.803-.357 1.476-.59 2.009-.703a7.33 7.33 0 0 1 1.569-.18c.946 0 1.56.168 1.85.45.302.298.457.708.46 1.268 0 .189-.015.394-.04.624-.028.234-.056.465-.09.684l-1.516 7.96v.11c0 .306.223.502.536.502h1.253c.171 0 .337-.06.468-.171a.737.737 0 0 0 .279-.4l1.518-7.956c.085-.459.132-.903.13-1.33a4.628 4.628 0 0 0-.226-1.491 3.32 3.32 0 0 0-.72-1.226h-.001zm26.612 0c-.327-.355-.747-.63-1.26-.83-.512-.202-1.123-.298-1.833-.298-.902 0-1.676.112-2.336.349-.583.2-1.152.441-1.715.72l.045-.276v-.115a.553.553 0 0 0-.118-.34c-.088-.119-.237-.17-.395-.17h-1.284a.696.696 0 0 0-.457.178.782.782 0 0 0-.259.402l-2.332 12.341v.11c0 .121.048.236.118.34.085.116.228.163.386.163h1.293c.171 0 .337-.06.468-.171a.77.77 0 0 0 .279-.4l1.918-10.144c.806-.355 1.479-.588 2.014-.703a7.24 7.24 0 0 1 1.566-.18c.947 0 1.564.168 1.845.45.307.298.46.708.462 1.268 0 .186-.01.394-.04.624a9.842 9.842 0 0 1-.09.684l-1.515 7.96v.11c0 .306.223.502.535.502h1.26a.751.751 0 0 0 .464-.163c.141-.11.24-.25.276-.407l1.519-7.957c.093-.459.132-.903.132-1.333 0-.526-.076-1.021-.228-1.485a3.177 3.177 0 0 0-.718-1.23v.001zm25.456-.307c.009-.27-.202-.464-.49-.506a53.677 53.677 0 0 1-.786-.132 9.945 9.945 0 0 0-.808-.096c-.323-.029-.646-.05-.97-.062a29.665 29.665 0 0 0-1.3-.022c-.66-.002-1.317.054-1.967.166a5.394 5.394 0 0 0-1.775.624 3.808 3.808 0 0 0-1.267 1.184c-.333.498-.493 1.125-.493 1.865 0 1.125.763 2.134 2.228 3.029l2.38 1.431c.612.352 1.017.653 1.198.884.188.247.281.478.281.722 0 .377-.081.675-.228.92-.16.248-.36.442-.614.582a3.007 3.007 0 0 1-.904.327c-.35.073-.71.106-1.088.106-.22 0-.501-.005-.839-.02l-1.07-.061c-.37-.022-.74-.052-1.11-.09a43.385 43.385 0 0 1-1.014-.093h-.17c-.312-.011-.563.163-.616.458l-.158.847-.003.011v.085a.436.436 0 0 0 .189.38c.101.064.214.112.35.148.3.068.633.127.988.17.36.053.727.09 1.096.112.369.025.72.045 1.07.062.355.016.668.022.952.022.719 0 1.423-.065 2.113-.205a5.679 5.679 0 0 0 1.831-.692 3.754 3.754 0 0 0 1.282-1.285c.326-.54.484-1.207.484-1.997 0-.557-.169-1.083-.498-1.567-.336-.495-.958-1.007-1.857-1.558l-2.36-1.426c-.454-.273-.8-.529-1.037-.76-.231-.224-.332-.46-.332-.733 0-.335.076-.591.23-.782.161-.203.37-.363.626-.487.256-.12.54-.21.853-.256.319-.045.62-.07.91-.07a37.51 37.51 0 0 1 2.121.056c.57.038 1.14.084 1.708.138h.093a.606.606 0 0 0 .642-.51l.127-.798.002-.022v-.099zm-15.467 9.667c-.705.436-1.347.773-1.919 1.004-.556.23-1.153.35-1.755.351-.603 0-1.11-.177-1.532-.526-.403-.331-.62-.95-.62-1.867 0-.174.009-.357.023-.546.017-.182.043-.363.076-.542l.473-2.487c.24-1.274.71-2.227 1.4-2.874.685-.641 1.687-.97 3.023-.97.56 0 1.028.025 1.408.073h.003c.346.042.676.09.986.146l-1.566 8.238zm4.335-9.447c-.003-.27-.245-.42-.566-.479a20.562 20.562 0 0 0-2.203-.405c-.803-.104-1.6-.157-2.397-.157a9.288 9.288 0 0 0-2.3.284 5.98 5.98 0 0 0-2.041.937 5.993 5.993 0 0 0-1.586 1.726c-.445.715-.775 1.606-.986 2.661l-.468 2.394a7.363 7.363 0 0 0-.158 1.473c0 .751.11 1.412.336 1.966.225.557.524 1.016.901 1.376.383.357.828.624 1.34.798a5.027 5.027 0 0 0 1.623.26c.437 0 .834-.026 1.195-.088.35-.055.693-.145 1.025-.27.33-.124.657-.273.986-.456.257-.14.535-.306.828-.5l-.081.475v.163a.573.573 0 0 0 .098.343c.093.127.243.16.417.163h1.048a.665.665 0 0 0 .45-.177c.13-.1.222-.238.263-.396l2.25-11.875a.715.715 0 0 0 .026-.216zm-34.195 1.164h2.721a.72.72 0 0 0 .46-.177.787.787 0 0 0 .256-.402l.16-.83v-.118c0-.31-.22-.51-.535-.51h-2.682l.37-2.024v-.085c0-.264-.175-.461-.437-.461h-.074l-1.405.194c-.358.045-.623.256-.68.585l-.315 1.792-1.738.05a.7.7 0 0 0-.436.14.734.734 0 0 0-.254.38l-.132.662-.003.01v.085c-.008.279.223.467.521.487l1.662.202-1.577 8.308c-.028.194-.06.36-.076.501-.015.154-.023.31-.023.464-.006.866.313 1.516.952 1.882.614.36 1.375.534 2.276.534.245 0 .521-.011.817-.04.302-.013.578-.047.845-.08.203-.035.355-.085.46-.178a.767.767 0 0 0 .188-.324l.158-.877.003-.008v-.107c.008-.135-.048-.282-.183-.324a.83.83 0 0 0-.305-.045h-1.591c-.409 0-.704-.04-.868-.11-.13-.05-.214-.2-.214-.537 0-.166.026-.396.076-.68l1.603-8.36v.001zm-43.984-.101c.392.008.69-.172.744-.507l.186-1.018.003-.011v-.107c0-.304-.26-.458-.589-.458h-.053c-.634 0-1.267.073-1.885.216-.572.135-1.177.417-1.811.841l.053-.264v-.118c0-.304-.211-.51-.515-.51h-1.228a.667.667 0 0 0-.454.18c-.13.1-.22.241-.26.4l-2.332 12.341v.11c0 .304.209.503.513.503h1.285a.774.774 0 0 0 .464-.163.798.798 0 0 0 .277-.407l1.898-10.083c.617-.35 1.189-.594 1.713-.732.535-.14 1.169-.213 1.918-.213h.073zm52.294-4.565v-.11c0-.306-.223-.506-.54-.506h-1.333a.71.71 0 0 0-.465.172.758.758 0 0 0-.279.405l-.132 1.049v.11c0 .309.222.508.538.508h1.338a.757.757 0 0 0 .462-.171.748.748 0 0 0 .276-.405l.135-1.052zm-44.31 14.057a5.795 5.795 0 0 1-.626.104c-.273.03-.54.062-.808.084-.27.026-.53.04-.78.045-.254.012-.474.014-.66.014-.983 0-1.693-.177-2.138-.503-.434-.32-.665-.917-.667-1.814 0-.236.01-.504.036-.79.026-.284.076-.583.141-.903l.344-1.77c.276-1.4.752-2.42 1.411-3.062.668-.641 1.583-.968 2.78-.97.917-.002 1.831.08 2.733.244l-1.766 9.32v.001zm3.94-11.036a29.353 29.353 0 0 0-2.146-.377c-.81-.12-1.627-.182-2.445-.183-.986 0-1.87.104-2.648.318a5.534 5.534 0 0 0-2.056 1.04c-.59.478-1.082 1.097-1.465 1.862-.395.762-.69 1.693-.904 2.801l-.338 1.764a9.207 9.207 0 0 0-.161 1.64c0 .773.121 1.445.375 2.008.253.565.6 1.03 1.042 1.392.442.354.972.619 1.586.793.872.235 1.78.308 2.679.217a23.16 23.16 0 0 0 2.132-.267l-.022.115a6.892 6.892 0 0 1-.386 1.35c-.15.36-.36.641-.617.852-.29.226-.627.382-.986.456-.395.098-.879.146-1.448.146-.347 0-.724-.014-1.13-.037-.41-.028-.82-.05-1.23-.073-.376-.022-.752-.05-1.127-.084-.35-.037-.634-.065-.86-.093h-.095a.687.687 0 0 0-.42.115.594.594 0 0 0-.245.358l-.164.852c.006.258.226.422.536.503.36.099.93.197 1.718.293.786.1 1.685.149 2.679.149.944 0 1.772-.076 2.479-.222.71-.147 1.324-.408 1.836-.782.513-.372.939-.883 1.268-1.516.33-.633.578-1.426.752-2.366l2.352-12.335v-.014c0-.023.006-.037.006-.037a.497.497 0 0 0 .025-.132c0-.276-.242-.445-.572-.506zm64.159-10.623c-5.124.886-12.085 1.547-17.327 3.113-.076.023-.068.065.023.062 12.648-.38 26.34-.315 36.572.028.025 0 .059-.045.053-.07-.242-1.21-1.183-2.574-4.02-2.565h-1.642s-.04.03-.033.045c.459 1.153-.834 1.92-1.67 1.22-.353-.292-.702-1.023.196-1.65a64.362 64.362 0 0 1 2.307-1.528c2.167-1.372 1.865-3.341-1.01-3.56-6.95-.523-19.359-1.235-24.269-1.623-.113-.009-.172.067-.098.112 4.062 2.194 7.749 2.391 11.808 3.901 2.307.858 1.85 2.04-.89 2.515z" fill="#0079B3" fill-rule="nonzero"/></svg>