<svg xmlns="http://www.w3.org/2000/svg" width="211" height="38" viewBox="0 0 211 38"><g fill-rule="nonzero" fill="none"><path fill="#002344" d="M33.072 11.827c.748.006 1.26.233 1.674.429.868.411 1.88.881 3.151 1.488 0 .009 2.055-1.453 2.166-1.523.695-.479 1.364-.114 1.584.294.765 1.439 2.177 4.43 2.922 7.164.09.33-.014.843-.535.995-.292.085-.803.16-1.335.228-.748.09-.73.688-.73 1.053 0 .45.005 3.473.005 4.5.017.642-.465 2.71-2.867 2.708-.16 0-5.495 0-5.468-.003-2.07.011-3.732-1.734-3.744-3.592 0-1.223 0-9.723.006-10.677.006-1.844 1.66-3.085 3.17-3.064"/><path fill="#002344" d="M24.418 29.163H6.638v1.972h20.866s.751-1.745.751-3.674l.006-13.387c0-1.057.433-2.837 2.604-3.312.065-.012.123-.024.184-.038 6.158-1.45 12.506-.129 16.083 1.415.65.31.795-.204.775-.423.076-3.009-2.216-6.44-6.43-6.644-3.42-.082-5.316 1.15-6.02 1.49-.05.024-.138.012-.214-.075-.631-.622-1.981-1.552-3.492-1.987-.228-.047-.249-.38.011-.409 3.239-.347 6.074.018 7.257.21.275.047.477-.113.368-.362-.081-.192-.151-.283-.289-.577-.286-.616-1.05-1.275-2.02-1.544-2.542-.706-6.88-1.316-10.743-1.34-4.351-.028-8.934.841-10.094 1.098-.275.061-.664.157-.737.175-.312.064-.391.362-.251.508.088.099.324.297.441.437.14.178.21.435-.064.7l-8.043 7.211h5.5l.065-.003c.359-.009.695.315.701.727 0 .37-.301.72-.675.72l-.044.003H5.985l-2.189 1.985h9.358l.053-.003c.368.003.655.382.649.726-.003.321-.272.712-.649.712l-.055.003H2.192L0 17.453h18.906l.059.006c.374 0 .66.379.666.712.006.388-.269.74-.652.738l-.05-.003H0v1.97h18.886l.058.002c.433.003.684.397.681.756 0 .327-.316.677-.693.677l-.05.003H0v1.99h24.658l.061-.003c.406.012.67.362.658.744-.012.333-.29.692-.658.692l-.053-.003H6.64v1.984h17.778l.374-.003c.336 0 .623.415.623.747 0 .336-.296.7-.629.7h-.368v.001zm-11.144 6.819v2.016s2.672.006 4.194 0c3.756-.023 6.22-2.016 6.22-2.016H13.273h.001zm0-3.4v1.976h12.068c.558-.563 1.277-1.593 1.464-1.973l-13.532-.003zm186.475-5.515a5.858 5.858 0 0 1-.398.02 7.369 7.369 0 0 1-.394-.02 3.515 3.515 0 0 1-1.882-.747 3.692 3.692 0 0 1-.453-.44c-.79-.89-1.213-2.396-1.31-3.59-.233-2.777.325-6.839 3.741-7.113.088-.01.173-.01.26-.012.012.003.027 0 .038 0 .012 0 .027.003.041 0 .085.003.173.003.258.012 3.419.274 3.977 4.336 3.746 7.114-.102 1.193-.485 2.676-1.312 3.589a4.953 4.953 0 0 1-.453.44c-.544.415-1.184.692-1.882.747zm8.189-6.693c-.006-.035-.009-.073-.012-.105a7.764 7.764 0 0 0-1.294-3.975c-1.497-2.343-4.121-3.603-7.28-3.563-3.16-.04-5.781 1.22-7.278 3.563a7.73 7.73 0 0 0-1.294 3.975c-.003.032-.01.07-.012.105-.433 5.144 2.572 8.698 7.686 9.107.301.023.602.035.897.032.296.003.594-.009.9-.032 5.115-.409 8.114-3.963 7.687-9.107zm-34.018-3.826c0-1.275.122-3.507.122-3.507h-4.194s.126 2.232.126 3.507l-.009 9.163c0 1.272-.117 3.44-.117 3.44h4.194s-.114-2.168-.114-3.44l-.009-9.163h.001zm-24.504 10.111c-.87 0-2.025 0-2.916.003-.034-1.535-.055-3.07-.062-4.605l-.003-.219.003-.002v-.035h4.843v-2.277h-4.84c.018-2.454.059-4.067.059-4.067l6.014-.003v-2.416c-4.2.014-10.272 0-10.272 0s.093 2.223.093 3.496v9.142c0 1.164-.076 3.142-.09 3.472h10.667l.009-2.562s-2.102.073-3.505.073zm-69.922 0c-.874 0-2.028 0-2.914.003-.038-1.534-.06-3.068-.067-4.602l-.003-.222h.003v-.035h4.843v-2.279h-4.84c.014-2.454.064-4.067.064-4.067l6.012-.003v-2.416c-4.203.017-10.273 0-10.273 0s.09 2.226.09 3.496v9.142c0 1.164-.075 3.142-.084 3.472h10.661l.01-2.562s-2.102.073-3.502.073zm83.653-6.175l4.632-7.44h-3.212l-.023.07c-.974 1.672-2.18 3.7-2.66 4.44l-.187.301-2.68-4.811h-4.828l4.653 8.33-4.846 7.777h3.189c2.066-3.525 3.13-5.147 3.13-5.147l2.873 5.147h4.804l-4.845-8.667zM187 26.96c-3.731 0-5.74-2.743-5.637-6.11.088-2.94 1.432-5.437 4.638-5.65 1.228-.085 2.23.128 3.951.59l-.178-2.519s-1.455-.46-3.548-.543c-2.662-.102-5.065.412-6.985 2.177-1.707 1.567-2.73 3.887-2.73 6.134 0 2.495 1.03 4.794 2.955 6.384 2.005 1.687 4.153 2.066 6.708 2.066 1.674 0 2.662-.11 4.29-.548l-.246-2.475c-.341.12-1.522.494-3.217.494H187zm-53.877-16.332l4.676-.003.132 1.073c1.04 10.762 1.683 17.456 1.683 17.456h-4.866l-.48-6.668-.446-5.955-4.124 12.617c-1.087.003-2.604 0-2.604 0s-1.3-4.485-1.546-5.112l-2.359-7.567s-.36 4.214-.502 6.017c-.284 3.613-.538 6.668-.538 6.668h-3.63s1.488-15.066 1.599-15.982c.11-.943.292-2.544.292-2.544h4.77l3.957 10.849 3.986-10.85v.001zm-24.716 16.431a4.531 4.531 0 0 1-.79 0c-.747-.067-1.335-.333-1.873-.744-.16-.134-.31-.28-.447-.438-.786-.884-1.21-2.387-1.309-3.575-.234-2.766.327-6.807 3.73-7.079.087-.008.175-.014.256-.017h.08c.084.003.169.009.254.017 3.404.272 3.965 4.313 3.729 7.08-.1 1.187-.482 2.66-1.31 3.574-.146.163-.292.31-.447.438-.54.424-1.19.682-1.873.744zm8.151-6.662c-.003-.038-.009-.073-.009-.108a7.755 7.755 0 0 0-1.289-3.957c-1.49-2.331-4.103-3.586-7.248-3.548-3.144-.038-5.754 1.217-7.245 3.548a7.724 7.724 0 0 0-1.289 3.957c-.005.035-.008.07-.014.108-.43 5.118 2.563 8.66 7.657 9.063.301.026.6.035.891.032.296.003.594-.006.895-.032 5.094-.402 8.084-3.945 7.651-9.063zm-57.136.861l2.02-5.997.116-.353 2.113 6.35h-4.25.001zm11.886 7.89a142.328 142.328 0 0 1-1.646-4.03l-5.45-14.49h-4.24s-1.214 3.393-1.39 3.96l-3.977 11.24c-.408 1.11-.823 2.218-1.245 3.323h3.466s.982-3.128 1.181-3.691l.535-1.564h6.006l.818 2.38c.17.447.88 2.834.892 2.872h5.05zm20.963-8.99c-.628.326-2.037.233-2.741.19l.058-4.602.392-.03c1.28-.099 2.218.076 2.607.243.573.256.915.802.944 1.707.044 1.357-.47 2.083-1.26 2.492zm7.406 8.993c-1.002-1.439-1.37-2.034-2.136-3.09l-2.9-4.488c1.395-.686 2.698-1.836 2.9-4.24.123-1.506-.684-2.752-1.163-3.178-.696-.615-1.377-.866-2.341-.98-.766-.102-1.327-.111-1.792-.143h-6.81s.082 2.23.082 3.502v9.112c0 1.27-.081 3.5-.081 3.5h4.19s-.122-2.23-.122-3.5l.026-2.923s.915.003 1.555.003l2.656 4.852c.354.622.868 1.39.988 1.573h4.948zm109.132-1.713h.292c.199 0 .368-.026.368-.268 0-.21-.192-.245-.365-.245h-.295v.513zm-.333-.77h.666c.43 0 .666.149.666.528 0 .306-.18.458-.476.481l.485.788h-.342l-.464-.773h-.202v.773h-.333v-1.797zm1.812.907c0-.744-.54-1.278-1.204-1.278-.667 0-1.202.534-1.202 1.278 0 .741.535 1.275 1.202 1.275.663 0 1.204-.534 1.204-1.275zm-2.788 0a1.585 1.585 0 1 1 3.171-.003 1.585 1.585 0 0 1-3.171.003z"/><path fill="#DA322A" d="M163.392 33.683c-31.274-6.794-44.613 3.895-44.613 3.895s14.557-8.6 44.599-2.078c30.643 6.65 44.6-4.72 44.6-4.72s-15.565 9.211-44.586 2.903"/></g></svg>