<svg width="87" height="40" viewBox="0 0 87 40" fill="none" xmlns="http://www.w3.org/2000/svg">
<path d="M28.4905 0.923676C28.4183 0.923676 28.3461 0.938109 28.274 0.923676C28.1874 0.923676 28.0142 1.05357 28.0142 1.05357C24.2183 3.29066 35.5048 21.3606 40.513 24.709C41.2058 25.1709 42.4759 25.676 43.5872 25.3152C43.7171 25.2719 44.0058 25.0554 44.0202 25.041C44.0346 25.0121 47.3542 21.173 47.3542 21.173C47.3109 20.8699 47.0078 21.0431 46.9645 21.0719C45.68 22.0101 44.5398 21.4905 41.0615 17.9544C37.3522 14.1875 33.7584 7.60609 33.7584 7.60609L50.4573 15.1256C51.5686 15.6308 52.1892 15.3421 52.5067 15.1256C52.5933 15.0679 55.6242 11.4308 55.6242 11.4308C55.6387 11.1854 55.3644 11.3153 55.3644 11.3153C54.3974 11.9215 53.6469 11.4741 52.0737 10.839C51.0057 10.4061 39.8202 5.47003 35.8368 3.57932C30.7275 1.1546 29.3131 0.909243 28.6925 0.909243C28.6059 0.923676 28.5482 0.923676 28.4905 0.923676Z" fill="white"/>
<path d="M55.1335 0C54.0366 0.0144329 52.0738 0.40412 48.3068 1.68864C46.1274 2.42472 43.2409 3.65151 40.2821 4.77728C41.9275 5.54222 43.544 6.24943 44.8429 6.82674C49.0284 5.12366 52.2325 4.15666 52.2325 4.15666C52.2325 4.15666 51.7129 5.49892 49.4614 8.90507C50.5439 9.38136 51.9006 9.95867 52.7665 10.2329C55.9418 5.85974 57.9768 1.86184 56.6201 0.490717C56.3892 0.259791 56.1005 0 55.249 0H55.1335Z" fill="white"/>
<path d="M43.4573 18.5318C44.5687 19.3978 45.4058 18.9359 46.2717 18.2865C46.2717 18.2865 46.1851 18.3731 46.0119 18.5174C47.1666 17.536 48.6099 16.0205 50.6593 13.4948C49.5769 12.8453 48.4944 12.1958 47.614 11.6762L43.4573 18.5318Z" fill="white"/>
<path d="M41.278 30.5544C41.379 30.5544 41.48 30.5544 41.5955 30.5544C41.7109 30.5544 41.8264 30.5544 41.9419 30.5832C42.0573 30.6121 42.1439 30.6554 42.2161 30.7276C42.2883 30.7997 42.3171 30.9007 42.3171 31.0451V36.0244C42.3171 36.5873 42.2161 37.1069 41.9996 37.5832C41.7831 38.0594 41.5089 38.4636 41.1481 38.7955C40.7872 39.1419 40.3687 39.4017 39.8924 39.5893C39.4161 39.777 38.8965 39.878 38.3481 39.878C37.7996 39.878 37.2801 39.777 36.7893 39.5893C36.2986 39.4017 35.8801 39.1419 35.5193 38.7955C35.1584 38.4491 34.8842 38.045 34.6677 37.5832C34.4512 37.1069 34.3502 36.5873 34.3502 36.0244C34.3502 35.1873 34.3502 34.3502 34.3646 33.542C34.3646 32.7193 34.3791 31.8966 34.3791 31.0595C34.3791 30.944 34.4224 30.8574 34.4945 30.7997C34.5811 30.742 34.6677 30.6987 34.7832 30.6698C34.8986 30.641 35.0141 30.641 35.1296 30.6265C35.245 30.6265 35.3461 30.6121 35.4182 30.6121C35.5193 30.6121 35.6492 30.641 35.7935 30.7131C35.9378 30.7853 36.01 30.8863 36.01 31.0162V35.678C36.01 36.0388 36.0677 36.3708 36.1543 36.6739C36.2553 36.9914 36.3997 37.2656 36.6017 37.511C36.8038 37.7564 37.0491 37.944 37.3378 38.0883C37.6265 38.2326 37.9584 38.3048 38.3337 38.3048C38.7089 38.3048 39.0409 38.2326 39.3295 38.0883C39.6182 37.944 39.8635 37.7564 40.0656 37.511C40.2677 37.2801 40.412 36.9914 40.513 36.6739C40.6141 36.3564 40.6574 36.0244 40.6574 35.6636V31.0306C40.6574 30.8574 40.7151 30.742 40.845 30.6698C40.9893 30.5832 41.1336 30.5544 41.278 30.5544Z" fill="white"/>
<path d="M47.4408 39.878C46.7913 39.878 46.1418 39.7625 45.5068 39.5172C44.8717 39.2718 44.3089 38.9254 43.8326 38.4636C43.7893 38.4203 43.7604 38.377 43.7315 38.3048C43.7027 38.2326 43.6882 38.1749 43.6882 38.1172C43.6882 38.0306 43.7315 37.944 43.8037 37.8285C43.8759 37.7275 43.9769 37.6265 44.0779 37.5254C44.179 37.4244 44.2944 37.3522 44.4099 37.2945C44.5254 37.2368 44.6264 37.2079 44.713 37.2079C44.8429 37.2079 44.9728 37.2656 45.1315 37.3811C45.2903 37.4966 45.4779 37.6265 45.7089 37.7564C45.9398 37.9007 46.1851 38.0161 46.4882 38.1316C46.7769 38.2471 47.1233 38.3048 47.5274 38.3048C47.7439 38.3048 47.9748 38.2904 48.2202 38.2471C48.4655 38.2182 48.7109 38.146 48.9129 38.045C49.1294 37.944 49.3026 37.8141 49.447 37.6265C49.5913 37.4533 49.6635 37.2368 49.6635 36.9625C49.6635 36.7172 49.5769 36.5151 49.4181 36.3708C49.2449 36.2265 49.0284 36.1254 48.7542 36.0388C48.4799 35.9667 48.1769 35.9089 47.8305 35.8656C47.4841 35.8223 47.1233 35.779 46.7769 35.7213C46.4161 35.6636 46.0697 35.5914 45.7233 35.4904C45.3769 35.3894 45.0594 35.2595 44.7996 35.0718C44.5254 34.8842 44.3089 34.6533 44.1357 34.3502C43.9625 34.0615 43.8903 33.6719 43.8903 33.2244C43.8903 32.7481 44.0058 32.344 44.2511 31.9976C44.4965 31.6513 44.7851 31.377 45.146 31.1461C45.5068 30.9296 45.9109 30.7708 46.3439 30.6554C46.7769 30.5544 47.1954 30.4966 47.5996 30.4966C47.8738 30.4966 48.1624 30.5111 48.4655 30.5688C48.7686 30.6121 49.0717 30.6698 49.3604 30.7708C49.649 30.8574 49.9377 30.9873 50.2119 31.1317C50.4861 31.276 50.717 31.4492 50.9191 31.6513C50.948 31.6657 50.9768 31.709 50.9913 31.7811C51.0057 31.8533 51.0201 31.911 51.0201 31.9399C51.0201 32.0554 50.9768 32.1708 50.9047 32.2719C50.8325 32.3729 50.7315 32.4739 50.6305 32.5461C50.5294 32.6183 50.414 32.6904 50.2841 32.7481C50.1542 32.8059 50.0387 32.8203 49.9377 32.8203C49.8511 32.8203 49.7645 32.8059 49.6923 32.777C49.3748 32.5028 49.0284 32.2863 48.6676 32.1275C48.3068 31.9688 47.9171 31.8966 47.4841 31.8966C47.3109 31.8966 47.0944 31.911 46.8779 31.9543C46.647 31.9832 46.4449 32.0554 46.2573 32.1564C46.0697 32.2574 45.9109 32.3729 45.781 32.5317C45.6511 32.6904 45.5934 32.8925 45.5934 33.1234C45.5934 33.4554 45.7377 33.7007 46.0264 33.8306C46.315 33.9749 46.6758 34.076 47.0944 34.1481C47.5274 34.2203 47.9892 34.278 48.4944 34.3358C48.9995 34.3935 49.4614 34.509 49.8944 34.6677C50.3274 34.8409 50.6737 35.0863 50.9624 35.4182C51.2511 35.7502 51.3954 36.2265 51.3954 36.8471C51.3954 37.3667 51.2655 37.8141 51.0201 38.1893C50.7748 38.5646 50.4573 38.8821 50.082 39.1275C49.6923 39.3728 49.2738 39.5605 48.8119 39.6759C48.3356 39.8203 47.8882 39.878 47.4408 39.878Z" fill="white"/>
<path d="M58.8572 30.7131C59.0159 30.7131 59.1314 30.7853 59.1891 30.9152C59.2469 31.0595 59.2902 31.1894 59.2902 31.3049C59.2902 31.377 59.2902 31.4636 59.2757 31.5647C59.2757 31.6657 59.2613 31.7812 59.2324 31.8822C59.2036 31.9832 59.1603 32.0698 59.1025 32.142C59.0448 32.2141 58.9582 32.243 58.8427 32.243H57.0531C56.8943 32.243 56.7789 32.2719 56.6778 32.344C56.5768 32.4018 56.5335 32.5317 56.5335 32.7049L56.5479 39.3007C56.5479 39.4306 56.5191 39.5316 56.4469 39.6038C56.3747 39.6759 56.2881 39.7192 56.1871 39.7337C56.0861 39.7481 55.985 39.7625 55.8696 39.7625C55.7541 39.7625 55.6531 39.7625 55.5521 39.7625C55.4222 39.7625 55.2778 39.7337 55.1191 39.6759C54.9603 39.6182 54.8881 39.5027 54.8881 39.3295V32.6471C54.8881 32.5172 54.8448 32.4306 54.7727 32.344C54.7149 32.3007 54.5706 32.2574 54.3541 32.2574C54.1232 32.243 53.8923 32.2286 53.6469 32.2286C53.4016 32.2286 53.1706 32.2286 52.9686 32.243C52.7665 32.2574 52.6511 32.2574 52.6222 32.2574C52.4346 32.2574 52.3191 32.1853 52.2614 32.0554C52.2036 31.911 52.1748 31.7812 52.1748 31.6368V31.3626C52.1748 31.2471 52.1892 31.1461 52.2181 31.0595C52.2469 30.9585 52.2902 30.8863 52.3624 30.8141C52.4201 30.742 52.5067 30.7131 52.6222 30.7131H58.8572Z" fill="white"/>
<path d="M86.5827 38.9687C86.5827 39.1563 86.5394 39.3295 86.4817 39.4594C86.4095 39.5893 86.2652 39.6615 86.0487 39.6615H79.9147C79.8281 39.6615 79.7415 39.6038 79.6549 39.5027C79.5683 39.4017 79.525 39.3151 79.525 39.2285V30.9873C79.525 30.8574 79.5683 30.7564 79.6261 30.6843C79.6982 30.6121 79.7848 30.5688 79.8858 30.5399C79.9869 30.5111 80.0879 30.4966 80.2034 30.4966H80.5065C80.6652 30.4966 80.8095 30.5255 80.9394 30.5977C81.0693 30.6554 81.1559 30.7708 81.2281 30.944V37.3234C81.2281 37.4244 81.2425 37.5254 81.257 37.5976C81.2858 37.6698 81.3291 37.7564 81.4013 37.8285C81.5456 38.0017 81.7188 38.0883 81.9497 38.0883H86.0775C86.193 38.0883 86.2796 38.1172 86.3518 38.1893C86.4239 38.2471 86.4672 38.3337 86.4961 38.4203C86.525 38.5069 86.5538 38.6079 86.5538 38.7089C86.5827 38.7955 86.5827 38.8965 86.5827 38.9687Z" fill="white"/>
<path d="M21.4039 39.6471L19.4699 36.2553C19.4699 36.2553 19.3978 36.0821 19.5132 36.01C21.4328 34.7688 20.5813 32.4018 20.5813 32.4018C20.0328 30.6698 17.7668 30.6987 17.7668 30.6987H14.0287C13.4226 30.6987 13.437 31.1172 13.437 31.1172V39.3295C13.437 39.3295 13.4081 39.878 13.7978 39.9213H14.0576C14.404 39.9213 14.8225 39.9213 14.8225 39.9213C15.2122 39.8924 15.1834 39.3295 15.1834 39.3295V36.977C15.1689 36.8615 15.3277 36.8759 15.3277 36.8759C15.3999 36.8759 17.3339 36.8182 17.6514 36.9481C17.7957 37.0058 17.9545 37.1646 18.0411 37.2945L19.34 39.4594C19.4411 39.6182 19.5565 39.7625 19.7008 39.8924C19.8452 40.0079 20.0039 40.0079 20.1771 39.9934C20.4658 39.979 20.7689 39.9934 21.0575 39.9934C21.5194 39.9501 21.4039 39.6471 21.4039 39.6471ZM18.9792 34.0471C18.7483 35.1584 17.3339 35.1296 17.3339 35.1296H15.4432C15.0968 35.1007 15.0679 34.7543 15.0679 34.7543V32.5894C15.0823 32.3585 15.2411 32.3585 15.2411 32.3585H15.573C16.0638 32.3585 16.5401 32.3729 17.0308 32.3585C17.5648 32.3585 18.1998 32.3007 18.6472 32.6904C18.8782 32.9069 18.9936 33.2677 19.0225 33.5708C19.0369 33.7152 19.0225 33.8883 18.9792 34.0471Z" fill="white"/>
<path d="M68.8736 39.6471L66.9396 36.2553C66.9396 36.2553 66.8674 36.0821 66.9829 36.01C68.9024 34.7688 68.0509 32.4018 68.0509 32.4018C67.5025 30.6698 65.2365 30.6987 65.2365 30.6987H61.4984C60.8922 30.6987 60.9066 31.1172 60.9066 31.1172V39.3295C60.9066 39.3295 60.8778 39.878 61.2675 39.9213H61.5273C61.8736 39.9213 62.2922 39.9213 62.2922 39.9213C62.6819 39.8924 62.653 39.3295 62.653 39.3295V36.977C62.6386 36.8615 62.7973 36.8759 62.7973 36.8759C62.8695 36.8759 64.8035 36.8182 65.121 36.9481C65.2654 37.0058 65.4241 37.1646 65.5107 37.2945L66.7952 39.4594C66.8963 39.6182 67.0117 39.7625 67.1561 39.8924C67.3004 40.0079 67.4592 40.0079 67.6324 39.9934C67.921 39.979 68.2241 39.9934 68.5128 39.9934C68.989 39.9501 68.8736 39.6471 68.8736 39.6471ZM66.4489 34.0471C66.2179 35.1584 64.8035 35.1296 64.8035 35.1296H62.9128C62.5664 35.1007 62.5376 34.7543 62.5376 34.7543V32.5894C62.5376 32.3585 62.7108 32.3585 62.7108 32.3585H63.0427C63.5334 32.3585 64.0097 32.3729 64.5004 32.3585C65.0344 32.3585 65.6695 32.3007 66.1169 32.6904C66.3478 32.9069 66.4633 33.2677 66.4922 33.5708C66.4922 33.7152 66.4777 33.8883 66.4489 34.0471Z" fill="white"/>
<path d="M8.47209 39.4306L4.9216 30.9729C4.8783 30.8574 4.76284 30.7853 4.60408 30.7564C4.45975 30.7276 4.34429 30.7131 4.24326 30.7131C4.14223 30.7131 4.02677 30.7276 3.88244 30.7564C3.70924 30.7853 3.60821 30.8574 3.56491 30.9729L0.0144329 39.4306C0 39.445 0 39.4594 0 39.5027C0 39.6038 0.0432986 39.6759 0.115463 39.7048C0.187627 39.7481 0.288657 39.777 0.389687 39.7914C0.490717 39.8058 0.60618 39.8058 0.70721 39.8058C0.822673 39.8058 0.90927 39.8058 0.967001 39.8058C1.0969 39.8058 1.25566 39.7914 1.42885 39.7481C1.60205 39.7048 1.71751 39.6182 1.78967 39.4594L2.29482 38.2615C2.33812 38.1893 2.38142 38.1172 2.45359 38.0594C2.52575 38.0017 2.61235 37.9728 2.69894 37.9728H5.78757C5.8886 37.9728 5.96077 38.0017 6.03293 38.0594C6.1051 38.1172 6.16283 38.1893 6.19169 38.2615L6.69684 39.4594C6.76901 39.6182 6.88447 39.7048 7.05767 39.7481C7.23086 39.7914 7.37519 39.8058 7.51952 39.8058C7.59168 39.8058 7.67828 39.8058 7.77931 39.8058C7.89477 39.8058 7.9958 39.8058 8.09683 39.7914C8.19786 39.777 8.29889 39.7481 8.37106 39.7048C8.44322 39.6615 8.48652 39.5893 8.48652 39.5027C8.48652 39.4739 8.47209 39.445 8.47209 39.4306ZM5.32572 36.443C5.26799 36.5007 5.21026 36.5296 5.15253 36.5296H3.31956C3.24739 36.5296 3.18966 36.5007 3.14636 36.443C3.08863 36.3852 3.0742 36.3275 3.0742 36.2698C3.0742 36.2409 3.1175 36.111 3.20409 35.8801C3.29069 35.6492 3.39172 35.4038 3.50718 35.1296C3.62265 34.8554 3.72368 34.5956 3.82471 34.3646C3.92574 34.1193 3.98347 33.9749 4.01233 33.9172C4.05563 33.8595 4.1278 33.8306 4.22883 33.8306H4.24326C4.34429 33.8306 4.41645 33.8595 4.45975 33.9172C4.48862 33.9749 4.56078 34.1193 4.64738 34.3646C4.74841 34.61 4.84944 34.8698 4.9649 35.1296C5.08036 35.4038 5.18139 35.6492 5.26799 35.8801C5.35459 36.111 5.39789 36.2409 5.39789 36.2698C5.41232 36.3275 5.38345 36.3852 5.32572 36.443Z" fill="white"/>
<path d="M33.8017 39.4306L30.2513 30.9729C30.208 30.8574 30.0925 30.7853 29.9337 30.7564C29.7894 30.7276 29.6739 30.7131 29.5729 30.7131C29.4719 30.7131 29.3564 30.7276 29.2121 30.7564C29.0389 30.7853 28.9379 30.8574 28.8946 30.9729L25.3441 39.4306C25.3297 39.445 25.3297 39.4594 25.3297 39.5027C25.3297 39.6038 25.373 39.6759 25.4451 39.7048C25.5173 39.7481 25.6183 39.777 25.7193 39.7914C25.8204 39.8058 25.9358 39.8058 26.0369 39.8058C26.1523 39.8058 26.2389 39.8058 26.2967 39.8058C26.4266 39.8058 26.5853 39.7914 26.7585 39.7481C26.9317 39.7048 27.0472 39.6182 27.1193 39.4594L27.6245 38.2615C27.6678 38.1893 27.7111 38.1172 27.7832 38.0594C27.8554 38.0017 27.942 37.9728 28.0286 37.9728H31.1317C31.2183 37.9728 31.3049 38.0017 31.377 38.0594C31.4492 38.1172 31.5069 38.1893 31.5358 38.2615L32.0409 39.4594C32.1131 39.6182 32.2286 39.7048 32.4018 39.7481C32.575 39.7914 32.7193 39.8058 32.8636 39.8058C32.9358 39.8058 33.0224 39.8058 33.1234 39.8058C33.2389 39.8058 33.3399 39.8058 33.4409 39.7914C33.542 39.777 33.643 39.7481 33.7151 39.7048C33.7873 39.6615 33.8306 39.5893 33.8306 39.5027C33.8162 39.4739 33.8162 39.445 33.8017 39.4306ZM30.6698 36.443C30.6121 36.5007 30.5543 36.5296 30.4966 36.5296H28.6636C28.5915 36.5296 28.5338 36.5007 28.4905 36.443C28.4327 36.3852 28.4183 36.3275 28.4183 36.2698C28.4183 36.2409 28.4616 36.111 28.5482 35.8801C28.6348 35.6492 28.7358 35.4038 28.8513 35.1296C28.9667 34.8554 29.0678 34.5956 29.1688 34.3646C29.2698 34.1193 29.3276 33.9749 29.3564 33.9172C29.3997 33.8595 29.4719 33.8306 29.5729 33.8306H29.6018C29.7028 33.8306 29.775 33.8595 29.8183 33.9172C29.8471 33.9749 29.9049 34.1193 30.0059 34.3646C30.1069 34.61 30.208 34.8698 30.3234 35.1296C30.4389 35.4038 30.5399 35.6492 30.6265 35.8801C30.7131 36.111 30.7564 36.2409 30.7564 36.2698C30.7564 36.3275 30.7275 36.3852 30.6698 36.443Z" fill="white"/>
<path d="M78.3271 39.4306L74.7766 30.9729C74.7333 30.8574 74.6179 30.7853 74.4591 30.7564C74.3148 30.7276 74.1993 30.7131 74.0983 30.7131C73.9972 30.7131 73.8818 30.7276 73.7374 30.7564C73.5787 30.7853 73.4632 30.8574 73.4199 30.9729L69.8694 39.4306C69.855 39.445 69.855 39.4594 69.855 39.5027C69.855 39.6038 69.8983 39.6759 69.9705 39.7048C70.0426 39.7481 70.1437 39.777 70.2447 39.7914C70.3457 39.8058 70.4612 39.8058 70.5622 39.8058C70.6777 39.8058 70.7643 39.8058 70.822 39.8058C70.9519 39.8058 71.1107 39.7914 71.2839 39.7481C71.4571 39.7048 71.5725 39.6182 71.6447 39.4594L72.1498 38.2615C72.1931 38.1893 72.2364 38.1172 72.3086 38.0594C72.3808 38.0017 72.4674 37.9728 72.554 37.9728H75.6426C75.7436 37.9728 75.8158 38.0017 75.8879 38.0594C75.9601 38.1172 76.0178 38.1893 76.0467 38.2615L76.5519 39.4594C76.624 39.6182 76.7395 39.7048 76.9127 39.7481C77.0859 39.7914 77.2302 39.8058 77.3745 39.8058C77.4467 39.8058 77.5333 39.8058 77.6343 39.8058C77.7498 39.8058 77.8508 39.8058 77.9518 39.7914C78.0529 39.777 78.1539 39.7481 78.2261 39.7048C78.2982 39.6615 78.3415 39.5893 78.3415 39.5027C78.3415 39.4739 78.3415 39.445 78.3271 39.4306ZM75.1807 36.443C75.123 36.5007 75.0653 36.5296 75.0075 36.5296H73.1746C73.1024 36.5296 73.0447 36.5007 73.0014 36.443C72.9436 36.3852 72.9292 36.3275 72.9292 36.2698C72.9292 36.2409 72.9725 36.111 73.0735 35.8801C73.1601 35.6492 73.2612 35.4038 73.3766 35.1296C73.4921 34.8554 73.5931 34.5956 73.6942 34.3646C73.7952 34.1193 73.8529 33.9749 73.8818 33.9172C73.9251 33.8595 73.9972 33.8306 74.0983 33.8306H74.1271C74.2282 33.8306 74.3003 33.8595 74.3436 33.9172C74.3725 33.9749 74.4447 34.1193 74.5313 34.3646C74.6323 34.61 74.7333 34.8698 74.8488 35.1296C74.9642 35.4038 75.0653 35.6492 75.1519 35.8801C75.2385 36.111 75.2818 36.2409 75.2818 36.2698C75.2673 36.3275 75.2385 36.3852 75.1807 36.443Z" fill="white"/>
<path d="M11.3731 39.4306C11.3731 39.7048 11.1566 39.9213 10.9112 39.9213H10.1607C9.90094 39.9213 9.68444 39.7048 9.68444 39.4306V31.175C9.68444 30.9007 9.90094 30.6843 10.1607 30.6843H10.9112C11.171 30.6843 11.3731 30.9007 11.3731 31.175V39.4306Z" fill="white"/>
</svg>
