<svg xmlns="http://www.w3.org/2000/svg" width="24" height="24" fill="none"><path fill="#fff" d="M24 24v-3.803h-2.895l-1.491-1.648-1.498 1.648H8.569v-7.682H5.49l3.821-8.65h3.686l1.316 2.964V3.866h4.562l.792 2.232.797-2.232H24V0H0v24zm-2.408-4.765H24l-3.185-3.377L24 12.518h-2.37l-1.966 2.15-1.948-2.15h-2.409l3.167 3.359-3.167 3.358h2.342l1.976-2.168zm.564-3.374L24 17.823v-3.908zm-10.734 1.82v-1.046h3.79v-1.516h-3.79v-1.046h3.885V12.52H9.59v6.716h5.718v-1.554zm10.764-6.137H24V4.827h-2.821l-1.506 4.184-1.497-4.183h-2.87v6.716h1.814V6.843l1.727 4.701h1.612l1.727-4.711zm-8.942 0h2.063l-2.965-6.717h-2.36l-2.965 6.717h2.015l.556-1.343h3.09zm-1.2-2.85h-1.822l.911-2.197z"/></svg>