<svg xmlns="http://www.w3.org/2000/svg" width="31" height="17" fill="none"><path fill="#E31837" d="M18.087 16.106c0-.373.303-.676.7-.676s.699.303.699.676-.303.7-.7.7a.687.687 0 0 1-.699-.7m.14 0c0 .303.257.56.583.56a.547.547 0 1 0 0-1.096c-.35 0-.583.256-.583.536"/><path fill="#E31837" d="M19.136 16.503h-.14l-.233-.35h-.14v.35h-.093v-.77h.35c.07 0 .14 0 .186.047.07.024.094.094.094.163 0 .14-.117.21-.257.21zm-.373-.443c.117 0 .257.023.257-.117 0-.093-.093-.116-.187-.116h-.21v.233zM15.453 16.806C20.348 12.61 27.224 8.53 31 7.063a62 62 0 0 0-2.517-1.492c-4.872 1.608-10.56 5.175-15.64 9.207.862.653 1.77 1.329 2.61 2.028"/><path fill="#012169" d="M13.217 5.408c-.723-.35-1.515-.676-2.121-.956-1.842.91-4.243 2.284-7.273 4.452.653.35 1.352.77 2.098 1.189 2.331-1.725 4.685-3.357 7.296-4.685"/><path fill="#E31837" d="M17.574 3.403c-.885-.49-3.962-1.631-6.083-2.12-.63.232-1.515.582-2.121.838.769.21 3.636.98 6.083 2.215.63-.303 1.515-.676 2.121-.933"/><path fill="#012169" d="M7.156 3.1C4.429 4.359 1.562 6.083 0 7.086c.56.256 1.119.466 1.888.839 3.45-2.331 6.154-3.753 7.226-4.219-.77-.28-1.492-.466-1.958-.606"/><path fill="#E31837" d="M19.626 2.68c.63-.21 1.352-.396 1.981-.582C19.79 1.328 17.505.513 15.454 0c-.327.093-1.306.35-1.981.56.699.21 3.006.745 6.153 2.12M8.135 11.446c.746.442 1.538 1.048 2.307 1.561 5.105-3.962 10.14-7.016 15.664-8.74-.77-.397-1.445-.746-2.308-1.166-3.31.84-8.974 3.1-15.663 8.345"/></svg>