<svg xmlns="http://www.w3.org/2000/svg" width="24" height="24" fill="none"><path fill="#fff" d="M10.91 12.43H9.59c-.42.06-.61.32-.61.83v2.36h1.93c.96 0 1.55-.6 1.55-1.6s-.61-1.59-1.55-1.59M12.04 9.18c0-.87-.51-1.39-1.36-1.39h-.99c-.49.03-.72.29-.72.84v1.99h1.74c.98 0 1.33-.77 1.33-1.43z"/><path fill="#fff" d="M19.49 0H4.51C2.02 0 0 2.02 0 4.51v18.96h19.49c2.49 0 4.51-2.02 4.51-4.51V4.51C24 2.02 21.98 0 19.49 0m-8.74 17.61H6.77V7.09c0-.66.52-1.2 1.17-1.22h2.76c2.18 0 3.58 1.2 3.58 3.05 0 1.21-.59 1.91-.95 2.22l-.31.27.35.2c.85.49 1.35 1.45 1.35 2.57 0 2.09-1.56 3.43-3.98 3.43zm6.43 0c-.78 0-1.42-.65-1.42-1.45s.63-1.45 1.42-1.45 1.42.65 1.42 1.45-.64 1.45-1.42 1.45"/></svg>