<svg xmlns="http://www.w3.org/2000/svg" width="95" height="24" viewBox="0 0 95 24"><path d="M0 0v24h24V0zm24 17l5-5-5-5zm14.338-5.214h3.794c-.112-1.092-.756-1.946-1.876-1.946-1.036 0-1.764.798-1.918 1.946zm4.774 3.402c-.672.602-1.512.98-2.66.98-2.142 0-3.794-1.554-3.794-3.836v-.028c0-2.114 1.498-3.85 3.612-3.85 2.352 0 3.514 1.932 3.514 3.64a.792.792 0 0 1-.798.812h-4.634c.182 1.204 1.036 1.876 2.128 1.876.714 0 1.274-.252 1.75-.644a.63.63 0 0 1 .434-.154c.378 0 .672.294.672.686a.74.74 0 0 1-.224.518zm1.736.168c0-.238.084-.42.238-.588l2.1-2.52-1.946-2.31c-.182-.224-.28-.42-.28-.644 0-.476.364-.784.784-.784.336 0 .574.154.784.42l1.666 2.184 1.694-2.17c.196-.252.434-.434.728-.434.448 0 .798.322.798.742 0 .238-.098.406-.238.574l-2.002 2.394 2.072 2.45c.182.224.28.42.28.644a.765.765 0 0 1-.784.784c-.336 0-.574-.154-.784-.434l-1.792-2.31-1.792 2.31c-.196.238-.434.434-.742.434-.434 0-.784-.322-.784-.742zm8.414 2.114V9.378c0-.476.364-.854.84-.854s.854.378.854.854v.462c.546-.77 1.316-1.386 2.52-1.386 1.736 0 3.43 1.372 3.43 3.836v.028c0 2.45-1.68 3.836-3.43 3.836-1.232 0-2.002-.616-2.52-1.302v2.618c0 .476-.378.84-.854.84a.834.834 0 0 1-.84-.84zm3.808-2.786c1.162 0 2.114-.91 2.114-2.366v-.028c0-1.428-.966-2.366-2.114-2.366s-2.156.952-2.156 2.366v.028c0 1.414 1.008 2.366 2.156 2.366zm5.684.546V6.55c0-.462.364-.84.84-.84s.854.378.854.84v8.68c0 .476-.378.84-.854.84a.834.834 0 0 1-.84-.84zm7.42.938c-2.254 0-3.92-1.722-3.92-3.822v-.028c0-2.114 1.68-3.864 3.948-3.864s3.934 1.722 3.934 3.836v.028c0 2.1-1.68 3.85-3.962 3.85zm.028-1.484c1.372 0 2.24-1.064 2.24-2.338v-.028c0-1.302-.938-2.38-2.268-2.38-1.358 0-2.226 1.064-2.226 2.352v.028c0 1.288.938 2.366 2.254 2.366zm5.656.546V9.378c0-.476.364-.854.84-.854s.854.378.854.854v.756c.392-.924 1.12-1.624 1.862-1.624.532 0 .84.35.84.84a.795.795 0 0 1-.672.812c-1.204.21-2.03 1.134-2.03 2.884v2.184c0 .462-.378.84-.854.84a.834.834 0 0 1-.84-.84zm6.804-3.444h3.794c-.112-1.092-.756-1.946-1.876-1.946-1.036 0-1.764.798-1.918 1.946zm4.774 3.402c-.672.602-1.512.98-2.66.98-2.142 0-3.794-1.554-3.794-3.836v-.028c0-2.114 1.498-3.85 3.612-3.85 2.352 0 3.514 1.932 3.514 3.64a.792.792 0 0 1-.798.812h-4.634c.182 1.204 1.036 1.876 2.128 1.876.714 0 1.274-.252 1.75-.644a.63.63 0 0 1 .434-.154c.378 0 .672.294.672.686a.74.74 0 0 1-.224.518zm2.408.042V9.378c0-.476.364-.854.84-.854s.854.378.854.854v.756c.392-.924 1.12-1.624 1.862-1.624.532 0 .84.35.84.84a.795.795 0 0 1-.672.812c-1.204.21-2.03 1.134-2.03 2.884v2.184c0 .462-.378.84-.854.84a.834.834 0 0 1-.84-.84z" fill="#0800B9" fill-rule="evenodd"/></svg>