<svg width="70" height="21" viewBox="0 0 70 21" fill="none" xmlns="http://www.w3.org/2000/svg">
<path d="M32.1907 7.65333H30.534V10.8313H32.1907C32.8113 10.8313 33.2827 10.6913 33.6047 10.4113C33.9267 10.1313 34.0853 9.73933 34.0853 9.23533C34.0853 8.73133 33.9267 8.33933 33.6047 8.064C33.2827 7.78867 32.8113 7.65333 32.1907 7.65333Z" fill="white"/>
<path d="M41.4353 7.65333H39.7787V10.8313H41.4353C42.056 10.8313 42.5273 10.6913 42.8493 10.4113C43.1667 10.1313 43.33 9.73933 43.33 9.23533C43.33 8.73133 43.1713 8.33933 42.8493 8.064C42.5273 7.78867 42.056 7.65333 41.4353 7.65333Z" fill="white"/>
<path d="M59.1453 7.65333H57.4887V10.8313H59.1453C59.766 10.8313 60.2373 10.6913 60.5593 10.4113C60.8813 10.1313 61.04 9.73933 61.04 9.23533C61.04 8.73133 60.8813 8.33933 60.5593 8.064C60.2373 7.78867 59.766 7.65333 59.1453 7.65333Z" fill="white"/>
<path d="M65.6507 0H3.416C1.53067 0 0 1.53067 0 3.416V17.584C0 19.4693 1.53067 21 3.416 21H65.6507C67.536 21 69.0667 19.4693 69.0667 17.584V3.416C69.0667 1.53067 67.536 0 65.6507 0ZM13.188 13.7993C12.9127 14.224 12.502 14.5693 11.9467 14.8307C11.3913 15.092 10.696 15.2227 9.86533 15.2227L9.85133 15.2367C9.14667 15.2367 8.46533 15.1387 7.812 14.9427C7.15867 14.7467 6.636 14.49 6.23933 14.1773L6.93467 12.5813C7.30333 12.8613 7.75133 13.09 8.274 13.2673C8.79667 13.4447 9.324 13.5333 9.85133 13.5333C10.2573 13.5333 10.5793 13.4913 10.8313 13.4027C11.0833 13.314 11.2607 13.202 11.382 13.0573C11.4987 12.9127 11.5593 12.7447 11.5593 12.5533C11.5593 12.3107 11.466 12.1147 11.284 11.97C11.0973 11.8253 10.8547 11.7087 10.5467 11.6153C10.2387 11.522 9.90267 11.438 9.54333 11.354C9.17933 11.27 8.81533 11.172 8.45133 11.0553C8.08733 10.9387 7.74667 10.78 7.44333 10.584C7.14 10.388 6.89267 10.1313 6.71067 9.814C6.52867 9.49667 6.44 9.09533 6.44 8.61933C6.44 8.09667 6.57533 7.62067 6.846 7.18667C7.11667 6.75733 7.52733 6.412 8.078 6.15533C8.62867 5.89867 9.324 5.768 10.1547 5.768C10.71 5.768 11.2607 5.838 11.802 5.978C12.3433 6.118 12.8193 6.31867 13.2207 6.58L12.5767 8.176C12.18 7.94267 11.774 7.76533 11.354 7.64867C10.934 7.532 10.528 7.47133 10.1407 7.47133C9.75333 7.47133 9.41267 7.518 9.17 7.60667C8.92733 7.7 8.74533 7.82133 8.63333 7.98C8.52133 8.13867 8.46067 8.31133 8.46067 8.50267C8.46067 8.74533 8.554 8.94133 8.74067 9.09067C8.92733 9.24 9.17 9.35667 9.47333 9.436C9.77667 9.52 10.1127 9.59933 10.4813 9.68333C10.85 9.76733 11.2187 9.87 11.578 9.99133C11.942 10.1127 12.2733 10.2667 12.5767 10.4533C12.88 10.64 13.1273 10.892 13.314 11.2093C13.5053 11.5267 13.5987 11.9233 13.5987 12.39C13.5987 12.9033 13.4633 13.3747 13.188 13.7993ZM21.042 15.078L18.2 11.4893C18.1207 11.578 17.3273 12.432 17.0287 12.754V15.078H14.994V5.93133H17.0287V10.1967L20.9393 5.93133H23.212L19.5627 10.0147L23.4407 15.078H21.042ZM26.3947 15.078H24.3367V5.93133H26.3947V15.078ZM35.672 11.004C35.3593 11.494 34.9207 11.8767 34.3467 12.1473C33.7727 12.418 33.0913 12.5533 32.3027 12.5533H30.534V15.078H28.476V5.93133H32.3027C33.0913 5.93133 33.7773 6.062 34.3467 6.328C34.9207 6.594 35.3593 6.97667 35.672 7.47133C35.9847 7.966 36.1387 8.554 36.1387 9.23533C36.1387 9.91667 35.9847 10.514 35.672 11.004ZM44.9167 11.004C44.604 11.494 44.1653 11.8767 43.5913 12.1473C43.0173 12.418 42.336 12.5533 41.5473 12.5533H39.7787V15.078H37.7207V5.93133H41.5473C42.3407 5.93133 43.022 6.062 43.5913 6.328C44.1607 6.594 44.604 6.97667 44.9167 7.47133C45.2293 7.966 45.3833 8.554 45.3833 9.23533C45.3833 9.91667 45.2293 10.514 44.9167 11.004ZM53.8067 15.078H46.9653V5.93133H53.6433V7.63H48.9953V9.604H53.0973V11.2653H48.9953V13.3793H53.8067V15.078ZM61.0633 15.078L59.346 12.5113C59.318 12.5113 59.29 12.5113 59.2573 12.5113H57.4887V15.0733H55.4307V5.93133H59.2573C60.046 5.93133 60.732 6.062 61.3013 6.328C61.8753 6.594 62.314 6.97667 62.6267 7.47133C62.9393 7.966 63.0933 8.554 63.0933 9.23533C63.0933 9.91667 62.9393 10.514 62.6267 11.004C62.314 11.494 61.8753 11.872 61.3013 12.1287H61.292L63.2613 15.0733H61.0633V15.078Z" fill="white"/>
</svg>
