<svg xmlns="http://www.w3.org/2000/svg" width="112" height="15" viewBox="0 0 112 15" fill="none"><g clip-path="url(#a)"><path fill="#C17C51" d="M108.91 0H2.757A2.757 2.757 0 0 0 0 2.757v9.486A2.757 2.757 0 0 0 2.757 15H108.91a2.757 2.757 0 0 0 2.757-2.757V2.757A2.757 2.757 0 0 0 108.91 0Z"/><path fill="#fff" d="M61.643 9.453c.757 0 1.277-.513 1.277-1.363v-3.8h1.707v3.8c0 1.727-1.157 2.82-2.994 2.82-1.836 0-3.03-1.093-3.03-2.82v-3.8h1.707v3.8c0 .84.56 1.363 1.333 1.363ZM67.493 4.293V9.38h2.77v1.457h-4.476V4.293h1.706ZM76.077 4.293v1.41h-1.96v5.134H72.41V5.703h-1.94v-1.41h5.607ZM78.473 4.293v6.544h-1.706V4.293h1.706ZM81.61 4.293l1.737 3.817 1.736-3.817h1.867v6.544h-1.51l-.01-4.144-1.52 3.49h-1.12l-1.52-3.49v4.144h-1.52V4.293h1.867-.007ZM92.573 9.68h-2.826l-.457 1.157h-1.753l2.806-6.544h1.754l2.743 6.544h-1.82l-.447-1.157Zm-.503-1.307-.897-2.333-.913 2.333h1.81ZM100.463 4.293v1.41h-1.96v5.134h-1.706V5.703h-1.94v-1.41h5.606ZM106.313 4.293v1.364h-3.45V6.88h3.117v1.353l-3.117.01v1.234h3.544v1.363h-5.25V4.293h5.16-.004ZM16.93 5.37v2.603a1.713 1.713 0 1 1-3.427 0V5.37h-1.03v2.603a2.742 2.742 0 0 0 3.6 2.6c.314-.113.627-.32.854-.7v.404c0 .926-.874 1.713-1.907 1.713-.587 0-1.093-.237-1.647-.767l-.033-.033-.607.813.044.047c.55.603 1.363.843 1.37.847.28.08.576.123.873.123 1.62 0 2.937-1.23 2.937-2.74V5.37h-1.03.003ZM19.683 3.29a.698.698 0 0 0-.696.697c0 .383.313.696.696.696a.698.698 0 0 0 .697-.696.698.698 0 0 0-.697-.697ZM30.243 5.233c-1.51 0-2.74 1.23-2.74 2.74 0 1.51 1.23 2.74 2.74 2.74.3 0 .59-.05.86-.14.314-.113.627-.32.854-.7v.404c0 .926-.874 1.713-1.907 1.713-.587 0-1.093-.237-1.643-.767l-.034-.033-.606.813.043.047c.55.603 1.363.843 1.37.847.283.083.577.123.873.123 1.62 0 2.937-1.23 2.937-2.74V7.973c0-1.51-1.23-2.74-2.74-2.74m0 4.454a1.713 1.713 0 1 1-.001-3.428 1.713 1.713 0 0 1 .001 3.428ZM36.587 10.713c1.51 0 2.74-1.23 2.74-2.74 0-1.51-1.23-2.74-2.74-2.74-.3 0-.59.05-.86.14-.314.114-.627.32-.854.7V3.157h-1.03v4.816c0 1.51 1.23 2.74 2.74 2.74m0-4.453a1.713 1.713 0 1 1 .001 3.428 1.713 1.713 0 0 1 0-3.428ZM47.697 5.367H46.66V7.97c0 .943-.767 1.71-1.71 1.71s-1.71-.767-1.71-1.71V5.367h-1.037v2.676a2.73 2.73 0 0 0 .83 1.89 2.73 2.73 0 0 0 1.914.78A2.746 2.746 0 0 0 47.69 7.97V5.367h.007ZM52.45 9.083c-.317.377-.79.62-1.323.62a1.733 1.733 0 0 1-1.667-1.266h4.367c.026-.15.043-.304.043-.464a2.743 2.743 0 1 0-.233 1.11H52.45Zm-1.323-2.84c.78 0 1.44.517 1.656 1.227h-3.31a1.733 1.733 0 0 1 1.657-1.227M5.997 10.617V7.993h2.94V6.96h-2.94V5.767c0-.944.766-1.71 1.71-1.71.663 0 1.073.306 1.486.763l.037.04.61-.82-.04-.047c-.513-.603-1.27-.843-1.277-.846a2.747 2.747 0 0 0-3.56 2.617v4.853h1.034ZM11.39 3.157h-1.037v7.46h1.037v-7.46ZM20.203 5.37h-1.036v5.247h1.036V5.37ZM22.353 10.617v-2.64c0-.944.767-1.71 1.71-1.71.944 0 1.71.766 1.71 1.71v2.64h1.037v-2.64a2.746 2.746 0 0 0-2.743-2.744 2.746 2.746 0 0 0-2.744 2.744v2.64h1.037-.007ZM41.153 3.157h-1.036v7.46h1.036v-7.46Z"/></g><defs><clipPath id="a"><path fill="#fff" d="M0 0h111.667v15H0z"/></clipPath></defs></svg>
