<svg width="61" height="15" viewBox="0 0 61 15" fill="none" xmlns="http://www.w3.org/2000/svg"><g clip-path="url(#a)"><path d="M57.76 0H2.7A2.7 2.7 0 0 0 0 2.7v9.6A2.7 2.7 0 0 0 2.7 15h55.06a2.7 2.7 0 0 0 2.7-2.7V2.7a2.7 2.7 0 0 0-2.7-2.7Z" fill="#28334A"/><path d="M4.993 10.743V4.21H7.82c.583 0 1.09.093 1.513.283.424.19.75.464.98.817.23.353.347.773.347 1.26s-.117.913-.347 1.263c-.23.354-.556.624-.98.817-.423.193-.926.29-1.513.29H5.823l.69-.68v2.483h-1.52Zm1.52-2.313-.69-.72h1.914c.46 0 .81-.1 1.046-.3.237-.2.354-.48.354-.84s-.117-.64-.354-.837c-.236-.196-.583-.293-1.046-.293H5.823l.69-.72v3.71ZM11.823 10.743V4.21h1.52v5.3H16.6v1.233h-4.777ZM16.6 10.743l2.903-6.533h1.494l2.93 6.533H22.34l-2.397-5.766h.607l-2.397 5.766H16.6Zm1.463-1.4.384-1.146h3.376l.39 1.146H18.06h.003ZM25.957 10.743v-5.3h-2.09V4.21h5.69v1.233h-2.09v5.3h-1.51ZM30.37 10.743V4.21h1.52v6.533h-1.52ZM33.43 10.743V4.21h1.25l3.853 4.703h-.606V4.21h1.493v6.533h-1.25L34.317 6.04h.606v4.703H33.43ZM43.87 10.853c-.927 0-1.65-.256-2.173-.773-.524-.517-.784-1.257-.784-2.22V4.21h1.52v3.613c0 .617.127 1.064.384 1.34.253.277.61.417 1.063.417.453 0 .817-.14 1.073-.417.257-.276.384-.723.384-1.34V4.21h1.483v3.65c0 .963-.26 1.703-.783 2.22-.524.517-1.244.773-2.164.773h-.003ZM48.32 10.743V4.21h1.25l2.78 4.61h-.663l2.723-4.61h1.26v6.533h-1.41l-.02-4.36h.28l-2.203 3.66h-.674l-2.23-3.66h.307v4.36h-1.41.01Z" fill="#fff"/></g><defs><clipPath id="a"><path fill="#fff" d="M0 0h60.46v15H0z"/></clipPath></defs></svg>
