<svg width="62" height="8" viewBox="0 0 62 8" fill="none" xmlns="http://www.w3.org/2000/svg"><path d="M1.78 6.433h4.211V7.87H0V.134h5.845v1.437H1.78v4.862ZM5.371 3.24v1.405H1.646V3.24H5.37ZM6.54 7.87l3.315-4.586v1.302L6.682.134h2.02l2.199 3.094-.86.024L12.226.134h1.934l-3.157 4.377V3.228L14.35 7.87h-2.064L10.01 4.586h.817L8.584 7.87H6.54ZM15.301 7.87V.134h3.347c.69 0 1.29.11 1.792.336a2.63 2.63 0 0 1 1.16.967c.273.418.41.915.41 1.491 0 .577-.137 1.082-.41 1.496-.272.419-.659.738-1.16.967-.501.23-1.097.344-1.792.344h-2.364l.817-.806v2.94h-1.8Zm1.8-2.74-.817-.852h2.266c.544 0 .959-.118 1.239-.355.28-.237.418-.568.418-.995 0-.426-.138-.757-.418-.99-.28-.233-.69-.347-1.24-.347h-2.265l.817-.853v4.393ZM23.384 7.87V.134h1.8V6.41h3.856v1.46h-5.656ZM33.816 8a4.591 4.591 0 0 1-1.69-.3 4.022 4.022 0 0 1-1.35-.84 3.773 3.773 0 0 1-.887-1.271 3.986 3.986 0 0 1-.316-1.591c0-.572.106-1.113.316-1.598.209-.482.505-.904.887-1.267.383-.36.83-.64 1.342-.84a4.653 4.653 0 0 1 1.686-.3c.611 0 1.172.098 1.685.291.513.194.959.474 1.342.833.383.363.679.785.888 1.27.209.486.316 1.023.316 1.603 0 .58-.107 1.105-.316 1.599a3.75 3.75 0 0 1-.888 1.274c-.383.363-.829.64-1.342.833a4.703 4.703 0 0 1-1.673.292V8Zm-.012-1.516c.347 0 .663-.059.955-.181.292-.122.548-.296.77-.521.22-.225.39-.485.512-.785.123-.3.182-.632.182-.999A2.6 2.6 0 0 0 36.041 3a2.437 2.437 0 0 0-.513-.786 2.332 2.332 0 0 0-.77-.52 2.437 2.437 0 0 0-.954-.182c-.348 0-.667.059-.96.181a2.252 2.252 0 0 0-.769.521 2.449 2.449 0 0 0-.51.786c-.122.3-.18.631-.18.998s.058.703.18.999c.123.3.293.56.51.785.217.225.474.399.77.52.296.123.615.182.959.182ZM39.38 7.87V.134h3.347c.69 0 1.29.11 1.792.336a2.63 2.63 0 0 1 1.16.967c.273.418.41.915.41 1.491 0 .577-.137 1.082-.41 1.496-.272.419-.659.734-1.16.951-.501.218-1.097.328-1.792.328h-2.364l.817-.774v2.94h-1.8Zm1.8-2.74-.817-.852h2.266c.544 0 .959-.118 1.239-.355.28-.237.418-.568.418-.995 0-.426-.138-.757-.418-.99-.28-.233-.69-.347-1.24-.347h-2.265l.817-.853v4.393Zm3.126 2.74L42.36 5.064h1.922l1.946 2.806h-1.922ZM49.279 6.433h4.21V7.87h-5.986V.134h5.845v1.437h-4.065v4.862h-.004Zm-.13-3.193h3.721v1.405H49.15V3.24ZM54.915 7.87V.134h3.346c.691 0 1.291.11 1.792.336a2.63 2.63 0 0 1 1.16.967c.273.418.411.915.411 1.491 0 .577-.138 1.082-.41 1.496-.273.419-.66.734-1.16.951-.502.218-1.098.328-1.793.328h-2.364l.817-.774v2.94h-1.8Zm1.8-2.74-.818-.852h2.266c.544 0 .959-.118 1.24-.355.28-.237.417-.568.417-.995 0-.426-.138-.757-.418-.99-.28-.233-.69-.347-1.24-.347h-2.265l.817-.853v4.393Zm3.125 2.74-1.946-2.806h1.922l1.946 2.806H59.84Z" fill="#0800B9"/></svg>
