<svg xmlns="http://www.w3.org/2000/svg" width="24" height="24" fill="none"><path fill="#fff" d="m21.26 13.43-.03.15h.12c.06 0 .09-.03.1-.08 0-.05-.02-.08-.07-.08h-.12z"/><path fill="#FFF400" d="M10.21 10.71c-.66-.06-1.02.5-1.08.73h1.68s.11-.66-.61-.73zM21.43 13.12c-.26 0-.53.23-.58.49v.1c0 .21.12.35.35.35.26 0 .53-.23.59-.49v-.1c0-.21-.13-.35-.36-.35m-.02.54.09.19h-.14l-.08-.17h-.09l-.03.17h-.12l.11-.52h.23c.12 0 .19.06.17.17-.02.08-.08.14-.15.16z"/><path fill="#fff" d="M20 0H4C1.79 0 0 1.79 0 4v16c0 2.21 1.79 4 4 4h16c2.21 0 4-1.79 4-4V4c0-2.21-1.79-4-4-4M5.89 14.05l.37-1.75H4.42l-.37 1.75H2.99L4.06 9h1.05l-.5 2.35h1.84L6.95 9h1.04l-1.07 5.05H5.88zm5.76-1.74H8.91c-.19 1.43 1.57.84 1.92.57l.41.71c-.46.35-1.13.54-1.72.54-2.3 0-1.77-2.93-.7-3.77.47-.37.95-.48 1.31-.48.15 0 .93 0 1.36.59.5.69.15 1.84.15 1.84zm1.94-1.19c-.17.18-.25.48-.35.94l-.42 1.99h-1.05l.51-2.4c.14-.64.34-1.04.71-1.35.43-.35 1.07-.54 1.8-.35l-.2.95c-.42-.03-.77-.02-1.01.23zm2.97 2.94c-.84.23-1.51-.14-1.71-.52-.21-.41-.17-.79-.07-1.28L15.46 9h1.05l-.2.95h1.11l-.2.95h-1.11l-.27 1.28c-.08.38-.17.71-.02.88.12.12.34.2.92.13l-.19.88zm3.73-.01h-3.27l.19-.91 2.37-2.24h-1.89l.2-.95h3.27l-.19.9-2.38 2.26h1.91l-.2.95zm1.57-.47c-.06.3-.35.55-.66.55-.26 0-.44-.18-.44-.43v-.12c.08-.3.37-.55.68-.55.26 0 .44.19.43.43v.11z"/></svg>