<svg width="32" height="25" xmlns="http://www.w3.org/2000/svg"><g fill="none" fill-rule="evenodd"><g fill="#123274" fill-rule="nonzero"><path d="M28.232 5.215a10.675 10.675 0 0 1 3.033 6.746c.412 5.85-3.975 10.923-9.794 11.338a10.482 10.482 0 0 1-7.29-2.27l-.013.013a10.523 10.523 0 0 0 7.935 2.828c5.82-.415 10.207-5.488 9.794-11.326a10.553 10.553 0 0 0-3.665-7.33zM9.523 17.292c-.336.195-.413.467-.233.909.155.402.413.57.671.467.22-.078.245-.273.155-.753l-.039-.182c-.09-.467-.103-.674-.051-.882a.603.603 0 0 1 .387-.454c.477-.194.929.104 1.2.779.297.726.129 1.284-.426 1.517l-.142-.363c.4-.168.49-.545.284-1.077-.168-.428-.452-.622-.735-.505-.233.09-.284.31-.207.804l.026.207.026.182c.064.363.064.493.038.649a.575.575 0 0 1-.374.415c-.451.181-.877-.091-1.122-.688-.258-.661-.116-1.154.387-1.375l.155.35zm-.297-3.84l1.6-1.349.013.506-1.355 1.129.439.493.954-.026.013.389-2.722.065-.013-.39 1.07-.025h.285l-.09-.104-.091-.09-1.2-1.311-.013-.519zm1.2-4.229l1.045.376-.13.377-1.044-.377-1.884.571.155-.454 1.161-.324.142-.039c.052-.013.09-.026.194-.052-.09-.104-.117-.13-.207-.272l-.723-.986.155-.428 1.136 1.608zm1.845-5.033l-.58.713 1.715 1.414-.412.506-1.717-1.414-.567.7-.387-.324 1.56-1.92zm3.677-2.595l-1.367.804.296.506 1.265-.74.232.403-1.264.74.335.583 1.407-.83.258.441-1.962 1.155-1.38-2.361 1.935-1.142zm5.278 1.064l-.71.052-.348-.597-1.097.182-.155.674-.67.182.709-2.997.67-.104 1.6 2.608zm-1.561-1.414c-.155-.247-.207-.363-.297-.558a6.171 6.171 0 0 1-.116.623l-.117.519.788-.13-.258-.454zm5.922 2.296l-.568-.22.22-.818c.026-.09.051-.22.103-.389.039-.169.09-.298.116-.402.039-.104.065-.22.103-.337l.065-.195c-.155.272-.22.376-.374.597a2.615 2.615 0 0 1-.168.246l-.774 1.09-.49-.13-.155-1.31c-.013-.065-.013-.156-.026-.298-.013-.17-.013-.299-.026-.39V.648l-.065.337c-.077.364-.116.52-.219.947l-.232.883-.607-.091.684-2.673.916.182.13 1.271a5.1 5.1 0 0 1 .025.895c.103-.207.142-.272.258-.454a4.88 4.88 0 0 1 .207-.324l.722-1.038.865.299-.71 2.66z"/><path d="M20.387 8.808c-.335.285-.98.921-1.613 1.53l-.722.688a9.918 9.918 0 0 0-1.755-.155c-1.33 0-2.542.363-3.097.934-.206.22-.323.454-.31.7.013.649.749.973.968 1.051 1.174.441 2.168.312 3.2-.415.568-.402 1.265-1.05 1.807-1.57.425.091.89.22 1.406.377l.477.142c-.606.61-1.238 1.246-1.819 1.752l-.052.039c-.812.713-1.393 1.232-2.232 1.427-.593.13-1.02 0-1.148-.078-.013 0-.026.026-.026.026.49.402.955.635 1.742.57.761-.064 1.639-.544 2.529-1.388l1.213-1.193.851-.843 1.717.506c.012 0 .025.013.025.013-.013 0-1.058 1.037-1.058 1.037l-.916.908c-.929.909-1.445 1.389-1.987 1.778-.903.648-1.664.973-2.348 1.025-.349.026-.865 0-1.278-.247-.013 0-.038.013-.038.013.464.39 1.019.87 2 .843 1.096-.039 2.077-.557 3.587-1.959.696-.635 1.38-1.349 1.987-1.984l1.122-1.142a8.588 8.588 0 0 0 2.142.22c1.071-.025 1.974-.531 1.987-1.128.013-.428-.348-.662-.554-.804a2.411 2.411 0 0 0-1.317-.39c-.8 0-1.638.35-2.477 1.051l-.568.506c.013 0-.206-.052-.206-.052l-1.561-.44c.464-.429.851-.805 1.212-1.117.852-.765 1.807-1.076 2.362-1.115.4-.026 1.11.013 1.393.22.013 0 .026-.026.026-.026-.774-.661-1.432-.752-1.987-.752-.542 0-1.42.169-2.477.999-.44.337-.994.908-1.588 1.505l-.787-.247-.193-.065-.839-.26c.013 0 .478-.453.478-.453.567-.558 1.096-1.077 1.51-1.427 1.509-1.272 2.45-1.44 3.109-1.44.722 0 1.29.143 1.703.44.013 0 .026-.025.026-.025-.839-.765-1.445-1.012-2.503-1.025-.942-.013-2.052.493-3.123 1.44zm-5.91 4.528c-.49-.04-.722-.234-.722-.61 0-.052.039-1.245 2.761-1.388.31-.013.658-.026 1.187.026-.026 0-.31.272-.31.272l-.167.156c-.658.61-1.755 1.621-2.749 1.544zm11.058-.973c.788-.532 1.446-.818 1.846-.805.245.013.529.078.529.377 0 .31-.284.57-.865.765-.503.182-1.264.22-2.103.13.232-.195.426-.35.593-.467zM26.714 1.38a.49.49 0 0 1 .656-.26.488.488 0 0 1 .257.65.488.488 0 0 1-.656.26.49.49 0 0 1-.257-.65zm.828.404a.433.433 0 0 0-.172-.578.417.417 0 0 0-.57.16.433.433 0 0 0 .17.577c.2.116.457.044.572-.159zm-.3.145l-.086-.043-.028-.304-.086-.043-.114.217-.072-.044.257-.477.2.116c.086.043.157.116.1.217-.057.1-.143.086-.214.043l.043.318zm-.057-.405c.057.03.157.101.2.03.028-.044-.029-.102-.086-.116l-.128-.073-.072.13.086.03z"/></g><path d="M0 0h32v24H0z"/></g></svg>
