<svg xmlns="http://www.w3.org/2000/svg" width="16" height="16" viewBox="0 0 16 16"><path fill-rule="evenodd" d="M.547 9.525L.815 9.3c.217-.184.54-.204.826-.208l.071-.003a.36.36 0 0 1 .097.003l1.244.236c.544-.463 1.061-.936 1.563-1.394.438-.402.888-.813 1.36-1.222-1.372-.861-2.731-1.649-4.164-2.478l-.245-.143a11.346 11.346 0 0 0-.28-.153c-.724-.39-1.24-.7-1.284-1.124a.546.546 0 0 1 .209-.48l.682-.576c.284-.238.897-.266 1.29-.144l1.792.559 3.546 1.105 1.982.617L13.607.438c.162-.135.34-.243.53-.317.187-.074.378-.114.57-.12a1.37 1.37 0 0 1 .553.093 1.155 1.155 0 0 1 .712.845c.038.18.037.37-.002.562-.038.186-.11.368-.215.54a1.886 1.886 0 0 1-.402.468l-4.107 3.46.27 2.05.47 3.554.017.128.245 1.86c.012.087-.015.156-.014.238.004.423-.098.801-.347 1.01l-.682.575a.562.562 0 0 1-.413.142.511.511 0 0 1-.097-.018c-.306-.085-.503-.42-.692-.904a12 12 0 0 1-.196-.551c-.038-.112-.072-.216-.104-.301l-.11-.295c-.112-.306-.223-.599-.335-.899a109.868 109.868 0 0 0-1.403-3.63c-.878.61-1.666 1.285-2.496 1.994l-.56.477.02 1.268c.006.389-.133.742-.373.943l-.268.227c-.23.193-.479.36-.759.281-.282-.082-.407-.376-.484-.623l-.57-1.816-1.693-.87c-.23-.119-.499-.292-.531-.584-.033-.287.176-.506.406-.7"/></svg>