<svg xmlns="http://www.w3.org/2000/svg" width="21" height="20" viewBox="0 0 21 20"><path fill-rule="evenodd" d="M19.308 16.996a2.05 2.05 0 0 1-2.048 2.048H6.719a2.051 2.051 0 0 1-2.049-2.05v-6.863a2.05 2.05 0 0 1 2.05-2.049h10.54a2.05 2.05 0 0 1 2.05 2.05v6.864zM7.075.832c.99 0 1.822.655 2.109 1.551H4.966a2.22 2.22 0 0 1 2.11-1.55zM17.26 7.25a2.885 2.885 0 0 1 2.88 2.881v6.865a2.884 2.884 0 0 1-2.88 2.88H6.719a2.876 2.876 0 0 1-2.415-1.321H2.382A2.382 2.382 0 0 1 0 16.174V8.565c1.046.861 2.363 1.513 3.838 1.905v-.339c0-.173.021-.341.05-.506C2.334 9.187.985 8.435 0 7.455v-2.69a2.382 2.382 0 0 1 2.382-2.382h1.715A3.06 3.06 0 0 1 7.075 0a3.059 3.059 0 0 1 2.976 2.383h1.382a2.382 2.382 0 0 1 2.382 2.382V7.25h3.445zm-2.797 1.709a.416.416 0 0 0-.416.416v.618a2.06 2.06 0 0 1-2.058 2.058 2.06 2.06 0 0 1-2.057-2.058v-.618a.416.416 0 0 0-.833 0v.618a2.893 2.893 0 0 0 2.89 2.89 2.894 2.894 0 0 0 2.89-2.89v-.618a.416.416 0 0 0-.416-.416z"/></svg>