<svg xmlns="http://www.w3.org/2000/svg" width="18" height="14" viewBox="0 0 18 14"><path fill-rule="evenodd" d="M14.745 8.928a.904.904 0 1 1 0-1.808.904.904 0 0 1 0 1.808M9 4.263c-2.415 0-4.705.233-5.786.568.297-1.145.661-2.471.98-3.383.063-.18.1-.217.246-.25C5.23 1.014 6.978.9 9 .9c2.02 0 3.768.114 4.56.298.147.034.182.069.245.25.319.909.683 2.236.98 3.383-1.08-.335-3.37-.568-5.785-.568m3.226 5.548H5.774a.362.362 0 1 1 0-.725h6.452a.363.363 0 0 1 0 .725m-8.971-.883a.904.904 0 1 1 0-1.808.904.904 0 0 1 0 1.808M18 5.188a.778.778 0 0 0-.778-.779h-1a.776.776 0 0 0-.555.234c-.305-1.177-.677-2.534-1.013-3.492-.11-.316-.312-.695-.891-.83C12.897.12 11.116 0 9 0 6.883 0 5.102.12 4.237.32c-.58.136-.782.516-.892.83-.333.95-.709 2.323-1.012 3.494a.773.773 0 0 0-.555-.235h-1a.778.778 0 0 0 0 1.556H1.3c-.332.5-.568 1.083-.568 1.549 0 .715.375 2.559.609 3.64v1.877c0 .327.267.594.594.594h1.8a.596.596 0 0 0 .593-.594v-1.053h9.342v1.053c0 .327.267.594.593.594h1.8a.595.595 0 0 0 .593-.594v-1.876c.235-1.08.61-2.926.61-3.641 0-.466-.236-1.048-.568-1.549h.523c.43 0 .778-.348.778-.777"/></svg>