<svg xmlns="http://www.w3.org/2000/svg" width="19" height="18" viewBox="0 0 19 18"><path fill-rule="evenodd" d="M9.31 2.718c-3.843 0-5.94-.898-5.94-1.36C3.37.899 5.468 0 9.31 0c3.842 0 5.939.898 5.939 1.359 0 .461-2.097 1.359-5.94 1.359zm-.381 2.991C5.332 5.651 3.37 4.801 3.37 4.355V2.423c1.204.728 3.63 1.07 5.939 1.07 2.307 0 4.734-.342 5.939-1.07v1.932c0 .065-.074.184-.278.327-.01.007-.014.017-.022.023-.417.019-.82.085-1.214.175a6.72 6.72 0 0 0-4.806.83zM4.23 7.474c-.277 0-.536.076-.764.2-.056-.063-.096-.122-.096-.174V5.42c.964.582 2.71.914 4.552 1.025a6.82 6.82 0 0 0-1.649 2.192 13.102 13.102 0 0 1-.524-.095A1.62 1.62 0 0 0 4.23 7.474zm3.786 4.506a.902.902 0 0 1-.901.902H5.132v1.983a.902.902 0 0 1-1.803 0v-1.983H1.346a.902.902 0 0 1 0-1.803h1.983V9.096a.902.902 0 0 1 1.803 0v1.983h1.983c.497 0 .901.404.901.901zm4.377-6.514a6.058 6.058 0 0 1 6.051 6.052 6.058 6.058 0 0 1-6.051 6.05c-2.603 0-4.82-1.654-5.673-3.965h.395c.894 0 1.622-.728 1.622-1.623 0-.894-.728-1.622-1.622-1.622h-.659C7 7.574 9.454 5.466 12.393 5.466zm2.975 8.755V8.645a.388.388 0 0 0-.701-.228l-2.286 3.144-2.354-3.148a.388.388 0 0 0-.699.232v5.576a.388.388 0 0 0 .776 0v-4.41l1.972 2.636a.388.388 0 0 0 .31.155c.129.018.241-.06.314-.16l1.892-2.603v4.382a.388.388 0 0 0 .776 0z"/></svg>