<svg xmlns="http://www.w3.org/2000/svg" width="19" height="14" viewBox="0 0 19 14"><path fill-rule="evenodd" d="M1.836 5.772c0-.37.3-.672.672-.672h13.429c.37 0 .67.302.67.672v1.342H1.837V5.772zm2.886-3.497h2.572c.708 0 1.285.576 1.285 1.285v.643H3.437V3.56c0-.709.576-1.285 1.285-1.285zm6.429 0h2.57c.71 0 1.287.576 1.287 1.285v.643H9.865V3.56c0-.709.577-1.285 1.286-1.285zm6.428 4.796V5.786c0-.57-.249-1.083-.643-1.436V.643A.643.643 0 0 0 16.294 0H2.15a.643.643 0 0 0-.644.643V4.35a1.925 1.925 0 0 0-.642 1.436v1.285a.643.643 0 0 0-.643.644v4.5H1.4V13.5h1.928v-1.286h11.786V13.5h1.928v-1.286h1.18v-4.5a.643.643 0 0 0-.644-.643z"/></svg>