<svg xmlns="http://www.w3.org/2000/svg" width="20" height="15" viewBox="0 0 20 15"><path fill-rule="evenodd" d="M1.928.841c.133 0 .242.132.242.294v3.119c0 .013-.002.026-.004.04-.01.52-.26.964-.616 1.174v7.455c0 .312-.209.565-.466.565-.255 0-.464-.253-.464-.565V5.468c-.358-.21-.607-.656-.618-1.177L0 4.254v-3.12C0 .974.108.842.241.842s.241.132.241.294V4.03c.02.034.144.21.361-.003V1.135c0-.162.109-.294.241-.294.134 0 .242.132.242.294v2.892c.016.03.14.217.362.002V1.135c0-.162.109-.294.24-.294zm17.159.034c.445 0 .807-.05.807.924v11.09c0 .312-.22.566-.494.566s-.494-.254-.494-.566v-4.75c-.36-.094-.625-.46-.625-.899l.28-4.962c0-.51.082-1.403.526-1.403zM10.155 0a7.165 7.165 0 1 1 0 14.33 7.165 7.165 0 0 1 0-14.33zm0 12.348a5.189 5.189 0 0 0 5.183-5.183 5.19 5.19 0 0 0-5.183-5.184 5.19 5.19 0 0 0-5.184 5.184 5.19 5.19 0 0 0 5.184 5.183zm0-9.54a4.36 4.36 0 0 1 4.356 4.357 4.361 4.361 0 0 1-4.356 4.356 4.362 4.362 0 0 1-4.357-4.356 4.362 4.362 0 0 1 4.357-4.357z"/></svg>