<svg xmlns="http://www.w3.org/2000/svg" width="13" height="18" viewBox="0 0 13 18"><path fill-rule="evenodd" d="M12.354 3.76c.202 0 .366.164.366.367v13.506a.366.366 0 0 1-.366.367H.922a.366.366 0 0 1-.366-.367V4.127c0-.203.163-.367.366-.367h1.495v1.73a1.1 1.1 0 0 0 1.1 1.1 1.1 1.1 0 0 0 1.1-1.1V3.76h4.01v1.73a1.1 1.1 0 0 0 2.2 0V3.76h1.527zM3.517 5.858a.367.367 0 0 1-.367-.367V3.472A3.476 3.476 0 0 1 6.622 0a3.476 3.476 0 0 1 3.472 3.472v2.02a.367.367 0 0 1-.733 0v-2.02c0-1.51-1.23-2.739-2.74-2.739a2.742 2.742 0 0 0-2.738 2.74V5.49a.367.367 0 0 1-.366.367z"/></svg>