<svg height="18" viewBox="0 0 19 18" width="19" xmlns="http://www.w3.org/2000/svg"><path d="m17.924 10.753c.12.207.147.42.142.586-.004.166-.04.287-.048.311l-.651 2.028c-.184.573-.676.883-1.354.86l-4.171.001v2.736h3.7a.362.362 0 1 1 0 .725h-10.085a.362.362 0 1 1 0-.725h3.701v-2.736h-2.796c-.81 0-1.25-.333-1.479-.612a1.783 1.783 0 0 1 -.333-.478l-3.447-7.908a1.685 1.685 0 0 1 -.103-.311 1.385 1.385 0 0 1 -.103-.409 1.772 1.772 0 0 1 -.01-.122v-3.097c.002-1.267 1.212-1.602 1.85-1.602 1.46 0 1.846 1.048 1.846 1.602v2.864l.684 1.599h6.29c.587 0 1.07.252 1.323.693.222.385.224.859.007 1.237-.247.425-.73.668-1.328.668h-5.123l.75 1.766 3.994-.292c.067-.005.13-.004.193-.003a.772.772 0 0 1 .129-.013h5.092c.211 0 .431.047.455.052h.003c.411.093.705.288.872.58zm-10.251-6.967.19-1.107-.804-.784 1.111-.162.497-1.007.498 1.007 1.112.162-.805.784.19 1.107-.995-.523zm3.532 0 .19-1.107-.804-.784 1.112-.162.497-1.007.497 1.007 1.112.162-.805.784.19 1.107-.994-.523zm3.533 0 .19-1.107-.804-.784 1.112-.162.496-1.007.498 1.007 1.112.162-.805.784.19 1.107-.995-.523z" fill-rule="evenodd"/></svg>