<svg xmlns="http://www.w3.org/2000/svg" width="20" height="15" viewBox="0 0 20 15"><path fill-rule="evenodd" d="M19.6 3.976a1.37 1.37 0 0 1-1.938 1.937 10.779 10.779 0 0 0-5.591-2.975 10.885 10.885 0 0 0-6.149.595 10.785 10.785 0 0 0-3.583 2.38A1.37 1.37 0 0 1 .402 3.976 13.517 13.517 0 0 1 7.409.248a13.625 13.625 0 0 1 7.698.746A13.52 13.52 0 0 1 19.6 3.976zm-2.877 2.876a1.37 1.37 0 0 1-1.938 1.938 6.712 6.712 0 0 0-3.492-1.858 6.807 6.807 0 0 0-3.84.37A6.756 6.756 0 0 0 5.214 8.79a1.37 1.37 0 0 1-1.937-1.938 9.478 9.478 0 0 1 4.908-2.61 9.522 9.522 0 0 1 5.39.523 9.49 9.49 0 0 1 3.147 2.087zM13.845 9.73a1.37 1.37 0 1 1-1.937 1.937 2.691 2.691 0 0 0-2.923-.593 2.694 2.694 0 0 0-.893.593 1.368 1.368 0 0 1-1.937 0 1.368 1.368 0 0 1 0-1.937 5.443 5.443 0 0 1 1.316-.97 5.444 5.444 0 0 1 6.375.97zm-2.876 4.815a1.378 1.378 0 0 1-1.939 0 1.38 1.38 0 0 1-.4-.97c0-.36.146-.713.4-.968.257-.255.61-.401.97-.401s.714.146.97.4c.254.256.4.61.4.97 0 .361-.146.713-.4.969z"/></svg>