<svg xmlns="http://www.w3.org/2000/svg" width="227" height="43" viewBox="0 0 227 43"><g fill-rule="nonzero" fill="none"><path fill="#00818A" d="M189.061 18.01c-4.539-2.373-8.315-2.548-10.071-2.548h-6.135l-.327-.578h7.21c.494 0 6.474-.087 9.998.858 4.405 1.17 7.447 3.475 8.04 3.87.596.384 8.628 6.121 8.628 6.121s-1.348 1.383-2.669 1.383c-1.248 0-2.595-.963-2.595-.963s-4.305-3.096-4.96-3.554c-.657-.455-4.041-2.985-7.119-4.59"/><path fill="#00818A" d="M188.734 22.532c3.033 2.014 4.82 3.478 5.404 3.901.581.424 3.279 2.35 3.279 2.35s1.239.962 2.764.962c1.155 0 2.575-1.336 2.575-1.336s-6.447-4.538-7.031-4.946c-.59-.414-2.654-2.037-6.509-3.052-3.227-.846-7.806-.823-8.107-.823h-5.872l.348.592 4.758.009c.707 0 5.196.219 8.39 2.343m.986-9.27c3.91 2.098 7.78 4.99 8.501 5.518.722.519 6.603 4.72 6.603 4.72s1.373.926 2.63.926c1.23 0 2.61-1.354 2.61-1.354s-9.379-6.74-10.223-7.333c-.84-.598-4.218-3.359-9.642-4.648-4.25-1.071-11.334-.946-11.825-.946h-8.586l.345.593h7.499c1.549 0 7.537.078 12.088 2.524"/><path fill="#092048" d="M223.726 13.168c-1.16-.207-2.677-.297-2.677-.297l-2.078.595-1.187-.995s2.478.201 3.171.3c.59 0 .395-.3.094-.892-.293-.593-.985-.593-.985-.593h-6.237s-1.11.009-2.397-.289c-1.283-.297-1.791-1.26-1.791-1.26-.503 1.144 1.485 2.474 1.485 2.474l6.166 4.424c.792.493 1.488.096 1.488.096s1.58-.79 2.472-.99c.792-.197 3.265-.294 3.56-.197.696.099 1.488.793 1.488.793.397-2.775-1.389-2.956-2.572-3.169m-32.783-9.159c4.3 1.893 10.454 6.478 11.349 7.128.903.657 9.761 6.992 9.761 6.992s1.388.992 2.674.992c1.289 0 2.563-1.299 2.563-1.299v-.002s-12.52-8.988-13.426-9.627c-.9-.648-5.059-4.14-12.78-6.174C185.8.633 176.714.691 175.664.691h-11.337l.348.598h10.39c2.624 0 10.185.222 15.878 2.72"/><path fill="#092048" d="M190.283 8.62c-4.641-2.32-10.372-2.61-13.707-2.61h-9.174l-.342-.595h9.969c1.075 0 8.624-.076 13.62 1.054 5.76 1.31 10.713 5.086 11.233 5.447.494.342 11.86 8.486 11.86 8.486s-1.297 1.33-2.689 1.33c-1.283 0-2.674-.992-2.674-.992s-7.397-5.293-8.113-5.8c-.713-.511-5.655-4.162-9.983-6.32"/><path fill="#45423F" d="M23.828 34.942s-.696-.154-1.543-.154c-1.874 0-3.262.828-3.639 2.077-.085.23-.111.759-.111 1.016 0 1.581 1.105 2.468 2.467 2.468.36-.007.718-.076 1.055-.204.979-.356 1.77-1.01 1.77-2.01v-3.193h.001zm1.286 7.076c-.129 0-.67.03-.898-.224-.219-.204-.219-.502-.219-.756v-.797c-.812 1.206-2.198 2.023-4.273 1.976-3.267-.093-3.98-2.65-3.98-4.062 0-.499.044-1.45.786-2.46 1.154-1.625 3.551-2.15 5.684-2.15.918 0 1.614.13 1.614.13v-1.42c0-.51 0-1.375-.509-1.984-.43-.511-1.239-.885-2.665-.885-2.227 0-3.683 1.255-3.683 1.255l.27-1.683s1.501-1.019 3.921-1.019c2.023 0 3.414.555 4.235 1.38.941.98 1.18 1.88 1.18 3.692v9.007h-1.463zm8.989-12.197c-2.335.44-2.592 2.288-2.592 3.592v8.605h-2.753V29.725c0-1.182-.774-1.43-.774-1.43h2.715c.599 0 .812.336.812.71v.75c.08-.255 1.067-1.562 2.888-1.626.599-.024 1.271.026 1.645.245l.36 1.73c-.407-.227-1.172-.493-2.3-.283h-.001zm13.193 12.197c-.096 0-.663.03-.918-.224-.207-.204-.207-.572-.207-.756v-.797c-.743 1.208-2.078 1.976-3.91 1.976-1.436 0-2.409-.327-3.26-1.252-.89-.998-1.127-2.235-1.127-3.91v-7.54c0-.972-.84-1.234-.819-1.22h2.555c.634 0 1.014.321 1.014.794v8.27c0 2.448.73 3.133 2.446 3.133 1.409 0 2.946-.948 2.946-2.398v-9.799h2.724v13.723h-1.444zm37.611 0c-.57 0-.91-.239-.91-.936V24.884a1.58 1.58 0 0 0-.786-1.41h2.66c.79 0 1.143.377 1.143.952v17.592h-2.107zm37.432-12.588c-2.768-.032-3.256 2.825-3.256 5.857 0 3.778.953 5.585 3.256 5.585 2.034 0 2.978-2.34 2.978-5.585 0-2.647-.254-5.83-2.978-5.857zm-.053 12.787c-4.492-.02-6.11-2.81-6.11-6.997 0-3.814 1.618-7.252 6.11-7.228 4.548.029 5.939 3.46 5.939 7.228 0 3.857-2.19 7.026-5.939 6.997zm41.071-1.199c-.973.828-2.26 1.228-3.703 1.246h-.152c-2.154 0-3.334-.572-3.846-.87l-.392-1.625s1.883 1.225 3.84 1.225c1.886 0 2.967-1.015 2.839-2.684-.193-2.673-6.395-2.034-6.395-6.458 0-2.43 1.984-3.709 4.413-3.738h.16c2.511 0 3.447.879 3.447.879l.38 1.517s-1.076-1.06-3.233-1.06c-2.32 0-2.548 1.86-2.499 2.364.146 1.337 1.163 1.658 2.981 2.448 1.897.815 3.393 1.853 3.393 3.864 0 1.28-.49 2.261-1.233 2.892zm3.712 1c-.509 0-.783-.265-.783-.717V29.524c0-.908-.857-1.229-.857-1.229h2.797c.564 0 .783.292.783.817v12.906h-1.94zM91.681 28.295c.52 0 .786.248.786.71v1.076c.751-1.214 2.084-1.987 3.905-1.987 1.438 0 2.414.324 3.267 1.252.9 1.003 1.122 2.235 1.122 3.916v8.756H99.12c-.701 0-1.105-.472-1.105-1.129v-7.934c0-2.445-.73-3.134-2.434-3.134-1.415 0-2.958.949-2.958 2.41v9.787h-2.724V29.48c0-.966-.76-1.185-.76-1.185h2.542zm87.204 6.647s-.699-.154-1.543-.154c-1.874 0-3.265.828-3.648 2.077-.082.23-.105.759-.105 1.016 0 1.581 1.108 2.468 2.467 2.468.257 0 .695-.058 1.055-.204.976-.356 1.774-1.01 1.774-2.01v-3.193zm1.286 7.076c-.14 0-.667.03-.906-.224-.196-.204-.196-.502-.196-.756v-.797c-.83 1.206-2.213 2.023-4.296 1.976-3.262-.093-3.975-2.65-3.975-4.062 0-.499.044-1.45.792-2.46 1.149-1.625 3.54-2.15 5.673-2.15.923 0 1.622.13 1.622.13v-1.42c0-.51.079-1.307-.485-1.99-.415-.525-1.29-.896-2.777-.879-2.543.044-3.595 1.255-3.595 1.255l.27-1.683s1.493-1.019 3.918-1.019c2.023 0 3.411.555 4.235 1.38.95.98 1.175 1.88 1.175 3.692v9.007h-1.455zM59.366 32.911c0-.776-.1-1.917-.722-2.57-.435-.456-1.128-.777-2.11-.777-2.668 0-2.97 3.546-2.97 5.454v.202c.024 2.705.793 5.392 3.026 5.392 1.213 0 2.051-.467 2.776-1.38v-6.321zm.848 9.107c-.54 0-.722-.18-.722-.674v-.674c-1.032.92-2.031 1.526-3.542 1.547h-.056c-3.922 0-5.29-3.312-5.29-6.997 0-2.758 1.058-7.228 5.422-7.228 2.618 0 3.34 1.572 3.34 1.572v-4.68c0-.983-.81-1.482-.81-1.482h2.131c.821 0 1.426.566 1.426 1.181v17.435h-1.9.001zm11.991-7.076s-.696-.154-1.54-.154c-1.874 0-3.265.828-3.65 2.077-.076.23-.106.759-.106 1.016 0 1.581 1.105 2.468 2.467 2.468.36-.006.716-.075 1.052-.204.973-.356 1.777-1.01 1.777-2.01v-3.193zm1.277 7.076c-.125 0-.67.03-.9-.224-.207-.204-.207-.502-.207-.756v-.797c-.816 1.206-2.204 2.023-4.282 1.976-3.256-.093-3.983-2.65-3.983-4.062 0-.499.05-1.45.794-2.46 1.158-1.625 3.543-2.15 5.679-2.15a9.687 9.687 0 0 1 1.622.13v-1.42c0-.51 0-1.375-.511-1.984-.43-.511-1.243-.885-2.663-.885-2.227 0-3.688 1.255-3.688 1.255l.269-1.683s1.505-1.019 3.922-1.019c2.025 0 3.416.555 4.238 1.38.94.98 1.177 1.88 1.177 3.692v9.007h-1.467zm38.028-9.107c0-.776-.102-1.917-.718-2.57-.433-.456-1.128-.777-2.107-.777-2.672 0-2.981 3.546-2.981 5.454v.202c.026 2.705.8 5.392 3.036 5.392 1.216 0 2.049-.467 2.77-1.38v-6.321zm.86 9.107c-.544 0-.73-.18-.73-.674v-.674c-1.032.92-2.038 1.526-3.546 1.547h-.076c-3.904 0-5.26-3.312-5.26-6.997 0-2.758 1.049-7.228 5.412-7.228 2.622 0 3.34 1.572 3.34 1.572v-4.68c0-.983-.809-1.482-.809-1.482h2.14c.82 0 1.417.566 1.417 1.181v17.435h-1.888zm19.572-13.723c.53 0 .79.248.79.71v1.076c.745-1.214 2.077-1.987 3.91-1.987 1.438 0 2.405.324 3.261 1.252.895 1.003 1.129 2.235 1.129 3.916v8.756h-1.646c-.692 0-1.102-.472-1.102-1.129v-7.934c0-2.445-.733-3.134-2.443-3.134-1.409 0-2.949.949-2.949 2.41v9.787h-2.727V29.48c0-.966-.76-1.185-.76-1.185h2.537zm-120.6 13.823c-1.101.146-1.768.201-2.846.201-2.823 0-4.618-.855-5.983-2.186C.511 38.153 0 34.863 0 32.806c0-1.651.28-4.916 2.949-7.426 1.233-1.153 3.16-2.133 6.032-2.133 2.569 0 3.802.73 3.802.73l.48 1.695c-.106-.05-1.43-.811-3.639-.811-4.533 0-6.435 3.11-6.435 7.945 0 7.319 3.568 7.902 5.587 7.902 1.438 0 2.017-.227 2.017-.227v-7.266H9.221c-1.061 0-1.514.163-1.514.163l.228-1.47h5.824v9.682c-.95.253-1.464.402-2.417.528zm134.486-6.96s.692.152 1.543.152c3.05 0 3.75-1.494 3.884-3.227.114-1.544-.298-3.082-2.689-2.784-2.166.268-2.747 1.687-2.747 3.446 0 1.46.009 2.413.009 2.413zm4.109-7.216c3.255.234 3.98 2.658 3.98 4.065 0 .502-.05 1.453-.795 2.46-1.151 1.628-3.545 2.147-5.672 2.147-.93 0-1.622-.125-1.622-.125v1.266c0 2.399 1.283 3.05 3.398 3.02 2.362-.029 4.238-1.49 4.238-1.49l-.269 1.689s-2.148 1.246-4.562 1.246c-2.025 0-3.56-.54-4.37-1.383-1.01-1.045-1.18-2.449-1.18-4.255v-3c0-2.553 1.055-6.054 6.854-5.64z"/></g></svg>