<svg xmlns="http://www.w3.org/2000/svg" width="111" height="38" viewBox="0 0 111 38"><g fill-rule="nonzero" fill="none"><path fill="#D0383F" d="M25.423 36.968c-6.946-3.304-13.071-7.93-18.157-13.563h6.345l.565-2.285h-4.01c-.115 0-.228.002-.341-.012-.602-.077-.958-.33-1.153-.635a1.39 1.39 0 0 1-.217-.935c.007-.067.217-.944.231-1.02l.003-.02.597-2.391c.267-1.106 1.191-1.766 2.428-1.802h4.113l.547-2.264h-2.826l-3.557 1.334.34-1.334h-.504c-1.14-.017-1.937.086-2.5.348-.506.233-.889.62-1.045 1.197L4.638 20.3a62.11 62.11 0 0 1-3.966-5.666c-.759-1.216-.448-2.893.765-3.72C10.792 4.544 21.854.958 33.181.694c1.468-.034 2.712 1.117 2.832 2.566.239 2.94.243 5.89.017 8.822l-6.036-.003-5.73 11.304h4.185l.676-1.504c.065-.154.135-.202.332-.195h3.001c.056-.004.183.017.188.164l.039 1.535h1.355a60.175 60.175 0 0 1-5.004 12.405c-.686 1.269-2.308 1.8-3.613 1.18zM21.24 23.405c3.485-.002 4.817-3.583 2.547-5.292l-2.742-2.035c-.768-.476-.508-1.773.672-1.752h4.291l.556-2.268h-6.395c-3.524.022-4.515 3.482-2.414 4.972 1.038.737 1.714 1.319 2.76 2.047 1.065.726.343 2.031-1.15 2.026h-4.36l-.55 2.302h6.785zm11.336-3.773l-.137-4.626c-.005-.16-.142-.17-.219-.012l-2.108 4.674c-.087.18-.029.358.127.344h2.116c.183-.012.24-.156.221-.38z"/><path fill="#005186" d="M65.516 13.704c-.443 0-.823.07-1.143.206-.3.137-.549.34-.737.606v.005l-.002.002a1.976 1.976 0 0 0-.144.248c-.048.096-.092.2-.13.303-.111.302-.193 1.057-.243 1.838h6.426v1.665h-6.496v.173c-.007.498.04.995.142 1.483.096.39.233.694.407.915h.004c.178.212.42.375.725.483.322.113.722.171 1.191.171h4.027v1.663h-4.157c-.446.001-.89-.026-1.333-.08-.252-.03-.5-.08-.744-.15h-.005l-.002-.003a4.11 4.11 0 0 1-.214-.07h-.003l-.214-.084a4.591 4.591 0 0 1-1.032-.627 4.21 4.21 0 0 1-.78-.82 4.61 4.61 0 0 1-.556-1.026v-.004a4.771 4.771 0 0 1-.212-.666c-.152-.591-.224-1.252-.224-1.99 0-.987.106-1.853.323-2.593.219-.75.556-1.365.996-1.855l.002-.005c.126-.132.263-.262.407-.38.15-.117.301-.225.462-.326.83-.498 1.902-.745 3.216-.745h4.07v1.663h-4.027zm18.371-1.435v4.643h3.78v-4.871h2.767v11.424h-2.768v-4.888h-3.779v4.888h-2.765V12.041h2.765v.228zm-30.96 9.533h6.298v1.663h-9.731v-1.764l6.614-7.997h-6.614v-1.663h9.73v1.78l-6.298 7.981h.001zm-8.434-8.098c-.448 0-.83.07-1.144.206-.297.13-.552.34-.736.606v.005l-.003.002c-.053.08-.102.163-.146.248-.046.096-.092.2-.128.303-.207.567-.313 2.703-.313 3.676 0 .582.046 1.077.142 1.483.094.39.231.694.41.915h.004c.171.212.414.375.725.483.322.113.72.171 1.189.171h4.021v1.663H44.36a10.61 10.61 0 0 1-1.333-.08c-.252-.03-.5-.08-.744-.15l-.005-.003c-.072-.022-.146-.043-.219-.07-.07-.029-.14-.055-.214-.084h-.002a4.602 4.602 0 0 1-1.028-.627 4.126 4.126 0 0 1-.78-.82 4.518 4.518 0 0 1-.553-1.026l-.003-.004a3.135 3.135 0 0 1-.115-.325c-.036-.106-.065-.22-.099-.341a8.034 8.034 0 0 1-.226-1.99c0-.987.11-1.853.327-2.593.221-.75.554-1.365.996-1.855l.003-.005c.127-.136.264-.263.41-.38.143-.117.298-.225.456-.326.83-.498 1.902-.745 3.216-.745h4.067v1.663h-4.021zm31.368 0c-.446 0-.833.07-1.141.206-.298.13-.554.34-.741.606v.005l-.003.002c-.054.08-.103.163-.147.248-.047.099-.09.2-.127.303-.207.567-.308 2.703-.308 3.676 0 .582.045 1.077.137 1.483.094.39.231.694.41.915.175.212.415.375.726.483.325.113.724.171 1.194.171h4.024v1.663h-4.16c-.445.001-.889-.026-1.33-.08a4.855 4.855 0 0 1-.746-.15l-.005-.003c-.07-.022-.142-.043-.219-.07-.07-.029-.14-.055-.212-.084a4.533 4.533 0 0 1-1.032-.627 4.21 4.21 0 0 1-.78-.82 4.5 4.5 0 0 1-.554-1.026l-.002-.004a4.648 4.648 0 0 1-.116-.325 6.642 6.642 0 0 1-.098-.341c-.15-.591-.222-1.252-.222-1.99 0-.987.106-1.853.323-2.593.221-.75.553-1.365.996-1.855l.003-.005c.125-.132.262-.262.406-.38.149-.118.305-.227.467-.326.823-.498 1.897-.745 3.211-.745h4.07v1.663H75.86h.001zM53.778 25.803h5.685c.681 0 1.278.07 1.781.204.518.145.944.36 1.28.647l.003.002.002.003c.094.084.183.17.265.264.084.096.157.197.224.305.344.54.515 1.245.515 2.1 0 .438-.053.842-.152 1.204-.103.37-.26.697-.467.986v.004l-.002.003a2.41 2.41 0 0 1-.395.437l.003.003a2.951 2.951 0 0 1-1.083.596l2.585 4.32.204.344h-3.131l-.068-.115-2.358-4.196h-2.354v4.31h-2.768v-11.42h.231v-.001zm5.139 1.663h-2.602v3.795h2.602c.72 0 1.21-.147 1.468-.447a.69.69 0 0 0 .089-.12c.024-.041.05-.087.077-.142h.002c.12-.28.183-.678.183-1.195 0-.704-.113-1.187-.34-1.449-.117-.14-.298-.247-.531-.322a3.23 3.23 0 0 0-.948-.12zm45.549.118c-1.134 0-2.084.488-2.07 1.636.005.541.3 1.437 1.6 1.459h2.737c.638 0 1.29.05 1.899.252.383.128.698.298.944.517.758.68.88 1.235.88 2.268v.005c0 .985-.233 1.995-1.008 2.656-.655.564-1.68.848-3.06.848h-6.377v-1.762h5.839c1.28 0 1.754-.85 1.78-1.437.042-.771-.293-1.689-1.6-1.689h-2.58c-.994 0-2.137-.134-2.92-.81h-.002l-.002-.002-.005-.003c-.592-.511-.95-1.357-.95-2.133 0-.99.22-2.043 1-2.723.824-.723 2.032-.863 3.084-.863h6.27v1.78h-5.46l.001.001zm-26.302-1.78h3.054l.065.115 4.063 7.108-.101-6.993-.005-.23h2.82v11.42h-3.04l-.07-.114-4.28-7.527.094 7.411.003.23h-2.833v-11.42h.231-.001zm-1.969 11.42H73.55v-11.42h2.872v11.42h-.227zm-6.601.001c-.513 0-.966-.02-1.356-.065-.057-.01-.122-.017-.183-.024h-.002a3.846 3.846 0 0 1-1.028-.267c-.07-.031-.142-.062-.214-.103a3.818 3.818 0 0 1-1.288-1.115 3.267 3.267 0 0 1-.522-1.014 5.026 5.026 0 0 1-.18-.909c-.038-.39-.055-.78-.053-1.172v-6.753h2.763v7.289c0 .312.007.576.019.805.05.74.282 1.264 1.016 1.518.392.133.837.15 1.246.15h2.949v1.66h-3.168.001zm-17.82 0h-2.641V25.803h2.866v11.422h-.226.001zM41.159 25.803h2.597l.06.137L48.5 36.908l.137.317h-3.071l-.058-.147L44.32 34h-3.993l-1.152 3.078-.06.147h-2.947l.135-.315 4.645-10.97.063-.137h.15-.002zm1.139 3.035l-1.331 3.5 2.705-.006-1.374-3.494zm52.295-1.372c-.443 0-.83.067-1.14.207-.298.13-.555.341-.742.608v.002l-.003.005c-.05.07-.103.156-.142.243-.05.098-.098.2-.13.302-.113.306-.192 1.063-.245 1.846h6.426v1.658h-6.491v.175c0 .582.046 1.077.14 1.483.096.39.23.695.409.916.193.225.445.392.727.483.322.115.72.17 1.191.17h4.024v1.66h-4.154c-.43 0-.823-.016-1.167-.057-.05-.007-.111-.012-.169-.019a4.942 4.942 0 0 1-.743-.151h-.003l-.005-.003a5.518 5.518 0 0 1-.43-.156 4.559 4.559 0 0 1-1.03-.622 4.254 4.254 0 0 1-.78-.817 4.736 4.736 0 0 1-.556-1.029l-.003-.012c-.038-.106-.082-.214-.115-.322-.032-.108-.068-.219-.099-.339a8.09 8.09 0 0 1-.221-1.985c0-.992.108-1.855.322-2.6.222-.745.554-1.365.999-1.853l.002-.004c.254-.276.547-.513.87-.704.83-.5 1.898-.748 3.212-.748h4.07v1.663h-4.024z"/></g></svg>