<svg xmlns="http://www.w3.org/2000/svg" width="77" height="20" fill="none"><path fill="#B4975A" d="M65.332 6.708c.47-.44 1.351-.796 2.965-.869 3.19-.148 3.682-.317 4.845-.923 1.034-.539 2.138-1.59 2.51-2.668-.589.361-1.286.624-2.013.818-1.698.451-3.58.529-4.662.529-.24 0-.438-.003-.588-.008-1.303-.039-1.884-.13-3.257-.13-.212 0-.446.003-.702.008-1.255.021-2.12.807-2.472 1.202a2.66 2.66 0 0 0-.082.094c.446.518.947.965 1.28 1.282.248.243.912.753 1.704 1.417.058-.196.19-.487.473-.752h-.001Z"/><path fill="#B4975A" d="M64.424 3.18c.258-.004.493-.008.706-.008 1.39 0 1.977.092 3.267.13.147.005.343.008.58.008 1.067 0 2.931-.077 4.588-.52 1.687-.396 2.894-1.268 3.316-2.445-1.369 1.372-4.925 1.44-6.97 1.289-2.123-.157-5.877-.839-6.547-.893-.391-.023-.87-.039-1.32.167-.45.209-.856.647-1.059 1.273a1.762 1.762 0 0 0-.083.535c-.008.631.341 1.26.787 1.822.339-.396 1.28-1.327 2.733-1.36l.002.002Z"/><path fill="#A7A9AC" d="M64.76 16.327c0-.485-.12-.937-.292-1.267-.787-1.528-2.425-3.062-3.862-4.661-1.448-1.632-4.292-4.097-4.314-6.529 0-.319.09-.606.22-.903-.52.588-2.318 2.935-1.25 6.245.384 1.188 1.666 2.76 3.018 4.727 1.302 1.895 1.598 4.345 1.528 5.67 4.051-.182 4.936-1.857 4.95-3.283l.001.001Z"/><path fill="#B4975A" d="M73.275 5.17c-1.183.624-1.786.814-4.965.955-2.606.129-3.054 1.26-3.155 1.589.33.283.674.586 1.016.908.605.57 1.22 1.153 1.728 1.755-.005-1.565 1.194-1.763 1.477-1.935.368-.223 1.137-.35 2.783-1.296 1.761-1.013 2.15-2.404 2.228-2.804a4.75 4.75 0 0 1-1.112.83v-.001Z"/><path fill="#A7A9AC" d="M65.89 8.922c-1.28-1.204-2.56-2.21-2.985-2.62-.693-.689-2.342-2.002-2.36-3.584a2.1 2.1 0 0 1 .102-.645c.23-.727.89-1.153 1.41-1.388-1.061-.134-4.275.112-5.184 2.023a2.404 2.404 0 0 0-.243 1.066c-.022 2.153 2.692 4.682 4.177 6.318 1.422 1.587 3.146 3.085 3.982 4.698.198.385.375.925.357 1.483-.046 1.349-.517 1.838-.757 2 5.143-2.762 4.17-5.429 4.17-5.429-.213-1.236-1.39-2.725-2.67-3.922Z"/><path fill="#B4975A" d="m49.556 10.005 1.93-5.645h-1.16l-1.931 5.645h1.161ZM32.37 10l1.928-5.64h-1.16L31.21 10h1.16ZM23.93 10l1.93-5.64h-1.162L22.77 10h1.16ZM48.43 4.36l-1.489 4.398h-.917l.16-.474c.183-.541-.063-.98-.553-.98H42.4c-.2 0-.407.07-.596.196l1.063-3.141h-1.16l-1.488 4.397h-.761l.514-1.514h-1.164l-.51 1.514h-2.85l.355-1.049h-1.332l-.813 2.406h-1.101c-.095.36-.06.663.105.91.162.245.484.336.82.336.335 0 .637-.074.941-.32.307-.246.446-.564.568-.925L35.03 10l12.653.003 1.908-5.643h-1.16ZM44.84 8.835h-3.49c.083-.246.199-.442.418-.442h2.823c.221 0 .331.198.249.442ZM27.913 8.888c-.634.159-1.05.823-1.166 1.226-.094.362-.059.665.104.911.162.245.717.475 1.05.475.332 0 1.13 0 1.805-.46.322-.22.628-.565.749-.926l.813-2.405h-1.333L29.16 10h-1.622l.374-1.111h.001ZM23.99 4.36h-1.16l-1.506 4.397H18.58l.048-.142c.075-.22.294-.397.492-.397h1.381l.426-1.247c-.234 0-.248.14-.492.14h-2.051c-.246 0-.575.22-.668.49l-.392 1.156h-1.43c0-.58-.38-.994-.995-.994s-1.29.414-1.7.994h-1.634l1.503-4.397h-1.16L9.979 10h2.855c.067.487.43.82.982.82.553 0 1.154-.333 1.567-.82h6.676l1.927-5.64h.003Zm-9.23 4.906c-.087.238-.337.432-.561.432-.225 0-.34-.194-.252-.432.083-.24.334-.434.558-.434.224 0 .34.193.257.434h-.002ZM9.05 7.68l-.39 1.089H6.705l.733-2.129c-.11.027-.452.47-.939.47H4.447c-.243 0-.574.222-.666.49l-.037.109-.204.602L2.97 10H1.346l.377-1.112c-.637.159-1.051.822-1.169 1.226-.093.362-.059.665.105.911.164.245.718.475 1.052.475.334 0 1.128 0 1.803-.46.322-.22.628-.565.75-.926l.46-1.356.138-.41h.826l-.559 1.65 3.886-.039a.442.442 0 0 0 .253-.088.439.439 0 0 0 .175-.226l.665-1.968H9.05v.003ZM9.27 6.639c-.043.335.165.606.466.606.302 0 .582-.27.625-.606.045-.334-.162-.605-.464-.605-.301 0-.581.27-.625.605h-.001ZM1.891 12.264c-.04.3.146.541.415.541s.515-.241.557-.541c.038-.297-.146-.54-.415-.54s-.518.243-.557.54ZM.62 12.264c-.04.3.145.541.414.541.27 0 .519-.241.557-.541.039-.297-.147-.54-.416-.54s-.516.243-.557.54H.62Z"/><path fill="#B4975A" d="M37.721 11.053c-.039.297.144.538.415.538.27 0 .518-.241.556-.538.04-.297-.145-.54-.414-.54-.27 0-.517.242-.557.54ZM36.448 11.053c-.039.297.147.538.415.538.267 0 .516-.241.558-.538.037-.297-.147-.54-.416-.54-.27 0-.518.242-.558.54h.001ZM28.264 7.503c-.043.334.164.605.468.605.303 0 .58-.27.623-.605.045-.334-.163-.604-.464-.604-.302 0-.583.27-.627.604ZM18.492 5.457c-.303 0-.581.27-.626.605a.834.834 0 0 0-.005.137c0 .101-.619.137-.619.137l-.154.491s.769-.08 1.291-.162c.024-.003.045-.005.067-.01h.001c.254-.06.472-.302.508-.593.045-.334-.163-.605-.463-.605Zm.085.613c-.012.114-.11.207-.213.207-.104 0-.175-.093-.158-.207.016-.115.111-.206.215-.206s.173.093.158.206h-.002Z"/><path fill="#A7A9AC" d="m.46 17.66.455-1.446C1.41 14.64 2.776 14.34 4.57 14.34c1.792 0 2.973.3 2.48 1.874l-.456 1.447c-.493 1.574-1.86 1.874-3.654 1.874-1.795 0-2.972-.3-2.478-1.874Zm4.36-.151.363-1.152c.238-.757-.065-.832-.985-.832-.92 0-1.244.075-1.509.832l-.361 1.152c-.212.762.063.838.983.838.92 0 1.27-.076 1.51-.838ZM8.618 19.497H6.85l1.606-5.115h2.8l.256 3.212h.063l2.21-3.213h2.873l-1.606 5.116h-1.766l1.408-3.923h-.062l-2.911 3.923h-1.53l-.467-3.923h-.051l-1.055 3.923ZM18.016 18.615l-.602.882h-1.837l3.593-5.115h2.685l.411 5.115h-1.803l-.068-.882h-2.38Zm2.21-3.211h-.017l-1.5 2.216h1.644l-.127-2.216ZM24.494 19.497h-1.768l1.604-5.115h2.988l.666 3.928h.072l1.126-3.928h1.768l-1.604 5.115H26.33l-.64-3.93h-.072l-1.125 3.93ZM35.132 18.615l-.603.882h-1.84l3.594-5.115h2.685l.411 5.115h-1.803l-.07-.882H35.13h.002Zm2.21-3.211h-.017l-1.5 2.216h1.644l-.127-2.216ZM41.59 19.497H39.82l1.606-5.115h1.766l-1.604 5.115ZM44.245 14.38h3.412c1.522.02 2.193.272 1.794 1.548-.266.854-.423 1.35-1.749 1.576l-.019.056c.72.02 1.092.326.908.906l-.321 1.03h-1.768l.226-.717c.136-.382.006-.642-.525-.642h-1.369l-.427 1.358H42.64l1.605-5.115Zm2.331 2.57c.76 0 .803-.217.984-.797.142-.457.034-.587-.55-.587h-1.37l-.434 1.385h1.37Z"/></svg>