<svg width="87" height="40" viewBox="0 0 87 40" fill="none" xmlns="http://www.w3.org/2000/svg">
<g clip-path="url(#clip0_1813_11460)">
<mask id="mask0_1813_11460" style="mask-type:alpha" maskUnits="userSpaceOnUse" x="40" y="0" width="17" height="11">
<path d="M54.964 0C53.8705 0.0143885 51.9137 0.402878 48.1583 1.68345C45.9856 2.41727 43.1079 3.64029 40.1583 4.76259C41.7986 5.52518 43.4101 6.23022 44.705 6.80576C48.8777 5.10791 52.0719 4.14389 52.0719 4.14389C52.0719 4.14389 51.5539 5.48202 49.3093 8.8777C50.3885 9.35252 51.741 9.92806 52.6043 10.2014C55.7698 5.84173 57.7985 1.85612 56.446 0.489209C56.2158 0.258993 55.928 0 55.0791 0H54.964Z" fill="white"/>
</mask>
<g mask="url(#mask0_1813_11460)">
<path d="M35.3381 3.43896L51.8273 -8.34521L62.6043 6.74831L46.1007 18.5325L35.3381 3.43896Z" fill="url(#paint0_linear_1813_11460)"/>
</g>
<mask id="mask1_1813_11460" style="mask-type:alpha" maskUnits="userSpaceOnUse" x="43" y="11" width="8" height="8">
<path d="M43.3237 18.4749C44.4316 19.3382 45.2662 18.8778 46.1295 18.2303C46.1295 18.2303 46.0432 18.3166 45.8705 18.4605C47.0216 17.4821 48.4604 15.9713 50.5036 13.4533C49.4244 12.8058 48.3453 12.1584 47.4676 11.6404L43.3237 18.4749Z" fill="white"/>
</mask>
<g mask="url(#mask1_1813_11460)">
<path d="M39.8561 13.8275L48.4892 8.40308L53.9856 17.1657L45.3669 22.5757L39.8561 13.8275Z" fill="url(#paint1_linear_1813_11460)"/>
</g>
<mask id="mask2_1813_11460" style="mask-type:alpha" maskUnits="userSpaceOnUse" x="27" y="0" width="29" height="26">
<path d="M28.4029 0.920883C28.3309 0.920883 28.259 0.935271 28.1871 0.920883C28.1007 0.920883 27.9281 1.05038 27.9281 1.05038C24.1439 3.28059 35.3957 21.295 40.3885 24.6331C41.0791 25.0935 42.3453 25.5971 43.4532 25.2374C43.5827 25.1943 43.8705 24.9784 43.8849 24.964C43.8993 24.9353 47.2086 21.1079 47.2086 21.1079C47.1655 20.8058 46.8633 20.9784 46.8201 21.0072C45.5396 21.9425 44.4029 21.4245 40.9353 17.8993C37.2374 14.1439 33.6547 7.58275 33.6547 7.58275L50.3022 15.0792C51.4101 15.5828 52.0288 15.295 52.3453 15.0792C52.4317 15.0216 55.4532 11.3957 55.4532 11.3957C55.4676 11.1511 55.1942 11.2806 55.1942 11.2806C54.2302 11.8849 53.482 11.4389 51.9137 10.8058C50.8489 10.3741 39.6978 5.45326 35.7266 3.56836C30.6331 1.1511 29.223 0.906494 28.6043 0.906494C28.518 0.920883 28.4604 0.920883 28.4029 0.920883Z" fill="white"/>
</mask>
<g mask="url(#mask2_1813_11460)">
<path d="M38.9928 41.2517L11.8273 12.6186L40.6331 -14.7195L67.7986 13.9136L38.9928 41.2517Z" fill="url(#paint2_linear_1813_11460)"/>
</g>
<path d="M41.1511 30.4604C41.2518 30.4604 41.3525 30.4604 41.4676 30.4604C41.5827 30.4604 41.6978 30.4604 41.8129 30.4892C41.9281 30.518 42.0144 30.5612 42.0863 30.6331C42.1583 30.7051 42.187 30.8058 42.187 30.9497V35.9137C42.187 36.4748 42.0863 36.9928 41.8705 37.4676C41.6547 37.9425 41.3813 38.3453 41.0216 38.6763C40.6619 39.0216 40.2446 39.2806 39.7698 39.4676C39.295 39.6547 38.777 39.7554 38.2302 39.7554C37.6834 39.7554 37.1655 39.6547 36.6763 39.4676C36.187 39.2806 35.7698 39.0216 35.4101 38.6763C35.0504 38.331 34.777 37.9281 34.5611 37.4676C34.3453 36.9928 34.2446 36.4748 34.2446 35.9137C34.2446 35.0792 34.2446 34.2446 34.259 33.4389C34.259 32.6187 34.2734 31.7986 34.2734 30.964C34.2734 30.8489 34.3165 30.7626 34.3885 30.7051C34.4748 30.6475 34.5611 30.6043 34.6763 30.5756C34.7914 30.5468 34.9065 30.5468 35.0216 30.5324C35.1367 30.5324 35.2374 30.518 35.3093 30.518C35.4101 30.518 35.5396 30.5468 35.6834 30.6187C35.8273 30.6907 35.8993 30.7914 35.8993 30.9209V35.5684C35.8993 35.9281 35.9568 36.259 36.0432 36.5612C36.1439 36.8777 36.2878 37.1511 36.4892 37.3957C36.6906 37.6403 36.9352 37.8274 37.223 37.9712C37.5108 38.1151 37.8417 38.1871 38.2158 38.1871C38.5899 38.1871 38.9209 38.1151 39.2086 37.9712C39.4964 37.8274 39.741 37.6403 39.9424 37.3957C40.1439 37.1655 40.2878 36.8777 40.3885 36.5612C40.4892 36.2446 40.5324 35.9137 40.5324 35.554V30.9353C40.5324 30.7626 40.5899 30.6475 40.7194 30.5756C40.8633 30.4892 41.0072 30.4604 41.1511 30.4604Z" fill="#022A4C"/>
<path d="M47.295 39.7554C46.6475 39.7554 46 39.6402 45.3669 39.3956C44.7338 39.151 44.1727 38.8057 43.6978 38.3453C43.6547 38.3021 43.6259 38.2589 43.5971 38.187C43.5683 38.1151 43.554 38.0575 43.554 38C43.554 37.9136 43.5971 37.8273 43.6691 37.7122C43.741 37.6115 43.8417 37.5107 43.9424 37.41C44.0432 37.3093 44.1583 37.2374 44.2734 37.1798C44.3885 37.1223 44.4892 37.0935 44.5755 37.0935C44.705 37.0935 44.8345 37.151 44.9928 37.2661C45.1511 37.3813 45.3381 37.5107 45.5683 37.6402C45.7986 37.7841 46.0432 37.8992 46.3453 38.0143C46.6331 38.1295 46.9784 38.187 47.3813 38.187C47.5971 38.187 47.8273 38.1726 48.0719 38.1295C48.3165 38.1007 48.5611 38.0287 48.7626 37.928C48.9784 37.8273 49.1511 37.6978 49.295 37.5107C49.4388 37.3381 49.5108 37.1223 49.5108 36.8489C49.5108 36.6043 49.4245 36.4028 49.2662 36.2589C49.0935 36.1151 48.8777 36.0143 48.6043 35.928C48.3309 35.8561 48.0288 35.7985 47.6834 35.7554C47.3381 35.7122 46.9784 35.669 46.6331 35.6115C46.2734 35.5539 45.9281 35.482 45.5827 35.3812C45.2374 35.2805 44.9209 35.151 44.6619 34.964C44.3885 34.7769 44.1727 34.5467 44 34.2446C43.8273 33.9568 43.7554 33.5683 43.7554 33.1223C43.7554 32.6474 43.8705 32.2446 44.1151 31.8992C44.3597 31.5539 44.6475 31.2805 45.0072 31.0503C45.3669 30.8345 45.7698 30.6762 46.2014 30.5611C46.6331 30.4604 47.0504 30.4028 47.4532 30.4028C47.7266 30.4028 48.0144 30.4172 48.3165 30.4748C48.6187 30.5179 48.9209 30.5755 49.2086 30.6762C49.4964 30.7625 49.7842 30.892 50.0575 31.0359C50.3309 31.1798 50.5611 31.3525 50.7626 31.5539C50.7914 31.5683 50.8201 31.6115 50.8345 31.6834C50.8489 31.7554 50.8633 31.8129 50.8633 31.8417C50.8633 31.9568 50.8201 32.0719 50.7482 32.1726C50.6763 32.2733 50.5755 32.3741 50.4748 32.446C50.3741 32.5179 50.259 32.5899 50.1295 32.6474C50 32.705 49.8849 32.7194 49.7842 32.7194C49.6978 32.7194 49.6115 32.705 49.5396 32.6762C49.223 32.4028 48.8777 32.187 48.518 32.0287C48.1583 31.8705 47.7698 31.7985 47.3381 31.7985C47.1655 31.7985 46.9496 31.8129 46.7338 31.8561C46.5036 31.8848 46.3022 31.9568 46.1151 32.0575C45.9281 32.1582 45.7698 32.2733 45.6403 32.4316C45.5108 32.5899 45.4532 32.7913 45.4532 33.0215C45.4532 33.3525 45.5971 33.5971 45.8849 33.7266C46.1727 33.8705 46.5324 33.9712 46.9496 34.0431C47.3813 34.1151 47.8417 34.1726 48.3453 34.2302C48.8489 34.2877 49.3094 34.4028 49.741 34.5611C50.1727 34.7338 50.518 34.9784 50.8058 35.3093C51.0935 35.6402 51.2374 36.1151 51.2374 36.7338C51.2374 37.2518 51.1079 37.6978 50.8633 38.0719C50.6187 38.446 50.3022 38.7625 49.9281 39.0071C49.5396 39.2518 49.1223 39.4388 48.6619 39.5539C48.187 39.6978 47.741 39.7554 47.295 39.7554Z" fill="#022A4C"/>
<path d="M58.6762 30.6187C58.8345 30.6187 58.9496 30.6906 59.0072 30.8201C59.0647 30.964 59.1079 31.0935 59.1079 31.2086C59.1079 31.2805 59.1079 31.3669 59.0935 31.4676C59.0935 31.5683 59.0791 31.6834 59.0503 31.7841C59.0216 31.8848 58.9784 31.9712 58.9208 32.0431C58.8633 32.1151 58.777 32.1438 58.6619 32.1438H56.8777C56.7194 32.1438 56.6043 32.1726 56.5036 32.2446C56.4029 32.3021 56.3597 32.4316 56.3597 32.6043L56.3741 39.1798C56.3741 39.3093 56.3453 39.41 56.2734 39.482C56.2014 39.5539 56.1151 39.5971 56.0144 39.6115C55.9137 39.6258 55.8129 39.6402 55.6978 39.6402C55.5827 39.6402 55.482 39.6402 55.3813 39.6402C55.2518 39.6402 55.1079 39.6115 54.9496 39.5539C54.7914 39.4963 54.7194 39.3812 54.7194 39.2086V32.5467C54.7194 32.4172 54.6762 32.3309 54.6043 32.2446C54.5467 32.2014 54.4029 32.1582 54.187 32.1582C53.9568 32.1438 53.7266 32.1294 53.482 32.1294C53.2374 32.1294 53.0072 32.1294 52.8057 32.1438C52.6043 32.1582 52.4892 32.1582 52.4604 32.1582C52.2734 32.1582 52.1583 32.0863 52.1007 31.9568C52.0432 31.8129 52.0144 31.6834 52.0144 31.5395V31.2661C52.0144 31.151 52.0288 31.0503 52.0575 30.964C52.0863 30.8633 52.1295 30.7913 52.2014 30.7194C52.259 30.6474 52.3453 30.6187 52.4604 30.6187H58.6762Z" fill="#022A4C"/>
<path d="M86.3165 38.8489C86.3165 39.0359 86.2733 39.2086 86.2158 39.3381C86.1438 39.4676 86 39.5395 85.7841 39.5395H79.669C79.5827 39.5395 79.4964 39.482 79.41 39.3812C79.3237 39.2805 79.2805 39.1942 79.2805 39.1079V30.892C79.2805 30.7625 79.3237 30.6618 79.3813 30.5899C79.4532 30.5179 79.5395 30.4748 79.6403 30.446C79.741 30.4172 79.8417 30.4028 79.9568 30.4028H80.259C80.4172 30.4028 80.5611 30.4316 80.6906 30.5036C80.8201 30.5611 80.9064 30.6762 80.9784 30.8489V37.2086C80.9784 37.3093 80.9928 37.41 81.0072 37.482C81.0359 37.5539 81.0791 37.6402 81.151 37.7122C81.2949 37.8848 81.4676 37.9712 81.6978 37.9712H85.8129C85.928 37.9712 86.0143 38 86.0863 38.0719C86.1582 38.1295 86.2014 38.2158 86.2302 38.3021C86.259 38.3884 86.2877 38.4892 86.2877 38.5899C86.3165 38.6762 86.3165 38.7769 86.3165 38.8489Z" fill="#022A4C"/>
<path d="M21.3381 39.5252L19.4101 36.1439C19.4101 36.1439 19.3381 35.9712 19.4532 35.8993C21.3669 34.6619 20.518 32.3021 20.518 32.3021C19.9712 30.5755 17.7122 30.6043 17.7122 30.6043H13.9856C13.3813 30.6043 13.3957 31.0216 13.3957 31.0216V38.964V39.2086C13.3957 39.2086 13.3669 39.7554 13.7554 39.7986H14.0144C14.3597 39.7986 14.777 39.7986 14.777 39.7986C15.1655 39.7698 15.1367 39.2086 15.1367 39.2086V36.8633C15.1223 36.7482 15.2806 36.7626 15.2806 36.7626C15.3525 36.7626 17.2806 36.705 17.5971 36.8345C17.741 36.8921 17.8993 37.0503 17.9856 37.1798L19.2806 39.3381C19.3813 39.4964 19.4964 39.6403 19.6403 39.7698C19.7842 39.8849 19.9424 39.8849 20.1151 39.8705C20.4029 39.8561 20.705 39.8705 20.9928 39.8705C21.4532 39.8273 21.3381 39.5252 21.3381 39.5252ZM18.9209 33.9424C18.6906 35.0503 17.2806 35.0216 17.2806 35.0216H15.3957C15.0504 34.9928 15.0216 34.6475 15.0216 34.6475V32.4892C15.036 32.259 15.1942 32.259 15.1942 32.259H15.5252C16.0144 32.259 16.4892 32.2734 16.9784 32.259C17.5108 32.259 18.1439 32.2014 18.5899 32.5899C18.8201 32.8057 18.9352 33.1655 18.964 33.4676C18.9784 33.6115 18.964 33.7842 18.9209 33.9424Z" fill="#022A4C"/>
<path d="M68.6619 39.5252L66.7338 36.1439C66.7338 36.1439 66.6618 35.9712 66.777 35.8993C68.6906 34.6619 67.8417 32.3021 67.8417 32.3021C67.2949 30.5755 65.036 30.6043 65.036 30.6043H61.3093C60.705 30.6043 60.7194 31.0216 60.7194 31.0216V38.964V39.2086C60.7194 39.2086 60.6906 39.7554 61.0791 39.7986H61.3381C61.6834 39.7986 62.1007 39.7986 62.1007 39.7986C62.4892 39.7698 62.4604 39.2086 62.4604 39.2086V36.8633C62.446 36.7482 62.6043 36.7626 62.6043 36.7626C62.6762 36.7626 64.6043 36.705 64.9208 36.8345C65.0647 36.8921 65.223 37.0503 65.3093 37.1798L66.5899 39.3381C66.6906 39.4964 66.8057 39.6403 66.9496 39.7698C67.0935 39.8849 67.2518 39.8849 67.4244 39.8705C67.7122 39.8561 68.0144 39.8705 68.3021 39.8705C68.777 39.8273 68.6619 39.5252 68.6619 39.5252ZM66.2446 33.9424C66.0144 35.0503 64.6043 35.0216 64.6043 35.0216H62.7194C62.3741 34.9928 62.3453 34.6475 62.3453 34.6475V32.4892C62.3453 32.259 62.518 32.259 62.518 32.259H62.8489C63.3381 32.259 63.8129 32.2734 64.3021 32.259C64.8345 32.259 65.4676 32.2014 65.9136 32.5899C66.1439 32.8057 66.259 33.1655 66.2878 33.4676C66.2878 33.6115 66.2734 33.7842 66.2446 33.9424Z" fill="#022A4C"/>
<path d="M8.44604 39.3093L4.90647 30.8776C4.86331 30.7625 4.7482 30.6906 4.58993 30.6618C4.44604 30.633 4.33093 30.6187 4.23022 30.6187C4.1295 30.6187 4.01439 30.633 3.8705 30.6618C3.69784 30.6906 3.59712 30.7625 3.55396 30.8776L0.0143885 39.3093C0 39.3237 0 39.3381 0 39.3812C0 39.482 0.0431655 39.5539 0.115108 39.5827C0.18705 39.6258 0.28777 39.6546 0.388489 39.669C0.489209 39.6834 0.604316 39.6834 0.705036 39.6834C0.820144 39.6834 0.906475 39.6834 0.964029 39.6834C1.09352 39.6834 1.2518 39.669 1.42446 39.6258C1.59712 39.5827 1.71223 39.4964 1.78417 39.3381L2.28777 38.1438C2.33093 38.0719 2.3741 37.9999 2.44604 37.9424C2.51799 37.8848 2.60432 37.8561 2.69065 37.8561H4.21583H4.23022H5.76978C5.8705 37.8561 5.94244 37.8848 6.01439 37.9424C6.08633 37.9999 6.14388 38.0719 6.17266 38.1438L6.67626 39.3381C6.7482 39.4964 6.86331 39.5827 7.03597 39.6258C7.20863 39.669 7.35252 39.6834 7.4964 39.6834C7.56834 39.6834 7.65468 39.6834 7.75539 39.6834C7.8705 39.6834 7.97122 39.6834 8.07194 39.669C8.17266 39.6546 8.27338 39.6258 8.34532 39.5827C8.41726 39.5395 8.46043 39.4676 8.46043 39.3812C8.46043 39.3525 8.44604 39.3237 8.44604 39.3093ZM5.30935 36.3309C5.2518 36.3884 5.19424 36.4172 5.13669 36.4172H4.23022H4.21583H3.30935C3.23741 36.4172 3.17986 36.3884 3.13669 36.3309C3.07914 36.2733 3.06475 36.2158 3.06475 36.1582C3.06475 36.1294 3.10791 35.9999 3.19424 35.7697C3.28058 35.5395 3.38129 35.2949 3.4964 35.0215C3.61151 34.7481 3.71223 34.4892 3.81295 34.2589C3.91367 34.0143 3.97122 33.8705 4 33.8129C4.04316 33.7553 4.11511 33.7266 4.21583 33.7266H4.23022C4.33093 33.7266 4.40288 33.7553 4.44604 33.8129C4.47482 33.8705 4.54676 34.0143 4.63309 34.2589C4.73381 34.5035 4.83453 34.7625 4.94964 35.0215C5.06475 35.2949 5.16547 35.5395 5.2518 35.7697C5.33813 35.9999 5.38129 36.1294 5.38129 36.1582C5.39568 36.2158 5.36691 36.2733 5.30935 36.3309Z" fill="#022A4C"/>
<path d="M33.6978 39.3093L30.1583 30.8776C30.1151 30.7625 30 30.6906 29.8417 30.6618C29.6978 30.633 29.5827 30.6187 29.482 30.6187C29.3813 30.6187 29.2662 30.633 29.1223 30.6618C28.9496 30.6906 28.8489 30.7625 28.8057 30.8776L25.2662 39.3093C25.2518 39.3237 25.2518 39.3381 25.2518 39.3812C25.2518 39.482 25.295 39.5539 25.3669 39.5827C25.4388 39.6258 25.5396 39.6546 25.6403 39.669C25.741 39.6834 25.8561 39.6834 25.9568 39.6834C26.0719 39.6834 26.1583 39.6834 26.2158 39.6834C26.3453 39.6834 26.5036 39.669 26.6763 39.6258C26.8489 39.5827 26.964 39.4964 27.036 39.3381L27.5396 38.1438C27.5827 38.0719 27.6259 37.9999 27.6978 37.9424C27.7698 37.8848 27.8561 37.8561 27.9424 37.8561H29.482H29.4964H31.036C31.1223 37.8561 31.2086 37.8848 31.2806 37.9424C31.3525 37.9999 31.4101 38.0719 31.4388 38.1438L31.9424 39.3381C32.0144 39.4964 32.1295 39.5827 32.3022 39.6258C32.4748 39.669 32.6187 39.6834 32.7626 39.6834C32.8345 39.6834 32.9209 39.6834 33.0216 39.6834C33.1367 39.6834 33.2374 39.6834 33.3381 39.669C33.4388 39.6546 33.5396 39.6258 33.6115 39.5827C33.6834 39.5395 33.7266 39.4676 33.7266 39.3812C33.7122 39.3525 33.7122 39.3237 33.6978 39.3093ZM30.5755 36.3309C30.518 36.3884 30.4604 36.4172 30.4029 36.4172H29.4964H29.482H28.5755C28.5036 36.4172 28.446 36.3884 28.4029 36.3309C28.3453 36.2733 28.3309 36.2158 28.3309 36.1582C28.3309 36.1294 28.3741 35.9999 28.4604 35.7697C28.5468 35.5395 28.6475 35.2949 28.7626 35.0215C28.8777 34.7481 28.9784 34.4892 29.0791 34.2589C29.1799 34.0143 29.2374 33.8705 29.2662 33.8129C29.3093 33.7553 29.3813 33.7266 29.482 33.7266H29.4964H29.5108C29.6115 33.7266 29.6834 33.7553 29.7266 33.8129C29.7554 33.8705 29.8129 34.0143 29.9137 34.2589C30.0144 34.5035 30.1151 34.7625 30.2302 35.0215C30.3453 35.2949 30.446 35.5395 30.5324 35.7697C30.6187 35.9999 30.6619 36.1294 30.6619 36.1582C30.6619 36.2158 30.6331 36.2733 30.5755 36.3309Z" fill="#022A4C"/>
<path d="M78.0863 39.3093L74.5467 30.8776C74.5036 30.7625 74.3885 30.6906 74.2302 30.6618C74.0863 30.633 73.9712 30.6187 73.8705 30.6187C73.7698 30.6187 73.6547 30.633 73.5108 30.6618C73.3525 30.6906 73.2374 30.7625 73.1942 30.8776L69.6547 39.3093C69.6403 39.3237 69.6403 39.3381 69.6403 39.3812C69.6403 39.482 69.6834 39.5539 69.7554 39.5827C69.8273 39.6258 69.928 39.6546 70.0288 39.669C70.1295 39.6834 70.2446 39.6834 70.3453 39.6834C70.4604 39.6834 70.5468 39.6834 70.6043 39.6834C70.7338 39.6834 70.8921 39.669 71.0647 39.6258C71.2374 39.5827 71.3525 39.4964 71.4244 39.3381L71.928 38.1438C71.9712 38.0719 72.0144 37.9999 72.0863 37.9424C72.1583 37.8848 72.2446 37.8561 72.3309 37.8561H73.8561H73.8705H75.4101C75.5108 37.8561 75.5827 37.8848 75.6547 37.9424C75.7266 37.9999 75.7842 38.0719 75.8129 38.1438L76.3165 39.3381C76.3885 39.4964 76.5036 39.5827 76.6762 39.6258C76.8489 39.669 76.9928 39.6834 77.1367 39.6834C77.2086 39.6834 77.295 39.6834 77.3957 39.6834C77.5108 39.6834 77.6115 39.6834 77.7122 39.669C77.8129 39.6546 77.9137 39.6258 77.9856 39.5827C78.0575 39.5395 78.1007 39.4676 78.1007 39.3812C78.1007 39.3525 78.1007 39.3237 78.0863 39.3093ZM74.9496 36.3309C74.8921 36.3884 74.8345 36.4172 74.777 36.4172H73.8705H73.8561H72.9496C72.8777 36.4172 72.8201 36.3884 72.777 36.3309C72.7194 36.2733 72.705 36.2158 72.705 36.1582C72.705 36.1294 72.7482 35.9999 72.8489 35.7697C72.9352 35.5395 73.036 35.2949 73.1511 35.0215C73.2662 34.7481 73.3669 34.4892 73.4676 34.2589C73.5683 34.0143 73.6259 33.8705 73.6547 33.8129C73.6978 33.7553 73.7698 33.7266 73.8705 33.7266H73.8849H73.8993C74 33.7266 74.0719 33.7553 74.1151 33.8129C74.1439 33.8705 74.2158 34.0143 74.3021 34.2589C74.4029 34.5035 74.5036 34.7625 74.6187 35.0215C74.7338 35.2949 74.8345 35.5395 74.9209 35.7697C75.0072 35.9999 75.0503 36.1294 75.0503 36.1582C75.036 36.2158 75.0072 36.2733 74.9496 36.3309Z" fill="#022A4C"/>
<path d="M11.3381 39.3093C11.3381 39.5827 11.1223 39.7985 10.8777 39.7985H10.1295C9.8705 39.7985 9.65467 39.5827 9.65467 39.3093V31.0791C9.65467 30.8057 9.8705 30.5898 10.1295 30.5898H10.8777C11.1367 30.5898 11.3381 30.8057 11.3381 31.0791V39.3093Z" fill="#022A4C"/>
</g>
<defs>
<linearGradient id="paint0_linear_1813_11460" x1="31.1278" y1="17.4632" x2="52.6964" y2="2.06967" gradientUnits="userSpaceOnUse">
<stop stop-color="#022A4C"/>
<stop offset="0.1923" stop-color="#013964"/>
<stop offset="0.5001" stop-color="#005792"/>
<stop offset="0.6055" stop-color="#025B95"/>
<stop offset="0.7087" stop-color="#08679F"/>
<stop offset="0.811" stop-color="#117AAF"/>
<stop offset="0.9122" stop-color="#1E96C5"/>
<stop offset="1" stop-color="#2DB4DD"/>
</linearGradient>
<linearGradient id="paint1_linear_1813_11460" x1="37.8953" y1="21.2007" x2="59.714" y2="7.49361" gradientUnits="userSpaceOnUse">
<stop stop-color="#022A4C"/>
<stop offset="0.2294" stop-color="#013C66"/>
<stop offset="0.5322" stop-color="#014F81"/>
<stop offset="0.7992" stop-color="#005B92"/>
<stop offset="1" stop-color="#005F98"/>
</linearGradient>
<linearGradient id="paint2_linear_1813_11460" x1="47.5891" y1="21.4621" x2="28.0655" y2="0.885806" gradientUnits="userSpaceOnUse">
<stop stop-color="#022A4C"/>
<stop offset="0.0225545" stop-color="#022F54"/>
<stop offset="0.1375" stop-color="#014576"/>
<stop offset="0.2324" stop-color="#00528A"/>
<stop offset="0.2951" stop-color="#005792"/>
<stop offset="0.3721" stop-color="#07669E"/>
<stop offset="0.6081" stop-color="#1C90C0"/>
<stop offset="0.7934" stop-color="#28AAD5"/>
<stop offset="0.9039" stop-color="#2DB4DD"/>
<stop offset="1" stop-color="#2DB4DD"/>
</linearGradient>
<clipPath id="clip0_1813_11460">
<rect width="86.3309" height="40" fill="white"/>
</clipPath>
</defs>
</svg>
