<svg xmlns="http://www.w3.org/2000/svg" width="119" height="32" fill="none" viewBox="0 0 119 32"><path fill="#fff" d="M16.18 5.028a19.3 19.3 0 0 0-3.817-.42c-3.36-.015-6.712 0-10.072-.015-.45 0-.54.135-.54.555.015 3.63.007 7.26.007 10.89s.008 7.26-.007 10.89c0 .434.112.547.547.54a807 807 0 0 1 9.525 0c1.178 0 2.34-.083 3.51-.248 3.525-.502 5.52-2.377 6.27-5.887.21-.968.308-1.958.368-2.94.15-2.618.172-5.243-.398-7.823-.652-2.94-2.34-4.912-5.385-5.542zm1.486 15.84c-.518 2.04-1.988 2.97-3.96 3.285-.743.12-1.493.15-2.243.157-1.815.015-3.63-.008-5.445.015-.442 0-.592-.098-.585-.57.023-2.565.015-5.137.015-7.703 0-2.587.008-5.167-.007-7.754 0-.435.112-.555.547-.548 2.31.06 4.62-.075 6.93.09.57.038 1.125.143 1.68.27 1.658.398 2.753 1.38 3.158 3.068a20 20 0 0 1-.075 9.674zM84.228 4c-6.795-.007-12.172 5.258-12.202 11.955C71.996 22.578 77.403 28 84.048 28A11.98 11.98 0 0 0 96.04 16.008c-.007-6.585-5.332-12-11.812-12.008m-.195 20.385c-4.62-.015-8.377-3.758-8.377-8.355 0-4.68 3.742-8.43 8.414-8.415a8.375 8.375 0 0 1 8.348 8.378c0 4.635-3.765 8.407-8.385 8.392M36.078 4c-6.757 0-12.165 5.355-12.135 12.023.03 6.63 5.4 11.977 12.03 11.977s11.993-5.37 11.993-12C47.95 9.4 42.61 4 36.078 4m-.135 20.385c-4.71-.015-8.385-3.78-8.37-8.573.015-4.492 3.825-8.204 8.415-8.197 4.62.015 8.385 3.803 8.37 8.43-.015 4.575-3.825 8.355-8.407 8.34zM69.236 4.593c-.9.037-1.8.03-2.7 0-.405-.015-.473.127-.473.495.015 2.752 0 5.504.015 8.257 0 .397-.082.518-.502.518a916 916 0 0 0-11.123 0c-.487 0-.607-.12-.607-.608.022-2.715 0-5.43.022-8.145 0-.412-.097-.532-.517-.517-.878.03-1.763.03-2.64 0-.405-.015-.518.09-.518.51.023 3.652.008 7.297.008 10.95s0 7.23-.008 10.837c0 .427.053.615.548.585a27 27 0 0 1 2.587 0c.435.015.54-.105.54-.54-.022-3.097 0-6.202-.022-9.3 0-.48.082-.645.615-.645 3.667.03 7.342.023 11.01 0 .472 0 .607.09.607.593-.03 3.135 0 6.27-.023 9.412 0 .39.098.495.48.48.916-.03 1.838-.03 2.753 0 .42.015.518-.113.51-.518-.022-2.145-.007-4.29-.007-6.434 0-5.115 0-10.238.007-15.353 0-.457-.12-.592-.577-.577zM117.183 8.568c-.54-1.845-1.732-3.053-3.6-3.585a9.8 9.8 0 0 0-2.715-.375c-3.93-.008-7.86 0-11.782-.015-.406 0-.518.082-.518.51.023 3.652.015 7.305.015 10.95s0 7.267-.007 10.897c0 .383.045.547.495.525q1.35-.057 2.7 0c.412.015.525-.098.517-.518-.022-2.565 0-5.137-.022-7.702 0-.397.082-.525.502-.517q2.948.031 5.895.007c1.23 0 2.453.045 3.683-.105 2.617-.323 4.29-1.657 4.92-4.103.51-1.987.502-3.997-.075-5.977zm-3.48 4.784c-.427 1.433-1.515 2.19-3.232 2.205-1.268.015-2.535 0-3.803 0-1.342 0-2.677-.007-4.02 0-.307 0-.405-.075-.405-.39a708 708 0 0 0 0-6.99c0-.232-.022-.434.323-.427 2.767.053 5.542-.112 8.31.09 1.845.135 2.857 1.208 2.985 3.045.052.825.067 1.65-.173 2.453z"/></svg>