<svg height="111" viewBox="0 0 234 111" width="234" xmlns="http://www.w3.org/2000/svg"><g fill-rule="evenodd"><path d="m.606.606v110.21h110.21v-41.368l13.738-13.737-13.738-13.738v-41.367z" fill="#0800b9"/><g fill-rule="nonzero"><path d="m40.45 37.436v3.163h-12.305v-17.349h3.426v14.187h8.879zm-24.704-3.713v6.876h-3.426v-17.349h13.03v3.164h-9.604v4.146h8.515v3.164h-8.515zm16.278 29.913c0 4.272-3.41 6.91-8.903 6.91h-10.8v-24.58h10.383c2.722 0 4.935.773 6.408 2.229a5.768 5.768 0 0 1 1.618 4.11v.069a5.99 5.99 0 0 1 -3.014 5.396c2.86 1.149 4.308 3.094 4.308 5.796zm36.22-34.61v11.574h-3.382v-17.35h3.095l8.705 11.234v-11.234h3.378v17.35h-2.828zm-23.332 11.574v-6.82l-6.902-10.53h4.053l4.6 7.282 4.651-7.281h3.956l-6.905 10.456v6.893h-3.454zm12.475-17.35h3.426v17.35h-3.426zm-21.047 22.722h3.536v21.2h13.11v3.374h-16.646v-24.575zm39.873 14.013c0 6.848-3.802 10.933-10.17 10.933-6.253 0-10.137-4.11-10.137-10.731v-14.217h3.536v14.045c0 4.785 2.431 7.528 6.666 7.528 4.236 0 6.57-2.613 6.57-7.358v-14.215h3.535v14.013zm15.574-29.291h7.641v7.443l-.08.069a10.97 10.97 0 0 1 -7.193 2.65c-5.291 0-8.988-3.642-8.988-8.9v-.049a8.855 8.855 0 0 1 8.964-8.948c2.746 0 4.672.68 6.638 2.347l.174.15-2.173 2.604-.178-.15a6.359 6.359 0 0 0 -4.579-1.755c-2.904 0-5.258 2.569-5.258 5.728v.049c0 3.414 2.273 5.8 5.51 5.8a6.751 6.751 0 0 0 3.846-1.165v-2.831h-4.324zm-6.723 29.133v7.378h14.372v3.341h-17.908v-24.575h17.742v3.341h-14.206v7.172h12.71v3.342h-12.71zm-72.796 17.073h2.868l3.18 5.113 3.179-5.113h2.864v12.087h-2.646v-7.892l-3.402 5.162h-.069l-3.37-5.113v7.839h-2.604zm17.398 0h9.117v2.367h-6.472v2.451h5.696v2.37h-5.7v2.54h6.565v2.367h-9.206zm13.98 0h2.868l3.18 5.113 3.179-5.113h2.864v12.087h-2.642v-7.892l-3.402 5.162h-.069l-3.37-5.113v7.839h-2.608zm17.398 0h5.614c1.38 0 2.472.38 3.16 1.072.55.54.85 1.285.829 2.055v.016a2.832 2.832 0 0 1 -1.59 2.61c1.4.533 2.261 1.346 2.261 2.969v.036c0 2.209-1.796 3.317-4.522 3.317h-5.752zm14.878 0h9.118v2.367h-6.473v2.451h5.7v2.37h-5.7v2.54h6.561v2.367h-9.206zm13.984 0h5.525c1.538 0 2.73.433 3.524 1.214a3.794 3.794 0 0 1 1.035 2.763v.036a3.754 3.754 0 0 1 -2.589 3.746l2.953 4.316h-3.11l-2.59-3.867h-2.087v3.867h-2.661zm5.352 5.874c1.294 0 2.022-.692 2.022-1.711v-.037c0-1.14-.809-1.727-2.087-1.727h-2.643v3.47l2.707.005zm-79.439-33.498v7.245h6.436c3.07 0 4.903-1.412 4.903-3.774v-.069c0-2.164-1.715-3.402-4.705-3.402h-6.633zm0 10.517v7.44h7.379c3.288 0 5.258-1.412 5.258-3.775v-.06c0-2.978-3.119-3.605-5.736-3.605h-6.9zm50.27 21.994c1.172 0 1.916-.38 1.916-1.279v-.036c0-.809-.618-1.246-1.743-1.246h-2.625v2.557l2.451.004zm.707 4.854c1.173 0 1.88-.405 1.88-1.315v-.024c0-.809-.602-1.31-1.969-1.31h-3.074v2.657z" fill="#fff"/><path d="m148.84 62.904c-3.213 0-5.84-2.462-5.84-6.09v-.046c0-3.374 2.376-6.09 5.615-6.09 3.464 0 5.434 2.831 5.434 5.934a.82.82 0 0 1 -.82.821h-8.464c.25 2.537 2.052 3.965 4.104 3.965a4.786 4.786 0 0 0 3.374-1.359.768.768 0 0 1 .497-.205.739.739 0 0 1 .497 1.314 5.956 5.956 0 0 1 -4.396 1.756zm3.465-6.772c-.18-2.13-1.404-3.986-3.735-3.986-2.052 0-3.58 1.7-3.805 3.986zm3.895 5.254 3.825-4.712-3.6-4.417a.936.936 0 0 1 -.27-.632.784.784 0 0 1 .82-.82.944.944 0 0 1 .772.41l3.366 4.277 3.353-4.257a.96.96 0 0 1 .747-.41.776.776 0 0 1 .793.792.846.846 0 0 1 -.226.566l-3.645 4.462 3.805 4.667c.153.176.241.399.25.632a.796.796 0 0 1 -.82.82.944.944 0 0 1 -.772-.41l-3.55-4.523-3.535 4.482a.96.96 0 0 1 -.747.41.788.788 0 0 1 -.566-1.337zm13.29-9.691a.872.872 0 1 1 1.745 0v1.584c.952-1.403 2.331-2.606 4.482-2.606 2.807 0 5.594 2.22 5.594 6.07v.046c0 3.825-2.762 6.09-5.594 6.09-2.176 0-3.58-1.177-4.482-2.49v5.097a.85.85 0 0 1 -.862.882.87.87 0 0 1 -.883-.882zm10.028 5.118v-.045c0-2.762-1.9-4.515-4.105-4.515a4.367 4.367 0 0 0 -4.236 4.515v.045c0 2.717 2.052 4.515 4.236 4.515 2.253-.008 4.105-1.687 4.105-4.515zm5.163-9.94a.872.872 0 0 1 1.744 0v14.989a.85.85 0 0 1 -.862.882.87.87 0 0 1 -.882-.882v-14.99zm5.073 9.96v-.044a6.103 6.103 0 0 1 12.207-.046v.046a6.079 6.079 0 0 1 -6.157 6.115 5.997 5.997 0 0 1 -6.05-6.07zm10.417 0v-.044c0-2.512-1.88-4.577-4.346-4.577-2.537 0-4.281 2.052-4.281 4.515v.045c0 2.512 1.855 4.552 4.326 4.552 2.528.016 4.301-2.02 4.301-4.49zm4.934-5.138a.878.878 0 0 1 .862-.883.87.87 0 0 1 .882.883v2.196c.862-1.946 2.557-3.124 4.03-3.124a.82.82 0 0 1 .863.883.866.866 0 0 1 -.772.882c-2.266.271-4.104 1.97-4.104 5.336v3.986a.872.872 0 0 1 -1.745 0zm13.79 11.21c-3.213 0-5.84-2.463-5.84-6.092v-.045c0-3.374 2.377-6.09 5.615-6.09 3.464 0 5.434 2.831 5.434 5.934a.82.82 0 0 1 -.82.821h-8.468c.25 2.537 2.052 3.965 4.105 3.965a4.786 4.786 0 0 0 3.373-1.359.755.755 0 0 1 1.269.546.751.751 0 0 1 -.271.567 5.956 5.956 0 0 1 -4.396 1.752zm3.465-6.773c-.18-2.13-1.404-3.986-3.735-3.986-2.052 0-3.58 1.7-3.805 3.986zm4.823-4.437a.878.878 0 0 1 .862-.883.87.87 0 0 1 .882.883v2.196c.862-1.946 2.561-3.124 4.03-3.124a.82.82 0 0 1 .863.883.866.866 0 0 1 -.772.882c-2.266.271-4.104 1.97-4.104 5.336v3.986a.872.872 0 0 1 -1.745 0z" fill="#0e00b3"/></g></g></svg>