<svg height="25" viewBox="0 0 163 25" width="163" xmlns="http://www.w3.org/2000/svg"><g fill-rule="evenodd"><path d="m0 .5v24h120v-24zm120 17 5-5-5-5z" fill="#b0965b"/><path d="m12 17.968v-9.8h7.462v1.96h-5.306v2.086h4.676v1.96h-4.676v3.794zm9.384 0v-9.8h2.156v7.84h4.886v1.96zm9.804 0v-3.864l-3.766-5.936h2.52l2.338 3.934 2.38-3.934h2.45l-3.766 5.894v3.906zm7.564 0v-9.8h2.156v9.8zm4.806 0v-9.8h1.988l4.592 6.034v-6.034h2.128v9.8h-1.834l-4.746-6.23v6.23zm15.978.168c-3.052 0-5.152-2.142-5.152-5.04v-.028c0-2.786 2.17-5.068 5.138-5.068 1.764 0 2.828.476 3.85 1.344l-1.358 1.638c-.756-.63-1.428-.994-2.562-.994-1.568 0-2.814 1.386-2.814 3.052v.028c0 1.792 1.232 3.108 2.968 3.108.784 0 1.484-.196 2.03-.588v-1.4h-2.17v-1.862h4.256v4.256c-1.008.854-2.394 1.554-4.186 1.554zm10.858-.168v-9.8h4.55c1.12 0 2.002.308 2.562.868.448.448.672.994.672 1.666v.028c0 1.106-.588 1.722-1.288 2.114 1.134.434 1.834 1.092 1.834 2.408v.028c0 1.792-1.456 2.688-3.668 2.688zm2.1-5.838h1.988c.952 0 1.554-.308 1.554-1.036v-.028c0-.644-.504-1.008-1.414-1.008h-2.128zm0 3.948h2.562c.952 0 1.526-.336 1.526-1.064v-.028c0-.658-.49-1.064-1.596-1.064h-2.492zm8.208 1.89v-9.8h2.156v7.84h4.886v1.96zm12.674.154c-2.632 0-4.242-1.47-4.242-4.354v-5.6h2.156v5.544c0 1.596.798 2.422 2.114 2.422s2.114-.798 2.114-2.352v-5.614h2.156v5.53c0 2.968-1.666 4.424-4.298 4.424zm6.696-.154v-9.8h7.392v1.918h-5.25v1.988h4.62v1.918h-4.62v2.058h5.32v1.918z" fill="#fff"/><path d="m136.354 19.268a6.386 6.386 0 0 1 -2.856-.658c-.294-.112-.476-.35-.476-.672a.714.714 0 0 1 1.022-.63 4.52 4.52 0 0 0 2.268.588c1.512 0 2.338-.784 2.338-2.268v-.574c-.616.798-1.386 1.358-2.604 1.358-1.736 0-3.36-1.288-3.36-3.458v-.028c0-2.184 1.638-3.472 3.36-3.472 1.246 0 2.016.574 2.59 1.26v-.35c0-.462.378-.84.84-.84.476 0 .854.378.854.854v5.11c0 1.246-.322 2.17-.938 2.786-.672.672-1.708.994-3.038.994zm.14-4.298c1.176 0 2.17-.826 2.17-2.03v-.028c0-1.204-.994-2.03-2.17-2.03s-2.1.812-2.1 2.03v.028c0 1.204.938 2.03 2.1 2.03zm9.478 2.198c-2.254 0-3.92-1.722-3.92-3.822v-.028c0-2.114 1.68-3.864 3.948-3.864s3.934 1.722 3.934 3.836v.028c0 2.1-1.68 3.85-3.962 3.85zm.028-1.484c1.372 0 2.24-1.064 2.24-2.338v-.028c0-1.302-.938-2.38-2.268-2.38-1.358 0-2.226 1.064-2.226 2.352v.028c0 1.288.938 2.366 2.254 2.366zm5.754.546v-8.68c0-.462.364-.84.84-.84s.854.378.854.84v8.68c0 .476-.378.84-.854.84a.834.834 0 0 1 -.84-.84zm11.172-8.68v8.68c0 .476-.378.84-.84.84a.837.837 0 0 1 -.854-.84v-.462c-.546.77-1.316 1.386-2.52 1.386-1.736 0-3.43-1.386-3.43-3.836v-.028c0-2.45 1.666-3.836 3.43-3.836 1.218 0 1.988.602 2.52 1.302v-3.206c0-.476.378-.84.84-.84.476 0 .854.364.854.84zm-3.808 3.374c-1.162 0-2.128.896-2.128 2.366v.028c0 1.428.98 2.366 2.128 2.366 1.134 0 2.142-.952 2.142-2.366v-.028c0-1.428-1.008-2.366-2.142-2.366z" fill="#b0965b"/></g></svg>