<svg height="156" viewBox="0 0 111 156" width="111" xmlns="http://www.w3.org/2000/svg"><g fill-rule="evenodd"><path d="m110.882.511h-110.21v110.21h41.368l13.736 13.739 13.74-13.738h41.366z" fill="#c17c51"/><g fill-rule="nonzero"><path d="m40.45 36.436v3.163h-12.305v-17.349h3.426v14.187h8.879zm-24.704-3.713v6.876h-3.426v-17.349h13.03v3.164h-9.604v4.146h8.515v3.164h-8.515zm16.278 29.913c0 4.272-3.41 6.91-8.903 6.91h-10.8v-24.58h10.383c2.722 0 4.935.773 6.408 2.229a5.768 5.768 0 0 1 1.618 4.11v.069a5.99 5.99 0 0 1 -3.014 5.396c2.86 1.149 4.308 3.094 4.308 5.796zm36.22-34.61v11.574h-3.382v-17.35h3.095l8.705 11.234v-11.234h3.378v17.35h-2.828zm-23.332 11.574v-6.82l-6.902-10.53h4.053l4.6 7.282 4.651-7.281h3.956l-6.905 10.456v6.893h-3.454zm12.475-17.35h3.426v17.35h-3.426zm-21.047 22.722h3.536v21.2h13.11v3.374h-16.646v-24.575zm39.873 14.013c0 6.848-3.802 10.933-10.17 10.933-6.253 0-10.137-4.11-10.137-10.731v-14.217h3.536v14.045c0 4.785 2.431 7.528 6.666 7.528 4.236 0 6.57-2.613 6.57-7.358v-14.215h3.535v14.013zm15.574-29.291h7.641v7.443l-.08.069a10.97 10.97 0 0 1 -7.193 2.65c-5.291 0-8.988-3.642-8.988-8.9v-.049a8.855 8.855 0 0 1 8.964-8.948c2.746 0 4.672.68 6.638 2.347l.174.15-2.173 2.604-.178-.15a6.359 6.359 0 0 0 -4.579-1.755c-2.904 0-5.258 2.569-5.258 5.728v.049c0 3.414 2.273 5.8 5.51 5.8a6.751 6.751 0 0 0 3.846-1.165v-2.831h-4.324zm-6.723 29.133v7.378h14.372v3.341h-17.908v-24.575h17.742v3.341h-14.206v7.172h12.71v3.342h-12.71zm-72.796 17.073h2.868l3.18 5.113 3.179-5.113h2.864v12.087h-2.646v-7.892l-3.402 5.162h-.069l-3.37-5.113v7.839h-2.604zm17.398 0h9.117v2.367h-6.472v2.451h5.696v2.37h-5.7v2.54h6.565v2.367h-9.206zm13.98 0h2.868l3.18 5.113 3.179-5.113h2.864v12.087h-2.642v-7.892l-3.402 5.162h-.069l-3.37-5.113v7.839h-2.608zm17.398 0h5.614c1.38 0 2.472.38 3.16 1.072.55.54.85 1.285.829 2.055v.016a2.832 2.832 0 0 1 -1.59 2.61c1.4.533 2.261 1.346 2.261 2.969v.036c0 2.209-1.796 3.317-4.522 3.317h-5.752zm14.878 0h9.118v2.367h-6.473v2.451h5.7v2.37h-5.7v2.54h6.561v2.367h-9.206zm13.984 0h5.525c1.538 0 2.73.433 3.524 1.214a3.794 3.794 0 0 1 1.035 2.763v.036a3.754 3.754 0 0 1 -2.589 3.746l2.953 4.316h-3.11l-2.59-3.867h-2.087v3.867h-2.661zm5.352 5.874c1.294 0 2.022-.692 2.022-1.711v-.037c0-1.14-.809-1.727-2.087-1.727h-2.643v3.47l2.707.005zm-79.439-33.498v7.245h6.436c3.07 0 4.903-1.412 4.903-3.774v-.069c0-2.164-1.715-3.402-4.705-3.402h-6.633zm0 10.517v7.44h7.379c3.288 0 5.258-1.412 5.258-3.775v-.06c0-2.978-3.119-3.605-5.736-3.605h-6.9zm50.27 21.994c1.172 0 1.916-.38 1.916-1.279v-.036c0-.809-.618-1.246-1.743-1.246h-2.625v2.557l2.451.004zm.707 4.854c1.173 0 1.88-.405 1.88-1.315v-.024c0-.809-.602-1.31-1.969-1.31h-3.074v2.657z" fill="#fff"/><path d="m8 149.934v-6.354a1.486 1.486 0 0 1 2.972 0v6.272c0 2.2 1.1 3.341 2.914 3.341s2.914-1.1 2.914-3.242v-6.37a1.488 1.488 0 1 1 2.976 0v6.255c0 4.104-2.299 6.099-5.927 6.099s-5.849-2.028-5.849-6zm14.817-6.354a1.486 1.486 0 0 1 2.972 0v9.44h5.5a1.35 1.35 0 1 1 0 2.701h-6.979a1.474 1.474 0 0 1 -1.486-1.485l-.008-10.656zm13.167 1.371h-2.873a1.37 1.37 0 0 1 0-2.737h8.706a1.37 1.37 0 0 1 0 2.737h-2.873v9.404a1.486 1.486 0 0 1 -2.972 0zm9.506-1.37a1.488 1.488 0 1 1 2.976 0v10.77a1.488 1.488 0 1 1 -2.976 0zm6.354.04a1.474 1.474 0 0 1 1.486-1.485h.328a1.523 1.523 0 0 1 1.35.771l3.592 5.861 3.608-5.865c.266-.481.78-.772 1.33-.751h.328a1.474 1.474 0 0 1 1.486 1.486v10.733a1.478 1.478 0 1 1 -2.951 0v-6.756l-2.602 4.027a1.391 1.391 0 0 1 -2.463 0l-2.565-3.957v6.707a1.449 1.449 0 0 1 -1.47 1.448 1.432 1.432 0 0 1 -1.449-1.448l-.008-10.77zm16.016 10.192 4.712-10.635a1.835 1.835 0 0 1 1.736-1.178h.172a1.81 1.81 0 0 1 1.716 1.178l4.704 10.635c.094.186.147.39.156.6a1.408 1.408 0 0 1 -1.408 1.427 1.515 1.515 0 0 1 -1.429-1.022l-.907-2.122h-5.942l-.944 2.22c-.221.563-.767.93-1.37.924a1.37 1.37 0 0 1 -1.372-1.391c.013-.222.073-.439.177-.636zm8.356-3.748-1.884-4.457-1.871 4.457zm8.887-5.114h-2.874a1.37 1.37 0 0 1 0-2.737h8.686a1.37 1.37 0 0 1 0 2.737h-2.875v9.404a1.486 1.486 0 0 1 -2.971 0l.033-9.404zm9.37 9.285v-10.537a1.474 1.474 0 0 1 1.486-1.485h7.49a1.334 1.334 0 0 1 1.33 1.33 1.318 1.318 0 0 1 -1.33 1.313h-6.025v2.738h5.151a1.334 1.334 0 0 1 1.33 1.33 1.318 1.318 0 0 1 -1.33 1.313h-5.15v2.836h6.119a1.334 1.334 0 0 1 1.33 1.33 1.318 1.318 0 0 1 -1.33 1.313h-7.585a1.474 1.474 0 0 1 -1.486-1.481z"/></g></g></svg>