<svg height="25" viewBox="0 0 110 25" width="110" xmlns="http://www.w3.org/2000/svg"><g fill-rule="evenodd"><path d="m0 .5v24h24v-24zm24 17 5-5-5-5z" fill="#c17c51"/><path d="m36 14.059v-4.849a1.133 1.133 0 0 1 2.266 0v4.793c0 1.681.837 2.547 2.224 2.547 1.386 0 2.223-.837 2.223-2.477v-4.863a1.136 1.136 0 0 1 2.273 0v4.771c0 3.125-1.752 4.659-4.525 4.659-2.772 0-4.461-1.548-4.461-4.581zm11.308-4.849a1.133 1.133 0 1 1 2.266 0v7.206h4.223a1.034 1.034 0 0 1 0 2.062h-5.334a1.126 1.126 0 0 1 -1.133-1.133zm10.056 1.042h-2.181a1.056 1.056 0 1 1 0-2.111h6.629a1.056 1.056 0 0 1 0 2.11h-2.182v7.179a1.133 1.133 0 1 1 -2.266 0zm7.256-1.042a1.136 1.136 0 0 1 2.272 0v8.227a1.136 1.136 0 1 1 -2.272 0zm4.855.029a1.126 1.126 0 0 1 1.133-1.133h.253a1.16 1.16 0 0 1 1.035.59l2.744 4.462 2.76-4.475a1.112 1.112 0 0 1 1.013-.577h.253a1.126 1.126 0 0 1 1.133 1.133v8.19a1.126 1.126 0 1 1 -2.251 0v-5.143l-1.992 3.068a1.063 1.063 0 0 1 -1.886 0l-1.956-3.02v5.13a1.105 1.105 0 0 1 -1.119 1.106 1.098 1.098 0 0 1 -1.105-1.105l-.014-8.226zm12.223 7.782 3.596-8.12a1.409 1.409 0 0 1 1.323-.901h.134c.58.002 1.1.36 1.309.9l3.596 8.121c.072.143.113.299.12.458a1.077 1.077 0 0 1 -1.077 1.09c-.493 0-.932-.314-1.091-.78l-.704-1.619h-4.524l-.703 1.696c-.17.43-.587.71-1.049.704a1.049 1.049 0 0 1 -1.048-1.063c.005-.168.046-.334.12-.486zm6.383-2.857-1.407-3.405-1.408 3.405zm6.784-3.912h-2.182a1.056 1.056 0 0 1 0-2.111h6.629a1.056 1.056 0 1 1 0 2.11h-2.181v7.179a1.133 1.133 0 1 1 -2.266 0zm7.156 7.093v-8.064a1.126 1.126 0 0 1 1.133-1.133h5.714a1.02 1.02 0 0 1 1.014 1.013 1.006 1.006 0 0 1 -1.014 1h-4.595v2.11h3.934a1.02 1.02 0 0 1 1.013 1.014 1.006 1.006 0 0 1 -1.013 1h-3.934v2.166h4.673a1.02 1.02 0 0 1 1.013 1.014 1.006 1.006 0 0 1 -1.013 1h-5.792a1.126 1.126 0 0 1 -1.133-1.12z" fill-rule="nonzero"/></g></svg>