<svg width="116" height="20" viewBox="0 0 116 20" fill="none" xmlns="http://www.w3.org/2000/svg">
<path d="M75.48 0H3C1.34315 0 0 1.34315 0 3V17C0 18.6569 1.34315 20 3 20H75.48C77.1369 20 78.48 18.6569 78.48 17V3C78.48 1.34315 77.1369 0 75.48 0Z" fill="#0800B9"/>
<path d="M7.93 10.7H11.83V9.18H7.93V7.36H12.35V5.8H6V14.2H12.5V12.64H7.93V10.7Z" fill="white"/>
<path d="M21.3 5.8H19.19L17.3 8.52L15.37 5.8H13.16L16.11 9.92L13.01 14.2H15.24L17.24 11.28L19.26 14.2H21.5L18.37 9.86L21.3 5.8Z" fill="white"/>
<path d="M27.85 6.17C27.31 5.92 26.66 5.8 25.91 5.8H22.27V14.2H24.21V11.88H25.9C26.65 11.88 27.3 11.76 27.84 11.52C28.38 11.27 28.8 10.92 29.1 10.46C29.4 10 29.54 9.46 29.54 8.84C29.54 8.22 29.39 7.66 29.1 7.21C28.8 6.75 28.38 6.41 27.84 6.17H27.85ZM27.14 9.92C26.84 10.18 26.4 10.3 25.8 10.3H24.22V7.38H25.8C26.4 7.38 26.85 7.51 27.14 7.76C27.44 8.02 27.58 8.38 27.58 8.84C27.58 9.3 27.43 9.65 27.14 9.91V9.92Z" fill="white"/>
<path d="M32.88 5.8H30.94V14.2H37.09V12.62H32.88V5.8Z" fill="white"/>
<path d="M45.38 6.89C44.97 6.5 44.49 6.19 43.93 5.98C43.38 5.76 42.77 5.66 42.11 5.66C41.45 5.66 40.85 5.77 40.29 5.98C39.73 6.19 39.24 6.5 38.83 6.89C38.41 7.28 38.09 7.74 37.86 8.27C37.64 8.8 37.52 9.37 37.52 10C37.52 10.63 37.63 11.2 37.86 11.73C38.09 12.26 38.41 12.72 38.82 13.11C39.24 13.5 39.72 13.81 40.28 14.02C40.85 14.24 41.46 14.34 42.13 14.34C42.8 14.34 43.39 14.23 43.94 14.02C44.5 13.8 44.98 13.5 45.39 13.12C45.81 12.73 46.13 12.27 46.36 11.74C46.59 11.2 46.71 10.62 46.71 10C46.71 9.38 46.59 8.79 46.36 8.27C46.13 7.74 45.8 7.28 45.39 6.89H45.38ZM44.53 11.09C44.4 11.42 44.22 11.7 43.98 11.94C43.74 12.18 43.46 12.36 43.14 12.49C42.83 12.62 42.48 12.68 42.11 12.68C41.74 12.68 41.39 12.62 41.07 12.49C40.75 12.36 40.47 12.18 40.23 11.94C40 11.7 39.81 11.42 39.68 11.09C39.55 10.75 39.49 10.39 39.49 10C39.49 9.61 39.55 9.24 39.68 8.91C39.82 8.58 40 8.3 40.24 8.06C40.48 7.82 40.76 7.64 41.07 7.51C41.39 7.38 41.74 7.32 42.11 7.32C42.48 7.32 42.83 7.38 43.15 7.51C43.47 7.64 43.75 7.82 43.98 8.06C44.22 8.3 44.4 8.58 44.53 8.91C44.67 9.24 44.73 9.6 44.73 10C44.73 10.4 44.66 10.76 44.53 11.09Z" fill="white"/>
<path d="M53.74 11.5C54.28 11.26 54.7 10.92 55 10.47C55.3 10.01 55.44 9.47 55.44 8.85C55.44 8.23 55.29 7.67 55 7.22C54.7 6.76 54.28 6.42 53.74 6.18C53.2 5.93 52.55 5.81 51.8 5.81H48.16V14.21H50.1V11.87H51.79C51.79 11.87 51.85 11.87 51.88 11.87L53.5 14.22H55.6L53.72 11.53C53.72 11.53 53.73 11.53 53.74 11.53V11.5ZM53.04 7.77C53.34 8.03 53.48 8.39 53.48 8.85C53.48 9.31 53.33 9.67 53.04 9.93C52.74 10.19 52.3 10.31 51.7 10.31H50.12V7.38H51.7C52.3 7.38 52.75 7.51 53.04 7.76V7.77Z" fill="white"/>
<path d="M58.92 10.7H62.82V9.18H58.92V7.36H63.34V5.8H56.99V14.2H63.49V12.64H58.92V10.7Z" fill="white"/>
<path d="M72.48 14.2L70.6 11.51C70.6 11.51 70.61 11.51 70.62 11.51C71.16 11.27 71.58 10.93 71.88 10.48C72.18 10.02 72.32 9.48 72.32 8.86C72.32 8.24 72.17 7.68 71.88 7.23C71.58 6.77 71.16 6.43 70.62 6.19C70.08 5.94 69.43 5.82 68.68 5.82H65.04V14.22H66.98V11.88H68.67C68.67 11.88 68.73 11.88 68.76 11.88L70.38 14.23H72.48V14.2ZM69.91 7.77C70.21 8.03 70.35 8.39 70.35 8.85C70.35 9.31 70.2 9.67 69.91 9.93C69.61 10.19 69.17 10.31 68.57 10.31H66.99V7.38H68.57C69.17 7.38 69.62 7.51 69.91 7.76V7.77Z" fill="white"/>
<path d="M112.48 18H85.48C83.83 18 82.48 16.65 82.48 15V5C82.48 3.35 83.83 2 85.48 2H112.48C114.13 2 115.48 3.35 115.48 5V15C115.48 16.65 114.13 18 112.48 18ZM85.48 3C84.38 3 83.48 3.9 83.48 5V15C83.48 16.1 84.38 17 85.48 17H112.48C113.58 17 114.48 16.1 114.48 15V5C114.48 3.9 113.58 3 112.48 3H85.48Z" fill="#0800B9"/>
<path d="M91.29 13.08C90.84 13.08 90.43 12.97 90.07 12.76C89.71 12.55 89.42 12.27 89.21 11.91C89 11.55 88.89 11.15 88.89 10.7C88.89 10.25 88.99 9.87 89.2 9.51C89.4 9.15 89.68 8.86 90.03 8.65C90.38 8.43 90.77 8.33 91.19 8.33C91.61 8.33 91.99 8.44 92.32 8.65C92.65 8.86 92.91 9.15 93.1 9.51C93.3 9.87 93.4 10.28 93.4 10.73V10.98H89.79C89.84 11.23 89.93 11.46 90.07 11.66C90.21 11.86 90.39 12.01 90.61 12.13C90.83 12.24 91.07 12.3 91.33 12.3C91.55 12.3 91.76 12.27 91.97 12.2C92.18 12.13 92.35 12.03 92.49 11.89L93.07 12.46C92.8 12.66 92.52 12.82 92.23 12.92C91.95 13.02 91.64 13.06 91.29 13.06V13.08ZM89.79 10.33H92.5C92.46 10.09 92.38 9.88 92.25 9.7C92.12 9.51 91.96 9.37 91.77 9.27C91.58 9.16 91.38 9.11 91.16 9.11C90.94 9.11 90.72 9.16 90.53 9.26C90.34 9.36 90.18 9.51 90.04 9.69C89.91 9.87 89.83 10.08 89.79 10.33ZM93.41 13L95.19 10.65L93.48 8.42H94.53L95.71 9.99L96.89 8.42H97.91L96.22 10.64L98.02 13H96.97L95.7 11.31L94.43 13H93.41ZM100.45 13.08C100.01 13.08 99.67 12.98 99.43 12.77C99.2 12.56 99.08 12.26 99.08 11.86V9.17H98.11V8.41H99.08V7.24L99.97 7.02V8.41H101.32V9.17H99.97V11.65C99.97 11.88 100.02 12.05 100.12 12.15C100.23 12.25 100.4 12.29 100.64 12.29C100.77 12.29 100.88 12.29 100.97 12.26C101.07 12.24 101.18 12.21 101.29 12.18V12.94C101.17 12.98 101.03 13.01 100.87 13.03C100.71 13.05 100.57 13.07 100.44 13.07L100.45 13.08ZM101.98 8.42H102.88V9.01C103.02 8.79 103.2 8.63 103.41 8.51C103.63 8.38 103.87 8.32 104.14 8.32C104.33 8.32 104.48 8.35 104.6 8.4V9.21C104.52 9.17 104.43 9.15 104.34 9.14C104.25 9.12 104.16 9.11 104.07 9.11C103.81 9.11 103.57 9.18 103.37 9.33C103.17 9.47 103 9.67 102.88 9.94V13.01H101.98V8.42ZM106.59 13.08C106.26 13.08 105.97 13.02 105.72 12.91C105.47 12.79 105.27 12.63 105.13 12.42C104.99 12.21 104.91 11.97 104.91 11.69C104.91 11.26 105.08 10.92 105.41 10.67C105.74 10.42 106.19 10.29 106.77 10.29C107.22 10.29 107.64 10.38 108.02 10.55V10.06C108.02 9.73 107.92 9.48 107.73 9.32C107.54 9.16 107.27 9.08 106.9 9.08C106.69 9.08 106.47 9.11 106.24 9.18C106.01 9.24 105.76 9.34 105.48 9.47L105.15 8.79C105.5 8.63 105.82 8.51 106.12 8.44C106.42 8.36 106.72 8.32 107.03 8.32C107.62 8.32 108.08 8.46 108.41 8.74C108.74 9.02 108.9 9.42 108.9 9.95V12.99H108.02V12.59C107.82 12.75 107.6 12.87 107.36 12.95C107.13 13.03 106.87 13.07 106.6 13.07L106.59 13.08ZM105.77 11.67C105.77 11.89 105.86 12.07 106.05 12.21C106.24 12.34 106.49 12.41 106.8 12.41C107.04 12.41 107.26 12.38 107.46 12.31C107.66 12.24 107.85 12.13 108.02 11.98V11.21C107.85 11.11 107.66 11.04 107.47 10.99C107.28 10.94 107.07 10.92 106.84 10.92C106.51 10.92 106.25 10.99 106.06 11.13C105.87 11.26 105.78 11.44 105.78 11.68L105.77 11.67Z" fill="#0800B9"/>
</svg>
