<svg width="115" height="20" viewBox="0 0 115 20" fill="none" xmlns="http://www.w3.org/2000/svg">
<path d="M3.7 0H74.3C76.35 0 78 1.65 78 3.65V16.34C78 18.39 76.35 19.99 74.3 19.99H3.7C1.65 20.03 0 18.39 0 16.38V3.65C0 1.65 1.65 0 3.7 0Z" fill="#C17C51"/>
<path d="M11.1 12.89C12.12 12.89 12.79 12.22 12.79 11.07V6H15.06V11.07C15.06 13.38 13.5 14.85 11.05 14.85C8.6 14.85 6.99 13.38 6.99 11.07V6H9.26V11.07C9.3 12.18 10.06 12.89 11.09 12.89H11.1Z" fill="white"/>
<path d="M18.94 6V12.8H22.64V14.76H16.67V6H18.94Z" fill="white"/>
<path d="M30.4 6V7.87H27.77V14.71H25.5V7.87H22.92V6H30.41H30.4Z" fill="white"/>
<path d="M33.61 6V14.71H31.34V6H33.61Z" fill="white"/>
<path d="M37.8 6L40.12 11.07L42.44 6H44.94V14.71H42.93V9.2L40.88 13.87H39.36L37.31 9.2V14.71H35.26V6H37.8Z" fill="white"/>
<path d="M52.46 13.2H48.67L48.05 14.76H45.73L49.47 6.05H51.83L55.48 14.76H53.03L52.45 13.2H52.46ZM51.79 11.42L50.59 8.31L49.39 11.42H51.8H51.79Z" fill="white"/>
<path d="M63.02 6V7.87H60.39V14.71H58.12V7.87H55.54V6H63.03H63.02Z" fill="white"/>
<path d="M70.86 6V7.82H66.23V9.46H70.42V11.28H66.23V12.92H70.95V14.74H63.91V6H70.86Z" fill="white"/>
<path d="M111.99 18H84.99C83.34 18 81.99 16.65 81.99 15V5C81.99 3.35 83.34 2 84.99 2H111.99C113.64 2 114.99 3.35 114.99 5V15C114.99 16.65 113.64 18 111.99 18ZM84.99 3C83.89 3 82.99 3.9 82.99 5V15C82.99 16.1 83.89 17 84.99 17H111.99C113.09 17 113.99 16.1 113.99 15V5C113.99 3.9 113.09 3 111.99 3H84.99Z" fill="#0800B9"/>
<path d="M90.8 13.08C90.35 13.08 89.94 12.97 89.58 12.76C89.22 12.55 88.93 12.27 88.72 11.91C88.51 11.55 88.4 11.15 88.4 10.7C88.4 10.25 88.5 9.87 88.71 9.51C88.91 9.15 89.19 8.86 89.54 8.65C89.89 8.43 90.28 8.33 90.7 8.33C91.12 8.33 91.5 8.44 91.83 8.65C92.16 8.86 92.42 9.15 92.61 9.51C92.81 9.87 92.91 10.28 92.91 10.73V10.98H89.3C89.35 11.23 89.44 11.46 89.58 11.66C89.72 11.86 89.9 12.01 90.12 12.13C90.34 12.24 90.58 12.3 90.84 12.3C91.06 12.3 91.27 12.27 91.48 12.2C91.69 12.13 91.86 12.03 92 11.89L92.58 12.46C92.31 12.66 92.03 12.82 91.74 12.92C91.46 13.02 91.15 13.06 90.8 13.06V13.08ZM89.3 10.33H92.01C91.97 10.09 91.89 9.88 91.76 9.7C91.63 9.51 91.48 9.37 91.28 9.27C91.09 9.16 90.89 9.11 90.67 9.11C90.45 9.11 90.23 9.16 90.04 9.26C89.85 9.36 89.69 9.51 89.55 9.69C89.42 9.87 89.34 10.08 89.3 10.33ZM92.92 13L94.7 10.65L92.99 8.42H94.04L95.22 9.99L96.4 8.42H97.42L95.73 10.64L97.53 13H96.48L95.21 11.31L93.94 13H92.92ZM99.96 13.08C99.52 13.08 99.18 12.98 98.94 12.77C98.71 12.56 98.59 12.26 98.59 11.86V9.17H97.62V8.41H98.59V7.24L99.48 7.02V8.41H100.83V9.17H99.48V11.65C99.48 11.88 99.53 12.05 99.63 12.15C99.74 12.25 99.91 12.29 100.15 12.29C100.28 12.29 100.39 12.29 100.48 12.26C100.58 12.24 100.69 12.21 100.8 12.18V12.94C100.68 12.98 100.54 13.01 100.38 13.03C100.22 13.05 100.08 13.07 99.95 13.07L99.96 13.08ZM101.5 8.42H102.4V9.01C102.54 8.79 102.72 8.63 102.93 8.51C103.15 8.38 103.39 8.32 103.66 8.32C103.85 8.32 104 8.35 104.12 8.4V9.21C104.04 9.17 103.95 9.15 103.86 9.14C103.77 9.12 103.68 9.11 103.59 9.11C103.33 9.11 103.09 9.18 102.89 9.33C102.69 9.47 102.52 9.67 102.4 9.94V13.01H101.5V8.42ZM106.1 13.08C105.77 13.08 105.48 13.02 105.23 12.91C104.98 12.79 104.78 12.63 104.64 12.42C104.5 12.21 104.42 11.97 104.42 11.69C104.42 11.26 104.59 10.92 104.92 10.67C105.25 10.42 105.7 10.29 106.28 10.29C106.73 10.29 107.15 10.38 107.53 10.55V10.06C107.53 9.73 107.43 9.48 107.24 9.32C107.05 9.16 106.78 9.08 106.41 9.08C106.2 9.08 105.98 9.11 105.75 9.18C105.52 9.24 105.27 9.34 104.99 9.47L104.66 8.79C105.01 8.63 105.33 8.51 105.63 8.44C105.93 8.36 106.23 8.32 106.54 8.32C107.13 8.32 107.59 8.46 107.92 8.74C108.25 9.02 108.42 9.42 108.42 9.95V12.99H107.54V12.59C107.34 12.75 107.12 12.87 106.88 12.95C106.64 13.03 106.39 13.07 106.12 13.07L106.1 13.08ZM105.28 11.67C105.28 11.89 105.37 12.07 105.56 12.21C105.75 12.34 106 12.41 106.31 12.41C106.55 12.41 106.77 12.38 106.97 12.31C107.17 12.24 107.36 12.13 107.53 11.98V11.21C107.36 11.11 107.17 11.04 106.98 10.99C106.79 10.94 106.58 10.92 106.35 10.92C106.02 10.92 105.76 10.99 105.57 11.13C105.38 11.26 105.29 11.44 105.29 11.68L105.28 11.67Z" fill="#0800B9"/>
</svg>
