<svg width="33" height="8" viewBox="0 0 33 8" fill="none" xmlns="http://www.w3.org/2000/svg"><path d="M4.219 8a4.759 4.759 0 0 1-1.69-.292 3.913 3.913 0 0 1-1.337-.833 3.854 3.854 0 0 1-.876-1.27A4.003 4.003 0 0 1 0 4.001C0 3.418.107 2.885.316 2.4c.209-.486.505-.912.888-1.271.383-.36.833-.64 1.35-.833a4.81 4.81 0 0 1 1.7-.292c.687 0 1.303.114 1.852.343.548.23 1.01.56 1.385.995L6.354 2.404a2.801 2.801 0 0 0-.927-.667 2.743 2.743 0 0 0-1.093-.217c-.368 0-.707.059-1.019.181a2.384 2.384 0 0 0-.8.513A2.28 2.28 0 0 0 1.992 3a2.657 2.657 0 0 0-.181 1.006c0 .37.059.683.181.99.122.304.296.569.521.79.225.22.49.395.797.52.304.127.644.19 1.01.19.368 0 .7-.059 1.035-.177.335-.119.659-.312.978-.584l1.019 1.294a4.579 4.579 0 0 1-1.468.734 5.743 5.743 0 0 1-1.658.249L4.219 8Zm1.492-1.216V3.88h1.634v3.137L5.71 6.784ZM12.76 8a4.592 4.592 0 0 1-1.69-.3 4.022 4.022 0 0 1-1.35-.84 3.772 3.772 0 0 1-.887-1.271 3.987 3.987 0 0 1-.316-1.591c0-.572.107-1.113.316-1.598.209-.482.505-.904.888-1.267.383-.36.829-.64 1.342-.84a4.652 4.652 0 0 1 1.685-.3c.612 0 1.172.098 1.685.291.513.194.96.474 1.342.833.383.363.679.785.888 1.27.21.486.316 1.023.316 1.603 0 .58-.107 1.105-.316 1.599-.21.489-.505.915-.888 1.274-.383.363-.829.64-1.342.833a4.703 4.703 0 0 1-1.673.292V8Zm-.012-1.516c.347 0 .663-.059.955-.181a2.33 2.33 0 0 0 .77-.521c.22-.225.39-.485.513-.785.122-.3.181-.632.181-.999s-.059-.702-.181-.998a2.44 2.44 0 0 0-.513-.786 2.33 2.33 0 0 0-.77-.52 2.437 2.437 0 0 0-.955-.182c-.347 0-.667.059-.96.181a2.252 2.252 0 0 0-.769.521A2.452 2.452 0 0 0 10.51 3c-.122.3-.181.631-.181.998s.059.703.181.999c.123.3.292.56.51.785.216.225.473.399.769.52.296.123.616.182.959.182ZM18.329 7.87V.134h1.8V6.41h3.855v1.46H18.33ZM24.998.134h3.513c.84 0 1.579.162 2.222.482.64.32 1.14.77 1.504 1.35.363.58.54 1.258.54 2.04 0 .781-.181 1.46-.54 2.04-.36.58-.86 1.027-1.504 1.35-.64.32-1.381.482-2.222.482H25V.134Zm1.8 6.275h1.622c.517 0 .963-.098 1.342-.292.38-.193.675-.473.884-.84.21-.363.316-.79.316-1.275 0-.485-.107-.92-.316-1.283-.209-.359-.505-.64-.884-.832-.379-.194-.825-.293-1.342-.293h-1.622v4.82-.005Z" fill="#8D7237"/></svg>
