<svg width="61" height="8" viewBox="0 0 61 8" fill="none" xmlns="http://www.w3.org/2000/svg"><path d="M0 7.864V0h3.402c.702 0 1.312.112 1.822.341.51.229.902.558 1.18.983.276.425.416.93.416 1.517 0 .585-.14 1.099-.417 1.52-.277.425-.67.75-1.18.983-.509.233-1.115.35-1.82.35H.998l.83-.82v2.99H0Zm1.83-2.785-.831-.866h2.303c.554 0 .975-.12 1.26-.361.285-.241.425-.578.425-1.011 0-.434-.14-.77-.425-1.008-.285-.236-.702-.353-1.26-.353H.999l.83-.866v4.465ZM8.22 7.864V0h1.83v6.38h3.92v1.484H8.22ZM13.97 7.864 17.46 0h1.798l3.526 7.864h-1.91L17.99.923h.73l-2.884 6.94H13.97Zm1.761-1.685.462-1.38h4.064l.47 1.38h-5 .004ZM25.232 7.864v-6.38h-2.516V0h6.849v1.484h-2.516v6.38h-1.817ZM30.544 7.864V0h1.83v7.864h-1.83ZM34.227 7.864V0h1.504l4.638 5.661h-.73V0h1.797v7.864h-1.504l-4.638-5.661h.73v5.66h-1.797ZM46.792 8c-1.115 0-1.986-.309-2.616-.93-.63-.623-.942-1.513-.942-2.673V0h1.83v4.35c0 .741.152 1.279.46 1.612.306.333.735.501 1.28.501.546 0 .983-.168 1.292-.501.31-.333.462-.87.462-1.613V0h1.785v4.393c0 1.16-.313 2.05-.943 2.672-.63.622-1.496.931-2.604.931L46.792 8ZM52.153 7.864V0h1.504l3.346 5.549h-.798L59.482 0H61v7.864h-1.697l-.024-5.248h.337L56.963 7.02h-.81l-2.685-4.405h.37v5.248H52.14h.013Z" fill="#28334A"/></svg>
