<svg width="270" height="40" viewBox="0 0 270 40" fill="none" xmlns="http://www.w3.org/2000/svg">
<g clip-path="url(#clip0_652_98)">
<path fill-rule="evenodd" clip-rule="evenodd" d="M29.5517 5.73099H31.462V3.82066H33.3528V1.91033H31.462V0H29.5517V1.91033H27.6413V3.82066H29.5517V5.73099ZM41.9298 5.24366C40.078 5.24366 38.5965 6.74464 38.5965 8.59649C38.5965 10.4483 40.078 11.9493 41.9298 11.9493C43.7622 11.9493 45.2632 10.4483 45.2632 8.59649C45.2632 6.74464 43.7817 5.24366 41.9298 5.24366ZM19.0643 16.7446H41.9298V12.9045H19.0643V16.7446ZM22.3977 8.59649C22.3977 6.74464 20.8967 5.24366 19.0643 5.24366C17.2125 5.24366 15.731 6.74464 15.731 8.59649C15.731 10.4483 17.2125 11.9493 19.0643 11.9493C20.9162 11.9493 22.3977 10.4483 22.3977 8.59649ZM30.9747 8.59649C30.9747 10.4483 32.4756 11.9493 34.308 11.9493C36.1404 11.9493 37.6413 10.4483 37.6413 8.59649C37.6413 6.74464 36.1598 5.24366 34.308 5.24366C32.4756 5.24366 30.9747 6.74464 30.9747 8.59649ZM26.6862 11.9493C28.5185 11.9493 30.0195 10.4483 30.0195 8.59649C30.0195 6.74464 28.5185 5.24366 26.6862 5.24366C24.8343 5.24366 23.3528 6.74464 23.3528 8.59649C23.3528 10.4483 24.8343 11.9493 26.6862 11.9493ZM51.462 20.5848L48.5965 29.2203L45.731 20.5848H36.1988V35.9064H41.9103V24.4055L45.7115 35.9064H51.4425L55.2437 24.4055V35.9064H60.9552V20.5653H51.462V20.5848ZM24.7953 20.5848H19.0838V35.9064H34.3275V32.0468H24.7953V20.5848ZM17.154 20.5848H11.4425L5.7115 26.3353V20.5848H0V35.9064H5.7115V30.1559L11.4425 35.9064H19.0643L10.4873 27.271L17.154 20.5848ZM82.0468 27.5828C82.5731 27.5828 83.0214 27.5049 83.4113 27.3294C83.8011 27.154 84.0936 26.9006 84.308 26.5497C84.5224 26.1988 84.6394 25.77 84.6394 25.2437C84.6394 24.7368 84.5224 24.308 84.308 23.9766C84.0936 23.6452 83.8011 23.3918 83.4113 23.2164C83.0214 23.0604 82.5731 22.963 82.0468 22.963H78.9668V27.5828H82.0468ZM76.1793 35.8869V20.6628H82.5146C83.5477 20.6628 84.4444 20.8382 85.1852 21.1891C85.9259 21.54 86.4717 22.0468 86.8616 22.6901C87.2514 23.3333 87.4269 24.0741 87.4269 24.9513C87.4269 25.575 87.3099 26.1404 87.0955 26.6472C86.8811 27.1345 86.5497 27.5634 86.1403 27.8947C85.731 28.2261 85.2242 28.4795 84.6394 28.655V28.694C84.9902 28.7914 85.3021 28.9669 85.575 29.2203C85.8479 29.4737 86.0624 29.7856 86.2573 30.1949C86.4522 30.5848 86.6472 31.1111 86.8226 31.7349L88.0702 35.9064H85.2047L84.0741 32.1637C83.8986 31.5789 83.7037 31.1306 83.5283 30.8187C83.3333 30.5068 83.0799 30.2729 82.729 30.117C82.3976 29.961 81.9493 29.883 81.384 29.883H78.9863V35.9064H76.1793V35.8869ZM95.9064 33.4893C95.4581 33.7817 94.9318 33.9376 94.347 33.9376C93.7427 33.9376 93.2163 33.7817 92.768 33.4893C92.3197 33.1969 91.9688 32.7485 91.7154 32.1832C91.462 31.6179 91.345 30.9357 91.345 30.117C91.345 29.2982 91.4815 28.5965 91.7154 28.0117C91.9493 27.4269 92.3002 26.9786 92.7485 26.6862C93.1969 26.3938 93.7232 26.2378 94.3275 26.2378C94.9317 26.2378 95.4581 26.3938 95.9064 26.6862C96.3548 26.9786 96.7056 27.4074 96.959 27.9922C97.2124 28.577 97.3294 29.2788 97.3294 30.0975C97.3294 30.9162 97.2124 31.5984 96.959 32.1832C96.7056 32.7485 96.3548 33.1969 95.9064 33.4893ZM91.4035 35.3996C92.2612 35.8869 93.2358 36.1404 94.347 36.1404C95.4386 36.1404 96.4327 35.8869 97.3099 35.3801C98.1676 34.8928 98.8304 34.191 99.3177 33.2749C99.805 32.3782 100.039 31.306 100.039 30.0975C100.039 28.8694 99.805 27.7973 99.3372 26.8811C98.8694 25.9649 98.2066 25.2632 97.3489 24.7563C96.5107 24.269 95.5166 24.0156 94.3859 24.0156C93.2553 24.0156 92.2612 24.269 91.4035 24.7758C90.5458 25.2826 89.8635 25.9844 89.3957 26.9006C88.9084 27.8168 88.6744 28.8889 88.6744 30.0975C88.6744 31.306 88.9084 32.3587 89.3957 33.2749C89.8635 34.191 90.5458 34.9123 91.4035 35.3996ZM101.228 40V37.8363H102.203C102.768 37.8363 103.197 37.7388 103.509 37.5439C103.821 37.3489 104.074 37.0175 104.249 36.5692L104.522 35.9454L100.117 24.2885H102.846L105.068 30.9162C105.184 31.2639 105.3 31.6344 105.422 32.0245L105.422 32.0256C105.526 32.357 105.634 32.7025 105.75 33.0604H105.809L105.935 32.6411L106.043 32.2792L106.044 32.2748L106.048 32.2637C106.191 31.7852 106.326 31.3342 106.452 30.9162L108.655 24.2885H111.384L106.569 37.232C106.218 38.1676 105.692 38.8694 105.01 39.3177C104.308 39.7661 103.392 40 102.222 40H101.228ZM117.661 33.6257C117.212 33.8986 116.706 34.0351 116.121 34.0351C115.731 34.0351 115.38 33.9766 115.107 33.8402C114.815 33.7037 114.581 33.5283 114.425 33.2943C114.269 33.0604 114.191 32.7875 114.191 32.4561C114.191 31.9493 114.386 31.5595 114.776 31.2865C115.166 31.0136 115.731 30.8382 116.491 30.7602L119.006 30.5263V30.9747C119.006 31.5595 118.889 32.0663 118.655 32.5341C118.421 33.0019 118.09 33.3528 117.661 33.6257ZM113.392 35.692C113.938 35.9454 114.581 36.0819 115.322 36.0819C116.199 36.0819 116.959 35.9064 117.602 35.614C118.226 35.2437 118.674 34.7953 118.967 34.23H119.006V35.9454H121.579V28.2066C121.579 27.4074 121.384 26.6862 120.994 26.0624C120.604 25.4386 120.039 24.9513 119.318 24.6004C118.596 24.2495 117.739 24.0741 116.764 24.0741C116.043 24.0741 115.361 24.1715 114.756 24.386C114.133 24.5809 113.606 24.8733 113.138 25.2632C112.671 25.6335 112.3 26.1014 111.988 26.6472L113.782 28.0897C114.035 27.7193 114.288 27.4074 114.581 27.154C114.873 26.8811 115.185 26.6862 115.556 26.5302C115.926 26.3743 116.316 26.2963 116.745 26.2963C117.193 26.2963 117.602 26.3743 117.934 26.5302C118.265 26.6862 118.538 26.9006 118.713 27.193C118.889 27.4854 118.986 27.7973 118.986 28.1676V28.7719L116.374 29.0058C115.283 29.1228 114.405 29.3177 113.704 29.5906C113.021 29.8635 112.495 30.2534 112.144 30.7602C111.793 31.2476 111.618 31.8713 111.618 32.6316C111.618 33.3723 111.774 33.9961 112.086 34.5224C112.398 35.0292 112.826 35.4191 113.392 35.692ZM126.277 35.8869H123.606V20.6628H126.277V35.8869ZM141.15 32.9825C140.429 33.4113 139.571 33.6257 138.577 33.6257V33.6452H136.335V22.963H138.557C139.552 22.963 140.409 23.1774 141.131 23.6062C141.852 24.0351 142.417 24.6589 142.788 25.4581C143.158 26.2573 143.353 27.2125 143.353 28.3041C143.353 29.3957 143.158 30.3314 142.788 31.1306C142.417 31.9298 141.871 32.5536 141.15 32.9825ZM133.606 20.6628V35.8869H138.596C140.195 35.8869 141.579 35.5751 142.71 34.9513C143.84 34.3275 144.698 33.4503 145.283 32.3002C145.867 31.1501 146.16 29.8051 146.16 28.2846C146.16 26.7446 145.867 25.3996 145.283 24.2495C144.698 23.1189 143.84 22.2222 142.71 21.5984C141.579 20.9747 140.214 20.6628 138.596 20.6628H133.606ZM158.148 24.269V35.8869H155.478V34.3275H155.439C155.088 34.8928 154.62 35.3411 154.016 35.653C153.411 35.9649 152.71 36.1209 151.91 36.1209C151.072 36.1209 150.351 35.9454 149.727 35.5945C149.103 35.2437 148.635 34.7368 148.304 34.0351C147.973 33.3333 147.797 32.4756 147.797 31.462V24.2495H150.468V31.1501C150.468 31.9883 150.663 32.6511 151.072 33.1189C151.481 33.5867 152.047 33.8207 152.787 33.8207C153.333 33.8207 153.821 33.7037 154.21 33.4503C154.62 33.1969 154.932 32.8655 155.146 32.4172C155.361 31.9883 155.458 31.501 155.458 30.9357V24.2495H158.148V24.269ZM162.671 35.6335C163.197 35.9259 163.879 36.0624 164.737 36.0624C165.263 36.0624 165.809 35.9649 166.355 35.8285V33.7427C166.023 33.8012 165.711 33.8207 165.439 33.8207C164.932 33.8207 164.542 33.7037 164.288 33.4893C164.035 33.2749 163.918 32.9435 163.918 32.5146V26.4717H166.394V24.2885H163.918V21.3645H161.267V24.2885H159.396V26.4717H161.267V32.6511C161.267 33.3333 161.364 33.9376 161.579 34.4444C161.793 34.9513 162.164 35.3411 162.671 35.6335ZM173.236 36.1404C172.125 36.1404 171.111 35.8869 170.214 35.3996C169.318 34.9123 168.635 34.2105 168.129 33.2943C167.622 32.3782 167.368 31.306 167.368 30.0975C167.368 28.8694 167.622 27.7973 168.129 26.8811C168.635 25.9649 169.337 25.2632 170.214 24.7563C171.092 24.269 172.086 24.0156 173.197 24.0156C173.957 24.0156 174.659 24.152 175.302 24.4055C175.945 24.6784 176.511 25.0292 176.979 25.5166C177.446 25.9844 177.817 26.5302 178.09 27.154L176.082 28.3236C175.887 27.9142 175.672 27.5439 175.4 27.2515C175.127 26.9591 174.834 26.7251 174.483 26.5497C174.133 26.3743 173.743 26.2963 173.314 26.2963C172.671 26.2963 172.105 26.4522 171.618 26.7641C171.131 27.076 170.741 27.5244 170.468 28.0897C170.195 28.655 170.058 29.3177 170.058 30.078C170.058 30.8382 170.195 31.501 170.468 32.0663C170.741 32.6316 171.131 33.0799 171.618 33.3918C172.125 33.7037 172.69 33.8596 173.333 33.8596C173.762 33.8596 174.133 33.7817 174.483 33.6257C174.834 33.4698 175.146 33.2359 175.4 32.9435C175.672 32.6511 175.906 32.3002 176.101 31.9103L178.09 33.0799C177.856 33.6647 177.505 34.1715 177.057 34.6394C176.608 35.1072 176.062 35.4776 175.419 35.7505C174.776 36.0039 174.035 36.1404 173.236 36.1404ZM179.61 20.6628V35.8869V35.9064H182.281V29.2203C182.281 28.655 182.398 28.1676 182.612 27.7388C182.827 27.2904 183.138 26.9591 183.548 26.7057C183.938 26.4522 184.425 26.3353 184.971 26.3353C185.711 26.3353 186.277 26.5692 186.686 27.037C187.096 27.5049 187.29 28.1676 187.29 29.0058V35.9064H189.961V28.694C189.961 27.6803 189.786 26.8226 189.454 26.1209C189.123 25.4191 188.655 24.9123 188.031 24.5614C187.407 24.2105 186.686 24.0351 185.848 24.0351C185.049 24.0351 184.347 24.191 183.743 24.5224C183.138 24.8343 182.671 25.3021 182.32 25.9064H182.281V20.6628H179.61ZM200.916 30.1949H205.478L203.782 25.1267C203.587 24.5419 203.392 23.9181 203.216 23.2554H203.158C202.982 23.9181 202.788 24.5419 202.593 25.1267L200.916 30.1949ZM196.082 35.8869L201.501 20.6628H204.951L210.37 35.8869H207.388L206.199 32.3392H200.253L199.064 35.8869H196.082ZM214.347 24.269H211.676V35.8869H214.347V24.269ZM212.203 22.6316C212.437 22.768 212.71 22.846 213.002 22.846C213.294 22.846 213.567 22.768 213.801 22.6316C214.035 22.4951 214.23 22.3002 214.366 22.0663C214.503 21.8324 214.581 21.5789 214.581 21.2671C214.581 20.9747 214.503 20.7018 214.366 20.4678C214.23 20.2339 214.035 20.039 213.801 19.9025C213.567 19.7661 213.314 19.6881 213.002 19.6881C212.71 19.6881 212.437 19.7661 212.203 19.9025C211.969 20.039 211.774 20.2339 211.637 20.4678C211.501 20.7018 211.423 20.9747 211.423 21.2671C211.423 21.5595 211.501 21.8324 211.637 22.0663C211.774 22.3002 211.969 22.4951 212.203 22.6316ZM216.764 24.269H219.435V26.3548H219.454C219.786 25.6725 220.214 25.1267 220.78 24.7563C221.326 24.386 221.988 24.2105 222.768 24.2105C223.08 24.2105 223.294 24.23 223.431 24.2495V26.7446C223.353 26.7251 223.236 26.7057 223.119 26.7057C223.002 26.6862 222.885 26.6862 222.768 26.6862C222.105 26.6862 221.52 26.8226 221.014 27.0955C220.507 27.3684 220.117 27.7583 219.844 28.2846C219.571 28.7914 219.435 29.3957 219.435 30.078V35.9064H216.764V35.8869V24.269ZM225.38 35.9259H228.051V20.7018H225.38V35.9259ZM230.546 35.9259V24.308H233.216V35.9259H230.546ZM231.871 22.885C231.579 22.885 231.306 22.807 231.072 22.6706C230.838 22.5341 230.643 22.3392 230.507 22.1053C230.37 21.8713 230.292 21.5984 230.292 21.306C230.292 21.0136 230.37 20.7407 230.507 20.5068C230.643 20.2729 230.838 20.078 231.072 19.9415C231.306 19.8051 231.579 19.7271 231.871 19.7271C232.183 19.7271 232.437 19.8051 232.671 19.9415C232.904 20.078 233.099 20.2729 233.236 20.5068C233.372 20.7407 233.45 21.0136 233.45 21.306C233.45 21.6179 233.372 21.8713 233.236 22.1053C233.099 22.3392 232.904 22.5341 232.671 22.6706C232.456 22.807 232.183 22.885 231.871 22.885ZM235.711 24.308V35.9259V35.9454H238.382V29.2593C238.382 28.694 238.499 28.2066 238.713 27.7778C238.928 27.3294 239.24 26.998 239.649 26.7446C240.039 26.4912 240.526 26.3743 241.072 26.3743C241.813 26.3743 242.378 26.6082 242.787 27.076C243.197 27.5439 243.392 28.2066 243.392 29.0448V35.9454H246.062V28.7329C246.062 27.7193 245.887 26.8616 245.556 26.1598C245.224 25.4581 244.756 24.9513 244.133 24.6004C243.509 24.2495 242.788 24.0741 241.949 24.0741C241.15 24.0741 240.448 24.23 239.844 24.5419C239.24 24.8538 238.772 25.3021 238.421 25.8674H238.382V24.308H235.711ZM256.004 27.3684C256.216 27.7925 256.333 28.3119 256.373 28.8889H250.819C250.897 28.2261 251.072 27.6998 251.326 27.271C251.598 26.8616 251.91 26.5302 252.32 26.3353C252.729 26.1209 253.177 26.0234 253.704 26.0234C254.25 26.0234 254.717 26.1404 255.107 26.3743C255.497 26.6082 255.789 26.9396 256.004 27.3684ZM253.938 36.1793C252.768 36.1793 251.754 35.9454 250.897 35.4581C250.039 34.9708 249.376 34.269 248.908 33.3723C248.441 32.4561 248.226 31.384 248.226 30.1559C248.226 28.9279 248.441 27.8557 248.889 26.9396C249.337 26.0234 249.981 25.3216 250.799 24.8148C251.637 24.308 252.612 24.0741 253.743 24.0741C254.834 24.0741 255.77 24.308 256.569 24.7953C257.349 25.2632 257.953 25.9454 258.382 26.8031C258.791 27.6608 259.006 28.6745 259.006 29.8051C259.006 29.961 259.006 30.117 258.986 30.2924C258.967 30.4678 258.947 30.6628 258.928 30.8772H250.838C250.936 31.5595 251.111 32.1248 251.404 32.5731C251.676 33.0214 252.066 33.3723 252.534 33.6062C253.002 33.8402 253.548 33.9376 254.191 33.9376C254.639 33.9376 255.068 33.8791 255.439 33.7427C255.809 33.6257 256.14 33.4503 256.413 33.2164C256.686 33.0019 256.959 32.729 257.193 32.4172L258.811 33.8986C258.519 34.386 258.129 34.7953 257.661 35.1267C257.193 35.4776 256.647 35.731 256.023 35.9259C255.361 36.0819 254.678 36.1793 253.938 36.1793ZM262.476 35.5166C263.294 35.9649 264.23 36.1793 265.322 36.1793C266.316 36.1793 267.154 36.0234 267.875 35.731C268.577 35.4191 269.103 34.9903 269.454 34.425C269.805 33.8596 269.98 33.1969 269.98 32.4561C269.98 31.7739 269.844 31.2086 269.591 30.7797C269.337 30.3509 268.908 29.9805 268.343 29.7076C267.778 29.4152 266.998 29.1618 265.984 28.9279C265.91 28.9087 265.838 28.8902 265.767 28.8721C265.263 28.7429 264.854 28.6382 264.581 28.5185C264.249 28.3821 264.035 28.2456 263.899 28.0702C263.762 27.8947 263.704 27.6803 263.704 27.4074C263.704 27.154 263.782 26.9396 263.938 26.7641C264.094 26.5887 264.308 26.4522 264.581 26.3548C264.854 26.2573 265.185 26.1988 265.575 26.1988C266.082 26.1988 266.55 26.3353 266.998 26.6277C267.446 26.9201 267.817 27.3294 268.09 27.8363L269.883 26.4522C269.649 25.9454 269.318 25.5166 268.908 25.1657C268.499 24.8148 267.992 24.5419 267.427 24.347C266.842 24.1521 266.218 24.0546 265.517 24.0546C264.639 24.0546 263.86 24.191 263.177 24.4834C262.495 24.7758 261.969 25.1852 261.598 25.731C261.228 26.2768 261.033 26.9006 261.033 27.6413C261.033 28.3041 261.15 28.8304 261.403 29.2593C261.657 29.6881 262.047 30.039 262.593 30.3314C263.138 30.6238 263.879 30.8772 264.815 31.0916C265.458 31.2671 265.945 31.4035 266.296 31.54C266.628 31.6569 266.881 31.8324 267.018 32.0078C267.154 32.2027 267.232 32.4367 267.232 32.729C267.232 33.1384 267.076 33.4503 266.725 33.6842C266.374 33.9181 265.906 34.0351 265.263 34.0351C264.678 34.0351 264.152 33.8791 263.665 33.5673C263.177 33.2554 262.749 32.7875 262.378 32.1832L260.585 33.6062C261.033 34.4445 261.657 35.0682 262.476 35.5166Z" fill="#009FD9"/>
</g>
<defs>
<clipPath id="clip0_652_98">
<rect width="270" height="40" fill="white"/>
</clipPath>
</defs>
</svg>
