<svg height="70" viewBox="0 0 560 70" width="560" xmlns="http://www.w3.org/2000/svg"><g fill="none" fill-rule="evenodd"><path d="m-40-29h970v127h-970z" fill="#fff"/><g transform="translate(-.8 -.132557)"><path d="m541.37152 68.346125c-4.9072.2386364-9.4664-1.4119318-12.976-4.305l-.02.0214773c3.6312 3.5198863 8.6576 5.5880682 14.1176 5.3239772 10.4392-.5043181 18.4944-9.3513636 17.9856-19.7535227-.256-5.2603409-2.6528-9.9153409-6.3072-13.16l-.0168.0159091c3.028 3.1659091 4.972 7.3913636 5.2024 12.0972727.5088 10.4093182-7.5464 19.2539773-17.9856 19.7598864" fill="#002776"/><path d="m520.17608 57.2014091c-.6088.3221591-.7544.8240909-.4616 1.6052273.2656.7159091.7064 1.0340909 1.1888.8479545.3864-.1376136.4568-.4685227.3144-1.3228409l-.0584-.3309091c-.136-.84-.1592-1.2019318-.0496-1.5606818.108-.4025.3456-.6594318.7072-.7954546.8632-.3197727 1.6592.2243182 2.1136 1.4310228.4952 1.3061363.1928 2.2813636-.832 2.6790909l-.24-.6411364c.7128-.2871591.908-.9434091.5472-1.8923863-.292-.7747728-.7752-1.1271591-1.296-.9298864-.42.1535227-.524.5401136-.3888 1.4143182l.0496.3698863.0496.3229546c.0984.6475.1048.8781818.0384 1.1534091-.0928.3428409-.3184.5902272-.6752.7214772-.8088.3046591-1.576-.18375-1.984-1.2727272-.4456-1.1844318-.176-2.0482955.7368-2.4325z" fill="#002776"/><path d="m519.78496 50.3791136 2.9232-2.3473863-.0008.8893182-2.4744 1.9552272.768.88375 1.7112.0007955-.0016.7h-4.8792l-.0016-.6968182 1.9184-.0015909.2656.0055682.2488.0015909-.1592-.175-.164-.1757955-2.1096-2.3696591-.004-.9251136z" fill="#002776"/><path d="m522.1052 42.8980227 1.8664.6976137-.2432.6530681-1.8664-.6976136-3.3912.9402273.2976-.7954546 2.1072-.5369318.2592-.0660227c.1048-.0302273.172-.0421591.3552-.0771591-.1592-.1988636-.1968-.2418182-.3632-.4868182l-1.2544-1.7682954.284-.7596591z" fill="#002776"/><path d="m525.59992 34.0353864-1.0592 1.2377272 3.024 2.5780682-.7584.8821591-3.0232-2.5740909-1.056 1.2305682-.684-.5878409 2.8688-3.3472728z" fill="#002776"/><path d="m532.28352 29.5677159-2.492 1.3832955.504.9092045 2.2904-1.2703409.4056.7286364-2.2912 1.2655681.5864 1.0507955 2.5416-1.4127273.4416.7867046-3.5656 1.9759091-2.3768-4.2548864 3.5184-1.9496591z" fill="#002776"/><path d="m541.69112 31.6553068-1.2792.0620455-.6096-1.0698864-1.9752.2752273-.3008 1.1884091-1.22.2863636 1.3936-5.2897727 1.208-.1630682zm-2.74-2.5621591c-.2584-.4510227-.3576-.6546591-.504-1.0022727-.0488.3460227-.1016.6029545-.232 1.1009091l-.2216.9243182 1.4256-.1980682z" fill="#002776"/><path d="m549.49272 33.3807273-1.0168-.4080682.424-1.4405682c.0448-.1646591.1128-.3985227.204-.6952273.0864-.3014772.1648-.5385227.2216-.7119318.0664-.1932954.1304-.39375.2016-.6045454l.124-.3428409c-.2976.4892045-.4184.6554545-.6912 1.0468181-.1136.1742046-.2216.3213637-.3096.4398864l-1.4272 1.9051136-.8816-.2513636-.2304-2.3306818c-.016-.1193182-.0216-.2863637-.032-.5202273-.0144-.30625-.0232-.5385227-.0296-.6976136-.0016-.13125.0024-.3245455.0104-.5918182l-.1344.5886364c-.156.6355681-.2296.91-.4384 1.67125l-.44 1.5590909-1.076-.1909091 1.3216-4.7321591 1.6384.35.1816 2.2575c.048.5281818.0496.97125.0144 1.5980682.1896-.3571591.2592-.4725.4784-.79625.1472-.21875.2728-.4017046.3896-.5695455l1.3232-1.8072727 1.5448.5592045z" fill="#002776"/><path d="m539.96744 42.5512841c-.6024.5043182-1.8008 1.5996591-2.956 2.66l-1.3096 1.1995454c-1.0416-.2123863-2.0768-.3245454-3.1416-.3468181-2.3752-.0509091-4.5672.5560227-5.584 1.5439772-.384.3802273-.5848.7954546-.5824 1.2345455-.0016 1.1502273 1.3032 1.7547727 1.704 1.9146591 2.0936.8264773 3.868.6395454 5.7568-.6220455 1.044-.6952272 2.304-1.8176136 3.288-2.7196591.7496.18375 1.596.4271591 2.5088.7159091l.8384.2625c-1.1152 1.05-2.2648 2.1588637-3.328 3.0505682l-.0832.0723864c-1.4768 1.2385227-2.5432 2.1381818-4.0648 2.4452272-1.0704.2107955-1.8232-.0286363-2.0672-.1845454-.0232.0031818-.0584.0445454-.0584.0445454.8608.7413637 1.6824 1.1661364 3.112 1.0722728 1.3624-.0890909 2.9504-.9076137 4.5872-2.3736364l2.2128-2.0721591 1.5528-1.4715909c0 .0071591 3.0504.9632955 3.0504.9632955.0248.0039772.0568.0135227.0568.0135227-.032-.0007955-1.9416 1.8017045-1.9416 1.8017045l-1.6656 1.58375c-1.7056 1.5845455-2.6336 2.4006819-3.628 3.07125-1.636 1.1080682-3.0304 1.6728409-4.2512 1.7293182-.6288.0286364-1.54-.0365909-2.2904-.4923863-.0344-.0095455-.0792.0318181-.0792.0318181.8072.7198864 1.8032 1.5845455 3.5432 1.575 1.9704-.0190909 3.7344-.9227272 6.5024-3.3480681 1.264-1.1064773 2.5192-2.3481819 3.6256-3.4451137l2.0648-1.9942045c1.3216.3213636 2.5032.4669318 3.8192.4677272 1.912.0023864 3.564-.8742045 3.6056-1.9186363.036-.7660227-.5912-1.1947727-.968-1.4461364-.3064-.2115909-1.1544-.7055682-2.3328-.7302273-1.4352-.0302272-2.9456.5695455-4.4888 1.7786364l-1.0272.8678409c.0104-.0055682-.3664-.1081818-.3664-.1081818l-2.792-.8471591c.8432-.7501136 1.5632-1.3968182 2.2104-1.9456818 1.568-1.3307955 3.276-1.8542046 4.2736-1.8955682.7232-.0326136 1.9832.0556818 2.4952.4351136.024-.0047727.06-.0540909.06-.0540909-1.3576-1.2043181-2.5488-1.3904545-3.5352-1.4111363-.972-.0198864-2.5408.2521591-4.4784 1.6855682-.7904.5870454-1.8248 1.573409-2.9064 2.6114772 0-.0055682-1.4112-.4629545-1.4112-.4629545l-.3416-.1145455-1.484-.4836363c.0336.0007954.8712-.7827273.8712-.7827273 1.0272-.9601136 1.9936-1.8677273 2.7496-2.4770455 2.7432-2.1978409 4.4456-2.45875 5.6224-2.4428409 1.2928.0230682 2.3144.3118182 3.0344.8543182.0208-.0023864.0552-.0501136.0552-.0501136-1.4824-1.3928409-2.5616-1.8518182-4.4376-1.9098864-1.6472-.0453409-3.6376.8272727-5.6 2.4643182m-10.7584 7.8225c-.8712-.0763636-1.2912-.4367046-1.2776-1.1072727.0016-.0882955.1064-2.2153409 5.0048-2.3545455.56-.0182954 1.1816-.0238636 2.1304.1026136-.0408.0031819-.5648.46375-.5648.46375l-.3112.2704546c-1.2032 1.0428409-3.2152 2.7864773-4.9816 2.625m19.8376-1.30375c1.4256-.9163636 2.6104-1.3968182 3.336-1.3538636.432.0206818.944.1614772.9328.689659-.0128.5472728-.54.990341-1.568 1.3347728-.9.2998863-2.2768.3507954-3.7696.1535227.4208-.3619318.772-.6371591 1.0688-.8240909" fill="#002776"/><path d="m552.29976 29.8815227c.0992.0469318.2592.1503409.3216.0246591.0408-.0795454-.0608-.14875-.144-.1901136l-.2112-.1026137-.1.2020455zm.1352.6522728-.132-.0644319-.0576-.4780681-.1336-.0660228-.1792.3619318-.1104-.0540909.3888-.7843181.344.1678409c.1432.07.2616.1773863.1776.3452272-.076.1543182-.2136.1582955-.3568.0930682zm.4624-.255341c.1672-.3372727.0176-.74375-.3128-.9052272-.332-.1630682-.7464-.0326137-.9136.3046591-.1672.3380681-.0176.74375.3136.9060227.3304.1614773.7456.0318182.9128-.3054546zm-1.368-.5822727c.1568-.4160227.616-.6236363 1.0384-.4661363.4208.1582954.6288.6148863.4704 1.0293181-.1544.4160228-.6152.6220455-1.036.4653409-.4208-.1575-.6296-.6125-.4728-1.0285227z" fill="#002776"/><g fill="#00a1de"><path d="m29.2116 33.9570341h-9.4704l-9.4704 9.4396591v-9.4396591h-9.4704v25.1713636h9.4704v-9.4404545l9.4704 9.4404545h12.6272l-14.2056-14.1590909zm12.628 0h-9.4712v25.1713636h25.256v-6.3469318h-15.7848zm44.1952 0-4.7336 14.1582954-4.736-14.1582954h-15.784v25.1713636h9.4712v-18.8793182l6.3128 18.8793182h9.4696l6.3136-18.8793182v18.8793182h9.4712v-25.1713636zm-41.0392-14.1598864c3.0512 0 5.5248-2.4643182 5.5248-5.5061363 0-3.0410228-2.4736-5.5061364-5.5248-5.5061364s-5.524 2.4651136-5.524 5.5061364c0 3.0418181 2.4728 5.5061363 5.524 5.5061363zm7.1032-5.5061363c0 3.0418181 2.4736 5.5061363 5.5248 5.5061363s5.5248-2.4643182 5.5248-5.5061363c0-3.0410228-2.4736-5.5061364-5.5248-5.5061364s-5.5248 2.4651136-5.5248 5.5061364zm-14.2056 0c0-3.0410228-2.4736-5.5061364-5.5248-5.5061364s-5.524 2.4651136-5.524 5.5061364c0 3.0418181 2.4728 5.5061363 5.524 5.5061363s5.5248-2.4643182 5.5248-5.5061363zm-5.5248 13.3723863h37.884v-6.2928409h-37.884zm37.884-18.8785227c-3.0528 0-5.5256 2.4651136-5.5256 5.5061364 0 3.0418181 2.4728 5.5061363 5.5256 5.5061363 3.0488 0 5.5232-2.4643182 5.5232-5.5061363 0-3.0410228-2.4744-5.5061364-5.5232-5.5061364zm-20.5208.78670455h3.156v-3.14681819h3.1576v-3.14602272h-3.1576v-3.14602273h-3.156v3.14602273h-3.1568v3.14602272h3.1568z"/><path d="m136.16184 36.9770568h-4.548c-.1872 0-.2984.14875-.2984.2967046v10.1945454c0 .2227273.0744.2967046.3352.2967046h4.2504c3.6904 0 5.8536-1.4827273 5.8536-5.5976137 0-3.7815909-2.1248-5.1903409-5.5928-5.1903409m10.4016 22.0197727c0 .14875-.1112.2601137-.2608.2601137h-3.84c-.2984 0-.4096-.1113637-.5224-.3340909l-5.2568-7.9696591c-.0744-.1113637-.1864-.2593182-.4096-.2593182h-4.6232c-.224 0-.2984.0739773-.2984.2967045v7.8956819c0 .2593181-.112.3706818-.3352.3706818h-3.2808c-.2616 0-.3352-.1113637-.3352-.3706818v-24.4292046c0-.2967045.1488-.4080682.3352-.4080682h9.0968c4.884 0 8.9848 1.9273864 8.9848 7.8956819 0 4.4115909-2.1992 6.9689772-5.0328 8.0452272 1.3792 2.1493182 5.7416 8.8223864 5.7416 8.8223864.0368.0739773.0368.1105682.0368.1845454"/><path d="m160.2432 40.7580909c-3.6912 0-6.7104 2.0021591-6.7104 8.1184091 0 5.3382955 2.7584 7.6005682 6.7848 7.6005682s6.8224-2.33625 6.8224-7.6005682c0-6.1536364-3.0944-8.1184091-6.8968-8.1184091m0 18.8689773c-5.4808 0-10.6632-3.4840909-10.6632-10.7505682 0-7.5615909 4.6232-11.0464773 10.7-11.0464773 6.1144 0 10.7376 3.4109091 10.7376 11.0464773 0 7.1925-4.996 10.7505682-10.7744 10.7505682"/><path d="m188.35112 54.6224659c-1.0808 3.6702273-3.0944 8.5256818-6.1144 11.4919318-.1112.14875-.2976.2601137-.5216.2601137h-3.5048c-.1488 0-.2984-.1113637-.2984-.2601137 0-.0365909.0376-.1105682.0744-.1845454 1.0816-1.0014773 4.1016-4.3376137 4.4368-6.3023864v-.0373864c0-.2227272-.1488-.3332954-.2976-.3332954h-2.0504c-.2248 0-.336-.1105682-.4104-.2967046l-6.8232-20.5744318c0-.0373863-.0368-.0739772-.0368-.0739772 0-.1479546.1864-.2219319.3728-.2219319h3.4672c.224 0 .336.0373864.4104.2585228l5.592 17.535c.0744.2601136.2608.2967045.4104.2967045h.7832c.1488 0 .26-.0365909.3352-.2601136l4.9216-17.5715909c.0368-.1471591.1856-.2585228.372-.2585228h3.3184c.1488 0 .2608.1113637.2608.2585228v.0373863z"/><path d="m210.0092 48.9515909c0-.2227273-.0744-.3714773-.4096-.3714773h-5.0336c-2.5728 0-5.1824.3332955-5.1824 3.4482955 0 3.6702273 2.6848 4.1514773 4.996 4.1514773h5.22c.3352 0 .4096-.0739773.4096-.3706819zm3.9144 9.415c0 .2967046-.0736.4454546-.4464.5194318-2.8344.2967046-6.972.7413637-9.0224.7413637-4.176 0-9.0976-1.3347728-9.0976-7.5989773 0-6.0056818 5.7784-6.4869318 8.8736-6.4869318 1.528 0 4.5856.2951136 5.704.4438636 0-4.2636364-2.4976-5.0042045-6.2264-5.0042045-1.9752 0-3.8024.14875-5.1816.2593181h-.112c-.224 0-.336-.1105681-.3728-.2967045l-.3728-2.2614773v-.0365909c0-.1853409.1488-.2967045.3728-.2967045 1.9008-.2593182 4.5856-.4446591 6.2632-.4446591 5.7792 0 9.6184 1.7786363 9.6184 7.525z"/><path d="m223.05544 59.2568636h-3.2432c-.2248 0-.336-.0739772-.336-.3706818v-27.72875c0-.2601136.1112-.3340909.336-.3706818l3.2056-.3706818c.2984 0 .3728.1105682.3728.3706818v28.0994318c0 .2601137-.0744.3706818-.3352.3706818"/><path d="m251.31264 36.9770568h-5.2944c-.2984 0-.4104.14875-.4104.3706818v18.4617046c0 .2601136.0744.3706818.3728.3706818h5.4064c4.3992 0 7.904-2.7801136 7.904-9.7498864 0-6.895-3.2064-9.4531818-7.9784-9.4531818m-.7088 22.2798864h-8.612c-.2616 0-.3352-.0739773-.3352-.3706818v-24.4292046c0-.2967045.112-.4080682.3352-.4080682h9.1336c6.6 0 12.1544 2.5947728 12.1544 11.8260228 0 10.2311363-5.5912 13.3819318-12.676 13.3819318"/><path d="m284.93704 58.5893977c-2.2736.3706818-5.48.8901137-8.052.8901137-6.3384 0-9.6944-2.1135228-9.6944-8.4525v-12.5665909c0-.2227273.1128-.3706819.3728-.3706819h3.1696c.26 0 .4104.1113637.4104.3340909v12.7885228c0 3.6328409 1.752 5.0781818 5.5544 5.0781818 1.4168 0 3.0568-.1105682 4.3248-.2211364.2248-.0381818.3728-.1121591.3728-.3706818v-17.2748864c0-.2601136.0744-.3340909.3728-.3340909h3.1688c.2616 0 .4112.1113637.4112.3340909v19.6843182c0 .2585228-.1128.4446591-.4112.48125"/><path d="m301.9728 58.7752159c-.0744.2219318-.1872.2959091-.448.3340909-1.6024.1845455-2.5352.3332955-3.84.3332955-3.5416 0-5.108-1.5575-5.108-5.3017046v-13.16c0-.2601136-.1112-.3706818-.3728-.3706818h-2.5344c-.2616 0-.3728-.1479545-.3728-.4072727v-1.7794318c0-.2227273.1112-.3332955.3728-.3332955h2.572c.224 0 .3352-.1121591.3352-.3722727v-4.8554546c0-.2601136.0744-.3706818.3728-.4446591l3.1696-.3332954c.2608 0 .4104.1105682.4104.3706818v5.2627273c0 .2601136.0744.3722727.3728.3722727h4.0264c.2984 0 .3728.1105682.3728.3706818v1.7786364c0 .2227273-.0744.3340909-.3728.3340909h-4.0264c-.2616 0-.3728.1471591-.3728.4072727v12.1593182c0 2.1493182.3352 3.0394318 3.1312 3.0394318h2.2744c.336 0 .3728.1479546.3728.3706818z"/><path d="m321.32032 59.0708864c-1.3792.14875-3.6912.4454545-5.6288.4454545-6.9728 0-11.2592-3.3735227-11.2592-11.0472727 0-7.9322727 5.6656-10.6018182 11.2216-10.6018182 1.6776 0 4.1008.2227273 5.5176.4072727.2616.0373864.3728.1113637.3728.4080682l-.3728 2.0753409c-.0368.2227273-.1128.3714773-.3352.3714773h-.0744c-1.4176-.1113636-2.8344-.14875-4.5496-.14875-4.548 0-7.7168 1.9655682-7.7168 7.4510227 0 5.7829546 3.1688 7.7485227 7.7168 7.7485227 1.9768 0 3.7288-.0739772 5.108-.1495454h.1128c.2224 0 .2968.1121591.2968.3340909v2.3354545c0 .2227273-.0744.2967046-.4096.3706819"/><path d="m344.76872 58.8861023c0 .2967045-.0744.3706818-.3728.3706818h-3.2056c-.2984 0-.3728-.0739773-.3728-.3706818v-12.2698864c0-4.0043182-2.2-5.5984091-5.816-5.5984091-2.2 0-3.2816.0739773-4.6976.2593182-.2616.0373864-.3728.1113636-.3728.3706818v17.2382955c0 .2601136-.0744.3706818-.336.3706818h-3.244c-.2968 0-.3352-.0739773-.3352-.3706818v-27.6921591c0-.2967046.0752-.3706818.3352-.3706818l3.2072-.4072728c.2616 0 .3728.0739773.3728.4072728v7.2664772c0 .2585228.1856.2585228.484.2585228 1.0064-.1471591 3.5056-.4072728 5.22-.4072728 6.2632 0 9.1336 2.5581819 9.1336 9.0085228z"/><path d="m373.73248 37.2736818c0-.1479545-.1496-.2967045-.3352-.2967045h-2.9088c-.2232 0-.3728.0739772-.4104.2967045l-2.684 9.9726137v.0739772c0 .1479546.1128.2219318.2616.2219318h8.5744c.1128 0 .1872-.0739772.1872-.1853409v-.1105681zm9.88 21.7230682c0 .1495455-.1112.2601136-.2616.2601136h-3.3184c-.2232 0-.4472-.1105681-.484-.3706818l-2.1992-8.0818182c-.0384-.2227272-.1128-.3332954-.3352-.3332954h-10.104c-.2616 0-.336.0739773-.4104.2967045l-2.2 8.0810228c-.0744.3340909-.2232.4080681-.484.4080681h-2.9456c-.2232 0-.4104-.1105681-.4104-.3340909 0-.0365909.0376-.0739772.0376-.1105682l6.524-24.4292045c.0376-.1861364.2616-.3340909.448-.3340909h9.096c.2248 0 .4488.1479545.5232.4080682l6.4864 24.3552272c0 .0739773.0376.1105682.0376.1845455z"/><path d="m390.80424 59.2568636h-3.244c-.2232 0-.336-.1105681-.336-.3706818v-20.4256818c0-.2227273.1128-.3706818.3744-.3706818h3.168c.2992 0 .3728.1113636.3728.3340909v20.4622727c0 .2601137-.0736.3706818-.3352.3706818zm.3352-25.0226136c0 .2593182-.0736.3698864-.3352.3698864h-3.244c-.1864 0-.336-.1105682-.336-.4072728v-3.0394318c0-.2601136.1128-.3706818.336-.3706818h3.244c.2616 0 .3352.1105682.3352.3706818z"/><path d="m406.05064 41.0178864c-1.6408 0-2.8704.1121591-4.4736.2227272-.2984.0365909-.4104.1479546-.4104.3706819v17.2748863c0 .2601137-.0736.3706818-.3352.3706818h-3.244c-.1856 0-.336-.1105681-.336-.3706818v-19.6477273c0-.2593181.1128-.4072727.3744-.48125 2.5344-.3332954 5.4416-.742159 8.4616-.8527272.2248 0 .336.1471591.336.3698863v2.4468182c0 .1861364-.1112.2967046-.3728.2967046"/><path d="m413.916 59.2568636h-3.244c-.2232 0-.336-.0739772-.336-.3706818v-27.72875c0-.2601136.1128-.3340909.336-.3706818l3.2064-.3706818c.2984 0 .3728.1105682.3728.3706818v28.0994318c0 .2601137-.0744.3706818-.3352.3706818"/><path d="m424.0176 59.2568636h-3.244c-.2232 0-.336-.1105681-.336-.3706818v-20.4256818c0-.2227273.1128-.3706818.3744-.3706818h3.168c.2992 0 .3728.1113636.3728.3340909v20.4622727c0 .2601137-.0736.3706818-.3352.3706818zm.3352-25.0226136c0 .2593182-.0736.3698864-.3352.3698864h-3.244c-.1856 0-.336-.1105682-.336-.4072728v-3.0394318c0-.2601136.1128-.3706818.336-.3706818h3.244c.2616 0 .3352.1105682.3352.3706818z"/><path d="m448.73392 59.2568636h-3.244c-.2616 0-.3352-.0739772-.3352-.3706818v-12.6405682c0-4.0775-2.0512-5.2277272-6.0776-5.2277272-1.2664 0-3.1312.14875-4.324.2593181-.2984 0-.3352.0739773-.3352.3706819v17.2382954c0 .2967046-.1128.3706818-.3744.3706818h-3.2432c-.2608 0-.372-.0739772-.372-.3706818v-19.6477273c0-.295909.0744-.3698863.4096-.4438636 2.9832-.44625 6.3384-.8535227 8.3888-.8535227 6.1144 0 9.8432 1.7794318 9.8432 8.0444318v12.9006818c0 .2601137-.076.3706818-.336.3706818"/><path d="m463.5312 40.9070795c-3.6544 0-6.0032 2.0021591-6.0032 6.11625 0 .2967046.076.3706819.336.3706819h11.5576c.2608 0 .4096-.0365909.4096-.3332955-.1112-4.1514773-2.572-6.1536364-6.3-6.1536364m9.9544 9.4157955h-15.5832c-.2248 0-.336.0373864-.336.3706818.1488 4.6717046 3.3176 5.7089773 7.904 5.7089773 1.7144 0 3.6152-.14875 5.6288-.2967046.1496 0 .3352.0373864.3352.2585228v.0755682l-.3352 2.2606818c-.0744.2593182-.1856.2593182-.4472.3332954-1.8264.2601137-4.064.4828409-6.4496.4828409-6.376 0-10.6624-2.6321591-10.6624-10.8985227 0-7.97125 4.6224-10.6773864 10.2152-10.6773864 6.8224 0 10.0656 3.781591 10.0656 12.0113637 0 .2593182-.1112.3706818-.3352.3706818"/><path d="m484.2568 59.5165c-1.7896 0-3.8776-.1861364-6.0768-.5568182-.2984-.0731818-.3728-.1471591-.3728-.4072727v-2.2614773c0-.1845454.1112-.2967045.2984-.2967045h.1112c1.0064.0365909 3.3928.2227272 5.3688.2227272 2.6472 0 5.816-.1105681 5.816-3.0028409 0-5.005-11.8192-2.7435227-11.8192-9.8978409 0-4.3742045 4.624-5.4122727 8.6504-5.4122727 1.7896 0 4.0256.2967045 5.7032.5568182.2616.0731818.4112.2211363.4112.4072727l-.3736 2.1501136c0 .14875-.1112.2593182-.3352.2593182h-.0744c-1.1928-.1105682-3.0944-.3332954-5.3312-.3332954-2.2 0-4.6976.1105682-4.6976 2.4094318 0 3.9669318 11.7808 2.1875 11.7808 9.5263636 0 4.7082955-3.616 6.6364773-9.0592 6.6364773"/></g></g></g></svg>