<svg xmlns="http://www.w3.org/2000/svg" width="298" height="52" fill="none"><path fill="#009FD9" d="M22.2 26.671h-7.39l-7.411 7.447v-7.447H0v19.851h7.399v-7.439l7.41 7.439h9.866L13.569 35.355l8.632-8.684Zm9.87 0h-7.4v19.851h19.735v-5.005H32.07V26.671Zm34.54 0-3.704 11.17-3.703-11.17H46.867v19.851h7.403V31.636l4.933 14.886h7.407l4.932-14.886v14.886h7.4v-19.85H66.61Zm-32.078-11.17c2.378 0 4.318-1.94 4.318-4.334 0-2.394-1.936-4.347-4.318-4.347-2.382 0-4.314 1.949-4.314 4.347a4.314 4.314 0 0 0 4.314 4.334Zm5.547-4.334a4.327 4.327 0 0 0 4.326 4.334c2.39 0 4.31-1.94 4.31-4.334 0-2.394-1.928-4.347-4.31-4.347-2.382 0-4.326 1.949-4.326 4.347Zm-11.098 0c0-2.398-1.932-4.347-4.31-4.347-2.378 0-4.318 1.949-4.318 4.347A4.32 4.32 0 0 0 24.67 15.5c2.39 0 4.31-1.94 4.31-4.334Zm-4.31 10.54h29.6v-4.965h-29.6v4.964ZM54.27 6.82c-2.39 0-4.319 1.949-4.319 4.347A4.32 4.32 0 0 0 54.27 15.5c2.39 0 4.314-1.94 4.314-4.334 0-2.394-1.932-4.347-4.314-4.347Zm-16.04.619h2.47V4.957h2.463V2.474h-2.462V0h-2.47v2.474h-2.467v2.483h2.466v2.482ZM98.92 46.474v-19.75h3.519v8.162h9.271v-8.163h3.519v19.75h-3.519v-8.519h-9.271v8.52h-3.518ZM125.355 46.803c-1.45 0-2.756-.321-3.909-.964-1.156-.642-2.06-1.562-2.711-2.751-.655-1.193-.98-2.563-.98-4.117 0-1.555.321-2.937.964-4.13a6.888 6.888 0 0 1 2.699-2.775c1.157-.659 2.471-.988 3.953-.988 1.482 0 2.804.325 3.952.98a6.818 6.818 0 0 1 2.671 2.76c.635 1.188.952 2.566.952 4.136 0 1.571-.325 2.949-.972 4.138a6.805 6.805 0 0 1-2.699 2.747c-1.153.647-2.458.964-3.916.964h-.004Zm0-2.876c.795 0 1.502-.193 2.125-.582.622-.39 1.104-.956 1.45-1.707.345-.747.522-1.64.522-2.671 0-1.033-.173-1.94-.514-2.692-.342-.755-.824-1.325-1.446-1.719-.623-.394-1.334-.59-2.137-.59-.804 0-1.515.196-2.137.59-.623.394-1.101.964-1.446 1.72-.342.754-.514 1.65-.514 2.69s.172 1.92.522 2.664c.345.743.831 1.313 1.45 1.707.623.393 1.329.59 2.125.59ZM139.164 46.626c-1.341 0-2.361-.333-3.06-1-.699-.666-1.049-1.695-1.049-3.08V26.726h3.451v15.449c0 .458.108.831.329 1.129.221.297.635.445 1.245.445.301 0 .623-.032.96-.096v2.727c-.185.065-.45.12-.803.173a7.95 7.95 0 0 1-1.077.076l.004-.004ZM144.422 29.543c-.381 0-.731-.088-1.04-.269a1.93 1.93 0 0 1-.731-.727 2.064 2.064 0 0 1-.269-1.048c0-.394.088-.731.269-1.04a1.94 1.94 0 0 1 .731-.732c.309-.177.659-.269 1.04-.269.382 0 .743.089 1.049.27.305.18.546.421.727.73.176.31.269.66.269 1.04 0 .382-.089.744-.269 1.049a2.038 2.038 0 0 1-.727.727 2.02 2.02 0 0 1-1.049.27Zm-1.727 16.93V31.408h3.467v15.067h-3.467ZM154.79 46.803c-1.226 0-2.322-.31-3.294-.932-.972-.622-1.735-1.522-2.29-2.699-.554-1.177-.827-2.579-.827-4.205 0-1.627.269-2.965.803-4.158.534-1.193 1.289-2.113 2.266-2.76.976-.646 2.1-.971 3.37-.971.731 0 1.414.104 2.048.309a5.44 5.44 0 0 1 1.699.892c.498.39.908.851 1.225 1.39h.069v-6.946h3.45v19.75h-3.45v-2.245h-.069a5.054 5.054 0 0 1-1.293 1.426 5.582 5.582 0 0 1-1.727.864 6.772 6.772 0 0 1-1.98.29v-.005Zm1.124-2.988c.796 0 1.494-.197 2.097-.59.602-.394 1.068-.957 1.398-1.692.329-.735.494-1.59.494-2.566 0-.977-.161-1.82-.486-2.555-.326-.735-.787-1.306-1.39-1.711-.602-.406-1.309-.61-2.125-.61-.815 0-1.482.196-2.097.59-.614.393-1.084.956-1.418 1.683-.333.73-.498 1.594-.498 2.586 0 .993.173 1.86.515 2.595.341.735.815 1.298 1.425 1.683.607.39 1.302.583 2.089.583l-.004.004ZM170.254 46.735c-.932 0-1.759-.173-2.478-.514a3.792 3.792 0 0 1-1.683-1.523c-.402-.67-.603-1.486-.603-2.446 0-.96.225-1.791.679-2.438.45-.647 1.129-1.157 2.028-1.522.9-.366 2.053-.615 3.459-.756l3.45-.313v-.795c0-.474-.116-.896-.357-1.265a2.428 2.428 0 0 0-1.013-.872c-.437-.209-.964-.313-1.574-.313-.566 0-1.089.1-1.563.293a4.423 4.423 0 0 0-1.281.803 6.045 6.045 0 0 0-1.032 1.217l-2.33-1.863a6.266 6.266 0 0 1 1.494-1.8 6.533 6.533 0 0 1 2.101-1.149c.799-.269 1.679-.405 2.635-.405 1.277 0 2.39.224 3.334.678.944.45 1.671 1.08 2.177 1.892.506.812.759 1.74.759 2.788V46.47h-3.354v-2.33h-.068c-.386.767-.984 1.39-1.8 1.868-.815.478-1.811.719-2.98.719v.008Zm1.056-2.66c.776 0 1.454-.172 2.029-.517a3.41 3.41 0 0 0 1.313-1.426c.302-.603.45-1.274.45-2.013v-.59l-3.314.313c-.976.093-1.723.318-2.233.679-.51.361-.767.864-.767 1.514 0 .43.104.796.309 1.097.205.301.498.534.876.699.377.164.823.245 1.333.245h.004ZM180.882 51.8v-2.808h1.274c.747 0 1.333-.124 1.759-.377.426-.253.763-.675 1.02-1.266l.358-.823-5.889-15.123h3.563l3.001 8.588c.301.895.61 1.892.931 2.984h.085c.293-1.096.582-2.093.875-2.984l2.945-8.588h3.563l-6.439 16.806c-.458 1.213-1.145 2.117-2.061 2.703-.916.59-2.153.884-3.703.884h-1.274l-.008.004ZM201.155 46.803c-1.426 0-2.675-.289-3.748-.863a6.01 6.01 0 0 1-2.486-2.479l2.33-1.847c.474.787 1.032 1.381 1.671 1.795.638.41 1.349.619 2.137.619.839 0 1.49-.149 1.944-.446.458-.297.686-.711.686-1.242 0-.385-.1-.694-.293-.931-.197-.237-.522-.442-.972-.619-.45-.173-1.104-.365-1.952-.574-1.233-.285-2.205-.61-2.916-.98-.711-.37-1.237-.832-1.567-1.382-.333-.554-.502-1.245-.502-2.077 0-.948.245-1.78.739-2.494.494-.711 1.185-1.258 2.077-1.635.892-.378 1.908-.57 3.049-.57.924 0 1.763.124 2.518.37a5.517 5.517 0 0 1 1.944 1.068c.539.465.96 1.02 1.262 1.659l-2.302 1.807c-.366-.667-.839-1.189-1.426-1.563a3.499 3.499 0 0 0-1.916-.562c-.51 0-.952.064-1.321.193-.37.129-.655.31-.848.542a1.261 1.261 0 0 0-.293.844c0 .365.084.654.253.871.169.217.47.406.896.57.425.165 1.048.338 1.863.523 1.326.301 2.362.63 3.109.992.747.362 1.294.82 1.639 1.378.342.558.514 1.273.514 2.149 0 .976-.233 1.831-.707 2.567-.474.735-1.161 1.305-2.076 1.71-.912.406-2.013.611-3.302.611l-.004-.004Z"/><path fill="#1A53A4" d="m237.719 38.898-3.47 7.817h-2.025l4.443-9.901h2.036l4.443 9.9h-2.037l-3.39-7.816ZM284.318 44.353c.438.751 1.373 1.189 2.494.719.587-.249 1.261-.791 1.47-1.326l1.438.575c-.381.988-1.345 1.795-2.325 2.205-2.218.932-4.11.12-4.977-1.94-.824-1.956-.085-3.924 2-4.8 2.149-.904 4.013-.221 4.876 2.53l-4.976 2.041v-.004Zm3.036-2.543c-.478-.88-1.377-1.02-2.289-.638-.86.361-1.39 1.076-1.274 2.008l3.563-1.37Z"/><path fill="#EE3F35" d="m284.318 44.39 12.962-5.182-.486-1.246-12.705 5.07h-55.717v1.361l55.946-.004Z"/><path fill="#1A53A4" d="M280.883 36.826v9.889h-1.614l-.113-.96c-.538.835-1.402 1.116-2.249 1.116-2.053 0-3.591-1.357-3.591-3.65 0-2.407 1.514-3.652 3.551-3.652.735 0 1.879.398 2.293 1.117v-3.86h1.727-.004Zm-5.844 6.394c0 1.217.876 2.053 1.98 2.053 1.105 0 2.025-.792 2.025-2.053s-.932-2.036-2.025-2.036c-1.092 0-1.98.779-1.98 2.036ZM270.452 39.742h1.655v6.973h-1.627l-.084-1.02c-.398.819-1.487 1.217-2.262 1.229-2.064.016-3.591-1.258-3.591-3.708s1.599-3.663 3.635-3.651c.932 0 1.824.438 2.222 1.133l.056-.964-.004.008Zm-4.19 3.478c0 1.33.92 2.121 2.065 2.121 2.715 0 2.715-4.23 0-4.23-1.145 0-2.065.78-2.065 2.11ZM245.893 37.774c0 1.345-2.036 1.345-2.036 0 0-1.346 2.036-1.346 2.036 0Zm-1.879 1.94v7h1.727v-7h-1.727ZM261.149 39.742l.129.807c.538-.864.948-.992 1.655-.992.706 0 1.02.361 1.401.743l-.683 1.45c-.353-.297-.735-.498-1.048-.482-.904.056-1.329.482-1.329 1.767v3.68h-1.728v-6.973h1.603ZM248.878 39.742l.128.807c.539-.864.948-.992 1.655-.992.707 0 1.021.361 1.402.743l-.683 1.45c-.353-.297-.735-.498-1.048-.482-.904.056-1.33.482-1.33 1.767v3.68h-1.727v-6.973h1.603ZM255.996 37.774v1.98h1.924v1.486h-1.936v3.013c0 .662.369.988.903.988.269 0 .579-.085.836-.213l.482 1.47a3.909 3.909 0 0 1-1.43.297c-1.514.056-2.503-.807-2.503-2.546v-3.013h-1.301V39.75h1.301v-1.796L256 37.77l-.004.004ZM237.764 38.882l.956-2.044 4.442 9.9h-2.036l-3.391-7.816"/><path fill="#009FD9" d="M218.178 26.671h-.695V46.8h.695V26.671ZM228.346 31.69v-4.095h1.705c.319 0 .589.052.81.156.224.102.392.25.506.444.116.19.174.416.174.676 0 .261-.058.49-.174.685a1.143 1.143 0 0 1-.509.452c-.223.106-.492.159-.807.159h-.832v1.523h-.873Zm1.626-2.22a.932.932 0 0 0 .375-.068.542.542 0 0 0 .327-.531.58.58 0 0 0-.086-.324.497.497 0 0 0-.244-.193.998.998 0 0 0-.372-.063h-.753v1.18h.753ZM233.334 31.758c-.311 0-.589-.067-.836-.201a1.444 1.444 0 0 1-.577-.574 1.759 1.759 0 0 1-.207-.864c0-.326.068-.613.205-.862.136-.25.327-.444.574-.582.246-.139.527-.208.844-.208.318 0 .599.07.844.208.244.136.434.33.568.58.137.248.205.536.205.864 0 .325-.069.613-.208.864-.138.248-.33.44-.577.574a1.703 1.703 0 0 1-.835.201Zm0-.699a.74.74 0 0 0 .398-.108.74.74 0 0 0 .27-.32 1.24 1.24 0 0 0 .096-.512c0-.2-.032-.37-.096-.512a.718.718 0 0 0-.267-.324.73.73 0 0 0-.401-.11.715.715 0 0 0-.401.113.737.737 0 0 0-.27.324 1.232 1.232 0 0 0-.097.509c0 .197.033.366.097.508.066.14.156.248.27.321.116.074.249.111.401.111ZM236.011 31.69l-1.023-3.154h.838l.489 1.685c.047.17.089.351.125.543h.023c.042-.192.086-.373.133-.543l.481-1.685h.656l.486 1.685c.048.172.091.353.131.543h.02c.038-.19.08-.37.128-.543l.486-1.685h.835l-1.017 3.154h-.787l-.461-1.554a11.827 11.827 0 0 1-.136-.535h-.026a10.75 10.75 0 0 1-.131.535l-.46 1.554h-.79ZM241.493 31.758c-.32 0-.602-.065-.847-.196a1.39 1.39 0 0 1-.571-.565 1.822 1.822 0 0 1-.202-.878c0-.328.064-.616.191-.864.129-.25.31-.444.545-.58a1.6 1.6 0 0 1 .822-.208c.301 0 .563.065.787.194.223.128.395.31.514.545.122.235.182.508.182.819a2.409 2.409 0 0 1-.023.301h-2.179a.963.963 0 0 0 .156.415.72.72 0 0 0 .293.242c.119.05.255.076.406.076a.947.947 0 0 0 .594-.185c.078-.056.148-.124.21-.201l.472.489c-.081.119-.186.223-.315.312-.129.09-.282.16-.458.21-.174.05-.366.074-.577.074Zm.591-1.995a.896.896 0 0 0-.096-.372.54.54 0 0 0-.225-.236.662.662 0 0 0-.338-.082.73.73 0 0 0-.33.074.629.629 0 0 0-.25.224.991.991 0 0 0-.136.392h1.375ZM243.343 31.69v-3.154h.847v.6h.012a.995.995 0 0 1 .352-.464.942.942 0 0 1 .546-.156c.087 0 .153.004.199.014v.773a.626.626 0 0 0-.097-.012 1.017 1.017 0 0 0-.58.102.774.774 0 0 0-.318.31.938.938 0 0 0-.114.47v1.517h-.847ZM247.081 31.758c-.321 0-.603-.065-.847-.196a1.393 1.393 0 0 1-.572-.565 1.822 1.822 0 0 1-.201-.878c0-.328.063-.616.19-.864.129-.25.311-.444.546-.58.237-.139.51-.208.821-.208.301 0 .564.065.787.194.224.128.395.31.515.545.121.235.182.508.182.819 0 .043-.002.09-.006.142-.004.051-.01.104-.017.159h-2.18a.99.99 0 0 0 .156.415.727.727 0 0 0 .293.242c.119.05.255.076.406.076.122 0 .232-.016.33-.048a.92.92 0 0 0 .264-.136c.078-.057.148-.125.211-.202l.472.489c-.082.119-.187.223-.316.312-.129.09-.281.16-.457.21-.175.05-.367.074-.577.074Zm.591-1.995a.912.912 0 0 0-.097-.372.544.544 0 0 0-.224-.236.666.666 0 0 0-.339-.082.723.723 0 0 0-.329.074.622.622 0 0 0-.25.224.991.991 0 0 0-.137.392h1.376ZM250.19 31.758a1.24 1.24 0 0 1-.685-.193 1.309 1.309 0 0 1-.472-.565 2.076 2.076 0 0 1-.17-.879c0-.327.054-.616.164-.866.11-.252.266-.447.466-.583.203-.136.437-.205.702-.205.146 0 .283.021.41.063.129.042.243.101.344.179.1.078.183.171.25.281h.014v-1.398h.844v4.098h-.844v-.452h-.014a1.068 1.068 0 0 1-.611.46c-.127.04-.26.06-.398.06Zm.284-.719a.7.7 0 0 0 .395-.11.699.699 0 0 0 .261-.319 1.19 1.19 0 0 0 .094-.491c0-.186-.03-.348-.091-.486a.693.693 0 0 0-.662-.44.708.708 0 0 0-.395.11.715.715 0 0 0-.264.321 1.178 1.178 0 0 0-.094.492c0 .19.031.354.094.494a.736.736 0 0 0 .267.319c.114.073.245.11.395.11ZM255.757 31.758c-.14 0-.274-.02-.403-.06a1.093 1.093 0 0 1-.609-.463h-.011v.455h-.847v-4.098h.847v1.404h.011a1.11 1.11 0 0 1 .594-.466c.127-.042.264-.063.41-.063.267 0 .501.069.702.205.202.136.359.33.469.583.11.25.164.539.164.866 0 .34-.057.632-.173.879a1.309 1.309 0 0 1-.472.565 1.235 1.235 0 0 1-.682.193Zm-.287-.719c.15 0 .282-.037.395-.11a.726.726 0 0 0 .265-.319c.064-.14.096-.305.096-.494 0-.19-.031-.354-.094-.492a.69.69 0 0 0-.659-.435.695.695 0 0 0-.401.117.739.739 0 0 0-.261.327c-.061.138-.091.3-.091.486 0 .187.03.351.091.491.062.139.15.245.261.319.114.073.247.11.398.11ZM257.46 32.796v-.682h.315a.66.66 0 0 0 .33-.069.438.438 0 0 0 .182-.221l.056-.128-1.219-3.16h.867l.557 1.67c.063.194.125.405.188.634h.017c.058-.229.118-.441.179-.636l.545-1.668h.87l-1.327 3.498c-.099.261-.247.454-.446.577-.197.123-.464.185-.799.185h-.315Z"/></svg>