<svg xmlns="http://www.w3.org/2000/svg" width="212" height="56" fill="none"><path fill="#009FD9" d="M22.703 27.283h-7.558l-7.579 7.618v-7.618H0V47.59h7.566v-7.61l7.579 7.61h10.088L13.875 36.167l8.828-8.884Zm10.092 0h-7.566V47.59h20.18v-5.12H32.795V27.284Zm35.321 0L64.33 38.71l-3.787-11.427H47.927V47.59h7.57V32.362l5.045 15.227h7.574l5.044-15.227v15.227h7.566V27.283h-12.61ZM35.313 15.856c2.432 0 4.416-1.984 4.416-4.433 0-2.45-1.98-4.446-4.416-4.446-2.436 0-4.412 1.993-4.412 4.446a4.412 4.412 0 0 0 4.412 4.433Zm5.672-4.433a4.425 4.425 0 0 0 4.424 4.433c2.444 0 4.408-1.984 4.408-4.433 0-2.45-1.972-4.446-4.408-4.446-2.435 0-4.423 1.993-4.423 4.446Zm-11.349 0c0-2.453-1.976-4.446-4.407-4.446-2.432 0-4.416 1.993-4.416 4.446a4.418 4.418 0 0 0 4.416 4.433c2.444 0 4.407-1.984 4.407-4.433ZM25.23 22.204h30.269v-5.078h-30.27v5.078ZM55.498 6.977c-2.444 0-4.416 1.993-4.416 4.446a4.418 4.418 0 0 0 4.416 4.433c2.444 0 4.411-1.984 4.411-4.433 0-2.45-1.976-4.446-4.411-4.446Zm-16.402.633h2.526V5.07h2.518V2.531h-2.518V0h-2.526v2.531h-2.522v2.54h2.522V7.61ZM101.158 47.54V27.337h3.598v8.349h9.48v-8.35h3.599V47.54h-3.599v-8.715h-9.48v8.715h-3.598ZM128.19 47.877c-1.483 0-2.818-.329-3.997-.986-1.183-.657-2.107-1.599-2.773-2.815-.669-1.22-1.002-2.621-1.002-4.211 0-1.59.329-3.004.986-4.224a7.037 7.037 0 0 1 2.76-2.84c1.183-.673 2.526-1.01 4.042-1.01s2.867.332 4.042 1.002a6.979 6.979 0 0 1 2.732 2.823c.649 1.216.973 2.626.973 4.232 0 1.607-.333 3.016-.994 4.232a6.963 6.963 0 0 1-2.76 2.81c-1.179.662-2.514.987-4.005.987h-.004Zm0-2.942c.813 0 1.536-.197 2.173-.596.636-.398 1.129-.978 1.483-1.746.353-.764.533-1.677.533-2.733 0-1.055-.176-1.984-.525-2.752-.349-.773-.842-1.356-1.479-1.759-.637-.403-1.364-.604-2.185-.604-.822 0-1.549.201-2.185.604-.637.403-1.126.986-1.479 1.759-.349.772-.526 1.688-.526 2.753 0 1.064.177 1.964.534 2.724.353.76.85 1.343 1.483 1.746.637.403 1.359.604 2.173.604ZM142.312 47.696c-1.372 0-2.416-.34-3.13-1.023-.715-.682-1.072-1.734-1.072-3.151V27.34h3.528v15.803c0 .468.111.85.337 1.154.226.304.649.456 1.273.456.308 0 .637-.033.982-.098v2.79c-.189.065-.46.123-.822.176-.361.05-.727.078-1.1.078l.004-.004ZM147.688 30.221c-.39 0-.747-.09-1.063-.275a1.967 1.967 0 0 1-.748-.744 2.112 2.112 0 0 1-.275-1.072c0-.403.09-.748.275-1.065.181-.316.431-.567.748-.747.316-.181.673-.276 1.063-.276.391 0 .76.09 1.073.276.312.184.558.431.743.747.181.317.275.674.275 1.065 0 .39-.09.76-.275 1.072a2.082 2.082 0 0 1-.743.744c-.313.185-.67.275-1.073.275Zm-1.766 17.32V32.127h3.545V47.54h-3.545ZM158.29 47.877c-1.253 0-2.374-.316-3.368-.953-.994-.637-1.775-1.557-2.341-2.761-.567-1.204-.847-2.638-.847-4.302 0-1.665.276-3.033.822-4.253.546-1.22 1.318-2.161 2.317-2.823.998-.661 2.148-.994 3.446-.994.747 0 1.446.107 2.095.316.649.21 1.228.514 1.737.912.51.399.929.871 1.253 1.422h.07v-7.104h3.528V47.54h-3.528v-2.297h-.07a5.17 5.17 0 0 1-1.323 1.459 5.693 5.693 0 0 1-1.766.883 6.917 6.917 0 0 1-2.025.296v-.004Zm1.15-3.057c.814 0 1.528-.201 2.144-.604.617-.403 1.093-.978 1.43-1.73.337-.752.505-1.627.505-2.625 0-.999-.164-1.862-.497-2.614-.333-.752-.805-1.335-1.421-1.75-.616-.415-1.339-.625-2.173-.625-.834 0-1.516.202-2.144.604-.629.403-1.109.978-1.45 1.722-.341.748-.51 1.631-.51 2.646s.177 1.902.526 2.654c.349.752.834 1.328 1.458 1.722.621.399 1.331.596 2.136.596l-.004.004ZM174.104 47.807c-.953 0-1.799-.177-2.534-.526a3.885 3.885 0 0 1-1.721-1.557c-.411-.686-.616-1.52-.616-2.502 0-.982.23-1.833.694-2.495.46-.661 1.154-1.183 2.074-1.557.92-.374 2.099-.628 3.537-.772l3.528-.32v-.814c0-.485-.119-.917-.365-1.295a2.49 2.49 0 0 0-1.035-.891c-.448-.214-.986-.32-1.611-.32-.579 0-1.113.102-1.597.3a4.521 4.521 0 0 0-1.311.821c-.386.345-.739.76-1.055 1.245l-2.383-1.907a6.407 6.407 0 0 1 1.528-1.84c.616-.51 1.331-.9 2.149-1.175.817-.276 1.716-.415 2.694-.415 1.306 0 2.444.23 3.409.694.966.46 1.709 1.105 2.227 1.935.517.83.776 1.78.776 2.852v10.268h-3.43v-2.383h-.07c-.394.785-1.006 1.422-1.84 1.91-.834.49-1.852.736-3.048.736v.008Zm1.081-2.72c.792 0 1.487-.177 2.074-.53a3.49 3.49 0 0 0 1.343-1.459c.308-.616.46-1.302.46-2.058v-.604l-3.389.32c-.998.095-1.762.325-2.283.695-.522.37-.785.883-.785 1.549 0 .44.107.813.316 1.121.21.309.51.547.896.715.386.169.842.251 1.364.251h.004ZM184.973 52.989v-2.873h1.302c.764 0 1.364-.127 1.799-.386.436-.259.781-.69 1.044-1.294l.365-.843-6.022-15.47h3.644l3.068 8.785c.308.917.625 1.936.953 3.053h.086c.3-1.121.596-2.14.896-3.053l3.011-8.785h3.643l-6.584 17.192c-.469 1.241-1.171 2.166-2.107 2.765-.937.604-2.202.904-3.788.904h-1.302l-.008.005ZM205.704 47.877c-1.458 0-2.736-.296-3.832-.883a6.148 6.148 0 0 1-2.543-2.536l2.382-1.89c.485.806 1.056 1.414 1.709 1.837a3.96 3.96 0 0 0 2.185.633c.859 0 1.524-.152 1.988-.456.469-.304.703-.728.703-1.27 0-.394-.103-.71-.3-.953-.201-.243-.534-.452-.994-.633-.46-.177-1.13-.374-1.996-.588-1.261-.291-2.255-.624-2.982-1.002-.727-.378-1.266-.85-1.602-1.414-.341-.567-.514-1.273-.514-2.124 0-.97.251-1.82.756-2.552.505-.727 1.212-1.286 2.124-1.672.911-.386 1.951-.583 3.117-.583.945 0 1.803.127 2.576.378.776.25 1.437.616 1.988 1.093.55.476.982 1.043 1.29 1.697l-2.354 1.849c-.374-.682-.859-1.217-1.458-1.599a3.579 3.579 0 0 0-1.96-.575c-.521 0-.973.066-1.351.197-.378.132-.67.317-.867.555-.201.238-.3.526-.3.863 0 .374.087.67.259.892.173.221.481.415.916.583.436.168 1.072.345 1.906.534 1.356.308 2.415.645 3.179 1.015.764.37 1.323.838 1.676 1.41.349.57.526 1.302.526 2.198 0 .998-.238 1.873-.723 2.625s-1.187 1.336-2.123 1.75c-.933.416-2.058.625-3.377.625l-.004-.004ZM101.006 55.063v-3.469h1.444c.269 0 .498.044.686.133a.927.927 0 0 1 .428.375c.098.162.147.353.147.573 0 .222-.049.415-.147.58a.967.967 0 0 1-.431.383 1.58 1.58 0 0 1-.683.135h-.705v1.29h-.739Zm1.376-1.88a.79.79 0 0 0 .318-.058.465.465 0 0 0 .205-.173.505.505 0 0 0 .072-.277c0-.109-.024-.2-.072-.274a.423.423 0 0 0-.207-.164.85.85 0 0 0-.316-.053h-.637v1h.637ZM105.23 55.121c-.263 0-.499-.057-.708-.17a1.22 1.22 0 0 1-.488-.487 1.479 1.479 0 0 1-.176-.732c0-.276.058-.52.173-.73.116-.211.278-.376.486-.493.209-.117.447-.176.715-.176.27 0 .508.059.715.176.207.116.367.28.481.491.116.21.174.454.174.732 0 .276-.059.52-.176.732-.117.21-.28.372-.489.486-.207.114-.443.171-.707.171Zm0-.592c.126 0 .239-.03.337-.092a.614.614 0 0 0 .228-.272c.055-.12.082-.264.082-.433 0-.169-.027-.313-.082-.433a.602.602 0 0 0-.226-.275.616.616 0 0 0-.339-.094.606.606 0 0 0-.34.097.612.612 0 0 0-.228.274c-.055.12-.082.264-.082.431 0 .167.027.31.082.431.056.119.132.21.228.272a.617.617 0 0 0 .34.094ZM107.497 55.063l-.867-2.672h.71l.414 1.428c.041.144.076.297.106.46h.02c.035-.163.073-.316.113-.46l.406-1.428h.556l.412 1.428c.04.146.077.3.111.46h.017c.032-.16.068-.314.108-.46l.411-1.428h.708l-.862 2.672h-.666l-.39-1.317c-.04-.142-.079-.293-.116-.452h-.021c-.036.159-.073.31-.111.453l-.39 1.316h-.669ZM112.14 55.121c-.272 0-.511-.055-.718-.166a1.173 1.173 0 0 1-.483-.479 1.538 1.538 0 0 1-.171-.744c0-.278.053-.522.161-.732.109-.212.263-.375.462-.491.201-.117.433-.176.696-.176.255 0 .477.055.666.164.19.11.335.263.436.462.103.2.154.43.154.694a1.77 1.77 0 0 1-.019.255h-1.846a.816.816 0 0 0 .132.351c.066.092.149.16.248.205a.867.867 0 0 0 .344.065.795.795 0 0 0 .503-.157.937.937 0 0 0 .178-.17l.4.414c-.069.1-.158.189-.267.264a1.331 1.331 0 0 1-.388.179c-.147.041-.31.062-.488.062Zm.5-1.69a.759.759 0 0 0-.082-.315.458.458 0 0 0-.19-.2.559.559 0 0 0-.286-.07.613.613 0 0 0-.279.063.529.529 0 0 0-.212.19.849.849 0 0 0-.116.332h1.165ZM113.706 55.063v-2.672h.718v.508h.009a.847.847 0 0 1 .299-.392.793.793 0 0 1 .462-.133c.074 0 .13.004.168.012v.655a.506.506 0 0 0-.082-.01.864.864 0 0 0-.491.087.654.654 0 0 0-.269.263.797.797 0 0 0-.096.397v1.285h-.718ZM116.871 55.121c-.271 0-.51-.055-.717-.166a1.182 1.182 0 0 1-.484-.479 1.538 1.538 0 0 1-.171-.744c0-.278.054-.522.162-.732.109-.212.263-.375.462-.491.2-.117.432-.176.695-.176.256 0 .478.055.667.164.189.11.335.263.436.462a1.5 1.5 0 0 1 .149.814 1.693 1.693 0 0 1-.015.135h-1.846a.83.83 0 0 0 .133.351.61.61 0 0 0 .248.205.867.867 0 0 0 .344.065.795.795 0 0 0 .503-.157.937.937 0 0 0 .178-.17l.4.414c-.069.1-.158.189-.268.264a1.325 1.325 0 0 1-.387.179 1.796 1.796 0 0 1-.489.062Zm.501-1.69a.759.759 0 0 0-.082-.315.458.458 0 0 0-.19-.2.561.561 0 0 0-.286-.07.62.62 0 0 0-.28.063.526.526 0 0 0-.211.19.833.833 0 0 0-.116.332h1.165ZM119.504 55.121c-.216 0-.41-.054-.58-.163-.17-.111-.303-.27-.399-.48a1.767 1.767 0 0 1-.145-.744c0-.277.047-.522.14-.734a1.12 1.12 0 0 1 .395-.493c.171-.116.37-.174.594-.174.124 0 .239.018.347.053a.95.95 0 0 1 .291.152.86.86 0 0 1 .212.238h.012v-1.184h.715v3.471h-.715v-.382h-.012a.906.906 0 0 1-.518.39c-.107.033-.22.05-.337.05Zm.241-.609c.128 0 .24-.031.335-.094a.596.596 0 0 0 .221-.27c.053-.118.079-.257.079-.416 0-.157-.025-.294-.077-.412a.585.585 0 0 0-.56-.373.6.6 0 0 0-.335.094.613.613 0 0 0-.224.272 1.004 1.004 0 0 0-.079.417c0 .16.026.3.079.419.055.117.13.207.226.27a.603.603 0 0 0 .335.093ZM124.219 55.121a1.16 1.16 0 0 1-.342-.05.916.916 0 0 1-.515-.393h-.009v.386h-.717v-3.472h.717v1.19h.009a.94.94 0 0 1 .503-.396c.108-.035.223-.053.347-.053.226 0 .424.058.595.174.171.115.304.28.397.493.093.212.139.457.139.734 0 .288-.049.536-.147.744a1.105 1.105 0 0 1-.399.48c-.17.109-.363.163-.578.163Zm-.243-.609a.603.603 0 0 0 .335-.094.615.615 0 0 0 .224-.27c.054-.118.081-.258.081-.418 0-.16-.026-.3-.079-.417a.588.588 0 0 0-.558-.368.588.588 0 0 0-.34.099.625.625 0 0 0-.221.276 1.008 1.008 0 0 0-.077.412c0 .159.025.298.077.417a.623.623 0 0 0 .221.27.605.605 0 0 0 .337.093ZM125.661 56v-.578h.267c.12 0 .213-.02.279-.058a.366.366 0 0 0 .154-.187l.048-.109-1.032-2.677h.734l.472 1.416c.053.163.106.342.159.537h.014c.05-.195.1-.374.152-.54l.462-1.413h.736l-1.124 2.964a.935.935 0 0 1-.378.489c-.166.104-.392.156-.676.156h-.267ZM129.24 55.063l1.254-3.471h.929l1.254 3.471h-.807l-.247-.739h-1.329l-.248.74h-.806Zm1.23-1.307h.974l-.341-1.016a6.8 6.8 0 0 1-.133-.477h-.024a6.786 6.786 0 0 1-.135.477l-.341 1.016ZM133.283 52.107a.396.396 0 0 1-.354-.197.433.433 0 0 1-.05-.21c0-.077.017-.146.05-.207a.373.373 0 0 1 .145-.144.416.416 0 0 1 .209-.053c.079 0 .149.017.21.053a.364.364 0 0 1 .144.144.41.41 0 0 1 .053.207.413.413 0 0 1-.053.21.386.386 0 0 1-.144.144.412.412 0 0 1-.21.053Zm-.356 2.956v-2.672h.717v2.672h-.717ZM134.106 55.063v-2.672h.718v.508h.009a.847.847 0 0 1 .299-.392.793.793 0 0 1 .462-.133c.074 0 .13.004.168.012v.655a.52.52 0 0 0-.082-.01.864.864 0 0 0-.491.087.654.654 0 0 0-.269.263.797.797 0 0 0-.096.397v1.285h-.718ZM137.25 55.107c-.223 0-.4-.035-.53-.106a.61.61 0 0 1-.274-.289 1.076 1.076 0 0 1-.077-.429v-1.331h-.448v-.56h.448v-.668h.717v.667h.59v.561h-.59v1.295c0 .09.026.16.079.207.055.047.142.07.26.07.077 0 .159-.009.246-.026v.541a1.356 1.356 0 0 1-.421.068ZM138.01 55.063v-2.672h.717v.508h.01a.852.852 0 0 1 .298-.392.799.799 0 0 1 .463-.133c.073 0 .13.004.168.012v.655a.52.52 0 0 0-.082-.01.858.858 0 0 0-.491.087.654.654 0 0 0-.269.263.787.787 0 0 0-.097.397v1.285h-.717ZM140.624 55.107c-.162 0-.307-.03-.433-.09a.693.693 0 0 1-.299-.269.834.834 0 0 1-.108-.436c0-.176.04-.322.12-.435a.79.79 0 0 1 .366-.27 2.3 2.3 0 0 1 .633-.135l.554-.053v-.118a.359.359 0 0 0-.212-.332.542.542 0 0 0-.243-.05.693.693 0 0 0-.26.048.826.826 0 0 0-.217.13c-.064.054-.124.12-.18.197l-.465-.38c.071-.123.161-.226.27-.311.109-.087.236-.153.38-.2.144-.046.303-.07.477-.07.232 0 .434.041.606.123.173.08.307.194.4.34a.909.909 0 0 1 .139.503v1.764h-.695v-.404h-.012a.797.797 0 0 1-.311.325.991.991 0 0 1-.51.123Zm.238-.532a.602.602 0 0 0 .318-.082.528.528 0 0 0 .204-.222.681.681 0 0 0 .073-.317v-.094l-.527.053a.697.697 0 0 0-.347.108.276.276 0 0 0-.116.236c0 .066.017.123.049.17a.302.302 0 0 0 .137.112.552.552 0 0 0 .209.036ZM143.62 55.121c-.216 0-.41-.054-.58-.163-.17-.111-.303-.27-.399-.48a1.767 1.767 0 0 1-.145-.744c0-.277.047-.522.14-.734a1.12 1.12 0 0 1 .395-.493c.171-.116.37-.174.594-.174.124 0 .239.018.347.053a.95.95 0 0 1 .291.152.86.86 0 0 1 .212.238h.012v-1.184h.715v3.471h-.715v-.382h-.012a.906.906 0 0 1-.518.39c-.107.033-.219.05-.337.05Zm.241-.609c.128 0 .24-.031.335-.094a.596.596 0 0 0 .221-.27c.053-.118.079-.257.079-.416 0-.157-.025-.294-.077-.412a.585.585 0 0 0-.56-.373.6.6 0 0 0-.335.094.613.613 0 0 0-.224.272 1.004 1.004 0 0 0-.079.417c0 .16.026.3.079.419.055.117.13.207.227.27a.597.597 0 0 0 .334.093ZM146.937 55.121c-.271 0-.51-.055-.717-.166a1.176 1.176 0 0 1-.484-.479 1.538 1.538 0 0 1-.171-.744c0-.278.054-.522.161-.732.109-.212.263-.375.462-.491.201-.117.433-.176.696-.176.255 0 .477.055.667.164.189.11.334.263.435.462.103.2.154.43.154.694a1.734 1.734 0 0 1-.019.255h-1.846a.843.843 0 0 0 .132.351c.066.092.149.16.248.205a.868.868 0 0 0 .345.065.809.809 0 0 0 .503-.157.967.967 0 0 0 .178-.17l.399.414c-.069.1-.158.189-.267.264a1.325 1.325 0 0 1-.387.179 1.796 1.796 0 0 1-.489.062Zm.501-1.69a.774.774 0 0 0-.082-.315.463.463 0 0 0-.19-.2.565.565 0 0 0-.287-.07.613.613 0 0 0-.279.063.535.535 0 0 0-.212.19.849.849 0 0 0-.115.332h1.165Z"/></svg>