<svg xmlns="http://www.w3.org/2000/svg" width="48" height="51" viewBox="0 0 48 51"><g fill="none" fill-rule="evenodd"><path fill="#002776" fill-rule="nonzero" d="M32.606 49.742a13.317 13.317 0 0 1-9.144-3.032l-.014.015a13.323 13.323 0 0 0 9.948 3.75c7.356-.355 13.032-6.586 12.673-13.911a13.217 13.217 0 0 0-4.444-9.268l-.012.011a13.224 13.224 0 0 1 3.666 8.52c.358 7.33-5.318 13.559-12.673 13.915M17.67 41.894c-.428.226-.53.58-.325 1.13.188.504.498.728.838.597.272-.097.322-.33.222-.931l-.042-.233c-.095-.592-.112-.847-.034-1.1a.774.774 0 0 1 .498-.56c.608-.225 1.169.158 1.49 1.008.348.92.135 1.607-.587 1.887l-.17-.452c.503-.202.64-.664.386-1.332-.205-.546-.546-.794-.913-.655-.296.108-.37.38-.274.996l.035.26.035.228c.07.456.074.618.027.812a.722.722 0 0 1-.476.508c-.57.215-1.11-.13-1.398-.896-.314-.834-.124-1.443.52-1.713l.169.446zm-.275-4.805l2.06-1.653-.001.626-1.743 1.377.541.623h1.206l-.001.493h-3.438l-.002-.491 1.352-.001.187.004.176.001-.113-.123-.115-.124-1.487-1.668-.002-.652zm1.635-5.269l1.315.492-.171.46-1.315-.491-2.39.662.21-.56 1.485-.379.182-.046a2.45 2.45 0 0 1 .25-.054c-.112-.14-.138-.17-.255-.343l-.884-1.245.2-.535 1.373 2.04zm2.462-6.241l-.746.872 2.131 1.816-.534.621-2.131-1.813-.744.867-.482-.414 2.022-2.357zm4.71-3.146l-1.756.974.355.641 1.614-.895.286.513-1.615.891.414.74 1.79-.994.312.554-2.513 1.391-1.675-2.996 2.48-1.373zm6.628 1.47l-.9.044-.43-.753-1.392.193-.212.837-.86.202.982-3.725.852-.115 1.96 3.317zM30.9 22.1a5.466 5.466 0 0 1-.355-.706 5.946 5.946 0 0 1-.164.775l-.156.651 1.005-.14-.33-.58zm7.428 3.018l-.716-.287.298-1.014c.032-.116.08-.281.144-.49.06-.212.116-.38.156-.501.047-.137.092-.278.142-.426l.088-.242c-.21.345-.295.462-.487.738-.08.122-.157.226-.219.31l-1.005 1.341-.621-.177-.163-1.641c-.011-.084-.015-.202-.022-.367l-.021-.49c-.001-.093.001-.23.007-.418l-.095.415c-.11.447-.161.64-.308 1.177l-.31 1.098-.759-.135.932-3.332 1.154.246.128 1.59c.034.372.035.684.01 1.125.134-.251.183-.332.337-.56.104-.154.192-.283.275-.401l.932-1.273 1.089.394-.966 3.32z"/><path fill="#002776" fill-rule="nonzero" d="M31.616 31.577c-.424.355-1.269 1.126-2.083 1.873l-.922.845a12.282 12.282 0 0 0-2.214-.245c-1.674-.036-3.218.392-3.935 1.088-.27.267-.412.56-.41.869-.001.81.918 1.236 1.2 1.348 1.476.582 2.726.45 4.057-.438.736-.49 1.623-1.28 2.317-1.915.528.13 1.124.3 1.768.504l.59.185c-.785.74-1.596 1.52-2.345 2.148l-.058.051c-1.04.873-1.792 1.506-2.864 1.722-.755.149-1.285-.02-1.457-.13-.016.003-.041.032-.041.032.606.522 1.185.821 2.193.755.96-.063 2.078-.64 3.232-1.672l1.559-1.459 1.094-1.036a355.26 355.26 0 0 0 2.19.688c-.023-.001-1.369 1.268-1.369 1.268l-1.173 1.116c-1.202 1.116-1.856 1.69-2.557 2.163-1.152.78-2.135 1.178-2.995 1.217-.443.02-1.085-.025-1.614-.346-.024-.007-.056.022-.056.022.569.507 1.27 1.116 2.497 1.11 1.388-.014 2.631-.65 4.582-2.359.89-.779 1.775-1.653 2.554-2.426l1.455-1.404c.932.226 1.764.329 2.691.33 1.348.001 2.512-.616 2.541-1.352.025-.54-.417-.841-.682-1.018a3.08 3.08 0 0 0-1.644-.515c-1.011-.02-2.075.402-3.163 1.253l-.724.611a3.954 3.954 0 0 0-.258-.076l-1.967-.597c.594-.528 1.101-.983 1.557-1.37 1.105-.937 2.309-1.306 3.012-1.335.51-.023 1.397.04 1.758.307.017-.004.042-.038.042-.038-.956-.848-1.796-.98-2.49-.994-.686-.014-1.791.177-3.156 1.187-.557.413-1.286 1.108-2.048 1.839 0-.004-.995-.326-.995-.326l-.24-.08-1.046-.341c.024 0 .614-.552.614-.552.724-.676 1.405-1.315 1.937-1.744 1.933-1.548 3.133-1.731 3.962-1.72.91.016 1.63.22 2.138.601.015-.001.039-.035.039-.035-1.045-.98-1.805-1.304-3.127-1.345-1.16-.032-2.563.583-3.946 1.736m-7.58 5.508c-.614-.053-.91-.307-.9-.78 0-.062.074-1.56 3.526-1.658a8.45 8.45 0 0 1 1.501.073c-.029.002-.398.326-.398.326l-.22.19c-.847.735-2.265 1.963-3.51 1.85m13.979-.919c1.004-.645 1.839-.983 2.35-.953.305.014.665.114.658.485-.01.386-.38.698-1.105.94-.634.212-1.605.248-2.656.109.296-.255.544-.45.753-.58m2.292-13.514c.07.033.183.106.226.018.03-.056-.042-.105-.101-.134l-.149-.073-.07.143.094.046zm.095.46l-.093-.046-.04-.336-.095-.047-.126.255-.078-.038.274-.553.243.119c.1.049.184.125.125.243-.054.108-.15.111-.252.065l.042.338zm.326-.18a.478.478 0 0 0-.22-.638c-.234-.115-.526-.023-.644.215s-.013.524.22.638a.485.485 0 0 0 .644-.215zm-.964-.41a.565.565 0 0 1 .732-.329.564.564 0 0 1-.399 1.053.559.559 0 0 1-.333-.724z"/><path d="M0 0h48v51H0z"/></g></svg>