<svg xmlns="http://www.w3.org/2000/svg" width="17" height="15" viewBox="0 0 17 15"><path fill-rule="evenodd" d="M12.396 9.546H9.658V2.203h.906v.604h.915v-.604h.917v7.343zM9.09 2.808H6.382V1.759c0-.437.356-.793.794-.793h2.606c.384 0 .705.273.778.634H9.09v1.208zm3.938 0V1.6h-1.55A1.705 1.705 0 0 0 9.781.057H7.176c-.939 0-1.703.764-1.703 1.702v1.049H2.415A1.964 1.964 0 0 0 .48 4.766L.456 13.04c0 1.078.881 1.96 1.96 1.96h12.076c1.078 0 1.96-.882 1.96-1.96l.023-8.274c0-1.07-.868-1.945-1.935-1.958h-1.512z"/></svg>