<svg xmlns="http://www.w3.org/2000/svg" width="20" height="12" viewBox="0 0 20 12"><path fill-rule="evenodd" d="M16.35 8.35c.433-.235.844-.467 1.229-.686.046.175.078.405.015.64-.204.775-1.295 1.4-2.491 2.024-1.176.613-2.467.925-2.982.925l-.06-.001c-.27-.015-.787-.183-1.16-.314 1.479-.553 3.12-1.348 4.613-2.138.307-.161.587-.312.836-.45zm3.163-2.666c-.235.163-.486.33-.748.498-1.74 1.04-5.286 3.074-8.117 4.14a7.917 7.917 0 0 1-.53.163s-1.455.476-2.437.024c-.531-.245-.076-.857-1.028-1.261-1.084-.46-.82-.978-1.241-1.393-.42-.413-.79-.197-1.122-.664l.118-.02c.137-.014.334-.06.602-.18 1.04-.425 1.85-1.323 2.21-1.721l.056-.061c.495-.546.607-.542.942-.53.263.01 1.307.232 1.93.363.482.102.658.139.742.148.318.033 1.32.15 1.842-.347.425-.404.587-.841.548-1.273a1.219 1.219 0 0 0-.173-.516l-.002-.004c-.138-.231-.353-.445-.65-.637a4.025 4.025 0 0 0-.615-.291 5.69 5.69 0 0 0-.251-.101 28.797 28.797 0 0 0-1.4-.491 75.955 75.955 0 0 0-1.2-.392c.745-.34 1.75-.572 3.449.143 2.262.953 3.717.41 6.823-1.252.16-.086.355.03.355.212v5.245c0 .08-.038.153-.103.198zm-12.886-.95c-.472.52-1.62 1.79-2.891 1.674a1.322 1.322 0 0 1-.147-.048h-.001l-.444-.163L.349 5.11a.515.515 0 0 1-.294-.718L1.6 1.3c.122-.243.412-.35.662-.243.7.299 2.089.833 3.056.833.069 0 .145-.006.226-.015.03-.003.064-.01.095-.014a7.12 7.12 0 0 0 .169-.026l.143-.027.203-.038a17.916 17.916 0 0 1 .598-.107c.053-.01.106-.016.16-.024.072-.01.143-.02.217-.027l.172-.017c.074-.007.15-.01.227-.014a5.44 5.44 0 0 1 .279-.008c.09 0 .178 0 .269.005.006 0 .02.004.035.006l.027.003c1.77.549 3.884 1.246 4.266 1.495.2.13.442.333.463.56.02.22-.126.45-.29.608-.094.09-.42.229-1.22.143a22.287 22.287 0 0 1-.658-.134c-.95-.201-1.76-.368-2.066-.38-.653-.026-.974.139-1.565.792l-.056.062z"/></svg>