<svg height="20" viewBox="0 0 20 20" width="20" xmlns="http://www.w3.org/2000/svg" xmlns:xlink="http://www.w3.org/1999/xlink"><mask id="a" fill="#fff"><path d="m15.067.438v8.562h-14.61v-8.562z" fill="#fff" fill-rule="evenodd"/></mask><g fill-rule="evenodd"><path d="m7.84 1 .386 2.29-2.068 1.498h9.526v-2.078zm1.592 13.392-1.358-3.392a1.058 1.058 0 0 0 -1.371-.587l-6.04 2.419a1.058 1.058 0 0 0 -.587 1.372l1.358 3.39c.216.539.833.804 1.372.588l6.039-2.42c.539-.216.803-.832.587-1.371"/><path d="m10.13.441s-4.96-.008-5.07 0l1.095 2.757c.183.454.177.952-.016 1.404-.194.45-.55.8-1.004.982l-4.678 1.874v1.542h14.61v-3.62c0-2.714-2.221-4.939-4.936-4.939" mask="url(#a)" transform="translate(4 10.903)"/><path d="m7.955 5.568a3.964 3.964 0 0 0 -.114.925 3.924 3.924 0 0 0 3.918 3.924 3.926 3.926 0 0 0 3.925-3.924c0-.32-.043-.628-.116-.925z"/></g></svg>