<svg height="14" viewBox="0 0 20 14" width="20" xmlns="http://www.w3.org/2000/svg"><path d="m.886 12.16.31 1.381 6.15-1.382zm17.941-12.16-6.047 1.359h6.353zm-8.209 10.434c-1.503 0-2.559-.964-2.954-2.406h-.924v-.873h.781c-.01-.122-.01-.254-.01-.386 0-.152 0-.314.02-.467h-.79v-.863h.952c.406-1.37 1.443-2.355 2.884-2.355 1.238 0 1.938.569 2.477 1.34l-.945.7c-.435-.598-.852-.923-1.562-.923-.72 0-1.28.477-1.565 1.238h2.184v.863h-2.375c-.022.142-.022.295-.022.447 0 .142 0 .274.01.406h2.387v.873h-2.194c.286.802.864 1.289 1.656 1.289.68 0 1.086-.355 1.552-.974l.894.66c-.578.842-1.3 1.43-2.456 1.43zm-10.618.959h20v-9.268h-20z"/></svg>