<svg width="16" height="16" viewBox="0 0 16 16" xmlns="http://www.w3.org/2000/svg"><path d="M7.604 0a1.176 1.176 0 0 0 0 2.351h3.406L5.149 8.212a1.176 1.176 0 1 0 1.665 1.66l5.859-5.859v3.342c0 .638.509 1.156 1.143 1.172.01.001.02.004.032.004.649 0 1.176-.526 1.176-1.176V0h-7.42z"/><path d="M12.46 9.85c-.648 0-1.175.525-1.175 1.176v1.644H2.35V3.737h1.646a1.176 1.176 0 0 0 0-2.352h-2.82C.526 1.385 0 1.912 0 2.562v11.285c0 .649.527 1.175 1.176 1.175H12.46c.649 0 1.176-.526 1.176-1.175v-2.821c0-.651-.527-1.176-1.176-1.176"/></svg>