<svg xmlns="http://www.w3.org/2000/svg" width="16" height="16" viewBox="0 0 16 16"><path fill-rule="evenodd" d="M8 16a7.9 7.9 0 0 1-1.118-.08 7.723 7.723 0 0 1-2.173-.622 8.088 8.088 0 0 1-3.788-3.573 7.861 7.861 0 0 1-.758-2.116A8.002 8.002 0 0 1 7.896 0a8.234 8.234 0 0 1 3.036.551 8.254 8.254 0 0 1 2.517 1.591 8.001 8.001 0 0 1 1.762 9.324 8.057 8.057 0 0 1-3.744 3.743 7.942 7.942 0 0 1-3.26.791H8zm-2.948-2.018l.06.027a6.673 6.673 0 0 0 2.716.658h.231c.292 0 .584-.027.875-.063a6.75 6.75 0 0 0 1.807-.524l.064-.027.063-.035.063-.027.062-.035.061-.027.062-.036.062-.035.06-.027.06-.035.028-.018.033-.018.027-.018.034-.018.025-.017.033-.018.026-.018.034-.018.025-.017.033-.027.024-.009.035-.027.023-.017.035-.018.023-.018.035-.027.021-.009.036-.026.02-.018.036-.027.02-.009.037-.026.019-.018.037-.027.018-.009.038-.035.016-.009.04-.035.014-.01.04-.026.014-.018.04-.026.013-.018.042-.036.01-.009.043-.035.01-.01.044-.035.008-.009.045-.035.006-.01.046-.035.055-.053.05-.044c-.306-1.023-.611-2.036-.907-3.058H4.319c-.297 1.022-.602 2.035-.908 3.058l.048.044.048.045.048.044c.126.107.256.213.39.32l.01.009.036.026.017.01.033.026.02.018.031.026.023.01.03.026.024.018.03.018.025.017.028.018.026.018.029.018.082.053.029.018.027.026.028.01.03.017.027.018.029.018.027.017.03.018.027.018.03.018.027.018.031.017.027.01.032.017.027.018.032.018.026.017.033.018.026.009.036.018.023.018.04.017.02.01zM8 3.556c1.226 0 2.222.995 2.222 2.222A2.223 2.223 0 1 1 8 3.556z"/></svg>