<svg xmlns="http://www.w3.org/2000/svg" width="8" height="22" viewBox="0 0 8 22"><path fill-rule="evenodd" d="M3.356 3.994a1.998 1.998 0 0 1 0-3.994 1.997 1.997 0 1 1 0 3.994zM.936 7.425c.08-.535.4-1.646.944-2.275.373-.432.844-.614 1.477-.614a2.3 2.3 0 0 1 .216.011c1.06.097 1.823.915 1.915 2.121.012.156.035.407.065.726a3.48 3.48 0 0 1 2.32 3.28 3.479 3.479 0 0 1-1.682 2.977l.211 2.004H4.39v5.313c0 .567-.464 1.032-1.032 1.032a1.035 1.035 0 0 1-1.031-1.032v-5.313H.313S.62 12.66.88 10.091c.536.886 1.437 1.557 2.691 2a1.373 1.373 0 0 0 1.749-.836 1.371 1.371 0 0 0-.836-1.748c-.758-.27-1.217-.623-1.363-1.056-.091-.27-.087-.6.012-.982a.286.286 0 0 0-.553-.143c-.128.49-.128.93 0 1.308.206.606.782 1.081 1.714 1.411a.8.8 0 0 1-.267 1.553.788.788 0 0 1-.266-.046c-1.423-.502-2.332-1.315-2.7-2.418a3.67 3.67 0 0 1-.126-1.709z"/></svg>