<svg height="16" viewBox="0 0 21 16" width="21" xmlns="http://www.w3.org/2000/svg"><path d="m4.578 12.138h1.7v-9.364h-1.7zm2.434 0h2.82v-9.364h-2.82zm-6.352-2.773a.66.66 0 0 1 .658.659v3.57h3.57a.66.66 0 0 1 0 1.317h-4.228a.66.66 0 0 1 -.66-.656v-4.23a.66.66 0 0 1 .66-.66z"/><path d="m2.814 12.138h.728v-9.364h-.728z"/><path d="m.66 0a.66.66 0 0 0 -.66.66v4.23a.66.66 0 0 0 1.318 0v-3.574h3.57a.66.66 0 1 0 0-1.317h-4.228zm15.797 12.138h.729v-9.364h-.729z"/><path d="m15.11 0a.66.66 0 0 0 0 1.317h3.572v3.572a.66.66 0 0 0 1.318 0v-4.23a.66.66 0 0 0 -.659-.659zm.088 12.138h.364v-9.364h-.364zm-4.438 0h1.215v-9.364h-1.215zm4.35 1.457a.66.66 0 0 0 0 1.317h4.231a.66.66 0 0 0 .66-.658v-4.23a.66.66 0 0 0 -1.319 0v3.571zm-2.278-1.457h1.92v-9.364h-1.92z"/></svg>