<svg xmlns="http://www.w3.org/2000/svg" width="18" height="18" viewBox="0 0 18 18"><path fill-rule="evenodd" d="M7.303 0h8.405A2.299 2.299 0 0 1 18 2.292v5.191a2.299 2.299 0 0 1-2.292 2.293v2.41l-2.89-2.41H7.304A2.299 2.299 0 0 1 5.01 7.483v-5.19A2.299 2.299 0 0 1 7.303 0zm5.222 10.586l.465.388v1.52a2.299 2.299 0 0 1-2.293 2.293v2.41l-2.889-2.41H2.292A2.299 2.299 0 0 1 0 12.493v-5.19a2.298 2.298 0 0 1 2.292-2.292H4.2v1.11H2.292c-.65 0-1.18.53-1.18 1.182v5.19c0 .652.53 1.182 1.18 1.182h5.516c.26 0 .513.092.712.258l1.066.89v-.036c0-.614.498-1.112 1.111-1.112.652 0 1.181-.53 1.181-1.182v-1.907h.647z"/></svg>