<svg xmlns="http://www.w3.org/2000/svg" width="19" height="18" viewBox="0 0 19 18"><path d="M18.019 2.397A1.889 1.889 0 0 0 16.136.514H9.234A1.889 1.889 0 0 0 7.35 2.397V6.66c0 1.035.847 1.882 1.883 1.882v1.98l2.372-1.98h4.53a1.888 1.888 0 0 0 1.883-1.882V2.397zm-9.752 0c0-.533.434-.967.967-.967h6.902c.533 0 .967.434.967.967l.003 4.264a.97.97 0 0 1-.97.969h-4.53a.922.922 0 0 0-.585.212l-.875.73v-.03c0-.502-.387-.85-.912-.895-.6-.053-.97-.452-.97-.986l.003-4.264zM4.245 14.232C2.604 12.59 1.475 10.72.928 9.23.66 8.508.473 7.77.52 6.987c.03-.486.23-.883.584-1.235l1.12-1.123c.488-.486 1.119-.482 1.605.004.298.299 1.506 1.49 1.789 1.788.517.519.513 1.126-.004 1.644L4.508 9.17c-.094.095-.114.169-.067.295.25.596.902 1.62 1.926 2.644s2.048 1.676 2.645 1.927c.125.047.2.027.294-.068l1.106-1.105c.517-.518 1.125-.522 1.643-.004.298.282 1.49 1.49 1.788 1.788.486.486.49 1.118.004 1.605l-1.122 1.12c-.353.353-.75.553-1.235.585-.784.046-1.521-.141-2.243-.408-1.49-.55-3.361-1.676-5.002-3.317zm6.748-9.673a.758.758 0 1 0-1.517 0 .758.758 0 0 0 1.517 0zm2.45 0a.758.758 0 1 0-1.516 0 .758.758 0 0 0 1.516 0zm2.45 0a.758.758 0 1 0-1.516 0 .758.758 0 0 0 1.516 0z"/></svg>