<svg xmlns="http://www.w3.org/2000/svg" width="16" height="16" viewBox="0 0 16 16"><path d="M8.082 0a7.91 7.91 0 0 1 3.268.747 8.062 8.062 0 0 1 3.734 3.612 8.003 8.003 0 0 1 .797 4.759 8.004 8.004 0 0 1-4.887 6.29A7.955 7.955 0 0 1 7.979 16a7.955 7.955 0 0 1-5.504-2.21A8.004 8.004 0 0 1 .143 6.486a8.003 8.003 0 0 1 .73-2.127A8.068 8.068 0 0 1 4.608.747 7.91 7.91 0 0 1 7.876.001h.206zM9.73 1.568c-.623.913-1.752.21-1.752.21L6.657 3.12l.435.708s-1.59-.034-2.208 1.506l1.322.452s.556-.832 1.773-.687c1.072.128 1.308 1.124 1.308 1.124l-.422.889s-1.75-.01-2.66-.626c0 0-2.185-.204-2.659 1.515l.592 1.778 2.068.496.886 3.493h1.773l2.196-4.454L9.752 8l1.773-.438s-.894-.44-.886-1.34h1.773L13.67 8.53l.931-1.127a6.644 6.644 0 0 0-.776-2.579 6.723 6.723 0 0 0-3.038-2.869 6.683 6.683 0 0 0-1.056-.388zm-8.162 8.21c.106.382.245.754.416 1.11a6.711 6.711 0 0 0 1.107 1.631l.454-.963-.886-1.777H1.57zm5.41-8.37l-.013.003a6.57 6.57 0 0 0-2.533.952v.304h1.773l.773-1.258z"/></svg>