<svg xmlns="http://www.w3.org/2000/svg" width="19" height="16" viewBox="0 0 19 16"><path fill-rule="evenodd" d="M11.695 14.356H2.23a.465.465 0 1 1 0-.932h9.465v.932zm4.81-2.293a1.83 1.83 0 0 1 1.828 1.827 1.83 1.83 0 0 1-1.827 1.829H2.16A1.83 1.83 0 0 1 .333 13.89a1.83 1.83 0 0 1 1.828-1.827h14.345zM.668 9.772A.926.926 0 0 1 .55 8.467l2.99-3.575L.72 1.521A.926.926 0 0 1 2.14.332L4.746 3.45 7.352.332a.926.926 0 1 1 1.42 1.189l-2.82 3.371 2.99 3.575A.926.926 0 1 1 7.52 9.655L4.746 6.336l-2.775 3.32a.923.923 0 0 1-1.304.116zm11.044.258a.926.926 0 0 1-.926-.926V.944c0-.51.414-.925.925-.926L14.74.014c1.993 0 3.554 1.51 3.554 3.439 0 1.96-1.528 3.439-3.554 3.439l-2.104.003v2.209a.926.926 0 0 1-.926.926zm.926-8.161v3.174l2.104-.003c.987 0 1.702-.668 1.702-1.587 0-.994-.865-1.587-1.702-1.587l-2.104.003z"/></svg>