<svg xmlns="http://www.w3.org/2000/svg" width="7" height="18" viewBox="0 0 7 18"><path fill-rule="evenodd" d="M5.95 18h-4.9C.47 18 0 17.516 0 16.92V9.448c0-.227.087-.445.244-.606a.822.822 0 0 1 .59-.251h5.292c.483 0 .874.403.874.899v7.43C7 17.516 6.53 18 5.95 18zm.714-10.32H.336A.34.34 0 0 1 0 7.337v-.69C0 6.455.15 6.3.336 6.3h6.328c.185 0 .336.155.336.346v.69a.34.34 0 0 1-.336.345zM.689 5.4a.535.535 0 0 1-.433-.222.567.567 0 0 1-.084-.489C.663 3.282 1.968 2.267 3.5 2.267c1.517 0 2.81.996 3.295 2.384a.574.574 0 0 1-.083.499.54.54 0 0 1-.44.228C4.932 5.4 2.003 5.4.69 5.4zM1.75 1.368h3.5V0h-3.5v1.368z"/></svg>