<svg width="24" height="24" viewBox="0 0 24 24" xmlns="http://www.w3.org/2000/svg">
  <path d="M15.5 8.74951H13.5C13.5 7.92236 12.8271 7.24951 12 7.24951C11.1728 7.24951 10.5 7.92236 10.5 8.74951H8.5C8.5 6.81982 10.0703 5.24951 12 5.24951C13.9297 5.24951 15.5 6.81982 15.5 8.74951Z"/>
  <path d="M16.7344 17.75H7.26556C6.06256 17.75 5.13179 16.6956 5.281 15.5019L5.781 11.5019C5.90611 10.5011 6.75691 9.74999 7.76556 9.74999H16.2344C17.2431 9.74999 18.0939 10.5011 18.219 11.5019L18.719 15.5019C18.8682 16.6956 17.9374 17.75 16.7344 17.75Z"/>
</svg>
