<svg width="20" height="17" viewBox="0 0 20 17" xmlns="http://www.w3.org/2000/svg"><path fill-rule="evenodd" clip-rule="evenodd" d="M13.333 2.392h-1.9c.003-.486.001-.967-.005-1.453a.97.97 0 0 0-.066-.324.968.968 0 0 0-.559-.547 1.085 1.085 0 0 0-.302-.057 173.752 173.752 0 0 0-3.86 0 .958.958 0 0 0-.928.952c.001.214-.001.427-.004.64-.003.263-.006.526-.004.789h-3.99C.767 2.392 0 3.158 0 4.106v8c0 .948.768 1.714 1.714 1.714l2.096-.01v.01h6.237a5.714 5.714 0 0 1 7.096-7.78V4.105c0-.948-.768-1.714-1.715-1.714l-2.095-.011v.01zm-3.095 0H6.905v-1.19h3.333v1.19z" /><path d="M15.238 6.667A4.763 4.763 0 0 1 20 11.429a4.763 4.763 0 0 1-4.762 4.761 4.763 4.763 0 0 1-4.762-4.761 4.763 4.763 0 0 1 4.762-4.762zm.544 1.785h-1.19v2.369h-2.33v1.19h2.33v2.387h1.19v-2.387h2.379v-1.19h-2.38V8.452z" /></svg>
