<svg width="17" height="16" viewBox="0 0 17 16" xmlns="http://www.w3.org/2000/svg"><path clip-rule="evenodd" d="M4.38 7.51a1.16 1.16 0 0 0 .07-.37 1.18 1.18 0 0 0 0-.42 1.07 1.07 0 0 0-.57-.61A1 1 0 0 0 3.42 6a1 1 0 0 0-.42.11 1.07 1.07 0 0 0-.35.25.93.93 0 0 0-.21.36 1 1 0 0 0-.06.42c.008.126.031.25.07.37a6.6 6.6 0 0 0-1.92.37 2.1 2.1 0 0 0-.53.29L.69 13h1.72v2.55h2.08V13H6.2l.69-4.82s-.53-.54-2.51-.67zm1.07 3.41h-4L1.19 9.2H5.7l-.25 1.72zM13.59 1.33a.94.94 0 0 0 .07-.33 1 1 0 0 0-.32-.68 1.06 1.06 0 0 0-.71-.32 1 1 0 0 0-.7.28 1 1 0 0 0-.33.72c0 .13.02.257.06.38a7 7 0 0 0-1.92.36 2.1 2.1 0 0 0-.53.26l.69 4.81h1.72v2.55h2.08V6.81h1.71L16.1 2s-.53-.54-2.51-.67zm1.08 3.42h-4L10.41 3h4.5l-.24 1.75z"/><path d="M12.2 9.83a9.407 9.407 0 0 1-.48 1.07l.58.32c.205-.375.38-.766.52-1.17l-.62-.22zm-1.14 2c-.245.306-.52.588-.82.84l.44.51c.322-.281.62-.59.89-.92l-.51-.43zM9.3 13.31a5.308 5.308 0 0 1-1.07.46l.2.62c.41-.129.805-.3 1.18-.51l-.31-.57zm-2.2.74h-.58c-.175 0-.349-.017-.52-.05l-.08.66c.203.015.407.015.61 0h.65l-.08-.61zm-3.31-.79l-.35.58c.372.22.764.403 1.17.55l.22-.62a5 5 0 0 1-1.04-.51zM.69 7.44v-.13H0v.14c.001.38.038.758.11 1.13l.65-.09a7.27 7.27 0 0 1-.07-1.05zm-.2-2.65A6.68 6.68 0 0 0 .16 6l.64.13c.07-.384.17-.762.3-1.13l-.61-.21zm1.22-2.24A6.85 6.85 0 0 0 1 3.62l.57.32a7.13 7.13 0 0 1 .65-1l-.51-.39zM4 1.47L3.66.86a7 7 0 0 0-1.06.74l.4.5a6.29 6.29 0 0 1 1-.63zM6.17.78L6.11.12a6 6 0 0 0-1.26.25L5 1A5.53 5.53 0 0 1 6.17.78zM7.4.15L7.33.8a5.51 5.51 0 0 1 1.12.26l.22-.61A5.47 5.47 0 0 0 7.4.15zM9.84 1l-.35.57c.33.2.642.432.93.69l.45-.49A6.897 6.897 0 0 0 9.84 1z"/></svg>
