<svg xmlns="http://www.w3.org/2000/svg" width="16" height="18" viewBox="0 0 16 18"><path fill-rule="evenodd" d="M6 17v1H3v-1H2s-.923-2.8-.995-6.54H0V9h1.021C1.164 5.53 2 3 2 3c.736-.18 1.88-.29 2.972-.37l.03-1.21A1.512 1.512 0 0 1 6.423 0h3.154a1.513 1.513 0 0 1 1.421 1.42l.035 1.21c1.091.08 2.232.19 2.967.37 0 0 .836 2.53.979 6H16v1.46h-1.004C14.923 14.2 14 17 14 17h-1v1h-3v-1H6zm6.5-6.54h-1.992v5.04h.642c.745 0 1.35-.6 1.35-1.35v-3.69zm-9 0v3.69c0 .75.605 1.35 1.35 1.35h.642v-5.04H3.5zM7 15.5h2v-5.035H7V15.5zm3.508-11V9H12.5V5.85c0-.75-.605-1.35-1.35-1.35h-.642zM7 9h2V4.5H7V9zM3.5 9h1.992V4.5H4.85c-.745 0-1.35.6-1.35 1.35V9zm6-6.47V1.51s.002-.01 0-.01h-3c-.002 0 0 .01 0 .01v1.02c.871-.04 1.5-.04 1.5-.04s.629 0 1.5.04z"/></svg>