<svg xmlns="http://www.w3.org/2000/svg" width="16" height="21" viewBox="0 0 16 21"><path fill-rule="evenodd" d="M9.973 5.905c.052.006.292.06.694.422.294.314.475.735.475 1.198v1.08h1.52c.985 0 1.835.694 2.033 1.658l.647 3.152h.408a.25.25 0 0 1 .25.25v1.5a.25.25 0 0 1-.25.25h-.4l-.655 3.193a2.075 2.075 0 0 1-2.033 1.656H3.389a2.075 2.075 0 0 1-2.033-1.656L.7 15.415H.25a.25.25 0 0 1-.25-.25v-1.5a.25.25 0 0 1 .25-.25h.459l.647-3.152A2.076 2.076 0 0 1 3.39 8.606h1.52V7.525c0-.722.442-1.345 1.066-1.615.136.279.348.61.643.867a.827.827 0 0 0-.706.814v1.015h4.227l-.299-.908c0-.01.296-.194.296-.204.001-.004.003-.007.003-.012 0-.444-.41-.867-.548-.975.099-.254.217-.48.278-.55.04-.053.079-.053.095-.053zm-.846 4.154H8.116v3.356h1.011V10.06zm2.008 0h-1.011v3.356h1.011V10.06zm2.008 0h-1.011v3.356h1.011V10.06zM7.756 1.776l2.345.949s.45 1.07.756 1.781c.198.46.155 1.038.078 1.457-.845-.765-1.15-.533-1.357-.387-.251.178-.545 1.1-.545 1.1.296.22.364.367.472.47-.236.121-.375.15-.524.18a1.1 1.1 0 0 1-.749-.15s-.915-.548-1.38-1.2c-.465-.65-.605-.976-.395-1.744.3-1.1 1.3-2.456 1.3-2.456zM8.15 0l2.992 1.288-.476 1.109-2.993-1.29L8.15 0z"/></svg>