<svg xmlns="http://www.w3.org/2000/svg" width="10" height="18" viewBox="0 0 10 18"><path fill-rule="evenodd" d="M4.09 13.869a4.741 4.741 0 0 1-.925-.261 4.922 4.922 0 0 1-1.528-.945A4.877 4.877 0 0 1 .055 9.756 5.482 5.482 0 0 1 0 9.126V9h1.362a3.593 3.593 0 0 0 .322 1.485c.193.423.468.801.806 1.125.318.297.69.54 1.094.711.36.153.745.243 1.135.27.398.036.802 0 1.188-.099a3.719 3.719 0 0 0 1.052-.459 3.612 3.612 0 0 0 1.355-1.548 3.567 3.567 0 0 0 .321-1.386V9H10v.009a4.826 4.826 0 0 1-.394 1.917 5.004 5.004 0 0 1-3.24 2.844 7.43 7.43 0 0 1-.458.099V16.2l3.637.9v.9H.453v-.9l3.637-.9v-2.331zM7.727 2.7c0-1.485-1.222-2.7-2.728-2.7-1.506 0-2.728 1.215-2.728 2.7V9c0 1.494 1.222 2.7 2.728 2.7 1.506 0 2.728-1.206 2.728-2.7V2.7z"/></svg>