<svg xmlns="http://www.w3.org/2000/svg" width="17" height="16" viewBox="0 0 17 16"><path fill-rule="evenodd" d="M10.968 9.263c-.22 2.004-.521 4-.773 5.996a.843.843 0 0 1-.528.674.742.742 0 0 1-.231.059c-.048 0-.048 0-.095.008a1.53 1.53 0 0 1-.28-.05.859.859 0 0 1-.53-.573.884.884 0 0 1-.028-.278c.22-2.248.563-4.488.847-6.728V7.006c-.315.615-.634 1.221-.959 1.828a.688.688 0 0 1-.121.16.856.856 0 0 1-.542.27h-.082a.836.836 0 0 1-.32-.068.848.848 0 0 1-.526-.758.837.837 0 0 1 .072-.354A113.277 113.277 0 0 1 9.24 3.368h3.622c.824 1.55 1.613 3.125 2.367 4.716.047.11.075.228.072.354a.848.848 0 0 1-.526.758.844.844 0 0 1-.32.067h-.082a.856.856 0 0 1-.541-.27.688.688 0 0 1-.122-.16c-.325-.606-.645-1.212-.959-1.827v1.348c.284 2.248.629 4.488.85 6.745a.857.857 0 0 1-.558.85 1.465 1.465 0 0 1-.281.051c-.048-.008-.047-.008-.095-.008a.743.743 0 0 1-.23-.06.842.842 0 0 1-.447-.404.908.908 0 0 1-.081-.27c-.253-1.995-.554-3.99-.773-5.995h-.167zM17 7.58v.859a.81.81 0 0 1-.245.58.824.824 0 0 1-.592.245h-.244a1.652 1.652 0 0 0 .125-1.423l-.035-.093c-.026-.059-.054-.11-.08-.168H17zm-10.828 0c-.027.059-.055.11-.08.168A2.459 2.459 0 0 0 6.004 8a1.648 1.648 0 0 0 .176 1.263H.873a.885.885 0 0 1-.617-.252A.852.852 0 0 1 0 8.396v-.817h6.172zm.405-.842H2.55l.74-3.369h3.62l.41 1.87c-.216.43-.43.859-.64 1.288-.036.068-.07.143-.103.21zM11.05 0c.704 0 1.275.564 1.275 1.263 0 .7-.571 1.263-1.275 1.263a1.269 1.269 0 0 1-1.275-1.263C9.775.564 10.346 0 11.05 0zM5.1 0c.704 0 1.275.564 1.275 1.263 0 .7-.571 1.263-1.275 1.263a1.269 1.269 0 0 1-1.275-1.263C3.825.564 4.396 0 5.1 0z"/></svg>