<svg width="12" height="21" viewBox="0 0 12 21" xmlns="http://www.w3.org/2000/svg"><path d="M5.869 16.002l-.299 3.834c-.023.3-.157.581-.377.787-.223.2-.51.313-.809.321-.299 0-.576-.122-.765-.321a1.054 1.054 0 0 1-.266-.787l.299-3.834h-.975l1.474-5.563-.366-.576-1.252 2.759a1.03 1.03 0 0 1-.155.222c-.133.144-.31.244-.499.299-.069.021-.14.036-.211.044h-.1c-.144 0-.288-.022-.421-.078a1.13 1.13 0 0 1-.687-1.008c0-.155.033-.31.1-.465a146.612 146.612 0 0 1 3.081-6.205h.543c.011.122.1 2.737 1.817 3.878 1.718-1.141 1.806-3.756 1.817-3.878h.543a147.825 147.825 0 0 1 3.081 6.205c.066.155.1.31.1.465a1.112 1.112 0 0 1-.687 1.008 1.1 1.1 0 0 1-.421.078h-.1a1.191 1.191 0 0 1-.211-.044 1.098 1.098 0 0 1-.499-.299.955.955 0 0 1-.155-.222L8.217 9.863l-.366.576 1.474 5.563H8.35l.288 3.756a1.1 1.1 0 0 1-1.097 1.185 1.11 1.11 0 0 1-1.108-1.02l-.299-3.922h-.265v.001zm-.243-9.696c-.388-.1-.82-.355-1.274-.875 0 0 1.529-.931 3.302 0 0 0-.51.687-1.274.875.1.1.177.244.177.399.022 1.03-.477 1.673-.554 1.662-.067.011-.554-.632-.554-1.662 0-.152.064-.297.177-.399zM6.002.999c.92 0 1.662.754 1.662 1.662a1.66 1.66 0 0 1-1.662 1.662A1.66 1.66 0 0 1 4.34 2.661c0-.909.743-1.662 1.662-1.662z"/></svg>