<svg height="18" viewBox="0 0 14 18" width="14" xmlns="http://www.w3.org/2000/svg"><path d="m7.015.926c1.656 0 3 1.34 3 3s-1.344 3-3 3-3-1.34-3-3a3 3 0 0 1 3-3zm2.864 7.73c-.018.218-.166 4.32-2.867 6.114-2.701-1.795-2.848-5.897-2.867-6.114h-.859a248.167 248.167 0 0 0 -3.131 6.201l-.064.278c.812.781 1.76 1.417 2.798 1.889l.626-1.38.577.909-.227.855a9.94 9.94 0 0 0 3.149.516c1.1 0 2.154-.186 3.144-.515l-.227-.857.577-.909.627 1.382a10.003 10.003 0 0 0 2.797-1.882l-.068-.297a247.467 247.467 0 0 0 -3.127-6.192h-.858z"/><path d="m6.418 10.033c-.612-.157-1.294-.56-2.01-1.381 0 0 2.412-1.468 5.209 0 0 0-.804 1.084-2.01 1.381.157.157.28.385.28.629.035 1.626-.752 2.64-.874 2.622-.105.017-.874-.997-.874-2.622a.85.85 0 0 1 .279-.629z"/></svg>