<svg xmlns="http://www.w3.org/2000/svg" width="18" height="18" viewBox="0 0 18 18"><path d="M1.774 4.4H8.76V1.78H1.774V4.4zm1.31-.873h1.539v-.873h-1.54v.873zm2.828 0H7.45v-.873H5.91v.873zm1.975 13.974h-5.24a2.619 2.619 0 0 1-2.62-2.62V7.894c0-1.45 1.174-2.62 2.62-2.62h5.24c1.447 0 2.62 1.17 2.62 2.62v6.987c0 1.45-1.173 2.62-2.62 2.62zm-2.62-9.17a3.06 3.06 0 0 1 3.057 3.057 3.06 3.06 0 0 1-3.057 3.056 3.06 3.06 0 0 1-3.057-3.056A3.06 3.06 0 0 1 5.267 8.33zm6.987 2.183c0-.48.392-.873.874-.873V6.872c-1.262-.428-2.184-1.764-2.184-3.345 0-1.93 1.37-3.494 3.057-3.494 1.688 0 3.057 1.564 3.057 3.494 0 1.58-.921 2.917-2.183 3.345v2.769c.482 0 .873.393.873.873v6.114c0 .48-.391.873-.873.873h-1.747a.875.875 0 0 1-.874-.873v-6.114z" fill-rule="evenodd"/></svg>