<svg height="15" viewBox="0 0 20 15" width="20" xmlns="http://www.w3.org/2000/svg"><path d="m9.262 14.967a.88.88 0 1 1 0-1.76.88.88 0 0 1 0 1.76zm-2.464 0a.88.88 0 1 1 0-1.76.88.88 0 0 1 0 1.76zm-2.464 0a.88.88 0 1 1 0-1.76.88.88 0 0 1 0 1.76zm-2.464 0a.88.88 0 1 1 0-1.76.88.88 0 0 1 0 1.76zm17.25 0a.88.88 0 1 1 0-1.76.88.88 0 0 1 0 1.76zm-2.464 0a.88.88 0 1 1 0-1.76.88.88 0 0 1 0 1.76zm-2.465 0a.88.88 0 1 1 0-1.76.88.88 0 0 1 0 1.76zm-2.464 0a.88.88 0 1 1 0-1.76.88.88 0 0 1 0 1.76zm2.673-12.639h1.259v9.79h-8.015v-9.79h1.256c-.003-.408.007-1.095.007-1.503a.821.821 0 0 1 .794-.815c1.102-.012 2.799-.012 3.9 0a.94.94 0 0 1 .26.05.83.83 0 0 1 .535.746c.006.416.007 1.107.004 1.523zm-4.177 0h2.855v-1.02h-2.855zm6.753 9.79v-9.79h.549a1.468 1.468 0 0 1 1.468 1.469v6.853a1.468 1.468 0 0 1 -1.468 1.468zm-10.65 0h-.55a1.469 1.469 0 0 1 -1.468-1.468v-6.853c0-.811.658-1.469 1.469-1.469h.55v9.79z"/></svg>