<svg xmlns="http://www.w3.org/2000/svg" width="16" height="14" viewBox="0 0 16 14"><path fill-rule="evenodd" d="M13.038 13.905V3.492h1.04c.863 0 1.563.702 1.563 1.562v7.289c0 .86-.7 1.562-1.562 1.562h-1.041zm-10.414 0H1.583A1.565 1.565 0 0 1 .02 12.343v-7.29c0-.859.7-1.561 1.562-1.561h1.041v10.413zM6.53 3.492h2.604V2.19H6.529v1.302zm3.92 0h1.242v10.413H3.97V3.492h1.25c-.007-.521-.01-1.05.01-1.571a1.073 1.073 0 0 1 .735-.972c.104-.035.211-.052.32-.06 1.04-.01 2.081-.036 3.121 0 .144.008.285.043.415.103a1.105 1.105 0 0 1 .614.955c.006.512.017 1.033.014 1.545z"/></svg>