<svg width="22" height="22" viewBox="0 0 22 22" xmlns="http://www.w3.org/2000/svg"><path fill-rule="evenodd" clip-rule="evenodd" d="M9.585 1.379L16.87 0l.28 1.599 1.755-.185 2.643-.29a.336.336 0 0 1 .37.299l.08.764a.324.324 0 0 1-.256.36l-2.529.272-1.815.192.75 4.28-9.62 13.789L0 15.169l9.585-13.79zm6.665 1.146a1.125 1.125 0 1 1-2.25 0 1.125 1.125 0 0 1 2.25 0zm-4.084 3.58l.326.087-.106.15-.432 1.089-.045.113a8.38 8.38 0 0 1-.122.3l.185.123h.062l.775-.94.484-.598h.044l.881.194c.164.026.33.026.494 0a.3.3 0 0 0 .282-.325.263.263 0 0 0-.044-.14.36.36 0 0 0-.115-.089 2.341 2.341 0 0 0-.37-.158l-.951-.21-.397-1.696-.07-.28-.256.06v.062c-.022.255-.042.51-.061.764-.02.255-.04.51-.062.764a1.66 1.66 0 0 1 0 .202h-.053l-.74-.114c-.018 0-.034.003-.05.006a.152.152 0 0 1-.1-.006c-.061-.026-.061-.096-.061-.149l-.247-.773-.379.044v.931a.218.218 0 0 0 0 .105.316.316 0 0 0 .062.088.6.6 0 0 0 .282.158l.784.237zm1.348 4.959L7.692 7.027l-.523.75 5.822 4.037.523-.75zm-.928 1.335L6.763 8.36l-.257.368 5.822 4.037.256-.367zM6.162 9.224l5.822 4.038-.136.194L6.027 9.42l.136-.195zm5.282 4.805L5.623 9.992l-.136.195 5.822 4.037.136-.195zm-6.362-3.26l5.821 4.037-.135.195-5.822-4.038.136-.194zm5.334 4.722l-5.822-4.037-.256.367 5.822 4.038.256-.368zm-6.43-3.14l5.821 4.037-.523.75L3.463 13.1l.523-.75zm4.884 5.371L3.05 13.685l-.256.367 5.821 4.038.257-.368zM2.45 14.539l5.821 4.037-.135.195-5.822-4.037.136-.195z" /></svg>
