<svg width="20" height="12" viewBox="0 0 20 12" xmlns="http://www.w3.org/2000/svg"><path d="M18.043 10.534a2 2 0 0 0-3.995 0H5.4a2 2 0 0 0-3.995 0H1a1 1 0 0 1-1-1V1a1 1 0 0 1 1-1h11.617a1 1 0 0 1 1 1v.933h.895a1 1 0 0 1 .82.427l1.956 2.794 1.851.757a1 1 0 0 1 .622.926v2.986l-.943.71h-.775zM3.176 2.8h-.73a1 1 0 0 0-1 1v1.923a1 1 0 0 0 1 1h3.692a1 1 0 0 0 1-1V3.8a1 1 0 0 0-1-1h-.796V1.66H3.176V2.8zm.541 0v-.598H4.8V2.8H3.717zm12.329 8.836a1 1 0 1 1 0-2 1 1 0 0 1 0 2zm-12.644 0a1 1 0 1 1 0-2 1 1 0 0 1 0 2z"/></svg>
