<svg height="12" viewBox="0 0 20 12" width="20" xmlns="http://www.w3.org/2000/svg"><path d="m11.315 0c0 .752.59 1.364 1.316 1.364s1.316-.612 1.316-1.364h6.053v12h-6.053c0-.752-.589-1.364-1.316-1.364-.726 0-1.316.612-1.316 1.364h-11.315v-12zm-6.578 2.182h-.527l.526 2.727v.443c-.858.054-1.527.103-1.527.103s-.158 0-.368.022l-1.001-1.657-.525.267.525 1.915v.005c.005.54 1.368.54 1.368.54s.669.048 1.527.103v.443l-.525 2.727h.526l1.722-3.06c.696.037 1.326.064 1.674.064 1.086 0 1.094-.823 1.094-.823-.001-.027-.024-.824-1.094-.824-.348 0-.978.027-1.674.065zm13.963 6.545h-3.437v1.091h3.437v-1.09zm0-4.363h-3.437v1.09h3.437zm0-2.182h-3.437v1.09h3.437z"/></svg>