<svg width="20" height="20" viewBox="0 0 20 20" xmlns="http://www.w3.org/2000/svg"><path d="M9.21 0h1.58v3.69H9.21V0zm0 16.31h1.58V20H9.21v-3.69zM20 9.21v1.581h-3.69V9.21H20zm-16.31 0v1.58H0V9.21h3.69zM2.37 3.488L3.488 2.37l2.609 2.61-1.118 1.117-2.61-2.609zm11.533 11.533l1.118-1.118 2.609 2.61-1.118 1.117-2.61-2.609zM16.512 2.37l1.118 1.118-2.61 2.61-1.117-1.12 2.609-2.608zM4.979 13.903l1.118 1.118-2.61 2.61-1.117-1.12 2.609-2.608zM9.986 5.27a4.741 4.741 0 0 1 4.736 4.736 4.742 4.742 0 0 1-4.736 4.736 4.742 4.742 0 0 1-4.736-4.736 4.742 4.742 0 0 1 4.736-4.736zM6.83 10.008a3.16 3.16 0 0 0 3.162 3.154c-.003-4.206-.006-6.31-.007-6.31a3.158 3.158 0 0 0-3.155 3.156z" /></svg>
