<svg xmlns="http://www.w3.org/2000/svg" width="20" height="20" viewBox="0 0 20 20"><path fill-rule="evenodd" d="M0 20h20V8.235H0V20zm6.875-10h6.25v1.588l-2.765 6.647H8.11l2.871-6.47H6.875V10zM17.5 2.494c1.445.4 2.5 1.659 2.5 3.153V7.06H0V5.647c0-1.494 1.055-2.753 2.5-3.153V3.53c0 1.295 1.12 2.353 2.5 2.353S7.5 4.824 7.5 3.53V2.353h5v1.176c0 1.295 1.12 2.353 2.5 2.353s2.5-1.058 2.5-2.353V2.494zM6.25 1.176C6.25.53 5.69 0 5 0S3.75.53 3.75 1.176V3.53c0 .647.56 1.177 1.25 1.177s1.25-.53 1.25-1.177V1.176zm10 0C16.25.53 15.69 0 15 0s-1.25.53-1.25 1.176V3.53c0 .647.56 1.177 1.25 1.177s1.25-.53 1.25-1.177V1.176z"/></svg>