<svg width="20" height="20" viewBox="0 0 20 20" xmlns="http://www.w3.org/2000/svg"><path d="M19.765 20H0V8.235h19.765V20zm-7.102-10c2.216 0 4.016 1.153 4.016 4.141s-1.8 4.141-4.016 4.141-4.016-1.164-4.016-4.14c0-2.977 1.8-4.142 4.016-4.142zm-5.251 7.647v-7.059H3.706v1.177H4.94v5.882h2.47zm5.251-6.177c1.192 0 1.68.742 1.68 2.671 0 1.93-.488 2.67-1.68 2.67s-1.852-.752-1.852-2.67.66-2.67 1.852-2.67zm7.102-4.411H0V5.647c0-1.494 1.043-2.753 2.47-3.153v1.035c0 1.294 1.107 2.353 2.471 2.353s2.47-1.059 2.47-2.353V2.353h4.942v1.176c0 1.294 1.107 2.353 2.47 2.353 1.364 0 2.471-1.059 2.471-2.353V2.494c1.428.4 2.47 1.659 2.47 3.153v1.412zM6.177 1.176C6.177.53 5.623 0 4.94 0 4.26 0 3.706.53 3.706 1.176V3.53c0 .647.553 1.177 1.235 1.177s1.236-.53 1.236-1.177V1.176zm9.882 0C16.059.53 15.505 0 14.824 0c-.682 0-1.236.53-1.236 1.176V3.53c0 .647.554 1.177 1.236 1.177.681 0 1.235-.53 1.235-1.177V1.176z" fill-rule="evenodd"/></svg>