<svg xmlns="http://www.w3.org/2000/svg" width="20" height="20" viewBox="0 0 20 20"><path fill-rule="evenodd" d="M20 20H0V8.235h20V20zm-6.251-7.424C13.709 10.2 12.044 9.46 10 9.46c-2.07 0-3.75.965-3.75 2.87 0 2 1.565 3.365 3.75 2.86.184-.048.559-.189.738-.248-.46.953-1.414 2.47-2.67 3.341H10c.014-.011 3.654-1.858 3.748-5.553l.002-.058v-.095h-.001zM10 13.93c-.829 0-1.25-.54-1.25-1.635 0-1.106.335-1.659 1.25-1.659s1.25.66 1.25 1.753c0 1.106-.421 1.541-1.25 1.541zm10-6.87H0V5.647c0-1.494 1.055-2.753 2.5-3.153V3.53c0 1.295 1.12 2.353 2.5 2.353S7.5 4.824 7.5 3.53V2.353h5v1.176c0 1.295 1.12 2.353 2.5 2.353s2.5-1.058 2.5-2.353V2.494c1.445.4 2.5 1.659 2.5 3.153V7.06zM6.25 1.176C6.25.53 5.69 0 5 0S3.75.53 3.75 1.176V3.53c0 .647.56 1.177 1.25 1.177s1.25-.53 1.25-1.177V1.176zm10 0C16.25.53 15.69 0 15 0s-1.25.53-1.25 1.176V3.53c0 .647.56 1.177 1.25 1.177s1.25-.53 1.25-1.177V1.176z"/></svg>