<svg xmlns="http://www.w3.org/2000/svg" width="20" height="20" viewBox="0 0 20 20"><path fill-rule="evenodd" d="M20 20H0V8.235h20V20zm-8.069-10c-1.255.87-2.015 1.906-2.476 2.847.179-.047.361-.106.545-.141 2.185-.506 3.75.612 3.75 2.906s-1.68 3.212-3.75 3.212c-2.044 0-3.709-.742-3.749-3.118H6.25v-.094l.002-.06C6.347 11.848 9.992 10 10 10h1.931zM10 13.659c1.171 0 1.25.894 1.25 2 0 1.094-.034 1.988-1.25 1.988s-1.25-.894-1.25-1.988c0-1.106.079-2 1.25-2zm10-6.6H0V5.647c0-1.494 1.055-2.753 2.5-3.153V3.53c0 1.295 1.12 2.353 2.5 2.353S7.5 4.824 7.5 3.53V2.353h5v1.176c0 1.295 1.12 2.353 2.5 2.353s2.5-1.058 2.5-2.353V2.494c1.445.4 2.5 1.659 2.5 3.153V7.06zM6.25 1.176C6.25.53 5.69 0 5 0S3.75.53 3.75 1.176V3.53c0 .647.56 1.177 1.25 1.177s1.25-.53 1.25-1.177V1.176zm10 0C16.25.53 15.69 0 15 0s-1.25.53-1.25 1.176V3.53c0 .647.56 1.177 1.25 1.177s1.25-.53 1.25-1.177V1.176z"/></svg>