<svg xmlns="http://www.w3.org/2000/svg" width="20" height="20" viewBox="0 0 20 20"><path fill-rule="evenodd" d="M20 20H0V8.235h20V20zm-7.745-4.118c2.656-1.776 3.17-2.306 3.17-3.353 0-1.176-.738-2.529-2.925-2.529-2.491 0-3.125.588-3.125.588v1.177c2.775-.812 3.542 0 3.542 1.176 0 1.177-3.538 2.93-3.542 2.941v1.765h6.25v-1.765h-3.37zM7.5 17.647v-7.059H3.75v1.177H5v5.882h2.5zM20 7.06H0V5.647c0-1.494 1.055-2.753 2.5-3.153V3.53c0 1.295 1.12 2.353 2.5 2.353S7.5 4.824 7.5 3.53V2.353h5v1.176c0 1.295 1.12 2.353 2.5 2.353s2.5-1.058 2.5-2.353V2.494c1.445.4 2.5 1.659 2.5 3.153V7.06zM6.25 1.176C6.25.53 5.69 0 5 0S3.75.53 3.75 1.176V3.53c0 .647.56 1.177 1.25 1.177s1.25-.53 1.25-1.177V1.176zm10 0C16.25.53 15.69 0 15 0s-1.25.53-1.25 1.176V3.53c0 .647.56 1.177 1.25 1.177s1.25-.53 1.25-1.177V1.176z"/></svg>