<svg height="12" viewBox="0 0 16 12" width="16" xmlns="http://www.w3.org/2000/svg"><path d="m9.792 1.357h4.608a1.6 1.6 0 0 1 1.6 1.596v7.45a1.6 1.6 0 0 1 -1.6 1.597h-12.8a1.6 1.6 0 0 1 -1.6-1.596v-7.45a1.6 1.6 0 0 1 1.6-1.597h1.08l.89-1.357h5.319zm-3.452 1.321c.17.01.337.018.505.045.39.062.77.177 1.125.346a4.07 4.07 0 0 1 1.828 1.791 3.967 3.967 0 0 1 .392 2.43c-.06.39-.177.772-.348 1.127a4.186 4.186 0 0 1 -.846 1.162 4.07 4.07 0 0 1 -1.203.79 4.071 4.071 0 0 1 -3.113 0 4.07 4.07 0 0 1 -1.203-.79 4.186 4.186 0 0 1 -.846-1.162 3.966 3.966 0 0 1 -.348-1.127 3.967 3.967 0 0 1 .392-2.43 4.07 4.07 0 0 1 1.828-1.79 4.143 4.143 0 0 1 1.125-.346c.168-.027.336-.036.505-.045h.207zm7.896.887h-.888v6.227h.888zm-8.069.444a2.846 2.846 0 0 0 -1.083.257 2.712 2.712 0 0 0 -1.46 1.871 2.725 2.725 0 0 0 .209 1.703c.14.284.332.55.565.772s.506.4.803.532a2.74 2.74 0 0 0 2.071 0 2.73 2.73 0 0 0 1.368-1.304 2.71 2.71 0 0 0 .232-.754 2.666 2.666 0 0 0 -1.424-2.785 2.676 2.676 0 0 0 -1.073-.292z" fill-rule="evenodd"/></svg>