<svg xmlns="http://www.w3.org/2000/svg" width="18" height="19" viewBox="0 0 18 19"><path d="M17.6 11c.3.1.4.4.3.7l-2.3 5.7a.063.063 0 0 1-.008.022l-.01.015c-.11.146-.894.663-6.482.663-4.468 0-5.343-.559-5.478-.678l-.015-.014L3.6 17.4l-2.5-5.1-1-.4v-.6c0-.1 3.9-.8 7.2.4-.1.3-.2.6-.2.9 0 1.1.9 2 2 2s2-.9 2-2c0-.24-.064-.544-.14-.81l-.06-.19c3-1.3 5.6-.9 6.7-.6zM9.1 0c.4 0 .8.3.8.8v11.1l.016.016L10 12s0 .1.1.1v.4c0 .5-.5 1-1 1-.1 0-.3 0-.4-.1-.356-.178-.553-.435-.593-.77L8.1 12.5c0-.1 0-.2.1-.3V12c0-.1.1-.1.1-.2V.8c0-.4.3-.8.8-.8zM7.3 4v6.7c-1.6-.6-3.2-.7-4.5-.7-1.3 0-2.3.1-2.7.2.2-1.5.8-3.6 2.7-4.8C4.4 4.3 5.9 4 7.3 4zm3.599.542L10.8 4.5c1.2.5 1.9.9 1.9.9l-1.8 3.7-.001-4.558z"/></svg>