<svg xmlns="http://www.w3.org/2000/svg" width="19" height="14" viewBox="0 0 19 14"><path fill-rule="evenodd" d="M12.64 8.237l4.249-.158-.058-1.614-4.25.158.058 1.614zm-6.28 0l-4.249-.158.058-1.614 4.25.158-.058 1.614zM4.006 4.829h10.99c-.07-.27-.14-.538-.216-.805a15.171 15.171 0 0 0-.116-.373c-.188-.554-.409-1.106-.723-1.6l-.028-.042a18.168 18.168 0 0 0-1.34-.21 25.479 25.479 0 0 0-4.92-.118c-.856.062-1.71.166-2.555.326l-.01.002c-.19.29-.342.6-.477.919a9.96 9.96 0 0 0-.414 1.186l-.191.715zm13.676.125a2.7 2.7 0 0 1 .258.903l.004.052.001.018v7.392a.674.674 0 0 1-.668.681h-1.335a.675.675 0 0 1-.668-.681v-2.01H3.727v2.01c0 .376-.3.681-.668.681H1.724a.674.674 0 0 1-.668-.681s.016-7.559.022-7.595a2.911 2.911 0 0 1 .241-.77L0 4.845l.128-1.61 2.61.215.01-.036a10.9 10.9 0 0 1 .655-1.663c.21-.416.456-.814.772-1.157l.047-.05A17.91 17.91 0 0 1 5.831.25 25.828 25.828 0 0 1 8.308.026a27.366 27.366 0 0 1 3.348.06 22.6 22.6 0 0 1 2.905.408l.12.027.097.024c.048.05.095.1.14.153.335.396.591.851.809 1.323.212.462.388.941.535 1.43l2.61-.215L19 4.845l-1.32.109z"/></svg>