<svg xmlns="http://www.w3.org/2000/svg" width="24" height="24" viewBox="0 0 24 24"><path d="M7.5 7c.62 0 1.12-.5 1.12-1.11V3.66c0-.61-.5-1.11-1.12-1.11s-1.12.5-1.12 1.11v2.22c0 .61.5 1.11 1.12 1.11zM16.5 7c.62 0 1.12-.5 1.12-1.11V3.66c0-.61-.5-1.11-1.12-1.11s-1.12.5-1.12 1.11v2.22c0 .61.5 1.11 1.12 1.11zM3 21.45h18V10.33H3zm5.45-6.57h5.06l-1.88-2.1.77-.86 3.19 3.56-3.19 3.56-.77-.86 1.88-2.1H8.45z"/><path fill="#000" d="M18.75 4.91v.98c0 1.22-1.01 2.22-2.25 2.22s-2.25-1-2.25-2.22V4.78h-4.5v1.11c0 1.22-1.01 2.22-2.25 2.22s-2.25-1-2.25-2.22v-.98C3.95 5.29 3 6.48 3 7.89v1.33h18V7.89c0-1.41-.95-2.6-2.25-2.98"/></svg>
