<svg xmlns="http://www.w3.org/2000/svg" width="16" height="18" viewBox="0 0 16 18"><path fill-rule="evenodd" d="M10.667 17.778H0V0h10.667v7.831a6.216 6.216 0 0 0-.565.24 4.699 4.699 0 0 0-2.079 2.133 4.608 4.608 0 0 0-.46 2.08 11.837 11.837 0 0 0-1.13-.008l-1.112-2.48-.889.204.686 2.329a65.8 65.8 0 0 0-1.52.098c-.09.009-.197.026-.302.035l-.796-1.11-.684.088.404 1.467.001.009c.073.115.318.24 1.335.4.317.053 1.202.115 1.557.124l-.681 2.382.889.196 1.107-2.516c.44.01.995.01 1.314.01A4.592 4.592 0 0 0 9.01 15.6c.407.39.883.701 1.402.923.084.036.17.063.256.098v1.156zm1.559-9.325a3.774 3.774 0 1 1-3.774 3.77c0-2.08 1.69-3.77 3.774-3.77zm-.466 4.24l2.188-2.186.629.622-2.817 2.818-.628-.623-1.257-1.262.628-.63 1.257 1.261zM2.424 3.556a.65.65 0 0 1 .646.648c0 .356-.29.64-.646.64a.642.642 0 0 1-.646-.64.65.65 0 0 1 .646-.648zm2.91 0a.65.65 0 0 1 .646.648c0 .356-.29.64-.647.64a.642.642 0 0 1-.646-.64.65.65 0 0 1 .646-.648zm2.909 0a.65.65 0 0 1 .646.648c0 .356-.29.64-.646.64a.642.642 0 0 1-.647-.64.65.65 0 0 1 .647-.648z"/></svg>