<svg width="21" height="17" viewBox="0 0 21 17" xmlns="http://www.w3.org/2000/svg"><path fill-rule="evenodd" clip-rule="evenodd" d="M18.513 16.58H2.057C.926 16.58 0 15.686 0 14.593V5.321c0-1.093.926-1.987 2.057-1.987h4.788a38.813 38.813 0 0 1 .012-1.998c.011-.188.057-.364.137-.53A1.41 1.41 0 0 1 7.828.1c.137-.045.274-.067.423-.078.305-.002.61-.006.915-.01a72.44 72.44 0 0 1 3.187.01c.195.011.377.056.549.133.343.165.617.452.731.806.058.132.08.265.08.408.012.651.023 1.314.023 1.965h4.777c1.131 0 2.057.894 2.057 1.987v9.272c0 1.093-.926 1.987-2.057 1.987zm-3.657-4.438V5.52l-2.285-1.103-2.286 1.103v6.623h4.571zM8.571 1.678h3.428v1.656H8.571V1.678z" /></svg>
