<svg xmlns="http://www.w3.org/2000/svg" width="18" height="13" viewBox="0 0 18 13"><path d="M13.763 12.409H1.409C.68 12.409 0 11.62 0 10.891h15.003c.001.728-.512 1.518-1.24 1.518zM15.51 1.136a2.263 2.263 0 0 0-.504.145c.03-.477.009-.458.009-.925V.043H.007v.313c0 3.717 1.453 9.377 6.401 9.532h2.205c2.187-.068 3.404-1.083 4.312-2.227 1.009-.43 2.123-.848 2.685-1.118 1.003-.481 2.077-1.334 2.321-2.424.469-2.092-.832-3.285-2.421-2.983zm-.106 3.773c-.729.444-.971.499-1.353.633.526-1.378.593-1.929.731-2.598.134-.086.592-.382.894-.405.539-.041.836.424.802.941-.043.64-.73 1.22-1.074 1.429z"/></svg>