<svg xmlns="http://www.w3.org/2000/svg" width="20" height="18" viewbox="0 0 20 18"><path d="M18.83 5.46A3.998 3.998 0 0 0 16 4.29c-1.03 0-2.05.39-2.83 1.17-.25.24-.45.51-.61.8l1.11 1.11c.12-.31.31-.6.56-.85.97-.98 2.56-.98 3.53 0 .48.47.74 1.1.74 1.76 0 .67-.26 1.3-.74 1.77-.48.49-1.12.73-1.76.73-.12 0-.23-.01-.35-.03-.52-.07-1.02-.3-1.42-.7L9.456 5.274l1.24-1.239-1.061-1.06-1.24 1.238-.707-.707 1.593-1.592-1.06-1.06-2.125 2.124.002.002-.528.528 7.6 7.6c.38.38.81.66 1.27.85 1.45.62 3.2.33 4.39-.85.75-.75 1.17-1.76 1.17-2.83 0-1.06-.42-2.07-1.17-2.82ZM6.83 6.89c-.38-.38-.81-.66-1.27-.85-1.45-.62-3.2-.33-4.39.85C.42 7.64 0 8.65 0 9.72c0 1.06.42 2.07 1.17 2.82.78.78 1.81 1.17 2.83 1.17 1.03 0 2.05-.39 2.83-1.17.25-.24.45-.51.61-.8l-1.11-1.11c-.12.31-.31.6-.56.85-.97.98-2.56.98-3.53 0-.48-.47-.74-1.1-.74-1.76 0-.67.26-1.3.74-1.77A2.45 2.45 0 0 1 4 7.22c.12 0 .23.01.35.03.52.07 1.02.3 1.42.7l4.774 4.775-1.593 1.592 1.06 1.06 1.594-1.591.707.707-1.593 1.592 1.06 1.06 2.125-2.123-.002-.003.528-.528-7.6-7.6Z"/></svg>
