<svg width="20" height="20" viewBox="0 0 20 20" xmlns="http://www.w3.org/2000/svg"><path d="M10 0C4.478 0 0 4.478 0 10c0 1.856.511 3.589 1.4 5.078L.1 19.9l4.822-1.3A9.866 9.866 0 0 0 10 20c5.522 0 10-4.478 10-10S15.522 0 10 0Zm.8 14.233a1.147 1.147 0 0 1-.233.367 1.097 1.097 0 0 1-.39.244c-.144.045-.3.078-.444.067a1.208 1.208 0 0 1-.855-.3c-.1-.1-.178-.233-.234-.378a1.136 1.136 0 0 1-.055-.433c-.011-.156 0-.3.055-.444.056-.145.134-.267.234-.378.233-.2.544-.3.855-.278.3-.022.6.078.834.278.1.11.177.233.233.378.044.144.067.288.056.444.01.144-.012.289-.056.433Zm1.856-5.555a4.327 4.327 0 0 1-1.2 1.178 4.23 4.23 0 0 0-.79.688 1.08 1.08 0 0 0-.166.645v.378H8.789v-.478a2.01 2.01 0 0 1 .255-1.078c.256-.4.59-.722.978-.978.345-.222.645-.489.9-.8.134-.2.211-.444.211-.689a.659.659 0 0 0-.066-.355.835.835 0 0 0-.245-.278 1.393 1.393 0 0 0-.866-.222 4.901 4.901 0 0 0-2.223.644L7.023 5.9a6.171 6.171 0 0 1 3.088-.811 3.2 3.2 0 0 1 2.078.655c.255.2.455.456.6.756.133.289.2.611.189.944.01.434-.1.867-.322 1.234Z"/></svg>
