<svg xmlns="http://www.w3.org/2000/svg" width="19" height="17" viewBox="0 0 19 17"><path fill-rule="evenodd" d="M2.621 14.167a4.28 4.28 0 0 0 3.538 1.889h.032a4.28 4.28 0 0 0 3.538-1.89H19V17H0v-2.833h2.621zM6.18 8.505c.083.093 1.415 1.618 1.421 3.29v.01a1.42 1.42 0 0 1-1.425 1.417 1.421 1.421 0 0 1-1.425-1.416v-.01C4.756 10.068 6.175 8.5 6.175 8.5l.004.005zm5.85-5.59l5.799 3.329.088.054a2.34 2.34 0 0 1 .733.747 2.35 2.35 0 0 1-.5 3.045 2.389 2.389 0 0 1-2.696.243L9.655 7.005l-.475.818-3.655-2.098L8.85 0l3.655 2.098-.475.817zm1.944 2.752l-3.89-2.233.475-.818-1.186-.68-1.9 3.27 1.186.682.475-.818 1.04.597h3.8z"/></svg>