<svg xmlns="http://www.w3.org/2000/svg" width="22" height="16" viewBox="0 0 22 16"><path fill-rule="evenodd" d="M1.37 1.379C.49 2.257.49 3.672.49 6.5v3c0 2.828 0 4.243.88 5.121.878.879 2.292.879 5.12.879h9.02c2.828 0 4.242 0 5.12-.879.88-.878.88-2.293.88-5.121v-3c0-2.828 0-4.243-.88-5.121C19.753.5 18.339.5 15.51.5H6.49c-2.828 0-4.242 0-5.12.879m13.605 10.257q-1.04 0-1.865-.445a3.27 3.27 0 0 1-1.29-1.27q-.468-.825-.468-1.913 0-1.094.468-1.92.47-.824 1.294-1.274.825-.449 1.87-.449.684 0 1.27.22.586.215 1.016.62.434.4.674.942l-1.177.748a2.1 2.1 0 0 0-.41-.601 1.7 1.7 0 0 0-.591-.4 1.8 1.8 0 0 0-.738-.147q-.58 0-1.06.274a1.96 1.96 0 0 0-.751.79q-.278.513-.278 1.202 0 .693.268 1.2.273.51.742.777.474.264 1.065.264.4 0 .732-.142.337-.146.596-.405a2.3 2.3 0 0 0 .435-.615l1.171.757a2.9 2.9 0 0 1-1.67 1.562q-.585.225-1.303.225M5.81 11.19q.825.445 1.865.445.717 0 1.304-.225.59-.225 1.01-.625.425-.405.66-.937l-1.172-.757a2.3 2.3 0 0 1-.435.615 1.9 1.9 0 0 1-.596.405 1.85 1.85 0 0 1-.732.142q-.591 0-1.065-.264a1.9 1.9 0 0 1-.742-.776q-.268-.509-.268-1.201 0-.69.278-1.201a1.96 1.96 0 0 1 .752-.791 2.1 2.1 0 0 1 1.06-.274q.4 0 .737.147.342.14.59.4.255.259.41.6l1.178-.747a2.8 2.8 0 0 0-.674-.942 2.9 2.9 0 0 0-1.016-.62 3.6 3.6 0 0 0-1.27-.22q-1.045 0-1.87.45-.825.449-1.293 1.274-.47.825-.47 1.919 0 1.089.47 1.914.468.82 1.289 1.27" clip-rule="evenodd"/></svg>
