<svg xmlns="http://www.w3.org/2000/svg" width="18" height="11" viewBox="0 0 18 11"><path fill-rule="evenodd" d="M18 11H0V0h13.5v4.583H18V11zM3.384 6.857a.69.69 0 0 1 .684.696.69.69 0 0 1-.684.697.69.69 0 0 1-.684-.697.69.69 0 0 1 .684-.696zm2.232 0a.69.69 0 0 1 .684.696.69.69 0 0 1-.684.697.69.69 0 0 1-.684-.697.69.69 0 0 1 .684-.696zm2.268 0a.69.69 0 0 1 .684.696.69.69 0 0 1-.684.697.69.69 0 0 1-.684-.697.69.69 0 0 1 .684-.696zm2.232 0a.69.69 0 0 1 .684.696.69.69 0 0 1-.684.697.69.69 0 0 1-.684-.697.69.69 0 0 1 .684-.696zm2.268 0a.69.69 0 0 1 .684.696.69.69 0 0 1-.684.697.69.69 0 0 1-.684-.697.69.69 0 0 1 .684-.696zm2.232 0a.69.69 0 0 1 .684.696.69.69 0 0 1-.684.697.69.69 0 0 1-.684-.697.69.69 0 0 1 .684-.696zM18 3.667h-3.6V0L18 3.667z"/></svg>