<svg xmlns="http://www.w3.org/2000/svg" width="19" height="16" viewBox="0 0 19 16"><path fill-rule="evenodd" d="M1.131 15.5H.377A.379.379 0 0 1 0 15.12v-2.24c0-.21.169-.38.377-.38h.754c.208 0 .377.17.377.38V13h1.986A.51.51 0 0 0 4 12.49c0-.27.221-.49.493-.49H6v4H4.506A.51.51 0 0 1 4 15.49c0-.27-.221-.49-.493-.49H1.508v.12c0 .21-.169.38-.377.38zM7 16h12v-4H7v4zm10-3c.552 0 1 .45 1 1s-.448 1-1 1-1-.45-1-1 .448-1 1-1zM12 .002a4.899 4.899 0 0 1 1.492.278c.307.112.601.262.865.457.301.221.558.501.748.823.159.272.27.571.332.88.07.347.076 1.009.06 1.362-.021.454-.095 1.134-.241 1.568l-.02.05c.193 0 .387 0 .581.01.061 0 .122 0 .183.01.389.05.769.15 1.127.31.239.11.466.25.672.41.155.12.298.26.426.41.336.4.555.88.662 1.39.061.29.086.58.088.88V11h-1.5c0-.75.015-1.5-.002-2.26-.012-.33-.069-.66-.23-.96a2.02 2.02 0 0 0-.165-.24 1.775 1.775 0 0 0-.901-.54 2.118 2.118 0 0 0-.433-.08c-.68-.02-1.361 0-2.042 0a.814.814 0 0 1-.404-.11.768.768 0 0 1-.339-.74c.01-.07.029-.14.058-.2a.713.713 0 0 1 .273-.32.737.737 0 0 1 .133-.07h.001c.008-.01.007-.01.015-.01a1.188 1.188 0 0 0 .34-.44 2.58 2.58 0 0 0 .187-.701c.02-.148.031-.528.036-.677.005-.192.005-.692-.029-.881a1.267 1.267 0 0 0-.422-.759 1.742 1.742 0 0 0-.364-.235 2.683 2.683 0 0 0-.591-.197A4.378 4.378 0 0 0 12 1.485V.002zM10 0v1.482a1.81 1.81 0 0 0-1.04.413 1.126 1.126 0 0 0-.161.17c-.195.258-.262.587-.273.904-.01.305.05.613.258.846.174.194.416.317.658.402.36.127.747.179 1.128.191.127.004.253-.002.381-.005l.055.003a.8.8 0 0 1 .316.103.733.733 0 0 1 .173.14.755.755 0 0 1 .118.831.73.73 0 0 1-.254.29c-.066.05-.136.08-.202.12-.315.2-.563.51-.627.89-.022.12-.023.26-.011.39.018.2.075.4.225.55.085.08.19.13.299.17.213.08.439.1.664.11.553.01 1.106 0 1.659 0 .312 0 .686-.01 1.022 0 .53.03 1.05.22 1.44.59a2.055 2.055 0 0 1 .479.7c.141.34.191.7.196 1.06v.64h-1.5c0-.23.002-.46-.001-.69-.005-.1-.014-.21-.04-.31a.921.921 0 0 0-.084-.21c-.117-.19-.345-.27-.56-.28-.317-.01-.635 0-.953 0h-1.578c-.182 0-.363-.01-.544-.03-.43-.06-.857-.19-1.223-.42-.146-.1-.282-.21-.401-.34-.394-.42-.579-.98-.604-1.56a2.89 2.89 0 0 1 .083-.85c.047-.18.116-.35.198-.52l.016-.04c-.062-.01-.124-.03-.186-.05l-.182-.06a3.712 3.712 0 0 1-.549-.24 2.738 2.738 0 0 1-.911-.804 2.543 2.543 0 0 1-.42-1.046 3.292 3.292 0 0 1-.034-.687c.016-.33.074-.659.185-.971a2.68 2.68 0 0 1 .554-.92C8.357.328 9.157.02 10 0zm3.423 5.48s.012-.01.009-.01l-.009.01z"/></svg>