<svg height="20" viewBox="0 0 20 20" width="20" xmlns="http://www.w3.org/2000/svg"><path d="m16 22h-14v-20h14zm-1.5-18.5h-11v17h11zm-5.598 10.5-.915 5.17a1 1 0 0 1 -1.97-.349l.983-5.547v-3.035l-1.145 2.263a1 1 0 0 1 -1.732-1l2.389-3.502h4.939l2.425 3.502a1 1 0 0 1 -1.732 1l-1.144-2.263v3.019l.985 5.563a1 1 0 0 1 -1.97.349l-.915-5.17h-.197zm10.268 1.323 1.768-1.768 1.062 1.061-2.829 2.829-1.06-1.061-1.768-1.768 1.061-1.061 1.767 1.768zm0-6.646-1.767 1.768-1.06-1.061 2.827-2.829 2.83 2.829-1.06 1.061-1.769-1.768zm-10.17-4.177a1.5 1.5 0 1 1 -.002 3.001 1.5 1.5 0 0 1 .002-3.001z" fill-rule="evenodd" transform="translate(-2 -2)"/></svg>