<svg width="16" height="13" viewBox="0 0 16 13" xmlns="http://www.w3.org/2000/svg"><path fill-rule="evenodd" clip-rule="evenodd" d="M.967 6.479c0-2.62 1.42-4.92 3.547-6.22C1.884 1.169 0 3.606 0 6.479c0 2.874 1.885 5.312 4.514 6.22C2.387 11.4.967 9.102.967 6.48zm1.634-.029C2.6 3.501 4.514.984 7.19 0 4.077.595 1.725 3.269 1.725 6.48c0 3.304 2.493 6.033 5.743 6.52C4.646 12.092 2.6 9.502 2.6 6.45zm10.217 2.48l-1.013-.73c-.53.684-.99 1.077-1.76 1.077-.898 0-1.554-.538-1.877-1.424h2.486v-.965H7.949c-.011-.146-.011-.292-.011-.448 0-.169 0-.337.023-.494h2.693v-.953H8.179c.323-.843.956-1.37 1.773-1.37.806 0 1.278.359 1.772 1.022l1.071-.775c-.61-.852-1.405-1.48-2.808-1.48-1.635 0-2.81 1.087-3.27 2.603H5.636v.953h.899c-.023.169-.023.347-.023.516 0 .145 0 .291.012.426h-.888v.965h1.048c.45 1.593 1.646 2.658 3.35 2.658 1.312 0 2.129-.65 2.785-1.582zM16 6.45c0 3.403-2.83 6.16-6.32 6.16-3.491 0-6.32-2.757-6.32-6.16C3.36 3.05 6.19.29 9.68.29 13.17.29 16 3.05 16 6.45z"/></svg>
