<svg width="18" height="20" viewBox="0 0 18 20" xmlns="http://www.w3.org/2000/svg"><path d="M16.091 15.564l1.332 2.313a.75.75 0 0 1-.84 1.098.746.746 0 0 1-.454-.349l-1.405-2.44a.744.744 0 0 1-.128-.418v-2.42l-.777.208-1.154 2.002v2.67a.749.749 0 1 1-1.495 0v-2.815a.745.745 0 0 1 .098-.427l1.57-2.726-.314-1.176-1.274 1.38a.747.747 0 0 1-1.179-.105v.001l-1.156-2.003a.756.756 0 0 1-.1-.382L7.184 7.143v.342l.993 10.382a.997.997 0 1 1-1.984.19l-.676-7.07h-.413l-.675 7.07a.997.997 0 1 1-1.985-.19l.754-7.883V7.628l-1.304 2.698a.994.994 0 0 1-1.33.463A1.001 1.001 0 0 1 .1 9.455l2.6-5.379v-.08h4.983v.016l2.993 5.196c.205.356.167.786-.063 1.096l.229.397 1.225-1.327h.002l-.001-.001 2.863-.77.001.004.002-.003 2.44 1.412a.75.75 0 0 1 .37.58l.25 1.901a.749.749 0 0 1-1.482.196l-.206-1.565-.828-.48.613 2.296h.001v2.62h-.001zm-2.679-9.571c.689 0 1.246.56 1.246 1.248a1.247 1.247 0 1 1-2.492 0c0-.689.558-1.248 1.246-1.248zM5.19 0c.826 0 1.495.671 1.495 1.498S6.016 2.996 5.19 2.996A1.497 1.497 0 0 1 5.19 0z"/></svg>