<svg xmlns="http://www.w3.org/2000/svg" width="19" height="18" viewBox="0 0 19 18"><path fill-rule="evenodd" d="M6.24 15.206l-.165.002c-3.858 0-5.964-.901-5.964-1.364v-2.091c1.078.648 3.128.995 5.19 1.064.16.864.485 1.67.938 2.39zM.11 1.365C.111.9 2.216 0 6.074 0c3.86 0 5.963.901 5.963 1.365 0 .463-2.104 1.364-5.963 1.364-3.858 0-5.963-.9-5.963-1.364zm0 9.323v-2.1c1.112.668 3.254 1.02 5.344 1.076a6.813 6.813 0 0 0-.273 1.9c0 .158.013.311.023.465C1.868 11.9.11 11.1.11 10.688zm0-3.157V5.44c1.21.732 3.646 1.076 5.963 1.076.474 0 .936-.017 1.388-.044a6.892 6.892 0 0 0-1.738 2.419C2.092 8.837.11 7.964.11 7.53zm0-3.158v-1.94c1.21.731 3.646 1.075 5.963 1.075 2.318 0 4.754-.344 5.963-1.075v1.94c0 .065-.073.185-.279.328-.01.007-.013.016-.022.024a6.8 6.8 0 0 0-3.093.892.398.398 0 0 0-.141-.014c-.765.09-1.582.135-2.428.135C2.215 5.738.11 4.837.11 4.373zm11.606 8.124l-1.98-2.646v4.428a.389.389 0 1 1-.779 0V8.68c0-.167.108-.317.267-.37a.388.388 0 0 1 .435.136l2.364 3.16 2.294-3.156a.39.39 0 0 1 .704.23v5.598a.39.39 0 1 1-.779 0v-4.4l-1.9 2.614c-.072.1-.185.178-.314.16a.388.388 0 0 1-.312-.156m6.394-.933a6.083 6.083 0 0 0-6.076-6.075 6.082 6.082 0 0 0-6.075 6.075 6.081 6.081 0 0 0 6.075 6.076 6.081 6.081 0 0 0 6.076-6.076"/></svg>