<svg width="16" height="16" viewBox="0 0 16 16" xmlns="http://www.w3.org/2000/svg"><path d="M12.812.125l.568 1.498a.198.198 0 0 1-.113.254l-1.014.384a.19.19 0 0 1-.185-.027L10.61 1.092a.196.196 0 0 1 .047-.336l1.906-.743c.1-.038.21.012.248.112zM8.682 1.62l1.448 1.132a.192.192 0 0 1-.049.33l-1.657.629a.187.187 0 0 1-.18-.028L6.81 2.561a.191.191 0 0 1 .048-.328l1.643-.64a.183.183 0 0 1 .181.026zM6.308 4.208l-1.42-1.111a.182.182 0 0 0-.179-.027l-1.65.643a.188.188 0 0 0-.046.322l1.406 1.102c.05.04.117.049.177.026l1.665-.632a.188.188 0 0 0 .047-.323zM.124 4.857l.788-.307a.191.191 0 0 1 .187.027L2.47 5.651a.196.196 0 0 1-.05.337l-1.622.615a.192.192 0 0 1-.247-.11L.013 5.112a.197.197 0 0 1 .11-.255zM3.58 15.985l11.408-1.854c.79-.132 1.12-.856.981-1.71-.169-1.03-1.53-6.702-1.765-7.677l-.014-.058a.09.09 0 0 0-.106-.068l-1.496.303a.091.091 0 0 0-.069.061l-.616 1.827a.09.09 0 0 1-.072.062l-1.598.246a.092.092 0 0 1-.099-.125l.629-1.582c.026-.066-.031-.138-.102-.124l-2.011.379a.093.093 0 0 0-.069.057l-.649 1.704a.093.093 0 0 1-.07.058l-1.623.25a.093.093 0 0 1-.099-.124l.546-1.431c.025-.068-.03-.138-.102-.124l-1.944.367a.092.092 0 0 0-.067.056l-.62 1.563a.093.093 0 0 1-.07.057l-1.571.242a.091.091 0 0 1-.095-.131l.613-1.293a.092.092 0 0 0-.1-.13L.867 7.17a.092.092 0 0 0-.07.11l1.653 7.884c.038.565.564.914 1.13.82z"/></svg>
