<svg height="21" viewBox="0 0 20 21" width="20" xmlns="http://www.w3.org/2000/svg"><path d="m6.483 8.04 3.612 2.1-1.564 2.726-2.267-1.317-3.323 5.794 4.8-2.789-.522-.909 2.71-1.574 2.084 3.636-2.708 1.574-.048-.083-.07.057c-.212.176-.426.432-.4.727a.79.79 0 0 0 .062.238c.03.07.066.138.114.197a.798.798 0 0 0 .249.188c.12.06.245.112.367.17.19.095.371.206.522.359.048.05.093.103.135.158.36.484.4 1.125.392 1.708l-1.043-.015a8.434 8.434 0 0 0 -.001-.281 5.672 5.672 0 0 0 -.016-.23 2.21 2.21 0 0 0 -.05-.285.81.81 0 0 0 -.105-.25c-.082-.124-.22-.19-.351-.249a12.575 12.575 0 0 1 -.32-.148 1.738 1.738 0 0 1 -.67-.574 1.943 1.943 0 0 1 -.244-.5 1.715 1.715 0 0 1 -.068-.78c.01-.073.028-.144.047-.214.146-.498.51-.894.925-1.191l-.215-.375-7.741 4.5-.776-1.355.251-.146zm4.348 3.506 5.418-3.149 3.751.244-1.666 3.392-5.418 3.149zm-3.827-4.415 3.128-5.454 3.37-1.677.242 3.777-3.128 5.453z" fill-rule="evenodd"/></svg>