<svg xmlns="http://www.w3.org/2000/svg" width="17" height="16" viewBox="0 0 17 16"><path d="M9 0C4.585 0 1 3.181 1 7.1v.024c0 1.537.551 2.961 1.489 4.124L0 15.113 1 16l4.727-2.397c1 .399 2.107.62 3.273.62 4.415 0 8-3.182 8-7.1v-.024C17 3.181 13.415 0 9 0zM4.33 5.227c0-.61.498-1.106 1.114-1.106a1.11 1.11 0 0 1 1.114 1.106 1.11 1.11 0 0 1-1.114 1.106A1.11 1.11 0 0 1 4.33 5.227zm4.36 5.466c-3.336 0-4.585-1.57-4.585-1.57l.31-1.144S5.678 9.09 8.69 9.09c3.011 0 4.274-1.111 4.274-1.111l.345 1.154c0 .001-1.284 1.56-4.62 1.56zm3.83-4.326c-.636 0-1.15-.51-1.15-1.14 0-.63.515-1.14 1.15-1.14.634 0 1.149.51 1.149 1.14 0 .63-.515 1.14-1.15 1.14z"/></svg>