<svg width="18" height="14" viewBox="0 0 18 14" xmlns="http://www.w3.org/2000/svg"><path d="M5.496 4.541c0 .318.046.625.132.916a2.995 2.995 0 0 1-.357.025c-1.565-.002-2.83-1.229-2.83-2.74C2.441 1.232 3.706 0 5.271 0a2.84 2.84 0 0 1 2.456 1.39c-1.304.49-2.231 1.717-2.231 3.151zM12.505 4.541c0 .318-.047.625-.133.916.117.014.235.025.357.025 1.565-.002 2.83-1.229 2.83-2.74 0-1.51-1.265-2.742-2.83-2.742a2.84 2.84 0 0 0-2.455 1.39c1.303.49 2.23 1.717 2.23 3.151z"/><path d="M11.842 4.54c0 1.513-1.265 2.739-2.83 2.741-1.563-.002-2.826-1.228-2.826-2.74 0-1.51 1.263-2.74 2.826-2.742 1.565 0 2.83 1.232 2.83 2.742zM3.745 11.474V14h10.538v-2.526c0-1.896-1.602-3.447-3.561-3.447H7.306c-1.959 0-3.56 1.551-3.56 3.447z"/><path d="M12.034 6.227h2.405C16.397 6.227 18 7.779 18 9.675V12.2h-3.055v-.728c0-2.203-1.811-4-4.067-4.08a3.465 3.465 0 0 0 1.156-1.166zM5.966 6.227H3.56C1.603 6.227 0 7.779 0 9.675V12.2h3.054v-.728c0-2.203 1.812-4 4.068-4.08a3.465 3.465 0 0 1-1.156-1.166z"/></svg>
