<svg xmlns="http://www.w3.org/2000/svg" width="18" height="14" viewBox="0 0 18 14"><path d="M9 14c-.216-.088-.215-.088-.429-.178-.47-.203-.935-.414-1.392-.644-1.295-.65-2.53-1.428-3.622-2.37a12.702 12.702 0 0 1-1.142-1.109 11.141 11.141 0 0 1-.798-.984 10.077 10.077 0 0 1-.495-.755 8.507 8.507 0 0 1-.94-2.243 5.488 5.488 0 0 1-.18-1.194 4.34 4.34 0 0 1 .405-1.966A4.403 4.403 0 0 1 1.904.8 4.603 4.603 0 0 1 2.96.263C4.408-.26 6.1.023 7.336.907c.397.284.746.631 1.021 1.028.31.45.518.953.633 1.482l.01.054V3.5v-.03a4.141 4.141 0 0 1 .596-1.446c.27-.405.612-.762 1.006-1.056a4.945 4.945 0 0 1 2.643-.961 4.547 4.547 0 0 1 3.86 1.749A4.315 4.315 0 0 1 18 4.47c-.008.425-.082.85-.186 1.262a8.446 8.446 0 0 1-.881 2.133c-.16.278-.334.547-.52.809-.232.325-.483.638-.749.937-.331.373-.687.725-1.061 1.058-1.102.979-2.359 1.785-3.68 2.458A25.528 25.528 0 0 1 9 14zm0-1.429c1.485-.637 2.915-1.429 4.172-2.433.952-.762 1.807-1.655 2.445-2.685a7.29 7.29 0 0 0 .885-2.035c.075-.297.135-.603.146-.91a3.033 3.033 0 0 0-.975-2.35 3.203 3.203 0 0 0-2.289-.843 3.575 3.575 0 0 0-1.678.507c-.29.174-.555.39-.772.645a2.743 2.743 0 0 0-.599 1.226l-.018.094c-.022.082-.025.103-.057.183a1.336 1.336 0 0 1-.557.65 1.393 1.393 0 0 1-1.486-.052 1.32 1.32 0 0 1-.508-.686c-.029-.092-.039-.185-.06-.278a2.765 2.765 0 0 0-.576-1.147A3.163 3.163 0 0 0 5.95 1.63a3.48 3.48 0 0 0-2.083-.255 3.188 3.188 0 0 0-1.533.777 3.085 3.085 0 0 0-.667.884 3.058 3.058 0 0 0-.282 1.82c.026.185.063.369.109.55a7.09 7.09 0 0 0 .707 1.741c.141.251.296.495.462.731.211.3.44.59.685.865.28.316.581.616.896.9.87.783 1.849 1.445 2.877 2.013A21.729 21.729 0 0 0 9 12.57zm1.34-8.918c.016-.074.01-.075.01-.15-.003.075-.001.075-.01.15zm-2.68-.005L7.653 3.6l-.004-.096v.098l.01.045z"/></svg>