<svg width="16" height="16" viewBox="0 0 16 16" xmlns="http://www.w3.org/2000/svg"><path fill-rule="evenodd" clip-rule="evenodd" d="M11.102 11.041c-.696 1.242-1.593 2.246-2.594 2.905-.661.435-1.577.72-2.23.679-.392-.025-.92-.194-1.156-.502-.194-.255-.356-.667-.433-1.104a.762.762 0 0 0-.037-.131l5.25-5.193c-.218 1.002-.76 2.364-2.106 3.242a.68.68 0 0 0-.198.95.696.696 0 0 0 .96.194c2.879-1.877 2.886-5.316 2.877-5.679v-.036c0-.063-.003-.121-.004-.182l.954-.943c.172 1.783-.26 3.974-1.283 5.8zm-4.476-5.39c.233-.91.812-1.56 1.442-1.616.592-.052 1.039.067 1.368.367.11.102.206.226.289.367L6.926 7.535c-.378-.365-.502-1.091-.3-1.883zM15.675.437a1.118 1.118 0 0 0-1.569 0l-1.493 1.477a4.139 4.139 0 0 0-.335-.378C10.858.145 8.407-.38 6.449.29 5.252.696 3.178 1.9 2.735 5.377a.687.687 0 0 0 .602.765.69.69 0 0 0 .774-.594c.349-2.74 1.898-3.659 2.79-3.963 1.462-.5 3.353-.101 4.4.924.116.115.221.246.32.386l-.9.888a2.817 2.817 0 0 0-.345-.387c-.614-.563-1.457-.815-2.433-.727-1.234.11-2.279 1.149-2.661 2.648-.326 1.278-.066 2.477.662 3.19L.325 14.064a1.088 1.088 0 0 0 0 1.551c.217.215.5.322.784.322.285 0 .568-.107.785-.322l1.627-1.61c.127.36.295.683.494.945.535.7 1.473.999 2.171 1.044.072.004.145.007.218.007.918 0 2.019-.35 2.872-.913 1.186-.78 2.236-1.948 3.039-3.38 1.391-2.483 1.816-5.42 1.28-7.663l2.08-2.057a1.088 1.088 0 0 0 0-1.55z" /></svg>
