<svg width="18" height="14" viewBox="0 0 18 14" xmlns="http://www.w3.org/2000/svg"><path fill-rule="evenodd" clip-rule="evenodd" d="M17.453 2.88c-.136-.446-.572-.547-1.02-.563l-4.272-.141A6.716 6.716 0 0 0 7.207 0C3.497.005.5 2.994.5 6.66c0 .262.019.519.048.774L16.93 3.94c.35-.105.7-.487.524-1.06zm-6.432 7.16a1.06 1.06 0 0 1-1.065-1.056 1.06 1.06 0 0 1 1.065-1.054 1.06 1.06 0 0 1 1.065 1.054 1.06 1.06 0 0 1-1.065 1.056zm-4.361 0a1.06 1.06 0 0 1-1.065-1.056A1.06 1.06 0 0 1 6.66 7.93c.589 0 1.065.472 1.065 1.054A1.06 1.06 0 0 1 6.66 10.04zM.549 8.12c.387 3.306 3.213 5.876 6.658 5.88 3.715-.005 6.717-2.983 6.717-6.654 0-.604-.089-1.446-.242-2.003L.55 8.12z" /></svg>
