<svg xmlns="http://www.w3.org/2000/svg" width="16" height="16" viewBox="0 0 16 16"><path d="M7.99 15.972h-.006a7.929 7.929 0 0 1-5.688-2.385A7.938 7.938 0 0 1 0 7.99a7.91 7.91 0 0 1 2.314-5.616A7.909 7.909 0 0 1 7.992 0a7.91 7.91 0 0 1 5.68 2.376 7.958 7.958 0 0 1 2.303 5.595v.019c0 2.101-.81 4.088-2.287 5.596a7.961 7.961 0 0 1-5.697 2.386zM5.468 12.02c.501 1.457 1.251 2.423 2.022 2.724v-3.188a6.718 6.718 0 0 0-2.022.464zm3.154-.455v3.117c.722-.355 1.416-1.293 1.886-2.665l-.095-.034a6.688 6.688 0 0 0-1.79-.418zm2.901.947a7.901 7.901 0 0 1-.906 1.807 6.788 6.788 0 0 0 1.838-1.132 6.968 6.968 0 0 0-.932-.675zm-7.996.677c.553.477 1.17.857 1.832 1.13a7.821 7.821 0 0 1-.905-1.8 7.092 7.092 0 0 0-.927.67zM1.154 8.542a6.79 6.79 0 0 0 1.574 3.84c.424-.372.89-.7 1.39-.977a14.102 14.102 0 0 1-.388-2.863H1.154zm10.705 2.856c.493.272.96.602 1.393.983a6.849 6.849 0 0 0 1.568-3.839h-2.577a13.865 13.865 0 0 1-.384 2.856zm-3.238-.97a7.83 7.83 0 0 1 2.19.495l.004.004c.16-.719.265-1.518.296-2.385h-2.49v1.886zM4.864 8.542c.03.867.136 1.665.296 2.384l.007-.003a7.889 7.889 0 0 1 2.322-.504V8.542H4.864zm7.38-1.133h2.574a6.824 6.824 0 0 0-1.581-3.83 7.96 7.96 0 0 1-1.383.97c.218.873.353 1.836.39 2.86zm-3.623 0h2.488a13.205 13.205 0 0 0-.298-2.379l-.013.006a7.999 7.999 0 0 1-2.177.486v1.887zm-3.756 0h2.624V5.53a8.09 8.09 0 0 1-2.311-.495c-.005 0-.01-.003-.014-.004a13.084 13.084 0 0 0-.3 2.377zm-3.708 0H3.73c.038-1.024.174-1.988.392-2.862a7.97 7.97 0 0 1-1.38-.968 6.764 6.764 0 0 0-1.586 3.83zm4.316-3.473l.1.04a6.984 6.984 0 0 0 1.915.42V1.231c-.766.297-1.514 1.259-2.015 2.705zm3.148-2.645v3.094a6.83 6.83 0 0 0 1.88-.45c-.471-1.36-1.161-2.291-1.88-2.644zm1.993.36c.347.501.651 1.105.9 1.787.324-.195.633-.417.923-.665a6.8 6.8 0 0 0-1.823-1.122zM3.542 2.774c.286.244.594.466.918.662.248-.68.55-1.28.898-1.782a6.767 6.767 0 0 0-1.816 1.12z"/></svg>