<svg width="16" height="12" viewBox="0 0 16 12" xmlns="http://www.w3.org/2000/svg">
<path d="M16.0008 0H3C3 1.50367 2.9965 0.295327 3 1.92485L16.0008 1.9993C16.0004 0.902838 15.9999 1.11517 16.0008 0Z"/>
<path d="M2.0049 1.00018C2.00377 0.73549 1.89772 0.48205 1.71 0.29542C1.32011 -0.09216 0.69039 -0.09216 0.3005 0.29542C0.11275 0.48205 0.00669025 0.73549 0.00560025 1.00018C-0.00186675 1.06494 -0.00186675 1.13035 0.00560025 1.19511C0.0169102 1.26024 0.0353401 1.32394 0.0605801 1.38504C0.0874101 1.44424 0.11918 1.5011 0.15555 1.55498C0.19144 1.61103 0.23333 1.66298 0.2805 1.70993C0.32599 1.75523 0.37625 1.79546 0.43045 1.82989C0.48309 1.86822 0.54016 1.90011 0.60039 1.92485C0.66665 1.95922 0.73728 1.98446 0.81032 1.99983C0.87508 2.00707 0.94049 2.00707 1.00525 1.99983C1.26922 2.00005 1.52257 1.89583 1.71 1.70993C1.75717 1.66298 1.79906 1.61103 1.83496 1.55498C1.87132 1.5011 1.90309 1.44424 1.92992 1.38504C1.96182 1.32469 1.98697 1.26099 2.0049 1.19511C2.01236 1.13035 2.01236 1.06494 2.0049 1.00018Z"/>
<path d="M2.00479 5.49806C2.01223 5.43331 2.01223 5.36789 2.00479 5.30313C1.98752 5.23863 1.96234 5.17652 1.92982 5.1182C1.90408 5.05688 1.87224 4.99828 1.83485 4.94326C1.80021 4.88785 1.75816 4.8374 1.7099 4.79332C1.32 4.40574 0.69028 4.40574 0.30039 4.79332C0.11264 4.97994 0.0065901 5.23338 0.0054901 5.49806C0.0074301 5.6298 0.0328299 5.7601 0.0804699 5.88293C0.10552 5.94206 0.13564 5.99892 0.17044 6.05287C0.20845 6.10719 0.252 6.15745 0.30039 6.20281C0.34456 6.25098 0.39498 6.29303 0.45034 6.32777C0.50297 6.36613 0.56002 6.39802 0.62028 6.42273C0.68122 6.44838 0.74498 6.46684 0.81021 6.47771C0.87416 6.49205 0.9396 6.49877 1.00514 6.49771C1.0699 6.50517 1.13532 6.50517 1.20007 6.49771C1.26368 6.4868 1.32578 6.46834 1.38501 6.44273C1.44689 6.41817 1.50562 6.38628 1.55995 6.34776C1.6153 6.31302 1.66572 6.27098 1.7099 6.22281C1.75807 6.17863 1.80011 6.12821 1.83485 6.07286C1.87328 6.02025 1.90517 5.96321 1.92982 5.90292C1.96396 5.83657 1.98917 5.76597 2.00479 5.69299C2.01248 5.62824 2.01248 5.56282 2.00479 5.49806Z"/>
<path d="M2.00497 9.9965C2.01238 9.9317 2.01238 9.8663 2.00497 9.8016C1.9877 9.7355 1.96252 9.6717 1.93 9.6116C1.90317 9.5524 1.8714 9.4956 1.83503 9.4417C1.8003 9.3863 1.75825 9.3359 1.71008 9.2917C1.32018 8.9042 0.69047 8.9042 0.30057 9.2917C0.2524 9.3359 0.21035 9.3863 0.17562 9.4417C0.13925 9.4956 0.10748 9.5524 0.0806501 9.6116C0.0547201 9.6725 0.0362603 9.7363 0.0256703 9.8016C0.0115803 9.8656 0.00490036 9.931 0.00568036 9.9965C0.00680036 10.2612 0.11286 10.5146 0.30057 10.7013C0.34475 10.7494 0.39516 10.7915 0.45052 10.8262C0.50316 10.8646 0.5602 10.8965 0.62046 10.9212C0.68141 10.9468 0.74517 10.9653 0.81039 10.9762C0.87434 10.9905 0.93979 10.9972 1.00533 10.9961C1.07008 11.0036 1.1355 11.0036 1.20026 10.9961C1.26386 10.9852 1.32596 10.9668 1.38519 10.9412C1.44708 10.9166 1.50581 10.8847 1.56013 10.8462C1.61549 10.8115 1.66591 10.7694 1.71008 10.7212C1.75825 10.6771 1.8003 10.6267 1.83503 10.5713C1.87349 10.5187 1.90538 10.4616 1.93 10.4014C1.96411 10.335 1.98932 10.2644 2.00497 10.1914C2.01266 10.1267 2.01266 10.0613 2.00497 9.9965Z"/>
<path d="M16.0008 4.49842H3L3 6.49772H16L16.0008 4.49842Z"/>
<path d="M11.5017 8.9968H3.00464C3.00464 9.66318 2.99841 10.3298 3.00464 10.9961L11.5 11C11.5019 10.503 11.5017 8.9968 11.5017 8.9968Z"/>
</svg>
