<svg width="14" height="14" viewBox="0 0 14 14" xmlns="http://www.w3.org/2000/svg"><path d="M7 0v1.556h-.07a6.859 6.859 0 0 0-.693.054 5.3 5.3 0 0 0-1.535.451 5.514 5.514 0 0 0-2.52 2.403 5.367 5.367 0 0 0-.516 1.44 5.505 5.505 0 0 0-.057 1.858 5.462 5.462 0 0 0 1.589 3.134 5.447 5.447 0 0 0 3.732 1.548 5.508 5.508 0 0 0 2.064-.373A5.543 5.543 0 0 0 11.88 9.42c.249-.5.418-1.035.502-1.587a5.505 5.505 0 0 0-.047-1.929 5.467 5.467 0 0 0-1.486-2.753l1.1-1.097a7.093 7.093 0 0 1 1.286 1.758 7.06 7.06 0 0 1 .698 4.169 7.003 7.003 0 0 1-.623 2.053 6.906 6.906 0 0 1-1.48 2.03 6.88 6.88 0 0 1-2.184 1.416C8.807 13.829 7.905 14 7 14a6.866 6.866 0 0 1-2.645-.521 6.88 6.88 0 0 1-2.183-1.416 6.906 6.906 0 0 1-1.481-2.03 7.003 7.003 0 0 1 .075-6.222A7.012 7.012 0 0 1 5.934.078c.324-.047.65-.07.976-.078H7z" fill-rule="evenodd"/></svg>