<svg xmlns="http://www.w3.org/2000/svg" width="20" height="12" viewBox="0 0 20 12"><path fill-rule="evenodd" d="M4.533 3c.124 0 .243.049.33.137a.464.464 0 0 1 .137.33V11H3.504v1H2v-1H1V6c-.552 0-1-.672-1-1.5S.448 3 1 3h3.533zm14.473 0c.549.005.994.675.994 1.5 0 .828-.448 1.5-1 1.5v5h-1v1h-1.504v-1H15V3.479c0-.127.051-.249.14-.339a.483.483 0 0 1 .339-.14h3.527zM14 11H6V7h8v4zm0-5H6V3.49A1.49 1.49 0 0 0 4.51 2H1v-.521C1 .662 1.662 0 2.479 0h15.036A1.482 1.482 0 0 1 19 1.484V2h-3.536C14.656 2 14 2.656 14 3.464V6z"/></svg>