<svg width="18" height="18" viewBox="0 0 18 18" xmlns="http://www.w3.org/2000/svg"><path d="M8.571 14.015c-.12.238-.233.538-.224.824.001.068.006.143.011.223.03.462.075 1.161-.284 1.898-.22.453-.706.784-1.368.928a3.86 3.86 0 0 1-.83.085c-1.639 0-3.682-.896-5.649-2.509a.62.62 0 0 1-.085-.875.624.624 0 0 1 .877-.085c2.38 1.953 4.36 2.401 5.42 2.169.358-.078.493-.21.514-.256.215-.442.187-.885.161-1.275a2.83 2.83 0 0 1 .202-1.377c-1.579-.441-2.623-1.202-2.698-1.26a.623.623 0 0 1 .745-.995l.004.003c.07.05.95.67 2.258 1.038-.039-.62.03-1.338.597-1.623.269-.136.54-.149.758-.158.246-.011.392-.024.555-.133.122-.082.248-.167-.12-.903l-.036-.072c-.287-.565-1.16-2.284-1.04-4.112a9.195 9.195 0 0 0-.197-2.48c-.246-1.174-.655-2.064-.727-2.222a.622.622 0 0 1 .301-.782.623.623 0 0 1 .835.278c.054.11 1.214 2.466 1.031 5.286-.096 1.486.657 2.972.907 3.466l.002.003.04.08c.211.423.855 1.712-.3 2.49-.46.308-.901.33-1.193.343-.048.001-.11.005-.162.01-.019.115-.024.339.024.77.788.076 1.661.02 2.567-.28a.621.621 0 1 1 .392 1.18 7.486 7.486 0 0 1-3.288.323z"/><path d="M17.198 4.618c.28.134.637.437.74 1.12.229 1.494-.219 4.005-.695 4.58a2.058 2.058 0 0 1-.78.587c-.092 1.008-.429 3.455-1.571 4.899C13.74 17.258 12.352 18 10.813 18c-.54 0-1.1-.093-1.675-.277a.622.622 0 1 1 .383-1.183c1.715.552 3.152.059 4.393-1.507.985-1.244 1.3-3.765 1.338-4.63a.555.555 0 0 1 .26-.46c.095-.062.182-.084.27-.106a.814.814 0 0 0 .501-.311c.23-.325.6-2.452.423-3.601-.023-.15-.06-.196-.06-.196-.06-.015-.298.053-.42.125a.628.628 0 0 1-.625-.002.62.62 0 0 1-.31-.542c.007-1.189-.082-2.099-.197-2.77-.165-.973-.414-1.503-.476-1.635l-.013-.03a.621.621 0 0 1 1.12-.528c.078.129.714 1.273.803 4.146.215-.012.447.018.67.125zM5.572 5.656A1.21 1.21 0 0 0 4.36 6.864h2.424a1.21 1.21 0 0 0-1.212-1.208z"/><path d="M11.178 6.864a1.21 1.21 0 0 1 1.212-1.208c.668 0 1.211.54 1.211 1.208h-2.424z"/></svg>
