<svg width="11" height="18" viewBox="0 0 11 18" xmlns="http://www.w3.org/2000/svg"><path fill-rule="evenodd" clip-rule="evenodd" d="M8.985 0h-6.97C.907 0 0 .882 0 1.958v14.085C0 17.12.907 18 2.015 18h6.97C10.092 18 11 17.12 11 16.043V1.957C11 .882 10.092 0 8.985 0zM1.233 14.116h8.534V2.123H1.233v11.993zm4.267 2.74a.823.823 0 0 1-.835-.812c0-.448.374-.81.835-.81.46 0 .834.362.834.81 0 .45-.373.812-.834.812zm-.863-9.3a.74.74 0 1 0-.739-.741c0 .41.33.741.74.741zm.95-.74a.74.74 0 1 0 1.478 0 .74.74 0 1 0-1.478 0zm-1.9 0a.74.74 0 1 0-1.48-.003.74.74 0 0 0 1.48.002zm-.739 1.8h5.068v-.848H2.948v.847zm5.068-2.542a.74.74 0 1 0 .002 1.48.74.74 0 0 0-.002-1.48zM5.27 6.18h.423v-.424h.422v-.423h-.422v-.424H5.27v.424h-.422v.423h.422v.424z" /></svg>
