<svg width="17" height="18" viewBox="0 0 17 18" xmlns="http://www.w3.org/2000/svg"><path d="M10.652 11.222l-.184-.029h-.981v2.923H1.198V2.122h8.29v3.183c.122.026.248.039.373.038.286.003.568-.06.825-.185V1.956A1.961 1.961 0 0 0 8.729 0H1.961A1.966 1.966 0 0 0 0 1.956v14.088A1.966 1.966 0 0 0 1.96 18h6.77a1.961 1.961 0 0 0 1.956-1.956v-4.818l-.034-.004zm-5.319 5.632a.81.81 0 1 1 0-1.62.81.81 0 0 1 0 1.62z" /><path d="M13.551 5.457l-.07-.029-.129-.042-.166-.033a3.75 3.75 0 0 0-.587-.034 2.435 2.435 0 0 0-.843.171c-.597.232-.99.616-1.895.616-.904 0-1.297-.384-1.894-.616a2.435 2.435 0 0 0-.843-.17 3.79 3.79 0 0 0-.588.033l-.165.033-.133.042-.066.029c-2.193.89-4.069 6.958-1.696 7.579 1.757.45 1.748-2.037 4.424-2.53l.27-.038a1.26 1.26 0 0 1 .137 0h1.241l.27.038c2.676.474 2.667 2.98 4.424 2.53 2.378-.62.512-6.689-1.69-7.58zM6.92 9.043a.975.975 0 1 1 .947-.976.947.947 0 0 1-.947.976zm5.888 0a.975.975 0 1 1-.058-1.95.975.975 0 0 1 .058 1.95z" /></svg>
