<svg width="15" height="24" viewBox="0 0 15 24" xmlns="http://www.w3.org/2000/svg"><path fill-rule="evenodd" clip-rule="evenodd" d="M2.604 0h9.036a2.616 2.616 0 0 1 2.604 2.604v18.792A2.616 2.616 0 0 1 11.64 24H2.604A2.616 2.616 0 0 1 0 21.396V2.604A2.616 2.616 0 0 1 2.604 0zm3.444 21.396c0 .596.484 1.08 1.08 1.08a1.092 1.092 0 0 0 1.08-1.08 1.08 1.08 0 1 0-2.16 0zm6.6-2.58H1.596V2.832h11.052v15.984zM11.4 14.808H7.008v-4.356H2.616V6.06h4.392v4.356H11.4v4.392zm-1.272-3.156h-1.92l.036 1.92h1.884v-1.92zm-4.392-2.4H3.852V7.296h1.92l-.036 1.956zm2.508-1.956h1.92v1.908h-1.92V7.296zm-2.472 4.356h-1.92v1.908h1.92v-1.908z"/></svg>