<svg width="18" height="14" viewBox="0 0 18 14" xmlns="http://www.w3.org/2000/svg"><path fill-rule="evenodd" clip-rule="evenodd" d="M9 0C6.017 0 3.6 2.29 3.6 5.118 3.6 9.45 9 14 9 14s5.4-4.55 5.4-8.882C14.4 2.291 11.982 0 9 0zM3.605 8.235c-.113.029-.228.05-.349.05-.744 0-1.348-.572-1.348-1.276 0-.636.494-1.159 1.137-1.255l-.002-.043c-.005-.083-.009-.166-.009-.248 0-.687.128-1.346.352-1.963C1.487 3.663 0 5.17 0 7.009c0 2.983 3.726 6.116 3.726 6.116s.81-.685 1.674-1.713c-.699-.957-1.352-2.039-1.795-3.177zm11.361-2.772c0-.687-.128-1.347-.352-1.963C16.512 3.663 18 5.17 18 7.01c0 2.983-3.726 6.115-3.726 6.115s-.81-.684-1.674-1.713c.699-.956 1.352-2.038 1.796-3.176.111.028.226.048.347.048.745 0 1.349-.57 1.349-1.275 0-.636-.493-1.159-1.137-1.256l.003-.064c.004-.075.008-.15.008-.226zM9 6.97c-1.079 0-1.954-.83-1.954-1.853 0-1.022.875-1.852 1.954-1.852s1.954.83 1.954 1.852c0 1.024-.875 1.853-1.954 1.853z" /></svg>
