<svg width="20" height="11" viewBox="0 0 20 11" xmlns="http://www.w3.org/2000/svg"><path fill-rule="evenodd" clip-rule="evenodd" d="M2.54 1.037h11.006V4.09h.584V.957A.958.958 0 0 0 13.175 0H2.911a.958.958 0 0 0-.955.957v2.256h.584V1.037zm8.795 8.844h-.002c-1.053 0-1.185-1.057-1.185-1.057H7.249s-.132 1.057-1.185 1.057a.197.197 0 0 0 0 .395h5.271a.198.198 0 0 0 0-.395zM.47 9.473h3.252V4.756H.47v4.717zm1.626 1.077a.318.318 0 1 1 .318-.319.318.318 0 0 1-.318.319zm1.328-6.628H.768a.77.77 0 0 0-.768.77v5.538c0 .425.345.77.768.77h2.656a.77.77 0 0 0 .768-.77V4.692a.77.77 0 0 0-.768-.77zm7.871 4.375H4.891V6.863h6.404v1.434zm7.937-4.375h-6.726a.771.771 0 0 0-.768.77v4.662c0 .424.346.77.768.77h6.726a.77.77 0 0 0 .768-.77V4.692a.771.771 0 0 0-.768-.77zm-6.89 4.925h7.053V4.683h-7.052v4.164zm3.527.958a.318.318 0 1 1 0-.637.318.318 0 0 1 0 .637z" /></svg>
