<svg xmlns="http://www.w3.org/2000/svg" width="24" height="24" viewBox="0 0 24 24"><path d="M7 22c-1.33 0-2.59-.52-3.53-1.47C2.52 19.59 2 18.33 2 17c0-1.33.52-2.59 1.47-3.53l2.59-2.59.71.71-2.59 2.59c-.76.76-1.17 1.76-1.17 2.83s.42 2.07 1.17 2.83c.76.76 1.76 1.17 2.83 1.17s2.07-.42 2.83-1.17l2.59-2.59.71.71-2.59 2.59c-.94.95-2.2 1.47-3.53 1.47L7 22Z"/><path d="M15.642 7.651 7.645 15.65l.707.707 7.997-7.998-.707-.707Z"/><path d="m17.95 13.12-.71-.71 2.59-2.59C20.59 9.06 21 8.06 21 6.99s-.42-2.07-1.17-2.83A3.962 3.962 0 0 0 17 2.99c-1.07 0-2.07.42-2.83 1.17l-2.59 2.59-.71-.71 2.59-2.59c.94-.95 2.2-1.47 3.53-1.47 1.33 0 2.59.52 3.53 1.47.95.94 1.47 2.2 1.47 3.53 0 1.33-.52 2.59-1.47 3.53l-2.59 2.59.02.02Z"/></svg>
