<svg xmlns="http://www.w3.org/2000/svg" width="24" height="24" viewBox="0 0 24 24"><path d="m17.78 2-.1.37c-.15.52-.63.88-1.18.88-.55 0-1.03-.36-1.18-.88l-.1-.37H11v8.5H7.64c-1.2 0-2.3.6-2.95 1.61l-3.12 4.87.84.54 3.12-4.87c.46-.72 1.25-1.15 2.11-1.15H11v1.79L9.29 15H7v1h2.71l2.84-2.84c.23-.23.65-.19.83.08.1.15.12.34.04.51l-1.89 4.41a2.5 2.5 0 0 1-1.37 1.34l-3.85 1.54.37.93 3.85-1.54c.87-.35 1.55-1.01 1.92-1.87l.67-1.55h2.1l.1-.37c.15-.52.63-.88 1.18-.88.55 0 1.03.36 1.18.88l.1.37H22V2h-4.22Zm.72 14a2.238 2.238 0 0 0-2-1.25c-.86 0-1.64.5-2 1.25h-.95l.8-1.86c.2-.48.16-1.02-.13-1.45-.47-.71-1.54-.86-2.21-.36V3h2.5c.37.75 1.14 1.25 2 1.25.86 0 1.64-.5 2-1.25h2.5v13H18.5Z"/><path d="M19 7h-6v1h6V7ZM17 9h-4v1h4V9Z"/></svg>
