<svg xmlns="http://www.w3.org/2000/svg" width="24" height="24" viewBox="0 0 24 24"><path d="M12 2C6.48 2 2 6.48 2 12s4.48 10 10 10 10-4.48 10-10S17.52 2 12 2Zm0 19c-4.96 0-9-4.04-9-9s4.04-9 9-9 9 4.04 9 9-4.04 9-9 9Z"/><path d="M12 13c1.93 0 3.5-1.57 3.5-3.5S13.93 6 12 6 8.5 7.57 8.5 9.5 10.07 13 12 13Zm0-6a2.5 2.5 0 0 1 0 5 2.5 2.5 0 0 1 0-5ZM17.23 15.53a3.482 3.482 0 0 0-2.47-1.03H9.24c-.92 0-1.82.37-2.47 1.03l-1.21 1.21c.2.27.42.52.65.76l1.26-1.27c.47-.46 1.11-.73 1.77-.73h5.52c.66 0 1.3.27 1.77.73l1.26 1.27c.23-.24.45-.49.65-.76l-1.21-1.21Z"/></svg>
