<svg xmlns="http://www.w3.org/2000/svg" width="24" height="24" viewBox="0 0 24 24"><path d="m22.1 12.1-.44-.79c-.18-.32-.23-.69-.15-1.04l.2-.89c.25-1.08-.26-2.2-1.24-2.73l-.8-.43c-.32-.17-.56-.45-.69-.8l-.31-.86a2.492 2.492 0 0 0-2.52-1.62l-.91.07c-.36.03-.72-.08-1.01-.3l-.72-.55a2.49 2.49 0 0 0-3 0l-.72.55c-.29.22-.65.32-1.01.3l-.91-.07a2.48 2.48 0 0 0-2.52 1.62l-.31.86c-.12.34-.37.63-.69.8l-.8.43c-.98.52-1.49 1.64-1.24 2.73l.2.89c.08.36.03.73-.15 1.04l-.44.8c-.54.97-.37 2.19.43 2.97l.65.64c.26.25.42.59.44.96l.06.91c.07 1.11.88 2.04 1.96 2.26l.89.19c.36.07.67.28.88.57l.54.73c.48.65 1.22 1.01 2 1.01.29 0 .59-.05.88-.16l.85-.33c.34-.13.71-.13 1.05 0l.85.33c1.04.4 2.22.05 2.88-.84l.54-.73c.21-.29.53-.5.88-.57l.89-.19a2.467 2.467 0 0 0 1.96-2.26l.06-.91c.02-.36.18-.7.44-.96l.65-.64c.79-.78.97-2 .43-2.97l-.03-.02Zm-1.13 2.25-.65.64c-.44.43-.7 1-.74 1.61l-.06.91c-.04.66-.52 1.21-1.17 1.35l-.89.19c-.6.12-1.13.46-1.49.96l-.54.73c-.39.53-1.1.74-1.71.5l-.85-.33c-.57-.22-1.2-.22-1.77 0l-.85.33c-.61.24-1.32.03-1.71-.5L8 20.01c-.36-.49-.89-.83-1.49-.96l-.89-.19c-.65-.13-1.13-.69-1.17-1.35l-.06-.91c-.04-.61-.3-1.18-.74-1.61L3 14.35c-.47-.46-.58-1.19-.25-1.77l.44-.79c.3-.53.39-1.16.25-1.75l-.2-.89c-.15-.64.16-1.31.74-1.62l.8-.43c.54-.29.95-.76 1.16-1.34l.31-.86c.21-.58.77-.97 1.38-.97h.12l.91.07c.6.05 1.21-.13 1.7-.5l.72-.55c.53-.4 1.26-.4 1.78 0l.72.55c.49.37 1.09.55 1.7.5l.91-.07c.65-.05 1.27.34 1.5.96l.31.86c.21.58.62 1.05 1.16 1.34l.8.43c.58.31.89.98.74 1.62l-.2.89c-.14.6-.05 1.22.25 1.75l.44.79c.32.58.22 1.3-.25 1.77l.03.01Z"/><path d="M14.652 8.641 8.65 14.645l.707.707 6.003-6.004-.707-.707ZM10.23 10.23a.996.996 0 1 0-1.41-1.41.996.996 0 1 0 1.41 1.41ZM14.47 15.47a1 1 0 1 0 0-2 1 1 0 0 0 0 2Z"/></svg>
