<svg width="24" height="24" viewBox="0 0 24 24" fill="none" xmlns="http://www.w3.org/2000/svg">
<path d="M23.5055 6.62957C23.2288 5.60143 22.4182 4.79101 21.3903 4.51416C19.5122 4.00018 11.9998 4.00018 11.9998 4.00018C11.9998 4.00018 4.48753 4.00018 2.60943 4.49457C1.60125 4.77124 0.770871 5.60162 0.4942 6.62957C0 8.50749 0 12.4021 0 12.4021C0 12.4021 0 16.3164 0.4942 18.1747C0.771054 19.2026 1.58148 20.0132 2.60961 20.2901C4.50731 20.8041 12 20.8041 12 20.8041C12 20.8041 19.5122 20.8041 21.3903 20.3097C22.4184 20.033 23.2288 19.2224 23.5057 18.1945C23.9999 16.3164 23.9999 12.4219 23.9999 12.4219C23.9999 12.4219 24.0197 8.50749 23.5055 6.62957Z" fill="#FF0000"/>
<path d="M9.60785 15.9999L15.8549 12.4019L9.60785 8.80385V15.9999Z" fill="white"/>
</svg>
