<svg width="20" height="16" viewBox="0 0 20 16" xmlns="http://www.w3.org/2000/svg">
<path d="M3 13.51H11C11.2652 13.51 11.5196 13.4046 11.7071 13.2171C11.8946 13.0296 12 12.7752 12 12.51V7.84C12 7.57478 11.8946 7.32043 11.7071 7.13289C11.5196 6.94536 11.2652 6.84 11 6.84H8.68C8.68 6.51 8.68 6.18 8.68 5.84C8.68475 5.77008 8.68475 5.69992 8.68 5.63C8.61714 5.45459 8.48784 5.31093 8.32 5.23C8.21883 5.18742 8.10972 5.16696 8 5.17C7.33 5.17 6.67 5.17 6 5.17H5.79C5.61459 5.23286 5.47093 5.36216 5.39 5.53C5.35158 5.61188 5.32788 5.69989 5.32 5.79C5.32 6.13 5.32 6.47 5.32 6.79H3C2.73478 6.79 2.48043 6.89536 2.29289 7.08289C2.10536 7.27043 2 7.52478 2 7.79V12.46C1.99322 12.5955 2.01407 12.7309 2.06128 12.8581C2.10848 12.9852 2.18107 13.1014 2.27461 13.1997C2.36815 13.2979 2.4807 13.376 2.6054 13.4294C2.73011 13.4827 2.86436 13.5102 3 13.51ZM6.17 6H7.83V6.83H6.17V6Z"/>
<path d="M16.37 1.61H15.62V3.21H16.37V1.61Z"/>
<path d="M20 3.99906C19.9998 3.24008 19.7837 2.49681 19.3769 1.85605C18.9701 1.2153 18.3894 0.703505 17.7026 0.380445C17.0158 0.0573856 16.2513 -0.0636082 15.4983 0.0315946C14.7453 0.126797 14.0349 0.434267 13.4501 0.918095C12.8653 1.40192 12.4303 2.04214 12.1958 2.76398C11.9612 3.48582 11.9369 4.25949 12.1256 4.99464C12.3144 5.72978 12.7084 6.39606 13.2616 6.91567C13.8148 7.43527 14.5045 7.78675 15.25 7.92906V14.4791H0V15.9991H16.75V7.99906C17.6763 7.82239 18.5104 7.32414 19.1051 6.59225C19.6997 5.86037 20.0167 4.94192 20 3.99906ZM13.05 4.51906C13.0182 4.34751 13.0015 4.17352 13 3.99906C13 3.20341 13.3161 2.44035 13.8787 1.87774C14.4413 1.31513 15.2044 0.999061 16 0.999061C16.7956 0.999061 17.5587 1.31513 18.1213 1.87774C18.6839 2.44035 19 3.20341 19 3.99906C18.9952 4.17381 18.9751 4.34781 18.94 4.51906H16.72L18.44 3.33906L18 2.72906L15.38 4.52906L13.05 4.51906Z"/>
<path d="M13.9428 2.74162L13.5185 3.36008L14.7884 4.23124L15.2127 3.61278L13.9428 2.74162Z"/>
</svg>
