<svg xmlns="http://www.w3.org/2000/svg" width="13" height="19" viewBox="0 0 13 19"><path fill-rule="evenodd" d="M11.05 19H0V0h11.05C12.126 0 13 .893 13 1.995v15.01C13 18.107 12.126 19 11.05 19zm-8.264-2.85h7.428v-1.9H2.786v1.9zM6.596 3.8c.157.01.313.019.47.048.39.057.772.18 1.124.37a3.799 3.799 0 0 1 1.966 2.708c.072.417.078.836.016 1.253a3.78 3.78 0 0 1-.324 1.065 3.697 3.697 0 0 1-.786 1.101c-.324.323-.704.58-1.117.76-.456.19-.95.295-1.445.295-.495 0-.989-.105-1.445-.295a3.654 3.654 0 0 1-1.117-.76 3.697 3.697 0 0 1-.786-1.101 3.78 3.78 0 0 1-.324-1.065 3.92 3.92 0 0 1 .016-1.253A3.799 3.799 0 0 1 4.81 4.219a3.38 3.38 0 0 1 1.125-.371c.156-.029.312-.038.47-.048h.19zm.386 4.275c.029.38.094.75.199 1.112.103.36.246.702.432 1.026-.01.009-.02.009-.03.009a2.672 2.672 0 0 1-1.083.228c-.371 0-.741-.076-1.084-.228-.009 0-.02 0-.03-.01.014-.018.026-.047.039-.066.156-.285.28-.58.374-.893.117-.38.188-.779.22-1.178h.963zm2.266 0a2.831 2.831 0 0 1-.237.76 2.805 2.805 0 0 1-.62.855c-.015-.029-.031-.057-.045-.086a3.627 3.627 0 0 1-.322-.864 4.51 4.51 0 0 1-.11-.665h1.334zm-4.161 0A4.446 4.446 0 0 1 4.86 9.13c-.068.199-.151.38-.252.56l-.03-.029a2.805 2.805 0 0 1-.59-.826 2.831 2.831 0 0 1-.237-.76h1.335zM4.609 5.51a2.901 2.901 0 0 0-.857 1.615h1.334a4.673 4.673 0 0 0-.126-.732 3.71 3.71 0 0 0-.343-.873c-.003 0-.005-.01-.008-.01zm3.002-.523a2.899 2.899 0 0 0-.686-.209l-.353-.028h-.144l-.353.028a2.899 2.899 0 0 0-.686.21c.15.256.272.541.368.826.142.418.227.864.261 1.311h.964c.036-.466.127-.931.283-1.378a4.18 4.18 0 0 1 .346-.76zm.78.523a4.093 4.093 0 0 0-.477 1.615h1.334l-.006-.028a2.9 2.9 0 0 0-.85-1.587z"/></svg>