<svg width="8" height="22" viewBox="0 0 8 22" xmlns="http://www.w3.org/2000/svg"><path d="M5.333 1.998c0 1.102-.944 1.994-2.113 1.996-1.166-.002-2.109-.894-2.109-1.996C1.111.898 2.054 0 3.221 0c1.168 0 2.112.899 2.112 1.998zM.794 9.134A3.477 3.477 0 0 1 .66 7.425c.084-.535.422-1.646.999-2.275.394-.432.892-.614 1.563-.614.078 0 .154.005.228.011 1.122.097 1.929.915 2.026 2.121.013.156.038.407.07.726C6.974 7.873 8 9.16 8 10.674c0 1.264-.715 2.365-1.78 2.977l.224 2.004h-2.13v5.313c0 .567-.492 1.032-1.092 1.032-.6 0-1.092-.465-1.092-1.032v-5.313H0l.602-5.563c.567.885 1.52 1.556 2.847 2 .156.05.318.077.483.077.613 0 1.163-.367 1.368-.914.265-.713-.13-1.497-.885-1.748-.802-.27-1.287-.623-1.442-1.056-.097-.27-.092-.6.013-.982a.285.285 0 0 0-.217-.348.324.324 0 0 0-.126-.004.295.295 0 0 0-.243.21c-.135.49-.135.93 0 1.307.218.606.828 1.081 1.814 1.411.44.148.671.605.515 1.021a.843.843 0 0 1-.797.532.878.878 0 0 1-.282-.046C2.144 11.05 1.183 10.237.794 9.134z"/></svg>
