<svg xmlns="http://www.w3.org/2000/svg" width="17" height="16" viewBox="0 0 17 16"><path fill-rule="evenodd" d="M8.054 16c-.377 0-.753-.027-1.126-.08a7.814 7.814 0 0 1-2.188-.622 8.12 8.12 0 0 1-3.813-3.574A7.827 7.827 0 0 1 .164 9.61a8.013 8.013 0 0 1-.1-2.631 7.962 7.962 0 0 1 2.364-4.702A8.184 8.184 0 0 1 4.92.63 8.261 8.261 0 0 1 7.95 0a8.338 8.338 0 0 1 3.056.551 8.317 8.317 0 0 1 2.533 1.591 7.963 7.963 0 0 1 1.773 9.324A8.084 8.084 0 0 1 8.262 16h-.207zm-2.968-2.018l.06.027a6.75 6.75 0 0 0 2.734.658h.233c.294 0 .587-.027.88-.063a6.83 6.83 0 0 0 1.82-.524l.063-.027.064-.035.063-.027.063-.035.062-.027.062-.036.062-.035.061-.027.06-.035.029-.018.033-.018.027-.018.034-.018.026-.017.033-.018.026-.018.034-.018.025-.017.034-.027.024-.009.035-.027.023-.017.035-.018.023-.018.035-.027.021-.009.036-.026.022-.018.036-.027.02-.009.037-.026.019-.018.037-.027.018-.009.039-.035.016-.009.039-.036.015-.008.04-.027.014-.018.041-.027.013-.017.042-.036.01-.009.043-.035.01-.01.044-.035.008-.009.046-.035.006-.01.046-.035.055-.053.05-.044c-.308-1.023-.615-2.036-.912-3.058H4.348c-.3 1.022-.606 2.035-.914 3.058l.047.044h.001l.048.044.048.045c.127.107.258.213.393.32l.01.009.036.026.017.01.033.026.021.018.031.026.023.01.03.026.024.018.03.018.026.017.028.018.026.018.029.018.083.053.029.018.028.026.027.01.03.017.028.018.03.018.027.017.03.018.027.018.03.018.027.018.032.017.027.01.032.017.027.018.032.018.027.017.033.018.026.009.035.018.024.018.04.017.02.01zM8.054 3.556a2.23 2.23 0 0 1 2.236 2.222A2.231 2.231 0 0 1 8.054 8a2.23 2.23 0 0 1-2.237-2.222 2.23 2.23 0 0 1 2.237-2.222z"/></svg>