<svg width="20" height="18" viewBox="0 0 20 18" xmlns="http://www.w3.org/2000/svg"><path fill-rule="evenodd" clip-rule="evenodd" d="M11.374.322A9.284 9.284 0 0 0 8.246.026C7.83.067 7.417.13 7.01.22l-.14.038c-.251.064-.5.129-.744.219a8.683 8.683 0 0 0-1.739.797l-.07.038-.025.013a7.999 7.999 0 0 0-1.075.784c-.21.168-.414.36-.607.553-.018.026-.036.039-.054.065a8.974 8.974 0 0 0-.814.95A8.888 8.888 0 0 0 .25 6.906a8.943 8.943 0 0 0 .048 4.384l.076.27c.251.848.626 1.658 1.112 2.39.02.04.04.065.06.09l.01.014.008.012c.17.245.35.49.542.72.123.142.253.296.387.425l.006.013.013.012h.002c.307.322.636.617.986.887A9.133 9.133 0 0 0 5.92 17.46c.265.09.536.18.81.245.339.09.685.167 1.033.206a8.689 8.689 0 0 0 3.453-.193.36.36 0 0 0 .114-.026c.358-.09.712-.206 1.056-.347a9.026 9.026 0 0 0 2.894-1.903l.084-.077-1.82-1.813a6.465 6.465 0 0 1-6.063 1.697 6.6 6.6 0 0 1-3.52-2.25 6.222 6.222 0 0 1-.498-.732l-.014-.026h-.005c-.04-.077-.08-.141-.119-.219a6.347 6.347 0 0 1-.75-2.866 6.292 6.292 0 0 1 .783-3.227c.114-.219.24-.412.375-.605.194-.282.41-.54.644-.784l.026-.025.013-.013c.04-.052.046-.052.097-.103a6.716 6.716 0 0 1 1.273-.964c.462-.27.955-.476 1.47-.617.071-.026.08-.026.136-.039h.015l.035-.013c.323-.077.65-.128.978-.167h.023c.237-.026.475-.026.713-.026.51.013 1.02.09 1.514.219a7.105 7.105 0 0 1 1.676.72c.414.257.799.553 1.146.887a.2.2 0 0 0 .054.051c.17.18.33.36.48.54.35.437.642.926.866 1.44h-3.32V9h7.713V1.287h-2.571v3.072a9.662 9.662 0 0 0-.889-1.221 5.97 5.97 0 0 0-.461-.501c-.351-.348-.73-.669-1.134-.965a9.24 9.24 0 0 0-2.253-1.17 9.864 9.864 0 0 0-.604-.18Z" /></svg>
