<svg height="17" viewBox="0 0 20 17" width="20" xmlns="http://www.w3.org/2000/svg"><g fill-rule="evenodd"><path d="m11.888 5.583a3.435 3.435 0 0 0 3.301 2.504 3.43 3.43 0 0 0 2.392-.972zm7.433 1.993-2.282 8.544-17.039-4.576 2.282-8.544zm-5.743.963c1.045.284 1.8.864 1.386 2.406-.414 1.541-1.355 1.67-2.401 1.384-1.045-.275-1.792-.883-1.386-2.406.408-1.522 1.356-1.67 2.401-1.384zm-.137.51c.39.108.637.452.327 1.61-.31 1.16-.697 1.346-1.088 1.238-.39-.108-.632-.471-.327-1.61.305-1.15.697-1.346 1.088-1.238zm-4.21-1.679c1.045.285 1.8.864 1.386 2.406-.413 1.542-1.355 1.67-2.4 1.385-1.045-.275-1.793-.874-1.386-2.396.407-1.532 1.356-1.67 2.4-1.395zm-.137.51c.391.109.637.452.327 1.621-.31 1.159-.697 1.336-1.087 1.228-.391-.108-.634-.472-.328-1.61.306-1.15.698-1.336 1.088-1.238zm-3.717 2.525.955-3.575-1.421-.383-.196.736.475.128-.76 2.838zm6.618-6.477h-.035a1.965 1.965 0 0 1 0-3.928c.871 0 1.611.572 1.866 1.36a3.443 3.443 0 0 0 -1.83 2.568z"/><ellipse cx="15.374" cy="4.531" rx="2.541" ry="2.547"/></g></svg>