<svg width="24" height="18" viewBox="0 0 24 18" xmlns="http://www.w3.org/2000/svg"><path d="M4.02477 1.14144C3.79647 0.45658 1.83701 0.09512 0.885799 0C0.0297569 0 -0.0654238 0.57072 0.0297179 2.28288C0.315078 7.4194 6.02229 12.2705 8.59054 12.8412C11.1588 13.4119 13.727 14.268 14.0124 15.4095C14.2977 16.5509 17.4367 17.6924 17.4367 17.1216C17.4367 16.5509 18.8635 15.4095 19.4342 15.9802C20.005 16.5509 20.5757 17.407 21.7171 17.1216C22.8586 16.8363 24 16.8363 24 15.9802C24 15.1241 23.4293 14.268 22.2878 15.1241C21.1464 15.9802 20.2903 15.1241 20.005 14.268C19.7196 13.4119 18.5782 14.5534 17.4367 14.268C16.2953 13.9827 16.866 11.4144 15.4392 10.273C14.0124 9.1315 11.4441 9.9876 10.3027 9.9876C9.16125 9.9876 9.16125 6.56329 9.16125 5.70721C9.16125 4.85113 8.01982 4.56577 6.59302 4.28041C5.16621 3.99505 4.31012 1.99752 4.02477 1.14144Z"/></svg>
