<svg width="20" height="24" viewBox="0 0 20 24" xmlns="http://www.w3.org/2000/svg"><path fill-rule="evenodd" clip-rule="evenodd" d="M14.777 14.92L15.9402 15.4344C16.2237 15.5597 16.4331 15.8031 16.5148 16.1025C16.5965 16.4016 16.5398 16.7177 16.3593 16.9698L16.1204 17.3035L15.912 18.0873C15.8117 18.4645 15.5514 18.7753 15.1978 18.9403C15.1155 18.9788 15.0436 19.0376 14.99 19.1107C14.7226 19.4751 14.2048 20.1801 13.7403 20.8071L13.7395 20.8082C13.2443 21.4769 13.0047 21.8004 12.8659 21.9646C12.8192 22.1075 12.7143 22.5114 12.6308 22.8588L12.586 23.5613C12.5754 23.7264 12.4785 23.8739 12.331 23.949C12.264 23.9833 12.191 24.0002 12.1182 24.0002C12.0308 24.0002 11.9438 23.9758 11.8675 23.9276C11.7645 23.8624 10.8623 23.2666 10.9074 22.4317C10.9225 22.1532 11.0395 21.3672 11.175 20.4569L11.1752 20.4553C11.3183 19.4942 11.5143 18.1779 11.5069 17.936C11.5067 17.9282 11.5062 17.9221 11.5057 17.9177C11.4848 17.9001 11.4394 17.8711 11.4049 17.849H11.4048C11.2436 17.7461 10.9738 17.5738 10.8389 17.1936C10.7975 17.0767 10.7257 16.9694 10.6426 16.8453L10.6424 16.845V16.8449C10.4583 16.5699 10.2063 16.1933 10.278 15.5909C10.3283 15.1687 10.4926 14.9439 10.6014 14.7951L10.6016 14.795C10.6527 14.725 10.6842 14.6818 10.6989 14.62L8.111 13.361C8.0422 13.3275 7.98262 13.2777 7.93748 13.2159L6.58425 11.3626C5.95318 11.1609 5.4969 10.5917 5.44923 9.91806L5.36438 8.71952L4.38194 7.3721C4.1095 7.17677 3.63232 6.88868 3.34521 6.83998C3.14646 6.80604 3.0776 6.91404 3.07704 6.91517C2.99473 7.06526 2.83713 7.15854 2.66599 7.15854H1.5613C1.46413 7.15854 1.3693 7.12831 1.29003 7.07206C1.21972 7.02213 0.603271 6.55132 0.603271 5.39563C0.603271 4.68219 0.798551 4.13971 1.16807 3.82668C1.42752 3.60679 1.76258 3.51782 2.11184 3.57595C2.60445 3.65807 4.04711 3.88644 4.39783 3.9419L5.12828 3.81299L5.31999 3.29113C5.54457 2.67965 6.0173 2.18301 6.61702 1.92834L6.99858 1.76634C7.23678 1.66526 7.51194 1.77631 7.61312 2.01444L10.2501 0.894945C10.25 0.894865 10.25 0.894786 10.25 0.894706C10.1488 0.656395 10.26 0.38124 10.4983 0.280084L10.7317 0.181037C11.2741 -0.0492117 11.8762 -0.0604147 12.4268 0.149491L12.6679 0.241412C12.9513 0.349505 13.1485 0.603801 13.1826 0.905253C13.2167 1.20666 13.0812 1.49859 12.829 1.6672L11.8001 2.35514C11.7506 2.38818 11.7124 2.43478 11.6898 2.48986C11.6366 2.61923 11.6818 2.77064 11.7974 2.84976L13.3328 3.90013C13.5467 4.04647 13.6884 4.26772 13.732 4.52314C13.7756 4.77852 13.7152 5.03417 13.562 5.24309C13.3006 5.59953 12.8176 5.72816 12.4136 5.54919L11.2216 5.02119C11.1025 4.96845 10.9614 5.0173 10.9002 5.13214C10.8455 5.23508 10.7779 5.33145 10.6993 5.41836L10.4154 5.73219C10.2728 5.88978 10.2025 6.0934 10.2175 6.30547C10.2324 6.51753 10.3307 6.7092 10.4939 6.84523C10.5187 6.86576 10.5517 6.87214 10.5822 6.86248L10.7663 6.80384C10.8036 6.79198 10.8298 6.75771 10.8314 6.71862C10.8548 6.16508 11.3073 5.73134 11.8615 5.73134C12.1196 5.73134 12.3649 5.8257 12.5547 5.99693L13.2138 6.59168C13.8885 7.20045 13.9444 8.2466 13.3385 8.92375L11.3512 11.1448C10.9734 11.5671 10.4318 11.7919 9.8664 11.7624C9.8622 11.7621 9.8499 11.7615 9.8379 11.7729C9.8259 11.7842 9.8259 11.7967 9.8259 11.8008C9.8259 11.8094 9.8289 11.8178 9.8343 11.8247L11.2424 13.6108C11.526 13.3531 11.9269 13.2538 12.2973 13.3523C12.952 13.5262 13.5773 13.7932 14.1557 14.1457L14.3521 14.2653C14.5846 14.407 14.7422 14.6505 14.777 14.92ZM12.7502 22.0863C12.7754 22.0646 12.8045 22.0349 12.8412 21.993C12.8192 22.0233 12.7891 22.0563 12.7502 22.0863ZM15.3083 16.8269L15.5971 16.4236C15.6173 16.3955 15.6155 16.3676 15.6105 16.349C15.6055 16.3306 15.5928 16.3056 15.5611 16.2916L14.3789 15.7689C14.0899 15.6411 13.8883 15.3692 13.8491 15.0566L13.668 14.9462C13.1664 14.6406 12.6242 14.4091 12.0565 14.2582C11.9895 14.2405 11.9191 14.259 11.8684 14.3078C11.8109 14.3633 11.7489 14.4269 11.6834 14.4972C11.6735 14.5294 11.6603 14.5609 11.6433 14.5908C11.6263 14.9481 11.4996 15.1548 11.3582 15.3481L11.3581 15.3483C11.2756 15.4611 11.2301 15.5233 11.2089 15.7014C11.1794 15.9493 11.2527 16.0712 11.4215 16.3234L11.4217 16.3237C11.5249 16.4778 11.6417 16.6525 11.7224 16.8799C11.7472 16.9497 11.7799 16.976 11.9093 17.0586C12.0907 17.1743 12.4284 17.39 12.444 17.9074C12.4532 18.211 12.3211 19.1245 12.1025 20.593C12.0353 21.044 11.967 21.5035 11.9171 21.8634C11.9901 21.5995 12.0485 21.4491 12.155 21.3574C12.335 21.1317 13.1307 20.0598 14.2343 18.5557C14.3807 18.3562 14.5768 18.1953 14.8013 18.0904C14.9027 18.0432 14.9773 17.9541 15.006 17.846L15.2364 16.9795C15.2509 16.9247 15.2753 16.873 15.3083 16.8269ZM19.0795 1.49639C18.78 1.01325 18.3099 0.67772 17.7556 0.551533C17.4686 0.486142 17.1767 0.481314 16.8879 0.537095L14.9191 0.917158C14.896 0.921611 14.8732 0.927846 14.851 0.935721L14.0546 1.21885C13.5483 1.39889 13.2081 1.88095 13.2081 2.41833C13.2081 3.01955 13.6181 3.53058 14.205 3.66103C14.3365 3.69028 14.4491 3.78056 14.5062 3.90253L14.8509 4.63875C14.8587 4.65553 14.8578 4.67517 14.8483 4.69121C14.6667 4.99988 14.6656 5.38406 14.8452 5.69396L15.4747 6.77902C15.6042 7.00238 15.845 7.14113 16.1033 7.14113C16.4013 7.14113 16.6736 6.95438 16.7808 6.67692L16.7846 6.66741C17.0246 6.04613 17.4815 5.53336 18.0711 5.22347C18.6195 4.93538 19.0174 4.42481 19.163 3.82261L19.337 3.10238C19.4704 2.54991 19.379 1.97958 19.0795 1.49639Z"/></svg>
