<svg width="18" height="23" viewBox="0 0 18 23" xmlns="http://www.w3.org/2000/svg"><path fill-rule="evenodd" clip-rule="evenodd" d="M5.19958 11.5806C5.17708 11.5806 5.15445 11.5782 5.13197 11.5732C5.02782 11.5501 4.94271 11.4754 4.90628 11.3751C4.87585 11.2915 4.84324 11.1912 4.80875 11.085C4.63252 10.5426 4.30352 9.53216 3.78413 9.58797C3.7688 9.58959 3.75504 9.59121 3.74271 9.59284C3.73038 9.65201 3.70485 9.7213 3.65213 9.78972C3.64052 9.80763 3.61552 9.86391 3.5972 9.90517C3.52822 10.0605 3.42398 10.2953 3.22291 10.4851C2.91307 10.7776 2.57346 11.0457 2.18387 11.0293C1.82987 11.0142 1.56725 10.7641 1.40049 10.5772C1.09146 10.231 0.953851 9.8547 0.820801 9.49071C0.690081 9.13324 0.566611 8.79563 0.279241 8.52124C0.218661 8.46338 0.184171 8.38397 0.182701 8.30104C0.182521 8.29087 0.182831 8.28063 0.183641 8.27039C0.184541 8.25906 0.186071 8.24786 0.188201 8.23684L0.188231 8.23675L0.188261 8.2365L0.188321 8.23619V8.23616C0.203831 8.15613 0.250181 8.08475 0.318191 8.03808L0.319721 8.03706C0.370631 8.00216 0.421441 7.96789 0.471751 7.93399C1.0836 7.52166 1.30277 7.32705 1.17458 6.91571C1.13107 6.7762 0.944921 6.63537 0.747821 6.48627L0.747711 6.48618C0.455031 6.26476 0.123361 6.01383 0.0229013 5.5972C-0.0538488 5.27877 0.0782212 4.99573 0.184371 4.76824L0.184391 4.76819C0.247121 4.63379 0.306361 4.50686 0.311951 4.40445C0.316101 4.32899 0.281841 4.23221 0.245571 4.12978L0.245561 4.12976C0.198221 3.99601 0.144591 3.84442 0.160761 3.68049C0.175711 3.52893 0.255891 3.31928 0.552911 3.18151C0.779131 3.07661 1.0899 3.16575 1.48342 3.27864L1.48453 3.27896C1.71147 3.3441 2.05351 3.44228 2.17594 3.41788C2.43918 3.36585 2.7401 3.2685 3.03118 3.1743C3.19307 3.12193 3.34598 3.07249 3.49402 3.02992C3.71855 2.96534 3.91169 2.89589 4.09846 2.82873C4.45328 2.70113 4.78836 2.58066 5.26781 2.51389C5.58005 2.47042 6.51103 2.20992 6.6763 2.07122L6.7038 2.03479C6.68797 1.99469 6.67343 1.94787 6.661 1.8925C6.64498 1.86625 6.58541 1.81346 6.54537 1.77797L6.54524 1.77786L6.54523 1.77785C6.41452 1.662 6.23553 1.50335 6.22669 1.24617C6.22048 1.0653 6.30145 0.891978 6.47414 0.716349C6.83203 0.352433 7.2462 0.535934 7.4688 0.634571L7.4689 0.634606L7.47 0.635114C7.523 0.658585 7.5731 0.68075 7.6169 0.695625C7.9056 0.793786 8.5016 1.14607 8.7192 1.32766C9.0533 1.60648 9.0803 1.83907 9.0794 2.05343C9.079 2.12821 9.08 2.15618 9.1006 2.19741L9.1378 2.27222L9.1389 2.27441L9.1391 2.2747L9.1393 2.27519C9.1514 2.29949 9.164 2.32498 9.1754 2.34741L9.1763 2.34739C9.2825 2.34536 9.4599 2.34198 9.7395 2.37606C9.9106 2.39691 10.0324 2.55253 10.0116 2.72367L10.0105 2.73177C10.128 2.75177 10.2445 2.77393 10.3611 2.79611C10.5427 2.83065 10.7246 2.86524 10.9108 2.89179C10.9295 2.72517 11.0777 2.60223 11.2456 2.61566L11.2969 2.61981C11.4687 2.63373 11.5967 2.78432 11.5828 2.95611L11.5826 2.95831C11.8419 2.9828 12.105 3.01159 12.3695 3.04413L12.3698 3.04253C12.3925 2.87167 12.5493 2.75182 12.7204 2.77442C13.4406 2.87049 14.1689 2.99228 14.8851 3.13644L14.8852 3.13647C15.1307 3.1859 15.8772 3.33623 15.9705 3.86805C16.0403 4.26565 15.7344 4.65655 15.0078 5.09813C14.8691 5.18242 14.7362 5.24813 14.6077 5.31166L14.6068 5.31212L14.6066 5.31218C14.4108 5.40897 14.2416 5.49258 14.0989 5.61871C14.0669 5.64705 14.0126 5.75579 13.9731 5.83519C13.8473 6.08763 13.6368 6.51009 13.1416 6.51602L13.128 6.51611C12.7748 6.51611 12.6085 6.34866 12.5311 6.20711C12.4454 6.05071 12.4398 5.87593 12.4349 5.72174C12.428 5.50669 12.4134 5.4413 12.3619 5.40822C12.2326 5.36733 11.7587 5.45803 11.6453 5.54599C11.5774 5.60966 11.5393 5.65616 11.5181 5.68656C11.5496 5.71169 11.5884 5.74287 11.6224 5.78619C11.6335 5.80042 11.6449 5.81349 11.6559 5.82614L11.6597 5.83054C11.7902 5.98064 11.9098 6.1578 11.8162 6.52385C11.8005 6.5854 11.7636 6.7295 11.3901 7.15526L11.3881 7.15751C11.2701 7.30462 11.104 7.42964 10.9433 7.5506L10.9432 7.55065L10.9428 7.55094V7.55095V7.55096C10.8429 7.62615 10.7223 7.71691 10.6646 7.7805C10.6649 7.81447 10.6683 7.8647 10.6708 7.90175V7.90192L10.6709 7.90313C10.6858 8.12039 10.7168 8.57246 10.3186 8.69138C10.0326 8.77684 9.8534 8.58688 9.7425 8.40879C9.7454 8.45642 9.7488 8.50317 9.7518 8.54428C9.7802 8.93433 9.8156 9.41973 9.5111 9.72486C9.3092 9.92705 8.9979 9.9705 8.7233 10.0088L8.7229 10.0089C8.6344 10.0212 8.4991 10.0401 8.4226 10.0632C8.5096 10.1615 8.6125 10.3312 8.5576 10.6033C8.5302 10.7394 8.4467 11.1535 8.1085 11.2745C7.7555 11.4008 7.4194 11.1265 7.0942 10.8612L7.0937 10.8608L7.0935 10.8606C6.95709 10.7493 6.81601 10.6342 6.688 10.5586C6.32139 10.3423 6.20304 10.36 6.18318 10.3656C6.12516 10.3823 6.0342 10.5575 5.96106 10.6983L5.96096 10.6985H5.96094C5.84084 10.9299 5.6914 11.2177 5.42009 11.4891C5.36113 11.5483 5.28145 11.5806 5.19958 11.5806ZM10.6322 9.4936C10.69 9.59401 10.795 9.65022 10.9031 9.65022C10.9559 9.65022 11.0094 9.6368 11.0584 9.60862C11.6445 9.27159 11.8389 8.95182 12.0849 8.5471L12.0851 8.54678C12.1533 8.43451 12.2239 8.31841 12.3107 8.1881C12.4064 8.04472 12.3676 7.85093 12.2242 7.75533C12.0808 7.65966 11.887 7.6984 11.7914 7.84188C11.6974 7.98288 11.6201 8.11 11.5519 8.22221V8.22224V8.2223L11.5518 8.22232V8.22238V8.22243V8.22245L11.5517 8.22259V8.22265C11.3214 8.60158 11.1945 8.81031 10.7472 9.06751C10.5978 9.1534 10.5463 9.3442 10.6322 9.4936ZM13.8125 8.44739C13.7044 8.44739 13.5993 8.39118 13.5416 8.29077C13.4557 8.14136 13.5071 7.95057 13.6566 7.86468C14.1039 7.60746 15.8947 5.86303 16.125 5.48407L16.1252 5.4838V5.48375C16.1934 5.37153 16.2707 5.24439 16.3647 5.10335C16.4603 4.95988 16.6541 4.92114 16.7975 5.01681C16.941 5.1124 16.9797 5.3062 16.8841 5.44958C16.7972 5.57989 16.7266 5.69599 16.6584 5.80826C16.4123 6.21313 14.5541 8.06867 13.9677 8.40578C13.9187 8.43397 13.8652 8.44739 13.8125 8.44739ZM8.612 14.0804C8.6406 14.0885 8.6693 14.0924 8.6976 14.0924C8.8336 14.0924 8.9585 14.0029 8.9976 13.8656C9.0448 13.6998 8.9487 13.5272 8.7829 13.48C8.2034 13.3151 7.7938 12.9818 7.1597 12.1592C7.0545 12.0226 6.85845 11.9973 6.72197 12.1026C6.58545 12.2078 6.5601 12.4038 6.66535 12.5403C7.2821 13.3403 7.7983 13.8488 8.612 14.0804ZM9.0283 12.987C8.9163 12.987 8.806 12.9643 8.7042 12.9177C8.398 12.7777 8.2225 12.4529 8.2225 12.0267C8.2225 11.879 8.326 11.7515 8.4706 11.7212C8.6423 11.6853 8.7912 11.5368 8.9226 11.4058L8.9228 11.4056C9.084 11.2449 9.2667 11.0628 9.523 11.1287C9.7953 11.1988 9.8861 11.5104 9.9249 11.6436C10.0496 12.0721 9.939 12.4878 9.629 12.7556C9.4536 12.9072 9.2381 12.987 9.0283 12.987ZM2.77419 2.50088C2.8343 2.59134 2.93339 2.64027 3.03439 2.64027C3.09373 2.64027 3.15375 2.62339 3.2069 2.58806C3.35047 2.49271 3.38952 2.29898 3.29407 2.15541C3.28256 2.13812 3.26417 2.10687 3.2701 2.09224C3.28224 2.0624 3.42457 1.79304 4.66104 1.52862C4.70024 1.52023 4.72895 1.51398 4.74478 1.51002C4.91197 1.4682 5.01366 1.29875 4.97184 1.13152C4.93002 0.96426 4.76048 0.862511 4.59334 0.904459C4.58317 0.906967 4.56593 0.910639 4.54278 0.915571L4.54276 0.915575L4.53048 0.918192C3.4422 1.1509 2.85799 1.44913 2.69197 1.85675C2.6072 2.06486 2.63642 2.29358 2.77419 2.50088ZM10.5252 11.5806C10.4431 11.5806 10.3626 11.5473 10.3045 11.4892C10.2465 11.4311 10.2131 11.3506 10.2131 11.2685C10.2131 11.1864 10.2465 11.1059 10.3045 11.0479C10.3626 10.9898 10.4431 10.9564 10.5252 10.9564C10.6073 10.9564 10.6878 10.9898 10.7459 11.0479C10.8042 11.1059 10.8373 11.1864 10.8373 11.2685C10.8373 11.3506 10.8042 11.4311 10.7459 11.4892C10.6878 11.5472 10.6072 11.5806 10.5252 11.5806ZM17.2117 17.2759L16.6993 16.6917C16.6046 16.5836 16.5584 16.4649 16.5125 16.347C16.4516 16.1904 16.3912 16.0352 16.2183 15.9089L16.1864 15.8857C15.9057 15.6811 15.6911 15.5246 15.5708 15.1673C15.5457 15.0925 15.5268 15.0043 15.5071 14.9127C15.4648 14.7154 15.419 14.5021 15.3001 14.3725C15.2522 14.3202 15.2007 14.2898 15.1505 14.2601C15.078 14.2172 15.0081 14.1759 14.9554 14.0728C14.9108 13.9856 14.8803 13.8865 14.8503 13.7892C14.8356 13.7412 14.8209 13.6936 14.8048 13.6481C14.7097 13.38 14.4848 13.1916 14.3388 13.551C14.2382 13.7988 14.2534 14.0568 14.2685 14.3136C14.2816 14.5363 14.2947 14.7581 14.2321 14.9715C14.1145 15.3726 13.7436 15.2453 13.5016 15.0785C13.4541 15.0458 13.3964 15.0113 13.3347 14.9744C13.1373 14.8564 12.8999 14.7144 12.8299 14.5302C12.782 14.4039 12.8612 14.2644 12.9378 14.1294C13.04 13.9493 13.1376 13.7773 12.922 13.6561C12.7753 13.5737 12.5442 13.5649 12.339 13.5571C12.2518 13.5538 12.1693 13.5507 12.0998 13.5422C11.772 13.5019 11.5202 13.5261 11.2769 13.7801C11.233 13.826 11.1864 13.8872 11.1367 13.9526C10.9995 14.1329 10.8387 14.3444 10.644 14.3497C10.552 14.3522 10.4694 14.3184 10.3852 14.284C10.2916 14.2457 10.196 14.2066 10.0834 14.2157C9.9103 14.2298 9.7792 14.3109 9.6482 14.4159C9.4389 14.5834 9.2371 14.7663 9.0378 14.9469L8.9705 15.0079C8.9628 15.0148 8.9552 15.0216 8.9475 15.0284C8.9422 15.0331 8.9369 15.0377 8.9316 15.0424C8.8638 15.1018 8.7982 15.1593 8.7587 15.246C8.7263 15.3175 8.7149 15.3881 8.7038 15.4564C8.6849 15.5733 8.6671 15.6836 8.5467 15.7808C8.4285 15.8762 8.259 15.9303 8.1018 15.9805C8.0424 15.9995 7.9847 16.0179 7.9322 16.0378C7.8361 16.0742 7.7346 16.1082 7.6314 16.1428C7.1327 16.3098 6.59283 16.4906 6.42066 17.0205C6.40901 17.0563 6.39635 17.0938 6.3833 17.1324C6.31096 17.3465 6.2265 17.5963 6.23496 17.8078C6.24266 18.0004 6.35978 18.1767 6.47142 18.3447H6.47144C6.51611 18.412 6.5599 18.4779 6.59545 18.543C6.73008 18.7895 6.73206 19.0046 6.73414 19.2319C6.73528 19.3555 6.73645 19.4828 6.75902 19.6206C6.76905 19.6818 6.79529 19.7381 6.82135 19.794C6.85951 19.8759 6.89728 19.9569 6.8831 20.0512C6.87103 20.1315 6.82103 20.2041 6.77171 20.2757C6.73587 20.3278 6.7004 20.3793 6.68011 20.4329C6.59141 20.6669 6.80404 20.739 7.0132 20.81H7.0134C7.046 20.8211 7.0786 20.8321 7.1099 20.8437C7.4495 20.9698 7.6799 20.8629 7.9412 20.7416C8.0348 20.6982 8.1323 20.6529 8.2402 20.6159C8.4017 20.5604 8.562 20.5507 8.7246 20.5409C8.8028 20.5361 8.8815 20.5314 8.9612 20.5215C9.2875 20.4809 9.5689 20.3521 9.844 20.1793C10.2646 19.9152 10.733 19.7652 11.2331 19.8436C11.7394 19.923 12.09 20.2055 12.411 20.5845C12.5466 20.7447 12.6762 20.8549 12.8708 20.9379C12.8953 20.9484 12.9215 20.9551 12.9478 20.9619C12.999 20.975 13.0502 20.9882 13.0882 21.0289C13.1139 21.0563 13.1156 21.0907 13.1173 21.1253C13.1195 21.1707 13.1218 21.2165 13.1781 21.2473C13.2382 21.2802 13.3035 21.2612 13.3707 21.2417C13.4479 21.2193 13.5277 21.1962 13.6048 21.2503C13.695 21.3135 13.7314 21.4434 13.7682 21.5744C13.7976 21.6792 13.8272 21.7846 13.8846 21.8571C14.032 22.0435 14.2358 22.1438 14.4649 22.1866C14.489 22.1911 14.5097 22.1943 14.5279 22.1972C14.605 22.2094 14.6386 22.2147 14.706 22.2769C14.7375 22.306 14.7616 22.3548 14.7861 22.4046C14.8194 22.4721 14.8537 22.5416 14.9087 22.5667C15.03 22.6218 15.0825 22.5303 15.1391 22.4318C15.173 22.3726 15.2085 22.3109 15.2612 22.2769C15.3817 22.1991 15.4761 22.2221 15.5758 22.2465C15.6323 22.2603 15.6905 22.2745 15.7561 22.271C15.878 22.2645 15.9378 22.1941 15.9996 22.1214C16.0552 22.0559 16.1124 21.9886 16.2178 21.9644C16.2644 21.9536 16.3086 21.9475 16.3505 21.9417H16.3506C16.4833 21.9233 16.5946 21.9079 16.6949 21.759C16.7774 21.6367 16.7761 21.4969 16.7748 21.3572C16.7747 21.3483 16.7746 21.3395 16.7746 21.3306C16.7745 21.322 16.7745 21.3133 16.7745 21.3047C16.7745 21.1097 16.8167 21.0322 16.9049 20.8704L16.9211 20.8407L17.3817 19.9925C17.4181 19.9255 17.4614 19.8561 17.5056 19.7852C17.5969 19.6387 17.6921 19.486 17.7387 19.3352C17.7753 19.2169 17.7667 19.0676 17.7587 18.9284C17.7555 18.872 17.7523 18.8172 17.7523 18.7669C17.7523 18.4974 17.7405 18.2903 17.6861 18.0363C17.6723 17.9724 17.6915 17.8887 17.7109 17.8039C17.7373 17.6886 17.7642 17.571 17.71 17.4974C17.66 17.4293 17.5706 17.4114 17.4769 17.3926C17.3803 17.3732 17.2791 17.3529 17.2117 17.2759ZM17.348 21.2885C17.3085 21.2885 17.2697 21.2787 17.236 21.2604C17.1361 21.206 17.0747 21.0727 17.1425 20.942H17.1424L17.1442 20.9388L17.1451 20.9371L17.146 20.9355L17.1477 20.9323H17.1478C17.2206 20.8044 17.3659 20.7835 17.4658 20.8377C17.5657 20.892 17.6271 21.0253 17.5594 21.156H17.5595L17.5577 21.1594L17.5569 21.1609L17.5567 21.1611L17.5559 21.1626L17.5541 21.1659C17.5058 21.2507 17.4256 21.2885 17.348 21.2885Z"/></svg>
