<svg xmlns="http://www.w3.org/2000/svg" width="18" height="18" viewBox="0 0 18 18"><path d="M5.393 11.654L4.327 6.306A1.325 1.325 0 0 1 5.45 4.732l.443-.054a1.304 1.304 0 0 1 1.473 1.11l.583 4.078h2.836c.48 0 .869.393.869.867v6.287c0 .492-.4.895-.894.895a.896.896 0 0 1-.895-.877v-5.384H5.393zm7.155.617l1.981 3.426a.9.9 0 0 1-.327 1.225.899.899 0 0 1-1.222-.33l-.432-.743V12.27zM1.806 2.711a.907.907 0 0 1 .904.903v2.674l1.789 6.26h3.777a.889.889 0 0 1 .862 1.092l-.084.357a.452.452 0 0 1-.437.34H3.094a.483.483 0 0 1-.472-.375l-1.7-7.19-.19-3.578a.454.454 0 0 1 .125-.34.468.468 0 0 1 .334-.143h.615zM5.393.922a1.34 1.34 0 1 1 .002 2.682A1.34 1.34 0 0 1 5.393.922zm8.724-.894a3.797 3.797 0 1 1-3.798 3.792A3.796 3.796 0 0 1 14.117.028zm2.009 5.813V4.049a1.497 1.497 0 0 0-.087-.506 1.228 1.228 0 0 0-.129-.25c-.242-.361-.665-.551-1.091-.581l-1.456-.001.82-.82-.632-.633-1.897 1.897 1.897 1.898.632-.633-.815-.815h1.415c.16.019.345.079.413.24.021.05.03.103.034.157l.001 1.839h.895z" fill-rule="evenodd"/></svg>