<svg xmlns="http://www.w3.org/2000/svg" width="12" height="20" viewBox="0 0 12 20"><path d="M9.758 11.055a79.484 79.484 0 0 1-1.37-2.282v1.685c.4 2.752.868 5.494 1.18 8.245.02.078.032.16.032.244C9.6 19.528 9.063 20 8.4 20c-.61 0-1.114-.4-1.19-.916-.382-2.496-.802-4.992-1.114-7.499h-.24c-.303 2.432-.707 4.855-1.06 7.277a.938.938 0 0 1 .004.085C4.8 19.528 4.263 20 3.6 20c-.663 0-1.2-.472-1.2-1.053 0-.021 0-.042.002-.063.31-2.812.79-5.614 1.198-8.426V8.763c-.427.74-.866 1.47-1.304 2.199-.188.367-.608.623-1.096.623-.663 0-1.2-.471-1.2-1.053 0-.15.035-.291.099-.42a129.416 129.416 0 0 1 3.345-5.889h5.112a122.329 122.329 0 0 1 3.247 5.73.959.959 0 0 1 .197.579c0 .582-.537 1.053-1.2 1.053-.446 0-.835-.213-1.042-.53zM6 3.16c-.994 0-1.8-.708-1.8-1.58C4.2.707 5.006 0 6 0s1.8.707 1.8 1.58c0 .872-.806 1.58-1.8 1.58z"/></svg>