<svg xmlns="http://www.w3.org/2000/svg" width="24" height="24" viewBox="0 0 24 24"><path d="M21 13.8c0 4.98-3.8 8.2-8 8.2-2.24 0-4.38-.92-5.88-2.54 3.98-2.74 7.78-6.83 7.78-6.83l1.34 3.48.85-.74-.85-4.08s.54-.53.73-.73c.2-.19.64-.89.36-1.15-.26-.27-.97.17-1.15.36-.2.19-.73.73-.73.73l-4.29-.54-.53.54 3.48 1.33s-1.61 2.14-4.5 4.22c-1.22.88-2.42 1.62-3.51 2.01-1.46.53-2.71.6-3.53.41-1.36-.31-1.41-2.21 1.25-4.29.16-.13.37.04.29.22-.44 1.05-.96 2.75 1.44 2.49-.33-.83-.55-1.91-.55-3.09 0-2.9 2.03-6.26 6.1-10.1.59-.56 1.23-1.12 1.9-1.7 1 .85 1.9 1.68 2.71 2.5.27.27.53.54.79.8l.03.03c.48.52.93 1.03 1.34 1.53.21.26.41.51.6.76.02.02.04.04.05.06C20.17 9.91 21 11.95 21 13.8Z"/></svg>
