<svg xmlns="http://www.w3.org/2000/svg" width="12" height="20" viewBox="0 0 12 20"><path d="M1.854 15c.341 0 .617.277.617.618v.859H9.53v-.859c0-.341.276-.618.617-.618h1.235c.341 0 .618.277.618.618v3.764a.618.618 0 0 1-.618.618h-1.235a.618.618 0 0 1-.617-.618v-.839H7.529A.53.53 0 0 1 7 18.014V18H5v.014a.529.529 0 0 1-.528.529H2.471v.839a.618.618 0 0 1-.617.618H.619A.62.62 0 0 1 0 19.382v-3.764A.62.62 0 0 1 .619 15h1.235zm6.28-11l2.599 4.5A1.002 1.002 0 0 1 9 9.5L8 7.768v.738l.607 6.884a1 1 0 0 1-1.992.175l-.445-5.046h-.339l-.445 5.046a1 1 0 1 1-1.992-.175L4 8.506v-.738L3 9.5a1 1 0 0 1-1.732-1L3.867 4h4.267zM6 0a1.5 1.5 0 1 1 0 3 1.5 1.5 0 0 1 0-3z"/></svg>