<svg width="10" height="20" viewBox="0 0 10 20" xmlns="http://www.w3.org/2000/svg"><path d="M8.627 2.01c0 1.106-.852 2.005-1.906 2.006-1.052 0-1.903-.9-1.903-2.007C4.818.903 5.668.002 6.721 0c1.054 0 1.906.903 1.906 2.01zM5.246 4.235L9.27 8.957a.96.96 0 0 1-.05 1.301c-.009.008-.018.014-.027.02a.37.37 0 0 0-.023.019v9.132a.557.557 0 0 1-.544.571c-.3 0-.542-.256-.542-.571v-9.131a.784.784 0 0 1-.1-.094L5.505 7.296l-.007.06c-.158 1.27-.321 2.58-.321 4.323v7.309c0 .556-.433 1.012-.962 1.012h-.076c-.53 0-.963-.456-.963-1.012V13.18h-.004c-.012-.184-.155-.332-.334-.332-.178 0-.32.148-.332.332h-.005v5.807c0 .556-.433 1.012-.962 1.012h-.077C.932 20 .5 19.544.5 18.988v-7.309c0-.408.038-.794.096-1.16.145-.903 1.255-5.167 1.255-5.167.29-1.258 1.32-2.082 2.4-1.807.414.105.752.355.995.69z"/></svg>
