<svg xmlns="http://www.w3.org/2000/svg" width="18" height="12" viewBox="0 0 18 12"><path d="M18 4.372L15.873 12 0 7.912 2.127.284 18 4.372zM16.433 0v3.062L4.564 0h11.869zM8.6 4.186c-.973-.25-1.856-.123-2.236 1.241-.38 1.365.317 1.899 1.291 2.15.974.25 1.851.14 2.236-1.242.385-1.381-.317-1.898-1.29-2.149zm4.05 1.043c-.974-.25-1.856-.124-2.237 1.24-.38 1.365.318 1.9 1.291 2.15.974.25 1.852.14 2.237-1.24.385-1.382-.318-1.9-1.291-2.15zm-4.177-.585c.364.094.592.407.304 1.44-.288 1.035-.65 1.196-1.013 1.102-.364-.093-.588-.423-.305-1.44.284-1.018.65-1.196 1.014-1.102zm4.05 1.043c.362.093.592.407.303 1.44-.288 1.035-.65 1.196-1.013 1.102-.364-.094-.588-.424-.304-1.44.283-1.018.649-1.196 1.013-1.102zM5.008 6.895L5.9 3.7l-1.324-.341-.185.66.443.115-.706 2.534.881.227z"/></svg>