<svg xmlns="http://www.w3.org/2000/svg" viewBox="0 7 24 17"><path d="M5.282 18.525h-.526v.9h.614c.262 0 .525-.15.525-.45 0-.3-.263-.45-.613-.45zm-3.154 0h-.526v.975h.526c.35 0 .613-.15.613-.45 0-.375-.174-.525-.612-.525z"/><path d="M0 7v17h24V7H0zm2.216 9.05l-.438-.075C1.164 15.9.9 15.6.9 15.15c0-.525.44-.9 1.227-.9.7 0 1.227.375 1.227.9H2.74c0-.226-.263-.375-.613-.375s-.526.074-.526.3c0 .225.09.3.527.375l.35.075c.7.15.964.375.964.824 0 .6-.524.975-1.312.975-.79 0-1.314-.375-1.314-.9h.7c0 .226.264.375.614.375s.613-.15.613-.375c0-.15-.174-.3-.524-.375zm.086 3.975h-.7v.9H.99V18h1.314c.7 0 1.14.45 1.14 1.05 0 .6-.44.975-1.14.975zm3.593.9l-.613-1.05h-.526v1.05h-.7V18h1.4c.702 0 1.14.375 1.14.975 0 .375-.263.676-.613.825l.7 1.125h-.788zm.088-3.675l-.876-1.275-.35.375v.9h-.7v-2.925h.7V15.6l1.226-1.274h.788L5.546 15.6l1.314 1.65h-.877zm1.926 3.675h-.7V18h.7v2.925zm-.79-6.6h.702l.7 1.2h.088l.7-1.2h.702l-1.14 1.8v1.125H8.26v-1.125l-1.14-1.8zM10.1 21c-.964 0-1.49-.6-1.49-1.5 0-.975.526-1.575 1.49-1.575.963 0 1.577.6 1.577 1.575 0 .9-.614 1.5-1.577 1.5zm4.03-.075l-.612-1.05h-.525v1.05h-.703V18h1.403c.7 0 1.14.375 1.14.975 0 .375-.176.676-.615.825l.7 1.125h-.787zm2.102 0h-.7V18h.7v2.925zm3.157-2.4h-.967v2.4h-.7v-2.4h-.964V18h2.63v.525zm2.188 1.35v1.05h-.7v-1.05L19.825 18h.7l.7 1.275h.088L22.016 18h.7l-1.138 1.875z"/><path d="M10.1 18.45c-.525 0-.875.45-.875 1.05s.35.975.876.975.877-.375.877-.975-.35-1.05-.876-1.05zm3.505.075h-.613v.9h.613c.35 0 .525-.15.525-.45 0-.3-.175-.45-.525-.45z"/></svg>