<svg xmlns="http://www.w3.org/2000/svg" width="19" height="15" viewBox="0 0 19 15"><path d="M15.632 15H5.684v-3.75h9.948V15zm3.026 0h-2.08v-3.75h2.08V15zM4.263 11.25V15H0v-3.75h4.263zm13.718-.938H16.56c0-.703.01-1.406-.01-2.118a2.002 2.002 0 0 0-.217-.9c-.038-.075-.095-.15-.152-.225a1.69 1.69 0 0 0-.853-.506 2.042 2.042 0 0 0-.416-.075c-.645-.02-1.289 0-1.933 0a.766.766 0 0 1-.379-.104.705.705 0 0 1-.322-.693.617.617 0 0 1 .057-.188.664.664 0 0 1 .256-.3c.037-.028.085-.047.123-.066.01-.009.01-.009.019-.009.028-.019.056-.047.085-.075.104-.094.18-.215.237-.337.094-.207.142-.432.18-.657.019-.14.028-.497.028-.637.01-.178.01-.647-.028-.825a1.177 1.177 0 0 0-.398-.713 1.607 1.607 0 0 0-.341-.215 2.45 2.45 0 0 0-.56-.188c-.189-.037-.378-.075-.568-.084V0c.484.019.957.103 1.412.262.294.104.568.244.824.432.284.206.521.468.71.769.143.253.257.534.313.824.067.329.067.947.057 1.276-.019.43-.095 1.068-.227 1.471l-.02.047h.55c.057.01.114.01.17.019.37.047.73.14 1.071.29.228.104.436.235.635.385.142.112.284.244.408.384.312.375.52.825.625 1.304.057.271.076.543.085.824v2.025zm-2.35-.009h-1.42c0-.215.009-.431 0-.647 0-.094-.01-.197-.038-.29a.842.842 0 0 0-.076-.197c-.114-.178-.332-.253-.53-.263-.304-.01-.607 0-.9 0h-1.498c-.17 0-.35-.01-.52-.028-.408-.056-.806-.169-1.156-.394a2.06 2.06 0 0 1-.38-.318c-.369-.394-.549-.92-.568-1.463-.019-.262.01-.534.076-.797a1.8 1.8 0 0 1 .19-.487l.009-.038a1.161 1.161 0 0 1-.17-.047c-.086-.028-.086-.028-.18-.056-.171-.065-.351-.131-.522-.225a2.744 2.744 0 0 1-.862-.75 2.636 2.636 0 0 1-.398-.984c-.028-.216-.037-.432-.028-.647.019-.31.066-.619.17-.91A2.63 2.63 0 0 1 7.362.9C7.92.31 8.678.019 9.474 0v1.387c-.36.029-.71.15-.986.385-.056.056-.104.103-.151.169-.19.234-.246.543-.256.843-.01.282.047.572.237.797.17.178.398.29.625.375.341.113.71.169 1.07.178.124 0 .238 0 .36-.009l.058.01a.752.752 0 0 1 .464.225.69.69 0 0 1 .104.777.758.758 0 0 1-.237.282c-.066.037-.133.065-.19.103-.303.187-.54.478-.596.834a1.561 1.561 0 0 0-.01.366c.02.187.067.375.209.516.085.074.18.121.284.159.208.075.417.094.635.103.52.01 1.042 0 1.572 0 .294 0 .645-.01.967 0 .502.028.994.206 1.364.553a2 2 0 0 1 .227.263c.095.121.17.253.228.393.132.32.18.657.18.994v.6zM12.715 5.15l.02-.02-.02.02z"/></svg>