<svg height="17" viewBox="0 0 17 17" width="17" xmlns="http://www.w3.org/2000/svg"><path d="m19.008 19.893h-4.627c-.548 0-.992-.454-.992-1.013v-7.013c0-.213.083-.418.23-.568a.78.78 0 0 1 .557-.237h4.998c.457 0 .826.379.826.844v6.974c0 .559-.445 1.013-.992 1.013zm.675-9.685h-5.977a.32.32 0 0 1 -.317-.323v-.648c0-.179.142-.324.317-.324h5.977c.175 0 .317.145.317.324v.648a.32.32 0 0 1 -.317.323zm-5.644-2.14a.506.506 0 0 1 -.408-.209.53.53 0 0 1 -.08-.458c.464-1.32 1.696-2.273 3.143-2.273 1.433 0 2.654.934 3.113 2.237a.536.536 0 0 1 -.079.468.51.51 0 0 1 -.415.215c-1.267.02-4.033.02-5.274.02zm1.003-3.784v-1.284h3.305v1.284zm-7.32 8.101c3.148-1.126 4.723-.096 4.722 3.09 0 1.993-2.356 4.922-4.473 4.48-.38-.079-.118-.079-.497 0-2.118.442-4.474-2.487-4.474-4.48 0-3.186 1.574-4.216 4.722-3.09zm-.043-.961c.333-1.848-.434-2.935-2.298-3.262-.32 1.805.446 2.892 2.298 3.262z" fill-rule="evenodd" transform="translate(-3 -3)"/></svg>