<svg xmlns="http://www.w3.org/2000/svg" width="14" height="14" viewBox="0 0 14 14"><path d="M7.452.378l1.426 2.93c.245.503.893.981 1.44 1.062l3.189.47c.548.08.672.467.274.859L11.476 7.98c-.396.392-.644 1.165-.55 1.718l.545 3.221c.093.553-.231.793-.72.531l-2.852-1.521c-.49-.26-1.292-.26-1.78 0L3.266 13.45c-.49.262-.813.022-.72-.53l.544-3.222c.094-.553-.154-1.326-.55-1.718L.232 5.699c-.396-.392-.272-.778.275-.859l3.189-.47c.548-.08 1.195-.559 1.44-1.062L6.562.378c.245-.504.645-.504.89 0zm-.445 1.371l-.972 1.997c-.364.746-1.197 1.394-2.018 1.58l-.175.033-2.202.325 1.603 1.585c.587.58.933 1.578.856 2.418l-.023.177-.374 2.22 1.947-1.038c.725-.386 1.772-.414 2.547-.082l.173.083 1.948 1.037-.377-2.218c-.139-.816.16-1.83.71-2.466l.122-.13 1.603-1.586-2.202-.325c-.817-.12-1.681-.725-2.11-1.455l-.084-.158-.972-1.997z" fill-rule="nonzero"/></svg>
