<svg width="18" height="18" viewBox="0 0 18 18" xmlns="http://www.w3.org/2000/svg"><path fill-rule="evenodd" clip-rule="evenodd" d="M9.75 3.046V0h-1.5v3.046a6.059 6.059 0 0 1 1.5 0zm-1.5 11.908V18h1.5v-3.046a6.067 6.067 0 0 1-1.5 0zM18 9.75h-3.046a6.067 6.067 0 0 0 0-1.5H18v1.5zM3.046 8.25H0v1.5h3.046a6.059 6.059 0 0 1 0-1.5zm12.848-5.084L13.74 5.321a6.036 6.036 0 0 0-1.06-1.06l2.154-2.155 1.06 1.06zM4.26 12.68l-2.154 2.155 1.06 1.06 2.155-2.154a6.036 6.036 0 0 1-1.06-1.06zm10.574 3.215l-2.155-2.154a6.037 6.037 0 0 0 1.06-1.06l2.155 2.154-1.06 1.06zM5.32 4.26L3.166 2.106l-1.06 1.06L4.26 5.321a6.036 6.036 0 0 1 1.06-1.06zM14 9A5 5 0 1 1 4 9a5 5 0 0 1 10 0z"/></svg>