<svg width="10" height="18" viewBox="0 0 10 18" xmlns="http://www.w3.org/2000/svg"><path fill-rule="evenodd" clip-rule="evenodd" d="M8.367 2.733a1.944 1.944 0 0 1 1.297 1.822v1.04c0 .627-.303 1.184-.773 1.54h.028a.98.98 0 0 1 .99.97v.638l-.453 1.188v5.433l.453 1.35v.316a.98.98 0 0 1-.99.97H1.081a.98.98 0 0 1-.99-.97v-.337l.453-1.307v-5.314l-.453-1.47v-.497a.98.98 0 0 1 .99-.97h.028a1.925 1.925 0 0 1-.773-1.54v-1.04c0-.836.54-1.549 1.297-1.822-.052.17-.08.349-.08.535 0 1.031.854 1.867 1.906 1.867h3.082c1.052 0 1.905-.836 1.905-1.867 0-.186-.027-.366-.079-.535Zm-6.214 9.265h2.723l-2.475 3.64h1.238l4.207-4.853H5.124l1.98-3.397H5.866l-3.712 4.61Z"/><path d="m2.071 1.698-.99-.485C1.329.81 1.972 0 2.566 0c.743 0 .99.485 1.238.485C4.05.485 4.299 0 5.04 0c.536 0 .743.485.99.485C6.28.485 6.28 0 7.27 0c.792 0 1.32.647 1.485.97l-.99.728c-.083-.161-.183-.485-.495-.485-.248 0-.444.485-1.238.485-.495 0-.495-.485-.99-.485s-.563.485-1.237.485c-.396 0-.921-.485-1.238-.485-.317 0-.495.485-.495.485Z"/></svg>
