<svg xmlns="http://www.w3.org/2000/svg" width="18" height="15" viewBox="0 0 18 15"><path fill-rule="evenodd" d="M6.152 15C-.198 12.414.001 8.475.001 8.475v-.018C.012 6.805 1.385 5.47 3.077 5.47c1.692 0 3.065 1.334 3.076 2.986v.018-.018C6.163 6.805 7.537 5.47 9.23 5.47c1.699 0 3.076 1.343 3.076 3.004v.018c.004.336-.089 4.039-6.153 6.507zm7.565-6.262a4.27 4.27 0 0 0-.17-1.48c.426-.253.83-.534 1.202-.852.55-.472 1.034-1.026 1.372-1.652.163-.308.293-.626.375-.953.044-.172.075-.354.084-.535a1.832 1.832 0 0 0-1.061-1.751 1.795 1.795 0 0 0-.766-.154 1.671 1.671 0 0 0-.475.08 1.668 1.668 0 0 0-.495.246 1.864 1.864 0 0 0-.762 1.352c-.005.064-.005.136-.008.2l-.006.054a.74.74 0 0 1-.181.363.735.735 0 0 1-.828.145.666.666 0 0 1-.175-.108.696.696 0 0 1-.22-.4c-.013-.081-.008-.172-.014-.254a1.925 1.925 0 0 0-.263-.817c-.29-.472-.802-.816-1.379-.853a1.463 1.463 0 0 0-.486.028 1.55 1.55 0 0 0-.52.2 1.834 1.834 0 0 0-.49.408 2.084 2.084 0 0 0-.216.335 1.864 1.864 0 0 0-.205.917c.005.136.026.272.055.417.038.182.092.363.16.536-.12.027-.238.063-.355.1-.337.1-.661.236-.963.417a5.685 5.685 0 0 1-.197-.626 3.648 3.648 0 0 1-.11-1.17c.035-.418.15-.818.34-1.199a3.219 3.219 0 0 1 4.318-1.38c.394.2.73.482 1.01.818l.017.018c.038-.046.078-.091.117-.136l.105-.11a3.25 3.25 0 0 1 1.017-.689c.318-.136.66-.218 1.006-.245.3-.018.604 0 .9.054.259.055.511.146.749.255a3.25 3.25 0 0 1 1.61 1.787c.135.372.198.763.19 1.153-.004.29-.052.58-.122.862a5.541 5.541 0 0 1-.619 1.48c-.13.217-.272.426-.428.635-.809 1.052-1.917 1.878-3.113 2.504z"/></svg>