<svg xmlns="http://www.w3.org/2000/svg" width="10" height="20" viewBox="0 0 10 20"><path fill-rule="evenodd" d="M1.508 3.995c.834 0 1.509.671 1.509 1.504A1.51 1.51 0 0 1 0 5.5c0-.833.676-1.504 1.508-1.504zm6.034 7.755V19a1.005 1.005 0 1 1-2.011 0v-6.1l-.51.29-.935 5.96c-.086.55-.6.92-1.15.83a.993.993 0 0 1-.837-1.14l1.17-7.46L1.476 8.3h.004l-.004-.01L7.46 4.854 2.23 1.852l-.02.034a.991.991 0 0 1-1.351.36A.98.98 0 0 1 .497.901l.02-.033L.512.866 1.015 0l.005.003V0l1.713.983v.003l5.732 3.292.027-.015A1.003 1.003 0 1 1 9.498 6L5.526 8.27l2.015 3.48z"/></svg>