<svg xmlns="http://www.w3.org/2000/svg" width="18" height="9" viewBox="0 0 18 9"><path fill-rule="evenodd" d="M17.102 4.49v.018a4.373 4.373 0 0 1-.237 1.437 4.527 4.527 0 0 1-.932 1.582c-.438.476-.98.862-1.579 1.114a4.056 4.056 0 0 1-1.068.305c-.15.027-.302.036-.453.045-.116.009-.116.009-.231.009h-1.606a4.507 4.507 0 0 0-3.993 0H5.416c-.082 0-.164 0-.245-.009a4.519 4.519 0 0 1-1.419-.305A4.446 4.446 0 0 1 2 7.446 4.465 4.465 0 0 1 .904 4.625L.902 4.49H0V2.693h1.02c.036-.135.08-.27.132-.404A3.638 3.638 0 0 1 3.264.232 3.826 3.826 0 0 1 4.41.016c3.033-.036 6.066 0 9.098 0a3.575 3.575 0 0 1 2.416.934 3.579 3.579 0 0 1 1.06 1.743H18V4.49h-.898zm-6.124 1.572l.088.135c.056.09.112.17.17.252.177.242.38.467.65.601.264.135.565.162.855.144a2.699 2.699 0 0 0 1.528-.566A2.702 2.702 0 0 0 15.3 4.58c.004-.342.004-.683 0-1.015a1.803 1.803 0 0 0-1.18-1.644 1.78 1.78 0 0 0-.572-.108 383.493 383.493 0 0 0-9.094 0 1.8 1.8 0 0 0-1.752 1.752 34.34 34.34 0 0 0 0 1.015c.011.287.06.575.163.853a2.713 2.713 0 0 0 1.546 1.582c.25.098.513.152.781.18.07 0 .139.008.209.008.154 0 .307-.018.457-.054.09-.027.176-.054.258-.099.363-.18.604-.52.82-.853l.07-.108C7.747 4.68 8.949 4.086 9 4.041c.052.045 1.237.62 1.978 2.021zM9 4.041z"/></svg>