<svg height="14" viewBox="0 0 18 14" width="18" xmlns="http://www.w3.org/2000/svg"><path d="m6.196 9.03-.522 1.82 1.252-.256.647-2.259-1.694-.73-.1.16.349.563a.789.789 0 0 1 .068.702zm11.544-1.954c.17.5.26 1.033.26 1.585 0 2.917-2.534 5.281-5.66 5.281a5.96 5.96 0 0 1 -2.446-.518c3.019-.852 5.216-3.467 5.216-6.56 0-1.142-.3-2.22-.828-3.166l.124.045c1.428.765 2.39 2.203 2.39 3.85 0 .396-.056.78-.16 1.144a4.398 4.398 0 0 0 1.104-1.661zm-8.566 5.24-.239.094c-.245.106-.556.231-.908.356-1.723.66-3.48 1.234-4.587 1.234-1.487 0-2.604-.225-3.37-.57 0 0 .334-1.354 2.544-1.927l.026-.007.32-.09.735-.15.687-2.394-1.459-2.357 1.428-2.308h-3.452c-.496 0-.899-.377-.899-.84s.403-.839.9-.839h4.497v.004l2.72 1.465h-.001l1.105.597h1.573c.496 0 .899.375.899.839 0 .463-.403.84-.9.84h-1.77a.953.953 0 0 1 -.49-.112l-1.316-.71-.434.703 2.238.966c.428.185.627.644.467 1.05l-.583 2.029 3.78-.775c-.706 1.236-1.838 2.22-3.214 2.783l-.217.087-.06.022.06-.022-.08.031zm-1.529-12.316c.745 0 1.35.564 1.35 1.259s-.605 1.259-1.35 1.259c-.744 0-1.349-.564-1.349-1.259s.605-1.259 1.35-1.259z" fill-rule="evenodd"/></svg>