<svg xmlns="http://www.w3.org/2000/svg" width="12" height="20" viewBox="0 0 12 20"><path d="M.995 20l1.55-3h1.487l-.506 3H.996zm8.585-3l1.539 3H8.588l-.506-3H9.58zm.526-15.531H9.094V3h2.025c1.113 4.49 1.235 8.84 0 13A21.39 21.39 0 0 1 .995 16C-.402 11.69-.26 7.35.995 3H3.02V1.469H2.008V0h8.098v1.469zM8.082 14h-4.05c-.567.49-.567 1 0 1.52h4.05c.546-.51.546-1.01 0-1.52zm2.024-10H2.008c-.638 2.79-.598 5.63 0 8.51h8.098c.638-2.84.679-5.68 0-8.51zM9.6 10H2.514V5H9.6v5zM7.606 1.469H4.508V3h3.098V1.469z"/></svg>