<svg width="19" height="16" viewBox="0 0 19 16" xmlns="http://www.w3.org/2000/svg"><path d="M.971 14.696h2.246v-2.685c.227.382.487.741.776 1.078.128.146.263.292.403.427a7.793 7.793 0 0 0 2.959 1.864c.173.056.349.112.527.157.173.056.347.09.523.135.726.146 1.473.18 2.211.124a8.8 8.8 0 0 0 1.081-.169l.121-.034c.219-.045.436-.112.65-.18a7.691 7.691 0 0 0 1.52-.708h.004l.016-.011h.011l.008-.011h.011l.004-.011h.006l.015-.011h.007c.329-.202.644-.427.939-.674.174-.146.341-.303.502-.461l-1.589-1.595-.045.045c-.338.326-.71.607-1.112.842a5.328 5.328 0 0 1-1.285.539c-.062.022-.07.022-.118.034l-.013.011h-.031a5.544 5.544 0 0 1-.854.146h-.02c-.207.022-.414.022-.622.022a5.805 5.805 0 0 1-1.324-.191 5.425 5.425 0 0 1-1.465-.629 6.005 6.005 0 0 1-1-.775c-.016-.011-.031-.034-.047-.045-.148-.157-.289-.303-.42-.472a5.603 5.603 0 0 1-.757-1.258h2.902V7.954H.972v6.742H.971zm14.54-1.169l.007-.011-1.589-1.584h-.006l1.588 1.595zm-3.306-5.571h6.739V1.217h-2.246v2.684a8.48 8.48 0 0 0-.776-1.067 16.047 16.047 0 0 0-.403-.438 8.809 8.809 0 0 0-.991-.842A7.657 7.657 0 0 0 12.56.543a4.429 4.429 0 0 0-.528-.168A7.704 7.704 0 0 0 9.299.127c-.364.022-.724.09-1.081.168a.46.46 0 0 0-.122.022 8.399 8.399 0 0 0-2.17.887l-.061.034-.021.022a8.075 8.075 0 0 0-.939.674 6.289 6.289 0 0 0-.512.472L5.981 3.99a.277.277 0 0 0 .057-.056c.337-.326.71-.607 1.112-.842a6.416 6.416 0 0 1 1.285-.539c.062-.022.069-.022.118-.034h.014l.03-.011a7.27 7.27 0 0 1 .855-.146h.02c.207-.011.414-.022.622-.011.446 0 .892.067 1.323.18a5.826 5.826 0 0 1 1.465.64c.362.214.698.472 1.001.775a.163.163 0 0 1 .047.045c.148.146.289.303.419.461.307.393.562.809.757 1.258h-2.901v2.246z"/></svg>