<svg height="18" viewBox="0 0 13 18" width="13" xmlns="http://www.w3.org/2000/svg"><path d="m11.346 18h-9.706l-.557-12.706h10.834zm-1.596-10.588h-1.083l-.255 8.47h1.083zm-5.417 0h-1.083l.297 8.47h1.082zm1.626 8.47h1.084v-8.47h-1.084zm-2.707-13.202v-1.176c.01-.16.04-.308.097-.466a1.66 1.66 0 0 1 .93-.932 1.67 1.67 0 0 1 .513-.106h3.375c.19.01.376.042.554.106.428.17.772.519.93.932.061.17.091.338.099.508l-.001 1.133h2.15c.293 0 .572.116.778.317.207.202.323.477.323.763v.476h-13v-.519c0-.275.112-.54.31-.73.2-.201.47-.307.752-.307h2.19zm4.88 0c0-.36-.003-.73-.007-1.09h-3.25a179.421 179.421 0 0 1 -.003 1.09z" fill-rule="evenodd"/></svg>