<svg width="18" height="18" viewBox="0 0 18 18" xmlns="http://www.w3.org/2000/svg"><path fill-rule="evenodd" clip-rule="evenodd" d="M5.87 3.62a.45.45 0 0 0 .58.24h.1l.27.67.52-.53-.17-.41h.09A.45.45 0 0 0 7.51 3l-1-2.62a.45.45 0 0 0-.58-.24h-.1l-.27.11-.45.18a.45.45 0 0 0-.27.57l1.03 2.62ZM17 3.65a2.24 2.24 0 0 0-1.53.76L10.1 9.78l-.62-.62-.32-.81-.367-.883L12.73 3.53c1.29-1.3.77-2.58-.29-2.58a2.24 2.24 0 0 0-1.53.76L0 12.57l1.81 1.81 6-5.95.63.62.48.48.05.14.36.88-4.77 4.73 1.81 1.81L17.23 6.23c1.3-1.3.77-2.58-.23-2.58Zm-5.51-1.32a1.4 1.4 0 0 1 .9-.51c.12 0 .14 0 .15.07.01.07 0 .53-.49 1l-4.94 5-.57-.56 4.95-5Zm-5 6.13L4.7 10.25l-.57-.57L5.92 7.9l.57.56Zm-5.24 4.11 2.26-2.26.56.56-2.26 2.26-.56-.56Zm5.12 3.27-.56-.56L8.07 13l.56.56-2.26 2.28ZM9.25 13l-.56-.57 1.79-1.78.56.56L9.25 13Zm7.36-7.4-4.95 5-.56-.6 5-4.94a1.38 1.38 0 0 1 .9-.51c.12 0 .14 0 .15.07.01.07-.07.51-.54.98Zm-12.33.13a.45.45 0 0 0 .63 0L5 5.65l.33.35.46-.47-.33-.34.07-.07a.43.43 0 0 0 0-.63L3.58 2.41a.43.43 0 0 0-.63 0L2.33 3a.45.45 0 0 0 0 .63l1.95 2.1Zm10.45 7.63.47.47-.54.55 1.47 1.47-.48.47-1.47-1.47-.54.55-.47-.47.54-.55-1.68-1.69.47-.47 1.69 1.69.54-.55Zm-2.2 1.35.24.62-.71.29.78 1.93-.62.24-.78-1.92-.72.29-.25-.61.72-.3-.5-1.23.52-.51.6 1.49.72-.29Z"/></svg>
