<svg width="20" height="15" viewBox="0 0 20 15" xmlns="http://www.w3.org/2000/svg"><path d="M17.25 6.16A2.74 2.74 0 0 0 15 7.44a2.9 2.9 0 0 0-.79-.81c.088-.146.168-.296.24-.45A5.17 5.17 0 0 0 15 4a4 4 0 0 0-4-4 4.11 4.11 0 0 0-3.51 1.94A4.11 4.11 0 0 0 4 0a4 4 0 0 0-4 4 5.17 5.17 0 0 0 .57 2.14 16.259 16.259 0 0 0 3.76 4.54 39.763 39.763 0 0 0 3.16 2.64 39.499 39.499 0 0 0 3.15-2.63c.623.94 1.374 1.787 2.23 2.52.679.633 1.39 1.23 2.13 1.79a25.138 25.138 0 0 0 2.09-1.75 10.558 10.558 0 0 0 2.49-3c.23-.44.359-.924.38-1.42a2.67 2.67 0 0 0-2.71-2.67ZM10 10c-.81.76-1.64 1.47-2.48 2.12-.86-.67-1.7-1.38-2.52-2.12a15.06 15.06 0 0 1-3.53-4.23A4 4 0 0 1 1 4a3 3 0 0 1 3-3 3.12 3.12 0 0 1 2.65 1.48l.84 1.32.84-1.32A3.12 3.12 0 0 1 11 1a3 3 0 0 1 3 3 4.13 4.13 0 0 1-.47 1.71c-.08.16-.16.32-.25.48a2.32 2.32 0 0 0-.59-.07A2.66 2.66 0 0 0 10 8.83c.006.325.066.646.18.95L10 10Zm8.67-.16a9.999 9.999 0 0 1-2.27 2.7c-.46.42-.93.83-1.41 1.21-.47-.38-.95-.79-1.41-1.21A10.687 10.687 0 0 1 11.39 10a1.278 1.278 0 0 1-.11-.2A2.82 2.82 0 0 1 11 9a.767.767 0 0 1 0-.15 1.66 1.66 0 0 1 1.62-1.67 1.74 1.74 0 0 1 1 .32c.186.136.345.306.47.5L15 9.29 15.8 8a1.74 1.74 0 0 1 1.45-.82 1.67 1.67 0 0 1 1.67 1.67 2.5 2.5 0 0 1-.28.97l.03.02Z"/></svg>
