<svg width="18" height="18" viewBox="0 0 18 18" xmlns="http://www.w3.org/2000/svg"><path d="M15.26 6.72a3 3 0 1 0-2.51 0c-.148.05-.291.11-.43.18-.305.14-.59.318-.85.53a3 3 0 0 0-4.93 0 3.32 3.32 0 0 0-.84-.53l-.43-.17a3 3 0 1 0-2.51 0A4 4 0 0 0 0 10.5V14h4.28c.123-.352.287-.688.49-1H1v-2.5a3 3 0 0 1 3-3 2.9 2.9 0 0 1 1.25.28 3 3 0 0 1 .86.59 3.25 3.25 0 0 0-.11.77 3 3 0 0 0 1 2.22l.28.22.07.05.18.1.21.12A4 4 0 0 0 6 13l-.08.1-.22.27-.18.29c0 .08-.09.16-.13.24a.93.93 0 0 0-.05.1A3.9 3.9 0 0 0 5 15.64V18h8v-2.36a3.9 3.9 0 0 0-.37-1.64l-.21-.4-.13-.2-.23-.3L12 13a4.4 4.4 0 0 0-1-.8h-.09a4.265 4.265 0 0 0-.65-.29l.3-.17h.07l.14-.11.21-.16a3 3 0 0 0 1-2.23 3.18 3.18 0 0 0-.11-.77 3.21 3.21 0 0 1 .86-.59A2.93 2.93 0 0 1 14 7.5a3 3 0 0 1 3 3V13h-3.76c.2.313.36.649.48 1H18v-3.5a4 4 0 0 0-2.74-3.78ZM4 6a2 2 0 1 1 0-4 2 2 0 0 1 0 4Zm5 1.14a2 2 0 0 1 1.99 1.97 2.08 2.08 0 0 1-.07.5v.08a1.8 1.8 0 0 1-.16.38v.08c-.083.137-.18.264-.29.38a2 2 0 0 1-1.37.58 2 2 0 0 1-1-.29 1.68 1.68 0 0 1-.4-.3 1.44 1.44 0 0 1-.27-.34 1.614 1.614 0 0 1-.1-.18 1.66 1.66 0 0 1-.16-.44 1.54 1.54 0 0 1-.05-.31v-.14A.88.88 0 0 1 7 9a2.481 2.481 0 0 1 0-.27l.06-.2a2.44 2.44 0 0 1 .1-.24A2 2 0 0 1 9 7.14Zm3 8.5V17H6v-1.36A3 3 0 0 1 6.51 14c.096-.136.203-.263.32-.38l.11-.11c.096-.092.2-.175.31-.25l.12-.09.36-.19.14-.06A2.93 2.93 0 0 1 9 12.64a3 3 0 0 1 1.28.3l.31.16.15.1.29.24.13.12.2.24.15.2a3 3 0 0 1 .49 1.64ZM12 4a2 2 0 1 1 4 0 2 2 0 0 1-4 0Z"/></svg>
