<svg width="18" height="20" viewBox="0 0 18 20" xmlns="http://www.w3.org/2000/svg"><path d="M17.73.04C-1.633-.802 1.131 12.115 2.186 15.375c-.111.182-.244.364-.355.546A24.228 24.228 0 0 0 0 19.567L1.11 20c.43-1.22.965-2.398 1.599-3.522l.21-.363C21.25 16.615 17.73.039 17.73.039ZM3.63 14.898a25.26 25.26 0 0 1 1.188-1.681 34.002 34.002 0 0 1 5.55-5.453l-.51-.682a34.883 34.883 0 0 0-5.74 5.555c-.377.455-.743.932-1.11 1.42-.488-2.056-.932-5.68 1.01-8.52 1.944-2.84 6.306-4.43 12.656-4.306.211 1.931.356 6.442-2.342 9.725-2.143 2.636-5.762 3.953-10.702 3.942Z"/></svg>
