<svg width="21" height="15" viewBox="0 0 21 15" xmlns="http://www.w3.org/2000/svg"><path d="M19.66 7.45A12.51 12.51 0 0 0 16.77 6a13.288 13.288 0 0 0-.41-3.39l-.11-.41h-.42a12.82 12.82 0 0 0-3.17.82A13.579 13.579 0 0 0 10.31.3L10 .09l-.33.28a13.38 13.38 0 0 0-2.33 2.71 12.93 12.93 0 0 0-3.17-.82h-.43l-.11.41A13.82 13.82 0 0 0 3.22 6 13.33 13.33 0 0 0 .34 7.43L0 7.69l.18.38c.09.18 2.12 4.43 5.63 5.4.555.146 1.126.22 1.7.22h.68l.11.38.4-.07c.252-.023.502-.06.75-.11.12.12.2.18.22.2l.32.26.32-.26s.1-.08.22-.2c.251.05.505.086.76.11l.41.05.12-.38h.68c.574 0 1.145-.073 1.7-.22 3.51-1 5.54-5.22 5.63-5.4l.18-.38-.35-.22ZM15.5 3.32c.16.79.25 1.594.27 2.4.023.333.023.667 0 1a6.36 6.36 0 0 1-1 3.06 5.23 5.23 0 0 1-1.21 1.27 8.467 8.467 0 0 1-1.21.76c.326-.457.617-.938.87-1.44A7.25 7.25 0 0 0 14 7.23a6.29 6.29 0 0 0-.26-1.75A8.342 8.342 0 0 0 13.17 4a13.259 13.259 0 0 1 2.33-.68ZM10 1.43c.65.625 1.23 1.32 1.73 2.07.188.276.358.563.51.86.203.377.37.772.5 1.18.112.324.19.66.23 1 .04.235.06.472.06.71a5.6 5.6 0 0 1-.46 2.15c-.084.234-.184.46-.3.68l-.21.38c-.26.45-.554.877-.88 1.28l-.08.11c-.18.22-.35.41-.51.59l-.19.2-.17.17c-.073.068-.15.131-.23.19-.07-.06-.14-.14-.23-.23s-.1-.11-.17-.17l-.18-.2c-.16-.17-.34-.38-.51-.6l-.08-.1a11.377 11.377 0 0 1-.89-1.27l-.21-.39a6.801 6.801 0 0 1-.3-.67A5.69 5.69 0 0 1 7 7.23a4.17 4.17 0 0 1 0-.71 4.84 4.84 0 0 1 .24-1 6.85 6.85 0 0 1 .5-1.18 8.69 8.69 0 0 1 .51-.85A12.67 12.67 0 0 1 10 1.43ZM4.5 3.32c.8.151 1.584.379 2.34.68a7.61 7.61 0 0 0-.61 1.5 6 6 0 0 0-.22 1c-.015.25-.015.5 0 .75a7.12 7.12 0 0 0 .82 3.19c.256.507.553.992.89 1.45a7.634 7.634 0 0 1-1.23-.77 5.721 5.721 0 0 1-1.22-1.28 6.35 6.35 0 0 1-1-3.06 6.11 6.11 0 0 1 0-1 13 13 0 0 1 .23-2.46Zm1.57 9.18C3.58 11.81 1.85 9.06 1.28 8a13.12 13.12 0 0 1 2-1 7.28 7.28 0 0 0 1.11 3.3 7.26 7.26 0 0 0 2.66 2.29c-.329 0-.657-.03-.98-.09Zm7.87 0a5 5 0 0 1-1 .17 7.201 7.201 0 0 0 2.67-2.29 7.13 7.13 0 0 0 1.11-3.31c.694.276 1.363.61 2 1-.57.99-2.29 3.74-4.78 4.43Z"/></svg>
