<svg width="18" height="18" viewBox="0 0 18 18" xmlns="http://www.w3.org/2000/svg"><path fill-rule="evenodd" clip-rule="evenodd" d="M9.49 3V0h-1v3h1Zm-1 11.87V18h1v-3.13h-1ZM3 8.51a3.64 3.64 0 0 0 .08 1H0v-1h3Zm11.93 0c.01.143.01.287 0 .43.015.19.015.38 0 .57H18v-1h-3.07ZM2.28 15l2.2-2.19c.222.25.463.485.72.7L3 15.7l-.72-.7ZM15.71 3 15 2.3l-2.12 2.12c.246.224.48.461.7.71L15.71 3ZM3 2.3l2.11 2.12a6 6 0 0 0-.7.72L2.28 3 3 2.3Zm9.79 11.21L15 15.7l.72-.69-2.19-2.19c-.226.25-.474.482-.74.69ZM6.215 4.848a5 5 0 1 1 5.571 8.304 5 5 0 0 1-5.571-8.304Zm.55 7.412A4 4 0 0 0 9 12.91v-.02a4 4 0 0 0 3.95-3.98 4 4 0 1 0-6.186 3.35Z"/></svg>
