<svg width="22" height="14" viewBox="0 0 22 14" xmlns="http://www.w3.org/2000/svg"><path fill-rule="evenodd" clip-rule="evenodd" d="M8.394 2.89c0 1.596-1.409 2.89-3.148 2.89-1.738 0-3.148-1.294-3.148-2.89S3.508 0 5.246 0c1.739 0 3.148 1.294 3.148 2.89zm2.099 6.744V13.2H0V9.634c0-1.596 1.41-2.89 3.148-2.89h4.197c1.738 0 3.148 1.294 3.148 2.89zm10.645-6.056L19.183 2.57C18.831 1.35 17.63.448 16.199.448c-1.436 0-2.64.91-2.983 2.142l-1.918.989c-.436.225-.59.732-.346 1.133.246.4.798.543 1.235.318l1.166-.602a3.122 3.122 0 0 0 2.846 1.834 3.126 3.126 0 0 0 2.857-1.848l1.193.616c.437.225.99.083 1.235-.318.245-.4.09-.908-.346-1.133zm-4.826 3.893c.93 0 1.793-.26 2.51-.705h.012L21.25 13.2h-9.877l2.416-6.434h.013a4.75 4.75 0 0 0 2.51.705z"/></svg>