<svg xmlns="http://www.w3.org/2000/svg" width="18" height="19" viewBox="0 0 18 19"><path d="M4.884 12.35L3.767 6.669c-.075-.38.01-.779.231-1.093.223-.313.564-.522.945-.579l.464-.057a1.37 1.37 0 0 1 1.544 1.178c.181 1.293.45 3.198.61 4.332h2.97a.92.92 0 0 1 .91.921v6.679c0 .522-.419.95-.936.95a.945.945 0 0 1-.937-.931V12.35H4.884zm7.495.655l2.075 3.639a.963.963 0 0 1-.343 1.302.935.935 0 0 1-1.28-.352l-.452-.789v-3.8zM1.126 2.85c.251 0 .492.105.67.285.177.18.277.418.277.675v2.84l1.874 6.65h3.956a.94.94 0 0 1 .903 1.159l-.088.38a.475.475 0 0 1-.458.361H2.475a.507.507 0 0 1-.495-.399L.2 7.163l-.2-3.8a.486.486 0 0 1 .481-.513h.645zM4.884.95c.775 0 1.405.636 1.405 1.425S5.66 3.8 4.884 3.8a1.415 1.415 0 0 1-1.406-1.425c0-.789.63-1.425 1.406-1.425zM14.022 0C16.217 0 18 1.805 18 4.028c0 2.233-1.783 4.037-3.978 4.037-2.196 0-3.978-1.804-3.978-4.037C10.044 1.805 11.826 0 14.022 0zm2.104 5.178V1.9H12.86v.95h1.667l-2.61 2.647.662.671 2.61-2.646v1.656h.937z"/></svg>