<svg width="16" height="18" viewBox="0 0 16 18" xmlns="http://www.w3.org/2000/svg"><path d="M7.68 18c2.31 0 4.182-.274 4.182-.611 0-.338-1.872-.612-4.182-.612-2.31 0-4.182.274-4.182.611 0 .338 1.872.612 4.182.612z"/><path d="M.697 8.694H14.59l-2.58 8.377a.611.611 0 0 1-.832.489H3.84a.452.452 0 0 1-.44-.257L.697 8.693zM14.993 7.63l-.183.452H.5L.355 7.63h14.638zM15.25 7.018H.159L0 6.493c0-.514.245 0 .514 0h14.039a.562.562 0 0 0 .244-.062c.697-.379.673 0 .453.587z"/><path d="M3.424 3.068h8.879a3.13 3.13 0 0 1 3.13 3.131v.293H0a3.424 3.424 0 0 1 3.424-3.424zM12.184 2.437H3.25c0-1.388.945-2.435 2.08-2.435h4.724c1.187-.05 2.106.998 2.131 2.435z"/></svg>
