<svg width="18" height="16" viewBox="0 0 18 16" xmlns="http://www.w3.org/2000/svg"><path fill-rule="evenodd" clip-rule="evenodd" d="M9 11.796c-.755 0-1.45-.089-2.092-.236l.798-.796a4.438 4.438 0 0 0 5.736-4.244c0-.493-.085-.905-.234-1.253l.03-.03A9.63 9.63 0 0 1 16.456 8c-.724.99-3.151 3.796-7.456 3.796zM1.544 8A9.617 9.617 0 0 1 4.82 5.207c-.166.36-.261.79-.261 1.313 0 1.228.499 2.338 1.305 3.141l-1.102 1.103A9.639 9.639 0 0 1 1.544 8zM7.19 4.48a1.48 1.48 0 0 1 0 2.96 1.481 1.481 0 0 1-1.482-1.479c0-.817.664-1.48 1.482-1.48zm10.608 3.186c-.073-.124-1.245-2.023-3.603-3.384l2.009-2.006A1.04 1.04 0 1 0 14.73.804l-2.58 2.578A10.4 10.4 0 0 0 9 2.905C3.13 2.905.319 7.47.202 7.665L0 8l.202.335c.073.124 1.244 2.022 3.603 3.383l-2.009 2.007a1.039 1.039 0 0 0 .737 1.775c.266 0 .532-.102.736-.305l2.58-2.577c.93.293 1.98.476 3.151.476 5.87 0 8.681-4.565 8.798-4.76L18 8l-.202-.334z" /></svg>
