<svg xmlns="http://www.w3.org/2000/svg" width="15" height="11" viewBox="0 0 15 11"><path fill-rule="evenodd" d="M7.794.045a.38.38 0 0 0-.396.023L4.125 2.354c-.168.117-.368.18-.574.18H1.012A1.02 1.02 0 0 0 0 3.562v4.004a1.02 1.02 0 0 0 1.012 1.027H3.57c.197 0 .39.057.555.167l3.281 2.177a.39.39 0 0 0 .393.017A.39.39 0 0 0 8 10.61V.389a.39.39 0 0 0-.206-.344m-1.044 2L4.841 3.379a2.26 2.26 0 0 1-1.29.406H1.25v3.557h2.32c.441 0 .874.13 1.244.375L6.75 9zM9.558 3.558a.625.625 0 0 1 .884 0L12 5.116l1.558-1.558a.625.625 0 1 1 .884.884L12.884 6l1.558 1.558a.625.625 0 1 1-.884.884L12 6.884l-1.558 1.558a.625.625 0 1 1-.884-.884L11.116 6 9.558 4.442a.625.625 0 0 1 0-.884" clip-rule="evenodd"/></svg>
