<svg width="18" height="14" viewBox="0 0 18 14" xmlns="http://www.w3.org/2000/svg"><path d="M13.89.18a.59.59 0 0 1 .848 0A9.694 9.694 0 0 1 17.5 7c0 2.576-.98 4.997-2.762 6.82a.596.596 0 0 1-.425.18.595.595 0 0 1-.424-.18.625.625 0 0 1 0-.87A8.457 8.457 0 0 0 16.3 7a8.458 8.458 0 0 0-2.41-5.951.624.624 0 0 1 0-.869zM7.444 1.853a.357.357 0 0 1 .373-.021.367.367 0 0 1 .193.326v9.683a.37.37 0 0 1-.19.325.353.353 0 0 1-.368-.016L4.37 10.087a.936.936 0 0 0-.52-.158h-2.4A.962.962 0 0 1 .5 8.956V5.163c0-.537.426-.972.95-.972h2.384c.193 0 .38-.06.538-.172l3.072-2.166zM9.818 4.25a.591.591 0 0 1 .873-.026c1.497 1.53 1.497 4.02 0 5.551a.59.59 0 0 1-.82.028c-.266-.238-.242-.67.004-.93a2.746 2.746 0 0 0-.003-3.75c-.227-.24-.272-.624-.054-.872z"/><path d="M12.605 2.113a.593.593 0 0 0-.85 0 .627.627 0 0 0 0 .87c2.165 2.214 2.165 5.818 0 8.033a.627.627 0 0 0 0 .87.592.592 0 0 0 .85 0A6.946 6.946 0 0 0 14.584 7a6.947 6.947 0 0 0-1.98-4.887z"/></svg>
