<svg width="21" height="14" viewBox="0 0 21 14" xmlns="http://www.w3.org/2000/svg"><path d="M5 11.658a1 1 0 1 1 0 2 1 1 0 0 1 0-2zm10-2.36a1 1 0 1 1 0 2 1 1 0 0 1 0-2zm-1.93.53a1.82 1.82 0 0 0 0 1H3.29v-1zm4.93 0v.97h-1.07a1.68 1.68 0 0 0 .07-.5c0-.16-.025-.318-.07-.47H18zm-8-3.38a1 1 0 1 1 0 2 1 1 0 0 1 0-2zm7.49-3.62a2.55 2.55 0 1 1 0 5.09h-5.55c.04-.154.06-.312.06-.47a1.5 1.5 0 0 0 0-.37h5.49a1.72 1.72 0 1 0-1.72-1.71h-.83a2.55 2.55 0 0 1 2.55-2.54zM8 7.078a1.5 1.5 0 0 0 0 .37c0 .158.02.316.06.47H0v-.84zm-6-3.48a1 1 0 1 1 0 2 1 1 0 0 1 0-2zM11.505 0a2.54 2.54 0 0 1 .145 5.078H3.94a1.86 1.86 0 0 0 .06-.48 2 2 0 0 0 0-.35h7.54a1.72 1.72 0 1 0-1.71-1.71H9A2.54 2.54 0 0 1 11.505 0z"/></svg>