<svg width="18" height="18" viewBox="0 0 18 18" xmlns="http://www.w3.org/2000/svg"><path d="M9.374 1.92a5 5 0 0 1 3.77 1.37 6.46 6.46 0 0 1 1.48 4.19l-.05 1h1a1.35 1.35 0 0 1 1.44 1.49 1.46 1.46 0 0 1-1.31 1.6H3.084c-.48 0-2.07-.21-2.07-2.41 0-2 2-2.19 2.87-2.19h.13l1 .06V5.97a4.27 4.27 0 0 1 1.2-2.88 4.28 4.28 0 0 1 3.16-1.17m0-1a5.07 5.07 0 0 0-5.36 5.05h-.13c-.7 0-3.87.17-3.87 3.19a3.12 3.12 0 0 0 3.06 3.41h12.69a2.49 2.49 0 0 0 2.25-2.6 2.38 2.38 0 0 0-2.39-2.44s.28-6.61-6.25-6.61zm5.94 12.7l-2.91 4.3h-1.2l2.9-4.3h1.21zm-4.25 0l-2.9 4.3h-1.2l2.9-4.3h1.2zm-4.24 0l-2.89 4.3h-1.21l2.9-4.3h1.2z"/></svg>