<svg width="18" height="19" viewBox="0 0 18 19" xmlns="http://www.w3.org/2000/svg"><path d="M11 6.59l7 11.42H0L7 6.59h4zm-.56 1H7.56l-5.77 9.42h14.42l-5.77-9.42zM9.082 0l.258.01c5.444 0 5.78 4.906 5.791 5.904v.13l-.001.046a2.22 2.22 0 0 1 2.22 2.27 2.31 2.31 0 0 1-2.09 2.4h-.5l-.61-1h1.08a1.27 1.27 0 0 0 1.14-1.4 1.17 1.17 0 0 0-1.24-1.27h-1v-1a5.87 5.87 0 0 0-1.35-3.83 4.58 4.58 0 0 0-3.44-1.25 3.93 3.93 0 0 0-2.88 1.06 3.91 3.91 0 0 0-1.14 2.62v1l-1-.06h-.08c-.96 0-2.59.3-2.59 2 0 1.97 1.42 2.16 1.85 2.16h.35l-.6 1a2.86 2.86 0 0 1-2.6-3.1c0-2.84 2.95-3 3.59-3h.1a4.7 4.7 0 0 1 5-4.68z"/></svg>