<svg width="20" height="16" viewBox="0 0 20 16" xmlns="http://www.w3.org/2000/svg"><path d="M11.461 4.94l.259.01c5.435 0 5.77 4.947 5.781 5.953v.156l-.001.021a2.22 2.22 0 0 1 2.22 2.27 2.3 2.3 0 0 1-2.09 2.38H5.87a2.89 2.89 0 0 1-2.85-3.09c0-2.85 2.95-3 3.59-3h.11a4.7 4.7 0 0 1 5-4.69zm.259 1.01a3.7 3.7 0 0 0-4 3.68v1.1l-1-.15h-.11c-.96 0-2.59.29-2.59 2 0 1.96 1.42 2.15 1.86 2.15h11.7a1.26 1.26 0 0 0 1.14-1.38 1.17 1.17 0 0 0-1.21-1.31h-1v-1a5.89 5.89 0 0 0-1.35-3.84 4.58 4.58 0 0 0-3.44-1.25zm-9.2 1.78c.04.15.09.29.14.43.064.175.14.346.23.51l-2.54 1L0 8.73zM6 3.44a3 3 0 0 1 1.59.06c.325.082.633.221.91.41.23.143.442.314.63.51a4.33 4.33 0 0 0-.92.51.71.71 0 0 0-.13-.12 2.25 2.25 0 0 0-.91-.43 2.5 2.5 0 0 0-.82 0 2.19 2.19 0 0 0-.49.12 2.3 2.3 0 0 0-.44.23 2.46 2.46 0 0 0-.56.6 2.23 2.23 0 0 0-.4 1.72 3 3 0 0 0 .11.43c.065.174.152.339.26.49.146.214.329.4.54.55a1.8 1.8 0 0 0 .35.21 5.49 5.49 0 0 0-1.3.3l-.169-.178A3.43 3.43 0 0 1 3.62 7.81a1.69 1.69 0 0 1-.12-.44 3 3 0 0 1 0-1.57 2.45 2.45 0 0 1 .42-.91 2.94 2.94 0 0 1 1.14-1.1 2.35 2.35 0 0 1 .45-.22A2.09 2.09 0 0 1 6 3.44zM.55 3.37l2.44 1.1a4 4 0 0 0-.4.92L.14 4.29l.41-.92zM9.1.14l.91.41L8.91 3A3.18 3.18 0 0 0 8 2.57L9.1.14zM4.72 0l.91 2.48-.45.15a3.82 3.82 0 0 0-.46.21l-1-2.49 1-.35z"/></svg>