<svg width="20" height="13" viewBox="0 0 20 13" xmlns="http://www.w3.org/2000/svg"><path d="M10.133 0l.272.009c6.478 0 6.92 5.844 6.941 7.102v.192l-.001.046a2.65 2.65 0 0 1 2.66 2.72 2.76 2.76 0 0 1-2.51 2.88H3.415a3.46 3.46 0 0 1-3.4-3.78c0-3.36 3.52-3.55 4.3-3.55h.14a5.64 5.64 0 0 1 5.95-5.61zm.55.999l-.278.01a4.84 4.84 0 0 0-3.58 1.34 4.8 4.8 0 0 0-1.36 3.27v1.06l-1.06-.06h-.1c-1 0-3.3.25-3.3 2.55 0 2.6 2 2.77 2.44 2.78h14a1.72 1.72 0 0 0 1.56-1.88 1.61 1.61 0 0 0-1.66-1.76h-1v-1a7.26 7.26 0 0 0-1.67-4.74 5.7 5.7 0 0 0-4.27-1.56zm-.568 7.98a.77.77 0 0 1 .54.18.69.69 0 0 1 .19.53.68.68 0 0 1-.19.52.73.73 0 0 1-.54.2.78.78 0 0 1-.55-.19.7.7 0 0 1-.19-.53.69.69 0 0 1 .19-.53.78.78 0 0 1 .55-.18zm.25-4.92a2.08 2.08 0 0 1 1.34.42c.337.263.527.672.51 1.1a1.47 1.47 0 0 1-.21.8 2.88 2.88 0 0 1-.77.76 2.55 2.55 0 0 0-.51.45.66.66 0 0 0-.11.41v.25h-1.11v-.31a1.32 1.32 0 0 1 .17-.7 2.07 2.07 0 0 1 .63-.63c.22-.141.416-.317.58-.52a.77.77 0 0 0 .14-.44.47.47 0 0 0-.2-.41.93.93 0 0 0-.56-.15 3.2 3.2 0 0 0-1.44.42l-.46-.93a4 4 0 0 1 2-.52z"/></svg>