<svg width="19" height="18" viewBox="0 0 19 18" xmlns="http://www.w3.org/2000/svg"><path d="M14.094 12.725l-2.9 4.3h-1.21l2.9-4.3h1.21zm2.97 0l-2.9 4.3h-1.21l2.9-4.3h1.21zm-5.95 0l-2.9 4.3h-1.2l2.9-4.3h1.2zm-2.97 0l-2.9 4.3h-1.21l2.9-4.3h1.21zm-2.97 0l-2.9 4.3h-1.21l2.9-4.3h1.21zM9.114 0l.26.005c5.994 0 6.283 5.588 6.29 6.504v.126a2.39 2.39 0 0 1 2.4 2.44 2.49 2.49 0 0 1-2.31 2.6H3.064a3.12 3.12 0 0 1-3.05-3.41c0-3.02 3.17-3.19 3.87-3.19h.18a5.08 5.08 0 0 1 5.31-5.07zm.52.995l-.26.01a4.28 4.28 0 0 0-3.11 1.19 4.28 4.28 0 0 0-1.2 2.88v1.06l-1.1-.06h-.191c-.91.015-2.78.257-2.78 2.19 0 2.2 1.58 2.41 2.07 2.41h12.69a1.47 1.47 0 0 0 1.31-1.6 1.35 1.35 0 0 0-1.45-1.51h-1v-1a6.43 6.43 0 0 0-1.47-4.19 5 5 0 0 0-3.77-1.37z"/></svg>