<svg height="20" viewBox="0 0 16 20" width="16" xmlns="http://www.w3.org/2000/svg"><path d="m15.957 16.145c-.076 3.245-2.725 5.855-5.977 5.855-3.3 0-5.98-2.69-5.98-6 0-3.311 2.68-6 5.98-6 .56 0 1.102.076 1.615.221l-.5 1.907a3.988 3.988 0 0 0 -1.115-.159 4.025 4.025 0 0 0 -4.017 4.031c0 2.225 1.8 4.03 4.017 4.03a4.025 4.025 0 0 0 4.013-4.168c.655.097 1.31.189 1.964.284zm-2.673-10.146c.259.001 1.444.041 1.656.117l.418.151c.65.234 1.122.805 1.231 1.49.077.48.027.972-.145 1.427l-1.312 3.466 4.102.98a1.002 1.002 0 0 1 .732 1.233l-1.309 4.875a1 1 0 0 1 -.948.742h-.011a1 1 0 0 1 -.966-1.26l1.022-3.822-4.59-.677a1.503 1.503 0 0 1 -1.228-1.865l1.273-4.857h-2.734l-1.346 1.351a.992.992 0 0 1 -.693.293h-.012a.992.992 0 0 1 -.705-.293 1.003 1.003 0 0 1 0-1.414l1.982-1.697a.996.996 0 0 1 .646-.239h2.937zm3.423-3.999c.963 0 1.744.784 1.744 1.75s-.781 1.75-1.744 1.75a1.748 1.748 0 0 1 -1.744-1.75c0-.966.781-1.75 1.744-1.75z" fill-rule="evenodd" transform="translate(-4 -2)"/></svg>