<svg xmlns="http://www.w3.org/2000/svg" width="18" height="15" viewBox="0 0 18 15"><path d="m17.483 11.59-.88-6.15c-.13-.88-.2-1.41-.63-1.78-.42-.37-.93-.37-1.85-.37h-1.51V2.5c0-1.04 0-1.62-.44-2.06-.44-.44-1.02-.44-2.06-.44h-2.21c-1.05 0-1.62 0-2.06.44-.44.44-.44 1.02-.44 2.06v.79h-1.39c-.92 0-1.42 0-1.84.37-.42.36-.5.86-.63 1.77l-.9 6.15c-.17 1.18-.27 1.82.18 2.34.45.52 1.1.52 2.29.52h11.89c1.19 0 1.84 0 2.29-.52.45-.52.36-1.16.19-2.34v.01ZM6.413 2.51c0-.73 0-1.21.15-1.35.15-.14.63-.15 1.35-.15h2.21c.73 0 1.21 0 1.35.15.15.15.15.63.15 1.35v.79h-5.21v-.79Zm6.1 4.49h-7V6h7v1Z"/></svg>
