<svg xmlns="http://www.w3.org/2000/svg" viewBox="0 0 18 15" width="18" height="15"><path d="M15.703.168 16 1.41c.04.165.167.294.331.335l1.229.314c.219.056.219.367 0 .422l-1.229.313a.455.455 0 0 0-.33.335l-.298 1.244c-.053.224-.373.224-.425 0L14.98 3.13a.455.455 0 0 0-.33-.335l-1.23-.313c-.218-.057-.218-.368 0-.422l1.23-.314a.455.455 0 0 0 .33-.335l.298-1.243c.052-.224.372-.224.425 0ZM11.748.846l.164.686a.25.25 0 0 0 .182.184l.676.173c.12.03.12.201 0 .232l-.676.173a.254.254 0 0 0-.182.184l-.164.685c-.029.123-.204.123-.235 0l-.164-.685a.25.25 0 0 0-.182-.184l-.676-.173c-.12-.03-.12-.202 0-.232l.676-.173a.254.254 0 0 0 .182-.184l.164-.686c.029-.122.204-.122.235 0ZM16.583 7.836l-2.442-3a2.469 2.469 0 0 0-1.918-.913c-1.332 0-2.374.979-2.46 2.234-.008.136-.144.217-.27.173-.244-.083-.504-.099-.772-.097-.19 0-.378.027-.558.08a.199.199 0 0 1-.256-.167C7.78 4.919 6.75 3.923 5.46 3.923c-.745 0-1.45.335-1.919.913l-2.422 3a3.78 3.78 0 1 0 6.193 4.02.198.198 0 0 1 .298-.089 1.965 1.965 0 0 0 2.424-.131c.11-.097.278-.057.324.08a3.782 3.782 0 0 0 3.576 2.567 3.754 3.754 0 0 0 2.648-6.447ZM5.734 10.501a2.01 2.01 0 1 1-2.008-2.008c1.108 0 2.008.9 2.008 2.008Zm3.007.38a.75.75 0 1 1 .753-.752.771.771 0 0 1-.75.751H8.74Zm5.18 1.628a2.01 2.01 0 0 1 0-4.016 2.01 2.01 0 0 1 0 4.017Z"/></svg>
