<svg height="17" viewBox="0 0 18 17" width="18" xmlns="http://www.w3.org/2000/svg"><path d="m14.586 7.865a.562.562 0 0 1 -1.124 0v-2.539a.562.562 0 0 1 1.124 0zm-2.233 0a.562.562 0 0 1 -1.124 0v-2.539a.562.562 0 0 1 1.124 0zm-2.232 0a.563.563 0 0 1 -1.125 0v-2.539a.563.563 0 0 1 1.125 0zm-3.551-6.109c.09-.407.38-.64.813-.64h2.954c.501 0 .91.408.91.91v1.129h-3.05v-1.399zm.96 9.11h-3.138v-8.42h1.038v.693h1.123v-.693h.977zm9.535-2.209-.753-3.66a2.306 2.306 0 0 0 -2.26-1.842h-1.689v-1.203a1.955 1.955 0 0 0 -1.953-1.952h-3.027c-1.01 0-1.843.77-1.942 1.756h-1.738l-.006 1.4c-1.077.02-2 .783-2.217 1.841l-.752 3.66a.991.991 0 0 0 -.728.953v.056c0 .455.31.837.728.953l.752 3.66a2.306 2.306 0 0 0 2.26 1.842h10.312c1.095 0 2.04-.77 2.26-1.843l.752-3.659a.994.994 0 0 0 .728-.953v-.056a.992.992 0 0 0 -.728-.952z"/></svg>