<svg width="20" height="20" viewBox="0 0 20 20" xmlns="http://www.w3.org/2000/svg" xmlns:xlink="http://www.w3.org/1999/xlink"><defs><path id="baggage-dropoff-a" d="M2.465.262V2H.728V.262h1.737z"/><path id="baggage-dropoff-c" d="M17.45 0H.015v16.195H17.45V0z"/></defs><g fill-rule="evenodd"><path d="M1 19.13a.869.869 0 1 1 1.738 0 .869.869 0 0 1-1.738 0m2.621 0a.869.869 0 1 1 1.738 0 .869.869 0 0 1-1.738 0m2.621 0a.869.869 0 1 1 1.738 0 .869.869 0 0 1-1.738 0m2.622 0a.869.869 0 1 1 1.738 0 .869.869 0 0 1-1.738 0m2.621 0a.869.869 0 1 1 1.738 0 .869.869 0 0 1-1.738 0m2.621 0a.869.869 0 1 1 1.738 0 .869.869 0 0 1-1.738 0"/><g transform="translate(16 18)"><mask id="baggage-dropoff-b" fill="#fff"><use xlink:href="#baggage-dropoff-a"/></mask><path d="M.728 1.13a.869.869 0 1 1 1.737 0 .869.869 0 0 1-1.737 0" mask="url(#baggage-dropoff-b)"/></g><g transform="translate(1)"><mask id="baggage-dropoff-d" fill="#fff"><use xlink:href="#baggage-dropoff-c"/></mask><path d="M13.002 10.34H10.02V2.339h.987v.659h.998v-.66h.998v8.004zM9.4 2.999H6.45V1.855c0-.477.388-.864.864-.864h2.841c.418 0 .767.297.848.69H9.4v1.317zm5.914 13.197a2.142 2.142 0 0 0 2.136-2.136V5.132a2.14 2.14 0 0 0-2.11-2.134h-1.648V1.682h-1.69A1.857 1.857 0 0 0 10.154 0h-2.84a1.857 1.857 0 0 0-1.856 1.855v1.143H2.125A2.14 2.14 0 0 0 .016 5.132v8.926c0 1.176.961 2.137 2.135 2.137h13.162z" mask="url(#baggage-dropoff-d)"/></g></g></svg>
