<svg xmlns="http://www.w3.org/2000/svg" width="18" height="18" viewBox="0 0 18 18"><path d="M13.843 0c1.466 0 2.654 1.152 2.654 2.57v11.497a2.566 2.566 0 0 1-1.5 2.311v.787a.85.85 0 0 1-.861.835h-.715a.848.848 0 0 1-.862-.835v-.528H6.081v.528a.85.85 0 0 1-.862.835h-.714a.848.848 0 0 1-.862-.835v-.787a2.566 2.566 0 0 1-1.5-2.311V2.569C2.142 1.152 3.328 0 4.797 0h9.045zm1.493 8.997V2.74H3.205v6.625c0 .474.28.924.694 1.178.798.488 2.453 1.14 5.416 1.14 2.96 0 4.575-.783 5.372-1.37.423-.311.65-.802.65-1.316zm-3.084 5.486h2.83v-.782H12.25v.782h.001zm-8.694 0h2.83v-.782h-2.83v.782zM6.94.98c-.256 0-.464.24-.464.49 0 .247.208.488.464.488h4.762c.257 0 .465-.24.465-.488 0-.25-.208-.49-.465-.49H6.94zM1.313 6.425H.426C.19 6.425 0 6.275 0 6.092V2.61c0-.185.191-.335.426-.335h.887c.234 0 .425.15.425.335v3.483c0 .184-.19.333-.425.333zm15.642.743a.333.333 0 0 1-.34-.327V3.432a.328.328 0 0 1 .101-.232.34.34 0 0 1 .24-.095h.704a.34.34 0 0 1 .24.095c.063.061.1.145.1.232v3.409c0 .18-.152.327-.339.327h-.706z"/></svg>