<svg height="15" viewBox="0 0 18 15" width="18" xmlns="http://www.w3.org/2000/svg"><path d="m15 14.51c.96-.15 1.91-.38 2.84-.68 1.01-.32 1.99-.73 2.93-1.21.08-.04.15-.09.23-.13v5.01a1.499 1.499 0 0 1 -1.5 1.5h-15a1.499 1.499 0 0 1 -1.5-1.5v-5.01c.12.07.24.13.37.19.71.36 1.44.68 2.18.94 1.12.4 2.28.7 3.45.89v1.49h6zm-1-1.51v2h-4v-2zm-5-1v.99c-1-.18-1.99-.44-2.94-.78a17.71 17.71 0 0 1 -2.96-1.38c-.03-.02-.06-.05-.1-.07v-2.26a1.499 1.499 0 0 1 1.5-1.5h4.5v-2c0-.26.11-.52.29-.71.19-.18.45-.29.71-.29h4c.27 0 .52.11.71.29.18.19.29.45.29.71v2h4.5a1.499 1.499 0 0 1 1.5 1.5v2.26c-.26.16-.53.32-.8.46-.84.45-1.72.82-2.63 1.12-.84.28-1.7.5-2.57.65v-.99zm4.5-6.5h-3v1.5h3z" fill-rule="evenodd" transform="translate(-3 -4)"/></svg>