<svg height="19" viewBox="0 0 20 19" width="20" xmlns="http://www.w3.org/2000/svg"><path d="m9.95 7.843a3.922 3.922 0 0 0 0-7.843 3.923 3.923 0 0 0 -3.914 3.923 3.918 3.918 0 0 0 3.914 3.92m3.318 6.684c-.214.321-.642.642-1.178.642h-1.927v-.107c.427 0 .749-.32 1.07-.642l.716-1.01 1.347 1.08zm1.928-2.677-.704.977-1.22-.977zm4.4 5.068-2.344-1.879v-1.197a4.946 4.946 0 0 0 -4.931-4.932h-2.716l-7.942-6.366a1.022 1.022 0 1 0 -1.279 1.595l6.11 4.898c-2.19.501-3.838 2.47-3.838 4.805v3.614h14.342l1.32 1.058c.22.177.49.247.75.218a1.024 1.024 0 0 0 .528-1.814z"/></svg>