<svg xmlns="http://www.w3.org/2000/svg" width="6" height="21" viewBox="0 0 6 21"><path fill-rule="evenodd" d="M5.792 20.15s.21.005.208-.224c-.002-.19-.202-.22-.202-.22s-1.745-.207-2.227-.789c-.359-.433-.278-1.765-.29-3.383-.01-1.618.123-2.885.41-3.563.296-.695 1.398-2.256 1.535-4.061.212-2.78-.23-7.58-.23-7.58S4.374 0 3 0 1.004.33 1.004.33s-.442 4.8-.23 7.58c.137 1.805 1.24 3.366 1.535 4.061.287.678.42 1.945.41 3.563-.012 1.618.068 2.95-.292 3.383-.482.582-2.226.789-2.226.789s-.199.03-.201.22c-.002.229.206.224.206.224h5.586z"/></svg>