<svg xmlns="http://www.w3.org/2000/svg" width="24" height="24" viewBox="0 0 24 24"><path d="M7.707 3.24H7.63a.61.61 0 0 0-.61.611v2.815c0 .338.273.611.61.611h.077a.61.61 0 0 0 .61-.61V3.85a.61.61 0 0 0-.61-.611M16.272 3.24h-.077a.61.61 0 0 0-.61.611v2.815c0 .338.273.611.61.611h.077a.61.61 0 0 0 .61-.61V3.85a.61.61 0 0 0-.61-.611"/><path fill="#000" d="M21.99 8.15v-.044a2.775 2.775 0 0 0-2.772-2.771h-1.79v1.331c0 .633-.524 1.157-1.156 1.157h-.077a1.164 1.164 0 0 1-1.156-1.157V5.335H8.863v1.331c0 .633-.524 1.157-1.157 1.157H7.63a1.164 1.164 0 0 1-1.156-1.157V5.335H4.782a2.775 2.775 0 0 0-2.771 2.771v.044S2 8.237 2 8.292v9.558a2.913 2.913 0 0 0 2.913 2.913h14.174A2.913 2.913 0 0 0 22 17.85V8.28s-.01-.086-.01-.13m-2.903 10.89H4.913c-.654 0-1.2-.535-1.2-1.201v-7.441h16.563v7.44c0 .656-.535 1.201-1.2 1.201z"/><path fill="#000" fill-rule="evenodd" d="M13.036 11.582a.555.555 0 0 0-.777 0 .54.54 0 0 0 0 .769l1.822 1.802H8.55a.547.547 0 0 0-.55.543c0 .3.246.544.55.544h5.53l-1.822 1.802a.54.54 0 0 0 0 .769.553.553 0 0 0 .777 0l3.148-3.115z" clip-rule="evenodd"/></svg>
