<svg width="20" height="20" viewBox="0 0 20 20" xmlns="http://www.w3.org/2000/svg"><path d="M10 0C4.478 0 0 4.478 0 10c0 1.711.433 3.333 1.189 4.744L.2 18.434A1.114 1.114 0 0 0 1.567 19.8l3.689-.989A10.01 10.01 0 0 0 10 20c5.522 0 10-4.478 10-10S15.522 0 10 0Zm.667 14.344a.882.882 0 0 1-.223.367c-.11.1-.233.189-.377.233a1.009 1.009 0 0 1-.445.067c-.3.022-.6-.089-.822-.289-.1-.1-.178-.222-.233-.366a1.109 1.109 0 0 1-.056-.434c0-.144.011-.289.056-.422.055-.144.133-.267.233-.378.233-.189.522-.289.822-.266.3-.023.59.077.822.266.1.111.178.234.223.378a.915.915 0 0 1 .066.422.79.79 0 0 1-.066.422Zm1.81-5.822c-.466.722-1.021 1.167-1.577 1.59-.544.421-.5.977-.5.977a.863.863 0 0 1-.856.855.873.873 0 0 1-.866-.855v-.267c0-.91.655-1.51 1.544-2.1.89-.589 1.09-1.71.045-2-.623-.178-1.345.067-1.867.322a.843.843 0 0 1-1.122-.4.843.843 0 0 1 .366-1.122 4.858 4.858 0 0 1 1.5-.478c1.134-.166 2.112-.022 2.99.712.866.744.8 2.055.344 2.766Z"/></svg>
