<svg width="20" height="17" viewBox="0 0 20 17" xmlns="http://www.w3.org/2000/svg"><path fill-rule="evenodd" clip-rule="evenodd" d="M3.685 12.105a2.453 2.453 0 0 1-1.863.242 2.455 2.455 0 0 1-1.737-3.01 2.453 2.453 0 0 1 1.147-1.495S13.495.763 13.637.684a.453.453 0 0 1 .779-.463s2.374 4.105 2.458 4.258a.453.453 0 0 1-.78.463c-.204.116-12.41 7.163-12.41 7.163Zm11.963-7.947L14.09 1.463l-5.88 3.39h6.232l1.206-.695Z"/><path d="m15.858 6.658-1.59 2.752a1.919 1.919 0 1 0 3.321 0L16 6.663c-.026-.063-.11-.063-.142-.005ZM17.79 13.379a1.893 1.893 0 0 1-.506.91 1.918 1.918 0 0 1-2.71 0 1.936 1.936 0 0 1-.505-.91H.01v2.936H20v-2.937h-2.21Z"/></svg>
