<svg xmlns="http://www.w3.org/2000/svg" width="22" height="16" viewBox="0 0 22 16"><path d="M20.5.5h-19c-.55 0-1 .45-1 1v13c0 .55.45 1 1 1h19c.55 0 1-.45 1-1v-13c0-.55-.45-1-1-1m0 14h-19v-13h19z"/><path d="m10.079 9.566.8.723c-.645.755-1.545 1.355-2.867 1.355C6 11.644 4.3 10.222 4.3 8.1c0-1.934 1.6-3.412 3.655-3.412 1.134 0 2.056.5 2.767 1.223l-.789.755a2.59 2.59 0 0 0-1.967-.91c-1.41 0-2.488 1.01-2.488 2.344 0 1.522 1.166 2.466 2.51 2.466.89 0 1.59-.378 2.09-1M16.74 9.566l.8.723c-.644.755-1.544 1.355-2.866 1.355-2.01 0-3.71-1.422-3.71-3.544 0-1.934 1.6-3.412 3.655-3.412 1.133 0 2.055.5 2.766 1.223l-.789.755a2.59 2.59 0 0 0-1.966-.91c-1.411 0-2.49 1.01-2.49 2.344 0 1.522 1.168 2.466 2.512 2.466.889 0 1.589-.378 2.089-1"/></svg>
