<svg xmlns="http://www.w3.org/2000/svg" width="22" height="16" viewBox="0 0 22 16"><path d="M19.52.5H2.5C1.56.5 1.09.5.79.79.5 1.08.5 1.55.5 2.5v11c0 .94 0 1.41.29 1.71s.76.29 1.71.29h17.02c.94 0 1.41 0 1.71-.29.29-.29.29-.76.29-1.71v-11c0-.94 0-1.41-.29-1.71C20.94.5 20.47.5 19.52.5M7.81 11.41c-.65 0-1.24-.15-1.76-.43C5 10.4 4.36 9.32 4.36 7.97c0-.64.15-1.21.46-1.72.6-1.01 1.7-1.6 2.95-1.6q1.635 0 2.61 1.2l-.72.68c-.45-.58-1.12-.93-1.9-.93-.43 0-.82.1-1.18.3-.72.4-1.17 1.13-1.17 2.07 0 .5.11.93.32 1.31.43.75 1.2 1.18 2.06 1.18s1.49-.34 1.94-1.02l.73.62c-.6.86-1.49 1.35-2.66 1.35zm7.13 0c-.65 0-1.24-.15-1.76-.43-1.05-.58-1.69-1.66-1.69-3.01 0-.64.15-1.21.46-1.72.6-1.01 1.7-1.6 2.95-1.6q1.635 0 2.61 1.2l-.72.68c-.45-.58-1.12-.93-1.9-.93-.43 0-.82.1-1.18.3-.72.4-1.17 1.13-1.17 2.07 0 .5.11.93.32 1.31.43.75 1.2 1.18 2.06 1.18s1.49-.34 1.94-1.02l.73.62c-.6.86-1.49 1.35-2.66 1.35z"/></svg>
