<svg xmlns="http://www.w3.org/2000/svg" width="12" height="20" viewBox="0 0 12 20">
    <path fill-rule="evenodd" d="M11.484.293a.424.424 0 0 1-.194.5l-.078.034-2.432.791-.262 3.198h1.83c.392 0 .717.292.769.67l.007.105-.002.033-1.053 13.512a.777.777 0 0 1-.671.749l-.104.007H1.83a.777.777 0 0 1-.765-.653l-.01-.103L0 5.59c0-.392.292-.717.67-.768l.105-.007h6.892l.29-3.548a.424.424 0 0 1 .215-.335l.077-.034 2.7-.878a.424.424 0 0 1 .535.272zM3.859 14.83a1.296 1.296 0 0 0-.463.007 2.268 2.268 0 0 0-.686.25c.18.03.333.214.419.342.087.131.17.251.27.349.097.095.21.17.312.225.18.097.49.106.758.061a.616.616 0 0 0 .11-.224.833.833 0 0 0-.326-.848 1.001 1.001 0 0 0-.394-.162zm3.49-3.562l-.33.005c-.433.034-.86.094-1.228.268a2.728 2.728 0 0 0-.941.676 2.176 2.176 0 0 0-.476.912c-.153.625-.038 1.187.14 1.533.052.105.092.171.113.204l.016.024c.262-.916.651-1.56 1.198-2.079.734-.696 1.375-.861 1.375-.861s-1.719 1.337-2.242 3.08c-.173.58-.344 1.49-.448 2.526.04.03.302.131.403.199.112-1.555.336-2.408.384-2.607.036.003.058.007.175 0 .39-.025.904-.22 1.424-.594.25-.19.49-.479.686-.79.203-.32.349-.691.499-1.092.145-.392.268-.741.915-1.16a6.907 6.907 0 0 0-.672-.152 6.2 6.2 0 0 0-1.32-.087l.328-.005zm.249-5.604H.855l.251 3.222h6.229l.263-3.222zm2.67 0H8.45l-.263 3.222h1.831l.251-3.222z"/>
</svg>
