<svg xmlns="http://www.w3.org/2000/svg" width="14" height="16" viewBox="0 0 14 16">
    <path fill-rule="evenodd" d="M12.133 1.88c.223 0 .403.185.403.41 0 .227-.18.411-.403.411H1.867c-.223 0-.403-.184-.403-.41 0-.226.18-.41.403-.41h10.266zM11.003 0c.174 0 .316.184.316.41 0 .227-.142.41-.315.41H2.996c-.174 0-.314-.183-.314-.41 0-.226.14-.41.314-.41h8.008zM14 5.42v8.92c0 .917-.73 1.66-1.632 1.66H1.631C.73 16 0 15.257 0 14.34V5.42c0-.916.73-1.658 1.63-1.658h10.738c.901 0 1.632.742 1.632 1.658zm-3.76 5.448c.222-.224.222-.59 0-.814-.22-.225-.579-.225-.8 0L7.566 11.96V6.174c0-.318-.253-.575-.565-.575-.312 0-.566.257-.566.575v5.786l-1.875-1.906c-.221-.225-.58-.225-.8 0-.11.112-.166.259-.166.407 0 .148.056.295.166.407L7 14.163l3.24-3.295z"/>
</svg>
