<svg width="20" height="16" viewBox="0 0 20 16" xmlns="http://www.w3.org/2000/svg"><path d="M.588 12.089 0 12.498l1.76 2.527.587-.409-1.76-2.527ZM14.094 2.974l-.458.318 1.489 2.139.457-.319-1.488-2.138ZM19.93 1.459l-.9-1.295a.38.38 0 0 0-.53-.095l-.306.216a.997.997 0 0 1-1.332.926L14.604 2.78l1.337 1.926L18.2 3.138a.997.997 0 0 1 1.332-.927l.305-.216a.387.387 0 0 0 .095-.536ZM17.195 3.01l-.716.495a.41.41 0 0 1-.568-.1l-.106-.147a.41.41 0 0 1 .1-.569l.716-.494a.41.41 0 0 1 .569.1l.105.147a.406.406 0 0 1-.1.568ZM1.025 11.786l1.758 2.526 12.042-8.38-1.758-2.526-12.042 8.38Zm11.106-4.8a.869.869 0 0 1-1.206-.217.869.869 0 0 1 .216-1.205.869.869 0 0 1 1.205.216.874.874 0 0 1-.216 1.205Z"/></svg>
