<svg xmlns="http://www.w3.org/2000/svg" width="16" height="19" viewBox="0 0 16 19"><path d="M14.5 19h-13C.67 19 0 18.33 0 17.5v-16C0 .67.67 0 1.5 0h9.21L16 5.29V17.5c0 .83-.67 1.5-1.5 1.5M1.5 1c-.28 0-.5.22-.5.5v16c0 .28.22.5.5.5h13c.28 0 .5-.22.5-.5V5.71L10.29 1z"/><path d="M10.92 8.19c-.29-.54-.68-.95-1.2-1.25-.51-.29-1.1-.44-1.77-.44s-1.25.15-1.78.45c-.52.29-.93.71-1.23 1.24-.29.53-.44 1.14-.44 1.82s.15 1.29.46 1.82.75.94 1.3 1.25q.84.45 1.95.45c.57 0 1.09-.1 1.55-.29.47-.19.86-.47 1.17-.83l-.69-.81c-.25.28-.55.49-.88.62-.33.14-.7.21-1.1.21-.49 0-.93-.1-1.31-.3s-.68-.48-.9-.83c-.15-.27-.23-.57-.27-.88h5.57c0-.06.01-.13.01-.2s.01-.13.01-.18c0-.71-.15-1.33-.44-1.86zM6.8 7.85c.34-.2.72-.3 1.16-.3s.83.1 1.16.3c.34.19.6.46.79.81.14.26.21.56.24.87H5.76c.04-.31.11-.6.25-.86.19-.36.46-.63.79-.82"/></svg>
