<svg width="9" height="22" viewBox="0 0 9 22" xmlns="http://www.w3.org/2000/svg"><path d="M4.937 2.538 1.584.037a.178.178 0 0 0-.278.087L.01 4.095c-.046.14.087.273.226.232l4.65-1.47c.138-.047.173-.232.052-.319ZM6.946 17.54a.264.264 0 0 0-.336-.174.269.269 0 0 0-.174.336l1.291 4.11c.047.145.197.22.336.174a.269.269 0 0 0 .174-.335L6.946 17.54ZM8.96 19.439l-.735-2.299a.269.269 0 0 0-.336-.174.269.269 0 0 0-.173.336l.735 2.299c.046.139.197.22.336.174a.26.26 0 0 0 .174-.336ZM5.66 17.933a.269.269 0 0 0-.335-.173.264.264 0 0 0-.174.336l1.17 3.711c.046.145.196.22.335.174a.264.264 0 0 0 .174-.336l-1.17-3.712ZM4.873 3.76.669 5.09l1.326 4.17 3.428-3.759-.55-1.742ZM5.724 6.458l-3.428 3.757L3.35 13.54l3.434-3.752-1.06-3.33ZM7.085 10.736l-3.428 3.758.863 2.727 4.197-1.331-1.632-5.154Z"/></svg>
