<svg width="14" height="20" viewBox="0 0 14 20" xmlns="http://www.w3.org/2000/svg"><path d="M10.833 11.173c-1.01 1.2-2.428.419-4.375-1.227C4.921 8.654 4.275 7.363 4.44 5.962c.127-1.036.982-1.864 2.028-1.855 1.046.01 2.356.573 3.448 1.664 1.946 1.928 1.928 4.202.918 5.402Zm-5.166 5.739c-.482 1.436-1.5 3.519-3.51 3.01-1.52-.382-2.448-1.883-2.075-3.356.373-1.473 1.901-2.346 3.42-1.955 1.52.39 2.71.682 2.165 2.3Z"/><path d="m4.621 7.563.182.982v.018L4.939 9.6v.018l.037.728v.018l-.037.51c0 .1-.027.208-.045.308l-.146.591c-.1.382-.254.746-.454 1.074 0 0-.173.218-.191.236l-.428.346-1.355.864s-.719.472-.728.472c-.163.1.11.164.282.255l3.693 2.164.464-1.018v-.018l.327-.564.282-.455.31-.39.381-.41h.01l.609-.555h.01l.745-.573.655-.482.445-.373.21-.19.418-.474.264-.363-.055-.273-5.584-3.374c-.191-.118-.5-.355-.455-.136l.018.027ZM6.622 1.18c-.21.808-.055 1.836.637 2.009.937.236 1.646-.564 1.855-1.373.21-.81-.182-1.61-.873-1.783C7.55-.14 6.831.38 6.622 1.188V1.18Zm2.665 1.3c-.291.6-.164 1.264.3 1.49.464.228 1.064-.08 1.364-.681.3-.6.464-1.228-.3-1.492-.482-.172-1.064.082-1.364.683Zm1.601 1.382c-.282.454-.491 1 .145 1.218.4.137.873.037 1.155-.418.282-.455.21-1-.145-1.219-.355-.218-.873-.036-1.155.419Zm1.028 1.482c-.246.282-.355.437-.355.71a.5.5 0 0 0 .336.481c.373.119.892.091 1.146-.19.328-.373.346-.9.037-1.174-.31-.273-.828-.2-1.164.173Zm1.264 2.719c-.346.21-.773.137-.946-.154-.31-.619-.037-.7.318-.91.355-.209.773-.136.946.155.173.29.037.7-.318.91Z"/></svg>
