<svg width="10" height="18" viewBox="0 0 10 18" xmlns="http://www.w3.org/2000/svg"><path d="M8.429 3.72V1.28h.07c.34 0 .64-.26.64-.64S8.878 0 8.498 0h-6.96C1.2 0 .9.26.9.64s.26.64.64.64h.07v2.44C.67 4.17 0 5.11 0 6.24v5.9h9.998v-5.9c.04-1.09-.64-2.07-1.57-2.52Zm-.97-.26h-1.87v-.79H6c.15 0 .26-.11.26-.26 0-.15-.11-.26-.26-.26h-1.91c-.15 0-.26.11-.26.26 0 .15.11.26.26.26h.37v.79H2.62V1.28h4.83v2.18h.01ZM0 14.47c0 1.16.71 2.14 1.69 2.55v.49c0 .26.22.49.49.49h5.619c.26 0 .49-.22.49-.49v-.49c1.01-.41 1.69-1.43 1.69-2.55v-1.46H0v1.46Z"/></svg>
