<svg width="14" height="18" viewBox="0 0 14 18" xmlns="http://www.w3.org/2000/svg"><path d="M13.211 0a.523.523 0 0 1 .283.514 1.583 1.583 0 0 1-.685 1.481.266.266 0 0 0-.06.189v1.78A5.025 5.025 0 0 1 11.695 6.8a14.632 14.632 0 0 1-1.712 1.713c-.171.171-.36.334-.557.505.3.266.583.514.857.77.462.446.95.857 1.37 1.354a4.436 4.436 0 0 1 1.079 2.492c.077.702.051 1.421.068 2.132a.324.324 0 0 0 .154.308 1.428 1.428 0 0 1 .591 1.122c.009.128.009.257 0 .385 0 .275-.145.411-.428.42H.572c-.445 0-.54-.111-.557-.548A1.567 1.567 0 0 1 .7 16.005a.266.266 0 0 0 .06-.223v-1.781a5.138 5.138 0 0 1 1.062-2.835 15.006 15.006 0 0 1 1.756-1.712l.556-.471c-.29-.266-.582-.514-.856-.77-.463-.446-.95-.857-1.37-1.354-.606-.7-.98-1.57-1.07-2.492C.76 3.665.76 2.99.76 2.235a.343.343 0 0 0-.154-.308 1.447 1.447 0 0 1-.6-1.14V.515A.47.47 0 0 1 .29 0h12.922ZM9.95 6.268c.367-.19.666-.49.856-.856.565-.993.454-2.929.454-4.008H2.267v2.321A3.537 3.537 0 0 0 3.39 6.294l6.56-.026ZM5.667 9.634l-2.115 1.918a7.21 7.21 0 0 0-.368.625h7.201a2.346 2.346 0 0 0-.274-.454c-.736-.702-1.507-1.379-2.269-2.064" /></svg>
