<svg xmlns="http://www.w3.org/2000/svg" width="24" height="24" viewBox="0 0 24 24"><path d="M21.02 10.003c-.446-.672-1.06-1.151-1.751-1.151l-4.494-.004a.951.951 0 0 1-.95-.951V3.049A1.05 1.05 0 0 0 12.774 2c-.765 0-1.43.527-1.604 1.272l-.459 1.959a11.573 11.573 0 0 1-1.898 4.15l-.678.937a2.432 2.432 0 0 0-.463 1.428v9.514c0 .409.331.74.74.74h6.558a3.497 3.497 0 0 0 3.107-1.894l3.132-6.075c.66-1.28.61-2.828-.187-4.027l-.002-.001ZM2.496 11.826v9.303c0 .481.39.87.87.87H5.98a.87.87 0 0 0 .87-.87v-9.303a.87.87 0 0 0-.87-.87H3.366a.87.87 0 0 0-.87.87Z"/></svg>
