<svg xmlns="http://www.w3.org/2000/svg" width="22" height="22" viewBox="0 0 22 22"><path d="M7.542 21.01h6.56c1.5 0 2.86-.83 3.55-2.16l3.13-6.08c.75-1.46.67-3.2-.21-4.53-.59-.89-1.36-1.38-2.17-1.38h-4.49c-.25 0-.45-.21-.45-.46V1.55c0-.85-.7-1.55-1.55-1.55-1 0-1.86.68-2.09 1.66l-.46 1.96a10.96 10.96 0 0 1-1.82 3.97l-.68.93c-.37.5-.56 1.1-.56 1.72v9.53c0 .68.56 1.24 1.24 1.24Zm-.24-10.76c0-.41.13-.8.37-1.14l.68-.93c.95-1.31 1.61-2.76 1.98-4.33l.46-1.96c.12-.52.58-.89 1.12-.89.3 0 .55.25.55.55V6.4c0 .8.65 1.45 1.45 1.45h4.49c.62 0 1.11.58 1.34.93.69 1.03.75 2.38.16 3.52l-3.13 6.08c-.52 1-1.54 1.62-2.66 1.62h-6.56c-.13 0-.24-.11-.24-.24v-9.51h-.01ZM1.372 9.05h2.61c.76 0 1.37.61 1.37 1.37v9.3c0 .76-.61 1.37-1.37 1.37h-2.61c-.76 0-1.37-.61-1.37-1.37v-9.3c0-.76.61-1.37 1.37-1.37Zm2.61 11.04c.2 0 .37-.17.37-.37v-9.3c0-.2-.17-.37-.37-.37h-2.61c-.2 0-.37.17-.37.37v9.3c0 .2.17.37.37.37h2.61Z"/></svg>
