<svg xmlns="http://www.w3.org/2000/svg" width="17" height="15" viewBox="0 0 17 15"><path fill-rule="evenodd" d="M9.236 12.362a.638.638 0 0 1-.638.638H7.405a.639.639 0 0 1-.637-.638v-2.128h-2.13A.638.638 0 0 1 4 9.596V8.404c0-.352.286-.638.638-.638h2.13V5.638c0-.352.285-.638.637-.638h1.193c.353 0 .638.286.638.638v2.128h2.13c.352 0 .638.286.638.638v1.192a.639.639 0 0 1-.638.638h-2.13v2.128zM5.904 1.702c0-.437.355-.793.792-.793H9.3c.437 0 .793.356.793.794V2.75h-4.19V1.703zm5.099 1.05v-1.05C11.003.765 10.239 0 9.3 0H6.696c-.938 0-1.702.764-1.702 1.703V2.75H1.936A1.965 1.965 0 0 0 0 4.71l.04 8.33C.04 14.119.923 15 2 15h12.077c1.079 0 1.96-.882 1.96-1.96l-.04-8.33c0-1.07-.87-1.946-1.936-1.959h-3.058z"/></svg>