<svg width="24" height="24" viewBox="0 0 24 24" xmlns="http://www.w3.org/2000/svg">
<path fill-rule="evenodd" clip-rule="evenodd" d="M2.07576 20.1908L11.5784 3.29735C11.8014 2.90088 12.3722 2.90088 12.5952 3.29735L22.0978 20.1908C22.3165 20.5797 22.0355 21.0602 21.5894 21.0602H2.58418C2.13803 21.0602 1.85703 20.5797 2.07576 20.1908ZM11.4119 9.75182C11.4119 9.38282 11.7179 9.07682 12.0869 9.07682C12.4559 9.07682 12.7619 9.38282 12.7619 9.75182V14.7018C12.7619 15.0708 12.4559 15.3768 12.0869 15.3768C11.7179 15.3768 11.4119 15.0708 11.4119 14.7018V9.75182ZM12.0869 18.7518C11.5919 18.7518 11.1869 18.3468 11.1869 17.8518C11.1869 17.3568 11.5919 16.9518 12.0869 16.9518C12.5819 16.9518 12.9869 17.3568 12.9869 17.8518C12.9869 18.3468 12.5819 18.7518 12.0869 18.7518Z"/>
</svg>
