<svg xmlns="http://www.w3.org/2000/svg" width="24" height="24" viewBox="0 0 24 24"><path d="M21.54 8.46A13.413 13.413 0 0 0 12 4.5c-3.6 0-6.99 1.41-9.54 3.96-.2.2-.2.51 0 .71.2.2.51.2.71 0a12.42 12.42 0 0 1 8.84-3.66c3.34 0 6.47 1.3 8.84 3.66a.485.485 0 0 0 .7 0c.2-.2.2-.51 0-.71h-.01Z"/><path d="M12 8.5c-2.53 0-4.92.99-6.71 2.79-.2.2-.2.51 0 .71.2.2.51.2.71 0a8.433 8.433 0 0 1 6.01-2.49c2.27 0 4.4.89 6.01 2.49a.485.485 0 0 0 .7 0c.2-.2.2-.51 0-.71a9.427 9.427 0 0 0-6.71-2.79H12ZM12 12.5c-1.46 0-2.85.57-3.89 1.6-.2.19-.2.51 0 .71.19.2.51.2.71 0a4.512 4.512 0 0 1 6.38 0c.1.1.22.14.35.14.13 0 .26-.05.36-.15.19-.2.19-.51 0-.71a5.528 5.528 0 0 0-3.89-1.6l-.02.01ZM12 19.75a1.75 1.75 0 1 0 0-3.5 1.75 1.75 0 0 0 0 3.5Z"/></svg>
