<svg xmlns="http://www.w3.org/2000/svg" width="24" height="24" viewBox="0 0 24 24"><path d="M9.05 22.06s-.07 0-.1-.01a.493.493 0 0 1-.36-.31l-1.76-4.57-4.57-1.76a.511.511 0 0 1-.31-.36c-.04-.17.02-.34.14-.46l1.47-1.47a.51.51 0 0 1 .35-.15h4.2l2.98-2.98L2.26 6.6a.511.511 0 0 1-.31-.36c-.04-.17.02-.34.14-.46l1.47-1.47c.11-.11.26-.16.42-.14l11.51 1.44 2.76-2.76c.31-.31 1.13-.91 1.99-.91.49 0 .93.19 1.28.54.35.35.54.8.54 1.28 0 .86-.59 1.68-.91 2l-2.76 2.76 1.44 11.51c.02.15-.03.31-.14.42l-1.47 1.47c-.12.12-.29.17-.46.14a.493.493 0 0 1-.36-.31L14 12.92l-2.98 2.98v4.2c0 .13-.05.26-.15.35L9.4 21.92a.51.51 0 0 1-.35.15v-.01Zm-5.71-7.3 4.06 1.56c.13.05.24.16.29.29l1.56 4.06.78-.78v-4.2c0-.13.05-.26.15-.35l3.67-3.67c.12-.12.29-.17.46-.14.17.04.3.15.36.31l3.4 8.83.75-.75-1.44-11.51c-.02-.15.03-.31.14-.42l2.94-2.94c.2-.2.61-.78.61-1.29 0-.22-.08-.41-.25-.58a.773.773 0 0 0-.58-.25c-.51 0-1.09.41-1.29.61l-2.94 2.94c-.11.11-.26.17-.42.14L4.08 5.18l-.75.75 8.83 3.4c.16.06.27.2.31.36.04.17-.02.34-.14.46l-3.67 3.67a.51.51 0 0 1-.35.15h-4.2l-.78.78.01.01Z"/></svg>
