<svg width="24" height="24" viewBox="0 0 24 24" xmlns="http://www.w3.org/2000/svg">
<path d="M21.5 11.5H3.71485L10.8613 4.35351C11.0566 4.1582 11.0566 3.84179 10.8613 3.64648C10.666 3.45117 10.3496 3.45117 10.1543 3.64648L2.17108 11.6297C2.06793 11.7213 2 11.8511 2 12C2 12.1489 2.06793 12.2788 2.17108 12.3703L10.1543 20.3535C10.252 20.4512 10.3799 20.5 10.5078 20.5C10.6357 20.5 10.7637 20.4512 10.8613 20.3535C11.0566 20.1582 11.0566 19.8418 10.8613 19.6465L3.71486 12.5H21.5C21.7764 12.5 22 12.2764 22 12C22 11.7236 21.7764 11.5 21.5 11.5Z"/>
</svg>
