<svg width="24" height="24" viewBox="0 0 24 24" xmlns="http://www.w3.org/2000/svg">
<path d="M20.7891 3.0918C20.6562 2.99903 20.4873 2.97559 20.334 3.02832L14.833 4.96973L9.33299 3.02832C9.32475 3.02545 9.31584 3.0307 9.30748 3.02832C9.26207 3.01477 9.21684 3 9.16698 3C9.11712 3 9.07189 3.01477 9.02648 3.02832C9.01812 3.0307 9.00921 3.02545 9.00097 3.02832L3.33398 5.02832C3.13378 5.09863 3 5.28809 3 5.5V20.5C3 20.6621 3.0791 20.8144 3.21094 20.9082C3.29688 20.9688 3.39746 21 3.5 21C3.55566 21 3.6123 20.9902 3.66602 20.9717L9.167 19.0303L14.667 20.9717C14.6752 20.9746 14.6842 20.9693 14.6925 20.9717C14.7379 20.9852 14.7831 21 14.833 21C14.8829 21 14.9281 20.9852 14.9735 20.9717C14.9819 20.9693 14.9908 20.9746 14.999 20.9717L20.666 18.9717C20.8662 18.9014 21 18.7119 21 18.5V3.5C21 3.33789 20.9209 3.18555 20.7891 3.0918ZM9.66698 4.20679L14.333 5.85376V19.7932L9.66698 18.1462V4.20679ZM3.99999 5.85352L8.66698 4.20673V18.1462L3.99999 19.793V5.85352ZM20 18.1465L15.333 19.7933V5.85382L20 4.20703V18.1465Z"/>
</svg>
