<svg width="24" height="24" viewBox="0 0 24 24" xmlns="http://www.w3.org/2000/svg">
<path d="M19.2667 19.8617C19.3434 19.9481 19.4543 19.9914 19.5652 19.9914L19.5737 20C19.676 20 19.7869 19.9568 19.8722 19.8703C20.0428 19.6975 20.0428 19.4295 19.8722 19.2566L12.708 11.9957L19.8722 4.74338C20.0428 4.5705 20.0428 4.30254 19.8722 4.12966C19.7016 3.95678 19.4372 3.95678 19.2667 4.12966L11.9959 11.4902L4.73348 4.12966C4.5629 3.95678 4.29851 3.95678 4.12793 4.12966C3.95736 4.30254 3.95736 4.57051 4.12793 4.74339L11.2921 11.9957L4.12793 19.2566C3.95736 19.4295 3.95736 19.6975 4.12793 19.8703C4.20469 19.9568 4.31557 20 4.42644 20H4.43497C4.53731 20 4.64819 19.9568 4.73348 19.8703L12.0043 12.5013L19.2667 19.8617Z"/>
</svg>
