<svg xmlns="http://www.w3.org/2000/svg" width="24" height="24" viewBox="0 0 24 24"><path d="M20.96 16.42A9.919 9.919 0 0 0 22 12c0-1.59-.38-3.08-1.04-4.42l-.3-.66s-.03.01-.05.02C18.87 3.99 15.67 2 11.99 2 8.31 2 5.12 3.99 3.38 6.94c-.02 0-.03-.01-.05-.02l-.3.66A9.919 9.919 0 0 0 1.99 12c0 1.59.38 3.08 1.04 4.42l.3.66s.03-.01.05-.02C5.12 20.01 8.32 22 12 22c3.68 0 6.88-1.99 8.62-4.94.02 0 .03.01.05.02l.3-.66h-.01ZM12 21c-.93 0-2.17-2.01-2.72-5.36.88-.09 1.79-.14 2.72-.14.93 0 1.83.05 2.72.14C14.17 18.99 12.93 21 12 21Zm0-6.5c-.97 0-1.92.05-2.85.15C9.06 13.83 9 12.95 9 12s.06-1.83.15-2.65c.93.09 1.88.15 2.85.15.97 0 1.92-.05 2.85-.15.09.82.15 1.7.15 2.65s-.06 1.83-.15 2.65c-.93-.09-1.88-.15-2.85-.15ZM3 12c0-1.35.31-2.64.85-3.79 1.26.46 2.74.81 4.31 1.03-.1.88-.16 1.8-.16 2.76 0 .96.06 1.88.16 2.76-1.57.22-3.05.57-4.31 1.03A8.883 8.883 0 0 1 3 12Zm9-9c.93 0 2.17 2.01 2.72 5.36-.88.09-1.79.14-2.72.14-.93 0-1.83-.05-2.72-.14C9.83 5.01 11.07 3 12 3Zm3.84 6.24c1.57-.22 3.05-.57 4.31-1.03a8.883 8.883 0 0 1 0 7.58c-1.26-.46-2.74-.81-4.31-1.03.1-.88.16-1.8.16-2.76 0-.96-.06-1.88-.16-2.76Zm3.83-1.92c-1.17.42-2.52.73-3.97.93-.35-2.16-.99-3.94-1.8-5.04 2.44.53 4.5 2.05 5.76 4.11h.01Zm-9.58-4.11c-.81 1.1-1.45 2.89-1.8 5.04-1.45-.2-2.8-.52-3.97-.93a9.03 9.03 0 0 1 5.76-4.11h.01ZM4.33 16.68c1.17-.42 2.52-.73 3.97-.93.35 2.16.99 3.94 1.8 5.04a9.005 9.005 0 0 1-5.76-4.11h-.01Zm9.58 4.11c.81-1.1 1.45-2.89 1.8-5.04 1.45.2 2.8.52 3.97.93a9.03 9.03 0 0 1-5.76 4.11h-.01Z"/></svg>
