<svg xmlns="http://www.w3.org/2000/svg" width="16" height="16" viewBox="0 0 16 16"><path fill-rule="evenodd" d="M11.726 3.135H4.274V1.661c0-.376.306-.682.681-.682h6.09c.376 0 .681.306.681.682v1.474zm0 10.384a.683.683 0 0 1-.681.682h-6.09a.683.683 0 0 1-.68-.682V8.495h7.451v5.024zm-9.2-7.022a.97.97 0 1 1 .001-1.94.97.97 0 0 1 0 1.94zm11.241-3.362h-1.061V1.661C12.706.748 11.958 0 11.045 0H4.956c-.914 0-1.66.748-1.66 1.66v1.475H2.232A2.24 2.24 0 0 0 0 5.368v3.533a2.24 2.24 0 0 0 2.233 2.233h1.062v2.384c0 .915.747 1.662 1.661 1.662h6.089c.913 0 1.66-.747 1.66-1.662v-2.384h1.062A2.24 2.24 0 0 0 16 8.9V5.368a2.24 2.24 0 0 0-2.233-2.233z"/></svg>