<svg width="11" height="18" viewBox="0 0 11 18" xmlns="http://www.w3.org/2000/svg"><path d="M3.407.562A.564.564 0 0 0 2.842 0h-.71a.564.564 0 0 0-.562.562v1.173h1.837V.562Zm5.751 3.07c.52 0 .938.422.938.938v12.492c0 .52-.422.938-.938.938H.938A.938.938 0 0 1 0 17.062V3.692c0-.52.724-1.514 1.563-1.514h1.844c.612 0 1.335.776 1.335 1.45l4.416.004Zm-4.49 11.333c-.607-.2-.962-.85-.786-1.476l-1.665.33a.223.223 0 0 0-.18.24c.043.442.215 1.496 1.191 2.234.092.07.225.056.302-.032l1.139-1.296Zm-.997-3.59.534 1.573a1.21 1.21 0 0 1 1.686 0l.541-1.587a.222.222 0 0 0-.12-.274c-.379-.172-.8-.267-1.243-.267-.457 0-.892.101-1.282.28a.224.224 0 0 0-.116.275Zm1.377 3.277a.84.84 0 0 0 .84-.84.837.837 0 0 0-.84-.835.837.837 0 0 0-.836.84c0 .46.372.835.836.835Zm3.056-.53a.222.222 0 0 0-.179-.236l-1.697-.337a1.214 1.214 0 0 1-.899 1.44l1.173 1.342c.074.085.2.102.295.039a3.052 3.052 0 0 0 1.307-2.248Zm.78-9.014a.376.376 0 0 0-.376-.376H1.633a.376.376 0 0 0-.375.376v3.741c0 .207.168.376.375.376h6.875a.376.376 0 0 0 .376-.376V5.108Z"/></svg>
