<svg width="20" height="18" viewBox="0 0 20 18" xmlns="http://www.w3.org/2000/svg"><path fill-rule="evenodd" clip-rule="evenodd" d="M11.374.322A9.284 9.284 0 0 0 8.246.026C7.83.067 7.417.13 7.01.22l-.14.038c-.251.064-.5.129-.744.219a8.683 8.683 0 0 0-1.74.797l-.07.038-.024.013a7.999 7.999 0 0 0-1.075.784c-.21.168-.414.36-.607.553-.018.026-.036.039-.054.065a8.973 8.973 0 0 0-.814.95A8.888 8.888 0 0 0 .25 6.906a8.943 8.943 0 0 0 .048 4.384l.076.27c.251.848.626 1.658 1.112 2.39.02.04.04.065.06.09l.01.014.007.012h.002c.168.245.348.49.541.72.123.142.253.296.387.425l.006.013.013.012h.002c.307.322.636.617.986.887A9.133 9.133 0 0 0 5.92 17.46c.264.09.536.18.81.245.339.09.685.167 1.033.206a8.689 8.689 0 0 0 3.453-.193.36.36 0 0 0 .114-.026c.358-.09.712-.206 1.056-.347a8.681 8.681 0 0 0 1.967-1.136c.573-.431.585-1.268.078-1.773-.49-.489-1.278-.476-1.853-.093a6.465 6.465 0 0 1-5.096.906 6.6 6.6 0 0 1-3.522-2.25 6.22 6.22 0 0 1-.497-.732l-.014-.026h-.005c-.04-.077-.08-.141-.119-.219a6.348 6.348 0 0 1-.75-2.867 6.293 6.293 0 0 1 .783-3.227c.114-.218.24-.41.375-.604.194-.282.41-.54.644-.784l.026-.025.013-.013c.04-.052.046-.052.097-.103a6.715 6.715 0 0 1 1.273-.964c.462-.27.955-.476 1.47-.617.071-.026.08-.026.136-.039h.015l.035-.013c.323-.077.649-.128.978-.167h.023c.237-.026.475-.026.712-.026.51.013 1.021.09 1.515.219a7.105 7.105 0 0 1 1.676.72 6.89 6.89 0 0 1 1.146.887c.018.026.036.038.054.051.17.18.33.36.48.54.35.437.642.926.866 1.44h-2.035a1.286 1.286 0 0 0 0 2.571h6.428V2.572a1.286 1.286 0 0 0-2.571 0V4.36a9.662 9.662 0 0 0-.889-1.221 5.97 5.97 0 0 0-.461-.501c-.351-.348-.73-.669-1.134-.965a9.24 9.24 0 0 0-2.253-1.17 9.89 9.89 0 0 0-.604-.18Z"/></svg>
