<svg width="24" height="21" viewBox="0 0 24 21" xmlns="http://www.w3.org/2000/svg"><path d="M4.9977 1.56411C6.18059 1.0802 8.90125 0.20916 10.3207 0.59629C12.0951 1.0802 11.1272 2.20932 12.9016 2.20932C14.321 2.20932 13.7081 0.9189 14.192 1.56411C14.5684 2.5857 15.4179 4.56436 15.805 4.30627C16.2889 3.98366 16.9342 2.85454 17.0955 3.82236C17.2568 4.79018 17.7407 6.24191 18.3859 6.08061C19.0311 5.91931 21.2894 5.758 21.7733 6.08061C22.2572 6.40322 22.7411 7.37104 23.0637 7.20974C23.3863 7.04843 21.7733 10.7584 22.2572 11.4036C22.7411 12.0488 23.7089 12.6941 23.5476 13.0167C23.3863 13.3393 21.7733 14.1458 21.7733 14.4684C21.7733 14.791 20.1602 14.3071 19.9989 13.8232C19.8376 13.3393 19.8376 13.3393 19.3537 13.0167C18.8698 12.6941 18.7085 13.8232 19.1924 14.3071C19.6763 14.791 20.6441 15.7588 20.6441 16.0814C20.6441 16.404 19.6763 17.8558 19.1924 18.1784C18.7085 18.501 15.1598 19.4688 14.6759 19.6301C14.192 19.7914 10.6433 20.4366 10.3207 20.2753C9.99811 20.114 10.482 17.8558 9.6755 15.5975C8.86899 13.3393 8.54638 12.2101 8.22377 10.5971C8.09192 9.9379 7.95446 9.4751 7.8372 9.1658C7.74831 8.9313 7.50968 8.9791 7.38084 9.1942C7.34025 9.262 7.29754 9.3067 7.25595 9.3067C6.99921 9.3067 6.69117 9.3236 6.72731 9.5778C6.8634 10.5348 7.06553 11.631 7.25595 11.7262C7.57856 11.8875 6.61073 12.3715 6.12682 12.3715H0.642502C0.534967 11.0273 0.384417 8.113 0.642502 7.20974C0.96511 6.08061 2.57816 6.88713 3.38468 7.04843C4.1912 7.20974 7.57857 6.72583 7.73988 6.88713C7.86892 7.01617 8.11624 7.37104 8.22377 7.53234C8.68513 6.50711 9.645 4.50444 9.95712 4.31996C9.62502 4.35087 8.32197 4.40445 8.06248 4.14497C7.73988 3.82236 6 3.5 5.64293 3.49975C5 3.5 5.96554 2.85454 5.80423 2.20932C5.67519 1.69315 5 2 4.9977 1.56411Z"/></svg>
