<svg xmlns="http://www.w3.org/2000/svg" width="18" height="10" viewBox="0 0 18 10">
    <path fill-rule="nonzero" d="M.339 1.16A1.423 1.423 0 0 1 2.345.999l.015.012a2.25 2.25 0 0 0-.145.79 2.27 2.27 0 0 0 2.268 2.268c.465 0 .898-.141 1.259-.383l3.066 2.427 3.163-1.857a.683.683 0 0 1 .619-.037l4.479 1.953a1.423 1.423 0 1 1-1.134 2.61l-3.473-1.514-3.04 1.785-.024.014a1.423 1.423 0 0 1-1.662-.13L.502 3.166a1.423 1.423 0 0 1-.163-2.005zM4.483.1a1.7 1.7 0 1 1 0 3.402 1.7 1.7 0 0 1 0-3.402z"/>
</svg>
