<svg xmlns="http://www.w3.org/2000/svg" width="13" height="19" viewBox="0 0 13 19"><path fill-rule="evenodd" d="M9.143 5.063c-.946 0-1.575-.752-1.575-1.698V.5l4.442 4.563H9.143zM6.428 4.2c0 1.11.894 2.104 2.005 2.104h3.577v10.81c0 .763-.632 1.388-1.395 1.388h-9.22A1.398 1.398 0 0 1 0 17.116V1.886C0 1.125.632.5 1.395.5l5.033.016v3.685zm3.171 7.77a3.594 3.594 0 1 0-7.187 0 3.594 3.594 0 0 0 7.187 0zM5.69 9.406a.32.32 0 0 1 .318-.318.32.32 0 0 1 .317.318v2.558l1.532-.886a.32.32 0 0 1 .435.117.318.318 0 0 1-.117.433l-2.009 1.16c-.005.004-.013.005-.019.009l-.027.012-.03.01a.306.306 0 0 1-.082.011h-.013c-.009 0-.018-.003-.026-.003-.012-.002-.025-.003-.036-.007a.25.25 0 0 1-.024-.007c-.011-.004-.022-.007-.033-.013-.01-.003-.017-.009-.026-.013l-.025-.016-.028-.022c-.007-.006-.013-.01-.017-.017a.227.227 0 0 1-.024-.028.132.132 0 0 1-.015-.022l-.008-.01a.06.06 0 0 1-.008-.02c-.005-.009-.01-.017-.013-.027a.375.375 0 0 1-.02-.091l-.002-.02V9.405z"/></svg>