<svg width="22" height="17" viewBox="0 0 22 17" xmlns="http://www.w3.org/2000/svg"><path fill-rule="evenodd" clip-rule="evenodd" d="M21.987 14.267c-.43-1.506-8.174-7.744-8.174-7.744l-1.721-.43v-.215a1.936 1.936 0 0 1 1.076-1.29 2.895 2.895 0 0 0 1.936-1.901A2.231 2.231 0 0 0 13.598.07c-1.506-.43-3.227 1.272-3.227 1.272s-.43.449-.215.664c0 .43.645.43.645.43s1.076-1.094 1.506-1.094c.896-.197 1.506 0 1.506 1.094 0 .896-1.29 1.075-1.936 1.506a2.627 2.627 0 0 0-.896 1.936l-.646-.215S2.627 8.244 1.336 9.104C.046 9.964.02 10.18.02 11.041c-.188.609 1.102 1.505 1.102 1.505l18.5 3.872s2.581-.645 2.366-2.15Zm-4.481.646L3.703 12.098a3.388 3.388 0 0 1-.646-1.273c0-.43 0-.645 1.076-1.29.86-.646 6.641-2.582 6.641-2.582l2.367.646s5.808 4.481 6.023 5.808c.242 1.075-1.694 1.505-1.694 1.505h.036Z"/></svg>
