<svg width="24" height="14" viewBox="0 0 24 14" fill="none" xmlns="http://www.w3.org/2000/svg"><path d="M21.615 1H2.385C1.62 1 1 1.604 1 2.35v9.3c0 .746.62 1.35 1.385 1.35h19.23C22.38 13 23 12.396 23 11.65v-9.3C23 1.604 22.38 1 21.615 1Z" stroke="#707070" stroke-width="1.42" stroke-miterlimit="22.93"/><path fill-rule="evenodd" clip-rule="evenodd" d="M3.73 4.322v5.91h4.493v-.998H4.927V7.63H7.88v-.998H4.927V5.32h3.179v-.997H3.73Zm6.949 2.827-2.044 3.082h1.438L11.38 8.23l1.314 2.002h1.431L12.09 7.15l1.857-2.827H12.55l-1.163 1.761-1.17-1.761H8.829l1.85 2.827Zm5.214-2.827h-1.197v5.91h1.197v-5.91Zm2.47.997v4.912h1.197V5.32h1.74v-.997h-4.684v.997h1.747Z" fill="#D40504"/></svg>
