<svg width="24" height="15" viewBox="0 0 24 15" xmlns="http://www.w3.org/2000/svg"><path fill-rule="evenodd" clip-rule="evenodd" d="M10.59 2.028c.03-.037.03-.098.03-.424-.57-.22-.93-.7-.37-1.18a3.29 3.29 0 0 1 3.23 0c.61.546.011.901-.305 1.089l-.085.05c0 .377-.003.439.018.45.013.006.035-.005.072.02l.94.14c1.093.069 2.178.212 3.25.43a5.999 5.999 0 0 1 1.85.65c.108.084.137.126.177.148.041.023.095.023.264.023a.69.69 0 0 1 .43.19c.258.272-.001.452-.18.577-.078.053-.14.097-.14.133l.002.02H3.97c-.014-.027-.045-.036-.088-.049-.069-.02-.167-.048-.27-.171-.21-.25.03-.57.38-.63.185-.032.233-.025.274-.037.037-.012.068-.039.186-.123a11.22 11.22 0 0 1 4-1l1.16-.1a2.86 2.86 0 0 0 .84-.08l.08-.07c.027-.028.046-.04.06-.056ZM3.61 4.724a.385.385 0 0 0-.01.02 1.42 1.42 0 0 0 0 .58c-.167 0-.206-.022-.264-.054a.74.74 0 0 0-.185-.076c-.88-.232-1.771-.415-2.67-.55-.243.047-.302.395-.35.678a2.947 2.947 0 0 1-.04.212c-.077.33-.126.509-.06.624.096.172.444.202 1.33.376.11 0 .465.087.81.171.337.083.665.164.75.159.17-.01.25-.1.34-.31.213 0 .325 0 .386.055.097.09.06.327.104.945 0 .472.073.541.135.6.04.038.077.072.085.21v4.15a2.33 2.33 0 0 0 .38 1.69c.635.825 1.503.799 2.63.764.238-.007.488-.014.75-.014H16c.241 0 .475.006.7.012 1.128.031 2.048.056 2.69-.752a2.35 2.35 0 0 0 .38-1.7v-4.15c0-.157.021-.19.051-.236.041-.063.098-.15.139-.604.005-.315.031-.63.08-.94h.4c.16.35.19.37.8.23l2.07-.47c.466-.107.413-.327.318-.725l-.009-.035c-.12-.526-.144-.801-.29-.907-.216-.157-.7.055-2.16.377l-1.05.27c.017-.232.009-.39-.013-.5H3.61v-.1Z"/></svg>
