<svg width="22" height="22" viewBox="0 0 22 22" xmlns="http://www.w3.org/2000/svg"><path fill-rule="evenodd" clip-rule="evenodd" d="M7.423 3.711c-.08-.16-.068-.273-.043-.498.018-.165.043-.39.043-.736v-.414A11.326 11.326 0 0 0 7.016.959 2.17 2.17 0 0 0 5.222 0h-.268a2.63 2.63 0 0 0-1.38.69 2.254 2.254 0 0 0-.69 1.649v.138c0 .346.024.571.042.736.025.225.037.339-.043.498-.196.202-.249.183-.317.158-.025-.01-.052-.02-.09-.02 0 0 .139.415 1.235.276.39.321.87.514 1.373.553a2.891 2.891 0 0 0 1.534-.553c1.05.139 1.219-.29 1.219-.29-.05 0-.085.012-.116.024-.074.028-.125.047-.298-.148Zm2.89 7.837-.965-3.834c-.545-1.648-1.534-2.883-2.746-2.883h-2.89C2.476 4.83 1.41 6.066.827 7.714L0 11.686l1.787.399-.552 3.067H3.02v6.319h4.126v-6.35H9.07l-.544-3.067 1.787-.506Zm10.72-3.711C20.49 6.188 19.5 4.946 18.29 4.946h-2.891c-1.235 0-2.3 1.242-2.883 2.89l-.967 3.988 2.477.552v1.925h.69v7.285h4.264V14.3h.544V12.27L22 11.717l-.966-3.88ZM15.209.747a2.3 2.3 0 0 0-.639 1.592 2.3 2.3 0 0 0 2.201 2.377 2.3 2.3 0 0 0 2.3-2.339 2.303 2.303 0 0 0-2.3-2.339 2.3 2.3 0 0 0-1.562.708Z"/></svg>
