<svg width="20" height="20" viewBox="0 0 20 20" xmlns="http://www.w3.org/2000/svg"><path fill-rule="evenodd" clip-rule="evenodd" d="M13.359 1.465A2.86 2.86 0 0 1 14.709 0c-.6.858-.75 2.24.176 3.921.39.702.533 1.508.41 2.296a3.631 3.631 0 0 1-1.098 2.071c.54-1.622.032-2.71-.424-3.689-.186-.398-.363-.777-.457-1.167a2.76 2.76 0 0 1 .043-1.967ZM0 6.375l1.402 12.098c.103.425.347.805.695 1.081.347.276.779.433 1.228.446h2.848a1.89 1.89 0 0 0 1.163-.457c.321-.278.534-.656.6-1.07L9.454 6.006 0 6.375Zm2.972 6.306a.806.806 0 0 1-.325-.195.777.777 0 0 1-.196-.32.534.534 0 0 1 .162-.348.563.563 0 0 1 .359-.158.47.47 0 0 1 .397.122.445.445 0 0 1 .132.384.542.542 0 0 1-.164.355.571.571 0 0 1-.365.16Zm1.931 4.6a.48.48 0 0 1-.397-.13.453.453 0 0 1-.132-.386.534.534 0 0 1 .165-.351.563.563 0 0 1 .364-.155.47.47 0 0 1 .39.126.444.444 0 0 1 .13.38.443.443 0 0 1-.13.383.47.47 0 0 1-.39.132Zm-.494-2.386a.443.443 0 0 1 .132-.386.47.47 0 0 1 .397-.129c.168 0 .52.172.52.343a.742.742 0 0 1-.153.417.775.775 0 0 1-.367.261.563.563 0 0 1-.364-.155.534.534 0 0 1-.165-.351Zm1.543 1.407a.48.48 0 0 1-.397-.129.453.453 0 0 1-.132-.386.543.543 0 0 1 .165-.355.572.572 0 0 1 .364-.16c.14 0 .275.055.375.151a.508.508 0 0 1 0 .728.536.536 0 0 1-.375.151ZM1.05 9.952l-.352-2.89h8.05l-.352 2.376-7.346.515Zm18.669.344s-1.72 9.335-1.72 9.61c-.582.051-5.397.094-5.397.094l-2.107-9.91 9.224.206Zm-2.963-9.112c-1.023.163-1.358 1.759-.935 2.677.335.552.512 1.182.512 1.823 0 .642-.177 1.271-.512 1.824a2.829 2.829 0 0 0 1.123-1.635 2.763 2.763 0 0 0-.241-1.952c-.432-1.03-.6-2.102.053-2.737Zm-6.35 8.46 9.472-.155.123-.557-9.77-.249.176.96Z"/></svg>
