<svg xmlns="http://www.w3.org/2000/svg" width="16" height="16" viewBox="0 0 16 16"><path fill-rule="evenodd" d="M8 11.385a3.384 3.384 0 1 1 0-6.77 3.384 3.384 0 1 1 0 6.77m7.104-5.105a2.102 2.102 0 0 1-.864-2.086 2.101 2.101 0 0 0-2.434-2.434A2.099 2.099 0 0 1 9.721.896a2.1 2.1 0 0 0-3.442 0 2.099 2.099 0 0 1-2.085.864A2.101 2.101 0 0 0 1.76 4.194 2.105 2.105 0 0 1 .896 6.28a2.1 2.1 0 0 0 0 3.442 2.098 2.098 0 0 1 .864 2.084 2.101 2.101 0 0 0 2.434 2.434 2.099 2.099 0 0 1 2.085.864 2.1 2.1 0 0 0 3.442 0 2.099 2.099 0 0 1 2.085-.864 2.101 2.101 0 0 0 2.434-2.434 2.096 2.096 0 0 1 .864-2.084 2.1 2.1 0 0 0 0-3.442"/></svg>