<svg width="13" height="20" viewBox="0 0 13 20" xmlns="http://www.w3.org/2000/svg"><path d="M11.537 14.717c-.866-.502-2.382-.68-2.77-1.498-.381-.819-1.183-2.553-1.183-2.553s3.516-7.68 3.646-8.92c.21-2.001-.973-1.734-.973-1.734L6.482 8.276 2.706.012s-1.183-.267-.972 1.734c.13 1.24 3.646 8.92 3.646 8.92S4.578 12.4 4.197 13.22c-.38.818-1.896.996-2.771 1.498A2.81 2.81 0 0 0 0 17.172 2.825 2.825 0 0 0 2.828 20a2.82 2.82 0 0 0 2.827-2.828c0-.972-.178-1.199-.186-2.082.332-.705 1.005-2.107 1.005-2.107h.024s.672 1.402 1.005 2.107c-.008.883-.187 1.102-.187 2.082A2.82 2.82 0 0 0 10.144 20a2.825 2.825 0 0 0 2.828-2.828c-.008-1.045-.567-1.944-1.434-2.455Zm-8.71 4.068a1.611 1.611 0 1 1 0-3.225 1.611 1.611 0 1 1 0 3.225Zm3.663-7.381a.667.667 0 0 1-.665-.665c0-.364.3-.664.665-.664.364 0 .664.3.664.664a.657.657 0 0 1-.664.665Zm3.646 7.38a1.611 1.611 0 1 1 0-3.224 1.611 1.611 0 1 1 0 3.225Z"/></svg>
