<svg xmlns="http://www.w3.org/2000/svg" width="16" height="19" viewBox="0 0 16 19">
    <path fill-rule="nonzero" d="M7.907 17.519a.62.62 0 1 1 0 1.24.62.62 0 0 1 0-1.24zM.76 17.246a.62.62 0 1 1-.279 1.21.62.62 0 0 1 .279-1.21zm15.038.466a.62.62 0 1 1-1.207.278.62.62 0 0 1 1.207-.278zm-7.89-2.468a.62.62 0 1 1 0 1.24.62.62 0 1 1 0-1.24zm-3.39-.011a.62.62 0 1 1-.146 1.23.62.62 0 0 1 .146-1.23zm7.468.541a.62.62 0 1 1-1.23.148.62.62 0 0 1 1.23-.148zM1.27 15.03a.62.62 0 1 1-.744.465.62.62 0 0 1 .744-.465zm14.017.465a.62.62 0 1 1-1.209.28.62.62 0 0 1 1.209-.28zm-7.38-2.525a.62.62 0 1 1 0 1.24.621.621 0 1 1 0-1.24zm-3.119.004a.62.62 0 1 1-.147 1.231.62.62 0 0 1 .147-1.231zm6.927.542a.62.62 0 1 1-1.232.147.621.621 0 0 1 1.232-.147zm-9.935-.704a.62.62 0 1 1-.278 1.21.62.62 0 0 1 .278-1.21zm12.997.466a.62.62 0 1 1-1.21.278.62.62 0 0 1 1.21-.278zm-9.72-2.563a.62.62 0 1 1-.146 1.232.62.62 0 0 1 .147-1.232zm6.388.543a.62.62 0 1 1-1.23.147.62.62 0 0 1 1.23-.147zm-3.538-.564a.62.62 0 1 1 0 1.24.62.62 0 0 1 0-1.24zm-5.616-.098a.62.62 0 1 1-.278 1.209.62.62 0 1 1 .278-1.21zm11.975.464a.62.62 0 1 1-1.208.28.62.62 0 0 1 1.208-.28zM5.328 8.455a.62.62 0 1 1-.145 1.23.62.62 0 0 1 .145-1.23zm5.847.542a.62.62 0 1 1-1.233.147.62.62 0 0 1 1.233-.147zm-3.268-.579a.62.62 0 1 1 0 1.24.62.62 0 0 1 0-1.24zm-5.106-.041a.62.62 0 1 1-.279 1.21.62.62 0 0 1 .279-1.21zm10.956.466a.622.622 0 1 1-1.212.276.622.622 0 0 1 1.212-.276zm-8.16-2.648a.62.62 0 1 1-.145 1.232.62.62 0 0 1 .146-1.232zm5.308.543a.62.62 0 1 1-1.232.147.621.621 0 0 1 1.232-.147zM3.31 6.16a.62.62 0 1 1-.278 1.209.62.62 0 0 1 .278-1.209zm9.935.466a.62.62 0 1 1-.743-.466.62.62 0 0 1 .743.466zm-5.339-.482a.62.62 0 1 1 0 1.24.62.62 0 1 1 0-1.24zm0-6.144c.735 0 1.33.595 1.332 1.33v.685c1.897.369 3.495 1.509 4.409 3.059H2.168c.914-1.55 2.51-2.69 4.408-3.059V1.33A1.332 1.332 0 0 1 7.908 0z"/>
</svg>
