<svg xmlns="http://www.w3.org/2000/svg" width="19" height="20" viewBox="0 0 19 20">
    <path fill-rule="evenodd" d="M13.595 17.924l.087.004c.062.004.138.009.193.009.112 0 .235-.005.284-.007.003 0 .008.002.01.005.118.135.264.273.46.433 0 .001 1.072.92 1.24 1.066v-.99c0-.299-.143-.401-.204-.43-.019-.009-.037-.014-.051-.018-.025-.008-.044-.012-.044-.031 0-.009.004-.016.01-.021.012-.013.036-.02.067-.02.027 0 .077.003.13.006.061.003.126.007.166.007.04 0 .086-.003.13-.007.044-.003.091-.006.131-.006.034 0 .058.006.069.018.006.005.009.012.009.019 0 .019-.023.029-.068.047-.085.027-.198.102-.198.436v1.25c0 .306-.034.306-.05.306-.037 0-.06-.025-.133-.097-.046-.046-.109-.11-.202-.197a28.534 28.534 0 0 0-1.713-1.493v1.218c0 .311.106.398.186.436a.614.614 0 0 0 .05.023c.022.008.037.014.037.032 0 .025-.033.025-.043.025l-.078-.002a4.42 4.42 0 0 0-.432-.001l-.127.003c-.026 0-.04-.002-.049-.01-.004-.004-.005-.009-.005-.015 0-.018.023-.025.06-.039.03-.01.069-.022.097-.042.117-.084.157-.204.157-.475v-1.058c-.004-.174-.036-.271-.195-.316-.017-.006-.043-.016-.043-.034 0-.009.002-.015.008-.02.01-.01.026-.014.054-.014zm4.328-.053c.338 0 .72.074.997.192.007.003.01.01.007.017l-.106.253c-.022.05-.036.073-.054.073-.017 0-.026-.02-.037-.051-.003-.007-.005-.015-.009-.022-.105-.264-.603-.36-.912-.36-.287 0-.623.104-.623.393 0 .265.4.328.665.37l.056.009.446.068c.423.065.647.243.647.513 0 .488-.75.67-1.221.67-.377 0-.828-.11-1.107-.217-.04-.014-.046-.021-.046-.03 0-.008.005-.02.008-.024l.125-.311a.043.043 0 0 1 .043-.031c.018 0 .034.015.04.035.046.329.602.475.983.475.244 0 .562-.057.722-.214a.31.31 0 0 0 .101-.23c0-.264-.265-.33-.56-.38l-.478-.076c-.515-.082-.776-.25-.776-.498 0-.13.05-.245.149-.342.183-.18.526-.282.94-.282zM1.5 17.848c.418 0 .781.093 1.078.277.007.003.009.01.007.016l-.072.178c-.037.085-.054.122-.08.122-.016 0-.035-.017-.04-.037-.127-.3-.429-.454-.897-.454-.647 0-1.066.37-1.066.942 0 .275.098.522.275.696.19.184.461.282.787.282.44 0 .795-.148.947-.398l.008-.012c.01-.023.022-.044.046-.044.022 0 .03.026.05.083l.061.191c.001.006-.001.013-.006.015-.294.173-.68.268-1.086.268-.508 0-.975-.16-1.25-.43A.822.822 0 0 1 0 18.938c0-.257.098-.49.284-.67.272-.268.717-.42 1.217-.42zm11.213.077c.04 0 .06.005.071.014.003.005.006.01.006.014 0 .01-.004.033-.038.038-.118.029-.128.144-.128.259v1.186c.002.227.02.4.161.45.023.008.05.019.05.04 0 .016-.016.023-.054.023l-.054-.002a5.333 5.333 0 0 0-.58 0l-.049.002c-.03 0-.044-.003-.052-.011a.02.02 0 0 1-.006-.015c0-.012.011-.016.032-.027a.258.258 0 0 0 .027-.015c.153-.078.172-.32.172-.545V18.25c0-.106-.01-.222-.13-.26l-.006-.001c-.013-.006-.03-.012-.03-.033 0-.006 0-.014.008-.02.01-.011.026-.011.065-.011.017 0 .039.002.067.004a2.322 2.322 0 0 0 .334.003 1.5 1.5 0 0 1 .134-.007zm-2.756 0c.618 0 1.001.08 1.17.246.07.068.104.15.104.251 0 .367-.545.473-.835.49.377.104.498.161.695.497a.878.878 0 0 1 .047.098c.063.161.131.296.28.364.036.017.033.016.047.02.016.003.042.008.042.025 0 .022-.037.022-.05.022h-.414c-.088 0-.112-.008-.148-.09l-.02-.043a2.37 2.37 0 0 0-.26-.555c-.179-.246-.315-.314-.904-.314h-.4v.437c0 .313.06.481.18.513.053.011.07.021.07.037 0 .007 0 .024-.088.024h-.045c-.048-.004-.128-.009-.289-.009h-.105a3.962 3.962 0 0 0-.264.01h-.017c-.011 0-.032-.002-.04-.012a.017.017 0 0 1-.008-.013c0-.013.013-.019.046-.032l.023-.01c.13-.054.185-.235.185-.604v-1.025c0-.138-.047-.224-.138-.253-.045-.014-.066-.028-.066-.046a.02.02 0 0 1 .006-.015c.007-.006.023-.013.083-.013zm-6.128 0c.013 0 .034 0 .047.011a.027.027 0 0 1 .007.02c0 .018-.017.024-.03.03l-.01.003c-.15.033-.173.15-.176.26v.873c0 .374.016.566.1.648.06.06.162.065.311.065.437 0 .982-.05 1.22-.286.02-.026.042-.05.07-.05.01 0 .018.002.023.007.007.007.01.015.01.026a.18.18 0 0 1-.009.041l-.144.357c-.002.005-.007.007-.012.007h-1.9c-.112 0-.182.005-.224.008l-.037.001c-.024 0-.038 0-.047-.01-.006-.004-.008-.012-.008-.02 0-.025.035-.032.064-.038.18-.044.23-.155.23-.519v-1.083c0-.21-.05-.262-.143-.284-.038-.01-.041-.027-.041-.034 0-.007.003-.013.007-.018.012-.01.036-.016.075-.016l.066.004c.047.003.113.008.202.008.095 0 .172-.004.233-.008.044-.002.082-.004.116-.004zm3.112-.05c.012 0 .025.007.03.014a.023.023 0 0 1 .008.01l1.117 1.754a.683.683 0 0 0 .234.218l.026.013c.026.014.037.02.037.032 0 .019-.017.028-.05.028l-.173-.003-.183-.003-.2.003-.184.003c-.02 0-.03-.003-.037-.01a.02.02 0 0 1-.006-.012c0-.022.024-.03.05-.038l.03-.01c.028-.013.06-.037.06-.1 0-.068-.062-.206-.18-.397 0 0-.159-.241-.19-.291h-1.06l-.185.256c-.109.162-.165.297-.165.389 0 .045.033.092.09.125.017.012.04.02.06.025.028.01.05.019.05.039 0 .022-.034.024-.069.024-.046 0-.092-.001-.136-.003l-.129-.003-.138.003a3.222 3.222 0 0 1-.139.003c-.032 0-.061 0-.074-.012-.004-.005-.007-.01-.007-.016 0-.02.024-.033.053-.05.012-.006.024-.013.031-.02.152-.116.292-.315.384-.447l.004-.006.996-1.494c.006-.011.018-.024.037-.024zm-.121.367l-.469.74h.912l-.443-.74zm3.342-.215h-.85v.805H10c.226 0 .543-.018.7-.173a.34.34 0 0 0 .101-.256.289.289 0 0 0-.09-.213c-.105-.103-.305-.163-.548-.163zm3.988-9.088c.615-.22 1.304.09 1.53.691l1.23 3.263a1.164 1.164 0 0 1-.706 1.497l-.729.262a.13.13 0 0 1-.168-.076l-1.365-3.622v1.424l-.014.162c-.151 1.23-1.225 2.187-2.522 2.194H8.214a2.58 2.58 0 0 1-.935-.18l-.085-.037-.113-.052-.086-.046-.106-.06-.08-.05-.109-.078a2.755 2.755 0 0 1-.22-.179l-.101-.102-.049-.05-.056-.065a1.682 1.682 0 0 1-.133-.17 2.459 2.459 0 0 1-.08-.12l-.037-.059a2.492 2.492 0 0 1-.1-.185c-.005-.012-.01-.025-.016-.036a2.506 2.506 0 0 1-.092-.232c-.012-.032-.021-.066-.031-.099a3.655 3.655 0 0 1-.106-.748V10.46h.926V10.34a.43.43 0 0 1 .434-.425h5.545c.24 0 .434.19.434.425v.12h.74l-.413-1.092a.127.127 0 0 1 .078-.165zM5.624 3.004c.74 0 1.396.04 1.82.106.31.047.496.106.496.17v6.104H7.04c-.406 0-.76.22-.943.546H5.68l-.55-.02v2.522c.071 1.11.743 1.867 1.304 2.289-.214.008-.575.012-.81.012-1.28 0-2.315-.124-2.315-.277V3.28c0-.064.187-.123.497-.17.424-.065 1.08-.106 1.818-.106zm4.22 8.126a.055.055 0 0 0-.066 0c-.28.206-.443.5-.46.813a1.198 1.198 0 0 0-.718-.175c-.028.002-.05.023-.052.05-.021.348.094.656.335.891a1.224 1.224 0 0 0 .928.348l.07.002c.32 0 .63-.125.86-.35.24-.235.355-.543.333-.89a.054.054 0 0 0-.05-.05 1.19 1.19 0 0 0-.722.175 1.084 1.084 0 0 0-.458-.814zM5.626 0c.8 0 1.484.098 1.766.236a.52.52 0 0 1 .053.029v2.413c-.424-.064-1.082-.105-1.82-.105s-1.395.041-1.82.105V.265A.54.54 0 0 1 3.86.236C4.14.098 4.825 0 5.626 0z"/>
</svg>
