<svg width="24" height="24" viewBox="0 0 24 24" xmlns="http://www.w3.org/2000/svg"><path fill-rule="evenodd" clip-rule="evenodd" d="M11.184.52a.52.52 0 0 1 .52-.52h.772a.52.52 0 0 1 .52.52v3.412a.52.52 0 0 1-.52.52h-.772a.52.52 0 0 1-.52-.52V.52zm5.88 10.94a5.112 5.112 0 1 0-5.604 5.604 5.136 5.136 0 0 0 5.604-5.604zm-.042-5.812a.52.52 0 0 0 0 .735l.546.546a.52.52 0 0 0 .735 0l2.413-2.412a.52.52 0 0 0 0-.736l-.546-.546a.52.52 0 0 0-.736 0l-2.412 2.413zm2.502 5.876a.52.52 0 0 1 .52-.52h3.412a.52.52 0 0 1 .52.52v.772a.52.52 0 0 1-.52.52h-3.412a.52.52 0 0 1-.52-.52v-.772zm-2.41 5.948a.52.52 0 0 0 0 .735l2.413 2.413a.52.52 0 0 0 .736 0l.546-.546a.52.52 0 0 0 0-.736l-2.413-2.412a.52.52 0 0 0-.735 0l-.546.546zm-5.894 2.572a.52.52 0 0 1 .52-.52h.772a.52.52 0 0 1 .52.52v3.412a.52.52 0 0 1-.52.52h-.772a.52.52 0 0 1-.52-.52v-3.412zm-7.873-.59a.52.52 0 0 0 0 .735l.546.546a.52.52 0 0 0 .735 0l2.414-2.412a.52.52 0 0 0 0-.735l-.546-.546a.52.52 0 0 0-.735 0l-2.414 2.411zM0 11.643a.52.52 0 0 1 .52-.52h3.412a.52.52 0 0 1 .52.52v.772a.52.52 0 0 1-.52.52H.52a.52.52 0 0 1-.52-.52v-.772zm3.136-7.861a.52.52 0 0 0 0 .735L5.55 6.931a.52.52 0 0 0 .735 0l.546-.546a.52.52 0 0 0 0-.735L4.417 3.237a.52.52 0 0 0-.735 0l-.546.546z"/></svg>