<svg xmlns="http://www.w3.org/2000/svg" width="21" height="18" viewBox="0 0 21 18"><path fill-rule="evenodd" d="M16.558 15.883v-4.567c0-.049.02-.096.055-.13l1.066-1.068a.187.187 0 0 1 .32.133v5.632a2.117 2.117 0 0 1-2.116 2.116H2.116A2.117 2.117 0 0 1 0 15.883V2.116C0 .95.948 0 2.116 0h13.767c1.168 0 2.116.949 2.116 2.116v.854a.191.191 0 0 1-.063.141l-1.067.946a.187.187 0 0 1-.311-.14v-1.8a.675.675 0 0 0-.675-.676H2.116a.676.676 0 0 0-.676.675v13.767c0 .372.304.675.676.675h13.767a.675.675 0 0 0 .675-.675zM20.06 4.89a1.002 1.002 0 0 1-.232 1.042l-1.83 1.83-1.441 1.44-4.079 4.08-2.855-2.855L6.77 7.574a1.002 1.002 0 0 1 .708-1.709c.096 0 .191.017.285.046a.983.983 0 0 1 .423.247l2.575 2.575 1.717 1.717 4.079-4.08 1.44-1.441.414-.413a1.02 1.02 0 0 1 .331-.22 1.018 1.018 0 0 1 .928.091.986.986 0 0 1 .39.503z"/></svg>