<svg width="18" height="15" viewBox="0 0 18 15" xmlns="http://www.w3.org/2000/svg"><path d="M13.998 1.198h-1.824l-.606 1.753a.229.229 0 0 1-.218.156H9.583V5.04h5.12v-.853a1.067 1.067 0 0 1-.79-1.033c0-.492.33-.909.79-1.032v-.223a.713.713 0 0 0-.705-.7Z"/><path d="M10.043 2.572c0-.384.312-.696.696-.696h.658l.161-.465h-.82c-.638 0-1.164.521-1.164 1.166v.07h.464v-.075h.005ZM14.372 3.154c0 .233.132.436.327.536V2.615a.606.606 0 0 0-.327.54ZM9.578 14.243c0 .383.313.696.697.696h3.723a.697.697 0 0 0 .696-.696V5.75H9.578v8.493ZM17.768 2.922h-1.303a.232.232 0 0 0 0 .465h1.303a.232.232 0 0 0 0-.465ZM16.465 2.548c.034 0 .067-.01.1-.023l1.18-.56a.228.228 0 0 0 .108-.307.228.228 0 0 0-.308-.11l-1.18.56a.227.227 0 0 0-.108.308.222.222 0 0 0 .208.132ZM17.74 4.339l-1.18-.56a.23.23 0 0 0-.308.11.229.229 0 0 0 .11.308l1.179.558a.227.227 0 0 0 .308-.109.227.227 0 0 0-.11-.307ZM1.37.744c.014 0 .024-.01.024-.024V.024C1.394.009 1.384 0 1.37 0h-1C.357 0 .348.01.348.024V.72c0 .014.01.024.024.024h1ZM5.86.744c.014 0 .024-.01.024-.024V.024C5.884.009 5.874 0 5.86 0h-1c-.013 0-.023.01-.023.024V.72c0 .014.01.024.024.024h1ZM5.4 13.182l.006-5.305c0-.701-.431-1.047-1.151-1.047H1.773c-.678 0-1.004.35-1.004.663v.36c0 .464.478.474.478.938 0 .464-.478.488-.478.938 0 .45.478.483.478.938 0 .454-.478.488-.478.937 0 .45.506.484.506 1.043 0 .156-.033.312-.165.407-.195.142-.275.175-.431.289a.908.908 0 0 0-.389.73c0 .482.393.875.876.875h4.225a.877.877 0 0 0 .877-.876c0-.483-.384-.89-.867-.89ZM.707 6.12h4.84a.548.548 0 0 0 .531-.417c.284-1.222.213-3.325-.147-4.505-.01-.023-.023-.038-.061-.038h-.962c-.047 0-.066.02-.066.062 0 .043.161 1.44-1.71 1.44-1.87 0-1.715-1.402-1.715-1.445 0-.042-.019-.061-.066-.061H.39c-.034 0-.057.014-.067.038-.364 1.179-.43 3.282-.147 4.504a.543.543 0 0 0 .53.422Zm2.44-2.866L2.638 4.3l1.82-.73-.593.957 1.554-.19-2.558 1.185.45-.929-2.018.834.554-.933L.85 4.31l2.297-1.056Z"/></svg>
