<svg width="14" height="20" viewBox="0 0 14 20" xmlns="http://www.w3.org/2000/svg"><path d="M5.091.795c1.438 0 2.559 1.003 2.505 2.012C8.403 1.585 9.342 1.2 10.205 1.2c1.194 0 2.244.737 2.602 1.019a.037.037 0 0 1-.005.06.038.038 0 0 1-.022.005h-.012a4.943 4.943 0 0 0-1.161-.15c-1.815 0-2.47 1.218-2.47 1.218a2.113 2.113 0 0 1 1.025-.265c1.603 0 3.197 1.782 3.025 4.017a.031.031 0 0 1-.033.029.034.034 0 0 1-.032-.02C12.06 4.834 10.222 4.56 9.399 4.56c-.14-.001-.281.008-.42.028 1.835.576 2.59 3.176 1.412 5.612a.127.127 0 0 1-.116.075.12.12 0 0 1-.122-.107c-.092-.873-.637-3.07-2.126-4.49-5.448 5.71-1.343 13.533-1.343 13.533H4.42C1.29 10.802 6.593 5.247 6.593 5.247a3.705 3.705 0 0 0-.911-.112c-1.754 0-3.574 1.214-4.721 3.401a.075.075 0 0 1-.07.043.076.076 0 0 1-.052-.02.075.075 0 0 1-.024-.05C.636 5.877 1.933 3.462 5.132 3.462c.355.001.71.028 1.062.081C5.522 2.347 4.562 1.92 3.602 1.92a3.81 3.81 0 0 0-1.184.2h-.012a.037.037 0 0 1-.032-.023.036.036 0 0 1 .008-.04C3.278 1.145 4.242.793 5.094.793L5.09.795ZM5.094 0C4.269 0 3.03.26 1.809 1.504a.824.824 0 0 0 .597 1.405h.13l.134-.043c.3-.1.614-.153.93-.156.157 0 .313.016.466.048-1.074.183-1.986.652-2.675 1.382C.385 5.207-.103 6.776.018 8.561c.014.189.09.368.215.51a.88.88 0 0 0 1.038.213.874.874 0 0 0 .401-.385c.82-1.562 2.056-2.62 3.34-2.9-1.46 2.195-3.743 7.026-1.339 13.483l.193.518h4.136l-.608-1.156a14.544 14.544 0 0 1-1.29-4.41c-.371-2.954.278-5.489 1.93-7.555.91 1.237 1.265 2.79 1.326 3.366a.912.912 0 0 0 .246.529.927.927 0 0 0 1.099.184.92.92 0 0 0 .408-.418c.701-1.447.835-3.058.375-4.383.386.365.695.802.91 1.285a.842.842 0 0 0 1.37.205.823.823 0 0 0 .217-.485c.106-1.369-.35-2.706-1.246-3.663a4.136 4.136 0 0 0-.608-.534c.144.02.291.05.443.086l.093.022h.108a.84.84 0 0 0 .795-.552.819.819 0 0 0-.27-.923c-.455-.358-1.67-1.19-3.1-1.19-.858 0-1.686.31-2.33.874a2.924 2.924 0 0 0-.195-.226C7.035.386 6.093.004 5.095.004L5.093 0Z"/></svg>
