<svg width="13" height="20" viewBox="0 0 13 20"  xmlns="http://www.w3.org/2000/svg"><path d="M12.954 5.245c-.133-.316-.475-.406-.805-.493a7.323 7.323 0 0 0-.916-.2c-.635-.117-1.107-.164-1.393.24-.07.095-.44.643-.97 1.428l-.504-.186c.786-1.84 1.444-3.375 1.516-3.556.187-.461-.102-.847-.532-1.337a7.538 7.538 0 0 0-.647-.694c-.246-.241-.502-.49-.834-.44a.574.574 0 0 0-.424.307c-.317.571.202.958.452 1.142.123.092.253.185.39.285.2.143.413.299.644.474-.223.528-.768 1.807-1.48 3.478l-.464-.167c.28-1.273.489-2.212.519-2.35.099-.489-.255-.813-.768-1.213a7.446 7.446 0 0 0-.762-.556c-.286-.19-.582-.386-.9-.273a.58.58 0 0 0-.36.383c-.209.623.375.902.654 1.037.14.067.283.134.436.204.222.104.46.214.72.342l-.469 2.123c-.296-.045-.6.02-.855.18a1.3 1.3 0 0 0-.541.7l-.118.339c-1.545-1.061-2.68-1.334-3.447-.82-1.29.865-1.559 3.056-.169 8.646h.007l.306 1.522-.447 1.269a1.378 1.378 0 0 0 .354 1.457c.128.12.278.212.442.272L4.66 19.92a1.296 1.296 0 0 0 1.012-.048 1.326 1.326 0 0 0 .682-.766l.218-.618c.104.025.211.039.319.04.305 0 .603-.097.853-.277.25-.18.44-.433.544-.726l1.26-3.574a2.55 2.55 0 0 0 .112-1.344 2.52 2.52 0 0 0-.588-1.207l1.145-3.246a1.36 1.36 0 0 0 .029-.837 1.333 1.333 0 0 0-.467-.69c.35-.517.622-.913.78-1.145.268.109.508.214.733.31.153.069.3.132.441.191.286.12.88.369 1.187-.208a.604.604 0 0 0 .033-.53Zm-3.466 2.64L8.44 10.861a2.507 2.507 0 0 0-.4-.195.968.968 0 0 0-.901.124 1.006 1.006 0 0 0-.362.48L4.83 16.795a1.026 1.026 0 0 0 .263 1.086.98.98 0 0 0 .33.203l.415.152-.21.604a.498.498 0 0 1-.043.07.553.553 0 0 1-.281.253.538.538 0 0 1-.374.01l-3.073-1.131a.54.54 0 0 1-.341-.63.57.57 0 0 1 .012-.083l.02-.053v.01l1.693-4.8h-.005l1.71-4.847.253-.718.19-.55a.557.557 0 0 1 .193-.261.539.539 0 0 1 .303-.106h.018c.063 0 .126.012.185.034l.728.268.324.12.916.337.358.132.746.275a.55.55 0 0 1 .31.287.57.57 0 0 1 .02.426l-.001.003Zm-.67 5.8-1.26 3.574a.734.734 0 0 1-.284.356.71.71 0 0 1-.563.095c-.02-.006-.04-.008-.06-.015l-.063-.023-.249-.092-.12-.044-.12-.044-.419-.154a.211.211 0 0 1-.118-.11.218.218 0 0 1-.007-.163l1.948-5.523a.214.214 0 0 1 .076-.103.206.206 0 0 1 .191-.027c.14.054.272.126.394.214.037.026.07.053.108.082.037.028.07.057.104.088.074.07.14.146.2.228.034.045.057.097.086.143.029.045.06.094.085.142 0 .005.004.007.007.012a1.795 1.795 0 0 1 .065 1.362v.002Zm-6.536-.833-.537 1.524v-.01l-.42-2.057.954.54.003.003ZM1.52 6.286c.485-.326 1.45.004 2.746.928l-1.722 4.88-1.477-.838c-.675-3.783-.074-4.617.453-4.97Z"/></svg>
