<svg width="20" height="19" viewBox="0 0 20 19" xmlns="http://www.w3.org/2000/svg"><path fill-rule="evenodd" clip-rule="evenodd" d="M18.701 11.66c1.941-3.155 1.728-7.096-.784-9.578a.872.872 0 0 0 1.203-.015.836.836 0 0 0 0-1.196.872.872 0 0 0-1.217 0 .835.835 0 0 0-.015 1.182C16.481.678 14.61 0 12.674 0 11.136 0 9.561.438 8.14 1.283L7.7.853a.93.93 0 0 0-1.303 0l-.585.574a.904.904 0 0 0-.27.64.89.89 0 0 0 .27.64l11.438 11.236a.93.93 0 0 0 1.303 0l.584-.574a.903.903 0 0 0 .27-.64.891.891 0 0 0-.27-.64l-.437-.429Zm-.122 1.16-.584.574a.132.132 0 0 1-.187 0l-.249-.245-.272-.268-5.194-5.102-5.47-5.376-.251-.246a.129.129 0 0 1-.029-.141.129.129 0 0 1 .029-.042l.585-.574a.131.131 0 0 1 .143-.028c.016.006.03.016.043.028l.325.32.282.278.278.273 9.667 9.498.278.273.282.277.324.319a.13.13 0 0 1 .039.091.128.128 0 0 1-.039.092v-.001ZM17.344 2.616c1.303 1.28 1.962 3.046 1.862 4.972a7.77 7.77 0 0 1-1.08 3.51L8.71 1.846a8.114 8.114 0 0 1 3.963-1.07c1.804 0 3.462.653 4.67 1.84ZM.926 15.088H17.17c.245 0 .48.095.654.264.174.17.272.4.273.641v.819c0 .24-.098.472-.271.642a.935.935 0 0 1-.654.267H15.07v.367a.898.898 0 0 1-.27.645.927.927 0 0 1-.658.267H3.953a.935.935 0 0 1-.654-.267.902.902 0 0 1-.271-.642v-.367H.925a.935.935 0 0 1-.654-.266.902.902 0 0 1-.271-.643v-.818c0-.241.098-.472.272-.643a.935.935 0 0 1 .654-.266Zm16.337 1.816a.13.13 0 0 0 .038-.092v-.819a.13.13 0 0 0-.038-.091.134.134 0 0 0-.093-.038H.926a.134.134 0 0 0-.093.038.13.13 0 0 0-.04.091v.819a.13.13 0 0 0 .04.091.134.134 0 0 0 .093.039H17.17a.134.134 0 0 0 .093-.038Zm-3.028 1.275a.13.13 0 0 0 .04-.091v-.367H3.82v.367a.13.13 0 0 0 .039.091.134.134 0 0 0 .093.039h10.19a.134.134 0 0 0 .092-.039Z"/></svg>
