<svg width="20" height="13" viewBox="0 0 20 13" xmlns="http://www.w3.org/2000/svg"><path d="M19.692 7.364a12.931 12.931 0 0 0-2.776-1.277c.119-1.293-.027-2.744-.44-4.346l-.092-.359-.345.096c-1.453.405-2.666.963-3.653 1.658-.514-.96-1.219-1.919-2.136-2.875L9.998 0l-.25.261c-.916.953-1.62 1.912-2.137 2.872-.987-.695-2.199-1.253-3.653-1.658l-.345-.096-.092.359c-.412 1.601-.558 3.053-.44 4.346-.97.313-1.901.741-2.776 1.277L0 7.55l.178.32c1.594 2.875 3.534 4.541 5.766 4.951.361.066.727.099 1.094.099a6.822 6.822 0 0 0 2.153-.365c.125.023.224.037.297.047.172.15.287.233.308.249L10 13l.204-.149c.022-.016.136-.1.309-.249.072-.009.17-.023.297-.047.695.237 1.421.36 2.152.365.367 0 .733-.033 1.094-.099 2.232-.41 4.171-2.075 5.766-4.95L20 7.55l-.308-.186Zm-5.753 4.724a5.373 5.373 0 0 1-1.626.044c1.113-.423 2.478-1.204 3.448-2.645.522-.777.865-1.667 1.045-2.656.768.253 1.51.585 2.215.992-1.445 2.475-3.153 3.909-5.082 4.265Zm-7.877 0c-1.93-.356-3.638-1.79-5.082-4.265a11.898 11.898 0 0 1 2.215-.991 6.922 6.922 0 0 0 1.044 2.655c.97 1.441 2.335 2.221 3.448 2.646a5.392 5.392 0 0 1-1.625-.045Zm-1.938-9.79c1.256.381 2.304.886 3.157 1.502a7.712 7.712 0 0 0-.575 2.012c-.018.122-.03.243-.041.365-.01.121-.026.25-.03.374-.012.266-.007.532.014.797.12 1.437.686 2.63 1.305 3.534l.074.109c.165.235.334.448.498.641-1.076-.32-2.67-1.03-3.707-2.575-.47-.7-.775-1.513-.933-2.417-.021-.123-.042-.246-.058-.372a7.555 7.555 0 0 1-.036-.364c-.085-1.084.021-2.283.332-3.606ZM8.19 3.585c.44-.84 1.036-1.682 1.81-2.526.775.844 1.371 1.687 1.81 2.526.059.111.111.222.163.333.051.112.112.234.16.35a6.863 6.863 0 0 1 .506 2.094c.008.123.011.262.012.392 0 .175.005.35-.01.523-.09 1.077-.473 2.015-.93 2.776a8.514 8.514 0 0 1-1.123 1.465l-.083.085-.029.03a8.502 8.502 0 0 1-.257.249l-.033.03-.051.047-.135.119a12.69 12.69 0 0 1-.135-.118l-.051-.047-.034-.03a7.862 7.862 0 0 1-.257-.25l-.028-.03-.083-.085a8.525 8.525 0 0 1-.892-1.102 7.242 7.242 0 0 1-.23-.362c-.458-.762-.842-1.699-.931-2.78-.015-.174-.011-.348-.01-.523 0-.13 0-.261.012-.389a6.862 6.862 0 0 1 .505-2.094c.048-.116.106-.233.161-.35.055-.116.105-.222.163-.333Zm7.687-1.287c.31 1.323.415 2.522.33 3.6-.01.123-.021.245-.036.365-.015.12-.037.248-.058.371-.158.908-.464 1.72-.933 2.42-1.036 1.544-2.63 2.255-3.707 2.575a9.09 9.09 0 0 0 .498-.64l.074-.11c.62-.904 1.185-2.096 1.306-3.534.02-.265.026-.53.015-.796-.005-.125-.02-.25-.031-.375a7.687 7.687 0 0 0-.04-.365 7.713 7.713 0 0 0-.576-2.011c.851-.614 1.903-1.119 3.158-1.5Z"/></svg>
