<svg width="20" height="22" viewBox="0 0 20 22" xmlns="http://www.w3.org/2000/svg"><path fill-rule="evenodd" clip-rule="evenodd" d="m19.31 3.335.564.567a.43.43 0 0 1 .126.305.437.437 0 0 1-.124.306l-3.07 3.171a.417.417 0 0 1-.589.01l-4.263 4.361-3.291 8.325.507.209a.433.433 0 0 1 .228.234.444.444 0 0 1 .001.33.432.432 0 0 1-.225.236.42.42 0 0 1-.323.009l-.507-.209-.213.538a.437.437 0 0 1-.229.238.421.421 0 0 1-.56-.23.442.442 0 0 1-.004-.333l.213-.538-.507-.209a.432.432 0 0 1-.228-.234.444.444 0 0 1-.002-.33.432.432 0 0 1 .226-.236.42.42 0 0 1 .323-.009l.507.208 2.536-6.418-5.438 5.56.388.396a.441.441 0 0 1-.011.604.424.424 0 0 1-.593.013l-.387-.395-.402.41a.428.428 0 0 1-.306.141.421.421 0 0 1-.311-.127.436.436 0 0 1-.126-.317.443.443 0 0 1 .138-.312l.401-.41-.387-.395a.44.44 0 0 1 .01-.604.424.424 0 0 1 .593-.013l.388.395 6.866-7.023 2.61-6.604a.425.425 0 0 1-.222-.23.436.436 0 0 1-.002-.323L15.243.268a.426.426 0 0 1 .226-.234.414.414 0 0 1 .322-.003l.782.323a.426.426 0 0 1 .23.231.437.437 0 0 1 .002.329l-1.627 4.133a.426.426 0 0 1-.227.234.414.414 0 0 1-.322.003l-1.857 4.695 2.844-2.909a.43.43 0 0 1 .03-.558l3.068-3.173a.42.42 0 0 1 .46-.096.42.42 0 0 1 .137.092ZM4.643 12.467a2.133 2.133 0 0 1-2.248.306c-.44-.2-.802-.543-1.03-.975l-.61.158a.166.166 0 0 1-.203-.125L.005 9.59a.174.174 0 0 1 .063-.179.166.166 0 0 1 .06-.028l.631-.158c.028-.363.167-.708.398-.986.23-.279.54-.476.887-.565l5.587-1.417a1.675 1.675 0 0 1 1.043.073c.332.135.613.372.805.68l.632-.159a.165.165 0 0 1 .175.065.172.172 0 0 1 .028.06l.547 2.234a.174.174 0 0 1-.063.179.166.166 0 0 1-.06.028l-.61.158a2.23 2.23 0 0 1-.339 1.174c-.22.35-.533.63-.902.807a2.122 2.122 0 0 1-2.29-.294 3.359 3.359 0 0 1-.524-.64 1.318 1.318 0 0 0-.033-.055l-.015-.023a1.678 1.678 0 0 1-.14-.26v-.002c-.044-.09-.08-.174-.113-.248-.1-.23-.161-.37-.267-.353H5.5c-.108.032-.097.184-.08.434.006.081.012.172.015.273v.186c0 .032-.003.069-.006.104l-.002.038-.003.051a3.187 3.187 0 0 1-.05.382 3.365 3.365 0 0 1-.149.554 2.19 2.19 0 0 1-.583.763Zm-2.967-2.135.19.777-.003.001c.079.332.27.624.537.829a1.424 1.424 0 0 0 1.832-.088c.248-.23.41-.54.46-.877.013-.174.018-.35.014-.524a4.83 4.83 0 0 1 .02-.78.817.817 0 0 1 .076-.258l.007-.017a.599.599 0 0 1 .027-.054.836.836 0 0 1 .078-.102.691.691 0 0 1 .131-.128l.014-.009a.768.768 0 0 1 .568-.144h.016c.06.01.12.026.175.05a.804.804 0 0 1 .113.055.894.894 0 0 1 .215.198c.01.015.022.03.033.044.151.23.285.472.399.723.06.12.126.242.204.366.12.18.276.33.46.44.183.11.388.179.6.2a1.43 1.43 0 0 0 1.295-.608 1.49 1.49 0 0 0 .23-1.22l-.085-.353L9 7.708a1.006 1.006 0 0 0-.449-.619.972.972 0 0 0-.746-.115L2.22 8.39a.98.98 0 0 0-.61.458 1.019 1.019 0 0 0-.111.763l.176.72Z"/></svg>
