<svg width="20" height="13" viewBox="0 0 20 13" xmlns="http://www.w3.org/2000/svg"><path fill-rule="evenodd" clip-rule="evenodd" d="M8.316.508A3.663 3.663 0 0 1 10.168 0c.99.002 1.939.407 2.639 1.128.7.72 1.093 1.696 1.094 2.714 0 4.747-6.469 8.856-6.744 9.028l-.206.13-.207-.13C6.47 12.698 0 8.59 0 3.842 0 2.999.27 2.18.766 1.51A3.73 3.73 0 0 1 2.752.136c.79-.221 1.63-.17 2.388.148a3.766 3.766 0 0 1 1.81 1.61C7.282 1.317 7.752.84 8.317.507ZM.796 3.842c0 3.849 5.062 7.458 6.155 8.195h.002c1.094-.737 6.157-4.35 6.157-8.195a3.074 3.074 0 0 0-.725-1.993A2.916 2.916 0 0 0 10.564.841a2.874 2.874 0 0 0-2.016.475A3.02 3.02 0 0 0 7.336 3.04l-.383 1.434L6.57 3.04a3.02 3.02 0 0 0-1.213-1.721A2.875 2.875 0 0 0 3.342.845a2.917 2.917 0 0 0-1.82 1.007 3.075 3.075 0 0 0-.726 1.99Zm14.54-2.91c.447-.23.94-.352 1.44-.354.855 0 1.674.35 2.279.971A3.37 3.37 0 0 1 20 3.894c0 4.226-5.796 8.118-6.427 8.528a22.54 22.54 0 0 1-2.367-1.81c.209-.208.397-.405.574-.598.554.486 1.132.941 1.734 1.363l.059.042.06-.042c.926-.648 5.549-4.053 5.549-7.483a2.516 2.516 0 0 0-.546-1.58 2.389 2.389 0 0 0-1.4-.858 2.34 2.34 0 0 0-1.61.26 2.45 2.45 0 0 0-1.078 1.26 4.57 4.57 0 0 0-.345-1.063 3.248 3.248 0 0 1 1.133-.98Z"/></svg>
