<svg width="22" height="12" viewBox="0 0 22 12" xmlns="http://www.w3.org/2000/svg"><path d="M11 0a.711.711 0 0 0-.517.22L.117 10.983a.422.422 0 0 0 .136.679.407.407 0 0 0 .456-.094l3.155-3.276v3.306a.407.407 0 0 0 .245.371c.048.02.1.031.152.031h13.478a.392.392 0 0 0 .366-.248.408.408 0 0 0 .03-.154V8.293l3.156 3.276a.412.412 0 0 0 .456.094.422.422 0 0 0 .135-.679L11.516.22A.72.72 0 0 0 11 0ZM4.68 7.527l5.912-6.21v4.646L8.317 11.15H4.68V7.527Zm12.64 3.624h-5.912V1.316l5.912 6.211v3.624Z"/></svg>
