<svg width="18" height="18" viewBox="0 0 18 18" xmlns="http://www.w3.org/2000/svg"><path d="M16.084 10.085V8.443A2.443 2.443 0 0 0 13.643 6a2.44 2.44 0 0 0-2.441 2.443v1.64h-.596V4.236h-2.86V2.443A2.443 2.443 0 0 0 5.307 0a2.44 2.44 0 0 0-2.441 2.443v1.792H0V18h18v-7.915h-1.916Zm-4.21-1.642a1.77 1.77 0 0 1 2.981-1.186c.329.31.526.734.552 1.186v1.636h-3.532V8.443Zm-8.337-6A1.771 1.771 0 0 1 6.004.715a1.77 1.77 0 0 1 1.065 1.728V4.23H3.537V2.443Zm6.394 7.636h-.645v7.242H.676V4.91h9.256l-.001 5.17Zm7.393 7.247H9.958V10.76h7.363l.003 6.565Z"/></svg>
