<svg width="20" height="12" viewBox="0 0 20 12" xmlns="http://www.w3.org/2000/svg"><path d="m16.452 11.304-13.06-.209c-.949-.017-1.714-.843-1.696-1.852L1.8 1.791C1.817.783 2.6-.017 3.548.001l13.06.208c.948.017 1.714.843 1.696 1.852L18.2 9.513c-.017 1.008-.8 1.809-1.748 1.791Z"/><path d="m20 3.974-.052 3.67a.492.492 0 0 1-.496.504l-1.46-.026c-.27 0-.479-.235-.479-.522v-.391c.06.052.14.087.217.087l.974.017a.329.329 0 0 0 .322-.33l.035-2.374c0-.183-.14-.34-.313-.34l-.974-.017a.302.302 0 0 0-.218.087v-.391c.01-.287.235-.513.496-.504l1.461.026c.27 0 .478.234.478.521L20 3.974ZM.052 3.652 0 7.322c0 .287.209.521.478.521l1.461.026c.27 0 .487-.226.496-.504v-.391a.304.304 0 0 1-.209.087l-.974-.018c-.174 0-.313-.156-.313-.339l.035-2.373c0-.183.148-.33.322-.33l.974.016c.078 0 .156.035.208.087v-.39c.009-.288-.208-.523-.47-.523l-1.46-.026a.509.509 0 0 0-.496.505v-.018Z"/></svg>
