<svg width="18" height="15" viewBox="0 0 18 15" xmlns="http://www.w3.org/2000/svg"><path d="M14.072 3.759A5.216 5.216 0 0 0 9.09 0a5.135 5.135 0 0 0-4.71 3.036A4.622 4.622 0 0 0 0 7.651a4.625 4.625 0 0 0 4.62 4.62h.494v-.807H4.62A3.818 3.818 0 0 1 .807 7.65a3.82 3.82 0 0 1 3.82-3.814h.024a.397.397 0 0 0 .373-.259A4.342 4.342 0 0 1 9.09.808a4.387 4.387 0 0 1 4.265 3.427c.042.187.205.32.392.32a3.458 3.458 0 0 1 3.446 3.451 3.455 3.455 0 0 1-3.452 3.452h-.85v.807h.85c2.35 0 4.259-1.91 4.259-4.259.012-2.235-1.729-4.084-3.928-4.247zM6.5 8.205a.404.404 0 0 0-.404.403v4.705a.404.404 0 0 0 .808 0V8.608a.404.404 0 0 0-.404-.403zM8.904 9.21a.404.404 0 0 0-.404.403v4.705a.404.404 0 0 0 .807 0V9.614a.404.404 0 0 0-.403-.403zm2.608-1.006a.404.404 0 0 0-.404.403v4.705a.404.404 0 0 0 .808 0V8.608a.404.404 0 0 0-.404-.403z"/></svg>