<svg width="18" height="16" viewBox="0 0 18 16" xmlns="http://www.w3.org/2000/svg"><path d="M7.537 14.996a.457.457 0 1 0 0 .915.457.457 0 0 0 0-.915zm0-1.872a.457.457 0 1 0 0 .914.457.457 0 0 0 0-.914zm0-1.872a.457.457 0 1 0 0 .914.457.457 0 0 0 0-.914zm-2.04-.855a.457.457 0 1 0-.001.914.457.457 0 0 0 0-.914zm0 3.75a.457.457 0 1 0-.001.915.457.457 0 0 0 0-.915zm0-1.872a.457.457 0 1 0-.001.915.457.457 0 0 0 0-.915zm4.262-1.878a.457.457 0 1 0 0 .914.457.457 0 0 0 0-.914zm0 3.75a.457.457 0 1 0 0 .915.457.457 0 0 0 0-.915zm0-1.872a.457.457 0 1 0 0 .915.457.457 0 0 0 0-.915zm1.438-10l-1.12-1.12-.481.482 1.12 1.12a3.64 3.64 0 0 1 .481-.481zm.325 2.005a1.768 1.768 0 0 1 1.698-1.27c.975 0 1.77.795 1.77 1.77 0 .728-.44 1.354-1.072 1.625.217.133.422.277.614.446a2.438 2.438 0 0 0 1.138-2.065 2.452 2.452 0 0 0-2.45-2.45c-.993 0-1.848.596-2.233 1.45.186.145.367.314.535.494zm4.202-1.523l1.12-1.12-.481-.481-1.12 1.12c.174.144.337.307.481.481zm-2.16-1.18V0h-.687v1.577a3.275 3.275 0 0 1 .686 0zm2.859 2.86a3.276 3.276 0 0 1 0 .686H18v-.686h-1.577zM11.908 6.64a4.407 4.407 0 0 0-4.214-3.178 4.355 4.355 0 0 0-3.986 2.564A3.921 3.921 0 0 0 0 9.933a3.91 3.91 0 0 0 3.907 3.907h.415v-.686h-.415A3.23 3.23 0 0 1 .68 9.927 3.232 3.232 0 0 1 3.913 6.7h.018a.345.345 0 0 0 .32-.216 3.674 3.674 0 0 1 3.443-2.348 3.726 3.726 0 0 1 3.612 2.901.345.345 0 0 0 .33.271 2.921 2.921 0 0 1 2.915 2.92 2.922 2.922 0 0 1-2.92 2.92h-.723v.686h.723a3.612 3.612 0 0 0 3.606-3.606c0-1.89-1.47-3.45-3.33-3.588zm3.335.644l1.12 1.12.481-.482-1.12-1.12a3.272 3.272 0 0 1-.481.482z"/></svg>