<svg width="18" height="14" viewBox="0 0 18 14" xmlns="http://www.w3.org/2000/svg"><path d="M11.197 2.303L10.084 1.17l-.482.487 1.12 1.133c.138-.183.3-.34.475-.487zm2.366-.707V0h-.686v1.596a3.237 3.237 0 0 1 .686 0zm2.161 1.194l1.12-1.133-.481-.487-1.12 1.133c.174.146.337.304.481.487zm.699 1.7a3.354 3.354 0 0 1 0 .695H18V4.49h-1.577zm-1.18 2.882l1.12 1.133.481-.488-1.12-1.133a3.663 3.663 0 0 1-.481.488zm-3.72-3.04a1.771 1.771 0 0 1 1.697-1.286c.975 0 1.77.804 1.77 1.791 0 .737-.44 1.371-1.072 1.645.217.134.422.28.614.451a2.474 2.474 0 0 0 1.138-2.09c0-1.37-1.101-2.48-2.45-2.48-.993 0-1.848.604-2.233 1.469.186.146.367.317.535.5zm.385 2.382c-.53-1.883-2.264-3.217-4.214-3.217a4.339 4.339 0 0 0-3.986 2.595C1.643 6.202 0 7.932 0 10.046 0 12.227 1.752 14 3.907 14h7.724c1.986 0 3.606-1.639 3.606-3.65 0-1.912-1.47-3.49-3.33-3.636zm-.277 6.598H3.907c-1.776 0-3.227-1.463-3.227-3.266 0-1.797 1.445-3.265 3.233-3.265h.018a.345.345 0 0 0 .32-.22 3.674 3.674 0 0 1 3.443-2.376c1.721 0 3.238 1.237 3.612 2.937a.347.347 0 0 0 .33.274c1.608 0 2.915 1.328 2.915 2.955.006 1.632-1.307 2.96-2.92 2.96z"/></svg>