<svg width="18" height="15" viewBox="0 0 18 15" xmlns="http://www.w3.org/2000/svg"><path d="M9.608 5.082a2.548 2.548 0 0 0 2.402-2.538A2.55 2.55 0 0 0 9.458 0a2.55 2.55 0 0 0-2.553 2.544h.83a1.716 1.716 0 0 1 3.432 0c0 .942-.77 1.71-1.715 1.71H1.788v.834l7.82-.006zm5.84-2.25a2.55 2.55 0 0 0-2.553 2.544h.837a1.716 1.716 0 0 1 3.431 0c0 .942-.77 1.71-1.716 1.71H0v.834h15.447A2.55 2.55 0 0 0 18 5.376a2.55 2.55 0 0 0-2.553-2.544zM13.43 9.918l-9.175-.006v.834h9.018c.945 0 1.716.768 1.716 1.71a1.716 1.716 0 0 1-3.431 0h-.837A2.55 2.55 0 0 0 13.274 15a2.543 2.543 0 0 0 .157-5.082z"/></svg>