<svg width="18" height="17" viewBox="0 0 18 17" xmlns="http://www.w3.org/2000/svg"><path d="M5.352 4.666L2.98 2.294l-.686.68 2.372 2.378a5.17 5.17 0 0 1 .686-.686zM3.329 9c0-.163.006-.325.024-.488H0v.97h3.353A6.29 6.29 0 0 1 3.33 9zm6.159-5.647V0h-.97v3.353c.163-.012.32-.024.488-.024.157 0 .32.006.482.024zm3.846 1.999l2.372-2.372-.686-.686-2.372 2.372c.247.204.476.433.686.686zm1.313 3.16c.012.163.024.32.024.488 0 .163-.006.325-.024.488H18v-.97h-3.353v-.006zm-9.62 2.493h1.126A3.484 3.484 0 0 1 5.514 9 3.492 3.492 0 0 1 9 5.514 3.488 3.488 0 0 1 12.486 9a3.44 3.44 0 0 1-.639 2.005h1.126A4.398 4.398 0 0 0 13.455 9a4.461 4.461 0 0 0-4.461-4.455A4.456 4.456 0 0 0 4.539 9a4.5 4.5 0 0 0 .488 2.005zM0 13.184h18v-.97H0v.97zm2.318 3.215h13.364v-.97H2.318v.97z"/></svg>