<svg width="18" height="17" viewBox="0 0 18 17" xmlns="http://www.w3.org/2000/svg"><path d="M4.69 14.984c.024-.006.048.006.06.03l.024.066.042-.054c.012-.024.042-.03.066-.012.024.012.03.042.012.066l-.078.103.09.24.163-.198-.042-.127c-.012-.024.006-.054.03-.06.024-.012.054.006.06.03l.024.066.048-.054c.012-.018.048-.024.067-.006.018.012.024.048.006.066l-.049.055.067.006c.024.006.048.03.042.054-.006.024-.03.048-.054.042l-.127-.018-.162.199.252.042.085-.097a.043.043 0 0 1 .066-.006.043.043 0 0 1 .006.067l-.048.054.072.012c.03 0 .048.03.042.054 0 .03-.03.048-.054.042l-.072-.012.024.066c.012.03 0 .055-.024.067-.018.006-.036.006-.048-.006l-.012-.019-.049-.12-.252-.042.09.24.126.025a.053.053 0 0 1 .036.06c-.006.024-.03.042-.066.036l-.066-.012.024.066c.006.024-.006.048-.03.06-.018.007-.036.007-.048-.006-.006 0-.006-.012-.012-.018l-.024-.066-.042.054c-.013.024-.043.03-.067.012l-.013-.02c-.006-.016-.005-.034.007-.046l.079-.102-.09-.24-.163.198.042.126c.012.024-.006.054-.03.06-.018.006-.036.006-.048-.006-.012-.006-.018-.012-.018-.024l-.025-.066-.048.054c-.012.018-.048.024-.066.006-.018-.012-.024-.048-.006-.066l.048-.054-.066-.006a.046.046 0 0 1-.024-.012c-.012-.006-.018-.024-.018-.042.006-.024.03-.049.054-.043l.126.019.163-.2-.253-.041-.084.096c-.018.018-.048.024-.066.006l-.017-.021a.043.043 0 0 1 .01-.045l.049-.054-.072-.012c-.013-.006-.019-.006-.025-.012-.012-.012-.024-.03-.018-.049 0-.03.03-.048.055-.042l.072.012-.024-.066c-.012-.03 0-.054.024-.066.03-.012.054 0 .066.024l.048.12.253.043-.09-.241-.127-.024-.018-.012c-.012-.012-.024-.03-.018-.049a.053.053 0 0 1 .06-.036l.067.012-.024-.066c-.006-.024.006-.048.03-.06zm3.046-.072c.024 0 .048.024.048.048v.072l.06-.036c.024-.012.054-.006.066.018.012.024.006.054-.018.066l-.108.073v.258l.223-.126.006-.132c0-.03.024-.049.048-.049.03 0 .048.024.048.049v.066l.06-.036c.024-.012.054-.006.066.018.012.024.006.054-.018.066l-.06.036.06.03c.024.012.03.042.018.066a.05.05 0 0 1-.042.024c-.012 0-.018 0-.024-.006l-.114-.06-.223.127.223.126.114-.06c.024-.012.054-.006.066.018.012.024.006.054-.018.066l-.06.03.06.036c.024.012.03.042.018.067-.006.018-.024.024-.042.024-.006 0-.018 0-.024-.006l-.06-.037v.067a.052.052 0 0 1-.048.048l-.023-.007a.051.051 0 0 1-.025-.041l-.006-.133-.223-.126v.259l.108.072c.024.012.03.042.018.066-.012.018-.024.024-.042.024-.006 0-.018 0-.024-.006l-.06-.036v.072a.052.052 0 0 1-.048.049.052.052 0 0 1-.048-.049v-.072l-.06.036c-.007.006-.019.006-.025.006-.018 0-.03-.012-.042-.024-.012-.024-.006-.054.018-.066l.109-.072v-.26l-.223.127-.006.133c0 .03-.024.048-.048.048l-.026-.007a.049.049 0 0 1-.022-.041v-.067l-.06.037c-.007.006-.019.006-.025.006-.018 0-.036-.006-.042-.024-.012-.025-.006-.055.018-.067l.06-.036-.06-.03c-.024-.012-.03-.042-.018-.066s.042-.03.066-.018l.115.06.222-.126-.222-.127-.115.06c-.006.006-.018.006-.024.006-.018 0-.036-.006-.042-.024-.012-.024-.006-.054.018-.066l.06-.03-.06-.036c-.024-.012-.03-.042-.018-.066s.042-.03.066-.018l.06.036v-.066c0-.025.025-.049.049-.049s.048.024.048.049l.006.132.223.126v-.258l-.109-.073c-.024-.012-.03-.042-.018-.066s.042-.03.066-.018l.06.036v-.072c0-.024.025-.048.049-.048zm2.69 0c.025 0 .049.024.049.048v.072l.06-.036c.024-.012.054-.006.066.018.012.024.006.054-.018.066l-.108.073v.258l.223-.126.006-.132c0-.03.024-.049.048-.049.03 0 .048.024.048.049v.066l.06-.036c.024-.012.054-.006.066.018.012.024.006.054-.018.066l-.06.036.06.03c.024.012.03.042.018.066a.05.05 0 0 1-.042.024c-.012 0-.018 0-.024-.006l-.114-.06-.223.127.223.126.114-.06c.024-.012.054-.006.066.018.012.024.006.054-.018.066l-.06.03.06.036c.024.012.03.042.018.067-.006.018-.024.024-.042.024-.006 0-.018 0-.024-.006l-.06-.037v.067a.052.052 0 0 1-.048.048l-.023-.007a.051.051 0 0 1-.025-.041l-.006-.133-.223-.126v.259l.108.072c.024.012.03.042.018.066-.012.018-.024.024-.042.024-.006 0-.018 0-.024-.006l-.06-.036v.072a.052.052 0 0 1-.048.049.052.052 0 0 1-.048-.049v-.072l-.06.036c-.007.006-.019.006-.025.006-.018 0-.03-.012-.042-.024-.012-.024-.006-.054.018-.066l.109-.072v-.26l-.223.127-.006.133c0 .03-.024.048-.048.048l-.026-.007a.049.049 0 0 1-.022-.041v-.067l-.06.037c-.007.006-.019.006-.025.006-.018 0-.036-.006-.042-.024-.012-.025-.006-.055.018-.067l.06-.036-.06-.03c-.024-.012-.03-.042-.018-.066s.042-.03.066-.018l.115.06.222-.126-.222-.127-.115.06c-.006.006-.018.006-.024.006-.018 0-.036-.006-.042-.024-.012-.024-.006-.054.018-.066l.06-.03-.06-.036c-.024-.012-.03-.042-.018-.066s.042-.03.066-.018l.06.036v-.066c0-.025.025-.049.049-.049s.048.024.048.049l.006.132.223.126v-.258l-.109-.073c-.024-.012-.03-.042-.018-.066s.042-.03.066-.018l.06.036v-.072c0-.024.025-.048.049-.048zm-4.033-1.656c.024 0 .048.024.048.048v.073l.06-.037c.025-.012.055-.006.067.019.012.024.006.054-.018.066l-.109.072v.259l.223-.127.006-.132c0-.03.024-.048.048-.048.03 0 .049.024.049.048v.066l.06-.036c.024-.012.054-.006.066.018.012.024.006.054-.018.066l-.06.036.06.03c.024.013.03.043.018.067a.05.05 0 0 1-.042.024c-.012 0-.018 0-.024-.006l-.115-.06-.222.126.222.127.115-.06c.024-.013.054-.007.066.017.012.024 0 .055-.018.067l-.06.03.06.036c.024.012.03.042.018.066-.006.018-.024.024-.042.024-.006 0-.018 0-.024-.006l-.06-.036v.066a.052.052 0 0 1-.049.048l-.023-.007a.051.051 0 0 1-.025-.04l-.006-.133-.223-.127v.26l.109.071c.024.012.03.043.018.067-.012.018-.024.024-.042.024-.006 0-.018 0-.024-.006l-.06-.036v.072a.052.052 0 0 1-.049.048.052.052 0 0 1-.048-.048v-.072l-.06.036c-.006.006-.018.006-.024.006-.018 0-.03-.012-.042-.024-.012-.024-.006-.055.018-.067l.108-.072V13.9l-.223.127-.006.132c0 .03-.024.048-.048.048l-.026-.007a.049.049 0 0 1-.022-.04v-.067l-.06.036c-.006.006-.018.006-.024.006-.018 0-.036-.006-.042-.024-.012-.024-.006-.054.018-.066l.06-.036-.06-.03c-.024-.012-.03-.043-.018-.067.012-.024.042-.03.066-.018l.114.06.223-.126-.223-.126-.114.06c-.006.006-.018.006-.024.006-.018 0-.036-.006-.042-.024-.012-.024-.006-.054.018-.066l.06-.03-.06-.037c-.024-.012-.03-.042-.018-.066s.042-.03.066-.018l.06.036v-.066c0-.024.024-.048.048-.048s.048.024.048.048l.006.132.223.127v-.259l-.108-.072c-.024-.012-.03-.042-.018-.066.012-.025.042-.03.066-.019l.06.037v-.073c0-.024.024-.048.048-.048zm2.697 0c.024 0 .048.024.048.048v.073l.06-.037c.025-.012.055-.006.067.019.012.024.006.054-.018.066l-.109.072v.259l.223-.127.006-.132c0-.03.024-.048.048-.048.03 0 .049.024.049.048v.066l.06-.036c.024-.012.054-.006.066.018.012.024.006.054-.018.066l-.06.036.06.03c.024.013.03.043.018.067a.05.05 0 0 1-.042.024c-.012 0-.018 0-.024-.006l-.115-.06-.222.126.222.127.115-.06c.024-.013.054-.007.066.017.012.024.006.055-.018.067l-.06.03.06.036c.024.012.03.042.018.066-.006.018-.024.024-.042.024-.006 0-.018 0-.024-.006l-.06-.036v.066a.052.052 0 0 1-.049.048l-.023-.007a.051.051 0 0 1-.025-.04l-.006-.133-.223-.127v.26l.109.071c.024.012.03.043.018.067-.012.018-.024.024-.042.024-.006 0-.018 0-.024-.006l-.06-.036v.072a.052.052 0 0 1-.049.048.052.052 0 0 1-.048-.048v-.072l-.06.036c-.006.006-.018.006-.024.006-.018 0-.03-.012-.042-.024-.012-.024-.006-.055.018-.067l.108-.072V13.9l-.223.127-.006.132c0 .03-.024.048-.048.048L8.74 14.2a.049.049 0 0 1-.022-.04v-.067l-.06.036c-.006.006-.018.006-.024.006-.018 0-.036-.006-.042-.024-.012-.024-.006-.054.018-.066l.06-.036-.06-.03c-.024-.012-.03-.043-.018-.067.012-.024.042-.03.066-.018l.114.06.223-.126-.223-.126-.114.06c-.006.006-.018.006-.024.006-.018 0-.036-.006-.042-.024-.012-.024-.006-.054.018-.066l.06-.03-.06-.037c-.024-.012-.03-.042-.018-.066s.042-.03.066-.018l.06.036v-.066c0-.024.024-.048.048-.048s.048.024.048.048l.006.132.223.127v-.259l-.108-.072c-.024-.012-.03-.042-.018-.066.012-.025.042-.03.066-.019l.06.037v-.073c0-.024.024-.048.048-.048zM7.694 3.462a4.407 4.407 0 0 1 4.214 3.178 3.604 3.604 0 0 1 3.329 3.588 3.612 3.612 0 0 1-3.606 3.606h-.723v-.686h.723a2.922 2.922 0 0 0 2.92-2.92 2.921 2.921 0 0 0-2.914-2.92.346.346 0 0 1-.331-.27 3.726 3.726 0 0 0-3.612-2.902A3.674 3.674 0 0 0 4.25 6.484a.345.345 0 0 1-.319.216h-.018A3.232 3.232 0 0 0 .68 9.927a3.23 3.23 0 0 0 3.227 3.227h.415v.686h-.415A3.91 3.91 0 0 1 0 9.933a3.921 3.921 0 0 1 3.708-3.907 4.354 4.354 0 0 1 3.986-2.564zm-.012 8.265c.024 0 .048.024.048.048v.072l.06-.036c.024-.012.054-.006.066.018.012.025.006.055-.018.067l-.108.072v.259l.223-.127.006-.132c0-.03.024-.048.048-.048.03 0 .048.024.048.048v.066l.06-.036c.024-.012.054-.006.066.018.012.024.006.054-.018.066l-.06.036.06.03c.024.013.03.043.018.067a.05.05 0 0 1-.042.024c-.012 0-.018 0-.024-.006l-.114-.06-.223.126.223.126.114-.06c.024-.012.054-.006.066.018.018.024.006.048-.018.066l-.06.03.06.037c.024.012.03.042.018.066-.006.018-.024.024-.042.024-.006 0-.018 0-.024-.006l-.06-.036v.066a.052.052 0 0 1-.048.048l-.023-.007a.051.051 0 0 1-.025-.04l-.006-.133-.223-.127v.26l.108.071c.024.012.03.042.018.067-.012.018-.024.024-.042.024-.006 0-.018 0-.024-.006l-.06-.036v.072a.052.052 0 0 1-.048.048.052.052 0 0 1-.049-.048v-.072l-.06.036c-.006.006-.018.006-.024.006-.018 0-.03-.012-.042-.024-.012-.025-.006-.055.018-.067l.108-.072v-.259l-.222.127-.006.132c0 .03-.024.048-.048.048l-.026-.007a.049.049 0 0 1-.023-.04v-.067l-.06.036c-.006.006-.018.006-.024.006-.018 0-.036-.006-.042-.024-.012-.024-.006-.054.018-.066l.06-.036-.06-.03c-.024-.013-.03-.043-.018-.067.012-.024.042-.03.066-.018l.115.06.222-.126-.222-.126-.115.06c-.006.006-.018.006-.024.006-.018 0-.036-.006-.042-.024-.012-.024-.006-.054.018-.067l.06-.03-.06-.036c-.024-.012-.03-.042-.018-.066s.042-.03.066-.018l.06.036v-.066c0-.024.024-.048.049-.048.024 0 .048.024.048.048l.006.132.222.127v-.26l-.108-.071c-.024-.012-.03-.042-.018-.067.012-.024.042-.03.066-.018l.06.036v-.072c0-.024.025-.048.049-.048zm2.48 0c.024 0 .048.024.048.048v.072l.06-.036c.024-.012.054-.006.066.018.012.025.006.055-.018.067l-.108.072v.259l.223-.127.006-.132c0-.03.024-.048.048-.048.03 0 .048.024.048.048v.066l.06-.036c.024-.012.054-.006.067.018.012.024.006.054-.019.066l-.06.036.06.03c.025.013.03.043.019.067a.05.05 0 0 1-.043.024c-.012 0-.018 0-.024-.006l-.114-.06-.223.126.223.126.114-.06c.024-.012.054-.006.067.018.012.024.006.048-.019.066l-.06.03.06.037c.025.012.03.042.019.066-.006.018-.025.024-.043.024-.006 0-.018 0-.024-.006l-.06-.036v.066a.052.052 0 0 1-.048.048l-.023-.007a.051.051 0 0 1-.025-.04l-.006-.133-.223-.127v.26l.108.071c.024.012.03.042.018.067-.012.018-.024.024-.042.024-.006 0-.018 0-.024-.006l-.06-.036v.072a.052.052 0 0 1-.048.048.052.052 0 0 1-.048-.048v-.072l-.06.036c-.007.006-.019.006-.025.006-.018 0-.03-.012-.042-.024-.012-.025-.006-.055.018-.067l.109-.072v-.259l-.223.127-.006.132c0 .03-.024.048-.048.048l-.026-.007a.049.049 0 0 1-.022-.04v-.067l-.06.036c-.007.006-.019.006-.025.006-.018 0-.036-.006-.042-.024-.012-.024-.006-.054.018-.066l.06-.036-.06-.03c-.024-.013-.03-.043-.018-.067.012-.024.042-.03.066-.018l.115.06.223-.126-.223-.126-.115.06c-.006.006-.018.006-.024.006-.018 0-.036-.006-.042-.024-.012-.024-.006-.054.018-.067l.06-.03-.06-.036c-.024-.012-.03-.042-.018-.066s.042-.03.066-.018l.06.036v-.066c0-.024.025-.048.049-.048s.048.024.048.048l.006.132.223.127v-.26l-.109-.071c-.024-.012-.03-.042-.018-.067.012-.024.042-.03.067-.018l.06.036v-.072c0-.024.024-.048.048-.048zm-5.16.066a.052.052 0 0 1 .06.03l.025.067.042-.055c.012-.024.042-.03.066-.012.024.012.03.043.012.067l-.078.102.09.24.163-.198-.042-.126c-.012-.024.006-.054.03-.06.024-.013.054.006.06.03l.024.066.048-.054c.012-.018.049-.024.067-.006.018.012.024.048.006.066l-.049.054.067.006c.024.006.048.03.042.054-.006.024-.03.048-.054.042l-.127-.018-.162.199.252.042.085-.096a.043.043 0 0 1 .066-.006.043.043 0 0 1 .006.066l-.048.054.072.012c.03 0 .048.03.042.054 0 .03-.03.049-.054.043l-.072-.013.024.067c.012.03 0 .054-.024.066-.018.006-.036.006-.048-.006l-.012-.018-.049-.12-.252-.043.09.241.126.024a.053.053 0 0 1 .036.06c-.006.024-.03.043-.066.037l-.066-.013.024.067c.006.024-.006.048-.03.06-.018.006-.036.006-.048-.006-.006 0-.006-.012-.012-.018l-.024-.066-.042.054c-.012.024-.043.03-.067.012l-.013-.021c-.006-.016-.005-.033.007-.045l.079-.103-.09-.24-.163.198.042.127c.012.024-.006.054-.03.06-.018.006-.036.006-.048-.006-.012-.006-.018-.012-.018-.024l-.025-.067-.048.055c-.012.018-.048.024-.066.006-.018-.012-.024-.049-.006-.067l.048-.054-.066-.006a.046.046 0 0 1-.024-.012c-.012-.006-.018-.024-.018-.042.006-.024.03-.048.054-.042l.126.018.163-.199-.253-.042-.084.096c-.018.018-.048.025-.066.006l-.017-.02a.043.043 0 0 1 .01-.046l.049-.054-.072-.012c-.012-.006-.018-.006-.025-.012-.012-.012-.024-.03-.018-.048 0-.03.03-.048.055-.042l.072.012-.024-.067c-.012-.03 0-.054.024-.066.03-.012.054 0 .066.024l.048.12.253.043-.09-.24-.127-.025c-.006-.006-.012-.006-.018-.012-.012-.012-.024-.03-.018-.048a.053.053 0 0 1 .06-.036l.067.012-.024-.066a.052.052 0 0 1 .03-.06zm10.722-4.99l1.12 1.12-.481.481-1.12-1.12c.174-.144.337-.3.481-.481zM13.22 2.336a2.452 2.452 0 0 1 2.45 2.45c0 .867-.451 1.631-1.138 2.065a4.43 4.43 0 0 0-.614-.446A1.767 1.767 0 0 0 14.99 4.78a1.77 1.77 0 1 0-3.468-.5 4.569 4.569 0 0 0-.535-.493 2.452 2.452 0 0 1 2.233-1.451zm4.78 2.1v.687h-1.577a3.276 3.276 0 0 0 0-.686H18zm-1.637-3.28l.481.481-1.12 1.12a3.64 3.64 0 0 0-.481-.481l1.12-1.12zm-6.285 0l1.12 1.12a3.64 3.64 0 0 0-.482.481l-1.12-1.12.482-.481zM13.563 0v1.577a3.275 3.275 0 0 0-.686 0V0h.686z"/></svg>