<svg width="18" height="13" viewBox="0 0 18 13" xmlns="http://www.w3.org/2000/svg"><path d="M14.996 2.958C14.514 1.23 12.949 0 11.186 0a3.895 3.895 0 0 0-3.384 1.97 4.4 4.4 0 0 1 .704.124A3.269 3.269 0 0 1 11.191.677c1.541 0 2.902 1.125 3.233 2.685.03.155.163.267.32.267 1.438 0 2.606 1.212 2.606 2.697 0 1.28-.873 2.355-2.035 2.629.018.167.03.335.03.51 0 .055 0 .117-.006.173C16.85 9.346 18 7.973 18 6.326c0-1.777-1.324-3.231-3.004-3.368zm-3.642 2.958c-.506-1.827-2.155-3.132-4.016-3.132-1.655 0-3.124.982-3.804 2.53C1.565 5.418 0 7.102 0 9.153 0 11.271 1.674 13 3.726 13h7.363c1.896 0 3.437-1.59 3.437-3.548.006-1.865-1.396-3.4-3.172-3.536zm-.259 6.413H3.726C2.03 12.329.65 10.906.65 9.153c0-1.752 1.379-3.175 3.082-3.175h.019a.328.328 0 0 0 .3-.211c.536-1.405 1.825-2.312 3.281-2.312 1.644 0 3.089 1.2 3.444 2.859.03.155.162.26.319.267 1.535 0 2.781 1.292 2.781 2.877 0 1.578-1.246 2.87-2.781 2.87z"/></svg>