<svg width="18" height="17" viewBox="0 0 18 17" xmlns="http://www.w3.org/2000/svg"><path d="M15.676 15.43v.969H3.522v-.97h12.154zM18 12.515v.969H0v-.97h18zm-9-7.97c1.487 0 2.805.728 3.618 1.853h-1.294A3.5 3.5 0 0 0 9 5.514 3.492 3.492 0 0 0 5.514 9c0 .39.066.765.185 1.114h4.926v.969H3.24v-.97h1.45A4.381 4.381 0 0 1 4.544 9 4.46 4.46 0 0 1 9 4.545zm4.43 3.948a4.398 4.398 0 0 1-.452 2.51h.001-1.125a3.441 3.441 0 0 0 .602-2.51zm4.57.024v.97h-3.353a4.43 4.43 0 0 0 .024-.488c0-.169-.012-.325-.024-.488l-.001.006H18zM3.353 8.512A4.408 4.408 0 0 0 3.33 9c0 .163.012.325.024.482H0v-.97zM14.78 6.983v.97h-4.497v-.97h4.497zm-11.8-4.69l2.373 2.373a5.28 5.28 0 0 0-.686.686L2.294 2.974l.686-.68zm12.041 0l.686.687-2.372 2.372a5.28 5.28 0 0 0-.686-.686l2.372-2.372zM9.488 0v3.353a4.373 4.373 0 0 0-.482-.024c-.169 0-.325.012-.488.024V0h.97z"/></svg>