<svg width="18" height="12" viewBox="0 0 18 12" xmlns="http://www.w3.org/2000/svg"><path d="M14.074 3.676C13.447 1.526 11.4 0 9.094 0 7.04 0 5.22 1.155 4.377 2.97 1.939 3.092 0 5.065 0 7.481 0 9.973 2.072 12 4.619 12h9.123C16.091 12 18 10.133 18 7.835c.012-2.197-1.728-4-3.926-4.159zm-.32 7.529h-9.13c-2.1 0-3.811-1.673-3.811-3.73 0-2.055 1.71-3.728 3.818-3.728h.024c.169 0 .313-.1.373-.254.663-1.65 2.259-2.71 4.065-2.71 2.036 0 3.83 1.408 4.264 3.352a.403.403 0 0 0 .391.313c1.903.006 3.445 1.52 3.445 3.375.012 1.868-1.536 3.382-3.439 3.382z"/></svg>