<svg width="16" height="16" viewBox="0 0 16 16" xmlns="http://www.w3.org/2000/svg"><path d="M7.845 6.317a.49.49 0 1 0 0-.98.49.49 0 0 0 0 .98zm.887 2.055a.426.426 0 1 0 0 .852.426.426 0 0 0 0-.852zM4.794 5.337a.49.49 0 1 0 0 .98.49.49 0 0 0 0-.98zm6.419 3.035a.426.426 0 1 0 0 .852.426.426 0 0 0 0-.852zM8 0a8 8 0 1 0 0 16A8 8 0 0 0 8 0zM6.233 10.11c-.376 0-.74-.047-1.085-.132a.28.28 0 0 0-.217.034l-1.175.752a.025.025 0 0 1-.037-.025l.224-1.173a.12.12 0 0 0-.054-.124C2.88 8.801 2.224 7.756 2.224 6.576c0-1.951 1.795-3.533 4.008-3.533 2.079 0 3.787 1.394 3.989 3.18-2.118.016-3.836 1.558-3.836 3.453 0 .145.011.288.03.429-.06.002-.122.004-.183.004zm6.428 1.676a.68.68 0 0 0-.195.735l.145.414s-.001.004-.004.003l-.937-.426a.402.402 0 0 0-.284-.02 3.82 3.82 0 0 1-1.133.171c-1.878 0-3.402-1.337-3.402-2.986 0-1.65 1.524-2.987 3.402-2.987 1.879 0 3.402 1.337 3.402 2.987 0 .823-.38 1.569-.994 2.109z"/></svg>
