<svg xmlns="http://www.w3.org/2000/svg" width="16" height="16" viewBox="0 0 16 16"><path d="M8.02 0a8 8 0 0 1 8 8c0 4.419-3.58 8-8 8a8 8 0 0 1-8-8c0-4.419 3.58-8 8-8zm.017 3.761a4.208 4.208 0 0 0-4.202 4.201c0 .74.193 1.463.56 2.1L3.8 12.239l2.228-.584a4.218 4.218 0 0 0 2.008.512 4.208 4.208 0 0 0 4.204-4.202 4.175 4.175 0 0 0-1.23-2.972 4.174 4.174 0 0 0-2.973-1.232zM6.348 5.66c.226 0 .236.002.291.063.032.035.155.296.274.581.293.703.278.646.207.79a2.078 2.078 0 0 1-.22.307c-.21.243-.21.256-.003.564.287.427.596.738.998 1.003.252.166.685.373.78.373.086 0 .206-.122.51-.523.097-.128.118-.144.19-.144.115 0 1.177.497 1.25.586.042.05.018.32-.046.531-.044.14-.069.179-.204.31-.17.166-.403.301-.612.356-.19.05-.576.044-.782-.01a5.625 5.625 0 0 1-1.26-.515c-.954-.561-2.057-1.878-2.248-2.684a1.536 1.536 0 0 1 .117-1.062c.09-.168.348-.453.45-.495.046-.02.164-.031.308-.031z" fill="#051039" fill-rule="nonzero"/></svg>