<svg height="18" viewBox="0 0 14 18" width="14" xmlns="http://www.w3.org/2000/svg"><path d="m13.433 14.471-2.163-4.02c-.099-.183-.428-.457-.775-.457h-3.108v-.661h2.08c.512 0 .933-.343.933-.762 0-.418-.42-.761-.934-.761h-2.079v-1c0-1.317-.885-2.396-2.077-2.396s-2.07 1.078-2.07 2.397v3.093c0 1.192 1.08 2.167 2.398 2.167h4.45l1.753 3.256a.872.872 0 0 0 1.177.354l.062-.033a.872.872 0 0 0 .353-1.178"/><path d="m5.312 3.85a1.924 1.924 0 1 0 0-3.848 1.924 1.924 0 0 0 0 3.848zm4.365 8.865a4.41 4.41 0 0 1 -4.367 3.855 4.41 4.41 0 0 1 -4.406-4.406 4.4 4.4 0 0 1 1.66-3.44v-1.097a5.306 5.306 0 0 0 -2.564 4.536 5.316 5.316 0 0 0 5.31 5.31 5.314 5.314 0 0 0 5.01-3.565z"/></svg>