<svg width="19" height="18" viewBox="0 0 19 18" xmlns="http://www.w3.org/2000/svg"><path d="M3.679 15.93l1.864-6.761h2.073a2.322 2.322 0 0 1-.54-1.49 2.332 2.332 0 0 1 2.33-2.33 2.327 2.327 0 1 1 1.79 3.819h1.802l2.135 6.762H3.679zm5.727-6.853a1.4 1.4 0 0 0 1.398-1.398A1.4 1.4 0 0 0 9.406 6.28a1.4 1.4 0 0 0-1.398 1.398 1.4 1.4 0 0 0 1.398 1.398v.001zM6.919 1.979c0-.515.419-.933.933-.933h3.108c.514 0 .933.418.933.933v1.256H6.919V1.979zm9.616 1.256h-3.596V2.002A2.004 2.004 0 0 0 10.937 0H7.875c-1.105.001-2 .897-2.002 2.002v1.233H2.277A2.31 2.31 0 0 0 0 5.537v9.632a2.311 2.311 0 0 0 2.305 2.304h14.202a2.311 2.311 0 0 0 2.304-2.304V5.537a2.31 2.31 0 0 0-2.276-2.302z"/></svg>