<svg xmlns="http://www.w3.org/2000/svg" width="18" height="24" viewBox="0 0 18 24"><path fill-rule="evenodd" d="M10.04 7.647a.648.648 0 0 1-.06-1.29h.002a.66.66 0 0 1 .716.574.633.633 0 0 1-.598.713.693.693 0 0 1-.06.003zm2.934-.002a.661.661 0 0 1-.658-.724.636.636 0 0 1 .703-.567l.016.003a.652.652 0 0 1 .572.718.639.639 0 0 1-.633.57zm4.152 3.41a.646.646 0 0 1-.635-.53.66.66 0 0 1 .517-.768.633.633 0 0 1 .748.505l.006.031a.646.646 0 0 1-.636.762zM2.769 16.52a.66.66 0 0 1-.578-.72.635.635 0 0 1 .736-.562.646.646 0 1 1-.158 1.282zm10.711-2.26a.66.66 0 0 1-.578-.72.635.635 0 0 1 .736-.562.647.647 0 0 1-.158 1.282zm2.196-5.648a.66.66 0 0 1-.658-.725.634.634 0 0 1 .702-.566l.034.004a.646.646 0 0 1-.078 1.287zM3.331 19.263a.66.66 0 0 1-.578-.72.635.635 0 0 1 .736-.562.647.647 0 0 1-.158 1.282zm2.348 1.415a.66.66 0 0 1-.444-.803c.1-.34.438-.54.779-.445l.046.014a.645.645 0 1 1-.38 1.234zm-1.393-6.481a.646.646 0 0 1 .34-.848.659.659 0 0 1 .86.326.632.632 0 0 1-.307.843l-.045.02a.647.647 0 0 1-.848-.34zm6.327-.086l-.052-.003a.645.645 0 1 1 .117-1.287.659.659 0 0 1 .6.693.633.633 0 0 1-.627.598h-.038zm-3.547-.724a.646.646 0 0 1 .627-.664.655.655 0 0 1 .68.625.633.633 0 0 1-.61.665h-.032a.647.647 0 0 1-.665-.626zm9.27.282a.646.646 0 0 1-.363-1.181.661.661 0 0 1 .909.16.632.632 0 0 1-.153.888.649.649 0 0 1-.393.133zM5.08 2.123c2.525.017 4.528.28 4.528.6 0 .156-.471.297-1.245.404l-.684 2.895h.448c.1 0 .182.082.182.182v.311l-1.941.265v2.468c-.985.064-2.126.145-3.128.215V6.78L1.3 6.515v-.31c0-.101.082-.183.183-.183h.448l-.684-2.895C.472 3.02 0 2.88 0 2.723c0-.32 2.004-.583 4.528-.6V0h.552v2.123zm2.4 1.322c.02-.06-.02-.12-.08-.12H5.442c-.06 0-.1.04-.1.1v1.858c0 .06.04.1.1.1h1.477c.02 0 .06-.04.081-.08l.479-1.858zM4.267 5.283V3.425c0-.06-.04-.1-.1-.1H2.21c-.06 0-.1.06-.08.12l.48 1.858c.02.04.058.08.079.08h1.478c.06 0 .1-.04.1-.1zm8.321 9.254v2.123c2.525.017 4.528.28 4.528.6 0 .156-.471.298-1.245.405l-.684 2.894h.448c.1 0 .182.081.182.183v.31l-1.94.265v2.467c-.986.065-2.127.146-3.129.216v-2.683l-1.94-.265v-.31c0-.102.08-.183.182-.183h.448l-.684-2.894c-.774-.107-1.245-.249-1.245-.405 0-.32 2.003-.583 4.527-.6v-2.123h.552zm1.92 5.303l.479-1.857c.02-.061-.02-.12-.08-.12H12.95c-.06 0-.1.039-.1.1v1.857c0 .06.04.1.1.1h1.478c.02 0 .06-.04.08-.08zm-2.733-.02v-1.857c0-.061-.04-.1-.1-.1H9.717c-.059 0-.1.059-.08.12l.48 1.857c.02.04.06.08.08.08h1.478c.06 0 .1-.04.1-.1z"/></svg>