<svg height="20" viewBox="0 0 20 20" width="20" xmlns="http://www.w3.org/2000/svg"><path d="m14.79 8.896h-3.326a4.89 4.89 0 0 1 -1.6 1.664c3.122.114 5.627 2.682 5.627 5.83v1.04h4.224v-3.61a4.94 4.94 0 0 0 -4.925-4.925"/><path d="m0 19.999v-3.608a4.94 4.94 0 0 1 4.925-4.925h4.724a4.94 4.94 0 0 1 4.925 4.925v3.608zm12.114-13.513c0 .454-.065.893-.183 1.31a4 4 0 0 0 .493.035 3.915 3.915 0 1 0 0-7.83 3.908 3.908 0 0 0 -3.396 1.983 4.837 4.837 0 0 1 3.086 4.502z"/><path d="m7.284 10.4a3.912 3.912 0 0 1 -3.908-3.914 3.918 3.918 0 0 1 3.908-3.916 3.915 3.915 0 1 1 0 7.831z"/></svg>