<svg width="18" height="17" viewBox="0 0 18 17" xmlns="http://www.w3.org/2000/svg"><path d="M4.985 4.603h.063c.288 0 .52-.232.522-.52V1.52a.522.522 0 0 0-.522-.522h-.063a.522.522 0 0 0-.522.522v2.561c0 .288.234.521.522.521m7.441.001h.063c.288 0 .52-.232.522-.52V1.52a.522.522 0 0 0-.521-.521h-.063a.522.522 0 0 0-.522.522v2.561c0 .288.234.521.522.521"/><path d="M13.967 10.096a1.575 1.575 0 1 1 0-3.149 1.575 1.575 0 0 1 0 3.149m0 4.257a1.575 1.575 0 1 1 0-3.149 1.575 1.575 0 0 1 0 3.149m-5.23-4.257a1.574 1.574 0 1 1 0-3.149 1.574 1.574 0 0 1 0 3.149m0 4.257a1.575 1.575 0 1 1 0-3.149 1.575 1.575 0 0 1 0 3.149m-5.23 0a1.574 1.574 0 1 1-.08-3.147 1.574 1.574 0 0 1 .08 3.147m11.47-11.49h-1.155v1.218c0 .735-.598 1.333-1.333 1.333h-.063a1.335 1.335 0 0 1-1.333-1.333V2.863H6.38v1.218c0 .735-.598 1.333-1.333 1.333h-.063a1.335 1.335 0 0 1-1.333-1.333V2.863H2.497A2.504 2.504 0 0 0 0 5.359v8.732a2.504 2.504 0 0 0 2.497 2.496h12.48a2.503 2.503 0 0 0 2.497-2.496V5.359a2.503 2.503 0 0 0-2.496-2.496"/></svg>