<svg xmlns="http://www.w3.org/2000/svg" width="18" height="11" viewBox="0 0 18 11"><path fill-rule="evenodd" d="M17.077 1.475c.477-.292.923-.002.923.474v6.537a.584.584 0 0 1-.924.474l-2.483-1.375v1.588c0 .697-.565 1.263-1.261 1.263H1.262A1.262 1.262 0 0 1 0 9.173v-7.91C0 .564.565 0 1.262 0h12.07c.696 0 1.261.564 1.261 1.263V2.86c.473-.324 1.801-.966 2.484-1.385zM7.13 8.607a3.333 3.333 0 0 0 3.33-3.33 3.334 3.334 0 0 0-3.33-3.33 3.333 3.333 0 0 0-3.33 3.33 3.332 3.332 0 0 0 3.33 3.33zm.145-4.338a.6.6 0 1 1 .491-.477 1.117 1.117 0 1 1-.491.477z"/></svg>