<svg xmlns="http://www.w3.org/2000/svg" width="19" height="18" viewBox="0 0 19 18"><path fill-rule="evenodd" d="M18.136 6.675a.483.483 0 0 1 .328.598.483.483 0 0 1-.926-.269.482.482 0 0 1 .598-.329zm-.866 1.49a.482.482 0 1 1-.27.927.482.482 0 0 1 .27-.926zm.349-2.693a.482.482 0 1 1 .952-.148.482.482 0 0 1-.952.148zm.093-1.29a.482.482 0 1 1-.535-.8.482.482 0 0 1 .535.8zM16.42 2.18a.483.483 0 1 1-.501.825.483.483 0 0 1 .5-.825zm-1.958.351a.48.48 0 1 1 .103-.956.48.48 0 0 1-.103.956zm-1.522.187a.482.482 0 1 1-.311-.912.482.482 0 0 1 .31.912zm-1.3.814a.481.481 0 1 1-.667-.695.481.481 0 0 1 .666.695zm2.057 1.99c-.03.566-.877.98-1.566 1.028-.907.063-2.219.074-3.676.05L5.79 11.044H4.515l.994-4.532a137.83 137.83 0 0 1-3.667-.195v.016L1.03 7.667H0V3.378h1.031l.81 1.333v.017c1.11-.076 2.381-.143 3.668-.195L4.515 0H5.79l2.665 4.446c1.457-.024 2.769-.014 3.676.05.69.047 1.536.461 1.566 1.027zm1.408 2.4a1.1 1.1 0 0 1 1.096 1.096v7.886c0 .604-.494 1.096-1.096 1.096h-3.79a1.099 1.099 0 0 1-1.097-1.096V9.018a1.1 1.1 0 0 1 1.097-1.096h3.79zm-4.216 7.904h4.641V9.11h-4.64v6.715zm2.32 1.532a.453.453 0 1 0 .002-.905.453.453 0 0 0-.001.905zm0-4.153a.332.332 0 1 1 0 .664.332.332 0 0 1 0-.664zm-1.02-.63a1.448 1.448 0 0 1 2.042 0 .238.238 0 1 1-.337.336.97.97 0 0 0-1.37 0 .238.238 0 1 1-.336-.336zm-.39-.448a.238.238 0 1 1-.336-.336 2.455 2.455 0 0 1 1.747-.724c.66 0 1.28.257 1.746.724a.238.238 0 0 1-.335.336 1.983 1.983 0 0 0-1.411-.584c-.533 0-1.034.207-1.411.584z"/></svg>