<svg xmlns="http://www.w3.org/2000/svg" width="18" height="18" viewBox="0 0 18 18"><path fill-rule="evenodd" d="M14.45 5.354c.82.057 1.829.55 1.864 1.224-.035.674-1.044 1.167-1.864 1.224-1.081.075-2.644.087-4.38.058l-3.172 5.295H5.377L6.56 7.758a163.946 163.946 0 0 1-4.367-.233v.02l-.966 1.586H0V4.024h1.227l.966 1.587v.02c1.321-.09 2.835-.17 4.367-.232L5.377 0h1.52l3.173 5.296c1.736-.029 3.299-.016 4.38.058zm-4.58 6.452h-.333a.16.16 0 0 1-.16-.16V9.975a.16.16 0 0 1 .16-.161h.333a.16.16 0 0 1 .16.16v1.672a.16.16 0 0 1-.16.16zm7.636 0a.16.16 0 0 1-.16-.16V9.975a.16.16 0 0 1 .16-.161h.333a.16.16 0 0 1 .16.16v1.672a.16.16 0 0 1-.16.16h-.333zm-1.657-3.33c.7 0 1.269.569 1.269 1.269v5.673c0 .502-.294.935-.717 1.14v.39a.412.412 0 0 1-.412.411h-.342a.412.412 0 0 1-.411-.412v-.26h-3.095v.26a.412.412 0 0 1-.412.412h-.342a.412.412 0 0 1-.411-.412v-.389a1.266 1.266 0 0 1-.716-1.14V9.745c0-.7.567-1.268 1.268-1.268h4.32zm.714 4.44V9.83h-5.796v3.27a.7.7 0 0 0 .332.58c.381.24 1.171.563 2.587.563 1.415 0 2.185-.387 2.567-.677a.808.808 0 0 0 .31-.649zm-1.475 2.708h1.353v-.387H15.09v.387zm-4.153 0h1.353v-.387h-1.353v.387zm1.617-6.664c-.123 0-.223.118-.223.24 0 .123.1.241.223.241h2.274c.122 0 .222-.118.222-.24 0-.123-.1-.241-.222-.241h-2.274z"/></svg>