<svg xmlns="http://www.w3.org/2000/svg" width="20" height="15" viewBox="0 0 20 15"><path fill-rule="evenodd" d="M13.229 4.996c.75.052 1.674.502 1.708 1.12-.034.617-.957 1.068-1.708 1.12-.99.068-2.42.08-4.01.053l-2.905 4.849H4.922l1.083-4.943c-1.402-.056-2.787-.13-3.997-.212v.018l-.884 1.453H0V3.778h1.124l.884 1.452v.019a153.06 153.06 0 0 1 3.997-.212L4.922.094h1.392l2.905 4.848c1.59-.027 3.02-.015 4.01.054zm-2.525-.674c-.336 0-.693.002-1.065.007l-.3-1.372h1.39l.823 1.371a57.31 57.31 0 0 0-.848-.006zm6.94 3.536c.752.052 1.674.502 1.707 1.12-.033.617-.955 1.069-1.706 1.121-.99.067-2.42.08-4.01.052L10.73 15H9.338l1.083-4.943c-.71-.028-1.414-.06-2.094-.098L9.54 7.937c3.754-.173 7.114-.148 8.105-.08zm1.399-2.846a.383.383 0 0 1-.214.733.382.382 0 0 1 .214-.733zm-.091-1.39a.382.382 0 1 1 .116.756.382.382 0 0 1-.116-.755zm-.67-1.22a.383.383 0 0 1 .425.634.382.382 0 0 1-.425-.633zm-1.121-.822a.381.381 0 1 1 .652.395.381.381 0 0 1-.652-.395zm-1.366-.272a.382.382 0 1 1 .76.084.382.382 0 0 1-.76-.084zm-1.352.331zm-1.085.87a.382.382 0 1 1 .54.012.381.381 0 0 1-.54-.011zm-.615 1.25a.382.382 0 1 1 .275-.713.382.382 0 0 1-.275.712zm5.52 3.47a.275.275 0 0 1-.253-.167l-.52-1.254c-.06-.14.007-.3.146-.358.14-.058.3.008.359.147l.414 1.001 1.002-.416c.14-.059.3.009.357.147a.273.273 0 0 1-.147.358l-1.254.522a.274.274 0 0 1-.104.02z"/></svg>