<svg height="16" viewBox="0 0 19 16" width="19" xmlns="http://www.w3.org/2000/svg"><path d="m16.045 6.372c.318 1.767.066 3.327-1.16 3.643-1.178.302-1.673-.528-2.498-1.4v-1.752l3.658-.49zm-5.349-2.43 7.81-1.04v9.214h-.002c.028.658-.532 1.379-1.4 1.73-1.03.416-2.104.159-2.401-.575-.298-.734.297-1.666 1.326-2.082.525-.212 1.06-.246 1.5-.134v-5.602l-5.857.785v6.883h-.001c.027.658-.531 1.379-1.401 1.73-1.03.416-2.104.159-2.4-.575-.297-.734.296-1.666 1.326-2.082.525-.212 1.06-.246 1.5-.134zm-.715 3.162a6.645 6.645 0 0 0 -1.386-.145c-4.29 0-4.03 3.64-6.305 3.056-2.93-.754-.326-8.627 2.412-8.977 2.036-.26 2.203.884 3.893.884s1.83-1.144 3.865-.884c.724.092 1.437.716 2.043 1.676l-4.522.603zm-5.184-1.843a1.137 1.137 0 1 0 .067-2.273 1.137 1.137 0 0 0 -.067 2.273z"/></svg>