<svg height="16" viewBox="0 0 16 16" width="16" xmlns="http://www.w3.org/2000/svg"><path d="m13.43 3.376a6.813 6.813 0 0 0 -.06-.354l-.205-1.068.716.817a7.947 7.947 0 0 1 1.79 3.524l.09.41-.415-.053a22.11 22.11 0 0 1 -1.646-.272l-.262-.052.026-.266c.097-.972.085-1.875-.033-2.685zm-2.964 7.954a37.265 37.265 0 0 0 -2.486-1.05l-.27-.101 1.427-3.998.274.092c.868.29 1.74.547 2.597.767l.274.07-.059.276a14.273 14.273 0 0 1 -1.372 3.813l-.131.247-.254-.117zm-5.086-6.657a37.33 37.33 0 0 0 2.52 1.062l.272.103-1.428 3.997-.274-.092a37.63 37.63 0 0 0 -2.613-.774l-.272-.07.055-.274c.137-.676.32-1.334.542-1.96.223-.622.496-1.248.812-1.86l.13-.25zm.464-1.293a9.868 9.868 0 0 1 1.446-1.686c.8-.727 1.613-1.16 2.355-1.249l.474-.057-1.602 4.486-.282-.107a36.679 36.679 0 0 1 -2.271-.95l-.319-.148.2-.289zm.27 7.323.286.095-1.604 4.492-.33-.332c-.846-.851-1.232-2.561-1.06-4.691l.029-.35.34.088a37 37 0 0 1 2.34.698zm5.252 2.214c.516.273 1 .551 1.44.828l.355.223-.33.26a8.006 8.006 0 0 1 -3.627 1.598l-1.077.177.84-.696c.725-.6 1.403-1.372 2.016-2.292l.148-.222zm-1.375-.299c-1.203 1.737-2.571 2.814-3.756 2.954l-.473.056 1.602-4.485.281.107c.756.287 1.505.6 2.226.932l.32.147-.2.29zm-.225-7.305-.285-.095 1.598-4.474.331.355c.506.544.854 1.383 1.007 2.426.1.673.116 1.42.05 2.22l-.028.351-.34-.089a36.411 36.411 0 0 1 -2.332-.694zm-5.275-2.221a21.993 21.993 0 0 1 -1.443-.83l-.354-.222.33-.26a7.955 7.955 0 0 1 1.51-.94 7.979 7.979 0 0 1 2.108-.663l1.069-.177-.831.695a8.505 8.505 0 0 0 -.278.243c-.607.551-1.187 1.243-1.728 2.056l-.147.222zm-.281 1.008-.134.258a16.153 16.153 0 0 0 -1.443 4.024l-.061.285-.285-.056a21.932 21.932 0 0 0 -2.022-.318l-.265-.028v-.266c0-.909.155-1.804.46-2.662a7.957 7.957 0 0 1 1.334-2.35l.169-.205.222.146c.51.334 1.104.683 1.766 1.035l.258.137zm-1.824 5.845c-.11 1.1-.075 2.125.105 3.045l.209 1.072-.72-.821a8.003 8.003 0 0 1 -1.79-3.529l-.091-.41.415.053a22.13 22.13 0 0 1 1.637.272l.261.052zm13.21-2.23.264.027v.266a7.94 7.94 0 0 1 -.466 2.662 7.902 7.902 0 0 1 -1.33 2.352l-.168.206-.222-.146a22.335 22.335 0 0 0 -1.768-1.037l-.257-.136.133-.26c.33-.64.618-1.3.855-1.963.234-.655.429-1.349.58-2.062l.06-.285.287.057c.74.148 1.422.255 2.031.319z"/></svg>