<svg xmlns="http://www.w3.org/2000/svg" width="16" height="20" viewBox="0 0 16 20"><path fill-rule="evenodd" d="M9.07 13.72c0 .729-.596 1.324-1.323 1.324a1.328 1.328 0 0 1-1.325-1.325v-1.555c0-.728.597-1.324 1.325-1.324.727 0 1.323.596 1.323 1.324v1.555zm-4.154-9.5a2.838 2.838 0 0 1 2.83-2.84c1.56 0 2.83 1.273 2.83 2.84v1.662h-5.66V4.221zm8.32 1.662h-1.282V4.221C11.954 1.893 10.067 0 7.747 0S3.539 1.893 3.539 4.221v1.662H2.257A2.29 2.29 0 0 0 0 8.166v9.55A2.29 2.29 0 0 0 2.284 20h10.924a2.291 2.291 0 0 0 2.284-2.285v-9.55a2.29 2.29 0 0 0-2.256-2.282z"/></svg>