<svg xmlns="http://www.w3.org/2000/svg" width="15" height="18" viewBox="0 0 15 18"><path fill-rule="evenodd" d="M3.296 3.269A1.633 1.633 0 1 1 3.3.002a1.633 1.633 0 0 1-.005 3.267zm7.688 0A1.633 1.633 0 1 1 10.99.002a1.633 1.633 0 0 1-.005 3.267zm.29 9.54h-.577v4.367a.828.828 0 0 1-.825.824h-.065a.828.828 0 0 1-.825-.824V12.81H7.86s.064-.971.155-2.209c-.423-.106-.673-.571-.557-1.033l1.03-4.088c.22-1.084.777-1.767 1.681-1.767h1.633c.905 0 1.46.683 1.68 1.767l1.033 4.088c.115.462-.135.927-.558 1.033.091 1.238.156 2.209.156 2.209h-1.124v4.366c0 .452-.37.824-.825.824H12.1a.827.827 0 0 1-.825-.824V12.81zM6.058 5.57c.02.072.036.417.036.417v3.955h-.002a.794.794 0 0 1-.79.775v6.459a.828.828 0 0 1-.825.824h-.066a.827.827 0 0 1-.824-.824v-5.098h-.004a.287.287 0 0 0-.285-.269.287.287 0 0 0-.286.27h-.005v5.097c0 .452-.37.824-.824.824h-.066a.827.827 0 0 1-.824-.824v-6.46a.795.795 0 0 1-.791-.774H.5V5.987s.015-.345.037-.417c.178-1.053 1.017-1.857 2.018-1.857H4.04c1.001 0 1.84.804 2.018 1.857z"/></svg>