<svg xmlns="http://www.w3.org/2000/svg" width="10" height="20" viewBox="0 0 10 20"><path fill-rule="evenodd" d="M6.342 4.775C6.622 2.322 7.37-.445 9.01.06v18.987a.956.956 0 0 1-.953.954.957.957 0 0 1-.952-.954l.427-8.094-.013.09c-1.27-.649-1.516-3.3-1.177-6.268zM2.606 20.001a.959.959 0 0 1-.956-.953l.4-11.35C1.071 7.47.5 6.623.5 5.326L.725.627c.01-.216.2-.38.409-.372a.39.39 0 0 1 .372.409l-.178 3.714h.002a.443.443 0 1 0 .885 0h.002V.42a.39.39 0 1 1 .778 0v3.957h.002a.442.442 0 1 0 .885 0h.001L3.707.664a.39.39 0 1 1 .78-.037l.225 4.698c0 1.297-.572 2.145-1.55 2.374l.4 11.349a.959.959 0 0 1-.956.953z"/></svg>