<svg width="20" height="20" viewBox="0 0 20 20" xmlns="http://www.w3.org/2000/svg"><g fill-rule="evenodd"><path d="M5.383 1.552c0-.398.324-.723.723-.723H8.48c.399 0 .723.325.723.723v.956h-3.82v-.956zm8.777 5.284c.144 0 .286.006.426.015V4.294c0-.975-.793-1.774-1.766-1.786h-2.788v-.956C10.032.697 9.336 0 8.48 0H6.106C5.25 0 4.554.697 4.554 1.552v.956H1.766A1.793 1.793 0 0 0 0 4.294v7.468c0 .983.804 1.787 1.786 1.787h5.662a6.72 6.72 0 0 1 6.712-6.713z"/><path d="M17.231 12.821l-2.837 1.638c-.009.005-.018.007-.027.011a.652.652 0 0 1-.038.018c-.015.006-.03.01-.043.014-.014.004-.03.006-.044.008-.014.003-.029.004-.042.005-.01 0-.019.003-.03.003l-.017-.002a.784.784 0 0 1-.089-.011l-.033-.01c-.016-.006-.032-.01-.047-.019-.014-.006-.024-.012-.036-.019a.185.185 0 0 1-.036-.023.295.295 0 0 1-.039-.03c-.008-.01-.017-.017-.026-.025-.012-.012-.022-.026-.032-.039a.14.14 0 0 1-.022-.032c-.003-.005-.008-.008-.01-.013-.006-.009-.008-.018-.013-.028a.368.368 0 0 1-.031-.082c-.003-.013-.007-.028-.009-.043-.003-.014-.004-.028-.006-.043l-.002-.028V9.682a.447.447 0 0 1 .896 0v3.613l2.165-1.25a.449.449 0 0 1 .448.776m-3.07-5.112a5.839 5.839 0 1 0 0 11.678 5.84 5.84 0 0 0 0-11.678"/></g></svg>