<svg xmlns="http://www.w3.org/2000/svg" width="13" height="18" viewBox="0 0 13 18"><path fill-rule="evenodd" d="M9.143 4.563c-.946 0-1.575-.752-1.575-1.698V0l4.442 4.563H9.143zm-2.715-.862c0 1.112.893 2.104 2.005 2.104h3.577v10.81c0 .763-.633 1.387-1.395 1.387H1.396A1.398 1.398 0 0 1 0 16.615V1.387C0 .624.633 0 1.396 0l5.032.017V3.7zm4.22 5.589L8.926 7.308l-6.588 5.723-.006.004.003.003-.973 2.582 2.692-.604-.003-.012.011.012-.002-.004 6.588-5.722zm-6.984 5.272l-1.47.334.53-1.408h.001v-.002l.474-.411.938 1.078-.47.408h-.003z"/></svg>