<svg xmlns="http://www.w3.org/2000/svg" width="14" height="18" viewBox="0 0 14 18"><path fill-rule="evenodd" d="M10.792 9.169a.59.59 0 0 1 0 .83l-4.302 4.3-3.338-3.34a.586.586 0 1 1 .828-.83l2.51 2.512 3.472-3.472c.23-.23.6-.23.83 0zM4.424 3.8a2.556 2.556 0 0 1 2.548-2.558A2.555 2.555 0 0 1 9.518 3.8v1.495H4.424V3.8zm7.488 1.495h-1.154V3.8c0-2.095-1.699-3.8-3.786-3.8a3.797 3.797 0 0 0-3.787 3.8v1.496H2.03A2.061 2.061 0 0 0 0 7.35v8.593C0 17.075.925 18 2.056 18h9.83a2.062 2.062 0 0 0 2.057-2.056V7.351a2.062 2.062 0 0 0-2.031-2.055z"/></svg>