<svg width="20" height="16" viewBox="0 0 20 16" xmlns="http://www.w3.org/2000/svg"><path d="M19.691 12.2l-3.18-2.263a.692.692 0 0 0-.396-.14c-.248 0-.513.188-.513.601v1.531l-.042.002c-1.132.073-3.949-.177-5.75-4.075 1.801-3.898 4.618-4.149 5.75-4.075l.042.003v1.53c0 .413.265.601.513.601.13 0 .264-.047.395-.14l3.181-2.263A.685.685 0 0 0 20 2.957a.686.686 0 0 0-.307-.554L16.51.14a.68.68 0 0 0-.394-.14c-.248 0-.513.188-.513.601v1.377h-.032c-2.852-.094-5.217 1.263-6.844 3.933C5.884 1.596 1.29 1.824.8 1.877l-.022.002a.954.954 0 0 0-.6.372.867.867 0 0 0-.164.678c.094.511.434.757 1.074.758 0 0 1.5.011 2.691.44 1.665.596 2.992 1.852 3.947 3.73-.955 1.876-2.282 3.131-3.947 3.728-1.192.428-2.69.44-2.69.44-.64 0-.98.247-1.075.757a.87.87 0 0 0 .164.68c.146.195.36.328.6.371l.022.002c.49.053 5.085.282 7.927-4.034 1.627 2.67 3.992 4.028 6.844 3.934h.032v1.376c0 .413.265.601.513.601a.68.68 0 0 0 .394-.14l3.183-2.263a.684.684 0 0 0 .307-.553.686.686 0 0 0-.308-.556"/></svg>