<svg xmlns="http://www.w3.org/2000/svg" width="24" height="22" viewBox="0 0 24 22"><g fill="none"><path fill="#FDB300" d="M5.236.724L12 0l6.764.724L24 7.844 12 22 0 7.845z"/><path fill="#EA6C00" d="M4.85 7.816l7.126 14.18L0 7.816zm14.25 0l-7.124 14.18 11.976-14.18z"/><path fill="#FDAD00" d="M4.85 7.816H19.1l-7.124 14.18z"/><path fill="#FDD231" d="M11.976 0l-6.75.721-.375 7.087zm0 0l6.75.721.375 7.087z"/><path fill="#FDAD00" d="M23.952 7.808L18.726.721l.375 7.087zM0 7.808L5.226.721 4.85 7.808z"/><path fill="#FEEEB7" d="M11.976 0L4.85 7.808H19.1z"/></g></svg>