<svg viewBox="0 0 17.36 17.58" xmlns="http://www.w3.org/2000/svg"><path d="m13.53 1.42a8.22 8.22 0 0 0 -5.09-1.42 8.51 8.51 0 0 0 -7.92 6.73 8.4 8.4 0 0 0 .9 6l.13.24s-.05.17-.08.25c-.47 1.37-1.01 2.98-1.47 4.36l1-.34 3.61-1.16.12-.08.15.08a8 8 0 0 0 4.72.95 8.34 8.34 0 0 0 6.76-4.51 8 8 0 0 0 1-4.39 8.39 8.39 0 0 0 -3.83-6.71zm.83 11.68a6.89 6.89 0 0 1 -4.58 2.56 6.91 6.91 0 0 1 -4.73-1l-.15-.09-.17.05-2.58.84c.15-.44.28-.84.41-1.24s.3-.87.44-1.31v-.12-.14a6.88 6.88 0 0 1 -1.21-2.88 7.05 7.05 0 0 1 .8-4.72 7.21 7.21 0 0 1 2.78-2.78 6.89 6.89 0 0 1 3.5-.9 6.9 6.9 0 0 1 4.51 1.63 7 7 0 0 1 2.55 4.63 6.91 6.91 0 0 1 -1.57 5.47z"/><path d="m13 10.4-1.69-.81c-.24-.1-.33-.07-.49.13s-.4.51-.61.76a.31.31 0 0 1 -.43.11 5.69 5.69 0 0 1 -2.86-2.46.32.32 0 0 1 0-.46c.17-.22.34-.44.5-.67a.46.46 0 0 0 0-.44c-.2-.47-.41-.94-.59-1.42-.13-.33-.2-.49-.67-.5a.9.9 0 0 0 -.84.29 2.44 2.44 0 0 0 -.48 2.57 5.71 5.71 0 0 0 .93 1.65 9.54 9.54 0 0 0 2 2 8.46 8.46 0 0 0 2.69 1.25 2.17 2.17 0 0 0 1.31 0c1-.35 1.42-.87 1.43-1.78a.27.27 0 0 0 -.2-.22z"/></svg>