<svg xmlns="http://www.w3.org/2000/svg" width="174" height="51" fill="none"><path fill="#051039" d="M11.471 42.938v-8.647c0-2.262-1.331-3.888-3.855-3.888-2.162 0-4.424 1.398-5.521 2.663v9.878H0V21.427h2.095v9.215c1.432-1.13 3.426-2.128 5.688-2.128 3.36 0 5.789 2.061 5.789 5.755v8.68h-2.095l-.006-.011ZM23.979 43.239c-4.257 0-7.616-3.326-7.616-7.382 0-4.056 3.36-7.349 7.616-7.349s7.582 3.26 7.582 7.349c0 4.09-3.36 7.382-7.582 7.382Zm0-12.836c-3.059 0-5.421 2.462-5.421 5.454 0 2.992 2.362 5.488 5.42 5.488 3.06 0 5.388-2.463 5.388-5.488 0-3.025-2.328-5.454-5.387-5.454ZM34.654 42.938V21.422h2.128v21.516h-2.128ZM42.938 22.018c.93 0 1.694.73 1.694 1.666 0 .936-.764 1.626-1.694 1.626-.93 0-1.66-.696-1.66-1.626 0-.93.73-1.666 1.66-1.666Zm-1.064 20.92V28.804h2.128v14.134h-2.128ZM59.964 29.834v-8.412h2.095v21.516H60.03v-1.532c-.83.797-2.791 1.827-4.92 1.827-4.29 0-7.883-2.925-7.883-7.482s3.593-7.248 7.883-7.248c1.928 0 3.694.63 4.853 1.331Zm0 2.201c-.997-.897-2.892-1.627-4.853-1.627-3.225 0-5.721 2.195-5.721 5.354 0 3.527 2.495 5.588 5.721 5.588 2.095 0 3.99-1.064 4.853-2.295v-7.02ZM75.965 42.938v-1.499c-1.031.93-2.758 1.794-4.953 1.794-3.56 0-5.95-2.028-5.95-4.457 0-2.563 2.563-4.524 6.92-4.524 1.431 0 2.562.134 3.821.335v-.301c0-2.296-1.532-3.922-4.59-3.922-1.928 0-3.56.63-4.825 1.365v-2.062c1.298-.696 2.79-1.164 4.824-1.164 4.792 0 6.686 2.758 6.686 5.855v8.58h-1.933Zm-.167-6.552c-1.165-.234-2.396-.334-3.822-.334-3.026 0-4.658 1.164-4.658 2.724 0 1.56 1.298 2.596 3.688 2.596 2.095 0 3.889-.796 4.792-2.028v-2.958ZM89.135 39.88l5.984-11.076h2.262L85.776 50.32H83.48l4.558-8.413-7.382-13.103h2.295l6.184 11.075ZM102.072 36.019c-1.627-.63-3.226-1.794-3.226-3.694 0-2.129 2.028-3.822 5.254-3.822 1.927 0 3.66.73 4.758 1.827l-1.232 1.332c-.93-.797-2.161-1.365-3.56-1.365-1.961 0-2.958.863-2.958 2.028 0 .93.73 1.431 1.827 1.894l3.226 1.432c2.128.93 3.159 2.095 3.159 3.76 0 2.195-2.295 3.822-5.387 3.822-1.895 0-3.923-.83-5.12-2.028l1.097-1.498c1.031.997 2.563 1.66 4.023 1.66 1.827 0 3.159-.697 3.159-1.961 0-.897-.663-1.499-1.928-2.028l-3.092-1.365v.006Z"/><path fill="red" d="m164.142 0-7.789 11.276c-1.025 1.488-2.691 2.914-4.697 3.07v.345h8.664c2.301 0 3.978-1.498 5.114-3.153L173.435 0h-9.293Z"/><path fill="#051039" d="M20.68 14.691V1.237h3.923V14.69H20.68Zm90.451 0-9.421-7.994v7.994H98.4V1.237h2.814l9.298 7.86v-7.86h3.315V14.69h-2.696Zm20.497-9.12c-1.772-.874-3.772-1.582-6.413-1.582-3.159 0-5.516 1.638-5.516 3.911s2.396 3.984 5.488 3.984c2.552 0 4.574-.652 6.569-1.806v3.332c-1.761.875-4.101 1.527-6.736 1.527-5.376 0-9.605-2.753-9.605-7.037s4.312-6.914 9.588-6.914c2.496 0 4.753.474 6.619 1.237v3.354l.006-.006Zm-85.202 9.12V1.237h13.109v2.88h-9.187v3.337h8.975v2.886h-8.975v4.346h-3.922v.005Zm87.569 0V1.237h13.611v2.88h-9.688v2.329h9.538v2.886h-9.538V11.8h9.644v2.886h-13.567v.005ZM73.162 9.633l5.421 5.053H74.4c-.93 0-1.537-.29-2.028-.763l-3.688-3.583a.446.446 0 0 0-.318-.111h-2.507v4.457h-3.922V1.231h8.49c4.408 0 6.263 1.984 6.263 4.168 0 2.551-2.273 3.771-3.532 4.228l.005.006Zm-3.136-2.218c1.554 0 2.3-.79 2.3-1.677 0-.885-.662-1.62-2.3-1.62h-4.168v3.297h4.168ZM39.5 9.633l5.415 5.053h-4.184c-.93 0-1.538-.29-2.028-.763l-3.688-3.583a.446.446 0 0 0-.318-.111h-2.507v4.457h-3.922V1.231h8.49c4.407 0 6.263 1.984 6.263 4.168 0 2.551-2.273 3.771-3.533 4.228l.012.006Zm-3.137-2.218c1.554 0 2.3-.79 2.3-1.677 0-.885-.662-1.62-2.3-1.62h-4.167v3.297h4.167ZM14.54 14.686l-1.716-2.958h-7.51l-1.566 2.958H.006L7.488 1.242h3.41l8.479 13.444h-4.836Zm-3.354-5.76L8.914 4.818 6.803 8.925h4.384Zm81.659 5.76-1.677-2.958h-7.315l-1.51 2.958h-3.65l7.293-13.444h3.31l8.245 13.444h-4.696Zm-7.522-5.76h4.268l-2.217-4.107-2.05 4.106Z"/></svg>