<svg xmlns="http://www.w3.org/2000/svg" width="87" height="20" fill="none"><g fill="#fff" clip-path="url(#a)"><path d="M63.114 16.378h-3.32v-12.8h3.32v12.8Zm-7.863-12.8-2.144 8.578-2.504-8.577H47.39l-2.502 8.577-2.144-8.577H39.49l3.533 12.799h3.439L48.994 7.6l2.535 8.777h3.43l3.544-12.8H55.25Zm-16.032 9.178c0-2.447-1.302-3.277-4.148-4.205-1.342-.436-2.595-.774-2.595-1.817 0-.914.931-1.223 1.627-1.223.589 0 1.696.124 1.786 1.482h3.145c-.054-2.591-2.162-3.72-4.875-3.72-1.681 0-3.07.477-3.946 1.338a3.406 3.406 0 0 0-.982 2.401c0 2.383 1.592 3.338 3.39 3.884 2.022.617 3.358.986 3.358 2.097 0 .743-.59 1.484-1.747 1.484-1.478 0-2.015-.874-2.05-1.748h-3.18c0 2.95 2.487 4.03 5.23 4.03 3.495 0 4.994-1.996 4.994-4.009m35.646 0c0-2.822-2.053-3.568-4.543-4.31-1.197-.35-2.272-.668-2.272-1.711 0-.914.93-1.223 1.627-1.223.592 0 1.695.124 1.784 1.482h3.145c-.054-2.592-2.16-3.72-4.877-3.72-1.679 0-3.073.477-3.944 1.338a3.412 3.412 0 0 0-.981 2.4c0 2.384 1.588 3.338 3.391 3.885 2.02.617 3.36.986 3.36 2.097 0 .743-.589 1.483-1.747 1.483-1.482 0-2.02-.873-2.052-1.747h-3.18c0 2.95 2.485 4.03 5.232 4.03 3.495 0 5.055-1.996 5.055-4.009m11.434 0c0-2.822-2.063-3.568-4.543-4.31-1.2-.35-2.271-.668-2.271-1.711 0-.914.924-1.223 1.621-1.223.587 0 1.697.124 1.786 1.481h3.145c-.054-2.59-2.172-3.72-4.88-3.72-1.658.02-3.056.497-3.93 1.358a3.42 3.42 0 0 0-.98 2.4c0 2.384 1.588 3.338 3.39 3.885 2.022.617 3.358.986 3.358 2.097 0 .742-.587 1.483-1.747 1.483-1.482 0-2.018-.873-2.053-1.747h-3.19c0 2.95 2.48 4.036 5.241 4.036 3.507 0 5.067-1.995 5.067-4.008"/><path fill-rule="evenodd" d="M0 20h21.887l4.928-20H16.042L0 20ZM18.538 3.85v4.305h4.307v3.69h-4.31v4.307h-3.691v-4.307h-4.302v-3.69h4.305V3.849h3.69Z" clip-rule="evenodd"/></g><defs><clipPath id="a"><path fill="#fff" d="M0 0h86.304v20H0z"/></clipPath></defs></svg>