<svg width="143" height="24" viewBox="0 0 143 24" fill="none" xmlns="http://www.w3.org/2000/svg">
<path d="M139.582 5.09803C139.655 3.56121 139.326 2.23875 138.544 1.30939C136.169 -1.50688 130.517 0.368901 125.926 5.50597C121.329 10.6416 119.536 17.0877 121.909 19.9099C124.286 22.724 129.935 20.8467 134.53 15.7134C135.25 14.9079 135.914 14.0544 136.517 13.1589L128.94 12.389L139.897 10.9887L127.812 9.26346L142.453 7.74444L130.5 6.5184L139.582 5.09803Z" fill="#EFA92C"/>
<path d="M4.87747 5.49191C4.87747 5.41774 4.83445 5.36285 4.75064 5.36285H2.13983C1.86688 5.36285 1.75191 5.43925 1.75191 5.66992C1.75191 5.84422 1.84092 5.93693 2.0167 5.95399C2.86225 6.0341 3.04545 6.30185 3.07364 7.40922C3.11443 8.89115 3.12111 10.0163 3.12111 11.2068C3.12111 13.4015 3.11814 14.988 3.08625 16.5063C3.03729 18.7789 2.92604 20.2059 2.35789 21.3021C1.3017 23.3463 0 23.3567 0 23.7476C0 23.9063 0.137958 24.0212 0.290008 23.9968C0.865573 23.8966 4.86634 22.4125 4.86634 16.935C4.86634 15.0095 4.83445 13.3674 4.83445 11.2068C4.83445 10.514 4.85967 7.61171 4.87747 5.49191ZM11.7969 16.0071C11.782 14.3828 11.7694 12.9142 11.7672 11.5123C12.5408 11.5346 13.9026 11.6503 14.9929 11.7156C15.067 11.72 15.1175 11.6807 15.1345 11.5947L15.3578 10.5771C15.3756 10.4932 15.3333 10.4458 15.2584 10.4495C13.9982 10.4918 12.9732 10.5311 11.7709 10.5415C11.7746 9.56017 11.7909 7.86241 11.8021 6.34116C12.7915 6.36786 13.8855 6.48135 15.291 6.5837C15.3637 6.59038 15.4134 6.54736 15.432 6.4628L15.6545 5.44666C15.673 5.36285 15.6315 5.31686 15.5566 5.31901C13.9745 5.33096 12.6884 5.36359 11.2992 5.36359H9.17567C8.9042 5.36359 8.79072 5.43925 8.79072 5.66992C8.79072 5.84422 8.88121 5.93693 9.05477 5.95399C9.87584 6.03113 9.98635 6.39753 10.0145 7.40922C10.0538 8.89115 10.0509 10.0163 10.0509 11.2068C10.0509 12.7532 10.0331 14.7595 9.96633 16.9179C9.96336 16.9936 10.0101 17.0462 10.0961 17.0462H11.676C13.0036 17.0462 14.312 17.0737 15.7005 17.0931C15.7776 17.0952 15.8273 17.0596 15.8451 16.9743L16.0684 15.9522C16.0876 15.8669 16.0446 15.8187 15.969 15.8239C14.3498 15.9263 12.8946 15.993 11.7969 16.0071ZM59.8855 12.3379C61.1783 14.29 61.9155 15.347 62.8582 16.1807C63.6133 16.8534 64.5256 17.1456 65.6115 17.1456C66.4229 17.1456 67.3003 17.0218 67.3003 16.7636C67.3003 16.596 67.1631 16.5619 66.6944 16.4877C65.8236 16.352 65.2095 16.0917 64.1777 15.1675C63.3359 14.4176 62.3976 13.1953 61.4764 11.8357C62.6224 11.2105 63.5829 10.046 63.5829 8.52772C63.5829 6.02223 61.1471 5.36285 59.2914 5.36285H55.2713C54.9998 5.36285 54.8849 5.43925 54.8849 5.66992C54.8849 5.84422 54.9761 5.93693 55.1482 5.95399C55.9707 6.03113 56.0813 6.39753 56.1087 7.40922C56.1488 8.89115 56.1458 10.0163 56.1458 11.2068C56.1458 12.7532 56.1287 14.7595 56.0597 16.9179C56.0575 16.9936 56.1028 17.0462 56.191 17.0462H57.7709C57.8547 17.0462 57.897 16.9936 57.897 16.9179C57.8829 15.212 57.8658 13.6863 57.8628 12.24C58.4384 12.329 59.0206 12.3661 59.6029 12.352C59.6941 12.352 59.7891 12.346 59.8847 12.3371L59.8855 12.3379ZM57.894 6.25735C58.184 6.2262 58.6016 6.19653 59.0095 6.19653C60.7243 6.19653 61.8488 6.99387 61.8488 8.87261C61.8488 10.3308 61.0537 11.4767 59.2832 11.4767C58.7128 11.4767 58.1551 11.4048 57.8614 11.3084C57.8658 10.3278 57.8784 8.64268 57.894 6.25735ZM38.0971 13.0544L38.6029 11.7972C39.0272 10.7439 39.4529 9.7278 40.1056 8.14129C40.785 9.72557 41.2167 10.7462 41.6632 11.7979C41.836 12.2058 42.0125 12.6242 42.192 13.0544C40.8273 13.0677 39.4626 13.0677 38.0971 13.0544ZM43.8045 16.9172C43.8349 16.9913 43.8906 17.0455 43.9766 17.0455H45.7226C45.8093 17.0455 45.8487 16.9965 45.8153 16.9224C44.931 15.0029 44.0738 13.071 43.2438 11.1274C42.103 8.44094 41.5779 7.06359 41.0157 5.49117C40.9897 5.417 40.9341 5.36211 40.8473 5.36211H38.9107C38.6385 5.36211 38.525 5.4385 38.525 5.66918C38.525 5.84348 38.6148 5.92803 38.7883 5.95325C39.1933 6.00888 39.4767 6.17502 39.4767 6.67642C39.4767 6.94936 39.358 7.27201 39.2215 7.61764C38.6778 8.99722 38.235 10.0319 37.7692 11.1274C36.9391 13.068 36.0846 14.9981 35.2059 16.9172C35.1718 16.9913 35.2096 17.0455 35.2956 17.0455H36.4067C36.4898 17.0455 36.5462 16.9928 36.5773 16.9172C36.9979 15.8543 37.3643 14.9109 37.7173 14.0149C38.5306 13.9946 39.344 13.9847 40.1575 13.9852C40.8711 13.9852 41.6187 13.9911 42.5911 14.0149C42.9953 14.9865 43.4055 15.9745 43.8045 16.9172ZM22.4604 5.36285C20.7048 5.36285 19.8385 5.33912 17.7194 5.32057C17.6445 5.32057 17.617 5.35321 17.5978 5.43925L17.373 6.42794C17.3523 6.52437 17.4027 6.59112 17.5036 6.58667C18.7481 6.53327 20.2479 6.46725 21.6067 6.42943C21.6438 7.91136 21.6289 10.0401 21.6289 11.206C21.6289 12.7532 21.6104 14.7588 21.5429 16.9172C21.5414 16.9936 21.5874 17.0462 21.6757 17.0462H23.254C23.3423 17.0462 23.3831 16.9936 23.3831 16.9179C23.3653 14.8018 23.346 12.9572 23.346 11.2068C23.346 10.6089 23.3645 8.37715 23.3809 6.41978C24.6892 6.45316 26.0013 6.51621 27.3564 6.58296C27.4298 6.58667 27.481 6.54736 27.4996 6.4628L27.7228 5.44666C27.7399 5.36285 27.6976 5.31686 27.6205 5.31901C25.5036 5.33467 24.216 5.36359 22.4604 5.36359V5.36285ZM81.1747 5.36285C80.9047 5.36285 80.7786 5.43257 80.7786 5.66176C80.7786 5.83606 80.8817 5.91839 81.0531 5.95399C81.5574 6.05783 81.6768 6.4628 81.5063 6.96049C81.0523 8.27183 80.6592 9.42073 80.2424 10.6134C79.8908 11.6147 79.543 12.6056 79.023 14.0698C78.4475 12.5537 78.1129 11.6599 77.7072 10.6134C77.0849 8.99796 76.5873 7.66882 75.8463 5.69959C75.7669 5.49191 75.7009 5.36285 75.4851 5.36285C75.287 5.36285 75.2181 5.49191 75.1439 5.69959C74.4252 7.66882 73.9438 8.99796 73.3408 10.6134C72.9729 11.6147 72.6021 12.6056 72.0576 14.0698C71.5103 12.5537 71.1936 11.6599 70.8131 10.6134C70.2197 8.99796 69.6753 7.46114 68.9721 5.49191C68.944 5.41774 68.8861 5.36285 68.8008 5.36285H67.1194C67.0311 5.36285 66.9985 5.41032 67.0266 5.48597C67.7928 7.40922 68.5331 9.34285 69.2481 11.2854C70.2345 13.9681 70.7092 15.1868 71.2915 16.8482C71.3923 17.1308 71.4598 17.2584 71.6638 17.2584C71.8997 17.2584 71.9879 17.0247 72.0532 16.8475C72.737 14.9858 73.4402 13.1315 74.1596 11.2846C74.4615 10.5118 74.7849 9.70481 75.1624 8.77916C75.58 9.7901 75.7499 10.2181 76.16 11.2854C77.1962 13.9681 77.6961 15.1868 78.3154 16.8482C78.4208 17.1308 78.4912 17.2584 78.6967 17.2584C78.931 17.2584 79.0082 17.0336 79.0749 16.8475C79.5496 15.4671 80.6622 12.3757 81.0627 11.2846C81.7919 9.34556 82.5423 7.41454 83.3138 5.49191C83.345 5.41774 83.3079 5.36285 83.2241 5.36285H81.1747ZM87.0832 13.0544C87.2463 12.636 87.4147 12.2185 87.5838 11.7979C88.011 10.7447 88.4353 9.72854 89.0843 8.14203C89.7667 9.72632 90.1976 10.7469 90.6456 11.7986C90.8199 12.2066 90.9972 12.6249 91.1744 13.0551C89.8107 13.0681 88.4469 13.0681 87.0832 13.0551V13.0544ZM92.7847 16.9179C92.8166 16.9921 92.8692 17.0462 92.9553 17.0462H94.7057C94.7917 17.0462 94.8303 16.9973 94.7991 16.9231C93.9127 15.0045 93.0551 13.0726 92.2269 11.1281C91.0847 8.44168 90.5625 7.06433 89.9981 5.49191C89.9728 5.41774 89.915 5.36285 89.8275 5.36285H87.8924C87.6224 5.36285 87.5067 5.43925 87.5067 5.66992C87.5067 5.84422 87.5979 5.92877 87.7692 5.95399C88.1749 6.00962 88.459 6.17576 88.459 6.67716C88.459 6.9501 88.3426 7.27275 88.2046 7.61838C87.6609 8.99796 87.2174 10.0326 86.7553 11.1281C85.9228 13.0679 85.0678 14.998 84.1905 16.9179C84.1542 16.9921 84.192 17.0462 84.281 17.0462H85.3891C85.4774 17.0462 85.5315 16.9936 85.5612 16.9179C85.9788 15.855 86.3481 14.9116 86.7034 14.0156C87.6773 13.9919 88.4234 13.9859 89.1362 13.9859C89.8542 13.9859 90.6018 13.9919 91.5749 14.0156C91.9777 14.9872 92.3864 15.9752 92.7839 16.9179H92.7847ZM98.498 10.873C98.8081 11.3551 99.0892 11.7801 99.3421 12.1688C99.3362 13.7523 99.3087 15.3359 99.2605 16.9179C99.259 16.9936 99.3035 17.0462 99.3918 17.0462H100.969C101.056 17.0462 101.1 16.9936 101.1 16.9179C101.081 15.3307 101.07 13.7427 101.064 12.1547C102.467 9.92067 103.904 7.70814 105.374 5.51787C105.43 5.43257 105.391 5.36285 105.299 5.36285H103.046C102.775 5.36285 102.663 5.43925 102.663 5.66992C102.663 5.84422 102.752 5.92358 102.925 5.95399C103.407 6.03558 103.52 6.35377 103.252 6.80102C102.384 8.23177 101.504 9.65442 100.61 11.0688C100.363 10.6831 100.133 10.3219 99.885 9.9377C98.9282 8.46096 97.9788 6.97829 97.0369 5.49191C96.9731 5.39326 96.9449 5.36285 96.8195 5.36285H94.9697C94.877 5.36285 94.8362 5.43257 94.8948 5.51861C96.1199 7.28715 97.321 9.07211 98.498 10.873ZM50.9294 11.2068C50.9294 10.514 50.9561 7.61171 50.9716 5.49191C50.9739 5.41774 50.9294 5.36285 50.8448 5.36285H48.3423C48.0701 5.36285 47.9566 5.43925 47.9566 5.66992C47.9566 5.84422 48.0441 5.93693 48.2177 5.95399C49.0395 6.03113 49.1515 6.39753 49.176 7.40922C49.2175 8.89115 49.2145 10.0163 49.2145 11.2068C49.2145 12.7532 49.1967 14.7595 49.1292 16.9179C49.127 16.9936 49.173 17.0462 49.2583 17.0462H50.8381C50.9264 17.0462 50.9672 16.9936 50.9672 16.9179C50.9501 14.8018 50.9294 12.9572 50.9294 11.2068ZM111.058 5.10474C111.934 5.10474 112.725 5.37175 113.258 5.35321C113.399 5.34653 113.525 5.36063 113.525 5.58685C113.525 5.6358 113.509 5.66176 113.509 5.7337C113.509 5.99924 113.636 6.57332 113.638 7.32986C113.638 7.61393 113.567 7.71555 113.334 7.71555C113.114 7.71555 113.064 7.57462 113.033 7.37659C112.967 6.93379 112.886 6.72537 112.661 6.48135C112.285 6.07934 111.709 5.89762 110.9 5.89762C109.555 5.89762 108.832 6.70905 108.883 7.68514C108.943 8.79844 109.84 9.39106 111.407 10.333C113.585 11.654 114.222 12.5055 114.222 13.9622C114.222 15.5502 112.997 17.3029 109.907 17.3029C109.122 17.3029 108.353 17.1797 107.687 16.8897C107.399 16.7622 107.379 16.6939 107.365 16.1836C107.347 15.568 107.339 14.7403 107.393 14.4414C107.424 14.2641 107.469 14.158 107.691 14.158C107.872 14.158 107.965 14.2396 107.989 14.4718C108.002 14.6179 108.024 14.9287 108.093 15.1764C108.421 16.3616 109.541 16.5218 110.319 16.5218C111.859 16.5218 112.739 15.5687 112.739 14.5615C112.739 13.2806 112.01 12.6019 109.925 11.4285C107.867 10.2626 107.442 9.05878 107.473 7.99665C107.522 6.24177 108.855 5.10474 111.058 5.10474Z" fill="#070927"/>
</svg>
