<svg width="98" height="18" viewBox="0 0 98 18" fill="none" xmlns="http://www.w3.org/2000/svg"><path d="M18.281 7.659h-3.346v3.296h3.346V7.659zM1.553 16.133H0v1.531h1.553v-1.53zM9.78 15.83H7.59V18h2.19v-2.17zM5.852 12.01h-2.24v2.205h2.24V12.01zM13.989 11.786H11.31v2.65h2.678v-2.65zM10.056 7.934H7.317v2.698h2.74V7.934zM14.326 3.814H10.98v3.295h3.346V3.814zM18.275 0h-3.346v3.296h3.346V0zM95.137 8.855c-.87 0-1.55-.243-1.971-.707-.354-.383-.52-.802-.49-1.448v-.045h.665v.048c-.01.49.116.764.37 1.036.317.339.842.511 1.562.511.603 0 1.56-.335 1.56-1.24 0-.534-.396-.892-1.213-1.1l-1.349-.345c-.651-.17-1.397-.502-1.397-1.57 0-.185.058-1.825 2.13-1.825.723 0 1.371.247 1.783.678.33.349.502.739.499 1.263v.045h-.661V4.11c-.036-.972-.834-1.34-1.612-1.34-.55 0-1.471.157-1.471 1.212 0 .476.278.77.881.92l1.475.381c.791.22 1.602.598 1.602 1.71 0 .435-.169 1.854-2.357 1.854l-.006.007zM26.243 6.511c-.2 1.052-.96 1.717-1.938 1.717-1.712 0-2.312-1.454-2.312-2.72 0-1.266.606-2.714 2.318-2.714.927 0 1.653.534 1.87 1.413h.694c-.191-1.41-1.455-2.052-2.56-2.052-2.079 0-3.01 1.684-3.01 3.35 0 1.665.931 3.35 3.01 3.35 1.39 0 2.379-.895 2.622-2.353M46.479 8.708l-.016-5.687h-2.02v-.7h4.727v.706h-1.994l.02 5.68h-.717zM50.85 2.32h-.72v6.39h.72V2.32zM66.92 2.32h-.717v6.384h.716V2.321zM79.809 2.324h-.71v6.384h.71V2.324zM74.619 8.704l-.004-6.39h.717v5.69h2.785l-.004.7H74.62zM85.793 8.71L82.17 3.64l-.02 5.068h-.713v-6.39h.717l3.718 5.236V2.318h.717l-.007 6.39-.788.003zM88.254 8.723V2.34l3.514-.016v.71h-2.775l-.003 1.985h2.61v.712h-2.61v2.273h2.778l.004.704-3.518.015zM31.942 8.71s-.593-1.45-.762-1.892c-.301-.783-.693-.821-1.072-.86-.043-.003-.085-.01-.127-.012h-1.384v2.768h-.743V2.327h.04s.58-.01 1.332-.01c.476 0 .924.004 1.322.013.594.01 1.057.183 1.372.509.317.326.476.799.463 1.374-.02.914-.807 1.413-1.024 1.534.08.068.243.237.382.589l.96 2.352.01.03m-2.357-3.421c.392 0 .739-.09.97-.317.23-.227.346-.543.346-.943 0-.639-.49-1.055-1.242-1.055h-1.857v2.312h1.783v.003zM44.391 8.704l-.807-2.014h-2.655l-.807 2.014h-.769l2.539-6.383h.742l2.516 6.383h-.762.003zm-1.044-2.726l-1.082-2.852-1.129 2.852h2.215-.004zM56.697 8.695L55.89 6.68h-2.655l-.807 2.014h-.768l2.538-6.384h.742l2.516 6.384h-.762.003zm-1.043-2.727L54.57 3.117l-1.128 2.851h2.214-.003zM64.598 8.679l-.807-2.014h-2.655l-.808 2.014h-.768l2.538-6.384h.743l2.516 6.384h-.762.003zm-1.04-2.727l-1.083-2.851-1.129 2.851h2.215-.004zM72.696 8.708s-.593-1.452-.762-1.893c-.301-.783-.693-.821-1.073-.86-.042-.003-.084-.01-.126-.013H69.35v2.769h-.743V2.324h.04s.58-.01 1.332-.01c.476 0 .923.004 1.322.013.593.01 1.057.182 1.372.508.317.326.476.8.463 1.375-.02.914-.807 1.413-1.024 1.534.08.067.243.237.382.588.162.4.96 2.353.96 2.353l.01.029m-2.357-3.417c.392 0 .739-.09.969-.317.23-.227.347-.543.347-.943 0-.639-.49-1.055-1.242-1.055h-1.857v2.312h1.783v.003zM36.257 8.864c-2.12 0-3.07-1.675-3.07-3.337 0-1.662.95-3.337 3.07-3.337s3.064 1.675 3.064 3.337c0 1.662-.947 3.337-3.064 3.337zm0-6.07c-1.747 0-2.366 1.473-2.366 2.733s.619 2.733 2.366 2.733c1.09 0 2.36-.716 2.36-2.733 0-2.017-1.27-2.733-2.36-2.733z" fill="#fff"/></svg>