<svg xmlns="http://www.w3.org/2000/svg" width="111" height="12" fill="none"><path fill="#0C0243" d="M16.122 12h3.407c.84 0 1.43-.349 1.735-.992.366-.76 5.338-10.999 5.338-10.999h-3.407c-.84 0-1.43.349-1.743.993-.367.76-5.33 10.998-5.33 10.998ZM81.425 12h3.407c.84 0 1.421-.349 1.734-.992.367-.76 5.338-10.999 5.338-10.999h-3.406c-.84 0-1.431.349-1.735.993C86.396 1.762 81.425 12 81.425 12ZM64.015.009H62.45c-.84 0-1.43.349-1.744.992-.214.439-2.459 5.097-3.612 7.476-.045-.25-.224-.581-.376-.787a1874.607 1874.607 0 0 1-5.41-7.341c-.277-.385-.75-.438-1.216-.197-.384.206-.572.295-.974.51-1.18.617-1.86 1.404-2.433 2.575-1.582 3.255-4.184 8.754-4.184 8.754h1.556c.84 0 1.43-.349 1.734-.992.17-.35 2.075-4.32 3.193-6.617.026.205.134.41.241.554 1.726 2.28 4.373 5.776 4.632 6.125.456.59.92.93 1.761.93h2.567L64.015.009ZM45.058.009h-1.565c-.84 0-1.43.349-1.743.992-.215.439-2.46 5.097-3.613 7.476-.045-.25-.224-.581-.376-.787a1882.697 1882.697 0 0 1-5.41-7.341c-.276-.385-.75-.438-1.215-.197-.385.206-.573.295-.975.51-1.18.617-1.86 1.404-2.432 2.575-1.583 3.255-4.185 8.754-4.185 8.754H25.1c.84 0 1.43-.349 1.735-.992.17-.35 2.074-4.32 3.192-6.617.027.205.134.41.241.554 1.726 2.28 4.373 5.776 4.632 6.125.456.59.921.93 1.762.93h2.566L45.058.009ZM68.647 6.206l1.484-3.058c.42-.859.814-1.163 1.887-1.163h5.588c.573 0 .743.304.546.715-.474.984-1.091 2.245-1.699 3.506h-7.806Zm13.189-3.443c-.17-.125-2.54-1.896-2.683-2.003-.67-.5-1.529-.751-2.423-.751h-3.746c-.832 0-1.297.098-1.905.411-.197.108-2.325 1.207-3.908 2.03-1.323.689-2.155 1.583-2.736 2.781-1.583 3.255-3.264 6.76-3.264 6.76h3.407c.84 0 1.43-.349 1.735-.992.125-.26.867-1.78 1.681-3.461h7.797c-.572 1.18-1.108 2.29-1.502 3.094-.34.706.027 1.35.939 1.35h3.058l3.791-7.815c.34-.644.296-1.02-.241-1.404ZM11.812.009c-.831 0-1.296.098-1.904.411-.197.108-2.379 1.234-3.962 2.057-1.252.653-2.119 1.574-2.664 2.7C1.708 8.432 0 12 0 12h3.407c.84 0 1.43-.349 1.735-.993.134-.286.903-1.86 1.68-3.46h5.545c.76 0 1.055-.134 1.34-.742l.287-.6h-6.67c.607-1.242 1.51-3.12 1.51-3.12.385-.787.832-1.1 1.843-1.1h7.18c.84 0 1.43-.349 1.735-.992L20.075 0h-8.263v.009ZM106.042 2.7c-.358.734-.653 1.369-1.1 2.299-.322.67-.921.965-2.316.965h-5.947l1.449-2.986c.34-.689.84-.993 1.717-.993h5.651c.563 0 .742.304.546.715Zm3.693.063c-.17-.125-2.37-1.78-2.513-1.887a4.506 4.506 0 0 0-2.647-.867h-3.532c-.831 0-1.297.098-1.905.411-.196.108-2.146 1.11-3.728 1.94-1.565.814-2.298 1.601-2.96 2.96C90.867 8.575 89.23 12 89.23 12h3.408c.84 0 1.43-.349 1.734-.992.135-.287 1.038-2.11 1.816-3.702h1.985c.948 0 1.27.286 1.654.92.715 1.199 1.529 2.549 1.663 2.781.447.752.841.993 1.851.993h3.89s-1.011-1.61-2.164-3.55c-.179-.304-.385-.519-.966-.608-.179-.027-.903-.143-1.663-.268l.036-.26h3.147c2.128 0 3.076-.456 3.541-1.34.215-.421.778-1.664.841-1.78.313-.67.268-1.046-.268-1.431Z"/></svg>