<svg xmlns="http://www.w3.org/2000/svg" width="109" height="24" viewBox="0 0 109 24" fill="none"><path fill="#fff" d="M19.742 8.034a.99.99 0 0 1-.06-.208c.027.066.047.136.06.208Z"/><path fill="#fff" d="M19.76 8.243c0-.071-.005-.14-.018-.21.101.265.303.487.56.599v.341c-.388.13-.73.413-.895.79-.094-.06-.188-.083-.282-.118v-.412c.377-.165.636-.554.636-.99ZM21.786 8.087c.014-.103.042-.2.084-.292a1.07 1.07 0 0 1-.084.292ZM21.786 8.087a1.11 1.11 0 0 0 .612 1.146l.036.412-.283.118a1.486 1.486 0 0 0-.895-.79v-.341c.233-.106.424-.303.53-.545Z"/><path fill="#fff" d="M24.023 0 0 24h24.023l9.634-24h-9.633Zm1.626 13.496c-.79 0-1.496-.766-1.355-1.555 0 0-.07.26-.07.6v3.97c-.036.447-.636 2.943-3.45 2.943-2.815 0-3.416-2.496-3.451-2.944v-3.968c0-.298-.083-.566-.093-.597.15.752-.58 1.55-1.356 1.55-.789 0-1.483-.706-1.483-1.495 0-1.26.977-2.179 2.355-2.179.153 0 .294 0 .412.024.247-.13.671-.283 1.013-.294v-.318a1.11 1.11 0 0 1-.624-.99c0-.6.482-1.107 1.107-1.107.475 0 .869.28 1.029.69a1.106 1.106 0 0 1 1.09-1.29 1.106 1.106 0 0 1 1.097 1.259 1.106 1.106 0 0 1 2.118.449c0 .435-.259.824-.636.989v.318c.342.035.754.164 1.013.294.118-.024.26-.024.412-.024 1.39 0 2.355.919 2.355 2.179 0 .789-.694 1.496-1.483 1.496Z"/><path fill="#fff" d="M19.742 8.034a.99.99 0 0 1-.06-.208c.027.066.047.136.06.208ZM21.87 7.795a1.07 1.07 0 0 1-.084.292c.014-.103.042-.2.084-.292ZM44.844 5.205h3.003v2.85h-3.003v-2.85Zm-4.192 4.57v-.601h2.826v3.839h1.39v-3.84h2.979v.542h1.39v-5.7h-4.381v-2.26H43.49v2.272h-4.18v5.747h1.342Zm2.826-1.72h-2.826v-2.85h2.826v2.85ZM79.016 1.79h1.432v1.943h4.678V4.96h-6.52l-.05 1.355h5.292c-.077 1.304-.153 2.813-.256 4.04-.076 1.1-.204 1.636-.562 1.943-.332.281-1.227.358-2.327.537-.076-.537-.332-.972-.562-1.457 1.304-.077 1.994.05 2.07-.69.077-.691.154-1.79.154-3.145h-3.912c-.28 3.656-1.79 4.525-3.17 5.42-.332-.358-.614-.742-1.048-1.048 3.017-1.355 2.966-3.452 3.017-6.903h-2.838V3.784h4.627c-.025 0-.025-1.994-.025-1.994ZM104.277 5.978l.69-1.023c1.355.69 2.889 1.432 3.733 1.994 0 0-.537.64-.895 1.1-.971-.742-2.684-1.586-3.528-2.071Zm2.889 2.147v1.176h-3.042v1.943h4.372v1.228H98.32v-1.228h4.295V9.301h-2.94V8.125h7.491Zm-8.207.051c-.204-.332-.537-.767-.767-1.15.972-.358 2.736-1.253 3.631-2.148 0 0 .843.895.894.946-.562.563-2.633 1.816-3.758 2.352Zm3.682-6.315h1.431v1.253h4.193v2.557h-1.355V4.239h-6.954v1.457h-1.355V3.09h4.014c.026.025.026-1.228.026-1.228ZM57.901 7.41h.742V6.389h-2.046V5.161h2.404v-.972h-5.855v.972h2.275v1.227h-1.994v.972h1.994v1.713h-2.48v1.048h6.213V9.073h-2.531V7.36h1.176l-.818.485c.332.333.69.819.946 1.15l.818-.536c-.281-.332-.69-.818-.844-1.048Zm-5.497 5.447v-.946h7.21v.894h1.304V2.272h-9.767v10.533c0 .052 1.253.052 1.253.052Zm7.261-1.97H52.43V3.423h7.21l.025 7.466ZM69.182 6.244c-.41.614-.614 1.023-.972 1.509h-1.099l.486-.256c-.205-.358-.742-1.022-.946-1.253h2.531Zm.153 0h1.867v4.807c0 .46-.205.614-.767.614h-.537c.255.537.46.843.614 1.355.945-.128 1.303-.282 1.534-.46.28-.205.46-.359.46-1.1V5.247h-3.938v-.894h4.807V3.202h-4.807V1.847h-1.355v1.355H62.33v1.15h4.883v.895h-3.911v7.722h1.252V6.27h1.995l-.946.41c.255.331.537.766.741 1.098h-1.176v.972h2.07v.844h-2.402v1.048h2.403v2.02h1.227v-1.995h2.429V9.62h-2.429v-.843h2.199v-.972h-1.253c.205-.256.741-.844.844-1.023l-.92-.537ZM89.297 4.802l-.972.154c.154.639.256 1.176.332 1.585l.947-.205a16.258 16.258 0 0 0-.307-1.534Zm-1.202 2.071V4.47h1.84v2.403h-1.84Zm2.71 5.37c.41.204.767.46 1.1.638.818-.894 1.457-2.147 1.431-5.65V6.9h1.023l-.077 4.55c0 .819.128 1.1.895 1.151H96.2c.358 0 .613-.537.946-1.662-.333-.153-.767-.409-1.023-.639-.077.486-.153.972-.281 1.1-.077.076-.154.05-.205.05-.076 0-.127-.076-.076-.255 0-1.227.127-5.318.127-5.318h-3.502v2.429c0 1.815-.486 3.247-1.38 3.937Zm-1.534-3.938-1.022.128c.127.613.255 1.508.332 1.943l1.022-.256c-.05-.486-.255-1.457-.332-1.815Zm-3.145-1.432v1.15h.844v.333c-.051 1.585-.332 2.838-.895 3.707.281.256.69.614 1.023.946.69-1.022.972-2.147.972-4.96h1.84v3.043c0 .358-.204.358-1.252.358.255.409.332.767.409 1.252 1.508-.153 1.943-.485 1.943-1.048v-8.13h-1.534c.076-.358.255-1.048.332-1.355-.256-.077-1.1-.205-1.227-.256-.051.358-.128 1.023-.256 1.585H86.97v3.375h-.844Zm8.514-3.17V1.837h-1.355v1.866h-1.943v1.15h5.446v-1.15H94.64ZM108.259 21.411v-6.417h-.588v4.551l-4.091-4.55h-.256v6.416h.614v-4.474l4.116 4.474h.205Zm-5.446 0-1.636-3.17c.69-.204 1.38-.46 1.38-1.636 0-1.227-1.048-1.636-1.917-1.636h-2.25v6.391h.972v-3.093h.843l1.585 3.093c0 .051 1.023.051 1.023.051Zm-2.403-3.579h-1.048v-2.199h1.048c.613 0 1.099.486 1.099 1.1 0 .613-.486 1.1-1.099 1.1Zm-5.957.486h3.17v-.563h-3.17v-2.122h3.17v-.562h-4.116v6.34h4.116v-.613h-3.17v-2.48Zm-2.71 3.093h.946v-6.417h-.946v2.813H88.7v-2.813h-.971v6.417h.971V18.37h3.043v3.042Zm-6.315-5.778h1.917v-.562h-4.832v.562h1.943v5.778h.972v-5.778Zm-3.324 3.554v-4.193h-.563v4.27c0 .946-.818 1.585-1.534 1.585-.843 0-1.713-.614-1.713-1.585v-4.27h-.945v4.219c0 1.15.971 2.25 2.403 2.25 1.662-.052 2.352-1.355 2.352-2.276Zm-5.42-1.023c0-1.84-1.457-3.298-3.247-3.298-1.79 0-3.247 1.458-3.247 3.299 0 1.84 1.457 3.298 3.247 3.298 1.79 0 3.247-1.458 3.247-3.299Zm-1.023.052c0 1.508-1.023 2.735-2.25 2.735s-2.25-1.227-2.25-2.735c0-1.509 1.023-2.736 2.25-2.736s2.25 1.227 2.25 2.736Zm-6.136-2.327v-.767c-3.733-1.048-4.04 1.994-2.812 2.812.486.333 1.304.844 1.79 1.176 1.15.742-.154 2.685-2.353 1.228v.843c3.503 1.227 4.551-1.662 2.966-2.889-.614-.46-1.048-.767-1.636-1.1-1.125-.69-.563-2.326 2.045-1.303Zm-7.721 5.522h1.1l-1.944-6.468h-1.023l-1.943 6.468h.767l.563-1.994h1.917l.563 1.994Zm-.742-2.556h-1.636l.818-2.762.819 2.762Zm-3.707 2.556h.256V15.02h-.563v4.55l-4.116-4.55h-.256v6.391h.614v-4.474c-.025 0 4.065 4.474 4.065 4.474Zm-6.698 0h.971v-6.417h-.971v6.417Zm-1.969 0h.946v-6.417h-.946v2.761h-3.042v-2.76H44.7v6.416h.946v-3.016h3.042v3.016Zm-6.75.077c.844 0 1.534-.153 2.071-.281v-.742c-.562.282-1.022.46-1.636.46-3.58 0-3.298-5.42-.358-5.42 1.15 0 1.636.205 1.994.333v-.69c-.537-.128-1.15-.205-2.07-.205-4.551-.025-4.27 6.545 0 6.545ZM24.542 10.163c-.954 0-2.085.8-2.085 2.85v3.038c.412-.283.99-.53 1.296-.53v-2.826c0-1.084.789-1.402 1.142-1.402-.212.189-.341.413-.341.73a1.05 1.05 0 0 0 1.048 1.049c.6 0 1.048-.424 1.071-1.048 0-1.037-.695-1.861-2.131-1.861ZM17.747 12.695v2.826c.306 0 .883.247 1.295.53v-3.038c0-2.05-1.142-2.85-2.096-2.85-1.437 0-2.132.824-2.132 1.86.012.625.46 1.049 1.084 1.049.565 0 1.048-.471 1.048-1.048 0-.318-.13-.542-.341-.73.353 0 1.142.317 1.142 1.4Z"/><path fill="#fff" d="M21.904 17.005c-.153-.695-.6-1.272-1.166-1.672a2.86 2.86 0 0 0-1.166 1.672c-.447-.6-1.107-.99-1.86-1.178v.671c.082.53.624 2.532 3.038 2.532 2.402 0 2.944-2.002 3.015-2.532v-.67c-.754.188-1.402.576-1.861 1.177ZM20.738 11.329c.188-.6.589-1.084 1.072-1.402-.13-.33-.483-.612-.895-.67v-.849c.341-.07.6-.388.577-.753a.757.757 0 0 0-.766-.766.764.764 0 0 0-.765.766c0 .365.259.683.6.753v.848a1.14 1.14 0 0 0-.895.671c.495.318.884.801 1.072 1.402Z"/><path fill="#fff" d="M17.712 10.022c1.048.365 1.648 1.483 1.648 2.59v3.675c.059.035.094.094.13.13.141-.472.636-1.049 1.118-1.332v-2.85c0-1.036-.753-2.131-1.801-2.343v-.883a.826.826 0 0 0 .6-.777.757.757 0 0 0-.765-.766.757.757 0 0 0-.766.766c0 .376.26.683.6.753v.883c-.423 0-.764.154-.764.154ZM22.705 8.997v.895c-1.048.212-1.802 1.307-1.802 2.344v2.85c.483.258.966.847 1.119 1.33l.13-.13v-3.674c0-1.095.576-2.214 1.648-2.59 0 0-.33-.154-.766-.154v-.86a.74.74 0 0 0 .6-.765.757.757 0 0 0-.765-.765.757.757 0 0 0-.765.765c0 .377.26.683.6.754Z"/></svg>
