<svg xmlns="http://www.w3.org/2000/svg" width="66" height="32"><path fill="#fff" d="m14.873 31.869 2.03-5.137h.657l2.008 5.137h-1.027l-.411-1.058h-1.336l-.272-.73h1.346l-.514-1.412-.144-.468-.143.468-1.218 3.2h-.976ZM21.212 31.869v-5.137h1.027v5.137h-1.027ZM27.13 31.869l-1.172-1.675h-.565v1.675h-.991v-5.137h1.639c.493-.033.982.113 1.376.41a1.54 1.54 0 0 1 .473 1.25c.004.36-.09.715-.273 1.027-.175.29-.44.515-.755.642l1.413 1.813-1.145-.005Zm-1.737-2.353h.642c.565 0 .843-.339.843-1.027a1.054 1.054 0 0 0-.19-.668.78.78 0 0 0-.653-.242h-.642v1.937ZM30.874 31.869l-1.54-5.137h1.026l.971 3.657h.041l.905-2.825-.278-.806h.976l1.202 3.631h.031l.945-3.642h.956l-1.541 5.106h-.822l-1.028-3.169-1.027 3.17-.817.015ZM36.915 31.869l2.055-5.137h.632l2.008 5.137h-1.027l-.411-1.058h-1.34l-.283-.73h1.35l-.513-1.412-.139-.468-.149.468-1.197 3.195-.986.005ZM43.855 31.869v-2.096l-1.67-3.02H43.3l1.11 2.152 1.145-2.152h.986l-1.7 3.02v2.096h-.986ZM49.208 31.992c-.453.018-.9-.1-1.285-.339v-1.027c.361.336.838.52 1.33.513.617 0 .946-.236.946-.714a.55.55 0 0 0-.185-.431 1.66 1.66 0 0 0-.647-.262l-.185-.041c-.863-.21-1.295-.699-1.295-1.47a1.485 1.485 0 0 1 .473-1.17c.38-.303.86-.453 1.346-.422.463-.026.922.093 1.315.34v1.027a2.055 2.055 0 0 0-.575-.355 1.994 1.994 0 0 0-.776-.16 1.09 1.09 0 0 0-.632.15.657.657 0 0 0-.03.894c.187.129.401.217.626.257l.185.04c.383.073.74.25 1.027.514a1.284 1.284 0 0 1 .324.946 1.649 1.649 0 0 1-.468 1.243 2.055 2.055 0 0 1-1.494.467ZM35.205 2.07l.873-.873.796.796.082.072-.878.878-.873-.873ZM36.961 2.07l.874-.873.796.796.077.072-.873.878-.874-.873Z"/><path fill="#fff" d="M35.77 10.782a.962.962 0 0 1-.411-.092 1.465 1.465 0 0 1-.514-1.207v-.155h-7.418V2.651c0-.283-.18-.36-.339-.442-.159-.082-.267-.139-.292-.334v-.098A9.92 9.92 0 0 0 28.563.082V8.22h6.308v-.324c0-.277 0-.858-1.413-.868h-2.22c-.4-.036-.616-.472-.616-.868a.7.7 0 0 1 .283-.606l.092-.067.057.103c.128.236.647.344 1.634.344h1.54c1.66 0 1.855 1.449 1.88 2.055v.246h1.598V5.733s0-.175-.318-.365a.585.585 0 0 1-.283-.396A5.167 5.167 0 0 0 38.8 3.19v6.138h-2.774v.093c-.04.367.064.735.288 1.027l.123.093-.154.108a.997.997 0 0 1-.513.133ZM22.522 10.274v-.946H18.72v-1.13h4.854v1.505s-.052.473.868.473a.56.56 0 0 0 .544-.575V6.914a.38.38 0 0 0-.333-.426H18.72V3.164a5.96 5.96 0 0 0 1.356 1.233c.107.067.051.252-.288.473-.072.04-.154.077-.154.174v.416h5.79c.672 0 .734.72.734.94v3.843s-.052 1.027-1.71 1.027c-2.05-.02-1.927-.996-1.927-.996ZM45.514 9.328V.015l.195.319c.212.29.46.55.74.776.195.18.41.337.642.467.108.041.185.077.185.185v.092c0 .2-.164.268-.298.34a.467.467 0 0 0-.318.441v6.693h-1.146ZM40.049 10.551l1.196-1.176-1.412-1.387V.02a5.75 5.75 0 0 0 1.412 1.761v.093a.42.42 0 0 1-.23.329.472.472 0 0 0-.263.472v4.706l1.177 1.222 1.176-1.222V2.65a.462.462 0 0 0-.262-.468.41.41 0 0 1-.231-.323v-.062A4.659 4.659 0 0 0 44.06 0v7.86l-1.412 1.494 1.176 1.177-1.86 1.88-1.915-1.86Zm1.88.791.786-.791-.786-.791-.786.791.786.791ZM37.074 21.271l1.999-2.157v-4.233a.113.113 0 0 1 .04-.066l.288-.144v-.247H36.72v.242l.277.174c.083.052.083.082.083.108v2.435h-5.368l-1.208 1.541v-4.037l.062-.042.252-.154h.03v-.226h-2.67v.242l.267.174c.04 0 .056.036.066.036v7.346a.16.16 0 0 1-.056.046l-.262.18v.236h2.681v-.241l-.282-.175-.067-.036v-3.339l.288.082.37-.21a.645.645 0 0 1 .169-.082c.05-.006.1-.006.149 0h5.594l-.02 2.547ZM65.558 17.676a4.284 4.284 0 0 0-2.137-2.425c-1.027-.555-2.41-.827-4.32-.827h-7.29v.237s.31.205.32.205v.863h6.96a6.478 6.478 0 0 1 3.082.555 2.568 2.568 0 0 1 1.459 2.29c0 .469-.133.927-.386 1.32a3.082 3.082 0 0 1-1.16.992 6.976 6.976 0 0 1-3.052.514h-3.631v-5.075H53.42v5.933l-.057.056-.241.154v.216h5.948c.896.017 1.792-.048 2.676-.195a6.35 6.35 0 0 0 2.281-.94 3.899 3.899 0 0 0 1.408-1.541c.206-.426.311-.893.308-1.366a3.597 3.597 0 0 0-.185-.966ZM39.396 22.412h-.108l4.993-5.178-1.155-1.238-6.468 6.688h2.98v-.293h-.103a.626.626 0 0 1-.139.02Z"/><path fill="#fff" d="m43.665 15.631 1.274 1.356 1.32 1.326h-2.23l-1.243 1.29.268.179.287-.154h4.11l2.63 2.825s-.036.046-.267.046h-.103v.288h2.974l-7.875-8.378-1.145 1.222ZM24.55 14.676l.268.175c.062.04.092.077.092.112v7.29l-.066.056-.278.175v.241h2.661v-.236l-.247-.175c-.035 0-.056-.036-.061-.036v-7.397l.061-.056.242-.164v-.242h-2.671v.257ZM13.414 21.143l-.35.2-.153.083H6.962a7.067 7.067 0 0 1-3.082-.514 2.497 2.497 0 0 1-1.54-2.317c0-.464.138-.918.395-1.304a3.405 3.405 0 0 1 2.311-1.45c.25-.048.502-.076.755-.081h3.083c.18 0 .154.04.159.056l-.036.216h.257l1.294-1.567H6.901c-.655-.01-1.31.017-1.963.082a6.4 6.4 0 0 0-.698.119 6.556 6.556 0 0 0-1.736.678 4.438 4.438 0 0 0-1.88 1.92 3.34 3.34 0 0 0-.314 1.444c0 1.336.72 2.404 2.142 3.175a6.73 6.73 0 0 0 2.142.724c.792.108 1.59.154 2.389.139h5.496l1.336-1.603h-.4Z"/><path fill="#fff" d="m10.779 19.14 1.284-1.593h-8.67l-.869 1.284h7.808c.154 0 .2.057.206.083l-.031.23.272-.004Z"/><path fill="#fff" d="m10.24 15.95.246.087h.036l.38-.19c.09-.068.2-.104.314-.103h4.792v6.514l-.061.056-.273.18v.231h2.677v-.236l-.278-.17-.067-.061a.17.17 0 0 1 0-.072v-6.437h4.233c.17 0 .185.057.185.062v.226h.216l1.315-1.603H11.452L10.24 15.95Z"/></svg>
