<svg width="83" height="24" viewBox="0 0 83 24" fill="none" xmlns="http://www.w3.org/2000/svg">
<g clip-path="url(#clip0_1933_10741)">
<path fill-rule="evenodd" clip-rule="evenodd" d="M50.3616 2.44355C49.8601 2.71812 49.0635 3.46811 48.143 4.5011C49.3032 5.67576 50.632 7.1927 52.064 9.11876C54.3246 6.08699 55.8037 3.96937 56.8736 3.18398C57.9434 2.39727 61.4096 1.37912 67.5123 0.349121C58.3367 1.17887 51.7295 1.6933 50.3616 2.44355Z" fill="#4EA322"/>
<path fill-rule="evenodd" clip-rule="evenodd" d="M45.2871 1.9871C43.802 0.909233 35.4025 0.259279 24.7491 0C29.847 0.761413 36.3767 1.85729 38.2567 3.04038C39.7521 3.98246 41.3801 5.74928 44.1579 8.96173L52.064 9.11868C49.2281 5.30749 46.7979 3.08482 45.2871 1.9871Z" fill="#00482D"/>
<path fill-rule="evenodd" clip-rule="evenodd" d="M68.1517 12.7121C67.2139 11.75 65.8966 11.3176 63.8844 11.3176C61.8841 11.3176 60.5608 11.7471 59.6003 12.7095L59.5943 12.7121C58.693 13.6672 58.3708 14.9604 58.3708 17.6607C58.3708 20.3573 58.693 21.6504 59.5911 22.6C60.5608 23.5725 61.8841 23.9999 63.8844 23.9999C65.8966 23.9999 67.2107 23.5725 68.1517 22.6055C69.1806 21.5512 69.3751 20.0538 69.3751 17.6607C69.3751 15.2666 69.1806 13.7675 68.1517 12.7121ZM63.8844 21.7444C63.1626 21.7444 62.6062 21.6732 62.1711 21.5292L66.9168 15.2457C67.054 15.8526 67.069 16.6336 67.069 17.6105C67.069 20.5515 66.9477 21.7444 63.8844 21.7444ZM63.8844 13.5525C64.7128 13.5525 65.3193 13.6363 65.7731 13.8176L60.9107 20.2625C60.6984 19.6136 60.6766 18.736 60.6766 17.6105C60.6766 14.7244 60.8001 13.5525 63.8844 13.5525Z" fill="#00482D"/>
<path fill-rule="evenodd" clip-rule="evenodd" d="M45.8397 20.6391C45.5959 21.389 44.7539 21.7263 43.1157 21.7263C40.4237 21.7263 40.0726 20.7138 40.0345 18.4199C40.3979 18.4199 48.2916 18.4199 48.2916 18.4199V17.9516C48.2916 15.9903 48.2373 14.3966 47.5471 13.22C46.7897 11.9224 45.3503 11.3167 43.0201 11.3167C38.5933 11.3167 37.7273 13.6447 37.7273 17.6755C37.7273 19.6011 37.8799 21.1094 38.6318 22.202C39.4462 23.3821 40.865 23.9307 43.0897 23.9307C46.135 23.9307 47.8145 22.8463 48.0861 20.7029L48.0975 20.6391H45.8397H45.8397ZM43.0201 13.5007C45.2988 13.5007 45.9463 14.0756 46.0247 16.2365C45.6702 16.2365 40.4237 16.2365 40.0669 16.2365C40.168 14.2005 40.9317 13.5007 43.0201 13.5007Z" fill="#00482D"/>
<path fill-rule="evenodd" clip-rule="evenodd" d="M82.0039 17.9516C82.0039 15.9903 81.9478 14.3966 81.262 13.22C80.5019 11.9224 79.064 11.3167 76.7336 11.3167C72.3051 11.3167 71.4407 13.6447 71.4407 17.6755C71.4407 19.6011 71.5942 21.1094 72.3466 22.202C73.1585 23.3821 74.5752 23.9307 76.8051 23.9307C79.8507 23.9307 81.5299 22.8463 81.8029 20.7029L81.8101 20.6391H79.5519C79.3127 21.389 78.4714 21.7263 76.8285 21.7263C74.139 21.7263 73.7863 20.7138 73.7449 18.4199C74.1104 18.4199 82.0038 18.4199 82.0038 18.4199V17.9516H82.0039ZM73.78 16.2365C73.8789 14.2005 74.6453 13.5007 76.7336 13.5007C79.0091 13.5007 79.658 14.0756 79.7364 16.2365C79.3828 16.2365 74.1391 16.2365 73.78 16.2365Z" fill="#00482D"/>
<path fill-rule="evenodd" clip-rule="evenodd" d="M20.1107 23.744H22.4118V11.8108H20.1107V23.744Z" fill="#00482D"/>
<path fill-rule="evenodd" clip-rule="evenodd" d="M3.91597 23.7411H6.45475L9.03472 15.8345L11.6497 23.7411H14.1538L18.0748 11.8071H15.6512L12.8844 20.208L10.1199 11.8071H7.95386L5.18734 20.208L2.42389 11.8071H0L3.91597 23.7411Z" fill="#00482D"/>
<path fill-rule="evenodd" clip-rule="evenodd" d="M35.582 18.8764C35.582 18.8838 35.582 6.83716 35.582 6.83716H33.2784C33.2784 6.83716 33.2784 11.3528 33.2784 11.9411C32.4747 11.5441 31.4699 11.3528 30.1416 11.3528C28.155 11.3528 26.8427 11.7798 25.8837 12.7379C24.979 13.6884 24.6623 14.9769 24.6623 17.6608C24.6623 20.3409 25.0114 21.7143 25.8707 22.5738C26.7338 23.4358 28.0206 23.9663 30.1416 23.9663C32.1452 23.9663 33.4418 23.5269 34.3886 22.5801C35.1913 21.7763 35.582 20.1588 35.582 18.8764ZM30.1416 13.5844C33.2044 13.5844 33.3261 14.7482 33.3261 17.6143C33.3261 20.4558 33.1969 21.7143 30.1416 21.7143C27.0905 21.7143 26.9625 20.4558 26.9625 17.6143C26.9625 14.7482 27.0848 13.5844 30.1416 13.5844Z" fill="#00482D"/>
<path fill-rule="evenodd" clip-rule="evenodd" d="M52.8464 23.741H50.5412L50.5394 11.8064H52.8569V12.6739C53.7882 12.1229 54.5424 11.8064 56.3076 11.8064C56.719 11.8064 56.9151 11.8128 57.0566 11.8235V14.0783C56.849 14.0464 56.5578 14.0292 56.3076 14.0292C55.7393 14.0292 54.4303 14.0901 53.6679 14.8565C53.1316 15.3907 52.8432 16.2701 52.8432 17.8093L52.8463 23.741L52.8464 23.741Z" fill="#00482D"/>
</g>
<defs>
<clipPath id="clip0_1933_10741">
<rect width="82.0039" height="24" fill="white"/>
</clipPath>
</defs>
</svg>
