<svg xmlns="http://www.w3.org/2000/svg" width="148" height="24" viewBox="0 0 148 24" fill="none"><g clip-path="url(#a)"><path fill="#B50029" d="M3.487 18.977c.295 1.27.247 3.367-.605 4.42C1.66 24.908.487 23.251.183 22c-.327-1.347-.285-3.694.703-4.77.342-.427.89-.697 1.389-.347.777.538.942 1.224 1.212 2.095v-.001Z"/><path fill="#fff" d="M2.345 20.625c.054.142-.08.38.162.426.157.132.527.085.496.333-.298-.016-.526-.293-.873-.219-.181.035-.337.14-.516.195-.022-.028-.056-.049-.04-.087.177-.139.432-.139.595-.299l.012-.44c.081-.103.19-.014.164.091Zm.284.982c.169.161.052.376.079.587-.014.464.004.856.114 1.3-.003.057-.023.123-.08.144-.057.004-.064-.054-.095-.082-.038-.599-.098-1.195-.113-1.805-.043-.156-.27-.055-.373-.078-.058.002-.108.038-.155.078-.033.605 0 1.23-.102 1.856a.08.08 0 0 1-.075.024l-.033-.047c.053-.618.042-1.301.09-1.889a.431.431 0 0 1 .358-.169.804.804 0 0 1 .384.08l.001.001ZM1.313 22.62c.016.145-.01.258.005.38.02.142-.04.281-.057.422-.004.07-.059.129-.028.204h.078c.12-.06.1-.211.113-.334.034-.142.013-.25.029-.37.015-.248.023-.497.023-.746.012-.07 0-.1.005-.154.049-.227.007-.492-.02-.723-.084-.229-.343-.242-.537-.295C.87 20.97.851 20.9.848 20.85c.045-.107.169-.14.276-.149.036-.018.063-.014.098-.026a.534.534 0 0 1 .159-.041c.048-.009.059-.05.059-.093-.089-.132-.19.015-.31.013-.137.06-.393.048-.421.267-.028.092.028.175.077.239a.264.264 0 0 0 .182.076c.126.043.305.052.36.187-.003.066.015.21.015.253a.556.556 0 0 1 0 .156c.034.084 0 .178-.003.268-.035.075-.153.035-.222.04-.06-.033-.136-.006-.184-.051a.552.552 0 0 1-.018-.253c.122-.06.22-.042.341-.103l.014-.022c.003-.014.007-.031 0-.044-.008-.011-.014-.017-.02-.03-.078-.077-.1.008-.207.012-.023 0-.041.003-.064.001-.159.009-.049-.202-.107-.284-.025-.015-.046-.081-.092-.059-.104.078.01.213-.017.32.028.295.022.618-.034.927.037.138-.03.32-.025.467-.023.062-.007.135-.031.197.008.073-.065.18.008.23.03-.028.066-.043.089-.084.035-.208.077-.408.098-.622.006-.037.033-.07.079-.056.1.01.126.07.22.07.134-.03.047-.13.022-.143-.113-.008-.099-.053-.204-.07-.032-.007-.103.015-.091-.035a.83.83 0 0 1 .03-.234c.09-.026.183 0 .282 0 .036.005.12.015.133.054.014.107-.01.283-.027.392Zm1.748-3.608-.144-.025c-.056-.045-.11-.07-.173-.107-.123-.093-.312-.152-.445-.285-.124.007-.179.122-.295.19-.014.015-.043.029-.057 0 .047-.098.142-.143.215-.214.047-.031.103-.052.141-.093.087.032.12.09.184.124.108.049.15.105.242.142.093.059.153.088.235.123.047.034.173.017.118.135l-.021.01Z"/><path fill="#fff" d="M2.82 17.56c-.008.053-.077.084-.144.084-.09 0-.109.025-.179.068-.02.022-.04.057-.028.09-.002.063.108.082.18.108.024.001.038.024.036.05-.03.021-.067-.001-.108.007-.11.024-.232-.024-.34-.007-.045.014-.053 0-.118.021-.03.007-.046.007-.072.017-.07.026-.197 0-.202.076-.018.078-.03.158-.037.238-.007.036-.003.081-.024.116 0 .114.024.293.052.45-.002.035-.008.07 0 .103.065.07.185.022.23.036.095 0 .146.01.22.005.07.012.145.002.22.02.01-.008.036.016.047.027 0 .033-.038.034-.07.038a.61.61 0 0 1-.197-.01c-.169-.007-.298.024-.492.016-.091.007-.135.01-.246.007-.018-.007-.102.006-.125.006-.1-.003-.111-.003-.21-.019-.029-.015-.071.014-.085-.028-.014-.036.03-.034.048-.038h.275a.552.552 0 0 0 .253-.038c.014-.033.01-.061.014-.088.006-.128-.03-.258-.017-.413.014-.083 0-.194.016-.276.007-.07.007-.246.062-.285l.239-.062c.09.004.16-.01.257-.006.05-.01.105-.032.13-.086a.1.1 0 0 0-.077-.105c-.06-.014-.053-.006-.128-.015-.042-.013-.09 0-.12-.053a.502.502 0 0 1-.088-.406c.014-.028.031-.062.068-.034.046.054.011.109.004.17-.014.136.069.196.118.227.056.022.069.013.136.007.064-.05.031-.13.057-.197-.01-.107.017-.154.056-.249.042 0 .042.045.058.078l-.003.046c.01.087-.013.191.028.298.03.04.034.03.079.03.063-.027.12-.057.132-.127.025-.066-.031-.207.074-.214.028-.005.027.007.033.023l-.012.295v-.001Z"/><path fill="#fff" d="M2.816 18.489a.161.161 0 0 1-.097-.028c-.074-.095-.278-.138-.353-.2-.104-.043-.112.004-.182.04-.038.047-.097.07-.144.095-.04.038-.048.05-.088.058-.014-.007-.037-.026-.02-.037.045-.046.067-.073.111-.105.084-.047.17-.116.247-.17.08.04.253.095.338.132.067.07.173.094.229.171.004.028-.02.04-.04.042l-.001.002Zm-.392 1.322c.03.11.006.318-.046.36-.048.066-.096.068-.148.082-.15.017-.11.022-.257.04l-.23.019c-.148.004-.255.014-.414.011-.073.01-.153-.022-.225-.042-.018-.027-.053-.027-.053-.072 0-.043.091-.025.16-.024.138.013.277.024.416.021.148-.016.197-.01.377-.016a.529.529 0 0 0 .142-.037c.135-.05.116-.043.151-.169.02-.112.002-.142-.122-.174-.146-.038-.25-.008-.34-.104-.066-.088.013-.2-.124-.264a1.617 1.617 0 0 1-.326.018c-.066 0-.112.007-.18.004-.036-.007-.087-.004-.147-.005-.04 0-.047-.012-.092-.012-.02-.023-.063-.049-.028-.084.05-.022.094.004.14-.017.119-.004.217 0 .342-.005.048.005.097.005.135.007.111-.012.214.008.342-.002.095 0 .173.012.249.006.074.006.116.015.158.007.088-.018.155.005.223-.002.108.012.146-.025.23-.005.032.006.044.045.06.055-.014.02-.016.042-.043.046-.077.038-.15.011-.256.011-.079.014-.146.005-.247.017-.06-.014-.13-.015-.21-.02a.596.596 0 0 0-.153.013.194.194 0 0 0 .065.169c.056.042.175.04.257.053.069.025.164.034.194.115Zm-.658-2.55c-.014.113.02.323-.104.43-.098.027-.228-.017-.292.082-.058.083.008.163-.014.253.03.11.14.15.2.238.044.045.058.07.072.12-.022.013-.047.027-.069.013l-.023-.02-.043-.049c-.033-.026-.076-.087-.123-.098-.169-.003-.253.155-.383.236-.042.035-.084.063-.126.093-.033.031-.055.046-.085.07a.4.4 0 0 1-.16.092l-.015-.028c.014-.029.073-.064.112-.09.092-.104.183-.221.312-.282.087-.084.22-.143.263-.267a.17.17 0 0 0-.046-.105c-.01-.072.03-.153-.052-.191a.4.4 0 0 1-.238-.079.5.5 0 0 1-.074-.513l.015-.004c.079.02.052.104.054.169.007.085.022.19.09.247a.215.215 0 0 0 .108.076c.035-.004.076-.03.077-.064.05-.12-.025-.234.028-.358-.001-.03-.007-.088.038-.104l.084.015c.003.08-.03.147-.022.232.004.072-.015.158.042.201.027.029.066.043.103.026.098-.006.149-.097.166-.16-.005-.1.024-.186.015-.248l.018-.045c.045.021.068.061.072.112Zm-.207 1.572c-.049.006-.043-.06-.077-.084-.05-.045-.1-.135-.188-.101-.037.024-.073.054-.121.08-.127.151-.257.218-.39.351-.032.01-.047-.011-.056-.036.037-.052.099-.092.15-.131.039-.027.067-.078.112-.108.03-.035.048-.06.077-.082.075-.077.135-.101.198-.169.03-.026.078-.047.11-.02.03.075.12.113.177.17.025.035.087.1.008.13Z"/><path fill="#00125D" d="m37.653 14.044-.081.053c-.694-.414-1.786-.732-2.826-.732-2.103 0-3.749 1.479-3.749 3.708 0 2.34 1.925 3.655 3.89 3.655 1.289 0 2.545-.457 3.212-1.108l.098.07-.403 1.911c-.706.413-1.981.635-2.976.635-3.266 0-5.993-1.966-5.993-5.177 0-2.936 2.241-5.26 5.936-5.26 1.235 0 2.41.288 3.267.665l-.375 1.58Zm11.215 7.958a23.235 23.235 0 0 1-.07-1.676v-6.617c0-.498.029-1.134.07-1.675h-2.16c.041.541.07 1.175.07 1.675v2.437h-5.165v-2.437c0-.498.03-1.134.072-1.675h-2.16c.043.541.07 1.175.07 1.675v6.618c0 .54-.027 1.122-.07 1.676h2.16a22.59 22.59 0 0 1-.07-1.676v-2.67h5.162v2.67c0 .54-.028 1.122-.069 1.676l2.16-.001Zm4.65 0a24.286 24.286 0 0 1-.07-1.676v-6.617c0-.498.029-1.134.07-1.675h-2.16c.043.541.07 1.175.07 1.675v6.618c0 .54-.027 1.122-.07 1.676l2.16-.001Zm11.68-9.968a24.78 24.78 0 0 0-.066 1.704v8.373h-.32l-6.989-7.14v5.355c0 .54.028 1.122.07 1.676h-1.841c.042-.554.069-1.136.069-1.676v-7.101l-1.055-1.067v-.124h2.563l5.8 5.967V13.71c0-.54-.028-1.121-.068-1.675H65.2l-.002-.001Zm12.558 9.968c-.43-.639-.802-1.317-1.122-1.897l-4.692-8.584h-.47L65.892 22h2.23c.157-.458.342-.907.553-1.343l.61-1.244h4.79l.648 1.286c.197.388.43.843.542 1.302h2.49l.001.001Zm-6.16-7.434h.07l1.73 3.474H69.95l1.646-3.474Zm21.317 7.434a24.122 24.122 0 0 1-1.122-1.897l-4.693-8.584h-.47L81.05 22h2.228c.159-.458.344-.906.554-1.343l.612-1.244h4.787l.653 1.286c.19.388.427.843.538 1.302h2.49l.001.001Zm-6.158-7.434h.067l1.73 3.474h-3.445l1.648-3.474Zm9.038 7.434a21.904 21.904 0 0 1-.07-1.676v-6.617c0-.498.028-1.134.07-1.675h-2.16c.04.541.067 1.175.067 1.675v6.618c0 .54-.027 1.122-.067 1.676h2.157l.003-.001Zm2.533 0c.042-.554.068-1.136.068-1.676v-6.617c0-.498-.027-1.134-.068-1.675h3.888c2.217 0 3.683 1.15 3.683 2.7 0 1.55-1.162 2.478-2.561 2.739l2.52 2.825a13.31 13.31 0 0 0 1.592 1.58v.124h-2.616l-4.416-5.179v3.504c0 .54.029 1.122.071 1.676h-2.16l-.001-.001Zm2.09-5.426h1.163c1.342 0 2.159-.54 2.159-1.732 0-1.039-.789-1.55-2.173-1.55h-1.149v3.282Zm13.828 5.426.416-1.786-.111-.056a4.119 4.119 0 0 1-1.965.471h-2.397v-6.92c0-.5.028-1.136.071-1.676h-2.157c.04.54.066 1.175.066 1.676v6.616c0 .54-.028 1.122-.066 1.676l6.143-.001Zm3.725 0a23.438 23.438 0 0 1-.07-1.676v-6.617c0-.498.028-1.134.07-1.675h-2.159c.039.541.067 1.175.067 1.675v6.618c0 .54-.028 1.122-.067 1.676h2.158l.001-.001Zm11.667-9.968c-.042.512-.07 1.19-.07 1.704v8.373h-.319l-6.989-7.14v5.355c0 .54.027 1.122.067 1.676h-1.841c.043-.554.07-1.136.07-1.676v-7.101l-1.051-1.067v-.124h2.559l5.8 5.967V13.71c0-.54-.028-1.121-.07-1.675l1.844-.001Zm9.067 9.968.429-1.786-.11-.056c-.527.305-1.206.471-1.979.471h-3.268v-3.21h2.603c.635 0 1.203.053 1.758.194l.359-1.51h-4.72v-2.713h2.794c.721 0 1.385.069 1.995.249l.386-1.606h-7.267c.042.542.069 1.175.069 1.676v6.618c0 .538-.026 1.12-.069 1.674l7.02-.001Zm8.359-7.767c-.663-.594-1.854-.996-2.893-.996-1.384 0-2.116.456-2.116 1.123 0 .759.968 1.147 2.741 1.91 2.558 1.092 3.169 1.743 3.169 3.072 0 1.7-1.678 2.894-4.18 2.894-1.41 0-2.882-.513-3.75-1.081l.372-1.814h.125c.664.86 2.064 1.427 3.267 1.427 1.302 0 2.214-.483 2.214-1.26 0-.732-.731-1.054-2.727-1.882-2.312-.955-3.211-1.717-3.211-3.185 0-1.495 1.315-2.642 4.111-2.642 1.107 0 2.547.357 3.363.815l-.375 1.62h-.11v-.001Z"/><path fill="#B50029" d="M15.784 1.414c.288.004.45.118.624.21.341.18.562.334 1.017.338.24 0 .487.028.71.138.784.371 1.23 1.7 1.368 2.435.048.253.024.517 0 .77-.025.254-.05.495 0 .707.084.384.235.385.33.385h.002c.097 0 .219-.027.344-.052.093-.02.183-.042.284-.056.222-.031.443-.048.65-.048.302 0 .593.035.868.104.295.07.578.098.877.127.22.018.446.04.685.083.235.04 1.04.185 1.495.385.256.11.459.288.653.46.168.153.329.296.524.399 1.132.605 1.462 1.314 1.127 2.455-.035.116-.067.236-.102.354a21.34 21.34 0 0 1-.352 1.149c-.16.47-.407.672-.697.91-.084.07-.176.146-.267.229-.273.252-.472.567-.683.905-.294.462-.6.943-1.11 1.247-.424.248-.76.267-1.187.286a1.522 1.522 0 0 1-.077.002c-.19.094.014.495.154.74a3 3 0 0 1 .232.477c.05.14.052.293.056.434.005.127.005.246.043.335.014.042.073.094.13.145.129.1.227.233.282.386.13.436.087 1.367-.04 1.697-.034.091-.12.185-.222.3-.073.077-.139.16-.197.248-.04.078-.059.179-.078.281-.031.156-.067.338-.183.502-.444.641-1.404.979-2.178 1.25-.175.06-.35.123-.523.19a1.45 1.45 0 0 1-.54.126c-.221 0-.392-.08-.587-.173a4.064 4.064 0 0 0-.325-.143c-.326-.124-.628-.15-.974-.18a8.027 8.027 0 0 1-.534-.055c-.365-.052-.596-.216-.818-.368a1.338 1.338 0 0 1-.096-.066h-.035c-.331 0-.573-.07-.732-.214-.36.516-.907.91-1.698 1.233-.533.295-1.09.421-1.569.509l-.337.104c-.445.14-.908.208-1.374.205-.172 0-.351-.01-.523-.025-.624 0-1.114-.144-1.504-.43a3.848 3.848 0 0 1-1.095-.792c-.435-.302-.922-.663-1.16-1.148-.282-.575-.144-.835.036-1.167.07-.129.135-.26.191-.396.316-.726.42-1.048.44-1.181-.358-.108-.676-.436-.966-.993a4.454 4.454 0 0 0-.43-.703 3.693 3.693 0 0 0-.256-.276c-.067-.066-.158-.141-.182-.17-.33-.322-.736-.52-1.125-.713-.351-.175-.714-.354-1.012-.624a2.37 2.37 0 0 1-.533-.697c-.465-.722-.923-1.485-1.054-2.244-.132-.745.055-1.182.29-1.635.071-.159.15-.312.241-.455.045-.085.08-.162.113-.234.056-.115.09-.205.12-.288.074-.196.131-.355.376-.618.3-.323.548-.485.874-.647.36-.177.766-.302 1.087-.332.024 0 .243-.033.327-.018a.97.97 0 0 0 .22.035c.015 0 .03 0 .043-.002a.561.561 0 0 0 .222-.082.783.783 0 0 1 .377-.062h.031c.349.018 1.581.647 1.93.658 0 0 .087.007.127-.003a.25.25 0 0 0 .087-.049 1.37 1.37 0 0 0 .38-.524c.012-.019.016-.038.027-.058v-.003c.017-.04.033-.084.048-.123.014-.047.028-.085.04-.134.071-.233.119-.492.167-.74.014-.068.022-.141.038-.206l.014-.06.014-.076c.005-.014.014-.068.014-.068l.014-.056.003-.014.01-.05.007-.022.014-.062.004-.008.013-.055.007-.014.016-.063v-.003l.02-.056.003-.02c.008-.018.014-.04.021-.06V5.53c.007-.017.017-.038.023-.056l.005-.017a.505.505 0 0 1 .025-.058v-.004a.911.911 0 0 0 .023-.055l.008-.016c.01-.016.017-.037.027-.054.126-.282.223-.576.291-.877.173-.647.35-1.31.924-1.662.253-.154.516-.177.77-.2.216-.016.422-.038.609-.133.154-.077.288-.19.428-.306.194-.165.4-.337.682-.423l.087-.024.021-.006a.844.844 0 0 1 .082-.018l.015-.004.073-.016.023-.003.077-.014.024-.002c.02-.003.04-.007.062-.009l.024-.003.073-.007h.03c.016-.005.035-.005.053-.008h.043l.048-.003h.173c.09 0 .189.006.297.014h.005l.117.011h.017l.115.014c.093.007.179.012.263.012.24-.006.48-.038.714-.097.22-.048.49-.096.643-.093v.001Z"/><mask id="b" width="27" height="23" x="1" y="1" maskUnits="userSpaceOnUse" style="mask-type:alpha"><path fill="#fff" d="M15.44 1.584c-.524.1-.782.188-1.291.14-.464-.047-.907-.08-1.406.075-.444.135-.686.515-1.09.718-.44.231-.938.067-1.366.328-.794.486-.773 1.71-1.158 2.48-.427.847-.242 2.164-1.049 2.81 0 0-.047.037-.116.053-.054.01-.155.013-.155.013-.371-.01-1.465-.633-1.948-.66-.252-.014-.374.124-.612.147-.112.01-.21 0-.303-.009a1.568 1.568 0 0 0-.29-.008c-.359.047-.707.155-1.03.319a2.53 2.53 0 0 0-.83.608c-.323.349-.285.478-.469.87-.403.864-.805 1.236-.633 2.233.147.861.745 1.741 1.23 2.49.558.872 1.701.962 2.48 1.721.281.273.611.588.853.886.204.253.957.995 1.005 1.262.038.232-.385 1.172-.492 1.427-.233.54-.509.684-.19 1.335.381.77 1.472 1.251 2.102 1.8.845.733 2.116.463 3.15.302 1.08-.166 2.045-.326 2.885-1.187.435-.447.624-.908 1.355-.66.548.182.749.573 1.334.66.57.082 1.026.047 1.539.242.573.22.703.45 1.35.191.757-.305 2.104-.628 2.63-1.386.17-.239.139-.534.25-.762.082-.163.365-.41.413-.534.112-.29.159-1.186.04-1.591-.073-.246-.347-.349-.414-.52-.087-.236-.008-.536-.098-.773-.216-.593-.748-1.149-.362-1.412.062-.035.855-.01 1.305-.275.836-.492 1.095-1.513 1.767-2.131.406-.371.735-.517.93-1.084.163-.474.307-.994.453-1.495.337-1.153-.075-1.758-1.054-2.285-.452-.239-.722-.66-1.166-.854-.386-.166-1.068-.31-1.462-.377-.558-.096-1.048-.08-1.574-.211a3.733 3.733 0 0 0-1.466-.05c-.537.08-.957.333-1.119-.389-.101-.46.09-1.002 0-1.48-.14-.73-.568-1.996-1.293-2.339-.425-.204-.911-.06-1.37-.316-.407-.23-.608-.333-1.003-.333-.08 0-.166.003-.262.011Z"/></mask><g mask="url(#b)"><path fill="url(#c)" d="M1.521 1.571h26.024v21.784H1.52V1.571h.001Z"/></g><mask id="d" width="11" height="12" x="9" y="1" maskUnits="userSpaceOnUse" style="mask-type:alpha"><path fill="#fff" d="M16.008 1.806c-.07.007-.144.02-.23.034-.539.098-.811.194-1.34.142-.087-.007-.417-.027-.513-.035a2.845 2.845 0 0 0-.942.114c-.463.139-.716.524-1.133.738-.46.236-.98.067-1.42.334-.446.267-.968 1.23-1.13 2.44-.054.405.224.786.17 1.246-.237 1.97.323 1.522.744 2.32.785 1.49.706 1.943.314 1.863.435.523.835 1.192.513 1.617 1.342.288 3.047-.076 3.7-.581.535-.409 1.272-.81 1.68-1.325.354-.453 1.011-1.888 1.302-2.368.46-.748.956-.9 1.312-2.295.599-2.327-.582-3.322-1.833-3.847-.39-.165-.897-.4-1.154-.4l-.04.003Z"/></mask><g mask="url(#d)"><path fill="url(#e)" d="M9.233 1.803h10.4v11.102h-10.4V1.803Z"/></g><mask id="f" width="11" height="10" x="6" y="14" maskUnits="userSpaceOnUse" style="mask-type:alpha"><path fill="#fff" d="M14.017 14.172c-.83.216-2.314.017-3.041.514-.64.436-1.24 1.048-1.546 1.746-.754.823-1.569 1.548-2.026 2.187-.509.71-.6 1.833-.277 2.484.911 1.812 3.191 2.383 4.931 1.833 1.689-.38 3.76-.861 3.992-3.108.119-1.112.43-2.257.061-3.286-.273-.752-.339-2.425-1.653-2.425-.149 0-.297.02-.441.056"/></mask><g mask="url(#f)"><path fill="url(#g)" d="M6.804 14.117h9.677v9.369H6.804v-9.369Z"/></g><mask id="h" width="10" height="11" x="1" y="8" maskUnits="userSpaceOnUse" style="mask-type:alpha"><path fill="#fff" d="M1.689 11.415c-.017.816.64 1.696.995 2.393.517 1.01.988 1.053 1.906 1.546.769.415 1.251.898 1.687 1.732 1.122 2.16 2.343.146 3.322-.642.72-.59 1.165-1.898.954-2.84-.142-.624-.65-1.532-1.172-1.92l.327.22c-.416-.408-.1-.923-.28-1.415-.164-.439-.424-.97-.659-1.455-.346-.725-.745-.542-1.099-.361-.19.097-.368.194-.52.152-.464-.12-1.127-.27-1.563-.443a2.449 2.449 0 0 0-.894-.169c-1.56-.001-2.966 1.503-3.004 3.201"/></mask><g mask="url(#h)"><path fill="url(#i)" d="M1.672 8.212h9.092v11.032H1.672V8.212Z"/></g><mask id="j" width="12" height="11" x="15" y="6" maskUnits="userSpaceOnUse" style="mask-type:alpha"><path fill="#fff" d="M20.01 6.702c-.468.083-.958.422-1.29.654-.371.292-.595 1.026-.97 1.248-.862.402-.888.61-1.36 1.358-.384.616-.87 1.479-1.252 2.148-.007.258.014.52.063.769.078.419.559 1.09.546 1.457l.02-.146c.393 2.135 4.744 2.78 3.941 1.74-2.066-2.686 1.153-4.003 1.558-3.5 2.527 3.143 3.546 1.293 3.788.973.52-.704.925-1.42 1.054-2.111.804-4.465-1.698-3.838-3.108-4.45a2.41 2.41 0 0 0-.227.002c-.542.031-.816.09-1.33-.03-.083-.02-.165-.039-.246-.06a1.63 1.63 0 0 1-.252-.042 3.065 3.065 0 0 0-.506-.046c-.138 0-.281.01-.429.036Z"/></mask><g mask="url(#j)"><path fill="url(#k)" d="M15.131 6.666h11.782V16.97H15.131V6.666Z"/></g><mask id="l" width="16" height="15" x="7" y="7" maskUnits="userSpaceOnUse" style="mask-type:alpha"><path fill="#fff" d="M18.686 7.347c-.13.141-.267.279-.334.394-.186.306-.274.474-.626.67-.242.135-.426.197-.602.397-.168.193-.298.4-.447.607-.286.405-.84.502-1.338.51-.12.005-.237-.002-.351-.007-.683.446-1.406.703-2.064.54-.404-.101-.913-.822-1.296-.767-.385.059.22.257-.084.586-.34.364-.75.063-1.04-.236-.197-.204-.336-.41-.356-.405-.083.028.014.239.004.34-.014.212-.21.342-.23.56-.023.215.007.335.034.448.033.13.095.295.088.52-.01.38-.007.256-.022.635-.033.75-.345 1.063-.529 1.803-.198.808.638 1.234-.368 2.743-.336.502-1.842 1.204-1.746 1.798.424-.074.662-.548.966-.857.724-.727 2.697-1.495 3.857-1.55 1.209-.056.05 1.287.39 1.551.327.253-.333.96.041.783.386-.187.913-1.944 1.125-2.375.138-.282 2.052-4.72 2.103 1.976.005.637.383.945.205 1.56-.084.288-1.209 1.898.64 1.718.246-1.397-.809-2.39-.263-3.07.29-.363 1.31-.429 1.293-.9-.042-1.037.437-1.013.878-.99.273.013.532.027.647-.204.177-.363.263-.497.3-.542-.016-.001-.041-.032-.051-.154-.047-.459.365-.464.171-.9.442.105.56-.33.925-.429.246-.069.748-.04 1.003 0 .607.099.908 1.087 1.033 1.026.14-.213-.2-.74-.519-1.031-.256-.237-.562-.716-.772-.989-.309-.403-.11-.95-.562-1.18-.14-.073-.25-.048-.385-.024-.203.038-.45.074-.91-.205-2.4 1.7-.37-.863-.514-1.492-.292-.828-.942-1.068-.26-2.85.003-.009-.002-.016-.011-.016-.007 0-.014.004-.023.008Z"/></mask><g mask="url(#l)"><path fill="#CA5767" d="M7.286 7.339h15.496V21.47H7.286V7.339Z"/></g><path fill="#fff" d="M11.095 15.908c-.25-.181 0-.817.3-1.136.298-.318.756-.836.635-.897-.118-.06-.635.06-.795 0-.16-.06.895-.478 1.015-.537.12-.06-.757-.3-1.076-.338-.316-.04-.974.059-.915-.082.062-.136.44-.316.519-.396.079-.08-.498-.38-.539-.52-.04-.138.12-.279.717-.138.596.139 1.095.079 1.354.139.174.034.341.094.496.18.101.06.172-.158.253-.124.085.034.272.155.288.034.017-.124-.082-.346-.246-.493-.164-.148-.427-.445-.46-.549-.032-.107-.162-.36-.013-.42.146-.056.275-.007.36-.04.081-.034.23-.255.44-.164.215.09.313.172.38.224a.35.35 0 0 0 .286.046c.098-.032.263-.23.45-.115.19.115.527.385.829.32.304-.066.478-.213.567-.393.09-.182.345-.748.452-.855.105-.107.377-.319.336-.239-.04.083-.312.683-.295.986.017.305-.048.378.05.452.098.073.221.05.327 0 .106-.05.28-.171.303-.098.026.071-.606.499-.794.681-.19.179-.371.549-.278.696.088.148.45.082.63.082.182 0 .566.025.518.115-.05.089-.697.524-.697.599 0 .074.392.214.617.22.22.01.745.092.95.141.204.05.376.042.418.155.04.114.105.213.032.222a2.832 2.832 0 0 1-.665-.115c-.147-.058-.91-.23-1.082-.221-.172.008-.68-.008-.77.163-.09.173.286.288.366.363.085.074.39.393.2.426-.188.033-.344-.107-.418-.131a3.457 3.457 0 0 1-.444-.288c-.073-.057-.393-.4-.548-.386-.156.015-.478.075-.658.189-.183.117-.377.337-.485.46-.105.123-.54.403-.72.55-.18.147-1.175.935-1.354 1.067-.183.133-.631.311-.836.165Z"/><path fill="#B50029" d="M13.963 10.024c-.072-.109-.045-.364.014-.523.054-.14.478-.92.92-.77.178.06.295.134.347.324.087.314.098.789-.144 1.03-.344.346-.941.231-1.138-.061h.001Zm-2.063.947a.477.477 0 0 0 .314-.296c.04-.165.366-.18.38-.244.015-.066-.335-.925-.524-1.002-.23-.095-.296.062-.502.042-.159-.014-.3-.076-.394.097-.147.265-.419.606-.202.897.22.291.534.582.928.506Zm4.926.689c-.059.065-.186.115-.268.028.261-.31.478-.426.797-.666.113-.124.021-.644.081-.816.061-.174.595-.54.83-.417.122.063.236.101.305.208.13.193.122.526.126.678.007.213-.108.365-.171.569-.06.197-.412.166-.572.183-.212.018-.415-.144-.616-.02-.112.067-.422.152-.512.253Zm-2.39.73c.068-.13-.003-.32.018-.457.017-.11.056-.28-.065-.348-.056.259-.098.554-.001.804.01.031.045.005.047.002h.002l-.001-.001Zm-4.853.702c.214-.332.562-.554.953-.608.007-.05-.098-.088-.14-.088a1.052 1.052 0 0 1-.6-.392c-.309-.374-.49-.677-1-.52-.54.165-.562 1.053-.41 1.485.18.518.882.58 1.196.123h.001Zm10.685-.667c.558-.211 1.007.064.733.527-.14.237-.094.511-.253.75a.609.609 0 0 1-.663.211c-.211-.073-.505-.204-.651-.358-.172-.177-.22-.32-.502-.391-.452-.12-.947-.004-1.39-.173.506-.256 1.082.023 1.61-.014.23-.017.39-.42 1.116-.552Zm-2.743.552c-.14-.075-.295-.079-.396-.014.095.023.306.052.396.014Zm-6.83 1.614c-.506-.602-1.577.545-1.655.621-.077.077-.28.226-.302.306-.062.24.49.558.664.657.225.133.421.47.73.235.307-.23.337-.45.417-.809.07-.315.2-.64.445-.864.244-.225.54-.394.742-.664-.489-.039-.686.36-1.041.518Zm7.553-2.615c-.096-.388-.782.02-.952-.017.194.05.478.037.735.076.076.014.234.024.217-.059ZM15.3 14.203c.194.107.26.374.46.493.169.099.416.228.583.356.09.069.189.392.038.464-.222.108-.302-.318-.412.039-.113.356-.546.524-.63.905-.057.266-.241.629-.072.883.05.082.136.117.224.128.207.027.235.013.41.124.219.14.399.2.633.092.232-.106.415-.267.467-.527-.028-.28-.128-.555-.12-.84.006-.284.136-.454-.013-.737a1.303 1.303 0 0 0-.422-.498c-.155-.118-.207-.333-.32-.49-.182-.259-.512-.557-.627-.682a.562.562 0 0 0-.442-.205c-.197 0-.48.214-.62.384-.183.218-.431.34-.621.521-.205.198-.16.5-.264.748-.089.21-.258.458-.279.689.14-.078.24-.298.324-.426.063-.096.126-.194.2-.281.076-.094.193-.099.279-.177.246-.236.273-.534.433-.802.14-.223.59-.264.791-.161Zm4.635 2.4c-.016-.151-.068-.304-.032-.456.044-.193-.019-.345-.11-.524-.107-.204-.43-.685-.717-.554-.1.045-.198.165-.32.097-.144-.085-.19-.213-.369-.276-.164-.056-.339-.081-.506-.126-.11-.027-.21-.057-.349-.07.109.233.492.377.68.535.413.34.216.73.19 1.165-.01.135-.05.32.041.45.09.13.432.155.512.203.045.028.464.172.644.072.18-.1.35-.4.336-.517v.001Zm-4.571 3.977c.125-.025.29.104.562.208.27.104.488.165.706.177.217.01.624.26.695.404.073.146.116.541-.01.77-.125.23-.343.532-.229 1.03.114.498.324.685-.042.653-.363-.031-.632-.155-.842-.215-.206-.063-.509-.099-.736-.376-.23-.282-.374-.23-.75-.46-.373-.224-.604-.705-.416-.912.187-.206.76-.718.831-.833.073-.113.179-.436.232-.447l-.001.001Zm7.417-2.942c0-.115.27-.294.288-.368a2.684 2.684 0 0 0-.023-.706c-.05-.19-.082-.393.056-.485.14-.09.527-.213.756-.115.23.098.416.191.633.271.21.083.77.372.867.574.098.206.23.429.081.646-.146.225-.144.38-.261.478-.105.093-.394.304-.55.502-.157.197-.27.616-.46.705-.186.09-.566.207-.674.074a.849.849 0 0 1-.138-.533c.026-.114.287-.327.222-.516-.066-.19-.256-.215-.46-.288-.205-.074-.337-.123-.337-.239Zm-17.46 1.673c-.1-.11-.2-.2-.15-.31.05-.109.176-.342.201-.526.02-.248.02-.497 0-.745-.015-.125.066-.317.101-.433.033-.12-.008-.338.21-.41.216-.078.441-.053.634-.02.194.035.579.136.686.344.11.21.175.453.302.534.126.084.51.253.52.312.007.056-.076.132-.212.368-.132.234-.125.837-.14.953-.018.117-.01.563-.16.661-.152.101-.393 0-.611-.108-.217-.111-.529-.23-.652-.343-.111-.101-.109-.233-.185-.267-.075-.035-.442.1-.544-.01Zm8.135-2.183c.087.093.115.382.112.468-.008.173-.022.41-.112.523-.084.112-.388.276-.477.31-.09.029-.364.123-.514-.01-.066-.057-.295-.217-.368-.358-.072-.144-.152-.681.122-.988.13-.146.368-.16.52-.287.138-.115.264-.244.412-.344.011.149-.108.332-.004.467.072.094.222.126.309.219Zm3.414-3.396c-.19-.024-.275-.089-.479-.084.12.177.423.149.614.22.089.033.15.096.214.132.207.12.592.259.644.324.052.063.43.227.632.147.088-.03.24-.066.201-.175-.163-.332-.627-.213-.875-.372-.083-.047-.082-.112-.201-.133-.118-.023-.259-.007-.348-.044-.087-.038-.268-.001-.402-.015Zm-2.242-2.98s.003.052-.028.194c-.028.14-.093.448.035.691 0 0 .07-.078.052-.299-.016-.22.02-.246.021-.318 0-.074-.08-.267-.08-.267"/><path fill="#B50029" d="M13.786 13.348c.084.104-.03.267-.098.36-.076.098-.2.155-.445.415-.199.209-.391.424-.576.646-.063.092-.222.33-.281.277-.058-.052.12-.388.164-.46.047-.075.305-.432.394-.484.091-.052.554-.44.538-.492-.014-.052-.171-.038-.246-.023-.073.014-.423.14-.523.165-.095.022-.215-.038-.073-.157.141-.119.179-.142.253-.157.075-.015.281-.021.326-.066.046-.044.053-.187.009-.216-.044-.03-.111-.009-.171-.009-.06 0-.768-.125-.886-.148-.121-.022-.797-.2-.917-.224-.12-.021-.133-.104.06-.104.195 0 .545.067.671.067.127 0 .276-.022.41-.015.133.008.513.075.623.038.113-.038.27-.106.293-.179.022-.075.038-.164-.03-.23-.066-.07-.367-.27-.45-.426-.077-.155-.161-.313-.243-.359-.081-.043-.223-.066-.28-.149-.061-.081-.092-.305.013-.261.104.046.388.197.433.255.044.06.118.208.208.311a2.3 2.3 0 0 0 .371.337c.09.051.27.185.322.296.281.017.342 0 .527.01.187.008.477.036.537.066.06.03.26.126.328.059.066-.066.253-.46.326-.558.075-.099.418-.52.486-.633.065-.11.467-.432.506-.408.036.022.119.074-.032.208-.147.133-.57.55-.632.654-.06.107-.299.492-.342.575-.045.082-.17.17-.134.222.037.052.284.12.335.172.052.052.21.334.098.41-.112.075-.247.006-.344-.098-.097-.103-.148-.215-.253-.281-.104-.07-.232-.106-.423-.172a2.04 2.04 0 0 0-.745-.053c-.121.03-.359.112-.364.246-.011.135.032.3.257.573Z"/><path fill="#B50029" d="M14.12 12.143c-.065 0-.288-.202-.365-.35a5.3 5.3 0 0 0-.281-.499c-.053-.067-.082-.215-.136-.26-.05-.045-.289-.329-.222-.365.067-.038.312.208.341.275.031.068.269.394.329.475.059.085.239.366.283.449.046.082.119.275.052.275h-.001Z"/></g><defs><radialGradient id="c" cx="0" cy="0" r="1" gradientTransform="translate(12.48 12.376) scale(.63413)" gradientUnits="userSpaceOnUse"><stop stop-color="#fff"/><stop offset=".068" stop-color="#fff"/><stop offset=".198" stop-color="#FAEDEF"/><stop offset=".38" stop-color="#F2D3D9"/><stop offset=".662" stop-color="#DC959B"/><stop offset=".889" stop-color="#CE6774"/><stop offset="1" stop-color="#C95666"/></radialGradient><radialGradient id="e" cx="0" cy="0" r="1" gradientTransform="matrix(.1477 7.00165 -6.55928 .13837 14.286 5.904)" gradientUnits="userSpaceOnUse"><stop offset=".085" stop-color="#CA5767"/><stop offset="1" stop-color="#FFEDF0"/></radialGradient><radialGradient id="g" cx="0" cy="0" r="1" gradientTransform="rotate(74.476 -4.845 14.951) scale(10.6752 7.24804)" gradientUnits="userSpaceOnUse"><stop stop-color="#FFEBEE"/><stop offset="1" stop-color="#CA5767"/></radialGradient><radialGradient id="i" cx="0" cy="0" r="1" gradientTransform="rotate(-162.897 5.86 5.936) scale(7.77227 6.40559)" gradientUnits="userSpaceOnUse"><stop stop-color="#FFEBEE"/><stop offset="1" stop-color="#CA5767"/></radialGradient><radialGradient id="k" cx="0" cy="0" r="1" gradientTransform="matrix(12.5714 -2.2857 1.41673 7.79206 17.142 11.046)" gradientUnits="userSpaceOnUse"><stop stop-color="#FFEBEE"/><stop offset="1" stop-color="#CA5767"/></radialGradient><clipPath id="a"><path fill="#fff" d="M0 0h148v24H0z"/></clipPath></defs></svg>
