<svg width="44" height="16" viewBox="0 0 44 16" fill="none" xmlns="http://www.w3.org/2000/svg"><path d="M28.613.341h-4.407c-.222 0-.315.128-.315.128L11.74 15.536c-.07.088-.056.179.067.179h1.8c.178 0 .197-.05.229-.096l2.586-3.314s.04-.062.093-.062l4.34-.002s.067-.003.054.064l-.634 3.25c-.009.042.005.16.154.16.565-.003 4.647-.003 5.245-.003.074 0 .1-.024.117-.099L28.746.5c.005 0 .056-.158-.133-.158zm-6.24 4.45l-1.135 5.837s-.005.024-.016.034c-.01.01-.04.01-.04.01l-3.413.004s-.021.002-.037-.016c-.013-.022.013-.051.013-.051l4.538-5.823s.035-.045.07-.045c.034 0 .02.05.02.05zM5.722 16c-2.893 0-4.717-1.098-5.33-1.605-.328-.27-.424-.421-.381-.603 0 0 .407-1.37.434-1.469.053-.192.168-.24.253-.152.515.526 2.048 2.045 4.272 2.043 2.394 0 2.242-1.987 2.242-2.275-.003-.749-1.045-4.644-1.306-5.684C5.09 3.005 7.078.005 11.752.008c2.511 0 3.703.677 4.183.925.312.163.24.4.24.4s-.238 1.23-.259 1.32c-.034.157-.136.112-.272.024-.72-.453-1.543-.952-2.863-.952-1.541 0-2.328 1.165-1.917 2.78.141.558 1.117 4.504 1.293 5.27.661 2.858-1.227 6.222-6.436 6.225zM43.656 1.328s-.238 1.229-.259 1.32c-.035.157-.136.112-.272.024-.72-.454-1.544-.952-2.86-.952-1.542 0-2.328 1.165-1.918 2.78.141.558 1.117 4.504 1.293 5.269.661 2.856-1.229 6.223-6.436 6.223-2.893 0-4.573-1.013-5.189-1.52-.327-.269-.423-.421-.38-.602 0 0 .276-1.453.292-1.555.024-.168.195-.21.31-.096.522.52 1.989 1.987 4.213 1.987 2.394 0 2.242-1.987 2.242-2.275-.003-.749-1.045-4.644-1.307-5.684-.813-3.25 1.176-6.25 5.847-6.247 2.512.003 3.704.677 4.184.925.312.165.24.403.24.403z" fill="#009"/></svg>