<svg xmlns="http://www.w3.org/2000/svg" width="24" height="24"><path fill="#003781" d="M13.733 18.733V5.49c0-1.056-.375-1.411-1.399-1.411h-3.1v1.488h.186c.707 0 .845.16.845 1.012v12.154zm1.53 0h3.441V8.419c0-1.036-.399-1.409-1.408-1.409h-2.033zm-6.518 0V7.02h-2.04c-1.01 0-1.404.372-1.404 1.408v10.305zM21.962 12c0 5.836-4.197 10.08-9.96 10.08-5.762 0-9.969-4.244-9.969-10.08s4.204-10.08 9.97-10.08c5.765 0 9.96 4.268 9.96 10.08m2.038 0C24 5.14 18.866 0 12.002 0S0 5.139 0 12.001 5.134 24 12.002 24C18.872 24 24 18.88 24 12.001"/></svg>
