<svg xmlns="http://www.w3.org/2000/svg" width="24" height="24" fill="none"><path fill="#0C3B7C" fill-rule="evenodd" d="M19.493 0A4.51 4.51 0 0 1 24 4.507v14.458a4.51 4.51 0 0 1-4.507 4.507H0V19.06L0 18.965V4.507A4.51 4.51 0 0 1 4.507 0z" clip-rule="evenodd"/><path fill="#fff" d="m10.908 15.622-1.933-.002v-2.363c0-.505.191-.768.614-.828h1.319c.94 0 1.549.606 1.549 1.587 0 1.008-.593 1.605-1.55 1.606M8.975 8.625c0-.544.225-.803.719-.836h.99c.848 0 1.356.518 1.356 1.388 0 .661-.348 1.434-1.325 1.434h-1.74zm4.401 2.98-.35-.2.306-.267c.355-.312.95-1.014.95-2.224 0-1.855-1.406-3.05-3.583-3.05H8.215l-.283-.002a1.227 1.227 0 0 0-1.168 1.225v10.522h3.984c2.42 0 3.98-1.346 3.98-3.432 0-1.123-.504-2.083-1.352-2.571"/><path fill="#00BAFC" d="M15.767 16.156c0-.804.634-1.454 1.415-1.454.783 0 1.42.65 1.42 1.454s-.637 1.454-1.42 1.454c-.781 0-1.415-.651-1.415-1.454"/></svg>