<svg xmlns="http://www.w3.org/2000/svg" width="24" height="8" fill="none"><path fill="#03BAD1" d="M16.495 2.338c.371-.31.738-.534 1.17-.608.758-.13 1.457-.026 2.011.577.115.125.17.085.274-.008.774-.697 2.116-.832 3.003-.296.729.44 1.014 1.151 1.033 1.968.028 1.21.004 2.423.011 3.634.001.178-.064.208-.217.206a49 49 0 0 0-1.616.001c-.166.003-.207-.052-.206-.215.007-1.033-.018-2.067.01-3.1.02-.715-.7-1.112-1.285-.9-.264.096-.414.307-.46.585-.027.157-.035.32-.035.48q-.008 1.461.002 2.922c.001.176-.045.233-.22.229q-.722-.018-1.442 0c-.18.004-.22-.06-.218-.232q.01-1.524.002-3.049c-.002-.545-.265-.87-.764-.967-.584-.115-1.003.225-1.007.834-.006 1.05-.008 2.1.003 3.15.003.215-.057.27-.261.265a33 33 0 0 0-1.541-.002c-.163.003-.231-.028-.23-.218q.009-2.783 0-5.565c0-.177.058-.208.214-.205.489.01.979.021 1.466-.003.261-.013.345.074.304.324-.007.046 0 .094 0 .193M9.22 2.285c.433-.537.996-.658 1.614-.595.318.032.324.044.324.387 0 .427-.011.855.004 1.282.008.21-.061.262-.242.252a3 3 0 0 0-.546.026c-.762.091-1.18.587-1.187 1.418q-.01 1.257.003 2.513c.002.187-.038.25-.221.246a35 35 0 0 0-1.523-.002c-.144.002-.19-.04-.19-.2q.007-2.82 0-5.641c0-.163.053-.202.193-.2.484.008.968.016 1.451-.002.224-.01.327.047.289.304-.01.06-.027.132.031.212M13.949 4.723c0 .937-.007 1.874.004 2.81.003.208-.042.288-.279.28a39 39 0 0 0-1.715-.002c-.168.002-.239-.03-.238-.211q.01-2.85 0-5.7c0-.164.041-.228.227-.225q.899.015 1.797 0c.18-.004.207.061.206.21-.006.947-.003 1.892-.003 2.838M12.846.003c.298 0 .595.005.892-.003.13-.003.198.023.21.131.04.358-.122.642-.505.843-.367.192-.874.19-1.228-.007q-.561-.313-.485-.85c.012-.087.063-.119.179-.117.312.007.625.003.937.003M6.256 3.258c-.456-.75-1.135-1.22-2.015-1.39-.875-.17-1.674.044-2.416.557 0-.77-.005-1.491.004-2.213.002-.169-.051-.216-.221-.212Q.909.015.21 0C.052-.002-.005.04.001.2c.012.317.004.635.004.952 0 2.095.003 4.19-.005 6.285 0 .202.06.255.26.246.36-.015.72-.004 1.08-.004q.466 0 .498-.465c1.572 1.055 3.108.567 3.975-.287a2.96 2.96 0 0 0 .443-3.668M3.603 5.956c-.657-.003-1.189-.52-1.185-1.151.003-.634.534-1.144 1.192-1.144.651 0 1.191.523 1.188 1.15-.004.63-.543 1.148-1.195 1.145"/></svg>