<svg height="77" viewBox="0 0 86 77" width="86" xmlns="http://www.w3.org/2000/svg"><g fill="none" fill-rule="evenodd" transform="translate(-9 -9)"><path d="m9.36619718 9.36619718v75.86954222h75.86954222v-28.4779225l9.4571831-9.4565141-9.4571831-9.4578521v-28.47725352z" fill="#0800b9"/><path d="m36.9757394 33.4907782v2.2017253h-8.5653873v-12.0750352h2.3857042v9.8733099zm-19.5811056 38.1367464v-11.0795422h8.3319014v2.0532042h-6.1101056v2.5991197h5.4190141v2.0525352h-5.4190141v4.3746831zm2.3859718-40.721014v4.7854577h-2.3857042v-12.0750352h9.0691549v2.2017254h-6.6834507v2.8861267h5.9274648v2.2017254zm11.3312254 20.8203873c0 2.9677465-2.375 4.8115493-6.1984155 4.8115493h-7.5190493v-17.1073592h7.217993c1.8939788 0 3.4367253.5358803 4.4603169 1.5507747.7559859.7941197 1.1359859 1.7541549 1.1359859 2.8600352v.046831c0 1.9695774-1.0282747 3.1069014-2.0966902 3.7571831 1.991655.7988028 2.9998592 2.1528873 2.9998592 4.0341549zm25.2097887-24.0889894v8.0542605h-2.3522535v-12.0750352h2.1528873l6.0585916 7.8187676v-7.8187676h2.3522535v12.0750352h-1.9682394zm-16.2389789 8.0542605v-4.7473239l-4.8048591-7.3277113h2.8198944l3.2039084 5.0671127 3.2360211-5.0671127h2.753662l-4.8061972 7.2782042v4.796831zm8.6813944.0004014v-12.0750352h2.3863733v12.0750352zm-14.647662 3.7386514h2.4606338v14.7577817h9.1253522v2.3489085h-11.585986zm14.9748768 24.6761162c0 1.661831-.8710563 2.8433099-2.4606338 3.3758451l2.9557042 4.1445423h-2.6365845l-2.6405986-3.7458099h-2.1107394v3.7458099h-2.2217958v-11.0795423h4.9567254c1.3540845 0 2.4666549.3880282 3.2172887 1.1219366.616162.6328873.9406338 1.4751761.9406338 2.4372183zm12.7771655-14.9224929c0 4.7660563-2.6466197 7.6120422-7.078838 7.6120422-4.3519367 0-7.0554226-2.8627112-7.0554226-7.4708803v-9.8947183h2.4606338v9.7769719c0 3.3296831 1.6919367 5.2390493 4.6409507 5.2390493 2.9483451 0 4.5713733-1.8190493 4.5713733-5.1213029v-9.8947183h2.4613028zm.0123768 16.3032711 3.1784859-4.94h2.2692957v11.0795423h-2.2217957v-7.3243662l-3.1370071 4.6837676h-.240176l-3.1055634-4.652324v7.2929226h-2.1916902v-11.0795423h2.2692958zm9.997345 1.564757v2.5522888h6.1555986v2.0224295h-8.3773944v-11.0795422h8.3011268v2.0224296h-6.079331v2.4606338h5.3882395v2.0217605zm.8310493-38.2471338h5.3246831v5.1708099l-.0561972.048169c-.996831.852993-2.6747183 1.8692254-5.0069014 1.8692254-3.6835915 0-6.2559507-2.5522888-6.2559507-6.2057747v-.0334507c0-3.4982746 2.7329226-6.2392253 6.221831-6.2392253 1.9127113 0 3.2514085.4729929 4.6208803 1.6337324l.1217606.1030281-1.516655 1.8076761-.1224296-.1050352c-.8851056-.7539789-1.7273943-1.2209507-3.1871831-1.2209507-2.0137323 0-3.6514788 1.7882746-3.6514788 3.9873239v.0334507c0 2.3776761 1.5775352 4.0375 3.8361267 4.0375.9801057 0 1.9508451-.2943662 2.6773944-.8108451v-1.9582042h-3.0058803zm-40.1156901 31.5579965c3.2895422 0 5.7702465 2.4479226 5.7702465 5.6933099 0 3.2407042-2.5476057 5.7548591-5.8003522 5.7548591-3.2895422 0-5.7702464-2.4472535-5.7702464-5.6933098v-.0307747c0-3.2099296 2.5482746-5.7240845 5.8003521-5.7240845zm35.4345317-11.287338v5.1360211h10.0057746v2.325493h-12.4664084v-17.1066902h12.350669v2.325493h-9.8900352v4.9941901h8.8483803v2.325493zm-48.1957747-.0228803v5.1821831h5.127324c2.2967253 0 3.6682042-.9821127 3.6682042-2.6265493v-.046831c0-2.0739436-2.1709507-2.5088028-3.9926761-2.5088028zm0-7.3203521v5.0410211h4.4790493c2.136831 0 3.4133099-.9814436 3.4133099-2.6265493v-.046831c0-1.5046126-1.1935212-2.3676408-3.274824-2.3676408zm24.962588 24.1423768c1.2610916 0 2.0438381-.6248592 2.0438381-1.6303874 0-1.0710915-.7312324-1.6444366-2.0585564-1.6444366h-2.5817253v3.274824zm-8.7445492.2430528v-.0307747c0-2.0839789-1.4992606-3.6561619-3.4869015-3.6561619-1.9702464 0-3.4561267 1.5588028-3.4561267 3.6253873 0 2.1147535 1.4985915 3.6869366 3.4862324 3.6869366 1.9709155 0 3.4567958-1.5588028 3.4567958-3.6253873z" fill="#fff"/></g></svg>