<svg height="111" viewBox="0 0 191 111" width="191" xmlns="http://www.w3.org/2000/svg"><g fill-rule="evenodd"><path d="m.606.606v110.21h110.21v-41.368l13.738-13.737-13.738-13.738v-41.367z" fill="#b0965b"/><g fill-rule="nonzero"><path d="m40.45 37.436v3.163h-12.305v-17.349h3.426v14.187h8.879zm-24.704-3.713v6.876h-3.426v-17.349h13.03v3.164h-9.604v4.146h8.515v3.164h-8.515zm16.278 29.913c0 4.272-3.41 6.91-8.903 6.91h-10.8v-24.58h10.383c2.722 0 4.935.773 6.408 2.229a5.768 5.768 0 0 1 1.618 4.11v.069a5.99 5.99 0 0 1 -3.014 5.396c2.86 1.149 4.308 3.094 4.308 5.796zm36.22-34.61v11.574h-3.382v-17.35h3.095l8.705 11.234v-11.234h3.378v17.35h-2.828zm-23.332 11.574v-6.82l-6.902-10.53h4.053l4.6 7.282 4.651-7.281h3.956l-6.905 10.456v6.893h-3.454zm12.475-17.35h3.426v17.35h-3.426zm-21.047 22.722h3.536v21.2h13.11v3.374h-16.646v-24.575zm39.873 14.013c0 6.848-3.802 10.933-10.17 10.933-6.253 0-10.137-4.11-10.137-10.731v-14.217h3.536v14.045c0 4.785 2.431 7.528 6.666 7.528 4.236 0 6.57-2.613 6.57-7.358v-14.215h3.535v14.013zm15.574-29.291h7.641v7.443l-.08.069a10.97 10.97 0 0 1 -7.193 2.65c-5.291 0-8.988-3.642-8.988-8.9v-.049a8.855 8.855 0 0 1 8.964-8.948c2.746 0 4.672.68 6.638 2.347l.174.15-2.173 2.604-.178-.15a6.359 6.359 0 0 0 -4.579-1.755c-2.904 0-5.258 2.569-5.258 5.728v.049c0 3.414 2.273 5.8 5.51 5.8a6.751 6.751 0 0 0 3.846-1.165v-2.831h-4.324zm-6.723 29.133v7.378h14.372v3.341h-17.908v-24.575h17.742v3.341h-14.206v7.172h12.71v3.342h-12.71zm-72.796 17.073h2.868l3.18 5.113 3.179-5.113h2.864v12.087h-2.646v-7.892l-3.402 5.162h-.069l-3.37-5.113v7.839h-2.604zm17.398 0h9.117v2.367h-6.472v2.451h5.696v2.37h-5.7v2.54h6.565v2.367h-9.206zm13.98 0h2.868l3.18 5.113 3.179-5.113h2.864v12.087h-2.642v-7.892l-3.402 5.162h-.069l-3.37-5.113v7.839h-2.608zm17.398 0h5.614c1.38 0 2.472.38 3.16 1.072.55.54.85 1.285.829 2.055v.016a2.832 2.832 0 0 1 -1.59 2.61c1.4.533 2.261 1.346 2.261 2.969v.036c0 2.209-1.796 3.317-4.522 3.317h-5.752zm14.878 0h9.118v2.367h-6.473v2.451h5.7v2.37h-5.7v2.54h6.561v2.367h-9.206zm13.984 0h5.525c1.538 0 2.73.433 3.524 1.214a3.794 3.794 0 0 1 1.035 2.763v.036a3.754 3.754 0 0 1 -2.589 3.746l2.953 4.316h-3.11l-2.59-3.867h-2.087v3.867h-2.661zm5.352 5.874c1.294 0 2.022-.692 2.022-1.711v-.037c0-1.14-.809-1.727-2.087-1.727h-2.643v3.47l2.707.005zm-79.439-33.498v7.245h6.436c3.07 0 4.903-1.412 4.903-3.774v-.069c0-2.164-1.715-3.402-4.705-3.402h-6.633zm0 10.517v7.44h7.379c3.288 0 5.258-1.412 5.258-3.775v-.06c0-2.978-3.119-3.605-5.736-3.605h-6.9zm50.27 21.994c1.172 0 1.916-.38 1.916-1.279v-.036c0-.809-.618-1.246-1.743-1.246h-2.625v2.557l2.451.004zm.707 4.854c1.173 0 1.88-.405 1.88-1.315v-.024c0-.809-.602-1.31-1.969-1.31h-3.074v2.657z" fill="#fff"/><path d="m143.998 65.08a.82.82 0 0 1 -.472-.739.82.82 0 0 1 .796-.771c.137 0 .271.04.386.115a7.437 7.437 0 0 0 4.166 1.272c2.594 0 4.277-1.432 4.277-4.187v-1.387c-1.026 1.367-2.463 2.463-4.622 2.463a5.443 5.443 0 0 1 -5.529-5.508v-.046a5.57 5.57 0 0 1 10.13-3.185v-1.342a.87.87 0 0 1 .866-.886.89.89 0 0 1 .887.886v8.964c0 1.823-.546 3.21-1.502 4.166-1.047 1.047-2.619 1.572-4.482 1.572a9.219 9.219 0 0 1 -4.901-1.387zm9.218-8.738v-.045c0-2.414-2.093-3.982-4.326-3.982s-4.071 1.544-4.071 3.953v.045a3.981 3.981 0 0 0 4.075 4.006c2.213.004 4.306-1.613 4.306-3.981zm4.852.611v-.045a6.134 6.134 0 0 1 12.268-.045v.045a6.112 6.112 0 0 1 -6.156 6.157 6.03 6.03 0 0 1 -6.112-6.112zm10.47 0v-.045c0-2.528-1.888-4.597-4.37-4.597-2.55 0-4.302 2.052-4.302 4.552v.045c0 2.524 1.867 4.573 4.346 4.573 2.553-.013 4.326-2.065 4.326-4.528zm5.119-10.015a.878.878 0 1 1 1.752 0v15.068a.854.854 0 0 1 -.866.886.874.874 0 0 1 -.886-.886zm17.025 15.068a.878.878 0 1 1 -1.752 0v-1.593c-.957 1.412-2.344 2.619-4.515 2.619-2.824 0-5.624-2.229-5.624-6.1v-.044c0-3.846 2.8-6.124 5.624-6.124 2.183 0 3.595 1.182 4.515 2.503v-6.329a.858.858 0 0 1 .866-.886.874.874 0 0 1 .886.886zm-10.085-5.143v.045c0 2.775 1.934 4.552 4.142 4.552s4.256-1.843 4.256-4.552v-.045a4.371 4.371 0 0 0 -4.256-4.515c-2.274-.016-4.137 1.67-4.137 4.515z" fill="#af955b"/></g></g></svg>