<svg width="106" height="22" viewBox="0 0 106 22" fill="none" xmlns="http://www.w3.org/2000/svg"><path d="M94.155 19.139v2.752h1.048v-.995l.995.995h1.39l-1.536-1.529 1.22-1.223h-1.046l-1.031 1.011V19.14h-1.04Z" fill="#fff"/><path d="M97.573 19.139v2.752h2.772v-.689h-1.707v-2.063h-1.065ZM100.65 19.14v2.751h1.051v-1.986l.7 1.986h.988l.706-2.004v2.004h1.048V19.14h-1.721l-.532 1.522-.515-1.522h-1.725ZM101.703 18.516v-.708h-4.144v.708h4.144ZM99.454 16.179l-.345-.001v-.34h.345v-.345h.34v.346h.346v.339h-.346v.346h-.34v-.345ZM97.573 17.647a.597.597 0 1 0 0-1.194.597.597 0 0 0 0 1.194ZM98.954 17.647a.598.598 0 0 0 0-1.195.597.597 0 0 0 0 1.195ZM100.336 17.647a.596.596 0 1 0 0-1.193.596.596 0 0 0 0 1.193ZM101.717 17.647a.596.596 0 1 0-.002-1.192.596.596 0 0 0 .002 1.192ZM89.499 18.884l-1.596 2.308c-.21.304-.552.597-.963.628v.071h1.775c.471 0 .815-.306 1.048-.644l1.639-2.363h-1.903ZM60.106 21.891v-2.753h.804v2.753h-.804Zm18.532 0-1.931-1.635v1.635h-.68v-2.753h.577l1.906 1.61v-1.61h.679v2.753h-.551Zm4.199-1.865a2.849 2.849 0 0 0-1.314-.323c-.648 0-1.13.335-1.13.8s.491.815 1.124.815a2.57 2.57 0 0 0 1.346-.369v.682c-.361.179-.84.312-1.38.312-1.102 0-1.968-.562-1.968-1.44 0-.877.883-1.416 1.965-1.416.51 0 .974.096 1.357.253v.686Zm-17.456 1.865v-2.753h2.686v.59h-1.882v.684h1.84v.59h-1.84v.889h-.803Zm17.942 0v-2.753h2.788v.59h-1.985v.477h1.953v.59h-1.953v.505h1.976v.59l-2.78.001Zm-12.465-1.033 1.11 1.033h-.857a.555.555 0 0 1-.415-.155l-.755-.733c-.015-.015-.037-.022-.065-.022h-.514v.91h-.804v-2.753H70.3c.902 0 1.283.406 1.283.855 0 .522-.465.772-.724.865Zm-.642-.454c.318 0 .472-.162.472-.343 0-.182-.137-.333-.472-.333h-.854v.676h.854Zm-6.254.454 1.11 1.033h-.858a.553.553 0 0 1-.414-.155l-.755-.733c-.015-.015-.038-.022-.066-.022h-.513v.91h-.804v-2.753h1.74c.903 0 1.284.406 1.284.855 0 .522-.466.772-.724.865Zm-.642-.454c.318 0 .471-.162.471-.343 0-.182-.136-.333-.471-.333h-.855v.676h.855Zm-4.472 1.487-.352-.604h-1.54l-.32.604h-.767l1.533-2.75h.699l1.737 2.75h-.99Zm-1.584-1.178h.896l-.465-.84-.431.84Zm17.629 1.178-.344-.604H73.05l-.31.604h-.746l1.493-2.75h.678l1.69 2.75h-.962Zm-1.542-1.178h.874l-.454-.84-.42.84ZM23.189 4.607v5.046a3.321 3.321 0 0 1-3.318 3.318 3.322 3.322 0 0 1-3.318-3.318V4.607h-1.994v5.046a5.318 5.318 0 0 0 5.311 5.312c.583 0 1.141-.098 1.665-.273a3.119 3.119 0 0 0 1.653-1.356v.784c0 1.799-1.692 3.318-3.695 3.318-1.136 0-2.12-.459-3.187-1.488l-.067-.064-1.177 1.578.082.09c1.065 1.168 2.64 1.634 2.656 1.64a6.099 6.099 0 0 0 1.693.238c3.137 0 5.689-2.383 5.689-5.312V4.606h-1.994v.001ZM28.524.578c-.745 0-1.351.607-1.351 1.351 0 .745.606 1.351 1.35 1.351.746 0 1.352-.606 1.352-1.35 0-.745-.606-1.352-1.351-1.352ZM48.981 4.342a5.318 5.318 0 0 0-5.312 5.312 5.317 5.317 0 0 0 5.312 5.311c.582 0 1.14-.098 1.665-.273a3.118 3.118 0 0 0 1.652-1.356v.785c0 1.798-1.691 3.317-3.695 3.317-1.136 0-2.119-.458-3.186-1.487l-.067-.065-1.177 1.578.082.091c1.064 1.167 2.64 1.634 2.655 1.639a6.103 6.103 0 0 0 1.693.238c3.137 0 5.69-2.383 5.69-5.312V9.653A5.318 5.318 0 0 0 48.98 4.34h.001Zm0 8.63a3.322 3.322 0 0 1-3.318-3.318 3.322 3.322 0 0 1 3.318-3.318 3.322 3.322 0 0 1 3.318 3.318 3.321 3.321 0 0 1-3.318 3.317ZM61.275 14.965a5.318 5.318 0 0 0 5.312-5.312 5.317 5.317 0 0 0-5.312-5.312c-.582 0-1.141.099-1.665.273a3.119 3.119 0 0 0-1.653 1.356V.32h-1.994v9.333a5.318 5.318 0 0 0 5.312 5.312Zm0-8.63a3.322 3.322 0 0 1 3.318 3.318 3.322 3.322 0 0 1-3.319 3.318 3.322 3.322 0 0 1-3.317-3.318 3.321 3.321 0 0 1 3.318-3.318ZM82.8 4.604h-2.007v5.043a3.316 3.316 0 0 1-3.312 3.311 3.315 3.315 0 0 1-3.31-3.311V4.604h-2.008l.001 5.158.002.027a5.286 5.286 0 0 0 1.606 3.663 5.285 5.285 0 0 0 3.71 1.513 5.324 5.324 0 0 0 5.317-5.318V4.604ZM92.012 11.802a3.336 3.336 0 0 1-2.564 1.2 3.351 3.351 0 0 1-3.227-2.454h8.461c.05-.291.081-.59.081-.895a5.312 5.312 0 1 0-5.312 5.312 5.31 5.31 0 0 0 4.856-3.163h-2.295Zm-2.564-5.505a3.354 3.354 0 0 1 3.207 2.376h-6.414a3.353 3.353 0 0 1 3.207-2.376ZM2.002 14.772V9.688H7.7V7.686H2.002V5.373A3.318 3.318 0 0 1 5.316 2.06c1.285 0 2.08.592 2.88 1.482l.07.077L9.45 2.031l-.078-.093C8.379.768 6.91.3 6.896.296A5.323 5.323 0 0 0 0 5.368v9.405h2.002ZM12.451.32h-2.007v14.452h2.007V.321ZM29.527 4.608H27.52v10.164h2.007V4.608ZM33.697 14.772V9.66a3.315 3.315 0 0 1 3.311-3.311 3.315 3.315 0 0 1 3.311 3.31v5.113h2.007V9.66a5.324 5.324 0 0 0-5.319-5.319A5.324 5.324 0 0 0 31.69 9.66v5.112h2.008ZM70.118.32h-2.006v14.452h2.006V.321Z" fill="#fff"/></svg>
