<svg width="113" height="15" fill="none" xmlns="http://www.w3.org/2000/svg"><g clip-path="url(#a)"><path d="M110 0H3a3 3 0 0 0-3 3v9a3 3 0 0 0 3 3h107a3 3 0 0 0 3-3V3a3 3 0 0 0-3-3Z" fill="#051039"/><path d="M10.42 9.13c-.07 0-.15.03-.23.1-.05.04-.12.14-.18.24-.08.12-.17.25-.23.29-.02.01-.06.03-.1.04-.06.02-.15.05-.16.09-.01.03.01.05.04.08 0 0 .1.08.14.14.04.05.06.13.08.22.07.25.14.44.41.44.27-.23.43-.58.43-.96 0-.22-.06-.44-.19-.67h-.03M8.88 8.64s-.03 0-.05.02c-.36.19-.3.69-.25.8.13.3.35.36.43.37-.01-.13.04-.25.09-.34l.06-.11c.04-.1 0-.17-.08-.25-.1-.1-.15-.21-.17-.34v-.07c0-.03 0-.07-.01-.08M9.13 8.55c-.03.23.04.33.12.44l.03.05c.07.09.13.17.1.39 0 .05 0 .09.03.12.02.02.05.04.09.04.14 0 .23-.13.29-.22l.02-.02c.07-.11.15-.21.23-.28.07-.06.15-.1.2-.12.02 0 .04-.02.04-.02 0-.02-.01-.04-.04-.07-.22-.22-.51-.34-.81-.34-.09 0-.19.02-.3.06M8.97 11.03c.15.05.27.07.43.07.2 0 .39-.06.55-.17-.27-.09-.32-.33-.37-.5v-.06c-.03-.06-.05-.13-.11-.18-.06-.05-.21-.08-.3-.08h-.04c.03.18-.06.37-.13.49a.45.45 0 0 0-.02.42" fill="#fff"/><path d="M6.88 9.26c.17 0 .3.03.41.09.31.18.55.57.76.91.21.34.4.64.59.64.03 0 .04-.07.05-.14.01-.12.03-.28.17-.33.02-.04.04-.13.04-.18 0-.15-.11-.25-.25-.37-.23-.2-.54-.48-.55-1.15 0-.29.09-.46.14-.57.02-.04.04-.07.04-.09 0-.02 0-.07-.17-.07-.26 0-.58.21-.68.67v.02h-.08c-.27 0-.46.07-.57.2-.11.14-.11.31-.1.37.04 0 .12-.02.21-.02M10.9 9.55c.05.27-.2.93-.02 1.3.05.1.11.14.17.19.09.07.2.14.26.35.02.07.03.16.04.26.02.2.04.41.18.52.04.03.11.06.16.07.59-.15.8-.43.92-.56l-1.55-2.29-.16.16Z" fill="#fff"/><path d="M10.18 12.22c.17.07.36.1.6.1.2 0 .39-.01.56-.04-.14-.17-.17-.42-.19-.62v-.1c0-.05 0-.09-.01-.12-.04-.13-.1-.17-.17-.22l-.02-.02-.03-.02c-.07-.05-.16-.11-.22-.24a.55.55 0 0 1-.05-.26l-.1.1c-.15.16-.31.32-.52.43-.02.04-.02.07-.02.1 0 .08.04.14.09.21.09.14.2.32.09.7M8.82 11.3c.1.16.45.59 1.11.83.13-.23.08-.31 0-.45l-.03-.05c-.05-.08-.09-.16-.12-.26 0-.02 0-.04-.01-.06-.14.04-.27.06-.41.06-.16 0-.31-.03-.46-.08h-.07l-.01.01ZM14.16 11.56c-.02-.12-.04-.36-.01-.51.19 0 .3-.02.33-.05.03-.03.03-.08.03-.13 0-.03 0-.08.02-.1.01 0 .07-.01.11-.02.1-.01.21-.03.21-.1 0 0 .01-.98-.04-1.44V9.1l-.07.09c-.18.28-.47.8-.74 1.3l-.25.44c-.38.14-.67.31-.96.56-.08-.12-1.04-1.53-1.53-2.26-.02-.03 0-.08.04-.11.17.24.64.58.9.69l.05.02V6.79c.53-.57 1.23-.88 2.06-.95h.02l.1-.24.38.4-.22 2.16-.37.02c-.04-.14-.15-.26-.25-.38-.08-.1-.17-.2-.22-.3v-.02h-.04c-.07 0-.12.07-.12.17 0 .48.37 1.1.45 1.22l-.78 1.24.07.18.04-.05c.42-.51 1.17-1.55 1.31-1.73l.47.23-.1 2.03-.9.81.01-.02Zm.21-5.08a.2.2 0 0 0-.2.2c0 .11.09.2.2.2a.2.2 0 0 0 .2-.2.2.2 0 0 0-.2-.2ZM6.3 6.32h.62c.44-1.59 1.76-2.8 3.37-3.09v-.61a4.937 4.937 0 0 0-3.99 3.7Z" fill="#fff"/><path d="M7.15 6.73c.3-1.59 1.55-2.85 3.14-3.17v.61c-1.26.3-2.25 1.3-2.53 2.56h-.61Z" fill="#fff"/><path d="M8.02 7.13h.54c.13-.97.8-1.78 1.73-2.08v-.56a3.065 3.065 0 0 0-2.27 2.63M11.99 9.38H12V2.61c-.3-.06-.61-.09-.93-.09-.17 0-.35 0-.52.03V6.5a3.6 3.6 0 0 0 1.43 2.88M13.09 5.87l-.22-.67c-.13.07-.25.14-.35.21l.26.61c.1-.06.21-.11.3-.16M13.67 5.68l-.02-.73c-.2.03-.39.09-.56.16l.17.7c.15-.06.29-.1.41-.13ZM15.04 5.89l.3-.1a1.55 1.55 0 0 0-.26-.37l-.25.26.21.22v-.01ZM14.68 5.52l.2-.29c-.12-.09-.25-.17-.4-.22l-.06.24.26.27ZM15.01 6.5l.5-.08c0-.12-.02-.26-.07-.39l-.41.07-.02.4ZM12.34 5.55c-.09.08-.15.13-.15.13v.78c.14-.12.28-.23.42-.32l-.27-.59ZM14.17 5.61l.06-.67c-.09-.02-.19-.03-.29-.03h-.07v.72c.18-.03.3-.03.3-.03" fill="#fff"/><path d="M8.82 7.49c.01-.12.02-.22.04-.37.12-.79.68-1.47 1.42-1.74v.63c-.58.27-.97.85-1 1.49h-.47l.01-.01Z" fill="#fff"/><path d="M9.58 7.82c0-.07-.01-.18-.01-.24 0-.51.27-.98.72-1.24v.64c-.19.19-.3.45-.3.73v.12h-.41v-.01ZM10.35 8.18h.35c-.14-.25-.23-.52-.27-.8-.1.13-.16.29-.16.46 0 .12.03.23.08.34Z" fill="#fff"/><path d="M5.47 7.42c.04-3.1 2.6-5.58 5.7-5.54 3.1.04 5.58 2.6 5.54 5.7-.04 3.1-2.6 5.58-5.7 5.54-3.1-.04-5.58-2.6-5.54-5.7Zm-.38 0C5.04 10.73 7.7 13.46 11 13.5c3.31.05 6.04-2.61 6.08-5.91.05-3.31-2.61-6.04-5.91-6.08-3.31-.05-6.04 2.61-6.08 5.91ZM27.8 6.52h-3.08V3.53h-2.18v7.94h2.18v-3h3.08v3h2.17V3.53H27.8v2.99ZM34.58 3.53h-2.25v7.93h2.25V3.53ZM40.18 3.53h-3.19v7.93h2.17V9.32h1.02c1.81 0 3.33-1.15 3.33-2.91 0-1.86-1.51-2.88-3.33-2.88Zm-.07 3.95h-.95V5.36h.95c.69 0 1.24.32 1.24 1.02 0 .66-.56 1.1-1.24 1.1ZM48.41 3.53h-3.19v7.93h2.17V9.32h1.02c1.81 0 3.33-1.15 3.33-2.91 0-1.86-1.51-2.88-3.33-2.88Zm-.07 3.95h-.95V5.36h.95c.69 0 1.24.32 1.24 1.02 0 .66-.56 1.1-1.24 1.1ZM57.32 3.36c-2.34 0-4.27 1.81-4.27 4.11 0 2.3 1.93 4.16 4.27 4.16s4.3-1.84 4.3-4.16c0-2.32-1.96-4.11-4.3-4.11Zm0 6.24c-1.15 0-2.08-.86-2.08-2.13 0-1.19.91-2.09 2.08-2.09s2.05.89 2.05 2.09c0 1.28-.85 2.13-2.05 2.13ZM67.33 9.56c-1.11 0-2.2-.83-2.2-2.12 0-1.16 1.06-2.02 2.18-2.02.83 0 1.49.44 1.88 1l1.55-1.44c-.82-.93-2.02-1.63-3.45-1.63-2.42 0-4.36 1.76-4.36 4.09 0 2.45 1.94 4.19 4.48 4.19 1.68 0 2.84-.86 3.5-1.77l-1.59-1.35c-.45.59-1.04 1.04-2 1.04l.01.01ZM75.35 3.53l-3.9 7.93h2.3l.74-1.6 3.95.03.7 1.57h2.53l-3.99-7.93h-2.33Zm-.07 4.63 1.22-2.62 1.16 2.62h-2.38ZM87.47 6.48l-2.21-2.95h-2.28v7.94h2.15V6.85l2.22 2.9h.08l2.26-2.9v4.62h2.17V3.53h-2.12l-2.27 2.95ZM97.34 3.53h-3.19v7.93h2.17V9.32h1.02c1.81 0 3.33-1.15 3.33-2.91 0-1.86-1.51-2.88-3.33-2.88Zm-.07 3.95h-.95V5.36h.95c.69 0 1.24.32 1.24 1.02 0 .66-.56 1.1-1.24 1.1ZM107.91 5.41V3.53h-5.61v7.94h5.6V9.59h-3.43V8.37h3.24V6.6h-3.24V5.41h3.44Z" fill="#fff"/></g><defs><clipPath id="a"><path fill="#fff" d="M0 0h113v15H0z"/></clipPath></defs></svg>