<svg xmlns="http://www.w3.org/2000/svg" width="59" height="15" viewBox="0 0 59 15" fill="none"><g clip-path="url(#a)"><path fill="#C17C51" d="M2.767 0H55.6c1.533 0 2.767 1.233 2.767 2.733v9.5c0 1.534-1.234 2.734-2.767 2.734H2.767A2.704 2.704 0 0 1 0 12.267V2.733C0 1.233 1.233 0 2.767 0Z"/><path fill="#fff" d="M8.1 9.367c.767 0 1.267-.5 1.267-1.367V4.2h1.7V8c0 1.733-1.167 2.833-3 2.833-1.834 0-3.034-1.1-3.034-2.833V4.2h1.7V8c.034.833.6 1.367 1.367 1.367ZM13.967 4.2v5.1h2.766v1.467h-4.466V4.2h1.7ZM22.533 4.2v1.4h-1.966v5.133h-1.7V5.6h-1.934V4.2h5.6ZM24.933 4.2v6.533h-1.7V4.2h1.7ZM28.067 4.2 29.8 8l1.733-3.8H33.4v6.533h-1.5V6.6l-1.533 3.5h-1.134L27.7 6.6v4.133h-1.533V4.2h1.9ZM39.033 9.6H36.2l-.467 1.167H34l2.8-6.534h1.767l2.733 6.534h-1.833L39.033 9.6Zm-.5-1.333-.9-2.334-.9 2.334h1.8ZM46.933 4.2v1.4h-1.966v5.133h-1.7V5.6h-1.934V4.2h5.6ZM52.8 4.2v1.367h-3.467V6.8h3.134v1.367h-3.134V9.4h3.534v1.367H47.6V4.2h5.2Z"/></g><defs><clipPath id="a"><path fill="#fff" d="M0 0h58.333v15H0z"/></clipPath></defs></svg>
