<svg width="93" height="20" viewBox="0 0 93 20" fill="none" xmlns="http://www.w3.org/2000/svg">
<path d="M52.19 0H3C1.34315 0 0 1.34315 0 3V17C0 18.6569 1.34315 20 3 20H52.19C53.8469 20 55.19 18.6569 55.19 17V3C55.19 1.34315 53.8469 0 52.19 0Z" fill="#656868"/>
<path d="M9.42 14.34C8.75 14.34 8.1 14.25 7.49 14.08C6.87 13.9 6.38 13.66 6 13.37L6.66 11.91C7.02 12.17 7.44 12.38 7.93 12.55C8.43 12.71 8.93 12.79 9.43 12.79C9.81 12.79 10.12 12.75 10.35 12.68C10.59 12.6 10.77 12.49 10.88 12.36C10.99 12.22 11.05 12.07 11.05 11.89C11.05 11.67 10.96 11.49 10.79 11.36C10.61 11.22 10.38 11.12 10.09 11.04C9.8 10.95 9.48 10.87 9.13 10.8C8.79 10.72 8.44 10.62 8.09 10.51C7.75 10.4 7.43 10.25 7.14 10.08C6.85 9.9 6.62 9.67 6.43 9.38C6.25 9.09 6.17 8.72 6.17 8.28C6.17 7.8 6.3 7.36 6.55 6.97C6.81 6.57 7.21 6.25 7.73 6.02C8.26 5.78 8.92 5.66 9.71 5.66C10.24 5.66 10.76 5.72 11.27 5.85C11.78 5.97 12.23 6.15 12.63 6.4L12.03 7.88C11.64 7.66 11.25 7.49 10.85 7.39C10.46 7.28 10.07 7.22 9.7 7.22C9.33 7.22 9.02 7.26 8.78 7.35C8.54 7.44 8.37 7.55 8.26 7.7C8.16 7.84 8.1 8 8.1 8.18C8.1 8.4 8.19 8.57 8.36 8.71C8.54 8.84 8.77 8.94 9.06 9.02C9.35 9.1 9.66 9.18 10.01 9.26C10.36 9.34 10.71 9.43 11.05 9.54C11.4 9.64 11.72 9.78 12.01 9.96C12.3 10.14 12.53 10.37 12.71 10.66C12.89 10.95 12.99 11.31 12.99 11.75C12.99 12.22 12.86 12.65 12.59 13.05C12.32 13.45 11.93 13.76 11.4 14C10.88 14.24 10.22 14.36 9.42 14.36V14.34Z" fill="white"/>
<path d="M14.31 14.2V5.8H16.25V14.2H14.31Z" fill="white"/>
<path d="M18.25 14.2V5.8H20.19V12.62H24.4V14.2H18.24H18.25Z" fill="white"/>
<path d="M27.44 14.2L23.82 5.8H25.92L29.09 13.24H27.85L31.07 5.8H33L29.36 14.2H27.44Z" fill="white"/>
<path d="M35.48 9.18H39.52V10.69H35.48V9.18ZM35.63 12.64H40.2V14.2H33.7V5.8H40.05V7.36H35.63V12.64Z" fill="white"/>
<path d="M41.75 14.2V5.8H45.39C46.14 5.8 46.79 5.92 47.33 6.17C47.87 6.41 48.29 6.76 48.59 7.21C48.89 7.67 49.03 8.21 49.03 8.84C49.03 9.47 48.88 10 48.59 10.46C48.29 10.91 47.87 11.25 47.33 11.49C46.79 11.73 46.14 11.85 45.39 11.85H42.83L43.69 11V14.19H41.75V14.2ZM47.09 14.2L44.99 11.15H47.07L49.19 14.2H47.09ZM43.69 11.22L42.83 10.31H45.28C45.88 10.31 46.33 10.18 46.62 9.93C46.92 9.67 47.06 9.31 47.06 8.85C47.06 8.39 46.91 8.03 46.62 7.77C46.32 7.51 45.88 7.39 45.28 7.39H42.83L43.69 6.47V11.23V11.22Z" fill="white"/>
<path d="M89.19 18H62.19C60.54 18 59.19 16.65 59.19 15V5C59.19 3.35 60.54 2 62.19 2H89.19C90.84 2 92.19 3.35 92.19 5V15C92.19 16.65 90.84 18 89.19 18ZM62.19 3C61.09 3 60.19 3.9 60.19 5V15C60.19 16.1 61.09 17 62.19 17H89.19C90.29 17 91.19 16.1 91.19 15V5C91.19 3.9 90.29 3 89.19 3H62.19Z" fill="#0800B9"/>
<path d="M67.99 13.08C67.54 13.08 67.13 12.97 66.77 12.76C66.41 12.55 66.12 12.27 65.91 11.91C65.7 11.55 65.59 11.15 65.59 10.7C65.59 10.25 65.69 9.87 65.9 9.51C66.1 9.15 66.38 8.86 66.73 8.65C67.08 8.43 67.47 8.33 67.89 8.33C68.31 8.33 68.69 8.44 69.02 8.65C69.35 8.86 69.61 9.15 69.8 9.51C70 9.87 70.1 10.28 70.1 10.73V10.98H66.49C66.54 11.23 66.63 11.46 66.77 11.66C66.91 11.86 67.09 12.01 67.31 12.13C67.53 12.24 67.77 12.3 68.03 12.3C68.25 12.3 68.46 12.27 68.67 12.2C68.88 12.13 69.05 12.03 69.19 11.89L69.77 12.46C69.5 12.66 69.22 12.82 68.93 12.92C68.65 13.02 68.34 13.06 67.99 13.06V13.08ZM66.5 10.33H69.21C69.17 10.09 69.09 9.88 68.96 9.7C68.83 9.51 68.68 9.37 68.48 9.27C68.29 9.16 68.09 9.11 67.87 9.11C67.65 9.11 67.43 9.16 67.24 9.26C67.05 9.36 66.89 9.51 66.75 9.69C66.62 9.87 66.54 10.08 66.5 10.33ZM70.12 13L71.9 10.65L70.19 8.42H71.24L72.42 9.99L73.6 8.42H74.62L72.93 10.64L74.73 13H73.68L72.41 11.31L71.14 13H70.12ZM77.15 13.08C76.71 13.08 76.37 12.98 76.13 12.77C75.9 12.56 75.78 12.26 75.78 11.86V9.17H74.81V8.41H75.78V7.24L76.67 7.02V8.41H78.02V9.17H76.67V11.65C76.67 11.88 76.72 12.05 76.82 12.15C76.93 12.25 77.1 12.29 77.34 12.29C77.47 12.29 77.58 12.29 77.67 12.26C77.77 12.24 77.88 12.21 77.99 12.18V12.94C77.87 12.98 77.73 13.01 77.57 13.03C77.41 13.05 77.27 13.07 77.14 13.07L77.15 13.08ZM78.69 8.42H79.59V9.01C79.73 8.79 79.91 8.63 80.12 8.51C80.34 8.38 80.58 8.32 80.85 8.32C81.04 8.32 81.19 8.35 81.31 8.4V9.21C81.23 9.17 81.14 9.15 81.05 9.14C80.96 9.12 80.87 9.11 80.78 9.11C80.52 9.11 80.28 9.18 80.08 9.33C79.88 9.47 79.71 9.67 79.59 9.94V13.01H78.69V8.42ZM83.3 13.08C82.97 13.08 82.68 13.02 82.43 12.91C82.18 12.79 81.98 12.63 81.84 12.42C81.7 12.21 81.62 11.97 81.62 11.69C81.62 11.26 81.79 10.92 82.12 10.67C82.45 10.42 82.9 10.29 83.48 10.29C83.93 10.29 84.35 10.38 84.73 10.55V10.06C84.73 9.73 84.63 9.48 84.44 9.32C84.25 9.16 83.98 9.08 83.61 9.08C83.4 9.08 83.18 9.11 82.95 9.18C82.72 9.24 82.47 9.34 82.19 9.47L81.86 8.79C82.21 8.63 82.53 8.51 82.83 8.44C83.13 8.36 83.43 8.32 83.74 8.32C84.33 8.32 84.79 8.46 85.12 8.74C85.45 9.02 85.61 9.42 85.61 9.95V12.99H84.73V12.59C84.53 12.75 84.31 12.87 84.07 12.95C83.84 13.03 83.58 13.07 83.31 13.07L83.3 13.08ZM82.48 11.67C82.48 11.89 82.57 12.07 82.76 12.21C82.95 12.34 83.2 12.41 83.51 12.41C83.75 12.41 83.97 12.38 84.17 12.31C84.37 12.24 84.56 12.13 84.73 11.98V11.21C84.56 11.11 84.37 11.04 84.18 10.99C83.99 10.94 83.78 10.92 83.55 10.92C83.22 10.92 82.96 10.99 82.77 11.13C82.58 11.26 82.49 11.44 82.49 11.68L82.48 11.67Z" fill="#0800B9"/>
</svg>
