<svg width="180" height="20" viewBox="0 0 180 20" fill="none" xmlns="http://www.w3.org/2000/svg">
<path d="M139.27 0H3.73C1.67 0 0 1.67 0 3.73V16.27C0 18.33 1.67 20 3.73 20H139.27C141.33 20 143 18.33 143 16.27V3.73C143 1.67 141.33 0 139.27 0Z" fill="#28334A"/>
<path d="M6.84 14.32V5.61H10.61C11.39 5.61 12.06 5.74 12.63 5.99C13.19 6.24 13.63 6.61 13.94 7.08C14.25 7.55 14.4 8.11 14.4 8.76C14.4 9.41 14.24 9.98 13.94 10.44C13.63 10.91 13.2 11.27 12.63 11.53C12.07 11.79 11.39 11.92 10.61 11.92H7.95L8.87 11.01V14.32H6.84ZM8.87 11.24L7.95 10.28H10.5C11.11 10.28 11.58 10.15 11.9 9.88C12.22 9.61 12.37 9.24 12.37 8.76C12.37 8.28 12.21 7.91 11.9 7.64C11.58 7.38 11.12 7.25 10.5 7.25H7.95L8.87 6.29V11.24Z" fill="white"/>
<path d="M15.96 14.32V5.61H17.99V12.68H22.34V14.32H15.96Z" fill="white"/>
<path d="M22.33 14.32L26.2 5.61H28.19L32.1 14.32H29.98L26.78 6.63H27.59L24.39 14.32H22.32H22.33ZM24.28 12.46L24.79 10.93H29.3L29.82 12.46H24.28Z" fill="white"/>
<path d="M34.82 14.32V7.25H32.03V5.61H39.62V7.25H36.83V14.32H34.81H34.82Z" fill="white"/>
<path d="M40.71 14.32V5.61H42.74V14.32H40.71Z" fill="white"/>
<path d="M44.79 14.32V5.61H46.46L51.6 11.88H50.79V5.61H52.78V14.32H51.11L45.97 8.05H46.78V14.32H44.79Z" fill="white"/>
<path d="M58.72 14.47C57.48 14.47 56.52 14.13 55.82 13.44C55.12 12.75 54.77 11.76 54.77 10.48V5.61H56.8V10.43C56.8 11.25 56.97 11.85 57.31 12.22C57.65 12.59 58.12 12.78 58.73 12.78C59.34 12.78 59.82 12.59 60.16 12.22C60.5 11.85 60.67 11.26 60.67 10.43V5.61H62.65V10.48C62.65 11.76 62.3 12.76 61.6 13.44C60.9 14.13 59.94 14.47 58.71 14.47H58.72Z" fill="white"/>
<path d="M64.67 14.32V5.61H66.34L70.05 11.76H69.16L72.79 5.61H74.47V14.32H72.59L72.56 8.51H72.93L69.99 13.39H69.09L66.11 8.51H66.52V14.32H64.64H64.67Z" fill="white"/>
<path d="M81.71 6.97V9.62H85.92V10.99H81.71V14.32H80.09V5.61H86.46V6.97H81.71Z" fill="white"/>
<path d="M89.6 13.87C88.88 13.48 88.32 12.95 87.92 12.27C87.51 11.59 87.31 10.82 87.31 9.97C87.31 9.12 87.51 8.36 87.92 7.67C88.32 6.99 88.89 6.45 89.6 6.07C90.32 5.68 91.12 5.49 92 5.49C92.88 5.49 93.69 5.68 94.4 6.07C95.11 6.46 95.68 6.99 96.08 7.67C96.48 8.35 96.69 9.12 96.69 9.97C96.69 10.82 96.49 11.59 96.08 12.27C95.67 12.95 95.11 13.48 94.4 13.87C93.68 14.26 92.88 14.45 92 14.45C91.12 14.45 90.31 14.26 89.6 13.87ZM93.57 12.64C94.04 12.38 94.4 12.01 94.66 11.55C94.92 11.08 95.06 10.55 95.06 9.98C95.06 9.41 94.93 8.87 94.66 8.41C94.39 7.94 94.03 7.57 93.57 7.32C93.11 7.06 92.58 6.93 92 6.93C91.42 6.93 90.9 7.06 90.43 7.32C89.96 7.58 89.6 7.95 89.34 8.41C89.07 8.88 88.94 9.41 88.94 9.98C88.94 10.55 89.07 11.09 89.34 11.55C89.61 12.02 89.97 12.39 90.43 12.64C90.89 12.9 91.42 13.03 92 13.03C92.58 13.03 93.1 12.9 93.57 12.64Z" fill="white"/>
<path d="M104.12 14.32L102.34 11.77C102.26 11.77 102.15 11.78 102 11.78H100.03V14.32H98.41V5.61H102C102.76 5.61 103.42 5.73 103.97 5.98C104.53 6.23 104.96 6.58 105.26 7.05C105.56 7.51 105.71 8.07 105.71 8.7C105.71 9.33 105.55 9.92 105.23 10.39C104.91 10.86 104.45 11.22 103.86 11.45L105.87 14.31H104.12V14.32ZM103.53 7.43C103.17 7.13 102.63 6.98 101.92 6.98H100.02V10.45H101.92C102.63 10.45 103.16 10.3 103.53 10C103.9 9.7 104.08 9.27 104.08 8.71C104.08 8.15 103.9 7.73 103.53 7.43Z" fill="white"/>
<path d="M110.96 5.61H112.58V12.95H117.14V14.32H110.96V5.61Z" fill="white"/>
<path d="M118.42 5.61H120.04V14.32H118.42V5.61Z" fill="white"/>
<path d="M124.01 6.97V9.62H128.22V10.99H124.01V14.32H122.39V5.61H128.76V6.97H124.01Z" fill="white"/>
<path d="M136.87 12.97V14.33H130.33V5.61H136.7V6.97H131.95V9.24H136.16V10.57H131.95V12.97H136.87Z" fill="white"/>
<path d="M177 18H150C148.35 18 147 16.65 147 15V5C147 3.35 148.35 2 150 2H177C178.65 2 180 3.35 180 5V15C180 16.65 178.65 18 177 18ZM150 3C148.9 3 148 3.9 148 5V15C148 16.1 148.9 17 150 17H177C178.1 17 179 16.1 179 15V5C179 3.9 178.1 3 177 3H150Z" fill="#0800B9"/>
<path d="M155.81 13.08C155.36 13.08 154.95 12.97 154.59 12.76C154.23 12.55 153.94 12.27 153.73 11.91C153.52 11.55 153.41 11.15 153.41 10.7C153.41 10.25 153.51 9.87 153.72 9.51C153.92 9.15 154.2 8.86 154.55 8.65C154.9 8.43 155.29 8.33 155.71 8.33C156.13 8.33 156.51 8.44 156.84 8.65C157.17 8.86 157.43 9.15 157.62 9.51C157.82 9.87 157.92 10.28 157.92 10.73V10.98H154.31C154.36 11.23 154.45 11.46 154.59 11.66C154.73 11.86 154.91 12.01 155.13 12.13C155.35 12.24 155.59 12.3 155.85 12.3C156.07 12.3 156.29 12.27 156.49 12.2C156.7 12.13 156.87 12.03 157.01 11.89L157.59 12.46C157.32 12.66 157.04 12.82 156.75 12.92C156.47 13.02 156.16 13.06 155.81 13.06V13.08ZM154.31 10.33H157.02C156.98 10.09 156.9 9.88 156.77 9.7C156.64 9.51 156.48 9.37 156.29 9.27C156.1 9.16 155.9 9.11 155.68 9.11C155.46 9.11 155.24 9.16 155.05 9.26C154.86 9.36 154.7 9.51 154.56 9.69C154.43 9.87 154.35 10.08 154.31 10.33ZM157.93 13L159.71 10.65L158 8.42H159.05L160.23 9.99L161.41 8.42H162.43L160.74 10.64L162.54 13H161.49L160.22 11.31L158.95 13H157.93ZM164.97 13.08C164.53 13.08 164.19 12.98 163.95 12.77C163.72 12.56 163.6 12.26 163.6 11.86V9.17H162.63V8.41H163.6V7.24L164.49 7.02V8.41H165.84V9.17H164.49V11.65C164.49 11.88 164.54 12.05 164.64 12.15C164.75 12.25 164.92 12.29 165.16 12.29C165.29 12.29 165.4 12.29 165.49 12.26C165.59 12.24 165.7 12.21 165.81 12.18V12.94C165.69 12.98 165.55 13.01 165.39 13.03C165.23 13.05 165.09 13.07 164.96 13.07L164.97 13.08ZM166.51 8.42H167.41V9.01C167.55 8.79 167.73 8.63 167.94 8.51C168.16 8.38 168.4 8.32 168.67 8.32C168.86 8.32 169.01 8.35 169.13 8.4V9.21C169.05 9.17 168.96 9.15 168.87 9.14C168.78 9.12 168.69 9.11 168.6 9.11C168.34 9.11 168.1 9.18 167.9 9.33C167.7 9.47 167.53 9.67 167.41 9.94V13.01H166.51V8.42ZM171.11 13.08C170.78 13.08 170.49 13.02 170.24 12.91C169.99 12.79 169.79 12.63 169.65 12.42C169.51 12.21 169.43 11.97 169.43 11.69C169.43 11.26 169.6 10.92 169.93 10.67C170.26 10.42 170.71 10.29 171.29 10.29C171.74 10.29 172.16 10.38 172.54 10.55V10.06C172.54 9.73 172.44 9.48 172.25 9.32C172.06 9.16 171.79 9.08 171.42 9.08C171.21 9.08 170.99 9.11 170.76 9.18C170.53 9.24 170.28 9.34 170 9.47L169.67 8.79C170.02 8.63 170.34 8.51 170.64 8.44C170.94 8.36 171.24 8.32 171.55 8.32C172.14 8.32 172.6 8.46 172.93 8.74C173.26 9.02 173.42 9.42 173.42 9.95V12.99H172.54V12.59C172.34 12.75 172.12 12.87 171.88 12.95C171.65 13.03 171.39 13.07 171.12 13.07L171.11 13.08ZM170.29 11.67C170.29 11.89 170.38 12.07 170.57 12.21C170.76 12.34 171.01 12.41 171.32 12.41C171.56 12.41 171.78 12.38 171.98 12.31C172.18 12.24 172.37 12.13 172.54 11.98V11.21C172.37 11.11 172.18 11.04 171.99 10.99C171.8 10.94 171.59 10.92 171.36 10.92C171.03 10.92 170.77 10.99 170.58 11.13C170.39 11.26 170.3 11.44 170.3 11.68L170.29 11.67Z" fill="#0800B9"/>
</svg>
