<svg width="68" height="16" viewBox="0 0 68 16" fill="none" xmlns="http://www.w3.org/2000/svg"><g clip-path="url(#a)"><path d="M64.348 0H2.94A2.94 2.94 0 0 0 0 2.94v10.12A2.94 2.94 0 0 0 2.94 16h61.408a2.94 2.94 0 0 0 2.94-2.94V2.94A2.94 2.94 0 0 0 64.349 0z" fill="#024"/><path d="M8.804 11.68a4.192 4.192 0 0 1-1.497-.263 3.529 3.529 0 0 1-1.199-.75 3.51 3.51 0 0 1-1.073-2.589c0-.526.096-1.006.284-1.443a3.44 3.44 0 0 1 .797-1.145 3.56 3.56 0 0 1 1.205-.75c.462-.178.96-.264 1.497-.264.604 0 1.152.104 1.642.313.491.21.904.516 1.234.921l-1.045.957a2.382 2.382 0 0 0-.793-.619 2.23 2.23 0 0 0-.96-.21A2.37 2.37 0 0 0 8 6.002c-.274.11-.508.263-.708.462-.199.2-.352.434-.462.708-.11.273-.163.572-.163.906 0 .334.053.633.163.907.11.274.263.508.462.707.2.2.434.352.708.463.27.11.569.163.896.163.345 0 .665-.07.96-.213a2.43 2.43 0 0 0 .793-.622l1.045.956c-.33.405-.743.715-1.234.925-.49.213-1.041.32-1.653.32l-.003-.004zm3.96-.12V4.59h1.622v5.653h3.474v1.316h-5.096zm9.106.12c-.988 0-1.76-.274-2.318-.825-.558-.551-.836-1.34-.836-2.368V4.594h1.622v3.854c0 .658.135 1.134.409 1.43.27.294.65.444 1.134.444.483 0 .871-.15 1.145-.445.274-.295.409-.771.409-1.429V4.594h1.582v3.893c0 1.028-.277 1.82-.836 2.368-.558.551-1.326.825-2.307.825h-.004zm4.747-.12V4.59h3.403c.874 0 1.536.167 1.976.498.441.33.662.772.662 1.316 0 .366-.09.682-.27.949a1.778 1.778 0 0 1-.744.622 2.52 2.52 0 0 1-1.07.22l.189-.419c.437 0 .825.075 1.159.22.334.146.597.36.793.637.192.277.288.622.288 1.024 0 .597-.235 1.063-.708 1.397-.473.334-1.166.502-2.08.502h-3.602l.004.003zm1.603-1.217h1.892c.412 0 .725-.071.946-.21.22-.138.327-.355.327-.647 0-.291-.11-.519-.327-.658-.217-.138-.534-.21-.946-.21h-2.009V7.446h1.721c.391 0 .693-.067.9-.202.21-.135.312-.342.312-.623 0-.28-.103-.483-.312-.618-.21-.132-.509-.2-.9-.2H28.22v4.541zm8.328 1.217v-1.046l2.688-2.539a3.05 3.05 0 0 0 .472-.512c.104-.15.171-.288.203-.42.032-.127.05-.248.05-.362 0-.27-.093-.484-.277-.637-.185-.152-.466-.227-.836-.227-.299 0-.572.06-.818.178a1.675 1.675 0 0 0-.626.526l-1.166-.757a2.66 2.66 0 0 1 1.106-.946c.48-.231 1.028-.349 1.653-.349.52 0 .971.082 1.362.25.391.166.697.401.91.71.217.31.324.676.324 1.099 0 .22-.032.44-.096.668a2.485 2.485 0 0 1-.345.708c-.167.245-.412.52-.736.825l-2.23 2.09-.309-.575h3.94v1.315h-5.273.004zm8.917.12a2.824 2.824 0 0 1-1.529-.423c-.448-.281-.804-.69-1.067-1.223-.263-.534-.394-1.188-.394-1.956s.131-1.422.394-1.955c.263-.534.619-.943 1.067-1.223a2.815 2.815 0 0 1 1.529-.424c.572 0 1.091.143 1.54.424.447.28.803.69 1.063 1.223.26.533.394 1.187.394 1.955s-.131 1.422-.394 1.956c-.264.533-.62.942-1.064 1.223-.448.28-.96.423-1.54.423zm0-1.355c.274 0 .508-.078.711-.234.203-.157.363-.399.476-.733.114-.334.175-.76.175-1.283 0-.523-.057-.953-.175-1.284-.117-.33-.273-.576-.476-.732a1.133 1.133 0 0 0-.711-.235 1.1 1.1 0 0 0-.697.235c-.206.156-.37.398-.487.732-.117.334-.178.761-.178 1.284 0 .522.06.953.178 1.283.117.33.28.576.487.733.206.156.437.234.697.234zm6.759 1.355c-.569 0-1.08-.142-1.529-.423-.448-.281-.803-.69-1.067-1.223-.263-.534-.394-1.188-.394-1.956s.131-1.422.394-1.955c.264-.534.62-.943 1.067-1.223.448-.281.957-.424 1.529-.424s1.092.143 1.54.424c.448.28.803.69 1.063 1.223.26.533.394 1.187.394 1.955s-.131 1.422-.394 1.956c-.263.533-.619.942-1.063 1.223-.448.28-.96.423-1.54.423zm0-1.355c.274 0 .508-.078.711-.234.203-.157.363-.399.477-.733.113-.334.174-.76.174-1.283 0-.523-.057-.953-.174-1.284-.118-.33-.274-.576-.477-.732a1.133 1.133 0 0 0-.711-.235 1.1 1.1 0 0 0-.697.235c-.206.156-.37.398-.487.732-.117.334-.178.761-.178 1.284 0 .522.06.953.178 1.283.117.33.28.576.487.733.206.156.437.234.697.234zm6.756 1.355c-.57 0-1.081-.142-1.53-.423-.447-.281-.803-.69-1.066-1.223-.263-.534-.395-1.188-.395-1.956s.132-1.422.395-1.955c.263-.534.619-.943 1.067-1.223a2.815 2.815 0 0 1 1.529-.424c.572 0 1.091.143 1.54.424.447.28.803.69 1.062 1.223.26.533.395 1.187.395 1.955s-.132 1.422-.395 1.956c-.263.533-.618.942-1.063 1.223-.448.28-.96.423-1.54.423zm0-1.355c.273 0 .508-.078.71-.234.203-.157.363-.399.477-.733.114-.334.174-.76.174-1.283 0-.523-.057-.953-.174-1.284-.117-.33-.274-.576-.476-.732a1.133 1.133 0 0 0-.711-.235 1.1 1.1 0 0 0-.697.235c-.207.156-.37.398-.487.732-.118.334-.178.761-.178 1.284 0 .522.06.953.178 1.283.117.33.28.576.487.733.206.156.437.234.697.234z" fill="#fff"/></g><defs><clipPath id="a"><path fill="#fff" d="M0 0h67.289v16H0z"/></clipPath></defs></svg>
