<svg width="62" height="15" viewBox="0 0 62 15" fill="none" xmlns="http://www.w3.org/2000/svg"><path d="M59.267 0H2.733A2.733 2.733 0 0 0 0 2.733v9.534A2.733 2.733 0 0 0 2.733 15h56.534A2.733 2.733 0 0 0 62 12.267V2.733A2.733 2.733 0 0 0 59.267 0Z" fill="#0800B9"/><path d="M6.493 9.53h3.557v1.213H4.993V4.21H9.93v1.213H6.497V9.53h-.004Zm-.11-2.697h3.144V8.02H6.383V6.833ZM10.517 10.743l2.8-3.873v1.1L10.64 4.21h1.707l1.856 2.613-.726.02 1.846-2.633h1.634L14.29 7.907V6.823l2.827 3.92h-1.744L13.45 7.97h.69l-1.893 2.773h-1.73ZM17.913 10.743V4.21h2.827c.583 0 1.09.093 1.513.283.424.19.75.464.98.817.23.353.347.773.347 1.26s-.117.913-.347 1.263c-.23.354-.556.624-.98.817-.423.193-.926.29-1.513.29h-1.997l.69-.68v2.483h-1.52Zm1.52-2.313-.69-.72h1.914c.46 0 .81-.1 1.046-.3.237-.2.354-.48.354-.84s-.117-.64-.354-.837c-.236-.196-.583-.293-1.046-.293h-1.914l.69-.72v3.71ZM24.743 10.743V4.21h1.52v5.3h3.257v1.233h-4.777ZM33.55 10.853c-.517 0-.993-.083-1.427-.253a3.397 3.397 0 0 1-1.14-.71 3.187 3.187 0 0 1-.75-1.073 3.368 3.368 0 0 1-.266-1.344c0-.483.09-.94.266-1.35a3.24 3.24 0 0 1 .75-1.07c.324-.303.7-.54 1.134-.71a3.929 3.929 0 0 1 1.423-.253 4 4 0 0 1 1.423.247c.434.163.81.4 1.134.703.323.307.573.663.75 1.073.176.41.266.864.266 1.354 0 .49-.09.933-.266 1.35a3.167 3.167 0 0 1-.75 1.076c-.324.307-.7.54-1.134.704a3.972 3.972 0 0 1-1.413.246v.01Zm-.01-1.28a1.97 1.97 0 0 0 1.457-.593c.186-.19.33-.41.433-.663a2.21 2.21 0 0 0 .153-.844c0-.31-.05-.593-.153-.843a2.06 2.06 0 0 0-.433-.663 1.97 1.97 0 0 0-.65-.44 2.059 2.059 0 0 0-.807-.154c-.293 0-.563.05-.81.154-.25.103-.467.25-.65.44a2.07 2.07 0 0 0-.43.663 2.21 2.21 0 0 0-.153.843c0 .31.05.594.153.844.103.253.247.473.43.663.183.19.4.337.65.44.25.103.52.153.81.153ZM38.253 10.743V4.21h2.827c.583 0 1.09.093 1.513.283.424.19.75.464.98.817.23.353.347.773.347 1.26s-.117.913-.347 1.263c-.23.354-.556.62-.98.804-.423.183-.926.276-1.513.276h-1.997l.69-.653v2.483h-1.52Zm1.52-2.313-.69-.72h1.914c.46 0 .81-.1 1.046-.3.237-.2.354-.48.354-.84s-.117-.64-.354-.837c-.236-.196-.583-.293-1.046-.293h-1.914l.69-.72v3.71Zm2.64 2.313-1.643-2.37h1.623l1.644 2.37h-1.624ZM46.613 9.53h3.557v1.213h-5.057V4.21h4.937v1.213h-3.433V9.53h-.004Zm-.11-2.697h3.144V8.02h-3.144V6.833ZM51.373 10.743V4.21H54.2c.583 0 1.09.093 1.513.283.424.19.75.464.98.817.23.353.347.773.347 1.26s-.117.913-.347 1.263c-.23.354-.556.62-.98.804-.423.183-.926.276-1.513.276h-1.997l.69-.653v2.483h-1.52Zm1.52-2.313-.69-.72h1.914c.46 0 .81-.1 1.046-.3.237-.2.354-.48.354-.84s-.117-.64-.354-.837c-.236-.196-.583-.293-1.046-.293h-1.914l.69-.72v3.71Zm2.64 2.313-1.643-2.37h1.623l1.644 2.37h-1.624Z" fill="#fff"/></svg>
