<svg xmlns="http://www.w3.org/2000/svg" width="24" height="9" fill="none"><path fill="#fff" d="M2.44 7.36a1 1 0 0 0-.352-.095c-.4 0-.612.284-.612.68 0 .376.236.68.588.68.116 0 .26-.024.376-.072l.024.188c-.14.048-.26.048-.424.048-.516 0-.776-.4-.776-.868 0-.516.328-.868.824-.868.188 0 .328.048.4.072zM4.23 8.514a.61.61 0 0 1-.517.304c-.472 0-.54-.304-.54-.472 0-.54.589-.588 1.013-.588h.048v-.096c0-.284-.096-.424-.376-.424q-.247.001-.493.14v-.188c.116-.072.329-.116.493-.116.4 0 .588.188.588.612v.728c0 .14 0 .236.024.352h-.236v-.252zm-.072-.568c-.352 0-.777.048-.777.4 0 .212.164.304.353.304.472 0 .492-.424.492-.588v-.116zm1.2-.444c0-.188 0-.26-.024-.376h.212v.304c.072-.188.212-.352.424-.352.048 0 .116 0 .14.024v.212c-.048-.024-.096-.024-.14-.024-.328 0-.4.352-.4.66v.824h-.212zm2.796 1.268h-.212v-.26a.54.54 0 0 1-.516.304c-.448 0-.68-.376-.68-.868s.188-.868.68-.868c.328 0 .492.236.516.304V6.325h.212zm-.68-.116c.352 0 .492-.376.492-.68s-.116-.68-.492-.68-.492.376-.492.68c-.004.304.116.68.492.68m2.913-.12c.116.072.284.096.424.096.188 0 .352-.116.352-.284 0-.4-.8-.328-.8-.8 0-.328.26-.448.54-.448.096 0 .26.024.4.072l-.024.188a1 1 0 0 0-.352-.072c-.212 0-.352.072-.352.284 0 .304.8.26.8.8 0 .352-.328.472-.564.472a1.6 1.6 0 0 1-.472-.072zm2.964.188c-.14.048-.328.096-.472.096-.54 0-.752-.376-.752-.868s.284-.868.68-.868c.472 0 .66.376.66.824v.096h-1.128c0 .352.188.636.54.636.14 0 .352-.072.472-.116zm-.12-.892c0-.284-.116-.564-.424-.564-.304 0-.492.304-.492.564zm1.108-.328c0-.188 0-.26-.024-.376h.212v.304c.072-.188.212-.352.424-.352.048 0 .116 0 .14.024v.212c-.048-.024-.096-.024-.14-.024-.328 0-.4.352-.4.66v.824h-.212zm2.117 1.268h-.236l-.565-1.644h.213l.448 1.412.472-1.412h.212zm1.548-2.068h-.208v-.26h.212zm-.208.424h.212v1.644h-.212zm2.256.236a1 1 0 0 0-.352-.096c-.4 0-.612.284-.612.68 0 .376.236.68.588.68.116 0 .26-.024.376-.072l.024.188c-.14.048-.26.048-.424.048-.516 0-.776-.4-.776-.868 0-.516.328-.868.824-.868.188 0 .328.048.4.072zM22 8.72c-.14.048-.329.096-.473.096-.54 0-.752-.376-.752-.868s.284-.868.68-.868c.473 0 .66.376.66.824v.096h-1.128c0 .352.188.636.54.636.14 0 .353-.072.473-.116zm-.093-.892c0-.284-.116-.564-.424-.564s-.492.304-.492.564zm.965.704c.116.072.284.096.424.096.188 0 .352-.116.352-.284 0-.4-.8-.328-.8-.8 0-.328.26-.448.54-.448.096 0 .26.024.4.072l-.024.188a1 1 0 0 0-.352-.072c-.212 0-.352.072-.352.284 0 .304.8.26.8.8 0 .352-.328.472-.564.472a1.6 1.6 0 0 1-.472-.072zM21.04 1.48h-3.337c-.164 0-.304.14-.304.284v1.904c0 .164.14.285.304.285h2.469c.163 0 .424-.165.424-.329l.704-1.832c-.028-.144-.096-.312-.26-.312"/><path fill="#fff" d="M4.629.096h-.68L2.304 4.541.704.096H0l1.972 5.265h.636l.024-.048zm.844 5.265h.66V.096h-.66zM9.07 2.42C8.48 2.115 7.94 1.855 7.94 1.407v-.024c0-.588.516-.8 1.012-.8.329 0 .68.072.893.188l.096.048h.024l.116-.636L10.01.16A4 4 0 0 0 8.977 0c-.916 0-1.692.54-1.692 1.412 0 .728.636 1.104 1.224 1.432.589.329 1.129.613 1.129 1.013v.024c0 .68-.472.964-1.057.964-.472 0-.8-.096-1.08-.284l-.096-.072h-.024l-.024.14-.072.564.048.024c.284.116.68.236 1.2.236.825 0 1.765-.424 1.765-1.528-.028-.796-.64-1.197-1.228-1.505M11.422.095v5.265h2.752v-.612h-2.092V2.96h1.904v-.613h-1.904V.68h2V.092zm11.85 5.265H24L22.024.096h-.66l-.024.048-1.973 5.217h.68L21.692.916zM17.699.612c.352 0 .8.048 1.104.212l.096.048h.024V.756l.048-.516-.048-.024C18.62.052 18.031.004 17.7.004c-.8 0-1.48.284-1.928.776-.473.492-.729 1.176-.729 1.953 0 .8.236 1.48.705 1.976.472.472 1.128.752 1.952.752.328 0 .892-.048 1.224-.236l.048-.024-.048-.636-.116.072c-.26.164-.752.212-1.08.212h-.024c-1.292 0-1.976-.868-2-2.117.02-1.252.728-2.12 1.996-2.12"/></svg>