<svg width="143" height="24" viewBox="0 0 143 24" fill="none" xmlns="http://www.w3.org/2000/svg">
<path d="M68.341 23.4691H75.0619V24H56.0401V23.4691H61.4065V10.7154H61.2444L50.4146 23.999H48.5718L37.7994 10.7134H37.6926V23.4671H42.9404V23.999H30.5901V23.4681H35.9565V10.3506H30.5901V9.81968H44.5697L52.1517 19.5184L59.9987 9.81968H75.0243V10.3506H68.341V23.4681" fill="white"/>
<path d="M106.886 24V23.4829H111.185L123.882 9.81968H125.684L137.86 23.4829H142.111V24H125.263V23.4829H130.793L127.551 19.7992H116.074L112.777 23.4829H118.198V24H106.886ZM116.655 19.2861H127.019L122.023 13.4955L116.655 19.2861Z" fill="white"/>
<path d="M88.9683 16.4476C94.3397 16.4476 96.5612 16.1273 96.8449 13.8593H98.4139V19.7735H96.8449C96.3397 17.4254 95.0189 16.9143 88.9683 16.9697V23.4691H95.7465C103.031 23.4691 104.595 21.8279 105.776 19.4334H107.403L106.898 24L75.0619 24V23.4691L80.624 23.4691V10.3516H75.0243V9.82068H106.005L106.343 13.6369H104.768C103.592 11.6032 101.462 10.8192 98.6047 10.5187C97.2087 10.3743 95.5794 10.3506 93.7277 10.3506H87.7957H88.9683V16.4476ZM21.1128 23.4661C20.1241 23.4286 19.2986 23.2882 19.0534 23.212C18.4661 23.039 17.8947 22.9352 17.3796 22.5694C17.2758 22.517 17.2471 22.4972 17.1423 22.4419C17.1058 22.4419 17.0425 22.3578 16.993 22.3578C16.6668 22.0958 16.3801 21.8279 16.3346 21.4068C16.2654 20.8956 16.4384 20.4023 16.7498 20.0127C16.851 19.8893 16.9654 19.7772 17.0909 19.6786C17.2353 19.5659 17.4201 19.6202 17.5655 19.5659C17.6545 19.5659 17.7098 19.2574 17.8947 19.3029C18.0905 19.4097 17.9491 19.6202 17.8018 19.7211V19.8892C17.8858 19.9119 17.9866 19.8892 18.0905 19.8951C17.9955 20.0533 17.9026 20.0533 17.8482 20.1482C17.8482 20.2006 18.039 20.2006 18.039 20.252C17.8947 20.4082 17.6139 20.3103 17.4201 20.4082V20.5209C17.8947 20.4626 18.4177 20.1027 18.8883 20.3627C18.8883 20.3627 18.7469 20.4082 18.651 20.4626C18.8883 20.6208 19.1285 20.4626 19.3678 20.5209C19.6515 20.6218 19.9313 20.5209 20.2151 20.5703C20.1686 20.4626 20.0322 20.5209 19.9778 20.4082C20.3624 20.3093 20.7381 20.5209 21.1128 20.6218C20.9737 20.4563 20.7684 20.3611 20.5522 20.3617C20.4049 20.3617 20.2665 20.2006 20.1686 20.0385V20.0098C20.1686 19.9702 20.1795 19.9376 20.2151 19.9376C20.3357 19.906 20.4622 19.9673 20.5957 20.0098C20.7173 20.0533 20.833 20.0968 20.922 20.0394C21.1019 19.9465 21.2383 20.1284 21.4084 20.0127H21.4133L21.4479 19.99C21.2581 19.7794 20.923 19.99 20.7381 19.7211C20.923 19.6202 21.1138 19.7211 21.3016 19.5659C21.3995 19.465 21.6358 19.465 21.8236 19.465C22.0609 19.4097 22.3011 19.5194 22.5374 19.5194C22.5809 19.5194 22.6788 19.6202 22.7193 19.6202C22.9171 19.6202 23.098 19.8338 23.2947 19.7211C23.2947 19.6786 23.2018 19.6202 23.1563 19.5659C23.008 19.5659 22.8241 19.5659 22.7193 19.4097C22.7193 19.3583 22.7193 19.3029 22.7747 19.3029C23.009 19.3029 23.2018 19.5659 23.4371 19.465C23.0545 19.202 22.6393 19.3583 22.2458 19.1477C22.0144 18.9895 21.6882 18.9371 21.4914 18.6771C21.4479 18.7838 21.356 18.7295 21.3006 18.7295C21.2581 18.7295 21.2581 18.6286 21.2116 18.6286C20.9744 18.6286 20.6946 18.6781 20.6946 18.4606C20.6946 18.2529 20.9744 18.3083 21.1128 18.3083C21.6368 18.2065 22.0609 18.5219 22.5809 18.5673C22.6393 18.5673 22.6393 18.6771 22.6393 18.7295C22.6393 18.8303 22.5374 18.7838 22.491 18.7838C22.7193 18.8303 23.009 18.8303 23.2394 18.8303C23.5775 18.8303 23.9591 18.8906 24.2883 18.9885C24.4792 19.0468 24.664 19.1467 24.8548 19.0468C24.7135 18.9371 24.4357 19.0923 24.4792 18.8293C24.4792 18.7295 24.664 18.8293 24.7629 18.7838L24.7135 18.7295C24.7629 18.6286 24.8548 18.6771 24.9587 18.6771C24.6186 18.5219 24.2883 18.3627 23.9601 18.2065C24.144 17.8871 24.4792 18.0947 24.7629 18.0947C24.7629 18.0947 24.7629 17.9939 24.7135 17.9939C24.8084 17.8357 24.9587 18.0433 25.0951 17.9939C25.0457 17.8871 24.9587 17.8871 24.8548 17.8357C24.5227 17.7804 24.1905 17.6736 23.8612 17.6271C23.9077 17.5233 24.144 17.6736 24.1005 17.466C24.0026 17.203 23.6704 17.2583 23.4826 17.1535C23.6682 17.0426 23.8882 17.0039 24.1005 17.0448C24.3348 17.0992 24.6186 16.9983 24.8548 17.0448C24.4792 16.675 23.9591 17.0992 23.5261 16.7294C23.6299 16.6286 23.7683 16.5742 23.8128 16.413C24.1005 16.5218 24.4357 16.3636 24.7135 16.413C24.3526 16.2746 23.9997 16.1214 23.6418 16.0146C23.6299 16.0146 23.6042 15.9998 23.5775 15.9948C23.4302 15.9306 23.2809 15.9711 23.1356 16.0146C23.0515 16.0433 22.9596 16.0838 22.8696 16.1006C22.5374 16.2044 22.2052 16.2044 21.8731 16.0433L21.9393 16.0136C22.1163 15.9306 22.3209 15.8871 22.492 15.8871H22.7747C22.8696 15.8871 22.7747 15.7378 22.8696 15.7378C23.0545 15.7378 23.2947 15.6795 23.4826 15.7378C23.7515 15.8792 24.0402 15.9513 24.318 16.0146C24.4366 16.0403 24.5553 16.072 24.664 16.1006C24.7135 16.159 24.7629 16.2044 24.8084 16.2628C25.0951 16.3082 25.3818 16.3082 25.5687 16.5218C25.6151 16.5742 25.6576 16.5218 25.6576 16.4674C25.6151 16.2222 25.5716 16.1125 25.7595 16.0146C25.7713 16.0146 25.7911 15.9998 25.799 15.9948C25.7565 15.8386 25.6586 15.7803 25.5163 15.7378C25.8494 15.631 26.233 15.5757 26.4673 15.9454H26.6087C26.6087 15.8386 26.7046 15.7803 26.7501 15.7378C26.9903 15.6795 27.1258 15.9454 27.366 15.9454C27.8426 15.8386 28.2677 15.8871 28.6859 15.8386C28.3626 15.7378 28.0769 15.6804 27.7467 15.5757C27.6458 15.5757 27.5044 15.5757 27.4125 15.4689C27.5539 15.3137 27.8426 15.3651 27.981 15.4175C28.0769 15.4689 28.0769 15.2069 28.1263 15.2553C28.3636 15.3137 28.5969 15.3651 28.7877 15.4689C28.9261 15.5242 29.2128 15.631 29.3967 15.7378C29.2119 15.3127 28.5959 15.3651 28.5959 14.9963C28.5445 14.7887 28.9123 15.1377 29.0616 14.9617C28.1639 14.7442 27.2701 14.8312 26.3724 14.6819C26.3247 14.6313 26.2785 14.5792 26.234 14.5257C26.5138 14.3675 26.7995 14.2607 27.0773 14.3151C27.1268 14.3675 27.1752 14.3675 27.2247 14.4189C27.4125 14.4189 27.5044 14.4189 27.7012 14.4743V14.3675C27.365 14.2607 27.0338 14.3151 26.7046 14.2607C26.4673 14.1599 26.1787 14.3151 25.9443 14.3675C25.1356 14.4189 24.3348 14.2607 23.5261 14.3151C23.1563 14.3151 22.7747 14.2607 22.3496 14.3151C22.0144 14.4189 21.6358 14.3151 21.3016 14.3151C21.0179 14.2607 20.6946 14.3151 20.4049 14.3675C20.1676 14.3675 19.9313 14.3675 19.7435 14.2607C19.6921 14.2083 19.7435 14.1599 19.7929 14.1599C20.4059 14.0531 20.9744 14.2093 21.5409 14.1599C21.3006 13.9463 20.9744 14.0531 20.6946 13.9978C20.6451 13.9978 20.5957 13.891 20.5522 13.8396C20.7381 13.7328 20.9744 13.7842 21.1592 13.7842C21.2116 13.7842 21.2116 13.8396 21.2116 13.891H22.1163L22.0609 13.8396C22.6788 13.6893 23.2947 13.7842 23.9077 13.6893C23.4826 13.5281 22.9655 13.7328 22.5374 13.5825C22.6595 13.4875 22.8236 13.4667 22.9655 13.5281C22.9161 13.4214 22.7193 13.4757 22.6788 13.366C23.098 13.2108 23.5261 13.3166 23.9591 13.2622C23.9591 13.1584 23.8603 13.0486 23.9591 12.9537C24.0026 13.0486 24.1005 13.104 24.144 13.104C24.4357 13.0486 24.664 12.9972 24.8558 13.2622C24.7135 13.366 24.5721 13.366 24.4357 13.366C24.5721 13.5825 24.8084 13.366 24.9933 13.4214C25.0457 13.4214 25.0457 13.4757 25.0457 13.5281C25.3284 13.5281 25.6586 13.5825 25.9443 13.4214C25.9908 13.4214 26.0857 13.6339 26.1787 13.4757C25.9018 13.3176 25.5687 13.367 25.3284 13.2108C25.0659 13.0324 24.8134 12.8396 24.5721 12.6334C24.664 12.5266 24.8548 12.5266 24.9587 12.6334C25.0951 12.7343 25.187 12.7343 25.3284 12.7886C25.4243 12.841 25.3808 12.6334 25.4668 12.6334C25.6586 12.578 25.9018 12.578 26.0857 12.6848C26.3724 12.841 26.6552 12.7886 26.9903 12.841C27.0338 12.841 27.0338 12.7886 27.0773 12.7343C27.0773 12.7975 27.1317 12.7886 27.1693 12.7886C26.8925 12.5553 26.5395 12.7778 26.2795 12.578C26.1787 12.4723 26.0857 12.4199 25.9443 12.316C26.1322 12.2093 26.32 12.2666 26.4673 12.4199C26.4673 12.3734 26.4673 12.2666 26.5138 12.2666C26.6087 12.2666 26.7046 12.4199 26.8005 12.3734C26.6552 12.1628 26.4248 12.2666 26.233 12.1055C25.9008 11.9473 25.4678 12.0531 25.1356 11.8919C25.1356 11.8375 25.187 11.8375 25.2365 11.8375C25.28 11.7911 25.2365 11.7416 25.187 11.7416C24.8548 11.7416 24.5227 11.7416 24.2369 11.5281C24.5236 11.3669 24.8548 11.4213 25.1356 11.5281C25.2365 11.5835 25.3808 11.6843 25.5163 11.7416C25.5687 11.7416 25.7071 11.7911 25.7071 11.6843C25.6576 11.6349 25.6151 11.5281 25.5163 11.4796C25.6586 11.3234 25.8494 11.6349 25.9908 11.4796C25.9443 11.4213 25.9443 11.3669 25.9443 11.3234C26.1787 11.1593 26.5573 11.4796 26.7046 11.3234C26.9419 11.1099 27.0773 11.3669 27.3225 11.3234C27.1199 11.1593 26.9004 11.0812 26.672 11.0209C26.3724 10.9398 26.0541 10.8904 25.7565 10.7411C25.8 10.6343 25.9008 10.6343 25.9908 10.6343C25.8494 10.4722 25.6586 10.4722 25.4668 10.3743C25.7071 10.3199 25.9443 10.3199 26.1787 10.3743C26.3724 10.4238 26.5573 10.5246 26.7501 10.5849C26.843 10.6343 26.9409 10.6858 26.9903 10.7925C26.8794 10.5181 26.6535 10.3062 26.3724 10.2132C26.32 10.1548 26.3724 10.1123 26.4238 10.1123C26.5128 10.057 26.6087 10.1548 26.7046 10.2132C26.7501 10.2132 26.7995 10.1548 26.7501 10.1123C26.7046 10.1123 26.6552 10.057 26.6552 10.057C26.843 9.84935 27.0338 10.057 27.2247 10.057C27.2701 10.057 27.3225 10.1558 27.366 10.2132C27.366 10.1548 27.366 10.1123 27.4125 10.057C26.8925 9.84935 26.3724 9.58735 25.8494 9.52902C25.4243 9.47959 24.9933 9.47959 24.5721 9.47959C23.7199 9.42818 22.8696 9.47959 22.0144 9.3738C22.492 9.11082 23.0545 9.42818 23.5261 9.21166C23.4826 9.11082 23.3412 9.16025 23.2947 9.05644C23.6299 8.84586 24.0491 9.21166 24.3348 9.00701C23.9077 8.84586 23.4361 8.89431 23.009 8.73909C23.0812 8.63231 23.1771 8.61155 23.2769 8.61155C23.2226 8.56014 23.1188 8.46721 23.2394 8.37526C23.3877 8.32088 23.5775 8.42964 23.7199 8.37526C23.2394 8.26849 22.7193 8.26848 22.3931 7.85621C23.009 7.5873 23.6704 7.68814 24.3348 7.5873C24.6583 7.48642 25.0049 7.48642 25.3284 7.5873C25.4243 7.6397 25.5163 7.68814 25.5687 7.79492C25.6576 7.6397 25.5163 7.6397 25.4678 7.5873C25.2365 7.37968 24.9587 7.37968 24.664 7.26697C24.4792 7.21556 24.2883 7.21556 24.1005 7.16613C23.5261 6.95851 22.9655 7.16613 22.3506 7.05936C22.2458 7.00795 22.1163 7.11176 21.969 7.11176C22.0144 7.21556 22.2062 7.11176 22.1677 7.21556C22.0144 7.48646 21.6882 7.26697 21.3995 7.32234C20.8824 7.43109 20.3614 7.26697 19.8394 7.16613C20.2151 6.95851 20.6451 7.16613 21.0703 7.11176C21.0179 7.05936 21.1592 7.00795 21.0703 6.95851C21.3006 6.80329 21.4914 7.11176 21.7317 7.00795C21.7781 6.95851 21.6358 6.85174 21.6882 6.73903C21.7317 6.63819 21.8236 6.73903 21.9156 6.6896V6.58974C22.3011 6.31786 22.6393 6.58974 23.009 6.73903C22.8241 6.58974 22.5809 6.53735 22.4396 6.31786C22.3931 6.21702 22.492 6.16858 22.5384 6.16858C22.9161 6.16858 23.2947 6.16858 23.6299 6.31786C23.2394 5.94909 22.6788 5.94909 22.1677 5.94909C21.3995 6.0094 20.5957 6.16858 19.8394 6.0094C18.6975 5.84825 17.6545 5.74741 16.5274 5.48541C16.476 5.42609 16.3801 5.37765 16.3801 5.32327C16.3801 5.11269 16.6174 5.32327 16.6668 5.16509L16.6174 5.11269C16.7162 5.00592 16.8517 5.00592 16.9495 5.11269C16.993 5.1641 16.9495 5.21947 16.9031 5.21947H16.8082C16.7617 5.42708 16.993 5.32327 17.0425 5.32327C17.3796 5.37765 17.7523 5.32327 18.0905 5.27088C18.5096 5.1641 18.9348 5.42708 19.3678 5.48443C19.3164 5.42708 19.174 5.42708 19.2205 5.32327C19.3688 5.11269 19.6515 5.27088 19.8394 5.27088C20.2151 5.27088 20.5957 5.37765 21.0179 5.53682C21.1128 5.53682 21.2116 5.6347 21.3006 5.58626C21.4489 5.58626 21.2581 5.53682 21.2581 5.48443C20.7381 5.1641 20.1686 5.27088 19.6921 4.90507C19.6515 4.85267 19.6921 4.7983 19.7435 4.7983C19.8394 4.74293 19.8849 4.90507 19.9778 4.85267C19.5556 4.38207 18.8389 4.85267 18.3188 4.5363C18.4177 4.38207 18.3188 4.21796 18.3712 4.11711C18.4177 3.95596 18.651 4.06768 18.8389 4.06768C18.8883 4.11711 18.9348 4.11711 18.9812 4.11711C19.3164 4.16951 19.5962 4.32176 19.8849 4.43447C19.9778 4.4839 19.8394 4.38207 19.8394 4.32176C19.8394 4.27629 19.8849 4.21796 19.9313 4.21796C20.0322 4.21796 20.1251 4.27629 20.1251 4.38207C20.2931 4.32136 20.4771 4.32136 20.6451 4.38207C20.7836 4.4839 20.8824 4.69745 21.0703 4.69745C21.0179 4.53531 20.8824 4.4839 20.7836 4.38207C20.7381 4.32275 20.7836 4.27629 20.83 4.27629H21.0703C20.922 4.27629 20.83 4.21796 20.7381 4.21796C20.4484 4.16852 20.2665 3.95596 20.0322 3.85413C20.0668 3.74241 20.2151 3.79975 20.31 3.74241C20.0332 3.53974 19.5962 3.74241 19.3164 3.48833C19.5962 3.32619 19.8394 3.32619 20.1251 3.38452C19.7929 3.28071 19.5042 3.32619 19.174 3.32619C19.0356 3.38452 18.8883 3.32619 18.7983 3.17393C18.7469 3.06419 18.9812 3.11857 18.8883 3.01179C18.6975 2.91688 18.4661 3.06419 18.2328 2.96236L18.2823 2.91688C18.039 2.70037 17.8018 2.80418 17.5655 2.85064C17.7098 2.96335 17.516 2.96335 17.516 3.01179C17.1839 3.01179 16.8517 3.11857 16.5274 3.11857C16.1922 3.17393 15.8116 3.28071 15.5308 3.32619C15.337 3.32619 15.1957 3.06419 14.9643 3.01179C15.0078 2.91688 15.1522 2.96236 15.2411 2.96236C15.6267 2.91688 16.0479 3.06419 16.4265 2.96236C16.5274 2.96236 16.7627 3.11857 16.8082 2.85064C16.7152 2.85064 16.6174 2.91688 16.565 2.80418C16.9031 2.64302 17.2353 2.80418 17.5655 2.64302C17.3796 2.64302 17.2353 2.48187 17.0909 2.43541C17.2353 2.17539 17.4201 2.38004 17.5655 2.48187C17.6545 2.53922 17.7098 2.38004 17.8028 2.43541C18.039 2.64302 18.3188 2.80418 18.5996 2.70037C18.3188 2.59359 18.039 2.53922 17.8482 2.27623C18.2328 2.17539 18.5996 2.27623 18.9348 2.43442C18.7506 2.23441 18.5023 2.10502 18.2328 2.06861C17.1354 1.95591 16.0973 1.85506 15.0543 1.95591C14.9653 1.95591 14.6786 2.17539 14.6292 2.01424C14.5797 1.75126 14.9653 1.90746 15.1008 1.75126C14.9179 1.60197 14.6786 1.85506 14.5807 1.65041C15.0543 1.43686 15.5714 1.65041 16.0973 1.75126C16.0479 1.53771 15.8106 1.69985 15.7681 1.53771C15.7681 1.49223 15.8116 1.43686 15.8571 1.43686C16.0973 1.43686 16.3811 1.60197 16.565 1.53771C16.8517 1.43686 17.1839 1.60197 17.4666 1.60197C17.2758 1.38249 17.0415 1.38249 16.8517 1.33009C16.4265 1.1719 15.952 1.27275 15.5308 1.01569L15.5714 0.958352C15.5308 0.958352 15.4873 0.908919 15.4873 0.908919C15.8116 0.54015 16.2446 0.958352 16.565 0.908919C16.476 0.908919 16.4265 0.863441 16.3801 0.808076C16.5284 0.695369 16.6668 0.808076 16.8082 0.750734C15.953 0.54015 15.1008 0.54015 14.205 0.386908C14.1091 0.386908 14.1615 0.283099 14.1615 0.228723C14.4908 -0.091602 14.9179 0.228723 15.2935 0.0665831C14.82 0.0201162 14.2999 -0.028328 13.8204 0.0201163C13.4013 0.0576852 12.9682 0.0992088 12.5401 0.0665831H12.552C12.552 0.126891 12.7339 0.176324 12.5896 0.228723C12.3523 0.283099 12.115 0.228723 11.8876 0.332532C12.0784 0.386908 12.3058 0.283099 12.4937 0.386908C12.0784 0.654834 11.505 0.493683 11.1244 0.808076C11.0255 0.908919 10.7951 0.808076 10.6538 0.863441C10.3641 1.01569 9.98643 1.01569 9.70268 1.22628C10.0754 1.27275 10.4106 1.22628 10.7952 1.06513C10.8446 1.06513 10.8841 1.1719 10.8841 1.1719C11.2203 0.958352 11.5495 1.06513 11.9311 1.01569C11.9766 0.958352 12.0784 1.01569 12.0784 0.908919C12.116 1.01569 12.2633 1.12642 12.116 1.1719C11.7828 1.27275 11.506 1.49223 11.1738 1.38249C11.0255 1.38249 10.8851 1.38249 10.7457 1.43686C10.6538 1.49223 10.5608 1.60197 10.4106 1.60197C10.457 1.6514 10.2286 1.69985 10.3641 1.69985C10.457 1.69985 10.5124 1.60098 10.6538 1.60098C10.7457 1.60098 10.6973 1.80662 10.7952 1.75126C10.8446 1.65041 10.983 1.60197 11.0265 1.65041C11.4536 1.69985 11.9311 1.43686 12.3058 1.65041C12.3058 1.65041 12.2139 1.85506 12.116 1.85506C11.6444 1.85506 11.1738 1.95591 10.7457 2.01325C10.3641 2.01325 9.93403 2.17539 9.5178 2.01325C9.27262 1.95591 9.08774 2.01325 8.89989 2.17539C9.08774 2.22779 9.27262 2.11508 9.41993 2.22779C9.23505 2.43541 8.94834 2.43541 8.71205 2.59359C8.61318 2.70037 8.47477 2.7498 8.37591 2.91688C8.94933 2.64302 9.56427 2.53922 10.1337 2.3316C10.2286 2.27623 10.2751 2.53922 10.1337 2.59359C10.0527 2.59359 9.97456 2.70037 9.89349 2.70926C10.0665 2.73497 10.2395 2.65489 10.4106 2.70037C10.5124 2.70037 10.6973 2.70037 10.7467 2.59359C10.7467 2.53922 10.6043 2.48187 10.5608 2.43541C10.8446 2.22779 11.506 2.11508 11.4536 2.64302C11.4536 2.7498 11.3152 2.70037 11.2658 2.70037C11.1738 2.64302 11.2658 2.53922 11.2203 2.48187C11.1244 2.43541 11.0265 2.59359 10.9425 2.53922C10.9425 2.70037 11.2193 2.59359 11.1738 2.80418C11.1244 2.85064 11.0779 2.96236 11.0255 2.96236C10.457 2.85064 9.98643 3.11857 9.46837 3.06419C9.27262 3.06419 8.94834 2.96335 8.80696 3.11857C8.89989 3.11857 9.0472 3.11857 9.08774 3.22534C9.08774 3.32619 8.89989 3.32619 8.8475 3.43296C8.89989 3.43296 8.94834 3.43296 8.98887 3.48833C9.08774 3.38452 9.23505 3.38452 9.32996 3.38452C10.0754 3.28071 10.8446 3.17393 11.6039 3.17393C11.7344 3.17393 12.0784 3.11857 12.0784 3.28071C12.0231 3.53974 11.6444 3.38452 11.3617 3.43296C11.2658 3.48833 11.1738 3.64651 11.1244 3.64651C10.7951 3.74241 10.5114 3.53974 10.1772 3.59214C10.1772 3.64651 10.1772 3.69891 10.1337 3.69891H9.46837L9.5178 3.74241C9.46837 3.85413 9.32996 3.79975 9.23505 3.79975C8.8475 3.64651 8.47477 3.48833 8.04965 3.59214C8.14258 3.59214 8.28989 3.53974 8.37591 3.59214C8.47477 3.64651 8.51827 3.69891 8.61318 3.69891C8.71205 3.74241 8.61318 3.95596 8.57067 3.95596C8.23059 3.86539 7.87539 3.84653 7.52764 3.9006C7.62848 4.06867 7.81039 3.85413 7.86279 4.01627C7.86279 4.21796 7.62848 4.01627 7.56718 4.16951C7.29036 4.01627 7.00662 4.32176 6.67443 4.27629C6.95817 4.43447 7.24982 4.21796 7.56718 4.32176C7.67301 4.31318 7.77483 4.27742 7.86279 4.21796C8.28989 4.16852 8.71205 4.16852 9.13124 4.32176C9.13124 4.32176 9.13124 4.43447 9.08774 4.43447H8.71205C8.66558 4.43447 8.66558 4.53531 8.66558 4.53531C8.94834 4.64802 9.23505 4.38207 9.5178 4.64802C9.46837 4.69745 9.41894 4.7983 9.32996 4.74293C9.13124 4.69745 8.94834 4.74293 8.76049 4.69745C8.76049 4.7983 8.61318 4.74293 8.66558 4.7983C8.80696 4.90507 8.98887 4.85267 9.13025 4.85267C9.13025 4.90507 9.32996 4.90507 9.18265 5.00592C9.17079 5.02569 9.15101 5.03162 9.13124 5.03755C9.31908 5.10972 9.53263 5.07216 9.70268 5.1641C9.75212 5.21947 9.70268 5.27088 9.65918 5.27088H9.46837C9.56427 5.42708 9.80155 5.21947 9.84703 5.42708C9.84703 5.48443 9.80155 5.53584 9.75212 5.53584C9.23505 5.53584 8.71205 5.58527 8.23552 5.27088C8.19201 5.21947 8.23552 5.1641 8.28989 5.1641C8.57067 5.11269 8.76049 5.32229 9.0472 5.32229C8.76049 5.11269 8.33339 5.21947 8.04965 4.96538C8.14258 4.85267 8.23552 4.85267 8.37591 4.85267C8.09018 4.69745 7.8618 4.90507 7.56718 4.85267C7.4347 4.7983 7.33979 4.69745 7.19149 4.74392V4.85267C6.8158 5.00592 6.44407 5.00592 6.05652 5.1641C6.3887 5.21947 6.67443 5.00592 7.00661 5.1641C6.95718 5.27088 6.76934 5.21947 6.76934 5.37765C7.00661 5.37765 7.19149 5.32327 7.4347 5.42708C6.86524 5.6347 6.19888 5.53584 5.63535 5.84825C6.01301 5.74741 6.34224 5.69501 6.72386 5.74741C6.81679 5.74741 6.77033 5.90856 6.81679 5.90856C7.29036 5.74741 7.66308 5.90856 8.09018 6.0094C8.14258 6.06477 8.19201 6.11321 8.23552 6.16759C8.0012 6.27239 7.71449 6.11321 7.4782 6.11321C6.8158 6.0094 6.25227 6.2714 5.63436 6.53833C6.01301 6.4276 6.44407 6.2714 6.86524 6.31786C6.90874 6.31786 7.00661 6.48297 7.05012 6.4276C7.38626 6.4276 7.71449 6.53735 8.04965 6.48297C8.47477 6.38213 8.8475 6.38213 9.27262 6.53735C9.08774 6.63819 8.8475 6.53735 8.66558 6.58974C8.66558 6.58974 8.66558 6.69059 8.71205 6.69059C8.09018 7.00696 7.4782 6.69059 6.81679 6.80329C6.55974 6.90216 6.28786 6.95456 6.01301 6.95851C6.44407 7.00795 6.90874 6.73903 7.29036 6.95851C7.52764 7.11176 7.9053 7.05936 8.23552 7.05936C8.28989 7.05936 8.28989 7.11176 8.28989 7.16613C8.47477 7.16613 8.47477 7.26697 8.51827 7.43208C8.04965 7.53292 7.62848 7.26697 7.14898 7.26697C7.10251 7.26697 7.10251 7.37968 7.10251 7.37968C7.29036 7.43208 7.4782 7.32234 7.62848 7.48646C7.52764 7.5873 7.4782 7.74351 7.38527 7.79492C7.05012 7.85621 6.77033 7.68814 6.44407 7.85621C6.67443 7.85621 6.95817 7.79492 7.0076 8.00847C7.05012 8.1103 6.86524 8.00847 6.81679 8.1103C6.53601 7.95706 6.25326 8.16468 5.96951 8.16468C6.10002 8.26849 6.25326 8.1103 6.3887 8.16468C6.44407 8.16468 6.44407 8.21905 6.44407 8.26848C6.3887 8.32088 6.3887 8.37526 6.34224 8.37526C6.19789 8.37526 6.05553 8.42964 5.91711 8.42964C5.53945 8.48203 5.11432 8.42964 4.73567 8.42964C4.73567 8.53147 4.58836 8.48204 4.6368 8.53147C4.82465 8.58584 5.06193 8.37526 5.2557 8.53147C4.97295 8.79841 4.58836 8.53147 4.30264 8.68669C4.16719 8.79939 3.97638 8.84487 3.88048 9.00701C4.26507 8.95264 4.58836 8.73909 4.97295 8.84586C4.97295 8.95264 4.82465 8.95264 4.82465 9.00701C4.92648 9.05645 5.11433 8.95264 5.21022 9.05644C4.97295 9.26703 4.6368 9.26703 4.40348 9.42818C4.54782 9.48058 4.73567 9.32141 4.69019 9.42818C4.54782 9.6882 4.1662 9.79398 3.92892 10.0056C4.12369 9.94722 4.30264 9.89878 4.50235 9.84935C4.77917 9.79497 5.11531 9.64173 5.44355 9.6882C5.58591 9.74752 5.53945 9.89878 5.44355 9.94722C5.02883 9.94904 4.6161 10.0045 4.21563 10.1123C4.01988 10.1548 3.79051 10.3199 3.6521 10.5246C3.92892 10.3743 4.21564 10.1123 4.54782 10.2132C4.6368 10.2132 4.82465 10.2132 4.87408 10.3199C4.87408 10.4238 4.6368 10.5849 4.69019 10.5849C4.97295 10.6858 5.29624 10.4722 5.58591 10.6343C5.37138 10.8331 4.95812 10.7579 4.77917 11.0199C4.76533 11.0466 4.7416 11.0753 4.73567 11.1099C4.82183 11.076 4.90959 11.0463 4.99865 11.0209C5.05402 11.012 5.10543 11.0011 5.16079 11.0011C5.82517 10.9487 6.44407 10.6858 7.10251 10.8479C6.91566 10.9191 6.72485 10.9764 6.53008 11.0209C5.63436 11.2226 4.70996 11.0753 3.80831 11.275C3.97638 11.2691 4.12369 11.3551 4.26507 11.4796C3.97638 11.6349 3.6521 11.4213 3.40691 11.5835C3.2161 11.6843 2.93631 11.6349 2.79691 11.8919C3.07374 11.8375 3.40691 11.5281 3.55126 11.8375C3.59476 11.9987 3.1726 11.8375 3.2685 12.1045C3.2685 12.1638 3.55126 11.9987 3.6521 12.1638C3.6521 12.2093 3.50479 12.1638 3.50479 12.2666C3.88048 12.316 4.26507 12.1628 4.58836 12.316C4.30165 12.4723 3.97539 12.3734 3.6867 12.4199V12.5266C3.7391 12.578 3.88048 12.5266 3.835 12.578C3.7391 12.7343 3.45931 12.6334 3.31101 12.7886C3.50479 12.7886 3.6521 12.7886 3.835 12.8954C3.92991 12.9972 4.21564 12.7886 4.26507 12.9537C4.30264 13.2108 3.92892 13.1584 3.7391 13.1584C3.2161 13.1584 2.70101 13.1584 2.18493 13.2108V13.3166C2.36685 13.2622 2.55469 13.2108 2.74254 13.3166C2.32038 13.6339 1.80035 13.4757 1.32678 13.6893C1.61547 13.6893 1.89526 13.6893 2.18493 13.8396C1.89526 14.1075 1.51462 13.9463 1.18441 14.0531C1.84681 14.1599 2.55469 13.9463 3.2161 14.1075C3.2161 14.2083 3.12119 14.1599 3.07472 14.2083C2.88391 14.2607 2.702 14.1589 2.50822 14.2607C2.36685 14.3151 2.22547 14.3675 2.08607 14.3675C2.03663 14.4189 1.98522 14.4743 1.89526 14.4743C2.18493 14.5811 2.41331 14.2607 2.702 14.3675C2.84041 14.4743 3.07472 14.3675 3.03122 14.5257C3.03122 14.6265 2.79691 14.5811 2.702 14.7827C2.84041 14.7827 3.03122 14.7333 3.12119 14.8895C2.74254 15.0971 2.36685 15.0971 1.98522 15.0507C1.56307 14.9439 1.08653 14.9963 0.661412 15.0507C0.803778 15.0971 0.945156 15.0507 1.04007 15.2069C0.852223 15.3651 0.612968 15.4689 0.37569 15.5757C0.494329 15.5724 0.609584 15.5354 0.707879 15.4689C0.754346 15.4689 0.852223 15.5757 0.945156 15.5242C0.945156 15.4689 0.945156 15.4175 0.994589 15.4175C1.18441 15.4175 1.37226 15.3651 1.51462 15.4689C1.41576 15.5757 1.23384 15.4175 1.18441 15.631C1.51462 15.6804 1.98522 15.4175 2.27193 15.6804C1.9961 15.8357 1.69851 15.9474 1.39005 16.0146C0.904622 16.153 0.404361 16.2598 0 16.5742C0.148299 16.5742 0.37569 16.5218 0.476533 16.5218C1.13597 16.413 1.74795 16.3082 2.41331 16.3636C2.55469 16.3636 2.84041 16.3082 2.79691 16.5218C2.702 16.8312 2.36685 16.943 1.98522 16.943C1.98522 16.943 1.98522 17.0448 2.03762 17.0448C2.22547 16.9983 2.41331 17.0448 2.55469 16.943C2.702 16.8886 2.8414 16.8312 2.98179 16.7294C3.1202 16.675 3.2685 16.6286 3.40691 16.675C3.45931 16.7294 3.45931 16.7877 3.45931 16.8312C3.1726 17.1535 2.79691 17.1535 2.41331 17.2574C2.702 17.3641 2.98179 17.1535 3.31101 17.1535C3.59476 17.203 3.835 16.9983 4.16719 17.0448C4.12369 16.943 3.92991 16.9983 3.97638 16.8886C4.07129 16.7304 4.40348 16.3082 4.54782 16.5228C4.6368 16.6286 4.35701 16.7304 4.40348 16.7304C4.73567 17.0992 5.06291 16.4674 5.49298 16.6286V16.5218C5.3516 16.4674 5.21022 16.5742 5.06291 16.4674C5.39807 16.2628 5.82517 16.2628 6.15736 16.0433C6.18109 16.0433 6.14648 16.0344 6.10002 16.0136C6.06245 15.9939 6.01301 15.9711 6.01301 15.9444C6.01301 15.7368 6.19789 15.7803 6.29972 15.7803C6.90874 15.631 7.52764 15.3651 8.09018 15.631C7.76393 15.7378 7.47722 15.8386 7.14898 15.7803C7.29036 15.9939 7.62848 15.631 7.66308 15.9454C7.66776 15.9682 7.66975 15.9914 7.66901 16.0146C7.66012 16.1333 7.50688 16.1926 7.38527 16.159C7.4347 16.4121 7.71449 16.159 7.66209 16.3082C7.66209 16.3636 7.56718 16.5218 7.52764 16.5218C7.29036 16.6286 7.00661 16.4674 6.77033 16.5218C6.44407 16.6286 6.10002 16.4674 5.77574 16.675C5.72433 16.7294 5.77574 16.7877 5.82517 16.7877C5.58591 16.943 5.29624 16.7877 5.11433 17.0448H4.97295C5.29624 17.0992 5.58591 16.9983 5.9181 17.0448L5.87164 17.0992L5.9181 17.1535C5.77574 17.203 5.68379 17.3641 5.53945 17.4106C5.2557 17.466 4.97295 17.3098 4.6892 17.5233C4.92648 17.5777 5.16079 17.466 5.39807 17.5777C5.2557 17.6736 5.06193 17.6271 4.92648 17.6736C4.92648 17.7309 4.92648 17.7804 4.97295 17.7804C5.29624 17.7804 5.68379 17.7309 6.01301 17.8347C5.77574 17.9929 5.49298 18.1521 5.2557 18.2529C5.2557 18.2529 5.21022 18.1521 5.16079 18.1521C4.97295 18.1521 4.82465 18.0433 4.6368 17.9939C4.40348 17.9415 4.16719 18.0433 3.92991 18.0947C3.97638 18.0947 4.07129 18.0948 4.07129 18.1521C4.01988 18.2529 3.88048 18.2065 3.7915 18.2065C3.45931 17.9939 3.07472 18.0947 2.74254 17.9415C2.41331 17.7804 2.03762 17.7309 1.70445 17.8871C1.70445 17.8871 1.46717 17.8871 1.56307 17.9415C1.89526 18.0424 2.32038 17.8347 2.6061 18.0424C2.22547 18.4151 1.65897 18.3083 1.32678 18.6771C1.91955 18.4675 2.54387 18.3611 3.1726 18.3627C3.40691 18.3627 3.6867 18.2539 3.92991 18.4615C3.40592 18.5673 2.98179 18.8303 2.46176 18.9885C2.41232 19.0468 2.41232 19.1467 2.32038 19.202C1.84582 19.3583 1.41576 19.5659 1.04007 19.8348C1.27438 19.8892 1.51462 19.6786 1.74795 19.6786C2.03762 19.6786 2.46176 19.2574 2.74254 19.5204C2.58336 19.7379 2.24524 19.7735 2.09496 20.0098C2.06531 20.0473 2.05146 20.1027 2.03762 20.1482C2.06377 20.093 2.10358 20.0453 2.1533 20.0098C2.19086 19.9811 2.23041 19.9603 2.27193 19.9376C2.50822 19.8882 2.702 19.8338 2.88391 19.6786C2.98278 19.6202 3.12119 19.7211 3.2161 19.6786C3.3644 19.5659 3.50479 19.5204 3.6521 19.465C3.6867 19.465 3.6867 19.5194 3.6867 19.5659C3.6521 19.6786 3.50479 19.6786 3.45931 19.7794C3.59476 19.8882 3.7391 19.6786 3.88048 19.6786C4.12369 19.6786 4.30264 19.3583 4.50235 19.3029C4.92747 19.1477 5.3516 19.1477 5.77574 19.0458C5.9181 19.0458 6.05652 18.9371 6.19789 18.8906C6.72386 18.7838 7.19149 18.7295 7.71449 18.6286C7.95177 18.5673 8.19201 18.4606 8.43127 18.6286C7.86279 18.8906 7.24982 18.9885 6.62895 18.9885C6.48065 19.0468 6.3887 19.2574 6.19789 19.3029C5.58493 19.4097 5.01348 19.4097 4.45588 19.6786C4.73567 19.8338 5.06291 19.5204 5.3516 19.7211C5.3516 19.7794 5.3516 19.8892 5.29624 19.8892C5.09455 19.9495 4.90671 19.9752 4.70403 20.0098C4.58836 20.0335 4.47862 20.0533 4.358 20.1027C4.58836 20.0385 4.87507 19.9376 5.11433 20.1027C5.01348 20.1482 4.97295 20.252 4.92648 20.3617C4.92648 20.4082 5.01348 20.4082 5.06291 20.4082C5.16079 20.3617 5.16079 20.252 5.2557 20.2006C5.44355 20.1017 5.63436 20.1017 5.82517 20.1017C5.87164 20.1017 5.9181 20.2006 5.9181 20.3093C6.08617 20.25 6.23546 20.1136 6.39464 20.0098C6.5063 19.9356 6.63635 19.8938 6.77033 19.8892C7.29036 19.8338 7.76393 19.7794 8.28989 19.7211C8.0012 19.6786 7.76393 19.7794 7.4782 19.6786C7.95276 19.4097 8.47477 19.4097 8.98887 19.2574C9.08774 19.2574 9.23505 19.202 9.18265 19.3029C9.13124 19.5204 8.80696 19.3029 8.66558 19.5659C8.8475 19.6786 9.0472 19.5659 9.23505 19.6202C9.27262 19.6202 9.27262 19.5194 9.32996 19.5194C9.84703 19.465 10.457 19.3029 10.8851 19.6202C10.457 19.7784 9.98544 19.5194 9.56427 19.6202C9.22813 19.7389 8.91374 19.8476 8.53805 20.0127H8.4372C8.35317 20.0385 8.27902 20.0681 8.19201 20.1017H7.86279C7.4347 20.1017 7.00661 20.1017 6.57951 20.252C6.57951 20.252 6.57951 20.3617 6.62895 20.3617C6.15736 20.5199 5.63436 20.7829 5.16079 20.8323C4.82465 20.8323 4.50235 21.1527 4.1227 21.2505C4.35701 21.4068 4.54782 21.1517 4.82465 21.04C4.87408 21.04 4.92648 21.04 4.97295 21.0914C5.01249 21.2505 4.97295 21.3573 4.87408 21.4641C4.82465 21.5679 4.92648 21.6193 4.97295 21.6687C5.06193 21.4641 5.29624 21.2505 5.49298 21.4641C5.53945 21.5135 5.49298 21.6193 5.49298 21.6687C5.68379 21.4068 5.96951 21.1981 6.25326 21.1981C6.34224 21.1981 6.34224 21.3563 6.25326 21.4058C6.48065 21.4058 6.67443 21.2505 6.86623 21.0914C7.00661 21.04 7.14898 21.1981 7.29036 21.0914C7.62848 20.9391 7.95276 20.7829 8.33339 20.7256C8.37689 20.7256 8.37689 20.7829 8.37689 20.8323C8.51827 20.7829 8.66558 20.7256 8.80696 20.7256C8.8475 20.6791 8.94834 20.7256 8.94834 20.6218C8.94834 20.6791 9.13124 20.6791 8.98887 20.7829C9.46837 20.8323 9.93403 20.6791 10.4106 20.6791C10.2287 20.5209 9.98544 20.7256 9.84703 20.5209C9.84703 20.4626 9.84703 20.4082 9.89349 20.4082C10.3641 20.4082 10.8851 20.4626 11.3617 20.4082C11.1244 20.2006 10.7951 20.4082 10.5114 20.3617C10.457 20.3617 10.457 20.3103 10.4106 20.253C10.4889 20.2045 10.5701 20.1609 10.6538 20.1225C11.2054 19.9 11.9252 19.9208 12.4076 19.8892C12.4591 19.8892 12.465 19.9406 12.4591 20.0098C12.4591 20.0533 12.4512 20.1086 12.4512 20.1482C12.3058 20.6218 12.1644 21.0914 11.9766 21.5125C11.7443 21.9881 11.4032 22.4023 10.983 22.7246C10.4106 23.0944 9.80946 23.3742 9.12432 23.4661H1.80133C1.80133 23.6105 1.79837 23.9506 1.80133 24H30.591V23.4661H21.1128ZM22.8696 18.4606C22.9655 18.5219 23.098 18.5219 23.2018 18.6286C23.0545 18.6781 22.8241 18.8303 22.6788 18.6781C22.6393 18.5673 22.8696 18.6781 22.8241 18.5673C22.7747 18.5219 22.6393 18.6286 22.6393 18.5219C22.6788 18.4151 22.7836 18.4171 22.8696 18.4606ZM24.8084 14.5811C25.1346 14.6265 25.5163 14.5811 25.8494 14.7827C25.9008 14.8401 25.8494 14.8895 25.8 14.8895C25.6151 14.8895 25.4559 14.935 25.28 14.8401C25.0951 14.7333 24.9043 14.7827 24.7135 14.6819C24.7629 14.6265 24.7629 14.5811 24.8084 14.5811ZM23.7683 10.4722C23.8118 10.4722 23.8207 10.6511 23.9067 10.5849C24.1005 10.4238 24.2883 10.5849 24.4801 10.6343C24.4801 10.6858 24.664 10.7411 24.5227 10.7925C24.2889 10.8479 24.0455 10.8479 23.8118 10.7925C23.7199 10.7411 23.5775 10.5246 23.7683 10.4722ZM2.88391 13.7328C2.79691 13.4757 3.40691 13.4757 3.6867 13.4757C3.7391 13.4757 3.7391 13.5281 3.7915 13.5281C3.55126 13.7852 3.03122 14.0521 2.88391 13.7328ZM5.29624 15.2553C5.21022 15.5242 4.82564 15.3137 4.58836 15.2059C4.63779 15.0971 4.77917 15.0507 4.82564 15.0971C5.01348 15.0971 5.35753 15.109 5.29624 15.2553ZM5.68379 14.9963C5.58493 14.9963 5.39708 15.0507 5.39708 14.9439C5.3516 14.8401 5.58493 14.7827 5.68379 14.8895V14.9963ZM5.68379 13.891C5.68379 13.9463 5.68379 13.9978 5.63436 13.9978C5.2557 13.9463 4.92648 14.1599 4.54782 13.9978C4.6368 13.9463 4.69019 13.891 4.77917 13.9463V13.8396C4.58836 13.891 4.40348 13.8396 4.21563 13.8396C4.21563 13.9463 4.1662 13.9463 4.12369 13.9978C4.01988 14.0531 4.01988 13.9463 3.97539 13.891C3.97539 13.9463 3.97539 13.9978 3.92991 13.9978C3.88048 13.891 3.83401 14.0531 3.7915 13.9978C3.7391 13.9463 3.6867 13.9463 3.7391 13.891C4.07129 13.6893 4.40348 13.5825 4.77917 13.6339C4.82564 13.6339 4.82564 13.6893 4.82564 13.7328C5.16079 13.7328 5.44355 13.5825 5.77574 13.7328C5.72433 13.7842 5.68379 13.7842 5.63436 13.7842C5.58493 13.8396 5.63436 13.8396 5.68379 13.891ZM16.9495 18.4151C16.8507 18.4151 16.7617 18.4606 16.7152 18.3627C16.7152 18.4151 16.7152 18.4615 16.6658 18.4615H16.2446C16.1922 18.4615 16.1922 18.3627 16.1922 18.3083C16.254 18.245 16.3381 18.2085 16.4265 18.2065C16.565 18.2065 16.6174 18.2529 16.7152 18.3627C16.8082 18.3083 16.9031 18.2539 16.9921 18.3083C16.9921 18.3627 16.9495 18.4151 16.9495 18.4151ZM16.1408 11.8919V11.7911C16.2941 11.7911 16.476 11.6349 16.6174 11.7911C16.476 11.9463 16.3346 11.9463 16.1408 11.8919ZM16.3346 15.631C16.2941 15.6804 16.2446 15.7378 16.1922 15.631C16.1922 15.5242 16.1922 15.3651 16.2941 15.3137C16.3801 15.3137 16.4265 15.5242 16.3336 15.63L16.3346 15.631ZM16.3346 16.6296C16.3801 16.4121 16.6174 16.3626 16.8517 16.4121C16.9031 16.4121 16.9031 16.4674 16.9031 16.5218C16.8517 16.6286 16.739 16.6523 16.6658 16.7294C16.5274 16.8886 16.3801 17.203 16.1922 17.1545C16.0044 17.0992 16.2446 16.8322 16.3346 16.6296ZM16.993 17.4106C16.993 17.466 16.9347 17.4304 16.9041 17.466C16.7617 17.6271 16.6668 17.9415 16.4265 17.7804C16.565 17.5777 16.7152 17.3651 16.9031 17.2574C16.9495 17.2574 16.9921 17.2574 16.9921 17.3098L16.993 17.4106ZM16.8082 14.7333C16.7152 14.6819 16.5828 14.5455 16.7152 14.4743C16.8082 14.4189 16.9495 14.4743 17.0415 14.4743C17.3796 14.3161 17.7098 14.3161 18.039 14.3161C18.0905 14.3161 18.0905 14.3675 18.134 14.4189C18.134 14.4743 18.134 14.5257 18.0905 14.5257C17.8018 14.6265 17.516 14.4189 17.2758 14.5811C17.1344 14.6265 16.993 14.7333 16.8082 14.7333ZM18.134 16.8886C17.8947 16.8886 17.6545 16.943 17.4201 16.8886C17.516 16.675 17.7523 16.7877 17.8482 16.6286C17.9866 16.7294 18.1775 16.5742 18.2813 16.7294C18.3188 16.8312 18.1775 16.8312 18.134 16.8886ZM18.651 18.2065C18.651 18.1521 18.651 18.0947 18.6975 18.0947C18.7469 18.0947 18.7469 18.0849 18.7983 18.0947C19.1285 18.1521 19.4607 18.1521 19.7929 18.3083C19.7435 18.3627 19.6921 18.4606 19.6515 18.4606C19.3678 18.3627 19.1276 18.4151 18.8883 18.3083C18.8389 18.3083 18.6975 18.3083 18.651 18.2065ZM19.7435 19.465H19.4607C19.4607 19.5194 19.4607 19.5659 19.4113 19.5659C19.2205 19.5194 19.0356 19.5659 18.8883 19.465C19.0366 19.1477 19.3164 19.3029 19.5962 19.3029C19.6515 19.3029 19.7445 19.2574 19.7929 19.3583C19.7929 19.4097 19.7929 19.465 19.7435 19.465ZM22.5374 16.8312C22.2458 16.943 21.8236 17.0992 21.6358 16.7877C21.5409 16.675 21.7781 16.6029 21.8236 16.6296C22.0609 16.7294 22.3496 16.5742 22.5374 16.8312ZM22.1677 15.5242C22.2052 15.631 22.0144 15.631 21.8731 15.631C21.6882 15.631 21.4479 15.6804 21.3006 15.5242C21.5903 15.4175 22.0609 15.2069 22.1677 15.5242ZM21.356 14.5257C21.4762 14.6219 21.6243 14.6767 21.7781 14.6819C21.8236 14.6819 21.8731 14.7333 21.8731 14.7827C21.8236 14.8895 21.7287 14.8609 21.6882 14.8401C21.4914 14.7333 21.2581 14.8895 21.1128 14.6819C21.2116 14.6265 21.2581 14.4743 21.356 14.5257ZM20.31 17.1535C20.4484 17.1535 20.5967 17.111 20.7381 17.1535C20.923 17.203 21.1592 17.1535 21.3016 17.3098C21.356 17.3641 21.3016 17.4106 21.2581 17.4106C21.0179 17.3641 20.7836 17.466 20.5522 17.3641C20.4484 17.3641 20.3624 17.3641 20.2665 17.2574C20.2151 17.203 20.2665 17.1535 20.31 17.1535ZM20.31 19.4097C20.1251 19.465 19.9778 19.5194 19.7929 19.465C19.8849 19.4097 19.9778 19.2574 20.0668 19.3029C20.1686 19.3583 20.2665 19.3029 20.31 19.4097ZM19.9778 18.0947C19.7929 18.0424 19.5962 18.1521 19.4607 18.0947C19.4113 18.0424 19.3164 18.0948 19.3164 17.9939C19.3164 17.9415 19.3164 17.9415 19.3678 17.8871C19.4113 17.8347 19.4321 17.9988 19.5042 17.9415C19.6515 17.8347 19.8849 17.8871 20.0322 17.9939C20.0668 18.0433 20.0322 18.0947 19.9778 18.0947ZM19.9778 15.7378C19.9778 15.8386 19.8394 15.7378 19.7929 15.8386C19.7435 15.8881 19.6921 15.8386 19.6921 15.7803C19.7435 15.7378 19.7751 15.6795 19.8849 15.6795C19.9313 15.6795 19.9778 15.7378 19.9778 15.7378ZM19.7435 14.9439C19.7929 14.9439 19.7929 14.9963 19.8394 15.0507C19.8394 15.0971 19.8394 15.1604 19.7929 15.1604C19.6921 15.1604 19.5962 15.0517 19.5042 15.0971C19.2759 15.1604 19.0356 15.0507 18.8389 15.2059C19.0366 15.2553 19.2759 15.1604 19.4607 15.2553C19.0356 15.4689 18.5096 15.631 18.0905 15.5242C18.0554 15.5133 18.0198 15.5043 17.9837 15.4975C17.9985 15.5173 18.0133 15.5499 18.039 15.5766C17.8947 15.6795 17.8018 15.7803 17.6139 15.7803C17.5645 15.7803 17.5645 15.8386 17.5151 15.8386C17.4666 15.8386 17.4666 15.7803 17.4666 15.7378C17.5595 15.5499 17.7207 15.5242 17.8858 15.4896C17.6545 15.4699 17.4172 15.5183 17.2353 15.3137C17.4666 15.0507 17.8018 15.0507 18.0905 15.1604L17.9866 15.2553C18.1775 15.1604 18.4661 15.3137 18.5591 15.0971C18.5986 15.0507 18.3712 15.0507 18.3712 14.9439C18.3712 14.8895 18.5096 14.8401 18.5986 14.8401C18.7983 14.8401 19.0356 14.9439 19.2215 14.9439C19.4113 14.9963 19.5556 14.9439 19.7435 14.9439ZM19.5962 14.2083C19.5962 14.1589 19.5566 14.1589 19.5042 14.1589C19.5042 14.2083 19.5042 14.2607 19.4607 14.2607C19.3164 14.2607 19.2205 14.2083 19.0821 14.1599C18.6975 14.1075 18.3188 14.2093 17.9866 13.9978C18.0905 13.5825 18.4661 13.9463 18.7469 13.7842C18.1775 13.5272 17.516 14.1075 17.0425 13.6893C16.993 13.6339 17.2353 13.6339 17.3252 13.5825C17.2363 13.4757 17.1433 13.5281 17.0425 13.5281C16.993 13.5281 16.993 13.4757 16.9495 13.4757C17.1839 13.2108 17.4201 13.0486 17.7098 12.8954C17.8482 12.7886 18.1775 12.841 18.3712 13.0486C18.1775 13.1584 17.8947 12.9972 17.7523 13.2622C17.7523 13.3166 17.7523 13.4204 17.8018 13.4204C17.9501 13.4204 18.0905 13.366 18.2328 13.366C18.5096 13.4214 18.6975 13.6339 18.9812 13.5281C19.0821 13.4757 19.174 13.3166 19.3164 13.366C19.4607 13.4214 19.4607 13.6339 19.3164 13.6893H19.0821C19.1285 14.0531 19.5962 13.7328 19.7445 14.0531C19.7929 14.1599 19.6515 14.1599 19.5962 14.2083ZM17.8482 10.1548C17.8947 10.057 17.9955 10.0827 18.0905 10.1123C18.2813 10.1548 18.4661 10.0056 18.5996 10.1548C18.4177 10.3743 17.8018 10.5849 17.8482 10.1548ZM20.0668 8.84586C20.31 8.73909 20.7381 8.68768 20.7836 8.95264C20.83 9.00701 20.6056 9.02678 20.4968 9.05644C20.1251 9.16025 19.7435 9.26703 19.3678 9.05644C19.5962 9.00701 19.8394 8.89431 20.1251 8.89431L20.0668 8.84487V8.84586ZM20.83 12.8954C20.83 12.841 20.8824 12.841 20.923 12.7886C20.923 12.841 20.9744 12.8321 21.0179 12.841C21.3006 12.8954 21.5903 12.8954 21.8236 13.0486C21.6358 13.104 21.6882 13.1584 21.5903 13.3166C21.356 13.1584 20.9744 13.2622 20.7836 12.9972C20.7836 12.9537 20.8824 12.9537 20.922 12.9537C20.8824 12.9537 20.83 12.9537 20.83 12.8954ZM20.7836 10.6343C20.7836 10.5849 20.8824 10.5849 20.922 10.5849C20.9744 10.5849 21.3006 10.5849 21.1592 10.7411C21.0703 10.7925 20.8824 10.7411 20.7836 10.6343ZM20.2151 9.42818C20.4484 9.32141 20.6995 9.2433 20.923 9.3738C21.0179 9.42818 21.1128 9.32141 21.2116 9.42818C20.923 9.58636 20.5522 9.58636 20.2151 9.42818ZM20.0668 10.3743C20.1686 10.4238 20.4049 10.4238 20.3624 10.5246C20.2141 10.8479 19.7435 10.5246 19.4607 10.4238C19.6515 10.3199 19.9086 10.2824 20.0668 10.3743ZM19.5032 9.3738C19.5032 9.3214 19.5962 9.32141 19.6515 9.32141V9.42818C19.5962 9.42818 19.5032 9.42818 19.5032 9.3738ZM19.4607 11.2661C19.2205 11.4213 18.9348 11.4796 18.651 11.3669C18.7993 11.3234 18.9348 11.3234 19.0366 11.1593C19.175 11.2661 19.3164 11.1593 19.4607 11.2661ZM19.6921 11.8375C19.6515 11.7911 19.6921 11.7416 19.7435 11.7416C19.7929 11.7416 19.7989 11.707 19.8394 11.7416C20.0322 11.8919 20.31 11.6843 20.4978 11.8919C20.4978 11.9463 20.4978 11.9987 20.4484 11.9987C20.2151 11.8919 19.9313 12.0531 19.6921 11.8375ZM19.8394 13.2622C19.7929 13.1584 19.8967 12.9972 20.1686 12.9972C20.2151 12.9972 20.2151 13.0486 20.2675 13.0486L20.2151 13.104C20.4049 13.1584 20.6451 13.104 20.83 13.3166C20.8824 13.366 20.83 13.4214 20.7836 13.4214C20.4484 13.4214 19.9778 13.5825 19.8394 13.2622ZM20.6451 13.6893C20.5522 13.6893 20.3624 13.7328 20.2665 13.5825C20.6946 13.4757 21.1128 13.4757 21.5409 13.4757C21.6882 13.4757 21.8731 13.4757 22.0154 13.5825C21.5903 13.9463 21.1128 13.6893 20.6451 13.6893ZM22.3931 12.6334C22.3931 12.6848 22.3931 12.7343 22.3496 12.7343C21.8731 12.7343 21.356 12.841 20.8824 12.578C21.0179 12.4199 21.2581 12.6334 21.3995 12.4199C21.4914 12.316 21.6625 12.4663 21.8246 12.4199C22.0144 12.3734 22.3011 12.3734 22.3931 12.6334ZM21.7781 8.7381C21.7317 8.7381 21.6882 8.7381 21.6882 8.68669C21.832 8.58567 22.0238 8.58567 22.1677 8.68669C22.1163 8.79939 22.0144 8.73909 21.9166 8.73909C22.3011 8.95264 22.7193 8.58584 23.0545 8.79841C22.7193 8.89431 22.3931 8.92693 22.0144 9.00701C21.7772 9.05645 21.6882 8.84586 21.4914 8.79939C21.5903 8.63824 21.6882 8.84586 21.7781 8.73909V8.7381ZM21.4479 9.16025C21.4479 9.21166 21.4479 9.26703 21.3985 9.26703C21.1128 9.11082 20.83 9.42818 20.5522 9.21166C20.7381 9.05645 20.9714 9.05644 21.2116 9.05644C21.3006 9.05644 21.3985 9.05645 21.4479 9.16025ZM19.5962 8.42964C20.1686 8.53147 20.6936 8.37526 21.2116 8.53147C21.0703 8.79841 20.83 8.53147 20.6451 8.63824C20.5522 8.68768 20.4049 8.79939 20.31 8.73909C20.0668 8.58584 19.7929 8.63824 19.5556 8.53147C19.5042 8.48204 19.5556 8.42964 19.5962 8.42964ZM18.8883 7.5873C19.0821 7.6397 19.2759 7.68814 19.4113 7.79492C19.3678 7.85621 19.3678 7.89675 19.3164 7.89675C19.0821 7.85621 18.7983 7.95607 18.5996 7.74351C18.6985 7.68814 18.741 7.54775 18.8883 7.5873ZM17.4201 6.16858C17.8947 6.16858 18.3712 6.01039 18.7983 6.31786C18.8389 6.38213 18.7983 6.4276 18.7469 6.4276C18.5096 6.4276 18.2328 6.21702 17.9866 6.38213C17.7098 6.53735 17.3252 6.38213 16.993 6.38213C16.9495 6.38213 16.9495 6.27239 16.9495 6.21702C17.0909 6.06477 17.2758 6.16858 17.4201 6.16858ZM17.4201 7.95706C17.516 7.95706 17.6545 7.95706 17.6139 8.0579C17.5645 8.37526 17.1344 8.21905 16.9495 8.1103C17.0909 8.0579 17.2363 7.95706 17.4201 7.95706ZM17.1829 10.9487C17.2353 11.0001 17.3252 11.0001 17.3806 11.1099C17.3806 11.1593 17.3806 11.2137 17.3252 11.2137C17.1839 11.2661 16.993 11.3551 16.9495 11.2137C16.9031 11.0555 17.0899 10.9487 17.1829 10.9487ZM16.9495 12.0531L16.9031 12.1055H16.8082C16.7617 12.0531 16.8082 11.9987 16.8517 11.9987C16.9031 11.9987 16.9495 11.9987 16.9495 12.0531ZM17.0425 4.11711C17.0919 4.11711 17.1512 4.10228 17.1839 4.16951C17.2353 4.27629 17.4211 4.16951 17.4666 4.27629C17.3252 4.32176 17.0909 4.43447 16.9495 4.32176C17.0425 4.27629 16.9495 4.16951 17.0425 4.11711ZM16.6668 4.21796C16.7162 4.27629 16.7617 4.32176 16.6668 4.38207C16.565 4.38207 16.4265 4.43447 16.4265 4.32275C16.3801 4.21796 16.5887 4.14282 16.6668 4.21796ZM16.9041 4.53531C16.9495 4.53531 16.993 4.4839 17.0425 4.43447C17.0919 4.43447 17.1344 4.4839 17.0919 4.53531C16.9041 4.69745 16.565 4.74293 16.3346 4.64802C16.476 4.43447 16.7053 4.53531 16.9041 4.53531ZM16.476 7.85621C16.6174 7.85621 16.7627 7.85622 16.8517 7.95706C16.7152 8.0579 16.5274 8.21905 16.3346 8.16468C16.2941 8.16468 16.2941 8.1103 16.2941 8.0579C16.3336 8.00847 16.3336 8.00847 16.3801 7.95706C16.3346 7.95706 16.1922 8.00847 16.1922 7.89675C16.2446 7.79492 16.3801 7.85621 16.476 7.85621ZM16.6174 9.58636C16.6668 9.64173 16.6174 9.6882 16.565 9.6882H16.1922C16.1408 9.6882 16.1408 9.64173 16.0973 9.64173C16.1922 9.48058 16.476 9.48058 16.6174 9.58735V9.58636ZM15.953 3.90158C16.0044 3.90158 16.0044 3.95596 16.0044 4.01627C15.8571 4.16951 15.6257 4.32275 15.4359 4.16951C15.5308 4.01627 15.6732 4.06768 15.7681 3.95596C15.8116 3.9006 15.9095 4.01627 15.953 3.90158ZM15.337 3.90158H15.4359C15.4873 3.90158 15.6257 3.79975 15.6257 3.90158C15.5714 4.01627 15.4359 4.16852 15.2935 4.01627C15.2935 3.95596 15.2935 3.90158 15.337 3.90158ZM13.775 4.21796C14.205 4.16852 14.5807 4.16852 14.9643 4.32176C14.9179 4.4839 14.7705 4.43447 14.6776 4.43447C14.5313 4.4839 14.3899 4.53531 14.2999 4.4839C14.1615 4.38207 14.0577 4.32176 13.9213 4.32176C13.9213 4.43447 13.8748 4.4839 13.8204 4.4839C13.4972 4.53531 13.158 4.53531 12.8753 4.38207C13.159 4.27629 13.4972 4.25849 13.775 4.21796ZM13.8748 8.42964C13.8748 8.48203 13.8204 8.53147 13.8204 8.53147C13.685 8.42964 13.4013 8.48203 13.4448 8.26848C13.4448 8.16468 13.5921 8.1103 13.7275 8.1103C13.8758 8.1103 13.9213 8.21905 13.9678 8.26848C13.9678 8.37526 13.8195 8.32088 13.774 8.32088C13.8204 8.37526 13.8204 8.37526 13.8748 8.42964ZM13.3548 6.11321C13.3548 6.06378 13.4972 6.0094 13.4972 6.11321C13.4972 6.16858 13.3548 6.16858 13.3548 6.11321ZM13.7275 8.79939C13.774 8.84586 13.7275 8.89431 13.685 8.89431C13.5426 8.89431 13.4448 8.89431 13.2974 8.79939L13.2104 8.89431C13.1116 8.84487 13.0226 8.73909 13.0226 8.63725C13.0226 8.53147 13.1709 8.56014 13.251 8.58584C13.4448 8.63824 13.5921 8.68669 13.7275 8.79939ZM13.1126 9.48058C13.1126 9.42818 13.1126 9.3738 13.159 9.3738C13.2104 9.3738 13.1907 9.42818 13.251 9.42818C13.2974 9.42818 13.2974 9.48058 13.3548 9.48058C13.251 9.58735 13.2104 9.58735 13.1126 9.48058ZM13.0661 14.7333C13.0226 14.7333 13.0226 14.6819 13.0226 14.6265C13.0226 14.5811 13.0661 14.5811 13.0661 14.5257C13.159 14.5811 13.159 14.6819 13.0661 14.7333ZM12.8318 6.95851C12.7774 7.00795 12.7339 7.11176 12.6874 7.11176C12.4937 7.11176 12.3523 7.26697 12.2129 7.32234C12.1644 7.32234 12.1644 7.21556 12.0784 7.21556C11.7828 7.21556 11.4536 7.26697 11.1738 7.05936C11.4081 6.85174 11.7027 7.05936 11.9766 6.95851C12.2139 6.85174 12.552 6.80329 12.8318 6.95851ZM10.2494 14.151C10.0023 14.2701 9.70769 14.2279 9.50396 14.0442C9.59887 13.9315 9.74322 14.0442 9.83319 14.0956C10.021 14.1362 10.1535 13.9434 10.287 13.972C10.5341 13.8653 10.7981 13.8099 11.0779 13.7328C11.2203 13.7328 11.3152 13.8396 11.4081 13.9463C11.0057 13.9918 10.6419 14.1915 10.2494 14.151ZM10.5608 14.6819C10.3065 14.9175 9.91355 14.9175 9.65918 14.6819C9.75212 14.5811 9.89349 14.6819 9.98544 14.7333C10.2286 14.7827 10.3641 14.4743 10.5608 14.6819ZM8.57067 14.0531C8.47477 14.0531 8.28989 14.1075 8.28989 13.9978C8.33339 13.7328 8.66558 13.8396 8.8475 13.7842C9.13124 13.6893 9.3616 13.7328 9.70268 13.7328C9.75212 13.7328 9.75212 13.7842 9.80155 13.7842C9.41993 13.9978 8.98887 13.891 8.57067 14.0531ZM11.1738 12.1055C11.1244 12.1055 11.0255 12.0531 11.0255 11.9987C11.0255 11.8919 11.1244 11.7911 11.2203 11.8375C11.3152 11.9463 11.4081 12.1045 11.506 12.2666C11.506 12.316 11.506 12.3734 11.4536 12.3734C11.3617 12.3734 11.3152 12.316 11.2658 12.2666V12.1628C11.2658 12.1055 11.2203 12.1055 11.1738 12.1055ZM9.65918 7.00795C10.0349 6.85174 10.457 6.95851 10.8446 7.11176C10.7951 7.32234 10.6043 7.26697 10.4106 7.26697C10.1772 7.26697 9.98544 7.32234 9.75212 7.21556C9.84703 7.11176 9.98643 7.16613 10.1337 7.11176C9.98544 7.05936 9.80155 7.16613 9.65918 7.00795ZM11.1244 7.95706C11.2203 8.00847 11.1244 8.16468 11.1738 8.21905C11.2658 8.26849 11.4477 8.18445 11.506 8.32088C11.5495 8.42964 11.4071 8.42964 11.3617 8.48203C11.1738 8.37526 10.8851 8.63824 10.7952 8.48203C10.6538 8.26849 10.8841 8.42964 10.983 8.32088C10.5608 8.16468 10.1327 8.26849 9.70268 8.16468C10.1772 8.1103 10.6538 7.95706 11.1244 7.95706ZM11.7828 9.3738C11.7828 9.42818 11.7255 9.45389 11.7027 9.42818C11.5495 9.32141 11.3617 9.26703 11.2658 9.11181C11.2658 9.05645 11.2658 9.00701 11.3152 9.00701C11.506 9.00701 11.7344 9.16124 11.7828 9.3738ZM9.89448 9.84935C9.98643 9.64173 10.2751 9.7485 10.5124 9.84935C10.4106 9.94821 10.3216 10.0056 10.2751 10.1123C10.1337 10.1548 9.84703 9.94722 9.89349 9.84935H9.89448ZM10.6538 11.1593C10.5124 11.2661 10.4195 11.3669 10.2751 11.3669H10.1337C10.0754 11.3669 10.0349 11.3234 10.0754 11.2661C10.2286 11.1099 10.5124 11.0001 10.6538 11.1593ZM10.5608 10.1113C10.7457 9.94722 11.0255 10.0056 11.2658 10.1113C11.0265 10.319 10.7457 10.2132 10.5608 10.1113ZM11.506 13.3166C11.3617 13.4214 11.2193 13.5281 11.0265 13.5281C10.7457 13.5281 10.5124 13.7328 10.2287 13.6339C10.3641 13.367 10.6538 13.5281 10.8446 13.367C10.983 13.2108 11.2658 13.2622 11.506 13.3176V13.3166ZM11.4536 14.8885C11.4536 14.9439 11.6444 14.9439 11.506 15.0507C11.4071 15.0971 11.2658 14.9874 11.2658 15.0971V15.2059C11.0779 15.2553 10.7951 15.3651 10.6528 15.1604C10.8851 14.8895 11.1738 14.9439 11.4536 14.8895V14.8885ZM12.0231 16.2628C11.8876 16.5218 11.6039 16.2044 11.4536 16.4121C11.3617 16.2628 11.1738 16.4674 11.0779 16.3082C11.3152 16.1006 11.7344 16.2044 12.0231 16.2628ZM11.8876 11.8919C11.8382 11.8919 11.7344 11.9463 11.7027 11.8375C11.7027 11.7911 11.7027 11.7416 11.7344 11.7416C11.7838 11.7416 11.7976 11.707 11.8382 11.7416C11.8876 11.7911 12.0231 11.8375 11.8876 11.8919ZM12.3058 12.1055C12.1644 12.1628 12.0784 12.2093 11.9301 12.1055C12.0784 11.9987 12.1644 11.9987 12.3058 12.1055ZM11.8876 14.7827C12.0231 14.8401 12.2979 14.8371 12.2633 15.0507C12.2139 15.3137 11.8876 15.2069 11.7027 15.0507C11.7344 14.9439 11.7828 14.7827 11.8876 14.7827ZM12.4076 15.5242C12.4512 15.5757 12.4937 15.7378 12.4076 15.7378C12.2139 15.7803 11.9311 15.7378 11.9311 15.5757C11.9311 15.3651 12.286 15.3858 12.4076 15.5242ZM11.7344 16.5228C11.9311 16.5228 12.2139 16.4674 12.4067 16.5228C12.4937 16.5742 12.552 16.7877 12.4512 16.8886C12.1644 16.5228 11.7027 16.7304 11.2658 16.7304C11.1738 16.7304 11.1244 16.675 11.0779 16.6286C11.2658 16.4674 11.5495 16.5228 11.7344 16.5228ZM12.4937 16.943C12.4937 16.9983 12.552 17.0992 12.4512 17.1535C12.4076 17.1535 12.3523 17.0992 12.2633 17.0992C12.2139 17.0992 12.2139 17.0448 12.1644 16.9983C12.2633 16.943 12.4076 16.943 12.4937 16.943ZM11.4081 11.1593C11.6039 11.1099 11.85 10.8014 11.9766 10.9487C12.0231 11.0001 12.1644 10.8993 12.2139 10.9487C12.3058 11.1099 12.4512 11.0555 12.5896 11.1593C12.641 11.2137 12.5896 11.2661 12.552 11.2661C12.1644 11.2661 11.7828 11.3234 11.4081 11.1593ZM12.1644 9.58735C12.0784 9.58735 12.115 9.3738 12.0231 9.32141C12.1644 9.21265 12.3266 9.19486 12.4512 9.26703C12.552 9.3214 12.6884 9.32141 12.7774 9.42818C12.641 9.6882 12.3523 9.48058 12.1644 9.58636V9.58735ZM12.2139 4.90507C12.2633 4.90507 12.2633 4.96439 12.3058 4.96439C12.2139 5.06029 12.116 5.06029 12.0784 4.96439C12.0784 4.90507 12.1644 4.90507 12.2139 4.90507ZM11.2203 4.4839C11.3617 4.4839 11.4536 4.52147 11.6039 4.4839C11.7828 4.43447 11.9301 4.4839 12.0784 4.53531C11.9301 4.59266 11.8876 4.69745 11.7828 4.74293C11.6049 4.85267 11.3617 4.69745 11.1738 4.59266C11.1738 4.53531 11.1738 4.4839 11.2203 4.4839ZM10.8446 4.59266H11.0265C11.0779 4.59266 11.0779 4.64802 11.0779 4.69745C10.983 4.7983 10.7952 4.86157 10.7952 4.69745C10.7952 4.64802 10.8446 4.59266 10.8446 4.59266ZM10.6538 5.6347C10.8446 5.58527 11.0265 5.6347 11.2203 5.69501C11.0779 5.79585 10.9425 5.69501 10.7952 5.79585C11.0265 5.79585 11.2658 5.6347 11.4536 5.90856C11.1244 6.06477 10.7457 6.06477 10.3641 5.94811C10.2286 5.94811 10.1337 5.90856 9.98643 6.0094C9.93403 5.84825 9.89349 5.79585 9.75212 5.74741C10.0349 5.58527 10.376 5.72071 10.6538 5.6347ZM10.2287 6.73903C10.6043 6.63819 11.0265 6.63819 11.4081 6.73903C11.4081 6.6896 11.4081 6.63819 11.4536 6.63819C11.6444 6.63819 11.9311 6.48297 12.0231 6.73903C12.0784 6.90117 11.8876 6.85174 11.8382 6.85174C11.0779 6.95851 10.3216 6.95851 9.56427 6.90117C9.75212 6.63819 9.98643 6.80231 10.2287 6.73903ZM10.1337 10.8479C10.0349 10.9487 9.93403 10.9487 9.80155 10.9487C9.66822 10.9453 9.53753 10.9108 9.41993 10.8479C9.64589 10.7411 9.90778 10.7411 10.1337 10.8479ZM10.0349 12.316C9.75212 12.4723 9.32996 12.4723 8.98887 12.3734C9.08774 12.1628 9.22912 12.2093 9.37346 12.2093C9.61074 12.2093 9.84703 12.1055 10.0349 12.316ZM8.76049 8.48203V8.58584C8.51827 8.68669 8.23552 8.79939 7.95177 8.63824C8.19201 8.48203 8.47576 8.58584 8.76049 8.48203ZM8.71106 9.94722L8.66558 10.0056C8.89989 10.2132 9.18265 9.84935 9.37346 10.057C9.37346 10.1123 9.25186 10.0629 9.23505 10.1123C9.0472 10.5246 8.51827 10.3743 8.19201 10.2676C8.04965 10.2132 7.86279 10.2132 7.71449 10.1123C8.0012 9.94723 8.37689 9.79497 8.71205 9.94722H8.71106ZM7.19149 10.4238C7.33979 10.3743 7.43174 10.4238 7.56718 10.4238C7.81039 10.4238 8.0012 10.3199 8.23552 10.3743C8.28989 10.4238 8.33339 10.5246 8.43127 10.5849C8.3324 10.7411 8.14258 10.5849 8.0012 10.6343V10.7925C7.66308 11.0001 7.38527 10.6858 7.10153 10.5246C7.14898 10.4722 7.14898 10.4238 7.19149 10.4238ZM7.10251 11.8375C7.19149 11.7911 7.24983 11.8919 7.29036 11.9463C7.29036 11.9987 7.29036 12.1045 7.24982 12.1045C7.10153 12.1045 6.95817 12.1638 6.81679 12.0531C6.90874 11.9987 7.00661 11.8919 7.10251 11.8375ZM6.8158 13.1584C7.71548 13.104 8.61318 13.0496 9.5178 12.9972C9.27262 12.841 8.98887 12.9972 8.76049 12.9537C8.76049 12.9537 8.57067 12.841 8.71106 12.7886C9.37346 12.578 10.0873 12.7085 10.7952 12.578C11.0779 12.5266 11.3617 12.6334 11.4536 12.8954C11.5495 13.103 11.2658 12.9972 11.2203 12.9972C10.7457 13.0486 10.2286 12.841 9.80155 13.104C10.0754 13.0486 10.3651 13.0486 10.6538 13.1584C10.6538 13.1584 10.8446 13.2622 10.6973 13.2622C10.1337 13.366 9.60975 13.4757 9.08774 13.4757C8.8475 13.5281 8.57067 13.4214 8.33339 13.367C7.71449 13.3176 7.05012 13.3176 6.44407 13.3176C6.53601 13.1584 6.72386 13.1584 6.81679 13.1584H6.8158ZM8.0012 13.6893C7.9053 13.7328 7.86279 13.7842 7.76393 13.7842C7.71449 14.2093 7.24982 13.9978 7.00661 14.2093C6.86524 14.2607 6.86524 14.0531 6.76934 13.9978C6.90874 13.891 7.10252 13.9463 7.29036 13.891C7.38527 13.891 7.33979 13.7328 7.33979 13.7328C7.00661 13.6339 6.67443 13.8396 6.34224 13.7328C6.29874 13.6893 6.15736 13.5825 6.25326 13.5825C6.95817 13.4214 7.66308 13.366 8.37689 13.5825V13.6893C8.23552 13.6893 8.09018 13.6339 8.0012 13.6893ZM6.05652 17.6271C5.96951 17.6271 5.96951 17.466 5.9181 17.3641C5.9181 17.203 6.12572 17.1367 6.19789 17.203C6.3887 17.3641 6.53601 17.2574 6.72386 17.2574C6.90874 17.3098 7.14898 17.0992 7.33979 17.0448C7.4347 17.0448 7.52764 17.0992 7.62848 17.1535C7.71449 17.1535 7.86279 17.0448 7.95177 17.1535C7.38527 17.6271 6.72386 17.5233 6.05652 17.6271ZM7.81039 17.9415C7.76393 17.9415 7.76393 18.0424 7.76393 18.0947C7.58154 18.2309 7.33137 18.2309 7.14898 18.0947C6.95817 17.9939 6.81679 18.2529 6.62895 18.0424C7.19248 17.8347 7.81039 17.7804 8.37689 17.5777C8.66558 17.466 8.98986 17.4106 9.32996 17.5777C8.86144 17.8231 8.33925 17.9481 7.81039 17.9415ZM9.32996 16.7294C8.98887 16.8886 8.61318 16.8312 8.23552 16.8312C7.66209 16.7294 7.19149 16.9983 6.62895 17.1535C6.57951 17.1535 6.53601 17.0448 6.53601 17.0448C6.67443 16.8312 6.90874 16.8886 7.10251 16.7877C7.14898 16.7294 6.90874 16.7294 6.90874 16.7294C7.14898 16.5218 7.4347 16.675 7.66308 16.6286L7.62848 16.5218C7.62848 16.413 7.76393 16.413 7.81039 16.3636C8.04965 16.3082 8.28989 16.413 8.51827 16.3082C8.61318 16.2044 8.71205 16.0433 8.8475 15.9939H9.13124L9.18265 16.1006C9.08774 16.2628 8.94834 16.2628 8.80696 16.3636C8.8475 16.3636 8.8475 16.413 8.8475 16.4674C8.94834 16.4674 9.0472 16.4674 9.13124 16.3636C9.27262 16.3082 9.32996 16.4674 9.41993 16.5742C9.46936 16.6286 9.37346 16.675 9.33095 16.7294H9.32996ZM9.70268 15.9454C9.65918 15.8386 9.51781 15.8871 9.46837 15.8871C9.0472 15.7378 8.61318 15.9454 8.23552 16.0433C8.09018 16.1006 7.81039 16.2044 7.76393 16.0433C7.71449 15.8386 8.0012 15.9444 8.14258 15.7803C8.23552 15.7378 8.43127 15.8386 8.51827 15.7803C8.98887 15.5757 9.46837 15.5757 9.93403 15.6795C10.4106 15.7378 10.9425 15.7378 11.3617 16.0433C11.0779 16.159 10.8446 16.159 10.5608 16.159C10.4106 16.159 10.3641 15.9454 10.2287 15.8871C10.0349 15.8871 9.84703 15.8376 9.70268 15.9454ZM12.552 19.3583C12.4512 19.5659 12.2633 19.4097 12.116 19.465C11.9776 19.5194 11.7027 19.6529 11.7027 19.465C11.7027 19.4097 11.7344 19.3029 11.7828 19.3029C11.9311 19.3029 12.0231 19.2574 12.116 19.202C12.2633 19.202 12.4076 19.0933 12.551 19.202L12.552 19.3583ZM12.5896 18.0433C12.552 18.1521 12.3523 18.2065 12.3058 18.0947C12.3058 17.9939 12.3523 17.8871 12.4076 17.7804C11.8876 17.8347 11.4081 17.7804 10.8851 17.8871C10.6043 17.9939 10.2603 18.0849 10.0754 17.8871C10.0359 17.8347 9.89349 17.7804 10.0359 17.7309C10.5124 17.5777 11.1244 17.9939 11.4081 17.466C11.7838 17.5777 12.1644 17.3641 12.4937 17.5777C12.642 17.6271 12.642 17.8881 12.5896 18.0433ZM12.641 10.2676C12.7339 10.2132 12.9099 10.3199 12.9247 10.3743C12.9742 10.5246 12.7764 10.3743 12.6874 10.4238C12.6874 10.3743 12.4937 10.3199 12.641 10.2676ZM12.7774 13.8396L12.8318 13.891C13.0661 14.0531 13.1126 14.4189 12.8753 14.4189C12.7764 14.4189 12.642 14.0531 12.7774 13.8396ZM12.9742 14.9439C12.9742 14.8401 13.0661 14.8401 13.159 14.9439C13.0661 14.9963 12.9742 15.0507 12.9742 14.9439ZM13.2114 15.631C13.0998 15.5164 13.0331 15.3656 13.0236 15.2059C13.0236 15.1604 13.1126 15.1604 13.159 15.1604C13.2104 15.1604 13.1907 15.2098 13.2104 15.2553C13.251 15.3651 13.2984 15.5242 13.2114 15.631ZM13.4013 11.0555C13.2974 11.1099 13.1126 10.8479 13.2974 10.7411C13.2974 10.7411 13.3815 10.747 13.4013 10.7925C13.4448 10.8993 13.4972 11.0555 13.4013 11.0555ZM13.5426 16.9973C13.4972 16.9973 13.4972 16.943 13.4972 16.8886C13.4972 16.8312 13.5426 16.8312 13.5426 16.7877C13.6316 16.8312 13.6316 16.943 13.5426 16.9983V16.9973ZM13.8748 10.057C13.774 10.1123 13.7275 10.0056 13.685 9.94821C13.685 9.89878 13.774 9.89878 13.8204 9.89878C13.8748 9.89878 13.8748 9.94821 13.9213 9.94821C13.9213 10.0056 13.9213 10.057 13.8748 10.057ZM13.8748 9.3738C13.8748 9.3214 13.7275 9.32141 13.8204 9.21166C13.9213 9.11082 14.0577 9.16025 14.0577 9.26703C14.0577 9.3214 13.9678 9.42818 13.8748 9.3738ZM14.3889 15.6795C14.2505 15.3137 14.3464 14.8885 14.2505 14.4733C14.2505 14.3675 14.3889 14.4189 14.4354 14.4189C14.5313 14.4189 14.6292 14.5257 14.6292 14.5811C14.5797 14.9439 14.6786 15.4175 14.3899 15.6795H14.3889ZM14.205 13.1584C14.2505 13.104 14.2505 12.9972 14.3464 13.0496C14.3899 13.0496 14.4304 13.1238 14.3899 13.1584C14.3464 13.2108 14.3464 13.2622 14.2999 13.2622C14.2505 13.2622 14.2505 13.2108 14.205 13.1584ZM14.0567 12.7343C14.0202 12.6848 14.0567 12.6334 14.1091 12.6334C14.205 12.6334 14.3464 12.578 14.4354 12.6848C14.4354 12.6848 14.4908 12.6334 14.5313 12.6334C14.5807 12.6848 14.6302 12.7343 14.6786 12.7886C14.5303 12.9537 14.2031 12.8954 14.0567 12.7343ZM14.205 11.3669C14.205 11.2661 14.4097 11.1821 14.4908 11.2661C14.5303 11.3234 14.4908 11.4213 14.4354 11.4213H14.7221C14.7715 11.4213 15.0543 11.4796 14.9179 11.5281C14.7705 11.6349 14.4908 11.4787 14.3464 11.6349C14.3464 11.5281 14.205 11.6349 14.205 11.5281C14.205 11.4826 14.205 11.4361 14.2307 11.4272C14.2159 11.4164 14.205 11.4015 14.205 11.3669ZM14.5807 8.26848C14.5807 8.37526 14.3464 8.42964 14.205 8.37526C14.2505 8.32088 14.2999 8.21905 14.3899 8.21905C14.4908 8.21905 14.6292 8.16468 14.5807 8.26848ZM14.3899 7.00795H14.4908L14.4354 7.05936L14.3899 7.00795ZM14.6292 10.7925C14.6786 10.7411 14.7705 10.7411 14.82 10.7411C14.82 10.7866 14.988 10.842 14.8803 10.8904C14.9327 10.9082 14.9643 10.9458 14.9643 11.0001C14.9643 11.1099 14.82 11.1583 14.7221 11.1583C14.6292 11.1583 14.5807 10.9487 14.7221 10.8993C14.7419 10.8855 14.7597 10.8795 14.7765 10.8736C14.7214 10.8592 14.6708 10.8313 14.6292 10.7925ZM14.4354 10.1123C14.4354 10.057 14.2505 10.0056 14.3899 9.94722C14.2999 9.84935 14.2999 9.6882 14.3899 9.64173C14.4908 9.64173 14.5807 9.58735 14.6786 9.6882C14.7221 9.74752 14.8605 9.79497 14.8605 9.84935C14.7715 10.0056 14.5313 9.79497 14.3899 9.94821C14.4908 9.94821 14.6292 9.89878 14.7221 10.0056C14.7221 10.057 14.7221 10.1123 14.6786 10.1123H14.4354ZM14.5797 11.0555C14.5797 11.1099 14.5797 11.1593 14.5303 11.1593C14.4354 11.1593 14.2999 11.2137 14.2505 11.1099C14.2505 11.0011 14.3889 11.0011 14.4908 11.0011C14.5303 11.0011 14.5303 11.0555 14.5797 11.0555ZM15.0078 10.057C14.9188 10.1123 14.82 10.1558 14.7211 10.057C14.82 9.94821 14.9188 9.94821 15.0078 10.057ZM14.9188 10.4722C14.8605 10.3743 14.6786 10.3199 14.7211 10.1558C14.7705 10.1123 14.82 10.1558 14.82 10.2132C14.82 10.1548 14.8605 10.1548 14.9188 10.1548C15.0078 10.2132 15.0543 10.3199 15.0078 10.4238C15.0078 10.4238 14.9643 10.4732 14.9188 10.4732V10.4722ZM14.3899 9.32141C14.3464 9.32141 14.3464 9.26703 14.3464 9.21265C14.4908 9.00701 14.7715 9.11082 14.9643 9.11082C15.0078 9.11082 15.0078 9.16025 15.0533 9.16025C14.8605 9.3738 14.6292 9.32141 14.3899 9.32141ZM14.7221 7.21556C14.6292 7.16613 14.5313 6.95851 14.6786 6.85174C14.7221 6.85174 14.7854 6.8547 14.9179 6.90117C15.0543 6.95851 15.1522 6.90117 15.1957 7.05936C15.2421 7.16613 15.1522 7.16613 15.1008 7.21556C14.98 7.26786 14.8429 7.26786 14.7221 7.21556ZM14.7715 8.89431C14.7715 8.95264 14.9643 9.00701 14.821 9.05644C14.6859 9.05404 14.5534 9.01838 14.4354 8.95264C14.5313 8.84586 14.6786 8.89431 14.7715 8.89431ZM14.2505 10.6858H14.3464C14.3464 10.7411 14.5372 10.8479 14.3899 10.8479C14.3464 10.8479 14.2515 10.8993 14.205 10.7925C14.205 10.7411 14.205 10.6858 14.2505 10.6858ZM14.6786 12.1628C14.6786 12.0541 14.8605 11.9987 14.9179 12.1055C14.9643 12.2093 14.9179 12.4199 14.82 12.4199C14.7211 12.4723 14.6786 12.2666 14.6786 12.1628ZM14.9653 18.1521C14.8605 17.7804 14.7478 17.2841 15.0078 16.9983C15.0543 16.943 15.1522 16.9983 15.1522 17.0448C15.1008 17.4106 15.1532 17.8357 14.9653 18.1521ZM15.1532 16.0433C15.1008 15.9939 15.0543 15.9939 15.0543 15.9444C15.1532 15.6795 14.9653 15.3651 15.2421 15.2069C15.337 15.4689 15.2935 15.7803 15.1532 16.0433ZM15.3835 14.8401C15.337 14.8895 15.2945 14.9439 15.2421 14.9963C15.1957 14.9963 15.1532 14.9963 15.1532 14.9439C15.1532 14.7827 15.1532 14.5811 15.2935 14.5811C15.3034 14.5692 15.3232 14.5692 15.3232 14.5692L15.2935 14.5257L15.337 14.4743V14.5692C15.4497 14.5692 15.4992 14.7195 15.3835 14.8401ZM13.9678 5.1641C14.0202 5.1641 14.0202 5.21947 14.0202 5.27088H14.3899C14.3899 5.21947 14.3899 5.1641 14.4354 5.1641C14.4908 5.1641 14.5313 5.27088 14.5313 5.27088C14.6786 5.1641 14.8605 5.27087 14.9643 5.37765C14.6776 5.58527 14.3464 5.37765 14.0577 5.37765C13.8204 5.37765 13.5436 5.42708 13.2965 5.27088C13.6326 5.00592 14.0202 5.00592 14.3899 5.00592C14.82 5.00592 15.1957 4.90507 15.6257 5.00592C15.1008 5.32229 14.5313 5.00592 13.9678 5.1641ZM16.1408 19.6776C15.8116 19.5194 16.1408 19.0468 16.0973 18.6771C16.1408 18.6771 16.1408 18.4606 16.2446 18.6276C16.2446 18.6771 16.2446 18.6771 16.1922 18.7295C16.1922 18.7838 16.2021 18.7987 16.2446 18.8303C16.2941 18.8906 16.3801 18.8906 16.3801 18.9371C16.3801 19.0923 16.4265 19.1477 16.3801 19.2574C16.3346 19.4097 16.1922 19.7221 16.1408 19.6786V19.6776Z" fill="white"/>
</svg>
