<svg xmlns="http://www.w3.org/2000/svg" width="106" height="24" fill="none"><path fill="#00286A" d="M58.78 8.91c0 1.2-1.274 2.449-3.454 3.746-.074.05-.122.05-.147.025l-.048-.049c-.025-.024-.074-.074-.025-.122.809-.931 1.2-1.813 1.2-2.45 0-.538-.368-.808-.881-.808-1.053 0-2.033 1.103-2.572 3.33l-.98 3.992c-.024.074-.074.074-.098.074h-2.743c-.048 0-.098 0-.073-.098l2.228-8.935c.025-.074.074-.074.099-.074h3.012c.048 0 .074.049.048.098l-2.082 3.155c-.048.074-.024.099.025.123l.048.024c.049.025.074.025.147-.074l.882-1.15c1.2-1.568 2.13-2.416 3.575-2.416 1.151 0 1.837.677 1.837 1.608h.001ZM34.72 7.302c-3.56 0-6.08 2.728-6.08 5.63 0 2.52 1.714 3.97 4.1 3.97 1.54 0 3.515-.66 4.951-3.225.026-.048-.008-.087-.03-.102l-.081-.056c-.055-.04-.089-.035-.115-.002-.548.673-1.684 1.644-3.384 1.644s-2.38-1.36-2.26-3c.12-1.7 1.32-4.3 2.8-4.3.84 0 1.08.82 1.08 1.7 0 .467-.065.933-.136 1.27a.183.183 0 0 1-.131.14l-2.993.859c-.066.016-.099.042-.106.106l-.01.1c-.01.074.027.105.106.105h5.504c.18 0 .276-.08.296-.16.14-.46.22-.94.22-1.4 0-1.78-1.15-3.28-3.73-3.28h-.002Zm-11.32 6.46-.421.2c-.1.039-.105.122-.12.18-.1.36-.2.72-.34 1.12-1.46 4.279-5.44 7.419-10.24 7.419-5.94 0-10.72-4.76-10.72-10.64 0-5.88 4.78-10.7 10.72-10.7 4.8 0 8.26 3.14 9.68 6.28l-8.62 3.139c-.1.02-.2-.04-.2-.16l-.66-6.92c0-.08-.04-.12-.12-.12h-.199c-.08 0-.12.04-.12.12l-.659 6.92c0 .12-.1.18-.2.16l-6.2-1.72c-.059-.02-.119 0-.14.08l-.08.18c-.02.08 0 .12.06.16l5.08 2.56c.08.02.08.12 0 .16l-5.039 2.54c-.04.02-.06.08-.04.14l.06.2c.04.08.08.1.16.08l6.14-1.7c.1-.02.2.02.2.16l.66 6.92c0 .08.04.12.12.12h.199c.08 0 .12-.04.12-.12l.659-6.92c0-.14.1-.18.2-.16l6.199 1.72c.06.02.12 0 .14-.08l.08-.2c.02-.06 0-.12-.06-.14l-5.06-2.56c-.08-.04-.08-.14 0-.16l8.1-3.94c.1-.04.12-.14.1-.26C21.78 3.8 17.64 0 12.02 0 5.18 0 0 5.34 0 12.02S5.18 24 12.02 24c5.7 0 9.8-3.7 11.16-8.52.14-.52.32-1.32.32-1.66 0-.06-.039-.08-.1-.06v.002Zm26.147-6.22H46.83c-.049 0-.099 0-.123.074l-1.102 4.527c-.49 2.008-1.666 3.11-2.914 3.11-.662 0-.98-.293-.98-.857 0-.245.024-.44.099-.783l1.493-5.972c.024-.098-.049-.098-.074-.098h-2.743c-.024 0-.074 0-.098.074l-1.445 5.8c-.098.368-.22.858-.22 1.372 0 1.2.783 2.115 2.375 2.115 1.715 0 2.988-.94 4.017-2.262l.416-.539c.074-.098.098-.098.147-.074l.048.025c.05.024.074.048.025.122l-1.445 2.376c-.024.049 0 .099.049.099h2.939c.024 0 .074 0 .098-.075l2.23-8.935c.023-.098-.05-.098-.075-.098l.001-.001Zm19.032 3.56c0 3.26-2.56 5.8-6.12 5.8-2.1 0-4.04-1.32-4.04-3.8 0-3.26 2.58-5.8 6.12-5.8 2.12 0 4.04 1.32 4.04 3.8Zm-2.86-1.48c0-1.22-.54-1.74-1.3-1.74-1.1 0-1.94 1-2.48 3.02-.38 1.44-.66 2.7-.66 3.68 0 1.22.54 1.74 1.3 1.74 1.1 0 1.94-1.02 2.48-3.02.4-1.44.66-2.7.66-3.68Zm37.801-2.32c-1.445 0-2.376.848-3.576 2.415l-.881 1.151c-.074.099-.099.099-.147.074l-.049-.024c-.048-.024-.074-.049-.024-.123l2.082-3.155c.024-.048 0-.098-.049-.098h-3.012c-.024 0-.074 0-.098.074l-2.229 8.935c-.024.098.024.098.074.098h2.743c.024 0 .074 0 .098-.073l.98-3.992c.539-2.23 1.518-3.33 2.571-3.33.515 0 .881.269.881.808 0 .636-.392 1.519-1.199 2.449-.049.048 0 .098.024.122l.049.049c.024.024.074.024.147-.024 2.179-1.298 3.453-2.548 3.453-3.747 0-.931-.686-1.608-1.837-1.608l-.001-.001Zm-29.322 0c-2.78 0-4.28 1.32-4.28 2.96 0 1.1.66 1.86 2.04 2.48l1.44.68c1.199.54 1.499.94 1.499 1.48 0 .8-.7 1.4-2.08 1.4-1.08 0-1.76-.54-1.76-1.34 0-.48.261-.903.64-1.36.039-.046.021-.1-.038-.1h-2.632c-.06 0-.078.032-.1.08-.07.147-.15.49-.15.78 0 1.48 1.3 2.54 3.9 2.54 2.98 0 4.74-1.46 4.74-3.18 0-1.02-.56-1.68-2.16-2.421l-1.46-.66c-.92-.42-1.28-.84-1.28-1.4 0-.76.64-1.34 1.72-1.34.98 0 1.62.66 1.62 1.48 0 .32-.114.702-.299 1.022-.028.049-.021.118.07.118h2.429c.08 0 .1-.04.1-.12.12-1.32-1.02-3.1-3.96-3.1Zm21.374 2.88c0 .4-.042.797-.18 1.34l-1.295 5.047c-.02.08-.08.08-.1.08h-2.94c-.04 0-.06-.06-.04-.1l1.44-2.386c.036-.059.031-.101-.02-.12l-.06-.02c-.063-.02-.113-.007-.16.06l-.4.54c-1.04 1.32-2.27 2.28-3.97 2.28-1.44 0-2.4-.92-2.4-2.16 0-1.88 1.87-2.82 3.57-3.06 1.291-.181 2.797-.413 3.436-.499a.262.262 0 0 0 .215-.18c.185-.59.37-1.19.37-1.74 0-.78-.36-1.36-1.54-1.36-.961 0-1.72.56-1.72 1.78 0 .22.02.48.08.76 0 .04-.021.08-.08.08h-2.881a.062.062 0 0 1-.06-.06c-.178-1.726 1.46-3.16 4.78-3.16 3.011 0 3.955 1.501 3.955 2.88v-.002Zm-3.235 1.623c-2.29.406-3.92 1.13-3.92 2.306 0 .684.61 1.05 1.23 1.05 1.26 0 2.094-1.198 2.782-3.256.027-.082-.033-.112-.09-.102l-.002.002Zm-7.6 2.395-.074-.049c-.049-.03-.074-.024-.123.024-.392.392-1.2.98-1.935.98-.564 0-.882-.342-.882-.857 0-.27.049-.54.147-.857l1.494-5.095h2.571c.049 0 .098 0 .123-.073l.171-.634c.024-.098-.049-.098-.074-.098h-2.596l.783-2.501c.025-.074-.024-.099-.073-.099h-.172c-.048 0-.098 0-.147.074-1.15 1.714-2.595 2.572-4.849 2.94l-.147.024c-.195.024-.195.048-.22.122l-.025.123c-.024.123.074.123.099.123h1.542l-1.468 5.044c-.172.588-.27 1.078-.27 1.493 0 1.298 1.004 2.018 2.302 2.018 2.106 0 3.502-2.09 3.845-2.58.034-.05.031-.086-.025-.123h.003Z"/></svg>