<svg xmlns="http://www.w3.org/2000/svg" width="62" height="40" viewBox="0 0 62 40" fill="none"><path fill="#fff" d="M7.652 34.102h-.519a.043.043 0 0 0-.041.041v5.252c0 .022.02.042.041.042h.905c.022 0 .042-.02.042-.042v-4.869a.425.425 0 0 0-.428-.425Zm26.887 0h-.516a.043.043 0 0 0-.041.041v5.252c0 .022.02.042.041.042h.902c.022 0 .042-.02.042-.042v-4.869a.422.422 0 0 0-.428-.425Zm8.332 0h-.516a.043.043 0 0 0-.042.041v5.252c0 .022.02.042.042.042h.902c.022 0 .041-.02.041-.042v-4.869a.422.422 0 0 0-.427-.425Zm17.953 0h-.516a.043.043 0 0 0-.041.041v5.252c0 .022.02.042.041.042h.905c.022 0 .041-.02.041-.042v-4.869a.426.426 0 0 0-.43-.425Zm-41.672-.136h2.206c.178 0 .241-.086.241-.236v-.258a.04.04 0 0 0-.041-.042h-5.274a.043.043 0 0 0-.042.042v.452c0 .022.02.042.042.042h2.11v5.43c0 .021.02.04.043.04h.97c.023 0 .042-.019.042-.04V34.42a.506.506 0 0 0-.297-.455ZM3.36 33.802c-.144-.325-.252-.372-.38-.372h-.175c-.025 0-.047.017-.06.039L.002 39.398c-.008.022 0 .039.025.039h.463a.073.073 0 0 0 .059-.04l.857-1.897h1.928c.161 0 .253-.053.325-.21l.1-.212 1.035 2.323c.008.022.036.039.058.039h1.015c.022 0 .034-.017.022-.04l-2.53-5.598Zm-1.728 3.21 1.06-2.345 1.04 2.345h-2.1Zm30.405-2.91h-.902a.043.043 0 0 0-.042.041v2.334h-2.55v-1.948a.427.427 0 0 0-.426-.428H27.6a.043.043 0 0 0-.041.042v5.252c0 .022.02.042.041.042h.902c.022 0 .042-.02.042-.042v-2.472h2.55v2.472c0 .022.019.042.041.042h.902c.022 0 .041-.02.041-.042V34.14c.003-.022-.016-.041-.041-.038Zm-8.013.3c-.1-.215-.194-.3-.335-.3h-.142c-.025 0-.047.016-.061.038l-2.411 5.26c-.008.02.003.037.025.037h.413c.025 0 .047-.017.061-.04l.763-1.7h1.704c.141 0 .216-.064.269-.183l.092-.197.965 2.084c.008.02.039.036.061.036h.938c.022 0 .033-.017.025-.04l-2.367-4.996Zm-1.49 2.849.902-2.017.935 2.017h-1.837ZM40.98 34.1H36.3a.043.043 0 0 0-.041.042v.358c0 .022.019.042.041.042h1.845v4.852c0 .022.02.042.042.042h.904c.023 0 .042-.02.042-.042v-4.461a.409.409 0 0 0-.297-.394h1.995c.141 0 .194-.067.194-.186v-.21a.048.048 0 0 0-.047-.042Zm17.52 0h-.413a.043.043 0 0 0-.041.042v3.327c0 1.096-.553 1.642-1.62 1.642-1.216 0-1.615-.685-1.615-1.634v-2.95a.427.427 0 0 0-.428-.426h-.516a.043.043 0 0 0-.041.041v3.435c0 1.223.896 2 2.552 2 1.37 0 2.167-.738 2.167-2.025v-3.41c-.003-.025-.022-.044-.044-.041Zm-42.687 5.655c-.028 0-.111.01-.183.01-1.362 0-2.625-1.852-3.002-2.801.743-.186 1.162-.68 1.162-1.36 0-.96-.738-1.503-2.03-1.503h-1.737a.043.043 0 0 0-.042.041v5.252c0 .022.02.042.042.042h.901c.022 0 .042-.02.042-.042v-2.294h.66C12.191 38.45 13.46 40 15.03 40c.427 0 .807-.117.807-.216.005-.014-.003-.025-.025-.028Zm-4.187-3.08h-.655v-2.13h.655c.783 0 1.113.43 1.113 1.06-.003.632-.272 1.07-1.113 1.07Zm40.43-3.249h-.475a.043.043 0 0 0-.042.042v4.334l-3.473-4.018c-.208-.241-.347-.355-.6-.355h-.255a.043.043 0 0 0-.041.042v5.923c0 .022.02.042.041.042h.477c.023 0 .042-.02.042-.042v-4.422l3.834 4.436a.1.1 0 0 0 .07.03h.424c.022 0 .04-.019.04-.041v-5.924a.048.048 0 0 0-.043-.047ZM45.06 18.11c-.53-.852-.888-1.263-1.099-1.443-.979-.85-1.908-1.21-2.68-1.543l-.621-.263a12.613 12.613 0 0 0-4.473-1.03 6.593 6.593 0 0 0-1.095.067c-.15.017-.297.05-.442.106a3.28 3.28 0 0 0-.355.166 2.448 2.448 0 0 1 .766-.388l.022-.009c.003.003 3.15-.81 6.24-2.555 1.62-.916 2.971-1.679 2.866-2.508-.111-.871-1.809-1.61-3.227-1.487-.524.044-.904.2-1.306.363-.991.405-1.235.79-2.772 1.981-1.376 1.066-1.687 1.152-2.378 1.909-.45.491-.865 1.162-.965 1.26-.097.097-.475.418-.372.596.041.075.205.064.344.214.047.052.139.266.219.327.117.111.175.047.205.155.017.059-.027.106 0 .18.03.092.04.092.073.181.01.033-.006.13-.067.18-.064.053-.17.009-.31.098a.252.252 0 0 0-.12.219c0 .064.033.16.141.197l.225.047c.228.05.408.288.458.363l.011.017c1.543 2.264 7.585 4.156 7.585 4.156.278.103 2.883.808 3.482-.091.247-.436-.169-1.163-.355-1.465Z"/><path fill="#fff" d="M35.477 17.07c-.186-.428-.3-.578-.416-.689-.166-.16-.289-.194-.458-.372a.866.866 0 0 0-.041-.052c-.097-.114-.128-.178-.275-.347a3.272 3.272 0 0 0-.191-.203.585.585 0 0 0-.161-.124.792.792 0 0 0-.53-.053c-.195.047-.258.155-.386.116-.092-.027-.092-.086-.2-.158-.166-.11-.274-.083-.43-.136-.191-.07-.327-.327-.372-.51a.863.863 0 0 1 .27-.927c.119-.083.25-.144.39-.18a.362.362 0 0 0 .226-.161c.038-.067.038-.13.072-.208a.9.9 0 0 1 .094-.156c.097-.116.17-.127.308-.241.064-.05.103-.094.183-.18.41-.447.916-1.52.916-1.52.138-.345.358-.875.649-1.51 1.226-2.68 1.717-2.844 2.064-4.209.147-.585.535-2.211-.227-3.854a4.981 4.981 0 0 0-.919-1.34c-.036-.039-.114-.06-.18-.055 0 0-.125 0-.278.127-1.337 1.113-2.566 4.495-2.566 4.495-.771 2.123-1.118 2.816-1.504 4.392-.205.818-.377 1.712-.13 2.744.141.585.385 1.074.366 1.093-.11-.16-.58-1.135-1.035-2.175-.291-.671-.358-.874-.76-1.853-.227-.55-.441-1.06-.882-2.067-1.587-3.632-2.137-4.323-2.528-4.745C26 1.413 25.453.836 24.801.92c-.893.117-1.34 1.401-1.41 1.587-.071.211-.121.422-.15.63-.146 1.104.3 2.09.511 2.544.064.142.14.28.23.43.206.328.492.71.933 1.293.61.807 1.681 2.1 2.084 2.516.221.236.424.492.604.763.13.203.278.436.458.675.23.313.516.635.885.93.452.357.91.59 1.235.731a40.14 40.14 0 0 1-1.973-.82 61.182 61.182 0 0 1-3.404-1.593c-1.79-.91-3.235-1.77-5.05-2.383a6.171 6.171 0 0 0-1.811-.264c-.508 0-1.038.005-1.388.2a.77.77 0 0 0-.294.263c-.502.81.27 1.962.713 2.62.6.882 1.307 1.656 2.184 2.269 1.909 1.343 4.253 1.942 6.525 2.33 2.514.43 4.326.08 4.34.078.016-.003.582-.141.58-.155 0 0 .013.11-.13.155-.32.094-.345.111-.486.142-.483.102-.763.23-1.826.73-.436.177-1.035.424-1.89.779-1.875.782-1.897.832-2.782 1.332-1.718.965-2.017 1.287-2.286 1.5-.738.586-1.948 2.037-1.998 3.102-.011.25.078.344.225.478.69.635 2.189.602 2.763.574 1.934-.097 2.933-.635 3.748-1.11a17.034 17.034 0 0 0 1.757-1.204c.266-.208.488-.394 1.137-.971a44.495 44.495 0 0 0 1.554-1.523c1.37-1.429 1.42-1.681 1.637-1.973l.066-.089c.075-.105.145-.224.344-.474.13-.161.245-.355.256-.38-.017.17-.075.33-.167.471-.044.067-.07.117-.116.178-.12.183-.225.372-.32.569-.371.752-.29 1.196-.238 1.429.533 2.291.907 5.69 2.952 7.899.813.873 1.67 1.334 2.528.984.224-.088.568-1.523.64-3.545.098-2.694-1.42-5.16-2.202-6.764a8.555 8.555 0 0 0-.292-.783Z"/></svg>
