<svg width="129" height="32" viewBox="0 0 129 32" fill="none" xmlns="http://www.w3.org/2000/svg">
<path d="M128.563 11.4855C128.52 11.4855 127.834 11.4424 127.834 11.4424C124.962 11.2485 125.005 8.59797 125.005 8.59797C125.048 5.3872 123.226 0.280134 116.046 0H103.678L103.506 0.603364H113.924C114.974 0.646462 115.703 1.42222 115.381 2.67205L113.516 9.48148C112.787 11.5071 110.944 11.4209 110.944 11.4209C109.058 11.2485 109.572 9.43838 109.572 9.43838L110.408 6.3138C110.687 5.25791 109.915 4.74074 109.272 4.74074H102.37L102.199 5.3441H105.135C106.229 5.3872 106.464 6.18451 106.271 6.91717C106.271 6.91717 105.907 8.2101 105.457 9.82626C105.05 11.3993 103.592 11.4424 103.356 11.4424H100.484L100.291 12.1751H102.992C103.314 12.1751 104.771 12.2182 104.321 13.7912C103.871 15.4074 103.506 16.7003 103.506 16.7003C103.314 17.433 102.628 18.2303 101.534 18.2734H98.598L98.4908 18.9414H105.393C106.036 18.8983 107.086 18.4242 107.407 17.3683L108.243 14.2438C108.243 14.2438 108.694 12.4121 110.708 12.2613C110.708 12.2613 112.637 12.132 112.209 14.2007L110.344 21.0101C109.98 22.2599 108.844 23.0357 107.772 23.0788H97.3762L97.2047 23.7252H109.615C116.946 23.4451 121.554 18.338 123.29 15.1273C123.29 15.1273 124.662 12.5414 127.641 12.2828L128.37 12.2397C128.37 12.2397 128.413 12.2397 128.456 12.1966C128.499 12.0673 128.627 11.5933 128.627 11.5502C128.606 11.4855 128.606 11.4855 128.563 11.4855Z" fill="white"/>
<path d="M17.4904 12.4983C17.0832 12.0027 16.3544 11.3993 14.9612 11.3993H3.34376L0 23.6822H3.25802L5.89444 14.1145H8.78808L6.21596 23.6822H9.47398L12.0461 14.1145H13.2893C13.8037 14.1145 14.1681 14.2438 14.3824 14.5239C14.6611 14.8902 14.5753 15.4936 14.511 15.7737L12.3676 23.6822H15.6256L17.9191 15.1704C18.1763 14.2007 18.0263 13.231 17.4904 12.4983ZM30.9941 12.6061C30.4368 11.8734 29.3865 11.4209 28.2505 11.4209H21.1986L20.5127 13.9636H26.6858C27.3288 13.9636 27.7789 14.136 28.0147 14.4162C28.2505 14.6963 28.2933 15.1919 28.1433 15.7522L27.9718 16.2478H22.8276C20.4912 16.2478 18.6693 17.67 18.0263 19.9327C17.7048 21.0748 17.8334 22.0444 18.3478 22.6909C18.8408 23.3374 19.7196 23.6606 20.8556 23.6606H29.2364L31.3799 15.7953C31.7228 14.4808 31.6157 13.3818 30.9941 12.6061ZM26.6858 21.1179H22.7418C22.3775 21.1179 21.8202 21.0748 21.6058 20.7946C21.4772 20.6222 21.4343 20.3421 21.5201 19.9758C21.7987 18.9199 22.6132 18.7906 23.4063 18.7906H27.3288L26.6858 21.1179ZM49.8348 12.6061C49.2775 11.8734 48.2273 11.4209 47.0912 11.4209H40.0822L39.3963 13.9636H45.548C46.191 13.9636 46.6411 14.136 46.8769 14.4162C47.1127 14.6963 47.1555 15.1919 47.0055 15.7522L46.8769 16.2478H41.7112C39.3749 16.2478 37.553 17.67 36.9099 19.9327C36.5884 21.0748 36.717 22.0444 37.2314 22.6909C37.7244 23.3374 38.6032 23.6606 39.7393 23.6606H48.1201L50.2635 15.7953C50.6065 14.4808 50.4779 13.3818 49.8348 12.6061ZM45.5265 21.1179H41.5826C41.2182 21.1179 40.6609 21.0748 40.4466 20.7946C40.318 20.6222 40.2751 20.3421 40.3609 19.9758C40.6395 18.9199 41.454 18.7906 42.2471 18.7906H46.1481L45.5265 21.1179ZM61.3665 11.4424L58.7515 21.0101H55.5364C55.0219 21.0101 54.6576 20.8808 54.4432 20.6007C54.1217 20.2344 54.2503 19.631 54.3146 19.3078L56.458 11.3993H53.2429L51.0352 19.5879C50.6708 20.8377 50.7994 21.8505 51.3567 22.5401C52.0854 23.4236 53.3715 23.6391 54.2932 23.6391H58.0442L57.7227 24.8458C57.5298 25.5785 56.6724 26.3758 55.4721 26.3758H49.4705L48.7846 28.9185H55.7507C57.6798 28.9185 60.3377 27.2162 61.0021 24.7811L64.6245 11.3993L61.3665 11.4424ZM75.9847 17.2391C75.4917 16.5926 74.6129 16.2694 73.4769 16.2694H70.1332C69.7259 16.2694 69.1686 16.2263 68.9543 15.9461C68.8257 15.7737 68.7828 15.4936 68.8685 15.1704C69.1472 14.1145 70.0045 13.9852 70.7976 13.9852H77.2922L77.9781 11.4424H70.1975C67.8611 11.4424 66.0392 12.8647 65.3962 15.1273C65.0747 16.2694 65.2033 17.196 65.7177 17.8855C66.2107 18.532 67.0895 18.8552 68.2255 18.8552H71.5693C71.9765 18.8552 72.4909 18.8983 72.7481 19.1785C72.8767 19.3508 72.9196 19.631 72.8339 19.9973C72.5552 21.0532 71.6979 21.1825 70.9048 21.1825H63.7672L63.0813 23.7253H71.505C73.8413 23.7253 75.6632 22.303 76.3062 20.0404C76.6492 18.8552 76.5206 17.9286 75.9847 17.2391ZM80.143 11.4424L76.8421 23.6822H80.1001L83.401 11.4424H80.143ZM95.4257 12.6061C94.8684 11.8734 93.8181 11.4209 92.6821 11.4209H85.6302L84.9443 13.9636H91.1174C91.7604 13.9636 92.2105 14.136 92.4463 14.4162C92.6821 14.6963 92.7249 15.1919 92.5749 15.7522L92.4463 16.2478H87.2806C84.9443 16.2478 83.1224 17.67 82.4793 19.9327C82.1578 21.0748 82.2864 22.0444 82.8008 22.6909C83.2938 23.3374 84.1726 23.6606 85.3087 23.6606H93.6895L95.8329 15.7953C96.1973 14.4808 96.0258 13.3818 95.4257 12.6061ZM91.1174 21.1179H87.1735C86.8091 21.1179 86.2518 21.0748 86.0374 20.7946C85.9088 20.6222 85.866 20.3421 85.9517 19.9758C86.2303 18.9199 87.0448 18.7906 87.8379 18.7906H91.739L91.1174 21.1179ZM35.3667 8.12392L31.1227 23.6822H34.3807L38.6032 8.12392H35.3667ZM66.9609 26.8498C66.6822 26.4835 66.1464 26.4404 65.9963 26.4404H62.4811L62.2882 27.2162H65.5033C65.782 27.2162 65.9963 27.3024 66.1035 27.4532C66.1892 27.5825 66.1892 27.7764 66.1464 27.9488C66.1035 28.1212 65.9535 28.6384 65.9535 28.6384H63.4885C62.3096 28.6384 61.5166 29.2417 61.2379 30.3407C61.1093 30.8579 61.2379 31.2242 61.4308 31.5259C61.6666 31.8061 62.0738 31.9784 62.674 31.9784H65.9749L67.0252 28.0566C67.2395 27.4963 67.1966 27.13 66.9609 26.8498ZM65.2676 31.1811H63.1241C62.7169 31.1811 62.4811 31.0949 62.3525 30.9441C62.2239 30.7717 62.181 30.5778 62.2668 30.2976C62.4382 29.6943 62.8669 29.4141 63.5957 29.4141H65.782L65.2676 31.1811ZM67.9254 31.9569L69.383 26.4404H68.4613L66.9609 31.9569H67.9254ZM73.2626 31.9569L75.1488 24.9104H74.2271L72.298 31.9569H73.2626ZM75.1488 31.9569L76.6063 26.4404H75.6846L74.1842 31.9569H75.1488ZM80.3788 26.4404H77.5066L76.0062 31.9569H76.9707L78.2568 27.2162H80.0358C80.4431 27.2162 80.6788 27.3024 80.8075 27.4963C80.9789 27.7333 80.8932 28.0566 80.8075 28.5091L79.8858 31.9569H80.8503L81.8577 28.2721C82.0292 27.6687 81.9435 27.2162 81.7291 26.936C81.4719 26.5912 81.0432 26.4404 80.3788 26.4404ZM83.5296 28.703C83.7654 28.0997 84.4084 27.1946 85.5444 27.1946H87.4735L87.6664 26.4189H85.4158C83.8083 26.4189 82.6722 27.798 82.3079 29.1771C82.0721 30.0606 82.1364 30.8364 82.5008 31.332C82.7794 31.7414 83.2724 31.8923 83.8726 31.8923H86.1232L86.3161 31.1165C86.3161 31.1165 84.8157 31.1165 84.387 31.1165C83.894 31.1165 83.5725 30.9872 83.3796 30.7933C83.1438 30.5131 83.1438 30.0175 83.251 29.5434V29.5003H86.6805L86.8734 28.7246H83.4867V28.703H83.5296ZM92.9607 27.2377L93.1536 26.462H90.1314C88.6096 26.462 88.1166 27.4748 87.9237 28.035C87.7951 28.4875 87.8808 28.8539 88.0523 29.0478C88.2452 29.3279 88.6096 29.5003 89.2311 29.5003H90.7316C91.6104 29.5003 91.5032 30.1899 91.4174 30.3838C91.1817 31.0734 90.4529 31.1596 89.6813 31.1596H87.1091L86.9162 31.9353H90.5386C91.4603 31.9353 92.232 31.3751 92.4677 30.3623C92.5963 29.8667 92.4677 29.4788 92.2748 29.1771C92.0819 28.9401 91.7175 28.7246 91.0745 28.7246H89.7884C89.6598 28.7246 89.2312 28.7246 89.1025 28.5306C89.0168 28.3582 89.0168 28.2074 89.0597 28.0135C89.2526 27.3239 89.8742 27.2377 90.1528 27.2377C90.11 27.2377 92.9607 27.2377 92.9607 27.2377ZM71.8908 26.4404C70.2403 26.4404 69.9188 27.9704 69.8759 28.0997C69.8331 28.229 68.8257 32 68.8257 32H69.7902C69.7902 32 70.7547 28.3582 70.7976 28.229C70.8405 28.0566 71.1191 27.2162 72.0408 27.2162C72.6838 27.2162 72.8553 27.2162 72.8553 27.2162L73.0482 26.3973H71.8693V26.4404H71.8908Z" fill="white"/>
</svg>
