<svg width="97" height="32" viewBox="0 0 97 32" fill="none" xmlns="http://www.w3.org/2000/svg">
<path d="M22.0399 31.773C15.9559 28.879 10.591 24.8271 6.13621 19.8932H11.6938L12.1887 17.8917H8.67632C8.57559 17.8917 8.47661 17.8935 8.37764 17.8812C7.85034 17.8138 7.53852 17.5922 7.36772 17.325C7.20892 17.0834 7.14152 16.793 7.17765 16.5061C7.18379 16.4474 7.36772 15.6792 7.37999 15.6127L7.38262 15.5951L7.90553 13.5009C8.13939 12.5321 8.94872 11.954 10.0322 11.9225H13.6348L14.1139 9.93946H11.6386L8.52303 11.1079L8.82084 9.93946H8.37939C7.38086 9.92457 6.68277 10.0148 6.18964 10.2443C5.74644 10.4484 5.41097 10.7873 5.27433 11.2927L3.83435 17.1735C2.58499 15.5851 1.42525 13.9283 0.360539 12.2107C-0.304268 11.1456 -0.0318632 9.67669 1.0306 8.95232C9.22463 3.37285 18.9138 0.23188 28.8351 0.00064316C30.1209 -0.0291374 31.2106 0.979021 31.3157 2.2482C31.525 4.82334 31.5285 7.40724 31.3305 9.97537L26.0436 9.97274L21.0247 19.8739H24.6904L25.2825 18.5565C25.3394 18.4217 25.4007 18.3796 25.5733 18.3857H28.2018C28.2509 18.3822 28.3621 18.4006 28.3665 18.5294L28.4007 19.8739H29.5875C28.5351 23.6474 27.065 27.2918 25.2045 30.7394C24.6036 31.8509 23.1829 32.316 22.0399 31.773ZM18.376 19.8932C21.4285 19.8914 22.5952 16.7548 20.6069 15.2579L18.2052 13.4755C17.5325 13.0585 17.7603 11.9225 18.7938 11.9409H22.5523L23.0393 9.95435H17.4379C14.3513 9.97362 13.4832 13.0042 15.3235 14.3093C16.2327 14.9549 16.8248 15.4646 17.741 16.1023C18.6738 16.7382 18.0414 17.8812 16.7337 17.8769H12.9148L12.433 19.8932H18.376ZM28.3052 16.5884L28.1852 12.5365C28.1808 12.3964 28.0608 12.3876 27.9934 12.526L26.147 16.6199C26.0708 16.7776 26.1216 16.9335 26.2582 16.9212H28.1116C28.2719 16.9107 28.3218 16.7846 28.3052 16.5884Z" fill="white"/>
<path d="M57.1573 11.3961C56.7692 11.3961 56.4364 11.4574 56.1561 11.5765C55.8933 11.6965 55.6752 11.8743 55.5106 12.1073V12.1117L55.5088 12.1135C55.4613 12.1825 55.4191 12.2551 55.3827 12.3307C55.3406 12.4148 55.3021 12.5059 55.2688 12.5961C55.1716 12.8606 55.0998 13.5219 55.056 14.206H60.6845V15.6643H54.9947V15.8159C54.9884 16.2521 55.0301 16.6877 55.119 17.1148C55.2031 17.4564 55.3231 17.7227 55.4755 17.9163H55.479C55.6349 18.102 55.8469 18.2447 56.1141 18.3393C56.3961 18.4383 56.7465 18.4891 57.1573 18.4891H60.6845V19.9458H57.0434C56.6527 19.9466 56.2638 19.923 55.8758 19.8757C55.6555 19.8491 55.4376 19.8052 55.2241 19.7443H55.2198L55.218 19.7416C55.1549 19.7231 55.0924 19.7027 55.0306 19.6803H55.0279L54.8405 19.6068C54.5163 19.4644 54.2123 19.2797 53.9366 19.0576C53.6775 18.8501 53.4477 18.6085 53.2534 18.3393C53.0536 18.0616 52.89 17.7596 52.7664 17.4407V17.4372C52.6905 17.2474 52.6284 17.0525 52.5807 16.8538C52.4476 16.3362 52.3845 15.7572 52.3845 15.1108C52.3845 14.2463 52.4773 13.4877 52.6674 12.8396C52.8592 12.1826 53.1544 11.644 53.5398 11.2148L53.5415 11.2104C53.6519 11.0948 53.7719 10.9809 53.898 10.8776C54.0294 10.7751 54.1617 10.6805 54.3027 10.592C55.0297 10.1558 55.9687 9.93947 57.1196 9.93947H60.6845V11.3961H57.1573ZM73.2484 14.206H76.5593V9.93947H78.9829V19.9457H76.5584V15.6643H73.2484V19.9457H70.8265V9.93947H73.2484V14.206ZM46.1306 18.4891H51.647V19.9457H43.1236V18.4006L48.9168 11.3961H43.1236V9.93947H51.6461V11.4986L46.1306 18.4891ZM38.7432 11.3961C38.3508 11.3961 38.0163 11.4574 37.7412 11.5765C37.4811 11.6904 37.2577 11.8743 37.0966 12.1073V12.1117L37.0939 12.1135C37.0473 12.1834 37.0046 12.256 36.9661 12.3307C36.9258 12.4148 36.8855 12.5059 36.8539 12.5961C36.6726 13.0927 36.5798 14.9636 36.5798 15.8159C36.5798 16.3256 36.6201 16.7592 36.7042 17.1148C36.7865 17.4564 36.9065 17.7227 37.0633 17.9163H37.0668C37.2166 18.102 37.4294 18.2447 37.7018 18.3393C37.9838 18.4383 38.3325 18.4891 38.7432 18.4891H42.2652V19.9458H38.6268C38.2365 19.947 37.8465 19.9236 37.4592 19.8757C37.2389 19.8489 37.021 19.805 36.8075 19.7443L36.8031 19.7416C36.7401 19.7224 36.6753 19.704 36.6113 19.6803C36.55 19.6549 36.4887 19.6322 36.4239 19.6068H36.4221C36.0992 19.4639 35.7965 19.2792 35.5217 19.0576C35.2621 18.8506 35.0322 18.609 34.8385 18.3393C34.6388 18.062 34.476 17.7599 34.3541 17.4407L34.3515 17.4372C34.3126 17.3442 34.279 17.2492 34.2508 17.1525C34.2192 17.0596 34.1938 16.9598 34.1641 16.8538C34.0254 16.2834 33.9589 15.6978 33.9661 15.1108C33.9661 14.2463 34.0625 13.4877 34.2525 12.8396C34.4461 12.1826 34.7378 11.644 35.1249 11.2148L35.1275 11.2104C35.239 11.0909 35.3591 10.9797 35.4867 10.8776C35.6119 10.7751 35.7477 10.6805 35.8861 10.592C36.6131 10.1558 37.552 9.93947 38.703 9.93947H42.2652V11.3961H38.7432ZM66.2184 11.3961C65.8278 11.3961 65.4888 11.4574 65.219 11.5765C64.958 11.6904 64.7338 11.8743 64.57 12.1073V12.1117L64.5674 12.1135C64.5204 12.1834 64.4775 12.2559 64.4386 12.3307C64.3974 12.4174 64.3598 12.5059 64.3274 12.5961C64.146 13.0927 64.0576 14.9636 64.0576 15.8159C64.0576 16.3256 64.097 16.7592 64.1776 17.1148C64.2599 17.4564 64.3799 17.7227 64.5367 17.9163C64.69 18.102 64.9002 18.2447 65.1726 18.3393C65.4573 18.4383 65.8067 18.4891 66.2184 18.4891H69.743V19.9458H66.0993C65.7095 19.9466 65.3206 19.923 64.9343 19.8757C64.7135 19.8486 64.4951 19.8047 64.2809 19.7443L64.2766 19.7416C64.2152 19.7224 64.1522 19.704 64.0847 19.6803C64.0234 19.6549 63.9621 19.6322 63.899 19.6068C63.5746 19.4649 63.2706 19.2802 62.9951 19.0576C62.736 18.8501 62.5062 18.6085 62.3119 18.3393C62.112 18.062 61.9488 17.76 61.8267 17.4407L61.8249 17.4372C61.7876 17.3435 61.7537 17.2486 61.7233 17.1525C61.692 17.0537 61.6634 16.9541 61.6375 16.8538C61.5061 16.3362 61.443 15.7572 61.443 15.1108C61.443 14.2463 61.5359 13.4877 61.7259 12.8396C61.9195 12.1826 62.2103 11.644 62.5983 11.2148L62.601 11.2104C62.7105 11.0948 62.8304 10.9809 62.9566 10.8776C63.0868 10.7739 63.2234 10.6785 63.3656 10.592C64.0865 10.1558 65.0272 9.93947 66.1781 9.93947H69.743V11.3961H66.2184ZM46.876 21.9936H51.8554C52.4519 21.9936 52.9748 22.0549 53.4154 22.1723C53.8691 22.2993 54.2423 22.4876 54.5366 22.739L54.5392 22.7407L54.5409 22.7434C54.6233 22.8169 54.7012 22.8923 54.7731 22.9746C54.8466 23.0587 54.9106 23.1471 54.9693 23.2417C55.2706 23.7147 55.4203 24.3322 55.4203 25.0811C55.4203 25.4648 55.3739 25.8186 55.2872 26.1357C55.197 26.4598 55.0595 26.7462 54.8782 26.9993V27.0028L54.8764 27.0055C54.777 27.1466 54.6608 27.2751 54.5304 27.3882L54.5331 27.3909C54.2573 27.6299 53.934 27.8078 53.5845 27.9129L55.8487 31.6968L56.0273 31.9981H53.2849L53.2253 31.8974L51.16 28.2221H49.0981V31.9972H46.6736V21.9945H46.876V21.9936ZM51.3772 23.4502H49.0981V26.7742H51.3772C52.0079 26.7742 52.437 26.6455 52.663 26.3827C52.6928 26.3507 52.719 26.3154 52.741 26.2776C52.762 26.2417 52.7848 26.2014 52.8084 26.1532H52.8102C52.9153 25.908 52.9705 25.5594 52.9705 25.1065C52.9705 24.4899 52.8715 24.0668 52.6727 23.8373C52.5702 23.7147 52.4116 23.621 52.2076 23.5553C51.9375 23.4794 51.6577 23.444 51.3772 23.4502ZM91.2735 23.5536C90.2802 23.5536 89.4481 23.981 89.4604 24.9865C89.4648 25.4604 89.7232 26.2452 90.8618 26.2645H93.2592C93.818 26.2645 94.3891 26.3083 94.9225 26.4852C95.258 26.5973 95.5339 26.7462 95.7493 26.938C96.4133 27.5336 96.5201 28.0198 96.5201 28.9246V28.9289C96.5201 29.7917 96.316 30.6764 95.6372 31.2553C95.0635 31.7493 94.1657 31.9981 92.957 31.9981H87.3714V30.4548H92.4857C93.6069 30.4548 94.0221 29.7102 94.0448 29.1961C94.0816 28.5208 93.7882 27.7167 92.6434 27.7167H90.3836C89.5129 27.7167 88.5118 27.5993 87.826 27.0072H87.8242L87.8224 27.0055L87.8181 27.0028C87.2995 26.5553 86.986 25.8142 86.986 25.1346C86.986 24.2674 87.1787 23.3451 87.8619 22.7495C88.5836 22.1162 89.6417 21.9936 90.5631 21.9936H96.055V23.5527H91.2726L91.2735 23.5536ZM70.9106 21.9945L70.9675 22.0952L74.5263 28.3211L74.4379 22.1959L74.4335 21.9945H76.9035V31.9972H74.2408L74.1795 31.8974L70.4306 25.3045L70.5156 31.9972H68.0342V21.9945H70.9106ZM64.1942 31.9972V21.9945H66.7098V31.9972H64.1942ZM60.7292 31.9981C60.2798 31.9981 59.883 31.9806 59.5415 31.9412C59.4915 31.9324 59.4346 31.9263 59.3812 31.9201H59.3794C59.07 31.8838 58.767 31.8052 58.479 31.6863C58.4177 31.6591 58.3546 31.632 58.2915 31.5961C57.8467 31.3597 57.4611 31.0258 57.1634 30.6194C56.9603 30.3524 56.8055 30.0518 56.7062 29.7313C56.6293 29.4713 56.5765 29.2047 56.5485 28.9351C56.5154 28.5939 56.4999 28.2513 56.5021 27.9085V21.9936H58.9222V28.378C58.9222 28.6513 58.9283 28.8825 58.9388 29.0831C58.9826 29.7313 59.1858 30.1902 59.8287 30.4127C60.1721 30.5292 60.5619 30.5441 60.9201 30.5441H63.5031V31.9981H60.7292ZM42.8074 31.9981V21.9936H45.3177V31.9981H42.8074ZM35.823 21.9936H38.0977L38.1503 22.1136L42.253 31.7204L42.373 31.9981H39.6831L39.6323 31.8693L38.5917 29.1733H35.0943L34.0852 31.8693L34.0327 31.9981H31.4514L31.5696 31.7222L35.6382 22.1136L35.6934 21.9936H35.8248H35.823ZM36.8207 24.6519L35.6548 27.7176L38.0241 27.7123L36.8207 24.6519ZM82.6257 23.4502C82.2377 23.4502 81.8988 23.5089 81.6272 23.6315C81.3659 23.7462 81.1411 23.9304 80.9773 24.1641V24.1658L80.9747 24.1702C80.9309 24.2315 80.8845 24.3068 80.8503 24.383C80.8065 24.4689 80.7645 24.5582 80.7364 24.6476C80.6375 24.9156 80.5683 25.5786 80.5218 26.2645H86.1504V27.7167H80.4649V27.87C80.4649 28.3798 80.5052 28.8133 80.5875 29.1689C80.6716 29.5105 80.789 29.7777 80.9458 29.9713C81.1147 30.1686 81.3352 30.315 81.5826 30.3943C81.8646 30.4951 82.2132 30.5432 82.6257 30.5432H86.1504V31.9972H82.5119C82.1352 31.9972 81.791 31.9832 81.4897 31.9473C81.4459 31.9412 81.3925 31.9368 81.3417 31.9306C81.1217 31.9031 80.9042 31.8589 80.6909 31.7984H80.6883L80.6839 31.7958C80.5565 31.7553 80.4309 31.7097 80.3072 31.6591C79.984 31.5178 79.6806 31.3346 79.4051 31.1143C79.1465 30.9072 78.9168 30.6666 78.7219 30.3987C78.523 30.1195 78.3594 29.8168 78.2349 29.4974L78.2322 29.4869C78.199 29.394 78.1604 29.2994 78.1315 29.2049C78.1035 29.1103 78.072 29.013 78.0448 28.9079C77.9091 28.3385 77.8441 27.7546 77.8512 27.1693C77.8512 26.3004 77.9458 25.5445 78.1333 24.8919C78.3277 24.2394 78.6185 23.6963 79.0083 23.2689L79.01 23.2654C79.2325 23.0236 79.4892 22.8161 79.7721 22.6488C80.4991 22.2108 81.4345 21.9936 82.5855 21.9936H86.1504V23.4502H82.6257Z" fill="white"/>
</svg>
