<svg width="124" height="24" viewBox="0 0 124 24" fill="none" xmlns="http://www.w3.org/2000/svg"><path d="M13.933 4.184L33.53 23.997H9.085L1.67 4.389l-.004-.013c1.05 1.8 2.775 2.969 4.529 4.157 2.71 1.835 5.49 3.719 5.96 8.051l-.009-.098.009.078c.04.286.266.531.552.572.273.043.545.09.817.142h-.001l-.001.002a23.917 23.917 0 0 1 6.082 2.034c1.58.778 3.1 1.741 4.53 2.893.02.02.041.02.083.02.03-.004.06-.018.082-.04.04-.041.04-.123 0-.164a24.364 24.364 0 0 0-8.531-5.807l-1-.409a1.387 1.387 0 0 1-.858-1.288c.037-1.28 1.873-1.635 3.438-1.937 1.035-.2 1.951-.376 2.154-.782l.081-.185a9.495 9.495 0 0 0-3.612-1.923c-.02.062-.042.306.224.756a.553.553 0 0 1 .037.474c-.142.341-.643.54-1.282-.043l-.081-.062C11.84 8.02 9.146 7.121 6.85 6.355 5.45 5.887 4.197 5.469 3.11 4.698l-.015-.014C2.213 4.046 1.437 3.187.775 1.876c-.135-.27-.265-.559-.39-.869L.306.8 0 0h4.094c3.688 0 7.232 1.559 9.84 4.184zM28.304 13.706c0-3.288 3.324-5.822 8.256-5.822 4.911 0 8.256 2.534 8.256 5.696 0 1.404-.627 2.576-1.819 3.54h2.926l-.69 1.193c-.439.754-.982 1.215-2.154 1.188l-6.666.027c-4.953 0-8.109-2.577-8.109-5.822zm8.236 3.183c2.695 0 4.994-1.34 4.994-3.183 0-1.843-2.278-3.184-4.995-3.184-2.697 0-4.996 1.34-4.996 3.184 0 1.842 2.3 3.183 4.996 3.183h.001zm13.86.511l-1.237 2.1h-3.24l5.414-9.354c.418-.734 1.045-1.32 2.257-1.446h1.212c1.233.126 1.84.692 2.258 1.446l5.413 9.354h-3.303L57.9 17.4h-7.5zm6.35-2.1l-2.404-4.359c-.063-.104-.105-.126-.188-.126-.084 0-.126.022-.188.126L51.588 15.3h5.161zM78 19.5h-2.984L66.6 12.428V19.5h-3V8.7h1.865c.92.126 1.4.378 1.923.817L75 15.904V8.7h3v10.8zm10.2 0h-3v-8.4h-6V8.7h15v2.4h-6v8.4zm7.8-2.1l-1.192 2.1h-3.24l5.414-9.354c.418-.734 1.044-1.32 2.257-1.446h1.212c1.233.126 1.839.692 2.256 1.446l5.414 9.354h-3.301l-1.32-2.1H96zm6.416-2.1l-2.403-4.359c-.063-.104-.105-.126-.189-.126s-.126.022-.187.126L97.255 15.3h5.161zm6.458 3.368l.732-2.324c2.089.67 4.305.942 6.312.942 3.281 0 4.096-.376 4.096-.795 0-.168-.105-.294-.376-.378-.335-.104-1.233-.292-3.93-.732-2.967-.482-4.326-.733-5.308-1.194-.982-.46-1.589-1.194-1.589-2.262 0-.816.397-1.465 1.045-1.989 1.15-.88 3.093-1.236 5.205-1.236 2.738 0 5.036.231 7.586.86l.23.062-.606 2.262c-2.842-.608-4.431-.775-6.604-.817-1.526-.021-2.571.104-3.135.272-.314.104-.439.25-.439.419 0 .168.105.292.418.397.335.105.899.252 3.825.712 3.156.524 4.201.733 5.079 1.068 1.191.46 1.902 1.298 1.902 2.346 0 1.319-1.024 2.304-2.801 2.848-1.087.336-2.571.523-4.222.523-2.613.021-5.371-.314-7.148-.9l-.272-.084z" fill="#fff"/></svg>