<svg xmlns="http://www.w3.org/2000/svg" width="200" height="15"><path fill="#fff" fill-rule="evenodd" d="M31.975 12.323c-3.258.147-6.122-1.091-4.53-4.22 1.587-3.13 9.377-6.729 11.938-7.872L25.024.227c-.492 0-1.102-.083-1.475 1.032-.277.83-1.566 4.046-4.43 5.052-3.547 1.247-6.505-.792-11.013-4.361C6.427.616 6.152.496 4.526.764 3.692.897 1.883.456 1.353.331.822.189 0 .247 0 .256 0 .316 3.267.789 9.572 5.3c2.399 1.717 6.675 5.06 11.123 6.992 4.808 2.089 11.788 3.205 18.177-1.242.008-.087.014-.175.02-.263 0 .117-3.655 1.455-6.917 1.535M60.42 11.967h1.2V2.756h-1.2v9.21ZM65.28.327h5.283c.268 0 .525.085.744.244.281.211.429.525.429.902v9.442c0 .76-.492 1.052-1.174 1.052h-1.616l-.472-.974h1.766c.183 0 .292-.12.292-.323V1.618a.32.32 0 0 0-.317-.32H65.28V.326ZM60.42.33h1.203v.651c0 .158.16.265.32.265h2.515v.895h-2.862c-.88 0-1.177-.58-1.177-1.092V.33Zm18.242 9.274c-.237-.772-.364-1.45-.457-2.305h1.003c.091.848.258 1.6.484 2.305h-1.03Zm6.811-5.612c.882 0 1.175.667 1.175 1.148V10.7c0 .14.111.25.27.25h1.137l-.436 1.02h-.936c-.466 0-.789-.13-.98-.4-.166-.224-.247-.54-.247-.963V5.215c0-.078-.059-.218-.243-.218h-1.52c-.164 0-.253.107-.253.231v2.868c0 1.26-.243 2.704-.828 3.875h-1.444c.813-1.098 1.064-2.549 1.064-4.467V5.141c0-.664.492-1.148 1.092-1.148h2.15Zm-7.486 1.663h2.02l-.002-3.249c0-.108-.068-.233-.236-.233h-1.55c-.083 0-.232.058-.232.23v3.252Zm.308-4.484c.137-.283.25-.61.332-.949h1.285a5.705 5.705 0 0 1-.329.95h.559c.569 0 1.034.357 1.034 1.05v8.774c0 .504-.28.974-1.034.974H79.05l-.407-.969h1.077c.163 0 .288-.104.288-.26V6.645h-2.02c-.017 2.024-.184 3.8-.542 5.326h-1.27c.558-1.742.656-3.589.68-5.325h-.674v-.99h.675V2.264c0-.654.404-1.092.99-1.092h.449Zm.422 3.829a14.834 14.834 0 0 1-.447-2.021h.96c.098.718.302 1.377.5 2.02h-1.013Zm5.12-3.219c-.168-.435-.361-.858-.572-1.558h1.287c.133.392.379.917.682 1.558h2.594v.986h-6.311v-.986h2.32ZM53.782 6.91v-.334h-5.614v.317c0 .153.095.24.25.24h5.141a.228.228 0 0 0 .223-.223Zm-.27 2.303H48.86a19.08 19.08 0 0 1-.433.437l1.819.002s.78.389 1.007.489c.757-.29 1.491-.585 2.26-.928Zm-5.345-3.365h5.615v-.559h-5.614v.559Zm0-1.609v.333h5.615v-.315c0-.155-.095-.242-.25-.242H48.39a.228.228 0 0 0-.224.224ZM46.298 1.93h9.343v.79h-3.802l-.26.55h2.328c.665 0 1.05.552 1.05 1.034V6.82c0 .623-.5 1.058-1.018 1.058h-3.916c-.11.148-.225.284-.443.542h4.762c.372 0 .689.198.776.508a.646.646 0 0 1 .026.194c0 .292-.183.564-.499.713-.456.215-1.63.68-2.128.885 0 0 2.247.991 3.12 1.286l-2.796-.002c-.296-.085-1.67-.74-1.67-.74s-1.412.566-1.858.742c0 0-.013-.008-3.226-.008 1.045-.292 3.831-1.346 3.831-1.346a77.133 77.133 0 0 1-1.651-.85c-.15.138-.325.29-.522.453h-1.68c1.102-.748 2.152-1.944 2.48-2.377h-.533c-.562 0-1.034-.486-1.034-1.043V4.332c0-.529.384-1.062 1.064-1.062h2.246c.099-.2.175-.368.252-.55h-4.242v-.79ZM45.905.57h9.735v.893h-9.513c-.175 0-.279.094-.279.252v6.468c0 1.207-.15 2.636-.42 3.822h-1.295c.384-1.638.525-2.902.525-4.586V1.803c0-.801.401-1.234 1.247-1.234Zm56.998 5.882v.985h-4.23v3.486h5.202v.97H92.291v-.97h5.2V7.437h-4.227v-.985h9.639ZM97.364.225h1.423c.083.255.25.634.43.932h3.054c1.098 0 1.519.732 1.519 1.424v1.306h-1.171l-.001-1.349c0-.232-.119-.386-.376-.386h-2.269v2.03c0 .199.142.317.267.317h3.157l-.41 1.002h-3.124c-.316 0-.7-.15-.919-.415-.181-.209-.274-.548-.274-.834v-2.1h-1.135c-.38 1.309-1.338 2.672-2.667 3.689h-2.282s2.786-1.36 3.568-3.689h-2.226c-.265 0-.383.128-.383.386v1.349h-1.172V2.58c0-.673.372-1.424 1.487-1.424h3.893a5.806 5.806 0 0 1-.389-.932ZM57.798 12.013h.435V.227h-.435v11.786Zm16.027 0h.437V.227h-.437v11.786Zm16.028 0h.435V.227h-.435v11.786Zm102.967-6.36h2.803c1.239 0 2.114-.856 2.117-1.933-.003-1.075-.878-1.946-2.117-1.946h-2.803v3.88Zm2.636.967h-2.636v5.392h-1.286V.807h4.233c1.856 0 3.145 1.3 3.149 2.912-.003 1.335-.884 2.447-2.239 2.791l3.314 5.502h-1.283l-3.252-5.392Zm-18.034 1.352h4.563l-2.282-5.653-2.281 5.653Zm4.952.966h-5.343l-1.24 3.074h-1.284L179.025.808h1.287l4.588 11.204h-1.286l-1.24-3.074Zm4.714 3.074h1.285V.808h-1.285v11.204ZM146.311.808h2.481l1.071 11.204h-2.285l-.745-7.785-3.767 7.785h-.139l-3.829-7.787-.746 7.787h-2.283L137.144.808h2.478l3.344 6.952 3.345-6.952Zm8.221 9.7h5.192v1.504h-7.477V.808h7.1v1.503h-4.815v3.21h4.106v1.5h-4.106v3.487Zm-27.25-2.272h3.646l-1.824-4.632-1.822 4.632Zm4.236 1.501h-4.829l-.895 2.275h-2.282L127.92.808h2.285l4.494 11.204h-2.286l-.895-2.275Zm-25.043 2.275 4.255-6.06-3.612-5.144h2.562l2.329 3.32 2.33-3.32h2.564l-3.613 5.144 4.257 6.06h-2.562l-2.975-4.236-2.975 4.236h-2.56Zm66.065 0h-1.438l-6.785-7.81v7.81h-2.286V.808h2.146l6.076 7.03V.808h2.287v11.204Zm-53.139 0h2.285V.808h-2.285v11.204Z" clip-rule="evenodd"/></svg>
