<svg width="146" height="24" viewBox="0 0 146 24" fill="none" xmlns="http://www.w3.org/2000/svg">
<path d="M137.615 0L131.083 9.4485C130.223 10.6921 128.829 11.889 127.143 12.0168V12.3074H134.407C136.336 12.3074 137.743 11.0523 138.695 9.66917L145.401 0H137.615Z" fill="white"/>
<path d="M17.335 12.3077V1.03787H20.6244V12.308L17.335 12.3077ZM93.1699 12.3077L85.269 5.61521V12.3077H82.4921V1.03787H84.8512L92.6471 7.62556V1.03787H95.4255V12.308L93.1699 12.3077ZM110.354 4.67502C108.867 3.94338 107.192 3.35065 104.975 3.35065C102.324 3.35065 100.35 4.72165 100.35 6.62725C100.35 8.57885 102.362 9.96166 104.951 9.96166C107.091 9.96166 108.785 9.41524 110.458 8.4511V11.2394C108.982 11.9714 107.019 12.5168 104.812 12.5168C100.304 12.5168 96.7601 10.2175 96.7601 6.6263C96.7601 3.09389 100.373 0.828369 104.8 0.828369C106.891 0.828369 108.785 1.22341 110.354 1.86245V4.67279L110.354 4.67502ZM38.9223 12.3077V1.03787H49.9136V3.45444H42.2107V6.25424H49.7395V8.6705H42.2107V12.3077H38.9223ZM112.341 12.3077V1.03787H123.749V3.45444H115.629V5.40635H123.621V7.82293H115.628V9.89108H123.714V12.308L112.341 12.3077ZM61.3347 8.07841L65.8776 12.3077H62.3685C61.5899 12.3077 61.0789 12.0637 60.6721 11.6689L57.582 8.6705C57.5239 8.6127 57.4313 8.57757 57.3147 8.57757H55.2117V12.3077H51.9223V1.03787H59.044C62.7386 1.03787 64.2955 2.69852 64.2955 4.53515C64.2955 6.67292 62.3902 7.69678 61.3328 8.08001L61.3347 8.07841ZM58.709 6.21943C60.0101 6.21943 60.6376 5.55677 60.6376 4.81426C60.6376 4.07176 60.08 3.45476 58.709 3.45476H55.212V6.22007L58.709 6.21943ZM33.1129 8.07841L37.6557 12.3077H34.1473C33.3687 12.3077 32.8574 12.0637 32.4508 11.6689L29.3604 8.6705C29.3023 8.6127 29.2094 8.57757 29.0931 8.57757H26.9901V12.3077H23.7008V1.03787H30.8224C34.5171 1.03787 36.0739 2.69852 36.0739 4.53515C36.0739 6.67292 34.1687 7.69678 33.1113 8.08001L33.1129 8.07841ZM30.4871 6.21943C31.7882 6.21943 32.4157 5.55677 32.4157 4.81426C32.4157 4.07176 31.8578 3.45476 30.4871 3.45476H26.9901V6.22007L30.4871 6.21943ZM12.1879 12.3077L10.747 9.83264H4.45024L3.13736 12.3077H0L6.27409 1.04904H9.13169L16.2428 12.3077H12.1879ZM5.70499 7.48537H9.3776L7.47104 4.04685L5.70499 7.48537ZM77.8452 12.3077L76.44 9.83264H70.3045L69.0383 12.3077H65.9824L72.0936 1.04904H74.8704L81.7835 12.3077H77.8452ZM71.5363 7.48537H75.1131L73.2544 4.04653L71.5363 7.48537Z" fill="white"/>
<path d="M88.9588 15.6587H91.1164V19.012H96.7416V15.6587H98.8991V23.8458H96.7416V20.5133H91.1164V23.8458H88.9588V15.6587Z" fill="white"/>
<path d="M106.815 15.5047C110.032 15.5047 112.595 17.1807 112.595 19.7234C112.595 22.3045 110.052 23.9999 106.815 23.9999C103.655 23.9999 101.055 22.324 101.055 19.7234C101.055 17.219 103.636 15.5047 106.815 15.5047ZM106.815 22.4201C108.76 22.4201 110.264 21.3221 110.264 19.7234C110.264 18.0475 108.763 17.1047 106.815 17.1047C104.908 17.1047 103.386 18.0871 103.386 19.7234C103.386 21.3221 104.927 22.4201 106.815 22.4201Z" fill="white"/>
<path d="M114.75 15.6587H120.355C122.591 15.6587 124.054 16.6807 124.054 18.4905C124.054 20.0508 122.59 21.3414 120.336 21.3414H116.907V23.8458H114.75V15.6587ZM120.047 19.8388C121.222 19.8388 121.8 19.2224 121.8 18.4905C121.8 17.6812 121.222 17.1613 120.047 17.1613H116.907V19.8388H120.047Z" fill="white"/>
</svg>
