<svg xmlns="http://www.w3.org/2000/svg" width="154" height="25" viewBox="0 0 154 25"><g fill-rule="nonzero" fill="none"><path fill="#81112C" d="M29.85 24.352l-14.807-6.241v6.241H29.85zm-1.097-2.517l-13.71-6.593V.746l13.71 21.089z"/><path fill="#D02139" d="M1.328 21.835L15.043.745v14.497L1.328 21.835zM.239 24.352h14.804v-6.241L.24 24.352"/><path fill="#81112C" d="M30.831 20.928h.184c.157 0 .314-.006.314-.192 0-.148-.125-.189-.25-.189h-.248v.381zm0 .619h-.145v-1.122h.434c.256 0 .355.113.355.31 0 .213-.128.3-.283.32l.338.492h-.166l-.326-.491h-.207v.491zm.219.273a.826.826 0 0 0 .827-.825.827.827 0 0 0-.827-.835.833.833 0 0 0-.842.835c0 .456.379.825.842.825zm0-1.8a.976.976 0 1 1-.013 1.95.976.976 0 0 1 .013-1.949v-.001z"/><path fill="#023461" d="M45.612 6.286h2.455c4.443 0 6.655 2.186 6.655 6.142 0 3.945-2.212 6.137-6.655 6.137h-2.455V6.286zm-4.198 15.549h6.653c6.841 0 10.932-3.538 10.932-9.407 0-5.872-4.09-9.412-10.932-9.412h-6.653v18.819zm31.876-8.157h7.996v-3.27H73.29V6.286h9.043v-3.27H69.078v18.819h13.55v-3.27H73.29v-4.887zm33.31 4.887h-8.105V3.016h-4.23v18.819H106.6v-3.27zm22.723-15.549H112.42v3.27h6.338v15.549h4.23V6.286h6.335v-3.27zm17.011 10.953L143.7 7.295l-2.632 6.674h5.266zm7.45 7.866h-4.41l-1.843-4.715h-7.663l-1.843 4.715h-4.116l7.878-18.889h4.253l7.745 18.889h-.001z"/></g></svg>