<svg xmlns="http://www.w3.org/2000/svg" width="169" height="24" fill="none"><g fill="#fff" clip-path="url(#a)"><path d="M38.944 22.093c-.622-1.072-1.25-2.137-1.87-3.21-.649-1.122-1.285-2.252-1.936-3.374-.815-1.407-1.643-2.808-2.458-4.216-.828-1.428-1.645-2.86-2.47-4.29-.878-1.522-1.758-3.041-2.64-4.56-.432-.744-.873-1.484-1.302-2.23C26.182.066 26.085 0 25.904 0c-2.673.01-5.344.012-8.016.013H0C.016.076.02.135.045.18c.322.564.646 1.125.972 1.686C2.184 3.873 3.355 5.88 4.519 7.89c.644 1.112 1.272 2.234 1.914 3.347.66 1.143 1.33 2.281 1.994 3.423.663 1.14 1.328 2.281 1.99 3.424.638 1.102 1.272 2.206 1.91 3.307.454.786.916 1.568 1.364 2.357.106.185.232.252.45.252 8.347-.007 16.694-.006 25.04-.006h.852c-.379-.662-.73-1.284-1.09-1.901ZM28.59 12.177c-.07-.042-.163-.065-.19-.12-.333-.702-.918-1.154-1.532-1.585a.647.647 0 0 1-.23-.326c-.05-.177-.13-.287-.305-.352-2.046-.759-4-.232-5.334 1.582-.045.061-.076.135-.114.203 1.579-1.363 3.31-1.625 5.09-.558 1.465.877 2.167 2.279 1.947 3.996-.197 1.53-1.06 2.632-2.477 3.261l-.08-.04c.056-.157.118-.313.17-.472.19-.584.174-1.187.14-1.788a.685.685 0 0 1 .137-.489c.08-.105.127-.293.09-.414-.458-1.492-1.382-2.552-2.902-3.035-.51-.162-1.435-.227-1.785-.133 2.296.578 3.605 1.993 3.53 4.393-.05 1.656-1.12 3.133-3.028 3.682-1.03.296-2.058.204-3.074-.42.272-.102.466-.165.653-.246a4.619 4.619 0 0 0 1.418-.982c.084-.082.227-.178.325-.16.286.05.416-.123.543-.309.544-.796.78-1.682.76-2.641-.025-1.134-.518-2.066-1.247-2.895-.026-.03-.068-.045-.148-.095 1.123 2.108.824 3.949-.947 5.461-1.154.985-2.895 1.217-4.457.405-1.142-.593-2.082-2.052-2.085-2.95.081.036.158.057.219.1.584.416 1.241.612 1.948.69.155.018.295.156.445.234.118.06.238.16.36.163 1.77.034 3.49-1.237 3.99-2.944.067-.225.118-.456.168-.686.01-.051-.01-.11-.029-.258-.481 1.233-1.304 2.006-2.45 2.442-.749.284-1.51.353-2.296.16-1.8-.441-3.001-1.896-3.18-3.451-.142-1.224.143-2.34 1.04-3.317.041.118.073.17.074.223.023.714.24 1.366.624 1.965.118.185.197.355.127.592-.032.107.03.287.113.375.807.867 1.775 1.418 2.986 1.508.908.067 1.724-.216 2.521-.592a.654.654 0 0 0 .213-.19c-1.865.621-3.412.108-4.638-1.338-1.124-1.327-1.07-3.221-.431-4.398.821-1.514 2.127-2.226 3.877-2.195-.069.084-.131.175-.207.252-.49.497-.824 1.084-1.068 1.735a.664.664 0 0 1-.293.317.461.461 0 0 0-.27.375c-.267 1.75.258 3.195 1.679 4.273.326.247.715.412 1.078.609.044.024.107.012.2.02-1.714-1.316-2.407-2.947-1.624-4.987.647-1.686 2.16-2.647 3.922-2.614 1.365.026 2.415.652 3.281 1.766-.38-.02-.679-.043-.979-.05-.515-.013-1.003.11-1.484.286a.504.504 0 0 1-.35-.025c-.187-.088-.341-.095-.528.012-1.077.614-1.82 1.488-2.133 2.699-.224.866-.152 1.72.13 2.578-.057-1.949.791-3.343 2.542-4.17.93-.439 1.9-.454 2.867-.133 2.274.753 3.296 3.136 2.688 5ZM48.033 11.75h-3.389V9.395h6.017c0 .462-.009.918.001 1.373.02.904-.195 1.763-.578 2.565-.811 1.698-2.183 2.686-4.034 2.993a6.937 6.937 0 0 1-2.505-.02c-1.613-.324-2.93-1.142-3.796-2.554-1.256-2.05-1.346-4.22-.409-6.405.507-1.18 1.398-2.057 2.556-2.65 1.681-.86 3.437-.946 5.192-.363 1.593.53 2.673 1.644 3.157 3.282.056.191.101.386.15.579.003.01-.007.022-.023.065-.552 0-1.12-.039-1.679.01-.563.05-.936-.074-1.198-.632-.274-.582-.845-.9-1.444-1.068-.931-.26-1.866-.25-2.765.185-.89.43-1.43 1.167-1.699 2.075-.35 1.18-.287 2.354.311 3.466.667 1.24 2.008 1.766 3.278 1.68a5.367 5.367 0 0 0 1.008-.18c.976-.26 1.574-.907 1.848-1.866.012-.042.001-.09.001-.18ZM84.969 8.286c-1.302-.5-2.637-.834-4.046-.685-1.24.13-2.335.58-3.118 1.6-.486.633-.736 1.363-.81 2.157-.112 1.213.015 2.38.656 3.446.47.78 1.14 1.31 2.02 1.568a4.327 4.327 0 0 0 2.378.023c.255-.069.509-.145.807-.23 0 .226.024.415-.004.596-.094.601-.214 1.196-.824 1.519-.45.238-.932.243-1.418.176-.85-.119-1.644-.409-2.403-.801-.11-.058-.223-.109-.365-.178-.128.753-.249 1.458-.37 2.176.932.55 1.901.925 2.968 1.012.77.063 1.534.056 2.273-.212 1.118-.406 1.897-1.134 2.299-2.281.209-.595.263-1.193.264-1.806.005-2.56 0-5.122.012-7.682.002-.257-.146-.332-.32-.398Zm-2.374 5.682c-.59.293-1.21.41-1.856.25-.594-.148-.95-.58-1.13-1.128-.264-.81-.256-1.62.152-2.403a1.533 1.533 0 0 1 1.203-.836c.519-.064 1.056.02 1.585.056.222.015.312.15.305.386-.017.53-.005 1.062-.005 1.594h.005c0 .543-.01 1.085.004 1.628.006.22-.072.358-.263.453ZM98.715 14.552c-.506.086-.556.041-.558-.46-.004-.803-.004-1.606-.023-2.408-.013-.588-.02-1.179-.087-1.76-.102-.872-.588-1.504-1.36-1.908-.483-.253-.99-.46-1.547-.459-.777.001-1.56-.02-2.332.049-.682.06-1.31.35-1.93.669l.426 1.935c.047.01.073.023.091.016.066-.025.132-.054.193-.086.707-.37 1.474-.5 2.257-.531.362-.014.736.019 1.09.094.562.12.861.605.721 1.1-.051.005-.076.015-.097.01-.045-.012-.088-.031-.133-.047-.828-.3-1.675-.392-2.543-.22-1.505.3-2.39 1.208-2.529 2.605-.089.886.109 1.67.746 2.342 1.148 1.208 3.366 1.072 4.365.483.24-.14.47-.298.726-.46.184.379.427.695.833.783.653.14 1.307.073 1.928-.053V14.52c-.123.017-.18.024-.237.033ZM95.69 13.25c-.11.373-.375.629-.707.796-.43.216-.896.285-1.375.213-.485-.072-.753-.297-.81-.664-.057-.38.205-.897.574-1.047.246-.1.517-.137.814-.212.395.101.81.185 1.209.316.34.112.397.259.295.598ZM59.562 10.475c-.183-1.155-.74-2.067-1.839-2.55-1.354-.594-2.727-.57-4.086.009a3.755 3.755 0 0 0-1.816 1.62c-.474.82-.616 1.723-.576 2.658.09 2.137 1.45 3.696 3.367 4.1 1.572.333 3.1.098 4.56-.572.152-.07.211-.144.174-.324-.111-.53-.196-1.064-.296-1.595-.014-.074-.056-.143-.095-.242-1.01.597-2.094.697-3.206.648-.532-.024-1.025-.158-1.436-.518-.309-.272-.476-.614-.567-1.049h5.67c.19-.751.26-1.464.146-2.185Zm-5.664.19c.269-.746 1.036-1.132 1.998-1.049.748.066 1.285.457 1.398 1.05h-3.396ZM68.984 10.498c-.5-1.603-1.62-2.525-3.192-2.885-1.161-.265-2.318-.148-3.402.445-.822.448-1.42 1.08-1.792 1.93-.435.995-.51 2.032-.276 3.081.18.806.542 1.534 1.156 2.11.903.847 1.981 1.25 3.168 1.23.827 0 1.35-.105 1.915-.35 1.076-.466 1.885-1.202 2.306-2.312.404-1.066.463-2.14.117-3.248Zm-2.28 1.46c.009.797-.275 1.443-.97 1.883-1.222.77-2.876-.022-3.011-1.46-.06-.637-.058-1.271.382-1.82.522-.652 1.393-.948 2.187-.709.754.226 1.366 1.015 1.41 1.822.006.095.001.19.001.284ZM99.308 9.548V7.72c.686-.16 1.362-.225 2.044-.097.402.075.683.35.929.678.331-.176.635-.386.972-.508 1.475-.533 3.396-.365 4.356 1.11.387.594.613 1.266.628 1.964.036 1.736.015 3.472.016 5.207 0 .057-.018.113-.031.188h-2.482c-.006-.126-.016-.238-.016-.351-.002-1.547-.002-3.094-.002-4.64 0-.386-.063-.75-.316-1.063-.393-.484-.909-.626-1.494-.507-.61.125-1.005.524-1.167 1.114a4.042 4.042 0 0 0-.131 1.01c-.014 1.358-.005 2.716-.006 4.074 0 .115-.01.23-.016.364h-2.433c-.008-.13-.021-.252-.021-.375l-.003-5.668c0-.083-.001-.165-.004-.248-.014-.399-.064-.443-.465-.426-.114.005-.228 0-.358 0ZM139.364 12.453c-.077.113-.12.154-.136.204-.301.94-.597 1.883-.897 2.825-.029.09-.073.174-.11.26-.179.427-.419.598-.826.59-.436-.007-.725-.217-.876-.643-.226-.632-.447-1.266-.675-1.897-.511-1.418-1.026-2.835-1.539-4.252-.105-.29-.197-.582-.087-.896.107-.305.302-.492.634-.536.718-.093.992.052 1.224.705.387 1.087.759 2.18 1.141 3.268.013.039.056.067.112.131.058-.079.121-.132.143-.199.347-1.038.692-2.077 1.031-3.119.131-.402.436-.658.819-.664.4-.006.777.247.902.62.274.815.541 1.632.81 2.449.101.307.196.616.295.924l.085.008c.113-.287.235-.57.338-.861.29-.822.574-1.647.857-2.472.217-.635.438-.803 1.076-.803.7 0 1.08.523.853 1.194-.178.525-.38 1.04-.569 1.56l-1.658 4.585c-.045.122-.09.244-.148.36-.187.37-.472.57-.908.543-.411-.026-.654-.246-.777-.612-.335-.995-.66-1.992-.99-2.987-.024-.074-.062-.143-.124-.285ZM123.387 15.042c-.168-.376-.349-.747-.522-1.121-.709-1.528-1.414-3.058-2.126-4.584-.572-1.229-1.152-2.453-1.726-3.681a.802.802 0 0 0-.545-.466c-.469-.124-.845.06-1.082.562-.439.927-.863 1.86-1.298 2.789-.649 1.387-1.302 2.772-1.951 4.159-.38.811-.759 1.622-1.128 2.439-.252.56.117 1.1.729 1.152.542.046.836-.224 1.043-.668.342-.738.692-1.472 1.032-2.21.098-.215.221-.31.481-.307 1.277.018 2.554.016 3.83 0 .257-.004.387.08.488.302.345.749.707 1.49 1.053 2.24.182.393.425.683.935.697.2-.08.429-.123.594-.25.334-.258.385-.627.193-1.053Zm-6.591-3.727 1.385-2.937.113.03 1.352 2.907h-2.85ZM152.732 14.574c-.111-.03-.219-.077-.344-.122v-.22c.001-1.157.01-2.314 0-3.47-.011-1.31-.831-2.32-2.099-2.637a5.661 5.661 0 0 0-2.67-.017c-.465.107-.917.295-1.351.497-.17.078-.327.274-.401.453-.184.443.022.81.339 1.108.306.287.651.253 1.022.1.379-.159.768-.319 1.169-.39.572-.102 1.157-.105 1.68.231.276.177.397.432.438.766-.096.005-.145.02-.186.008-.618-.195-1.255-.21-1.895-.198-.917.017-1.721.338-2.355.99-1.002 1.029-1.1 2.73-.048 3.807.676.692 1.526.959 2.476.94.812-.014 1.602-.12 2.259-.632.06.039.096.051.118.077.513.617 1.188.598 1.885.475.088-.014.171-.076.246-.131.502-.37.37-1.46-.283-1.635Zm-2.238-1.12c-.094.188-.204.397-.366.514-.703.507-1.475.727-2.328.41-.287-.105-.519-.272-.542-.625-.025-.37.07-.667.4-.878.35-.224.681-.326 1.149-.358.47.103.943.192 1.408.315.326.087.429.327.279.623ZM165.374 7.958c.897.038 1.742.211 2.485.737.576.409.884.973.924 1.673.028.493-.317.894-.774.942-.628.066-1.031-.207-1.147-.732-.033-.151-.151-.34-.283-.406-.783-.387-1.583-.43-2.378-.018a.997.997 0 0 0-.206.136c-.252.225-.222.463.099.55.374.103.765.137 1.146.211.741.143 1.491.254 2.214.459.346.098.682.336.947.589.602.573.599 1.333.494 2.083-.134.954-.787 1.5-1.605 1.876-.873.4-1.792.464-2.738.331-.76-.107-1.439-.382-2.005-.896-.466-.424-.768-.944-.814-1.596-.039-.557.253-.91.807-.94.688-.037.892.094 1.114.766a.87.87 0 0 0 .499.56c.77.338 1.545.414 2.326.033.021-.01.043-.02.063-.031.274-.158.553-.335.504-.697-.045-.335-.366-.378-.625-.421a21.406 21.406 0 0 0-1.686-.22c-.597-.052-1.153-.224-1.701-.455-.894-.376-1.263-1.669-1.049-2.396.334-1.138 1.132-1.694 2.201-1.963.386-.097.791-.12 1.188-.175Z"/><path d="M157.435 13.161c.121-.262.246-.522.362-.786.55-1.251 1.093-2.505 1.647-3.755.205-.462.475-.578 1.118-.52.389.036.626.221.715.621a.943.943 0 0 1-.038.513 55.951 55.951 0 0 1-.804 1.924 658.546 658.546 0 0 1-1.661 3.786c-.477 1.077-.939 2.16-1.451 3.222a3.191 3.191 0 0 1-.731.982c-.82.73-1.835.613-2.624.243-.411-.192-.564-.51-.504-.917.067-.461.41-.894.802-.928.21-.018.449.045.642.139.219.106.383.07.488-.11.247-.427.445-.881.701-1.301.317-.519.189-.968-.063-1.474-.757-1.519-1.469-3.06-2.198-4.593-.136-.287-.282-.57-.405-.863-.282-.67.073-1.213.789-1.25.491-.024.813.138 1.03.615.614 1.35 1.272 2.682 1.911 4.021.067.14.121.286.18.43l.094.001ZM69.704 9.552v-1.88c1.066-.169 2.134-.42 2.955.595.073-.031.112-.037.136-.06.977-.867 2.11-.923 3.294-.594.309.085.585.299.861.476.065.042.112.183.097.265-.05.265-.127.525-.203.784-.122.417-.251.832-.387 1.279-.269-.15-.513-.306-.775-.426-.67-.31-1.34-.356-1.985.075-.426.285-.629.69-.629 1.199V16.263H70.59c-.01-.1-.028-.19-.029-.279-.003-1.983-.003-3.966-.005-5.948 0-.482-.022-.5-.502-.485-.113.004-.226 0-.35 0ZM129.428 8.345c.293-.117.559-.245.838-.332 1.083-.337 2.074-.091 2.999.509.461.298.556.77.264 1.258-.301.503-.784.665-1.258.384-.352-.209-.696-.361-1.121-.372-.53-.013-1.212.639-1.193 1.214.049 1.45.002 2.901.022 4.352.013.948-.8 1.145-1.457.889-.341-.133-.45-.45-.449-.813.006-1.699.003-3.397.004-5.096 0-.275-.13-.457-.391-.546-.426-.146-.586-.456-.546-1.063.026-.388.277-.664.703-.716.571-.07 1.136-.068 1.585.332ZM89.302 16.268h-2.423v-8.51h2.423v8.51ZM124.168 12.221c0-1.05.004-2.1-.003-3.15-.002-.37.1-.703.441-.86.35-.16.74-.165 1.091.033.271.153.362.424.363.723.002.378-.004.755-.004 1.133.001 1.746.012 3.492-.004 5.238a1.424 1.424 0 0 1-.213.72c-.186.294-.736.37-1.146.226-.309-.11-.522-.42-.524-.807-.005-1.085-.002-2.17-.001-3.256ZM93.599 23.238c-.082-.265-.017-.412.237-.514.259-.103.386-.331.384-.622-.004-.768.007-1.535-.007-2.302a.753.753 0 0 0-1.195-.617c-.13.09-.223.308-.236.474-.036.458-.02.92-.025 1.38v.614h-.529c-.005-.089-.015-.179-.015-.269.002-.53.03-1.063.005-1.592-.027-.557-.308-.718-.73-.7-.569.023-.764.162-.772.68-.012.791-.004 1.582-.005 2.373 0 .276.12.499.376.585.304.104.29.287.22.52-.71-.023-1.103-.397-1.109-1.066-.007-.826-.009-1.652 0-2.478.009-.711.366-1.05 1.085-1.064.42-.008.834-.013 1.151.378.103-.076.19-.147.285-.21.396-.26 1.291-.252 1.65.06.155.135.272.36.313.564.058.284.034.586.037.88.005.626.016 1.251.005 1.876-.013.661-.444 1.06-1.125 1.05ZM127.086 23.251c-.067-.25-.051-.415.215-.522.231-.093.361-.301.363-.563.003-.378.011-.756-.005-1.133-.017-.425-.224-.61-.653-.623-.569-.017-.78.124-.814.598-.027.361-.006.725-.006 1.108h-.533v-.973c.001-.27-.032-.55-.306-.666-.299-.126-.645-.14-.919.044-.139.093-.236.327-.255.507-.038.374-.019.754-.01 1.132.006.268.119.484.385.58.285.104.236.3.176.51-.61-.024-.994-.313-1.058-.889a7.25 7.25 0 0 1 0-1.516c.028-.272.209-.527.321-.79l.092.019c-.039-.121-.085-.24-.117-.364-.116-.44.111-.847.556-.951a3.35 3.35 0 0 1 .702-.07c.542-.01 1.084-.003 1.676-.003l.02.438h-1.159c-.272 0-.544-.006-.815.01-.279.015-.489.178-.504.362-.015.185.213.437.472.45.376.02.719.101 1.01.373.491-.435 1.044-.411 1.613-.282.32.073.563.267.581.588.037.633.054 1.271.007 1.902-.031.42-.462.683-1.035.724ZM97.973 22.12h-.507c0-.323.003-.626 0-.928-.009-.69-.597-1.049-1.2-.706a.717.717 0 0 0-.31.477c-.046.408-.05.829-.003 1.236.021.182.17.42.329.5.264.135.303.29.234.532-.465.043-.989-.271-1.028-.71a11.148 11.148 0 0 1 .008-1.865c.017-.216.288-.404.338-.628.047-.214-.067-.458-.067-.69-.001-.28.192-.446.435-.547a.956.956 0 0 1 .343-.085c.694-.008 1.389-.004 2.123-.004l.021.398c-.116.011-.205.027-.294.027-.485.002-.97-.002-1.454 0-.118 0-.256-.02-.348.034-.128.075-.272.192-.318.322-.065.187.065.337.246.415a.619.619 0 0 0 .237.064c.356-.003.673.091.936.37.46-.404.98-.42 1.534-.317.422.08.672.335.706.73.046.55.057 1.11.011 1.66-.042.508-.465.808-1.085.852v-.421c.494-.154.654-.513.603-1.01-.027-.258.002-.52-.007-.78-.016-.406-.215-.608-.61-.636-.666-.048-.874.148-.873.823v.888ZM86.565 5.603c.002-.815.623-1.417 1.45-1.4.933.019 1.418.63 1.428 1.39.01.798-.51 1.438-1.453 1.43-.847-.007-1.427-.577-1.425-1.42ZM114.057 20.9c-.035-.558-.303-.814-.863-.899a2.041 2.041 0 0 0-.389-.026c-.337.015-.674.043-1.012.066-.161-.62.027-.882.636-.884l.532.001h.803v-.413c-.618 0-1.195-.024-1.77.007-.453.023-.731.322-.737.75a98.908 98.908 0 0 0-.002 2.831c.01.562.382.917.944.94.283.011.567.01.851.004.584-.013.971-.351 1.007-.927.03-.482.03-.969 0-1.45Zm-.523 1.436c-.019.393-.215.579-.603.581a9.513 9.513 0 0 1-.636-.01c-.328-.02-.515-.177-.531-.5-.022-.457-.006-.917-.005-1.375 0-.035.012-.07.021-.104.097-.385.429-.505 1.206-.434.345.03.528.216.547.572.002.035.003.07.003.106l.001.064c.002.136-.001.272-.002.408l-.001.057.002.2c.003.146.005.29-.002.435ZM129.526 20.115c-.476.053-.578-.02-.536-.45.059-.6.322-.933.798-.98.404-.038.821-.004 1.226.047.273.035.45.242.535.511.18.569.192 1.114-.264 1.614.514.411.404.976.39 1.512-.014.527-.364.878-.898.906-.306.017-.615.011-.922 0-.584-.023-.972-.406-.988-.99-.007-.268.032-.537.052-.836l.482-.021c0 .257.002.489-.001.72-.004.448.212.68.657.7.071.002.142 0 .212 0 .31.004.661.041.807-.3a1.42 1.42 0 0 0-.011-1.17c-.056-.122-.276-.2-.435-.233-.189-.039-.393-.009-.612-.009v-.434c.332-.103.793.128.983-.296.104-.232.122-.526.102-.786-.033-.43-.309-.558-.988-.52-.454.027-.552.193-.589 1.015ZM106.034 23.271c-.039-.24-.069-.427.187-.556.241-.122.264-.384.267-.62.009-.755.019-1.511-.003-2.266-.017-.558-.238-.77-.767-.724-.152.013-.307-.004-.46.007-.312.022-.539.237-.542.544-.01.862-.018 1.724.007 2.585a.667.667 0 0 0 .258.466c.225.152.245.312.183.533-.589-.075-.983-.467-.993-1.02-.014-.849-.013-1.7.001-2.55.008-.53.322-.934.836-.983a5.493 5.493 0 0 1 1.4.063c.376.063.57.38.575.755.015.956.015 1.913.003 2.869-.005.438-.311.715-.952.897ZM136.894 23.248c-.648-.116-.95-.436-.956-1.03-.009-.838-.01-1.676 0-2.514.008-.679.381-1.043 1.057-1.059.248-.005.496-.011.744.002.615.032.99.37 1.006.97.024.884.021 1.77.001 2.655-.014.564-.374.9-.985.972-.053-.218-.045-.377.184-.53.14-.094.257-.326.262-.5.026-.837.018-1.676.007-2.514-.005-.394-.208-.584-.594-.594a8.03 8.03 0 0 0-.603.004c-.35.018-.54.176-.547.52-.018.885-.021 1.77 0 2.655a.613.613 0 0 0 .253.428c.239.15.229.319.171.535ZM143.951 23.273c-.786-.237-.959-.46-.959-1.22.001-.779-.001-1.557.012-2.335.012-.733.359-1.064 1.097-1.074.212-.002.425-.005.637 0 .678.019 1.03.354 1.055 1.026.015.424.003.849.003 1.273.001.378.005.755.003 1.133-.003.715-.231.997-.972 1.191-.09-.208-.128-.389.133-.517.253-.125.331-.359.332-.62.003-.778.01-1.557-.003-2.335-.008-.496-.23-.69-.733-.69-.141.001-.283 0-.425.003-.424.01-.606.176-.616.6-.013.555-.006 1.11-.007 1.664l-.001.778c-.001.262.058.486.325.614.225.108.172.297.119.509ZM87.702 20.517V19.45h-.828V19h.78l.074-.343h.423c.088.693.646.168.983.396l.022.381h-.95c0 .145.008.258-.002.37-.02.217.08.303.288.297.64-.018 1.015.399 1.02 1.136.002.477.085.96-.106 1.434-.153.377-.426.566-.8.598-.352.03-.71.023-1.063-.003-.47-.034-.868-.394-.852-.91.01-.341.016-.684.026-1.026.002-.045.02-.09.037-.16l.512-.04c-.019.292-.017.558-.056.818-.09.606.146.878.756.906.695.032 1.065-.111 1.012-1.007-.013-.236.008-.473-.005-.708-.021-.38-.237-.57-.617-.569-.177.001-.354 0-.531-.006-.033-.001-.065-.024-.123-.047ZM132.504 21.296h.511c-.026.252-.052.48-.073.71-.055.59.164.833.755.84.883.01.995-.104.995-.988-.001-.696.001-1.392.003-2.087 0-.474-.186-.664-.661-.673-.823-.016-.995.176-.905 1.014.005.045 0 .09 0 .166h-.531c0-.24-.008-.45.002-.66.027-.591.359-.93.958-.97.235-.015.473-.015.708 0 .569.034.944.41.952.982.013.907.012 1.816 0 2.723-.007.52-.399.901-.927.922-.283.012-.567.007-.85 0-.646-.016-1.019-.367-1.032-1.01-.006-.314.059-.628.095-.97ZM100.691 21.173h.585c-.025.31-.045.6-.072.89-.047.524.175.774.702.786.941.021 1.064-.1 1.06-1.043-.001-.248.011-.498-.012-.743-.034-.356-.202-.492-.56-.493-.177-.001-.355 0-.532-.003-.033-.001-.065-.023-.133-.047V19.44h-.878v-.444h.825l.09-.343h.431l.079.327h.843l.035.454h-.92c0 .162-.026.305.008.43.025.09.119.179.205.225.076.042.185.02.278.035.392.06.681.268.709.673.039.573.057 1.154.01 1.725-.036.45-.392.724-.852.75a8.749 8.749 0 0 1-1.028-.003c-.512-.032-.834-.345-.868-.858-.026-.397-.005-.798-.005-1.239ZM116.621 21.307l.572-.037c-.016.248-.045.465-.041.68.003.209-.024.452.072.617.246.42.691.256 1.066.27.277.011.474-.142.563-.402.04-.12.05-.255.051-.383.004-.731.004-1.463.001-2.194-.003-.566-.202-.759-.774-.759-.094 0-.189-.003-.283.004-.334.026-.519.2-.545.535-.016.208-.003.418-.003.65h-.509c0-.302-.032-.586.008-.86.056-.382.297-.672.681-.722a4.638 4.638 0 0 1 1.226.001c.438.06.685.388.695.821.022.955.028 1.912 0 2.866-.014.514-.413.857-.936.88a10.25 10.25 0 0 1-.921-.002c-.561-.026-.895-.358-.92-.916-.015-.34-.003-.68-.003-1.05ZM139.473 18.651h.495c.006.13.016.245.016.36.002 1.003.001 2.006.002 3.009 0 .652.17.822.816.825.13 0 .261.006.389-.009.333-.037.551-.247.563-.577.016-.4.002-.803-.002-1.204-.001-.2-.098-.318-.295-.387-.469-.164-.639-.469-.59-1.04h.466c.015.104.006.218.05.305.059.115.142.275.244.3.485.124.614.497.654.907.038.386.033.78.006 1.167-.043.613-.43.959-1.046.97-.26.005-.52.006-.78-.004-.614-.022-.975-.359-.983-.973-.016-1.202-.005-2.405-.005-3.649ZM120.196 20.783l.458-.024c0 .337.004.649-.001.96-.003.165-.04.33-.03.494.022.373.264.608.634.63.164.01.33.008.495 0 .427-.018.677-.277.679-.7.002-.541.002-1.083 0-1.625-.002-.406-.224-.685-.615-.67-.627.026-.976-.39-.897-1.155h.421c.025.035.046.052.05.072.078.384.321.608.727.672.481.075.745.294.773.773.042.728.059 1.462.017 2.19-.034.587-.401.866-.997.877-.26.004-.52.006-.779-.004-.613-.021-.958-.345-1.016-.956a3.14 3.14 0 0 1 .003-.495c.021-.338.05-.675.078-1.039ZM108.497 18.698h.454c.017.087.035.164.048.243.061.357.166.45.537.478.717.052.992.337.998 1.052.005.602.007 1.204-.002 1.805-.01.625-.395.995-1.028 1.003-.26.003-.52.005-.78-.004-.579-.018-.955-.332-.986-.902-.028-.513.022-1.03.039-1.577l.48-.036c.009.126.025.226.023.325-.006.39-.029.779-.023 1.168.006.353.194.55.542.58.21.02.425.022.637.006.358-.027.566-.234.574-.594a41.77 41.77 0 0 0 .003-1.805c-.008-.393-.199-.568-.599-.6-.703-.053-.983-.393-.917-1.142ZM125.264 7.566c-.606-.011-1.031-.46-1.018-1.078.014-.654.461-1.105 1.088-1.097.563.007 1.073.54 1.065 1.11-.01.592-.525 1.076-1.135 1.065Z"/><path d="m113.535 21.7.001.202-.002-.201.001-.057v.057Z"/></g><defs><clipPath id="a"><path fill="#fff" d="M0 0h168.949v24H0z"/></clipPath></defs></svg>