<svg xmlns="http://www.w3.org/2000/svg" width="92" height="24" fill="none" viewBox="0 0 92 24"><path fill="#005994" d="M57.273 17.287q1.695-.64 3.29-1.307l-2.108 5.913h-2.97l1.65-4.556z"/><path fill="#C31F3F" d="M69.68 6.551a60 60 0 0 1-2.568 1.665l-1.947-5.15-2.773 7.779a77 77 0 0 1-3.507 1.665L63.288.365h4.162z"/><path fill="#005994" d="M75.21 21.893h-2.93l-3.685-9.752q1.321-.726 2.563-1.489zM78.716 9.946h-2.34v11.947h2.34zM84.593 8.216V5.99h-2.738v15.904h2.738V10.738c.55-.761 2.617-3.006 7.284-1.97V6.131s-2.594-1.74-7.284 2.083z"/><path fill="#C31F3F" d="M18.114 5.675c-1.43-1.343-2.904-2.298-4.667-2.783-1.732-.476-3.468-.527-5.18-.016-2.744.817-4.322 2.748-4.922 5.478-.416 1.889-.435 3.817.006 5.7.783 3.344 2.872 5.346 6.437 5.695 3.03.296 6.079-.93 8.314-2.95v3.72c-1.339.648-2.598 1.502-4.176 1.439l-5.166-.01c-1.807.099-3.288-.575-4.681-1.552C2.05 18.972.899 16.942.38 14.579c-.493-2.251-.531-4.545.01-6.797C1.373 3.71 3.937 1.178 8.072.306c3.548-.748 6.874-.093 10.042 1.645zM31.857 15.155c0-.74.033-.978-.034-2.47-.12-2.7-1.74-4.365-4.276-4.951-1.223-.282-2.474-.254-3.707.032-1.398.325-2.507 1.08-3.383 2.213-.962 1.245-1.367 2.704-1.501 4.206-.195 2.165.265 4.203 1.71 5.927a5.8 5.8 0 0 0 1.306 1.115q4.923-.443 9.668-1.178l.006-1.568s-.553.315-1.028.54c-1.24.582-3.3 1.533-5.632.915-2.314-.615-3.645-2.493-3.465-4.787 3.371 0 6.884.006 10.336.006M25.85 9.5c1.983.17 3.81 1.254 3.636 3.718H21.56c.132-2.166 2.116-3.904 4.29-3.718M54.513 11.395v2.926q-1.25.482-2.558.931v-3.41s.104-1.687-1.767-2.117c-1.752-.401-3.659.568-4.571 1.39v6.056q-1.26.334-2.556.639v-5.967s0-1.608-2.16-2.118c-1.929-.454-3.576.783-4.44 1.635v7.861q-1.272.241-2.555.46V7.737h2.555v1.209s3.012-2.479 6.19-1.493c1.615.5 2.15 1.902 2.15 1.902 1.988-1.489 4.51-2.742 7.103-1.923 1.594.503 2.609 2.122 2.609 3.964"/><path fill="#005994" d="M45.617 20.798v1.095H43.06v-.518q1.296-.276 2.556-.578M54.513 18.27v3.623h-2.556V19.09a93 93 0 0 0 2.556-.82"/><path fill="#231F20" d="M73.41 7.482c-5 3.404-11.066 6.373-16.638 8.476-4.736 1.785-9.69 3.132-14.646 4.166C28.76 22.954 15.331 23.844 1.698 24l-.236-.736c13.63.359 27.235-.69 40.537-3.752 4.902-1.092 9.788-2.524 14.434-4.424 5.371-2.158 10.561-4.817 15.253-8.214.156-.116.47-.361.776-.603l.692.54zM75.377 5.543l.708.256q.044.014.085-.004l1.057-.491a.112.112 0 0 0 .042-.168l-.21-.286a.113.113 0 0 1 .024-.159l.708-.52a.114.114 0 0 1 .162.03c.485.742 1.164 2.577 1.387 3.204.03.083.142.091.185.014l.148-.27a.57.57 0 0 0 .06-.395c-.095-.483-.332-1.683-.46-2.32a3.25 3.25 0 0 1 .061-1.475.1.1 0 0 1 .04-.059l1.994-1.472c.538-.396.615-.858.623-1.047a.114.114 0 0 0-.085-.115c-.183-.049-.647-.11-1.185.286l-1.993 1.472a.1.1 0 0 1-.067.023 3.25 3.25 0 0 1-1.426-.378A379 379 0 0 0 75.154.544a.6.6 0 0 0-.398-.06l-.302.064a.101.101 0 0 0-.04.18c.531.4 2.087 1.588 2.65 2.272a.113.113 0 0 1-.018.164l-.708.521a.113.113 0 0 1-.158-.024l-.21-.286a.113.113 0 0 0-.175-.008l-.781.866a.1.1 0 0 0-.028.081l.036.75a.11.11 0 0 1-.038.09l-.575.507a.11.11 0 0 1-.117.02l-1.205-.489a.11.11 0 0 0-.11.014l-.17.126a.113.113 0 0 0-.002.18l1 .782q.024.02.037.048l.45 1.187a.113.113 0 0 0 .172.05l.17-.125a.11.11 0 0 0 .045-.102l-.111-1.296a.11.11 0 0 1 .053-.105l.655-.4a.11.11 0 0 1 .097-.01z"/></svg>