<svg height="25" viewBox="0 0 109 25" width="109" xmlns="http://www.w3.org/2000/svg"><g fill-rule="evenodd"><path d="m0 .5v24h24v-24zm24 17 5-5-5-5z" fill="#c17c51"/><path d="m40.48 11.668c-2.198 0-3.822-1.722-3.822-3.822v-.028c0-2.1 1.624-3.864 3.85-3.864 1.162 0 1.96.378 2.59.924a.803.803 0 0 1 .266.588.77.77 0 0 1 -.784.77.864.864 0 0 1 -.504-.168c-.434-.364-.91-.63-1.582-.63-1.232 0-2.142 1.064-2.142 2.352v.028c0 1.316.91 2.366 2.212 2.366.672 0 1.19-.266 1.652-.658a.736.736 0 0 1 .462-.182c.406 0 .728.336.728.742a.66.66 0 0 1 -.238.532c-.658.63-1.456 1.05-2.688 1.05zm4.676-.938v-8.68c0-.462.364-.84.84-.84s.854.378.854.84v8.68c0 .476-.378.84-.854.84a.834.834 0 0 1 -.84-.84zm10.472-5.852v5.852c0 .462-.378.84-.854.84a.845.845 0 0 1 -.854-.84v-.378c-.476.7-1.162 1.302-2.31 1.302-1.666 0-2.632-1.12-2.632-2.842v-3.934c0-.476.378-.854.84-.854.476 0 .854.378.854.854v3.43c0 1.148.574 1.792 1.582 1.792.98 0 1.666-.672 1.666-1.82v-3.402c0-.476.378-.854.854-.854.462 0 .854.378.854.854zm2.114 5.852v-8.68c0-.476.364-.84.84-.84s.854.364.854.84v3.29c.546-.77 1.316-1.386 2.52-1.386 1.736 0 3.43 1.372 3.43 3.836v.028c0 2.45-1.68 3.836-3.43 3.836-1.232 0-2.002-.616-2.52-1.302v.378c0 .462-.378.84-.854.84a.842.842 0 0 1 -.84-.84zm3.808-.546c1.162 0 2.114-.91 2.114-2.366v-.028c0-1.428-.966-2.366-2.114-2.366s-2.156.952-2.156 2.366v.028c0 1.414 1.008 2.366 2.156 2.366zm9.324.504c0-.336.154-.616.448-.854l3.01-2.562c1.344-1.134 1.834-1.764 1.834-2.646 0-.966-.686-1.526-1.582-1.526-.784 0-1.33.364-1.932 1.092a.788.788 0 0 1 -.602.266.783.783 0 0 1 -.784-.784c0-.182.07-.378.196-.532.798-.994 1.708-1.582 3.248-1.582 1.918 0 3.234 1.176 3.234 2.926v.028c0 1.54-.812 2.38-2.548 3.794l-2.016 1.68h3.976c.42 0 .756.336.756.756s-.336.756-.756.756h-5.558c-.532 0-.924-.308-.924-.812zm13.034.98c-2.576 0-4.256-2.24-4.256-5.04v-.028c0-2.8 1.708-5.068 4.284-5.068 2.562 0 4.256 2.24 4.256 5.04v.028c0 2.8-1.708 5.068-4.284 5.068zm.028-1.554c1.526 0 2.478-1.568 2.478-3.486v-.028c0-1.932-.994-3.514-2.506-3.514s-2.478 1.54-2.478 3.486v.028c0 1.932.98 3.514 2.506 3.514zm10.108 1.554c-2.576 0-4.256-2.24-4.256-5.04v-.028c0-2.8 1.708-5.068 4.284-5.068 2.562 0 4.256 2.24 4.256 5.04v.028c0 2.8-1.708 5.068-4.284 5.068zm.028-1.554c1.526 0 2.478-1.568 2.478-3.486v-.028c0-1.932-.994-3.514-2.506-3.514s-2.478 1.54-2.478 3.486v.028c0 1.932.98 3.514 2.506 3.514zm10.108 1.554c-2.576 0-4.256-2.24-4.256-5.04v-.028c0-2.8 1.708-5.068 4.284-5.068 2.562 0 4.256 2.24 4.256 5.04v.028c0 2.8-1.708 5.068-4.284 5.068zm.028-1.554c1.526 0 2.478-1.568 2.478-3.486v-.028c0-1.932-.994-3.514-2.506-3.514s-2.478 1.54-2.478 3.486v.028c0 1.932.98 3.514 2.506 3.514z"/><path d="m37 21.58v-2.874a.669.669 0 1 1 1.338 0v2.828c0 .993.497 1.506 1.313 1.506.817 0 1.314-.496 1.314-1.46v-2.874a.669.669 0 0 1 1.338 0v2.82c0 1.843-1.034 2.746-2.672 2.746s-2.631-.9-2.631-2.693zm6.674-2.862a.669.669 0 1 1 1.338 0v4.253h2.463a.616.616 0 0 1 0 1.231h-3.149a.665.665 0 0 1 -.669-.669zm5.935.633h-1.289a.616.616 0 1 1 0-1.232h3.916a.616.616 0 1 1 0 1.232h-1.289v4.235a.669.669 0 0 1 -1.338 0zm4.28-.633a.669.669 0 0 1 1.339 0v4.852a.669.669 0 0 1 -1.338 0v-4.852zm2.866.021a.665.665 0 0 1 .669-.67h.148a.685.685 0 0 1 .607.35l1.617 2.635 1.642-2.643a.657.657 0 0 1 .6-.341h.147a.665.665 0 0 1 .67.669v4.835a.665.665 0 0 1 -1.33 0v-3.037l-1.191 1.81a.628.628 0 0 1 -1.112 0l-1.154-1.765v3.025a.653.653 0 0 1 -.66.652.644.644 0 0 1 -.653-.652zm7.216 4.589 2.11-4.798a.82.82 0 0 1 .783-.53h.078a.82.82 0 0 1 .78.53l2.122 4.79a.653.653 0 0 1 .07.27.636.636 0 0 1 -.636.645.681.681 0 0 1 -.645-.46l-.41-.956h-2.68l-.41 1.001a.657.657 0 0 1 -.617.41.616.616 0 0 1 -.62-.627.71.71 0 0 1 .075-.275zm3.763-1.687-.833-2.007-.841 2.007zm4.006-2.29h-1.289a.616.616 0 1 1 0-1.232h3.916a.616.616 0 1 1 0 1.232h-1.31v4.235a.669.669 0 0 1 -1.337 0zm4.22 4.17v-4.75a.665.665 0 0 1 .669-.652h3.374c.33.002.597.27.599.6a.595.595 0 0 1 -.6.59h-2.712v1.232h2.335c.33.002.597.27.6.6a.595.595 0 0 1 -.6.59h-2.323v1.277h2.733c.33.002.597.269.6.599a.595.595 0 0 1 -.6.59h-3.405a.665.665 0 0 1 -.67-.676z" fill-rule="nonzero"/></g></svg>