<svg height="111" viewBox="0 0 232 111" width="232" xmlns="http://www.w3.org/2000/svg"><g fill-rule="evenodd"><path d="m.606.606v110.21h110.21v-41.368l13.738-13.737-13.738-13.738v-41.367z" fill="#355e66"/><g fill-rule="nonzero"><path d="m40.45 37.436v3.163h-12.305v-17.349h3.426v14.187h8.879zm-24.704-3.713v6.876h-3.426v-17.349h13.03v3.164h-9.604v4.146h8.515v3.164h-8.515zm16.278 29.913c0 4.272-3.41 6.91-8.903 6.91h-10.8v-24.58h10.383c2.722 0 4.935.773 6.408 2.229a5.768 5.768 0 0 1 1.618 4.11v.069a5.99 5.99 0 0 1 -3.014 5.396c2.86 1.149 4.308 3.094 4.308 5.796zm36.22-34.61v11.574h-3.382v-17.35h3.095l8.705 11.234v-11.234h3.378v17.35h-2.828zm-23.332 11.574v-6.82l-6.902-10.53h4.053l4.6 7.282 4.651-7.281h3.956l-6.905 10.456v6.893h-3.454zm12.475-17.35h3.426v17.35h-3.426zm-21.047 22.722h3.536v21.2h13.11v3.374h-16.646v-24.575zm39.873 14.013c0 6.848-3.802 10.933-10.17 10.933-6.253 0-10.137-4.11-10.137-10.731v-14.217h3.536v14.045c0 4.785 2.431 7.528 6.666 7.528 4.236 0 6.57-2.613 6.57-7.358v-14.215h3.535v14.013zm15.574-29.291h7.641v7.443l-.08.069a10.97 10.97 0 0 1 -7.193 2.65c-5.291 0-8.988-3.642-8.988-8.9v-.049a8.855 8.855 0 0 1 8.964-8.948c2.746 0 4.672.68 6.638 2.347l.174.15-2.173 2.604-.178-.15a6.359 6.359 0 0 0 -4.579-1.755c-2.904 0-5.258 2.569-5.258 5.728v.049c0 3.414 2.273 5.8 5.51 5.8a6.751 6.751 0 0 0 3.846-1.165v-2.831h-4.324zm-6.723 29.133v7.378h14.372v3.341h-17.908v-24.575h17.742v3.341h-14.206v7.172h12.71v3.342h-12.71zm-72.796 17.073h2.868l3.18 5.113 3.179-5.113h2.864v12.087h-2.646v-7.892l-3.402 5.162h-.069l-3.37-5.113v7.839h-2.604zm17.398 0h9.117v2.367h-6.472v2.451h5.696v2.37h-5.7v2.54h6.565v2.367h-9.206zm13.98 0h2.868l3.18 5.113 3.179-5.113h2.864v12.087h-2.642v-7.892l-3.402 5.162h-.069l-3.37-5.113v7.839h-2.608zm17.398 0h5.614c1.38 0 2.472.38 3.16 1.072.55.54.85 1.285.829 2.055v.016a2.832 2.832 0 0 1 -1.59 2.61c1.4.533 2.261 1.346 2.261 2.969v.036c0 2.209-1.796 3.317-4.522 3.317h-5.752zm14.878 0h9.118v2.367h-6.473v2.451h5.7v2.37h-5.7v2.54h6.561v2.367h-9.206zm13.984 0h5.525c1.538 0 2.73.433 3.524 1.214a3.794 3.794 0 0 1 1.035 2.763v.036a3.754 3.754 0 0 1 -2.589 3.746l2.953 4.316h-3.11l-2.59-3.867h-2.087v3.867h-2.661zm5.352 5.874c1.294 0 2.022-.692 2.022-1.711v-.037c0-1.14-.809-1.727-2.087-1.727h-2.643v3.47l2.707.005zm-79.439-33.498v7.245h6.436c3.07 0 4.903-1.412 4.903-3.774v-.069c0-2.164-1.715-3.402-4.705-3.402h-6.633zm0 10.517v7.44h7.379c3.288 0 5.258-1.412 5.258-3.775v-.06c0-2.978-3.119-3.605-5.736-3.605h-6.9zm50.27 21.994c1.172 0 1.916-.38 1.916-1.279v-.036c0-.809-.618-1.246-1.743-1.246h-2.625v2.557l2.451.004zm.707 4.854c1.173 0 1.88-.405 1.88-1.315v-.024c0-.809-.602-1.31-1.969-1.31h-3.074v2.657z" fill="#fff"/><path d="m143 52.691a.718.718 0 1 1 1.437 0v1.306c.784-1.158 1.92-2.147 3.694-2.147 2.315 0 4.609 1.826 4.609 5v.036c0 3.152-2.278 5.02-4.61 5.02a4.353 4.353 0 0 1 -3.693-2.052v4.203a.702.702 0 0 1 -.71.726.718.718 0 0 1 -.727-.726v-11.367zm8.266 4.216v-.037c0-2.278-1.567-3.731-3.394-3.731a3.596 3.596 0 0 0 -3.489 3.694v.037a3.591 3.591 0 0 0 3.49 3.73c1.862.021 3.393-1.358 3.393-3.693zm7.873 5.02c-2.652 0-4.815-2.053-4.815-5.02v-.037c0-2.779 1.958-5.02 4.63-5.02 2.873 0 4.478 2.331 4.478 4.888a.669.669 0 0 1 -.673.674h-6.978c.206 2.089 1.68 3.283 3.395 3.283a3.944 3.944 0 0 0 2.779-1.12.62.62 0 0 1 1.046.447.62.62 0 0 1 -.226.468 4.925 4.925 0 0 1 -3.636 1.436zm2.873-5.578c-.148-1.753-1.157-3.284-3.078-3.284-1.68 0-2.947 1.4-3.136 3.284zm3.994 2.799v-5.804h-.784a.653.653 0 0 1 -.637-.632.64.64 0 0 1 .637-.636h.784v-2.278a.714.714 0 0 1 .71-.727.743.743 0 0 1 .726.727v2.278h2.508a.657.657 0 0 1 .653.636.644.644 0 0 1 -.653.632h-2.508v5.635c0 1.174.653 1.605 1.642 1.605.297-.011.591-.055.878-.131a.62.62 0 0 1 .616.616.6.6 0 0 1 -.41.558 3.632 3.632 0 0 1 -1.42.263c-1.568-.017-2.742-.784-2.742-2.742zm6.567-6.457c0-.394.315-.717.71-.726a.718.718 0 0 1 .726.726v1.81c.71-1.604 2.11-2.573 3.32-2.573a.69.69 0 0 1 .711.726.714.714 0 0 1 -.636.727c-1.868.226-3.395 1.642-3.395 4.404v3.284a.718.718 0 0 1 -1.436 0v-8.379zm6.083 4.236v-.037a5.03 5.03 0 1 1 10.06-.037v.037a5.012 5.012 0 0 1 -5.057 5.04 4.925 4.925 0 0 1 -5.003-5.003zm8.582 0v-.037a3.653 3.653 0 0 0 -3.583-3.768c-2.09 0-3.526 1.7-3.526 3.731v.037a3.62 3.62 0 0 0 3.563 3.752c2.093 0 3.546-1.683 3.546-3.715zm3.731-8.209a.718.718 0 0 1 1.437 0v12.355a.702.702 0 0 1 -.702.726.718.718 0 0 1 -.727-.726zm8.533 13.208c-2.651 0-4.814-2.052-4.814-5.02v-.036c0-2.779 1.958-5.02 4.63-5.02 2.873 0 4.478 2.331 4.478 4.888a.669.669 0 0 1 -.674.674h-6.977c.205 2.089 1.679 3.283 3.394 3.283a3.944 3.944 0 0 0 2.779-1.12.62.62 0 0 1 1.047.447.62.62 0 0 1 -.226.468 4.925 4.925 0 0 1 -3.637 1.436zm2.873-5.577c-.147-1.753-1.157-3.284-3.078-3.284-1.679 0-2.947 1.4-3.136 3.284zm11.752 4.72a.71.71 0 1 1 -1.42 0v-1.047a3.694 3.694 0 0 1 -3.284 1.884c-2.332 0-3.694-1.568-3.694-3.862v-5.336a.702.702 0 0 1 .71-.727.73.73 0 0 1 .726.727v5c0 1.789.969 2.91 2.668 2.91 1.7 0 2.873-1.232 2.873-3.026v-4.9a.702.702 0 0 1 .71-.727.714.714 0 0 1 .71.726v8.378zm2.762-8.378c0-.394.315-.717.71-.726a.718.718 0 0 1 .726.726v.99c.637-.953 1.494-1.827 3.116-1.827a3.284 3.284 0 0 1 3.099 1.9 3.846 3.846 0 0 1 3.394-1.92c2.22 0 3.583 1.494 3.583 3.882v5.336a.718.718 0 0 1 -1.436 0v-4.982c0-1.863-.932-2.91-2.5-2.91-1.457 0-2.651 1.084-2.651 2.988v4.926a.718.718 0 1 1 -1.437 0v-5.04c0-1.81-.952-2.874-2.463-2.874-1.51 0-2.688 1.269-2.688 3.042v4.872a.702.702 0 0 1 -.71.726.718.718 0 0 1 -.727-.726l-.016-8.382z" fill="#a37ea3"/></g></g></svg>