<svg height="93" width="485" xmlns="http://www.w3.org/2000/svg"><g fill="none" fill-rule="evenodd"><path d="m455.822562 85.3533355c-7.485526.3702882-14.440384-2.1845612-19.791725-6.6651882l-.030837.0343806c5.538204 5.4479295 13.20599 8.6513641 21.531936 8.2425139 15.923313-.7814615 28.208801-14.481197 27.433277-30.588503-.389372-8.1449474-4.044688-15.3523268-9.621093-20.3765388l-.024393.0246239c4.616781 4.9020216 7.58264 11.4440901 7.935192 18.7313812.775064 16.118921-11.510424 29.8149397-27.432357 30.5973304m-30.756785-16.9560908c-1.059201.4691209-1.311667 1.1998836-.802537 2.3359948.463467 1.0426364 1.230837 1.5065157 2.067491 1.2361378.671842-.2013638.795713-.6814046.547971-1.9262784l-.10445-.4822248c-.23567-1.2212867-.273461-1.7498121-.083456-2.2713487.187381-.5861827.598885-.9605184 1.229262-1.1583878 1.500098-.4651897 2.884199.3254144 3.675713 2.0830888.859224 1.9026914.335921 3.3209739-1.448135 3.9010414l-.415703-.9330001c1.240284-.4188892 1.579355-1.3746028.951602-2.7561943-.509131-1.1260648-1.348409-1.6406127-2.254346-1.3531997-.730629.2232037-.912237.7862361-.676567 2.059065l.08608.5390085.085555.4699944c.17216.942173.182657 1.2789441.067709 1.6794877-.161137.4988231-.55427.8578709-1.175199 1.0491884-1.40772.4446602-2.739333-.2664467-3.453691-1.8520228-.770519-1.7253514-.301804-2.9811452 1.283849-3.5424304zm-1.256697-10.6880984 4.187029-3.7091463-.002594 1.4052168-3.545831 3.0902439 1.1021 1.3966802 2.450216.0014228-.002594 1.1064363h-6.989623l-.002595-1.1007453 2.748549-.0028455.380049.0099594.357134.0009485-.227856-.2774391-.235207-.2764905-3.023966-3.7456639-.003891-1.4616531zm3.135806-11.1921722 3.055114 1.0871424-.400768 1.0188453-3.052152-1.0880781-5.54708 1.4651163.486153-1.239174 3.445023-.837343.424952-.1024458c.171758-.0477146.282808-.0664261.58289-.1206897-.261584-.3096766-.323279-.3770382-.593748-.7582866l-2.050233-2.7576182.462956-1.1844427zm5.851824-14.5270355-1.726815 2.1108458 4.930105 4.3951228-1.234494 1.5040928-4.930105-4.388472-1.720914 2.0980559-1.114487-1.0017053 4.675829-5.7078786zm9.194759-5.8478552-3.771746 2.0064803.761387 1.3187929 3.470116-1.8419576.611944 1.0572105-3.467375 1.8358642.887067 1.5233582 3.848068-2.0486991.66907 1.1416481-5.400091 2.8652191-3.599909-6.1713415 5.330168-2.8286585zm16.008531 2.6331876-2.138149.1015242-1.017879-1.7645408-3.302303.4536401-.502886 1.9621416-2.038783.4719639 2.329821-8.7315798 2.017598-.2684202zm-4.578939-4.228856c-.432774-.744346-.599226-1.0796236-.84386-1.6545975-.080704.5715072-.167965.9964233-.387379 1.8170363l-.370733 1.5263303 2.382278-.3268586zm14.394159 9.453585-1.62269-.7122265.675278-2.5113701c.070803-.2878211.179657-.6949572.325598-1.2130352.139198-.5254044.263946-.9382968.354497-1.2418173.105482-.3375357.207592-.6865842.320299-1.0539486l.196996-.5981446c-.474428.8529971-.665163 1.1429115-1.101059 1.8263558-.182065.3029972-.35546.5599429-.494658.7671741l-2.279184 3.3225024-1.406428-.439058-.367983-4.0645576c-.026009-.2082778-.035643-.4997621-.051537-.9079448-.021193-.534824-.037087-.9388202-.043349-1.2161751-.004335-.2286869.00289-.5662226.014931-1.0330162l-.215299 1.0267365c-.250459 1.1088963-.36702 1.5872027-.700805 2.9143197l-.702251 2.7206946-1.717576-.3338725 2.113013-8.2526166 2.61297.6096575.289474 3.9379162c.077064.9210276.078509 1.6934349.022637 2.7871551.302479-.6227402.413259-.8236917.762939-1.389391.236011-.3809705.438305-.7007136.622297-.9921979l2.113495-3.1529496 2.463175.9759753z" fill="#010101"/><path d="m453.570789 45.860636c-.911897.7898212-2.72929 2.5047006-4.477628 4.1622922l-1.986144 1.8768819c-1.578672-.3310487-3.14774-.5066689-4.759796-.5418869-3.602316-.0793577-6.925666.8701182-8.463636 2.4168906-.582627.5940094-.88766 1.2453067-.883544 1.9304132-.001372 1.8012808 1.975169 2.7470001 2.582033 2.9968128 3.175179 1.2932031 5.861939 1.0011289 8.725225-.972485 1.582787-1.088939 3.491187-2.8456104 4.98251-4.2571458 1.135528.287848 2.41877.6686715 3.801708 1.1199308l1.270895.4118152c-1.690716 1.6430348-3.432651 3.3790449-5.042877 4.7736758l-.127593.1117583c-2.23767 1.9393351-3.8543 3.3471139-6.160111 3.8274868-1.621203.3310487-2.761761-.0446094-3.134477-.2892568-.033385.0056349-.085976.0704359-.085976.0704359 1.305193 1.1598445 2.548191 1.8247594 4.716349 1.6782527 2.064346-.1385239 4.471683-1.4199877 6.951734-3.7157285l3.353991-3.2428688 2.352916-2.3013757c0 .009861 4.623513 1.5077979 4.623513 1.5077979.036586.0056348.085977.0206612.085977.0206612-.049391-.0014088-2.943775 2.8188447-2.943775 2.8188447l-2.522581 2.477935c-2.587064 2.4802828-3.992868 3.7589292-5.499741 4.8070154-2.478678 1.7346014-4.592415 2.6192763-6.440449 2.7070864-.955343.0460181-2.336909-.0568183-3.472894-.7700992-.051677-.0154959-.119818.0493051-.119818.0493051 1.22379 1.1265049 2.733406 2.4802829 5.369404 2.464787 2.985847-.0305222 5.658888-1.4434664 9.854806-5.240431 1.916632-1.7303753 3.817714-3.6739366 5.49471-5.3916334l3.128989-3.1217191c2.003523.5043211 3.793476.7320638 5.789682.7334725 2.89667.0042262 5.400501-1.3692739 5.463612-3.0033868.053963-1.198819-.898636-1.8684296-1.466171-2.2638098-.465553-.3310487-1.751539-1.1025566-3.536919-1.1415311-2.175475-.0474269-4.464366.8912489-6.80402 2.7836267l-1.555805 1.357065c.016006-.0084523-.555645-.1676374-.555645-.1676374l-4.231132-1.3265428c1.277754-1.1734621 2.368007-2.1853912 3.34896-3.0451787 2.376697-2.0820853 4.966505-2.9005504 6.477493-2.9662906 1.096655-.0502443 3.006427.0878101 3.783415.68135.036128-.0070436.090092-.083584.090092-.083584-2.058858-1.886743-3.862532-2.1774084-5.358886-2.209809-1.474859-.0305222-3.848354.3944411-6.787098 2.6380593-1.197723.9184841-2.765876 2.4605608-4.404457 4.0857518 0-.0084523-2.138432-.7226724-2.138432-.7226724l-.516773-.1803159-2.248646-.756012c.049391.0014088 1.319371-1.2265238 1.319371-1.2265238 1.555805-1.5012238 3.021976-2.9226203 4.166192-3.8749136 4.159333-3.4410285 6.738165-3.8490872 8.521259-3.8237303 1.960077.0366267 3.506279.4883556 4.597904 1.3364038.03247-.003287.085519-.077949.085519-.077949-2.248189-2.1802259-3.881739-2.8991417-6.725818-2.9892996-2.496971-.0709055-5.510716 1.295551-8.487417 3.858009m-16.304859 12.2426986c-1.317999-.1202106-1.955961-.6836978-1.935839-1.7327231.002744-.138524.160519-3.4673246 7.587867-3.6852063.845586-.0286439 1.788582-.038505 3.225941.1605938-.062196.0042262-.85519.7250202-.85519.7250202l-.473784.4235546c-1.822881 1.6322346-4.871839 4.3613909-7.548995 4.1087608m30.063814-2.0407628c2.161298-1.4350141 3.959026-2.1858608 5.059797-2.1191814.651225.03287 1.426841.2530996 1.410835 1.079078-.018293.8555614-.818604 1.5500593-2.375324 2.0891288-1.365103.4695726-3.451401.5494-5.713767.2390124.639335-.5644263 1.172114-.9969027 1.618459-1.2880378m6.689085-29.182507c.122583.0585079.322154.1879004.39802.0311292.050827-.0997635-.074745-.1856501-.177147-.2374071l-.261235-.1282673-.124452.2524091zm.167804.8157353-.163319-.0806359-.070261-.5974558-.166682-.0825111-.221621.4526862-.136784-.0678842.481735-.9803826.424555.2096534c.177146.0870117.325143.2216549.220499.4316833-.093432.1924011-.264599.1980268-.440625.1162658zm.572925-.3202933c.206671-.421557.020928-.9293757-.387556-1.131153-.411474-.2032775-.924229-.0408805-1.132769.3806765-.207045.4226822-.020555.9305009.389425 1.1326532.408858.2017773.922733.0397554 1.1309-.3821767zm-1.695229-.7275984c.194712-.5194452.763152-.7789803 1.286744-.5820787.521724.1980268.778475.7681039.584137 1.2871741-.193591.5198203-.763152.7774801-1.284502.5813286-.522846-.1972767-.77997-.7666037-.586379-1.286424z" fill="#010101"/><path d="m61.558234 4.56747793s-12.1157762-7.6490914-28.0450201-3.14994784c0 0-21.4345544 6.1863224-28.84045902 23.50966711 0 0-9.97232069 16.090459-.78043062 33.8667285 0 0 5.5094036 12.4506409 20.19432464 15.9782541 0 0 18.7780886 5.0670099 32.5406825-5.3858361 0 0 20.7796476-10.996082 21.3076662-34.2183951 0 0 2.0138385-20.4760293-16.3767636-30.60047067m10.0882938 40.49913387c-3.8121035 10.3502195-20.8587822 21.8279617-20.8587822 21.8279617-30.5132002 15.3009195-42.42158914-6.8828139-42.42158914-6.8828139-6.72643878-14.4019118 1.5035569-28.1346992 1.5035569-28.1346992 7.85342424-15.5266977 22.74163924-21.6842847 22.74163924-21.6842847 20.8656041-8.99965545 32.7589848 1.1261543 32.7589848 1.1261543 16.8270121 12.6011597 6.2761904 33.7476818 6.2761904 33.7476818" fill="#ec2227" fill-rule="nonzero"/><path d="m28.245368 22.5418945s-8.2397113 19.1498626-8.3549329 20.304635c0 0-2.9066003 8.9982267-1.5115967 17.7660443l14.6015859.4267341s-4.0396121-1.9291653-1.4882781-12.1966873c0 0 1.7434115-6.1147041 3.0190785-6.5755224 0 0 .3470362-.5753411.5815944.4608183 0 0 2.8969985 10.3806816 10.6799387 18.2295893 0 0 4.8681098 6.6900453 16.9403087 11.3023182 0 0 10.5633455 2.7730899 16.8319456-2.4158876 0 0 5.3399694-3.229818 5.4524475-12.581157 0 0 .0905313-.9475405-.8092941-.226319 0 0-3.9490808 4.3805004-14.0433101 3.5761134 0 0-3.0149635.5753412-11.3698963-5.7670453l-17.7619479-14.5348629s-.8106658-.5780679.3470362-.6966809c0 0 10.3287875-1.8446365 13.3506093-4.2687042 0 0 9.290422-4.5372877 10.5578588-11.3009548 0 0 1.9244739-7.4126301-1.0452239-11.7672265 0 0-1.0424805-.6939542-1.3895168.1145229 0 0-5.311164 5.4452905-9.8925916 8.3669875l-13.6729553 8.8209889s-1.0493389.6925908-.2290713-.9216365l3.9449658-10.3834084s2.2056693-3.5761134-3.8283726-3.1139318c0 0-9.0956427.912093-14.1228679 7.0704249 0 0-.3895585.1963249.3086291.4267341zm74.825244 17.7525199h-.0798l-2.829532 14.7055856h-8.16128l6.0905275-31h8.1531645l-2.998601 14.7097017h.081153l11.245091-14.7097017h6.428665l-10.529593 13.7643622 9.639616 17.2356378h-9.263607z" fill="#ec2227"/><path d="m128.796367 42.1105332c.379601-2.2090802 2.124673-6.0261209 4.80919-6.0261209 1.074626 0 1.715032.6391135 1.715032 1.7436535.001365 3.0069543-2.646284 4.36524-6.524222 4.2824674zm14.203633 4.7044722c-2.76781 1.485837-7.466398 3.3556849-10.583769 3.3556849-2.255758 0-4.141474-1.0217674-4.179708-3.4818793 5.852411.1750438 14.509499-3.8998134 14.509499-10.5555493 0-3.5632951-3.369983-5.1332617-6.275706-5.1332617-10.667063 0-16.470316 9.6708317-16.470316 16.3238537 0 5.3449426 5.035858 7.6761463 9.726253 7.6761463 4.103241 0 8.064474-1.1031831 12.115827-2.5442415z" fill="#ec2227" fill-rule="nonzero"/><path d="m155.22627 41.4364098h.510096c1.691298-3.9824419 6.00614-10.4364098 10.697127-10.4364098 2.872502 0 4.566507 2.1651842 4.566507 4.8876054 0 1.1338801-.299022 2.2608294-.50739 3.3850064l-3.091694 15.7273882h-8.115529l2.831911-14.7362828c.047356-.2994109.219192-.8192214.219192-1.1629895 0-.2605983-.085241-.6916945-.466798-.6916945-1.481578 0-6.475645 7.5753725-7.271232 9.2651033l-1.44234 7.3258635h-8.15612l4.563801-23.4788033h8.073585zm19.251115-10.4364098h8.454496l2.575077 13.365722 9.233199-13.365722h6.259843l-21.457608 31h-8.542392l7.902399-8.1443995z" fill="#ec2227"/><path d="m213.304608 38.7190111c-1.838735 2.6407502-5.853874 9.3763001-8.116405 9.3763001-.727292 0-.941925-.7215687-.941925-1.3231032 0-2.171526 1.926228-11.1699915 6.872355-11.1699915.941924 0 1.87838.3450981 2.653519.7706735zm-3.119697 15.7694799h8.195697l4.619392-23.1011082h-7.73362c-.596051 0-1.922127-.3873828-3.845621-.3873828-8.071291 0-15.420759 10.4443308-15.420759 17.9041773 0 3.0690537 1.969975 6.0958227 5.302937 6.0958227 4.735595 0 9.092506-6.3481671 10.797266-10.2738278h.519493zm32.560023-12.1365678 5.766353-10.8067101h.086784l2.026351 10.8067101zm-12.744934 12.6480768h5.899973l4.172547-7.7620059h11.494135l1.509776 7.7620059h7.923569l-5.986758-31h-8.265197zm37.475605-23.2847194h7.983548l-4.478253 23.2847194h-7.9809zm1.5382-7.7152806h7.986195l-1.125189 4.6860945h-7.99149z" fill="#ec2227" fill-rule="nonzero"/><path d="m286.456581 41.4364098h.512401c1.720895-3.9824419 6.123957-10.4364098 10.922023-10.4364098.951603 0 1.729183.257826 2.108995.4796119l-2.937676 7.2745755c-.549692-.3021832-1.160154-.5655539-1.802383-.5655539-4.19451 0-7.819992 6.7589234-9.458019 9.485503l-1.469529 7.3258635h-8.332393l4.661334-23.4788033h8.25505zm50.543419-10.4364098-11.650419 23h-7.922009l-.594564-13.8790294h-.090836l-6.921436 13.8790294h-7.909622l-.911114-23h7.272394l.516114 14.5905656h.082578l7.312307-14.5905656h6.921436l.645486 14.6326603h.096342l7.346714-14.6326603z" fill="#ec2227"/><path d="m351.307131 38.7190111c-1.84066 2.6407502-5.865225 9.3763001-8.121606 9.3763001-.72888 0-.940843-.7215687-.940843-1.3231032 0-2.171526 1.928181-11.1699915 6.882648-11.1699915.938108 0 1.877583.3450981 2.647488.7706735zm-3.122011 15.7694799h8.205024l4.609856-23.1011082h-7.737338c-.590762 0-1.914506-.3873828-3.838584-.3873828-8.076479 0-15.424078 10.4443308-15.424078 17.9041773 0 3.0690537 1.955531 6.0958227 5.296343 6.0958227 4.743872 0 9.102107-6.3481671 10.811487-10.2738278h.512814z" fill="#ec2227" fill-rule="nonzero"/><path d="m363.475375 31h8.457067l2.574607 13.365722 9.230135-13.365722h6.262816l-21.460546 31h-8.539454l7.903698-8.1443995zm44.523101 5.6391589c-1.711111-.5914537-3.492063-1.0553922-5.278603-1.0553922-1.399619 0-3.320254.420529-3.320254 2.1175672 0 2.7117342 7.290032 4.6610898 7.290032 9.664029 0 3.052227-2.095238 7.6346371-11.046095 7.6346371-2.965461 0-5.724191-.5534705-8.643556-1.2751526l1.093714-5.385485c2.086857.8898938 5.281397 2.0782275 7.548445 2.0782275 1.132825 0 2.619047-.7148994 2.619047-2.2057427 0-3.1376894-6.763428-5.0843319-6.763428-10.0886277 0-2.7117341 1.917841-7.1232195 10.907809-7.1232195 2.187429 0 4.550857.4273118 6.594413.6796292z" fill="#ec2227"/><g fill="#010101"><path d="m180.877782 70.7224054.122218.1226581c-.328203.3959722-.876123.5959582-1.631401.5959582-.109859 0-.650913-.0439969-1.634148-.1226581-.985982-.0813276-1.518796-.1186583-1.59707-.1186583h-5.766207c-3.331465 3.1944425-4.988957 5.8409234-4.988957 7.9567749 0 1.4558979.749785 2.5424883 2.246609 3.2584381 1.068376.5226299 2.236998.7772787 3.511358.7772787 1.319678-.0186653 2.591292-.250649 3.820336-.6879517.946157-.317311 2.294673-.9332678 4.035932-1.8532033.14419.099993.308978.1493229.494365.1493229l-.064542.7559469c-3.693998 2.9597923-7.103737 4.4436882-10.225096 4.4436882-1.646507 0-3.140585-.3533085-4.505579-1.0532594-1.820908-.9399341-2.731361-2.3371693-2.731361-4.1717073-.026092-1.5025612.716828-3.2024419 2.216398-5.1089748.753906-.9559329 2.098301-2.3771665 4.035933-4.2610343l-10.138582.4799663c-.716828.0399972-1.077988-.1879868-1.077988-.6879517 0-.4399691.232076-.9466002.711335-1.5278928.471019-.5759596.859644-.8652726 1.172741-.8652726h11.728787c.436688-.4133043 1.113692-1.0159287 2.039251-1.8038734.41197 0 .749786.0493299 1.017566.1466564.021972.417304-.133203.7999438-.461406 1.134587l-.527322.5332959c1.315558.0826609 2.625622.1693215 3.9453.2693145 1.825027.1186583 3.034845.3146446 3.633575.5959581.208732.1026595.410597.4506351.617955 1.0425935"/><path d="m194.600468 82.4984925h.399532c-.678243.6217755-1.702471 1.3279732-3.082297 2.1132328-1.580278.920603-2.70336 1.3882747-3.382975 1.3882747-.57939 0-1.051688-.2572864-1.418269-.7571189-.266354-.4046901-.399531-.7906198-.399531-1.1738694v-2.8328308c0-.1407035-.096107-.2103853-.285576-.2103853-.215555 0-1.248021.7222781-3.072686 2.1829146-1.827411 1.4539364-3.112502 2.1668342-3.852528 2.1494138-1.003634 0-1.506138-.7691793-1.506138-2.316918 0-.8227805.266354-1.5772194.800436-2.2592965 2.523502-3.1504187 3.877241-4.8281407 4.065337-5.0278056 1.556937-1.9108878 2.982071-3.5644892 4.2754-4.9688443.473671-.5252931.94597-.7852596 1.422387-.7852596.549184 0 .829268.238526.829268.7222781-.006865.0227805-.012356.0629815-.012356.1192629 0 .0603015.005491.1005026.012356.119263 0 .5467337-.193587 1.2087102-.586254 1.9912898-.816912 1.6871022-1.935875 3.0378559-3.326684 4.0629816-2.957357 2.1494137-4.43329 3.5551089-4.43329 4.2130653 0 .3055276.086496.6190955.244387.9353434.163382.3269682.383056.4958124.643919.5118928.314408 0 1.142303-.5092127 2.500161-1.5303183.556049-.4234506 1.390809-1.0077052 2.496043-1.7460636.593119-.3618091 1.156033-.5360134 1.688741-.5360134.126313 0 .248506.0053601.3707.0281407.347359.239866.579389.5306532.685107.8670017.016476.0629815.068648.4180904.151026 1.0546063.038443.2224456.054918 1.1149079.054918 2.678727.048054.079062.138669.1889447.280084.3296482.903408.0562814 2.11436-.5185929 3.6356-1.7460636h.678243c.045308.0777219.081005.2184254.124939.4234506"/><path d="m199.441844 79.9517915c0 .826815-1.194572 1.3534849-3.582301 1.58992.232121-.5110963.686454-.9754718 1.36017-1.4002056.683624-.4247337 1.231372-.6328532 1.655983-.6328532.376488-.0014158.566148.1486568.566148.4431388m2.641079-.4983542c0-.9882139-.584547-1.4766577-1.745151-1.4525894-1.037465 0-2.424528.4643755-4.162602 1.3931266-2.135792 1.1255445-3.201566 2.353025-3.174674 3.6838574 0 1.0377661.53501 1.8249393 1.620599 2.3530249.805345.3822604 1.697028.5691432 2.696279.5691432 1.106819 0 2.341021-.3185503 3.718176-.9556509.866206-.4077444 2.144285-1.1354549 3.841313-2.2029524l-.351012-.1939617v.0325629h.474149v-.8253992c-2.639664 1.204828-4.660812 1.8107815-6.053536 1.8107815-1.740904 0-2.79677-.3482817-3.177505-1.044845 4.226294-.5479065 6.330949-1.6040778 6.313964-3.1670979" fill-rule="nonzero"/><path d="m253.53199 81.5843929 1.46801-1.4718691c-.960653 1.5390973-2.320537 2.9237127-4.079655 4.149555-1.684261 1.1614749-3.073256 1.7379212-4.166986 1.7379212-.395074 0-.934314-.1816592-1.616336-.5478385-.812327-.4291164-1.215718-.8911316-1.215718-1.3874762 0-.2317228.298038-.6007629.903818-1.0899555.41448-.3261284.831733-.6608391 1.272552-.9984107-.148325-.1745073-.474088-.3890654-.974514-.6436745-.514289-.2589002-.798465-.3919262-.863617-.3919262-.079015 0-.292493.1344564-.61687.3876351l-.462998.3189764c-.167733.1287349-.357646.2488875-.562807.3561666-.170505-.1501907-.371508-.261761-.616869-.3232676.246748-.4047998.655684-.866815 1.24067-1.3917674l-.031883-.062937c-.079015-.1673554-.116443-.3561666-.097036-.5435474.10258-.3018118.557262-.8239034 1.358499-1.5691354.790147-.745232 1.388995-1.1128417 1.778524-1.1128417.213478 0 .468543.1501907.755491.4520025-.045745.4291164-.097035.7109028-.162188.8382073-.059607.1273045-.221795.3518754-.48795.6780038.446364.2345836.909362.4820407 1.364043.7409409.616869.3661793.92877.7180547.92877 1.0627781 0 .4491418-.278631.84822-.831734 1.1929434-.565579.3418627-.858072.6179276-.877479.8353465 0 .5564209.562806.8382073 1.681488.8382073.993922 0 2.455001-.6851558 4.38601-2.0554673h.526765z"/><path d="m260.996074 75.7784817c-.440269.6679489-1.235278 1.0087114-2.390634 1.0087114-.375771 0-.830061-.1316891-1.355861-.3787759-.517386-.2552325-.775378-.5403326-.755748-.8620884 0-.3068221.276219-.6367236.821649-.9992081.440269-.3054644.75014-.4833126.939427-.5471207.172463 0 .5917.1982125 1.261919.5729155.356141.2063582 1.183398.6082136 2.483174 1.2069238h-1.003926zm-6.26332 10.2215183c-1.826977 0-2.732754-.7792737-2.732754-2.3432515 0-.5892069.089736-1.0847381.281828-1.4757325.103758-.1792058.775379-.8023533 2.010657-1.8721575 1.327818-1.1295396 2.149467-1.6820908 2.483174-1.6644417.152832 0 .29585.0407286.448682.1113248l.123388.0543048h.281828v.7290417c-1.675547 1.395633-2.522434 2.4179206-2.522434 3.0668628 0 .7670551.525799 1.1526191 1.577397 1.1526191.689849 0 1.497477-.2199344 2.418677-.6706641.755749-.4045707 1.505889-.8118566 2.240606-1.2164272l.370162.3339744v.6435117c-3.024397 2.1002376-5.343522 3.1510352-6.981211 3.1510352z" fill-rule="nonzero"/><path d="m276.658858 81.5441799.242893.2803883c-1.462815 1.0359173-2.454855 1.6989044-2.966568 1.9903424-1.324994.7900596-2.424835 1.1850894-3.30771 1.1850894-.78599 0-1.434159-.2237581-1.932226-.6546997-.56766-.4834281-.850125-1.1809457-.850125-2.1174149 0-.2872944.031385-.5953072.095519-.9019387-1.393222 1.1837082-2.348419 1.9516682-2.883329 2.3052613-1.305891.9088447-2.412554 1.368792-3.302252 1.368792-.780532 0-1.43143-.2334267-1.963611-.6767993-.530817-.4433726-.791449-1.0359173-.791449-1.7665843 0-1.560782 1.188538-2.8646566 3.581988-3.9102424 1.791676-.792822 3.262679-1.1657522 4.406186-1.1229343 1.300432.0234808 1.836707.0441991 1.593814.0607738 0 .1104978.04503.4116044.154196.9060823-.287924.2983442-.556743.4502787-.794178.4502787-.109165 0-.260632-.0193371-.466682-.062155-.199227-.0414367-.352058-.0649175-.455765-.0649175-.760064 0-1.674324.2817695-2.756425.8384024-1.247214.6408875-1.868092 1.3301178-1.868092 2.0718345 0 .5856386.360246.8328775 1.068456.7444793.716397 0 1.60473-.3204438 2.667728-.9640937.978394-.6146443 1.758926-1.2762501 2.353877-1.9848175.388902-.4530412.780533-1.1077409 1.16534-1.9530494.548556-1.1975204.877417-1.9033254.978395-2.1091276.428474-.7251421 1.233568-1.8715572 2.416648-3.4447703 1.529679-2.0069171 2.544917-3.0110662 3.033431-3.0110662.242893-.0193371.439391.1781778.620878.5897822.133728.3107752.201956.5372958.201956.6823242 0 1.3245929-.581305 2.638136-1.737093 3.9420106-1.062998 1.0359173-2.132818 2.0690721-3.219013 3.1049894-1.143507 1.1560837-1.713896 2.2334376-1.713896 3.2210121 0 .7279046.231976 1.2886811.704116 1.6837109.383444.3301123.889698.4944779 1.498295.4944779.671366 0 1.70025-.4364665 3.062087-1.3011122.383444-.2527638.775074-.4558036 1.16534-.6201691l.338413.3397809v.5303896z"/><path d="m279.440607 79.9517915c0 .826815-1.193622 1.3534849-3.579451 1.58992.226279-.5110963.684494-.9754718 1.359088-1.4002056.677423-.4247337 1.22615-.6328532 1.651837-.6328532.377603-.0014158.568526.1486568.568526.4431388m2.631908-.4983542c0-.9882139-.577011-1.4766577-1.742348-1.4525894-1.032398 0-2.419772.4643755-4.156463 1.3931266-2.135508 1.1255445-3.187706 2.353025-3.173563 3.6838574 0 1.0377661.541655 1.8249393 1.61648 2.3530249.808948.3822604 1.704164.5691432 2.704035.5691432 1.101696 0 2.333502-.3185503 3.706733-.9556509.866931-.4077444 2.149651-1.1354549 3.845329-2.2029524l-.350732-.1939617v.0325629h.478014v-.8253992c-2.640393 1.204828-4.668419 1.8107815-6.060035 1.8107815-1.738106 0-2.798789-.3482817-3.167906-1.044845 4.221518-.5479065 6.328741-1.6040778 6.300456-3.1670979" fill-rule="nonzero"/><path d="m304.784325 79.6779716.215675-.1150536c-.328904.5843168-1.560947 1.0561655-3.690738 1.4207171-.447525 1.2811015-1.43963 2.2997776-2.993837 3.057321-1.271135.6386117-2.585404.9566248-3.936068.9566248-.721163.0219765-1.403235-.1060044-2.052956-.3748935-.892355-.4085046-1.326401-1.0122124-1.326401-1.8059524 0-1.0328962.624109-1.9959847 1.900635-2.8892654 1.024456-.7187613 2.14327-1.2125865 3.33083-1.4814756l.024264-.0361966c.1658-.1331519.355864-.1990814.57693-.1990814h1.331793c-.118621.2365707-.284421.514509-.478529.8415712-.190063.0426603-.486616.1189318-.911226.2365708-1.800886.484776-2.698633 1.1815608-2.722896 2.0942326 0 .9941141.897746 1.4866466 2.690544 1.4866466 1.46659 0 2.590796-.6192207 3.356442-1.8511982-.323513-.0426603-1.276526-.2275216-2.869825-.5558766.563451-1.116924 1.047372-1.9391042 1.45311-2.4626624.721163.3115494 1.447718.6192206 2.174273.9243064.858656.3490387 1.621606.5183872 2.298286.5183872.436742 0 .974581-.0555877 1.598691-.1706412l.057962.4059192z"/><path d="m310.643618 79.0367371c.141172.0438226.617626.0671033 1.426649.0671033-.031221 0 .350215-.0164334 1.16331-.0479309.809022-.0314975 1.635692-.0479309 2.46779-.0479309-.64206.6970527-1.413075 1.146234-2.34698 1.3502828-.29999.0616255-1.204032.1437928-2.680906.2451325-.650205.0438225-1.151093.105448-1.495878.183507-.119453.0410836-.305419.213635-.533466.5135457-.236191.2916939-.381435.5833879-.439804.8723429.03665.7764811.058369 1.8008336.058369 3.071688 0 .4697232-.358359 1.6269128-1.062861 3.4729384-.840243 2.1856505-1.558319 3.2825841-2.189519 3.2825841-.692285 0-1.023496-.5135457-1.009921-1.5337898v-.2150045c.019004-.0807978.03122-.135576.03122-.153379 0-2.0089907.355645-3.8194105 1.060146-5.4381065.044795-.0986008.370576-.734028.981415-1.9062817.567402-1.0818696.859247-1.6460851.859247-1.6844299 0-.0862756-.077373-.1972015-.222617-.3409943l-.089589-.1246204c-.795449-.0410837-1.569179-.1698125-2.341551-.3985115 0-.4286395.08959-.7134862.286416-.8572789.198183-.1465318.604052-.3629057 1.204032-.6477524.609482-.2834772.990917-.4300089 1.163309-.4300089.158819 0 .439805.0575171.832099.1698125.38958.1122953.662422.1670735.809023.1670735.019004 0 .739794-1.1654064 2.158299-3.4962191.809023-1.3968443 1.850165-3.1319441 3.109851-5.2217327.244336-.4327478.675996-.7258112 1.304481-.8887764.572832 0 .853818.3807085.853818 1.1325394 0 1.3899971-.481884 2.8183388-1.45787 4.2685919-.666493 1.0435248-1.970975 2.5896398-3.898512 4.6356058m41.201102 5.9163891c-.910667 0-1.584009-.5498458-2.010367-1.648183-.147638-.5579716-.355988-1.2716876-.619529-2.1194794-.169715-.6703784-.447055-1.6915205-.840297-3.0701978-.27182-1.0319766-.517425-2.0788504-.771307-3.1297871-.328392-1.2608532-.749231-2.2373034-1.266655-2.9496652-.441536-.6094349-1.153512-.9073809-2.134548-.9073809-1.463966 0-3.330834.7259047-5.603361 2.1831314-1.695773 1.1768866-3.401203 2.348356-5.114913 3.526597 1.835132.2451282 4.218044.3534722 7.128038.3304491 1.007253 0 2.513993-.0474005 4.513321-.148973.121422-.0189602.420838-.077195.896869-.1814761.376685-.0826123.655404-.1205327.834778-.1205327h.647125l-.059331.5173425c-.019317.2600256-.172475.4821308-.458093.6663156-1.695772 1.0956286-4.79204 1.6603717-9.286043 1.702355-1.283213.0189602-2.886538-.0311489-4.794799-.1530359-.115903 0-.800283-.0907381-2.083496-.2722143-.212489-.040629-.34219-.0636521-.398762-.0636521-.022076.0446919-.086927.1273042-.189032.2451283-4.896904 4.4244978-8.162887 6.6401324-9.817265 6.6401324-.331152 0-.641606-.0893838-.9562-.2695057-.304936-.1855391-.460853-.4238958-.460853-.7082988 0-.4238959 1.288732-1.5168159 3.867575-3.2855316 1.274933-.8464374 2.918273-1.9515462 4.92312-3.3058461-.266301-.1273041-.665063-.3020088-1.178348-.5214054l-.059331-.7055903c.34495-.2816943.830639-.6121435 1.430851-.9899932.61401-.3697239 1.021051-.5579716 1.2294-.5579716.121423 0 .438776.1178241.943782.352118.503627.2288767.789245.3467008.854096.3467008.059331-.0446919.206969-.1449101.426357-.3047175 8.383655-5.3684448 13.447515-8.0499586 15.175022-8.0499586 1.105219 0 2.106952.8003912 2.974846 2.3998194.568476 1.1159431 1.170069 2.7939207 1.792358 5.0434129.282858 1.1944925.717495 2.8480927 1.303909 4.9513204.429117 1.3962832.816841 2.0923934 1.172829 2.0923934.304935 0 .729913-.2099165 1.266654-.6324581.373926-.3494094.751991-.6852758 1.131435-1.0184335.382204-.3372207.763029-.6026635 1.125916-.8071628.019317 0 .231806.1422015.619529.4225416v.216688c-.780966 1.0346851-1.733027 1.9637348-2.850663 2.7939207-1.291492.9886389-2.391191 1.4910842-3.304617 1.4910842"/><path d="m363.644662 79.0367371c.141072.0438226.617193.0671033 1.420222.0671033-.031198 0 .349969-.0164334 1.16792-.0479309.808455-.0314975 1.629119-.0479309 2.460634-.0479309-.636184.6970527-1.412084 1.146234-2.339908 1.3502828-.311988.0616255-1.203188.1437928-2.684452.2451325-.649748.0438225-1.150285.105448-1.494828.183507-.122082.0410836-.29978.213635-.527667.5135457-.236025.2916939-.381167.5833879-.444921.8723429.044763.7764811.063754 1.8008336.063754 3.071688 0 .4697232-.358108 1.6269128-1.067541 3.4729384-.834228 2.1856505-1.557226 3.2825841-2.187984 3.2825841-.686373 0-1.022777-.5135457-1.003787-1.5337898-.008139-.0671033-.008139-.1355761 0-.2150045.018991-.0807978.024417-.135576.024417-.153379 0-2.0089907.358107-3.8194105 1.070253-5.4381065.042051-.0986008.367603-.734028.972588-1.9062817.564291-1.0818696.850506-1.6460851.850506-1.6844299 0-.0862756-.063754-.1972015-.214322-.3409943l-.082744-.1246204c-.80303-.0410837-1.565365-.1698125-2.346691-.3985115 0-.4286395.094953-.7134862.291641-.8572789.185836-.1465318.585994-.3629057 1.203187-.6477524.603629-.2834772.990222-.4300089 1.150286-.4300089.166845 0 .444921.0575171.834228.1698125.400158.1122953.667382.1670735.813881.1670735.027129 0 .744701-1.1654064 2.156785-3.4962191.813881-1.3968443 1.848867-3.1319441 3.10767-5.2217327.241451-.4327478.680947-.7258112 1.311705-.8887764.564291 0 .850506.3807085.850506 1.1325394 0 1.3899971-.489685 2.8183388-1.467699 4.2685919-.668739 1.0435248-1.958741 2.5896398-3.887639 4.6356058"/><path d="m378.542458 81.5843929 1.457542-1.4718691c-.951355 1.5390973-2.31598 2.9237127-4.075848 4.149555-1.68498 1.1614749-3.069021 1.7379212-4.165991 1.7379212-.389695 0-.93194-.1816592-1.6198-.5478385-.807126-.4291164-1.216236-.8911316-1.216236-1.3874762 0-.2317228.306486-.6007629.90975-1.0899555.409111-.3261284.832089-.6608391 1.27587-.9984107-.151163-.1745073-.477064-.3890654-.983252-.6436745-.506187-.2589002-.793258-.3919262-.858438-.3919262-.076275 0-.292618.1344564-.62268.3876351l-.460422.3189764c-.170578.1287349-.357798.2488875-.560273.3561666-.176126-.1501907-.375827-.261761-.62268-.3232676.246853-.4047998.664284-.866815 1.241199-1.3917674l-.031897-.062937c-.079048-.1673554-.102624-.3561666-.088756-.5435474.102624-.3018118.551952-.8239034 1.352144-1.5691354s1.389589-1.1128417 1.801473-1.1128417c.201088 0 .441007.1501907.739172.4520025-.045765.4291164-.097077.7109028-.162258.8382073-.056859.1273045-.219116.3518754-.492319.6780038.454875.2345836.915298.4820407 1.364626.7409409.62268.3661793.934713.7180547.934713 1.0627781 0 .4491418-.27875.84822-.837636 1.1929434-.560273.3418627-.852891.6179276-.863986.8353465 0 .5564209.551953.8382073 1.668338.8382073.99712 0 2.458823-.6851558 4.387882-2.0554673h.529763z"/><path d="m383.992292 75.7784817c-.438683.6679489-1.234759 1.0087114-2.398038 1.0087114-.367204 0-.821304-.1316891-1.332866-.3787759-.531185-.2552325-.780659-.5403326-.761038-.8620884 0-.3068221.267695-.6367236.812895-.9992081.440084-.3054644.755431-.4833126.953048-.5471207.158374 0 .580238.1982125 1.248774.5729155.361597.2063582 1.182901.6082136 2.484933 1.2069238h-1.007708zm-6.252278 10.2215183c-1.829012 0-2.740014-.7792737-2.740014-2.3432515 0-.5892069.089699-1.0847381.28171-1.4757325.103714-.1792058.775052-.8023533 2.016818-1.8721575 1.314646-1.1295396 2.148564-1.6820908 2.477926-1.6644417.149965 0 .295725.0407286.44569.1113248l.123336.0543048h.284513v.7290417c-1.674842 1.395633-2.51857 2.4179206-2.51857 3.0668628 0 .7670551.525578 1.1526191 1.571128 1.1526191.695164 0 1.496846-.2199344 2.424667-.6706641.755431-.4045707 1.496846-.8118566 2.234057-1.2164272l.37281.3339744v.6435117c-3.011913 2.1002376-5.339873 3.1510352-6.974071 3.1510352z" fill-rule="nonzero"/><path d="m386.550006 85c-.754814 0-1.469016-.17979-2.138406-.5288714-.938266-.4593176-1.4116-1.1259842-1.4116-2.011811 0-1.3005249 1.20014-2.4238845 3.610223-3.3635171 1.862528-.7296588 3.405765-1.0958005 4.614307-1.0958005.464932 0 .886451.1167979 1.265959.3569554v.8805774c-.379508.2191601-.820633.3267717-1.317773.3267717-.131638 0-.413117-.0157481-.852842-.0590552-.355701-.0183727-.623177-.0249343-.815031-.0249343-1.030692 0-1.851325.2060367-2.485704.6154855-.539153.332021-.815031.7467192-.815031 1.2362205 0 .4330709.210059.7913386.628778 1.0721785.415918.2874015 1.006885.4278215 1.761699.4278215.602171 0 1.422803-.187664 2.447894-.5629921.792624-.3293964 1.58945-.6653544 2.387676-.9973754.355701-.1561679.590968-.2401574.688995-.2401574h.88085v.7716535c-.964873.6128609-2.237834 1.2519685-3.825884 1.9173228-2.017972.8530184-3.554207 1.2795276-4.62411 1.2795276"/><path d="m400.152495 80.6817619c0 .6141872-.714637 1.2637538-2.153369 1.9331328-1.209075.573147-2.012874.859013-2.419501.859013-.208042 0-.403926-.0735893-.593055-.2193526-.19048-.1485937-.285044-.3085088-.285044-.4769149 0-.7387228.575492-1.3967805 1.754847-1.9670971.991577-.5080488 1.868325-.7599505 2.63835-.7599505.703831 0 1.057772.1995401 1.057772.597205zm5.015973 3.781355c1.727829-.931187 2.673474-1.6812312 2.831532-2.2557934v-.2519016l-.506596-.1301964c-.144548.063683-.760569.3509641-1.823744.8547674-.722743.3410579-1.356326.5405979-1.881834.6014506-.140496-.500973-.216148-.9028834-.216148-1.1986556-.094564-.7203255-.487682-1.2538475-1.145581-1.6118875-.018913-.024058-.049984-.0537767-.089161-.0962321.013509-.1259508.049984-.3311516.089161-.6170175.04458-.2886963.063493-.5009729.063493-.6467362 0-.7387228-.329625-1.1109146-.976717-1.1109146-.417434 0-.709233.1358571-.860537.4075712-.152654.2717141-.285044.533522-.412031.7769326-.506596-.1202901-.988875-.1868035-1.45089-.1868035-1.215829-.0353794-2.704545.3622855-4.456691 1.209977-2.223617 1.0373254-3.332724 2.3194764-3.332724 3.8478684 0 .5703167.208042 1.0415709.628179 1.4024412.429593.3594552.941592.5420131 1.550858.5420131.968611 0 2.514065-.7132496 4.641767-2.1397488 1.102352-.724571 2.134457-1.3897046 3.089558-2.0038917.063494 0 .10267.0070758.121583.0297187l.063494.0297187v.1627455c-.329625.382098-.651145.7585353-.976717 1.1477091-.403925.4811605-.593054.9184504-.575493 1.3005484 0 .8646737.593055 1.3005484 1.785919 1.3005484.830817.0254732 2.11014-.4330444 3.83932-1.3642314z" fill-rule="nonzero"/><path d="m216.101579 77.6419873c-.595104.2319297-1.02866.3438958-1.299288.3438958-.480501 0-1.088032-.2412603-1.844684-.7117843-.829832-.5158437-1.372467-1.0596789-1.625144-1.6315056.432175.0346561.938911.055983 1.50778.055983 1.00933 0 2.214726-.509179 3.617569-1.5208725 1.32138-.9570433 2.383178-2.0153892 3.171587-3.1777037.394895 0 .66138.13196.796693.397213.363138 1.0116934.530209 1.9207513.530209 2.7205089 0 .5305059-.393514 1.0596789-1.209538 1.5755226-1.158451.7464404-1.806023 1.1649803-1.897153 1.2582853-.096653.095971-.328619.5331718-.712468 1.3142684-.310669.5198425-.737321 1.303605-1.274433 2.3526205 3.048699-2.6511966 6.2838-4.854529 9.713587-6.6166617 3.915811-2.0060587 7.36769-3.001757 10.350114-3.001757 1.714893 0 3.236481.3838837 4.563384 1.1396547 1.683136.9330505 2.510206 2.2899727 2.510206 4.0641017 0 1.7021509-.854685 3.3869737-2.575102 5.0677977-1.39732 1.3929112-3.217151 2.6112087-5.449826 3.6615571-1.997948.9597092-3.703176 1.5115419-5.132254 1.662163-2.602716.3052408-4.212673.4585277-4.854722.4585277-1.858492 0-3.566482-.227931-5.126731-.6904575-1.922006-.5691608-3.243385-1.4209027-3.973803-2.5458951 0-.0719782.026234-.1746138.064895-.2945774.038661-.1252954.051088-.2545896.051088-.3905484h.751129c1.416651 1.8087853 4.091167 2.7178431 8.026309 2.7178431 2.569579 0 4.951375-.3905483 7.138486-1.1716449 2.842967-1.0303545 5.042504-2.6338686 6.5779-4.8065435.602008-.8570736.897489-1.718146.925104-2.5752196 0-1.3929113-.712468-2.4299304-2.141546-3.1150561-1.035564-.5358376-2.227152-.8024235-3.540247-.8024235-2.912005 0-6.181625.9397152-9.800575 2.8204786-3.624473 1.8807635-6.710452 4.2453802-9.255178 7.0845199-.122886.1186307-.439079.7091184-.949957 1.7781278-1.088032 2.2339897-1.904056 3.8015147-2.434265 4.7012421-1.319998 2.1580127-2.452214 3.2363526-3.378699 3.2363526-.394895 0-.799455-.1252954-1.21368-.3745532-.469456-.2679188-.708326-.5998182-.708326-.999697 0-.8610724 2.420458-3.7641927 7.254469-8.7133596.096652-.1146319.22092-.2372615.356234-.3745532.575773-.9690397 1.404224-2.5992123 2.490876-4.8958497"/></g></g></svg>